<?xml version="1.0" encoding="UTF-8" standalone="no"?>
<!DOCTYPE svg PUBLIC "-//W3C//DTD SVG 1.1//EN"
 "http://www.w3.org/Graphics/SVG/1.1/DTD/svg11.dtd">
<!-- Generated by graphviz version 2.43.0 (0)
 -->
<!-- Title: include/ccf/base_endpoint_registry.h Pages: 1 -->
<!--zoomable 475 -->
<svg id="main" version="1.1" xmlns="http://www.w3.org/2000/svg" xmlns:xlink="http://www.w3.org/1999/xlink" xml:space="preserve" onload="init(evt)">
<style type="text/css"><![CDATA[
.edge:hover path { stroke: red; }
.edge:hover polygon { stroke: red; fill: red; }
]]></style>
<script type="text/javascript"><![CDATA[
var edges = document.getElementsByTagName('g');
if (edges && edges.length) {
  for (var i=0;i<edges.length;i++) {
    if (edges[i].id.substr(0,4)=='edge') {
      edges[i].setAttribute('class','edge');
    }
  }
}
]]></script>
        <defs>
                <circle id="rim" cx="0" cy="0" r="7"/>
                <circle id="rim2" cx="0" cy="0" r="3.5"/>
                <g id="zoomPlus">
                        <use xlink:href="#rim" fill="#404040">
                                <set attributeName="fill" to="#808080" begin="zoomplus.mouseover" end="zoomplus.mouseout"/>
                        </use>
                        <path d="M-4,0h8M0,-4v8" fill="none" stroke="white" stroke-width="1.5" pointer-events="none"/>
                </g>
                <g id="zoomMin">
                        <use xlink:href="#rim" fill="#404040">
                                <set attributeName="fill" to="#808080" begin="zoomminus.mouseover" end="zoomminus.mouseout"/>
                        </use>
                        <path d="M-4,0h8" fill="none" stroke="white" stroke-width="1.5" pointer-events="none"/>
                </g>
                <g id="dirArrow">
                        <path fill="none" stroke="white" stroke-width="1.5" d="M0,-3.0v7 M-2.5,-0.5L0,-3.0L2.5,-0.5"/>
                </g>
               <g id="resetDef">
                       <use xlink:href="#rim2" fill="#404040">
                               <set attributeName="fill" to="#808080" begin="reset.mouseover" end="reset.mouseout"/>
                       </use>
               </g>
        </defs>

<script type="text/javascript">
var viewWidth = 2282;
var viewHeight = 475;
var sectionId = 'dynsection-1';
</script>
<script xlink:href="svgpan.js"/>
<svg id="graph" class="graph">
<g id="viewport">
<title>include/ccf/base_endpoint_registry.h</title>
<polygon fill="white" stroke="transparent" points="-4,4 -4,-471 2278.38,-471 2278.38,4 -4,4"/>
<!-- Node1 -->
<g id="node1" class="node">
<title>Node1</title>
<g id="a_node1"><a xlink:title=" ">
<polygon fill="#bfbfbf" stroke="black" points="1333.21,-436.5 1333.21,-466.5 1476.21,-466.5 1476.21,-436.5 1333.21,-436.5"/>
<text text-anchor="start" x="1341.21" y="-454.5" font-family="Helvetica,sans-Serif" font-size="10.00">include/ccf/base_endpoint</text>
<text text-anchor="middle" x="1404.71" y="-443.5" font-family="Helvetica,sans-Serif" font-size="10.00">_registry.h</text>
</a>
</g>
</g>
<!-- Node2 -->
<g id="node2" class="node">
<title>Node2</title>
<g id="a_node2"><a xlink:href="common__endpoint__registry_8h.html" target="_top" xlink:title=" ">
<polygon fill="white" stroke="black" points="640.21,-369.5 640.21,-399.5 755.21,-399.5 755.21,-369.5 640.21,-369.5"/>
<text text-anchor="start" x="648.21" y="-387.5" font-family="Helvetica,sans-Serif" font-size="10.00">include/ccf/common</text>
<text text-anchor="middle" x="697.71" y="-376.5" font-family="Helvetica,sans-Serif" font-size="10.00">_endpoint_registry.h</text>
</a>
</g>
</g>
<!-- Node1&#45;&gt;Node2 -->
<g id="edge1" class="edge">
<title>Node1&#45;&gt;Node2</title>
<path fill="none" stroke="midnightblue" d="M1322.88,-442.98C1178.23,-429.68 880.82,-402.33 755.45,-390.81"/>
<polygon fill="midnightblue" stroke="midnightblue" points="1322.75,-446.48 1333.03,-443.91 1323.39,-439.51 1322.75,-446.48"/>
</g>
<!-- Node5 -->
<g id="node5" class="node">
<title>Node5</title>
<g id="a_node5"><a xlink:href="nobuiltins_8cpp.html" target="_top" xlink:title=" ">
<polygon fill="white" stroke="black" points="1013.21,-235.5 1013.21,-265.5 1148.21,-265.5 1148.21,-235.5 1013.21,-235.5"/>
<text text-anchor="start" x="1021.21" y="-253.5" font-family="Helvetica,sans-Serif" font-size="10.00">samples/apps/nobuiltins</text>
<text text-anchor="middle" x="1080.71" y="-242.5" font-family="Helvetica,sans-Serif" font-size="10.00">/nobuiltins.cpp</text>
</a>
</g>
</g>
<!-- Node1&#45;&gt;Node5 -->
<g id="edge30" class="edge">
<title>Node1&#45;&gt;Node5</title>
<path fill="none" stroke="midnightblue" d="M1322.94,-449.34C1237.68,-446.2 1112.28,-435.48 1081.71,-400 1048.73,-361.72 1065.66,-295.01 1075.41,-265.84"/>
<polygon fill="midnightblue" stroke="midnightblue" points="1323.01,-452.85 1333.12,-449.69 1323.25,-445.85 1323.01,-452.85"/>
</g>
<!-- Node24 -->
<g id="node24" class="node">
<title>Node24</title>
<g id="a_node24"><a xlink:href="ccf__global_8h.html" target="_top" xlink:title=" ">
<polygon fill="white" stroke="black" points="1091.21,-369.5 1091.21,-399.5 1202.21,-399.5 1202.21,-369.5 1091.21,-369.5"/>
<text text-anchor="start" x="1099.21" y="-387.5" font-family="Helvetica,sans-Serif" font-size="10.00">src/apps/js_v8/tmpl</text>
<text text-anchor="middle" x="1146.71" y="-376.5" font-family="Helvetica,sans-Serif" font-size="10.00">/ccf_global.h</text>
</a>
</g>
</g>
<!-- Node1&#45;&gt;Node24 -->
<g id="edge31" class="edge">
<title>Node1&#45;&gt;Node24</title>
<path fill="none" stroke="midnightblue" d="M1339.12,-433.98C1296.83,-423.32 1242.43,-409.62 1202.28,-399.5"/>
<polygon fill="midnightblue" stroke="midnightblue" points="1338.49,-437.43 1349.05,-436.48 1340.2,-430.64 1338.49,-437.43"/>
</g>
<!-- Node26 -->
<g id="node26" class="node">
<title>Node26</title>
<g id="a_node26"><a xlink:href="consensus_8h.html" target="_top" xlink:title=" ">
<polygon fill="white" stroke="black" points="1220.21,-369.5 1220.21,-399.5 1331.21,-399.5 1331.21,-369.5 1220.21,-369.5"/>
<text text-anchor="start" x="1228.21" y="-387.5" font-family="Helvetica,sans-Serif" font-size="10.00">src/apps/js_v8/tmpl</text>
<text text-anchor="middle" x="1275.71" y="-376.5" font-family="Helvetica,sans-Serif" font-size="10.00">/consensus.h</text>
</a>
</g>
</g>
<!-- Node1&#45;&gt;Node26 -->
<g id="edge34" class="edge">
<title>Node1&#45;&gt;Node26</title>
<path fill="none" stroke="midnightblue" d="M1367.7,-431.85C1347.31,-421.58 1322.4,-409.03 1303.65,-399.58"/>
<polygon fill="midnightblue" stroke="midnightblue" points="1366.21,-435.02 1376.72,-436.4 1369.36,-428.77 1366.21,-435.02"/>
</g>
<!-- Node28 -->
<g id="node28" class="node">
<title>Node28</title>
<g id="a_node28"><a xlink:href="apps_2js__v8_2tmpl_2request_8h.html" target="_top" xlink:title=" ">
<polygon fill="white" stroke="black" points="1349.21,-369.5 1349.21,-399.5 1460.21,-399.5 1460.21,-369.5 1349.21,-369.5"/>
<text text-anchor="start" x="1357.21" y="-387.5" font-family="Helvetica,sans-Serif" font-size="10.00">src/apps/js_v8/tmpl</text>
<text text-anchor="middle" x="1404.71" y="-376.5" font-family="Helvetica,sans-Serif" font-size="10.00">/request.h</text>
</a>
</g>
</g>
<!-- Node1&#45;&gt;Node28 -->
<g id="edge37" class="edge">
<title>Node1&#45;&gt;Node28</title>
<path fill="none" stroke="midnightblue" d="M1404.71,-426.11C1404.71,-417.15 1404.71,-407.32 1404.71,-399.58"/>
<polygon fill="midnightblue" stroke="midnightblue" points="1401.21,-426.4 1404.71,-436.4 1408.21,-426.4 1401.21,-426.4"/>
</g>
<!-- Node30 -->
<g id="node30" class="node">
<title>Node30</title>
<g id="a_node30"><a xlink:href="request__authn__identity_8cpp.html" target="_top" xlink:title=" ">
<polygon fill="white" stroke="black" points="1569.21,-302.5 1569.21,-332.5 1720.21,-332.5 1720.21,-302.5 1569.21,-302.5"/>
<text text-anchor="start" x="1577.21" y="-320.5" font-family="Helvetica,sans-Serif" font-size="10.00">src/apps/js_v8/tmpl</text>
<text text-anchor="middle" x="1644.71" y="-309.5" font-family="Helvetica,sans-Serif" font-size="10.00">/request_authn_identity.cpp</text>
</a>
</g>
</g>
<!-- Node1&#45;&gt;Node30 -->
<g id="edge40" class="edge">
<title>Node1&#45;&gt;Node30</title>
<path fill="none" stroke="midnightblue" d="M1486.61,-441.28C1541.8,-433.38 1608,-420.05 1627.71,-400 1645.34,-382.07 1646.86,-350.86 1646.02,-332.71"/>
<polygon fill="midnightblue" stroke="midnightblue" points="1485.87,-437.85 1476.44,-442.69 1486.83,-444.78 1485.87,-437.85"/>
</g>
<!-- Node31 -->
<g id="node31" class="node">
<title>Node31</title>
<g id="a_node31"><a xlink:href="request__authn__identity_8h.html" target="_top" xlink:title=" ">
<polygon fill="white" stroke="black" points="1478.71,-369.5 1478.71,-399.5 1618.71,-399.5 1618.71,-369.5 1478.71,-369.5"/>
<text text-anchor="start" x="1486.71" y="-387.5" font-family="Helvetica,sans-Serif" font-size="10.00">src/apps/js_v8/tmpl</text>
<text text-anchor="middle" x="1548.71" y="-376.5" font-family="Helvetica,sans-Serif" font-size="10.00">/request_authn_identity.h</text>
</a>
</g>
</g>
<!-- Node1&#45;&gt;Node31 -->
<g id="edge41" class="edge">
<title>Node1&#45;&gt;Node31</title>
<path fill="none" stroke="midnightblue" d="M1445.1,-432.27C1468.04,-421.92 1496.31,-409.15 1517.53,-399.58"/>
<polygon fill="midnightblue" stroke="midnightblue" points="1443.63,-429.09 1435.96,-436.4 1446.51,-435.47 1443.63,-429.09"/>
</g>
<!-- Node32 -->
<g id="node32" class="node">
<title>Node32</title>
<g id="a_node32"><a xlink:href="base__endpoint__registry_8cpp.html" target="_top" xlink:title=" ">
<polygon fill="white" stroke="black" points="1674.71,-369.5 1674.71,-399.5 1800.71,-399.5 1800.71,-369.5 1674.71,-369.5"/>
<text text-anchor="start" x="1682.71" y="-387.5" font-family="Helvetica,sans-Serif" font-size="10.00">src/endpoints/base</text>
<text text-anchor="middle" x="1737.71" y="-376.5" font-family="Helvetica,sans-Serif" font-size="10.00">_endpoint_registry.cpp</text>
</a>
</g>
</g>
<!-- Node1&#45;&gt;Node32 -->
<g id="edge44" class="edge">
<title>Node1&#45;&gt;Node32</title>
<path fill="none" stroke="midnightblue" d="M1486.44,-434.55C1544.51,-423.21 1621.34,-408.21 1674.69,-397.8"/>
<polygon fill="midnightblue" stroke="midnightblue" points="1485.7,-431.12 1476.56,-436.48 1487.04,-438 1485.7,-431.12"/>
</g>
<!-- Node33 -->
<g id="node33" class="node">
<title>Node33</title>
<g id="a_node33"><a xlink:href="wrap_8h.html" target="_top" xlink:title=" ">
<polygon fill="white" stroke="black" points="1789.71,-308 1789.71,-327 1867.71,-327 1867.71,-308 1789.71,-308"/>
<text text-anchor="middle" x="1828.71" y="-315" font-family="Helvetica,sans-Serif" font-size="10.00">src/js/wrap.h</text>
</a>
</g>
</g>
<!-- Node1&#45;&gt;Node33 -->
<g id="edge45" class="edge">
<title>Node1&#45;&gt;Node33</title>
<path fill="none" stroke="midnightblue" d="M1486.55,-450.99C1590.96,-449.86 1763.59,-441.52 1809.71,-400 1830.66,-381.14 1830.77,-344.06 1829.59,-327.21"/>
<polygon fill="midnightblue" stroke="midnightblue" points="1486.32,-447.5 1476.35,-451.08 1486.39,-454.49 1486.32,-447.5"/>
</g>
<!-- Node3 -->
<g id="node3" class="node">
<title>Node3</title>
<g id="a_node3"><a xlink:href="app__interface_8h.html" target="_top" xlink:title=" ">
<polygon fill="white" stroke="black" points="623.71,-308 623.71,-327 771.71,-327 771.71,-308 623.71,-308"/>
<text text-anchor="middle" x="697.71" y="-315" font-family="Helvetica,sans-Serif" font-size="10.00">include/ccf/app_interface.h</text>
</a>
</g>
</g>
<!-- Node2&#45;&gt;Node3 -->
<g id="edge2" class="edge">
<title>Node2&#45;&gt;Node3</title>
<path fill="none" stroke="midnightblue" d="M697.71,-359.25C697.71,-348.02 697.71,-335.38 697.71,-327.19"/>
<polygon fill="midnightblue" stroke="midnightblue" points="694.21,-359.4 697.71,-369.4 701.21,-359.4 694.21,-359.4"/>
</g>
<!-- Node18 -->
<g id="node18" class="node">
<title>Node18</title>
<g id="a_node18"><a xlink:href="common__endpoint__registry_8cpp.html" target="_top" xlink:title=" ">
<polygon fill="white" stroke="black" points="67.71,-302.5 67.71,-332.5 195.71,-332.5 195.71,-302.5 67.71,-302.5"/>
<text text-anchor="start" x="75.71" y="-320.5" font-family="Helvetica,sans-Serif" font-size="10.00">src/endpoints/common</text>
<text text-anchor="middle" x="131.71" y="-309.5" font-family="Helvetica,sans-Serif" font-size="10.00">_endpoint_registry.cpp</text>
</a>
</g>
</g>
<!-- Node2&#45;&gt;Node18 -->
<g id="edge20" class="edge">
<title>Node2&#45;&gt;Node18</title>
<path fill="none" stroke="midnightblue" d="M630.11,-378.6C534.89,-371.24 355.97,-355.72 204.71,-333 201.77,-332.56 198.77,-332.08 195.75,-331.57"/>
<polygon fill="midnightblue" stroke="midnightblue" points="629.94,-382.1 640.18,-379.37 630.48,-375.12 629.94,-382.1"/>
</g>
<!-- Node19 -->
<g id="node19" class="node">
<title>Node19</title>
<g id="a_node19"><a xlink:href="member__frontend_8h.html" target="_top" xlink:title=" ">
<polygon fill="white" stroke="black" points="1472.71,-235.5 1472.71,-265.5 1592.71,-265.5 1592.71,-235.5 1472.71,-235.5"/>
<text text-anchor="start" x="1480.71" y="-253.5" font-family="Helvetica,sans-Serif" font-size="10.00">src/node/rpc/member</text>
<text text-anchor="middle" x="1532.71" y="-242.5" font-family="Helvetica,sans-Serif" font-size="10.00">_frontend.h</text>
</a>
</g>
</g>
<!-- Node2&#45;&gt;Node19 -->
<g id="edge21" class="edge">
<title>Node2&#45;&gt;Node19</title>
<path fill="none" stroke="midnightblue" d="M765.39,-369.17C849.73,-351.65 998.39,-321.89 1126.71,-302 1258.98,-281.5 1292.94,-282.99 1425.71,-266 1440.87,-264.06 1457.22,-261.89 1472.46,-259.82"/>
<polygon fill="midnightblue" stroke="midnightblue" points="764.51,-365.78 755.43,-371.24 765.94,-372.63 764.51,-365.78"/>
</g>
<!-- Node20 -->
<g id="node20" class="node">
<title>Node20</title>
<g id="a_node20"><a xlink:href="node__frontend_8h.html" target="_top" xlink:title=" ">
<polygon fill="white" stroke="black" points="213.71,-308 213.71,-327 371.71,-327 371.71,-308 213.71,-308"/>
<text text-anchor="middle" x="292.71" y="-315" font-family="Helvetica,sans-Serif" font-size="10.00">src/node/rpc/node_frontend.h</text>
</a>
</g>
</g>
<!-- Node2&#45;&gt;Node20 -->
<g id="edge23" class="edge">
<title>Node2&#45;&gt;Node20</title>
<path fill="none" stroke="midnightblue" d="M630.15,-372.66C550.27,-359.84 418.95,-338.76 345.92,-327.04"/>
<polygon fill="midnightblue" stroke="midnightblue" points="629.69,-376.13 640.11,-374.26 630.8,-369.22 629.69,-376.13"/>
</g>
<!-- Node4 -->
<g id="node4" class="node">
<title>Node4</title>
<g id="a_node4"><a xlink:href="logging_8cpp.html" target="_top" xlink:title=" ">
<polygon fill="white" stroke="black" points="527.21,-235.5 527.21,-265.5 650.21,-265.5 650.21,-235.5 527.21,-235.5"/>
<text text-anchor="start" x="535.21" y="-253.5" font-family="Helvetica,sans-Serif" font-size="10.00">samples/apps/logging</text>
<text text-anchor="middle" x="588.71" y="-242.5" font-family="Helvetica,sans-Serif" font-size="10.00">/logging.cpp</text>
</a>
</g>
</g>
<!-- Node3&#45;&gt;Node4 -->
<g id="edge3" class="edge">
<title>Node3&#45;&gt;Node4</title>
<path fill="none" stroke="midnightblue" d="M674.41,-302.6C656.1,-291.69 630.72,-276.55 612.34,-265.59"/>
<polygon fill="midnightblue" stroke="midnightblue" points="672.63,-305.62 683.01,-307.73 676.21,-299.61 672.63,-305.62"/>
</g>
<!-- Node3&#45;&gt;Node5 -->
<g id="edge4" class="edge">
<title>Node3&#45;&gt;Node5</title>
<path fill="none" stroke="midnightblue" d="M761.68,-306.37C823.64,-296.46 920.21,-280.75 1003.71,-266 1006.79,-265.46 1009.94,-264.89 1013.12,-264.32"/>
<polygon fill="midnightblue" stroke="midnightblue" points="760.99,-302.94 751.67,-307.97 762.09,-309.85 760.99,-302.94"/>
</g>
<!-- Node6 -->
<g id="node6" class="node">
<title>Node6</title>
<g id="a_node6"><a xlink:href="js__generic_8cpp.html" target="_top" xlink:title=" ">
<polygon fill="white" stroke="black" points="547.71,-168.5 547.71,-198.5 657.71,-198.5 657.71,-168.5 547.71,-168.5"/>
<text text-anchor="start" x="555.71" y="-186.5" font-family="Helvetica,sans-Serif" font-size="10.00">src/apps/js_generic</text>
<text text-anchor="middle" x="602.71" y="-175.5" font-family="Helvetica,sans-Serif" font-size="10.00">/js_generic.cpp</text>
</a>
</g>
</g>
<!-- Node3&#45;&gt;Node6 -->
<g id="edge5" class="edge">
<title>Node3&#45;&gt;Node6</title>
<path fill="none" stroke="midnightblue" d="M691.38,-298.33C684.83,-281.03 673.48,-254.77 658.71,-235 648.29,-221.05 633.58,-207.97 621.85,-198.61"/>
<polygon fill="midnightblue" stroke="midnightblue" points="688.12,-299.6 694.83,-307.8 694.7,-297.21 688.12,-299.6"/>
</g>
<!-- Node7 -->
<g id="node7" class="node">
<title>Node7</title>
<g id="a_node7"><a xlink:href="js__generic__base_8cpp.html" target="_top" xlink:title=" ">
<polygon fill="white" stroke="black" points="1298.71,-235.5 1298.71,-265.5 1416.71,-265.5 1416.71,-235.5 1298.71,-235.5"/>
<text text-anchor="start" x="1306.71" y="-253.5" font-family="Helvetica,sans-Serif" font-size="10.00">src/apps/js_generic</text>
<text text-anchor="middle" x="1357.71" y="-242.5" font-family="Helvetica,sans-Serif" font-size="10.00">/js_generic_base.cpp</text>
</a>
</g>
</g>
<!-- Node3&#45;&gt;Node7 -->
<g id="edge6" class="edge">
<title>Node3&#45;&gt;Node7</title>
<path fill="none" stroke="midnightblue" d="M782.06,-310.61C921.49,-300.66 1194.15,-280.21 1289.71,-266 1292.58,-265.57 1295.5,-265.1 1298.45,-264.59"/>
<polygon fill="midnightblue" stroke="midnightblue" points="781.57,-307.14 771.85,-311.34 782.07,-314.12 781.57,-307.14"/>
</g>
<!-- Node8 -->
<g id="node8" class="node">
<title>Node8</title>
<g id="a_node8"><a xlink:href="js__generic__base_8h.html" target="_top" xlink:title=" ">
<polygon fill="white" stroke="black" points="398.71,-235.5 398.71,-265.5 508.71,-265.5 508.71,-235.5 398.71,-235.5"/>
<text text-anchor="start" x="406.71" y="-253.5" font-family="Helvetica,sans-Serif" font-size="10.00">src/apps/js_generic</text>
<text text-anchor="middle" x="453.71" y="-242.5" font-family="Helvetica,sans-Serif" font-size="10.00">/js_generic_base.h</text>
</a>
</g>
</g>
<!-- Node3&#45;&gt;Node8 -->
<g id="edge7" class="edge">
<title>Node3&#45;&gt;Node8</title>
<path fill="none" stroke="midnightblue" d="M655.81,-305.34C614.5,-294.33 551.21,-277.47 506.49,-265.56"/>
<polygon fill="midnightblue" stroke="midnightblue" points="655,-308.74 665.56,-307.94 656.8,-301.98 655,-308.74"/>
</g>
<!-- Node9 -->
<g id="node9" class="node">
<title>Node9</title>
<g id="a_node9"><a xlink:href="js__v8_8cpp.html" target="_top" xlink:title=" ">
<polygon fill="white" stroke="black" points="686.71,-174 686.71,-193 820.71,-193 820.71,-174 686.71,-174"/>
<text text-anchor="middle" x="753.71" y="-181" font-family="Helvetica,sans-Serif" font-size="10.00">src/apps/js_v8/js_v8.cpp</text>
</a>
</g>
</g>
<!-- Node3&#45;&gt;Node9 -->
<g id="edge9" class="edge">
<title>Node3&#45;&gt;Node9</title>
<path fill="none" stroke="midnightblue" d="M705.33,-298.54C717.56,-269.72 741.1,-214.22 750.1,-193.02"/>
<polygon fill="midnightblue" stroke="midnightblue" points="702.07,-297.27 701.38,-307.84 708.51,-300 702.07,-297.27"/>
</g>
<!-- Node10 -->
<g id="node10" class="node">
<title>Node10</title>
<g id="a_node10"><a xlink:href="js__v8__base_8cpp.html" target="_top" xlink:title=" ">
<polygon fill="white" stroke="black" points="1166.71,-235.5 1166.71,-265.5 1280.71,-265.5 1280.71,-235.5 1166.71,-235.5"/>
<text text-anchor="start" x="1174.71" y="-253.5" font-family="Helvetica,sans-Serif" font-size="10.00">src/apps/js_v8/js_v8</text>
<text text-anchor="middle" x="1223.71" y="-242.5" font-family="Helvetica,sans-Serif" font-size="10.00">_base.cpp</text>
</a>
</g>
</g>
<!-- Node3&#45;&gt;Node10 -->
<g id="edge10" class="edge">
<title>Node3&#45;&gt;Node10</title>
<path fill="none" stroke="midnightblue" d="M782.09,-309.85C874.44,-301.97 1026.67,-287.17 1156.71,-266 1159.88,-265.48 1163.13,-264.92 1166.4,-264.31"/>
<polygon fill="midnightblue" stroke="midnightblue" points="781.63,-306.38 771.96,-310.71 782.22,-313.36 781.63,-306.38"/>
</g>
<!-- Node11 -->
<g id="node11" class="node">
<title>Node11</title>
<g id="a_node11"><a xlink:href="js__v8__base_8h.html" target="_top" xlink:title=" ">
<polygon fill="white" stroke="black" points="744.71,-235.5 744.71,-265.5 858.71,-265.5 858.71,-235.5 744.71,-235.5"/>
<text text-anchor="start" x="752.71" y="-253.5" font-family="Helvetica,sans-Serif" font-size="10.00">src/apps/js_v8/js_v8</text>
<text text-anchor="middle" x="801.71" y="-242.5" font-family="Helvetica,sans-Serif" font-size="10.00">_base.h</text>
</a>
</g>
</g>
<!-- Node3&#45;&gt;Node11 -->
<g id="edge11" class="edge">
<title>Node3&#45;&gt;Node11</title>
<path fill="none" stroke="midnightblue" d="M720.67,-302.15C738.07,-291.27 761.87,-276.4 779.17,-265.59"/>
<polygon fill="midnightblue" stroke="midnightblue" points="718.36,-299.47 711.74,-307.73 722.07,-305.4 718.36,-299.47"/>
</g>
<!-- Node12 -->
<g id="node12" class="node">
<title>Node12</title>
<g id="a_node12"><a xlink:href="tpcc_8cpp.html" target="_top" xlink:title=" ">
<polygon fill="white" stroke="black" points="235.21,-241 235.21,-260 380.21,-260 380.21,-241 235.21,-241"/>
<text text-anchor="middle" x="307.71" y="-248" font-family="Helvetica,sans-Serif" font-size="10.00">src/apps/tpcc/app/tpcc.cpp</text>
</a>
</g>
</g>
<!-- Node3&#45;&gt;Node12 -->
<g id="edge13" class="edge">
<title>Node3&#45;&gt;Node12</title>
<path fill="none" stroke="midnightblue" d="M634.47,-306.37C572.18,-296.33 474.34,-280.42 389.71,-266 378.59,-264.11 366.64,-262.02 355.39,-260.03"/>
<polygon fill="midnightblue" stroke="midnightblue" points="634.11,-309.85 644.54,-307.99 635.22,-302.94 634.11,-309.85"/>
</g>
<!-- Node13 -->
<g id="node13" class="node">
<title>Node13</title>
<g id="a_node13"><a xlink:href="enclave_2enclave_8h.html" target="_top" xlink:title=" ">
<polygon fill="white" stroke="black" points="319.71,-56.5 319.71,-75.5 441.71,-75.5 441.71,-56.5 319.71,-56.5"/>
<text text-anchor="middle" x="380.71" y="-63.5" font-family="Helvetica,sans-Serif" font-size="10.00">src/enclave/enclave.h</text>
</a>
</g>
</g>
<!-- Node3&#45;&gt;Node13 -->
<g id="edge14" class="edge">
<title>Node3&#45;&gt;Node13</title>
<path fill="none" stroke="midnightblue" d="M613.43,-313.27C481.56,-307.42 238.45,-293.07 209.71,-266 159.39,-218.59 144.73,-166.16 187.71,-112 204.02,-91.45 269.39,-79.42 319.58,-73.04"/>
<polygon fill="midnightblue" stroke="midnightblue" points="613.37,-316.77 623.51,-313.71 613.67,-309.78 613.37,-316.77"/>
</g>
<!-- Node15 -->
<g id="node15" class="node">
<title>Node15</title>
<g id="a_node15"><a xlink:href="no__plugins_8cpp.html" target="_top" xlink:title=" ">
<polygon fill="white" stroke="black" points="876.71,-241 876.71,-260 994.71,-260 994.71,-241 876.71,-241"/>
<text text-anchor="middle" x="935.71" y="-248" font-family="Helvetica,sans-Serif" font-size="10.00">src/js/no_plugins.cpp</text>
</a>
</g>
</g>
<!-- Node3&#45;&gt;Node15 -->
<g id="edge16" class="edge">
<title>Node3&#45;&gt;Node15</title>
<path fill="none" stroke="midnightblue" d="M739.19,-305.17C786.25,-292.32 861.96,-271.64 904.35,-260.06"/>
<polygon fill="midnightblue" stroke="midnightblue" points="738.04,-301.86 729.32,-307.87 739.88,-308.61 738.04,-301.86"/>
</g>
<!-- Node17 -->
<g id="node17" class="node">
<title>Node17</title>
<g id="a_node17"><a xlink:href="user__frontend_8h.html" target="_top" xlink:title=" ">
<polygon fill="white" stroke="black" points="197.21,-112.5 197.21,-131.5 352.21,-131.5 352.21,-112.5 197.21,-112.5"/>
<text text-anchor="middle" x="274.71" y="-119.5" font-family="Helvetica,sans-Serif" font-size="10.00">src/node/rpc/user_frontend.h</text>
</a>
</g>
</g>
<!-- Node3&#45;&gt;Node17 -->
<g id="edge18" class="edge">
<title>Node3&#45;&gt;Node17</title>
<path fill="none" stroke="midnightblue" d="M613.26,-313.48C484.46,-307.99 251.09,-294.24 225.71,-266 189.05,-225.21 244.91,-155.71 266.65,-131.57"/>
<polygon fill="midnightblue" stroke="midnightblue" points="613.35,-316.98 623.49,-313.91 613.65,-309.99 613.35,-316.98"/>
</g>
<!-- Node8&#45;&gt;Node6 -->
<g id="edge8" class="edge">
<title>Node8&#45;&gt;Node6</title>
<path fill="none" stroke="midnightblue" d="M495.5,-231.27C519.23,-220.92 548.49,-208.15 570.44,-198.58"/>
<polygon fill="midnightblue" stroke="midnightblue" points="493.81,-228.19 486.04,-235.4 496.61,-234.61 493.81,-228.19"/>
</g>
<!-- Node11&#45;&gt;Node9 -->
<g id="edge12" class="edge">
<title>Node11&#45;&gt;Node9</title>
<path fill="none" stroke="midnightblue" d="M785.33,-227.32C776.68,-215.6 766.55,-201.88 760.13,-193.19"/>
<polygon fill="midnightblue" stroke="midnightblue" points="782.54,-229.43 791.3,-235.4 788.17,-225.27 782.54,-229.43"/>
</g>
<!-- Node14 -->
<g id="node14" class="node">
<title>Node14</title>
<g id="a_node14"><a xlink:href="enclave_2main_8cpp.html" target="_top" xlink:title=" ">
<polygon fill="white" stroke="black" points="320.71,-0.5 320.71,-19.5 440.71,-19.5 440.71,-0.5 320.71,-0.5"/>
<text text-anchor="middle" x="380.71" y="-7.5" font-family="Helvetica,sans-Serif" font-size="10.00">src/enclave/main.cpp</text>
</a>
</g>
</g>
<!-- Node13&#45;&gt;Node14 -->
<g id="edge15" class="edge">
<title>Node13&#45;&gt;Node14</title>
<path fill="none" stroke="midnightblue" d="M380.71,-45.8C380.71,-36.91 380.71,-26.78 380.71,-19.75"/>
<polygon fill="midnightblue" stroke="midnightblue" points="377.21,-46.08 380.71,-56.08 384.21,-46.08 377.21,-46.08"/>
</g>
<!-- Node16 -->
<g id="node16" class="node">
<title>Node16</title>
<g id="a_node16"><a xlink:href="wrap_8cpp.html" target="_top" xlink:title=" ">
<polygon fill="white" stroke="black" points="1893.21,-174 1893.21,-193 1982.21,-193 1982.21,-174 1893.21,-174"/>
<text text-anchor="middle" x="1937.71" y="-181" font-family="Helvetica,sans-Serif" font-size="10.00">src/js/wrap.cpp</text>
</a>
</g>
</g>
<!-- Node15&#45;&gt;Node16 -->
<g id="edge17" class="edge">
<title>Node15&#45;&gt;Node16</title>
<path fill="none" stroke="midnightblue" d="M980.43,-238.93C988.16,-237.4 996.14,-236.01 1003.71,-235 1343.37,-189.88 1757.62,-184.83 1892.76,-184.45"/>
<polygon fill="midnightblue" stroke="midnightblue" points="979.55,-235.54 970.47,-241 980.97,-242.39 979.55,-235.54"/>
</g>
<!-- Node17&#45;&gt;Node13 -->
<g id="edge19" class="edge">
<title>Node17&#45;&gt;Node13</title>
<path fill="none" stroke="midnightblue" d="M300.77,-107.73C320.39,-97.73 346.74,-84.31 363.72,-75.65"/>
<polygon fill="midnightblue" stroke="midnightblue" points="299.06,-104.67 291.74,-112.32 302.24,-110.9 299.06,-104.67"/>
</g>
<!-- Node19&#45;&gt;Node13 -->
<g id="edge22" class="edge">
<title>Node19&#45;&gt;Node13</title>
<path fill="none" stroke="midnightblue" d="M1462.55,-235.68C1461.26,-235.45 1459.98,-235.22 1458.71,-235 1071.85,-166.98 604.37,-98.92 440.74,-75.52"/>
<polygon fill="midnightblue" stroke="midnightblue" points="1462.11,-239.16 1472.57,-237.51 1463.36,-232.27 1462.11,-239.16"/>
</g>
<!-- Node20&#45;&gt;Node13 -->
<g id="edge24" class="edge">
<title>Node20&#45;&gt;Node13</title>
<path fill="none" stroke="midnightblue" d="M231.9,-306.29C148.21,-292.18 7.54,-268.18 5.71,-266 -3.15,-255.45 -0.16,-247.46 5.71,-235 61.21,-117.23 228.16,-81.99 319.45,-71.47"/>
<polygon fill="midnightblue" stroke="midnightblue" points="231.37,-309.75 241.82,-307.97 232.54,-302.85 231.37,-309.75"/>
</g>
<!-- Node21 -->
<g id="node21" class="node">
<title>Node21</title>
<g id="a_node21"><a xlink:href="jwt__key__auto__refresh_8h.html" target="_top" xlink:title=" ">
<polygon fill="white" stroke="black" points="15.21,-235.5 15.21,-265.5 140.21,-265.5 140.21,-235.5 15.21,-235.5"/>
<text text-anchor="start" x="23.21" y="-253.5" font-family="Helvetica,sans-Serif" font-size="10.00">src/node/jwt_key_auto</text>
<text text-anchor="middle" x="77.71" y="-242.5" font-family="Helvetica,sans-Serif" font-size="10.00">_refresh.h</text>
</a>
</g>
</g>
<!-- Node20&#45;&gt;Node21 -->
<g id="edge25" class="edge">
<title>Node20&#45;&gt;Node21</title>
<path fill="none" stroke="midnightblue" d="M254.4,-304.92C217.94,-293.9 163.03,-277.29 124.11,-265.53"/>
<polygon fill="midnightblue" stroke="midnightblue" points="253.58,-308.32 264.16,-307.87 255.6,-301.62 253.58,-308.32"/>
</g>
<!-- Node22 -->
<g id="node22" class="node">
<title>Node22</title>
<g id="a_node22"><a xlink:href="node__state_8h.html" target="_top" xlink:title=" ">
<polygon fill="white" stroke="black" points="382.71,-174 382.71,-193 506.71,-193 506.71,-174 382.71,-174"/>
<text text-anchor="middle" x="444.71" y="-181" font-family="Helvetica,sans-Serif" font-size="10.00">src/node/node_state.h</text>
</a>
</g>
</g>
<!-- Node21&#45;&gt;Node22 -->
<g id="edge26" class="edge">
<title>Node21&#45;&gt;Node22</title>
<path fill="none" stroke="midnightblue" d="M150.43,-236.62C223.45,-223.69 333.88,-204.13 396.64,-193.01"/>
<polygon fill="midnightblue" stroke="midnightblue" points="149.62,-233.21 140.38,-238.4 150.84,-240.1 149.62,-233.21"/>
</g>
<!-- Node22&#45;&gt;Node13 -->
<g id="edge27" class="edge">
<title>Node22&#45;&gt;Node13</title>
<path fill="none" stroke="midnightblue" d="M427.36,-166.79C418,-157.49 406.92,-145 399.71,-132 389.45,-113.49 384.23,-88.88 382.03,-75.89"/>
<polygon fill="midnightblue" stroke="midnightblue" points="425.05,-169.43 434.7,-173.8 429.88,-164.37 425.05,-169.43"/>
</g>
<!-- Node23 -->
<g id="node23" class="node">
<title>Node23</title>
<g id="a_node23"><a xlink:href="gov__effects_8h.html" target="_top" xlink:title=" ">
<polygon fill="white" stroke="black" points="408.71,-112.5 408.71,-131.5 552.71,-131.5 552.71,-112.5 408.71,-112.5"/>
<text text-anchor="middle" x="480.71" y="-119.5" font-family="Helvetica,sans-Serif" font-size="10.00">src/node/rpc/gov_effects.h</text>
</a>
</g>
</g>
<!-- Node22&#45;&gt;Node23 -->
<g id="edge28" class="edge">
<title>Node22&#45;&gt;Node23</title>
<path fill="none" stroke="midnightblue" d="M455.2,-165.17C461.89,-154.11 470.27,-140.25 475.56,-131.51"/>
<polygon fill="midnightblue" stroke="midnightblue" points="452.05,-163.61 449.87,-173.98 458.04,-167.23 452.05,-163.61"/>
</g>
<!-- Node23&#45;&gt;Node13 -->
<g id="edge29" class="edge">
<title>Node23&#45;&gt;Node13</title>
<path fill="none" stroke="midnightblue" d="M455.62,-107.45C437.16,-97.48 412.61,-84.23 396.74,-75.65"/>
<polygon fill="midnightblue" stroke="midnightblue" points="454.18,-110.65 464.64,-112.32 457.51,-104.49 454.18,-110.65"/>
</g>
<!-- Node24&#45;&gt;Node10 -->
<g id="edge32" class="edge">
<title>Node24&#45;&gt;Node10</title>
<path fill="none" stroke="midnightblue" d="M1132.22,-360.45C1123.46,-343.3 1115.87,-319.87 1126.71,-302 1137.1,-284.88 1155.4,-273.29 1173.33,-265.58"/>
<polygon fill="midnightblue" stroke="midnightblue" points="1129.2,-362.21 1137.11,-369.26 1135.32,-358.81 1129.2,-362.21"/>
</g>
<!-- Node25 -->
<g id="node25" class="node">
<title>Node25</title>
<g id="a_node25"><a xlink:href="ccf__global_8cpp.html" target="_top" xlink:title=" ">
<polygon fill="white" stroke="black" points="1136.21,-302.5 1136.21,-332.5 1247.21,-332.5 1247.21,-302.5 1136.21,-302.5"/>
<text text-anchor="start" x="1144.21" y="-320.5" font-family="Helvetica,sans-Serif" font-size="10.00">src/apps/js_v8/tmpl</text>
<text text-anchor="middle" x="1191.71" y="-309.5" font-family="Helvetica,sans-Serif" font-size="10.00">/ccf_global.cpp</text>
</a>
</g>
</g>
<!-- Node24&#45;&gt;Node25 -->
<g id="edge33" class="edge">
<title>Node24&#45;&gt;Node25</title>
<path fill="none" stroke="midnightblue" d="M1162.18,-361.16C1168.74,-351.68 1176.19,-340.92 1181.97,-332.58"/>
<polygon fill="midnightblue" stroke="midnightblue" points="1159.29,-359.18 1156.47,-369.4 1165.04,-363.17 1159.29,-359.18"/>
</g>
<!-- Node26&#45;&gt;Node25 -->
<g id="edge35" class="edge">
<title>Node26&#45;&gt;Node25</title>
<path fill="none" stroke="midnightblue" d="M1249.44,-363.17C1236.59,-353.23 1221.45,-341.51 1209.9,-332.58"/>
<polygon fill="midnightblue" stroke="midnightblue" points="1247.43,-366.04 1257.48,-369.4 1251.72,-360.51 1247.43,-366.04"/>
</g>
<!-- Node27 -->
<g id="node27" class="node">
<title>Node27</title>
<g id="a_node27"><a xlink:href="apps_2js__v8_2tmpl_2consensus_8cpp.html" target="_top" xlink:title=" ">
<polygon fill="white" stroke="black" points="1265.21,-302.5 1265.21,-332.5 1376.21,-332.5 1376.21,-302.5 1265.21,-302.5"/>
<text text-anchor="start" x="1273.21" y="-320.5" font-family="Helvetica,sans-Serif" font-size="10.00">src/apps/js_v8/tmpl</text>
<text text-anchor="middle" x="1320.71" y="-309.5" font-family="Helvetica,sans-Serif" font-size="10.00">/consensus.cpp</text>
</a>
</g>
</g>
<!-- Node26&#45;&gt;Node27 -->
<g id="edge36" class="edge">
<title>Node26&#45;&gt;Node27</title>
<path fill="none" stroke="midnightblue" d="M1291.18,-361.16C1297.74,-351.68 1305.19,-340.92 1310.97,-332.58"/>
<polygon fill="midnightblue" stroke="midnightblue" points="1288.29,-359.18 1285.47,-369.4 1294.04,-363.17 1288.29,-359.18"/>
</g>
<!-- Node28&#45;&gt;Node10 -->
<g id="edge38" class="edge">
<title>Node28&#45;&gt;Node10</title>
<path fill="none" stroke="midnightblue" d="M1404.84,-359.42C1403.65,-341.43 1399.15,-317.38 1384.71,-302 1377.07,-293.86 1321.4,-277.49 1277.63,-265.6"/>
<polygon fill="midnightblue" stroke="midnightblue" points="1401.34,-359.6 1405.21,-369.46 1408.34,-359.34 1401.34,-359.6"/>
</g>
<!-- Node29 -->
<g id="node29" class="node">
<title>Node29</title>
<g id="a_node29"><a xlink:href="request_8cpp.html" target="_top" xlink:title=" ">
<polygon fill="white" stroke="black" points="1436.21,-302.5 1436.21,-332.5 1547.21,-332.5 1547.21,-302.5 1436.21,-302.5"/>
<text text-anchor="start" x="1444.21" y="-320.5" font-family="Helvetica,sans-Serif" font-size="10.00">src/apps/js_v8/tmpl</text>
<text text-anchor="middle" x="1491.71" y="-309.5" font-family="Helvetica,sans-Serif" font-size="10.00">/request.cpp</text>
</a>
</g>
</g>
<!-- Node28&#45;&gt;Node29 -->
<g id="edge39" class="edge">
<title>Node28&#45;&gt;Node29</title>
<path fill="none" stroke="midnightblue" d="M1431.92,-363.17C1445.23,-353.23 1460.91,-341.51 1472.87,-332.58"/>
<polygon fill="midnightblue" stroke="midnightblue" points="1429.5,-360.61 1423.59,-369.4 1433.69,-366.21 1429.5,-360.61"/>
</g>
<!-- Node31&#45;&gt;Node29 -->
<g id="edge42" class="edge">
<title>Node31&#45;&gt;Node29</title>
<path fill="none" stroke="midnightblue" d="M1529.63,-361.74C1521.19,-352.12 1511.52,-341.09 1504.05,-332.58"/>
<polygon fill="midnightblue" stroke="midnightblue" points="1527.12,-364.18 1536.34,-369.4 1532.38,-359.57 1527.12,-364.18"/>
</g>
<!-- Node31&#45;&gt;Node30 -->
<g id="edge43" class="edge">
<title>Node31&#45;&gt;Node30</title>
<path fill="none" stroke="midnightblue" d="M1577.9,-363.73C1592.76,-353.68 1610.47,-341.68 1623.92,-332.58"/>
<polygon fill="midnightblue" stroke="midnightblue" points="1575.86,-360.89 1569.54,-369.4 1579.78,-366.69 1575.86,-360.89"/>
</g>
<!-- Node33&#45;&gt;Node7 -->
<g id="edge46" class="edge">
<title>Node33&#45;&gt;Node7</title>
<path fill="none" stroke="midnightblue" d="M1779.15,-308.99C1763.36,-306.66 1745.81,-304.15 1729.71,-302 1597.04,-284.3 1562.89,-287.05 1430.71,-266 1426.24,-265.29 1421.64,-264.5 1417.01,-263.67"/>
<polygon fill="midnightblue" stroke="midnightblue" points="1778.84,-312.48 1789.24,-310.48 1779.86,-305.55 1778.84,-312.48"/>
</g>
<!-- Node33&#45;&gt;Node13 -->
<g id="edge47" class="edge">
<title>Node33&#45;&gt;Node13</title>
<path fill="none" stroke="midnightblue" d="M1878,-314.46C1987.25,-309.43 2242.12,-294.71 2267.71,-266 2276.88,-255.72 2276.23,-245.83 2267.71,-235 2152.15,-88.03 753.27,-69.6 441.88,-67.32"/>
<polygon fill="midnightblue" stroke="midnightblue" points="1877.73,-310.97 1867.9,-314.91 1878.05,-317.96 1877.73,-310.97"/>
</g>
<!-- Node33&#45;&gt;Node16 -->
<g id="edge57" class="edge">
<title>Node33&#45;&gt;Node16</title>
<path fill="none" stroke="midnightblue" d="M1844.44,-300.43C1853.78,-290.68 1865.71,-277.88 1875.71,-266 1897.24,-240.44 1920.59,-208.47 1931.47,-193.28"/>
<polygon fill="midnightblue" stroke="midnightblue" points="1841.74,-298.18 1837.3,-307.8 1846.77,-303.05 1841.74,-298.18"/>
</g>
<!-- Node33&#45;&gt;Node19 -->
<g id="edge59" class="edge">
<title>Node33&#45;&gt;Node19</title>
<path fill="none" stroke="midnightblue" d="M1779.87,-305.77C1728.61,-294.52 1647.97,-276.81 1592.83,-264.7"/>
<polygon fill="midnightblue" stroke="midnightblue" points="1779.19,-309.21 1789.71,-307.94 1780.69,-302.37 1779.19,-309.21"/>
</g>
<!-- Node33&#45;&gt;Node22 -->
<g id="edge58" class="edge">
<title>Node33&#45;&gt;Node22</title>
<path fill="none" stroke="midnightblue" d="M1779.55,-309.19C1763.65,-306.86 1745.94,-304.29 1729.71,-302 1611.58,-285.36 1573.15,-313.49 1463.71,-266 1443.72,-257.32 1446.09,-242.73 1425.71,-235 1333.48,-200.03 636.89,-208.53 538.71,-199 523.92,-197.56 507.91,-195.35 493.37,-193.07"/>
<polygon fill="midnightblue" stroke="midnightblue" points="1779.29,-312.69 1789.7,-310.69 1780.31,-305.77 1779.29,-312.69"/>
</g>
<!-- Node34 -->
<g id="node34" class="node">
<title>Node34</title>
<g id="a_node34"><a xlink:href="js_2consensus_8cpp.html" target="_top" xlink:title=" ">
<polygon fill="white" stroke="black" points="1922.71,-241 1922.71,-260 2038.71,-260 2038.71,-241 1922.71,-241"/>
<text text-anchor="middle" x="1980.71" y="-248" font-family="Helvetica,sans-Serif" font-size="10.00">src/js/consensus.cpp</text>
</a>
</g>
</g>
<!-- Node33&#45;&gt;Node34 -->
<g id="edge48" class="edge">
<title>Node33&#45;&gt;Node34</title>
<path fill="none" stroke="midnightblue" d="M1858.45,-303.78C1888.56,-290.91 1934.28,-271.35 1960.44,-260.17"/>
<polygon fill="midnightblue" stroke="midnightblue" points="1856.71,-300.72 1848.9,-307.87 1859.47,-307.15 1856.71,-300.72"/>
</g>
<!-- Node35 -->
<g id="node35" class="node">
<title>Node35</title>
<g id="a_node35"><a xlink:href="conv_8cpp.html" target="_top" xlink:title=" ">
<polygon fill="white" stroke="black" points="2056.71,-241 2056.71,-260 2144.71,-260 2144.71,-241 2056.71,-241"/>
<text text-anchor="middle" x="2100.71" y="-248" font-family="Helvetica,sans-Serif" font-size="10.00">src/js/conv.cpp</text>
</a>
</g>
</g>
<!-- Node33&#45;&gt;Node35 -->
<g id="edge50" class="edge">
<title>Node33&#45;&gt;Node35</title>
<path fill="none" stroke="midnightblue" d="M1877.96,-305.74C1922.43,-295.88 1989.62,-280.64 2047.71,-266 2055.02,-264.16 2062.86,-262.07 2070.22,-260.07"/>
<polygon fill="midnightblue" stroke="midnightblue" points="1877,-302.37 1867.99,-307.94 1878.51,-309.2 1877,-302.37"/>
</g>
<!-- Node36 -->
<g id="node36" class="node">
<title>Node36</title>
<g id="a_node36"><a xlink:href="js_2crypto_8cpp.html" target="_top" xlink:title=" ">
<polygon fill="white" stroke="black" points="2162.71,-241 2162.71,-260 2258.71,-260 2258.71,-241 2162.71,-241"/>
<text text-anchor="middle" x="2210.71" y="-248" font-family="Helvetica,sans-Serif" font-size="10.00">src/js/crypto.cpp</text>
</a>
</g>
</g>
<!-- Node33&#45;&gt;Node36 -->
<g id="edge52" class="edge">
<title>Node33&#45;&gt;Node36</title>
<path fill="none" stroke="midnightblue" d="M1878.14,-310.31C1942.07,-301.96 2056.73,-285.82 2153.71,-266 2162.11,-264.28 2171.14,-262.13 2179.47,-260.01"/>
<polygon fill="midnightblue" stroke="midnightblue" points="1877.41,-306.87 1867.95,-311.63 1878.31,-313.81 1877.41,-306.87"/>
</g>
<!-- Node37 -->
<g id="node37" class="node">
<title>Node37</title>
<g id="a_node37"><a xlink:href="js_2historical_8cpp.html" target="_top" xlink:title=" ">
<polygon fill="white" stroke="black" points="1756.71,-241 1756.71,-260 1866.71,-260 1866.71,-241 1756.71,-241"/>
<text text-anchor="middle" x="1811.71" y="-248" font-family="Helvetica,sans-Serif" font-size="10.00">src/js/historical.cpp</text>
</a>
</g>
</g>
<!-- Node33&#45;&gt;Node37 -->
<g id="edge54" class="edge">
<title>Node33&#45;&gt;Node37</title>
<path fill="none" stroke="midnightblue" d="M1823.85,-297.91C1820.6,-285.49 1816.48,-269.72 1813.97,-260.13"/>
<polygon fill="midnightblue" stroke="midnightblue" points="1820.5,-298.94 1826.42,-307.73 1827.27,-297.17 1820.5,-298.94"/>
</g>
<!-- Node38 -->
<g id="node38" class="node">
<title>Node38</title>
<g id="a_node38"><a xlink:href="openenclave_8cpp.html" target="_top" xlink:title=" ">
<polygon fill="white" stroke="black" points="1610.71,-241 1610.71,-260 1738.71,-260 1738.71,-241 1610.71,-241"/>
<text text-anchor="middle" x="1674.71" y="-248" font-family="Helvetica,sans-Serif" font-size="10.00">src/js/openenclave.cpp</text>
</a>
</g>
</g>
<!-- Node33&#45;&gt;Node38 -->
<g id="edge56" class="edge">
<title>Node33&#45;&gt;Node38</title>
<path fill="none" stroke="midnightblue" d="M1798.97,-303.95C1768.48,-291.08 1721.87,-271.4 1695.25,-260.17"/>
<polygon fill="midnightblue" stroke="midnightblue" points="1797.69,-307.2 1808.26,-307.87 1800.41,-300.76 1797.69,-307.2"/>
</g>
<!-- Node34&#45;&gt;Node16 -->
<g id="edge49" class="edge">
<title>Node34&#45;&gt;Node16</title>
<path fill="none" stroke="midnightblue" d="M1969.16,-232.03C1960.83,-219.45 1949.95,-203.01 1943.42,-193.13"/>
<polygon fill="midnightblue" stroke="midnightblue" points="1966.48,-234.32 1974.91,-240.73 1972.31,-230.46 1966.48,-234.32"/>
</g>
<!-- Node35&#45;&gt;Node16 -->
<g id="edge51" class="edge">
<title>Node35&#45;&gt;Node16</title>
<path fill="none" stroke="midnightblue" d="M2069.63,-237.1C2037.26,-224.2 1987.43,-204.33 1959.19,-193.06"/>
<polygon fill="midnightblue" stroke="midnightblue" points="2068.48,-240.42 2079.07,-240.87 2071.07,-233.91 2068.48,-240.42"/>
</g>
<!-- Node36&#45;&gt;Node16 -->
<g id="edge53" class="edge">
<title>Node36&#45;&gt;Node16</title>
<path fill="none" stroke="midnightblue" d="M2167.88,-238.51C2163.1,-237.31 2158.3,-236.12 2153.71,-235 2091.23,-219.75 2018.35,-202.91 1975.22,-193.04"/>
<polygon fill="midnightblue" stroke="midnightblue" points="2167.03,-241.9 2177.58,-240.96 2168.74,-235.12 2167.03,-241.9"/>
</g>
<!-- Node37&#45;&gt;Node16 -->
<g id="edge55" class="edge">
<title>Node37&#45;&gt;Node16</title>
<path fill="none" stroke="midnightblue" d="M1837.35,-236.27C1862.3,-223.4 1899.51,-204.21 1920.91,-193.17"/>
<polygon fill="midnightblue" stroke="midnightblue" points="1835.73,-233.17 1828.44,-240.87 1838.93,-239.39 1835.73,-233.17"/>
</g>
</g>
</svg>
        <g id="navigator" transform="translate(0 0)" fill="#404254">
                <rect fill="#f2f5e9" fill-opacity="0.5" stroke="#606060" stroke-width=".5" x="0" y="0" width="60" height="60"/>
                <use id="zoomplus" xlink:href="#zoomPlus" x="17" y="9" onmousedown="handleZoom(evt,'in')"/>
                <use id="zoomminus" xlink:href="#zoomMin" x="42" y="9" onmousedown="handleZoom(evt,'out')"/>
                <use id="reset" xlink:href="#resetDef" x="30" y="36" onmousedown="handleReset()"/>
                <g id="arrowUp" xlink:href="#dirArrow" transform="translate(30 24)" onmousedown="handlePan(0,-1)">
                  <use xlink:href="#rim" fill="#404040">
                        <set attributeName="fill" to="#808080" begin="arrowUp.mouseover" end="arrowUp.mouseout"/>
                  </use>
                  <path fill="none" stroke="white" stroke-width="1.5" d="M0,-3.0v7 M-2.5,-0.5L0,-3.0L2.5,-0.5"/>
                </g>
                <g id="arrowRight" xlink:href="#dirArrow" transform="rotate(90) translate(36 -43)" onmousedown="handlePan(1,0)">
                  <use xlink:href="#rim" fill="#404040">
                        <set attributeName="fill" to="#808080" begin="arrowRight.mouseover" end="arrowRight.mouseout"/>
                  </use>
                  <path fill="none" stroke="white" stroke-width="1.5" d="M0,-3.0v7 M-2.5,-0.5L0,-3.0L2.5,-0.5"/>
                </g>
                <g id="arrowDown" xlink:href="#dirArrow" transform="rotate(180) translate(-30 -48)" onmousedown="handlePan(0,1)">
                  <use xlink:href="#rim" fill="#404040">
                        <set attributeName="fill" to="#808080" begin="arrowDown.mouseover" end="arrowDown.mouseout"/>
                  </use>
                  <path fill="none" stroke="white" stroke-width="1.5" d="M0,-3.0v7 M-2.5,-0.5L0,-3.0L2.5,-0.5"/>
                </g>
                <g id="arrowLeft" xlink:href="#dirArrow" transform="rotate(270) translate(-36 17)" onmousedown="handlePan(-1,0)">
                  <use xlink:href="#rim" fill="#404040">
                        <set attributeName="fill" to="#808080" begin="arrowLeft.mouseover" end="arrowLeft.mouseout"/>
                  </use>
                  <path fill="none" stroke="white" stroke-width="1.5" d="M0,-3.0v7 M-2.5,-0.5L0,-3.0L2.5,-0.5"/>
                </g>
        </g>
        <svg viewBox="0 0 15 15" width="100%" height="30px" preserveAspectRatio="xMaxYMin meet">
         <g id="arrow_out" transform="scale(0.3 0.3)">
          <a xlink:href="base__endpoint__registry_8h__dep__incl_org.svg" target="_base">
           <rect id="button" ry="5" rx="5" y="6" x="6" height="38" width="38"
                fill="#f2f5e9" fill-opacity="0.5" stroke="#606060" stroke-width="1.0"/>
           <path id="arrow"
             d="M 11.500037,31.436501 C 11.940474,20.09759 22.043105,11.32322 32.158766,21.979434 L 37.068811,17.246167 C 37.068811,17.246167 37.088388,32 37.088388,32 L 22.160133,31.978069 C 22.160133,31.978069 26.997745,27.140456 26.997745,27.140456 C 18.528582,18.264221 13.291696,25.230495 11.500037,31.436501 z"
             style="fill:#404040;"/>
          </a>
         </g>
        </svg>
</svg>
