<?xml version="1.0" encoding="UTF-8" standalone="no"?>
<!DOCTYPE svg PUBLIC "-//W3C//DTD SVG 1.1//EN"
 "http://www.w3.org/Graphics/SVG/1.1/DTD/svg11.dtd">
<!-- Generated by graphviz version 2.43.0 (0)
 -->
<!-- Title: src/host/before_io.h Pages: 1 -->
<svg width="979pt" height="196pt"
 viewBox="0.00 0.00 978.50 196.00" xmlns="http://www.w3.org/2000/svg" xmlns:xlink="http://www.w3.org/1999/xlink">
<g id="graph0" class="graph" transform="scale(1 1) rotate(0) translate(4 192)">
<title>src/host/before_io.h</title>
<polygon fill="white" stroke="transparent" points="-4,4 -4,-192 974.5,-192 974.5,4 -4,4"/>
<!-- Node1 -->
<g id="node1" class="node">
<title>Node1</title>
<g id="a_node1"><a xlink:title=" ">
<polygon fill="#bfbfbf" stroke="black" points="609.5,-168.5 609.5,-187.5 722.5,-187.5 722.5,-168.5 609.5,-168.5"/>
<text text-anchor="middle" x="666" y="-175.5" font-family="Helvetica,sans-Serif" font-size="10.00">src/host/before_io.h</text>
</a>
</g>
</g>
<!-- Node2 -->
<g id="node2" class="node">
<title>Node2</title>
<g id="a_node2"><a xlink:href="logger_8h.html" target="_top" xlink:title=" ">
<polygon fill="white" stroke="black" points="453.5,-112.5 453.5,-131.5 540.5,-131.5 540.5,-112.5 453.5,-112.5"/>
<text text-anchor="middle" x="497" y="-119.5" font-family="Helvetica,sans-Serif" font-size="10.00">ccf/ds/logger.h</text>
</a>
</g>
</g>
<!-- Node1&#45;&gt;Node2 -->
<g id="edge1" class="edge">
<title>Node1&#45;&gt;Node2</title>
<path fill="none" stroke="midnightblue" d="M639.22,-168.44C610.67,-159.32 565.27,-144.81 533.46,-134.65"/>
<polygon fill="midnightblue" stroke="midnightblue" points="534.24,-131.23 523.65,-131.52 532.11,-137.89 534.24,-131.23"/>
</g>
<!-- Node16 -->
<g id="node16" class="node">
<title>Node16</title>
<g id="a_node16"><a xlink:href="proxy_8h.html" target="_top" xlink:title=" ">
<polygon fill="white" stroke="black" points="860,-112.5 860,-131.5 912,-131.5 912,-112.5 860,-112.5"/>
<text text-anchor="middle" x="886" y="-119.5" font-family="Helvetica,sans-Serif" font-size="10.00">proxy.h</text>
</a>
</g>
</g>
<!-- Node1&#45;&gt;Node16 -->
<g id="edge17" class="edge">
<title>Node1&#45;&gt;Node16</title>
<path fill="none" stroke="midnightblue" d="M700.86,-168.44C741.63,-158.44 808.77,-141.96 850.02,-131.83"/>
<polygon fill="midnightblue" stroke="midnightblue" points="851.04,-135.19 859.92,-129.4 849.37,-128.39 851.04,-135.19"/>
</g>
<!-- Node3 -->
<g id="node3" class="node">
<title>Node3</title>
<g id="a_node3"><a xlink:href="enum__formatter_8h.html" target="_top" xlink:title=" ">
<polygon fill="white" stroke="black" points="0,-56.5 0,-75.5 136,-75.5 136,-56.5 0,-56.5"/>
<text text-anchor="middle" x="68" y="-63.5" font-family="Helvetica,sans-Serif" font-size="10.00">ccf/ds/enum_formatter.h</text>
</a>
</g>
</g>
<!-- Node2&#45;&gt;Node3 -->
<g id="edge2" class="edge">
<title>Node2&#45;&gt;Node3</title>
<path fill="none" stroke="midnightblue" d="M453.11,-115.47C380.83,-106.38 235.82,-88.12 145.83,-76.8"/>
<polygon fill="midnightblue" stroke="midnightblue" points="146.03,-73.29 135.68,-75.52 145.16,-80.24 146.03,-73.29"/>
</g>
<!-- Node4 -->
<g id="node4" class="node">
<title>Node4</title>
<g id="a_node4"><a xlink:title=" ">
<polygon fill="white" stroke="#bfbfbf" points="28.5,-0.5 28.5,-19.5 107.5,-19.5 107.5,-0.5 28.5,-0.5"/>
<text text-anchor="middle" x="68" y="-7.5" font-family="Helvetica,sans-Serif" font-size="10.00">fmt/format.h</text>
</a>
</g>
</g>
<!-- Node2&#45;&gt;Node4 -->
<g id="edge11" class="edge">
<title>Node2&#45;&gt;Node4</title>
<path fill="none" stroke="midnightblue" d="M453.42,-119.83C391.67,-117.05 275.92,-107.66 183,-76 173.41,-72.73 122.26,-43 91.5,-24.9"/>
<polygon fill="midnightblue" stroke="midnightblue" points="93.07,-21.76 82.67,-19.7 89.51,-27.79 93.07,-21.76"/>
</g>
<!-- Node5 -->
<g id="node5" class="node">
<title>Node5</title>
<g id="a_node5"><a xlink:href="thread__ids_8h.html" target="_top" xlink:title=" ">
<polygon fill="white" stroke="black" points="192,-56.5 192,-75.5 300,-75.5 300,-56.5 192,-56.5"/>
<text text-anchor="middle" x="246" y="-63.5" font-family="Helvetica,sans-Serif" font-size="10.00">ccf/ds/thread_ids.h</text>
</a>
</g>
</g>
<!-- Node2&#45;&gt;Node5 -->
<g id="edge4" class="edge">
<title>Node2&#45;&gt;Node5</title>
<path fill="none" stroke="midnightblue" d="M457.23,-112.44C413.44,-103.02 342.99,-87.87 295.62,-77.68"/>
<polygon fill="midnightblue" stroke="midnightblue" points="296.1,-74.2 285.59,-75.52 294.63,-81.04 296.1,-74.2"/>
</g>
<!-- Node10 -->
<g id="node10" class="node">
<title>Node10</title>
<g id="a_node10"><a xlink:title=" ">
<polygon fill="white" stroke="#bfbfbf" points="318.5,-56.5 318.5,-75.5 397.5,-75.5 397.5,-56.5 318.5,-56.5"/>
<text text-anchor="middle" x="358" y="-63.5" font-family="Helvetica,sans-Serif" font-size="10.00">fmt/chrono.h</text>
</a>
</g>
</g>
<!-- Node2&#45;&gt;Node10 -->
<g id="edge10" class="edge">
<title>Node2&#45;&gt;Node10</title>
<path fill="none" stroke="midnightblue" d="M474.98,-112.44C451.9,-103.48 415.44,-89.31 389.36,-79.18"/>
<polygon fill="midnightblue" stroke="midnightblue" points="390.51,-75.88 379.92,-75.52 387.98,-82.4 390.51,-75.88"/>
</g>
<!-- Node11 -->
<g id="node11" class="node">
<title>Node11</title>
<g id="a_node11"><a xlink:title=" ">
<polygon fill="white" stroke="#bfbfbf" points="415,-56.5 415,-75.5 475,-75.5 475,-56.5 415,-56.5"/>
<text text-anchor="middle" x="445" y="-63.5" font-family="Helvetica,sans-Serif" font-size="10.00">iostream</text>
</a>
</g>
</g>
<!-- Node2&#45;&gt;Node11 -->
<g id="edge12" class="edge">
<title>Node2&#45;&gt;Node11</title>
<path fill="none" stroke="midnightblue" d="M488.41,-112.08C480.84,-104.22 469.62,-92.57 460.49,-83.08"/>
<polygon fill="midnightblue" stroke="midnightblue" points="462.88,-80.53 453.43,-75.75 457.84,-85.38 462.88,-80.53"/>
</g>
<!-- Node12 -->
<g id="node12" class="node">
<title>Node12</title>
<g id="a_node12"><a xlink:title=" ">
<polygon fill="white" stroke="#bfbfbf" points="493,-56.5 493,-75.5 603,-75.5 603,-56.5 493,-56.5"/>
<text text-anchor="middle" x="548" y="-63.5" font-family="Helvetica,sans-Serif" font-size="10.00">nlohmann/json.hpp</text>
</a>
</g>
</g>
<!-- Node2&#45;&gt;Node12 -->
<g id="edge13" class="edge">
<title>Node2&#45;&gt;Node12</title>
<path fill="none" stroke="midnightblue" d="M505.42,-112.08C512.85,-104.22 523.85,-92.57 532.81,-83.08"/>
<polygon fill="midnightblue" stroke="midnightblue" points="535.41,-85.42 539.74,-75.75 530.32,-80.62 535.41,-85.42"/>
</g>
<!-- Node13 -->
<g id="node13" class="node">
<title>Node13</title>
<g id="a_node13"><a xlink:title=" ">
<polygon fill="white" stroke="#bfbfbf" points="621,-56.5 621,-75.5 677,-75.5 677,-56.5 621,-56.5"/>
<text text-anchor="middle" x="649" y="-63.5" font-family="Helvetica,sans-Serif" font-size="10.00">optional</text>
</a>
</g>
</g>
<!-- Node2&#45;&gt;Node13 -->
<g id="edge14" class="edge">
<title>Node2&#45;&gt;Node13</title>
<path fill="none" stroke="midnightblue" d="M521.08,-112.44C546.54,-103.4 586.89,-89.06 615.46,-78.92"/>
<polygon fill="midnightblue" stroke="midnightblue" points="616.78,-82.16 625.03,-75.52 614.43,-75.57 616.78,-82.16"/>
</g>
<!-- Node14 -->
<g id="node14" class="node">
<title>Node14</title>
<g id="a_node14"><a xlink:title=" ">
<polygon fill="white" stroke="#bfbfbf" points="695,-56.5 695,-75.5 751,-75.5 751,-56.5 695,-56.5"/>
<text text-anchor="middle" x="723" y="-63.5" font-family="Helvetica,sans-Serif" font-size="10.00">sstream</text>
</a>
</g>
</g>
<!-- Node2&#45;&gt;Node14 -->
<g id="edge15" class="edge">
<title>Node2&#45;&gt;Node14</title>
<path fill="none" stroke="midnightblue" d="M533.25,-112.43C569.29,-103.89 626.45,-90.31 684.94,-76.25"/>
<polygon fill="midnightblue" stroke="midnightblue" points="685.82,-79.64 694.72,-73.89 684.18,-72.83 685.82,-79.64"/>
</g>
<!-- Node15 -->
<g id="node15" class="node">
<title>Node15</title>
<g id="a_node15"><a xlink:title=" ">
<polygon fill="white" stroke="#bfbfbf" points="769.5,-56.5 769.5,-75.5 838.5,-75.5 838.5,-56.5 769.5,-56.5"/>
<text text-anchor="middle" x="804" y="-63.5" font-family="Helvetica,sans-Serif" font-size="10.00">type_traits</text>
</a>
</g>
</g>
<!-- Node2&#45;&gt;Node15 -->
<g id="edge16" class="edge">
<title>Node2&#45;&gt;Node15</title>
<path fill="none" stroke="midnightblue" d="M540.82,-113.95C591.1,-105.76 676.26,-91.58 759.55,-76.03"/>
<polygon fill="midnightblue" stroke="midnightblue" points="760.25,-79.46 769.43,-74.18 758.96,-72.58 760.25,-79.46"/>
</g>
<!-- Node3&#45;&gt;Node4 -->
<g id="edge3" class="edge">
<title>Node3&#45;&gt;Node4</title>
<path fill="none" stroke="midnightblue" d="M68,-56.08C68,-49.01 68,-38.86 68,-29.99"/>
<polygon fill="midnightblue" stroke="midnightblue" points="71.5,-29.75 68,-19.75 64.5,-29.75 71.5,-29.75"/>
</g>
<!-- Node5&#45;&gt;Node4 -->
<g id="edge5" class="edge">
<title>Node5&#45;&gt;Node4</title>
<path fill="none" stroke="midnightblue" d="M217.8,-56.44C187.59,-47.28 139.49,-32.69 105.97,-22.52"/>
<polygon fill="midnightblue" stroke="midnightblue" points="106.66,-19.07 96.07,-19.52 104.63,-25.77 106.66,-19.07"/>
</g>
<!-- Node6 -->
<g id="node6" class="node">
<title>Node6</title>
<g id="a_node6"><a xlink:title=" ">
<polygon fill="white" stroke="#bfbfbf" points="126,-0.5 126,-19.5 212,-19.5 212,-0.5 126,-0.5"/>
<text text-anchor="middle" x="169" y="-7.5" font-family="Helvetica,sans-Serif" font-size="10.00">fmt/ostream.h</text>
</a>
</g>
</g>
<!-- Node5&#45;&gt;Node6 -->
<g id="edge6" class="edge">
<title>Node5&#45;&gt;Node6</title>
<path fill="none" stroke="midnightblue" d="M233.63,-56.32C221.84,-48.06 203.87,-35.45 189.86,-25.63"/>
<polygon fill="midnightblue" stroke="midnightblue" points="191.54,-22.53 181.34,-19.65 187.52,-28.26 191.54,-22.53"/>
</g>
<!-- Node7 -->
<g id="node7" class="node">
<title>Node7</title>
<g id="a_node7"><a xlink:title=" ">
<polygon fill="white" stroke="#bfbfbf" points="230,-0.5 230,-19.5 274,-19.5 274,-0.5 230,-0.5"/>
<text text-anchor="middle" x="252" y="-7.5" font-family="Helvetica,sans-Serif" font-size="10.00">limits</text>
</a>
</g>
</g>
<!-- Node5&#45;&gt;Node7 -->
<g id="edge7" class="edge">
<title>Node5&#45;&gt;Node7</title>
<path fill="none" stroke="midnightblue" d="M246.99,-56.08C247.79,-48.93 248.93,-38.64 249.92,-29.69"/>
<polygon fill="midnightblue" stroke="midnightblue" points="253.4,-30.08 251.03,-19.75 246.44,-29.3 253.4,-30.08"/>
</g>
<!-- Node8 -->
<g id="node8" class="node">
<title>Node8</title>
<g id="a_node8"><a xlink:title=" ">
<polygon fill="white" stroke="#bfbfbf" points="292,-0.5 292,-19.5 330,-19.5 330,-0.5 292,-0.5"/>
<text text-anchor="middle" x="311" y="-7.5" font-family="Helvetica,sans-Serif" font-size="10.00">map</text>
</a>
</g>
</g>
<!-- Node5&#45;&gt;Node8 -->
<g id="edge8" class="edge">
<title>Node5&#45;&gt;Node8</title>
<path fill="none" stroke="midnightblue" d="M256.44,-56.32C266.15,-48.26 280.82,-36.08 292.5,-26.37"/>
<polygon fill="midnightblue" stroke="midnightblue" points="294.91,-28.92 300.37,-19.83 290.44,-23.53 294.91,-28.92"/>
</g>
<!-- Node9 -->
<g id="node9" class="node">
<title>Node9</title>
<g id="a_node9"><a xlink:title=" ">
<polygon fill="white" stroke="#bfbfbf" points="348,-0.5 348,-19.5 396,-19.5 396,-0.5 348,-0.5"/>
<text text-anchor="middle" x="372" y="-7.5" font-family="Helvetica,sans-Serif" font-size="10.00">thread</text>
</a>
</g>
</g>
<!-- Node5&#45;&gt;Node9 -->
<g id="edge9" class="edge">
<title>Node5&#45;&gt;Node9</title>
<path fill="none" stroke="midnightblue" d="M265.97,-56.44C286.61,-47.6 319.06,-33.69 342.63,-23.59"/>
<polygon fill="midnightblue" stroke="midnightblue" points="344.32,-26.67 352.13,-19.52 341.56,-20.24 344.32,-26.67"/>
</g>
<!-- Node17 -->
<g id="node17" class="node">
<title>Node17</title>
<g id="a_node17"><a xlink:title=" ">
<polygon fill="white" stroke="#bfbfbf" points="857,-56.5 857,-75.5 915,-75.5 915,-56.5 857,-56.5"/>
<text text-anchor="middle" x="886" y="-63.5" font-family="Helvetica,sans-Serif" font-size="10.00">memory</text>
</a>
</g>
</g>
<!-- Node16&#45;&gt;Node17 -->
<g id="edge18" class="edge">
<title>Node16&#45;&gt;Node17</title>
<path fill="none" stroke="midnightblue" d="M886,-112.08C886,-105.01 886,-94.86 886,-85.99"/>
<polygon fill="midnightblue" stroke="midnightblue" points="889.5,-85.75 886,-75.75 882.5,-85.75 889.5,-85.75"/>
</g>
<!-- Node18 -->
<g id="node18" class="node">
<title>Node18</title>
<g id="a_node18"><a xlink:title=" ">
<polygon fill="white" stroke="#bfbfbf" points="933.5,-56.5 933.5,-75.5 970.5,-75.5 970.5,-56.5 933.5,-56.5"/>
<text text-anchor="middle" x="952" y="-63.5" font-family="Helvetica,sans-Serif" font-size="10.00">uv.h</text>
</a>
</g>
</g>
<!-- Node16&#45;&gt;Node18 -->
<g id="edge19" class="edge">
<title>Node16&#45;&gt;Node18</title>
<path fill="none" stroke="midnightblue" d="M896.6,-112.32C906.46,-104.26 921.35,-92.08 933.22,-82.37"/>
<polygon fill="midnightblue" stroke="midnightblue" points="935.68,-84.88 941.2,-75.83 931.25,-79.46 935.68,-84.88"/>
</g>
</g>
</svg>
