<?xml version="1.0" encoding="UTF-8" standalone="no"?>
<!DOCTYPE svg PUBLIC "-//W3C//DTD SVG 1.1//EN"
 "http://www.w3.org/Graphics/SVG/1.1/DTD/svg11.dtd">
<!-- Generated by graphviz version 2.43.0 (0)
 -->
<!-- Title: src/ds/ccf_exception.h Pages: 1 -->
<svg width="2394pt" height="587pt"
 viewBox="0.00 0.00 2393.50 587.00" xmlns="http://www.w3.org/2000/svg" xmlns:xlink="http://www.w3.org/1999/xlink">
<g id="graph0" class="graph" transform="scale(1 1) rotate(0) translate(4 583)">
<title>src/ds/ccf_exception.h</title>
<polygon fill="white" stroke="transparent" points="-4,4 -4,-583 2389.5,-583 2389.5,4 -4,4"/>
<!-- Node1 -->
<g id="node1" class="node">
<title>Node1</title>
<g id="a_node1"><a xlink:title=" ">
<polygon fill="#bfbfbf" stroke="black" points="1565.5,-559.5 1565.5,-578.5 1690.5,-578.5 1690.5,-559.5 1565.5,-559.5"/>
<text text-anchor="middle" x="1628" y="-566.5" font-family="Helvetica,sans-Serif" font-size="10.00">src/ds/ccf_exception.h</text>
</a>
</g>
</g>
<!-- Node2 -->
<g id="node2" class="node">
<title>Node2</title>
<g id="a_node2"><a xlink:href="enclave_2main_8cpp.html" target="_top" xlink:title=" ">
<polygon fill="white" stroke="black" points="505,-0.5 505,-19.5 625,-19.5 625,-0.5 505,-0.5"/>
<text text-anchor="middle" x="565" y="-7.5" font-family="Helvetica,sans-Serif" font-size="10.00">src/enclave/main.cpp</text>
</a>
</g>
</g>
<!-- Node1&#45;&gt;Node2 -->
<g id="edge1" class="edge">
<title>Node1&#45;&gt;Node2</title>
<path fill="none" stroke="midnightblue" d="M1554.74,-566.69C1237.71,-560.56 0,-531.56 0,-452.5 0,-452.5 0,-452.5 0,-121 0,-19.01 359.22,-9.73 504.8,-10.16"/>
<polygon fill="midnightblue" stroke="midnightblue" points="1555.11,-570.2 1565.18,-566.89 1555.25,-563.2 1555.11,-570.2"/>
</g>
<!-- Node3 -->
<g id="node3" class="node">
<title>Node3</title>
<g id="a_node3"><a xlink:href="oe__init_8h.html" target="_top" xlink:title=" ">
<polygon fill="white" stroke="black" points="2268.5,-112.5 2268.5,-131.5 2385.5,-131.5 2385.5,-112.5 2268.5,-112.5"/>
<text text-anchor="middle" x="2327" y="-119.5" font-family="Helvetica,sans-Serif" font-size="10.00">src/enclave/oe_init.h</text>
</a>
</g>
</g>
<!-- Node1&#45;&gt;Node3 -->
<g id="edge2" class="edge">
<title>Node1&#45;&gt;Node3</title>
<path fill="none" stroke="midnightblue" d="M1700.52,-563.83C1882.31,-552.41 2343,-517.1 2343,-452.5 2343,-452.5 2343,-452.5 2343,-249.5 2343,-204.78 2333.04,-151.87 2328.84,-131.54"/>
<polygon fill="midnightblue" stroke="midnightblue" points="1700.28,-560.34 1690.51,-564.45 1700.71,-567.32 1700.28,-560.34"/>
</g>
<!-- Node5 -->
<g id="node5" class="node">
<title>Node5</title>
<g id="a_node5"><a xlink:href="store_8h.html" target="_top" xlink:title=" ">
<polygon fill="white" stroke="black" points="1586.5,-503.5 1586.5,-522.5 1669.5,-522.5 1669.5,-503.5 1586.5,-503.5"/>
<text text-anchor="middle" x="1628" y="-510.5" font-family="Helvetica,sans-Serif" font-size="10.00">src/kv/store.h</text>
</a>
</g>
</g>
<!-- Node1&#45;&gt;Node5 -->
<g id="edge5" class="edge">
<title>Node1&#45;&gt;Node5</title>
<path fill="none" stroke="midnightblue" d="M1628,-548.8C1628,-539.91 1628,-529.78 1628,-522.75"/>
<polygon fill="midnightblue" stroke="midnightblue" points="1624.5,-549.08 1628,-559.08 1631.5,-549.08 1624.5,-549.08"/>
</g>
<!-- Node4 -->
<g id="node4" class="node">
<title>Node4</title>
<g id="a_node4"><a xlink:href="enclave_2enclave_8h.html" target="_top" xlink:title=" ">
<polygon fill="white" stroke="black" points="1069,-56.5 1069,-75.5 1191,-75.5 1191,-56.5 1069,-56.5"/>
<text text-anchor="middle" x="1130" y="-63.5" font-family="Helvetica,sans-Serif" font-size="10.00">src/enclave/enclave.h</text>
</a>
</g>
</g>
<!-- Node3&#45;&gt;Node4 -->
<g id="edge3" class="edge">
<title>Node3&#45;&gt;Node4</title>
<path fill="none" stroke="midnightblue" d="M2258.19,-113.55C2251.71,-112.98 2245.23,-112.44 2239,-112 1839.94,-83.52 1358.71,-71.64 1191.08,-68.16"/>
<polygon fill="midnightblue" stroke="midnightblue" points="2258.07,-117.06 2268.35,-114.5 2258.71,-110.09 2258.07,-117.06"/>
</g>
<!-- Node4&#45;&gt;Node2 -->
<g id="edge4" class="edge">
<title>Node4&#45;&gt;Node2</title>
<path fill="none" stroke="midnightblue" d="M1058.79,-58.19C946.54,-47.47 730.41,-26.81 625.32,-16.77"/>
<polygon fill="midnightblue" stroke="midnightblue" points="1058.71,-61.7 1069,-59.17 1059.38,-54.73 1058.71,-61.7"/>
</g>
<!-- Node6 -->
<g id="node6" class="node">
<title>Node6</title>
<g id="a_node6"><a xlink:href="indexer_8h.html" target="_top" xlink:title=" ">
<polygon fill="white" stroke="black" points="1566.5,-442 1566.5,-461 1689.5,-461 1689.5,-442 1566.5,-442"/>
<text text-anchor="middle" x="1628" y="-449" font-family="Helvetica,sans-Serif" font-size="10.00">src/indexing/indexer.h</text>
</a>
</g>
</g>
<!-- Node5&#45;&gt;Node6 -->
<g id="edge6" class="edge">
<title>Node5&#45;&gt;Node6</title>
<path fill="none" stroke="midnightblue" d="M1628,-493.32C1628,-482.5 1628,-469.4 1628,-461.01"/>
<polygon fill="midnightblue" stroke="midnightblue" points="1624.5,-493.48 1628,-503.48 1631.5,-493.48 1624.5,-493.48"/>
</g>
<!-- Node9 -->
<g id="node9" class="node">
<title>Node9</title>
<g id="a_node9"><a xlink:href="visit__each__entry__in__map_8cpp.html" target="_top" xlink:title=" ">
<polygon fill="white" stroke="black" points="1256.5,-436.5 1256.5,-466.5 1417.5,-466.5 1417.5,-436.5 1256.5,-436.5"/>
<text text-anchor="start" x="1264.5" y="-454.5" font-family="Helvetica,sans-Serif" font-size="10.00">src/indexing/strategies</text>
<text text-anchor="middle" x="1337" y="-443.5" font-family="Helvetica,sans-Serif" font-size="10.00">/visit_each_entry_in_map.cpp</text>
</a>
</g>
</g>
<!-- Node5&#45;&gt;Node9 -->
<g id="edge11" class="edge">
<title>Node5&#45;&gt;Node9</title>
<path fill="none" stroke="midnightblue" d="M1576.23,-501.41C1528.67,-491.69 1457.84,-477.21 1405.58,-466.52"/>
<polygon fill="midnightblue" stroke="midnightblue" points="1575.81,-504.9 1586.31,-503.48 1577.21,-498.04 1575.81,-504.9"/>
</g>
<!-- Node10 -->
<g id="node10" class="node">
<title>Node10</title>
<g id="a_node10"><a xlink:href="historical__queries_8h.html" target="_top" xlink:title=" ">
<polygon fill="white" stroke="black" points="2199,-302.5 2199,-332.5 2305,-332.5 2305,-302.5 2199,-302.5"/>
<text text-anchor="start" x="2207" y="-320.5" font-family="Helvetica,sans-Serif" font-size="10.00">src/node/historical</text>
<text text-anchor="middle" x="2252" y="-309.5" font-family="Helvetica,sans-Serif" font-size="10.00">_queries.h</text>
</a>
</g>
</g>
<!-- Node5&#45;&gt;Node10 -->
<g id="edge12" class="edge">
<title>Node5&#45;&gt;Node10</title>
<path fill="none" stroke="midnightblue" d="M1679.86,-511.96C1794.34,-511.17 2065.01,-505.19 2147,-467 2204.24,-440.33 2236.13,-364.7 2247.34,-332.88"/>
<polygon fill="midnightblue" stroke="midnightblue" points="1679.58,-508.47 1669.61,-512.02 1679.63,-515.47 1679.58,-508.47"/>
</g>
<!-- Node12 -->
<g id="node12" class="node">
<title>Node12</title>
<g id="a_node12"><a xlink:href="history_8h.html" target="_top" xlink:title=" ">
<polygon fill="white" stroke="black" points="1959,-442 1959,-461 2061,-461 2061,-442 1959,-442"/>
<text text-anchor="middle" x="2010" y="-449" font-family="Helvetica,sans-Serif" font-size="10.00">src/node/history.h</text>
</a>
</g>
</g>
<!-- Node5&#45;&gt;Node12 -->
<g id="edge16" class="edge">
<title>Node5&#45;&gt;Node12</title>
<path fill="none" stroke="midnightblue" d="M1679.52,-503.98C1752.65,-492.58 1885.78,-471.85 1958.76,-460.48"/>
<polygon fill="midnightblue" stroke="midnightblue" points="1678.95,-500.52 1669.61,-505.52 1680.03,-507.44 1678.95,-500.52"/>
</g>
<!-- Node14 -->
<g id="node14" class="node">
<title>Node14</title>
<g id="a_node14"><a xlink:href="snapshotter_8h.html" target="_top" xlink:title=" ">
<polygon fill="white" stroke="black" points="1909.5,-241 1909.5,-260 2036.5,-260 2036.5,-241 1909.5,-241"/>
<text text-anchor="middle" x="1973" y="-248" font-family="Helvetica,sans-Serif" font-size="10.00">src/node/snapshotter.h</text>
</a>
</g>
</g>
<!-- Node5&#45;&gt;Node14 -->
<g id="edge39" class="edge">
<title>Node5&#45;&gt;Node14</title>
<path fill="none" stroke="midnightblue" d="M1679.81,-509.87C1790.01,-504.88 2040.13,-491.03 2070,-467 2129.13,-419.43 2157.69,-364.06 2114,-302 2096.41,-277.02 2065.26,-264.33 2036.71,-257.91"/>
<polygon fill="midnightblue" stroke="midnightblue" points="1679.42,-506.38 1669.59,-510.32 1679.73,-513.37 1679.42,-506.38"/>
</g>
<!-- Node20 -->
<g id="node20" class="node">
<title>Node20</title>
<g id="a_node20"><a xlink:href="frontend_8h.html" target="_top" xlink:title=" ">
<polygon fill="white" stroke="black" points="852.5,-375 852.5,-394 981.5,-394 981.5,-375 852.5,-375"/>
<text text-anchor="middle" x="917" y="-382" font-family="Helvetica,sans-Serif" font-size="10.00">src/node/rpc/frontend.h</text>
</a>
</g>
</g>
<!-- Node5&#45;&gt;Node20 -->
<g id="edge29" class="edge">
<title>Node5&#45;&gt;Node20</title>
<path fill="none" stroke="midnightblue" d="M1575.93,-507.92C1502.27,-501.68 1363.64,-488.21 1247,-467 1134.65,-446.57 1003.61,-410.46 946.31,-394.05"/>
<polygon fill="midnightblue" stroke="midnightblue" points="1576.05,-511.44 1586.31,-508.79 1576.64,-504.47 1576.05,-511.44"/>
</g>
<!-- Node25 -->
<g id="node25" class="node">
<title>Node25</title>
<g id="a_node25"><a xlink:href="network__tables_8h.html" target="_top" xlink:title=" ">
<polygon fill="white" stroke="black" points="1436,-436.5 1436,-466.5 1548,-466.5 1548,-436.5 1436,-436.5"/>
<text text-anchor="start" x="1444" y="-454.5" font-family="Helvetica,sans-Serif" font-size="10.00">src/service/network</text>
<text text-anchor="middle" x="1492" y="-443.5" font-family="Helvetica,sans-Serif" font-size="10.00">_tables.h</text>
</a>
</g>
</g>
<!-- Node5&#45;&gt;Node25 -->
<g id="edge40" class="edge">
<title>Node5&#45;&gt;Node25</title>
<path fill="none" stroke="midnightblue" d="M1599.34,-499.46C1577.31,-489.82 1546.89,-476.51 1524.05,-466.52"/>
<polygon fill="midnightblue" stroke="midnightblue" points="1597.95,-502.67 1608.51,-503.48 1600.76,-496.26 1597.95,-502.67"/>
</g>
<!-- Node7 -->
<g id="node7" class="node">
<title>Node7</title>
<g id="a_node7"><a xlink:href="node__state_8h.html" target="_top" xlink:title=" ">
<polygon fill="white" stroke="black" points="1307,-174 1307,-193 1431,-193 1431,-174 1307,-174"/>
<text text-anchor="middle" x="1369" y="-181" font-family="Helvetica,sans-Serif" font-size="10.00">src/node/node_state.h</text>
</a>
</g>
</g>
<!-- Node6&#45;&gt;Node7 -->
<g id="edge7" class="edge">
<title>Node6&#45;&gt;Node7</title>
<path fill="none" stroke="midnightblue" d="M1626.68,-431.62C1622.59,-388.98 1606.31,-285.02 1543,-235 1511.04,-209.75 1466.89,-197.12 1431.06,-190.81"/>
<polygon fill="midnightblue" stroke="midnightblue" points="1623.2,-432.04 1627.52,-441.72 1630.17,-431.46 1623.2,-432.04"/>
</g>
<!-- Node7&#45;&gt;Node4 -->
<g id="edge8" class="edge">
<title>Node7&#45;&gt;Node4</title>
<path fill="none" stroke="midnightblue" d="M1336.52,-170.23C1311.68,-160.56 1276.76,-146.37 1247,-132 1208.92,-113.61 1165.85,-88.52 1144.13,-75.54"/>
<polygon fill="midnightblue" stroke="midnightblue" points="1335.58,-173.62 1346.17,-173.95 1338.1,-167.09 1335.58,-173.62"/>
</g>
<!-- Node8 -->
<g id="node8" class="node">
<title>Node8</title>
<g id="a_node8"><a xlink:href="gov__effects_8h.html" target="_top" xlink:title=" ">
<polygon fill="white" stroke="black" points="1256,-112.5 1256,-131.5 1400,-131.5 1400,-112.5 1256,-112.5"/>
<text text-anchor="middle" x="1328" y="-119.5" font-family="Helvetica,sans-Serif" font-size="10.00">src/node/rpc/gov_effects.h</text>
</a>
</g>
</g>
<!-- Node7&#45;&gt;Node8 -->
<g id="edge9" class="edge">
<title>Node7&#45;&gt;Node8</title>
<path fill="none" stroke="midnightblue" d="M1357.29,-165.51C1349.63,-154.39 1339.95,-140.34 1333.86,-131.51"/>
<polygon fill="midnightblue" stroke="midnightblue" points="1354.57,-167.73 1363.13,-173.98 1360.33,-163.75 1354.57,-167.73"/>
</g>
<!-- Node8&#45;&gt;Node4 -->
<g id="edge10" class="edge">
<title>Node8&#45;&gt;Node4</title>
<path fill="none" stroke="midnightblue" d="M1286.56,-109.7C1249.19,-99.51 1195.06,-84.74 1161.23,-75.52"/>
<polygon fill="midnightblue" stroke="midnightblue" points="1286.06,-113.19 1296.63,-112.44 1287.9,-106.44 1286.06,-113.19"/>
</g>
<!-- Node10&#45;&gt;Node4 -->
<g id="edge13" class="edge">
<title>Node10&#45;&gt;Node4</title>
<path fill="none" stroke="midnightblue" d="M2219.62,-297.5C2186.57,-278.91 2133.29,-251.11 2084,-235 1794.15,-140.25 1709.54,-163.61 1409,-112 1331.27,-98.65 1241.15,-84.32 1184.85,-75.51"/>
<polygon fill="midnightblue" stroke="midnightblue" points="2217.96,-300.58 2228.38,-302.48 2221.42,-294.5 2217.96,-300.58"/>
</g>
<!-- Node11 -->
<g id="node11" class="node">
<title>Node11</title>
<g id="a_node11"><a xlink:href="historical__transaction__fetcher_8h.html" target="_top" xlink:title=" ">
<polygon fill="white" stroke="black" points="2189.5,-168.5 2189.5,-198.5 2314.5,-198.5 2314.5,-168.5 2189.5,-168.5"/>
<text text-anchor="start" x="2197.5" y="-186.5" font-family="Helvetica,sans-Serif" font-size="10.00">src/indexing/historical</text>
<text text-anchor="middle" x="2252" y="-175.5" font-family="Helvetica,sans-Serif" font-size="10.00">_transaction_fetcher.h</text>
</a>
</g>
</g>
<!-- Node10&#45;&gt;Node11 -->
<g id="edge14" class="edge">
<title>Node10&#45;&gt;Node11</title>
<path fill="none" stroke="midnightblue" d="M2252,-292.02C2252,-264.51 2252,-220.79 2252,-198.52"/>
<polygon fill="midnightblue" stroke="midnightblue" points="2248.5,-292.37 2252,-302.37 2255.5,-292.37 2248.5,-292.37"/>
</g>
<!-- Node11&#45;&gt;Node4 -->
<g id="edge15" class="edge">
<title>Node11&#45;&gt;Node4</title>
<path fill="none" stroke="midnightblue" d="M2235,-160.11C2220.95,-143.51 2199.39,-122.09 2175,-112 2084.28,-74.48 1401.15,-68.24 1191.2,-67.2"/>
<polygon fill="midnightblue" stroke="midnightblue" points="2232.61,-162.72 2241.64,-168.26 2238.04,-158.3 2232.61,-162.72"/>
</g>
<!-- Node12&#45;&gt;Node7 -->
<g id="edge18" class="edge">
<title>Node12&#45;&gt;Node7</title>
<path fill="none" stroke="midnightblue" d="M2032.18,-436.06C2045.34,-426.79 2061.78,-413.91 2074,-400 2096.88,-373.94 2104.78,-366.43 2114,-333 2128.1,-281.89 2094.27,-256.92 2046,-235 1937.34,-185.66 1576.98,-182.78 1431.11,-183.73"/>
<polygon fill="midnightblue" stroke="midnightblue" points="2029.97,-433.34 2023.69,-441.87 2033.92,-439.12 2029.97,-433.34"/>
</g>
<!-- Node12&#45;&gt;Node10 -->
<g id="edge17" class="edge">
<title>Node12&#45;&gt;Node10</title>
<path fill="none" stroke="midnightblue" d="M2071.49,-442.06C2106.9,-435.02 2150.98,-422.38 2185,-400 2211.78,-382.38 2233.26,-350.77 2244.17,-332.52"/>
<polygon fill="midnightblue" stroke="midnightblue" points="2070.45,-438.7 2061.27,-443.99 2071.75,-445.57 2070.45,-438.7"/>
</g>
<!-- Node13 -->
<g id="node13" class="node">
<title>Node13</title>
<g id="a_node13"><a xlink:href="snapshot__serdes_8h.html" target="_top" xlink:title=" ">
<polygon fill="white" stroke="black" points="1815,-308 1815,-327 1967,-327 1967,-308 1815,-308"/>
<text text-anchor="middle" x="1891" y="-315" font-family="Helvetica,sans-Serif" font-size="10.00">src/node/snapshot_serdes.h</text>
</a>
</g>
</g>
<!-- Node12&#45;&gt;Node13 -->
<g id="edge19" class="edge">
<title>Node12&#45;&gt;Node13</title>
<path fill="none" stroke="midnightblue" d="M1988.33,-435.99C1975.23,-426.62 1958.67,-413.65 1946,-400 1923.94,-376.23 1904.33,-342.85 1895.68,-327.22"/>
<polygon fill="midnightblue" stroke="midnightblue" points="1986.56,-439.02 1996.76,-441.87 1990.56,-433.28 1986.56,-439.02"/>
</g>
<!-- Node15 -->
<g id="node15" class="node">
<title>Node15</title>
<g id="a_node15"><a xlink:href="tx__receipt__impl_8h.html" target="_top" xlink:title=" ">
<polygon fill="white" stroke="black" points="1955,-369.5 1955,-399.5 2065,-399.5 2065,-369.5 1955,-369.5"/>
<text text-anchor="start" x="1963" y="-387.5" font-family="Helvetica,sans-Serif" font-size="10.00">src/node/tx_receipt</text>
<text text-anchor="middle" x="2010" y="-376.5" font-family="Helvetica,sans-Serif" font-size="10.00">_impl.h</text>
</a>
</g>
</g>
<!-- Node12&#45;&gt;Node15 -->
<g id="edge22" class="edge">
<title>Node12&#45;&gt;Node15</title>
<path fill="none" stroke="midnightblue" d="M2010,-431.41C2010,-421.22 2010,-408.9 2010,-399.59"/>
<polygon fill="midnightblue" stroke="midnightblue" points="2006.5,-431.73 2010,-441.73 2013.5,-431.73 2006.5,-431.73"/>
</g>
<!-- Node13&#45;&gt;Node14 -->
<g id="edge20" class="edge">
<title>Node13&#45;&gt;Node14</title>
<path fill="none" stroke="midnightblue" d="M1910.28,-301.21C1926.44,-288.41 1948.92,-270.59 1962.12,-260.13"/>
<polygon fill="midnightblue" stroke="midnightblue" points="1907.72,-298.78 1902.06,-307.73 1912.07,-304.26 1907.72,-298.78"/>
</g>
<!-- Node14&#45;&gt;Node7 -->
<g id="edge21" class="edge">
<title>Node14&#45;&gt;Node7</title>
<path fill="none" stroke="midnightblue" d="M1924.24,-238.97C1916.49,-237.5 1908.54,-236.11 1901,-235 1731.9,-210.02 1530.63,-194.84 1431.09,-188.29"/>
<polygon fill="midnightblue" stroke="midnightblue" points="1923.78,-242.44 1934.27,-240.93 1925.13,-235.57 1923.78,-242.44"/>
</g>
<!-- Node15&#45;&gt;Node10 -->
<g id="edge26" class="edge">
<title>Node15&#45;&gt;Node10</title>
<path fill="none" stroke="midnightblue" d="M2071.99,-366.85C2111.45,-356.25 2161.99,-342.68 2199.46,-332.61"/>
<polygon fill="midnightblue" stroke="midnightblue" points="2070.96,-363.5 2062.21,-369.48 2072.78,-370.26 2070.96,-363.5"/>
</g>
<!-- Node15&#45;&gt;Node13 -->
<g id="edge28" class="edge">
<title>Node15&#45;&gt;Node13</title>
<path fill="none" stroke="midnightblue" d="M1975.17,-364.47C1952.45,-352.06 1923.9,-336.47 1906.57,-327.01"/>
<polygon fill="midnightblue" stroke="midnightblue" points="1973.72,-367.67 1984.18,-369.4 1977.08,-361.53 1973.72,-367.67"/>
</g>
<!-- Node16 -->
<g id="node16" class="node">
<title>Node16</title>
<g id="a_node16"><a xlink:href="src_2apps_2js__v8_2tmpl_2receipt_8h.html" target="_top" xlink:title=" ">
<polygon fill="white" stroke="black" points="1647.5,-302.5 1647.5,-332.5 1758.5,-332.5 1758.5,-302.5 1647.5,-302.5"/>
<text text-anchor="start" x="1655.5" y="-320.5" font-family="Helvetica,sans-Serif" font-size="10.00">src/apps/js_v8/tmpl</text>
<text text-anchor="middle" x="1703" y="-309.5" font-family="Helvetica,sans-Serif" font-size="10.00">/receipt.h</text>
</a>
</g>
</g>
<!-- Node15&#45;&gt;Node16 -->
<g id="edge23" class="edge">
<title>Node15&#45;&gt;Node16</title>
<path fill="none" stroke="midnightblue" d="M1944.71,-369.68C1889.39,-357.96 1810.93,-341.35 1758.57,-330.27"/>
<polygon fill="midnightblue" stroke="midnightblue" points="1944.25,-373.16 1954.76,-371.8 1945.7,-366.31 1944.25,-373.16"/>
</g>
<!-- Node19 -->
<g id="node19" class="node">
<title>Node19</title>
<g id="a_node19"><a xlink:href="historical__queries__adapter_8cpp.html" target="_top" xlink:title=" ">
<polygon fill="white" stroke="black" points="1985,-302.5 1985,-332.5 2105,-332.5 2105,-302.5 1985,-302.5"/>
<text text-anchor="start" x="1993" y="-320.5" font-family="Helvetica,sans-Serif" font-size="10.00">src/node/historical</text>
<text text-anchor="middle" x="2045" y="-309.5" font-family="Helvetica,sans-Serif" font-size="10.00">_queries_adapter.cpp</text>
</a>
</g>
</g>
<!-- Node15&#45;&gt;Node19 -->
<g id="edge27" class="edge">
<title>Node15&#45;&gt;Node19</title>
<path fill="none" stroke="midnightblue" d="M2022.34,-360.58C2027.37,-351.24 2033.02,-340.75 2037.42,-332.58"/>
<polygon fill="midnightblue" stroke="midnightblue" points="2019.25,-358.93 2017.59,-369.4 2025.42,-362.25 2019.25,-358.93"/>
</g>
<!-- Node17 -->
<g id="node17" class="node">
<title>Node17</title>
<g id="a_node17"><a xlink:href="historical__state_8cpp.html" target="_top" xlink:title=" ">
<polygon fill="white" stroke="black" points="1647.5,-235.5 1647.5,-265.5 1762.5,-265.5 1762.5,-235.5 1647.5,-235.5"/>
<text text-anchor="start" x="1655.5" y="-253.5" font-family="Helvetica,sans-Serif" font-size="10.00">src/apps/js_v8/tmpl</text>
<text text-anchor="middle" x="1705" y="-242.5" font-family="Helvetica,sans-Serif" font-size="10.00">/historical_state.cpp</text>
</a>
</g>
</g>
<!-- Node16&#45;&gt;Node17 -->
<g id="edge24" class="edge">
<title>Node16&#45;&gt;Node17</title>
<path fill="none" stroke="midnightblue" d="M1703.75,-292.11C1704.03,-283.15 1704.33,-273.32 1704.57,-265.58"/>
<polygon fill="midnightblue" stroke="midnightblue" points="1700.24,-292.29 1703.43,-302.4 1707.24,-292.51 1700.24,-292.29"/>
</g>
<!-- Node18 -->
<g id="node18" class="node">
<title>Node18</title>
<g id="a_node18"><a xlink:href="apps_2js__v8_2tmpl_2receipt_8cpp.html" target="_top" xlink:title=" ">
<polygon fill="white" stroke="black" points="1780.5,-235.5 1780.5,-265.5 1891.5,-265.5 1891.5,-235.5 1780.5,-235.5"/>
<text text-anchor="start" x="1788.5" y="-253.5" font-family="Helvetica,sans-Serif" font-size="10.00">src/apps/js_v8/tmpl</text>
<text text-anchor="middle" x="1836" y="-242.5" font-family="Helvetica,sans-Serif" font-size="10.00">/receipt.cpp</text>
</a>
</g>
</g>
<!-- Node16&#45;&gt;Node18 -->
<g id="edge25" class="edge">
<title>Node16&#45;&gt;Node18</title>
<path fill="none" stroke="midnightblue" d="M1740.87,-297.99C1761.95,-287.69 1787.78,-275.07 1807.2,-265.58"/>
<polygon fill="midnightblue" stroke="midnightblue" points="1739.31,-294.86 1731.86,-302.4 1742.38,-301.15 1739.31,-294.86"/>
</g>
<!-- Node20&#45;&gt;Node7 -->
<g id="edge30" class="edge">
<title>Node20&#45;&gt;Node7</title>
<path fill="none" stroke="midnightblue" d="M924.85,-365.65C933.97,-346.98 950.81,-318.16 974,-302 1025.65,-266 1051.28,-285.93 1111,-266 1145.6,-254.45 1152.48,-246.79 1187,-235 1237.12,-217.89 1296.43,-202.27 1333.4,-193.07"/>
<polygon fill="midnightblue" stroke="midnightblue" points="921.61,-364.3 920.58,-374.84 927.96,-367.25 921.61,-364.3"/>
</g>
<!-- Node21 -->
<g id="node21" class="node">
<title>Node21</title>
<g id="a_node21"><a xlink:href="member__frontend_8h.html" target="_top" xlink:title=" ">
<polygon fill="white" stroke="black" points="982,-235.5 982,-265.5 1102,-265.5 1102,-235.5 982,-235.5"/>
<text text-anchor="start" x="990" y="-253.5" font-family="Helvetica,sans-Serif" font-size="10.00">src/node/rpc/member</text>
<text text-anchor="middle" x="1042" y="-242.5" font-family="Helvetica,sans-Serif" font-size="10.00">_frontend.h</text>
</a>
</g>
</g>
<!-- Node20&#45;&gt;Node21 -->
<g id="edge31" class="edge">
<title>Node20&#45;&gt;Node21</title>
<path fill="none" stroke="midnightblue" d="M907.09,-365.82C898.64,-348.11 889.78,-320.87 903,-302 912.8,-288.02 949.93,-274.93 983.36,-265.59"/>
<polygon fill="midnightblue" stroke="midnightblue" points="904.14,-367.73 911.85,-375 910.35,-364.51 904.14,-367.73"/>
</g>
<!-- Node22 -->
<g id="node22" class="node">
<title>Node22</title>
<g id="a_node22"><a xlink:href="node__frontend_8h.html" target="_top" xlink:title=" ">
<polygon fill="white" stroke="black" points="983,-308 983,-327 1141,-327 1141,-308 983,-308"/>
<text text-anchor="middle" x="1062" y="-315" font-family="Helvetica,sans-Serif" font-size="10.00">src/node/rpc/node_frontend.h</text>
</a>
</g>
</g>
<!-- Node20&#45;&gt;Node22 -->
<g id="edge33" class="edge">
<title>Node20&#45;&gt;Node22</title>
<path fill="none" stroke="midnightblue" d="M945.75,-370.61C974.47,-357.74 1017.82,-338.31 1042.67,-327.17"/>
<polygon fill="midnightblue" stroke="midnightblue" points="943.95,-367.58 936.25,-374.87 946.81,-373.97 943.95,-367.58"/>
</g>
<!-- Node24 -->
<g id="node24" class="node">
<title>Node24</title>
<g id="a_node24"><a xlink:href="user__frontend_8h.html" target="_top" xlink:title=" ">
<polygon fill="white" stroke="black" points="412.5,-308 412.5,-327 567.5,-327 567.5,-308 412.5,-308"/>
<text text-anchor="middle" x="490" y="-315" font-family="Helvetica,sans-Serif" font-size="10.00">src/node/rpc/user_frontend.h</text>
</a>
</g>
</g>
<!-- Node20&#45;&gt;Node24 -->
<g id="edge37" class="edge">
<title>Node20&#45;&gt;Node24</title>
<path fill="none" stroke="midnightblue" d="M847.1,-373.49C778.33,-363.55 670.36,-347.71 577,-333 565.05,-331.12 552.19,-329.02 540.12,-327.01"/>
<polygon fill="midnightblue" stroke="midnightblue" points="846.98,-377.01 857.38,-374.97 847.98,-370.08 846.98,-377.01"/>
</g>
<!-- Node21&#45;&gt;Node4 -->
<g id="edge32" class="edge">
<title>Node21&#45;&gt;Node4</title>
<path fill="none" stroke="midnightblue" d="M1053.18,-226.32C1072.82,-185.58 1112.68,-102.92 1125.75,-75.82"/>
<polygon fill="midnightblue" stroke="midnightblue" points="1049.95,-224.95 1048.76,-235.48 1056.26,-228 1049.95,-224.95"/>
</g>
<!-- Node22&#45;&gt;Node4 -->
<g id="edge34" class="edge">
<title>Node22&#45;&gt;Node4</title>
<path fill="none" stroke="midnightblue" d="M1021.66,-304.16C1003.41,-296.34 983.58,-284.17 973,-266 966.07,-254.09 967.94,-247.82 973,-235 1002.89,-159.25 1084.84,-97.54 1116.9,-75.6"/>
<polygon fill="midnightblue" stroke="midnightblue" points="1020.42,-307.44 1031.01,-307.87 1023,-300.93 1020.42,-307.44"/>
</g>
<!-- Node23 -->
<g id="node23" class="node">
<title>Node23</title>
<g id="a_node23"><a xlink:href="jwt__key__auto__refresh_8h.html" target="_top" xlink:title=" ">
<polygon fill="white" stroke="black" points="1196.5,-235.5 1196.5,-265.5 1321.5,-265.5 1321.5,-235.5 1196.5,-235.5"/>
<text text-anchor="start" x="1204.5" y="-253.5" font-family="Helvetica,sans-Serif" font-size="10.00">src/node/jwt_key_auto</text>
<text text-anchor="middle" x="1259" y="-242.5" font-family="Helvetica,sans-Serif" font-size="10.00">_refresh.h</text>
</a>
</g>
</g>
<!-- Node22&#45;&gt;Node23 -->
<g id="edge35" class="edge">
<title>Node22&#45;&gt;Node23</title>
<path fill="none" stroke="midnightblue" d="M1097.97,-304.63C1131.37,-293.61 1181.13,-277.19 1216.48,-265.53"/>
<polygon fill="midnightblue" stroke="midnightblue" points="1096.56,-301.41 1088.16,-307.87 1098.75,-308.06 1096.56,-301.41"/>
</g>
<!-- Node23&#45;&gt;Node7 -->
<g id="edge36" class="edge">
<title>Node23&#45;&gt;Node7</title>
<path fill="none" stroke="midnightblue" d="M1291.48,-230.31C1312.43,-217.93 1338.66,-202.43 1354.6,-193.01"/>
<polygon fill="midnightblue" stroke="midnightblue" points="1289.7,-227.3 1282.87,-235.4 1293.26,-233.32 1289.7,-227.3"/>
</g>
<!-- Node24&#45;&gt;Node4 -->
<g id="edge38" class="edge">
<title>Node24&#45;&gt;Node4</title>
<path fill="none" stroke="midnightblue" d="M402.46,-311.66C289.71,-304.51 105.66,-289.39 85,-266 75.88,-255.67 80.48,-248.01 85,-235 123.72,-123.65 203.96,-132.76 320,-112 463.75,-86.29 906.13,-72.7 1068.99,-68.47"/>
<polygon fill="midnightblue" stroke="midnightblue" points="402.27,-315.15 412.47,-312.28 402.71,-308.16 402.27,-315.15"/>
</g>
<!-- Node26 -->
<g id="node26" class="node">
<title>Node26</title>
<g id="a_node26"><a xlink:href="kv__module__loader_8cpp.html" target="_top" xlink:title=" ">
<polygon fill="white" stroke="black" points="1429.5,-369.5 1429.5,-399.5 1572.5,-399.5 1572.5,-369.5 1429.5,-369.5"/>
<text text-anchor="start" x="1437.5" y="-387.5" font-family="Helvetica,sans-Serif" font-size="10.00">src/apps/js_v8/kv_module</text>
<text text-anchor="middle" x="1501" y="-376.5" font-family="Helvetica,sans-Serif" font-size="10.00">_loader.cpp</text>
</a>
</g>
</g>
<!-- Node25&#45;&gt;Node26 -->
<g id="edge41" class="edge">
<title>Node25&#45;&gt;Node26</title>
<path fill="none" stroke="midnightblue" d="M1495.34,-426.4C1496.59,-417.37 1497.97,-407.41 1499.05,-399.58"/>
<polygon fill="midnightblue" stroke="midnightblue" points="1491.86,-426.01 1493.95,-436.4 1498.79,-426.97 1491.86,-426.01"/>
</g>
<!-- Node27 -->
<g id="node27" class="node">
<title>Node27</title>
<g id="a_node27"><a xlink:href="network__state_8h.html" target="_top" xlink:title=" ">
<polygon fill="white" stroke="black" points="1143,-375 1143,-394 1283,-394 1283,-375 1143,-375"/>
<text text-anchor="middle" x="1213" y="-382" font-family="Helvetica,sans-Serif" font-size="10.00">src/node/network_state.h</text>
</a>
</g>
</g>
<!-- Node25&#45;&gt;Node27 -->
<g id="edge42" class="edge">
<title>Node25&#45;&gt;Node27</title>
<path fill="none" stroke="midnightblue" d="M1425.84,-435.09C1370.69,-422.24 1294.18,-404.41 1249.5,-394"/>
<polygon fill="midnightblue" stroke="midnightblue" points="1425.34,-438.56 1435.88,-437.42 1426.93,-431.75 1425.34,-438.56"/>
</g>
<!-- Node38 -->
<g id="node38" class="node">
<title>Node38</title>
<g id="a_node38"><a xlink:href="genesis__gen_8h.html" target="_top" xlink:title=" ">
<polygon fill="white" stroke="black" points="1301,-369.5 1301,-399.5 1411,-399.5 1411,-369.5 1301,-369.5"/>
<text text-anchor="start" x="1309" y="-387.5" font-family="Helvetica,sans-Serif" font-size="10.00">src/service/genesis</text>
<text text-anchor="middle" x="1356" y="-376.5" font-family="Helvetica,sans-Serif" font-size="10.00">_gen.h</text>
</a>
</g>
</g>
<!-- Node25&#45;&gt;Node38 -->
<g id="edge68" class="edge">
<title>Node25&#45;&gt;Node38</title>
<path fill="none" stroke="midnightblue" d="M1453.28,-431.99C1431.72,-421.69 1405.31,-409.07 1385.45,-399.58"/>
<polygon fill="midnightblue" stroke="midnightblue" points="1451.96,-435.24 1462.49,-436.4 1454.98,-428.93 1451.96,-435.24"/>
</g>
<!-- Node27&#45;&gt;Node4 -->
<g id="edge43" class="edge">
<title>Node27&#45;&gt;Node4</title>
<path fill="none" stroke="midnightblue" d="M1132.73,-377.23C1071.31,-370.57 993.86,-357.5 974,-333 965.32,-322.3 965.59,-312.91 974,-302 1012.45,-252.15 1070.23,-313.97 1111,-266 1159.55,-208.88 1139.7,-106.48 1132.31,-75.87"/>
<polygon fill="midnightblue" stroke="midnightblue" points="1132.51,-380.73 1142.82,-378.29 1133.24,-373.77 1132.51,-380.73"/>
</g>
<!-- Node27&#45;&gt;Node7 -->
<g id="edge59" class="edge">
<title>Node27&#45;&gt;Node7</title>
<path fill="none" stroke="midnightblue" d="M1258.34,-372.39C1293.83,-362.74 1339.12,-347.98 1351,-333 1384.88,-290.26 1375.29,-217.71 1370.75,-193.02"/>
<polygon fill="midnightblue" stroke="midnightblue" points="1257.39,-369.02 1248.62,-374.97 1259.19,-375.79 1257.39,-369.02"/>
</g>
<!-- Node27&#45;&gt;Node14 -->
<g id="edge67" class="edge">
<title>Node27&#45;&gt;Node14</title>
<path fill="none" stroke="midnightblue" d="M1264.75,-373.19C1273.8,-371.62 1283.16,-370.14 1292,-369 1397.21,-355.41 1669.48,-372.34 1768,-333 1788.24,-324.92 1786.76,-312.24 1806,-302 1844.91,-281.3 1893.53,-267.82 1928.26,-260.03"/>
<polygon fill="midnightblue" stroke="midnightblue" points="1263.92,-369.78 1254.69,-374.99 1265.15,-376.67 1263.92,-369.78"/>
</g>
<!-- Node27&#45;&gt;Node22 -->
<g id="edge60" class="edge">
<title>Node27&#45;&gt;Node22</title>
<path fill="none" stroke="midnightblue" d="M1183.45,-370.78C1153.55,-357.91 1108.12,-338.35 1082.13,-327.17"/>
<polygon fill="midnightblue" stroke="midnightblue" points="1182.38,-374.13 1192.95,-374.87 1185.15,-367.7 1182.38,-374.13"/>
</g>
<!-- Node27&#45;&gt;Node24 -->
<g id="edge61" class="edge">
<title>Node27&#45;&gt;Node24</title>
<path fill="none" stroke="midnightblue" d="M1132.62,-377.98C986.41,-367.81 682.35,-345.94 577,-333 563.93,-331.39 549.82,-329.23 536.85,-327.07"/>
<polygon fill="midnightblue" stroke="midnightblue" points="1132.65,-381.49 1142.86,-378.7 1133.13,-374.51 1132.65,-381.49"/>
</g>
<!-- Node28 -->
<g id="node28" class="node">
<title>Node28</title>
<g id="a_node28"><a xlink:href="wrap_8h.html" target="_top" xlink:title=" ">
<polygon fill="white" stroke="black" points="586,-308 586,-327 664,-327 664,-308 586,-308"/>
<text text-anchor="middle" x="625" y="-315" font-family="Helvetica,sans-Serif" font-size="10.00">src/js/wrap.h</text>
</a>
</g>
</g>
<!-- Node27&#45;&gt;Node28 -->
<g id="edge44" class="edge">
<title>Node27&#45;&gt;Node28</title>
<path fill="none" stroke="midnightblue" d="M1132.83,-374.64C1005.01,-360.51 759.74,-333.39 664.33,-322.85"/>
<polygon fill="midnightblue" stroke="midnightblue" points="1132.62,-378.14 1142.95,-375.76 1133.39,-371.18 1132.62,-378.14"/>
</g>
<!-- Node36 -->
<g id="node36" class="node">
<title>Node36</title>
<g id="a_node36"><a xlink:href="secret__broadcast_8h.html" target="_top" xlink:title=" ">
<polygon fill="white" stroke="black" points="1399.5,-308 1399.5,-327 1552.5,-327 1552.5,-308 1399.5,-308"/>
<text text-anchor="middle" x="1476" y="-315" font-family="Helvetica,sans-Serif" font-size="10.00">src/node/secret_broadcast.h</text>
</a>
</g>
</g>
<!-- Node27&#45;&gt;Node36 -->
<g id="edge62" class="edge">
<title>Node27&#45;&gt;Node36</title>
<path fill="none" stroke="midnightblue" d="M1257.57,-372.48C1309.45,-359.66 1394.02,-338.76 1441.27,-327.08"/>
<polygon fill="midnightblue" stroke="midnightblue" points="1256.52,-369.14 1247.65,-374.94 1258.2,-375.93 1256.52,-369.14"/>
</g>
<!-- Node37 -->
<g id="node37" class="node">
<title>Node37</title>
<g id="a_node37"><a xlink:href="share__manager_8h.html" target="_top" xlink:title=" ">
<polygon fill="white" stroke="black" points="1197.5,-308 1197.5,-327 1342.5,-327 1342.5,-308 1197.5,-308"/>
<text text-anchor="middle" x="1270" y="-315" font-family="Helvetica,sans-Serif" font-size="10.00">src/node/share_manager.h</text>
</a>
</g>
</g>
<!-- Node27&#45;&gt;Node37 -->
<g id="edge64" class="edge">
<title>Node27&#45;&gt;Node37</title>
<path fill="none" stroke="midnightblue" d="M1227.35,-367.13C1238.5,-354.42 1253.52,-337.3 1262.43,-327.13"/>
<polygon fill="midnightblue" stroke="midnightblue" points="1224.65,-364.91 1220.69,-374.73 1229.91,-369.52 1224.65,-364.91"/>
</g>
<!-- Node28&#45;&gt;Node4 -->
<g id="edge46" class="edge">
<title>Node28&#45;&gt;Node4</title>
<path fill="none" stroke="midnightblue" d="M589.9,-305.14C585.26,-303.92 580.54,-302.83 576,-302 523.28,-292.34 131.45,-305.29 95,-266 85.63,-255.9 86.59,-245.91 95,-235 214.65,-79.86 864.81,-66.84 1068.77,-66.62"/>
<polygon fill="midnightblue" stroke="midnightblue" points="589.24,-308.59 599.82,-307.93 591.14,-301.85 589.24,-308.59"/>
</g>
<!-- Node28&#45;&gt;Node7 -->
<g id="edge57" class="edge">
<title>Node28&#45;&gt;Node7</title>
<path fill="none" stroke="midnightblue" d="M674.5,-310.4C729.57,-302.9 820.8,-288.36 897,-266 932,-255.73 937.72,-244.27 973,-235 1088.63,-204.6 1228.23,-192.24 1307,-187.41"/>
<polygon fill="midnightblue" stroke="midnightblue" points="673.77,-306.97 664.32,-311.76 674.7,-313.9 673.77,-306.97"/>
</g>
<!-- Node28&#45;&gt;Node21 -->
<g id="edge58" class="edge">
<title>Node28&#45;&gt;Node21</title>
<path fill="none" stroke="midnightblue" d="M674.41,-309.97C741.17,-300.98 863.82,-283.87 968,-266 972.52,-265.23 977.18,-264.39 981.87,-263.53"/>
<polygon fill="midnightblue" stroke="midnightblue" points="673.64,-306.55 664.19,-311.34 674.57,-313.48 673.64,-306.55"/>
</g>
<!-- Node29 -->
<g id="node29" class="node">
<title>Node29</title>
<g id="a_node29"><a xlink:href="js__generic__base_8cpp.html" target="_top" xlink:title=" ">
<polygon fill="white" stroke="black" points="770,-235.5 770,-265.5 888,-265.5 888,-235.5 770,-235.5"/>
<text text-anchor="start" x="778" y="-253.5" font-family="Helvetica,sans-Serif" font-size="10.00">src/apps/js_generic</text>
<text text-anchor="middle" x="829" y="-242.5" font-family="Helvetica,sans-Serif" font-size="10.00">/js_generic_base.cpp</text>
</a>
</g>
</g>
<!-- Node28&#45;&gt;Node29 -->
<g id="edge45" class="edge">
<title>Node28&#45;&gt;Node29</title>
<path fill="none" stroke="midnightblue" d="M661.8,-304.77C696.39,-293.75 748.2,-277.24 784.97,-265.53"/>
<polygon fill="midnightblue" stroke="midnightblue" points="660.56,-301.5 652.09,-307.87 662.68,-308.17 660.56,-301.5"/>
</g>
<!-- Node30 -->
<g id="node30" class="node">
<title>Node30</title>
<g id="a_node30"><a xlink:href="js_2consensus_8cpp.html" target="_top" xlink:title=" ">
<polygon fill="white" stroke="black" points="346,-241 346,-260 462,-260 462,-241 346,-241"/>
<text text-anchor="middle" x="404" y="-248" font-family="Helvetica,sans-Serif" font-size="10.00">src/js/consensus.cpp</text>
</a>
</g>
</g>
<!-- Node28&#45;&gt;Node30 -->
<g id="edge47" class="edge">
<title>Node28&#45;&gt;Node30</title>
<path fill="none" stroke="midnightblue" d="M586.41,-305.07C582.89,-304.03 579.38,-303 576,-302 525.85,-287.22 467.45,-270.09 433.22,-260.06"/>
<polygon fill="midnightblue" stroke="midnightblue" points="585.66,-308.5 596.24,-307.98 587.65,-301.79 585.66,-308.5"/>
</g>
<!-- Node31 -->
<g id="node31" class="node">
<title>Node31</title>
<g id="a_node31"><a xlink:href="wrap_8cpp.html" target="_top" xlink:title=" ">
<polygon fill="white" stroke="black" points="359.5,-174 359.5,-193 448.5,-193 448.5,-174 359.5,-174"/>
<text text-anchor="middle" x="404" y="-181" font-family="Helvetica,sans-Serif" font-size="10.00">src/js/wrap.cpp</text>
</a>
</g>
</g>
<!-- Node28&#45;&gt;Node31 -->
<g id="edge56" class="edge">
<title>Node28&#45;&gt;Node31</title>
<path fill="none" stroke="midnightblue" d="M590.41,-304.31C566.68,-295.27 534.93,-281.81 509,-266 490.39,-254.66 488.15,-248.45 471,-235 451.97,-220.08 429.45,-203.27 415.97,-193.3"/>
<polygon fill="midnightblue" stroke="midnightblue" points="589.45,-307.69 600.04,-307.91 591.9,-301.13 589.45,-307.69"/>
</g>
<!-- Node32 -->
<g id="node32" class="node">
<title>Node32</title>
<g id="a_node32"><a xlink:href="conv_8cpp.html" target="_top" xlink:title=" ">
<polygon fill="white" stroke="black" points="518,-241 518,-260 606,-260 606,-241 518,-241"/>
<text text-anchor="middle" x="562" y="-248" font-family="Helvetica,sans-Serif" font-size="10.00">src/js/conv.cpp</text>
</a>
</g>
</g>
<!-- Node28&#45;&gt;Node32 -->
<g id="edge49" class="edge">
<title>Node28&#45;&gt;Node32</title>
<path fill="none" stroke="midnightblue" d="M609.49,-300.5C597.13,-287.75 580.31,-270.39 570.36,-260.13"/>
<polygon fill="midnightblue" stroke="midnightblue" points="607.03,-302.99 616.5,-307.73 612.06,-298.12 607.03,-302.99"/>
</g>
<!-- Node33 -->
<g id="node33" class="node">
<title>Node33</title>
<g id="a_node33"><a xlink:href="js_2crypto_8cpp.html" target="_top" xlink:title=" ">
<polygon fill="white" stroke="black" points="104,-241 104,-260 200,-260 200,-241 104,-241"/>
<text text-anchor="middle" x="152" y="-248" font-family="Helvetica,sans-Serif" font-size="10.00">src/js/crypto.cpp</text>
</a>
</g>
</g>
<!-- Node28&#45;&gt;Node33 -->
<g id="edge51" class="edge">
<title>Node28&#45;&gt;Node33</title>
<path fill="none" stroke="midnightblue" d="M589.72,-305.2C585.14,-303.98 580.48,-302.87 576,-302 415.14,-270.61 370.44,-294.28 209,-266 200.15,-264.45 190.65,-262.25 181.99,-260.03"/>
<polygon fill="midnightblue" stroke="midnightblue" points="588.97,-308.62 599.54,-307.97 590.87,-301.88 588.97,-308.62"/>
</g>
<!-- Node34 -->
<g id="node34" class="node">
<title>Node34</title>
<g id="a_node34"><a xlink:href="js_2historical_8cpp.html" target="_top" xlink:title=" ">
<polygon fill="white" stroke="black" points="218,-241 218,-260 328,-260 328,-241 218,-241"/>
<text text-anchor="middle" x="273" y="-248" font-family="Helvetica,sans-Serif" font-size="10.00">src/js/historical.cpp</text>
</a>
</g>
</g>
<!-- Node28&#45;&gt;Node34 -->
<g id="edge53" class="edge">
<title>Node28&#45;&gt;Node34</title>
<path fill="none" stroke="midnightblue" d="M588.86,-305.19C584.55,-304.03 580.19,-302.93 576,-302 471.14,-278.7 442.56,-285.88 337,-266 327.71,-264.25 317.71,-262.11 308.45,-260.02"/>
<polygon fill="midnightblue" stroke="midnightblue" points="588.15,-308.63 598.73,-308 590.06,-301.9 588.15,-308.63"/>
</g>
<!-- Node35 -->
<g id="node35" class="node">
<title>Node35</title>
<g id="a_node35"><a xlink:href="openenclave_8cpp.html" target="_top" xlink:title=" ">
<polygon fill="white" stroke="black" points="624,-241 624,-260 752,-260 752,-241 624,-241"/>
<text text-anchor="middle" x="688" y="-248" font-family="Helvetica,sans-Serif" font-size="10.00">src/js/openenclave.cpp</text>
</a>
</g>
</g>
<!-- Node28&#45;&gt;Node35 -->
<g id="edge55" class="edge">
<title>Node28&#45;&gt;Node35</title>
<path fill="none" stroke="midnightblue" d="M640.51,-300.5C652.87,-287.75 669.69,-270.39 679.64,-260.13"/>
<polygon fill="midnightblue" stroke="midnightblue" points="637.94,-298.12 633.5,-307.73 642.97,-302.99 637.94,-298.12"/>
</g>
<!-- Node30&#45;&gt;Node31 -->
<g id="edge48" class="edge">
<title>Node30&#45;&gt;Node31</title>
<path fill="none" stroke="midnightblue" d="M404,-230.54C404,-218.17 404,-202.62 404,-193.13"/>
<polygon fill="midnightblue" stroke="midnightblue" points="400.5,-230.73 404,-240.73 407.5,-230.73 400.5,-230.73"/>
</g>
<!-- Node32&#45;&gt;Node31 -->
<g id="edge50" class="edge">
<title>Node32&#45;&gt;Node31</title>
<path fill="none" stroke="midnightblue" d="M531.49,-236.95C500.21,-224.08 452.38,-204.4 425.07,-193.17"/>
<polygon fill="midnightblue" stroke="midnightblue" points="530.44,-240.3 541.02,-240.87 533.1,-233.83 530.44,-240.3"/>
</g>
<!-- Node33&#45;&gt;Node31 -->
<g id="edge52" class="edge">
<title>Node33&#45;&gt;Node31</title>
<path fill="none" stroke="midnightblue" d="M195.02,-238.4C244.75,-225.58 325.55,-204.74 370.72,-193.08"/>
<polygon fill="midnightblue" stroke="midnightblue" points="194.01,-235.05 185.2,-240.94 195.76,-241.83 194.01,-235.05"/>
</g>
<!-- Node34&#45;&gt;Node31 -->
<g id="edge54" class="edge">
<title>Node34&#45;&gt;Node31</title>
<path fill="none" stroke="midnightblue" d="M299.66,-236.27C325.6,-223.4 364.28,-204.21 386.53,-193.17"/>
<polygon fill="midnightblue" stroke="midnightblue" points="297.8,-233.29 290.4,-240.87 300.91,-239.56 297.8,-233.29"/>
</g>
<!-- Node36&#45;&gt;Node7 -->
<g id="edge63" class="edge">
<title>Node36&#45;&gt;Node7</title>
<path fill="none" stroke="midnightblue" d="M1462.65,-300.03C1439.66,-271.67 1393.4,-214.6 1375.91,-193.02"/>
<polygon fill="midnightblue" stroke="midnightblue" points="1459.96,-302.27 1468.98,-307.84 1465.4,-297.87 1459.96,-302.27"/>
</g>
<!-- Node37&#45;&gt;Node7 -->
<g id="edge65" class="edge">
<title>Node37&#45;&gt;Node7</title>
<path fill="none" stroke="midnightblue" d="M1291.78,-301.75C1304.16,-292.55 1319.27,-279.86 1330,-266 1348.34,-242.31 1361.02,-208.6 1366.28,-193.01"/>
<polygon fill="midnightblue" stroke="midnightblue" points="1289.44,-299.12 1283.36,-307.79 1293.52,-304.8 1289.44,-299.12"/>
</g>
<!-- Node37&#45;&gt;Node21 -->
<g id="edge66" class="edge">
<title>Node37&#45;&gt;Node21</title>
<path fill="none" stroke="midnightblue" d="M1229.86,-305.06C1191.21,-294.04 1132.65,-277.34 1091.21,-265.53"/>
<polygon fill="midnightblue" stroke="midnightblue" points="1229.15,-308.49 1239.72,-307.87 1231.07,-301.76 1229.15,-308.49"/>
</g>
<!-- Node38&#45;&gt;Node7 -->
<g id="edge69" class="edge">
<title>Node38&#45;&gt;Node7</title>
<path fill="none" stroke="midnightblue" d="M1421.23,-368.43C1480.4,-354.61 1558.76,-335.86 1561,-333 1613.11,-266.49 1465.82,-213.07 1399.51,-193.03"/>
<polygon fill="midnightblue" stroke="midnightblue" points="1420.12,-365.1 1411.18,-370.77 1421.71,-371.91 1420.12,-365.1"/>
</g>
<!-- Node38&#45;&gt;Node21 -->
<g id="edge70" class="edge">
<title>Node38&#45;&gt;Node21</title>
<path fill="none" stroke="midnightblue" d="M1291.1,-366.79C1251.92,-356.17 1206.16,-342.65 1188,-333 1168.75,-322.78 1168.46,-313.59 1150,-302 1127.04,-287.58 1099.3,-274.69 1077.68,-265.55"/>
<polygon fill="midnightblue" stroke="midnightblue" points="1290.33,-370.21 1300.9,-369.43 1292.15,-363.45 1290.33,-370.21"/>
</g>
<!-- Node38&#45;&gt;Node22 -->
<g id="edge71" class="edge">
<title>Node38&#45;&gt;Node22</title>
<path fill="none" stroke="midnightblue" d="M1291.08,-368.8C1218.54,-352.64 1145.36,-336.64 1101.5,-327.09"/>
<polygon fill="midnightblue" stroke="midnightblue" points="1290.33,-372.22 1300.85,-370.98 1291.85,-365.39 1290.33,-372.22"/>
</g>
<!-- Node38&#45;&gt;Node36 -->
<g id="edge72" class="edge">
<title>Node38&#45;&gt;Node36</title>
<path fill="none" stroke="midnightblue" d="M1391.13,-364.47C1414.04,-352.06 1442.82,-336.47 1460.29,-327.01"/>
<polygon fill="midnightblue" stroke="midnightblue" points="1389.16,-361.56 1382.04,-369.4 1392.5,-367.71 1389.16,-361.56"/>
</g>
<!-- Node38&#45;&gt;Node37 -->
<g id="edge73" class="edge">
<title>Node38&#45;&gt;Node37</title>
<path fill="none" stroke="midnightblue" d="M1329.33,-363.34C1313.28,-351.21 1293.67,-336.39 1281.5,-327.19"/>
<polygon fill="midnightblue" stroke="midnightblue" points="1327.25,-366.16 1337.34,-369.4 1331.47,-360.57 1327.25,-366.16"/>
</g>
</g>
</svg>
