<?xml version="1.0" encoding="UTF-8" standalone="no"?>
<!DOCTYPE svg PUBLIC "-//W3C//DTD SVG 1.1//EN"
 "http://www.w3.org/Graphics/SVG/1.1/DTD/svg11.dtd">
<!-- Generated by graphviz version 2.43.0 (0)
 -->
<!-- Title: ccf::UserSignatureAuthnPolicy Pages: 1 -->
<svg width="330pt" height="251pt"
 viewBox="0.00 0.00 330.00 251.00" xmlns="http://www.w3.org/2000/svg" xmlns:xlink="http://www.w3.org/1999/xlink">
<g id="graph0" class="graph" transform="scale(1 1) rotate(0) translate(4 247)">
<title>ccf::UserSignatureAuthnPolicy</title>
<polygon fill="white" stroke="transparent" points="-4,4 -4,-247 326,-247 326,4 -4,4"/>
<!-- Node1 -->
<g id="node1" class="node">
<title>Node1</title>
<g id="a_node1"><a xlink:title=" ">
<polygon fill="#bfbfbf" stroke="black" points="0,-0.5 0,-19.5 163,-19.5 163,-0.5 0,-0.5"/>
<text text-anchor="middle" x="81.5" y="-7.5" font-family="Helvetica,sans-Serif" font-size="10.00">ccf::UserSignatureAuthnPolicy</text>
</a>
</g>
</g>
<!-- Node2 -->
<g id="node2" class="node">
<title>Node2</title>
<g id="a_node2"><a xlink:href="classccf_1_1AuthnPolicy.html" target="_top" xlink:title=" ">
<polygon fill="white" stroke="black" points="18.5,-73 18.5,-92 112.5,-92 112.5,-73 18.5,-73"/>
<text text-anchor="middle" x="65.5" y="-80" font-family="Helvetica,sans-Serif" font-size="10.00">ccf::AuthnPolicy</text>
</a>
</g>
</g>
<!-- Node2&#45;&gt;Node1 -->
<g id="edge1" class="edge">
<title>Node2&#45;&gt;Node1</title>
<path fill="none" stroke="midnightblue" d="M69.73,-62.86C72.9,-48.9 77.09,-30.43 79.52,-19.72"/>
<polygon fill="midnightblue" stroke="midnightblue" points="66.26,-62.33 67.46,-72.86 73.09,-63.88 66.26,-62.33"/>
</g>
<!-- Node3 -->
<g id="node3" class="node">
<title>Node3</title>
<g id="a_node3"><a xlink:title=" ">
<polygon fill="white" stroke="black" points="131,-67.5 131,-97.5 246,-97.5 246,-67.5 131,-67.5"/>
<text text-anchor="start" x="139" y="-85.5" font-family="Helvetica,sans-Serif" font-size="10.00">std::unique_ptr&lt; ccf</text>
<text text-anchor="middle" x="188.5" y="-74.5" font-family="Helvetica,sans-Serif" font-size="10.00">::VerifierCache &gt;</text>
</a>
</g>
</g>
<!-- Node3&#45;&gt;Node1 -->
<g id="edge2" class="edge">
<title>Node3&#45;&gt;Node1</title>
<path fill="none" stroke="#9a32cd" stroke-dasharray="5,2" d="M158.49,-61.73C137.4,-47.83 110.23,-29.93 94.45,-19.53"/>
<polygon fill="#9a32cd" stroke="#9a32cd" points="156.83,-64.82 167.1,-67.4 160.68,-58.98 156.83,-64.82"/>
<text text-anchor="middle" x="160" y="-41" font-family="Helvetica,sans-Serif" font-size="10.00"> verifiers</text>
</g>
<!-- Node4 -->
<g id="node4" class="node">
<title>Node4</title>
<g id="a_node4"><a xlink:href="structccf_1_1VerifierCache.html" target="_top" xlink:title=" ">
<polygon fill="white" stroke="black" points="138,-145.5 138,-164.5 239,-164.5 239,-145.5 138,-145.5"/>
<text text-anchor="middle" x="188.5" y="-152.5" font-family="Helvetica,sans-Serif" font-size="10.00">ccf::VerifierCache</text>
</a>
</g>
</g>
<!-- Node4&#45;&gt;Node3 -->
<g id="edge3" class="edge">
<title>Node4&#45;&gt;Node3</title>
<path fill="none" stroke="#9a32cd" stroke-dasharray="5,2" d="M188.5,-135.24C188.5,-123.41 188.5,-108.38 188.5,-97.58"/>
<polygon fill="#9a32cd" stroke="#9a32cd" points="185,-135.36 188.5,-145.36 192,-135.36 185,-135.36"/>
<text text-anchor="middle" x="197" y="-119" font-family="Helvetica,sans-Serif" font-size="10.00"> ptr</text>
</g>
<!-- Node5 -->
<g id="node5" class="node">
<title>Node5</title>
<g id="a_node5"><a xlink:title=" ">
<polygon fill="white" stroke="black" points="92,-218 92,-237 161,-237 161,-218 92,-218"/>
<text text-anchor="middle" x="126.5" y="-225" font-family="Helvetica,sans-Serif" font-size="10.00">std::mutex</text>
</a>
</g>
</g>
<!-- Node5&#45;&gt;Node4 -->
<g id="edge4" class="edge">
<title>Node5&#45;&gt;Node4</title>
<path fill="none" stroke="#9a32cd" stroke-dasharray="5,2" d="M138.24,-209.64C144.28,-201.35 151.94,-191.37 159.5,-183 165.4,-176.47 172.65,-169.72 178.43,-164.6"/>
<polygon fill="#9a32cd" stroke="#9a32cd" points="135.37,-207.64 132.41,-217.82 141.07,-211.71 135.37,-207.64"/>
<text text-anchor="middle" x="194" y="-186" font-family="Helvetica,sans-Serif" font-size="10.00"> verifiers_lock</text>
</g>
<!-- Node6 -->
<g id="node6" class="node">
<title>Node6</title>
<g id="a_node6"><a xlink:href="classLRU.html" target="_top" xlink:title=" ">
<polygon fill="white" stroke="black" points="179,-212.5 179,-242.5 322,-242.5 322,-212.5 179,-212.5"/>
<text text-anchor="start" x="187" y="-230.5" font-family="Helvetica,sans-Serif" font-size="10.00">LRU&lt; crypto::Pem, crypto</text>
<text text-anchor="middle" x="250.5" y="-219.5" font-family="Helvetica,sans-Serif" font-size="10.00">::VerifierPtr &gt;</text>
</a>
</g>
</g>
<!-- Node6&#45;&gt;Node4 -->
<g id="edge5" class="edge">
<title>Node6&#45;&gt;Node4</title>
<path fill="none" stroke="#9a32cd" stroke-dasharray="5,2" d="M241.25,-202.87C237.88,-196 233.61,-188.8 228.5,-183 221.96,-175.58 212.95,-169.27 205.14,-164.61"/>
<polygon fill="#9a32cd" stroke="#9a32cd" points="238.27,-204.78 245.55,-212.48 244.66,-201.92 238.27,-204.78"/>
<text text-anchor="middle" x="257" y="-186" font-family="Helvetica,sans-Serif" font-size="10.00"> verifiers</text>
</g>
</g>
</svg>
