<?xml version="1.0" encoding="UTF-8" standalone="no"?>
<!DOCTYPE svg PUBLIC "-//W3C//DTD SVG 1.1//EN"
 "http://www.w3.org/Graphics/SVG/1.1/DTD/svg11.dtd">
<!-- Generated by graphviz version 2.43.0 (0)
 -->
<!-- Title: kv::ValueHandle&lt; V, VSerialiser, Unit &gt; Pages: 1 -->
<!--zoomable 247 -->
<svg id="main" version="1.1" xmlns="http://www.w3.org/2000/svg" xmlns:xlink="http://www.w3.org/1999/xlink" xml:space="preserve" onload="init(evt)">
<style type="text/css"><![CDATA[
.edge:hover path { stroke: red; }
.edge:hover polygon { stroke: red; fill: red; }
]]></style>
<script type="text/javascript"><![CDATA[
var edges = document.getElementsByTagName('g');
if (edges && edges.length) {
  for (var i=0;i<edges.length;i++) {
    if (edges[i].id.substr(0,4)=='edge') {
      edges[i].setAttribute('class','edge');
    }
  }
}
]]></script>
        <defs>
                <circle id="rim" cx="0" cy="0" r="7"/>
                <circle id="rim2" cx="0" cy="0" r="3.5"/>
                <g id="zoomPlus">
                        <use xlink:href="#rim" fill="#404040">
                                <set attributeName="fill" to="#808080" begin="zoomplus.mouseover" end="zoomplus.mouseout"/>
                        </use>
                        <path d="M-4,0h8M0,-4v8" fill="none" stroke="white" stroke-width="1.5" pointer-events="none"/>
                </g>
                <g id="zoomMin">
                        <use xlink:href="#rim" fill="#404040">
                                <set attributeName="fill" to="#808080" begin="zoomminus.mouseover" end="zoomminus.mouseout"/>
                        </use>
                        <path d="M-4,0h8" fill="none" stroke="white" stroke-width="1.5" pointer-events="none"/>
                </g>
                <g id="dirArrow">
                        <path fill="none" stroke="white" stroke-width="1.5" d="M0,-3.0v7 M-2.5,-0.5L0,-3.0L2.5,-0.5"/>
                </g>
               <g id="resetDef">
                       <use xlink:href="#rim2" fill="#404040">
                               <set attributeName="fill" to="#808080" begin="reset.mouseover" end="reset.mouseout"/>
                       </use>
               </g>
        </defs>

<script type="text/javascript">
var viewWidth = 1115;
var viewHeight = 247;
var sectionId = 'dynsection-0';
</script>
<script xlink:href="svgpan.js"/>
<svg id="graph" class="graph">
<g id="viewport">
<title>kv::ValueHandle&lt; V, VSerialiser, Unit &gt;</title>
<polygon fill="white" stroke="transparent" points="-4,4 -4,-242.5 1111,-242.5 1111,4 -4,4"/>
<!-- Node1 -->
<g id="node1" class="node">
<title>Node1</title>
<g id="a_node1"><a xlink:title=" ">
<polygon fill="#bfbfbf" stroke="black" points="991,-125.5 991,-155.5 1107,-155.5 1107,-125.5 991,-125.5"/>
<text text-anchor="start" x="999" y="-143.5" font-family="Helvetica,sans-Serif" font-size="10.00">kv::ValueHandle&lt; V,</text>
<text text-anchor="middle" x="1049" y="-132.5" font-family="Helvetica,sans-Serif" font-size="10.00"> VSerialiser, Unit &gt;</text>
</a>
</g>
</g>
<!-- Node2 -->
<g id="node2" class="node">
<title>Node2</title>
<g id="a_node2"><a xlink:href="classkv_1_1AbstractHandle.html" target="_top" xlink:title=" ">
<polygon fill="white" stroke="black" points="357.5,-176 357.5,-195 466.5,-195 466.5,-176 357.5,-176"/>
<text text-anchor="middle" x="412" y="-183" font-family="Helvetica,sans-Serif" font-size="10.00">kv::AbstractHandle</text>
</a>
</g>
</g>
<!-- Node2&#45;&gt;Node1 -->
<g id="edge1" class="edge">
<title>Node2&#45;&gt;Node1</title>
<path fill="none" stroke="midnightblue" d="M476.8,-182.97C580.86,-178.52 793.56,-168.05 973,-150.5 978.75,-149.94 984.74,-149.27 990.72,-148.56"/>
<polygon fill="midnightblue" stroke="midnightblue" points="476.61,-179.48 466.77,-183.4 476.91,-186.47 476.61,-179.48"/>
</g>
<!-- Node4 -->
<g id="node4" class="node">
<title>Node4</title>
<g id="a_node4"><a xlink:href="classkv_1_1untyped_1_1MapHandle.html" target="_top" xlink:title=" ">
<polygon fill="white" stroke="black" points="573,-100 573,-119 708,-119 708,-100 573,-100"/>
<text text-anchor="middle" x="640.5" y="-107" font-family="Helvetica,sans-Serif" font-size="10.00">kv::untyped::MapHandle</text>
</a>
</g>
</g>
<!-- Node2&#45;&gt;Node4 -->
<g id="edge4" class="edge">
<title>Node2&#45;&gt;Node4</title>
<path fill="none" stroke="midnightblue" d="M458.52,-173.22C486.55,-165.37 523.11,-154.61 555,-143.5 576.5,-136.01 600.55,-126.19 617.48,-119.03"/>
<polygon fill="midnightblue" stroke="midnightblue" points="457.3,-169.93 448.6,-175.98 459.17,-176.68 457.3,-169.93"/>
</g>
<!-- Node3 -->
<g id="node3" class="node">
<title>Node3</title>
<g id="a_node3"><a xlink:href="classkv_1_1ReadableValueHandle.html" target="_top" xlink:title=" ">
<polygon fill="white" stroke="black" points="812,-86.5 812,-116.5 953,-116.5 953,-86.5 812,-86.5"/>
<text text-anchor="start" x="820" y="-104.5" font-family="Helvetica,sans-Serif" font-size="10.00">kv::ReadableValueHandle</text>
<text text-anchor="middle" x="882.5" y="-93.5" font-family="Helvetica,sans-Serif" font-size="10.00">&lt; V, VSerialiser, Unit &gt;</text>
</a>
</g>
</g>
<!-- Node3&#45;&gt;Node1 -->
<g id="edge2" class="edge">
<title>Node3&#45;&gt;Node1</title>
<path fill="none" stroke="midnightblue" d="M956.97,-118.92C968.3,-121.6 979.85,-124.34 990.75,-126.93"/>
<polygon fill="midnightblue" stroke="midnightblue" points="957.64,-115.48 947.1,-116.58 956.02,-122.29 957.64,-115.48"/>
</g>
<!-- Node4&#45;&gt;Node1 -->
<g id="edge15" class="edge">
<title>Node4&#45;&gt;Node1</title>
<path fill="none" stroke="#9a32cd" stroke-dasharray="5,2" d="M718.36,-119.7C720.94,-119.98 723.49,-120.25 726,-120.5 818.51,-129.78 926.44,-135.43 990.89,-138.26"/>
<polygon fill="#9a32cd" stroke="#9a32cd" points="718.67,-116.21 708.34,-118.57 717.88,-123.17 718.67,-116.21"/>
<text text-anchor="middle" x="882.5" y="-138.5" font-family="Helvetica,sans-Serif" font-size="10.00"> untyped_handle</text>
</g>
<!-- Node4&#45;&gt;Node3 -->
<g id="edge3" class="edge">
<title>Node4&#45;&gt;Node3</title>
<path fill="none" stroke="#9a32cd" stroke-dasharray="5,2" d="M718.07,-106.95C748.18,-105.94 782.51,-104.8 811.9,-103.82"/>
<polygon fill="#9a32cd" stroke="#9a32cd" points="717.91,-103.45 708.03,-107.28 718.15,-110.45 717.91,-103.45"/>
<text text-anchor="middle" x="759.5" y="-108.5" font-family="Helvetica,sans-Serif" font-size="10.00"> read_handle</text>
</g>
<!-- Node13 -->
<g id="node13" class="node">
<title>Node13</title>
<g id="a_node13"><a xlink:href="classkv_1_1WriteableValueHandle.html" target="_top" xlink:title=" ">
<polygon fill="white" stroke="black" points="811,-37.5 811,-67.5 954,-67.5 954,-37.5 811,-37.5"/>
<text text-anchor="start" x="819" y="-55.5" font-family="Helvetica,sans-Serif" font-size="10.00">kv::WriteableValueHandle</text>
<text text-anchor="middle" x="882.5" y="-44.5" font-family="Helvetica,sans-Serif" font-size="10.00">&lt; V, VSerialiser, Unit &gt;</text>
</a>
</g>
</g>
<!-- Node4&#45;&gt;Node13 -->
<g id="edge14" class="edge">
<title>Node4&#45;&gt;Node13</title>
<path fill="none" stroke="#9a32cd" stroke-dasharray="5,2" d="M691.66,-97.59C728.43,-88.85 778.61,-76.94 818.14,-67.55"/>
<polygon fill="#9a32cd" stroke="#9a32cd" points="690.59,-94.24 681.67,-99.96 692.21,-101.05 690.59,-94.24"/>
<text text-anchor="middle" x="759.5" y="-90.5" font-family="Helvetica,sans-Serif" font-size="10.00"> write_handle</text>
</g>
<!-- Node5 -->
<g id="node5" class="node">
<title>Node5</title>
<g id="a_node5"><a xlink:href="structkv_1_1untyped_1_1ChangeSet.html" target="_top" xlink:title=" ">
<polygon fill="white" stroke="black" points="346,-132 346,-151 478,-151 478,-132 346,-132"/>
<text text-anchor="middle" x="412" y="-139" font-family="Helvetica,sans-Serif" font-size="10.00">kv::untyped::ChangeSet</text>
</a>
</g>
</g>
<!-- Node5&#45;&gt;Node4 -->
<g id="edge5" class="edge">
<title>Node5&#45;&gt;Node4</title>
<path fill="none" stroke="#9a32cd" stroke-dasharray="5,2" d="M488.12,-130.89C515.48,-127.02 546.21,-122.68 572.79,-118.93"/>
<polygon fill="#9a32cd" stroke="#9a32cd" points="487.62,-127.42 478.21,-132.29 488.6,-134.35 487.62,-127.42"/>
<text text-anchor="middle" x="525.5" y="-131.5" font-family="Helvetica,sans-Serif" font-size="10.00"> tx_changes</text>
</g>
<!-- Node6 -->
<g id="node6" class="node">
<title>Node6</title>
<g id="a_node6"><a xlink:href="classkv_1_1AbstractChangeSet.html" target="_top" xlink:title=" ">
<polygon fill="white" stroke="black" points="108.5,-219 108.5,-238 235.5,-238 235.5,-219 108.5,-219"/>
<text text-anchor="middle" x="172" y="-226" font-family="Helvetica,sans-Serif" font-size="10.00">kv::AbstractChangeSet</text>
</a>
</g>
</g>
<!-- Node6&#45;&gt;Node5 -->
<g id="edge6" class="edge">
<title>Node6&#45;&gt;Node5</title>
<path fill="none" stroke="midnightblue" d="M245.6,-224.33C273.34,-219.87 304.03,-211.17 328,-194.5 340.15,-186.05 334.53,-175.84 346,-166.5 354.16,-159.86 364.28,-154.84 374.08,-151.12"/>
<polygon fill="midnightblue" stroke="midnightblue" points="244.93,-220.89 235.54,-225.79 245.94,-227.82 244.93,-220.89"/>
</g>
<!-- Node7 -->
<g id="node7" class="node">
<title>Node7</title>
<g id="a_node7"><a xlink:href="classchamp_1_1Map.html" target="_top" xlink:title=" ">
<polygon fill="white" stroke="black" points="106,-181 106,-200 238,-200 238,-181 106,-181"/>
<text text-anchor="middle" x="172" y="-188" font-family="Helvetica,sans-Serif" font-size="10.00">champ::Map&lt; K, V, H &gt;</text>
</a>
</g>
</g>
<!-- Node7&#45;&gt;Node5 -->
<g id="edge7" class="edge">
<title>Node7&#45;&gt;Node5</title>
<path fill="none" stroke="#9a32cd" stroke-dasharray="5,2" d="M229.07,-178.96C270.33,-170.46 325.76,-159.05 364.55,-151.06"/>
<polygon fill="#9a32cd" stroke="#9a32cd" points="228.26,-175.55 219.17,-180.99 229.67,-182.41 228.26,-175.55"/>
<text text-anchor="middle" x="299.5" y="-182.5" font-family="Helvetica,sans-Serif" font-size="10.00"> committed</text>
<text text-anchor="middle" x="299.5" y="-171.5" font-family="Helvetica,sans-Serif" font-size="10.00">state</text>
</g>
<!-- Node8 -->
<g id="node8" class="node">
<title>Node8</title>
<g id="a_node8"><a xlink:title=" ">
<polygon fill="white" stroke="black" points="91,-121 91,-162 253,-162 253,-121 91,-121"/>
<text text-anchor="start" x="99" y="-150" font-family="Helvetica,sans-Serif" font-size="10.00">std::map&lt; K, std::tuple</text>
<text text-anchor="start" x="99" y="-139" font-family="Helvetica,sans-Serif" font-size="10.00">&lt; DeletableVersion, LastRead</text>
<text text-anchor="middle" x="172" y="-128" font-family="Helvetica,sans-Serif" font-size="10.00">Version &gt; &gt;</text>
</a>
</g>
</g>
<!-- Node8&#45;&gt;Node5 -->
<g id="edge8" class="edge">
<title>Node8&#45;&gt;Node5</title>
<path fill="none" stroke="#9a32cd" stroke-dasharray="5,2" d="M263.6,-141.5C290.93,-141.5 320.38,-141.5 345.72,-141.5"/>
<polygon fill="#9a32cd" stroke="#9a32cd" points="263.24,-138 253.24,-141.5 263.24,-145 263.24,-138"/>
<text text-anchor="middle" x="299.5" y="-144.5" font-family="Helvetica,sans-Serif" font-size="10.00"> reads</text>
</g>
<!-- Node9 -->
<g id="node9" class="node">
<title>Node9</title>
<g id="a_node9"><a xlink:title=" ">
<polygon fill="white" stroke="black" points="0,-132 0,-151 29,-151 29,-132 0,-132"/>
<text text-anchor="middle" x="14.5" y="-139" font-family="Helvetica,sans-Serif" font-size="10.00">K</text>
</a>
</g>
</g>
<!-- Node9&#45;&gt;Node8 -->
<g id="edge9" class="edge">
<title>Node9&#45;&gt;Node8</title>
<path fill="none" stroke="#9a32cd" stroke-dasharray="5,2" d="M39.22,-141.5C53.29,-141.5 72.03,-141.5 90.95,-141.5"/>
<polygon fill="#9a32cd" stroke="#9a32cd" points="39.03,-138 29.03,-141.5 39.03,-145 39.03,-138"/>
<text text-anchor="middle" x="60" y="-144.5" font-family="Helvetica,sans-Serif" font-size="10.00"> keys</text>
</g>
<!-- Node10 -->
<g id="node10" class="node">
<title>Node10</title>
<g id="a_node10"><a xlink:title=" ">
<polygon fill="white" stroke="black" points="101.5,-49.5 101.5,-101.5 242.5,-101.5 242.5,-49.5 101.5,-49.5"/>
<text text-anchor="start" x="109.5" y="-89.5" font-family="Helvetica,sans-Serif" font-size="10.00">std::map&lt; kv::serialisers</text>
<text text-anchor="start" x="109.5" y="-78.5" font-family="Helvetica,sans-Serif" font-size="10.00">::SerialisedEntry, std</text>
<text text-anchor="start" x="109.5" y="-67.5" font-family="Helvetica,sans-Serif" font-size="10.00">::optional&lt; kv::serialisers</text>
<text text-anchor="middle" x="172" y="-56.5" font-family="Helvetica,sans-Serif" font-size="10.00">::SerialisedEntry &gt; &gt;</text>
</a>
</g>
</g>
<!-- Node10&#45;&gt;Node5 -->
<g id="edge10" class="edge">
<title>Node10&#45;&gt;Node5</title>
<path fill="none" stroke="#9a32cd" stroke-dasharray="5,2" d="M252.5,-97.55C294.66,-109.24 344.28,-123 376.62,-131.97"/>
<polygon fill="#9a32cd" stroke="#9a32cd" points="253.37,-94.16 242.8,-94.86 251.5,-100.9 253.37,-94.16"/>
<text text-anchor="middle" x="299.5" y="-120.5" font-family="Helvetica,sans-Serif" font-size="10.00"> writes</text>
</g>
<!-- Node11 -->
<g id="node11" class="node">
<title>Node11</title>
<g id="a_node11"><a xlink:title=" ">
<polygon fill="white" stroke="black" points="379.5,-81 379.5,-100 444.5,-100 444.5,-81 379.5,-81"/>
<text text-anchor="middle" x="412" y="-88" font-family="Helvetica,sans-Serif" font-size="10.00">std::string</text>
</a>
</g>
</g>
<!-- Node11&#45;&gt;Node4 -->
<g id="edge11" class="edge">
<title>Node11&#45;&gt;Node4</title>
<path fill="none" stroke="#9a32cd" stroke-dasharray="5,2" d="M455.01,-90.06C483.33,-90.16 521.5,-91.07 555,-94.5 567.3,-95.76 580.51,-97.78 592.74,-99.93"/>
<polygon fill="#9a32cd" stroke="#9a32cd" points="454.67,-86.56 444.67,-90.06 454.67,-93.56 454.67,-86.56"/>
<text text-anchor="middle" x="525.5" y="-97.5" font-family="Helvetica,sans-Serif" font-size="10.00"> map_name</text>
</g>
<!-- Node12 -->
<g id="node12" class="node">
<title>Node12</title>
<g id="a_node12"><a xlink:title=" ">
<polygon fill="white" stroke="black" points="120,-0.5 120,-30.5 224,-30.5 224,-0.5 120,-0.5"/>
<text text-anchor="start" x="128" y="-18.5" font-family="Helvetica,sans-Serif" font-size="10.00">std::basic_string&lt;</text>
<text text-anchor="middle" x="172" y="-7.5" font-family="Helvetica,sans-Serif" font-size="10.00"> Char &gt;</text>
</a>
</g>
</g>
<!-- Node12&#45;&gt;Node11 -->
<g id="edge12" class="edge">
<title>Node12&#45;&gt;Node11</title>
<path fill="none" stroke="midnightblue" d="M230.92,-33.57C238.35,-35.9 245.86,-38.25 253,-40.5 297.6,-54.53 349.24,-70.89 381.01,-80.98"/>
<polygon fill="midnightblue" stroke="midnightblue" points="231.82,-30.19 221.24,-30.54 229.73,-36.87 231.82,-30.19"/>
</g>
<!-- Node13&#45;&gt;Node1 -->
<g id="edge13" class="edge">
<title>Node13&#45;&gt;Node1</title>
<path fill="none" stroke="midnightblue" d="M940.65,-71.38C945.23,-73.31 949.73,-75.35 954,-77.5 981.38,-91.26 1010.3,-111.64 1028.71,-125.47"/>
<polygon fill="midnightblue" stroke="midnightblue" points="941.79,-68.06 931.2,-67.58 939.18,-74.56 941.79,-68.06"/>
</g>
</g>
</svg>
        <g id="navigator" transform="translate(0 0)" fill="#404254">
                <rect fill="#f2f5e9" fill-opacity="0.5" stroke="#606060" stroke-width=".5" x="0" y="0" width="60" height="60"/>
                <use id="zoomplus" xlink:href="#zoomPlus" x="17" y="9" onmousedown="handleZoom(evt,'in')"/>
                <use id="zoomminus" xlink:href="#zoomMin" x="42" y="9" onmousedown="handleZoom(evt,'out')"/>
                <use id="reset" xlink:href="#resetDef" x="30" y="36" onmousedown="handleReset()"/>
                <g id="arrowUp" xlink:href="#dirArrow" transform="translate(30 24)" onmousedown="handlePan(0,-1)">
                  <use xlink:href="#rim" fill="#404040">
                        <set attributeName="fill" to="#808080" begin="arrowUp.mouseover" end="arrowUp.mouseout"/>
                  </use>
                  <path fill="none" stroke="white" stroke-width="1.5" d="M0,-3.0v7 M-2.5,-0.5L0,-3.0L2.5,-0.5"/>
                </g>
                <g id="arrowRight" xlink:href="#dirArrow" transform="rotate(90) translate(36 -43)" onmousedown="handlePan(1,0)">
                  <use xlink:href="#rim" fill="#404040">
                        <set attributeName="fill" to="#808080" begin="arrowRight.mouseover" end="arrowRight.mouseout"/>
                  </use>
                  <path fill="none" stroke="white" stroke-width="1.5" d="M0,-3.0v7 M-2.5,-0.5L0,-3.0L2.5,-0.5"/>
                </g>
                <g id="arrowDown" xlink:href="#dirArrow" transform="rotate(180) translate(-30 -48)" onmousedown="handlePan(0,1)">
                  <use xlink:href="#rim" fill="#404040">
                        <set attributeName="fill" to="#808080" begin="arrowDown.mouseover" end="arrowDown.mouseout"/>
                  </use>
                  <path fill="none" stroke="white" stroke-width="1.5" d="M0,-3.0v7 M-2.5,-0.5L0,-3.0L2.5,-0.5"/>
                </g>
                <g id="arrowLeft" xlink:href="#dirArrow" transform="rotate(270) translate(-36 17)" onmousedown="handlePan(-1,0)">
                  <use xlink:href="#rim" fill="#404040">
                        <set attributeName="fill" to="#808080" begin="arrowLeft.mouseover" end="arrowLeft.mouseout"/>
                  </use>
                  <path fill="none" stroke="white" stroke-width="1.5" d="M0,-3.0v7 M-2.5,-0.5L0,-3.0L2.5,-0.5"/>
                </g>
        </g>
        <svg viewBox="0 0 15 15" width="100%" height="30px" preserveAspectRatio="xMaxYMin meet">
         <g id="arrow_out" transform="scale(0.3 0.3)">
          <a xlink:href="classkv_1_1ValueHandle__coll__graph_org.svg" target="_base">
           <rect id="button" ry="5" rx="5" y="6" x="6" height="38" width="38"
                fill="#f2f5e9" fill-opacity="0.5" stroke="#606060" stroke-width="1.0"/>
           <path id="arrow"
             d="M 11.500037,31.436501 C 11.940474,20.09759 22.043105,11.32322 32.158766,21.979434 L 37.068811,17.246167 C 37.068811,17.246167 37.088388,32 37.088388,32 L 22.160133,31.978069 C 22.160133,31.978069 26.997745,27.140456 26.997745,27.140456 C 18.528582,18.264221 13.291696,25.230495 11.500037,31.436501 z"
             style="fill:#404040;"/>
          </a>
         </g>
        </svg>
</svg>
