<?xml version="1.0" encoding="UTF-8" standalone="no"?>
<!DOCTYPE svg PUBLIC "-//W3C//DTD SVG 1.1//EN"
 "http://www.w3.org/Graphics/SVG/1.1/DTD/svg11.dtd">
<!-- Generated by graphviz version 2.43.0 (0)
 -->
<!-- Title: ccf::UserRpcFrontend Pages: 1 -->
<svg width="2654pt" height="647pt"
 viewBox="0.00 0.00 2654.00 647.10" xmlns="http://www.w3.org/2000/svg" xmlns:xlink="http://www.w3.org/1999/xlink">
<g id="graph0" class="graph" transform="scale(1 1) rotate(0) translate(4 643.1)">
<title>ccf::UserRpcFrontend</title>
<polygon fill="white" stroke="transparent" points="-4,4 -4,-643.1 2650,-643.1 2650,4 -4,4"/>
<!-- Node1 -->
<g id="node1" class="node">
<title>Node1</title>
<g id="a_node1"><a xlink:title=" ">
<polygon fill="#bfbfbf" stroke="black" points="2527,-299.6 2527,-318.6 2646,-318.6 2646,-299.6 2527,-299.6"/>
<text text-anchor="middle" x="2586.5" y="-306.6" font-family="Helvetica,sans-Serif" font-size="10.00">ccf::UserRpcFrontend</text>
</a>
</g>
</g>
<!-- Node2 -->
<g id="node2" class="node">
<title>Node2</title>
<g id="a_node2"><a xlink:href="classccf_1_1RpcFrontend.html" target="_top" xlink:title=" ">
<polygon fill="white" stroke="black" points="2305,-329.6 2305,-348.6 2402,-348.6 2402,-329.6 2305,-329.6"/>
<text text-anchor="middle" x="2353.5" y="-336.6" font-family="Helvetica,sans-Serif" font-size="10.00">ccf::RpcFrontend</text>
</a>
</g>
</g>
<!-- Node2&#45;&gt;Node1 -->
<g id="edge1" class="edge">
<title>Node2&#45;&gt;Node1</title>
<path fill="none" stroke="midnightblue" d="M2412.15,-331.61C2447.16,-327.07 2491.73,-321.28 2526.91,-316.71"/>
<polygon fill="midnightblue" stroke="midnightblue" points="2411.55,-328.16 2402.08,-332.92 2412.45,-335.1 2411.55,-328.16"/>
</g>
<!-- Node3 -->
<g id="node3" class="node">
<title>Node3</title>
<g id="a_node3"><a xlink:href="classccf_1_1RpcHandler.html" target="_top" xlink:title=" ">
<polygon fill="white" stroke="black" points="2062.5,-367.6 2062.5,-386.6 2154.5,-386.6 2154.5,-367.6 2062.5,-367.6"/>
<text text-anchor="middle" x="2108.5" y="-374.6" font-family="Helvetica,sans-Serif" font-size="10.00">ccf::RpcHandler</text>
</a>
</g>
</g>
<!-- Node3&#45;&gt;Node2 -->
<g id="edge2" class="edge">
<title>Node3&#45;&gt;Node2</title>
<path fill="none" stroke="midnightblue" d="M2164.74,-368.46C2206.93,-361.87 2264.47,-352.87 2304.7,-346.58"/>
<polygon fill="midnightblue" stroke="midnightblue" points="2163.98,-365.04 2154.64,-370.04 2165.06,-371.96 2163.98,-365.04"/>
</g>
<!-- Node4 -->
<g id="node4" class="node">
<title>Node4</title>
<g id="a_node4"><a xlink:href="classccf_1_1ForwardedRpcHandler.html" target="_top" xlink:title=" ">
<polygon fill="white" stroke="black" points="2037,-329.6 2037,-348.6 2180,-348.6 2180,-329.6 2037,-329.6"/>
<text text-anchor="middle" x="2108.5" y="-336.6" font-family="Helvetica,sans-Serif" font-size="10.00">ccf::ForwardedRpcHandler</text>
</a>
</g>
</g>
<!-- Node4&#45;&gt;Node2 -->
<g id="edge3" class="edge">
<title>Node4&#45;&gt;Node2</title>
<path fill="none" stroke="midnightblue" d="M2190.14,-339.1C2228.15,-339.1 2272.2,-339.1 2304.81,-339.1"/>
<polygon fill="midnightblue" stroke="midnightblue" points="2190.11,-335.6 2180.11,-339.1 2190.11,-342.6 2190.11,-335.6"/>
</g>
<!-- Node5 -->
<g id="node5" class="node">
<title>Node5</title>
<g id="a_node5"><a xlink:href="classkv_1_1Store.html" target="_top" xlink:title=" ">
<polygon fill="white" stroke="black" points="2079,-543.6 2079,-562.6 2138,-562.6 2138,-543.6 2079,-543.6"/>
<text text-anchor="middle" x="2108.5" y="-550.6" font-family="Helvetica,sans-Serif" font-size="10.00">kv::Store</text>
</a>
</g>
</g>
<!-- Node5&#45;&gt;Node2 -->
<g id="edge4" class="edge">
<title>Node5&#45;&gt;Node2</title>
<path fill="none" stroke="#9a32cd" stroke-dasharray="5,2" d="M2128.09,-536.73C2176.19,-494.37 2303.62,-382.15 2341.64,-348.67"/>
<polygon fill="#9a32cd" stroke="#9a32cd" points="2125.76,-534.11 2120.57,-543.35 2130.39,-539.37 2125.76,-534.11"/>
<text text-anchor="middle" x="2224" y="-474.1" font-family="Helvetica,sans-Serif" font-size="10.00"> tables</text>
</g>
<!-- Node6 -->
<g id="node6" class="node">
<title>Node6</title>
<g id="a_node6"><a xlink:href="classkv_1_1AbstractStore.html" target="_top" xlink:title=" ">
<polygon fill="white" stroke="black" points="1791,-543.6 1791,-562.6 1891,-562.6 1891,-543.6 1791,-543.6"/>
<text text-anchor="middle" x="1841" y="-550.6" font-family="Helvetica,sans-Serif" font-size="10.00">kv::AbstractStore</text>
</a>
</g>
</g>
<!-- Node6&#45;&gt;Node5 -->
<g id="edge5" class="edge">
<title>Node6&#45;&gt;Node5</title>
<path fill="none" stroke="midnightblue" d="M1901.02,-553.1C1956.28,-553.1 2036.5,-553.1 2078.84,-553.1"/>
<polygon fill="midnightblue" stroke="midnightblue" points="1901.01,-549.6 1891.01,-553.1 1901.01,-556.6 1901.01,-549.6"/>
</g>
<!-- Node7 -->
<g id="node7" class="node">
<title>Node7</title>
<g id="a_node7"><a xlink:href="classkv_1_1StoreState.html" target="_top" xlink:title=" ">
<polygon fill="white" stroke="black" points="1798.5,-505.6 1798.5,-524.6 1883.5,-524.6 1883.5,-505.6 1798.5,-505.6"/>
<text text-anchor="middle" x="1841" y="-512.6" font-family="Helvetica,sans-Serif" font-size="10.00">kv::StoreState</text>
</a>
</g>
</g>
<!-- Node7&#45;&gt;Node5 -->
<g id="edge6" class="edge">
<title>Node7&#45;&gt;Node5</title>
<path fill="none" stroke="midnightblue" d="M1893.71,-522.5C1948.9,-530.4 2034.34,-542.63 2078.65,-548.97"/>
<polygon fill="midnightblue" stroke="midnightblue" points="1894.17,-519.03 1883.78,-521.08 1893.18,-525.96 1894.17,-519.03"/>
</g>
<!-- Node8 -->
<g id="node8" class="node">
<title>Node8</title>
<g id="a_node8"><a xlink:title=" ">
<polygon fill="white" stroke="black" points="1446.5,-444.6 1446.5,-463.6 1515.5,-463.6 1515.5,-444.6 1446.5,-444.6"/>
<text text-anchor="middle" x="1481" y="-451.6" font-family="Helvetica,sans-Serif" font-size="10.00">std::mutex</text>
</a>
</g>
</g>
<!-- Node8&#45;&gt;Node7 -->
<g id="edge7" class="edge">
<title>Node8&#45;&gt;Node7</title>
<path fill="none" stroke="#9a32cd" stroke-dasharray="5,2" d="M1526.02,-457.93C1596.24,-464.13 1727.88,-476.17 1749,-481.1 1773.8,-486.89 1801,-497.68 1819.15,-505.55"/>
<polygon fill="#9a32cd" stroke="#9a32cd" points="1525.99,-454.41 1515.72,-457.02 1525.37,-461.39 1525.99,-454.41"/>
<text text-anchor="middle" x="1661" y="-506.1" font-family="Helvetica,sans-Serif" font-size="10.00"> commit_lock</text>
<text text-anchor="middle" x="1661" y="-495.1" font-family="Helvetica,sans-Serif" font-size="10.00">maps_lock</text>
<text text-anchor="middle" x="1661" y="-484.1" font-family="Helvetica,sans-Serif" font-size="10.00">version_lock</text>
</g>
<!-- Node15 -->
<g id="node15" class="node">
<title>Node15</title>
<g id="a_node15"><a xlink:href="classccf_1_1endpoints_1_1EndpointRegistry.html" target="_top" xlink:title=" ">
<polygon fill="white" stroke="black" points="2042,-264.1 2042,-294.1 2175,-294.1 2175,-264.1 2042,-264.1"/>
<text text-anchor="start" x="2050" y="-282.1" font-family="Helvetica,sans-Serif" font-size="10.00">ccf::endpoints::Endpoint</text>
<text text-anchor="middle" x="2108.5" y="-271.1" font-family="Helvetica,sans-Serif" font-size="10.00">Registry</text>
</a>
</g>
</g>
<!-- Node8&#45;&gt;Node15 -->
<g id="edge39" class="edge">
<title>Node8&#45;&gt;Node15</title>
<path fill="none" stroke="#9a32cd" stroke-dasharray="5,2" d="M1525.7,-454.89C1647.21,-456.67 1982.54,-458.56 2019,-426.1 2054.69,-394.33 2009.78,-359.37 2037,-320.1 2044.66,-309.05 2056.35,-300.55 2068.01,-294.24"/>
<polygon fill="#9a32cd" stroke="#9a32cd" points="1525.69,-451.39 1515.64,-454.74 1525.58,-458.39 1525.69,-451.39"/>
<text text-anchor="middle" x="1841" y="-457.1" font-family="Helvetica,sans-Serif" font-size="10.00"> metrics_lock</text>
</g>
<!-- Node9 -->
<g id="node9" class="node">
<title>Node9</title>
<g id="a_node9"><a xlink:title=" ">
<polygon fill="white" stroke="black" points="550,-513.1 550,-565.1 693,-565.1 693,-513.1 550,-513.1"/>
<text text-anchor="start" x="558" y="-553.1" font-family="Helvetica,sans-Serif" font-size="10.00">std::map&lt; std::string,</text>
<text text-anchor="start" x="558" y="-542.1" font-family="Helvetica,sans-Serif" font-size="10.00"> std::pair&lt; kv::Version,</text>
<text text-anchor="start" x="558" y="-531.1" font-family="Helvetica,sans-Serif" font-size="10.00"> std::shared_ptr&lt; untyped</text>
<text text-anchor="middle" x="621.5" y="-520.1" font-family="Helvetica,sans-Serif" font-size="10.00">::Map &gt; &gt; &gt;</text>
</a>
</g>
</g>
<!-- Node9&#45;&gt;Node7 -->
<g id="edge8" class="edge">
<title>Node9&#45;&gt;Node7</title>
<path fill="none" stroke="#9a32cd" stroke-dasharray="5,2" d="M703.28,-549.97C765.95,-557.48 855.08,-566.1 933.5,-566.1 933.5,-566.1 933.5,-566.1 1482,-566.1 1598.3,-566.1 1733.75,-539.4 1799.73,-524.63"/>
<polygon fill="#9a32cd" stroke="#9a32cd" points="703.41,-546.47 693.06,-548.73 702.57,-553.41 703.41,-546.47"/>
<text text-anchor="middle" x="1112" y="-569.1" font-family="Helvetica,sans-Serif" font-size="10.00"> maps</text>
</g>
<!-- Node10 -->
<g id="node10" class="node">
<title>Node10</title>
<g id="a_node10"><a xlink:title=" ">
<polygon fill="white" stroke="black" points="155.5,-253.6 155.5,-272.6 220.5,-272.6 220.5,-253.6 155.5,-253.6"/>
<text text-anchor="middle" x="188" y="-260.6" font-family="Helvetica,sans-Serif" font-size="10.00">std::string</text>
</a>
</g>
</g>
<!-- Node10&#45;&gt;Node9 -->
<g id="edge9" class="edge">
<title>Node10&#45;&gt;Node9</title>
<path fill="none" stroke="#9a32cd" stroke-dasharray="5,2" d="M193.26,-282.96C202.94,-326.23 227.69,-427.02 253,-450.1 334.74,-524.63 468.09,-539.61 549.7,-541.14"/>
<polygon fill="#9a32cd" stroke="#9a32cd" points="196.65,-282.07 191.09,-273.05 189.81,-283.57 196.65,-282.07"/>
<text text-anchor="middle" x="298.5" y="-505.1" font-family="Helvetica,sans-Serif" font-size="10.00"> keys</text>
</g>
<!-- Node10&#45;&gt;Node15 -->
<g id="edge16" class="edge">
<title>Node10&#45;&gt;Node15</title>
<path fill="none" stroke="#9a32cd" stroke-dasharray="5,2" d="M204.95,-246.22C216.99,-234.61 234.54,-219.91 253,-212.1 297.98,-193.07 313.4,-203 362,-198.1 615.4,-172.54 678.82,-156.1 933.5,-156.1 933.5,-156.1 933.5,-156.1 1842,-156.1 1922.37,-156.1 1948.04,-155.38 2019,-193.1 2052.11,-210.7 2081.31,-244.42 2096.47,-264.01"/>
<polygon fill="#9a32cd" stroke="#9a32cd" points="202.47,-243.76 197.88,-253.31 207.42,-248.7 202.47,-243.76"/>
<text text-anchor="middle" x="1112" y="-159.1" font-family="Helvetica,sans-Serif" font-size="10.00"> method_prefix</text>
</g>
<!-- Node17 -->
<g id="node17" class="node">
<title>Node17</title>
<g id="a_node17"><a xlink:href="structccf_1_1endpoints_1_1EndpointRegistry_1_1OpenApiInfo.html" target="_top" xlink:title=" ">
<polygon fill="white" stroke="black" points="555,-95.1 555,-125.1 688,-125.1 688,-95.1 555,-95.1"/>
<text text-anchor="start" x="563" y="-113.1" font-family="Helvetica,sans-Serif" font-size="10.00">ccf::endpoints::Endpoint</text>
<text text-anchor="middle" x="621.5" y="-102.1" font-family="Helvetica,sans-Serif" font-size="10.00">Registry::OpenApiInfo</text>
</a>
</g>
</g>
<!-- Node10&#45;&gt;Node17 -->
<g id="edge18" class="edge">
<title>Node10&#45;&gt;Node17</title>
<path fill="none" stroke="#9a32cd" stroke-dasharray="5,2" d="M190.62,-243.3C194.59,-209.41 208.04,-141.04 253,-111.1 300.73,-79.32 462.61,-91.67 554.82,-101.86"/>
<polygon fill="#9a32cd" stroke="#9a32cd" points="187.13,-243.07 189.61,-253.37 194.09,-243.77 187.13,-243.07"/>
<text text-anchor="middle" x="298.5" y="-136.1" font-family="Helvetica,sans-Serif" font-size="10.00"> description</text>
<text text-anchor="middle" x="298.5" y="-125.1" font-family="Helvetica,sans-Serif" font-size="10.00">document_version</text>
<text text-anchor="middle" x="298.5" y="-114.1" font-family="Helvetica,sans-Serif" font-size="10.00">title</text>
</g>
<!-- Node20 -->
<g id="node20" class="node">
<title>Node20</title>
<g id="a_node20"><a xlink:href="structccf_1_1endpoints_1_1EndpointDefinition.html" target="_top" xlink:title=" ">
<polygon fill="white" stroke="black" points="1045.5,-275.1 1045.5,-305.1 1178.5,-305.1 1178.5,-275.1 1045.5,-275.1"/>
<text text-anchor="start" x="1053.5" y="-293.1" font-family="Helvetica,sans-Serif" font-size="10.00">ccf::endpoints::Endpoint</text>
<text text-anchor="middle" x="1112" y="-282.1" font-family="Helvetica,sans-Serif" font-size="10.00">Definition</text>
</a>
</g>
</g>
<!-- Node10&#45;&gt;Node20 -->
<g id="edge25" class="edge">
<title>Node10&#45;&gt;Node20</title>
<path fill="none" stroke="#9a32cd" stroke-dasharray="5,2" d="M199.19,-281.66C210.04,-299.51 228.97,-325.71 253,-339.1 295.77,-362.93 313.17,-351.54 362,-355.1 614.87,-373.56 915.23,-326.58 1045.42,-302.84"/>
<polygon fill="#9a32cd" stroke="#9a32cd" points="202.05,-279.62 194,-272.73 196,-283.14 202.05,-279.62"/>
<text text-anchor="middle" x="621.5" y="-362.1" font-family="Helvetica,sans-Serif" font-size="10.00"> full_uri_path</text>
</g>
<!-- Node21 -->
<g id="node21" class="node">
<title>Node21</title>
<g id="a_node21"><a xlink:href="structccf_1_1endpoints_1_1EndpointKey.html" target="_top" xlink:title=" ">
<polygon fill="white" stroke="black" points="371.5,-410.6 371.5,-429.6 522.5,-429.6 522.5,-410.6 371.5,-410.6"/>
<text text-anchor="middle" x="447" y="-417.6" font-family="Helvetica,sans-Serif" font-size="10.00">ccf::endpoints::EndpointKey</text>
</a>
</g>
</g>
<!-- Node10&#45;&gt;Node21 -->
<g id="edge23" class="edge">
<title>Node10&#45;&gt;Node21</title>
<path fill="none" stroke="#9a32cd" stroke-dasharray="5,2" d="M193.59,-282.96C201.07,-310.53 218.61,-359.84 253,-385.1 271.73,-398.86 325.36,-407.9 371.34,-413.34"/>
<polygon fill="#9a32cd" stroke="#9a32cd" points="196.9,-281.77 191.06,-272.93 190.12,-283.48 196.9,-281.77"/>
<text text-anchor="middle" x="298.5" y="-412.1" font-family="Helvetica,sans-Serif" font-size="10.00"> uri_path</text>
</g>
<!-- Node23 -->
<g id="node23" class="node">
<title>Node23</title>
<g id="a_node23"><a xlink:href="structccf_1_1endpoints_1_1EndpointProperties.html" target="_top" xlink:title=" ">
<polygon fill="white" stroke="black" points="711.5,-275.1 711.5,-305.1 844.5,-305.1 844.5,-275.1 711.5,-275.1"/>
<text text-anchor="start" x="719.5" y="-293.1" font-family="Helvetica,sans-Serif" font-size="10.00">ccf::endpoints::Endpoint</text>
<text text-anchor="middle" x="778" y="-282.1" font-family="Helvetica,sans-Serif" font-size="10.00">Properties</text>
</a>
</g>
</g>
<!-- Node10&#45;&gt;Node23 -->
<g id="edge29" class="edge">
<title>Node10&#45;&gt;Node23</title>
<path fill="none" stroke="#9a32cd" stroke-dasharray="5,2" d="M230.72,-265.02C331.58,-269.65 589.28,-281.48 711.19,-287.08"/>
<polygon fill="#9a32cd" stroke="#9a32cd" points="230.76,-261.52 220.61,-264.55 230.44,-268.51 230.76,-261.52"/>
<text text-anchor="middle" x="447" y="-293.1" font-family="Helvetica,sans-Serif" font-size="10.00"> js_function</text>
<text text-anchor="middle" x="447" y="-282.1" font-family="Helvetica,sans-Serif" font-size="10.00">js_module</text>
</g>
<!-- Node24 -->
<g id="node24" class="node">
<title>Node24</title>
<g id="a_node24"><a xlink:title=" ">
<polygon fill="white" stroke="black" points="377,-326.6 377,-345.6 517,-345.6 517,-326.6 377,-326.6"/>
<text text-anchor="middle" x="447" y="-333.6" font-family="Helvetica,sans-Serif" font-size="10.00">std::vector&lt; std::string &gt;</text>
</a>
</g>
</g>
<!-- Node10&#45;&gt;Node24 -->
<g id="edge28" class="edge">
<title>Node10&#45;&gt;Node24</title>
<path fill="none" stroke="#9a32cd" stroke-dasharray="5,2" d="M210.97,-278.3C222.91,-285.91 238.23,-294.64 253,-300.1 292.64,-314.76 339.16,-323.67 376.6,-328.95"/>
<polygon fill="#9a32cd" stroke="#9a32cd" points="212.84,-275.34 202.56,-272.78 208.99,-281.19 212.84,-275.34"/>
<text text-anchor="middle" x="298.5" y="-327.1" font-family="Helvetica,sans-Serif" font-size="10.00"> elements</text>
</g>
<!-- Node29 -->
<g id="node29" class="node">
<title>Node29</title>
<g id="a_node29"><a xlink:title=" ">
<polygon fill="white" stroke="black" points="863,-50.6 863,-91.6 1006,-91.6 1006,-50.6 863,-50.6"/>
<text text-anchor="start" x="871" y="-79.6" font-family="Helvetica,sans-Serif" font-size="10.00">std::map&lt; std::string,</text>
<text text-anchor="start" x="871" y="-68.6" font-family="Helvetica,sans-Serif" font-size="10.00"> std::map&lt; ccf::RESTVerb,</text>
<text text-anchor="middle" x="934.5" y="-57.6" font-family="Helvetica,sans-Serif" font-size="10.00"> EndpointPtr &gt; &gt;</text>
</a>
</g>
</g>
<!-- Node10&#45;&gt;Node29 -->
<g id="edge36" class="edge">
<title>Node10&#45;&gt;Node29</title>
<path fill="none" stroke="#9a32cd" stroke-dasharray="5,2" d="M189.79,-243.54C192.44,-206.55 203.86,-126.63 253,-88.1 436.22,55.54 740.43,-11.82 870.92,-50.5"/>
<polygon fill="#9a32cd" stroke="#9a32cd" points="186.3,-243.36 189.22,-253.55 193.28,-243.76 186.3,-243.36"/>
<text text-anchor="middle" x="447" y="-31.1" font-family="Helvetica,sans-Serif" font-size="10.00"> keys</text>
</g>
<!-- Node30 -->
<g id="node30" class="node">
<title>Node30</title>
<g id="a_node30"><a xlink:title=" ">
<polygon fill="white" stroke="black" points="1218,-219.1 1218,-271.1 1389,-271.1 1389,-219.1 1218,-219.1"/>
<text text-anchor="start" x="1226" y="-259.1" font-family="Helvetica,sans-Serif" font-size="10.00">std::map&lt; std::string,</text>
<text text-anchor="start" x="1226" y="-248.1" font-family="Helvetica,sans-Serif" font-size="10.00"> std::map&lt; ccf::RESTVerb,</text>
<text text-anchor="start" x="1226" y="-237.1" font-family="Helvetica,sans-Serif" font-size="10.00"> std::shared_ptr&lt; ccf::endpoints</text>
<text text-anchor="middle" x="1303.5" y="-226.1" font-family="Helvetica,sans-Serif" font-size="10.00">::PathTemplatedEndpoint &gt; &gt; &gt;</text>
</a>
</g>
</g>
<!-- Node10&#45;&gt;Node30 -->
<g id="edge38" class="edge">
<title>Node10&#45;&gt;Node30</title>
<path fill="none" stroke="#9a32cd" stroke-dasharray="5,2" d="M230.66,-262.43C394.2,-259.78 994.17,-250.09 1217.77,-246.47"/>
<polygon fill="#9a32cd" stroke="#9a32cd" points="230.47,-258.93 220.53,-262.59 230.59,-265.93 230.47,-258.93"/>
<text text-anchor="middle" x="621.5" y="-261.1" font-family="Helvetica,sans-Serif" font-size="10.00"> keys</text>
</g>
<!-- Node31 -->
<g id="node31" class="node">
<title>Node31</title>
<g id="a_node31"><a xlink:title=" ">
<polygon fill="white" stroke="black" points="1573,-190.1 1573,-242.1 1749,-242.1 1749,-190.1 1573,-190.1"/>
<text text-anchor="start" x="1581" y="-230.1" font-family="Helvetica,sans-Serif" font-size="10.00">std::map&lt; std::string,</text>
<text text-anchor="start" x="1581" y="-219.1" font-family="Helvetica,sans-Serif" font-size="10.00"> std::map&lt; std::string,</text>
<text text-anchor="start" x="1581" y="-208.1" font-family="Helvetica,sans-Serif" font-size="10.00"> ccf::endpoints::EndpointRegistry</text>
<text text-anchor="middle" x="1661" y="-197.1" font-family="Helvetica,sans-Serif" font-size="10.00">::Metrics &gt; &gt;</text>
</a>
</g>
</g>
<!-- Node10&#45;&gt;Node31 -->
<g id="edge41" class="edge">
<title>Node10&#45;&gt;Node31</title>
<path fill="none" stroke="#9a32cd" stroke-dasharray="5,2" d="M222.28,-249.94C270.71,-232.01 363.8,-202.1 446,-202.1 446,-202.1 446,-202.1 1304.5,-202.1 1396.07,-202.1 1500.8,-206.8 1572.74,-210.75"/>
<polygon fill="#9a32cd" stroke="#9a32cd" points="220.77,-246.77 212.65,-253.57 223.24,-253.32 220.77,-246.77"/>
<text text-anchor="middle" x="778" y="-205.1" font-family="Helvetica,sans-Serif" font-size="10.00"> keys</text>
</g>
<!-- Node11 -->
<g id="node11" class="node">
<title>Node11</title>
<g id="a_node11"><a xlink:title=" ">
<polygon fill="white" stroke="black" points="0,-248.1 0,-278.1 104,-278.1 104,-248.1 0,-248.1"/>
<text text-anchor="start" x="8" y="-266.1" font-family="Helvetica,sans-Serif" font-size="10.00">std::basic_string&lt;</text>
<text text-anchor="middle" x="52" y="-255.1" font-family="Helvetica,sans-Serif" font-size="10.00"> Char &gt;</text>
</a>
</g>
</g>
<!-- Node11&#45;&gt;Node10 -->
<g id="edge10" class="edge">
<title>Node11&#45;&gt;Node10</title>
<path fill="none" stroke="midnightblue" d="M114.32,-263.1C128.57,-263.1 143.16,-263.1 155.49,-263.1"/>
<polygon fill="midnightblue" stroke="midnightblue" points="114.04,-259.6 104.04,-263.1 114.04,-266.6 114.04,-259.6"/>
</g>
<!-- Node12 -->
<g id="node12" class="node">
<title>Node12</title>
<g id="a_node12"><a xlink:title=" ">
<polygon fill="white" stroke="black" points="1414,-485.1 1414,-537.1 1548,-537.1 1548,-485.1 1414,-485.1"/>
<text text-anchor="start" x="1422" y="-525.1" font-family="Helvetica,sans-Serif" font-size="10.00">std::unordered_map</text>
<text text-anchor="start" x="1422" y="-514.1" font-family="Helvetica,sans-Serif" font-size="10.00">&lt; Version, std::tuple</text>
<text text-anchor="start" x="1422" y="-503.1" font-family="Helvetica,sans-Serif" font-size="10.00">&lt; std::unique_ptr&lt; kv</text>
<text text-anchor="middle" x="1481" y="-492.1" font-family="Helvetica,sans-Serif" font-size="10.00">::PendingTx &gt;, bool &gt; &gt;</text>
</a>
</g>
</g>
<!-- Node12&#45;&gt;Node7 -->
<g id="edge11" class="edge">
<title>Node12&#45;&gt;Node7</title>
<path fill="none" stroke="#9a32cd" stroke-dasharray="5,2" d="M1558.3,-517.4C1563.27,-517.68 1568.21,-517.92 1573,-518.1 1652.68,-521.16 1745.82,-518.75 1798.36,-516.85"/>
<polygon fill="#9a32cd" stroke="#9a32cd" points="1558.26,-513.89 1548.07,-516.78 1557.84,-520.88 1558.26,-513.89"/>
<text text-anchor="middle" x="1661" y="-522.1" font-family="Helvetica,sans-Serif" font-size="10.00"> pending_txs</text>
</g>
<!-- Node13 -->
<g id="node13" class="node">
<title>Node13</title>
<g id="a_node13"><a xlink:href="classkv_1_1ExecutionWrapperStore.html" target="_top" xlink:title=" ">
<polygon fill="white" stroke="black" points="1767,-619.6 1767,-638.6 1915,-638.6 1915,-619.6 1767,-619.6"/>
<text text-anchor="middle" x="1841" y="-626.6" font-family="Helvetica,sans-Serif" font-size="10.00">kv::ExecutionWrapperStore</text>
</a>
</g>
</g>
<!-- Node13&#45;&gt;Node5 -->
<g id="edge12" class="edge">
<title>Node13&#45;&gt;Node5</title>
<path fill="none" stroke="midnightblue" d="M1897.92,-617.3C1932.98,-609.46 1978.96,-598.38 2019,-586.1 2041.42,-579.22 2066.41,-569.73 2084.1,-562.69"/>
<polygon fill="midnightblue" stroke="midnightblue" points="1896.88,-613.95 1887.88,-619.52 1898.4,-620.78 1896.88,-613.95"/>
</g>
<!-- Node14 -->
<g id="node14" class="node">
<title>Node14</title>
<g id="a_node14"><a xlink:href="classkv_1_1ReadOnlyStore.html" target="_top" xlink:title=" ">
<polygon fill="white" stroke="black" points="1787.5,-581.6 1787.5,-600.6 1894.5,-600.6 1894.5,-581.6 1787.5,-581.6"/>
<text text-anchor="middle" x="1841" y="-588.6" font-family="Helvetica,sans-Serif" font-size="10.00">kv::ReadOnlyStore</text>
</a>
</g>
</g>
<!-- Node14&#45;&gt;Node5 -->
<g id="edge13" class="edge">
<title>Node14&#45;&gt;Node5</title>
<path fill="none" stroke="midnightblue" d="M1904.92,-582.91C1938.76,-578.42 1981.19,-572.66 2019,-567.1 2039.01,-564.16 2061.52,-560.6 2078.83,-557.8"/>
<polygon fill="midnightblue" stroke="midnightblue" points="1904.16,-579.48 1894.71,-584.26 1905.08,-586.42 1904.16,-579.48"/>
</g>
<!-- Node15&#45;&gt;Node2 -->
<g id="edge14" class="edge">
<title>Node15&#45;&gt;Node2</title>
<path fill="none" stroke="#9a32cd" stroke-dasharray="5,2" d="M2180.48,-296.63C2224.03,-307.38 2278.12,-320.74 2313.9,-329.57"/>
<polygon fill="#9a32cd" stroke="#9a32cd" points="2181.05,-293.16 2170.51,-294.16 2179.37,-299.96 2181.05,-293.16"/>
<text text-anchor="middle" x="2224" y="-316.1" font-family="Helvetica,sans-Serif" font-size="10.00"> endpoints</text>
</g>
<!-- Node35 -->
<g id="node35" class="node">
<title>Node35</title>
<g id="a_node35"><a xlink:title=" ">
<polygon fill="white" stroke="black" points="2268,-272.1 2268,-302.1 2439,-302.1 2439,-272.1 2268,-272.1"/>
<text text-anchor="start" x="2276" y="-290.1" font-family="Helvetica,sans-Serif" font-size="10.00">std::unique_ptr&lt; ccf</text>
<text text-anchor="middle" x="2353.5" y="-279.1" font-family="Helvetica,sans-Serif" font-size="10.00">::endpoints::EndpointRegistry &gt;</text>
</a>
</g>
</g>
<!-- Node15&#45;&gt;Node35 -->
<g id="edge46" class="edge">
<title>Node15&#45;&gt;Node35</title>
<path fill="none" stroke="#9a32cd" stroke-dasharray="5,2" d="M2185.4,-278.79C2206.34,-278.94 2229.05,-279.31 2250,-280.1 2255.79,-280.32 2261.77,-280.59 2267.78,-280.91"/>
<polygon fill="#9a32cd" stroke="#9a32cd" points="2185.3,-275.29 2175.28,-278.74 2185.26,-282.29 2185.3,-275.29"/>
<text text-anchor="middle" x="2224" y="-283.1" font-family="Helvetica,sans-Serif" font-size="10.00"> ptr</text>
</g>
<!-- Node16 -->
<g id="node16" class="node">
<title>Node16</title>
<g id="a_node16"><a xlink:href="structccf_1_1endpoints_1_1Endpoint_1_1Installer.html" target="_top" xlink:title=" ">
<polygon fill="white" stroke="black" points="1045.5,-365.1 1045.5,-395.1 1178.5,-395.1 1178.5,-365.1 1045.5,-365.1"/>
<text text-anchor="start" x="1053.5" y="-383.1" font-family="Helvetica,sans-Serif" font-size="10.00">ccf::endpoints::Endpoint</text>
<text text-anchor="middle" x="1112" y="-372.1" font-family="Helvetica,sans-Serif" font-size="10.00">::Installer</text>
</a>
</g>
</g>
<!-- Node16&#45;&gt;Node15 -->
<g id="edge15" class="edge">
<title>Node16&#45;&gt;Node15</title>
<path fill="none" stroke="midnightblue" d="M1188.99,-381.65C1331.88,-383.53 1650.08,-382.8 1915,-347.1 1962.01,-340.77 1974.34,-339.1 2019,-323.1 2040.64,-315.34 2063.88,-303.65 2081.11,-294.27"/>
<polygon fill="midnightblue" stroke="midnightblue" points="1188.64,-378.15 1178.59,-381.5 1188.54,-385.14 1188.64,-378.15"/>
</g>
<!-- Node19 -->
<g id="node19" class="node">
<title>Node19</title>
<g id="a_node19"><a xlink:href="structccf_1_1endpoints_1_1Endpoint.html" target="_top" xlink:title=" ">
<polygon fill="white" stroke="black" points="1414.5,-312.6 1414.5,-331.6 1547.5,-331.6 1547.5,-312.6 1414.5,-312.6"/>
<text text-anchor="middle" x="1481" y="-319.6" font-family="Helvetica,sans-Serif" font-size="10.00">ccf::endpoints::Endpoint</text>
</a>
</g>
</g>
<!-- Node16&#45;&gt;Node19 -->
<g id="edge33" class="edge">
<title>Node16&#45;&gt;Node19</title>
<path fill="none" stroke="#9a32cd" stroke-dasharray="5,2" d="M1187.31,-363.02C1197.6,-360.89 1208.04,-358.85 1218,-357.1 1222.84,-356.25 1338.44,-340.88 1414.46,-330.79"/>
<polygon fill="#9a32cd" stroke="#9a32cd" points="1186.59,-359.6 1177.53,-365.09 1188.03,-366.45 1186.59,-359.6"/>
<text text-anchor="middle" x="1303.5" y="-360.1" font-family="Helvetica,sans-Serif" font-size="10.00"> installer</text>
</g>
<!-- Node17&#45;&gt;Node15 -->
<g id="edge17" class="edge">
<title>Node17&#45;&gt;Node15</title>
<path fill="none" stroke="#9a32cd" stroke-dasharray="5,2" d="M698.27,-110.1C761.24,-110.1 853.2,-110.1 933.5,-110.1 933.5,-110.1 933.5,-110.1 1842,-110.1 1921.94,-110.1 1952.49,-97.75 2019,-142.1 2064.47,-172.42 2091.68,-234.89 2102.32,-263.8"/>
<polygon fill="#9a32cd" stroke="#9a32cd" points="698.03,-106.6 688.03,-110.1 698.03,-113.6 698.03,-106.6"/>
<text text-anchor="middle" x="1303.5" y="-113.1" font-family="Helvetica,sans-Serif" font-size="10.00"> openapi_info</text>
</g>
<!-- Node18 -->
<g id="node18" class="node">
<title>Node18</title>
<g id="a_node18"><a xlink:title=" ">
<polygon fill="white" stroke="black" points="1777.5,-308.1 1777.5,-338.1 1904.5,-338.1 1904.5,-308.1 1777.5,-308.1"/>
<text text-anchor="start" x="1785.5" y="-326.1" font-family="Helvetica,sans-Serif" font-size="10.00">std::shared_ptr&lt; const</text>
<text text-anchor="middle" x="1841" y="-315.1" font-family="Helvetica,sans-Serif" font-size="10.00"> Endpoint &gt;</text>
</a>
</g>
</g>
<!-- Node18&#45;&gt;Node15 -->
<g id="edge19" class="edge">
<title>Node18&#45;&gt;Node15</title>
<path fill="none" stroke="#9a32cd" stroke-dasharray="5,2" d="M1914.47,-311.09C1954.17,-304.51 2003.01,-296.42 2041.63,-290.02"/>
<polygon fill="#9a32cd" stroke="#9a32cd" points="1913.88,-307.64 1904.58,-312.73 1915.02,-314.55 1913.88,-307.64"/>
<text text-anchor="middle" x="1976" y="-311.1" font-family="Helvetica,sans-Serif" font-size="10.00"> default_endpoint</text>
</g>
<!-- Node19&#45;&gt;Node18 -->
<g id="edge20" class="edge">
<title>Node19&#45;&gt;Node18</title>
<path fill="none" stroke="#9a32cd" stroke-dasharray="5,2" d="M1557.9,-322.31C1623.22,-322.5 1716.34,-322.76 1777.45,-322.93"/>
<polygon fill="#9a32cd" stroke="#9a32cd" points="1557.67,-318.81 1547.66,-322.28 1557.65,-325.81 1557.67,-318.81"/>
<text text-anchor="middle" x="1661" y="-326.1" font-family="Helvetica,sans-Serif" font-size="10.00"> ptr</text>
</g>
<!-- Node20&#45;&gt;Node19 -->
<g id="edge21" class="edge">
<title>Node20&#45;&gt;Node19</title>
<path fill="none" stroke="midnightblue" d="M1188.62,-296.69C1255.13,-302.49 1350.98,-310.85 1414.34,-316.38"/>
<polygon fill="midnightblue" stroke="midnightblue" points="1188.88,-293.2 1178.61,-295.82 1188.27,-300.18 1188.88,-293.2"/>
</g>
<!-- Node21&#45;&gt;Node20 -->
<g id="edge22" class="edge">
<title>Node21&#45;&gt;Node20</title>
<path fill="none" stroke="#9a32cd" stroke-dasharray="5,2" d="M488.88,-432.34C589.82,-459.81 853.74,-514.58 1006,-388.1 1031.7,-366.75 1000.83,-339.18 1024,-315.1 1029.99,-308.87 1037.43,-304.17 1045.41,-300.62"/>
<polygon fill="#9a32cd" stroke="#9a32cd" points="489.64,-428.91 479.06,-429.61 487.76,-435.66 489.64,-428.91"/>
<text text-anchor="middle" x="778" y="-470.1" font-family="Helvetica,sans-Serif" font-size="10.00"> dispatch</text>
</g>
<!-- Node22 -->
<g id="node22" class="node">
<title>Node22</title>
<g id="a_node22"><a xlink:href="classccf_1_1RESTVerb.html" target="_top" xlink:title=" ">
<polygon fill="white" stroke="black" points="146.5,-431.6 146.5,-450.6 229.5,-450.6 229.5,-431.6 146.5,-431.6"/>
<text text-anchor="middle" x="188" y="-438.6" font-family="Helvetica,sans-Serif" font-size="10.00">ccf::RESTVerb</text>
</a>
</g>
</g>
<!-- Node22&#45;&gt;Node21 -->
<g id="edge24" class="edge">
<title>Node22&#45;&gt;Node21</title>
<path fill="none" stroke="#9a32cd" stroke-dasharray="5,2" d="M239.92,-436.94C277.45,-433.87 329.1,-429.65 371.3,-426.2"/>
<polygon fill="#9a32cd" stroke="#9a32cd" points="239.4,-433.47 229.72,-437.77 239.97,-440.45 239.4,-433.47"/>
<text text-anchor="middle" x="298.5" y="-438.1" font-family="Helvetica,sans-Serif" font-size="10.00"> verb</text>
</g>
<!-- Node23&#45;&gt;Node20 -->
<g id="edge26" class="edge">
<title>Node23&#45;&gt;Node20</title>
<path fill="none" stroke="#9a32cd" stroke-dasharray="5,2" d="M854.71,-290.1C912.18,-290.1 990.4,-290.1 1045.26,-290.1"/>
<polygon fill="#9a32cd" stroke="#9a32cd" points="854.59,-286.6 844.59,-290.1 854.59,-293.6 854.59,-286.6"/>
<text text-anchor="middle" x="934.5" y="-293.1" font-family="Helvetica,sans-Serif" font-size="10.00"> properties</text>
</g>
<!-- Node24&#45;&gt;Node23 -->
<g id="edge27" class="edge">
<title>Node24&#45;&gt;Node23</title>
<path fill="none" stroke="#9a32cd" stroke-dasharray="5,2" d="M526.13,-325.18C582.62,-317.28 658.08,-306.73 711.44,-299.27"/>
<polygon fill="#9a32cd" stroke="#9a32cd" points="525.59,-321.72 516.17,-326.57 526.56,-328.65 525.59,-321.72"/>
<text text-anchor="middle" x="621.5" y="-325.1" font-family="Helvetica,sans-Serif" font-size="10.00"> authn_policies</text>
</g>
<!-- Node25 -->
<g id="node25" class="node">
<title>Node25</title>
<g id="a_node25"><a xlink:title=" ">
<polygon fill="white" stroke="black" points="711,-595.1 711,-625.1 845,-625.1 845,-595.1 711,-595.1"/>
<text text-anchor="start" x="719" y="-613.1" font-family="Helvetica,sans-Serif" font-size="10.00">std::vector&lt; std::shared</text>
<text text-anchor="middle" x="778" y="-602.1" font-family="Helvetica,sans-Serif" font-size="10.00">_ptr&lt; AuthnPolicy &gt; &gt;</text>
</a>
</g>
</g>
<!-- Node25&#45;&gt;Node20 -->
<g id="edge30" class="edge">
<title>Node25&#45;&gt;Node20</title>
<path fill="none" stroke="#9a32cd" stroke-dasharray="5,2" d="M820.82,-590.33C873.43,-563.09 962.19,-508.75 1006,-434.1 1033.07,-387.97 988.71,-355.3 1024,-315.1 1029.81,-308.49 1037.24,-303.57 1045.3,-299.93"/>
<polygon fill="#9a32cd" stroke="#9a32cd" points="819.07,-587.29 811.75,-594.95 822.25,-593.53 819.07,-587.29"/>
<text text-anchor="middle" x="934.5" y="-566.1" font-family="Helvetica,sans-Serif" font-size="10.00"> authn_policies</text>
</g>
<!-- Node26 -->
<g id="node26" class="node">
<title>Node26</title>
<g id="a_node26"><a xlink:title=" ">
<polygon fill="white" stroke="black" points="362,-600.6 362,-619.6 532,-619.6 532,-600.6 362,-600.6"/>
<text text-anchor="middle" x="447" y="-607.6" font-family="Helvetica,sans-Serif" font-size="10.00">std::shared_ptr&lt; AuthnPolicy &gt;</text>
</a>
</g>
</g>
<!-- Node26&#45;&gt;Node25 -->
<g id="edge31" class="edge">
<title>Node26&#45;&gt;Node25</title>
<path fill="none" stroke="#9a32cd" stroke-dasharray="5,2" d="M542.55,-610.1C596.4,-610.1 662.53,-610.1 710.82,-610.1"/>
<polygon fill="#9a32cd" stroke="#9a32cd" points="542.3,-606.6 532.3,-610.1 542.3,-613.6 542.3,-606.6"/>
<text text-anchor="middle" x="621.5" y="-613.1" font-family="Helvetica,sans-Serif" font-size="10.00"> elements</text>
</g>
<!-- Node27 -->
<g id="node27" class="node">
<title>Node27</title>
<g id="a_node27"><a xlink:href="classccf_1_1AuthnPolicy.html" target="_top" xlink:title=" ">
<polygon fill="white" stroke="black" points="141,-600.6 141,-619.6 235,-619.6 235,-600.6 141,-600.6"/>
<text text-anchor="middle" x="188" y="-607.6" font-family="Helvetica,sans-Serif" font-size="10.00">ccf::AuthnPolicy</text>
</a>
</g>
</g>
<!-- Node27&#45;&gt;Node26 -->
<g id="edge32" class="edge">
<title>Node27&#45;&gt;Node26</title>
<path fill="none" stroke="#9a32cd" stroke-dasharray="5,2" d="M245.5,-610.1C279.63,-610.1 323.77,-610.1 361.94,-610.1"/>
<polygon fill="#9a32cd" stroke="#9a32cd" points="245.24,-606.6 235.24,-610.1 245.24,-613.6 245.24,-606.6"/>
<text text-anchor="middle" x="298.5" y="-613.1" font-family="Helvetica,sans-Serif" font-size="10.00"> ptr</text>
</g>
<!-- Node28 -->
<g id="node28" class="node">
<title>Node28</title>
<g id="a_node28"><a xlink:title=" ">
<polygon fill="white" stroke="black" points="1024,-324.6 1024,-343.6 1200,-343.6 1200,-324.6 1024,-324.6"/>
<text text-anchor="middle" x="1112" y="-331.6" font-family="Helvetica,sans-Serif" font-size="10.00">std::vector&lt; SchemaBuilderFn &gt;</text>
</a>
</g>
</g>
<!-- Node28&#45;&gt;Node19 -->
<g id="edge34" class="edge">
<title>Node28&#45;&gt;Node19</title>
<path fill="none" stroke="#9a32cd" stroke-dasharray="5,2" d="M1206.59,-323.82C1210.44,-323.54 1214.26,-323.3 1218,-323.1 1284.77,-319.49 1361.25,-319.69 1414.27,-320.52"/>
<polygon fill="#9a32cd" stroke="#9a32cd" points="1206.04,-320.35 1196.33,-324.6 1206.57,-327.33 1206.04,-320.35"/>
<text text-anchor="middle" x="1303.5" y="-326.1" font-family="Helvetica,sans-Serif" font-size="10.00"> schema_builders</text>
</g>
<!-- Node29&#45;&gt;Node15 -->
<g id="edge35" class="edge">
<title>Node29&#45;&gt;Node15</title>
<path fill="none" stroke="#9a32cd" stroke-dasharray="5,2" d="M1016.43,-71.1C1090.79,-71.1 1204.07,-71.1 1302.5,-71.1 1302.5,-71.1 1302.5,-71.1 1842,-71.1 1921.45,-71.1 1954.82,-49.27 2019,-96.1 2076.73,-138.22 2098.5,-228.21 2105.08,-263.98"/>
<polygon fill="#9a32cd" stroke="#9a32cd" points="1016.2,-67.6 1006.2,-71.1 1016.2,-74.6 1016.2,-67.6"/>
<text text-anchor="middle" x="1481" y="-74.1" font-family="Helvetica,sans-Serif" font-size="10.00"> fully_qualified_endpoints</text>
</g>
<!-- Node30&#45;&gt;Node15 -->
<g id="edge37" class="edge">
<title>Node30&#45;&gt;Node15</title>
<path fill="none" stroke="#9a32cd" stroke-dasharray="5,2" d="M1399.32,-249.26C1492.81,-253.35 1639.75,-259.73 1767,-265.1 1862.61,-269.13 1973.34,-273.66 2041.9,-276.45"/>
<polygon fill="#9a32cd" stroke="#9a32cd" points="1399.46,-245.76 1389.32,-248.82 1399.15,-252.76 1399.46,-245.76"/>
<text text-anchor="middle" x="1661" y="-268.1" font-family="Helvetica,sans-Serif" font-size="10.00"> templated_endpoints</text>
</g>
<!-- Node31&#45;&gt;Node15 -->
<g id="edge40" class="edge">
<title>Node31&#45;&gt;Node15</title>
<path fill="none" stroke="#9a32cd" stroke-dasharray="5,2" d="M1758.95,-228.86C1830.79,-238.45 1931.08,-252.11 2019,-265.1 2026.39,-266.19 2034.11,-267.37 2041.8,-268.55"/>
<polygon fill="#9a32cd" stroke="#9a32cd" points="1759.38,-225.39 1749,-227.54 1758.45,-232.33 1759.38,-225.39"/>
<text text-anchor="middle" x="1841" y="-253.1" font-family="Helvetica,sans-Serif" font-size="10.00"> metrics</text>
</g>
<!-- Node32 -->
<g id="node32" class="node">
<title>Node32</title>
<g id="a_node32"><a xlink:href="classkv_1_1Consensus.html" target="_top" xlink:title=" ">
<polygon fill="white" stroke="black" points="1798,-395.6 1798,-414.6 1884,-414.6 1884,-395.6 1798,-395.6"/>
<text text-anchor="middle" x="1841" y="-402.6" font-family="Helvetica,sans-Serif" font-size="10.00">kv::Consensus</text>
</a>
</g>
</g>
<!-- Node32&#45;&gt;Node15 -->
<g id="edge42" class="edge">
<title>Node32&#45;&gt;Node15</title>
<path fill="none" stroke="#9a32cd" stroke-dasharray="5,2" d="M1894.44,-412.03C1933.26,-414.15 1985.09,-410.21 2019,-381.1 2040.45,-362.69 2019.55,-342.34 2037,-320.1 2045.57,-309.19 2057.91,-300.62 2069.87,-294.2"/>
<polygon fill="#9a32cd" stroke="#9a32cd" points="1894.58,-408.54 1884.36,-411.34 1894.1,-415.52 1894.58,-408.54"/>
<text text-anchor="middle" x="1976" y="-414.1" font-family="Helvetica,sans-Serif" font-size="10.00"> consensus</text>
</g>
<!-- Node33 -->
<g id="node33" class="node">
<title>Node33</title>
<g id="a_node33"><a xlink:href="classkv_1_1ConfigurableConsensus.html" target="_top" xlink:title=" ">
<polygon fill="white" stroke="black" points="1407,-395.6 1407,-414.6 1555,-414.6 1555,-395.6 1407,-395.6"/>
<text text-anchor="middle" x="1481" y="-402.6" font-family="Helvetica,sans-Serif" font-size="10.00">kv::ConfigurableConsensus</text>
</a>
</g>
</g>
<!-- Node33&#45;&gt;Node32 -->
<g id="edge43" class="edge">
<title>Node33&#45;&gt;Node32</title>
<path fill="none" stroke="midnightblue" d="M1565.38,-405.1C1638.21,-405.1 1740.92,-405.1 1797.85,-405.1"/>
<polygon fill="midnightblue" stroke="midnightblue" points="1565.31,-401.6 1555.31,-405.1 1565.31,-408.6 1565.31,-401.6"/>
</g>
<!-- Node34 -->
<g id="node34" class="node">
<title>Node34</title>
<g id="a_node34"><a xlink:href="classkv_1_1TxHistory.html" target="_top" xlink:title=" ">
<polygon fill="white" stroke="black" points="1800.5,-184.6 1800.5,-203.6 1881.5,-203.6 1881.5,-184.6 1800.5,-184.6"/>
<text text-anchor="middle" x="1841" y="-191.6" font-family="Helvetica,sans-Serif" font-size="10.00">kv::TxHistory</text>
</a>
</g>
</g>
<!-- Node34&#45;&gt;Node15 -->
<g id="edge44" class="edge">
<title>Node34&#45;&gt;Node15</title>
<path fill="none" stroke="#9a32cd" stroke-dasharray="5,2" d="M1892.05,-193.39C1928.42,-194.44 1978.2,-199.18 2019,-215.1 2047.62,-226.27 2075.45,-248.93 2092.04,-264.07"/>
<polygon fill="#9a32cd" stroke="#9a32cd" points="1891.76,-189.89 1881.69,-193.18 1891.62,-196.88 1891.76,-189.89"/>
<text text-anchor="middle" x="1976" y="-218.1" font-family="Helvetica,sans-Serif" font-size="10.00"> history</text>
</g>
<!-- Node35&#45;&gt;Node1 -->
<g id="edge45" class="edge">
<title>Node35&#45;&gt;Node1</title>
<path fill="none" stroke="#9a32cd" stroke-dasharray="5,2" d="M2449.34,-295.49C2469.06,-297.29 2489.71,-299.22 2509,-301.1 2514.71,-301.66 2520.67,-302.25 2526.62,-302.86"/>
<polygon fill="#9a32cd" stroke="#9a32cd" points="2449.39,-291.98 2439.12,-294.56 2448.76,-298.95 2449.39,-291.98"/>
<text text-anchor="middle" x="2483" y="-304.1" font-family="Helvetica,sans-Serif" font-size="10.00"> endpoints</text>
</g>
</g>
</svg>
