<?xml version="1.0" encoding="UTF-8" standalone="no"?>
<!DOCTYPE svg PUBLIC "-//W3C//DTD SVG 1.1//EN"
 "http://www.w3.org/Graphics/SVG/1.1/DTD/svg11.dtd">
<!-- Generated by graphviz version 2.43.0 (0)
 -->
<!-- Title: ccf::Snapshotter Pages: 1 -->
<svg width="308pt" height="95pt"
 viewBox="0.00 0.00 308.00 95.00" xmlns="http://www.w3.org/2000/svg" xmlns:xlink="http://www.w3.org/1999/xlink">
<g id="graph0" class="graph" transform="scale(1 1) rotate(0) translate(4 91)">
<title>ccf::Snapshotter</title>
<polygon fill="white" stroke="transparent" points="-4,4 -4,-91 304,-91 304,4 -4,4"/>
<!-- Node1 -->
<g id="node1" class="node">
<title>Node1</title>
<g id="a_node1"><a xlink:title=" ">
<polygon fill="#bfbfbf" stroke="black" points="106,-0.5 106,-19.5 201,-19.5 201,-0.5 106,-0.5"/>
<text text-anchor="middle" x="153.5" y="-7.5" font-family="Helvetica,sans-Serif" font-size="10.00">ccf::Snapshotter</text>
</a>
</g>
</g>
<!-- Node2 -->
<g id="node2" class="node">
<title>Node2</title>
<g id="a_node2"><a xlink:title=" ">
<polygon fill="white" stroke="black" points="0,-56.5 0,-86.5 149,-86.5 149,-56.5 0,-56.5"/>
<text text-anchor="start" x="8" y="-74.5" font-family="Helvetica,sans-Serif" font-size="10.00">std::enable_shared</text>
<text text-anchor="middle" x="74.5" y="-63.5" font-family="Helvetica,sans-Serif" font-size="10.00">_from_this&lt; Snapshotter &gt;</text>
</a>
</g>
</g>
<!-- Node2&#45;&gt;Node1 -->
<g id="edge1" class="edge">
<title>Node2&#45;&gt;Node1</title>
<path fill="none" stroke="midnightblue" d="M101.47,-50.19C115.3,-39.77 131.42,-27.63 142,-19.66"/>
<polygon fill="midnightblue" stroke="midnightblue" points="99.1,-47.59 93.22,-56.4 103.32,-53.18 99.1,-47.59"/>
</g>
<!-- Node3 -->
<g id="node3" class="node">
<title>Node3</title>
<g id="a_node3"><a xlink:href="classkv_1_1AbstractSnapshotter.html" target="_top" xlink:title=" ">
<polygon fill="white" stroke="black" points="167,-62 167,-81 300,-81 300,-62 167,-62"/>
<text text-anchor="middle" x="233.5" y="-69" font-family="Helvetica,sans-Serif" font-size="10.00">kv::AbstractSnapshotter</text>
</a>
</g>
</g>
<!-- Node3&#45;&gt;Node1 -->
<g id="edge2" class="edge">
<title>Node3&#45;&gt;Node1</title>
<path fill="none" stroke="midnightblue" d="M213.73,-55.79C198.38,-44.38 177.64,-28.96 164.94,-19.51"/>
<polygon fill="midnightblue" stroke="midnightblue" points="211.93,-58.82 222.04,-61.98 216.1,-53.2 211.93,-58.82"/>
</g>
</g>
</svg>
