<?xml version="1.0" encoding="UTF-8" standalone="no"?>
<!DOCTYPE svg PUBLIC "-//W3C//DTD SVG 1.1//EN"
 "http://www.w3.org/Graphics/SVG/1.1/DTD/svg11.dtd">
<!-- Generated by graphviz version 2.43.0 (0)
 -->
<!-- Title: kv::TypedMap&lt; K, V, KSerialiser, VSerialiser &gt; Pages: 1 -->
<svg width="150pt" height="231pt"
 viewBox="0.00 0.00 150.00 231.00" xmlns="http://www.w3.org/2000/svg" xmlns:xlink="http://www.w3.org/1999/xlink">
<g id="graph0" class="graph" transform="scale(1 1) rotate(0) translate(4 227)">
<title>kv::TypedMap&lt; K, V, KSerialiser, VSerialiser &gt;</title>
<polygon fill="white" stroke="transparent" points="-4,4 -4,-227 146,-227 146,4 -4,4"/>
<!-- Node1 -->
<g id="node1" class="node">
<title>Node1</title>
<g id="a_node1"><a xlink:title=" ">
<polygon fill="#bfbfbf" stroke="black" points="0,-0.5 0,-30.5 142,-30.5 142,-0.5 0,-0.5"/>
<text text-anchor="start" x="8" y="-18.5" font-family="Helvetica,sans-Serif" font-size="10.00">kv::TypedMap&lt; K, V,</text>
<text text-anchor="middle" x="71" y="-7.5" font-family="Helvetica,sans-Serif" font-size="10.00"> KSerialiser, VSerialiser &gt;</text>
</a>
</g>
</g>
<!-- Node2 -->
<g id="node2" class="node">
<title>Node2</title>
<g id="a_node2"><a xlink:href="structkv_1_1GetName.html" target="_top" xlink:title=" ">
<polygon fill="white" stroke="black" points="31,-68.5 31,-87.5 111,-87.5 111,-68.5 31,-68.5"/>
<text text-anchor="middle" x="71" y="-75.5" font-family="Helvetica,sans-Serif" font-size="10.00">kv::GetName</text>
</a>
</g>
</g>
<!-- Node2&#45;&gt;Node1 -->
<g id="edge1" class="edge">
<title>Node2&#45;&gt;Node1</title>
<path fill="none" stroke="midnightblue" d="M71,-58.22C71,-49.36 71,-38.96 71,-30.76"/>
<polygon fill="midnightblue" stroke="midnightblue" points="67.5,-58.33 71,-68.33 74.5,-58.33 67.5,-58.33"/>
</g>
<!-- Node3 -->
<g id="node3" class="node">
<title>Node3</title>
<g id="a_node3"><a xlink:title=" ">
<polygon fill="white" stroke="black" points="38.5,-135.5 38.5,-154.5 103.5,-154.5 103.5,-135.5 38.5,-135.5"/>
<text text-anchor="middle" x="71" y="-142.5" font-family="Helvetica,sans-Serif" font-size="10.00">std::string</text>
</a>
</g>
</g>
<!-- Node3&#45;&gt;Node2 -->
<g id="edge2" class="edge">
<title>Node3&#45;&gt;Node2</title>
<path fill="none" stroke="#9a32cd" stroke-dasharray="5,2" d="M71,-125.04C71,-112.67 71,-97.12 71,-87.63"/>
<polygon fill="#9a32cd" stroke="#9a32cd" points="67.5,-125.23 71,-135.23 74.5,-125.23 67.5,-125.23"/>
<text text-anchor="middle" x="86.5" y="-109" font-family="Helvetica,sans-Serif" font-size="10.00"> name</text>
</g>
<!-- Node4 -->
<g id="node4" class="node">
<title>Node4</title>
<g id="a_node4"><a xlink:title=" ">
<polygon fill="white" stroke="black" points="19,-192.5 19,-222.5 123,-222.5 123,-192.5 19,-192.5"/>
<text text-anchor="start" x="27" y="-210.5" font-family="Helvetica,sans-Serif" font-size="10.00">std::basic_string&lt;</text>
<text text-anchor="middle" x="71" y="-199.5" font-family="Helvetica,sans-Serif" font-size="10.00"> Char &gt;</text>
</a>
</g>
</g>
<!-- Node4&#45;&gt;Node3 -->
<g id="edge3" class="edge">
<title>Node4&#45;&gt;Node3</title>
<path fill="none" stroke="midnightblue" d="M71,-182.35C71,-172.51 71,-161.78 71,-154.54"/>
<polygon fill="midnightblue" stroke="midnightblue" points="67.5,-182.47 71,-192.47 74.5,-182.47 67.5,-182.47"/>
</g>
</g>
</svg>
