<?xml version="1.0" encoding="UTF-8" standalone="no"?>
<!DOCTYPE svg PUBLIC "-//W3C//DTD SVG 1.1//EN"
 "http://www.w3.org/Graphics/SVG/1.1/DTD/svg11.dtd">
<!-- Generated by graphviz version 2.43.0 (0)
 -->
<!-- Title: ccf::indexing::EnclaveLFSAccess Pages: 1 -->
<svg width="870pt" height="215pt"
 viewBox="0.00 0.00 870.00 214.50" xmlns="http://www.w3.org/2000/svg" xmlns:xlink="http://www.w3.org/1999/xlink">
<g id="graph0" class="graph" transform="scale(1 1) rotate(0) translate(4 210.5)">
<title>ccf::indexing::EnclaveLFSAccess</title>
<polygon fill="white" stroke="transparent" points="-4,4 -4,-210.5 866,-210.5 866,4 -4,4"/>
<!-- Node1 -->
<g id="node1" class="node">
<title>Node1</title>
<g id="a_node1"><a xlink:title=" ">
<polygon fill="#bfbfbf" stroke="black" points="689,-94 689,-113 862,-113 862,-94 689,-94"/>
<text text-anchor="middle" x="775.5" y="-101" font-family="Helvetica,sans-Serif" font-size="10.00">ccf::indexing::EnclaveLFSAccess</text>
</a>
</g>
</g>
<!-- Node2 -->
<g id="node2" class="node">
<title>Node2</title>
<g id="a_node2"><a xlink:href="classccf_1_1indexing_1_1AbstractLFSAccess.html" target="_top" xlink:title=" ">
<polygon fill="white" stroke="black" points="399,-187 399,-206 575,-206 575,-187 399,-187"/>
<text text-anchor="middle" x="487" y="-194" font-family="Helvetica,sans-Serif" font-size="10.00">ccf::indexing::AbstractLFSAccess</text>
</a>
</g>
</g>
<!-- Node2&#45;&gt;Node1 -->
<g id="edge1" class="edge">
<title>Node2&#45;&gt;Node1</title>
<path fill="none" stroke="midnightblue" d="M545.01,-184.72C555.04,-182.46 565.35,-180.01 575,-177.5 618.14,-166.29 629.16,-163.86 671,-148.5 700.61,-137.63 733.92,-122.63 754.55,-113"/>
<polygon fill="midnightblue" stroke="midnightblue" points="544.12,-181.33 535.12,-186.92 545.64,-188.17 544.12,-181.33"/>
</g>
<!-- Node3 -->
<g id="node3" class="node">
<title>Node3</title>
<g id="a_node3"><a xlink:href="classccf_1_1AbstractNodeSubSystem.html" target="_top" xlink:title=" ">
<polygon fill="white" stroke="black" points="157,-187 157,-206 314,-206 314,-187 157,-187"/>
<text text-anchor="middle" x="235.5" y="-194" font-family="Helvetica,sans-Serif" font-size="10.00">ccf::AbstractNodeSubSystem</text>
</a>
</g>
</g>
<!-- Node3&#45;&gt;Node2 -->
<g id="edge2" class="edge">
<title>Node3&#45;&gt;Node2</title>
<path fill="none" stroke="midnightblue" d="M324.31,-196.5C348.51,-196.5 374.74,-196.5 398.9,-196.5"/>
<polygon fill="midnightblue" stroke="midnightblue" points="324.08,-193 314.08,-196.5 324.08,-200 324.08,-193"/>
</g>
<!-- Node4 -->
<g id="node4" class="node">
<title>Node4</title>
<g id="a_node4"><a xlink:title=" ">
<polygon fill="white" stroke="black" points="412.5,-137.5 412.5,-167.5 561.5,-167.5 561.5,-137.5 412.5,-137.5"/>
<text text-anchor="start" x="420.5" y="-155.5" font-family="Helvetica,sans-Serif" font-size="10.00">std::unordered_map</text>
<text text-anchor="middle" x="487" y="-144.5" font-family="Helvetica,sans-Serif" font-size="10.00">&lt; LFSKey, PendingResult &gt;</text>
</a>
</g>
</g>
<!-- Node4&#45;&gt;Node1 -->
<g id="edge3" class="edge">
<title>Node4&#45;&gt;Node1</title>
<path fill="none" stroke="#9a32cd" stroke-dasharray="5,2" d="M571.7,-138.18C619,-130.1 676.83,-120.2 718.61,-113.06"/>
<polygon fill="#9a32cd" stroke="#9a32cd" points="571.05,-134.75 561.78,-139.88 572.23,-141.65 571.05,-134.75"/>
<text text-anchor="middle" x="632" y="-136.5" font-family="Helvetica,sans-Serif" font-size="10.00"> pending</text>
</g>
<!-- Node5 -->
<g id="node5" class="node">
<title>Node5</title>
<g id="a_node5"><a xlink:title=" ">
<polygon fill="white" stroke="black" points="203,-147 203,-166 268,-166 268,-147 203,-147"/>
<text text-anchor="middle" x="235.5" y="-154" font-family="Helvetica,sans-Serif" font-size="10.00">std::string</text>
</a>
</g>
</g>
<!-- Node5&#45;&gt;Node4 -->
<g id="edge4" class="edge">
<title>Node5&#45;&gt;Node4</title>
<path fill="none" stroke="#9a32cd" stroke-dasharray="5,2" d="M278.38,-155.83C314.88,-155.24 368.66,-154.38 412.34,-153.68"/>
<polygon fill="#9a32cd" stroke="#9a32cd" points="278.04,-152.33 268.1,-155.99 278.15,-159.33 278.04,-152.33"/>
<text text-anchor="middle" x="356.5" y="-157.5" font-family="Helvetica,sans-Serif" font-size="10.00"> keys</text>
</g>
<!-- Node6 -->
<g id="node6" class="node">
<title>Node6</title>
<g id="a_node6"><a xlink:title=" ">
<polygon fill="white" stroke="black" points="0,-144.5 0,-174.5 104,-174.5 104,-144.5 0,-144.5"/>
<text text-anchor="start" x="8" y="-162.5" font-family="Helvetica,sans-Serif" font-size="10.00">std::basic_string&lt;</text>
<text text-anchor="middle" x="52" y="-151.5" font-family="Helvetica,sans-Serif" font-size="10.00"> Char &gt;</text>
</a>
</g>
</g>
<!-- Node6&#45;&gt;Node5 -->
<g id="edge5" class="edge">
<title>Node6&#45;&gt;Node5</title>
<path fill="none" stroke="midnightblue" d="M114.34,-158.49C144.08,-157.99 178.54,-157.42 202.91,-157.02"/>
<polygon fill="midnightblue" stroke="midnightblue" points="113.98,-154.99 104.04,-158.66 114.1,-161.99 113.98,-154.99"/>
</g>
<!-- Node7 -->
<g id="node7" class="node">
<title>Node7</title>
<g id="a_node7"><a xlink:title=" ">
<polygon fill="white" stroke="black" points="180,-107 180,-126 291,-126 291,-107 180,-107"/>
<text text-anchor="middle" x="235.5" y="-114" font-family="Helvetica,sans-Serif" font-size="10.00">std::weak_ptr&lt; T &gt;</text>
</a>
</g>
</g>
<!-- Node7&#45;&gt;Node4 -->
<g id="edge6" class="edge">
<title>Node7&#45;&gt;Node4</title>
<path fill="none" stroke="#9a32cd" stroke-dasharray="5,2" d="M301.54,-125.88C335.53,-130.79 377.27,-136.81 412.44,-141.89"/>
<polygon fill="#9a32cd" stroke="#9a32cd" points="301.65,-122.36 291.25,-124.4 300.65,-129.29 301.65,-122.36"/>
<text text-anchor="middle" x="356.5" y="-139.5" font-family="Helvetica,sans-Serif" font-size="10.00"> elements</text>
</g>
<!-- Node8 -->
<g id="node8" class="node">
<title>Node8</title>
<g id="a_node8"><a xlink:title=" ">
<polygon fill="white" stroke="black" points="37.5,-106 37.5,-125 66.5,-125 66.5,-106 37.5,-106"/>
<text text-anchor="middle" x="52" y="-113" font-family="Helvetica,sans-Serif" font-size="10.00">T</text>
</a>
</g>
</g>
<!-- Node8&#45;&gt;Node7 -->
<g id="edge7" class="edge">
<title>Node8&#45;&gt;Node7</title>
<path fill="none" stroke="#9a32cd" stroke-dasharray="5,2" d="M76.71,-115.63C102.75,-115.77 145.44,-116.01 179.86,-116.2"/>
<polygon fill="#9a32cd" stroke="#9a32cd" points="76.66,-112.13 66.64,-115.58 76.62,-119.13 76.66,-112.13"/>
<text text-anchor="middle" x="130.5" y="-118.5" font-family="Helvetica,sans-Serif" font-size="10.00"> ptr</text>
</g>
<!-- Node9 -->
<g id="node9" class="node">
<title>Node9</title>
<g id="a_node9"><a xlink:title=" ">
<polygon fill="white" stroke="black" points="416.5,-88.5 416.5,-118.5 557.5,-118.5 557.5,-88.5 416.5,-88.5"/>
<text text-anchor="start" x="424.5" y="-106.5" font-family="Helvetica,sans-Serif" font-size="10.00">std::shared_ptr&lt; Abstract</text>
<text text-anchor="middle" x="487" y="-95.5" font-family="Helvetica,sans-Serif" font-size="10.00">Writer &gt;</text>
</a>
</g>
</g>
<!-- Node9&#45;&gt;Node1 -->
<g id="edge8" class="edge">
<title>Node9&#45;&gt;Node1</title>
<path fill="none" stroke="#9a32cd" stroke-dasharray="5,2" d="M568.12,-103.5C605.71,-103.5 650.56,-103.5 688.83,-103.5"/>
<polygon fill="#9a32cd" stroke="#9a32cd" points="567.72,-100 557.72,-103.5 567.72,-107 567.72,-100"/>
<text text-anchor="middle" x="632" y="-106.5" font-family="Helvetica,sans-Serif" font-size="10.00"> to_host</text>
</g>
<!-- Node10 -->
<g id="node10" class="node">
<title>Node10</title>
<g id="a_node10"><a xlink:title=" ">
<polygon fill="white" stroke="black" points="412.5,-50 412.5,-69 561.5,-69 561.5,-50 412.5,-50"/>
<text text-anchor="middle" x="487" y="-57" font-family="Helvetica,sans-Serif" font-size="10.00">std::shared_ptr&lt; Entropy &gt;</text>
</a>
</g>
</g>
<!-- Node10&#45;&gt;Node1 -->
<g id="edge9" class="edge">
<title>Node10&#45;&gt;Node1</title>
<path fill="none" stroke="#9a32cd" stroke-dasharray="5,2" d="M560.26,-70.6C607.19,-77.8 667.71,-87.1 712.46,-93.97"/>
<polygon fill="#9a32cd" stroke="#9a32cd" points="560.58,-67.11 550.17,-69.05 559.52,-74.02 560.58,-67.11"/>
<text text-anchor="middle" x="632" y="-89.5" font-family="Helvetica,sans-Serif" font-size="10.00"> entropy_src</text>
</g>
<!-- Node11 -->
<g id="node11" class="node">
<title>Node11</title>
<g id="a_node11"><a xlink:title=" ">
<polygon fill="white" stroke="black" points="421.5,-0.5 421.5,-30.5 552.5,-30.5 552.5,-0.5 421.5,-0.5"/>
<text text-anchor="start" x="429.5" y="-18.5" font-family="Helvetica,sans-Serif" font-size="10.00">std::unique_ptr&lt; crypto</text>
<text text-anchor="middle" x="487" y="-7.5" font-family="Helvetica,sans-Serif" font-size="10.00">::KeyAesGcm &gt;</text>
</a>
</g>
</g>
<!-- Node11&#45;&gt;Node1 -->
<g id="edge10" class="edge">
<title>Node11&#45;&gt;Node1</title>
<path fill="none" stroke="#9a32cd" stroke-dasharray="5,2" d="M562.78,-31.17C596.23,-38.87 635.93,-48.98 671,-60.5 700.58,-70.22 733.61,-84.59 754.23,-93.99"/>
<polygon fill="#9a32cd" stroke="#9a32cd" points="563.15,-27.66 552.62,-28.86 561.59,-34.49 563.15,-27.66"/>
<text text-anchor="middle" x="632" y="-63.5" font-family="Helvetica,sans-Serif" font-size="10.00"> encryption_key</text>
</g>
<!-- Node12 -->
<g id="node12" class="node">
<title>Node12</title>
<g id="a_node12"><a xlink:href="classcrypto_1_1KeyAesGcm.html" target="_top" xlink:title=" ">
<polygon fill="white" stroke="black" points="179.5,-6 179.5,-25 291.5,-25 291.5,-6 179.5,-6"/>
<text text-anchor="middle" x="235.5" y="-13" font-family="Helvetica,sans-Serif" font-size="10.00">crypto::KeyAesGcm</text>
</a>
</g>
</g>
<!-- Node12&#45;&gt;Node11 -->
<g id="edge11" class="edge">
<title>Node12&#45;&gt;Node11</title>
<path fill="none" stroke="#9a32cd" stroke-dasharray="5,2" d="M301.71,-15.5C338.6,-15.5 384.57,-15.5 421.36,-15.5"/>
<polygon fill="#9a32cd" stroke="#9a32cd" points="301.56,-12 291.56,-15.5 301.56,-19 301.56,-12"/>
<text text-anchor="middle" x="356.5" y="-18.5" font-family="Helvetica,sans-Serif" font-size="10.00"> ptr</text>
</g>
</g>
</svg>
