<?xml version="1.0" encoding="UTF-8" standalone="no"?>
<!DOCTYPE svg PUBLIC "-//W3C//DTD SVG 1.1//EN"
 "http://www.w3.org/Graphics/SVG/1.1/DTD/svg11.dtd">
<!-- Generated by graphviz version 2.43.0 (0)
 -->
<!-- Title: crypto::Verifier_OpenSSL Pages: 1 -->
<svg width="788pt" height="100pt"
 viewBox="0.00 0.00 788.00 99.50" xmlns="http://www.w3.org/2000/svg" xmlns:xlink="http://www.w3.org/1999/xlink">
<g id="graph0" class="graph" transform="scale(1 1) rotate(0) translate(4 95.5)">
<title>crypto::Verifier_OpenSSL</title>
<polygon fill="white" stroke="transparent" points="-4,4 -4,-95.5 784,-95.5 784,4 -4,4"/>
<!-- Node1 -->
<g id="node1" class="node">
<title>Node1</title>
<g id="a_node1"><a xlink:title=" ">
<polygon fill="#bfbfbf" stroke="black" points="644,-42.5 644,-61.5 780,-61.5 780,-42.5 644,-42.5"/>
<text text-anchor="middle" x="712" y="-49.5" font-family="Helvetica,sans-Serif" font-size="10.00">crypto::Verifier_OpenSSL</text>
</a>
</g>
</g>
<!-- Node2 -->
<g id="node2" class="node">
<title>Node2</title>
<g id="a_node2"><a xlink:href="classcrypto_1_1Verifier.html" target="_top" xlink:title=" ">
<polygon fill="white" stroke="black" points="458.5,-63.5 458.5,-82.5 546.5,-82.5 546.5,-63.5 458.5,-63.5"/>
<text text-anchor="middle" x="502.5" y="-70.5" font-family="Helvetica,sans-Serif" font-size="10.00">crypto::Verifier</text>
</a>
</g>
</g>
<!-- Node2&#45;&gt;Node1 -->
<g id="edge1" class="edge">
<title>Node2&#45;&gt;Node1</title>
<path fill="none" stroke="midnightblue" d="M556.95,-67.59C583.4,-64.91 615.6,-61.66 643.7,-58.81"/>
<polygon fill="midnightblue" stroke="midnightblue" points="556.34,-64.13 546.75,-68.62 557.05,-71.1 556.34,-64.13"/>
</g>
<!-- Node3 -->
<g id="node3" class="node">
<title>Node3</title>
<g id="a_node3"><a xlink:title=" ">
<polygon fill="white" stroke="black" points="189,-61 189,-91 320,-91 320,-61 189,-61"/>
<text text-anchor="start" x="197" y="-79" font-family="Helvetica,sans-Serif" font-size="10.00">std::shared_ptr&lt; crypto</text>
<text text-anchor="middle" x="254.5" y="-68" font-family="Helvetica,sans-Serif" font-size="10.00">::PublicKey &gt;</text>
</a>
</g>
</g>
<!-- Node3&#45;&gt;Node2 -->
<g id="edge2" class="edge">
<title>Node3&#45;&gt;Node2</title>
<path fill="none" stroke="#9a32cd" stroke-dasharray="5,2" d="M330.3,-75.09C372.16,-74.58 422.88,-73.96 458.2,-73.53"/>
<polygon fill="#9a32cd" stroke="#9a32cd" points="330.09,-71.59 320.13,-75.21 330.18,-78.59 330.09,-71.59"/>
<text text-anchor="middle" x="373.5" y="-77" font-family="Helvetica,sans-Serif" font-size="10.00"> public_key</text>
</g>
<!-- Node4 -->
<g id="node4" class="node">
<title>Node4</title>
<g id="a_node4"><a xlink:href="classcrypto_1_1PublicKey.html" target="_top" xlink:title=" ">
<polygon fill="white" stroke="black" points="13.5,-66.5 13.5,-85.5 114.5,-85.5 114.5,-66.5 13.5,-66.5"/>
<text text-anchor="middle" x="64" y="-73.5" font-family="Helvetica,sans-Serif" font-size="10.00">crypto::PublicKey</text>
</a>
</g>
</g>
<!-- Node4&#45;&gt;Node3 -->
<g id="edge3" class="edge">
<title>Node4&#45;&gt;Node3</title>
<path fill="none" stroke="#9a32cd" stroke-dasharray="5,2" d="M124.62,-76C145.01,-76 167.92,-76 188.69,-76"/>
<polygon fill="#9a32cd" stroke="#9a32cd" points="124.53,-72.5 114.53,-76 124.53,-79.5 124.53,-72.5"/>
<text text-anchor="middle" x="154.5" y="-79" font-family="Helvetica,sans-Serif" font-size="10.00"> ptr</text>
</g>
<!-- Node5 -->
<g id="node5" class="node">
<title>Node5</title>
<g id="a_node5"><a xlink:href="structcrypto_1_1OpenSSL_1_1Unique__X509.html" target="_top" xlink:title=" ">
<polygon fill="white" stroke="black" points="419,-23.5 419,-42.5 586,-42.5 586,-23.5 419,-23.5"/>
<text text-anchor="middle" x="502.5" y="-30.5" font-family="Helvetica,sans-Serif" font-size="10.00">crypto::OpenSSL::Unique_X509</text>
</a>
</g>
</g>
<!-- Node5&#45;&gt;Node1 -->
<g id="edge4" class="edge">
<title>Node5&#45;&gt;Node1</title>
<path fill="none" stroke="#9a32cd" stroke-dasharray="5,2" d="M596.24,-40.33C606.29,-41.2 616.36,-42.1 626,-43 631.76,-43.54 637.74,-44.12 643.74,-44.73"/>
<polygon fill="#9a32cd" stroke="#9a32cd" points="596.48,-36.84 586.22,-39.48 595.89,-43.82 596.48,-36.84"/>
<text text-anchor="middle" x="615" y="-46" font-family="Helvetica,sans-Serif" font-size="10.00"> cert</text>
</g>
<!-- Node6 -->
<g id="node6" class="node">
<title>Node6</title>
<g id="a_node6"><a xlink:href="classcrypto_1_1OpenSSL_1_1Unique__SSL__OBJECT.html" target="_top" xlink:title=" ">
<polygon fill="white" stroke="black" points="181,-0.5 181,-41.5 328,-41.5 328,-0.5 181,-0.5"/>
<text text-anchor="start" x="189" y="-29.5" font-family="Helvetica,sans-Serif" font-size="10.00">crypto::OpenSSL::Unique</text>
<text text-anchor="start" x="189" y="-18.5" font-family="Helvetica,sans-Serif" font-size="10.00">_SSL_OBJECT&lt; X509, X509</text>
<text text-anchor="middle" x="254.5" y="-7.5" font-family="Helvetica,sans-Serif" font-size="10.00">_new, X509_free &gt;</text>
</a>
</g>
</g>
<!-- Node6&#45;&gt;Node5 -->
<g id="edge5" class="edge">
<title>Node6&#45;&gt;Node5</title>
<path fill="none" stroke="midnightblue" d="M338.49,-25.05C364.43,-26.31 393.04,-27.71 418.95,-28.97"/>
<polygon fill="midnightblue" stroke="midnightblue" points="338.47,-21.54 328.31,-24.55 338.13,-28.53 338.47,-21.54"/>
</g>
<!-- Node7 -->
<g id="node7" class="node">
<title>Node7</title>
<g id="a_node7"><a xlink:title=" ">
<polygon fill="white" stroke="black" points="0,-6 0,-36 128,-36 128,-6 0,-6"/>
<text text-anchor="start" x="8" y="-24" font-family="Helvetica,sans-Serif" font-size="10.00">std::unique_ptr&lt; X509,</text>
<text text-anchor="middle" x="64" y="-13" font-family="Helvetica,sans-Serif" font-size="10.00"> void(*)(X509 *)&gt;</text>
</a>
</g>
</g>
<!-- Node7&#45;&gt;Node6 -->
<g id="edge6" class="edge">
<title>Node7&#45;&gt;Node6</title>
<path fill="none" stroke="#9a32cd" stroke-dasharray="5,2" d="M138.09,-21C152.1,-21 166.76,-21 180.75,-21"/>
<polygon fill="#9a32cd" stroke="#9a32cd" points="138.03,-17.5 128.03,-21 138.03,-24.5 138.03,-17.5"/>
<text text-anchor="middle" x="154.5" y="-24" font-family="Helvetica,sans-Serif" font-size="10.00"> p</text>
</g>
</g>
</svg>
