<?xml version="1.0" encoding="UTF-8" standalone="no"?>
<!DOCTYPE svg PUBLIC "-//W3C//DTD SVG 1.1//EN"
 "http://www.w3.org/Graphics/SVG/1.1/DTD/svg11.dtd">
<!-- Generated by graphviz version 2.43.0 (0)
 -->
<!-- Title: ccf::SplitNetworkIdentity Pages: 1 -->
<svg width="145pt" height="163pt"
 viewBox="0.00 0.00 145.00 163.00" xmlns="http://www.w3.org/2000/svg" xmlns:xlink="http://www.w3.org/1999/xlink">
<g id="graph0" class="graph" transform="scale(1 1) rotate(0) translate(4 159)">
<title>ccf::SplitNetworkIdentity</title>
<polygon fill="white" stroke="transparent" points="-4,4 -4,-159 141,-159 141,4 -4,4"/>
<!-- Node1 -->
<g id="node1" class="node">
<title>Node1</title>
<g id="a_node1"><a xlink:title=" ">
<polygon fill="#bfbfbf" stroke="black" points="0,-0.5 0,-19.5 137,-19.5 137,-0.5 0,-0.5"/>
<text text-anchor="middle" x="68.5" y="-7.5" font-family="Helvetica,sans-Serif" font-size="10.00">ccf::SplitNetworkIdentity</text>
</a>
</g>
</g>
<!-- Node2 -->
<g id="node2" class="node">
<title>Node2</title>
<g id="a_node2"><a xlink:href="structccf_1_1NetworkIdentity.html" target="_top" xlink:title=" ">
<polygon fill="white" stroke="black" points="11,-57.5 11,-76.5 126,-76.5 126,-57.5 11,-57.5"/>
<text text-anchor="middle" x="68.5" y="-64.5" font-family="Helvetica,sans-Serif" font-size="10.00">ccf::NetworkIdentity</text>
</a>
</g>
</g>
<!-- Node2&#45;&gt;Node1 -->
<g id="edge1" class="edge">
<title>Node2&#45;&gt;Node1</title>
<path fill="none" stroke="midnightblue" d="M68.5,-47.12C68.5,-37.82 68.5,-27.06 68.5,-19.71"/>
<polygon fill="midnightblue" stroke="midnightblue" points="65,-47.41 68.5,-57.41 72,-47.41 65,-47.41"/>
</g>
<!-- Node3 -->
<g id="node3" class="node">
<title>Node3</title>
<g id="a_node3"><a xlink:href="classcrypto_1_1Pem.html" target="_top" xlink:title=" ">
<polygon fill="white" stroke="black" points="31,-135.5 31,-154.5 106,-154.5 106,-135.5 31,-135.5"/>
<text text-anchor="middle" x="68.5" y="-142.5" font-family="Helvetica,sans-Serif" font-size="10.00">crypto::Pem</text>
</a>
</g>
</g>
<!-- Node3&#45;&gt;Node2 -->
<g id="edge2" class="edge">
<title>Node3&#45;&gt;Node2</title>
<path fill="none" stroke="#9a32cd" stroke-dasharray="5,2" d="M68.5,-125.22C68.5,-109.7 68.5,-88.36 68.5,-76.62"/>
<polygon fill="#9a32cd" stroke="#9a32cd" points="65,-125.28 68.5,-135.28 72,-125.28 65,-125.28"/>
<text text-anchor="middle" x="89.5" y="-109" font-family="Helvetica,sans-Serif" font-size="10.00"> cert</text>
<text text-anchor="middle" x="89.5" y="-98" font-family="Helvetica,sans-Serif" font-size="10.00">priv_key</text>
</g>
</g>
</svg>
