<?xml version="1.0" encoding="UTF-8" standalone="no"?>
<!DOCTYPE svg PUBLIC "-//W3C//DTD SVG 1.1//EN"
 "http://www.w3.org/Graphics/SVG/1.1/DTD/svg11.dtd">
<!-- Generated by graphviz version 2.43.0 (0)
 -->
<!-- Title: kv::TypedSet&lt; K, KSerialiser, Unit &gt; Pages: 1 -->
<svg width="166pt" height="231pt"
 viewBox="0.00 0.00 166.00 231.00" xmlns="http://www.w3.org/2000/svg" xmlns:xlink="http://www.w3.org/1999/xlink">
<g id="graph0" class="graph" transform="scale(1 1) rotate(0) translate(4 227)">
<title>kv::TypedSet&lt; K, KSerialiser, Unit &gt;</title>
<polygon fill="white" stroke="transparent" points="-4,4 -4,-227 162,-227 162,4 -4,4"/>
<!-- Node1 -->
<g id="node1" class="node">
<title>Node1</title>
<g id="a_node1"><a xlink:title=" ">
<polygon fill="#bfbfbf" stroke="black" points="0,-0.5 0,-30.5 158,-30.5 158,-0.5 0,-0.5"/>
<text text-anchor="start" x="8" y="-18.5" font-family="Helvetica,sans-Serif" font-size="10.00">kv::TypedSet&lt; K, KSerialiser,</text>
<text text-anchor="middle" x="79" y="-7.5" font-family="Helvetica,sans-Serif" font-size="10.00"> Unit &gt;</text>
</a>
</g>
</g>
<!-- Node2 -->
<g id="node2" class="node">
<title>Node2</title>
<g id="a_node2"><a xlink:href="structkv_1_1GetName.html" target="_top" xlink:title=" ">
<polygon fill="white" stroke="black" points="39,-68.5 39,-87.5 119,-87.5 119,-68.5 39,-68.5"/>
<text text-anchor="middle" x="79" y="-75.5" font-family="Helvetica,sans-Serif" font-size="10.00">kv::GetName</text>
</a>
</g>
</g>
<!-- Node2&#45;&gt;Node1 -->
<g id="edge1" class="edge">
<title>Node2&#45;&gt;Node1</title>
<path fill="none" stroke="midnightblue" d="M79,-58.22C79,-49.36 79,-38.96 79,-30.76"/>
<polygon fill="midnightblue" stroke="midnightblue" points="75.5,-58.33 79,-68.33 82.5,-58.33 75.5,-58.33"/>
</g>
<!-- Node3 -->
<g id="node3" class="node">
<title>Node3</title>
<g id="a_node3"><a xlink:title=" ">
<polygon fill="white" stroke="black" points="46.5,-135.5 46.5,-154.5 111.5,-154.5 111.5,-135.5 46.5,-135.5"/>
<text text-anchor="middle" x="79" y="-142.5" font-family="Helvetica,sans-Serif" font-size="10.00">std::string</text>
</a>
</g>
</g>
<!-- Node3&#45;&gt;Node2 -->
<g id="edge2" class="edge">
<title>Node3&#45;&gt;Node2</title>
<path fill="none" stroke="#9a32cd" stroke-dasharray="5,2" d="M79,-125.04C79,-112.67 79,-97.12 79,-87.63"/>
<polygon fill="#9a32cd" stroke="#9a32cd" points="75.5,-125.23 79,-135.23 82.5,-125.23 75.5,-125.23"/>
<text text-anchor="middle" x="94.5" y="-109" font-family="Helvetica,sans-Serif" font-size="10.00"> name</text>
</g>
<!-- Node4 -->
<g id="node4" class="node">
<title>Node4</title>
<g id="a_node4"><a xlink:title=" ">
<polygon fill="white" stroke="black" points="27,-192.5 27,-222.5 131,-222.5 131,-192.5 27,-192.5"/>
<text text-anchor="start" x="35" y="-210.5" font-family="Helvetica,sans-Serif" font-size="10.00">std::basic_string&lt;</text>
<text text-anchor="middle" x="79" y="-199.5" font-family="Helvetica,sans-Serif" font-size="10.00"> Char &gt;</text>
</a>
</g>
</g>
<!-- Node4&#45;&gt;Node3 -->
<g id="edge3" class="edge">
<title>Node4&#45;&gt;Node3</title>
<path fill="none" stroke="midnightblue" d="M79,-182.35C79,-172.51 79,-161.78 79,-154.54"/>
<polygon fill="midnightblue" stroke="midnightblue" points="75.5,-182.47 79,-192.47 82.5,-182.47 75.5,-182.47"/>
</g>
</g>
</svg>
