<?xml version="1.0" encoding="UTF-8" standalone="no"?>
<!DOCTYPE svg PUBLIC "-//W3C//DTD SVG 1.1//EN"
 "http://www.w3.org/Graphics/SVG/1.1/DTD/svg11.dtd">
<!-- Generated by graphviz version 2.43.0 (0)
 -->
<!-- Title: include/ccf/service/tables/code_id.h Pages: 1 -->
<svg width="2251pt" height="620pt"
 viewBox="0.00 0.00 2251.00 620.00" xmlns="http://www.w3.org/2000/svg" xmlns:xlink="http://www.w3.org/1999/xlink">
<g id="graph0" class="graph" transform="scale(1 1) rotate(0) translate(4 616)">
<title>include/ccf/service/tables/code_id.h</title>
<polygon fill="white" stroke="transparent" points="-4,4 -4,-616 2247,-616 2247,4 -4,4"/>
<!-- Node1 -->
<g id="node1" class="node">
<title>Node1</title>
<g id="a_node1"><a xlink:title=" ">
<polygon fill="#bfbfbf" stroke="black" points="1109.5,-581.5 1109.5,-611.5 1216.5,-611.5 1216.5,-581.5 1109.5,-581.5"/>
<text text-anchor="start" x="1117.5" y="-599.5" font-family="Helvetica,sans-Serif" font-size="10.00">include/ccf/service</text>
<text text-anchor="middle" x="1163" y="-588.5" font-family="Helvetica,sans-Serif" font-size="10.00">/tables/code_id.h</text>
</a>
</g>
</g>
<!-- Node2 -->
<g id="node2" class="node">
<title>Node2</title>
<g id="a_node2"><a xlink:href="common__endpoint__registry_8cpp.html" target="_top" xlink:title=" ">
<polygon fill="white" stroke="black" points="984,-313.5 984,-343.5 1112,-343.5 1112,-313.5 984,-313.5"/>
<text text-anchor="start" x="992" y="-331.5" font-family="Helvetica,sans-Serif" font-size="10.00">src/endpoints/common</text>
<text text-anchor="middle" x="1048" y="-320.5" font-family="Helvetica,sans-Serif" font-size="10.00">_endpoint_registry.cpp</text>
</a>
</g>
</g>
<!-- Node1&#45;&gt;Node2 -->
<g id="edge1" class="edge">
<title>Node1&#45;&gt;Node2</title>
<path fill="none" stroke="midnightblue" d="M1147.52,-572.62C1142.03,-564.11 1135.98,-554.27 1131,-545 1092.3,-472.95 1062.57,-378.88 1052.09,-343.64"/>
<polygon fill="midnightblue" stroke="midnightblue" points="1144.77,-574.81 1153.19,-581.25 1150.62,-570.97 1144.77,-574.81"/>
</g>
<!-- Node3 -->
<g id="node3" class="node">
<title>Node3</title>
<g id="a_node3"><a xlink:href="call__types_8h.html" target="_top" xlink:title=" ">
<polygon fill="white" stroke="black" points="1109.5,-453 1109.5,-472 1246.5,-472 1246.5,-453 1109.5,-453"/>
<text text-anchor="middle" x="1178" y="-460" font-family="Helvetica,sans-Serif" font-size="10.00">src/node/rpc/call_types.h</text>
</a>
</g>
</g>
<!-- Node1&#45;&gt;Node3 -->
<g id="edge2" class="edge">
<title>Node1&#45;&gt;Node3</title>
<path fill="none" stroke="midnightblue" d="M1147.98,-572.38C1139.26,-555.98 1131.21,-533.51 1138,-514 1143.96,-496.89 1158.39,-481.21 1168.19,-472"/>
<polygon fill="midnightblue" stroke="midnightblue" points="1145.07,-574.34 1153.09,-581.26 1151.14,-570.85 1145.07,-574.34"/>
</g>
<!-- Node12 -->
<g id="node12" class="node">
<title>Node12</title>
<g id="a_node12"><a xlink:href="serialization_8h.html" target="_top" xlink:title=" ">
<polygon fill="white" stroke="black" points="1252,-386 1252,-405 1400,-405 1400,-386 1252,-386"/>
<text text-anchor="middle" x="1326" y="-393" font-family="Helvetica,sans-Serif" font-size="10.00">src/node/rpc/serialization.h</text>
</a>
</g>
</g>
<!-- Node1&#45;&gt;Node12 -->
<g id="edge58" class="edge">
<title>Node1&#45;&gt;Node12</title>
<path fill="none" stroke="midnightblue" d="M1226.26,-579.92C1246.1,-572.28 1266.56,-561.12 1281,-545 1318.74,-502.86 1324.84,-429.93 1325.82,-405.08"/>
<polygon fill="midnightblue" stroke="midnightblue" points="1224.82,-576.71 1216.6,-583.39 1227.19,-583.3 1224.82,-576.71"/>
</g>
<!-- Node15 -->
<g id="node15" class="node">
<title>Node15</title>
<g id="a_node15"><a xlink:href="node__call__types_8h.html" target="_top" xlink:title=" ">
<polygon fill="white" stroke="black" points="1146.5,-514.5 1146.5,-544.5 1271.5,-544.5 1271.5,-514.5 1146.5,-514.5"/>
<text text-anchor="start" x="1154.5" y="-532.5" font-family="Helvetica,sans-Serif" font-size="10.00">src/node/rpc/node_call</text>
<text text-anchor="middle" x="1209" y="-521.5" font-family="Helvetica,sans-Serif" font-size="10.00">_types.h</text>
</a>
</g>
</g>
<!-- Node1&#45;&gt;Node15 -->
<g id="edge24" class="edge">
<title>Node1&#45;&gt;Node15</title>
<path fill="none" stroke="midnightblue" d="M1178.81,-573.16C1185.52,-563.68 1193.13,-552.92 1199.04,-544.58"/>
<polygon fill="midnightblue" stroke="midnightblue" points="1175.9,-571.21 1172.98,-581.4 1181.62,-575.26 1175.9,-571.21"/>
</g>
<!-- Node16 -->
<g id="node16" class="node">
<title>Node16</title>
<g id="a_node16"><a xlink:href="node__interface_8h.html" target="_top" xlink:title=" ">
<polygon fill="white" stroke="black" points="345.5,-386 345.5,-405 506.5,-405 506.5,-386 345.5,-386"/>
<text text-anchor="middle" x="426" y="-393" font-family="Helvetica,sans-Serif" font-size="10.00">src/node/rpc/node_interface.h</text>
</a>
</g>
</g>
<!-- Node1&#45;&gt;Node16 -->
<g id="edge26" class="edge">
<title>Node1&#45;&gt;Node16</title>
<path fill="none" stroke="midnightblue" d="M1107.39,-578.58C1012.66,-549.98 813.79,-490.93 644,-447 581.94,-430.94 509.32,-414.61 465.53,-405.02"/>
<polygon fill="midnightblue" stroke="midnightblue" points="1106.46,-581.95 1117.04,-581.5 1108.48,-575.25 1106.46,-581.95"/>
</g>
<!-- Node29 -->
<g id="node29" class="node">
<title>Node29</title>
<g id="a_node29"><a xlink:href="node__operation__interface_8h.html" target="_top" xlink:title=" ">
<polygon fill="white" stroke="black" points="480.5,-447.5 480.5,-477.5 635.5,-477.5 635.5,-447.5 480.5,-447.5"/>
<text text-anchor="start" x="488.5" y="-465.5" font-family="Helvetica,sans-Serif" font-size="10.00">src/node/rpc/node_operation</text>
<text text-anchor="middle" x="558" y="-454.5" font-family="Helvetica,sans-Serif" font-size="10.00">_interface.h</text>
</a>
</g>
</g>
<!-- Node1&#45;&gt;Node29 -->
<g id="edge54" class="edge">
<title>Node1&#45;&gt;Node29</title>
<path fill="none" stroke="midnightblue" d="M1099.51,-581.65C983.6,-556.36 738.95,-502.98 622.38,-477.55"/>
<polygon fill="midnightblue" stroke="midnightblue" points="1098.79,-585.07 1109.31,-583.79 1100.29,-578.23 1098.79,-585.07"/>
</g>
<!-- Node30 -->
<g id="node30" class="node">
<title>Node30</title>
<g id="a_node30"><a xlink:href="genesis__gen_8h.html" target="_top" xlink:title=" ">
<polygon fill="white" stroke="black" points="1465,-380.5 1465,-410.5 1575,-410.5 1575,-380.5 1465,-380.5"/>
<text text-anchor="start" x="1473" y="-398.5" font-family="Helvetica,sans-Serif" font-size="10.00">src/service/genesis</text>
<text text-anchor="middle" x="1520" y="-387.5" font-family="Helvetica,sans-Serif" font-size="10.00">_gen.h</text>
</a>
</g>
</g>
<!-- Node1&#45;&gt;Node30 -->
<g id="edge59" class="edge">
<title>Node1&#45;&gt;Node30</title>
<path fill="none" stroke="midnightblue" d="M1221.62,-578.28C1247.52,-569.72 1277.93,-558.34 1304,-545 1383.19,-504.46 1467.4,-439.24 1502.78,-410.67"/>
<polygon fill="midnightblue" stroke="midnightblue" points="1220.37,-575 1211.93,-581.42 1222.53,-581.66 1220.37,-575"/>
</g>
<!-- Node33 -->
<g id="node33" class="node">
<title>Node33</title>
<g id="a_node33"><a xlink:href="network__tables_8h.html" target="_top" xlink:title=" ">
<polygon fill="white" stroke="black" points="1536,-447.5 1536,-477.5 1648,-477.5 1648,-447.5 1536,-447.5"/>
<text text-anchor="start" x="1544" y="-465.5" font-family="Helvetica,sans-Serif" font-size="10.00">src/service/network</text>
<text text-anchor="middle" x="1592" y="-454.5" font-family="Helvetica,sans-Serif" font-size="10.00">_tables.h</text>
</a>
</g>
</g>
<!-- Node1&#45;&gt;Node33 -->
<g id="edge68" class="edge">
<title>Node1&#45;&gt;Node33</title>
<path fill="none" stroke="midnightblue" d="M1227.01,-585.51C1275.65,-577.07 1343.87,-563.41 1402,-545 1461.37,-526.2 1527.54,-495.45 1564.02,-477.58"/>
<polygon fill="midnightblue" stroke="midnightblue" points="1226.21,-582.09 1216.94,-587.23 1227.38,-588.99 1226.21,-582.09"/>
</g>
<!-- Node3&#45;&gt;Node2 -->
<g id="edge4" class="edge">
<title>Node3&#45;&gt;Node2</title>
<path fill="none" stroke="midnightblue" d="M1161.22,-445.5C1150.96,-435.65 1137.61,-422.7 1126,-411 1102.96,-387.79 1076.78,-360.18 1061.37,-343.79"/>
<polygon fill="midnightblue" stroke="midnightblue" points="1159.05,-448.27 1168.7,-452.66 1163.89,-443.22 1159.05,-448.27"/>
</g>
<!-- Node4 -->
<g id="node4" class="node">
<title>Node4</title>
<g id="a_node4"><a xlink:href="nobuiltins_8cpp.html" target="_top" xlink:title=" ">
<polygon fill="white" stroke="black" points="1168.5,-313.5 1168.5,-343.5 1303.5,-343.5 1303.5,-313.5 1168.5,-313.5"/>
<text text-anchor="start" x="1176.5" y="-331.5" font-family="Helvetica,sans-Serif" font-size="10.00">samples/apps/nobuiltins</text>
<text text-anchor="middle" x="1236" y="-320.5" font-family="Helvetica,sans-Serif" font-size="10.00">/nobuiltins.cpp</text>
</a>
</g>
</g>
<!-- Node3&#45;&gt;Node4 -->
<g id="edge3" class="edge">
<title>Node3&#45;&gt;Node4</title>
<path fill="none" stroke="midnightblue" d="M1185.87,-443.6C1197.5,-417.11 1219.08,-368.01 1229.72,-343.78"/>
<polygon fill="midnightblue" stroke="midnightblue" points="1182.62,-442.28 1181.81,-452.84 1189.03,-445.09 1182.62,-442.28"/>
</g>
<!-- Node5 -->
<g id="node5" class="node">
<title>Node5</title>
<g id="a_node5"><a xlink:href="wrap_8cpp.html" target="_top" xlink:title=" ">
<polygon fill="white" stroke="black" points="739.5,-185 739.5,-204 828.5,-204 828.5,-185 739.5,-185"/>
<text text-anchor="middle" x="784" y="-192" font-family="Helvetica,sans-Serif" font-size="10.00">src/js/wrap.cpp</text>
</a>
</g>
</g>
<!-- Node3&#45;&gt;Node5 -->
<g id="edge5" class="edge">
<title>Node3&#45;&gt;Node5</title>
<path fill="none" stroke="midnightblue" d="M1099.52,-451.97C937.28,-430.5 574.03,-372.59 501,-277 492.64,-266.05 492.15,-256.56 501,-246 530.88,-210.32 667.42,-199.82 739.36,-196.76"/>
<polygon fill="midnightblue" stroke="midnightblue" points="1099.07,-455.44 1109.44,-453.27 1099.98,-448.5 1099.07,-455.44"/>
</g>
<!-- Node6 -->
<g id="node6" class="node">
<title>Node6</title>
<g id="a_node6"><a xlink:href="resharing_8h.html" target="_top" xlink:title=" ">
<polygon fill="white" stroke="black" points="1612,-319 1612,-338 1728,-338 1728,-319 1612,-319"/>
<text text-anchor="middle" x="1670" y="-326" font-family="Helvetica,sans-Serif" font-size="10.00">src/node/resharing.h</text>
</a>
</g>
</g>
<!-- Node3&#45;&gt;Node6 -->
<g id="edge6" class="edge">
<title>Node3&#45;&gt;Node6</title>
<path fill="none" stroke="midnightblue" d="M1256.87,-451.62C1302.57,-444.1 1360.47,-431.47 1409,-411 1432.06,-401.27 1433.02,-389.92 1456,-380 1471.9,-373.14 1572.83,-350.62 1630.22,-338.1"/>
<polygon fill="midnightblue" stroke="midnightblue" points="1256.05,-448.21 1246.72,-453.24 1257.15,-455.12 1256.05,-448.21"/>
</g>
<!-- Node11 -->
<g id="node11" class="node">
<title>Node11</title>
<g id="a_node11"><a xlink:href="member__frontend_8h.html" target="_top" xlink:title=" ">
<polygon fill="white" stroke="black" points="1350,-246.5 1350,-276.5 1470,-276.5 1470,-246.5 1350,-246.5"/>
<text text-anchor="start" x="1358" y="-264.5" font-family="Helvetica,sans-Serif" font-size="10.00">src/node/rpc/member</text>
<text text-anchor="middle" x="1410" y="-253.5" font-family="Helvetica,sans-Serif" font-size="10.00">_frontend.h</text>
</a>
</g>
</g>
<!-- Node3&#45;&gt;Node11 -->
<g id="edge12" class="edge">
<title>Node3&#45;&gt;Node11</title>
<path fill="none" stroke="midnightblue" d="M1168.48,-443.96C1153.46,-413.61 1128.97,-350.92 1160,-313 1160.76,-312.07 1275.98,-289.07 1349.72,-274.44"/>
<polygon fill="midnightblue" stroke="midnightblue" points="1165.42,-445.65 1173.12,-452.93 1171.64,-442.44 1165.42,-445.65"/>
</g>
<!-- Node3&#45;&gt;Node12 -->
<g id="edge14" class="edge">
<title>Node3&#45;&gt;Node12</title>
<path fill="none" stroke="midnightblue" d="M1206.96,-448.78C1236.27,-435.91 1280.79,-416.35 1306.27,-405.17"/>
<polygon fill="midnightblue" stroke="midnightblue" points="1205.4,-445.64 1197.65,-452.87 1208.22,-452.05 1205.4,-445.64"/>
</g>
<!-- Node7 -->
<g id="node7" class="node">
<title>Node7</title>
<g id="a_node7"><a xlink:href="node__state_8h.html" target="_top" xlink:title=" ">
<polygon fill="white" stroke="black" points="1656,-185 1656,-204 1780,-204 1780,-185 1656,-185"/>
<text text-anchor="middle" x="1718" y="-192" font-family="Helvetica,sans-Serif" font-size="10.00">src/node/node_state.h</text>
</a>
</g>
</g>
<!-- Node6&#45;&gt;Node7 -->
<g id="edge7" class="edge">
<title>Node6&#45;&gt;Node7</title>
<path fill="none" stroke="midnightblue" d="M1681.44,-310.49C1687.4,-300.98 1694.39,-288.71 1699,-277 1709.01,-251.59 1714.56,-219.55 1716.81,-204.32"/>
<polygon fill="midnightblue" stroke="midnightblue" points="1678.46,-308.66 1675.95,-318.95 1684.33,-312.47 1678.46,-308.66"/>
</g>
<!-- Node8 -->
<g id="node8" class="node">
<title>Node8</title>
<g id="a_node8"><a xlink:href="enclave_2enclave_8h.html" target="_top" xlink:title=" ">
<polygon fill="white" stroke="black" points="1349,-56.5 1349,-75.5 1471,-75.5 1471,-56.5 1349,-56.5"/>
<text text-anchor="middle" x="1410" y="-63.5" font-family="Helvetica,sans-Serif" font-size="10.00">src/enclave/enclave.h</text>
</a>
</g>
</g>
<!-- Node7&#45;&gt;Node8 -->
<g id="edge8" class="edge">
<title>Node7&#45;&gt;Node8</title>
<path fill="none" stroke="midnightblue" d="M1691.34,-180.44C1645.78,-158.15 1557.13,-114.86 1550,-112 1513.15,-97.23 1469.41,-83.8 1440.75,-75.53"/>
<polygon fill="midnightblue" stroke="midnightblue" points="1689.84,-183.61 1700.36,-184.86 1692.92,-177.32 1689.84,-183.61"/>
</g>
<!-- Node10 -->
<g id="node10" class="node">
<title>Node10</title>
<g id="a_node10"><a xlink:href="gov__effects_8h.html" target="_top" xlink:title=" ">
<polygon fill="white" stroke="black" points="1624,-118 1624,-137 1768,-137 1768,-118 1624,-118"/>
<text text-anchor="middle" x="1696" y="-125" font-family="Helvetica,sans-Serif" font-size="10.00">src/node/rpc/gov_effects.h</text>
</a>
</g>
</g>
<!-- Node7&#45;&gt;Node10 -->
<g id="edge10" class="edge">
<title>Node7&#45;&gt;Node10</title>
<path fill="none" stroke="midnightblue" d="M1711.71,-174.91C1707.5,-162.49 1702.17,-146.72 1698.92,-137.13"/>
<polygon fill="midnightblue" stroke="midnightblue" points="1708.51,-176.38 1715.03,-184.73 1715.14,-174.14 1708.51,-176.38"/>
</g>
<!-- Node9 -->
<g id="node9" class="node">
<title>Node9</title>
<g id="a_node9"><a xlink:href="enclave_2main_8cpp.html" target="_top" xlink:title=" ">
<polygon fill="white" stroke="black" points="1350,-0.5 1350,-19.5 1470,-19.5 1470,-0.5 1350,-0.5"/>
<text text-anchor="middle" x="1410" y="-7.5" font-family="Helvetica,sans-Serif" font-size="10.00">src/enclave/main.cpp</text>
</a>
</g>
</g>
<!-- Node8&#45;&gt;Node9 -->
<g id="edge9" class="edge">
<title>Node8&#45;&gt;Node9</title>
<path fill="none" stroke="midnightblue" d="M1410,-45.8C1410,-36.91 1410,-26.78 1410,-19.75"/>
<polygon fill="midnightblue" stroke="midnightblue" points="1406.5,-46.08 1410,-56.08 1413.5,-46.08 1406.5,-46.08"/>
</g>
<!-- Node10&#45;&gt;Node8 -->
<g id="edge11" class="edge">
<title>Node10&#45;&gt;Node8</title>
<path fill="none" stroke="midnightblue" d="M1645.06,-115.9C1589.61,-104.37 1502.05,-86.15 1450.9,-75.51"/>
<polygon fill="midnightblue" stroke="midnightblue" points="1644.52,-119.36 1655.02,-117.98 1645.95,-112.51 1644.52,-119.36"/>
</g>
<!-- Node11&#45;&gt;Node8 -->
<g id="edge13" class="edge">
<title>Node11&#45;&gt;Node8</title>
<path fill="none" stroke="midnightblue" d="M1410,-236C1410,-192.44 1410,-103.49 1410,-75.58"/>
<polygon fill="midnightblue" stroke="midnightblue" points="1406.5,-236.27 1410,-246.27 1413.5,-236.27 1406.5,-236.27"/>
</g>
<!-- Node12&#45;&gt;Node2 -->
<g id="edge16" class="edge">
<title>Node12&#45;&gt;Node2</title>
<path fill="none" stroke="midnightblue" d="M1279.45,-383.62C1232.41,-372.62 1159.52,-355.58 1108.13,-343.56"/>
<polygon fill="midnightblue" stroke="midnightblue" points="1278.84,-387.07 1289.37,-385.94 1280.43,-380.25 1278.84,-387.07"/>
</g>
<!-- Node12&#45;&gt;Node4 -->
<g id="edge15" class="edge">
<title>Node12&#45;&gt;Node4</title>
<path fill="none" stroke="midnightblue" d="M1305.71,-379.85C1290.69,-369 1270.34,-354.3 1255.51,-343.59"/>
<polygon fill="midnightblue" stroke="midnightblue" points="1303.71,-382.72 1313.86,-385.73 1307.8,-377.04 1303.71,-382.72"/>
</g>
<!-- Node12&#45;&gt;Node6 -->
<g id="edge18" class="edge">
<title>Node12&#45;&gt;Node6</title>
<path fill="none" stroke="midnightblue" d="M1385.76,-384.19C1441.93,-374.36 1528.31,-358.89 1603,-344 1612.22,-342.16 1622.13,-340.08 1631.43,-338.07"/>
<polygon fill="midnightblue" stroke="midnightblue" points="1384.88,-380.79 1375.63,-385.96 1386.08,-387.68 1384.88,-380.79"/>
</g>
<!-- Node12&#45;&gt;Node7 -->
<g id="edge17" class="edge">
<title>Node12&#45;&gt;Node7</title>
<path fill="none" stroke="midnightblue" d="M1342.93,-379.07C1362.37,-361.79 1395.62,-333.51 1427,-313 1481.08,-277.65 1496.26,-270.6 1556,-246 1599.31,-228.17 1651.32,-213 1684.51,-204.07"/>
<polygon fill="midnightblue" stroke="midnightblue" points="1340.36,-376.67 1335.26,-385.96 1345.04,-381.88 1340.36,-376.67"/>
</g>
<!-- Node12&#45;&gt;Node11 -->
<g id="edge19" class="edge">
<title>Node12&#45;&gt;Node11</title>
<path fill="none" stroke="midnightblue" d="M1330.22,-375.83C1334.72,-358.53 1343.01,-332.58 1356,-313 1365.37,-298.88 1379.43,-285.9 1390.86,-276.63"/>
<polygon fill="midnightblue" stroke="midnightblue" points="1326.75,-375.26 1327.8,-385.8 1333.56,-376.91 1326.75,-375.26"/>
</g>
<!-- Node13 -->
<g id="node13" class="node">
<title>Node13</title>
<g id="a_node13"><a xlink:href="node__frontend_8h.html" target="_top" xlink:title=" ">
<polygon fill="white" stroke="black" points="1436,-319 1436,-338 1594,-338 1594,-319 1436,-319"/>
<text text-anchor="middle" x="1515" y="-326" font-family="Helvetica,sans-Serif" font-size="10.00">src/node/rpc/node_frontend.h</text>
</a>
</g>
</g>
<!-- Node12&#45;&gt;Node13 -->
<g id="edge20" class="edge">
<title>Node12&#45;&gt;Node13</title>
<path fill="none" stroke="midnightblue" d="M1360.6,-382.6C1398.07,-369.71 1456.93,-349.47 1490.1,-338.06"/>
<polygon fill="midnightblue" stroke="midnightblue" points="1359.42,-379.31 1351.1,-385.87 1361.69,-385.93 1359.42,-379.31"/>
</g>
<!-- Node13&#45;&gt;Node8 -->
<g id="edge21" class="edge">
<title>Node13&#45;&gt;Node8</title>
<path fill="none" stroke="midnightblue" d="M1507.69,-309.37C1486.98,-257.99 1428.45,-112.77 1413.51,-75.7"/>
<polygon fill="midnightblue" stroke="midnightblue" points="1504.52,-310.87 1511.51,-318.83 1511.01,-308.25 1504.52,-310.87"/>
</g>
<!-- Node14 -->
<g id="node14" class="node">
<title>Node14</title>
<g id="a_node14"><a xlink:href="jwt__key__auto__refresh_8h.html" target="_top" xlink:title=" ">
<polygon fill="white" stroke="black" points="1564.5,-246.5 1564.5,-276.5 1689.5,-276.5 1689.5,-246.5 1564.5,-246.5"/>
<text text-anchor="start" x="1572.5" y="-264.5" font-family="Helvetica,sans-Serif" font-size="10.00">src/node/jwt_key_auto</text>
<text text-anchor="middle" x="1627" y="-253.5" font-family="Helvetica,sans-Serif" font-size="10.00">_refresh.h</text>
</a>
</g>
</g>
<!-- Node13&#45;&gt;Node14 -->
<g id="edge22" class="edge">
<title>Node13&#45;&gt;Node14</title>
<path fill="none" stroke="midnightblue" d="M1538.94,-313.6C1557.75,-302.69 1583.83,-287.55 1602.72,-276.59"/>
<polygon fill="midnightblue" stroke="midnightblue" points="1537,-310.69 1530.1,-318.73 1540.51,-316.74 1537,-310.69"/>
</g>
<!-- Node14&#45;&gt;Node7 -->
<g id="edge23" class="edge">
<title>Node14&#45;&gt;Node7</title>
<path fill="none" stroke="midnightblue" d="M1655.27,-240.31C1672.36,-228.1 1693.25,-213.18 1706.09,-204.01"/>
<polygon fill="midnightblue" stroke="midnightblue" points="1652.85,-237.74 1646.75,-246.4 1656.92,-243.43 1652.85,-237.74"/>
</g>
<!-- Node15&#45;&gt;Node3 -->
<g id="edge25" class="edge">
<title>Node15&#45;&gt;Node3</title>
<path fill="none" stroke="midnightblue" d="M1197.93,-505.29C1192.45,-493.8 1186.17,-480.63 1182.15,-472.19"/>
<polygon fill="midnightblue" stroke="midnightblue" points="1194.81,-506.88 1202.27,-514.4 1201.13,-503.86 1194.81,-506.88"/>
</g>
<!-- Node16&#45;&gt;Node5 -->
<g id="edge27" class="edge">
<title>Node16&#45;&gt;Node5</title>
<path fill="none" stroke="midnightblue" d="M425.35,-375.68C425.36,-343.81 430.37,-279.46 468,-246 507.39,-210.97 662,-200.13 739.38,-196.86"/>
<polygon fill="midnightblue" stroke="midnightblue" points="421.85,-375.89 425.52,-385.83 428.85,-375.77 421.85,-375.89"/>
</g>
<!-- Node16&#45;&gt;Node11 -->
<g id="edge47" class="edge">
<title>Node16&#45;&gt;Node11</title>
<path fill="none" stroke="midnightblue" d="M516.56,-390.36C633.84,-384.04 831.27,-369.92 899,-344 921,-335.58 919.93,-321.25 942,-313 1106.7,-251.41 1161.94,-301.94 1336,-277 1340.54,-276.35 1345.21,-275.61 1349.91,-274.81"/>
<polygon fill="midnightblue" stroke="midnightblue" points="516.31,-386.87 506.51,-390.89 516.68,-393.86 516.31,-386.87"/>
</g>
<!-- Node16&#45;&gt;Node13 -->
<g id="edge51" class="edge">
<title>Node16&#45;&gt;Node13</title>
<path fill="none" stroke="midnightblue" d="M517.06,-389.76C677.79,-381.3 1022.31,-362.71 1313,-344 1353.53,-341.39 1398.6,-338.19 1435.87,-335.45"/>
<polygon fill="midnightblue" stroke="midnightblue" points="516.54,-386.28 506.74,-390.3 516.91,-393.27 516.54,-386.28"/>
</g>
<!-- Node17 -->
<g id="node17" class="node">
<title>Node17</title>
<g id="a_node17"><a xlink:href="wrap_8h.html" target="_top" xlink:title=" ">
<polygon fill="white" stroke="black" points="812,-319 812,-338 890,-338 890,-319 812,-319"/>
<text text-anchor="middle" x="851" y="-326" font-family="Helvetica,sans-Serif" font-size="10.00">src/js/wrap.h</text>
</a>
</g>
</g>
<!-- Node16&#45;&gt;Node17 -->
<g id="edge28" class="edge">
<title>Node16&#45;&gt;Node17</title>
<path fill="none" stroke="midnightblue" d="M492.05,-384.4C581.71,-370.69 739.08,-346.62 811.94,-335.47"/>
<polygon fill="midnightblue" stroke="midnightblue" points="491.35,-380.96 482,-385.94 492.41,-387.88 491.35,-380.96"/>
</g>
<!-- Node24 -->
<g id="node24" class="node">
<title>Node24</title>
<g id="a_node24"><a xlink:href="historical__queries_8h.html" target="_top" xlink:title=" ">
<polygon fill="white" stroke="black" points="139,-179.5 139,-209.5 245,-209.5 245,-179.5 139,-179.5"/>
<text text-anchor="start" x="147" y="-197.5" font-family="Helvetica,sans-Serif" font-size="10.00">src/node/historical</text>
<text text-anchor="middle" x="192" y="-186.5" font-family="Helvetica,sans-Serif" font-size="10.00">_queries.h</text>
</a>
</g>
</g>
<!-- Node16&#45;&gt;Node24 -->
<g id="edge43" class="edge">
<title>Node16&#45;&gt;Node24</title>
<path fill="none" stroke="midnightblue" d="M335.08,-385.31C303.58,-378.21 269.96,-365.77 245,-344 204.36,-308.56 194.88,-239.72 192.67,-209.88"/>
<polygon fill="midnightblue" stroke="midnightblue" points="334.71,-388.8 345.22,-387.43 336.14,-381.95 334.71,-388.8"/>
</g>
<!-- Node26 -->
<g id="node26" class="node">
<title>Node26</title>
<g id="a_node26"><a xlink:href="network__identity__subsystem_8h.html" target="_top" xlink:title=" ">
<polygon fill="white" stroke="black" points="254.5,-313.5 254.5,-343.5 381.5,-343.5 381.5,-313.5 254.5,-313.5"/>
<text text-anchor="start" x="262.5" y="-331.5" font-family="Helvetica,sans-Serif" font-size="10.00">src/node/rpc/network</text>
<text text-anchor="middle" x="318" y="-320.5" font-family="Helvetica,sans-Serif" font-size="10.00">_identity_subsystem.h</text>
</a>
</g>
</g>
<!-- Node16&#45;&gt;Node26 -->
<g id="edge48" class="edge">
<title>Node16&#45;&gt;Node26</title>
<path fill="none" stroke="midnightblue" d="M402.66,-380.45C384.55,-369.55 359.54,-354.5 341.41,-343.59"/>
<polygon fill="midnightblue" stroke="midnightblue" points="401.06,-383.58 411.43,-385.73 404.67,-377.58 401.06,-383.58"/>
</g>
<!-- Node28 -->
<g id="node28" class="node">
<title>Node28</title>
<g id="a_node28"><a xlink:href="node__operation_8h.html" target="_top" xlink:title=" ">
<polygon fill="white" stroke="black" points="0,-319 0,-338 164,-338 164,-319 0,-319"/>
<text text-anchor="middle" x="82" y="-326" font-family="Helvetica,sans-Serif" font-size="10.00">src/node/rpc/node_operation.h</text>
</a>
</g>
</g>
<!-- Node16&#45;&gt;Node28 -->
<g id="edge52" class="edge">
<title>Node16&#45;&gt;Node28</title>
<path fill="none" stroke="midnightblue" d="M370.63,-384.04C302.97,-371.25 189.79,-349.87 127.15,-338.03"/>
<polygon fill="midnightblue" stroke="midnightblue" points="370.2,-387.52 380.67,-385.94 371.5,-380.64 370.2,-387.52"/>
</g>
<!-- Node17&#45;&gt;Node5 -->
<g id="edge40" class="edge">
<title>Node17&#45;&gt;Node5</title>
<path fill="none" stroke="midnightblue" d="M832.09,-312.09C822.02,-302.91 810.25,-290.44 803,-277 789.9,-252.7 785.78,-219.58 784.52,-204.11"/>
<polygon fill="midnightblue" stroke="midnightblue" points="829.85,-314.78 839.69,-318.71 834.45,-309.5 829.85,-314.78"/>
</g>
<!-- Node17&#45;&gt;Node7 -->
<g id="edge41" class="edge">
<title>Node17&#45;&gt;Node7</title>
<path fill="none" stroke="midnightblue" d="M888.38,-316.39C893.6,-315.1 898.91,-313.92 904,-313 1079.22,-281.38 1138.12,-344.22 1303,-277 1323.18,-268.77 1321,-254.66 1341,-246 1396.22,-222.08 1563.89,-206.63 1655.91,-199.7"/>
<polygon fill="midnightblue" stroke="midnightblue" points="887.35,-313.04 878.57,-318.96 889.13,-319.81 887.35,-313.04"/>
</g>
<!-- Node17&#45;&gt;Node8 -->
<g id="edge30" class="edge">
<title>Node17&#45;&gt;Node8</title>
<path fill="none" stroke="midnightblue" d="M801.84,-327.96C714.85,-327.6 539.33,-321.26 501,-277 491.98,-266.59 492.74,-257.03 501,-246 603.42,-109.32 1161.5,-76.23 1348.73,-68.92"/>
<polygon fill="midnightblue" stroke="midnightblue" points="801.99,-331.46 812,-327.97 802,-324.46 801.99,-331.46"/>
</g>
<!-- Node17&#45;&gt;Node11 -->
<g id="edge42" class="edge">
<title>Node17&#45;&gt;Node11</title>
<path fill="none" stroke="midnightblue" d="M888.38,-316.36C893.59,-315.07 898.91,-313.9 904,-313 1093.72,-279.44 1145.17,-303.56 1336,-277 1340.54,-276.37 1345.22,-275.64 1349.92,-274.85"/>
<polygon fill="midnightblue" stroke="midnightblue" points="887.35,-313.01 878.56,-318.93 889.12,-319.78 887.35,-313.01"/>
</g>
<!-- Node18 -->
<g id="node18" class="node">
<title>Node18</title>
<g id="a_node18"><a xlink:href="js__generic__base_8cpp.html" target="_top" xlink:title=" ">
<polygon fill="white" stroke="black" points="638,-246.5 638,-276.5 756,-276.5 756,-246.5 638,-246.5"/>
<text text-anchor="start" x="646" y="-264.5" font-family="Helvetica,sans-Serif" font-size="10.00">src/apps/js_generic</text>
<text text-anchor="middle" x="697" y="-253.5" font-family="Helvetica,sans-Serif" font-size="10.00">/js_generic_base.cpp</text>
</a>
</g>
</g>
<!-- Node17&#45;&gt;Node18 -->
<g id="edge29" class="edge">
<title>Node17&#45;&gt;Node18</title>
<path fill="none" stroke="midnightblue" d="M821.18,-314.91C795.1,-303.91 757.28,-287.94 730.24,-276.53"/>
<polygon fill="midnightblue" stroke="midnightblue" points="819.98,-318.2 830.55,-318.87 822.7,-311.76 819.98,-318.2"/>
</g>
<!-- Node19 -->
<g id="node19" class="node">
<title>Node19</title>
<g id="a_node19"><a xlink:href="js_2consensus_8cpp.html" target="_top" xlink:title=" ">
<polygon fill="white" stroke="black" points="958,-252 958,-271 1074,-271 1074,-252 958,-252"/>
<text text-anchor="middle" x="1016" y="-259" font-family="Helvetica,sans-Serif" font-size="10.00">src/js/consensus.cpp</text>
</a>
</g>
</g>
<!-- Node17&#45;&gt;Node19 -->
<g id="edge31" class="edge">
<title>Node17&#45;&gt;Node19</title>
<path fill="none" stroke="midnightblue" d="M882.47,-315.1C915.23,-302.2 965.67,-282.33 994.26,-271.06"/>
<polygon fill="midnightblue" stroke="midnightblue" points="880.93,-311.95 872.91,-318.87 883.5,-318.46 880.93,-311.95"/>
</g>
<!-- Node20 -->
<g id="node20" class="node">
<title>Node20</title>
<g id="a_node20"><a xlink:href="conv_8cpp.html" target="_top" xlink:title=" ">
<polygon fill="white" stroke="black" points="1092,-252 1092,-271 1180,-271 1180,-252 1092,-252"/>
<text text-anchor="middle" x="1136" y="-259" font-family="Helvetica,sans-Serif" font-size="10.00">src/js/conv.cpp</text>
</a>
</g>
</g>
<!-- Node17&#45;&gt;Node20 -->
<g id="edge33" class="edge">
<title>Node17&#45;&gt;Node20</title>
<path fill="none" stroke="midnightblue" d="M890.62,-316.34C895.12,-315.17 899.65,-314.03 904,-313 982.96,-294.28 1004.04,-295.72 1083,-277 1090.52,-275.22 1098.59,-273.11 1106.1,-271.07"/>
<polygon fill="midnightblue" stroke="midnightblue" points="889.66,-312.98 880.9,-318.93 891.46,-319.74 889.66,-312.98"/>
</g>
<!-- Node21 -->
<g id="node21" class="node">
<title>Node21</title>
<g id="a_node21"><a xlink:href="js_2crypto_8cpp.html" target="_top" xlink:title=" ">
<polygon fill="white" stroke="black" points="1198,-252 1198,-271 1294,-271 1294,-252 1198,-252"/>
<text text-anchor="middle" x="1246" y="-259" font-family="Helvetica,sans-Serif" font-size="10.00">src/js/crypto.cpp</text>
</a>
</g>
</g>
<!-- Node17&#45;&gt;Node21 -->
<g id="edge35" class="edge">
<title>Node17&#45;&gt;Node21</title>
<path fill="none" stroke="midnightblue" d="M889.33,-316.33C894.24,-315.1 899.22,-313.95 904,-313 1029.22,-288.09 1063.56,-300.78 1189,-277 1197.63,-275.36 1206.89,-273.19 1215.39,-271.03"/>
<polygon fill="midnightblue" stroke="midnightblue" points="888.21,-313 879.43,-318.93 889.99,-319.77 888.21,-313"/>
</g>
<!-- Node22 -->
<g id="node22" class="node">
<title>Node22</title>
<g id="a_node22"><a xlink:href="js_2historical_8cpp.html" target="_top" xlink:title=" ">
<polygon fill="white" stroke="black" points="510,-252 510,-271 620,-271 620,-252 510,-252"/>
<text text-anchor="middle" x="565" y="-259" font-family="Helvetica,sans-Serif" font-size="10.00">src/js/historical.cpp</text>
</a>
</g>
</g>
<!-- Node17&#45;&gt;Node22 -->
<g id="edge37" class="edge">
<title>Node17&#45;&gt;Node22</title>
<path fill="none" stroke="midnightblue" d="M803.23,-316.64C746.88,-303.84 654.36,-282.81 602.77,-271.08"/>
<polygon fill="midnightblue" stroke="midnightblue" points="802.79,-320.13 813.32,-318.94 804.34,-313.31 802.79,-320.13"/>
</g>
<!-- Node23 -->
<g id="node23" class="node">
<title>Node23</title>
<g id="a_node23"><a xlink:href="openenclave_8cpp.html" target="_top" xlink:title=" ">
<polygon fill="white" stroke="black" points="812,-252 812,-271 940,-271 940,-252 812,-252"/>
<text text-anchor="middle" x="876" y="-259" font-family="Helvetica,sans-Serif" font-size="10.00">src/js/openenclave.cpp</text>
</a>
</g>
</g>
<!-- Node17&#45;&gt;Node23 -->
<g id="edge39" class="edge">
<title>Node17&#45;&gt;Node23</title>
<path fill="none" stroke="midnightblue" d="M858,-309.29C862.8,-296.81 868.96,-280.81 872.68,-271.13"/>
<polygon fill="midnightblue" stroke="midnightblue" points="854.69,-308.14 854.37,-318.73 861.23,-310.66 854.69,-308.14"/>
</g>
<!-- Node19&#45;&gt;Node5 -->
<g id="edge32" class="edge">
<title>Node19&#45;&gt;Node5</title>
<path fill="none" stroke="midnightblue" d="M975.28,-249.09C929.38,-236.23 855.81,-215.62 814.57,-204.06"/>
<polygon fill="midnightblue" stroke="midnightblue" points="974.62,-252.54 985.19,-251.87 976.51,-245.8 974.62,-252.54"/>
</g>
<!-- Node20&#45;&gt;Node5 -->
<g id="edge34" class="edge">
<title>Node20&#45;&gt;Node5</title>
<path fill="none" stroke="midnightblue" d="M1097.29,-249.43C1092.49,-248.2 1087.65,-247.03 1083,-246 993.42,-226.23 887.26,-209.98 828.59,-201.61"/>
<polygon fill="midnightblue" stroke="midnightblue" points="1096.41,-252.82 1106.97,-252 1098.2,-246.05 1096.41,-252.82"/>
</g>
<!-- Node21&#45;&gt;Node5 -->
<g id="edge36" class="edge">
<title>Node21&#45;&gt;Node5</title>
<path fill="none" stroke="midnightblue" d="M1205.58,-249.56C1200.03,-248.25 1194.39,-247.02 1189,-246 1059.15,-221.49 903.55,-205.89 828.63,-199.23"/>
<polygon fill="midnightblue" stroke="midnightblue" points="1204.85,-252.98 1215.39,-251.96 1206.52,-246.18 1204.85,-252.98"/>
</g>
<!-- Node22&#45;&gt;Node5 -->
<g id="edge38" class="edge">
<title>Node22&#45;&gt;Node5</title>
<path fill="none" stroke="midnightblue" d="M603.71,-249.01C647.06,-236.15 716.3,-215.59 755.15,-204.06"/>
<polygon fill="midnightblue" stroke="midnightblue" points="602.67,-245.67 594.08,-251.87 604.66,-252.38 602.67,-245.67"/>
</g>
<!-- Node24&#45;&gt;Node8 -->
<g id="edge44" class="edge">
<title>Node24&#45;&gt;Node8</title>
<path fill="none" stroke="midnightblue" d="M213.64,-172.18C236.42,-150.29 271.26,-118.53 288,-112 386.87,-73.43 1129.31,-67.92 1348.96,-67.13"/>
<polygon fill="midnightblue" stroke="midnightblue" points="211.17,-169.7 206.42,-179.17 216.04,-174.73 211.17,-169.7"/>
</g>
<!-- Node25 -->
<g id="node25" class="node">
<title>Node25</title>
<g id="a_node25"><a xlink:href="historical__transaction__fetcher_8h.html" target="_top" xlink:title=" ">
<polygon fill="white" stroke="black" points="110.5,-112.5 110.5,-142.5 235.5,-142.5 235.5,-112.5 110.5,-112.5"/>
<text text-anchor="start" x="118.5" y="-130.5" font-family="Helvetica,sans-Serif" font-size="10.00">src/indexing/historical</text>
<text text-anchor="middle" x="173" y="-119.5" font-family="Helvetica,sans-Serif" font-size="10.00">_transaction_fetcher.h</text>
</a>
</g>
</g>
<!-- Node24&#45;&gt;Node25 -->
<g id="edge45" class="edge">
<title>Node24&#45;&gt;Node25</title>
<path fill="none" stroke="midnightblue" d="M185.04,-169.7C182.38,-160.59 179.43,-150.49 177.11,-142.58"/>
<polygon fill="midnightblue" stroke="midnightblue" points="181.71,-170.78 187.88,-179.4 188.43,-168.82 181.71,-170.78"/>
</g>
<!-- Node25&#45;&gt;Node8 -->
<g id="edge46" class="edge">
<title>Node25&#45;&gt;Node8</title>
<path fill="none" stroke="midnightblue" d="M246.09,-112.46C247.4,-112.3 248.71,-112.15 250,-112 465.91,-87.62 1141.06,-72.38 1348.65,-68.19"/>
<polygon fill="midnightblue" stroke="midnightblue" points="245.34,-109.03 235.92,-113.87 246.3,-115.97 245.34,-109.03"/>
</g>
<!-- Node26&#45;&gt;Node8 -->
<g id="edge49" class="edge">
<title>Node26&#45;&gt;Node8</title>
<path fill="none" stroke="midnightblue" d="M278.59,-308.01C266.9,-300.11 255.49,-289.78 249,-277 242.77,-264.71 240.69,-256.99 249,-246 381.08,-71.41 507.25,-149.14 723,-112 951.52,-72.66 1228.22,-67.1 1348.84,-66.72"/>
<polygon fill="midnightblue" stroke="midnightblue" points="276.76,-310.99 287.09,-313.34 280.48,-305.06 276.76,-310.99"/>
</g>
<!-- Node27 -->
<g id="node27" class="node">
<title>Node27</title>
<g id="a_node27"><a xlink:href="historical__queries__adapter_8cpp.html" target="_top" xlink:title=" ">
<polygon fill="white" stroke="black" points="258,-246.5 258,-276.5 378,-276.5 378,-246.5 258,-246.5"/>
<text text-anchor="start" x="266" y="-264.5" font-family="Helvetica,sans-Serif" font-size="10.00">src/node/historical</text>
<text text-anchor="middle" x="318" y="-253.5" font-family="Helvetica,sans-Serif" font-size="10.00">_queries_adapter.cpp</text>
</a>
</g>
</g>
<!-- Node26&#45;&gt;Node27 -->
<g id="edge50" class="edge">
<title>Node26&#45;&gt;Node27</title>
<path fill="none" stroke="midnightblue" d="M318,-303.11C318,-294.15 318,-284.32 318,-276.58"/>
<polygon fill="midnightblue" stroke="midnightblue" points="314.5,-303.4 318,-313.4 321.5,-303.4 314.5,-303.4"/>
</g>
<!-- Node28&#45;&gt;Node8 -->
<g id="edge53" class="edge">
<title>Node28&#45;&gt;Node8</title>
<path fill="none" stroke="midnightblue" d="M76.67,-309.15C65.75,-267.2 46.2,-163.94 101,-112 146.77,-68.62 1096.48,-66.63 1348.86,-66.87"/>
<polygon fill="midnightblue" stroke="midnightblue" points="73.31,-310.13 79.33,-318.84 80.06,-308.27 73.31,-310.13"/>
</g>
<!-- Node29&#45;&gt;Node11 -->
<g id="edge55" class="edge">
<title>Node29&#45;&gt;Node11</title>
<path fill="none" stroke="midnightblue" d="M638.16,-445.29C716.77,-427.4 838.52,-394.31 935,-344 954.94,-333.6 954.11,-321.33 975,-313 1124.78,-253.29 1176.49,-300.53 1336,-277 1340.53,-276.33 1345.21,-275.57 1349.91,-274.77"/>
<polygon fill="midnightblue" stroke="midnightblue" points="637.31,-441.89 628.32,-447.5 638.84,-448.72 637.31,-441.89"/>
</g>
<!-- Node29&#45;&gt;Node16 -->
<g id="edge56" class="edge">
<title>Node29&#45;&gt;Node16</title>
<path fill="none" stroke="midnightblue" d="M520.36,-442.97C495.01,-430.48 462.75,-414.6 443.28,-405.01"/>
<polygon fill="midnightblue" stroke="midnightblue" points="518.84,-446.12 529.36,-447.4 521.93,-439.84 518.84,-446.12"/>
</g>
<!-- Node29&#45;&gt;Node28 -->
<g id="edge57" class="edge">
<title>Node29&#45;&gt;Node28</title>
<path fill="none" stroke="midnightblue" d="M479.08,-445.29C436.49,-436.11 383.12,-423.89 336,-411 250.68,-387.66 151.28,-353.78 106.31,-338.08"/>
<polygon fill="midnightblue" stroke="midnightblue" points="478.6,-448.77 489.11,-447.44 480.07,-441.92 478.6,-448.77"/>
</g>
<!-- Node30&#45;&gt;Node7 -->
<g id="edge60" class="edge">
<title>Node30&#45;&gt;Node7</title>
<path fill="none" stroke="midnightblue" d="M1585.14,-379.84C1648.61,-365.48 1735.78,-345.54 1737,-344 1770.94,-301.25 1736.41,-228.71 1722.91,-204.02"/>
<polygon fill="midnightblue" stroke="midnightblue" points="1584.16,-376.48 1575.18,-382.09 1585.7,-383.3 1584.16,-376.48"/>
</g>
<!-- Node30&#45;&gt;Node11 -->
<g id="edge61" class="edge">
<title>Node30&#45;&gt;Node11</title>
<path fill="none" stroke="midnightblue" d="M1467.59,-375.97C1452.45,-368.25 1437.26,-357.8 1427,-344 1412.16,-324.05 1409.59,-294.12 1409.5,-276.62"/>
<polygon fill="midnightblue" stroke="midnightblue" points="1466.43,-379.29 1476.96,-380.43 1469.43,-372.97 1466.43,-379.29"/>
</g>
<!-- Node30&#45;&gt;Node13 -->
<g id="edge62" class="edge">
<title>Node30&#45;&gt;Node13</title>
<path fill="none" stroke="midnightblue" d="M1518.13,-370.25C1517.27,-359.02 1516.3,-346.38 1515.67,-338.19"/>
<polygon fill="midnightblue" stroke="midnightblue" points="1514.66,-370.69 1518.92,-380.4 1521.64,-370.16 1514.66,-370.69"/>
</g>
<!-- Node31 -->
<g id="node31" class="node">
<title>Node31</title>
<g id="a_node31"><a xlink:href="secret__broadcast_8h.html" target="_top" xlink:title=" ">
<polygon fill="white" stroke="black" points="1947.5,-319 1947.5,-338 2100.5,-338 2100.5,-319 1947.5,-319"/>
<text text-anchor="middle" x="2024" y="-326" font-family="Helvetica,sans-Serif" font-size="10.00">src/node/secret_broadcast.h</text>
</a>
</g>
</g>
<!-- Node30&#45;&gt;Node31 -->
<g id="edge63" class="edge">
<title>Node30&#45;&gt;Node31</title>
<path fill="none" stroke="midnightblue" d="M1585.28,-380.1C1742.85,-355.16 1785.51,-364.87 1939,-344 1951.46,-342.31 1964.9,-340.16 1977.32,-338.05"/>
<polygon fill="midnightblue" stroke="midnightblue" points="1584.55,-376.67 1575.23,-381.71 1585.66,-383.58 1584.55,-376.67"/>
</g>
<!-- Node32 -->
<g id="node32" class="node">
<title>Node32</title>
<g id="a_node32"><a xlink:href="share__manager_8h.html" target="_top" xlink:title=" ">
<polygon fill="white" stroke="black" points="1784.5,-319 1784.5,-338 1929.5,-338 1929.5,-319 1784.5,-319"/>
<text text-anchor="middle" x="1857" y="-326" font-family="Helvetica,sans-Serif" font-size="10.00">src/node/share_manager.h</text>
</a>
</g>
</g>
<!-- Node30&#45;&gt;Node32 -->
<g id="edge65" class="edge">
<title>Node30&#45;&gt;Node32</title>
<path fill="none" stroke="midnightblue" d="M1585.31,-379.98C1669.75,-362.85 1755.82,-347.28 1808.25,-338.01"/>
<polygon fill="midnightblue" stroke="midnightblue" points="1584.39,-376.6 1575.29,-382.02 1585.79,-383.46 1584.39,-376.6"/>
</g>
<!-- Node31&#45;&gt;Node7 -->
<g id="edge64" class="edge">
<title>Node31&#45;&gt;Node7</title>
<path fill="none" stroke="midnightblue" d="M1994.71,-314.86C1932.82,-288.17 1790.14,-226.62 1737.75,-204.02"/>
<polygon fill="midnightblue" stroke="midnightblue" points="1993.35,-318.09 2003.92,-318.84 1996.13,-311.66 1993.35,-318.09"/>
</g>
<!-- Node32&#45;&gt;Node7 -->
<g id="edge66" class="edge">
<title>Node32&#45;&gt;Node7</title>
<path fill="none" stroke="midnightblue" d="M1840.42,-311.76C1810.84,-283.66 1749.89,-225.78 1726.97,-204.02"/>
<polygon fill="midnightblue" stroke="midnightblue" points="1838.22,-314.49 1847.88,-318.84 1843.04,-309.41 1838.22,-314.49"/>
</g>
<!-- Node32&#45;&gt;Node11 -->
<g id="edge67" class="edge">
<title>Node32&#45;&gt;Node11</title>
<path fill="none" stroke="midnightblue" d="M1788.06,-317.48C1701.03,-304.82 1552.72,-283.25 1470.1,-271.24"/>
<polygon fill="midnightblue" stroke="midnightblue" points="1787.7,-320.96 1798.1,-318.94 1788.71,-314.03 1787.7,-320.96"/>
</g>
<!-- Node33&#45;&gt;Node30 -->
<g id="edge81" class="edge">
<title>Node33&#45;&gt;Node30</title>
<path fill="none" stroke="midnightblue" d="M1568.85,-440.6C1557.98,-430.78 1545.3,-419.34 1535.59,-410.58"/>
<polygon fill="midnightblue" stroke="midnightblue" points="1566.61,-443.29 1576.38,-447.4 1571.3,-438.1 1566.61,-443.29"/>
</g>
<!-- Node34 -->
<g id="node34" class="node">
<title>Node34</title>
<g id="a_node34"><a xlink:href="kv__module__loader_8cpp.html" target="_top" xlink:title=" ">
<polygon fill="white" stroke="black" points="1593.5,-380.5 1593.5,-410.5 1736.5,-410.5 1736.5,-380.5 1593.5,-380.5"/>
<text text-anchor="start" x="1601.5" y="-398.5" font-family="Helvetica,sans-Serif" font-size="10.00">src/apps/js_v8/kv_module</text>
<text text-anchor="middle" x="1665" y="-387.5" font-family="Helvetica,sans-Serif" font-size="10.00">_loader.cpp</text>
</a>
</g>
</g>
<!-- Node33&#45;&gt;Node34 -->
<g id="edge69" class="edge">
<title>Node33&#45;&gt;Node34</title>
<path fill="none" stroke="midnightblue" d="M1615.47,-440.6C1626.5,-430.78 1639.34,-419.34 1649.19,-410.58"/>
<polygon fill="midnightblue" stroke="midnightblue" points="1612.98,-438.13 1607.84,-447.4 1617.64,-443.36 1612.98,-438.13"/>
</g>
<!-- Node35 -->
<g id="node35" class="node">
<title>Node35</title>
<g id="a_node35"><a xlink:href="network__state_8h.html" target="_top" xlink:title=" ">
<polygon fill="white" stroke="black" points="1954,-386 1954,-405 2094,-405 2094,-386 1954,-386"/>
<text text-anchor="middle" x="2024" y="-393" font-family="Helvetica,sans-Serif" font-size="10.00">src/node/network_state.h</text>
</a>
</g>
</g>
<!-- Node33&#45;&gt;Node35 -->
<g id="edge70" class="edge">
<title>Node33&#45;&gt;Node35</title>
<path fill="none" stroke="midnightblue" d="M1658.04,-451.56C1742.58,-438.84 1887.64,-417.02 1967.38,-405.02"/>
<polygon fill="midnightblue" stroke="midnightblue" points="1657.4,-448.12 1648.03,-453.07 1658.44,-455.04 1657.4,-448.12"/>
</g>
<!-- Node35&#45;&gt;Node7 -->
<g id="edge73" class="edge">
<title>Node35&#45;&gt;Node7</title>
<path fill="none" stroke="midnightblue" d="M2062.75,-381.95C2080.47,-374.04 2099.77,-361.88 2110,-344 2116.84,-332.04 2118.23,-324.05 2110,-313 2088.23,-283.75 1849.39,-225.87 1755.54,-204.07"/>
<polygon fill="midnightblue" stroke="midnightblue" points="2061.04,-378.87 2053.13,-385.91 2063.71,-385.34 2061.04,-378.87"/>
</g>
<!-- Node35&#45;&gt;Node8 -->
<g id="edge71" class="edge">
<title>Node35&#45;&gt;Node8</title>
<path fill="none" stroke="midnightblue" d="M2088.83,-383.75C2153.41,-368.89 2243,-335.19 2243,-262.5 2243,-262.5 2243,-262.5 2243,-193.5 2243,-115.67 2162.9,-133.15 2088,-112 1972.98,-79.53 1615.29,-70.27 1471.13,-67.82"/>
<polygon fill="midnightblue" stroke="midnightblue" points="2087.71,-380.41 2078.7,-385.97 2089.22,-387.25 2087.71,-380.41"/>
</g>
<!-- Node35&#45;&gt;Node13 -->
<g id="edge74" class="edge">
<title>Node35&#45;&gt;Node13</title>
<path fill="none" stroke="midnightblue" d="M1943.78,-385.94C1858.97,-376.64 1721.36,-360.84 1603,-344 1590.43,-342.21 1576.88,-340.08 1564.28,-338.01"/>
<polygon fill="midnightblue" stroke="midnightblue" points="1943.53,-389.43 1953.85,-387.04 1944.29,-382.47 1943.53,-389.43"/>
</g>
<!-- Node35&#45;&gt;Node17 -->
<g id="edge72" class="edge">
<title>Node35&#45;&gt;Node17</title>
<path fill="none" stroke="midnightblue" d="M1943.61,-390.19C1888.1,-387.24 1812.57,-383.29 1746,-380 1403.38,-363.07 1316.9,-371.94 975,-344 946.48,-341.67 914.41,-337.89 890.02,-334.77"/>
<polygon fill="midnightblue" stroke="midnightblue" points="1943.57,-393.69 1953.74,-390.73 1943.94,-386.7 1943.57,-393.69"/>
</g>
<!-- Node35&#45;&gt;Node31 -->
<g id="edge77" class="edge">
<title>Node35&#45;&gt;Node31</title>
<path fill="none" stroke="midnightblue" d="M2024,-375.54C2024,-363.17 2024,-347.62 2024,-338.13"/>
<polygon fill="midnightblue" stroke="midnightblue" points="2020.5,-375.73 2024,-385.73 2027.5,-375.73 2020.5,-375.73"/>
</g>
<!-- Node35&#45;&gt;Node32 -->
<g id="edge78" class="edge">
<title>Node35&#45;&gt;Node32</title>
<path fill="none" stroke="midnightblue" d="M1992.15,-382.1C1958.99,-369.2 1907.94,-349.33 1879,-338.06"/>
<polygon fill="midnightblue" stroke="midnightblue" points="1991.24,-385.5 2001.82,-385.87 1993.77,-378.98 1991.24,-385.5"/>
</g>
<!-- Node36 -->
<g id="node36" class="node">
<title>Node36</title>
<g id="a_node36"><a xlink:href="user__frontend_8h.html" target="_top" xlink:title=" ">
<polygon fill="white" stroke="black" points="1923.5,-118 1923.5,-137 2078.5,-137 2078.5,-118 1923.5,-118"/>
<text text-anchor="middle" x="2001" y="-125" font-family="Helvetica,sans-Serif" font-size="10.00">src/node/rpc/user_frontend.h</text>
</a>
</g>
</g>
<!-- Node35&#45;&gt;Node36 -->
<g id="edge75" class="edge">
<title>Node35&#45;&gt;Node36</title>
<path fill="none" stroke="midnightblue" d="M2084.32,-383.32C2110.05,-375.91 2138.75,-363.75 2159,-344 2191.34,-312.46 2207.76,-285.59 2186,-246 2152.65,-185.31 2073.21,-151.53 2030.08,-137.06"/>
<polygon fill="midnightblue" stroke="midnightblue" points="2083.37,-379.95 2074.63,-385.94 2085.2,-386.71 2083.37,-379.95"/>
</g>
<!-- Node37 -->
<g id="node37" class="node">
<title>Node37</title>
<g id="a_node37"><a xlink:href="snapshotter_8h.html" target="_top" xlink:title=" ">
<polygon fill="white" stroke="black" points="2049.5,-252 2049.5,-271 2176.5,-271 2176.5,-252 2049.5,-252"/>
<text text-anchor="middle" x="2113" y="-259" font-family="Helvetica,sans-Serif" font-size="10.00">src/node/snapshotter.h</text>
</a>
</g>
</g>
<!-- Node35&#45;&gt;Node37 -->
<g id="edge79" class="edge">
<title>Node35&#45;&gt;Node37</title>
<path fill="none" stroke="midnightblue" d="M2085.81,-383.02C2107.65,-375.67 2130,-363.64 2143,-344 2158.81,-320.11 2134.63,-286.79 2121.11,-271.19"/>
<polygon fill="midnightblue" stroke="midnightblue" points="2084.7,-379.7 2076.18,-385.99 2086.76,-386.39 2084.7,-379.7"/>
</g>
<!-- Node36&#45;&gt;Node8 -->
<g id="edge76" class="edge">
<title>Node36&#45;&gt;Node8</title>
<path fill="none" stroke="midnightblue" d="M1913.44,-117.68C1792.2,-105.48 1576.29,-83.74 1471.05,-73.15"/>
<polygon fill="midnightblue" stroke="midnightblue" points="1913.13,-121.17 1923.43,-118.69 1913.83,-114.21 1913.13,-121.17"/>
</g>
<!-- Node37&#45;&gt;Node7 -->
<g id="edge80" class="edge">
<title>Node37&#45;&gt;Node7</title>
<path fill="none" stroke="midnightblue" d="M2058.03,-250.1C2050.3,-248.69 2042.46,-247.29 2035,-246 1943.84,-230.27 1837.61,-213.7 1774.19,-204"/>
<polygon fill="midnightblue" stroke="midnightblue" points="2057.61,-253.58 2068.08,-251.94 2058.87,-246.69 2057.61,-253.58"/>
</g>
</g>
</svg>
