<?xml version="1.0" encoding="UTF-8" standalone="no"?>
<!DOCTYPE svg PUBLIC "-//W3C//DTD SVG 1.1//EN"
 "http://www.w3.org/Graphics/SVG/1.1/DTD/svg11.dtd">
<!-- Generated by graphviz version 2.43.0 (0)
 -->
<!-- Title: src/kv/compacted_version_conflict.h Pages: 1 -->
<!--zoomable 442 -->
<svg id="main" version="1.1" xmlns="http://www.w3.org/2000/svg" xmlns:xlink="http://www.w3.org/1999/xlink" xml:space="preserve" onload="init(evt)">
<style type="text/css"><![CDATA[
.edge:hover path { stroke: red; }
.edge:hover polygon { stroke: red; fill: red; }
]]></style>
<script type="text/javascript"><![CDATA[
var edges = document.getElementsByTagName('g');
if (edges && edges.length) {
  for (var i=0;i<edges.length;i++) {
    if (edges[i].id.substr(0,4)=='edge') {
      edges[i].setAttribute('class','edge');
    }
  }
}
]]></script>
        <defs>
                <circle id="rim" cx="0" cy="0" r="7"/>
                <circle id="rim2" cx="0" cy="0" r="3.5"/>
                <g id="zoomPlus">
                        <use xlink:href="#rim" fill="#404040">
                                <set attributeName="fill" to="#808080" begin="zoomplus.mouseover" end="zoomplus.mouseout"/>
                        </use>
                        <path d="M-4,0h8M0,-4v8" fill="none" stroke="white" stroke-width="1.5" pointer-events="none"/>
                </g>
                <g id="zoomMin">
                        <use xlink:href="#rim" fill="#404040">
                                <set attributeName="fill" to="#808080" begin="zoomminus.mouseover" end="zoomminus.mouseout"/>
                        </use>
                        <path d="M-4,0h8" fill="none" stroke="white" stroke-width="1.5" pointer-events="none"/>
                </g>
                <g id="dirArrow">
                        <path fill="none" stroke="white" stroke-width="1.5" d="M0,-3.0v7 M-2.5,-0.5L0,-3.0L2.5,-0.5"/>
                </g>
               <g id="resetDef">
                       <use xlink:href="#rim2" fill="#404040">
                               <set attributeName="fill" to="#808080" begin="reset.mouseover" end="reset.mouseout"/>
                       </use>
               </g>
        </defs>

<script type="text/javascript">
var viewWidth = 522;
var viewHeight = 442;
var sectionId = 'dynsection-1';
</script>
<script xlink:href="svgpan.js"/>
<svg id="graph" class="graph">
<g id="viewport">
<title>src/kv/compacted_version_conflict.h</title>
<polygon fill="white" stroke="transparent" points="-4,4 -4,-438 517.5,-438 517.5,4 -4,4"/>
<!-- Node1 -->
<g id="node1" class="node">
<title>Node1</title>
<g id="a_node1"><a xlink:title=" ">
<polygon fill="#bfbfbf" stroke="black" points="68,-403.5 68,-433.5 212,-433.5 212,-403.5 68,-403.5"/>
<text text-anchor="start" x="76" y="-421.5" font-family="Helvetica,sans-Serif" font-size="10.00">src/kv/compacted_version</text>
<text text-anchor="middle" x="140" y="-410.5" font-family="Helvetica,sans-Serif" font-size="10.00">_conflict.h</text>
</a>
</g>
</g>
<!-- Node2 -->
<g id="node2" class="node">
<title>Node2</title>
<g id="a_node2"><a xlink:href="tx_8cpp.html" target="_top" xlink:title=" ">
<polygon fill="white" stroke="black" points="39.5,-347.5 39.5,-366.5 118.5,-366.5 118.5,-347.5 39.5,-347.5"/>
<text text-anchor="middle" x="79" y="-354.5" font-family="Helvetica,sans-Serif" font-size="10.00">src/kv/tx.cpp</text>
</a>
</g>
</g>
<!-- Node1&#45;&gt;Node2 -->
<g id="edge1" class="edge">
<title>Node1&#45;&gt;Node2</title>
<path fill="none" stroke="midnightblue" d="M118.27,-396.3C107.8,-386.09 95.82,-374.41 87.88,-366.66"/>
<polygon fill="midnightblue" stroke="midnightblue" points="115.94,-398.92 125.54,-403.4 120.83,-393.91 115.94,-398.92"/>
</g>
<!-- Node3 -->
<g id="node3" class="node">
<title>Node3</title>
<g id="a_node3"><a xlink:href="frontend_8h.html" target="_top" xlink:title=" ">
<polygon fill="white" stroke="black" points="136.5,-347.5 136.5,-366.5 265.5,-366.5 265.5,-347.5 136.5,-347.5"/>
<text text-anchor="middle" x="201" y="-354.5" font-family="Helvetica,sans-Serif" font-size="10.00">src/node/rpc/frontend.h</text>
</a>
</g>
</g>
<!-- Node1&#45;&gt;Node3 -->
<g id="edge2" class="edge">
<title>Node1&#45;&gt;Node3</title>
<path fill="none" stroke="midnightblue" d="M161.73,-396.3C172.2,-386.09 184.18,-374.41 192.12,-366.66"/>
<polygon fill="midnightblue" stroke="midnightblue" points="159.17,-393.91 154.46,-403.4 164.06,-398.92 159.17,-393.91"/>
</g>
<!-- Node4 -->
<g id="node4" class="node">
<title>Node4</title>
<g id="a_node4"><a xlink:href="node__state_8h.html" target="_top" xlink:title=" ">
<polygon fill="white" stroke="black" points="153,-168.5 153,-187.5 277,-187.5 277,-168.5 153,-168.5"/>
<text text-anchor="middle" x="215" y="-175.5" font-family="Helvetica,sans-Serif" font-size="10.00">src/node/node_state.h</text>
</a>
</g>
</g>
<!-- Node3&#45;&gt;Node4 -->
<g id="edge3" class="edge">
<title>Node3&#45;&gt;Node4</title>
<path fill="none" stroke="midnightblue" d="M184.82,-339.96C177.9,-331.98 170.6,-321.75 167,-311 154.71,-274.34 151.63,-259.48 167,-224 173.81,-208.28 189.12,-195.53 200.63,-187.67"/>
<polygon fill="midnightblue" stroke="midnightblue" points="182.35,-342.44 191.71,-347.39 187.48,-337.68 182.35,-342.44"/>
</g>
<!-- Node8 -->
<g id="node8" class="node">
<title>Node8</title>
<g id="a_node8"><a xlink:href="member__frontend_8h.html" target="_top" xlink:title=" ">
<polygon fill="white" stroke="black" points="0,-224.5 0,-254.5 120,-254.5 120,-224.5 0,-224.5"/>
<text text-anchor="start" x="8" y="-242.5" font-family="Helvetica,sans-Serif" font-size="10.00">src/node/rpc/member</text>
<text text-anchor="middle" x="60" y="-231.5" font-family="Helvetica,sans-Serif" font-size="10.00">_frontend.h</text>
</a>
</g>
</g>
<!-- Node3&#45;&gt;Node8 -->
<g id="edge8" class="edge">
<title>Node3&#45;&gt;Node8</title>
<path fill="none" stroke="midnightblue" d="M178.11,-341.99C164.84,-333.54 148.03,-322.26 134,-311 111.58,-293.01 87.9,-269.55 73.54,-254.76"/>
<polygon fill="midnightblue" stroke="midnightblue" points="176.32,-345.01 186.65,-347.36 180.04,-339.08 176.32,-345.01"/>
</g>
<!-- Node9 -->
<g id="node9" class="node">
<title>Node9</title>
<g id="a_node9"><a xlink:href="node__frontend_8h.html" target="_top" xlink:title=" ">
<polygon fill="white" stroke="black" points="176,-291.5 176,-310.5 334,-310.5 334,-291.5 176,-291.5"/>
<text text-anchor="middle" x="255" y="-298.5" font-family="Helvetica,sans-Serif" font-size="10.00">src/node/rpc/node_frontend.h</text>
</a>
</g>
</g>
<!-- Node3&#45;&gt;Node9 -->
<g id="edge10" class="edge">
<title>Node3&#45;&gt;Node9</title>
<path fill="none" stroke="midnightblue" d="M217,-340C226.57,-330.43 238.36,-318.64 246.25,-310.75"/>
<polygon fill="midnightblue" stroke="midnightblue" points="214.51,-337.54 209.92,-347.08 219.46,-342.49 214.51,-337.54"/>
</g>
<!-- Node11 -->
<g id="node11" class="node">
<title>Node11</title>
<g id="a_node11"><a xlink:href="user__frontend_8h.html" target="_top" xlink:title=" ">
<polygon fill="white" stroke="black" points="358.5,-168.5 358.5,-187.5 513.5,-187.5 513.5,-168.5 358.5,-168.5"/>
<text text-anchor="middle" x="436" y="-175.5" font-family="Helvetica,sans-Serif" font-size="10.00">src/node/rpc/user_frontend.h</text>
</a>
</g>
</g>
<!-- Node3&#45;&gt;Node11 -->
<g id="edge14" class="edge">
<title>Node3&#45;&gt;Node11</title>
<path fill="none" stroke="midnightblue" d="M264.83,-345.09C290.86,-338.38 320.15,-327.73 343,-311 390.05,-276.56 422.04,-210.94 432.38,-187.55"/>
<polygon fill="midnightblue" stroke="midnightblue" points="263.92,-341.71 255.03,-347.48 265.58,-348.51 263.92,-341.71"/>
</g>
<!-- Node5 -->
<g id="node5" class="node">
<title>Node5</title>
<g id="a_node5"><a xlink:href="enclave_2enclave_8h.html" target="_top" xlink:title=" ">
<polygon fill="white" stroke="black" points="231,-56.5 231,-75.5 353,-75.5 353,-56.5 231,-56.5"/>
<text text-anchor="middle" x="292" y="-63.5" font-family="Helvetica,sans-Serif" font-size="10.00">src/enclave/enclave.h</text>
</a>
</g>
</g>
<!-- Node4&#45;&gt;Node5 -->
<g id="edge4" class="edge">
<title>Node4&#45;&gt;Node5</title>
<path fill="none" stroke="midnightblue" d="M239.57,-163.01C251.22,-155.24 264.43,-144.59 273,-132 285.04,-114.31 289.56,-88.92 291.17,-75.72"/>
<polygon fill="midnightblue" stroke="midnightblue" points="237.65,-160.07 231.06,-168.37 241.39,-165.99 237.65,-160.07"/>
</g>
<!-- Node7 -->
<g id="node7" class="node">
<title>Node7</title>
<g id="a_node7"><a xlink:href="gov__effects_8h.html" target="_top" xlink:title=" ">
<polygon fill="white" stroke="black" points="120,-112.5 120,-131.5 264,-131.5 264,-112.5 120,-112.5"/>
<text text-anchor="middle" x="192" y="-119.5" font-family="Helvetica,sans-Serif" font-size="10.00">src/node/rpc/gov_effects.h</text>
</a>
</g>
</g>
<!-- Node4&#45;&gt;Node7 -->
<g id="edge6" class="edge">
<title>Node4&#45;&gt;Node7</title>
<path fill="none" stroke="midnightblue" d="M207.2,-158.69C203.32,-149.59 198.82,-139.01 195.73,-131.75"/>
<polygon fill="midnightblue" stroke="midnightblue" points="204.06,-160.25 211.2,-168.08 210.5,-157.51 204.06,-160.25"/>
</g>
<!-- Node6 -->
<g id="node6" class="node">
<title>Node6</title>
<g id="a_node6"><a xlink:href="enclave_2main_8cpp.html" target="_top" xlink:title=" ">
<polygon fill="white" stroke="black" points="232,-0.5 232,-19.5 352,-19.5 352,-0.5 232,-0.5"/>
<text text-anchor="middle" x="292" y="-7.5" font-family="Helvetica,sans-Serif" font-size="10.00">src/enclave/main.cpp</text>
</a>
</g>
</g>
<!-- Node5&#45;&gt;Node6 -->
<g id="edge5" class="edge">
<title>Node5&#45;&gt;Node6</title>
<path fill="none" stroke="midnightblue" d="M292,-45.8C292,-36.91 292,-26.78 292,-19.75"/>
<polygon fill="midnightblue" stroke="midnightblue" points="288.5,-46.08 292,-56.08 295.5,-46.08 288.5,-46.08"/>
</g>
<!-- Node7&#45;&gt;Node5 -->
<g id="edge7" class="edge">
<title>Node7&#45;&gt;Node5</title>
<path fill="none" stroke="midnightblue" d="M217.09,-107.45C235.55,-97.48 260.1,-84.23 275.97,-75.65"/>
<polygon fill="midnightblue" stroke="midnightblue" points="215.2,-104.49 208.07,-112.32 218.53,-110.65 215.2,-104.49"/>
</g>
<!-- Node8&#45;&gt;Node5 -->
<g id="edge9" class="edge">
<title>Node8&#45;&gt;Node5</title>
<path fill="none" stroke="midnightblue" d="M63.09,-214.33C68.06,-185.67 80.58,-138.45 111,-112 143.87,-83.43 192.16,-72.46 230.6,-68.48"/>
<polygon fill="midnightblue" stroke="midnightblue" points="59.62,-213.91 61.54,-224.33 66.53,-214.99 59.62,-213.91"/>
</g>
<!-- Node9&#45;&gt;Node5 -->
<g id="edge11" class="edge">
<title>Node9&#45;&gt;Node5</title>
<path fill="none" stroke="midnightblue" d="M280.86,-285.95C292.01,-278.38 303.87,-267.93 310,-255 339.91,-191.89 307.59,-103.65 295.88,-75.79"/>
<polygon fill="midnightblue" stroke="midnightblue" points="278.81,-283.1 272.2,-291.39 282.53,-289.03 278.81,-283.1"/>
</g>
<!-- Node10 -->
<g id="node10" class="node">
<title>Node10</title>
<g id="a_node10"><a xlink:href="jwt__key__auto__refresh_8h.html" target="_top" xlink:title=" ">
<polygon fill="white" stroke="black" points="176.5,-224.5 176.5,-254.5 301.5,-254.5 301.5,-224.5 176.5,-224.5"/>
<text text-anchor="start" x="184.5" y="-242.5" font-family="Helvetica,sans-Serif" font-size="10.00">src/node/jwt_key_auto</text>
<text text-anchor="middle" x="239" y="-231.5" font-family="Helvetica,sans-Serif" font-size="10.00">_refresh.h</text>
</a>
</g>
</g>
<!-- Node9&#45;&gt;Node10 -->
<g id="edge12" class="edge">
<title>Node9&#45;&gt;Node10</title>
<path fill="none" stroke="midnightblue" d="M250.11,-281.82C247.75,-273.04 244.96,-262.68 242.77,-254.52"/>
<polygon fill="midnightblue" stroke="midnightblue" points="246.73,-282.73 252.71,-291.48 253.49,-280.91 246.73,-282.73"/>
</g>
<!-- Node10&#45;&gt;Node4 -->
<g id="edge13" class="edge">
<title>Node10&#45;&gt;Node4</title>
<path fill="none" stroke="midnightblue" d="M229.48,-214.9C225.61,-205.3 221.38,-194.81 218.49,-187.66"/>
<polygon fill="midnightblue" stroke="midnightblue" points="226.33,-216.43 233.31,-224.4 232.82,-213.82 226.33,-216.43"/>
</g>
<!-- Node11&#45;&gt;Node5 -->
<g id="edge15" class="edge">
<title>Node11&#45;&gt;Node5</title>
<path fill="none" stroke="midnightblue" d="M416.52,-162.12C385.95,-138.77 327.7,-94.27 303.25,-75.59"/>
<polygon fill="midnightblue" stroke="midnightblue" points="414.63,-165.08 424.7,-168.37 418.88,-159.52 414.63,-165.08"/>
</g>
</g>
</svg>
        <g id="navigator" transform="translate(0 0)" fill="#404254">
                <rect fill="#f2f5e9" fill-opacity="0.5" stroke="#606060" stroke-width=".5" x="0" y="0" width="60" height="60"/>
                <use id="zoomplus" xlink:href="#zoomPlus" x="17" y="9" onmousedown="handleZoom(evt,'in')"/>
                <use id="zoomminus" xlink:href="#zoomMin" x="42" y="9" onmousedown="handleZoom(evt,'out')"/>
                <use id="reset" xlink:href="#resetDef" x="30" y="36" onmousedown="handleReset()"/>
                <g id="arrowUp" xlink:href="#dirArrow" transform="translate(30 24)" onmousedown="handlePan(0,-1)">
                  <use xlink:href="#rim" fill="#404040">
                        <set attributeName="fill" to="#808080" begin="arrowUp.mouseover" end="arrowUp.mouseout"/>
                  </use>
                  <path fill="none" stroke="white" stroke-width="1.5" d="M0,-3.0v7 M-2.5,-0.5L0,-3.0L2.5,-0.5"/>
                </g>
                <g id="arrowRight" xlink:href="#dirArrow" transform="rotate(90) translate(36 -43)" onmousedown="handlePan(1,0)">
                  <use xlink:href="#rim" fill="#404040">
                        <set attributeName="fill" to="#808080" begin="arrowRight.mouseover" end="arrowRight.mouseout"/>
                  </use>
                  <path fill="none" stroke="white" stroke-width="1.5" d="M0,-3.0v7 M-2.5,-0.5L0,-3.0L2.5,-0.5"/>
                </g>
                <g id="arrowDown" xlink:href="#dirArrow" transform="rotate(180) translate(-30 -48)" onmousedown="handlePan(0,1)">
                  <use xlink:href="#rim" fill="#404040">
                        <set attributeName="fill" to="#808080" begin="arrowDown.mouseover" end="arrowDown.mouseout"/>
                  </use>
                  <path fill="none" stroke="white" stroke-width="1.5" d="M0,-3.0v7 M-2.5,-0.5L0,-3.0L2.5,-0.5"/>
                </g>
                <g id="arrowLeft" xlink:href="#dirArrow" transform="rotate(270) translate(-36 17)" onmousedown="handlePan(-1,0)">
                  <use xlink:href="#rim" fill="#404040">
                        <set attributeName="fill" to="#808080" begin="arrowLeft.mouseover" end="arrowLeft.mouseout"/>
                  </use>
                  <path fill="none" stroke="white" stroke-width="1.5" d="M0,-3.0v7 M-2.5,-0.5L0,-3.0L2.5,-0.5"/>
                </g>
        </g>
        <svg viewBox="0 0 15 15" width="100%" height="30px" preserveAspectRatio="xMaxYMin meet">
         <g id="arrow_out" transform="scale(0.3 0.3)">
          <a xlink:href="compacted__version__conflict_8h__dep__incl_org.svg" target="_base">
           <rect id="button" ry="5" rx="5" y="6" x="6" height="38" width="38"
                fill="#f2f5e9" fill-opacity="0.5" stroke="#606060" stroke-width="1.0"/>
           <path id="arrow"
             d="M 11.500037,31.436501 C 11.940474,20.09759 22.043105,11.32322 32.158766,21.979434 L 37.068811,17.246167 C 37.068811,17.246167 37.088388,32 37.088388,32 L 22.160133,31.978069 C 22.160133,31.978069 26.997745,27.140456 26.997745,27.140456 C 18.528582,18.264221 13.291696,25.230495 11.500037,31.436501 z"
             style="fill:#404040;"/>
          </a>
         </g>
        </svg>
</svg>
