<?xml version="1.0" encoding="UTF-8" standalone="no"?>
<!DOCTYPE svg PUBLIC "-//W3C//DTD SVG 1.1//EN"
 "http://www.w3.org/Graphics/SVG/1.1/DTD/svg11.dtd">
<!-- Generated by graphviz version 2.43.0 (0)
 -->
<!-- Title: src/apps/js_v8/tmpl/console_global.cpp Pages: 1 -->
<svg width="1174pt" height="207pt"
 viewBox="0.00 0.00 1174.00 207.00" xmlns="http://www.w3.org/2000/svg" xmlns:xlink="http://www.w3.org/1999/xlink">
<g id="graph0" class="graph" transform="scale(1 1) rotate(0) translate(4 203)">
<title>src/apps/js_v8/tmpl/console_global.cpp</title>
<polygon fill="white" stroke="transparent" points="-4,4 -4,-203 1170,-203 1170,4 -4,4"/>
<!-- Node1 -->
<g id="node1" class="node">
<title>Node1</title>
<g id="a_node1"><a xlink:title=" ">
<polygon fill="#bfbfbf" stroke="black" points="351.5,-168.5 351.5,-198.5 464.5,-198.5 464.5,-168.5 351.5,-168.5"/>
<text text-anchor="start" x="359.5" y="-186.5" font-family="Helvetica,sans-Serif" font-size="10.00">src/apps/js_v8/tmpl</text>
<text text-anchor="middle" x="408" y="-175.5" font-family="Helvetica,sans-Serif" font-size="10.00">/console_global.cpp</text>
</a>
</g>
</g>
<!-- Node2 -->
<g id="node2" class="node">
<title>Node2</title>
<g id="a_node2"><a xlink:href="console__global_8h.html" target="_top" xlink:title=" ">
<polygon fill="white" stroke="black" points="17,-112.5 17,-131.5 115,-131.5 115,-112.5 17,-112.5"/>
<text text-anchor="middle" x="66" y="-119.5" font-family="Helvetica,sans-Serif" font-size="10.00">console_global.h</text>
</a>
</g>
</g>
<!-- Node1&#45;&gt;Node2 -->
<g id="edge1" class="edge">
<title>Node1&#45;&gt;Node2</title>
<path fill="none" stroke="midnightblue" d="M351.14,-172.61C288.62,-161.73 188.63,-144.33 125.19,-133.3"/>
<polygon fill="midnightblue" stroke="midnightblue" points="125.4,-129.78 114.95,-131.52 124.2,-136.68 125.4,-129.78"/>
</g>
<!-- Node4 -->
<g id="node4" class="node">
<title>Node4</title>
<g id="a_node4"><a xlink:href="logger_8h.html" target="_top" xlink:title=" ">
<polygon fill="white" stroke="black" points="627.5,-112.5 627.5,-131.5 714.5,-131.5 714.5,-112.5 627.5,-112.5"/>
<text text-anchor="middle" x="671" y="-119.5" font-family="Helvetica,sans-Serif" font-size="10.00">ccf/ds/logger.h</text>
</a>
</g>
</g>
<!-- Node1&#45;&gt;Node4 -->
<g id="edge3" class="edge">
<title>Node1&#45;&gt;Node4</title>
<path fill="none" stroke="midnightblue" d="M464.74,-169.66C512.09,-158.95 578.81,-143.86 623.41,-133.77"/>
<polygon fill="midnightblue" stroke="midnightblue" points="624.43,-137.12 633.41,-131.5 622.89,-130.3 624.43,-137.12"/>
</g>
<!-- Node16 -->
<g id="node16" class="node">
<title>Node16</title>
<g id="a_node16"><a xlink:title=" ">
<polygon fill="white" stroke="#bfbfbf" points="1048,-56.5 1048,-75.5 1104,-75.5 1104,-56.5 1048,-56.5"/>
<text text-anchor="middle" x="1076" y="-63.5" font-family="Helvetica,sans-Serif" font-size="10.00">sstream</text>
</a>
</g>
</g>
<!-- Node1&#45;&gt;Node16 -->
<g id="edge35" class="edge">
<title>Node1&#45;&gt;Node16</title>
<path fill="none" stroke="midnightblue" d="M464.85,-174.47C574.09,-158.69 821,-121.39 1037.79,-76.15"/>
<polygon fill="midnightblue" stroke="midnightblue" points="1038.69,-79.54 1047.76,-74.06 1037.25,-72.69 1038.69,-79.54"/>
</g>
<!-- Node18 -->
<g id="node18" class="node">
<title>Node18</title>
<g id="a_node18"><a xlink:href="template_8h.html" target="_top" xlink:title=" ">
<polygon fill="white" stroke="black" points="200,-112.5 200,-131.5 270,-131.5 270,-112.5 200,-112.5"/>
<text text-anchor="middle" x="235" y="-119.5" font-family="Helvetica,sans-Serif" font-size="10.00">template.h</text>
</a>
</g>
</g>
<!-- Node1&#45;&gt;Node18 -->
<g id="edge19" class="edge">
<title>Node1&#45;&gt;Node18</title>
<path fill="none" stroke="midnightblue" d="M367,-168.4C337.37,-158.21 297.77,-144.59 269.7,-134.93"/>
<polygon fill="midnightblue" stroke="midnightblue" points="270.52,-131.51 259.92,-131.57 268.24,-138.13 270.52,-131.51"/>
</g>
<!-- Node3 -->
<g id="node3" class="node">
<title>Node3</title>
<g id="a_node3"><a xlink:title=" ">
<polygon fill="white" stroke="#bfbfbf" points="0,-0.5 0,-19.5 38,-19.5 38,-0.5 0,-0.5"/>
<text text-anchor="middle" x="19" y="-7.5" font-family="Helvetica,sans-Serif" font-size="10.00">v8.h</text>
</a>
</g>
</g>
<!-- Node2&#45;&gt;Node3 -->
<g id="edge2" class="edge">
<title>Node2&#45;&gt;Node3</title>
<path fill="none" stroke="midnightblue" d="M62.31,-112.37C54.66,-94.46 36.91,-52.92 26.67,-28.95"/>
<polygon fill="midnightblue" stroke="midnightblue" points="29.82,-27.41 22.67,-19.59 23.38,-30.16 29.82,-27.41"/>
</g>
<!-- Node5 -->
<g id="node5" class="node">
<title>Node5</title>
<g id="a_node5"><a xlink:href="enum__formatter_8h.html" target="_top" xlink:title=" ">
<polygon fill="white" stroke="black" points="555,-56.5 555,-75.5 691,-75.5 691,-56.5 555,-56.5"/>
<text text-anchor="middle" x="623" y="-63.5" font-family="Helvetica,sans-Serif" font-size="10.00">ccf/ds/enum_formatter.h</text>
</a>
</g>
</g>
<!-- Node4&#45;&gt;Node5 -->
<g id="edge4" class="edge">
<title>Node4&#45;&gt;Node5</title>
<path fill="none" stroke="midnightblue" d="M663.07,-112.08C656.15,-104.3 645.93,-92.8 637.55,-83.37"/>
<polygon fill="midnightblue" stroke="midnightblue" points="640.04,-80.9 630.78,-75.75 634.81,-85.55 640.04,-80.9"/>
</g>
<!-- Node6 -->
<g id="node6" class="node">
<title>Node6</title>
<g id="a_node6"><a xlink:title=" ">
<polygon fill="white" stroke="#bfbfbf" points="798.5,-0.5 798.5,-19.5 877.5,-19.5 877.5,-0.5 798.5,-0.5"/>
<text text-anchor="middle" x="838" y="-7.5" font-family="Helvetica,sans-Serif" font-size="10.00">fmt/format.h</text>
</a>
</g>
</g>
<!-- Node4&#45;&gt;Node6 -->
<g id="edge13" class="edge">
<title>Node4&#45;&gt;Node6</title>
<path fill="none" stroke="midnightblue" d="M678.2,-112.46C689.87,-99.05 714.11,-72.84 739,-56 759.07,-42.43 783.89,-31.15 803.66,-23.29"/>
<polygon fill="midnightblue" stroke="midnightblue" points="805.14,-26.47 813.2,-19.6 802.61,-19.94 805.14,-26.47"/>
</g>
<!-- Node7 -->
<g id="node7" class="node">
<title>Node7</title>
<g id="a_node7"><a xlink:href="thread__ids_8h.html" target="_top" xlink:title=" ">
<polygon fill="white" stroke="black" points="922,-56.5 922,-75.5 1030,-75.5 1030,-56.5 922,-56.5"/>
<text text-anchor="middle" x="976" y="-63.5" font-family="Helvetica,sans-Serif" font-size="10.00">ccf/ds/thread_ids.h</text>
</a>
</g>
</g>
<!-- Node4&#45;&gt;Node7 -->
<g id="edge6" class="edge">
<title>Node4&#45;&gt;Node7</title>
<path fill="none" stroke="midnightblue" d="M714.7,-113.26C768.11,-103.81 858.67,-87.77 917.9,-77.29"/>
<polygon fill="midnightblue" stroke="midnightblue" points="918.62,-80.71 927.85,-75.52 917.4,-73.82 918.62,-80.71"/>
</g>
<!-- Node12 -->
<g id="node12" class="node">
<title>Node12</title>
<g id="a_node12"><a xlink:title=" ">
<polygon fill="white" stroke="#bfbfbf" points="747.5,-56.5 747.5,-75.5 826.5,-75.5 826.5,-56.5 747.5,-56.5"/>
<text text-anchor="middle" x="787" y="-63.5" font-family="Helvetica,sans-Serif" font-size="10.00">fmt/chrono.h</text>
</a>
</g>
</g>
<!-- Node4&#45;&gt;Node12 -->
<g id="edge12" class="edge">
<title>Node4&#45;&gt;Node12</title>
<path fill="none" stroke="midnightblue" d="M689.38,-112.44C708.22,-103.68 737.73,-89.94 759.38,-79.86"/>
<polygon fill="midnightblue" stroke="midnightblue" points="761.12,-82.91 768.71,-75.52 758.16,-76.56 761.12,-82.91"/>
</g>
<!-- Node13 -->
<g id="node13" class="node">
<title>Node13</title>
<g id="a_node13"><a xlink:title=" ">
<polygon fill="white" stroke="#bfbfbf" points="844,-56.5 844,-75.5 904,-75.5 904,-56.5 844,-56.5"/>
<text text-anchor="middle" x="874" y="-63.5" font-family="Helvetica,sans-Serif" font-size="10.00">iostream</text>
</a>
</g>
</g>
<!-- Node4&#45;&gt;Node13 -->
<g id="edge14" class="edge">
<title>Node4&#45;&gt;Node13</title>
<path fill="none" stroke="midnightblue" d="M703.17,-112.44C738.67,-103 795.87,-87.78 834.18,-77.59"/>
<polygon fill="midnightblue" stroke="midnightblue" points="835.21,-80.94 843.97,-74.99 833.41,-74.18 835.21,-80.94"/>
</g>
<!-- Node14 -->
<g id="node14" class="node">
<title>Node14</title>
<g id="a_node14"><a xlink:title=" ">
<polygon fill="white" stroke="#bfbfbf" points="401,-0.5 401,-19.5 511,-19.5 511,-0.5 401,-0.5"/>
<text text-anchor="middle" x="456" y="-7.5" font-family="Helvetica,sans-Serif" font-size="10.00">nlohmann/json.hpp</text>
</a>
</g>
</g>
<!-- Node4&#45;&gt;Node14 -->
<g id="edge15" class="edge">
<title>Node4&#45;&gt;Node14</title>
<path fill="none" stroke="midnightblue" d="M633.71,-112.45C605.73,-105.13 567.08,-93.06 536,-76 511.65,-62.63 487.41,-41.57 472.1,-27.07"/>
<polygon fill="midnightblue" stroke="midnightblue" points="474.19,-24.22 464.58,-19.77 469.32,-29.24 474.19,-24.22"/>
</g>
<!-- Node15 -->
<g id="node15" class="node">
<title>Node15</title>
<g id="a_node15"><a xlink:title=" ">
<polygon fill="white" stroke="#bfbfbf" points="724,-0.5 724,-19.5 780,-19.5 780,-0.5 724,-0.5"/>
<text text-anchor="middle" x="752" y="-7.5" font-family="Helvetica,sans-Serif" font-size="10.00">optional</text>
</a>
</g>
</g>
<!-- Node4&#45;&gt;Node15 -->
<g id="edge16" class="edge">
<title>Node4&#45;&gt;Node15</title>
<path fill="none" stroke="midnightblue" d="M627.28,-114.49C581.7,-105.86 520.24,-87.86 546,-56 594.01,3.38 639.51,-36.8 714,-20 714.1,-19.98 714.2,-19.96 714.3,-19.93"/>
<polygon fill="midnightblue" stroke="midnightblue" points="714.83,-23.4 723.79,-17.75 713.26,-16.58 714.83,-23.4"/>
</g>
<!-- Node4&#45;&gt;Node16 -->
<g id="edge17" class="edge">
<title>Node4&#45;&gt;Node16</title>
<path fill="none" stroke="midnightblue" d="M714.59,-117.33C781.91,-111.31 915.37,-97.92 1037.86,-76.02"/>
<polygon fill="midnightblue" stroke="midnightblue" points="1038.57,-79.45 1047.79,-74.22 1037.33,-72.56 1038.57,-79.45"/>
</g>
<!-- Node17 -->
<g id="node17" class="node">
<title>Node17</title>
<g id="a_node17"><a xlink:title=" ">
<polygon fill="white" stroke="#bfbfbf" points="391.5,-56.5 391.5,-75.5 460.5,-75.5 460.5,-56.5 391.5,-56.5"/>
<text text-anchor="middle" x="426" y="-63.5" font-family="Helvetica,sans-Serif" font-size="10.00">type_traits</text>
</a>
</g>
</g>
<!-- Node4&#45;&gt;Node17 -->
<g id="edge18" class="edge">
<title>Node4&#45;&gt;Node17</title>
<path fill="none" stroke="midnightblue" d="M632.18,-112.44C588.27,-102.77 516.9,-87.04 470.7,-76.85"/>
<polygon fill="midnightblue" stroke="midnightblue" points="471.2,-73.38 460.68,-74.64 469.69,-80.21 471.2,-73.38"/>
</g>
<!-- Node5&#45;&gt;Node6 -->
<g id="edge5" class="edge">
<title>Node5&#45;&gt;Node6</title>
<path fill="none" stroke="midnightblue" d="M657.07,-56.44C694.18,-47.12 753.66,-32.18 794.21,-22"/>
<polygon fill="midnightblue" stroke="midnightblue" points="795.25,-25.35 804.09,-19.52 793.54,-18.56 795.25,-25.35"/>
</g>
<!-- Node7&#45;&gt;Node6 -->
<g id="edge7" class="edge">
<title>Node7&#45;&gt;Node6</title>
<path fill="none" stroke="midnightblue" d="M954.13,-56.44C931.22,-47.48 895.02,-33.31 869.13,-23.18"/>
<polygon fill="midnightblue" stroke="midnightblue" points="870.35,-19.9 859.76,-19.52 867.8,-26.42 870.35,-19.9"/>
</g>
<!-- Node8 -->
<g id="node8" class="node">
<title>Node8</title>
<g id="a_node8"><a xlink:title=" ">
<polygon fill="white" stroke="#bfbfbf" points="1018,-0.5 1018,-19.5 1104,-19.5 1104,-0.5 1018,-0.5"/>
<text text-anchor="middle" x="1061" y="-7.5" font-family="Helvetica,sans-Serif" font-size="10.00">fmt/ostream.h</text>
</a>
</g>
</g>
<!-- Node7&#45;&gt;Node8 -->
<g id="edge8" class="edge">
<title>Node7&#45;&gt;Node8</title>
<path fill="none" stroke="midnightblue" d="M989.66,-56.32C1002.92,-47.9 1023.27,-34.97 1038.85,-25.07"/>
<polygon fill="midnightblue" stroke="midnightblue" points="1040.81,-27.97 1047.38,-19.65 1037.06,-22.06 1040.81,-27.97"/>
</g>
<!-- Node9 -->
<g id="node9" class="node">
<title>Node9</title>
<g id="a_node9"><a xlink:title=" ">
<polygon fill="white" stroke="#bfbfbf" points="1122,-0.5 1122,-19.5 1166,-19.5 1166,-0.5 1122,-0.5"/>
<text text-anchor="middle" x="1144" y="-7.5" font-family="Helvetica,sans-Serif" font-size="10.00">limits</text>
</a>
</g>
</g>
<!-- Node7&#45;&gt;Node9 -->
<g id="edge9" class="edge">
<title>Node7&#45;&gt;Node9</title>
<path fill="none" stroke="midnightblue" d="M1002.62,-56.44C1032.34,-46.89 1080.42,-31.44 1112.12,-21.25"/>
<polygon fill="midnightblue" stroke="midnightblue" points="1113.35,-24.53 1121.8,-18.14 1111.21,-17.86 1113.35,-24.53"/>
</g>
<!-- Node10 -->
<g id="node10" class="node">
<title>Node10</title>
<g id="a_node10"><a xlink:title=" ">
<polygon fill="white" stroke="#bfbfbf" points="896,-0.5 896,-19.5 934,-19.5 934,-0.5 896,-0.5"/>
<text text-anchor="middle" x="915" y="-7.5" font-family="Helvetica,sans-Serif" font-size="10.00">map</text>
</a>
</g>
</g>
<!-- Node7&#45;&gt;Node10 -->
<g id="edge10" class="edge">
<title>Node7&#45;&gt;Node10</title>
<path fill="none" stroke="midnightblue" d="M966.2,-56.32C957.18,-48.34 943.59,-36.31 932.68,-26.65"/>
<polygon fill="midnightblue" stroke="midnightblue" points="934.79,-23.84 924.98,-19.83 930.15,-29.08 934.79,-23.84"/>
</g>
<!-- Node11 -->
<g id="node11" class="node">
<title>Node11</title>
<g id="a_node11"><a xlink:title=" ">
<polygon fill="white" stroke="#bfbfbf" points="952,-0.5 952,-19.5 1000,-19.5 1000,-0.5 952,-0.5"/>
<text text-anchor="middle" x="976" y="-7.5" font-family="Helvetica,sans-Serif" font-size="10.00">thread</text>
</a>
</g>
</g>
<!-- Node7&#45;&gt;Node11 -->
<g id="edge11" class="edge">
<title>Node7&#45;&gt;Node11</title>
<path fill="none" stroke="midnightblue" d="M976,-56.08C976,-49.01 976,-38.86 976,-29.99"/>
<polygon fill="midnightblue" stroke="midnightblue" points="979.5,-29.75 976,-19.75 972.5,-29.75 979.5,-29.75"/>
</g>
<!-- Node18&#45;&gt;Node3 -->
<g id="edge34" class="edge">
<title>Node18&#45;&gt;Node3</title>
<path fill="none" stroke="midnightblue" d="M199.76,-113.44C170.94,-106.35 129.75,-94.1 97,-76 73.05,-62.76 49.46,-41.67 34.61,-27.13"/>
<polygon fill="midnightblue" stroke="midnightblue" points="36.84,-24.42 27.3,-19.81 31.89,-29.36 36.84,-24.42"/>
</g>
<!-- Node19 -->
<g id="node19" class="node">
<title>Node19</title>
<g id="a_node19"><a xlink:href="v8__runner_8h.html" target="_top" xlink:title=" ">
<polygon fill="white" stroke="black" points="239,-56.5 239,-75.5 313,-75.5 313,-56.5 239,-56.5"/>
<text text-anchor="middle" x="276" y="-63.5" font-family="Helvetica,sans-Serif" font-size="10.00">v8_runner.h</text>
</a>
</g>
</g>
<!-- Node18&#45;&gt;Node19 -->
<g id="edge20" class="edge">
<title>Node18&#45;&gt;Node19</title>
<path fill="none" stroke="midnightblue" d="M241.77,-112.08C247.56,-104.46 256.06,-93.26 263.14,-83.94"/>
<polygon fill="midnightblue" stroke="midnightblue" points="266.1,-85.83 269.36,-75.75 260.52,-81.6 266.1,-85.83"/>
</g>
<!-- Node26 -->
<g id="node26" class="node">
<title>Node26</title>
<g id="a_node26"><a xlink:href="v8__util_8h.html" target="_top" xlink:title=" ">
<polygon fill="white" stroke="black" points="106.5,-56.5 106.5,-75.5 165.5,-75.5 165.5,-56.5 106.5,-56.5"/>
<text text-anchor="middle" x="136" y="-63.5" font-family="Helvetica,sans-Serif" font-size="10.00">v8_util.h</text>
</a>
</g>
</g>
<!-- Node18&#45;&gt;Node26 -->
<g id="edge29" class="edge">
<title>Node18&#45;&gt;Node26</title>
<path fill="none" stroke="midnightblue" d="M219.09,-112.32C203.36,-103.74 179.06,-90.49 160.79,-80.52"/>
<polygon fill="midnightblue" stroke="midnightblue" points="162.32,-77.37 151.87,-75.65 158.97,-83.52 162.32,-77.37"/>
</g>
<!-- Node19&#45;&gt;Node3 -->
<g id="edge27" class="edge">
<title>Node19&#45;&gt;Node3</title>
<path fill="none" stroke="midnightblue" d="M238.81,-59.07C195.22,-51.82 120.65,-38.47 47.97,-20.01"/>
<polygon fill="midnightblue" stroke="midnightblue" points="48.75,-16.6 38.19,-17.5 47,-23.38 48.75,-16.6"/>
</g>
<!-- Node19&#45;&gt;Node15 -->
<g id="edge23" class="edge">
<title>Node19&#45;&gt;Node15</title>
<path fill="none" stroke="midnightblue" d="M313.02,-61.82C404.06,-53.91 637.03,-33.01 714,-20 714.1,-19.98 714.2,-19.97 714.3,-19.95"/>
<polygon fill="midnightblue" stroke="midnightblue" points="714.71,-23.43 723.86,-18.1 713.38,-16.56 714.71,-23.43"/>
</g>
<!-- Node20 -->
<g id="node20" class="node">
<title>Node20</title>
<g id="a_node20"><a xlink:title=" ">
<polygon fill="white" stroke="#bfbfbf" points="529.5,-0.5 529.5,-19.5 594.5,-19.5 594.5,-0.5 529.5,-0.5"/>
<text text-anchor="middle" x="562" y="-7.5" font-family="Helvetica,sans-Serif" font-size="10.00">functional</text>
</a>
</g>
</g>
<!-- Node19&#45;&gt;Node20 -->
<g id="edge21" class="edge">
<title>Node19&#45;&gt;Node20</title>
<path fill="none" stroke="midnightblue" d="M313.27,-58.47C359.22,-50.34 439.95,-35.82 519.29,-20.09"/>
<polygon fill="midnightblue" stroke="midnightblue" points="520.34,-23.45 529.46,-18.07 518.97,-16.59 520.34,-23.45"/>
</g>
<!-- Node21 -->
<g id="node21" class="node">
<title>Node21</title>
<g id="a_node21"><a xlink:title=" ">
<polygon fill="white" stroke="#bfbfbf" points="176,-0.5 176,-19.5 234,-19.5 234,-0.5 176,-0.5"/>
<text text-anchor="middle" x="205" y="-7.5" font-family="Helvetica,sans-Serif" font-size="10.00">memory</text>
</a>
</g>
</g>
<!-- Node19&#45;&gt;Node21 -->
<g id="edge22" class="edge">
<title>Node19&#45;&gt;Node21</title>
<path fill="none" stroke="midnightblue" d="M264.59,-56.32C253.89,-48.18 237.66,-35.84 224.84,-26.09"/>
<polygon fill="midnightblue" stroke="midnightblue" points="226.69,-23.1 216.61,-19.83 222.46,-28.67 226.69,-23.1"/>
</g>
<!-- Node22 -->
<g id="node22" class="node">
<title>Node22</title>
<g id="a_node22"><a xlink:title=" ">
<polygon fill="white" stroke="#bfbfbf" points="317.5,-0.5 317.5,-19.5 382.5,-19.5 382.5,-0.5 317.5,-0.5"/>
<text text-anchor="middle" x="350" y="-7.5" font-family="Helvetica,sans-Serif" font-size="10.00">stdexcept</text>
</a>
</g>
</g>
<!-- Node19&#45;&gt;Node22 -->
<g id="edge24" class="edge">
<title>Node19&#45;&gt;Node22</title>
<path fill="none" stroke="midnightblue" d="M287.89,-56.32C299.15,-48.11 316.29,-35.6 329.71,-25.81"/>
<polygon fill="midnightblue" stroke="midnightblue" points="331.88,-28.56 337.89,-19.83 327.75,-22.9 331.88,-28.56"/>
</g>
<!-- Node23 -->
<g id="node23" class="node">
<title>Node23</title>
<g id="a_node23"><a xlink:title=" ">
<polygon fill="white" stroke="#bfbfbf" points="114,-0.5 114,-19.5 158,-19.5 158,-0.5 114,-0.5"/>
<text text-anchor="middle" x="136" y="-7.5" font-family="Helvetica,sans-Serif" font-size="10.00">string</text>
</a>
</g>
</g>
<!-- Node19&#45;&gt;Node23 -->
<g id="edge25" class="edge">
<title>Node19&#45;&gt;Node23</title>
<path fill="none" stroke="midnightblue" d="M253.82,-56.44C230.57,-47.48 193.85,-33.31 167.58,-23.18"/>
<polygon fill="midnightblue" stroke="midnightblue" points="168.67,-19.85 158.08,-19.52 166.15,-26.38 168.67,-19.85"/>
</g>
<!-- Node24 -->
<g id="node24" class="node">
<title>Node24</title>
<g id="a_node24"><a xlink:title=" ">
<polygon fill="white" stroke="#bfbfbf" points="612.5,-0.5 612.5,-19.5 705.5,-19.5 705.5,-0.5 612.5,-0.5"/>
<text text-anchor="middle" x="659" y="-7.5" font-family="Helvetica,sans-Serif" font-size="10.00">unordered_map</text>
</a>
</g>
</g>
<!-- Node19&#45;&gt;Node24 -->
<g id="edge26" class="edge">
<title>Node19&#45;&gt;Node24</title>
<path fill="none" stroke="midnightblue" d="M313.31,-60.14C372.29,-52.41 490.93,-36.6 602.21,-20.09"/>
<polygon fill="midnightblue" stroke="midnightblue" points="602.89,-23.53 612.26,-18.59 601.85,-16.6 602.89,-23.53"/>
</g>
<!-- Node25 -->
<g id="node25" class="node">
<title>Node25</title>
<g id="a_node25"><a xlink:title=" ">
<polygon fill="white" stroke="#bfbfbf" points="252.5,-0.5 252.5,-19.5 299.5,-19.5 299.5,-0.5 252.5,-0.5"/>
<text text-anchor="middle" x="276" y="-7.5" font-family="Helvetica,sans-Serif" font-size="10.00">vector</text>
</a>
</g>
</g>
<!-- Node19&#45;&gt;Node25 -->
<g id="edge28" class="edge">
<title>Node19&#45;&gt;Node25</title>
<path fill="none" stroke="midnightblue" d="M276,-56.08C276,-49.01 276,-38.86 276,-29.99"/>
<polygon fill="midnightblue" stroke="midnightblue" points="279.5,-29.75 276,-19.75 272.5,-29.75 279.5,-29.75"/>
</g>
<!-- Node26&#45;&gt;Node3 -->
<g id="edge33" class="edge">
<title>Node26&#45;&gt;Node3</title>
<path fill="none" stroke="midnightblue" d="M117.46,-56.44C98.38,-47.64 68.43,-33.81 46.56,-23.72"/>
<polygon fill="midnightblue" stroke="midnightblue" points="48,-20.53 37.45,-19.52 45.07,-26.88 48,-20.53"/>
</g>
<!-- Node26&#45;&gt;Node14 -->
<g id="edge30" class="edge">
<title>Node26&#45;&gt;Node14</title>
<path fill="none" stroke="midnightblue" d="M165.53,-60.02C217.56,-51.24 326.52,-32.85 395.2,-21.26"/>
<polygon fill="midnightblue" stroke="midnightblue" points="396.17,-24.65 405.45,-19.53 395.01,-17.74 396.17,-24.65"/>
</g>
<!-- Node26&#45;&gt;Node23 -->
<g id="edge32" class="edge">
<title>Node26&#45;&gt;Node23</title>
<path fill="none" stroke="midnightblue" d="M136,-56.08C136,-49.01 136,-38.86 136,-29.99"/>
<polygon fill="midnightblue" stroke="midnightblue" points="139.5,-29.75 136,-19.75 132.5,-29.75 139.5,-29.75"/>
</g>
<!-- Node27 -->
<g id="node27" class="node">
<title>Node27</title>
<g id="a_node27"><a xlink:title=" ">
<polygon fill="white" stroke="#bfbfbf" points="56,-0.5 56,-19.5 96,-19.5 96,-0.5 56,-0.5"/>
<text text-anchor="middle" x="76" y="-7.5" font-family="Helvetica,sans-Serif" font-size="10.00">span</text>
</a>
</g>
</g>
<!-- Node26&#45;&gt;Node27 -->
<g id="edge31" class="edge">
<title>Node26&#45;&gt;Node27</title>
<path fill="none" stroke="midnightblue" d="M126.36,-56.32C117.49,-48.34 104.13,-36.31 93.39,-26.65"/>
<polygon fill="midnightblue" stroke="midnightblue" points="95.59,-23.92 85.82,-19.83 90.91,-29.13 95.59,-23.92"/>
</g>
</g>
</svg>
