<?xml version="1.0" encoding="UTF-8" standalone="no"?>
<!DOCTYPE svg PUBLIC "-//W3C//DTD SVG 1.1//EN"
 "http://www.w3.org/Graphics/SVG/1.1/DTD/svg11.dtd">
<!-- Generated by graphviz version 2.43.0 (0)
 -->
<!-- Title: src/tls/context.h Pages: 1 -->
<svg width="1137pt" height="934pt"
 viewBox="0.00 0.00 1137.05 934.00" xmlns="http://www.w3.org/2000/svg" xmlns:xlink="http://www.w3.org/1999/xlink">
<g id="graph0" class="graph" transform="scale(1 1) rotate(0) translate(4 930)">
<title>src/tls/context.h</title>
<polygon fill="white" stroke="transparent" points="-4,4 -4,-930 1133.05,-930 1133.05,4 -4,4"/>
<!-- Node1 -->
<g id="node1" class="node">
<title>Node1</title>
<g id="a_node1"><a xlink:title=" ">
<polygon fill="#bfbfbf" stroke="black" points="782.55,-906.5 782.55,-925.5 877.55,-925.5 877.55,-906.5 782.55,-906.5"/>
<text text-anchor="middle" x="830.05" y="-913.5" font-family="Helvetica,sans-Serif" font-size="10.00">src/tls/context.h</text>
</a>
</g>
</g>
<!-- Node2 -->
<g id="node2" class="node">
<title>Node2</title>
<g id="a_node2"><a xlink:href="rpc__sessions_8h.html" target="_top" xlink:title=" ">
<polygon fill="white" stroke="black" points="824.05,-498 824.05,-517 970.05,-517 970.05,-498 824.05,-498"/>
<text text-anchor="middle" x="897.05" y="-505" font-family="Helvetica,sans-Serif" font-size="10.00">src/enclave/rpc_sessions.h</text>
</a>
</g>
</g>
<!-- Node1&#45;&gt;Node2 -->
<g id="edge1" class="edge">
<title>Node1&#45;&gt;Node2</title>
<path fill="none" stroke="midnightblue" d="M839.38,-897.37C849.74,-876.09 865.05,-838.93 865.05,-805 865.05,-805 865.05,-805 865.05,-629.5 865.05,-586.04 884.58,-536.63 893.13,-517.1"/>
<polygon fill="midnightblue" stroke="midnightblue" points="836.17,-895.95 834.77,-906.46 842.41,-899.12 836.17,-895.95"/>
</g>
<!-- Node15 -->
<g id="node15" class="node">
<title>Node15</title>
<g id="a_node15"><a xlink:href="tls__endpoint_8h.html" target="_top" xlink:title=" ">
<polygon fill="white" stroke="black" points="507.05,-850.5 507.05,-869.5 651.05,-869.5 651.05,-850.5 507.05,-850.5"/>
<text text-anchor="middle" x="579.05" y="-857.5" font-family="Helvetica,sans-Serif" font-size="10.00">src/enclave/tls_endpoint.h</text>
</a>
</g>
</g>
<!-- Node1&#45;&gt;Node15 -->
<g id="edge23" class="edge">
<title>Node1&#45;&gt;Node15</title>
<path fill="none" stroke="midnightblue" d="M780.23,-904.28C732.8,-894.08 662.35,-878.92 618.64,-869.52"/>
<polygon fill="midnightblue" stroke="midnightblue" points="779.77,-907.76 790.28,-906.44 781.24,-900.92 779.77,-907.76"/>
</g>
<!-- Node33 -->
<g id="node33" class="node">
<title>Node33</title>
<g id="a_node33"><a xlink:href="client_8h.html" target="_top" xlink:title=" ">
<polygon fill="white" stroke="black" points="751.55,-559.5 751.55,-578.5 836.55,-578.5 836.55,-559.5 751.55,-559.5"/>
<text text-anchor="middle" x="794.05" y="-566.5" font-family="Helvetica,sans-Serif" font-size="10.00">src/tls/client.h</text>
</a>
</g>
</g>
<!-- Node1&#45;&gt;Node33 -->
<g id="edge54" class="edge">
<title>Node1&#45;&gt;Node33</title>
<path fill="none" stroke="midnightblue" d="M824.84,-896.39C819.21,-874.65 811.05,-837.51 811.05,-805 811.05,-805 811.05,-805 811.05,-691 811.05,-648.57 800.68,-598.59 796.14,-578.75"/>
<polygon fill="midnightblue" stroke="midnightblue" points="821.51,-897.5 827.49,-906.25 828.27,-895.68 821.51,-897.5"/>
</g>
<!-- Node34 -->
<g id="node34" class="node">
<title>Node34</title>
<g id="a_node34"><a xlink:href="server_8h.html" target="_top" xlink:title=" ">
<polygon fill="white" stroke="black" points="893.05,-794.5 893.05,-813.5 981.05,-813.5 981.05,-794.5 893.05,-794.5"/>
<text text-anchor="middle" x="937.05" y="-801.5" font-family="Helvetica,sans-Serif" font-size="10.00">src/tls/server.h</text>
</a>
</g>
</g>
<!-- Node1&#45;&gt;Node34 -->
<g id="edge57" class="edge">
<title>Node1&#45;&gt;Node34</title>
<path fill="none" stroke="midnightblue" d="M847.74,-899.53C857.23,-891.03 869.02,-880.18 879.05,-870 898.16,-850.61 919.07,-826.35 929.8,-813.66"/>
<polygon fill="midnightblue" stroke="midnightblue" points="845.24,-897.06 840.08,-906.31 849.89,-902.3 845.24,-897.06"/>
</g>
<!-- Node3 -->
<g id="node3" class="node">
<title>Node3</title>
<g id="a_node3"><a xlink:href="enclave_2enclave_8h.html" target="_top" xlink:title=" ">
<polygon fill="white" stroke="black" points="364.05,-56.5 364.05,-75.5 486.05,-75.5 486.05,-56.5 364.05,-56.5"/>
<text text-anchor="middle" x="425.05" y="-63.5" font-family="Helvetica,sans-Serif" font-size="10.00">src/enclave/enclave.h</text>
</a>
</g>
</g>
<!-- Node2&#45;&gt;Node3 -->
<g id="edge2" class="edge">
<title>Node2&#45;&gt;Node3</title>
<path fill="none" stroke="midnightblue" d="M970.6,-495.98C1038.55,-481.62 1129.05,-448.59 1129.05,-374.5 1129.05,-374.5 1129.05,-374.5 1129.05,-182.5 1129.05,-117.63 657.57,-81.58 486.3,-70.63"/>
<polygon fill="midnightblue" stroke="midnightblue" points="969.86,-492.56 960.75,-497.97 971.25,-499.42 969.86,-492.56"/>
</g>
<!-- Node5 -->
<g id="node5" class="node">
<title>Node5</title>
<g id="a_node5"><a xlink:href="node__client_8h.html" target="_top" xlink:title=" ">
<polygon fill="white" stroke="black" points="812.05,-431 812.05,-450 938.05,-450 938.05,-431 812.05,-431"/>
<text text-anchor="middle" x="875.05" y="-438" font-family="Helvetica,sans-Serif" font-size="10.00">src/node/node_client.h</text>
</a>
</g>
</g>
<!-- Node2&#45;&gt;Node5 -->
<g id="edge4" class="edge">
<title>Node2&#45;&gt;Node5</title>
<path fill="none" stroke="midnightblue" d="M890.76,-487.91C886.55,-475.49 881.22,-459.72 877.97,-450.13"/>
<polygon fill="midnightblue" stroke="midnightblue" points="887.56,-489.38 894.08,-497.73 894.19,-487.14 887.56,-489.38"/>
</g>
<!-- Node8 -->
<g id="node8" class="node">
<title>Node8</title>
<g id="a_node8"><a xlink:href="node__state_8h.html" target="_top" xlink:title=" ">
<polygon fill="white" stroke="black" points="563.05,-174 563.05,-193 687.05,-193 687.05,-174 563.05,-174"/>
<text text-anchor="middle" x="625.05" y="-181" font-family="Helvetica,sans-Serif" font-size="10.00">src/node/node_state.h</text>
</a>
</g>
</g>
<!-- Node2&#45;&gt;Node8 -->
<g id="edge20" class="edge">
<title>Node2&#45;&gt;Node8</title>
<path fill="none" stroke="midnightblue" d="M916.66,-491.18C927.12,-482.03 939.39,-469.56 947.05,-456 962.17,-429.26 960.24,-419.48 964.05,-389 969.33,-346.77 956.36,-329.7 924.05,-302 849.52,-238.12 736.14,-206.54 672.56,-193.04"/>
<polygon fill="midnightblue" stroke="midnightblue" points="914.2,-488.67 908.77,-497.77 918.69,-494.04 914.2,-488.67"/>
</g>
<!-- Node14 -->
<g id="node14" class="node">
<title>Node14</title>
<g id="a_node14"><a xlink:href="resharing_8h.html" target="_top" xlink:title=" ">
<polygon fill="white" stroke="black" points="985.05,-241 985.05,-260 1101.05,-260 1101.05,-241 985.05,-241"/>
<text text-anchor="middle" x="1043.05" y="-248" font-family="Helvetica,sans-Serif" font-size="10.00">src/node/resharing.h</text>
</a>
</g>
</g>
<!-- Node2&#45;&gt;Node14 -->
<g id="edge21" class="edge">
<title>Node2&#45;&gt;Node14</title>
<path fill="none" stroke="midnightblue" d="M957.49,-495.1C980.24,-487.73 1004.17,-475.68 1019.05,-456 1065.63,-394.42 1050.69,-291.17 1044.89,-260.41"/>
<polygon fill="midnightblue" stroke="midnightblue" points="956.43,-491.77 947.85,-497.98 958.43,-498.47 956.43,-491.77"/>
</g>
<!-- Node4 -->
<g id="node4" class="node">
<title>Node4</title>
<g id="a_node4"><a xlink:href="enclave_2main_8cpp.html" target="_top" xlink:title=" ">
<polygon fill="white" stroke="black" points="365.05,-0.5 365.05,-19.5 485.05,-19.5 485.05,-0.5 365.05,-0.5"/>
<text text-anchor="middle" x="425.05" y="-7.5" font-family="Helvetica,sans-Serif" font-size="10.00">src/enclave/main.cpp</text>
</a>
</g>
</g>
<!-- Node3&#45;&gt;Node4 -->
<g id="edge3" class="edge">
<title>Node3&#45;&gt;Node4</title>
<path fill="none" stroke="midnightblue" d="M425.05,-45.8C425.05,-36.91 425.05,-26.78 425.05,-19.75"/>
<polygon fill="midnightblue" stroke="midnightblue" points="421.55,-46.08 425.05,-56.08 428.55,-46.08 421.55,-46.08"/>
</g>
<!-- Node6 -->
<g id="node6" class="node">
<title>Node6</title>
<g id="a_node6"><a xlink:href="orc__requests_8h.html" target="_top" xlink:title=" ">
<polygon fill="white" stroke="black" points="673.55,-358.5 673.55,-388.5 792.55,-388.5 792.55,-358.5 673.55,-358.5"/>
<text text-anchor="start" x="681.55" y="-376.5" font-family="Helvetica,sans-Serif" font-size="10.00">src/consensus/aft/orc</text>
<text text-anchor="middle" x="733.05" y="-365.5" font-family="Helvetica,sans-Serif" font-size="10.00">_requests.h</text>
</a>
</g>
</g>
<!-- Node5&#45;&gt;Node6 -->
<g id="edge5" class="edge">
<title>Node5&#45;&gt;Node6</title>
<path fill="none" stroke="midnightblue" d="M846.91,-426.62C822.89,-415.63 788.41,-399.84 763.7,-388.53"/>
<polygon fill="midnightblue" stroke="midnightblue" points="845.65,-429.89 856.19,-430.87 848.56,-423.52 845.65,-429.89"/>
</g>
<!-- Node7 -->
<g id="node7" class="node">
<title>Node7</title>
<g id="a_node7"><a xlink:href="raft_8h.html" target="_top" xlink:title=" ">
<polygon fill="white" stroke="black" points="785.55,-302.5 785.55,-321.5 914.55,-321.5 914.55,-302.5 785.55,-302.5"/>
<text text-anchor="middle" x="850.05" y="-309.5" font-family="Helvetica,sans-Serif" font-size="10.00">src/consensus/aft/raft.h</text>
</a>
</g>
</g>
<!-- Node5&#45;&gt;Node7 -->
<g id="edge15" class="edge">
<title>Node5&#45;&gt;Node7</title>
<path fill="none" stroke="midnightblue" d="M906.73,-426.28C922.18,-418.01 939.28,-405.73 948.05,-389 954.45,-376.8 955.49,-369.6 948.05,-358 935.87,-339.01 913.45,-327.93 893.12,-321.51"/>
<polygon fill="midnightblue" stroke="midnightblue" points="904.81,-423.32 897.41,-430.91 907.93,-429.59 904.81,-423.32"/>
</g>
<!-- Node12 -->
<g id="node12" class="node">
<title>Node12</title>
<g id="a_node12"><a xlink:href="http__node__client_8h.html" target="_top" xlink:title=" ">
<polygon fill="white" stroke="black" points="635.05,-235.5 635.05,-265.5 745.05,-265.5 745.05,-235.5 635.05,-235.5"/>
<text text-anchor="start" x="643.05" y="-253.5" font-family="Helvetica,sans-Serif" font-size="10.00">src/node/http_node</text>
<text text-anchor="middle" x="690.05" y="-242.5" font-family="Helvetica,sans-Serif" font-size="10.00">_client.h</text>
</a>
</g>
</g>
<!-- Node5&#45;&gt;Node12 -->
<g id="edge16" class="edge">
<title>Node5&#45;&gt;Node12</title>
<path fill="none" stroke="midnightblue" d="M801.7,-431.58C747.82,-424.08 681.15,-410.67 664.05,-389 635.01,-352.19 664.54,-292.73 680.83,-265.7"/>
<polygon fill="midnightblue" stroke="midnightblue" points="801.57,-435.1 811.95,-432.96 802.5,-428.16 801.57,-435.1"/>
</g>
<!-- Node13 -->
<g id="node13" class="node">
<title>Node13</title>
<g id="a_node13"><a xlink:href="retired__nodes__cleanup_8h.html" target="_top" xlink:title=" ">
<polygon fill="white" stroke="black" points="811.05,-358.5 811.05,-388.5 939.05,-388.5 939.05,-358.5 811.05,-358.5"/>
<text text-anchor="start" x="819.05" y="-376.5" font-family="Helvetica,sans-Serif" font-size="10.00">src/node/retired_nodes</text>
<text text-anchor="middle" x="875.05" y="-365.5" font-family="Helvetica,sans-Serif" font-size="10.00">_cleanup.h</text>
</a>
</g>
</g>
<!-- Node5&#45;&gt;Node13 -->
<g id="edge18" class="edge">
<title>Node5&#45;&gt;Node13</title>
<path fill="none" stroke="midnightblue" d="M875.05,-420.41C875.05,-410.22 875.05,-397.9 875.05,-388.59"/>
<polygon fill="midnightblue" stroke="midnightblue" points="871.55,-420.73 875.05,-430.73 878.55,-420.73 871.55,-420.73"/>
</g>
<!-- Node6&#45;&gt;Node7 -->
<g id="edge6" class="edge">
<title>Node6&#45;&gt;Node7</title>
<path fill="none" stroke="midnightblue" d="M769.83,-353.8C790.98,-343.04 816.53,-330.05 833.03,-321.66"/>
<polygon fill="midnightblue" stroke="midnightblue" points="768.11,-350.75 760.78,-358.4 771.28,-356.99 768.11,-350.75"/>
</g>
<!-- Node10 -->
<g id="node10" class="node">
<title>Node10</title>
<g id="a_node10"><a xlink:href="node__frontend_8h.html" target="_top" xlink:title=" ">
<polygon fill="white" stroke="black" points="383.05,-302.5 383.05,-321.5 541.05,-321.5 541.05,-302.5 383.05,-302.5"/>
<text text-anchor="middle" x="462.05" y="-309.5" font-family="Helvetica,sans-Serif" font-size="10.00">src/node/rpc/node_frontend.h</text>
</a>
</g>
</g>
<!-- Node6&#45;&gt;Node10 -->
<g id="edge11" class="edge">
<title>Node6&#45;&gt;Node10</title>
<path fill="none" stroke="midnightblue" d="M663.47,-357.22C611.76,-345.87 543.11,-330.8 500.79,-321.51"/>
<polygon fill="midnightblue" stroke="midnightblue" points="662.73,-360.64 673.24,-359.37 664.23,-353.81 662.73,-360.64"/>
</g>
<!-- Node7&#45;&gt;Node8 -->
<g id="edge7" class="edge">
<title>Node7&#45;&gt;Node8</title>
<path fill="none" stroke="midnightblue" d="M833.74,-295.57C815.47,-278.92 784.42,-252.45 754.05,-235 721.52,-216.31 680.73,-201.65 653.83,-193.04"/>
<polygon fill="midnightblue" stroke="midnightblue" points="831.47,-298.24 841.18,-302.46 836.22,-293.1 831.47,-298.24"/>
</g>
<!-- Node8&#45;&gt;Node3 -->
<g id="edge8" class="edge">
<title>Node8&#45;&gt;Node3</title>
<path fill="none" stroke="midnightblue" d="M624.99,-163.5C623.89,-147.6 619.74,-125.43 606.05,-112 589.06,-95.34 531.9,-82.97 486.31,-75.46"/>
<polygon fill="midnightblue" stroke="midnightblue" points="621.5,-163.88 625.34,-173.75 628.49,-163.64 621.5,-163.88"/>
</g>
<!-- Node9 -->
<g id="node9" class="node">
<title>Node9</title>
<g id="a_node9"><a xlink:href="gov__effects_8h.html" target="_top" xlink:title=" ">
<polygon fill="white" stroke="black" points="453.05,-112.5 453.05,-131.5 597.05,-131.5 597.05,-112.5 453.05,-112.5"/>
<text text-anchor="middle" x="525.05" y="-119.5" font-family="Helvetica,sans-Serif" font-size="10.00">src/node/rpc/gov_effects.h</text>
</a>
</g>
</g>
<!-- Node8&#45;&gt;Node9 -->
<g id="edge9" class="edge">
<title>Node8&#45;&gt;Node9</title>
<path fill="none" stroke="midnightblue" d="M601.93,-168.74C582.61,-157.25 555.68,-141.22 539.35,-131.51"/>
<polygon fill="midnightblue" stroke="midnightblue" points="600.34,-171.87 610.72,-173.98 603.92,-165.85 600.34,-171.87"/>
</g>
<!-- Node9&#45;&gt;Node3 -->
<g id="edge10" class="edge">
<title>Node9&#45;&gt;Node3</title>
<path fill="none" stroke="midnightblue" d="M499.96,-107.45C481.5,-97.48 456.95,-84.23 441.08,-75.65"/>
<polygon fill="midnightblue" stroke="midnightblue" points="498.52,-110.65 508.98,-112.32 501.85,-104.49 498.52,-110.65"/>
</g>
<!-- Node10&#45;&gt;Node3 -->
<g id="edge12" class="edge">
<title>Node10&#45;&gt;Node3</title>
<path fill="none" stroke="midnightblue" d="M453.53,-293.1C450.03,-285 446.28,-275.2 444.05,-266 426.63,-194.16 425.05,-104.1 425.01,-75.88"/>
<polygon fill="midnightblue" stroke="midnightblue" points="450.37,-294.62 457.69,-302.28 456.75,-291.73 450.37,-294.62"/>
</g>
<!-- Node11 -->
<g id="node11" class="node">
<title>Node11</title>
<g id="a_node11"><a xlink:href="jwt__key__auto__refresh_8h.html" target="_top" xlink:title=" ">
<polygon fill="white" stroke="black" points="453.55,-235.5 453.55,-265.5 578.55,-265.5 578.55,-235.5 453.55,-235.5"/>
<text text-anchor="start" x="461.55" y="-253.5" font-family="Helvetica,sans-Serif" font-size="10.00">src/node/jwt_key_auto</text>
<text text-anchor="middle" x="516.05" y="-242.5" font-family="Helvetica,sans-Serif" font-size="10.00">_refresh.h</text>
</a>
</g>
</g>
<!-- Node10&#45;&gt;Node11 -->
<g id="edge13" class="edge">
<title>Node10&#45;&gt;Node11</title>
<path fill="none" stroke="midnightblue" d="M476.74,-294.81C485.06,-285.65 495.36,-274.3 503.32,-265.52"/>
<polygon fill="midnightblue" stroke="midnightblue" points="473.92,-292.72 469.79,-302.48 479.1,-297.42 473.92,-292.72"/>
</g>
<!-- Node11&#45;&gt;Node8 -->
<g id="edge14" class="edge">
<title>Node11&#45;&gt;Node8</title>
<path fill="none" stroke="midnightblue" d="M548.51,-230.14C569.23,-217.79 595.06,-202.39 610.79,-193.01"/>
<polygon fill="midnightblue" stroke="midnightblue" points="546.5,-227.27 539.7,-235.4 550.08,-233.28 546.5,-227.27"/>
</g>
<!-- Node12&#45;&gt;Node8 -->
<g id="edge17" class="edge">
<title>Node12&#45;&gt;Node8</title>
<path fill="none" stroke="midnightblue" d="M668.55,-228C656.68,-216.13 642.6,-202.05 633.75,-193.19"/>
<polygon fill="midnightblue" stroke="midnightblue" points="666.4,-230.8 675.95,-235.4 671.35,-225.85 666.4,-230.8"/>
</g>
<!-- Node13&#45;&gt;Node7 -->
<g id="edge19" class="edge">
<title>Node13&#45;&gt;Node7</title>
<path fill="none" stroke="midnightblue" d="M865.13,-348.9C861.1,-339.3 856.69,-328.81 853.69,-321.66"/>
<polygon fill="midnightblue" stroke="midnightblue" points="862.03,-350.54 869.13,-358.4 868.48,-347.82 862.03,-350.54"/>
</g>
<!-- Node14&#45;&gt;Node8 -->
<g id="edge22" class="edge">
<title>Node14&#45;&gt;Node8</title>
<path fill="none" stroke="midnightblue" d="M992.91,-239.04C985.59,-237.62 978.13,-236.23 971.05,-235 872.06,-217.82 756.46,-201.75 687.09,-192.53"/>
<polygon fill="midnightblue" stroke="midnightblue" points="992.27,-242.48 1002.76,-240.99 993.63,-235.62 992.27,-242.48"/>
</g>
<!-- Node16 -->
<g id="node16" class="node">
<title>Node16</title>
<g id="a_node16"><a xlink:href="http__parser_8h.html" target="_top" xlink:title=" ">
<polygon fill="white" stroke="black" points="435.05,-738.5 435.05,-757.5 555.05,-757.5 555.05,-738.5 435.05,-738.5"/>
<text text-anchor="middle" x="495.05" y="-745.5" font-family="Helvetica,sans-Serif" font-size="10.00">src/http/http_parser.h</text>
</a>
</g>
</g>
<!-- Node15&#45;&gt;Node16 -->
<g id="edge24" class="edge">
<title>Node15&#45;&gt;Node16</title>
<path fill="none" stroke="midnightblue" d="M576.56,-839.94C573.99,-826.13 568.92,-807.58 559.05,-794 547.24,-777.74 527.69,-765.24 513.3,-757.59"/>
<polygon fill="midnightblue" stroke="midnightblue" points="573.16,-840.87 578.17,-850.2 580.08,-839.78 573.16,-840.87"/>
</g>
<!-- Node32 -->
<g id="node32" class="node">
<title>Node32</title>
<g id="a_node32"><a xlink:href="http__proc_8h.html" target="_top" xlink:title=" ">
<polygon fill="white" stroke="black" points="439.55,-794.5 439.55,-813.5 550.55,-813.5 550.55,-794.5 439.55,-794.5"/>
<text text-anchor="middle" x="495.05" y="-801.5" font-family="Helvetica,sans-Serif" font-size="10.00">src/http/http_proc.h</text>
</a>
</g>
</g>
<!-- Node15&#45;&gt;Node32 -->
<g id="edge52" class="edge">
<title>Node15&#45;&gt;Node32</title>
<path fill="none" stroke="midnightblue" d="M557.12,-844.9C541.72,-835 521.61,-822.07 508.51,-813.65"/>
<polygon fill="midnightblue" stroke="midnightblue" points="555.25,-847.86 565.56,-850.32 559.04,-841.97 555.25,-847.86"/>
</g>
<!-- Node17 -->
<g id="node17" class="node">
<title>Node17</title>
<g id="a_node17"><a xlink:href="rpc__tls__client_8h.html" target="_top" xlink:title=" ">
<polygon fill="white" stroke="black" points="203.55,-615.5 203.55,-645.5 304.55,-645.5 304.55,-615.5 203.55,-615.5"/>
<text text-anchor="start" x="211.55" y="-633.5" font-family="Helvetica,sans-Serif" font-size="10.00">src/clients/rpc_tls</text>
<text text-anchor="middle" x="254.05" y="-622.5" font-family="Helvetica,sans-Serif" font-size="10.00">_client.h</text>
</a>
</g>
</g>
<!-- Node16&#45;&gt;Node17 -->
<g id="edge25" class="edge">
<title>Node16&#45;&gt;Node17</title>
<path fill="none" stroke="midnightblue" d="M462.09,-734.93C439.54,-726.39 409.13,-714.31 383.05,-702 345.43,-684.24 303.42,-660.51 277.86,-645.62"/>
<polygon fill="midnightblue" stroke="midnightblue" points="460.95,-738.24 471.54,-738.48 463.41,-731.69 460.95,-738.24"/>
</g>
<!-- Node22 -->
<g id="node22" class="node">
<title>Node22</title>
<g id="a_node22"><a xlink:href="http__endpoint_8h.html" target="_top" xlink:title=" ">
<polygon fill="white" stroke="black" points="600.55,-559.5 600.55,-578.5 733.55,-578.5 733.55,-559.5 600.55,-559.5"/>
<text text-anchor="middle" x="667.05" y="-566.5" font-family="Helvetica,sans-Serif" font-size="10.00">src/http/http_endpoint.h</text>
</a>
</g>
</g>
<!-- Node16&#45;&gt;Node22 -->
<g id="edge31" class="edge">
<title>Node16&#45;&gt;Node22</title>
<path fill="none" stroke="midnightblue" d="M528.46,-734.54C564.51,-719.31 620.83,-690 651.05,-646 665.4,-625.1 667.3,-593.91 667.3,-578.82"/>
<polygon fill="midnightblue" stroke="midnightblue" points="526.79,-731.44 518.86,-738.47 529.44,-737.92 526.79,-731.44"/>
</g>
<!-- Node23 -->
<g id="node23" class="node">
<title>Node23</title>
<g id="a_node23"><a xlink:href="http__jwt_8h.html" target="_top" xlink:title=" ">
<polygon fill="white" stroke="black" points="55.55,-682.5 55.55,-701.5 160.55,-701.5 160.55,-682.5 55.55,-682.5"/>
<text text-anchor="middle" x="108.05" y="-689.5" font-family="Helvetica,sans-Serif" font-size="10.00">src/http/http_jwt.h</text>
</a>
</g>
</g>
<!-- Node16&#45;&gt;Node23 -->
<g id="edge33" class="edge">
<title>Node16&#45;&gt;Node23</title>
<path fill="none" stroke="midnightblue" d="M425.04,-737.23C348.99,-726.62 229.25,-709.91 160.77,-700.36"/>
<polygon fill="midnightblue" stroke="midnightblue" points="424.62,-740.71 435.01,-738.62 425.59,-733.77 424.62,-740.71"/>
</g>
<!-- Node28 -->
<g id="node28" class="node">
<title>Node28</title>
<g id="a_node28"><a xlink:href="http__rpc__context_8h.html" target="_top" xlink:title=" ">
<polygon fill="white" stroke="black" points="495.55,-621 495.55,-640 642.55,-640 642.55,-621 495.55,-621"/>
<text text-anchor="middle" x="569.05" y="-628" font-family="Helvetica,sans-Serif" font-size="10.00">src/http/http_rpc_context.h</text>
</a>
</g>
</g>
<!-- Node16&#45;&gt;Node28 -->
<g id="edge42" class="edge">
<title>Node16&#45;&gt;Node28</title>
<path fill="none" stroke="midnightblue" d="M506.04,-729.84C522.05,-704.86 551.2,-659.36 563.42,-640.28"/>
<polygon fill="midnightblue" stroke="midnightblue" points="503.06,-728.01 500.61,-738.32 508.96,-731.79 503.06,-728.01"/>
</g>
<!-- Node30 -->
<g id="node30" class="node">
<title>Node30</title>
<g id="a_node30"><a xlink:href="http__sig_8h.html" target="_top" xlink:title=" ">
<polygon fill="white" stroke="black" points="392.05,-682.5 392.05,-701.5 496.05,-701.5 496.05,-682.5 392.05,-682.5"/>
<text text-anchor="middle" x="444.05" y="-689.5" font-family="Helvetica,sans-Serif" font-size="10.00">src/http/http_sig.h</text>
</a>
</g>
</g>
<!-- Node16&#45;&gt;Node30 -->
<g id="edge48" class="edge">
<title>Node16&#45;&gt;Node30</title>
<path fill="none" stroke="midnightblue" d="M479.67,-730.72C470.68,-721.2 459.69,-709.56 452.32,-701.75"/>
<polygon fill="midnightblue" stroke="midnightblue" points="477.22,-733.22 486.63,-738.08 482.31,-728.41 477.22,-733.22"/>
</g>
<!-- Node18 -->
<g id="node18" class="node">
<title>Node18</title>
<g id="a_node18"><a xlink:href="perf__client_8h.html" target="_top" xlink:title=" ">
<polygon fill="white" stroke="black" points="140.55,-492.5 140.55,-522.5 251.55,-522.5 251.55,-492.5 140.55,-492.5"/>
<text text-anchor="start" x="148.55" y="-510.5" font-family="Helvetica,sans-Serif" font-size="10.00">src/clients/perf/perf</text>
<text text-anchor="middle" x="196.05" y="-499.5" font-family="Helvetica,sans-Serif" font-size="10.00">_client.h</text>
</a>
</g>
</g>
<!-- Node17&#45;&gt;Node18 -->
<g id="edge26" class="edge">
<title>Node17&#45;&gt;Node18</title>
<path fill="none" stroke="midnightblue" d="M258.41,-605.29C259.84,-591.17 259.64,-573.36 253.05,-559 246.11,-543.86 232.19,-531.39 219.85,-522.63"/>
<polygon fill="midnightblue" stroke="midnightblue" points="254.94,-604.88 257.09,-615.26 261.88,-605.8 254.94,-604.88"/>
</g>
<!-- Node21 -->
<g id="node21" class="node">
<title>Node21</title>
<g id="a_node21"><a xlink:href="timing_8h.html" target="_top" xlink:title=" ">
<polygon fill="white" stroke="black" points="112.05,-559.5 112.05,-578.5 244.05,-578.5 244.05,-559.5 112.05,-559.5"/>
<text text-anchor="middle" x="178.05" y="-566.5" font-family="Helvetica,sans-Serif" font-size="10.00">src/clients/perf/timing.h</text>
</a>
</g>
</g>
<!-- Node17&#45;&gt;Node21 -->
<g id="edge29" class="edge">
<title>Node17&#45;&gt;Node21</title>
<path fill="none" stroke="midnightblue" d="M228.11,-609.19C214.8,-598.77 199.3,-586.63 189.11,-578.66"/>
<polygon fill="midnightblue" stroke="midnightblue" points="226.01,-611.99 236.04,-615.4 230.32,-606.48 226.01,-611.99"/>
</g>
<!-- Node19 -->
<g id="node19" class="node">
<title>Node19</title>
<g id="a_node19"><a xlink:href="tpcc__client_8cpp.html" target="_top" xlink:title=" ">
<polygon fill="white" stroke="black" points="30.05,-425.5 30.05,-455.5 146.05,-455.5 146.05,-425.5 30.05,-425.5"/>
<text text-anchor="start" x="38.05" y="-443.5" font-family="Helvetica,sans-Serif" font-size="10.00">src/apps/tpcc/clients</text>
<text text-anchor="middle" x="88.05" y="-432.5" font-family="Helvetica,sans-Serif" font-size="10.00">/tpcc_client.cpp</text>
</a>
</g>
</g>
<!-- Node18&#45;&gt;Node19 -->
<g id="edge27" class="edge">
<title>Node18&#45;&gt;Node19</title>
<path fill="none" stroke="midnightblue" d="M163.68,-487.02C146.87,-476.9 126.71,-464.77 111.44,-455.58"/>
<polygon fill="midnightblue" stroke="midnightblue" points="162.24,-490.24 172.62,-492.4 165.85,-484.24 162.24,-490.24"/>
</g>
<!-- Node20 -->
<g id="node20" class="node">
<title>Node20</title>
<g id="a_node20"><a xlink:href="scenario__perf__client_8cpp.html" target="_top" xlink:title=" ">
<polygon fill="white" stroke="black" points="164.55,-425.5 164.55,-455.5 297.55,-455.5 297.55,-425.5 164.55,-425.5"/>
<text text-anchor="start" x="172.55" y="-443.5" font-family="Helvetica,sans-Serif" font-size="10.00">src/clients/perf/scenario</text>
<text text-anchor="middle" x="231.05" y="-432.5" font-family="Helvetica,sans-Serif" font-size="10.00">_perf_client.cpp</text>
</a>
</g>
</g>
<!-- Node18&#45;&gt;Node20 -->
<g id="edge28" class="edge">
<title>Node18&#45;&gt;Node20</title>
<path fill="none" stroke="midnightblue" d="M208.4,-483.58C213.42,-474.24 219.07,-463.75 223.47,-455.58"/>
<polygon fill="midnightblue" stroke="midnightblue" points="205.31,-481.93 203.65,-492.4 211.47,-485.25 205.31,-481.93"/>
</g>
<!-- Node21&#45;&gt;Node18 -->
<g id="edge30" class="edge">
<title>Node21&#45;&gt;Node18</title>
<path fill="none" stroke="midnightblue" d="M183.55,-549.82C186.21,-541.04 189.34,-530.68 191.81,-522.52"/>
<polygon fill="midnightblue" stroke="midnightblue" points="180.18,-548.89 180.63,-559.48 186.88,-550.92 180.18,-548.89"/>
</g>
<!-- Node22&#45;&gt;Node2 -->
<g id="edge32" class="edge">
<title>Node22&#45;&gt;Node2</title>
<path fill="none" stroke="midnightblue" d="M709.69,-556.97C754.36,-545.41 823.54,-527.52 864.16,-517.01"/>
<polygon fill="midnightblue" stroke="midnightblue" points="708.81,-553.58 700,-559.48 710.56,-560.36 708.81,-553.58"/>
</g>
<!-- Node24 -->
<g id="node24" class="node">
<title>Node24</title>
<g id="a_node24"><a xlink:href="jwt__auth_8cpp.html" target="_top" xlink:title=" ">
<polygon fill="white" stroke="black" points="30.55,-615.5 30.55,-645.5 185.55,-645.5 185.55,-615.5 30.55,-615.5"/>
<text text-anchor="start" x="38.55" y="-633.5" font-family="Helvetica,sans-Serif" font-size="10.00">src/endpoints/authentication</text>
<text text-anchor="middle" x="108.05" y="-622.5" font-family="Helvetica,sans-Serif" font-size="10.00">/jwt_auth.cpp</text>
</a>
</g>
</g>
<!-- Node23&#45;&gt;Node24 -->
<g id="edge34" class="edge">
<title>Node23&#45;&gt;Node24</title>
<path fill="none" stroke="midnightblue" d="M108.05,-672.23C108.05,-663.59 108.05,-653.5 108.05,-645.52"/>
<polygon fill="midnightblue" stroke="midnightblue" points="104.55,-672.48 108.05,-682.48 111.55,-672.48 104.55,-672.48"/>
</g>
<!-- Node25 -->
<g id="node25" class="node">
<title>Node25</title>
<g id="a_node25"><a xlink:href="frontend_8h.html" target="_top" xlink:title=" ">
<polygon fill="white" stroke="black" points="271.55,-364 271.55,-383 400.55,-383 400.55,-364 271.55,-364"/>
<text text-anchor="middle" x="336.05" y="-371" font-family="Helvetica,sans-Serif" font-size="10.00">src/node/rpc/frontend.h</text>
</a>
</g>
</g>
<!-- Node23&#45;&gt;Node25 -->
<g id="edge35" class="edge">
<title>Node23&#45;&gt;Node25</title>
<path fill="none" stroke="midnightblue" d="M68.03,-678.64C51.27,-671.58 32.96,-661.05 21.05,-646 -0.55,-618.69 2.05,-604.82 2.05,-570 2.05,-570 2.05,-570 2.05,-506.5 2.05,-469.31 -6.15,-450.36 21.05,-425 56.4,-392.05 189.92,-380.55 271.35,-376.58"/>
<polygon fill="midnightblue" stroke="midnightblue" points="67.07,-682.03 77.66,-682.41 69.62,-675.51 67.07,-682.03"/>
</g>
<!-- Node25&#45;&gt;Node8 -->
<g id="edge36" class="edge">
<title>Node25&#45;&gt;Node8</title>
<path fill="none" stroke="midnightblue" d="M343.97,-354.2C350.82,-339.39 361.58,-318.38 374.05,-302 400.14,-267.74 406.63,-256.32 444.05,-235 482.32,-213.2 530.56,-200.35 567.62,-193.07"/>
<polygon fill="midnightblue" stroke="midnightblue" points="340.59,-353.18 339.7,-363.74 346.98,-356.04 340.59,-353.18"/>
</g>
<!-- Node25&#45;&gt;Node10 -->
<g id="edge39" class="edge">
<title>Node25&#45;&gt;Node10</title>
<path fill="none" stroke="midnightblue" d="M363.21,-359.67C387.66,-348.13 422.9,-331.49 444.03,-321.51"/>
<polygon fill="midnightblue" stroke="midnightblue" points="361.65,-356.54 354.1,-363.98 364.64,-362.87 361.65,-356.54"/>
</g>
<!-- Node26 -->
<g id="node26" class="node">
<title>Node26</title>
<g id="a_node26"><a xlink:href="member__frontend_8h.html" target="_top" xlink:title=" ">
<polygon fill="white" stroke="black" points="169.05,-168.5 169.05,-198.5 289.05,-198.5 289.05,-168.5 169.05,-168.5"/>
<text text-anchor="start" x="177.05" y="-186.5" font-family="Helvetica,sans-Serif" font-size="10.00">src/node/rpc/member</text>
<text text-anchor="middle" x="229.05" y="-175.5" font-family="Helvetica,sans-Serif" font-size="10.00">_frontend.h</text>
</a>
</g>
</g>
<!-- Node25&#45;&gt;Node26 -->
<g id="edge37" class="edge">
<title>Node25&#45;&gt;Node26</title>
<path fill="none" stroke="midnightblue" d="M324.35,-355.39C317.87,-345.71 309.78,-333.33 303.05,-322 276.87,-277.96 249.01,-224 236.22,-198.77"/>
<polygon fill="midnightblue" stroke="midnightblue" points="321.47,-357.38 329.98,-363.71 327.27,-353.46 321.47,-357.38"/>
</g>
<!-- Node27 -->
<g id="node27" class="node">
<title>Node27</title>
<g id="a_node27"><a xlink:href="user__frontend_8h.html" target="_top" xlink:title=" ">
<polygon fill="white" stroke="black" points="241.55,-112.5 241.55,-131.5 396.55,-131.5 396.55,-112.5 241.55,-112.5"/>
<text text-anchor="middle" x="319.05" y="-119.5" font-family="Helvetica,sans-Serif" font-size="10.00">src/node/rpc/user_frontend.h</text>
</a>
</g>
</g>
<!-- Node25&#45;&gt;Node27 -->
<g id="edge40" class="edge">
<title>Node25&#45;&gt;Node27</title>
<path fill="none" stroke="midnightblue" d="M334.78,-353.84C331.36,-303.64 322.06,-167.1 319.63,-131.55"/>
<polygon fill="midnightblue" stroke="midnightblue" points="331.29,-354.17 335.47,-363.91 338.28,-353.7 331.29,-354.17"/>
</g>
<!-- Node26&#45;&gt;Node3 -->
<g id="edge38" class="edge">
<title>Node26&#45;&gt;Node3</title>
<path fill="none" stroke="midnightblue" d="M223.29,-158.2C221.25,-143.24 221.61,-124.6 232.05,-112 248.74,-91.87 313.65,-79.78 363.64,-73.28"/>
<polygon fill="midnightblue" stroke="midnightblue" points="219.89,-159.06 225.09,-168.29 226.78,-157.83 219.89,-159.06"/>
</g>
<!-- Node27&#45;&gt;Node3 -->
<g id="edge41" class="edge">
<title>Node27&#45;&gt;Node3</title>
<path fill="none" stroke="midnightblue" d="M345.11,-107.73C364.74,-97.73 391.08,-84.31 408.06,-75.65"/>
<polygon fill="midnightblue" stroke="midnightblue" points="343.4,-104.67 336.08,-112.32 346.58,-110.9 343.4,-104.67"/>
</g>
<!-- Node28&#45;&gt;Node11 -->
<g id="edge44" class="edge">
<title>Node28&#45;&gt;Node11</title>
<path fill="none" stroke="midnightblue" d="M569.05,-610.94C569.05,-587.19 569.05,-544.79 569.05,-508.5 569.05,-508.5 569.05,-508.5 569.05,-372.5 569.05,-340.05 563.52,-331.53 550.05,-302 544.09,-288.92 534.86,-275.49 527.53,-265.77"/>
<polygon fill="midnightblue" stroke="midnightblue" points="565.55,-610.99 569.05,-620.99 572.55,-610.99 565.55,-610.99"/>
</g>
<!-- Node28&#45;&gt;Node22 -->
<g id="edge43" class="edge">
<title>Node28&#45;&gt;Node22</title>
<path fill="none" stroke="midnightblue" d="M591.71,-615.74C610.64,-604.25 637.04,-588.22 653.04,-578.51"/>
<polygon fill="midnightblue" stroke="midnightblue" points="589.82,-612.79 583.09,-620.98 593.46,-618.78 589.82,-612.79"/>
</g>
<!-- Node29 -->
<g id="node29" class="node">
<title>Node29</title>
<g id="a_node29"><a xlink:href="forwarder_8h.html" target="_top" xlink:title=" ">
<polygon fill="white" stroke="black" points="316.05,-431 316.05,-450 450.05,-450 450.05,-431 316.05,-431"/>
<text text-anchor="middle" x="383.05" y="-438" font-family="Helvetica,sans-Serif" font-size="10.00">src/node/rpc/forwarder.h</text>
</a>
</g>
</g>
<!-- Node28&#45;&gt;Node29 -->
<g id="edge45" class="edge">
<title>Node28&#45;&gt;Node29</title>
<path fill="none" stroke="midnightblue" d="M553.44,-613.72C515.72,-575.6 420.58,-479.43 391.58,-450.12"/>
<polygon fill="midnightblue" stroke="midnightblue" points="551.05,-616.29 560.58,-620.93 556.03,-611.36 551.05,-616.29"/>
</g>
<!-- Node29&#45;&gt;Node3 -->
<g id="edge46" class="edge">
<title>Node29&#45;&gt;Node3</title>
<path fill="none" stroke="midnightblue" d="M344.28,-427.97C275.91,-406.46 141.05,-358.3 141.05,-313 141.05,-313 141.05,-313 141.05,-182.5 141.05,-135.44 178.14,-133.41 220.05,-112 265.15,-88.96 321.71,-77.67 363.99,-72.17"/>
<polygon fill="midnightblue" stroke="midnightblue" points="343.27,-431.32 353.86,-430.94 345.35,-424.63 343.27,-431.32"/>
</g>
<!-- Node29&#45;&gt;Node25 -->
<g id="edge47" class="edge">
<title>Node29&#45;&gt;Node25</title>
<path fill="none" stroke="midnightblue" d="M370.69,-422.4C361.56,-409.77 349.5,-393.1 342.29,-383.13"/>
<polygon fill="midnightblue" stroke="midnightblue" points="368.02,-424.68 376.71,-430.73 373.69,-420.58 368.02,-424.68"/>
</g>
<!-- Node30&#45;&gt;Node17 -->
<g id="edge49" class="edge">
<title>Node30&#45;&gt;Node17</title>
<path fill="none" stroke="midnightblue" d="M407.28,-679.48C376.3,-669.78 331.87,-655.87 298.83,-645.52"/>
<polygon fill="midnightblue" stroke="midnightblue" points="406.24,-682.83 416.83,-682.48 408.33,-676.15 406.24,-682.83"/>
</g>
<!-- Node30&#45;&gt;Node28 -->
<g id="edge51" class="edge">
<title>Node30&#45;&gt;Node28</title>
<path fill="none" stroke="midnightblue" d="M471,-678.17C495.25,-666.63 530.21,-649.99 551.17,-640.01"/>
<polygon fill="midnightblue" stroke="midnightblue" points="469.49,-675.02 461.96,-682.48 472.49,-681.34 469.49,-675.02"/>
</g>
<!-- Node31 -->
<g id="node31" class="node">
<title>Node31</title>
<g id="a_node31"><a xlink:href="sig__auth_8cpp.html" target="_top" xlink:title=" ">
<polygon fill="white" stroke="black" points="322.55,-615.5 322.55,-645.5 477.55,-645.5 477.55,-615.5 322.55,-615.5"/>
<text text-anchor="start" x="330.55" y="-633.5" font-family="Helvetica,sans-Serif" font-size="10.00">src/endpoints/authentication</text>
<text text-anchor="middle" x="400.05" y="-622.5" font-family="Helvetica,sans-Serif" font-size="10.00">/sig_auth.cpp</text>
</a>
</g>
</g>
<!-- Node30&#45;&gt;Node31 -->
<g id="edge50" class="edge">
<title>Node30&#45;&gt;Node31</title>
<path fill="none" stroke="midnightblue" d="M431.66,-674.25C424.96,-665.19 416.78,-654.12 410.42,-645.52"/>
<polygon fill="midnightblue" stroke="midnightblue" points="428.99,-676.52 437.75,-682.48 434.62,-672.35 428.99,-676.52"/>
</g>
<!-- Node32&#45;&gt;Node16 -->
<g id="edge53" class="edge">
<title>Node32&#45;&gt;Node16</title>
<path fill="none" stroke="midnightblue" d="M495.05,-783.8C495.05,-774.91 495.05,-764.78 495.05,-757.75"/>
<polygon fill="midnightblue" stroke="midnightblue" points="491.55,-784.08 495.05,-794.08 498.55,-784.08 491.55,-784.08"/>
</g>
<!-- Node33&#45;&gt;Node2 -->
<g id="edge55" class="edge">
<title>Node33&#45;&gt;Node2</title>
<path fill="none" stroke="midnightblue" d="M817.59,-554.4C837.51,-542.9 865.43,-526.77 882.32,-517.01"/>
<polygon fill="midnightblue" stroke="midnightblue" points="815.72,-551.44 808.81,-559.48 819.22,-557.5 815.72,-551.44"/>
</g>
<!-- Node33&#45;&gt;Node8 -->
<g id="edge56" class="edge">
<title>Node33&#45;&gt;Node8</title>
<path fill="none" stroke="midnightblue" d="M743.34,-556.88C687.96,-541.41 607.05,-507.5 607.05,-441.5 607.05,-441.5 607.05,-441.5 607.05,-311 607.05,-266.19 618.26,-213.33 622.99,-193.03"/>
<polygon fill="midnightblue" stroke="midnightblue" points="742.45,-560.27 753.01,-559.48 744.26,-553.51 742.45,-560.27"/>
</g>
<!-- Node34&#45;&gt;Node2 -->
<g id="edge58" class="edge">
<title>Node34&#45;&gt;Node2</title>
<path fill="none" stroke="midnightblue" d="M932.38,-784.36C927.35,-762.58 920.05,-725.42 920.05,-693 920.05,-693 920.05,-693 920.05,-629.5 920.05,-586.73 906.01,-536.94 899.87,-517.2"/>
<polygon fill="midnightblue" stroke="midnightblue" points="929.02,-785.33 934.76,-794.23 935.82,-783.69 929.02,-785.33"/>
</g>
</g>
</svg>
