<?xml version="1.0" encoding="UTF-8" standalone="no"?>
<!DOCTYPE svg PUBLIC "-//W3C//DTD SVG 1.1//EN"
 "http://www.w3.org/Graphics/SVG/1.1/DTD/svg11.dtd">
<!-- Generated by graphviz version 2.43.0 (0)
 -->
<!-- Title: src/node/rpc Pages: 1 -->
<!--zoomable 151 -->
<svg id="main" version="1.1" xmlns="http://www.w3.org/2000/svg" xmlns:xlink="http://www.w3.org/1999/xlink" xml:space="preserve" onload="init(evt)">
<style type="text/css"><![CDATA[
.edge:hover path { stroke: red; }
.edge:hover polygon { stroke: red; fill: red; }
]]></style>
<script type="text/javascript"><![CDATA[
var edges = document.getElementsByTagName('g');
if (edges && edges.length) {
  for (var i=0;i<edges.length;i++) {
    if (edges[i].id.substr(0,4)=='edge') {
      edges[i].setAttribute('class','edge');
    }
  }
}
]]></script>
        <defs>
                <circle id="rim" cx="0" cy="0" r="7"/>
                <circle id="rim2" cx="0" cy="0" r="3.5"/>
                <g id="zoomPlus">
                        <use xlink:href="#rim" fill="#404040">
                                <set attributeName="fill" to="#808080" begin="zoomplus.mouseover" end="zoomplus.mouseout"/>
                        </use>
                        <path d="M-4,0h8M0,-4v8" fill="none" stroke="white" stroke-width="1.5" pointer-events="none"/>
                </g>
                <g id="zoomMin">
                        <use xlink:href="#rim" fill="#404040">
                                <set attributeName="fill" to="#808080" begin="zoomminus.mouseover" end="zoomminus.mouseout"/>
                        </use>
                        <path d="M-4,0h8" fill="none" stroke="white" stroke-width="1.5" pointer-events="none"/>
                </g>
                <g id="dirArrow">
                        <path fill="none" stroke="white" stroke-width="1.5" d="M0,-3.0v7 M-2.5,-0.5L0,-3.0L2.5,-0.5"/>
                </g>
               <g id="resetDef">
                       <use xlink:href="#rim2" fill="#404040">
                               <set attributeName="fill" to="#808080" begin="reset.mouseover" end="reset.mouseout"/>
                       </use>
               </g>
        </defs>

<script type="text/javascript">
var viewWidth = 732;
var viewHeight = 151;
var sectionId = 'dynsection-0';
</script>
<script xlink:href="svgpan.js"/>
<svg id="graph" class="graph">
<g id="viewport">
<title>src/node/rpc</title>
<polygon fill="white" stroke="transparent" points="-4,4 -4,-147 727.5,-147 727.5,4 -4,4"/>
<g id="clust1" class="cluster">
<title>clusterdir_18ae7af74d885898b85cbb543ae51b63</title>
<g id="a_clust1"><a xlink:href="dir_18ae7af74d885898b85cbb543ae51b63.html" target="_top" xlink:title="node">
<polygon fill="#edf0f7" stroke="#7f7f7f" stroke-dasharray="5,2" points="316,-64 316,-135 386,-135 386,-64 316,-64"/>
<text text-anchor="middle" x="351" y="-123" font-family="Helvetica,sans-Serif" font-size="10.00">node</text>
</a>
</g>
</g>
<!-- dir_188b878fa4ae0872503cd2ce8b484e62 -->
<g id="node1" class="node">
<title>dir_188b878fa4ae0872503cd2ce8b484e62</title>
<g id="a_node1"><a xlink:href="dir_188b878fa4ae0872503cd2ce8b484e62.html" target="_top" xlink:title="rpc">
<polygon fill="#edf0f7" stroke="#404040" stroke-width="2" points="378,-108 324,-108 324,-72 378,-72 378,-108"/>
<text text-anchor="middle" x="351" y="-87.5" font-family="Helvetica,sans-Serif" font-size="10.00">rpc</text>
</a>
</g>
</g>
<!-- dir_122f4add68bb94b3fee614989bbbd8f9 -->
<g id="node2" class="node">
<title>dir_122f4add68bb94b3fee614989bbbd8f9</title>
<g id="a_node2"><a xlink:href="dir_122f4add68bb94b3fee614989bbbd8f9.html" target="_top" xlink:title="ds">
<polygon fill="none" stroke="#7f7f7f" points="54,-36 0,-36 0,0 54,0 54,-36"/>
<text text-anchor="middle" x="27" y="-15.5" font-family="Helvetica,sans-Serif" font-size="10.00">ds</text>
</a>
</g>
</g>
<!-- dir_188b878fa4ae0872503cd2ce8b484e62&#45;&gt;dir_122f4add68bb94b3fee614989bbbd8f9 -->
<g id="edge1" class="edge">
<title>dir_188b878fa4ae0872503cd2ce8b484e62&#45;&gt;dir_122f4add68bb94b3fee614989bbbd8f9</title>
<path fill="none" stroke="black" d="M323.83,-86.37C273.68,-81.02 163.34,-66.92 63.81,-35.81"/>
<polygon fill="black" stroke="black" points="64.81,-32.46 54.22,-32.75 62.68,-39.12 64.81,-32.46"/>
<g id="a_edge1&#45;headlabel"><a xlink:href="dir_000035_000014.html" target="_top" xlink:title="1">
<text text-anchor="middle" x="69.1" y="-28.34" font-family="Helvetica,sans-Serif" font-size="10.00">1</text>
</a>
</g>
</g>
<!-- dir_2d29d7dff7c7baf1180920f6796c23ae -->
<g id="node3" class="node">
<title>dir_2d29d7dff7c7baf1180920f6796c23ae</title>
<g id="a_node3"><a xlink:href="dir_2d29d7dff7c7baf1180920f6796c23ae.html" target="_top" xlink:title="http">
<polygon fill="none" stroke="#7f7f7f" points="126,-36 72,-36 72,0 126,0 126,-36"/>
<text text-anchor="middle" x="99" y="-15.5" font-family="Helvetica,sans-Serif" font-size="10.00">http</text>
</a>
</g>
</g>
<!-- dir_188b878fa4ae0872503cd2ce8b484e62&#45;&gt;dir_2d29d7dff7c7baf1180920f6796c23ae -->
<g id="edge2" class="edge">
<title>dir_188b878fa4ae0872503cd2ce8b484e62&#45;&gt;dir_2d29d7dff7c7baf1180920f6796c23ae</title>
<path fill="none" stroke="black" d="M323.89,-84.16C284.24,-76.71 208.14,-60.93 135.97,-35.99"/>
<polygon fill="black" stroke="black" points="136.87,-32.6 126.28,-32.57 134.55,-39.2 136.87,-32.6"/>
<g id="a_edge2&#45;headlabel"><a xlink:href="dir_000035_000019.html" target="_top" xlink:title="2">
<text text-anchor="middle" x="141.21" y="-28.61" font-family="Helvetica,sans-Serif" font-size="10.00">2</text>
</a>
</g>
</g>
<!-- dir_3dcea8250b5ce8d5bc595fbbad3e8f21 -->
<g id="node4" class="node">
<title>dir_3dcea8250b5ce8d5bc595fbbad3e8f21</title>
<g id="a_node4"><a xlink:href="dir_3dcea8250b5ce8d5bc595fbbad3e8f21.html" target="_top" xlink:title="js">
<polygon fill="none" stroke="#7f7f7f" points="198,-36 144,-36 144,0 198,0 198,-36"/>
<text text-anchor="middle" x="171" y="-15.5" font-family="Helvetica,sans-Serif" font-size="10.00">js</text>
</a>
</g>
</g>
<!-- dir_188b878fa4ae0872503cd2ce8b484e62&#45;&gt;dir_3dcea8250b5ce8d5bc595fbbad3e8f21 -->
<g id="edge3" class="edge">
<title>dir_188b878fa4ae0872503cd2ce8b484e62&#45;&gt;dir_3dcea8250b5ce8d5bc595fbbad3e8f21</title>
<path fill="none" stroke="black" d="M323.92,-79.84C296.65,-70.43 253.23,-54.99 207.49,-36.04"/>
<polygon fill="black" stroke="black" points="208.59,-32.7 198.01,-32.07 205.89,-39.16 208.59,-32.7"/>
<g id="a_edge3&#45;headlabel"><a xlink:href="dir_000035_000024.html" target="_top" xlink:title="1">
<text text-anchor="middle" x="213" y="-28.97" font-family="Helvetica,sans-Serif" font-size="10.00">1</text>
</a>
</g>
</g>
<!-- dir_4261af1259721e3e39e0d2dd7354b511 -->
<g id="node5" class="node">
<title>dir_4261af1259721e3e39e0d2dd7354b511</title>
<g id="a_node5"><a xlink:href="dir_4261af1259721e3e39e0d2dd7354b511.html" target="_top" xlink:title="crypto">
<polygon fill="none" stroke="red" stroke-dasharray="5,2" points="270,-36 216,-36 216,0 270,0 270,-36"/>
<text text-anchor="middle" x="243" y="-15.5" font-family="Helvetica,sans-Serif" font-size="10.00">crypto</text>
</a>
</g>
</g>
<!-- dir_188b878fa4ae0872503cd2ce8b484e62&#45;&gt;dir_4261af1259721e3e39e0d2dd7354b511 -->
<g id="edge4" class="edge">
<title>dir_188b878fa4ae0872503cd2ce8b484e62&#45;&gt;dir_4261af1259721e3e39e0d2dd7354b511</title>
<path fill="none" stroke="black" d="M324.58,-71.88C310.59,-62.81 293.22,-51.55 278.11,-41.76"/>
<polygon fill="black" stroke="black" points="279.82,-38.69 269.52,-36.19 276.01,-44.57 279.82,-38.69"/>
<g id="a_edge4&#45;headlabel"><a xlink:href="dir_000035_000012.html" target="_top" xlink:title="2">
<text text-anchor="middle" x="284.38" y="-35.76" font-family="Helvetica,sans-Serif" font-size="10.00">2</text>
</a>
</g>
</g>
<!-- dir_4c8befd6991d7a2e9d66c427274b8c22 -->
<g id="node6" class="node">
<title>dir_4c8befd6991d7a2e9d66c427274b8c22</title>
<g id="a_node6"><a xlink:href="dir_4c8befd6991d7a2e9d66c427274b8c22.html" target="_top" xlink:title="kv">
<polygon fill="none" stroke="#7f7f7f" points="342,-36 288,-36 288,0 342,0 342,-36"/>
<text text-anchor="middle" x="315" y="-15.5" font-family="Helvetica,sans-Serif" font-size="10.00">kv</text>
</a>
</g>
</g>
<!-- dir_188b878fa4ae0872503cd2ce8b484e62&#45;&gt;dir_4c8befd6991d7a2e9d66c427274b8c22 -->
<g id="edge5" class="edge">
<title>dir_188b878fa4ae0872503cd2ce8b484e62&#45;&gt;dir_4c8befd6991d7a2e9d66c427274b8c22</title>
<path fill="none" stroke="black" d="M342.1,-71.7C338,-63.73 333.05,-54.1 328.51,-45.26"/>
<polygon fill="black" stroke="black" points="331.48,-43.4 323.8,-36.1 325.26,-46.6 331.48,-43.4"/>
<g id="a_edge5&#45;headlabel"><a xlink:href="dir_000035_000028.html" target="_top" xlink:title="4">
<text text-anchor="middle" x="335.65" y="-42.79" font-family="Helvetica,sans-Serif" font-size="10.00">4</text>
</a>
</g>
</g>
<!-- dir_4f691f982165d1317925cee58b4b4f56 -->
<g id="node7" class="node">
<title>dir_4f691f982165d1317925cee58b4b4f56</title>
<g id="a_node7"><a xlink:href="dir_4f691f982165d1317925cee58b4b4f56.html" target="_top" xlink:title="service">
<polygon fill="none" stroke="red" stroke-dasharray="5,2" points="414,-36 360,-36 360,0 414,0 414,-36"/>
<text text-anchor="middle" x="387" y="-15.5" font-family="Helvetica,sans-Serif" font-size="10.00">service</text>
</a>
</g>
</g>
<!-- dir_188b878fa4ae0872503cd2ce8b484e62&#45;&gt;dir_4f691f982165d1317925cee58b4b4f56 -->
<g id="edge6" class="edge">
<title>dir_188b878fa4ae0872503cd2ce8b484e62&#45;&gt;dir_4f691f982165d1317925cee58b4b4f56</title>
<path fill="none" stroke="black" d="M359.9,-71.7C364,-63.73 368.95,-54.1 373.49,-45.26"/>
<polygon fill="black" stroke="black" points="376.74,-46.6 378.2,-36.1 370.52,-43.4 376.74,-46.6"/>
<g id="a_edge6&#45;headlabel"><a xlink:href="dir_000035_000039.html" target="_top" xlink:title="5">
<text text-anchor="middle" x="377.62" y="-48.59" font-family="Helvetica,sans-Serif" font-size="10.00">5</text>
</a>
</g>
</g>
<!-- dir_5427940bb9029915fc0c11c1284afde6 -->
<g id="node8" class="node">
<title>dir_5427940bb9029915fc0c11c1284afde6</title>
<g id="a_node8"><a xlink:href="dir_5427940bb9029915fc0c11c1284afde6.html" target="_top" xlink:title="enclave">
<polygon fill="none" stroke="#7f7f7f" points="487.5,-36 432.5,-36 432.5,0 487.5,0 487.5,-36"/>
<text text-anchor="middle" x="460" y="-15.5" font-family="Helvetica,sans-Serif" font-size="10.00">enclave</text>
</a>
</g>
</g>
<!-- dir_188b878fa4ae0872503cd2ce8b484e62&#45;&gt;dir_5427940bb9029915fc0c11c1284afde6 -->
<g id="edge7" class="edge">
<title>dir_188b878fa4ae0872503cd2ce8b484e62&#45;&gt;dir_5427940bb9029915fc0c11c1284afde6</title>
<path fill="none" stroke="black" d="M377.66,-71.88C391.78,-62.81 409.31,-51.55 424.56,-41.76"/>
<polygon fill="black" stroke="black" points="426.71,-44.54 433.23,-36.19 422.93,-38.65 426.71,-44.54"/>
<g id="a_edge7&#45;headlabel"><a xlink:href="dir_000035_000015.html" target="_top" xlink:title="7">
<text text-anchor="middle" x="425.22" y="-46.37" font-family="Helvetica,sans-Serif" font-size="10.00">7</text>
</a>
</g>
</g>
<!-- dir_d44c64559bbebec7f509842c48db8b23 -->
<g id="node9" class="node">
<title>dir_d44c64559bbebec7f509842c48db8b23</title>
<g id="a_node9"><a xlink:href="dir_d44c64559bbebec7f509842c48db8b23.html" target="_top" xlink:title="include">
<polygon fill="none" stroke="red" points="560,-36 506,-36 506,0 560,0 560,-36"/>
<text text-anchor="middle" x="533" y="-15.5" font-family="Helvetica,sans-Serif" font-size="10.00">include</text>
</a>
</g>
</g>
<!-- dir_188b878fa4ae0872503cd2ce8b484e62&#45;&gt;dir_d44c64559bbebec7f509842c48db8b23 -->
<g id="edge8" class="edge">
<title>dir_188b878fa4ae0872503cd2ce8b484e62&#45;&gt;dir_d44c64559bbebec7f509842c48db8b23</title>
<path fill="none" stroke="black" d="M378.2,-79.97C405.89,-70.6 450.2,-55.1 496.67,-35.96"/>
<polygon fill="black" stroke="black" points="498.1,-39.15 505.99,-32.08 495.42,-32.69 498.1,-39.15"/>
<g id="a_edge8&#45;headlabel"><a xlink:href="dir_000035_000021.html" target="_top" xlink:title="59">
<text text-anchor="middle" x="495.88" y="-40.66" font-family="Helvetica,sans-Serif" font-size="10.00">59</text>
</a>
</g>
</g>
<!-- dir_dee301ab18d354d094fb7852349ef839 -->
<g id="node10" class="node">
<title>dir_dee301ab18d354d094fb7852349ef839</title>
<g id="a_node10"><a xlink:href="dir_dee301ab18d354d094fb7852349ef839.html" target="_top" xlink:title="consensus">
<polygon fill="none" stroke="red" stroke-dasharray="5,2" points="646,-36 578,-36 578,0 646,0 646,-36"/>
<text text-anchor="middle" x="612" y="-15.5" font-family="Helvetica,sans-Serif" font-size="10.00">consensus</text>
</a>
</g>
</g>
<!-- dir_188b878fa4ae0872503cd2ce8b484e62&#45;&gt;dir_dee301ab18d354d094fb7852349ef839 -->
<g id="edge9" class="edge">
<title>dir_188b878fa4ae0872503cd2ce8b484e62&#45;&gt;dir_dee301ab18d354d094fb7852349ef839</title>
<path fill="none" stroke="black" d="M378.18,-83.65C417.97,-75.56 494.49,-58.96 568.01,-36.1"/>
<polygon fill="black" stroke="black" points="569.4,-39.33 577.89,-32.98 567.3,-32.65 569.4,-39.33"/>
<g id="a_edge9&#45;headlabel"><a xlink:href="dir_000035_000010.html" target="_top" xlink:title="2">
<text text-anchor="middle" x="566.83" y="-40.62" font-family="Helvetica,sans-Serif" font-size="10.00">2</text>
</a>
</g>
</g>
<!-- dir_fdedb0aba14d44ce9d99bc100e026e6a -->
<g id="node11" class="node">
<title>dir_fdedb0aba14d44ce9d99bc100e026e6a</title>
<g id="a_node11"><a xlink:href="dir_fdedb0aba14d44ce9d99bc100e026e6a.html" target="_top" xlink:title="common">
<polygon fill="none" stroke="#7f7f7f" points="723.5,-36 664.5,-36 664.5,0 723.5,0 723.5,-36"/>
<text text-anchor="middle" x="694" y="-15.5" font-family="Helvetica,sans-Serif" font-size="10.00">common</text>
</a>
</g>
</g>
<!-- dir_188b878fa4ae0872503cd2ce8b484e62&#45;&gt;dir_fdedb0aba14d44ce9d99bc100e026e6a -->
<g id="edge10" class="edge">
<title>dir_188b878fa4ae0872503cd2ce8b484e62&#45;&gt;dir_fdedb0aba14d44ce9d99bc100e026e6a</title>
<path fill="none" stroke="black" d="M378.34,-86.44C432.2,-80.92 555.46,-65.9 655,-36 655.1,-35.97 655.19,-35.94 655.29,-35.91"/>
<polygon fill="black" stroke="black" points="656.16,-39.32 664.46,-32.74 653.87,-32.7 656.16,-39.32"/>
<g id="a_edge10&#45;headlabel"><a xlink:href="dir_000035_000009.html" target="_top" xlink:title="1">
<text text-anchor="middle" x="653.69" y="-40.67" font-family="Helvetica,sans-Serif" font-size="10.00">1</text>
</a>
</g>
</g>
</g>
</svg>
        <g id="navigator" transform="translate(0 0)" fill="#404254">
                <rect fill="#f2f5e9" fill-opacity="0.5" stroke="#606060" stroke-width=".5" x="0" y="0" width="60" height="60"/>
                <use id="zoomplus" xlink:href="#zoomPlus" x="17" y="9" onmousedown="handleZoom(evt,'in')"/>
                <use id="zoomminus" xlink:href="#zoomMin" x="42" y="9" onmousedown="handleZoom(evt,'out')"/>
                <use id="reset" xlink:href="#resetDef" x="30" y="36" onmousedown="handleReset()"/>
                <g id="arrowUp" xlink:href="#dirArrow" transform="translate(30 24)" onmousedown="handlePan(0,-1)">
                  <use xlink:href="#rim" fill="#404040">
                        <set attributeName="fill" to="#808080" begin="arrowUp.mouseover" end="arrowUp.mouseout"/>
                  </use>
                  <path fill="none" stroke="white" stroke-width="1.5" d="M0,-3.0v7 M-2.5,-0.5L0,-3.0L2.5,-0.5"/>
                </g>
                <g id="arrowRight" xlink:href="#dirArrow" transform="rotate(90) translate(36 -43)" onmousedown="handlePan(1,0)">
                  <use xlink:href="#rim" fill="#404040">
                        <set attributeName="fill" to="#808080" begin="arrowRight.mouseover" end="arrowRight.mouseout"/>
                  </use>
                  <path fill="none" stroke="white" stroke-width="1.5" d="M0,-3.0v7 M-2.5,-0.5L0,-3.0L2.5,-0.5"/>
                </g>
                <g id="arrowDown" xlink:href="#dirArrow" transform="rotate(180) translate(-30 -48)" onmousedown="handlePan(0,1)">
                  <use xlink:href="#rim" fill="#404040">
                        <set attributeName="fill" to="#808080" begin="arrowDown.mouseover" end="arrowDown.mouseout"/>
                  </use>
                  <path fill="none" stroke="white" stroke-width="1.5" d="M0,-3.0v7 M-2.5,-0.5L0,-3.0L2.5,-0.5"/>
                </g>
                <g id="arrowLeft" xlink:href="#dirArrow" transform="rotate(270) translate(-36 17)" onmousedown="handlePan(-1,0)">
                  <use xlink:href="#rim" fill="#404040">
                        <set attributeName="fill" to="#808080" begin="arrowLeft.mouseover" end="arrowLeft.mouseout"/>
                  </use>
                  <path fill="none" stroke="white" stroke-width="1.5" d="M0,-3.0v7 M-2.5,-0.5L0,-3.0L2.5,-0.5"/>
                </g>
        </g>
        <svg viewBox="0 0 15 15" width="100%" height="30px" preserveAspectRatio="xMaxYMin meet">
         <g id="arrow_out" transform="scale(0.3 0.3)">
          <a xlink:href="dir_188b878fa4ae0872503cd2ce8b484e62_dep_org.svg" target="_base">
           <rect id="button" ry="5" rx="5" y="6" x="6" height="38" width="38"
                fill="#f2f5e9" fill-opacity="0.5" stroke="#606060" stroke-width="1.0"/>
           <path id="arrow"
             d="M 11.500037,31.436501 C 11.940474,20.09759 22.043105,11.32322 32.158766,21.979434 L 37.068811,17.246167 C 37.068811,17.246167 37.088388,32 37.088388,32 L 22.160133,31.978069 C 22.160133,31.978069 26.997745,27.140456 26.997745,27.140456 C 18.528582,18.264221 13.291696,25.230495 11.500037,31.436501 z"
             style="fill:#404040;"/>
          </a>
         </g>
        </svg>
</svg>
