<?xml version="1.0" encoding="UTF-8" standalone="no"?>
<!DOCTYPE svg PUBLIC "-//W3C//DTD SVG 1.1//EN"
 "http://www.w3.org/Graphics/SVG/1.1/DTD/svg11.dtd">
<!-- Generated by graphviz version 2.43.0 (0)
 -->
<!-- Title: src/apps/js_v8 Pages: 1 -->
<svg width="383pt" height="231pt"
 viewBox="0.00 0.00 383.00 231.00" xmlns="http://www.w3.org/2000/svg" xmlns:xlink="http://www.w3.org/1999/xlink">
<g id="graph0" class="graph" transform="scale(1 1) rotate(0) translate(4 227)">
<title>src/apps/js_v8</title>
<polygon fill="white" stroke="transparent" points="-4,4 -4,-227 379,-227 379,4 -4,4"/>
<g id="clust1" class="cluster">
<title>clusterdir_53adf0b982dc8545998aae3f283a5a58</title>
<g id="a_clust1"><a xlink:href="dir_53adf0b982dc8545998aae3f283a5a58.html" target="_top" xlink:title="apps">
<polygon fill="#edf0f7" stroke="#7f7f7f" stroke-dasharray="5,2" points="123,-56 123,-215 209,-215 209,-56 123,-56"/>
<text text-anchor="middle" x="166" y="-203" font-family="Helvetica,sans-Serif" font-size="10.00">apps</text>
</a>
</g>
</g>
<g id="clust2" class="cluster">
<title>clusterdir_5ec96c263edeb1f5d9ccb226980a5a7c</title>
<g id="a_clust2"><a xlink:href="dir_5ec96c263edeb1f5d9ccb226980a5a7c.html" target="_top">
<polygon fill="#edf0f7" stroke="#404040" stroke-width="2" points="131,-64 131,-188 201,-188 201,-64 131,-64"/>
</a>
</g>
</g>
<!-- dir_5ec96c263edeb1f5d9ccb226980a5a7c -->
<g id="node1" class="node">
<title>dir_5ec96c263edeb1f5d9ccb226980a5a7c</title>
<text text-anchor="middle" x="166" y="-159.5" font-family="Helvetica,sans-Serif" font-size="10.00">js_v8</text>
</g>
<!-- dir_05ff0118862a1fc666797322db30f5d5 -->
<g id="node2" class="node">
<title>dir_05ff0118862a1fc666797322db30f5d5</title>
<g id="a_node2"><a xlink:href="dir_05ff0118862a1fc666797322db30f5d5.html" target="_top" xlink:title="tmpl">
<polygon fill="#a2b4d6" stroke="#404040" points="193,-108 139,-108 139,-72 193,-72 193,-108"/>
<text text-anchor="middle" x="166" y="-87.5" font-family="Helvetica,sans-Serif" font-size="10.00">tmpl</text>
</a>
</g>
</g>
<!-- dir_5ec96c263edeb1f5d9ccb226980a5a7c&#45;&gt;dir_05ff0118862a1fc666797322db30f5d5 -->
<g id="edge1" class="edge">
<title>dir_5ec96c263edeb1f5d9ccb226980a5a7c&#45;&gt;dir_05ff0118862a1fc666797322db30f5d5</title>
<path fill="none" stroke="black" d="M166,-143.7C166,-135.98 166,-126.71 166,-118.11"/>
<polygon fill="black" stroke="black" points="169.5,-118.1 166,-108.1 162.5,-118.1 169.5,-118.1"/>
<g id="a_edge1&#45;headlabel"><a xlink:href="dir_000026_000046.html" target="_top" xlink:title="3">
<text text-anchor="middle" x="172.34" y="-119.2" font-family="Helvetica,sans-Serif" font-size="10.00">3</text>
</a>
</g>
</g>
<!-- dir_18ae7af74d885898b85cbb543ae51b63 -->
<g id="node3" class="node">
<title>dir_18ae7af74d885898b85cbb543ae51b63</title>
<g id="a_node3"><a xlink:href="dir_18ae7af74d885898b85cbb543ae51b63.html" target="_top" xlink:title="node">
<polygon fill="none" stroke="red" stroke-dasharray="5,2" points="54,-36 0,-36 0,0 54,0 54,-36"/>
<text text-anchor="middle" x="27" y="-15.5" font-family="Helvetica,sans-Serif" font-size="10.00">node</text>
</a>
</g>
</g>
<!-- dir_5ec96c263edeb1f5d9ccb226980a5a7c&#45;&gt;dir_18ae7af74d885898b85cbb543ae51b63 -->
<g id="edge2" class="edge">
<title>dir_5ec96c263edeb1f5d9ccb226980a5a7c&#45;&gt;dir_18ae7af74d885898b85cbb543ae51b63</title>
<path fill="none" stroke="black" d="M145.45,-143.92C133.59,-133.81 118.59,-120.56 106,-108 85.32,-87.37 63.4,-62.39 47.9,-44.15"/>
<polygon fill="black" stroke="black" points="50.39,-41.67 41.26,-36.29 45.04,-46.19 50.39,-41.67"/>
<g id="a_edge2&#45;headlabel"><a xlink:href="dir_000026_000032.html" target="_top" xlink:title="2">
<text text-anchor="middle" x="54.88" y="-40.09" font-family="Helvetica,sans-Serif" font-size="10.00">2</text>
</a>
</g>
</g>
<!-- dir_4c8befd6991d7a2e9d66c427274b8c22 -->
<g id="node4" class="node">
<title>dir_4c8befd6991d7a2e9d66c427274b8c22</title>
<g id="a_node4"><a xlink:href="dir_4c8befd6991d7a2e9d66c427274b8c22.html" target="_top" xlink:title="kv">
<polygon fill="none" stroke="#7f7f7f" points="126,-36 72,-36 72,0 126,0 126,-36"/>
<text text-anchor="middle" x="99" y="-15.5" font-family="Helvetica,sans-Serif" font-size="10.00">kv</text>
</a>
</g>
</g>
<!-- dir_5ec96c263edeb1f5d9ccb226980a5a7c&#45;&gt;dir_4c8befd6991d7a2e9d66c427274b8c22 -->
<g id="edge3" class="edge">
<title>dir_5ec96c263edeb1f5d9ccb226980a5a7c&#45;&gt;dir_4c8befd6991d7a2e9d66c427274b8c22</title>
<path fill="none" stroke="black" d="M152.45,-143.57C145.12,-133.56 136.3,-120.52 130,-108 119.94,-87.99 111.77,-63.93 106.35,-45.87"/>
<polygon fill="black" stroke="black" points="109.71,-44.89 103.56,-36.27 102.99,-46.85 109.71,-44.89"/>
<g id="a_edge3&#45;headlabel"><a xlink:href="dir_000026_000028.html" target="_top" xlink:title="2">
<text text-anchor="middle" x="113.44" y="-45.05" font-family="Helvetica,sans-Serif" font-size="10.00">2</text>
</a>
</g>
</g>
<!-- dir_4f691f982165d1317925cee58b4b4f56 -->
<g id="node5" class="node">
<title>dir_4f691f982165d1317925cee58b4b4f56</title>
<g id="a_node5"><a xlink:href="dir_4f691f982165d1317925cee58b4b4f56.html" target="_top" xlink:title="service">
<polygon fill="none" stroke="red" stroke-dasharray="5,2" points="303,-108 249,-108 249,-72 303,-72 303,-108"/>
<text text-anchor="middle" x="276" y="-87.5" font-family="Helvetica,sans-Serif" font-size="10.00">service</text>
</a>
</g>
</g>
<!-- dir_5ec96c263edeb1f5d9ccb226980a5a7c&#45;&gt;dir_4f691f982165d1317925cee58b4b4f56 -->
<g id="edge4" class="edge">
<title>dir_5ec96c263edeb1f5d9ccb226980a5a7c&#45;&gt;dir_4f691f982165d1317925cee58b4b4f56</title>
<path fill="none" stroke="black" d="M192.91,-143.88C207.16,-134.81 224.85,-123.55 240.24,-113.76"/>
<polygon fill="black" stroke="black" points="242.43,-116.51 248.99,-108.19 238.67,-110.61 242.43,-116.51"/>
<g id="a_edge4&#45;headlabel"><a xlink:href="dir_000026_000039.html" target="_top" xlink:title="2">
<text text-anchor="middle" x="240.92" y="-118.34" font-family="Helvetica,sans-Serif" font-size="10.00">2</text>
</a>
</g>
</g>
<!-- dir_84e79ac80b913c2fb5b9e077744e9498 -->
<g id="node6" class="node">
<title>dir_84e79ac80b913c2fb5b9e077744e9498</title>
<g id="a_node6"><a xlink:href="dir_84e79ac80b913c2fb5b9e077744e9498.html" target="_top" xlink:title="host">
<polygon fill="none" stroke="#7f7f7f" points="375,-108 321,-108 321,-72 375,-72 375,-108"/>
<text text-anchor="middle" x="348" y="-87.5" font-family="Helvetica,sans-Serif" font-size="10.00">host</text>
</a>
</g>
</g>
<!-- dir_5ec96c263edeb1f5d9ccb226980a5a7c&#45;&gt;dir_84e79ac80b913c2fb5b9e077744e9498 -->
<g id="edge5" class="edge">
<title>dir_5ec96c263edeb1f5d9ccb226980a5a7c&#45;&gt;dir_84e79ac80b913c2fb5b9e077744e9498</title>
<path fill="none" stroke="black" d="M193.2,-151.97C220.89,-142.6 265.2,-127.1 311.67,-107.96"/>
<polygon fill="black" stroke="black" points="313.1,-111.15 320.99,-104.08 310.42,-104.69 313.1,-111.15"/>
<g id="a_edge5&#45;headlabel"><a xlink:href="dir_000026_000018.html" target="_top" xlink:title="1">
<text text-anchor="middle" x="310.88" y="-112.66" font-family="Helvetica,sans-Serif" font-size="10.00">1</text>
</a>
</g>
</g>
<!-- dir_d44c64559bbebec7f509842c48db8b23 -->
<g id="node7" class="node">
<title>dir_d44c64559bbebec7f509842c48db8b23</title>
<g id="a_node7"><a xlink:href="dir_d44c64559bbebec7f509842c48db8b23.html" target="_top" xlink:title="include">
<polygon fill="none" stroke="red" points="342,-36 288,-36 288,0 342,0 342,-36"/>
<text text-anchor="middle" x="315" y="-15.5" font-family="Helvetica,sans-Serif" font-size="10.00">include</text>
</a>
</g>
</g>
<!-- dir_5ec96c263edeb1f5d9ccb226980a5a7c&#45;&gt;dir_d44c64559bbebec7f509842c48db8b23 -->
<g id="edge6" class="edge">
<title>dir_5ec96c263edeb1f5d9ccb226980a5a7c&#45;&gt;dir_d44c64559bbebec7f509842c48db8b23</title>
<path fill="none" stroke="black" d="M177.73,-143.89C197.57,-115.02 236,-59.42 240,-56 241.75,-54.5 260.19,-45.4 278.34,-36.6"/>
<polygon fill="black" stroke="black" points="280.24,-39.57 287.72,-32.07 277.2,-33.27 280.24,-39.57"/>
<g id="a_edge6&#45;headlabel"><a xlink:href="dir_000026_000021.html" target="_top" xlink:title="48">
<text text-anchor="middle" x="278.24" y="-41.19" font-family="Helvetica,sans-Serif" font-size="10.00">48</text>
</a>
</g>
</g>
<!-- dir_05ff0118862a1fc666797322db30f5d5&#45;&gt;dir_18ae7af74d885898b85cbb543ae51b63 -->
<g id="edge7" class="edge">
<title>dir_05ff0118862a1fc666797322db30f5d5&#45;&gt;dir_18ae7af74d885898b85cbb543ae51b63</title>
<path fill="none" stroke="black" d="M138.87,-75.34C117.25,-64.45 86.78,-49.1 63.1,-37.18"/>
<polygon fill="black" stroke="black" points="64.57,-34 54.06,-32.63 61.42,-40.25 64.57,-34"/>
<g id="a_edge7&#45;headlabel"><a xlink:href="dir_000046_000032.html" target="_top" xlink:title="1">
<text text-anchor="middle" x="69.06" y="-30.58" font-family="Helvetica,sans-Serif" font-size="10.00">1</text>
</a>
</g>
</g>
<!-- dir_05ff0118862a1fc666797322db30f5d5&#45;&gt;dir_4c8befd6991d7a2e9d66c427274b8c22 -->
<g id="edge9" class="edge">
<title>dir_05ff0118862a1fc666797322db30f5d5&#45;&gt;dir_4c8befd6991d7a2e9d66c427274b8c22</title>
<path fill="none" stroke="black" d="M149.44,-71.7C141.32,-63.22 131.41,-52.86 122.53,-43.58"/>
<polygon fill="black" stroke="black" points="124.81,-40.91 115.37,-36.1 119.76,-45.75 124.81,-40.91"/>
<g id="a_edge9&#45;headlabel"><a xlink:href="dir_000046_000028.html" target="_top" xlink:title="1">
<text text-anchor="middle" x="129.35" y="-39.04" font-family="Helvetica,sans-Serif" font-size="10.00">1</text>
</a>
</g>
</g>
<!-- dir_05ff0118862a1fc666797322db30f5d5&#45;&gt;dir_d44c64559bbebec7f509842c48db8b23 -->
<g id="edge11" class="edge">
<title>dir_05ff0118862a1fc666797322db30f5d5&#45;&gt;dir_d44c64559bbebec7f509842c48db8b23</title>
<path fill="none" stroke="black" d="M184.06,-71.82C190.84,-66.12 198.87,-60.17 207,-56 234.01,-42.13 245.79,-46.58 278.03,-35.92"/>
<polygon fill="black" stroke="black" points="279.44,-39.13 287.69,-32.48 277.09,-32.54 279.44,-39.13"/>
<g id="a_edge11&#45;headlabel"><a xlink:href="dir_000046_000021.html" target="_top" xlink:title="35">
<text text-anchor="middle" x="277" y="-40.51" font-family="Helvetica,sans-Serif" font-size="10.00">35</text>
</a>
</g>
</g>
<!-- dir_654fcaaa959505712bb2ecafa3e1042f -->
<g id="node8" class="node">
<title>dir_654fcaaa959505712bb2ecafa3e1042f</title>
<g id="a_node8"><a xlink:href="dir_654fcaaa959505712bb2ecafa3e1042f.html" target="_top" xlink:title="tls">
<polygon fill="none" stroke="#7f7f7f" points="270,-36 216,-36 216,0 270,0 270,-36"/>
<text text-anchor="middle" x="243" y="-15.5" font-family="Helvetica,sans-Serif" font-size="10.00">tls</text>
</a>
</g>
</g>
<!-- dir_05ff0118862a1fc666797322db30f5d5&#45;&gt;dir_654fcaaa959505712bb2ecafa3e1042f -->
<g id="edge10" class="edge">
<title>dir_05ff0118862a1fc666797322db30f5d5&#45;&gt;dir_654fcaaa959505712bb2ecafa3e1042f</title>
<path fill="none" stroke="black" d="M185.03,-71.7C194.54,-63.05 206.21,-52.45 216.57,-43.03"/>
<polygon fill="black" stroke="black" points="219.14,-45.42 224.19,-36.1 214.43,-40.24 219.14,-45.42"/>
<g id="a_edge10&#45;headlabel"><a xlink:href="dir_000046_000045.html" target="_top" xlink:title="1">
<text text-anchor="middle" x="218.39" y="-47.44" font-family="Helvetica,sans-Serif" font-size="10.00">1</text>
</a>
</g>
</g>
<!-- dir_4261af1259721e3e39e0d2dd7354b511 -->
<g id="node9" class="node">
<title>dir_4261af1259721e3e39e0d2dd7354b511</title>
<g id="a_node9"><a xlink:href="dir_4261af1259721e3e39e0d2dd7354b511.html" target="_top" xlink:title="crypto">
<polygon fill="none" stroke="red" stroke-dasharray="5,2" points="198,-36 144,-36 144,0 198,0 198,-36"/>
<text text-anchor="middle" x="171" y="-15.5" font-family="Helvetica,sans-Serif" font-size="10.00">crypto</text>
</a>
</g>
</g>
<!-- dir_05ff0118862a1fc666797322db30f5d5&#45;&gt;dir_4261af1259721e3e39e0d2dd7354b511 -->
<g id="edge8" class="edge">
<title>dir_05ff0118862a1fc666797322db30f5d5&#45;&gt;dir_4261af1259721e3e39e0d2dd7354b511</title>
<path fill="none" stroke="black" d="M167.24,-71.7C167.79,-63.98 168.45,-54.71 169.06,-46.11"/>
<polygon fill="black" stroke="black" points="172.56,-46.33 169.78,-36.1 165.57,-45.83 172.56,-46.33"/>
<g id="a_edge8&#45;headlabel"><a xlink:href="dir_000046_000012.html" target="_top" xlink:title="1">
<text text-anchor="middle" x="175.13" y="-47.62" font-family="Helvetica,sans-Serif" font-size="10.00">1</text>
</a>
</g>
</g>
</g>
</svg>
