<?xml version="1.0" encoding="UTF-8" standalone="no"?>
<!DOCTYPE svg PUBLIC "-//W3C//DTD SVG 1.1//EN"
 "http://www.w3.org/Graphics/SVG/1.1/DTD/svg11.dtd">
<!-- Generated by graphviz version 2.43.0 (0)
 -->
<!-- Title: src/apps/tpcc Pages: 1 -->
<svg width="254pt" height="159pt"
 viewBox="0.00 0.00 254.00 159.00" xmlns="http://www.w3.org/2000/svg" xmlns:xlink="http://www.w3.org/1999/xlink">
<g id="graph0" class="graph" transform="scale(1 1) rotate(0) translate(4 155)">
<title>src/apps/tpcc</title>
<polygon fill="white" stroke="transparent" points="-4,4 -4,-155 250,-155 250,4 -4,4"/>
<g id="clust1" class="cluster">
<title>clusterdir_53adf0b982dc8545998aae3f283a5a58</title>
<g id="a_clust1"><a xlink:href="dir_53adf0b982dc8545998aae3f283a5a58.html" target="_top" xlink:title="apps">
<polygon fill="#edf0f7" stroke="#7f7f7f" stroke-dasharray="5,2" points="8,-56 8,-143 238,-143 238,-56 8,-56"/>
<text text-anchor="middle" x="123" y="-131" font-family="Helvetica,sans-Serif" font-size="10.00">apps</text>
</a>
</g>
</g>
<g id="clust2" class="cluster">
<title>clusterdir_42c804dea09c572d6c8990717f45801b</title>
<g id="a_clust2"><a xlink:href="dir_42c804dea09c572d6c8990717f45801b.html" target="_top">
<polygon fill="#edf0f7" stroke="#404040" stroke-width="2" points="16,-64 16,-116 230,-116 230,-64 16,-64"/>
</a>
</g>
</g>
<!-- dir_42c804dea09c572d6c8990717f45801b -->
<g id="node1" class="node">
<title>dir_42c804dea09c572d6c8990717f45801b</title>
<text text-anchor="middle" x="51" y="-87.5" font-family="Helvetica,sans-Serif" font-size="10.00">tpcc</text>
</g>
<!-- dir_122f4add68bb94b3fee614989bbbd8f9 -->
<g id="node4" class="node">
<title>dir_122f4add68bb94b3fee614989bbbd8f9</title>
<g id="a_node4"><a xlink:href="dir_122f4add68bb94b3fee614989bbbd8f9.html" target="_top" xlink:title="ds">
<polygon fill="none" stroke="#7f7f7f" points="78,-36 24,-36 24,0 78,0 78,-36"/>
<text text-anchor="middle" x="51" y="-15.5" font-family="Helvetica,sans-Serif" font-size="10.00">ds</text>
</a>
</g>
</g>
<!-- dir_42c804dea09c572d6c8990717f45801b&#45;&gt;dir_122f4add68bb94b3fee614989bbbd8f9 -->
<g id="edge1" class="edge">
<title>dir_42c804dea09c572d6c8990717f45801b&#45;&gt;dir_122f4add68bb94b3fee614989bbbd8f9</title>
<path fill="none" stroke="black" d="M51,-71.7C51,-63.98 51,-54.71 51,-46.11"/>
<polygon fill="black" stroke="black" points="54.5,-46.1 51,-36.1 47.5,-46.1 54.5,-46.1"/>
<g id="a_edge1&#45;headlabel"><a xlink:href="dir_000047_000014.html" target="_top" xlink:title="2">
<text text-anchor="middle" x="57.34" y="-47.2" font-family="Helvetica,sans-Serif" font-size="10.00">2</text>
</a>
</g>
</g>
<!-- dir_9c565ffb3303c002e9e2d58e15015d84 -->
<g id="node2" class="node">
<title>dir_9c565ffb3303c002e9e2d58e15015d84</title>
<g id="a_node2"><a xlink:href="dir_9c565ffb3303c002e9e2d58e15015d84.html" target="_top" xlink:title="app">
<polygon fill="#a2b4d6" stroke="#404040" points="150,-108 96,-108 96,-72 150,-72 150,-108"/>
<text text-anchor="middle" x="123" y="-87.5" font-family="Helvetica,sans-Serif" font-size="10.00">app</text>
</a>
</g>
</g>
<!-- dir_9c565ffb3303c002e9e2d58e15015d84&#45;&gt;dir_122f4add68bb94b3fee614989bbbd8f9 -->
<g id="edge2" class="edge">
<title>dir_9c565ffb3303c002e9e2d58e15015d84&#45;&gt;dir_122f4add68bb94b3fee614989bbbd8f9</title>
<path fill="none" stroke="black" d="M105.2,-71.7C96.4,-63.14 85.62,-52.66 76,-43.3"/>
<polygon fill="black" stroke="black" points="78.2,-40.57 68.59,-36.1 73.32,-45.58 78.2,-40.57"/>
<g id="a_edge2&#45;headlabel"><a xlink:href="dir_000001_000014.html" target="_top" xlink:title="1">
<text text-anchor="middle" x="82.76" y="-38.54" font-family="Helvetica,sans-Serif" font-size="10.00">1</text>
</a>
</g>
</g>
<!-- dir_d44c64559bbebec7f509842c48db8b23 -->
<g id="node6" class="node">
<title>dir_d44c64559bbebec7f509842c48db8b23</title>
<g id="a_node6"><a xlink:href="dir_d44c64559bbebec7f509842c48db8b23.html" target="_top" xlink:title="include">
<polygon fill="none" stroke="red" points="150,-36 96,-36 96,0 150,0 150,-36"/>
<text text-anchor="middle" x="123" y="-15.5" font-family="Helvetica,sans-Serif" font-size="10.00">include</text>
</a>
</g>
</g>
<!-- dir_9c565ffb3303c002e9e2d58e15015d84&#45;&gt;dir_d44c64559bbebec7f509842c48db8b23 -->
<g id="edge3" class="edge">
<title>dir_9c565ffb3303c002e9e2d58e15015d84&#45;&gt;dir_d44c64559bbebec7f509842c48db8b23</title>
<path fill="none" stroke="black" d="M123,-71.7C123,-63.98 123,-54.71 123,-46.11"/>
<polygon fill="black" stroke="black" points="126.5,-46.1 123,-36.1 119.5,-46.1 126.5,-46.1"/>
<g id="a_edge3&#45;headlabel"><a xlink:href="dir_000001_000021.html" target="_top" xlink:title="6">
<text text-anchor="middle" x="129.34" y="-47.2" font-family="Helvetica,sans-Serif" font-size="10.00">6</text>
</a>
</g>
</g>
<!-- dir_328f68dc05e3db226a229dd57aa306f6 -->
<g id="node3" class="node">
<title>dir_328f68dc05e3db226a229dd57aa306f6</title>
<g id="a_node3"><a xlink:href="dir_328f68dc05e3db226a229dd57aa306f6.html" target="_top" xlink:title="clients">
<polygon fill="#a2b4d6" stroke="#404040" points="222,-108 168,-108 168,-72 222,-72 222,-108"/>
<text text-anchor="middle" x="195" y="-87.5" font-family="Helvetica,sans-Serif" font-size="10.00">clients</text>
</a>
</g>
</g>
<!-- dir_44454380e89751d088dd05c94905df2f -->
<g id="node5" class="node">
<title>dir_44454380e89751d088dd05c94905df2f</title>
<g id="a_node5"><a xlink:href="dir_44454380e89751d088dd05c94905df2f.html" target="_top" xlink:title="clients">
<polygon fill="none" stroke="red" stroke-dasharray="5,2" points="222,-36 168,-36 168,0 222,0 222,-36"/>
<text text-anchor="middle" x="195" y="-15.5" font-family="Helvetica,sans-Serif" font-size="10.00">clients</text>
</a>
</g>
</g>
<!-- dir_328f68dc05e3db226a229dd57aa306f6&#45;&gt;dir_44454380e89751d088dd05c94905df2f -->
<g id="edge4" class="edge">
<title>dir_328f68dc05e3db226a229dd57aa306f6&#45;&gt;dir_44454380e89751d088dd05c94905df2f</title>
<path fill="none" stroke="black" d="M195,-71.7C195,-63.98 195,-54.71 195,-46.11"/>
<polygon fill="black" stroke="black" points="198.5,-46.1 195,-36.1 191.5,-46.1 198.5,-46.1"/>
<g id="a_edge4&#45;headlabel"><a xlink:href="dir_000007_000008.html" target="_top" xlink:title="1">
<text text-anchor="middle" x="201.34" y="-47.2" font-family="Helvetica,sans-Serif" font-size="10.00">1</text>
</a>
</g>
</g>
</g>
</svg>
