<?xml version="1.0" encoding="UTF-8" standalone="no"?>
<!DOCTYPE svg PUBLIC "-//W3C//DTD SVG 1.1//EN"
 "http://www.w3.org/Graphics/SVG/1.1/DTD/svg11.dtd">
<!-- Generated by graphviz version 2.43.0 (0)
 -->
<!-- Title: src/endpoints Pages: 1 -->
<svg width="440pt" height="175pt"
 viewBox="0.00 0.00 440.00 175.00" xmlns="http://www.w3.org/2000/svg" xmlns:xlink="http://www.w3.org/1999/xlink">
<g id="graph0" class="graph" transform="scale(1 1) rotate(0) translate(4 171)">
<title>src/endpoints</title>
<polygon fill="white" stroke="transparent" points="-4,4 -4,-171 436,-171 436,4 -4,4"/>
<g id="clust1" class="cluster">
<title>clusterdir_68267d1309a1af8e8297ef4c3efbcdba</title>
<g id="a_clust1"><a xlink:href="dir_68267d1309a1af8e8297ef4c3efbcdba.html" target="_top" xlink:title="src">
<polygon fill="#edf0f7" stroke="#404040" stroke-dasharray="5,2" points="8,-8 8,-159 368,-159 368,-8 8,-8"/>
<text text-anchor="middle" x="188" y="-147" font-family="Helvetica,sans-Serif" font-size="10.00">src</text>
</a>
</g>
</g>
<g id="clust2" class="cluster">
<title>clusterdir_a2b23ad3d4048fef2ffce6bed40d1385</title>
<g id="a_clust2"><a xlink:href="dir_a2b23ad3d4048fef2ffce6bed40d1385.html" target="_top">
<polygon fill="#edf0f7" stroke="#404040" stroke-width="2" points="160,-80 160,-132 347,-132 347,-80 160,-80"/>
</a>
</g>
</g>
<!-- dir_122f4add68bb94b3fee614989bbbd8f9 -->
<g id="node1" class="node">
<title>dir_122f4add68bb94b3fee614989bbbd8f9</title>
<g id="a_node1"><a xlink:href="dir_122f4add68bb94b3fee614989bbbd8f9.html" target="_top" xlink:title="ds">
<polygon fill="#a2b4d6" stroke="#404040" points="360,-52 306,-52 306,-16 360,-16 360,-52"/>
<text text-anchor="middle" x="333" y="-31.5" font-family="Helvetica,sans-Serif" font-size="10.00">ds</text>
</a>
</g>
</g>
<!-- dir_18ae7af74d885898b85cbb543ae51b63 -->
<g id="node2" class="node">
<title>dir_18ae7af74d885898b85cbb543ae51b63</title>
<g id="a_node2"><a xlink:href="dir_18ae7af74d885898b85cbb543ae51b63.html" target="_top" xlink:title="node">
<polygon fill="#a2b4d6" stroke="red" points="144,-52 90,-52 90,-16 144,-16 144,-52"/>
<text text-anchor="middle" x="117" y="-31.5" font-family="Helvetica,sans-Serif" font-size="10.00">node</text>
</a>
</g>
</g>
<!-- dir_2d29d7dff7c7baf1180920f6796c23ae -->
<g id="node3" class="node">
<title>dir_2d29d7dff7c7baf1180920f6796c23ae</title>
<g id="a_node3"><a xlink:href="dir_2d29d7dff7c7baf1180920f6796c23ae.html" target="_top" xlink:title="http">
<polygon fill="#a2b4d6" stroke="#404040" points="288,-52 234,-52 234,-16 288,-16 288,-52"/>
<text text-anchor="middle" x="261" y="-31.5" font-family="Helvetica,sans-Serif" font-size="10.00">http</text>
</a>
</g>
</g>
<!-- dir_4c8befd6991d7a2e9d66c427274b8c22 -->
<g id="node4" class="node">
<title>dir_4c8befd6991d7a2e9d66c427274b8c22</title>
<g id="a_node4"><a xlink:href="dir_4c8befd6991d7a2e9d66c427274b8c22.html" target="_top" xlink:title="kv">
<polygon fill="#a2b4d6" stroke="#404040" points="216,-52 162,-52 162,-16 216,-16 216,-52"/>
<text text-anchor="middle" x="189" y="-31.5" font-family="Helvetica,sans-Serif" font-size="10.00">kv</text>
</a>
</g>
</g>
<!-- dir_5427940bb9029915fc0c11c1284afde6 -->
<g id="node5" class="node">
<title>dir_5427940bb9029915fc0c11c1284afde6</title>
<g id="a_node5"><a xlink:href="dir_5427940bb9029915fc0c11c1284afde6.html" target="_top" xlink:title="enclave">
<polygon fill="#a2b4d6" stroke="#404040" points="71.5,-52 16.5,-52 16.5,-16 71.5,-16 71.5,-52"/>
<text text-anchor="middle" x="44" y="-31.5" font-family="Helvetica,sans-Serif" font-size="10.00">enclave</text>
</a>
</g>
</g>
<!-- dir_a2b23ad3d4048fef2ffce6bed40d1385 -->
<g id="node6" class="node">
<title>dir_a2b23ad3d4048fef2ffce6bed40d1385</title>
<text text-anchor="middle" x="201" y="-103.5" font-family="Helvetica,sans-Serif" font-size="10.00">endpoints</text>
</g>
<!-- dir_a2b23ad3d4048fef2ffce6bed40d1385&#45;&gt;dir_18ae7af74d885898b85cbb543ae51b63 -->
<g id="edge1" class="edge">
<title>dir_a2b23ad3d4048fef2ffce6bed40d1385&#45;&gt;dir_18ae7af74d885898b85cbb543ae51b63</title>
<path fill="none" stroke="black" d="M180.24,-87.7C169.76,-78.97 156.89,-68.24 145.5,-58.75"/>
<polygon fill="black" stroke="black" points="147.45,-55.82 137.53,-52.1 142.97,-61.19 147.45,-55.82"/>
<g id="a_edge1&#45;headlabel"><a xlink:href="dir_000017_000032.html" target="_top" xlink:title="4">
<text text-anchor="middle" x="152.03" y="-53.44" font-family="Helvetica,sans-Serif" font-size="10.00">4</text>
</a>
</g>
</g>
<!-- dir_a2b23ad3d4048fef2ffce6bed40d1385&#45;&gt;dir_2d29d7dff7c7baf1180920f6796c23ae -->
<g id="edge2" class="edge">
<title>dir_a2b23ad3d4048fef2ffce6bed40d1385&#45;&gt;dir_2d29d7dff7c7baf1180920f6796c23ae</title>
<path fill="none" stroke="black" d="M215.83,-87.7C223.02,-79.3 231.8,-69.07 239.69,-59.86"/>
<polygon fill="black" stroke="black" points="242.49,-61.97 246.34,-52.1 237.17,-57.42 242.49,-61.97"/>
<g id="a_edge2&#45;headlabel"><a xlink:href="dir_000017_000019.html" target="_top" xlink:title="3">
<text text-anchor="middle" x="242.31" y="-64.05" font-family="Helvetica,sans-Serif" font-size="10.00">3</text>
</a>
</g>
</g>
<!-- dir_a2b23ad3d4048fef2ffce6bed40d1385&#45;&gt;dir_4c8befd6991d7a2e9d66c427274b8c22 -->
<g id="edge3" class="edge">
<title>dir_a2b23ad3d4048fef2ffce6bed40d1385&#45;&gt;dir_4c8befd6991d7a2e9d66c427274b8c22</title>
<path fill="none" stroke="black" d="M198.03,-87.7C196.71,-79.98 195.12,-70.71 193.65,-62.11"/>
<polygon fill="black" stroke="black" points="197.07,-61.37 191.93,-52.1 190.17,-62.55 197.07,-61.37"/>
<g id="a_edge3&#45;headlabel"><a xlink:href="dir_000017_000028.html" target="_top" xlink:title="1">
<text text-anchor="middle" x="200.48" y="-61.93" font-family="Helvetica,sans-Serif" font-size="10.00">1</text>
</a>
</g>
</g>
<!-- dir_a2b23ad3d4048fef2ffce6bed40d1385&#45;&gt;dir_5427940bb9029915fc0c11c1284afde6 -->
<g id="edge4" class="edge">
<title>dir_a2b23ad3d4048fef2ffce6bed40d1385&#45;&gt;dir_5427940bb9029915fc0c11c1284afde6</title>
<path fill="none" stroke="black" d="M168.35,-90.73C144.18,-80.14 110.49,-65.28 81,-52 80.91,-51.96 80.81,-51.92 80.72,-51.87"/>
<polygon fill="black" stroke="black" points="82.41,-48.8 71.86,-47.85 79.52,-55.17 82.41,-48.8"/>
<g id="a_edge4&#45;headlabel"><a xlink:href="dir_000017_000015.html" target="_top" xlink:title="1">
<text text-anchor="middle" x="86.86" y="-45.2" font-family="Helvetica,sans-Serif" font-size="10.00">1</text>
</a>
</g>
</g>
<!-- dir_d44c64559bbebec7f509842c48db8b23 -->
<g id="node8" class="node">
<title>dir_d44c64559bbebec7f509842c48db8b23</title>
<g id="a_node8"><a xlink:href="dir_d44c64559bbebec7f509842c48db8b23.html" target="_top" xlink:title="include">
<polygon fill="none" stroke="red" points="432,-52 378,-52 378,-16 432,-16 432,-52"/>
<text text-anchor="middle" x="405" y="-31.5" font-family="Helvetica,sans-Serif" font-size="10.00">include</text>
</a>
</g>
</g>
<!-- dir_a2b23ad3d4048fef2ffce6bed40d1385&#45;&gt;dir_d44c64559bbebec7f509842c48db8b23 -->
<g id="edge5" class="edge">
<title>dir_a2b23ad3d4048fef2ffce6bed40d1385&#45;&gt;dir_d44c64559bbebec7f509842c48db8b23</title>
<path fill="none" stroke="black" d="M227,-87.78C232.15,-84.87 237.63,-82.12 243,-80 294.6,-59.67 314.58,-70.47 368.22,-53"/>
<polygon fill="black" stroke="black" points="369.56,-56.24 377.88,-49.67 367.28,-49.62 369.56,-56.24"/>
<g id="a_edge5&#45;headlabel"><a xlink:href="dir_000017_000021.html" target="_top" xlink:title="37">
<text text-anchor="middle" x="367.09" y="-57.59" font-family="Helvetica,sans-Serif" font-size="10.00">37</text>
</a>
</g>
</g>
<!-- dir_100cae52b844ec0b520b7e5b8ea8fe4b -->
<g id="node7" class="node">
<title>dir_100cae52b844ec0b520b7e5b8ea8fe4b</title>
<g id="a_node7"><a xlink:href="dir_100cae52b844ec0b520b7e5b8ea8fe4b.html" target="_top" xlink:title="authentication">
<polygon fill="#a2b4d6" stroke="#404040" points="338.5,-124 251.5,-124 251.5,-88 338.5,-88 338.5,-124"/>
<text text-anchor="middle" x="295" y="-103.5" font-family="Helvetica,sans-Serif" font-size="10.00">authentication</text>
</a>
</g>
</g>
<!-- dir_100cae52b844ec0b520b7e5b8ea8fe4b&#45;&gt;dir_122f4add68bb94b3fee614989bbbd8f9 -->
<g id="edge6" class="edge">
<title>dir_100cae52b844ec0b520b7e5b8ea8fe4b&#45;&gt;dir_122f4add68bb94b3fee614989bbbd8f9</title>
<path fill="none" stroke="black" d="M304.39,-87.7C308.76,-79.64 314.06,-69.89 318.9,-60.98"/>
<polygon fill="black" stroke="black" points="322.02,-62.56 323.71,-52.1 315.87,-59.22 322.02,-62.56"/>
<g id="a_edge6&#45;headlabel"><a xlink:href="dir_000005_000014.html" target="_top" xlink:title="1">
<text text-anchor="middle" x="322.8" y="-64.58" font-family="Helvetica,sans-Serif" font-size="10.00">1</text>
</a>
</g>
</g>
<!-- dir_100cae52b844ec0b520b7e5b8ea8fe4b&#45;&gt;dir_2d29d7dff7c7baf1180920f6796c23ae -->
<g id="edge7" class="edge">
<title>dir_100cae52b844ec0b520b7e5b8ea8fe4b&#45;&gt;dir_2d29d7dff7c7baf1180920f6796c23ae</title>
<path fill="none" stroke="black" d="M286.6,-87.7C282.73,-79.73 278.05,-70.1 273.76,-61.26"/>
<polygon fill="black" stroke="black" points="276.83,-59.57 269.31,-52.1 270.53,-62.63 276.83,-59.57"/>
<g id="a_edge7&#45;headlabel"><a xlink:href="dir_000005_000019.html" target="_top" xlink:title="2">
<text text-anchor="middle" x="280.95" y="-59.06" font-family="Helvetica,sans-Serif" font-size="10.00">2</text>
</a>
</g>
</g>
<!-- dir_100cae52b844ec0b520b7e5b8ea8fe4b&#45;&gt;dir_d44c64559bbebec7f509842c48db8b23 -->
<g id="edge8" class="edge">
<title>dir_100cae52b844ec0b520b7e5b8ea8fe4b&#45;&gt;dir_d44c64559bbebec7f509842c48db8b23</title>
<path fill="none" stroke="black" d="M321.91,-87.88C336.16,-78.81 353.85,-67.55 369.24,-57.76"/>
<polygon fill="black" stroke="black" points="371.43,-60.51 377.99,-52.19 367.67,-54.61 371.43,-60.51"/>
<g id="a_edge8&#45;headlabel"><a xlink:href="dir_000005_000021.html" target="_top" xlink:title="17">
<text text-anchor="middle" x="369.92" y="-62.34" font-family="Helvetica,sans-Serif" font-size="10.00">17</text>
</a>
</g>
</g>
</g>
</svg>
