<?xml version="1.0" encoding="UTF-8" standalone="no"?>
<!DOCTYPE svg PUBLIC "-//W3C//DTD SVG 1.1//EN"
 "http://www.w3.org/Graphics/SVG/1.1/DTD/svg11.dtd">
<!-- Generated by graphviz version 2.43.0 (0)
 -->
<!-- Title: src/apps Pages: 1 -->
<!--zoomable 175 -->
<svg id="main" version="1.1" xmlns="http://www.w3.org/2000/svg" xmlns:xlink="http://www.w3.org/1999/xlink" xml:space="preserve" onload="init(evt)">
<style type="text/css"><![CDATA[
.edge:hover path { stroke: red; }
.edge:hover polygon { stroke: red; fill: red; }
]]></style>
<script type="text/javascript"><![CDATA[
var edges = document.getElementsByTagName('g');
if (edges && edges.length) {
  for (var i=0;i<edges.length;i++) {
    if (edges[i].id.substr(0,4)=='edge') {
      edges[i].setAttribute('class','edge');
    }
  }
}
]]></script>
        <defs>
                <circle id="rim" cx="0" cy="0" r="7"/>
                <circle id="rim2" cx="0" cy="0" r="3.5"/>
                <g id="zoomPlus">
                        <use xlink:href="#rim" fill="#404040">
                                <set attributeName="fill" to="#808080" begin="zoomplus.mouseover" end="zoomplus.mouseout"/>
                        </use>
                        <path d="M-4,0h8M0,-4v8" fill="none" stroke="white" stroke-width="1.5" pointer-events="none"/>
                </g>
                <g id="zoomMin">
                        <use xlink:href="#rim" fill="#404040">
                                <set attributeName="fill" to="#808080" begin="zoomminus.mouseover" end="zoomminus.mouseout"/>
                        </use>
                        <path d="M-4,0h8" fill="none" stroke="white" stroke-width="1.5" pointer-events="none"/>
                </g>
                <g id="dirArrow">
                        <path fill="none" stroke="white" stroke-width="1.5" d="M0,-3.0v7 M-2.5,-0.5L0,-3.0L2.5,-0.5"/>
                </g>
               <g id="resetDef">
                       <use xlink:href="#rim2" fill="#404040">
                               <set attributeName="fill" to="#808080" begin="reset.mouseover" end="reset.mouseout"/>
                       </use>
               </g>
        </defs>

<script type="text/javascript">
var viewWidth = 726;
var viewHeight = 175;
var sectionId = 'dynsection-0';
</script>
<script xlink:href="svgpan.js"/>
<svg id="graph" class="graph">
<g id="viewport">
<title>src/apps</title>
<polygon fill="white" stroke="transparent" points="-4,4 -4,-171 722,-171 722,4 -4,4"/>
<g id="clust1" class="cluster">
<title>clusterdir_68267d1309a1af8e8297ef4c3efbcdba</title>
<g id="a_clust1"><a xlink:href="dir_68267d1309a1af8e8297ef4c3efbcdba.html" target="_top" xlink:title="src">
<polygon fill="#edf0f7" stroke="#404040" stroke-dasharray="5,2" points="8,-8 8,-159 654,-159 654,-8 8,-8"/>
<text text-anchor="middle" x="331" y="-147" font-family="Helvetica,sans-Serif" font-size="10.00">src</text>
</a>
</g>
</g>
<g id="clust2" class="cluster">
<title>clusterdir_53adf0b982dc8545998aae3f283a5a58</title>
<g id="a_clust2"><a xlink:href="dir_53adf0b982dc8545998aae3f283a5a58.html" target="_top">
<polygon fill="#edf0f7" stroke="#404040" stroke-width="2" points="218,-80 218,-132 516,-132 516,-80 218,-80"/>
</a>
</g>
</g>
<!-- dir_122f4add68bb94b3fee614989bbbd8f9 -->
<g id="node1" class="node">
<title>dir_122f4add68bb94b3fee614989bbbd8f9</title>
<g id="a_node1"><a xlink:href="dir_122f4add68bb94b3fee614989bbbd8f9.html" target="_top" xlink:title="ds">
<polygon fill="#a2b4d6" stroke="#404040" points="574,-52 520,-52 520,-16 574,-16 574,-52"/>
<text text-anchor="middle" x="547" y="-31.5" font-family="Helvetica,sans-Serif" font-size="10.00">ds</text>
</a>
</g>
</g>
<!-- dir_44454380e89751d088dd05c94905df2f -->
<g id="node2" class="node">
<title>dir_44454380e89751d088dd05c94905df2f</title>
<g id="a_node2"><a xlink:href="dir_44454380e89751d088dd05c94905df2f.html" target="_top" xlink:title="clients">
<polygon fill="#a2b4d6" stroke="red" points="646,-52 592,-52 592,-16 646,-16 646,-52"/>
<text text-anchor="middle" x="619" y="-31.5" font-family="Helvetica,sans-Serif" font-size="10.00">clients</text>
</a>
</g>
</g>
<!-- dir_3dcea8250b5ce8d5bc595fbbad3e8f21 -->
<g id="node3" class="node">
<title>dir_3dcea8250b5ce8d5bc595fbbad3e8f21</title>
<g id="a_node3"><a xlink:href="dir_3dcea8250b5ce8d5bc595fbbad3e8f21.html" target="_top" xlink:title="js">
<polygon fill="#a2b4d6" stroke="#404040" points="70,-52 16,-52 16,-16 70,-16 70,-52"/>
<text text-anchor="middle" x="43" y="-31.5" font-family="Helvetica,sans-Serif" font-size="10.00">js</text>
</a>
</g>
</g>
<!-- dir_4c8befd6991d7a2e9d66c427274b8c22 -->
<g id="node4" class="node">
<title>dir_4c8befd6991d7a2e9d66c427274b8c22</title>
<g id="a_node4"><a xlink:href="dir_4c8befd6991d7a2e9d66c427274b8c22.html" target="_top" xlink:title="kv">
<polygon fill="#a2b4d6" stroke="#404040" points="142,-52 88,-52 88,-16 142,-16 142,-52"/>
<text text-anchor="middle" x="115" y="-31.5" font-family="Helvetica,sans-Serif" font-size="10.00">kv</text>
</a>
</g>
</g>
<!-- dir_18ae7af74d885898b85cbb543ae51b63 -->
<g id="node5" class="node">
<title>dir_18ae7af74d885898b85cbb543ae51b63</title>
<g id="a_node5"><a xlink:href="dir_18ae7af74d885898b85cbb543ae51b63.html" target="_top" xlink:title="node">
<polygon fill="#a2b4d6" stroke="red" points="214,-52 160,-52 160,-16 214,-16 214,-52"/>
<text text-anchor="middle" x="187" y="-31.5" font-family="Helvetica,sans-Serif" font-size="10.00">node</text>
</a>
</g>
</g>
<!-- dir_4f691f982165d1317925cee58b4b4f56 -->
<g id="node6" class="node">
<title>dir_4f691f982165d1317925cee58b4b4f56</title>
<g id="a_node6"><a xlink:href="dir_4f691f982165d1317925cee58b4b4f56.html" target="_top" xlink:title="service">
<polygon fill="#a2b4d6" stroke="red" points="286,-52 232,-52 232,-16 286,-16 286,-52"/>
<text text-anchor="middle" x="259" y="-31.5" font-family="Helvetica,sans-Serif" font-size="10.00">service</text>
</a>
</g>
</g>
<!-- dir_84e79ac80b913c2fb5b9e077744e9498 -->
<g id="node7" class="node">
<title>dir_84e79ac80b913c2fb5b9e077744e9498</title>
<g id="a_node7"><a xlink:href="dir_84e79ac80b913c2fb5b9e077744e9498.html" target="_top" xlink:title="host">
<polygon fill="#a2b4d6" stroke="#404040" points="430,-52 376,-52 376,-16 430,-16 430,-52"/>
<text text-anchor="middle" x="403" y="-31.5" font-family="Helvetica,sans-Serif" font-size="10.00">host</text>
</a>
</g>
</g>
<!-- dir_654fcaaa959505712bb2ecafa3e1042f -->
<g id="node8" class="node">
<title>dir_654fcaaa959505712bb2ecafa3e1042f</title>
<g id="a_node8"><a xlink:href="dir_654fcaaa959505712bb2ecafa3e1042f.html" target="_top" xlink:title="tls">
<polygon fill="#a2b4d6" stroke="#404040" points="502,-52 448,-52 448,-16 502,-16 502,-52"/>
<text text-anchor="middle" x="475" y="-31.5" font-family="Helvetica,sans-Serif" font-size="10.00">tls</text>
</a>
</g>
</g>
<!-- dir_4261af1259721e3e39e0d2dd7354b511 -->
<g id="node9" class="node">
<title>dir_4261af1259721e3e39e0d2dd7354b511</title>
<g id="a_node9"><a xlink:href="dir_4261af1259721e3e39e0d2dd7354b511.html" target="_top" xlink:title="crypto">
<polygon fill="#a2b4d6" stroke="red" points="358,-52 304,-52 304,-16 358,-16 358,-52"/>
<text text-anchor="middle" x="331" y="-31.5" font-family="Helvetica,sans-Serif" font-size="10.00">crypto</text>
</a>
</g>
</g>
<!-- dir_53adf0b982dc8545998aae3f283a5a58 -->
<g id="node10" class="node">
<title>dir_53adf0b982dc8545998aae3f283a5a58</title>
<text text-anchor="middle" x="481" y="-103.5" font-family="Helvetica,sans-Serif" font-size="10.00">apps</text>
</g>
<!-- dir_17be9e3e5392a98208079abc1cb5a0b0 -->
<g id="node11" class="node">
<title>dir_17be9e3e5392a98208079abc1cb5a0b0</title>
<g id="a_node11"><a xlink:href="dir_17be9e3e5392a98208079abc1cb5a0b0.html" target="_top" xlink:title="js_generic">
<polygon fill="#a2b4d6" stroke="#404040" points="292,-124 226,-124 226,-88 292,-88 292,-124"/>
<text text-anchor="middle" x="259" y="-103.5" font-family="Helvetica,sans-Serif" font-size="10.00">js_generic</text>
</a>
</g>
</g>
<!-- dir_17be9e3e5392a98208079abc1cb5a0b0&#45;&gt;dir_3dcea8250b5ce8d5bc595fbbad3e8f21 -->
<g id="edge2" class="edge">
<title>dir_17be9e3e5392a98208079abc1cb5a0b0&#45;&gt;dir_3dcea8250b5ce8d5bc595fbbad3e8f21</title>
<path fill="none" stroke="black" d="M225.98,-96.92C191.48,-88.12 135.75,-72.91 80,-52.11"/>
<polygon fill="black" stroke="black" points="80.92,-48.71 70.33,-48.44 78.44,-55.26 80.92,-48.71"/>
<g id="a_edge2&#45;headlabel"><a xlink:href="dir_000025_000024.html" target="_top" xlink:title="1">
<text text-anchor="middle" x="85.29" y="-44.83" font-family="Helvetica,sans-Serif" font-size="10.00">1</text>
</a>
</g>
</g>
<!-- dir_17be9e3e5392a98208079abc1cb5a0b0&#45;&gt;dir_4c8befd6991d7a2e9d66c427274b8c22 -->
<g id="edge3" class="edge">
<title>dir_17be9e3e5392a98208079abc1cb5a0b0&#45;&gt;dir_4c8befd6991d7a2e9d66c427274b8c22</title>
<path fill="none" stroke="black" d="M225.96,-88.94C203.63,-78.08 174.14,-63.75 151.18,-52.59"/>
<polygon fill="black" stroke="black" points="152.62,-49.4 142.09,-48.17 149.56,-55.69 152.62,-49.4"/>
<g id="a_edge3&#45;headlabel"><a xlink:href="dir_000025_000028.html" target="_top" xlink:title="1">
<text text-anchor="middle" x="157.09" y="-45.91" font-family="Helvetica,sans-Serif" font-size="10.00">1</text>
</a>
</g>
</g>
<!-- dir_17be9e3e5392a98208079abc1cb5a0b0&#45;&gt;dir_18ae7af74d885898b85cbb543ae51b63 -->
<g id="edge1" class="edge">
<title>dir_17be9e3e5392a98208079abc1cb5a0b0&#45;&gt;dir_18ae7af74d885898b85cbb543ae51b63</title>
<path fill="none" stroke="black" d="M241.2,-87.7C232.4,-79.14 221.62,-68.66 212,-59.3"/>
<polygon fill="black" stroke="black" points="214.2,-56.57 204.59,-52.1 209.32,-61.58 214.2,-56.57"/>
<g id="a_edge1&#45;headlabel"><a xlink:href="dir_000025_000032.html" target="_top" xlink:title="1">
<text text-anchor="middle" x="218.76" y="-54.54" font-family="Helvetica,sans-Serif" font-size="10.00">1</text>
</a>
</g>
</g>
<!-- dir_17be9e3e5392a98208079abc1cb5a0b0&#45;&gt;dir_4f691f982165d1317925cee58b4b4f56 -->
<g id="edge4" class="edge">
<title>dir_17be9e3e5392a98208079abc1cb5a0b0&#45;&gt;dir_4f691f982165d1317925cee58b4b4f56</title>
<path fill="none" stroke="black" d="M259,-87.7C259,-79.98 259,-70.71 259,-62.11"/>
<polygon fill="black" stroke="black" points="262.5,-62.1 259,-52.1 255.5,-62.1 262.5,-62.1"/>
<g id="a_edge4&#45;headlabel"><a xlink:href="dir_000025_000039.html" target="_top" xlink:title="1">
<text text-anchor="middle" x="265.34" y="-63.2" font-family="Helvetica,sans-Serif" font-size="10.00">1</text>
</a>
</g>
</g>
<!-- dir_d44c64559bbebec7f509842c48db8b23 -->
<g id="node14" class="node">
<title>dir_d44c64559bbebec7f509842c48db8b23</title>
<g id="a_node14"><a xlink:href="dir_d44c64559bbebec7f509842c48db8b23.html" target="_top" xlink:title="include">
<polygon fill="none" stroke="red" points="718,-52 664,-52 664,-16 718,-16 718,-52"/>
<text text-anchor="middle" x="691" y="-31.5" font-family="Helvetica,sans-Serif" font-size="10.00">include</text>
</a>
</g>
</g>
<!-- dir_17be9e3e5392a98208079abc1cb5a0b0&#45;&gt;dir_d44c64559bbebec7f509842c48db8b23 -->
<g id="edge5" class="edge">
<title>dir_17be9e3e5392a98208079abc1cb5a0b0&#45;&gt;dir_d44c64559bbebec7f509842c48db8b23</title>
<path fill="none" stroke="black" d="M283.43,-87.94C288.98,-84.79 295.02,-81.9 301,-80 449.57,-32.8 502.73,-92.96 654.32,-52.64"/>
<polygon fill="black" stroke="black" points="655.27,-56.01 663.97,-49.97 653.4,-49.26 655.27,-56.01"/>
<g id="a_edge5&#45;headlabel"><a xlink:href="dir_000025_000021.html" target="_top" xlink:title="10">
<text text-anchor="middle" x="652.56" y="-57.2" font-family="Helvetica,sans-Serif" font-size="10.00">10</text>
</a>
</g>
</g>
<!-- dir_5ec96c263edeb1f5d9ccb226980a5a7c -->
<g id="node12" class="node">
<title>dir_5ec96c263edeb1f5d9ccb226980a5a7c</title>
<g id="a_node12"><a xlink:href="dir_5ec96c263edeb1f5d9ccb226980a5a7c.html" target="_top" xlink:title="js_v8">
<polygon fill="#a2b4d6" stroke="#404040" points="364,-124 310,-124 310,-88 364,-88 364,-124"/>
<text text-anchor="middle" x="337" y="-103.5" font-family="Helvetica,sans-Serif" font-size="10.00">js_v8</text>
</a>
</g>
</g>
<!-- dir_5ec96c263edeb1f5d9ccb226980a5a7c&#45;&gt;dir_4c8befd6991d7a2e9d66c427274b8c22 -->
<g id="edge7" class="edge">
<title>dir_5ec96c263edeb1f5d9ccb226980a5a7c&#45;&gt;dir_4c8befd6991d7a2e9d66c427274b8c22</title>
<path fill="none" stroke="black" d="M315.39,-87.84C310.83,-84.85 305.91,-82.05 301,-80 241.24,-55.03 217.66,-71.26 151.8,-51.74"/>
<polygon fill="black" stroke="black" points="152.81,-48.39 142.22,-48.74 150.72,-55.07 152.81,-48.39"/>
<g id="a_edge7&#45;headlabel"><a xlink:href="dir_000026_000028.html" target="_top" xlink:title="2">
<text text-anchor="middle" x="157.09" y="-44.25" font-family="Helvetica,sans-Serif" font-size="10.00">2</text>
</a>
</g>
</g>
<!-- dir_5ec96c263edeb1f5d9ccb226980a5a7c&#45;&gt;dir_18ae7af74d885898b85cbb543ae51b63 -->
<g id="edge6" class="edge">
<title>dir_5ec96c263edeb1f5d9ccb226980a5a7c&#45;&gt;dir_18ae7af74d885898b85cbb543ae51b63</title>
<path fill="none" stroke="black" d="M314.32,-87.93C310.02,-85.08 305.46,-82.3 301,-80 270.82,-64.45 258.91,-65.76 223.53,-51.95"/>
<polygon fill="black" stroke="black" points="224.58,-48.6 214,-48.09 221.96,-55.09 224.58,-48.6"/>
<g id="a_edge6&#45;headlabel"><a xlink:href="dir_000026_000032.html" target="_top" xlink:title="2">
<text text-anchor="middle" x="228.98" y="-44.82" font-family="Helvetica,sans-Serif" font-size="10.00">2</text>
</a>
</g>
</g>
<!-- dir_5ec96c263edeb1f5d9ccb226980a5a7c&#45;&gt;dir_4f691f982165d1317925cee58b4b4f56 -->
<g id="edge8" class="edge">
<title>dir_5ec96c263edeb1f5d9ccb226980a5a7c&#45;&gt;dir_4f691f982165d1317925cee58b4b4f56</title>
<path fill="none" stroke="black" d="M317.72,-87.7C308.08,-79.05 296.27,-68.45 285.77,-59.03"/>
<polygon fill="black" stroke="black" points="287.84,-56.18 278.06,-52.1 283.16,-61.39 287.84,-56.18"/>
<g id="a_edge8&#45;headlabel"><a xlink:href="dir_000026_000039.html" target="_top" xlink:title="2">
<text text-anchor="middle" x="292.41" y="-53.97" font-family="Helvetica,sans-Serif" font-size="10.00">2</text>
</a>
</g>
</g>
<!-- dir_5ec96c263edeb1f5d9ccb226980a5a7c&#45;&gt;dir_84e79ac80b913c2fb5b9e077744e9498 -->
<g id="edge9" class="edge">
<title>dir_5ec96c263edeb1f5d9ccb226980a5a7c&#45;&gt;dir_84e79ac80b913c2fb5b9e077744e9498</title>
<path fill="none" stroke="black" d="M353.31,-87.7C361.31,-79.22 371.07,-68.86 379.82,-59.58"/>
<polygon fill="black" stroke="black" points="382.56,-61.78 386.87,-52.1 377.47,-56.98 382.56,-61.78"/>
<g id="a_edge9&#45;headlabel"><a xlink:href="dir_000026_000018.html" target="_top" xlink:title="1">
<text text-anchor="middle" x="382.16" y="-63.84" font-family="Helvetica,sans-Serif" font-size="10.00">1</text>
</a>
</g>
</g>
<!-- dir_5ec96c263edeb1f5d9ccb226980a5a7c&#45;&gt;dir_654fcaaa959505712bb2ecafa3e1042f -->
<g id="edge11" class="edge">
<title>dir_5ec96c263edeb1f5d9ccb226980a5a7c&#45;&gt;dir_654fcaaa959505712bb2ecafa3e1042f</title>
<path fill="none" stroke="black" d="M360.18,-87.88C364.35,-85.09 368.74,-82.35 373,-80 398.5,-65.93 408.23,-65.07 438.74,-51.97"/>
<polygon fill="black" stroke="black" points="440.18,-55.16 447.93,-47.93 437.36,-48.75 440.18,-55.16"/>
<g id="a_edge11&#45;headlabel"><a xlink:href="dir_000026_000045.html" target="_top" xlink:title="1">
<text text-anchor="middle" x="438.04" y="-56.7" font-family="Helvetica,sans-Serif" font-size="10.00">1</text>
</a>
</g>
</g>
<!-- dir_5ec96c263edeb1f5d9ccb226980a5a7c&#45;&gt;dir_4261af1259721e3e39e0d2dd7354b511 -->
<g id="edge12" class="edge">
<title>dir_5ec96c263edeb1f5d9ccb226980a5a7c&#45;&gt;dir_4261af1259721e3e39e0d2dd7354b511</title>
<path fill="none" stroke="black" d="M335.52,-87.7C334.86,-79.98 334.06,-70.71 333.32,-62.11"/>
<polygon fill="black" stroke="black" points="336.81,-61.77 332.47,-52.1 329.83,-62.37 336.81,-61.77"/>
<g id="a_edge12&#45;headlabel"><a xlink:href="dir_000026_000012.html" target="_top" xlink:title="1">
<text text-anchor="middle" x="339.94" y="-62.61" font-family="Helvetica,sans-Serif" font-size="10.00">1</text>
</a>
</g>
</g>
<!-- dir_5ec96c263edeb1f5d9ccb226980a5a7c&#45;&gt;dir_d44c64559bbebec7f509842c48db8b23 -->
<g id="edge10" class="edge">
<title>dir_5ec96c263edeb1f5d9ccb226980a5a7c&#45;&gt;dir_d44c64559bbebec7f509842c48db8b23</title>
<path fill="none" stroke="black" d="M358.09,-87.75C362.76,-84.7 367.86,-81.89 373,-80 489.3,-37.22 533.58,-85.33 654.01,-52.76"/>
<polygon fill="black" stroke="black" points="655.3,-56.03 663.96,-49.93 653.39,-49.3 655.3,-56.03"/>
<g id="a_edge10&#45;headlabel"><a xlink:href="dir_000026_000021.html" target="_top" xlink:title="48">
<text text-anchor="middle" x="652.62" y="-57.24" font-family="Helvetica,sans-Serif" font-size="10.00">48</text>
</a>
</g>
</g>
<!-- dir_42c804dea09c572d6c8990717f45801b -->
<g id="node13" class="node">
<title>dir_42c804dea09c572d6c8990717f45801b</title>
<g id="a_node13"><a xlink:href="dir_42c804dea09c572d6c8990717f45801b.html" target="_top" xlink:title="tpcc">
<polygon fill="#a2b4d6" stroke="#404040" points="436,-124 382,-124 382,-88 436,-88 436,-124"/>
<text text-anchor="middle" x="409" y="-103.5" font-family="Helvetica,sans-Serif" font-size="10.00">tpcc</text>
</a>
</g>
</g>
<!-- dir_42c804dea09c572d6c8990717f45801b&#45;&gt;dir_122f4add68bb94b3fee614989bbbd8f9 -->
<g id="edge13" class="edge">
<title>dir_42c804dea09c572d6c8990717f45801b&#45;&gt;dir_122f4add68bb94b3fee614989bbbd8f9</title>
<path fill="none" stroke="black" d="M432.18,-87.88C436.35,-85.09 440.74,-82.35 445,-80 470.5,-65.93 480.23,-65.07 510.74,-51.97"/>
<polygon fill="black" stroke="black" points="512.18,-55.16 519.93,-47.93 509.36,-48.75 512.18,-55.16"/>
<g id="a_edge13&#45;headlabel"><a xlink:href="dir_000047_000014.html" target="_top" xlink:title="2">
<text text-anchor="middle" x="510.04" y="-56.7" font-family="Helvetica,sans-Serif" font-size="10.00">2</text>
</a>
</g>
</g>
<!-- dir_42c804dea09c572d6c8990717f45801b&#45;&gt;dir_44454380e89751d088dd05c94905df2f -->
<g id="edge14" class="edge">
<title>dir_42c804dea09c572d6c8990717f45801b&#45;&gt;dir_44454380e89751d088dd05c94905df2f</title>
<path fill="none" stroke="black" d="M430.64,-87.9C435.19,-84.91 440.1,-82.09 445,-80 499.74,-56.62 521.46,-70.23 582.11,-51.8"/>
<polygon fill="black" stroke="black" points="583.31,-55.08 591.76,-48.69 581.17,-48.42 583.31,-55.08"/>
<g id="a_edge14&#45;headlabel"><a xlink:href="dir_000047_000008.html" target="_top" xlink:title="1">
<text text-anchor="middle" x="580.76" y="-56.39" font-family="Helvetica,sans-Serif" font-size="10.00">1</text>
</a>
</g>
</g>
<!-- dir_42c804dea09c572d6c8990717f45801b&#45;&gt;dir_d44c64559bbebec7f509842c48db8b23 -->
<g id="edge15" class="edge">
<title>dir_42c804dea09c572d6c8990717f45801b&#45;&gt;dir_d44c64559bbebec7f509842c48db8b23</title>
<path fill="none" stroke="black" d="M430.14,-87.88C434.81,-84.82 439.89,-81.98 445,-80 531.02,-46.75 564.57,-78.2 654.21,-52.77"/>
<polygon fill="black" stroke="black" points="655.37,-56.08 663.94,-49.86 653.35,-49.38 655.37,-56.08"/>
<g id="a_edge15&#45;headlabel"><a xlink:href="dir_000047_000021.html" target="_top" xlink:title="6">
<text text-anchor="middle" x="652.74" y="-57.33" font-family="Helvetica,sans-Serif" font-size="10.00">6</text>
</a>
</g>
</g>
</g>
</svg>
        <g id="navigator" transform="translate(0 0)" fill="#404254">
                <rect fill="#f2f5e9" fill-opacity="0.5" stroke="#606060" stroke-width=".5" x="0" y="0" width="60" height="60"/>
                <use id="zoomplus" xlink:href="#zoomPlus" x="17" y="9" onmousedown="handleZoom(evt,'in')"/>
                <use id="zoomminus" xlink:href="#zoomMin" x="42" y="9" onmousedown="handleZoom(evt,'out')"/>
                <use id="reset" xlink:href="#resetDef" x="30" y="36" onmousedown="handleReset()"/>
                <g id="arrowUp" xlink:href="#dirArrow" transform="translate(30 24)" onmousedown="handlePan(0,-1)">
                  <use xlink:href="#rim" fill="#404040">
                        <set attributeName="fill" to="#808080" begin="arrowUp.mouseover" end="arrowUp.mouseout"/>
                  </use>
                  <path fill="none" stroke="white" stroke-width="1.5" d="M0,-3.0v7 M-2.5,-0.5L0,-3.0L2.5,-0.5"/>
                </g>
                <g id="arrowRight" xlink:href="#dirArrow" transform="rotate(90) translate(36 -43)" onmousedown="handlePan(1,0)">
                  <use xlink:href="#rim" fill="#404040">
                        <set attributeName="fill" to="#808080" begin="arrowRight.mouseover" end="arrowRight.mouseout"/>
                  </use>
                  <path fill="none" stroke="white" stroke-width="1.5" d="M0,-3.0v7 M-2.5,-0.5L0,-3.0L2.5,-0.5"/>
                </g>
                <g id="arrowDown" xlink:href="#dirArrow" transform="rotate(180) translate(-30 -48)" onmousedown="handlePan(0,1)">
                  <use xlink:href="#rim" fill="#404040">
                        <set attributeName="fill" to="#808080" begin="arrowDown.mouseover" end="arrowDown.mouseout"/>
                  </use>
                  <path fill="none" stroke="white" stroke-width="1.5" d="M0,-3.0v7 M-2.5,-0.5L0,-3.0L2.5,-0.5"/>
                </g>
                <g id="arrowLeft" xlink:href="#dirArrow" transform="rotate(270) translate(-36 17)" onmousedown="handlePan(-1,0)">
                  <use xlink:href="#rim" fill="#404040">
                        <set attributeName="fill" to="#808080" begin="arrowLeft.mouseover" end="arrowLeft.mouseout"/>
                  </use>
                  <path fill="none" stroke="white" stroke-width="1.5" d="M0,-3.0v7 M-2.5,-0.5L0,-3.0L2.5,-0.5"/>
                </g>
        </g>
        <svg viewBox="0 0 15 15" width="100%" height="30px" preserveAspectRatio="xMaxYMin meet">
         <g id="arrow_out" transform="scale(0.3 0.3)">
          <a xlink:href="dir_53adf0b982dc8545998aae3f283a5a58_dep_org.svg" target="_base">
           <rect id="button" ry="5" rx="5" y="6" x="6" height="38" width="38"
                fill="#f2f5e9" fill-opacity="0.5" stroke="#606060" stroke-width="1.0"/>
           <path id="arrow"
             d="M 11.500037,31.436501 C 11.940474,20.09759 22.043105,11.32322 32.158766,21.979434 L 37.068811,17.246167 C 37.068811,17.246167 37.088388,32 37.088388,32 L 22.160133,31.978069 C 22.160133,31.978069 26.997745,27.140456 26.997745,27.140456 C 18.528582,18.264221 13.291696,25.230495 11.500037,31.436501 z"
             style="fill:#404040;"/>
          </a>
         </g>
        </svg>
</svg>
