<?xml version="1.0" encoding="UTF-8" standalone="no"?>
<!DOCTYPE svg PUBLIC "-//W3C//DTD SVG 1.1//EN"
 "http://www.w3.org/Graphics/SVG/1.1/DTD/svg11.dtd">
<!-- Generated by graphviz version 2.43.0 (0)
 -->
<!-- Title: src/enclave/enclave_time.h Pages: 1 -->
<svg width="469pt" height="397pt"
 viewBox="0.00 0.00 468.80 397.00" xmlns="http://www.w3.org/2000/svg" xmlns:xlink="http://www.w3.org/1999/xlink">
<g id="graph0" class="graph" transform="scale(1 1) rotate(0) translate(4 393)">
<title>src/enclave/enclave_time.h</title>
<polygon fill="white" stroke="transparent" points="-4,4 -4,-393 464.8,-393 464.8,4 -4,4"/>
<!-- Node1 -->
<g id="node1" class="node">
<title>Node1</title>
<g id="a_node1"><a xlink:title=" ">
<polygon fill="#bfbfbf" stroke="black" points="173.5,-358.5 173.5,-388.5 286.5,-388.5 286.5,-358.5 173.5,-358.5"/>
<text text-anchor="start" x="181.5" y="-376.5" font-family="Helvetica,sans-Serif" font-size="10.00">src/enclave/enclave</text>
<text text-anchor="middle" x="230" y="-365.5" font-family="Helvetica,sans-Serif" font-size="10.00">_time.h</text>
</a>
</g>
</g>
<!-- Node2 -->
<g id="node2" class="node">
<title>Node2</title>
<g id="a_node2"><a xlink:href="enclave_2enclave_8h.html" target="_top" xlink:title=" ">
<polygon fill="white" stroke="black" points="94,-56.5 94,-75.5 216,-75.5 216,-56.5 94,-56.5"/>
<text text-anchor="middle" x="155" y="-63.5" font-family="Helvetica,sans-Serif" font-size="10.00">src/enclave/enclave.h</text>
</a>
</g>
</g>
<!-- Node1&#45;&gt;Node2 -->
<g id="edge1" class="edge">
<title>Node1&#45;&gt;Node2</title>
<path fill="none" stroke="midnightblue" d="M296.67,-364.16C350.34,-356.09 420.02,-342.12 440,-322 466.21,-295.61 459,-277.69 459,-240.5 459,-240.5 459,-240.5 459,-177 459,-124.87 298.95,-90.48 211.11,-75.53"/>
<polygon fill="midnightblue" stroke="midnightblue" points="295.9,-360.74 286.51,-365.65 296.91,-367.66 295.9,-360.74"/>
</g>
<!-- Node3 -->
<g id="node3" class="node">
<title>Node3</title>
<g id="a_node3"><a xlink:href="enclave_2main_8cpp.html" target="_top" xlink:title=" ">
<polygon fill="white" stroke="black" points="0,-0.5 0,-19.5 120,-19.5 120,-0.5 0,-0.5"/>
<text text-anchor="middle" x="60" y="-7.5" font-family="Helvetica,sans-Serif" font-size="10.00">src/enclave/main.cpp</text>
</a>
</g>
</g>
<!-- Node1&#45;&gt;Node3 -->
<g id="edge4" class="edge">
<title>Node1&#45;&gt;Node3</title>
<path fill="none" stroke="midnightblue" d="M163.02,-362.9C113.31,-354.43 51.13,-340.53 33,-322 6.99,-295.41 14,-277.69 14,-240.5 14,-240.5 14,-240.5 14,-121 14,-80.43 40.96,-37.5 53.6,-19.61"/>
<polygon fill="midnightblue" stroke="midnightblue" points="162.66,-366.39 173.1,-364.57 163.81,-359.48 162.66,-366.39"/>
</g>
<!-- Node4 -->
<g id="node4" class="node">
<title>Node4</title>
<g id="a_node4"><a xlink:href="enclave__time_8cpp.html" target="_top" xlink:title=" ">
<polygon fill="white" stroke="black" points="173.5,-291.5 173.5,-321.5 286.5,-321.5 286.5,-291.5 173.5,-291.5"/>
<text text-anchor="start" x="181.5" y="-309.5" font-family="Helvetica,sans-Serif" font-size="10.00">src/enclave/enclave</text>
<text text-anchor="middle" x="230" y="-298.5" font-family="Helvetica,sans-Serif" font-size="10.00">_time.cpp</text>
</a>
</g>
</g>
<!-- Node1&#45;&gt;Node4 -->
<g id="edge3" class="edge">
<title>Node1&#45;&gt;Node4</title>
<path fill="none" stroke="midnightblue" d="M230,-348.11C230,-339.15 230,-329.32 230,-321.58"/>
<polygon fill="midnightblue" stroke="midnightblue" points="226.5,-348.4 230,-358.4 233.5,-348.4 226.5,-348.4"/>
</g>
<!-- Node5 -->
<g id="node5" class="node">
<title>Node5</title>
<g id="a_node5"><a xlink:href="base__endpoint__registry_8cpp.html" target="_top" xlink:title=" ">
<polygon fill="white" stroke="black" points="305,-291.5 305,-321.5 431,-321.5 431,-291.5 305,-291.5"/>
<text text-anchor="start" x="313" y="-309.5" font-family="Helvetica,sans-Serif" font-size="10.00">src/endpoints/base</text>
<text text-anchor="middle" x="368" y="-298.5" font-family="Helvetica,sans-Serif" font-size="10.00">_endpoint_registry.cpp</text>
</a>
</g>
</g>
<!-- Node1&#45;&gt;Node5 -->
<g id="edge5" class="edge">
<title>Node1&#45;&gt;Node5</title>
<path fill="none" stroke="midnightblue" d="M269,-354.13C290.93,-343.8 317.87,-331.11 338.11,-321.58"/>
<polygon fill="midnightblue" stroke="midnightblue" points="267.5,-350.97 259.94,-358.4 270.48,-357.3 267.5,-350.97"/>
</g>
<!-- Node6 -->
<g id="node6" class="node">
<title>Node6</title>
<g id="a_node6"><a xlink:href="channels_8h.html" target="_top" xlink:title=" ">
<polygon fill="white" stroke="black" points="42.5,-297 42.5,-316 155.5,-316 155.5,-297 42.5,-297"/>
<text text-anchor="middle" x="99" y="-304" font-family="Helvetica,sans-Serif" font-size="10.00">src/node/channels.h</text>
</a>
</g>
</g>
<!-- Node1&#45;&gt;Node6 -->
<g id="edge6" class="edge">
<title>Node1&#45;&gt;Node6</title>
<path fill="none" stroke="midnightblue" d="M192.32,-353.8C167.2,-341.34 135.39,-325.56 116.14,-316.01"/>
<polygon fill="midnightblue" stroke="midnightblue" points="191.06,-357.09 201.57,-358.4 194.17,-350.82 191.06,-357.09"/>
</g>
<!-- Node2&#45;&gt;Node3 -->
<g id="edge2" class="edge">
<title>Node2&#45;&gt;Node3</title>
<path fill="none" stroke="midnightblue" d="M130.68,-51.18C113.2,-41.24 90.17,-28.15 75.23,-19.65"/>
<polygon fill="midnightblue" stroke="midnightblue" points="129.31,-54.43 139.74,-56.32 132.77,-48.34 129.31,-54.43"/>
</g>
<!-- Node7 -->
<g id="node7" class="node">
<title>Node7</title>
<g id="a_node7"><a xlink:href="node__to__node__channel__manager_8h.html" target="_top" xlink:title=" ">
<polygon fill="white" stroke="black" points="42.5,-224.5 42.5,-254.5 171.5,-254.5 171.5,-224.5 42.5,-224.5"/>
<text text-anchor="start" x="50.5" y="-242.5" font-family="Helvetica,sans-Serif" font-size="10.00">src/node/node_to_node</text>
<text text-anchor="middle" x="107" y="-231.5" font-family="Helvetica,sans-Serif" font-size="10.00">_channel_manager.h</text>
</a>
</g>
</g>
<!-- Node6&#45;&gt;Node7 -->
<g id="edge7" class="edge">
<title>Node6&#45;&gt;Node7</title>
<path fill="none" stroke="midnightblue" d="M101.31,-286.74C102.57,-276.49 104.11,-264 105.27,-254.59"/>
<polygon fill="midnightblue" stroke="midnightblue" points="97.83,-286.38 100.08,-296.73 104.77,-287.24 97.83,-286.38"/>
</g>
<!-- Node8 -->
<g id="node8" class="node">
<title>Node8</title>
<g id="a_node8"><a xlink:href="node__state_8h.html" target="_top" xlink:title=" ">
<polygon fill="white" stroke="black" points="45,-168.5 45,-187.5 169,-187.5 169,-168.5 45,-168.5"/>
<text text-anchor="middle" x="107" y="-175.5" font-family="Helvetica,sans-Serif" font-size="10.00">src/node/node_state.h</text>
</a>
</g>
</g>
<!-- Node7&#45;&gt;Node8 -->
<g id="edge8" class="edge">
<title>Node7&#45;&gt;Node8</title>
<path fill="none" stroke="midnightblue" d="M107,-214.29C107,-204.86 107,-194.65 107,-187.66"/>
<polygon fill="midnightblue" stroke="midnightblue" points="103.5,-214.4 107,-224.4 110.5,-214.4 103.5,-214.4"/>
</g>
<!-- Node8&#45;&gt;Node2 -->
<g id="edge9" class="edge">
<title>Node8&#45;&gt;Node2</title>
<path fill="none" stroke="midnightblue" d="M110.08,-158.38C112.71,-145.06 117.17,-126.91 124,-112 130.24,-98.37 140.59,-84.42 147.59,-75.74"/>
<polygon fill="midnightblue" stroke="midnightblue" points="106.63,-157.8 108.29,-168.26 113.52,-159.05 106.63,-157.8"/>
</g>
<!-- Node9 -->
<g id="node9" class="node">
<title>Node9</title>
<g id="a_node9"><a xlink:href="gov__effects_8h.html" target="_top" xlink:title=" ">
<polygon fill="white" stroke="black" points="133,-112.5 133,-131.5 277,-131.5 277,-112.5 133,-112.5"/>
<text text-anchor="middle" x="205" y="-119.5" font-family="Helvetica,sans-Serif" font-size="10.00">src/node/rpc/gov_effects.h</text>
</a>
</g>
</g>
<!-- Node8&#45;&gt;Node9 -->
<g id="edge10" class="edge">
<title>Node8&#45;&gt;Node9</title>
<path fill="none" stroke="midnightblue" d="M131.59,-163.45C149.68,-153.48 173.73,-140.23 189.29,-131.65"/>
<polygon fill="midnightblue" stroke="midnightblue" points="129.81,-160.43 122.75,-168.32 133.19,-166.56 129.81,-160.43"/>
</g>
<!-- Node9&#45;&gt;Node2 -->
<g id="edge11" class="edge">
<title>Node9&#45;&gt;Node2</title>
<path fill="none" stroke="midnightblue" d="M189.92,-104.72C181.11,-95.2 170.33,-83.56 163.1,-75.75"/>
<polygon fill="midnightblue" stroke="midnightblue" points="187.38,-107.12 196.74,-112.08 192.52,-102.37 187.38,-107.12"/>
</g>
</g>
</svg>
