<?xml version="1.0" encoding="UTF-8" standalone="no"?>
<!DOCTYPE svg PUBLIC "-//W3C//DTD SVG 1.1//EN"
 "http://www.w3.org/Graphics/SVG/1.1/DTD/svg11.dtd">
<!-- Generated by graphviz version 2.43.0 (0)
 -->
<!-- Title: src/enclave/forwarder_types.h Pages: 1 -->
<svg width="1376pt" height="766pt"
 viewBox="0.00 0.00 1375.58 766.00" xmlns="http://www.w3.org/2000/svg" xmlns:xlink="http://www.w3.org/1999/xlink">
<g id="graph0" class="graph" transform="scale(1 1) rotate(0) translate(4 762)">
<title>src/enclave/forwarder_types.h</title>
<polygon fill="white" stroke="transparent" points="-4,4 -4,-762 1371.58,-762 1371.58,4 -4,4"/>
<!-- Node1 -->
<g id="node1" class="node">
<title>Node1</title>
<g id="a_node1"><a xlink:title=" ">
<polygon fill="#bfbfbf" stroke="black" points="716.5,-727.5 716.5,-757.5 838.5,-757.5 838.5,-727.5 716.5,-727.5"/>
<text text-anchor="start" x="724.5" y="-745.5" font-family="Helvetica,sans-Serif" font-size="10.00">src/enclave/forwarder</text>
<text text-anchor="middle" x="777.5" y="-734.5" font-family="Helvetica,sans-Serif" font-size="10.00">_types.h</text>
</a>
</g>
</g>
<!-- Node2 -->
<g id="node2" class="node">
<title>Node2</title>
<g id="a_node2"><a xlink:href="rpc__handler_8h.html" target="_top" xlink:title=" ">
<polygon fill="white" stroke="black" points="707.5,-671.5 707.5,-690.5 847.5,-690.5 847.5,-671.5 707.5,-671.5"/>
<text text-anchor="middle" x="777.5" y="-678.5" font-family="Helvetica,sans-Serif" font-size="10.00">src/enclave/rpc_handler.h</text>
</a>
</g>
</g>
<!-- Node1&#45;&gt;Node2 -->
<g id="edge1" class="edge">
<title>Node1&#45;&gt;Node2</title>
<path fill="none" stroke="midnightblue" d="M777.5,-717.29C777.5,-707.86 777.5,-697.65 777.5,-690.66"/>
<polygon fill="midnightblue" stroke="midnightblue" points="774,-717.4 777.5,-727.4 781,-717.4 774,-717.4"/>
</g>
<!-- Node23 -->
<g id="node23" class="node">
<title>Node23</title>
<g id="a_node23"><a xlink:href="rpc__sessions_8h.html" target="_top" xlink:title=" ">
<polygon fill="white" stroke="black" points="1006.5,-498 1006.5,-517 1152.5,-517 1152.5,-498 1006.5,-498"/>
<text text-anchor="middle" x="1079.5" y="-505" font-family="Helvetica,sans-Serif" font-size="10.00">src/enclave/rpc_sessions.h</text>
</a>
</g>
</g>
<!-- Node1&#45;&gt;Node23 -->
<g id="edge56" class="edge">
<title>Node1&#45;&gt;Node23</title>
<path fill="none" stroke="midnightblue" d="M848.73,-729.82C907.59,-716.57 989.36,-689.31 1039.5,-635 1071.69,-600.14 1077.97,-539.47 1079.2,-517.1"/>
<polygon fill="midnightblue" stroke="midnightblue" points="847.78,-726.44 838.75,-731.98 849.27,-733.28 847.78,-726.44"/>
</g>
<!-- Node24 -->
<g id="node24" class="node">
<title>Node24</title>
<g id="a_node24"><a xlink:href="forwarder_8h.html" target="_top" xlink:title=" ">
<polygon fill="white" stroke="black" points="179.5,-431 179.5,-450 313.5,-450 313.5,-431 179.5,-431"/>
<text text-anchor="middle" x="246.5" y="-438" font-family="Helvetica,sans-Serif" font-size="10.00">src/node/rpc/forwarder.h</text>
</a>
</g>
</g>
<!-- Node1&#45;&gt;Node24 -->
<g id="edge57" class="edge">
<title>Node1&#45;&gt;Node24</title>
<path fill="none" stroke="midnightblue" d="M706.2,-740.74C561.41,-737.26 246.5,-719 246.5,-626 246.5,-626 246.5,-626 246.5,-568 246.5,-523.64 246.5,-470.52 246.5,-450.09"/>
<polygon fill="midnightblue" stroke="midnightblue" points="706.25,-744.24 716.33,-740.96 706.41,-737.24 706.25,-744.24"/>
</g>
<!-- Node3 -->
<g id="node3" class="node">
<title>Node3</title>
<g id="a_node3"><a xlink:href="raft__types_8h.html" target="_top" xlink:title=" ">
<polygon fill="white" stroke="black" points="717.5,-492.5 717.5,-522.5 837.5,-522.5 837.5,-492.5 717.5,-492.5"/>
<text text-anchor="start" x="725.5" y="-510.5" font-family="Helvetica,sans-Serif" font-size="10.00">src/consensus/aft/raft</text>
<text text-anchor="middle" x="777.5" y="-499.5" font-family="Helvetica,sans-Serif" font-size="10.00">_types.h</text>
</a>
</g>
</g>
<!-- Node2&#45;&gt;Node3 -->
<g id="edge2" class="edge">
<title>Node2&#45;&gt;Node3</title>
<path fill="none" stroke="midnightblue" d="M777.5,-661.1C777.5,-626.45 777.5,-553.53 777.5,-522.72"/>
<polygon fill="midnightblue" stroke="midnightblue" points="774,-661.26 777.5,-671.26 781,-661.26 774,-661.26"/>
</g>
<!-- Node21 -->
<g id="node21" class="node">
<title>Node21</title>
<g id="a_node21"><a xlink:href="rpc__map_8h.html" target="_top" xlink:title=" ">
<polygon fill="white" stroke="black" points="904.5,-615.5 904.5,-634.5 1030.5,-634.5 1030.5,-615.5 904.5,-615.5"/>
<text text-anchor="middle" x="967.5" y="-622.5" font-family="Helvetica,sans-Serif" font-size="10.00">src/enclave/rpc_map.h</text>
</a>
</g>
</g>
<!-- Node2&#45;&gt;Node21 -->
<g id="edge31" class="edge">
<title>Node2&#45;&gt;Node21</title>
<path fill="none" stroke="midnightblue" d="M817.26,-668.7C853.12,-658.51 905.07,-643.74 937.53,-634.52"/>
<polygon fill="midnightblue" stroke="midnightblue" points="816.27,-665.34 807.61,-671.44 818.18,-672.08 816.27,-665.34"/>
</g>
<!-- Node2&#45;&gt;Node23 -->
<g id="edge48" class="edge">
<title>Node2&#45;&gt;Node23</title>
<path fill="none" stroke="midnightblue" d="M788.99,-663.28C807.91,-637.06 848.16,-586.42 894.5,-559 931.89,-536.87 979.24,-524.18 1016.67,-517.06"/>
<polygon fill="midnightblue" stroke="midnightblue" points="786.13,-661.28 783.22,-671.46 791.85,-665.31 786.13,-661.28"/>
</g>
<!-- Node25 -->
<g id="node25" class="node">
<title>Node25</title>
<g id="a_node25"><a xlink:href="frontend_8h.html" target="_top" xlink:title=" ">
<polygon fill="white" stroke="black" points="88,-364 88,-383 217,-383 217,-364 88,-364"/>
<text text-anchor="middle" x="152.5" y="-371" font-family="Helvetica,sans-Serif" font-size="10.00">src/node/rpc/frontend.h</text>
</a>
</g>
</g>
<!-- Node2&#45;&gt;Node25 -->
<g id="edge55" class="edge">
<title>Node2&#45;&gt;Node25</title>
<path fill="none" stroke="midnightblue" d="M697.12,-674.15C528.13,-660.76 151.5,-624.78 151.5,-570 151.5,-570 151.5,-570 151.5,-506.5 151.5,-459.98 152.13,-404.24 152.39,-383.15"/>
<polygon fill="midnightblue" stroke="midnightblue" points="696.97,-677.64 707.21,-674.94 697.51,-670.67 696.97,-677.64"/>
</g>
<!-- Node28 -->
<g id="node28" class="node">
<title>Node28</title>
<g id="a_node28"><a xlink:href="node__to__node_8h.html" target="_top" xlink:title=" ">
<polygon fill="white" stroke="black" points="312.5,-498 312.5,-517 450.5,-517 450.5,-498 312.5,-498"/>
<text text-anchor="middle" x="381.5" y="-505" font-family="Helvetica,sans-Serif" font-size="10.00">src/node/node_to_node.h</text>
</a>
</g>
</g>
<!-- Node2&#45;&gt;Node28 -->
<g id="edge49" class="edge">
<title>Node2&#45;&gt;Node28</title>
<path fill="none" stroke="midnightblue" d="M748.34,-667.37C671.68,-634.17 465.95,-545.07 401.26,-517.06"/>
<polygon fill="midnightblue" stroke="midnightblue" points="747.29,-670.73 757.86,-671.5 750.08,-664.31 747.29,-670.73"/>
</g>
<!-- Node4 -->
<g id="node4" class="node">
<title>Node4</title>
<g id="a_node4"><a xlink:href="request__message_8h.html" target="_top" xlink:title=" ">
<polygon fill="white" stroke="black" points="619,-425.5 619,-455.5 744,-455.5 744,-425.5 619,-425.5"/>
<text text-anchor="start" x="627" y="-443.5" font-family="Helvetica,sans-Serif" font-size="10.00">src/consensus/aft/impl</text>
<text text-anchor="middle" x="681.5" y="-432.5" font-family="Helvetica,sans-Serif" font-size="10.00">/request_message.h</text>
</a>
</g>
</g>
<!-- Node3&#45;&gt;Node4 -->
<g id="edge3" class="edge">
<title>Node3&#45;&gt;Node4</title>
<path fill="none" stroke="midnightblue" d="M748.31,-486.73C733.45,-476.68 715.74,-464.68 702.29,-455.58"/>
<polygon fill="midnightblue" stroke="midnightblue" points="746.43,-489.69 756.67,-492.4 750.35,-483.89 746.43,-489.69"/>
</g>
<!-- Node5 -->
<g id="node5" class="node">
<title>Node5</title>
<g id="a_node5"><a xlink:href="state_8h.html" target="_top" xlink:title=" ">
<polygon fill="white" stroke="black" points="801,-425.5 801,-455.5 926,-455.5 926,-425.5 801,-425.5"/>
<text text-anchor="start" x="809" y="-443.5" font-family="Helvetica,sans-Serif" font-size="10.00">src/consensus/aft/impl</text>
<text text-anchor="middle" x="863.5" y="-432.5" font-family="Helvetica,sans-Serif" font-size="10.00">/state.h</text>
</a>
</g>
</g>
<!-- Node3&#45;&gt;Node5 -->
<g id="edge4" class="edge">
<title>Node3&#45;&gt;Node5</title>
<path fill="none" stroke="midnightblue" d="M804.4,-486.17C817.55,-476.23 833.05,-464.51 844.88,-455.58"/>
<polygon fill="midnightblue" stroke="midnightblue" points="802.03,-483.57 796.16,-492.4 806.25,-489.16 802.03,-483.57"/>
</g>
<!-- Node6 -->
<g id="node6" class="node">
<title>Node6</title>
<g id="a_node6"><a xlink:href="raft_8h.html" target="_top" xlink:title=" ">
<polygon fill="white" stroke="black" points="727,-302.5 727,-321.5 856,-321.5 856,-302.5 727,-302.5"/>
<text text-anchor="middle" x="791.5" y="-309.5" font-family="Helvetica,sans-Serif" font-size="10.00">src/consensus/aft/raft.h</text>
</a>
</g>
</g>
<!-- Node3&#45;&gt;Node6 -->
<g id="edge13" class="edge">
<title>Node3&#45;&gt;Node6</title>
<path fill="none" stroke="midnightblue" d="M779.25,-482.28C782.4,-438.82 788.86,-349.55 790.88,-321.58"/>
<polygon fill="midnightblue" stroke="midnightblue" points="775.76,-482.04 778.53,-492.27 782.74,-482.55 775.76,-482.04"/>
</g>
<!-- Node12 -->
<g id="node12" class="node">
<title>Node12</title>
<g id="a_node12"><a xlink:href="node__connections_8h.html" target="_top" xlink:title=" ">
<polygon fill="white" stroke="black" points="446,-431 446,-450 601,-450 601,-431 446,-431"/>
<text text-anchor="middle" x="523.5" y="-438" font-family="Helvetica,sans-Serif" font-size="10.00">src/host/node_connections.h</text>
</a>
</g>
</g>
<!-- Node3&#45;&gt;Node12 -->
<g id="edge14" class="edge">
<title>Node3&#45;&gt;Node12</title>
<path fill="none" stroke="midnightblue" d="M712.98,-489.99C663.21,-477.25 596.37,-460.15 556.83,-450.03"/>
<polygon fill="midnightblue" stroke="midnightblue" points="712.14,-493.39 722.7,-492.48 713.88,-486.61 712.14,-493.39"/>
</g>
<!-- Node14 -->
<g id="node14" class="node">
<title>Node14</title>
<g id="a_node14"><a xlink:href="node__client_8h.html" target="_top" xlink:title=" ">
<polygon fill="white" stroke="black" points="1107.5,-431 1107.5,-450 1233.5,-450 1233.5,-431 1107.5,-431"/>
<text text-anchor="middle" x="1170.5" y="-438" font-family="Helvetica,sans-Serif" font-size="10.00">src/node/node_client.h</text>
</a>
</g>
</g>
<!-- Node3&#45;&gt;Node14 -->
<g id="edge16" class="edge">
<title>Node3&#45;&gt;Node14</title>
<path fill="none" stroke="midnightblue" d="M847.82,-494.87C925.7,-481.99 1049.42,-461.53 1118.86,-450.04"/>
<polygon fill="midnightblue" stroke="midnightblue" points="846.91,-491.47 837.62,-496.56 848.05,-498.38 846.91,-491.47"/>
</g>
<!-- Node20 -->
<g id="node20" class="node">
<title>Node20</title>
<g id="a_node20"><a xlink:href="resharing__tracker_8h.html" target="_top" xlink:title=" ">
<polygon fill="white" stroke="black" points="944,-425.5 944,-455.5 1051,-455.5 1051,-425.5 944,-425.5"/>
<text text-anchor="start" x="952" y="-443.5" font-family="Helvetica,sans-Serif" font-size="10.00">src/node/resharing</text>
<text text-anchor="middle" x="997.5" y="-432.5" font-family="Helvetica,sans-Serif" font-size="10.00">_tracker.h</text>
</a>
</g>
</g>
<!-- Node3&#45;&gt;Node20 -->
<g id="edge28" class="edge">
<title>Node3&#45;&gt;Node20</title>
<path fill="none" stroke="midnightblue" d="M834.77,-489.58C870.5,-479.02 915.96,-465.59 949.74,-455.61"/>
<polygon fill="midnightblue" stroke="midnightblue" points="833.56,-486.29 824.97,-492.48 835.55,-493 833.56,-486.29"/>
</g>
<!-- Node5&#45;&gt;Node6 -->
<g id="edge5" class="edge">
<title>Node5&#45;&gt;Node6</title>
<path fill="none" stroke="midnightblue" d="M850.3,-416.59C845.34,-407.95 839.65,-398.03 834.5,-389 820.69,-364.77 804.52,-336.11 796.51,-321.9"/>
<polygon fill="midnightblue" stroke="midnightblue" points="847.33,-418.44 855.35,-425.36 853.4,-414.95 847.33,-418.44"/>
</g>
<!-- Node11 -->
<g id="node11" class="node">
<title>Node11</title>
<g id="a_node11"><a xlink:href="resharing_8h.html" target="_top" xlink:title=" ">
<polygon fill="white" stroke="black" points="876.5,-364 876.5,-383 992.5,-383 992.5,-364 876.5,-364"/>
<text text-anchor="middle" x="934.5" y="-371" font-family="Helvetica,sans-Serif" font-size="10.00">src/node/resharing.h</text>
</a>
</g>
</g>
<!-- Node5&#45;&gt;Node11 -->
<g id="edge11" class="edge">
<title>Node5&#45;&gt;Node11</title>
<path fill="none" stroke="midnightblue" d="M886.62,-418.34C899.65,-406.4 915.24,-392.14 925,-383.19"/>
<polygon fill="midnightblue" stroke="midnightblue" points="883.92,-416.06 878.91,-425.4 888.65,-421.22 883.92,-416.06"/>
</g>
<!-- Node7 -->
<g id="node7" class="node">
<title>Node7</title>
<g id="a_node7"><a xlink:href="node__state_8h.html" target="_top" xlink:title=" ">
<polygon fill="white" stroke="black" points="521.5,-174 521.5,-193 645.5,-193 645.5,-174 521.5,-174"/>
<text text-anchor="middle" x="583.5" y="-181" font-family="Helvetica,sans-Serif" font-size="10.00">src/node/node_state.h</text>
</a>
</g>
</g>
<!-- Node6&#45;&gt;Node7 -->
<g id="edge6" class="edge">
<title>Node6&#45;&gt;Node7</title>
<path fill="none" stroke="midnightblue" d="M769.54,-297.08C745.19,-281.7 704.71,-256.3 669.5,-235 644.76,-220.03 615.7,-203.1 598.49,-193.14"/>
<polygon fill="midnightblue" stroke="midnightblue" points="767.71,-300.06 778.03,-302.45 771.45,-294.15 767.71,-300.06"/>
</g>
<!-- Node8 -->
<g id="node8" class="node">
<title>Node8</title>
<g id="a_node8"><a xlink:href="enclave_2enclave_8h.html" target="_top" xlink:title=" ">
<polygon fill="white" stroke="black" points="328.5,-56.5 328.5,-75.5 450.5,-75.5 450.5,-56.5 328.5,-56.5"/>
<text text-anchor="middle" x="389.5" y="-63.5" font-family="Helvetica,sans-Serif" font-size="10.00">src/enclave/enclave.h</text>
</a>
</g>
</g>
<!-- Node7&#45;&gt;Node8 -->
<g id="edge7" class="edge">
<title>Node7&#45;&gt;Node8</title>
<path fill="none" stroke="midnightblue" d="M552.48,-170.05C530.4,-160.7 500.36,-146.98 475.5,-132 446.16,-114.32 414.82,-88.7 399.33,-75.53"/>
<polygon fill="midnightblue" stroke="midnightblue" points="551.14,-173.28 561.71,-173.9 553.83,-166.82 551.14,-173.28"/>
</g>
<!-- Node10 -->
<g id="node10" class="node">
<title>Node10</title>
<g id="a_node10"><a xlink:href="gov__effects_8h.html" target="_top" xlink:title=" ">
<polygon fill="white" stroke="black" points="484.5,-112.5 484.5,-131.5 628.5,-131.5 628.5,-112.5 484.5,-112.5"/>
<text text-anchor="middle" x="556.5" y="-119.5" font-family="Helvetica,sans-Serif" font-size="10.00">src/node/rpc/gov_effects.h</text>
</a>
</g>
</g>
<!-- Node7&#45;&gt;Node10 -->
<g id="edge9" class="edge">
<title>Node7&#45;&gt;Node10</title>
<path fill="none" stroke="midnightblue" d="M575.48,-164.83C570.49,-153.83 564.29,-140.16 560.36,-131.51"/>
<polygon fill="midnightblue" stroke="midnightblue" points="572.31,-166.32 579.63,-173.98 578.69,-163.42 572.31,-166.32"/>
</g>
<!-- Node9 -->
<g id="node9" class="node">
<title>Node9</title>
<g id="a_node9"><a xlink:href="enclave_2main_8cpp.html" target="_top" xlink:title=" ">
<polygon fill="white" stroke="black" points="329.5,-0.5 329.5,-19.5 449.5,-19.5 449.5,-0.5 329.5,-0.5"/>
<text text-anchor="middle" x="389.5" y="-7.5" font-family="Helvetica,sans-Serif" font-size="10.00">src/enclave/main.cpp</text>
</a>
</g>
</g>
<!-- Node8&#45;&gt;Node9 -->
<g id="edge8" class="edge">
<title>Node8&#45;&gt;Node9</title>
<path fill="none" stroke="midnightblue" d="M389.5,-45.8C389.5,-36.91 389.5,-26.78 389.5,-19.75"/>
<polygon fill="midnightblue" stroke="midnightblue" points="386,-46.08 389.5,-56.08 393,-46.08 386,-46.08"/>
</g>
<!-- Node10&#45;&gt;Node8 -->
<g id="edge10" class="edge">
<title>Node10&#45;&gt;Node8</title>
<path fill="none" stroke="midnightblue" d="M520.33,-109.3C488.86,-99.13 444.01,-84.62 415.84,-75.52"/>
<polygon fill="midnightblue" stroke="midnightblue" points="519.45,-112.7 530.04,-112.44 521.6,-106.04 519.45,-112.7"/>
</g>
<!-- Node11&#45;&gt;Node7 -->
<g id="edge12" class="edge">
<title>Node11&#45;&gt;Node7</title>
<path fill="none" stroke="midnightblue" d="M921.1,-355.39C908.2,-339.83 887.46,-317.06 865.5,-302 783.26,-245.62 669.72,-208.68 615.21,-193.03"/>
<polygon fill="midnightblue" stroke="midnightblue" points="918.73,-358.03 927.74,-363.61 924.18,-353.63 918.73,-358.03"/>
</g>
<!-- Node13 -->
<g id="node13" class="node">
<title>Node13</title>
<g id="a_node13"><a xlink:href="host_2main_8cpp.html" target="_top" xlink:title=" ">
<polygon fill="white" stroke="black" points="472,-364 472,-383 575,-383 575,-364 472,-364"/>
<text text-anchor="middle" x="523.5" y="-371" font-family="Helvetica,sans-Serif" font-size="10.00">src/host/main.cpp</text>
</a>
</g>
</g>
<!-- Node12&#45;&gt;Node13 -->
<g id="edge15" class="edge">
<title>Node12&#45;&gt;Node13</title>
<path fill="none" stroke="midnightblue" d="M523.5,-420.54C523.5,-408.17 523.5,-392.62 523.5,-383.13"/>
<polygon fill="midnightblue" stroke="midnightblue" points="520,-420.73 523.5,-430.73 527,-420.73 520,-420.73"/>
</g>
<!-- Node14&#45;&gt;Node6 -->
<g id="edge23" class="edge">
<title>Node14&#45;&gt;Node6</title>
<path fill="none" stroke="midnightblue" d="M1170.77,-420.68C1169.93,-401.84 1165.49,-373.48 1147.5,-358 1105.07,-321.47 946.71,-314.05 856.14,-312.88"/>
<polygon fill="midnightblue" stroke="midnightblue" points="1167.27,-420.8 1170.91,-430.75 1174.27,-420.7 1167.27,-420.8"/>
</g>
<!-- Node15 -->
<g id="node15" class="node">
<title>Node15</title>
<g id="a_node15"><a xlink:href="orc__requests_8h.html" target="_top" xlink:title=" ">
<polygon fill="white" stroke="black" points="625,-358.5 625,-388.5 744,-388.5 744,-358.5 625,-358.5"/>
<text text-anchor="start" x="633" y="-376.5" font-family="Helvetica,sans-Serif" font-size="10.00">src/consensus/aft/orc</text>
<text text-anchor="middle" x="684.5" y="-365.5" font-family="Helvetica,sans-Serif" font-size="10.00">_requests.h</text>
</a>
</g>
</g>
<!-- Node14&#45;&gt;Node15 -->
<g id="edge17" class="edge">
<title>Node14&#45;&gt;Node15</title>
<path fill="none" stroke="midnightblue" d="M1097.52,-429.74C1001.24,-416.86 833.6,-394.44 744.38,-382.51"/>
<polygon fill="midnightblue" stroke="midnightblue" points="1097.09,-433.21 1107.46,-431.07 1098.01,-426.27 1097.09,-433.21"/>
</g>
<!-- Node18 -->
<g id="node18" class="node">
<title>Node18</title>
<g id="a_node18"><a xlink:href="http__node__client_8h.html" target="_top" xlink:title=" ">
<polygon fill="white" stroke="black" points="1018.5,-235.5 1018.5,-265.5 1128.5,-265.5 1128.5,-235.5 1018.5,-235.5"/>
<text text-anchor="start" x="1026.5" y="-253.5" font-family="Helvetica,sans-Serif" font-size="10.00">src/node/http_node</text>
<text text-anchor="middle" x="1073.5" y="-242.5" font-family="Helvetica,sans-Serif" font-size="10.00">_client.h</text>
</a>
</g>
</g>
<!-- Node14&#45;&gt;Node18 -->
<g id="edge24" class="edge">
<title>Node14&#45;&gt;Node18</title>
<path fill="none" stroke="midnightblue" d="M1174.31,-420.26C1176.79,-403.27 1178.3,-378.16 1170.5,-358 1155.06,-318.12 1116.97,-284 1093.37,-265.74"/>
<polygon fill="midnightblue" stroke="midnightblue" points="1170.78,-420.11 1172.53,-430.55 1177.68,-421.29 1170.78,-420.11"/>
</g>
<!-- Node19 -->
<g id="node19" class="node">
<title>Node19</title>
<g id="a_node19"><a xlink:href="retired__nodes__cleanup_8h.html" target="_top" xlink:title=" ">
<polygon fill="white" stroke="black" points="1010.5,-358.5 1010.5,-388.5 1138.5,-388.5 1138.5,-358.5 1010.5,-358.5"/>
<text text-anchor="start" x="1018.5" y="-376.5" font-family="Helvetica,sans-Serif" font-size="10.00">src/node/retired_nodes</text>
<text text-anchor="middle" x="1074.5" y="-365.5" font-family="Helvetica,sans-Serif" font-size="10.00">_cleanup.h</text>
</a>
</g>
</g>
<!-- Node14&#45;&gt;Node19 -->
<g id="edge26" class="edge">
<title>Node14&#45;&gt;Node19</title>
<path fill="none" stroke="midnightblue" d="M1148.86,-424.85C1132.84,-414 1111.13,-399.3 1095.31,-388.59"/>
<polygon fill="midnightblue" stroke="midnightblue" points="1147.31,-428.03 1157.55,-430.73 1151.23,-422.23 1147.31,-428.03"/>
</g>
<!-- Node15&#45;&gt;Node6 -->
<g id="edge18" class="edge">
<title>Node15&#45;&gt;Node6</title>
<path fill="none" stroke="midnightblue" d="M718.66,-353.51C737.89,-342.81 760.98,-329.97 775.93,-321.66"/>
<polygon fill="midnightblue" stroke="midnightblue" points="716.9,-350.48 709.86,-358.4 720.3,-356.6 716.9,-350.48"/>
</g>
<!-- Node16 -->
<g id="node16" class="node">
<title>Node16</title>
<g id="a_node16"><a xlink:href="node__frontend_8h.html" target="_top" xlink:title=" ">
<polygon fill="white" stroke="black" points="273.5,-302.5 273.5,-321.5 431.5,-321.5 431.5,-302.5 273.5,-302.5"/>
<text text-anchor="middle" x="352.5" y="-309.5" font-family="Helvetica,sans-Serif" font-size="10.00">src/node/rpc/node_frontend.h</text>
</a>
</g>
</g>
<!-- Node15&#45;&gt;Node16 -->
<g id="edge19" class="edge">
<title>Node15&#45;&gt;Node16</title>
<path fill="none" stroke="midnightblue" d="M614.67,-359.99C550.18,-348.43 456.12,-331.57 399.94,-321.5"/>
<polygon fill="midnightblue" stroke="midnightblue" points="614.3,-363.47 624.76,-361.79 615.54,-356.58 614.3,-363.47"/>
</g>
<!-- Node16&#45;&gt;Node8 -->
<g id="edge20" class="edge">
<title>Node16&#45;&gt;Node8</title>
<path fill="none" stroke="midnightblue" d="M346.37,-292.39C344.03,-284.37 341.66,-274.82 340.5,-266 338.71,-252.34 338.55,-248.64 340.5,-235 349.48,-172.14 376.46,-99.94 386.06,-75.55"/>
<polygon fill="midnightblue" stroke="midnightblue" points="343.1,-293.66 349.41,-302.17 349.79,-291.58 343.1,-293.66"/>
</g>
<!-- Node17 -->
<g id="node17" class="node">
<title>Node17</title>
<g id="a_node17"><a xlink:href="jwt__key__auto__refresh_8h.html" target="_top" xlink:title=" ">
<polygon fill="white" stroke="black" points="350,-235.5 350,-265.5 475,-265.5 475,-235.5 350,-235.5"/>
<text text-anchor="start" x="358" y="-253.5" font-family="Helvetica,sans-Serif" font-size="10.00">src/node/jwt_key_auto</text>
<text text-anchor="middle" x="412.5" y="-242.5" font-family="Helvetica,sans-Serif" font-size="10.00">_refresh.h</text>
</a>
</g>
</g>
<!-- Node16&#45;&gt;Node17 -->
<g id="edge21" class="edge">
<title>Node16&#45;&gt;Node17</title>
<path fill="none" stroke="midnightblue" d="M368.26,-295.37C377.6,-286.11 389.32,-274.48 398.36,-265.52"/>
<polygon fill="midnightblue" stroke="midnightblue" points="365.73,-292.95 361.1,-302.48 370.66,-297.92 365.73,-292.95"/>
</g>
<!-- Node17&#45;&gt;Node7 -->
<g id="edge22" class="edge">
<title>Node17&#45;&gt;Node7</title>
<path fill="none" stroke="midnightblue" d="M459.11,-231.78C492.26,-219.18 535.34,-202.81 561.12,-193.01"/>
<polygon fill="midnightblue" stroke="midnightblue" points="457.71,-228.57 449.6,-235.4 460.2,-235.11 457.71,-228.57"/>
</g>
<!-- Node18&#45;&gt;Node7 -->
<g id="edge25" class="edge">
<title>Node18&#45;&gt;Node7</title>
<path fill="none" stroke="midnightblue" d="M1008.21,-240.84C913.44,-228.27 738.95,-205.12 645.86,-192.77"/>
<polygon fill="midnightblue" stroke="midnightblue" points="1007.87,-244.32 1018.24,-242.17 1008.79,-237.39 1007.87,-244.32"/>
</g>
<!-- Node19&#45;&gt;Node6 -->
<g id="edge27" class="edge">
<title>Node19&#45;&gt;Node6</title>
<path fill="none" stroke="midnightblue" d="M1000.46,-356.93C946.75,-345.64 876.12,-330.79 832.28,-321.57"/>
<polygon fill="midnightblue" stroke="midnightblue" points="999.78,-360.37 1010.28,-359 1001.22,-353.52 999.78,-360.37"/>
</g>
<!-- Node20&#45;&gt;Node6 -->
<g id="edge29" class="edge">
<title>Node20&#45;&gt;Node6</title>
<path fill="none" stroke="midnightblue" d="M937.68,-422.12C914.7,-413.97 888.88,-402.95 867.5,-389 859.69,-383.9 817.69,-340.38 799.7,-321.59"/>
<polygon fill="midnightblue" stroke="midnightblue" points="936.74,-425.49 947.33,-425.43 939.01,-418.87 936.74,-425.49"/>
</g>
<!-- Node20&#45;&gt;Node11 -->
<g id="edge30" class="edge">
<title>Node20&#45;&gt;Node11</title>
<path fill="none" stroke="midnightblue" d="M976.66,-418C965.16,-406.13 951.51,-392.05 942.93,-383.19"/>
<polygon fill="midnightblue" stroke="midnightblue" points="974.36,-420.65 983.83,-425.4 979.38,-415.78 974.36,-420.65"/>
</g>
<!-- Node21&#45;&gt;Node8 -->
<g id="edge32" class="edge">
<title>Node21&#45;&gt;Node8</title>
<path fill="none" stroke="midnightblue" d="M1040.86,-616.17C1148.74,-602.58 1337.5,-570.02 1337.5,-508.5 1337.5,-508.5 1337.5,-508.5 1337.5,-182.5 1337.5,-153.15 1471.38,-177.41 1167.5,-112 1031.1,-82.64 609.49,-71.38 450.77,-68.11"/>
<polygon fill="midnightblue" stroke="midnightblue" points="1040.18,-612.73 1030.68,-617.42 1041.04,-619.67 1040.18,-612.73"/>
</g>
<!-- Node22 -->
<g id="node22" class="node">
<title>Node22</title>
<g id="a_node22"><a xlink:href="http__endpoint_8h.html" target="_top" xlink:title=" ">
<polygon fill="white" stroke="black" points="903,-559.5 903,-578.5 1036,-578.5 1036,-559.5 903,-559.5"/>
<text text-anchor="middle" x="969.5" y="-566.5" font-family="Helvetica,sans-Serif" font-size="10.00">src/http/http_endpoint.h</text>
</a>
</g>
</g>
<!-- Node21&#45;&gt;Node22 -->
<g id="edge33" class="edge">
<title>Node21&#45;&gt;Node22</title>
<path fill="none" stroke="midnightblue" d="M968.21,-604.8C968.54,-595.91 968.92,-585.78 969.18,-578.75"/>
<polygon fill="midnightblue" stroke="midnightblue" points="964.7,-604.96 967.83,-615.08 971.7,-605.22 964.7,-604.96"/>
</g>
<!-- Node21&#45;&gt;Node24 -->
<g id="edge39" class="edge">
<title>Node21&#45;&gt;Node24</title>
<path fill="none" stroke="midnightblue" d="M894.28,-620.08C742.86,-610.83 401.24,-583.7 303.5,-523 274.9,-505.24 256.8,-467.25 249.79,-450.15"/>
<polygon fill="midnightblue" stroke="midnightblue" points="894.22,-623.58 904.42,-620.69 894.64,-616.6 894.22,-623.58"/>
</g>
<!-- Node22&#45;&gt;Node23 -->
<g id="edge34" class="edge">
<title>Node22&#45;&gt;Node23</title>
<path fill="none" stroke="midnightblue" d="M994.07,-554.71C1015.37,-543.19 1045.57,-526.86 1063.77,-517.01"/>
<polygon fill="midnightblue" stroke="midnightblue" points="992.39,-551.64 985.26,-559.48 995.72,-557.8 992.39,-551.64"/>
</g>
<!-- Node23&#45;&gt;Node7 -->
<g id="edge37" class="edge">
<title>Node23&#45;&gt;Node7</title>
<path fill="none" stroke="midnightblue" d="M1162.78,-497.76C1191.6,-490.73 1221.82,-478.21 1242.5,-456 1267.84,-428.78 1261.5,-411.69 1261.5,-374.5 1261.5,-374.5 1261.5,-374.5 1261.5,-311 1261.5,-246.36 1198.85,-255.36 1137.5,-235 1047.67,-205.19 770.65,-191.43 645.73,-186.61"/>
<polygon fill="midnightblue" stroke="midnightblue" points="1161.65,-494.43 1152.66,-500.03 1163.18,-501.26 1161.65,-494.43"/>
</g>
<!-- Node23&#45;&gt;Node8 -->
<g id="edge35" class="edge">
<title>Node23&#45;&gt;Node8</title>
<path fill="none" stroke="midnightblue" d="M1163.02,-499.68C1197.79,-493.08 1236.49,-480.36 1264.5,-456 1294.25,-430.13 1299.5,-413.92 1299.5,-374.5 1299.5,-374.5 1299.5,-374.5 1299.5,-182.5 1299.5,-96.7 654.65,-73.51 450.62,-68.32"/>
<polygon fill="midnightblue" stroke="midnightblue" points="1162.1,-496.29 1152.85,-501.46 1163.31,-503.18 1162.1,-496.29"/>
</g>
<!-- Node23&#45;&gt;Node11 -->
<g id="edge38" class="edge">
<title>Node23&#45;&gt;Node11</title>
<path fill="none" stroke="midnightblue" d="M1079.85,-487.56C1079.2,-469.47 1075.47,-442.45 1060.5,-425 1047.64,-410.02 997.67,-393.03 964.65,-383.06"/>
<polygon fill="midnightblue" stroke="midnightblue" points="1076.36,-487.76 1079.94,-497.73 1083.36,-487.71 1076.36,-487.76"/>
</g>
<!-- Node23&#45;&gt;Node14 -->
<g id="edge36" class="edge">
<title>Node23&#45;&gt;Node14</title>
<path fill="none" stroke="midnightblue" d="M1099.91,-491.92C1117.9,-479.07 1143.51,-460.78 1158.42,-450.13"/>
<polygon fill="midnightblue" stroke="midnightblue" points="1097.88,-489.07 1091.77,-497.73 1101.94,-494.77 1097.88,-489.07"/>
</g>
<!-- Node24&#45;&gt;Node8 -->
<g id="edge40" class="edge">
<title>Node24&#45;&gt;Node8</title>
<path fill="none" stroke="midnightblue" d="M246.26,-420.8C245.96,-396.12 245.5,-351.3 245.5,-313 245.5,-313 245.5,-313 245.5,-182.5 245.5,-123.85 319.08,-90.03 361.05,-75.51"/>
<polygon fill="midnightblue" stroke="midnightblue" points="242.76,-420.95 246.39,-430.91 249.76,-420.87 242.76,-420.95"/>
</g>
<!-- Node24&#45;&gt;Node25 -->
<g id="edge41" class="edge">
<title>Node24&#45;&gt;Node25</title>
<path fill="none" stroke="midnightblue" d="M225.41,-424.92C206.83,-412.07 180.38,-393.78 164.98,-383.13"/>
<polygon fill="midnightblue" stroke="midnightblue" points="223.61,-427.93 233.82,-430.73 227.59,-422.17 223.61,-427.93"/>
</g>
<!-- Node25&#45;&gt;Node7 -->
<g id="edge42" class="edge">
<title>Node25&#45;&gt;Node7</title>
<path fill="none" stroke="midnightblue" d="M168.64,-356.86C199.38,-328.02 269.6,-266.51 340.5,-235 398.78,-209.1 470.89,-196.27 521.36,-190.05"/>
<polygon fill="midnightblue" stroke="midnightblue" points="166.21,-354.34 161.37,-363.77 171.03,-359.42 166.21,-354.34"/>
</g>
<!-- Node25&#45;&gt;Node16 -->
<g id="edge45" class="edge">
<title>Node25&#45;&gt;Node16</title>
<path fill="none" stroke="midnightblue" d="M191.06,-361.03C229.93,-349.46 289.02,-331.88 323.9,-321.51"/>
<polygon fill="midnightblue" stroke="midnightblue" points="189.74,-357.77 181.16,-363.98 191.74,-364.48 189.74,-357.77"/>
</g>
<!-- Node26 -->
<g id="node26" class="node">
<title>Node26</title>
<g id="a_node26"><a xlink:href="member__frontend_8h.html" target="_top" xlink:title=" ">
<polygon fill="white" stroke="black" points="97.5,-168.5 97.5,-198.5 217.5,-198.5 217.5,-168.5 97.5,-168.5"/>
<text text-anchor="start" x="105.5" y="-186.5" font-family="Helvetica,sans-Serif" font-size="10.00">src/node/rpc/member</text>
<text text-anchor="middle" x="157.5" y="-175.5" font-family="Helvetica,sans-Serif" font-size="10.00">_frontend.h</text>
</a>
</g>
</g>
<!-- Node25&#45;&gt;Node26 -->
<g id="edge43" class="edge">
<title>Node25&#45;&gt;Node26</title>
<path fill="none" stroke="midnightblue" d="M153,-353.88C153.99,-316.33 156.23,-232.24 157.12,-198.7"/>
<polygon fill="midnightblue" stroke="midnightblue" points="149.5,-353.84 152.73,-363.93 156.49,-354.03 149.5,-353.84"/>
</g>
<!-- Node27 -->
<g id="node27" class="node">
<title>Node27</title>
<g id="a_node27"><a xlink:href="user__frontend_8h.html" target="_top" xlink:title=" ">
<polygon fill="white" stroke="black" points="0,-112.5 0,-131.5 155,-131.5 155,-112.5 0,-112.5"/>
<text text-anchor="middle" x="77.5" y="-119.5" font-family="Helvetica,sans-Serif" font-size="10.00">src/node/rpc/user_frontend.h</text>
</a>
</g>
</g>
<!-- Node25&#45;&gt;Node27 -->
<g id="edge46" class="edge">
<title>Node25&#45;&gt;Node27</title>
<path fill="none" stroke="midnightblue" d="M144.27,-354.14C130.6,-322.92 103.27,-257.18 88.5,-199 82.4,-174.96 79.36,-145.74 78.15,-131.55"/>
<polygon fill="midnightblue" stroke="midnightblue" points="141.24,-355.95 148.49,-363.68 147.64,-353.12 141.24,-355.95"/>
</g>
<!-- Node26&#45;&gt;Node8 -->
<g id="edge44" class="edge">
<title>Node26&#45;&gt;Node8</title>
<path fill="none" stroke="midnightblue" d="M175.13,-160.8C188.94,-145.13 209.46,-124.6 231.5,-112 263.81,-93.53 304.24,-82.19 336.11,-75.52"/>
<polygon fill="midnightblue" stroke="midnightblue" points="172.4,-158.61 168.55,-168.48 177.71,-163.17 172.4,-158.61"/>
</g>
<!-- Node27&#45;&gt;Node8 -->
<g id="edge47" class="edge">
<title>Node27&#45;&gt;Node8</title>
<path fill="none" stroke="midnightblue" d="M136.85,-110.73C195.81,-100.52 285.16,-85.06 340.29,-75.52"/>
<polygon fill="midnightblue" stroke="midnightblue" points="136.19,-107.29 126.94,-112.44 137.39,-114.19 136.19,-107.29"/>
</g>
<!-- Node28&#45;&gt;Node6 -->
<g id="edge50" class="edge">
<title>Node28&#45;&gt;Node6</title>
<path fill="none" stroke="midnightblue" d="M385.76,-488.11C394.28,-455.88 416.65,-389.62 462.5,-358 504.15,-329.28 643.31,-318.79 726.72,-315.03"/>
<polygon fill="midnightblue" stroke="midnightblue" points="382.33,-487.43 383.31,-497.98 389.12,-489.12 382.33,-487.43"/>
</g>
<!-- Node28&#45;&gt;Node7 -->
<g id="edge51" class="edge">
<title>Node28&#45;&gt;Node7</title>
<path fill="none" stroke="midnightblue" d="M379.58,-487.37C377.54,-457.43 377.46,-398.73 402.5,-358 414.68,-338.18 424.07,-338.47 440.5,-322 478.02,-284.38 483.74,-271.34 522.5,-235 539.15,-219.39 559.85,-202.79 572.36,-193.05"/>
<polygon fill="midnightblue" stroke="midnightblue" points="376.12,-487.99 380.45,-497.66 383.1,-487.4 376.12,-487.99"/>
</g>
<!-- Node28&#45;&gt;Node24 -->
<g id="edge54" class="edge">
<title>Node28&#45;&gt;Node24</title>
<path fill="none" stroke="midnightblue" d="M354.38,-493.44C327.64,-480.57 287.53,-461.26 264.5,-450.17"/>
<polygon fill="midnightblue" stroke="midnightblue" points="353.04,-496.68 363.57,-497.87 356.08,-490.38 353.04,-496.68"/>
</g>
<!-- Node29 -->
<g id="node29" class="node">
<title>Node29</title>
<g id="a_node29"><a xlink:href="node__to__node__channel__manager_8h.html" target="_top" xlink:title=" ">
<polygon fill="white" stroke="black" points="532,-235.5 532,-265.5 661,-265.5 661,-235.5 532,-235.5"/>
<text text-anchor="start" x="540" y="-253.5" font-family="Helvetica,sans-Serif" font-size="10.00">src/node/node_to_node</text>
<text text-anchor="middle" x="596.5" y="-242.5" font-family="Helvetica,sans-Serif" font-size="10.00">_channel_manager.h</text>
</a>
</g>
</g>
<!-- Node28&#45;&gt;Node29 -->
<g id="edge52" class="edge">
<title>Node28&#45;&gt;Node29</title>
<path fill="none" stroke="midnightblue" d="M382.49,-487.56C383.79,-470.78 386.76,-445.78 393.5,-425 403.87,-393.04 405.76,-382.73 428.5,-358 450.3,-334.3 529.5,-288.61 570.9,-265.55"/>
<polygon fill="midnightblue" stroke="midnightblue" points="378.99,-487.51 381.83,-497.72 385.97,-487.96 378.99,-487.51"/>
</g>
<!-- Node29&#45;&gt;Node7 -->
<g id="edge53" class="edge">
<title>Node29&#45;&gt;Node7</title>
<path fill="none" stroke="midnightblue" d="M591.65,-225.25C589.4,-214.02 586.88,-201.38 585.24,-193.19"/>
<polygon fill="midnightblue" stroke="midnightblue" points="588.29,-226.28 593.68,-235.4 595.15,-224.9 588.29,-226.28"/>
</g>
</g>
</svg>
