<?xml version="1.0" encoding="UTF-8" standalone="no"?>
<!DOCTYPE svg PUBLIC "-//W3C//DTD SVG 1.1//EN"
 "http://www.w3.org/Graphics/SVG/1.1/DTD/svg11.dtd">
<!-- Generated by graphviz version 2.43.0 (0)
 -->
<!-- Title: src/node/rpc/gov_effects_interface.h Pages: 1 -->
<svg width="1688pt" height="475pt"
 viewBox="0.00 0.00 1688.00 475.00" xmlns="http://www.w3.org/2000/svg" xmlns:xlink="http://www.w3.org/1999/xlink">
<g id="graph0" class="graph" transform="scale(1 1) rotate(0) translate(4 471)">
<title>src/node/rpc/gov_effects_interface.h</title>
<polygon fill="white" stroke="transparent" points="-4,4 -4,-471 1684,-471 1684,4 -4,4"/>
<!-- Node1 -->
<g id="node1" class="node">
<title>Node1</title>
<g id="a_node1"><a xlink:title=" ">
<polygon fill="#bfbfbf" stroke="black" points="58.5,-436.5 58.5,-466.5 193.5,-466.5 193.5,-436.5 58.5,-436.5"/>
<text text-anchor="start" x="66.5" y="-454.5" font-family="Helvetica,sans-Serif" font-size="10.00">src/node/rpc/gov_effects</text>
<text text-anchor="middle" x="126" y="-443.5" font-family="Helvetica,sans-Serif" font-size="10.00">_interface.h</text>
</a>
</g>
</g>
<!-- Node2 -->
<g id="node2" class="node">
<title>Node2</title>
<g id="a_node2"><a xlink:href="wrap_8cpp.html" target="_top" xlink:title=" ">
<polygon fill="white" stroke="black" points="447.5,-185 447.5,-204 536.5,-204 536.5,-185 447.5,-185"/>
<text text-anchor="middle" x="492" y="-192" font-family="Helvetica,sans-Serif" font-size="10.00">src/js/wrap.cpp</text>
</a>
</g>
</g>
<!-- Node1&#45;&gt;Node2 -->
<g id="edge1" class="edge">
<title>Node1&#45;&gt;Node2</title>
<path fill="none" stroke="midnightblue" d="M106.38,-428.78C72.06,-388.13 9.09,-299.8 57,-246 82.69,-217.15 341.79,-202.28 447.48,-197.37"/>
<polygon fill="midnightblue" stroke="midnightblue" points="103.84,-431.19 113.03,-436.48 109.14,-426.62 103.84,-431.19"/>
</g>
<!-- Node3 -->
<g id="node3" class="node">
<title>Node3</title>
<g id="a_node3"><a xlink:href="wrap_8h.html" target="_top" xlink:title=" ">
<polygon fill="white" stroke="black" points="640,-319 640,-338 718,-338 718,-319 640,-319"/>
<text text-anchor="middle" x="679" y="-326" font-family="Helvetica,sans-Serif" font-size="10.00">src/js/wrap.h</text>
</a>
</g>
</g>
<!-- Node1&#45;&gt;Node3 -->
<g id="edge2" class="edge">
<title>Node1&#45;&gt;Node3</title>
<path fill="none" stroke="midnightblue" d="M200.37,-434.23C319.42,-408.18 548.67,-358.02 640.03,-338.03"/>
<polygon fill="midnightblue" stroke="midnightblue" points="199.27,-430.89 190.25,-436.44 200.76,-437.72 199.27,-430.89"/>
</g>
<!-- Node13 -->
<g id="node13" class="node">
<title>Node13</title>
<g id="a_node13"><a xlink:href="gov__effects_8h.html" target="_top" xlink:title=" ">
<polygon fill="white" stroke="black" points="1058,-118 1058,-137 1202,-137 1202,-118 1058,-118"/>
<text text-anchor="middle" x="1130" y="-125" font-family="Helvetica,sans-Serif" font-size="10.00">src/node/rpc/gov_effects.h</text>
</a>
</g>
</g>
<!-- Node1&#45;&gt;Node13 -->
<g id="edge22" class="edge">
<title>Node1&#45;&gt;Node13</title>
<path fill="none" stroke="midnightblue" d="M84.49,-431.81C47.78,-412.12 0,-377.31 0,-329.5 0,-329.5 0,-329.5 0,-260.5 0,-153.6 808.19,-133.1 1057.59,-129.32"/>
<polygon fill="midnightblue" stroke="midnightblue" points="83.06,-435.01 93.55,-436.49 86.27,-428.79 83.06,-435.01"/>
</g>
<!-- Node14 -->
<g id="node14" class="node">
<title>Node14</title>
<g id="a_node14"><a xlink:href="member__frontend_8h.html" target="_top" xlink:title=" ">
<polygon fill="white" stroke="black" points="66,-246.5 66,-276.5 186,-276.5 186,-246.5 66,-246.5"/>
<text text-anchor="start" x="74" y="-264.5" font-family="Helvetica,sans-Serif" font-size="10.00">src/node/rpc/member</text>
<text text-anchor="middle" x="126" y="-253.5" font-family="Helvetica,sans-Serif" font-size="10.00">_frontend.h</text>
</a>
</g>
</g>
<!-- Node1&#45;&gt;Node14 -->
<g id="edge23" class="edge">
<title>Node1&#45;&gt;Node14</title>
<path fill="none" stroke="midnightblue" d="M126,-426.21C126,-386.37 126,-308.37 126,-276.54"/>
<polygon fill="midnightblue" stroke="midnightblue" points="122.5,-426.37 126,-436.37 129.5,-426.37 122.5,-426.37"/>
</g>
<!-- Node15 -->
<g id="node15" class="node">
<title>Node15</title>
<g id="a_node15"><a xlink:href="node__interface_8h.html" target="_top" xlink:title=" ">
<polygon fill="white" stroke="black" points="1064.5,-380.5 1064.5,-399.5 1225.5,-399.5 1225.5,-380.5 1064.5,-380.5"/>
<text text-anchor="middle" x="1145" y="-387.5" font-family="Helvetica,sans-Serif" font-size="10.00">src/node/rpc/node_interface.h</text>
</a>
</g>
</g>
<!-- Node1&#45;&gt;Node15 -->
<g id="edge24" class="edge">
<title>Node1&#45;&gt;Node15</title>
<path fill="none" stroke="midnightblue" d="M203.76,-445.96C392.33,-434.95 872.54,-406.91 1064.2,-395.72"/>
<polygon fill="midnightblue" stroke="midnightblue" points="203.43,-442.47 193.65,-446.55 203.84,-449.46 203.43,-442.47"/>
</g>
<!-- Node3&#45;&gt;Node2 -->
<g id="edge15" class="edge">
<title>Node3&#45;&gt;Node2</title>
<path fill="none" stroke="midnightblue" d="M728.3,-317.01C777.63,-304.31 842.3,-280.27 813,-246 777.99,-205.05 616.53,-197.09 536.8,-195.69"/>
<polygon fill="midnightblue" stroke="midnightblue" points="727.22,-313.67 718.35,-319.47 728.9,-320.46 727.22,-313.67"/>
</g>
<!-- Node4 -->
<g id="node4" class="node">
<title>Node4</title>
<g id="a_node4"><a xlink:href="js__generic__base_8cpp.html" target="_top" xlink:title=" ">
<polygon fill="white" stroke="black" points="686,-246.5 686,-276.5 804,-276.5 804,-246.5 686,-246.5"/>
<text text-anchor="start" x="694" y="-264.5" font-family="Helvetica,sans-Serif" font-size="10.00">src/apps/js_generic</text>
<text text-anchor="middle" x="745" y="-253.5" font-family="Helvetica,sans-Serif" font-size="10.00">/js_generic_base.cpp</text>
</a>
</g>
</g>
<!-- Node3&#45;&gt;Node4 -->
<g id="edge3" class="edge">
<title>Node3&#45;&gt;Node4</title>
<path fill="none" stroke="midnightblue" d="M695.13,-311.62C706,-300.91 720.22,-286.9 730.69,-276.59"/>
<polygon fill="midnightblue" stroke="midnightblue" points="692.57,-309.22 687.9,-318.73 697.48,-314.21 692.57,-309.22"/>
</g>
<!-- Node5 -->
<g id="node5" class="node">
<title>Node5</title>
<g id="a_node5"><a xlink:href="enclave_2enclave_8h.html" target="_top" xlink:title=" ">
<polygon fill="white" stroke="black" points="1207,-56.5 1207,-75.5 1329,-75.5 1329,-56.5 1207,-56.5"/>
<text text-anchor="middle" x="1268" y="-63.5" font-family="Helvetica,sans-Serif" font-size="10.00">src/enclave/enclave.h</text>
</a>
</g>
</g>
<!-- Node3&#45;&gt;Node5 -->
<g id="edge4" class="edge">
<title>Node3&#45;&gt;Node5</title>
<path fill="none" stroke="midnightblue" d="M728.31,-325.86C807.37,-322.24 957.6,-310.97 997,-277 1055.23,-226.79 991.91,-163.51 1049,-112 1071.84,-91.39 1150.35,-79.05 1206.84,-72.64"/>
<polygon fill="midnightblue" stroke="midnightblue" points="727.95,-322.37 718.11,-326.3 728.25,-329.37 727.95,-322.37"/>
</g>
<!-- Node7 -->
<g id="node7" class="node">
<title>Node7</title>
<g id="a_node7"><a xlink:href="js_2consensus_8cpp.html" target="_top" xlink:title=" ">
<polygon fill="white" stroke="black" points="204,-252 204,-271 320,-271 320,-252 204,-252"/>
<text text-anchor="middle" x="262" y="-259" font-family="Helvetica,sans-Serif" font-size="10.00">src/js/consensus.cpp</text>
</a>
</g>
</g>
<!-- Node3&#45;&gt;Node7 -->
<g id="edge6" class="edge">
<title>Node3&#45;&gt;Node7</title>
<path fill="none" stroke="midnightblue" d="M629.76,-321.5C561.86,-312.97 435.75,-296.23 329,-277 319.28,-275.25 308.82,-273.11 299.12,-271.02"/>
<polygon fill="midnightblue" stroke="midnightblue" points="629.39,-324.98 639.75,-322.75 630.26,-318.03 629.39,-324.98"/>
</g>
<!-- Node8 -->
<g id="node8" class="node">
<title>Node8</title>
<g id="a_node8"><a xlink:href="conv_8cpp.html" target="_top" xlink:title=" ">
<polygon fill="white" stroke="black" points="338,-252 338,-271 426,-271 426,-252 338,-252"/>
<text text-anchor="middle" x="382" y="-259" font-family="Helvetica,sans-Serif" font-size="10.00">src/js/conv.cpp</text>
</a>
</g>
</g>
<!-- Node3&#45;&gt;Node8 -->
<g id="edge8" class="edge">
<title>Node3&#45;&gt;Node8</title>
<path fill="none" stroke="midnightblue" d="M629.86,-318.27C580.44,-308.77 502.15,-293.12 435,-277 427.49,-275.2 419.42,-273.08 411.91,-271.04"/>
<polygon fill="midnightblue" stroke="midnightblue" points="629.47,-321.76 639.95,-320.21 630.79,-314.89 629.47,-321.76"/>
</g>
<!-- Node9 -->
<g id="node9" class="node">
<title>Node9</title>
<g id="a_node9"><a xlink:href="js_2crypto_8cpp.html" target="_top" xlink:title=" ">
<polygon fill="white" stroke="black" points="444,-252 444,-271 540,-271 540,-252 444,-252"/>
<text text-anchor="middle" x="492" y="-259" font-family="Helvetica,sans-Serif" font-size="10.00">src/js/crypto.cpp</text>
</a>
</g>
</g>
<!-- Node3&#45;&gt;Node9 -->
<g id="edge10" class="edge">
<title>Node3&#45;&gt;Node9</title>
<path fill="none" stroke="midnightblue" d="M644.29,-315.44C607.2,-302.54 549.32,-282.42 516.64,-271.06"/>
<polygon fill="midnightblue" stroke="midnightblue" points="643.57,-318.89 654.17,-318.87 645.87,-312.28 643.57,-318.89"/>
</g>
<!-- Node10 -->
<g id="node10" class="node">
<title>Node10</title>
<g id="a_node10"><a xlink:href="js_2historical_8cpp.html" target="_top" xlink:title=" ">
<polygon fill="white" stroke="black" points="558,-252 558,-271 668,-271 668,-252 558,-252"/>
<text text-anchor="middle" x="613" y="-259" font-family="Helvetica,sans-Serif" font-size="10.00">src/js/historical.cpp</text>
</a>
</g>
</g>
<!-- Node3&#45;&gt;Node10 -->
<g id="edge12" class="edge">
<title>Node3&#45;&gt;Node10</title>
<path fill="none" stroke="midnightblue" d="M662.75,-311.5C649.81,-298.75 632.19,-281.39 621.76,-271.13"/>
<polygon fill="midnightblue" stroke="midnightblue" points="660.52,-314.21 670.1,-318.73 665.43,-309.22 660.52,-314.21"/>
</g>
<!-- Node11 -->
<g id="node11" class="node">
<title>Node11</title>
<g id="a_node11"><a xlink:href="openenclave_8cpp.html" target="_top" xlink:title=" ">
<polygon fill="white" stroke="black" points="860,-252 860,-271 988,-271 988,-252 860,-252"/>
<text text-anchor="middle" x="924" y="-259" font-family="Helvetica,sans-Serif" font-size="10.00">src/js/openenclave.cpp</text>
</a>
</g>
</g>
<!-- Node3&#45;&gt;Node11 -->
<g id="edge14" class="edge">
<title>Node3&#45;&gt;Node11</title>
<path fill="none" stroke="midnightblue" d="M721.13,-316.32C769.5,-303.49 847.82,-282.71 891.65,-271.08"/>
<polygon fill="midnightblue" stroke="midnightblue" points="720.05,-312.99 711.28,-318.94 721.84,-319.75 720.05,-312.99"/>
</g>
<!-- Node12 -->
<g id="node12" class="node">
<title>Node12</title>
<g id="a_node12"><a xlink:href="node__state_8h.html" target="_top" xlink:title=" ">
<polygon fill="white" stroke="black" points="1094,-185 1094,-204 1218,-204 1218,-185 1094,-185"/>
<text text-anchor="middle" x="1156" y="-192" font-family="Helvetica,sans-Serif" font-size="10.00">src/node/node_state.h</text>
</a>
</g>
</g>
<!-- Node3&#45;&gt;Node12 -->
<g id="edge16" class="edge">
<title>Node3&#45;&gt;Node12</title>
<path fill="none" stroke="midnightblue" d="M728.47,-327C797.96,-324.83 927.46,-315.42 1030,-277 1077.57,-259.17 1125.78,-221.22 1146.05,-204.14"/>
<polygon fill="midnightblue" stroke="midnightblue" points="728.16,-323.5 718.26,-327.28 728.35,-330.5 728.16,-323.5"/>
</g>
<!-- Node3&#45;&gt;Node14 -->
<g id="edge20" class="edge">
<title>Node3&#45;&gt;Node14</title>
<path fill="none" stroke="midnightblue" d="M629.74,-324.05C541.99,-317.52 353,-301.78 195,-277 192.1,-276.54 189.13,-276.05 186.14,-275.52"/>
<polygon fill="midnightblue" stroke="midnightblue" points="629.7,-327.55 639.93,-324.8 630.21,-320.57 629.7,-327.55"/>
</g>
<!-- Node6 -->
<g id="node6" class="node">
<title>Node6</title>
<g id="a_node6"><a xlink:href="enclave_2main_8cpp.html" target="_top" xlink:title=" ">
<polygon fill="white" stroke="black" points="1208,-0.5 1208,-19.5 1328,-19.5 1328,-0.5 1208,-0.5"/>
<text text-anchor="middle" x="1268" y="-7.5" font-family="Helvetica,sans-Serif" font-size="10.00">src/enclave/main.cpp</text>
</a>
</g>
</g>
<!-- Node5&#45;&gt;Node6 -->
<g id="edge5" class="edge">
<title>Node5&#45;&gt;Node6</title>
<path fill="none" stroke="midnightblue" d="M1268,-45.8C1268,-36.91 1268,-26.78 1268,-19.75"/>
<polygon fill="midnightblue" stroke="midnightblue" points="1264.5,-46.08 1268,-56.08 1271.5,-46.08 1264.5,-46.08"/>
</g>
<!-- Node7&#45;&gt;Node2 -->
<g id="edge7" class="edge">
<title>Node7&#45;&gt;Node2</title>
<path fill="none" stroke="midnightblue" d="M302.37,-249.09C347.87,-236.23 420.81,-215.62 461.7,-204.06"/>
<polygon fill="midnightblue" stroke="midnightblue" points="301.21,-245.78 292.54,-251.87 303.12,-252.52 301.21,-245.78"/>
</g>
<!-- Node8&#45;&gt;Node2 -->
<g id="edge9" class="edge">
<title>Node8&#45;&gt;Node2</title>
<path fill="none" stroke="midnightblue" d="M405.5,-246.62C427.29,-233.74 459.04,-214.98 477.4,-204.13"/>
<polygon fill="midnightblue" stroke="midnightblue" points="403.66,-243.63 396.84,-251.73 407.22,-249.66 403.66,-243.63"/>
</g>
<!-- Node9&#45;&gt;Node2 -->
<g id="edge11" class="edge">
<title>Node9&#45;&gt;Node2</title>
<path fill="none" stroke="midnightblue" d="M492,-241.54C492,-229.17 492,-213.62 492,-204.13"/>
<polygon fill="midnightblue" stroke="midnightblue" points="488.5,-241.73 492,-251.73 495.5,-241.73 488.5,-241.73"/>
</g>
<!-- Node10&#45;&gt;Node2 -->
<g id="edge13" class="edge">
<title>Node10&#45;&gt;Node2</title>
<path fill="none" stroke="midnightblue" d="M587.79,-246.96C563.8,-234.07 528.44,-215.07 508.06,-204.13"/>
<polygon fill="midnightblue" stroke="midnightblue" points="586.22,-250.08 596.68,-251.73 589.53,-243.92 586.22,-250.08"/>
</g>
<!-- Node12&#45;&gt;Node5 -->
<g id="edge17" class="edge">
<title>Node12&#45;&gt;Node5</title>
<path fill="none" stroke="midnightblue" d="M1174.46,-178.07C1185.54,-168.46 1199.63,-155.56 1211,-143 1231.59,-120.26 1252.35,-90.44 1262.16,-75.84"/>
<polygon fill="midnightblue" stroke="midnightblue" points="1172,-175.57 1166.68,-184.73 1176.55,-180.89 1172,-175.57"/>
</g>
<!-- Node12&#45;&gt;Node13 -->
<g id="edge18" class="edge">
<title>Node12&#45;&gt;Node13</title>
<path fill="none" stroke="midnightblue" d="M1148.72,-175.29C1143.72,-162.81 1137.33,-146.81 1133.45,-137.13"/>
<polygon fill="midnightblue" stroke="midnightblue" points="1145.53,-176.75 1152.49,-184.73 1152.03,-174.15 1145.53,-176.75"/>
</g>
<!-- Node13&#45;&gt;Node5 -->
<g id="edge19" class="edge">
<title>Node13&#45;&gt;Node5</title>
<path fill="none" stroke="midnightblue" d="M1159.04,-113.98C1185.84,-102.42 1224.92,-85.58 1248.26,-75.51"/>
<polygon fill="midnightblue" stroke="midnightblue" points="1157.57,-110.8 1149.77,-117.98 1160.34,-117.23 1157.57,-110.8"/>
</g>
<!-- Node14&#45;&gt;Node5 -->
<g id="edge21" class="edge">
<title>Node14&#45;&gt;Node5</title>
<path fill="none" stroke="midnightblue" d="M182.43,-243.61C244.74,-225.48 348.27,-196.87 439,-179 723.63,-122.93 1068.8,-86.17 1206.74,-72.72"/>
<polygon fill="midnightblue" stroke="midnightblue" points="181.4,-240.26 172.79,-246.43 183.37,-246.98 181.4,-240.26"/>
</g>
<!-- Node15&#45;&gt;Node2 -->
<g id="edge25" class="edge">
<title>Node15&#45;&gt;Node2</title>
<path fill="none" stroke="midnightblue" d="M1130.69,-372.7C1100.22,-338.44 1029.13,-260.89 997,-246 915.66,-208.31 644.53,-198.63 536.74,-196.24"/>
<polygon fill="midnightblue" stroke="midnightblue" points="1128.26,-375.24 1137.51,-380.41 1133.51,-370.6 1128.26,-375.24"/>
</g>
<!-- Node15&#45;&gt;Node3 -->
<g id="edge26" class="edge">
<title>Node15&#45;&gt;Node3</title>
<path fill="none" stroke="midnightblue" d="M1068.14,-379.19C967.63,-366.35 795.32,-344.35 718.25,-334.51"/>
<polygon fill="midnightblue" stroke="midnightblue" points="1067.87,-382.68 1078.23,-380.48 1068.76,-375.74 1067.87,-382.68"/>
</g>
<!-- Node15&#45;&gt;Node14 -->
<g id="edge31" class="edge">
<title>Node15&#45;&gt;Node14</title>
<path fill="none" stroke="midnightblue" d="M1054.22,-382.85C951.37,-375.46 778.82,-361.81 631,-344 436.36,-320.55 387.89,-312.06 195,-277 192.11,-276.47 189.15,-275.92 186.17,-275.35"/>
<polygon fill="midnightblue" stroke="midnightblue" points="1054.04,-386.34 1064.26,-383.57 1054.54,-379.36 1054.04,-386.34"/>
</g>
<!-- Node16 -->
<g id="node16" class="node">
<title>Node16</title>
<g id="a_node16"><a xlink:href="historical__queries_8h.html" target="_top" xlink:title=" ">
<polygon fill="white" stroke="black" points="1306,-179.5 1306,-209.5 1412,-209.5 1412,-179.5 1306,-179.5"/>
<text text-anchor="start" x="1314" y="-197.5" font-family="Helvetica,sans-Serif" font-size="10.00">src/node/historical</text>
<text text-anchor="middle" x="1359" y="-186.5" font-family="Helvetica,sans-Serif" font-size="10.00">_queries.h</text>
</a>
</g>
</g>
<!-- Node15&#45;&gt;Node16 -->
<g id="edge27" class="edge">
<title>Node15&#45;&gt;Node16</title>
<path fill="none" stroke="midnightblue" d="M1219.2,-377.91C1243.06,-371.31 1268.16,-360.78 1287,-344 1322.65,-312.24 1309.63,-288.69 1331,-246 1337.19,-233.63 1344.85,-219.92 1350.58,-209.91"/>
<polygon fill="midnightblue" stroke="midnightblue" points="1218.25,-374.54 1209.43,-380.42 1219.99,-381.32 1218.25,-374.54"/>
</g>
<!-- Node18 -->
<g id="node18" class="node">
<title>Node18</title>
<g id="a_node18"><a xlink:href="network__identity__subsystem_8h.html" target="_top" xlink:title=" ">
<polygon fill="white" stroke="black" points="1340.5,-313.5 1340.5,-343.5 1467.5,-343.5 1467.5,-313.5 1340.5,-313.5"/>
<text text-anchor="start" x="1348.5" y="-331.5" font-family="Helvetica,sans-Serif" font-size="10.00">src/node/rpc/network</text>
<text text-anchor="middle" x="1404" y="-320.5" font-family="Helvetica,sans-Serif" font-size="10.00">_identity_subsystem.h</text>
</a>
</g>
</g>
<!-- Node15&#45;&gt;Node18 -->
<g id="edge32" class="edge">
<title>Node15&#45;&gt;Node18</title>
<path fill="none" stroke="midnightblue" d="M1191.88,-378.23C1234.2,-368.51 1296.74,-354.14 1342.96,-343.52"/>
<polygon fill="midnightblue" stroke="midnightblue" points="1191.07,-374.82 1182.11,-380.48 1192.64,-381.65 1191.07,-374.82"/>
</g>
<!-- Node20 -->
<g id="node20" class="node">
<title>Node20</title>
<g id="a_node20"><a xlink:href="node__frontend_8h.html" target="_top" xlink:title=" ">
<polygon fill="white" stroke="black" points="1120,-319 1120,-338 1278,-338 1278,-319 1120,-319"/>
<text text-anchor="middle" x="1199" y="-326" font-family="Helvetica,sans-Serif" font-size="10.00">src/node/rpc/node_frontend.h</text>
</a>
</g>
</g>
<!-- Node15&#45;&gt;Node20 -->
<g id="edge35" class="edge">
<title>Node15&#45;&gt;Node20</title>
<path fill="none" stroke="midnightblue" d="M1159.52,-373C1169.74,-361.74 1183.02,-347.1 1191.28,-338.01"/>
<polygon fill="midnightblue" stroke="midnightblue" points="1156.87,-370.72 1152.74,-380.48 1162.05,-375.42 1156.87,-370.72"/>
</g>
<!-- Node22 -->
<g id="node22" class="node">
<title>Node22</title>
<g id="a_node22"><a xlink:href="node__operation_8h.html" target="_top" xlink:title=" ">
<polygon fill="white" stroke="black" points="1516,-118 1516,-137 1680,-137 1680,-118 1516,-118"/>
<text text-anchor="middle" x="1598" y="-125" font-family="Helvetica,sans-Serif" font-size="10.00">src/node/rpc/node_operation.h</text>
</a>
</g>
</g>
<!-- Node15&#45;&gt;Node22 -->
<g id="edge39" class="edge">
<title>Node15&#45;&gt;Node22</title>
<path fill="none" stroke="midnightblue" d="M1235.73,-385.69C1320.25,-381.03 1438.8,-369.96 1477,-344 1554.72,-291.18 1588.02,-171.02 1596.02,-137.39"/>
<polygon fill="midnightblue" stroke="midnightblue" points="1235.4,-382.2 1225.6,-386.23 1235.77,-389.19 1235.4,-382.2"/>
</g>
<!-- Node16&#45;&gt;Node5 -->
<g id="edge28" class="edge">
<title>Node16&#45;&gt;Node5</title>
<path fill="none" stroke="midnightblue" d="M1400.39,-174.16C1412.48,-166.3 1424.25,-155.97 1431,-143 1437.36,-130.78 1439.35,-122.96 1431,-112 1418.15,-95.12 1367.87,-82.96 1326.52,-75.57"/>
<polygon fill="midnightblue" stroke="midnightblue" points="1398.36,-171.29 1391.59,-179.44 1401.96,-177.29 1398.36,-171.29"/>
</g>
<!-- Node17 -->
<g id="node17" class="node">
<title>Node17</title>
<g id="a_node17"><a xlink:href="historical__transaction__fetcher_8h.html" target="_top" xlink:title=" ">
<polygon fill="white" stroke="black" points="1296.5,-112.5 1296.5,-142.5 1421.5,-142.5 1421.5,-112.5 1296.5,-112.5"/>
<text text-anchor="start" x="1304.5" y="-130.5" font-family="Helvetica,sans-Serif" font-size="10.00">src/indexing/historical</text>
<text text-anchor="middle" x="1359" y="-119.5" font-family="Helvetica,sans-Serif" font-size="10.00">_transaction_fetcher.h</text>
</a>
</g>
</g>
<!-- Node16&#45;&gt;Node17 -->
<g id="edge29" class="edge">
<title>Node16&#45;&gt;Node17</title>
<path fill="none" stroke="midnightblue" d="M1359,-169.11C1359,-160.15 1359,-150.32 1359,-142.58"/>
<polygon fill="midnightblue" stroke="midnightblue" points="1355.5,-169.4 1359,-179.4 1362.5,-169.4 1355.5,-169.4"/>
</g>
<!-- Node17&#45;&gt;Node5 -->
<g id="edge30" class="edge">
<title>Node17&#45;&gt;Node5</title>
<path fill="none" stroke="midnightblue" d="M1328.83,-106.78C1312.71,-96.23 1293.67,-83.78 1281.24,-75.66"/>
<polygon fill="midnightblue" stroke="midnightblue" points="1327.15,-109.86 1337.43,-112.4 1330.98,-104 1327.15,-109.86"/>
</g>
<!-- Node18&#45;&gt;Node5 -->
<g id="edge33" class="edge">
<title>Node18&#45;&gt;Node5</title>
<path fill="none" stroke="midnightblue" d="M1440.95,-307.72C1452.05,-299.76 1462.89,-289.48 1469,-277 1489.96,-234.16 1507.27,-177.53 1447,-112 1431.06,-94.67 1374.4,-82.4 1329.05,-75.1"/>
<polygon fill="midnightblue" stroke="midnightblue" points="1438.87,-304.9 1432.48,-313.35 1442.75,-310.72 1438.87,-304.9"/>
</g>
<!-- Node19 -->
<g id="node19" class="node">
<title>Node19</title>
<g id="a_node19"><a xlink:href="historical__queries__adapter_8cpp.html" target="_top" xlink:title=" ">
<polygon fill="white" stroke="black" points="1340,-246.5 1340,-276.5 1460,-276.5 1460,-246.5 1340,-246.5"/>
<text text-anchor="start" x="1348" y="-264.5" font-family="Helvetica,sans-Serif" font-size="10.00">src/node/historical</text>
<text text-anchor="middle" x="1400" y="-253.5" font-family="Helvetica,sans-Serif" font-size="10.00">_queries_adapter.cpp</text>
</a>
</g>
</g>
<!-- Node18&#45;&gt;Node19 -->
<g id="edge34" class="edge">
<title>Node18&#45;&gt;Node19</title>
<path fill="none" stroke="midnightblue" d="M1402.52,-303.4C1401.96,-294.37 1401.35,-284.41 1400.87,-276.58"/>
<polygon fill="midnightblue" stroke="midnightblue" points="1399.02,-303.63 1403.13,-313.4 1406.01,-303.2 1399.02,-303.63"/>
</g>
<!-- Node20&#45;&gt;Node5 -->
<g id="edge36" class="edge">
<title>Node20&#45;&gt;Node5</title>
<path fill="none" stroke="midnightblue" d="M1222.02,-313.22C1234.08,-304.39 1247.81,-291.9 1255,-277 1289.28,-205.93 1274.97,-105.29 1269.66,-75.57"/>
<polygon fill="midnightblue" stroke="midnightblue" points="1219.89,-310.44 1213.64,-318.99 1223.86,-316.2 1219.89,-310.44"/>
</g>
<!-- Node21 -->
<g id="node21" class="node">
<title>Node21</title>
<g id="a_node21"><a xlink:href="jwt__key__auto__refresh_8h.html" target="_top" xlink:title=" ">
<polygon fill="white" stroke="black" points="1120.5,-246.5 1120.5,-276.5 1245.5,-276.5 1245.5,-246.5 1120.5,-246.5"/>
<text text-anchor="start" x="1128.5" y="-264.5" font-family="Helvetica,sans-Serif" font-size="10.00">src/node/jwt_key_auto</text>
<text text-anchor="middle" x="1183" y="-253.5" font-family="Helvetica,sans-Serif" font-size="10.00">_refresh.h</text>
</a>
</g>
</g>
<!-- Node20&#45;&gt;Node21 -->
<g id="edge37" class="edge">
<title>Node20&#45;&gt;Node21</title>
<path fill="none" stroke="midnightblue" d="M1194.38,-308.74C1191.86,-298.49 1188.78,-286 1186.47,-276.59"/>
<polygon fill="midnightblue" stroke="midnightblue" points="1191.05,-309.86 1196.84,-318.73 1197.85,-308.19 1191.05,-309.86"/>
</g>
<!-- Node21&#45;&gt;Node12 -->
<g id="edge38" class="edge">
<title>Node21&#45;&gt;Node12</title>
<path fill="none" stroke="midnightblue" d="M1173.21,-236.94C1168.48,-225.54 1163.08,-212.55 1159.61,-204.19"/>
<polygon fill="midnightblue" stroke="midnightblue" points="1170.07,-238.5 1177.14,-246.4 1176.54,-235.82 1170.07,-238.5"/>
</g>
<!-- Node22&#45;&gt;Node5 -->
<g id="edge40" class="edge">
<title>Node22&#45;&gt;Node5</title>
<path fill="none" stroke="midnightblue" d="M1540.81,-116.19C1476.93,-104.67 1374.7,-86.24 1315.19,-75.51"/>
<polygon fill="midnightblue" stroke="midnightblue" points="1540.26,-119.65 1550.72,-117.98 1541.5,-112.76 1540.26,-119.65"/>
</g>
</g>
</svg>
