<?xml version="1.0" encoding="UTF-8" standalone="no"?>
<!DOCTYPE svg PUBLIC "-//W3C//DTD SVG 1.1//EN"
 "http://www.w3.org/Graphics/SVG/1.1/DTD/svg11.dtd">
<!-- Generated by graphviz version 2.43.0 (0)
 -->
<!-- Title: include/ccf/crypto/hash_provider.h Pages: 1 -->
<!--zoomable 307 -->
<svg id="main" version="1.1" xmlns="http://www.w3.org/2000/svg" xmlns:xlink="http://www.w3.org/1999/xlink" xml:space="preserve" onload="init(evt)">
<style type="text/css"><![CDATA[
.edge:hover path { stroke: red; }
.edge:hover polygon { stroke: red; fill: red; }
]]></style>
<script type="text/javascript"><![CDATA[
var edges = document.getElementsByTagName('g');
if (edges && edges.length) {
  for (var i=0;i<edges.length;i++) {
    if (edges[i].id.substr(0,4)=='edge') {
      edges[i].setAttribute('class','edge');
    }
  }
}
]]></script>
        <defs>
                <circle id="rim" cx="0" cy="0" r="7"/>
                <circle id="rim2" cx="0" cy="0" r="3.5"/>
                <g id="zoomPlus">
                        <use xlink:href="#rim" fill="#404040">
                                <set attributeName="fill" to="#808080" begin="zoomplus.mouseover" end="zoomplus.mouseout"/>
                        </use>
                        <path d="M-4,0h8M0,-4v8" fill="none" stroke="white" stroke-width="1.5" pointer-events="none"/>
                </g>
                <g id="zoomMin">
                        <use xlink:href="#rim" fill="#404040">
                                <set attributeName="fill" to="#808080" begin="zoomminus.mouseover" end="zoomminus.mouseout"/>
                        </use>
                        <path d="M-4,0h8" fill="none" stroke="white" stroke-width="1.5" pointer-events="none"/>
                </g>
                <g id="dirArrow">
                        <path fill="none" stroke="white" stroke-width="1.5" d="M0,-3.0v7 M-2.5,-0.5L0,-3.0L2.5,-0.5"/>
                </g>
               <g id="resetDef">
                       <use xlink:href="#rim2" fill="#404040">
                               <set attributeName="fill" to="#808080" begin="reset.mouseover" end="reset.mouseout"/>
                       </use>
               </g>
        </defs>

<script type="text/javascript">
var viewWidth = 993;
var viewHeight = 307;
var sectionId = 'dynsection-1';
</script>
<script xlink:href="svgpan.js"/>
<svg id="graph" class="graph">
<g id="viewport">
<title>include/ccf/crypto/hash_provider.h</title>
<polygon fill="white" stroke="transparent" points="-4,4 -4,-303 988.5,-303 988.5,4 -4,4"/>
<!-- Node1 -->
<g id="node1" class="node">
<title>Node1</title>
<g id="a_node1"><a xlink:title=" ">
<polygon fill="#bfbfbf" stroke="black" points="447,-268.5 447,-298.5 550,-298.5 550,-268.5 447,-268.5"/>
<text text-anchor="start" x="455" y="-286.5" font-family="Helvetica,sans-Serif" font-size="10.00">include/ccf/crypto</text>
<text text-anchor="middle" x="498.5" y="-275.5" font-family="Helvetica,sans-Serif" font-size="10.00">/hash_provider.h</text>
</a>
</g>
</g>
<!-- Node2 -->
<g id="node2" class="node">
<title>Node2</title>
<g id="a_node2"><a xlink:href="src_2crypto_2openssl_2hash_8h.html" target="_top" xlink:title=" ">
<polygon fill="white" stroke="black" points="446,-201.5 446,-231.5 551,-231.5 551,-201.5 446,-201.5"/>
<text text-anchor="start" x="454" y="-219.5" font-family="Helvetica,sans-Serif" font-size="10.00">src/crypto/openssl</text>
<text text-anchor="middle" x="498.5" y="-208.5" font-family="Helvetica,sans-Serif" font-size="10.00">/hash.h</text>
</a>
</g>
</g>
<!-- Node1&#45;&gt;Node2 -->
<g id="edge1" class="edge">
<title>Node1&#45;&gt;Node2</title>
<path fill="none" stroke="midnightblue" d="M498.5,-258.11C498.5,-249.15 498.5,-239.32 498.5,-231.58"/>
<polygon fill="midnightblue" stroke="midnightblue" points="495,-258.4 498.5,-268.4 502,-258.4 495,-258.4"/>
</g>
<!-- Node3 -->
<g id="node3" class="node">
<title>Node3</title>
<g id="a_node3"><a xlink:href="hash_8cpp.html" target="_top" xlink:title=" ">
<polygon fill="white" stroke="black" points="0,-140 0,-159 111,-159 111,-140 0,-140"/>
<text text-anchor="middle" x="55.5" y="-147" font-family="Helvetica,sans-Serif" font-size="10.00">src/crypto/hash.cpp</text>
</a>
</g>
</g>
<!-- Node2&#45;&gt;Node3 -->
<g id="edge2" class="edge">
<title>Node2&#45;&gt;Node3</title>
<path fill="none" stroke="midnightblue" d="M435.58,-208.88C360.16,-200.53 230.11,-184.86 119.5,-165 110.08,-163.31 99.95,-161.17 90.59,-159.05"/>
<polygon fill="midnightblue" stroke="midnightblue" points="435.53,-212.39 445.85,-210.01 436.29,-205.43 435.53,-212.39"/>
</g>
<!-- Node4 -->
<g id="node4" class="node">
<title>Node4</title>
<g id="a_node4"><a xlink:href="hmac_8cpp.html" target="_top" xlink:title=" ">
<polygon fill="white" stroke="black" points="129,-140 129,-159 244,-159 244,-140 129,-140"/>
<text text-anchor="middle" x="186.5" y="-147" font-family="Helvetica,sans-Serif" font-size="10.00">src/crypto/hmac.cpp</text>
</a>
</g>
</g>
<!-- Node2&#45;&gt;Node4 -->
<g id="edge3" class="edge">
<title>Node2&#45;&gt;Node4</title>
<path fill="none" stroke="midnightblue" d="M435.71,-202.86C385.97,-192.78 314.74,-178.23 252.5,-165 243.55,-163.1 233.93,-161.01 224.87,-159.02"/>
<polygon fill="midnightblue" stroke="midnightblue" points="435.17,-206.32 445.67,-204.87 436.56,-199.46 435.17,-206.32"/>
</g>
<!-- Node5 -->
<g id="node5" class="node">
<title>Node5</title>
<g id="a_node5"><a xlink:href="openssl_2hash_8cpp.html" target="_top" xlink:title=" ">
<polygon fill="white" stroke="black" points="262,-134.5 262,-164.5 367,-164.5 367,-134.5 262,-134.5"/>
<text text-anchor="start" x="270" y="-152.5" font-family="Helvetica,sans-Serif" font-size="10.00">src/crypto/openssl</text>
<text text-anchor="middle" x="314.5" y="-141.5" font-family="Helvetica,sans-Serif" font-size="10.00">/hash.cpp</text>
</a>
</g>
</g>
<!-- Node2&#45;&gt;Node5 -->
<g id="edge4" class="edge">
<title>Node2&#45;&gt;Node5</title>
<path fill="none" stroke="midnightblue" d="M448.83,-197.96C419.2,-187.48 382.06,-174.37 354.35,-164.58"/>
<polygon fill="midnightblue" stroke="midnightblue" points="447.98,-201.37 458.57,-201.4 450.31,-194.76 447.98,-201.37"/>
</g>
<!-- Node6 -->
<g id="node6" class="node">
<title>Node6</title>
<g id="a_node6"><a xlink:href="openssl_2key__pair_8cpp.html" target="_top" xlink:title=" ">
<polygon fill="white" stroke="black" points="385,-134.5 385,-164.5 490,-164.5 490,-134.5 385,-134.5"/>
<text text-anchor="start" x="393" y="-152.5" font-family="Helvetica,sans-Serif" font-size="10.00">src/crypto/openssl</text>
<text text-anchor="middle" x="437.5" y="-141.5" font-family="Helvetica,sans-Serif" font-size="10.00">/key_pair.cpp</text>
</a>
</g>
</g>
<!-- Node2&#45;&gt;Node6 -->
<g id="edge5" class="edge">
<title>Node2&#45;&gt;Node6</title>
<path fill="none" stroke="midnightblue" d="M478.35,-194.02C469.26,-184.34 458.78,-173.17 450.71,-164.58"/>
<polygon fill="midnightblue" stroke="midnightblue" points="475.87,-196.5 485.26,-201.4 480.97,-191.71 475.87,-196.5"/>
</g>
<!-- Node7 -->
<g id="node7" class="node">
<title>Node7</title>
<g id="a_node7"><a xlink:href="public__key_8cpp.html" target="_top" xlink:title=" ">
<polygon fill="white" stroke="black" points="508,-134.5 508,-164.5 613,-164.5 613,-134.5 508,-134.5"/>
<text text-anchor="start" x="516" y="-152.5" font-family="Helvetica,sans-Serif" font-size="10.00">src/crypto/openssl</text>
<text text-anchor="middle" x="560.5" y="-141.5" font-family="Helvetica,sans-Serif" font-size="10.00">/public_key.cpp</text>
</a>
</g>
</g>
<!-- Node2&#45;&gt;Node7 -->
<g id="edge6" class="edge">
<title>Node2&#45;&gt;Node7</title>
<path fill="none" stroke="midnightblue" d="M518.98,-194.02C528.22,-184.34 538.87,-173.17 547.07,-164.58"/>
<polygon fill="midnightblue" stroke="midnightblue" points="516.32,-191.74 511.95,-201.4 521.39,-196.58 516.32,-191.74"/>
</g>
<!-- Node8 -->
<g id="node8" class="node">
<title>Node8</title>
<g id="a_node8"><a xlink:href="openssl_2rsa__key__pair_8cpp.html" target="_top" xlink:title=" ">
<polygon fill="white" stroke="black" points="505,-0.5 505,-30.5 610,-30.5 610,-0.5 505,-0.5"/>
<text text-anchor="start" x="513" y="-18.5" font-family="Helvetica,sans-Serif" font-size="10.00">src/crypto/openssl</text>
<text text-anchor="middle" x="557.5" y="-7.5" font-family="Helvetica,sans-Serif" font-size="10.00">/rsa_key_pair.cpp</text>
</a>
</g>
</g>
<!-- Node2&#45;&gt;Node8 -->
<g id="edge7" class="edge">
<title>Node2&#45;&gt;Node8</title>
<path fill="none" stroke="midnightblue" d="M560.9,-204.98C583.92,-197.75 607.72,-185.55 621.5,-165 651.67,-120 599.97,-58.45 572.7,-30.88"/>
<polygon fill="midnightblue" stroke="midnightblue" points="559.76,-201.66 551.11,-207.79 561.69,-208.39 559.76,-201.66"/>
</g>
<!-- Node9 -->
<g id="node9" class="node">
<title>Node9</title>
<g id="a_node9"><a xlink:href="rsa__public__key_8cpp.html" target="_top" xlink:title=" ">
<polygon fill="white" stroke="black" points="874.5,-0.5 874.5,-30.5 984.5,-30.5 984.5,-0.5 874.5,-0.5"/>
<text text-anchor="start" x="882.5" y="-18.5" font-family="Helvetica,sans-Serif" font-size="10.00">src/crypto/openssl</text>
<text text-anchor="middle" x="929.5" y="-7.5" font-family="Helvetica,sans-Serif" font-size="10.00">/rsa_public_key.cpp</text>
</a>
</g>
</g>
<!-- Node2&#45;&gt;Node9 -->
<g id="edge8" class="edge">
<title>Node2&#45;&gt;Node9</title>
<path fill="none" stroke="midnightblue" d="M561.36,-215.21C621.58,-212.51 713.41,-201.9 783.5,-165 846.84,-131.65 899.54,-61.05 920.17,-30.78"/>
<polygon fill="midnightblue" stroke="midnightblue" points="561.09,-211.71 551.23,-215.6 561.36,-218.71 561.09,-211.71"/>
</g>
<!-- Node10 -->
<g id="node10" class="node">
<title>Node10</title>
<g id="a_node10"><a xlink:href="src_2crypto_2openssl_2rsa__public__key_8h.html" target="_top" xlink:title=" ">
<polygon fill="white" stroke="black" points="670,-134.5 670,-164.5 775,-164.5 775,-134.5 670,-134.5"/>
<text text-anchor="start" x="678" y="-152.5" font-family="Helvetica,sans-Serif" font-size="10.00">src/crypto/openssl</text>
<text text-anchor="middle" x="722.5" y="-141.5" font-family="Helvetica,sans-Serif" font-size="10.00">/rsa_public_key.h</text>
</a>
</g>
</g>
<!-- Node2&#45;&gt;Node10 -->
<g id="edge9" class="edge">
<title>Node2&#45;&gt;Node10</title>
<path fill="none" stroke="midnightblue" d="M556.81,-198.58C593.19,-188.02 639.47,-174.59 673.87,-164.61"/>
<polygon fill="midnightblue" stroke="midnightblue" points="555.46,-195.33 546.83,-201.48 557.41,-202.05 555.46,-195.33"/>
</g>
<!-- Node11 -->
<g id="node11" class="node">
<title>Node11</title>
<g id="a_node11"><a xlink:href="src_2crypto_2openssl_2rsa__key__pair_8h.html" target="_top" xlink:title=" ">
<polygon fill="white" stroke="black" points="670,-67.5 670,-97.5 775,-97.5 775,-67.5 670,-67.5"/>
<text text-anchor="start" x="678" y="-85.5" font-family="Helvetica,sans-Serif" font-size="10.00">src/crypto/openssl</text>
<text text-anchor="middle" x="722.5" y="-74.5" font-family="Helvetica,sans-Serif" font-size="10.00">/rsa_key_pair.h</text>
</a>
</g>
</g>
<!-- Node10&#45;&gt;Node11 -->
<g id="edge10" class="edge">
<title>Node10&#45;&gt;Node11</title>
<path fill="none" stroke="midnightblue" d="M722.5,-124.11C722.5,-115.15 722.5,-105.32 722.5,-97.58"/>
<polygon fill="midnightblue" stroke="midnightblue" points="719,-124.4 722.5,-134.4 726,-124.4 719,-124.4"/>
</g>
<!-- Node11&#45;&gt;Node8 -->
<g id="edge11" class="edge">
<title>Node11&#45;&gt;Node8</title>
<path fill="none" stroke="midnightblue" d="M677.27,-63.68C650.81,-53.26 617.87,-40.28 593.23,-30.58"/>
<polygon fill="midnightblue" stroke="midnightblue" points="676.11,-66.99 686.7,-67.4 678.68,-60.47 676.11,-66.99"/>
</g>
<!-- Node11&#45;&gt;Node9 -->
<g id="edge12" class="edge">
<title>Node11&#45;&gt;Node9</title>
<path fill="none" stroke="midnightblue" d="M776.82,-64.44C810.37,-53.91 852.91,-40.55 884.56,-30.61"/>
<polygon fill="midnightblue" stroke="midnightblue" points="775.65,-61.14 767.16,-67.48 777.75,-67.82 775.65,-61.14"/>
</g>
<!-- Node12 -->
<g id="node12" class="node">
<title>Node12</title>
<g id="a_node12"><a xlink:href="openssl_2verifier_8cpp.html" target="_top" xlink:title=" ">
<polygon fill="white" stroke="black" points="628,-0.5 628,-30.5 733,-30.5 733,-0.5 628,-0.5"/>
<text text-anchor="start" x="636" y="-18.5" font-family="Helvetica,sans-Serif" font-size="10.00">src/crypto/openssl</text>
<text text-anchor="middle" x="680.5" y="-7.5" font-family="Helvetica,sans-Serif" font-size="10.00">/verifier.cpp</text>
</a>
</g>
</g>
<!-- Node11&#45;&gt;Node12 -->
<g id="edge13" class="edge">
<title>Node11&#45;&gt;Node12</title>
<path fill="none" stroke="midnightblue" d="M707.88,-58.87C701.8,-49.46 694.93,-38.83 689.6,-30.58"/>
<polygon fill="midnightblue" stroke="midnightblue" points="705.02,-60.9 713.39,-67.4 710.9,-57.1 705.02,-60.9"/>
</g>
<!-- Node13 -->
<g id="node13" class="node">
<title>Node13</title>
<g id="a_node13"><a xlink:href="rsa__key__pair_8cpp.html" target="_top" xlink:title=" ">
<polygon fill="white" stroke="black" points="751,-0.5 751,-30.5 856,-30.5 856,-0.5 751,-0.5"/>
<text text-anchor="start" x="759" y="-18.5" font-family="Helvetica,sans-Serif" font-size="10.00">src/crypto/rsa_key</text>
<text text-anchor="middle" x="803.5" y="-7.5" font-family="Helvetica,sans-Serif" font-size="10.00">_pair.cpp</text>
</a>
</g>
</g>
<!-- Node11&#45;&gt;Node13 -->
<g id="edge14" class="edge">
<title>Node11&#45;&gt;Node13</title>
<path fill="none" stroke="midnightblue" d="M748.19,-60.88C760.5,-51.01 774.93,-39.43 785.96,-30.58"/>
<polygon fill="midnightblue" stroke="midnightblue" points="745.68,-58.41 740.08,-67.4 750.07,-63.87 745.68,-58.41"/>
</g>
</g>
</svg>
        <g id="navigator" transform="translate(0 0)" fill="#404254">
                <rect fill="#f2f5e9" fill-opacity="0.5" stroke="#606060" stroke-width=".5" x="0" y="0" width="60" height="60"/>
                <use id="zoomplus" xlink:href="#zoomPlus" x="17" y="9" onmousedown="handleZoom(evt,'in')"/>
                <use id="zoomminus" xlink:href="#zoomMin" x="42" y="9" onmousedown="handleZoom(evt,'out')"/>
                <use id="reset" xlink:href="#resetDef" x="30" y="36" onmousedown="handleReset()"/>
                <g id="arrowUp" xlink:href="#dirArrow" transform="translate(30 24)" onmousedown="handlePan(0,-1)">
                  <use xlink:href="#rim" fill="#404040">
                        <set attributeName="fill" to="#808080" begin="arrowUp.mouseover" end="arrowUp.mouseout"/>
                  </use>
                  <path fill="none" stroke="white" stroke-width="1.5" d="M0,-3.0v7 M-2.5,-0.5L0,-3.0L2.5,-0.5"/>
                </g>
                <g id="arrowRight" xlink:href="#dirArrow" transform="rotate(90) translate(36 -43)" onmousedown="handlePan(1,0)">
                  <use xlink:href="#rim" fill="#404040">
                        <set attributeName="fill" to="#808080" begin="arrowRight.mouseover" end="arrowRight.mouseout"/>
                  </use>
                  <path fill="none" stroke="white" stroke-width="1.5" d="M0,-3.0v7 M-2.5,-0.5L0,-3.0L2.5,-0.5"/>
                </g>
                <g id="arrowDown" xlink:href="#dirArrow" transform="rotate(180) translate(-30 -48)" onmousedown="handlePan(0,1)">
                  <use xlink:href="#rim" fill="#404040">
                        <set attributeName="fill" to="#808080" begin="arrowDown.mouseover" end="arrowDown.mouseout"/>
                  </use>
                  <path fill="none" stroke="white" stroke-width="1.5" d="M0,-3.0v7 M-2.5,-0.5L0,-3.0L2.5,-0.5"/>
                </g>
                <g id="arrowLeft" xlink:href="#dirArrow" transform="rotate(270) translate(-36 17)" onmousedown="handlePan(-1,0)">
                  <use xlink:href="#rim" fill="#404040">
                        <set attributeName="fill" to="#808080" begin="arrowLeft.mouseover" end="arrowLeft.mouseout"/>
                  </use>
                  <path fill="none" stroke="white" stroke-width="1.5" d="M0,-3.0v7 M-2.5,-0.5L0,-3.0L2.5,-0.5"/>
                </g>
        </g>
        <svg viewBox="0 0 15 15" width="100%" height="30px" preserveAspectRatio="xMaxYMin meet">
         <g id="arrow_out" transform="scale(0.3 0.3)">
          <a xlink:href="hash__provider_8h__dep__incl_org.svg" target="_base">
           <rect id="button" ry="5" rx="5" y="6" x="6" height="38" width="38"
                fill="#f2f5e9" fill-opacity="0.5" stroke="#606060" stroke-width="1.0"/>
           <path id="arrow"
             d="M 11.500037,31.436501 C 11.940474,20.09759 22.043105,11.32322 32.158766,21.979434 L 37.068811,17.246167 C 37.068811,17.246167 37.088388,32 37.088388,32 L 22.160133,31.978069 C 22.160133,31.978069 26.997745,27.140456 26.997745,27.140456 C 18.528582,18.264221 13.291696,25.230495 11.500037,31.436501 z"
             style="fill:#404040;"/>
          </a>
         </g>
        </svg>
</svg>
