<?xml version="1.0" encoding="UTF-8" standalone="no"?>
<!DOCTYPE svg PUBLIC "-//W3C//DTD SVG 1.1//EN"
 "http://www.w3.org/Graphics/SVG/1.1/DTD/svg11.dtd">
<!-- Generated by graphviz version 2.43.0 (0)
 -->
<!-- Title: src/crypto/hash.cpp Pages: 1 -->
<!--zoomable 420 -->
<svg id="main" version="1.1" xmlns="http://www.w3.org/2000/svg" xmlns:xlink="http://www.w3.org/1999/xlink" xml:space="preserve" onload="init(evt)">
<style type="text/css"><![CDATA[
.edge:hover path { stroke: red; }
.edge:hover polygon { stroke: red; fill: red; }
]]></style>
<script type="text/javascript"><![CDATA[
var edges = document.getElementsByTagName('g');
if (edges && edges.length) {
  for (var i=0;i<edges.length;i++) {
    if (edges[i].id.substr(0,4)=='edge') {
      edges[i].setAttribute('class','edge');
    }
  }
}
]]></script>
        <defs>
                <circle id="rim" cx="0" cy="0" r="7"/>
                <circle id="rim2" cx="0" cy="0" r="3.5"/>
                <g id="zoomPlus">
                        <use xlink:href="#rim" fill="#404040">
                                <set attributeName="fill" to="#808080" begin="zoomplus.mouseover" end="zoomplus.mouseout"/>
                        </use>
                        <path d="M-4,0h8M0,-4v8" fill="none" stroke="white" stroke-width="1.5" pointer-events="none"/>
                </g>
                <g id="zoomMin">
                        <use xlink:href="#rim" fill="#404040">
                                <set attributeName="fill" to="#808080" begin="zoomminus.mouseover" end="zoomminus.mouseout"/>
                        </use>
                        <path d="M-4,0h8" fill="none" stroke="white" stroke-width="1.5" pointer-events="none"/>
                </g>
                <g id="dirArrow">
                        <path fill="none" stroke="white" stroke-width="1.5" d="M0,-3.0v7 M-2.5,-0.5L0,-3.0L2.5,-0.5"/>
                </g>
               <g id="resetDef">
                       <use xlink:href="#rim2" fill="#404040">
                               <set attributeName="fill" to="#808080" begin="reset.mouseover" end="reset.mouseout"/>
                       </use>
               </g>
        </defs>

<script type="text/javascript">
var viewWidth = 1980;
var viewHeight = 420;
var sectionId = 'dynsection-0';
</script>
<script xlink:href="svgpan.js"/>
<svg id="graph" class="graph">
<g id="viewport">
<title>src/crypto/hash.cpp</title>
<polygon fill="white" stroke="transparent" points="-4,4 -4,-416 1976,-416 1976,4 -4,4"/>
<!-- Node1 -->
<g id="node1" class="node">
<title>Node1</title>
<g id="a_node1"><a xlink:title=" ">
<polygon fill="#bfbfbf" stroke="black" points="494.5,-392.5 494.5,-411.5 605.5,-411.5 605.5,-392.5 494.5,-392.5"/>
<text text-anchor="middle" x="550" y="-399.5" font-family="Helvetica,sans-Serif" font-size="10.00">src/crypto/hash.cpp</text>
</a>
</g>
</g>
<!-- Node2 -->
<g id="node2" class="node">
<title>Node2</title>
<g id="a_node2"><a xlink:href="src_2crypto_2openssl_2hash_8h.html" target="_top" xlink:title=" ">
<polygon fill="white" stroke="black" points="644.5,-336.5 644.5,-355.5 767.5,-355.5 767.5,-336.5 644.5,-336.5"/>
<text text-anchor="middle" x="706" y="-343.5" font-family="Helvetica,sans-Serif" font-size="10.00">crypto/openssl/hash.h</text>
</a>
</g>
</g>
<!-- Node1&#45;&gt;Node2 -->
<g id="edge1" class="edge">
<title>Node1&#45;&gt;Node2</title>
<path fill="none" stroke="midnightblue" d="M574.72,-392.44C600.85,-383.4 642.26,-369.06 671.58,-358.92"/>
<polygon fill="midnightblue" stroke="midnightblue" points="673.09,-362.1 681.4,-355.52 670.8,-355.48 673.09,-362.1"/>
</g>
<!-- Node44 -->
<g id="node44" class="node">
<title>Node44</title>
<g id="a_node44"><a xlink:title=" ">
<polygon fill="white" stroke="#bfbfbf" points="1224.5,-280.5 1224.5,-299.5 1307.5,-299.5 1307.5,-280.5 1224.5,-280.5"/>
<text text-anchor="middle" x="1266" y="-287.5" font-family="Helvetica,sans-Serif" font-size="10.00">openssl/sha.h</text>
</a>
</g>
</g>
<!-- Node1&#45;&gt;Node44 -->
<g id="edge71" class="edge">
<title>Node1&#45;&gt;Node44</title>
<path fill="none" stroke="midnightblue" d="M605.78,-393.07C718.67,-376.91 982.55,-338.55 1214.31,-300.25"/>
<polygon fill="midnightblue" stroke="midnightblue" points="1214.98,-303.69 1224.27,-298.6 1213.84,-296.78 1214.98,-303.69"/>
</g>
<!-- Node45 -->
<g id="node45" class="node">
<title>Node45</title>
<g id="a_node45"><a xlink:href="hkdf_8h.html" target="_top" xlink:title=" ">
<polygon fill="white" stroke="black" points="227,-280.5 227,-299.5 325,-299.5 325,-280.5 227,-280.5"/>
<text text-anchor="middle" x="276" y="-287.5" font-family="Helvetica,sans-Serif" font-size="10.00">ccf/crypto/hkdf.h</text>
</a>
</g>
</g>
<!-- Node1&#45;&gt;Node45 -->
<g id="edge65" class="edge">
<title>Node1&#45;&gt;Node45</title>
<path fill="none" stroke="midnightblue" d="M528.5,-392.37C480.18,-372.97 362.86,-325.87 306.81,-303.37"/>
<polygon fill="midnightblue" stroke="midnightblue" points="307.98,-300.07 297.4,-299.59 305.38,-306.57 307.98,-300.07"/>
</g>
<!-- Node46 -->
<g id="node46" class="node">
<title>Node46</title>
<g id="a_node46"><a xlink:href="sha256_8h.html" target="_top" xlink:title=" ">
<polygon fill="white" stroke="black" points="76,-280.5 76,-299.5 188,-299.5 188,-280.5 76,-280.5"/>
<text text-anchor="middle" x="132" y="-287.5" font-family="Helvetica,sans-Serif" font-size="10.00">ccf/crypto/sha256.h</text>
</a>
</g>
</g>
<!-- Node1&#45;&gt;Node46 -->
<g id="edge68" class="edge">
<title>Node1&#45;&gt;Node46</title>
<path fill="none" stroke="midnightblue" d="M517.55,-392.46C442.7,-372.76 257.98,-324.15 174.35,-302.15"/>
<polygon fill="midnightblue" stroke="midnightblue" points="174.99,-298.69 164.43,-299.53 173.21,-305.46 174.99,-298.69"/>
</g>
<!-- Node3 -->
<g id="node3" class="node">
<title>Node3</title>
<g id="a_node3"><a xlink:href="hash__provider_8h.html" target="_top" xlink:title=" ">
<polygon fill="white" stroke="black" points="380.5,-280.5 380.5,-299.5 525.5,-299.5 525.5,-280.5 380.5,-280.5"/>
<text text-anchor="middle" x="453" y="-287.5" font-family="Helvetica,sans-Serif" font-size="10.00">ccf/crypto/hash_provider.h</text>
</a>
</g>
</g>
<!-- Node2&#45;&gt;Node3 -->
<g id="edge2" class="edge">
<title>Node2&#45;&gt;Node3</title>
<path fill="none" stroke="midnightblue" d="M665.91,-336.44C621.68,-327 550.46,-311.8 502.72,-301.61"/>
<polygon fill="midnightblue" stroke="midnightblue" points="503.41,-298.18 492.9,-299.52 501.95,-305.03 503.41,-298.18"/>
</g>
<!-- Node17 -->
<g id="node17" class="node">
<title>Node17</title>
<g id="a_node17"><a xlink:title=" ">
<polygon fill="white" stroke="#bfbfbf" points="701.5,-56.5 701.5,-75.5 780.5,-75.5 780.5,-56.5 701.5,-56.5"/>
<text text-anchor="middle" x="741" y="-63.5" font-family="Helvetica,sans-Serif" font-size="10.00">fmt/format.h</text>
</a>
</g>
</g>
<!-- Node2&#45;&gt;Node17 -->
<g id="edge64" class="edge">
<title>Node2&#45;&gt;Node17</title>
<path fill="none" stroke="midnightblue" d="M707.09,-336.38C711.95,-297.7 731.84,-139.79 738.68,-85.47"/>
<polygon fill="midnightblue" stroke="midnightblue" points="742.15,-85.88 739.93,-75.52 735.2,-85.01 742.15,-85.88"/>
</g>
<!-- Node24 -->
<g id="node24" class="node">
<title>Node24</title>
<g id="a_node24"><a xlink:href="openssl__wrappers_8h.html" target="_top" xlink:title=" ">
<polygon fill="white" stroke="black" points="1093.5,-280.5 1093.5,-299.5 1206.5,-299.5 1206.5,-280.5 1093.5,-280.5"/>
<text text-anchor="middle" x="1150" y="-287.5" font-family="Helvetica,sans-Serif" font-size="10.00">openssl_wrappers.h</text>
</a>
</g>
</g>
<!-- Node2&#45;&gt;Node24 -->
<g id="edge32" class="edge">
<title>Node2&#45;&gt;Node24</title>
<path fill="none" stroke="midnightblue" d="M767.74,-337.49C850.74,-327.4 997.74,-309.52 1083.24,-299.12"/>
<polygon fill="midnightblue" stroke="midnightblue" points="1083.85,-302.57 1093.35,-297.89 1083,-295.62 1083.85,-302.57"/>
</g>
<!-- Node38 -->
<g id="node38" class="node">
<title>Node38</title>
<g id="a_node38"><a xlink:title=" ">
<polygon fill="white" stroke="#bfbfbf" points="734,-224.5 734,-243.5 818,-243.5 818,-224.5 734,-224.5"/>
<text text-anchor="middle" x="776" y="-231.5" font-family="Helvetica,sans-Serif" font-size="10.00">openssl/evp.h</text>
</a>
</g>
</g>
<!-- Node2&#45;&gt;Node38 -->
<g id="edge61" class="edge">
<title>Node2&#45;&gt;Node38</title>
<path fill="none" stroke="midnightblue" d="M711.49,-336.37C722.99,-318.3 749.8,-276.18 764.99,-252.31"/>
<polygon fill="midnightblue" stroke="midnightblue" points="768.12,-253.91 770.53,-243.59 762.21,-250.15 768.12,-253.91"/>
</g>
<!-- Node43 -->
<g id="node43" class="node">
<title>Node43</title>
<g id="a_node43"><a xlink:title=" ">
<polygon fill="white" stroke="#bfbfbf" points="596.5,-280.5 596.5,-299.5 677.5,-299.5 677.5,-280.5 596.5,-280.5"/>
<text text-anchor="middle" x="637" y="-287.5" font-family="Helvetica,sans-Serif" font-size="10.00">openssl/kdf.h</text>
</a>
</g>
</g>
<!-- Node2&#45;&gt;Node43 -->
<g id="edge62" class="edge">
<title>Node2&#45;&gt;Node43</title>
<path fill="none" stroke="midnightblue" d="M694.91,-336.32C684.51,-328.18 668.74,-315.84 656.28,-306.09"/>
<polygon fill="midnightblue" stroke="midnightblue" points="658.32,-303.24 648.29,-299.83 654.01,-308.75 658.32,-303.24"/>
</g>
<!-- Node2&#45;&gt;Node44 -->
<g id="edge63" class="edge">
<title>Node2&#45;&gt;Node44</title>
<path fill="none" stroke="midnightblue" d="M767.82,-341.35C862.09,-335.38 1047.57,-322.08 1214.36,-300.12"/>
<polygon fill="midnightblue" stroke="midnightblue" points="1214.85,-303.58 1224.3,-298.8 1213.93,-296.64 1214.85,-303.58"/>
</g>
<!-- Node4 -->
<g id="node4" class="node">
<title>Node4</title>
<g id="a_node4"><a xlink:href="hash__bytes_8h.html" target="_top" xlink:title=" ">
<polygon fill="white" stroke="black" points="66,-224.5 66,-243.5 198,-243.5 198,-224.5 66,-224.5"/>
<text text-anchor="middle" x="132" y="-231.5" font-family="Helvetica,sans-Serif" font-size="10.00">ccf/crypto/hash_bytes.h</text>
</a>
</g>
</g>
<!-- Node3&#45;&gt;Node4 -->
<g id="edge3" class="edge">
<title>Node3&#45;&gt;Node4</title>
<path fill="none" stroke="midnightblue" d="M402.14,-280.44C345.32,-270.89 253.38,-255.42 192.81,-245.23"/>
<polygon fill="midnightblue" stroke="midnightblue" points="193.07,-241.72 182.63,-243.52 191.91,-248.63 193.07,-241.72"/>
</g>
<!-- Node5 -->
<g id="node5" class="node">
<title>Node5</title>
<g id="a_node5"><a xlink:title=" ">
<polygon fill="white" stroke="#bfbfbf" points="226.5,-0.5 226.5,-19.5 273.5,-19.5 273.5,-0.5 226.5,-0.5"/>
<text text-anchor="middle" x="250" y="-7.5" font-family="Helvetica,sans-Serif" font-size="10.00">vector</text>
</a>
</g>
</g>
<!-- Node3&#45;&gt;Node5 -->
<g id="edge31" class="edge">
<title>Node3&#45;&gt;Node5</title>
<path fill="none" stroke="midnightblue" d="M435.51,-280.35C420.45,-272.32 398.72,-259.33 383,-244 318.41,-180.99 307.46,-157.63 269,-76 261.95,-61.04 256.92,-42.91 253.81,-29.59"/>
<polygon fill="midnightblue" stroke="midnightblue" points="257.2,-28.74 251.64,-19.72 250.36,-30.24 257.2,-28.74"/>
</g>
<!-- Node6 -->
<g id="node6" class="node">
<title>Node6</title>
<g id="a_node6"><a xlink:href="md__type_8h.html" target="_top" xlink:title=" ">
<polygon fill="white" stroke="black" points="216.5,-224.5 216.5,-243.5 335.5,-243.5 335.5,-224.5 216.5,-224.5"/>
<text text-anchor="middle" x="276" y="-231.5" font-family="Helvetica,sans-Serif" font-size="10.00">ccf/crypto/md_type.h</text>
</a>
</g>
</g>
<!-- Node3&#45;&gt;Node6 -->
<g id="edge5" class="edge">
<title>Node3&#45;&gt;Node6</title>
<path fill="none" stroke="midnightblue" d="M424.95,-280.44C394.92,-271.28 347.09,-256.69 313.76,-246.52"/>
<polygon fill="midnightblue" stroke="midnightblue" points="314.5,-243.09 303.91,-243.52 312.46,-249.78 314.5,-243.09"/>
</g>
<!-- Node13 -->
<g id="node13" class="node">
<title>Node13</title>
<g id="a_node13"><a xlink:title=" ">
<polygon fill="white" stroke="#bfbfbf" points="817,-0.5 817,-19.5 859,-19.5 859,-0.5 817,-0.5"/>
<text text-anchor="middle" x="838" y="-7.5" font-family="Helvetica,sans-Serif" font-size="10.00">array</text>
</a>
</g>
</g>
<!-- Node3&#45;&gt;Node13 -->
<g id="edge28" class="edge">
<title>Node3&#45;&gt;Node13</title>
<path fill="none" stroke="midnightblue" d="M525.66,-283.91C545.54,-282.58 567.1,-281.18 587,-280 664.52,-275.4 1224.08,-292.16 1285,-244 1308.61,-225.33 1304,-209.1 1304,-179 1304,-179 1304,-179 1304,-121 1304,-31.48 974.16,-14.73 869.48,-11.67"/>
<polygon fill="midnightblue" stroke="midnightblue" points="869.32,-8.16 859.23,-11.39 869.14,-15.16 869.32,-8.16"/>
</g>
<!-- Node20 -->
<g id="node20" class="node">
<title>Node20</title>
<g id="a_node20"><a xlink:href="sha256__hash_8h.html" target="_top" xlink:title=" ">
<polygon fill="white" stroke="black" points="538,-224.5 538,-243.5 678,-243.5 678,-224.5 538,-224.5"/>
<text text-anchor="middle" x="608" y="-231.5" font-family="Helvetica,sans-Serif" font-size="10.00">ccf/crypto/sha256_hash.h</text>
</a>
</g>
</g>
<!-- Node3&#45;&gt;Node20 -->
<g id="edge23" class="edge">
<title>Node3&#45;&gt;Node20</title>
<path fill="none" stroke="midnightblue" d="M477.56,-280.44C503.52,-271.4 544.67,-257.06 573.8,-246.92"/>
<polygon fill="midnightblue" stroke="midnightblue" points="575.26,-250.11 583.55,-243.52 572.96,-243.5 575.26,-250.11"/>
</g>
<!-- Node22 -->
<g id="node22" class="node">
<title>Node22</title>
<g id="a_node22"><a xlink:title=" ">
<polygon fill="white" stroke="#bfbfbf" points="392,-224.5 392,-243.5 442,-243.5 442,-224.5 392,-224.5"/>
<text text-anchor="middle" x="417" y="-231.5" font-family="Helvetica,sans-Serif" font-size="10.00">cstdint</text>
</a>
</g>
</g>
<!-- Node3&#45;&gt;Node22 -->
<g id="edge29" class="edge">
<title>Node3&#45;&gt;Node22</title>
<path fill="none" stroke="midnightblue" d="M447.06,-280.08C442.02,-272.53 434.66,-261.49 428.49,-252.23"/>
<polygon fill="midnightblue" stroke="midnightblue" points="431.29,-250.13 422.83,-243.75 425.47,-254.01 431.29,-250.13"/>
</g>
<!-- Node23 -->
<g id="node23" class="node">
<title>Node23</title>
<g id="a_node23"><a xlink:title=" ">
<polygon fill="white" stroke="#bfbfbf" points="460,-224.5 460,-243.5 520,-243.5 520,-224.5 460,-224.5"/>
<text text-anchor="middle" x="490" y="-231.5" font-family="Helvetica,sans-Serif" font-size="10.00">iostream</text>
</a>
</g>
</g>
<!-- Node3&#45;&gt;Node23 -->
<g id="edge30" class="edge">
<title>Node3&#45;&gt;Node23</title>
<path fill="none" stroke="midnightblue" d="M459.11,-280.08C464.28,-272.53 471.85,-261.49 478.19,-252.23"/>
<polygon fill="midnightblue" stroke="midnightblue" points="481.24,-253.98 484,-243.75 475.46,-250.02 481.24,-253.98"/>
</g>
<!-- Node4&#45;&gt;Node5 -->
<g id="edge4" class="edge">
<title>Node4&#45;&gt;Node5</title>
<path fill="none" stroke="midnightblue" d="M135.53,-224.23C146.25,-197.93 180.01,-117.68 217,-56 222.85,-46.24 230.29,-35.96 236.62,-27.69"/>
<polygon fill="midnightblue" stroke="midnightblue" points="239.52,-29.66 242.92,-19.63 234,-25.35 239.52,-29.66"/>
</g>
<!-- Node7 -->
<g id="node7" class="node">
<title>Node7</title>
<g id="a_node7"><a xlink:href="json_8h.html" target="_top" xlink:title=" ">
<polygon fill="white" stroke="black" points="553.5,-168.5 553.5,-187.5 630.5,-187.5 630.5,-168.5 553.5,-168.5"/>
<text text-anchor="middle" x="592" y="-175.5" font-family="Helvetica,sans-Serif" font-size="10.00">ccf/ds/json.h</text>
</a>
</g>
</g>
<!-- Node6&#45;&gt;Node7 -->
<g id="edge6" class="edge">
<title>Node6&#45;&gt;Node7</title>
<path fill="none" stroke="midnightblue" d="M326.07,-224.44C385.5,-214.29 483.96,-197.46 542.94,-187.38"/>
<polygon fill="midnightblue" stroke="midnightblue" points="543.85,-190.78 553.12,-185.64 542.67,-183.88 543.85,-190.78"/>
</g>
<!-- Node8 -->
<g id="node8" class="node">
<title>Node8</title>
<g id="a_node8"><a xlink:href="include_2ccf_2crypto_2base64_8h.html" target="_top" xlink:title=" ">
<polygon fill="white" stroke="black" points="297,-56.5 297,-75.5 409,-75.5 409,-56.5 297,-56.5"/>
<text text-anchor="middle" x="353" y="-63.5" font-family="Helvetica,sans-Serif" font-size="10.00">ccf/crypto/base64.h</text>
</a>
</g>
</g>
<!-- Node7&#45;&gt;Node8 -->
<g id="edge7" class="edge">
<title>Node7&#45;&gt;Node8</title>
<path fill="none" stroke="midnightblue" d="M553.42,-172.19C517.81,-166.52 464.34,-154.81 423,-132 400.42,-119.54 379.45,-98.24 366.46,-83.43"/>
<polygon fill="midnightblue" stroke="midnightblue" points="368.93,-80.93 359.78,-75.58 363.59,-85.46 368.93,-80.93"/>
</g>
<!-- Node10 -->
<g id="node10" class="node">
<title>Node10</title>
<g id="a_node10"><a xlink:href="include_2ccf_2ds_2json__schema_8h.html" target="_top" xlink:title=" ">
<polygon fill="white" stroke="black" points="471.5,-112.5 471.5,-131.5 592.5,-131.5 592.5,-112.5 471.5,-112.5"/>
<text text-anchor="middle" x="532" y="-119.5" font-family="Helvetica,sans-Serif" font-size="10.00">ccf/ds/json_schema.h</text>
</a>
</g>
</g>
<!-- Node7&#45;&gt;Node10 -->
<g id="edge10" class="edge">
<title>Node7&#45;&gt;Node10</title>
<path fill="none" stroke="midnightblue" d="M582.36,-168.32C573.49,-160.34 560.13,-148.31 549.39,-138.65"/>
<polygon fill="midnightblue" stroke="midnightblue" points="551.59,-135.92 541.82,-131.83 546.91,-141.13 551.59,-135.92"/>
</g>
<!-- Node7&#45;&gt;Node17 -->
<g id="edge21" class="edge">
<title>Node7&#45;&gt;Node17</title>
<path fill="none" stroke="midnightblue" d="M597.21,-168.38C605.74,-154.85 623.88,-128.48 645,-112 663.04,-97.92 686.2,-86.91 705.26,-79.3"/>
<polygon fill="midnightblue" stroke="midnightblue" points="706.72,-82.48 714.79,-75.63 704.2,-75.95 706.72,-82.48"/>
</g>
<!-- Node19 -->
<g id="node19" class="node">
<title>Node19</title>
<g id="a_node19"><a xlink:title=" ">
<polygon fill="white" stroke="#bfbfbf" points="839,-112.5 839,-131.5 895,-131.5 895,-112.5 839,-112.5"/>
<text text-anchor="middle" x="867" y="-119.5" font-family="Helvetica,sans-Serif" font-size="10.00">sstream</text>
</a>
</g>
</g>
<!-- Node7&#45;&gt;Node19 -->
<g id="edge22" class="edge">
<title>Node7&#45;&gt;Node19</title>
<path fill="none" stroke="midnightblue" d="M630.53,-169.43C683.05,-159.12 776.56,-140.76 828.87,-130.49"/>
<polygon fill="midnightblue" stroke="midnightblue" points="829.62,-133.91 838.76,-128.55 828.27,-127.04 829.62,-133.91"/>
</g>
<!-- Node8&#45;&gt;Node5 -->
<g id="edge9" class="edge">
<title>Node8&#45;&gt;Node5</title>
<path fill="none" stroke="midnightblue" d="M336.45,-56.32C320.01,-47.7 294.57,-34.36 275.53,-24.39"/>
<polygon fill="midnightblue" stroke="midnightblue" points="276.99,-21.2 266.51,-19.65 273.74,-27.4 276.99,-21.2"/>
</g>
<!-- Node9 -->
<g id="node9" class="node">
<title>Node9</title>
<g id="a_node9"><a xlink:title=" ">
<polygon fill="white" stroke="#bfbfbf" points="393,-0.5 393,-19.5 437,-19.5 437,-0.5 393,-0.5"/>
<text text-anchor="middle" x="415" y="-7.5" font-family="Helvetica,sans-Serif" font-size="10.00">string</text>
</a>
</g>
</g>
<!-- Node8&#45;&gt;Node9 -->
<g id="edge8" class="edge">
<title>Node8&#45;&gt;Node9</title>
<path fill="none" stroke="midnightblue" d="M362.96,-56.32C372.13,-48.34 385.94,-36.31 397.03,-26.65"/>
<polygon fill="midnightblue" stroke="midnightblue" points="399.62,-29.04 404.86,-19.83 395.02,-23.76 399.62,-29.04"/>
</g>
<!-- Node11 -->
<g id="node11" class="node">
<title>Node11</title>
<g id="a_node11"><a xlink:href="nonstd_8h.html" target="_top" xlink:title=" ">
<polygon fill="white" stroke="black" points="593,-56.5 593,-75.5 683,-75.5 683,-56.5 593,-56.5"/>
<text text-anchor="middle" x="638" y="-63.5" font-family="Helvetica,sans-Serif" font-size="10.00">ccf/ds/nonstd.h</text>
</a>
</g>
</g>
<!-- Node10&#45;&gt;Node11 -->
<g id="edge11" class="edge">
<title>Node10&#45;&gt;Node11</title>
<path fill="none" stroke="midnightblue" d="M549.03,-112.32C566.03,-103.66 592.38,-90.24 611.99,-80.25"/>
<polygon fill="midnightblue" stroke="midnightblue" points="613.69,-83.31 621.01,-75.65 610.51,-77.08 613.69,-83.31"/>
</g>
<!-- Node10&#45;&gt;Node17 -->
<g id="edge19" class="edge">
<title>Node10&#45;&gt;Node17</title>
<path fill="none" stroke="midnightblue" d="M565.12,-112.44C601.12,-103.14 658.77,-88.25 698.19,-78.06"/>
<polygon fill="midnightblue" stroke="midnightblue" points="699.23,-81.41 708.04,-75.52 697.48,-74.63 699.23,-81.41"/>
</g>
<!-- Node18 -->
<g id="node18" class="node">
<title>Node18</title>
<g id="a_node18"><a xlink:title=" ">
<polygon fill="white" stroke="#bfbfbf" points="465,-56.5 465,-75.5 575,-75.5 575,-56.5 465,-56.5"/>
<text text-anchor="middle" x="520" y="-63.5" font-family="Helvetica,sans-Serif" font-size="10.00">nlohmann/json.hpp</text>
</a>
</g>
</g>
<!-- Node10&#45;&gt;Node18 -->
<g id="edge20" class="edge">
<title>Node10&#45;&gt;Node18</title>
<path fill="none" stroke="midnightblue" d="M530.02,-112.08C528.43,-104.93 526.14,-94.64 524.15,-85.69"/>
<polygon fill="midnightblue" stroke="midnightblue" points="527.53,-84.75 521.94,-75.75 520.7,-86.27 527.53,-84.75"/>
</g>
<!-- Node11&#45;&gt;Node5 -->
<g id="edge18" class="edge">
<title>Node11&#45;&gt;Node5</title>
<path fill="none" stroke="midnightblue" d="M592.94,-57.38C589.91,-56.9 586.91,-56.44 584,-56 474.29,-39.47 343.87,-22.74 283.6,-15.17"/>
<polygon fill="midnightblue" stroke="midnightblue" points="283.88,-11.68 273.52,-13.91 283.01,-18.63 283.88,-11.68"/>
</g>
<!-- Node11&#45;&gt;Node9 -->
<g id="edge15" class="edge">
<title>Node11&#45;&gt;Node9</title>
<path fill="none" stroke="midnightblue" d="M602.66,-56.44C559.87,-46.08 488.4,-28.77 447.11,-18.77"/>
<polygon fill="midnightblue" stroke="midnightblue" points="447.84,-15.35 437.3,-16.4 446.19,-22.15 447.84,-15.35"/>
</g>
<!-- Node12 -->
<g id="node12" class="node">
<title>Node12</title>
<g id="a_node12"><a xlink:title=" ">
<polygon fill="white" stroke="#bfbfbf" points="576,-0.5 576,-19.5 640,-19.5 640,-0.5 576,-0.5"/>
<text text-anchor="middle" x="608" y="-7.5" font-family="Helvetica,sans-Serif" font-size="10.00">algorithm</text>
</a>
</g>
</g>
<!-- Node11&#45;&gt;Node12 -->
<g id="edge12" class="edge">
<title>Node11&#45;&gt;Node12</title>
<path fill="none" stroke="midnightblue" d="M633.05,-56.08C628.9,-48.61 622.85,-37.72 617.73,-28.52"/>
<polygon fill="midnightblue" stroke="midnightblue" points="620.78,-26.79 612.86,-19.75 614.66,-30.19 620.78,-26.79"/>
</g>
<!-- Node11&#45;&gt;Node13 -->
<g id="edge13" class="edge">
<title>Node11&#45;&gt;Node13</title>
<path fill="none" stroke="midnightblue" d="M671.09,-56.42C705.2,-47.52 759.91,-33.1 807,-20 807.1,-19.97 807.2,-19.95 807.29,-19.92"/>
<polygon fill="midnightblue" stroke="midnightblue" points="808.01,-23.35 816.67,-17.26 806.1,-16.62 808.01,-23.35"/>
</g>
<!-- Node14 -->
<g id="node14" class="node">
<title>Node14</title>
<g id="a_node14"><a xlink:title=" ">
<polygon fill="white" stroke="#bfbfbf" points="658.5,-0.5 658.5,-19.5 707.5,-19.5 707.5,-0.5 658.5,-0.5"/>
<text text-anchor="middle" x="683" y="-7.5" font-family="Helvetica,sans-Serif" font-size="10.00">cctype</text>
</a>
</g>
</g>
<!-- Node11&#45;&gt;Node14 -->
<g id="edge14" class="edge">
<title>Node11&#45;&gt;Node14</title>
<path fill="none" stroke="midnightblue" d="M645.43,-56.08C651.85,-48.38 661.31,-37.03 669.12,-27.65"/>
<polygon fill="midnightblue" stroke="midnightblue" points="671.99,-29.67 675.71,-19.75 666.62,-25.19 671.99,-29.67"/>
</g>
<!-- Node15 -->
<g id="node15" class="node">
<title>Node15</title>
<g id="a_node15"><a xlink:title=" ">
<polygon fill="white" stroke="#bfbfbf" points="725.5,-0.5 725.5,-19.5 798.5,-19.5 798.5,-0.5 725.5,-0.5"/>
<text text-anchor="middle" x="762" y="-7.5" font-family="Helvetica,sans-Serif" font-size="10.00">string_view</text>
</a>
</g>
</g>
<!-- Node11&#45;&gt;Node15 -->
<g id="edge16" class="edge">
<title>Node11&#45;&gt;Node15</title>
<path fill="none" stroke="midnightblue" d="M657.65,-56.44C677.96,-47.6 709.9,-33.69 733.1,-23.59"/>
<polygon fill="midnightblue" stroke="midnightblue" points="734.67,-26.72 742.44,-19.52 731.88,-20.3 734.67,-26.72"/>
</g>
<!-- Node16 -->
<g id="node16" class="node">
<title>Node16</title>
<g id="a_node16"><a xlink:title=" ">
<polygon fill="white" stroke="#bfbfbf" points="488.5,-0.5 488.5,-19.5 557.5,-19.5 557.5,-0.5 488.5,-0.5"/>
<text text-anchor="middle" x="523" y="-7.5" font-family="Helvetica,sans-Serif" font-size="10.00">type_traits</text>
</a>
</g>
</g>
<!-- Node11&#45;&gt;Node16 -->
<g id="edge17" class="edge">
<title>Node11&#45;&gt;Node16</title>
<path fill="none" stroke="midnightblue" d="M619.78,-56.44C601.1,-47.68 571.84,-33.94 550.38,-23.86"/>
<polygon fill="midnightblue" stroke="midnightblue" points="551.68,-20.6 541.14,-19.52 548.7,-26.93 551.68,-20.6"/>
</g>
<!-- Node20&#45;&gt;Node7 -->
<g id="edge24" class="edge">
<title>Node20&#45;&gt;Node7</title>
<path fill="none" stroke="midnightblue" d="M605.36,-224.08C603.21,-216.85 600.12,-206.41 597.45,-197.4"/>
<polygon fill="midnightblue" stroke="midnightblue" points="600.79,-196.34 594.59,-187.75 594.08,-198.33 600.79,-196.34"/>
</g>
<!-- Node20&#45;&gt;Node13 -->
<g id="edge25" class="edge">
<title>Node20&#45;&gt;Node13</title>
<path fill="none" stroke="midnightblue" d="M619.83,-224.28C650,-201.74 731.43,-138.91 789,-76 802.95,-60.75 816.96,-41.71 826.4,-28.19"/>
<polygon fill="midnightblue" stroke="midnightblue" points="829.37,-30.05 832.15,-19.82 823.6,-26.08 829.37,-30.05"/>
</g>
<!-- Node20&#45;&gt;Node17 -->
<g id="edge27" class="edge">
<title>Node20&#45;&gt;Node17</title>
<path fill="none" stroke="midnightblue" d="M615.15,-224.08C636.45,-197.49 699.71,-118.54 727.57,-83.76"/>
<polygon fill="midnightblue" stroke="midnightblue" points="730.61,-85.56 734.14,-75.57 725.15,-81.18 730.61,-85.56"/>
</g>
<!-- Node21 -->
<g id="node21" class="node">
<title>Node21</title>
<g id="a_node21"><a xlink:title=" ">
<polygon fill="white" stroke="#bfbfbf" points="1003,-168.5 1003,-187.5 1043,-187.5 1043,-168.5 1003,-168.5"/>
<text text-anchor="middle" x="1023" y="-175.5" font-family="Helvetica,sans-Serif" font-size="10.00">span</text>
</a>
</g>
</g>
<!-- Node20&#45;&gt;Node21 -->
<g id="edge26" class="edge">
<title>Node20&#45;&gt;Node21</title>
<path fill="none" stroke="midnightblue" d="M678.3,-226.08C772.04,-216.62 932.88,-199.51 991,-188 991.6,-187.88 992.21,-187.76 992.82,-187.63"/>
<polygon fill="midnightblue" stroke="midnightblue" points="993.91,-190.96 1002.8,-185.2 992.26,-184.16 993.91,-190.96"/>
</g>
<!-- Node24&#45;&gt;Node17 -->
<g id="edge50" class="edge">
<title>Node24&#45;&gt;Node17</title>
<path fill="none" stroke="midnightblue" d="M1093.23,-283.56C1028.21,-276.56 926.37,-262.98 893,-244 823.81,-204.63 771.28,-121.4 750.6,-84.85"/>
<polygon fill="midnightblue" stroke="midnightblue" points="753.53,-82.91 745.62,-75.85 747.4,-86.3 753.53,-82.91"/>
</g>
<!-- Node25 -->
<g id="node25" class="node">
<title>Node25</title>
<g id="a_node25"><a xlink:href="pem_8h.html" target="_top" xlink:title=" ">
<polygon fill="white" stroke="black" points="1178,-224.5 1178,-243.5 1276,-243.5 1276,-224.5 1178,-224.5"/>
<text text-anchor="middle" x="1227" y="-231.5" font-family="Helvetica,sans-Serif" font-size="10.00">ccf/crypto/pem.h</text>
</a>
</g>
</g>
<!-- Node24&#45;&gt;Node25 -->
<g id="edge33" class="edge">
<title>Node24&#45;&gt;Node25</title>
<path fill="none" stroke="midnightblue" d="M1162.37,-280.32C1174.16,-272.06 1192.13,-259.45 1206.14,-249.63"/>
<polygon fill="midnightblue" stroke="midnightblue" points="1208.48,-252.26 1214.66,-243.65 1204.46,-246.53 1208.48,-252.26"/>
</g>
<!-- Node28 -->
<g id="node28" class="node">
<title>Node28</title>
<g id="a_node28"><a xlink:title=" ">
<polygon fill="white" stroke="#bfbfbf" points="1332,-168.5 1332,-187.5 1390,-187.5 1390,-168.5 1332,-168.5"/>
<text text-anchor="middle" x="1361" y="-175.5" font-family="Helvetica,sans-Serif" font-size="10.00">memory</text>
</a>
</g>
</g>
<!-- Node24&#45;&gt;Node28 -->
<g id="edge51" class="edge">
<title>Node24&#45;&gt;Node28</title>
<path fill="none" stroke="midnightblue" d="M1196.09,-280.47C1238.81,-271.9 1298.58,-257.98 1318,-244 1334.59,-232.05 1346.58,-211.56 1353.62,-196.77"/>
<polygon fill="midnightblue" stroke="midnightblue" points="1356.82,-198.18 1357.69,-187.62 1350.43,-195.33 1356.82,-198.18"/>
</g>
<!-- Node29 -->
<g id="node29" class="node">
<title>Node29</title>
<g id="a_node29"><a xlink:title=" ">
<polygon fill="white" stroke="#bfbfbf" points="1188,-112.5 1188,-131.5 1238,-131.5 1238,-112.5 1188,-112.5"/>
<text text-anchor="middle" x="1213" y="-119.5" font-family="Helvetica,sans-Serif" font-size="10.00">chrono</text>
</a>
</g>
</g>
<!-- Node24&#45;&gt;Node29 -->
<g id="edge41" class="edge">
<title>Node24&#45;&gt;Node29</title>
<path fill="none" stroke="midnightblue" d="M1148.89,-280.46C1146.91,-267.5 1141.91,-242.41 1131,-224 1115.92,-198.54 1078.21,-192.37 1095,-168 1099.99,-160.76 1145.05,-144.93 1178.01,-134.11"/>
<polygon fill="midnightblue" stroke="midnightblue" points="1179.37,-137.35 1187.8,-130.93 1177.2,-130.69 1179.37,-137.35"/>
</g>
<!-- Node30 -->
<g id="node30" class="node">
<title>Node30</title>
<g id="a_node30"><a xlink:href="x509__time__fmt_8h.html" target="_top" xlink:title=" ">
<polygon fill="white" stroke="black" points="868,-168.5 868,-187.5 982,-187.5 982,-168.5 868,-168.5"/>
<text text-anchor="middle" x="925" y="-175.5" font-family="Helvetica,sans-Serif" font-size="10.00">ds/x509_time_fmt.h</text>
</a>
</g>
</g>
<!-- Node24&#45;&gt;Node30 -->
<g id="edge42" class="edge">
<title>Node24&#45;&gt;Node30</title>
<path fill="none" stroke="midnightblue" d="M1093.43,-286.83C1028.17,-282.99 926.77,-272.49 903,-244 891.48,-230.19 901.19,-210.07 911.1,-195.88"/>
<polygon fill="midnightblue" stroke="midnightblue" points="914.18,-197.62 917.43,-187.54 908.6,-193.39 914.18,-197.62"/>
</g>
<!-- Node34 -->
<g id="node34" class="node">
<title>Node34</title>
<g id="a_node34"><a xlink:title=" ">
<polygon fill="white" stroke="#bfbfbf" points="1370.5,-224.5 1370.5,-243.5 1459.5,-243.5 1459.5,-224.5 1370.5,-224.5"/>
<text text-anchor="middle" x="1415" y="-231.5" font-family="Helvetica,sans-Serif" font-size="10.00">openssl/asn1.h</text>
</a>
</g>
</g>
<!-- Node24&#45;&gt;Node34 -->
<g id="edge52" class="edge">
<title>Node24&#45;&gt;Node34</title>
<path fill="none" stroke="midnightblue" d="M1191.99,-280.44C1238.41,-270.98 1313.23,-255.74 1363.24,-245.55"/>
<polygon fill="midnightblue" stroke="midnightblue" points="1364.11,-248.94 1373.21,-243.52 1362.71,-242.08 1364.11,-248.94"/>
</g>
<!-- Node35 -->
<g id="node35" class="node">
<title>Node35</title>
<g id="a_node35"><a xlink:title=" ">
<polygon fill="white" stroke="#bfbfbf" points="1477.5,-224.5 1477.5,-243.5 1554.5,-243.5 1554.5,-224.5 1477.5,-224.5"/>
<text text-anchor="middle" x="1516" y="-231.5" font-family="Helvetica,sans-Serif" font-size="10.00">openssl/ec.h</text>
</a>
</g>
</g>
<!-- Node24&#45;&gt;Node35 -->
<g id="edge53" class="edge">
<title>Node24&#45;&gt;Node35</title>
<path fill="none" stroke="midnightblue" d="M1206.52,-281.18C1284.56,-270.36 1420.3,-251.46 1467.34,-244.16"/>
<polygon fill="midnightblue" stroke="midnightblue" points="1467.98,-247.6 1477.3,-242.57 1466.87,-240.69 1467.98,-247.6"/>
</g>
<!-- Node36 -->
<g id="node36" class="node">
<title>Node36</title>
<g id="a_node36"><a xlink:title=" ">
<polygon fill="white" stroke="#bfbfbf" points="1572.5,-224.5 1572.5,-243.5 1671.5,-243.5 1671.5,-224.5 1572.5,-224.5"/>
<text text-anchor="middle" x="1622" y="-231.5" font-family="Helvetica,sans-Serif" font-size="10.00">openssl/engine.h</text>
</a>
</g>
</g>
<!-- Node24&#45;&gt;Node36 -->
<g id="edge54" class="edge">
<title>Node24&#45;&gt;Node36</title>
<path fill="none" stroke="midnightblue" d="M1206.51,-281.17C1209.72,-280.76 1212.9,-280.37 1216,-280 1367.07,-261.89 1408.04,-263.83 1562.04,-244.2"/>
<polygon fill="midnightblue" stroke="midnightblue" points="1562.88,-247.62 1572.35,-242.87 1561.98,-240.68 1562.88,-247.62"/>
</g>
<!-- Node37 -->
<g id="node37" class="node">
<title>Node37</title>
<g id="a_node37"><a xlink:title=" ">
<polygon fill="white" stroke="#bfbfbf" points="1689.5,-224.5 1689.5,-243.5 1768.5,-243.5 1768.5,-224.5 1689.5,-224.5"/>
<text text-anchor="middle" x="1729" y="-231.5" font-family="Helvetica,sans-Serif" font-size="10.00">openssl/err.h</text>
</a>
</g>
</g>
<!-- Node24&#45;&gt;Node37 -->
<g id="edge55" class="edge">
<title>Node24&#45;&gt;Node37</title>
<path fill="none" stroke="midnightblue" d="M1206.86,-281.03C1209.95,-280.67 1213.01,-280.32 1216,-280 1418.79,-258.34 1473.74,-270.73 1679.03,-244.14"/>
<polygon fill="midnightblue" stroke="midnightblue" points="1679.78,-247.57 1689.24,-242.8 1678.87,-240.63 1679.78,-247.57"/>
</g>
<!-- Node24&#45;&gt;Node38 -->
<g id="edge56" class="edge">
<title>Node24&#45;&gt;Node38</title>
<path fill="none" stroke="midnightblue" d="M1093.37,-281.31C1029.74,-272.6 923.38,-257.81 832,-244 830.74,-243.81 829.46,-243.62 828.18,-243.42"/>
<polygon fill="midnightblue" stroke="midnightblue" points="828.6,-239.94 818.18,-241.87 827.53,-246.86 828.6,-239.94"/>
</g>
<!-- Node39 -->
<g id="node39" class="node">
<title>Node39</title>
<g id="a_node39"><a xlink:title=" ">
<polygon fill="white" stroke="#bfbfbf" points="1786,-224.5 1786,-243.5 1874,-243.5 1874,-224.5 1786,-224.5"/>
<text text-anchor="middle" x="1830" y="-231.5" font-family="Helvetica,sans-Serif" font-size="10.00">openssl/pem.h</text>
</a>
</g>
</g>
<!-- Node24&#45;&gt;Node39 -->
<g id="edge57" class="edge">
<title>Node24&#45;&gt;Node39</title>
<path fill="none" stroke="midnightblue" d="M1206.85,-280.98C1209.94,-280.63 1213.01,-280.3 1216,-280 1461.76,-255.4 1527.71,-272.91 1775.75,-244.16"/>
<polygon fill="midnightblue" stroke="midnightblue" points="1776.27,-247.62 1785.79,-242.98 1775.45,-240.67 1776.27,-247.62"/>
</g>
<!-- Node40 -->
<g id="node40" class="node">
<title>Node40</title>
<g id="a_node40"><a xlink:title=" ">
<polygon fill="white" stroke="#bfbfbf" points="1892,-224.5 1892,-243.5 1972,-243.5 1972,-224.5 1892,-224.5"/>
<text text-anchor="middle" x="1932" y="-231.5" font-family="Helvetica,sans-Serif" font-size="10.00">openssl/ssl.h</text>
</a>
</g>
</g>
<!-- Node24&#45;&gt;Node40 -->
<g id="edge58" class="edge">
<title>Node24&#45;&gt;Node40</title>
<path fill="none" stroke="midnightblue" d="M1206.85,-280.95C1209.94,-280.6 1213.01,-280.28 1216,-280 1508.23,-252.24 1586.43,-278.29 1881.8,-243.98"/>
<polygon fill="midnightblue" stroke="midnightblue" points="1882.43,-247.43 1891.95,-242.79 1881.61,-240.48 1882.43,-247.43"/>
</g>
<!-- Node41 -->
<g id="node41" class="node">
<title>Node41</title>
<g id="a_node41"><a xlink:title=" ">
<polygon fill="white" stroke="#bfbfbf" points="912,-224.5 912,-243.5 1002,-243.5 1002,-224.5 912,-224.5"/>
<text text-anchor="middle" x="957" y="-231.5" font-family="Helvetica,sans-Serif" font-size="10.00">openssl/x509.h</text>
</a>
</g>
</g>
<!-- Node24&#45;&gt;Node41 -->
<g id="edge59" class="edge">
<title>Node24&#45;&gt;Node41</title>
<path fill="none" stroke="midnightblue" d="M1119.42,-280.44C1086.39,-271.2 1033.61,-256.44 997.23,-246.26"/>
<polygon fill="midnightblue" stroke="midnightblue" points="998.01,-242.84 987.44,-243.52 996.13,-249.58 998.01,-242.84"/>
</g>
<!-- Node42 -->
<g id="node42" class="node">
<title>Node42</title>
<g id="a_node42"><a xlink:title=" ">
<polygon fill="white" stroke="#bfbfbf" points="1020,-224.5 1020,-243.5 1122,-243.5 1122,-224.5 1020,-224.5"/>
<text text-anchor="middle" x="1071" y="-231.5" font-family="Helvetica,sans-Serif" font-size="10.00">openssl/x509v3.h</text>
</a>
</g>
</g>
<!-- Node24&#45;&gt;Node42 -->
<g id="edge60" class="edge">
<title>Node24&#45;&gt;Node42</title>
<path fill="none" stroke="midnightblue" d="M1137.31,-280.32C1125.1,-271.98 1106.42,-259.21 1092,-249.35"/>
<polygon fill="midnightblue" stroke="midnightblue" points="1093.89,-246.41 1083.66,-243.65 1089.94,-252.19 1093.89,-246.41"/>
</g>
<!-- Node25&#45;&gt;Node5 -->
<g id="edge40" class="edge">
<title>Node25&#45;&gt;Node5</title>
<path fill="none" stroke="midnightblue" d="M1177.69,-228.07C1162.71,-226.65 1146.19,-225.18 1131,-224 870.4,-203.8 799.79,-241.75 544,-188 422.46,-162.46 377.34,-162.26 288,-76 274.21,-62.69 263.75,-43.3 257.33,-29.17"/>
<polygon fill="midnightblue" stroke="midnightblue" points="260.38,-27.38 253.22,-19.57 253.94,-30.14 260.38,-27.38"/>
</g>
<!-- Node25&#45;&gt;Node7 -->
<g id="edge34" class="edge">
<title>Node25&#45;&gt;Node7</title>
<path fill="none" stroke="midnightblue" d="M1177.68,-228.28C1162.69,-226.87 1146.17,-225.34 1131,-224 950.24,-207.98 735.23,-190.5 640.69,-182.9"/>
<polygon fill="midnightblue" stroke="midnightblue" points="640.82,-179.4 630.57,-182.08 640.26,-186.37 640.82,-179.4"/>
</g>
<!-- Node25&#45;&gt;Node15 -->
<g id="edge39" class="edge">
<title>Node25&#45;&gt;Node15</title>
<path fill="none" stroke="midnightblue" d="M1232.53,-224.22C1245.43,-202.53 1274.4,-145.7 1247,-112 1243.49,-107.69 929.39,-44.48 808.6,-20.31"/>
<polygon fill="midnightblue" stroke="midnightblue" points="809.04,-16.82 798.54,-18.29 807.66,-23.69 809.04,-16.82"/>
</g>
<!-- Node25&#45;&gt;Node21 -->
<g id="edge38" class="edge">
<title>Node25&#45;&gt;Node21</title>
<path fill="none" stroke="midnightblue" d="M1194.68,-224.44C1155.75,-214.14 1090.91,-196.98 1053.04,-186.95"/>
<polygon fill="midnightblue" stroke="midnightblue" points="1053.68,-183.5 1043.11,-184.32 1051.89,-190.27 1053.68,-183.5"/>
</g>
<!-- Node26 -->
<g id="node26" class="node">
<title>Node26</title>
<g id="a_node26"><a xlink:title=" ">
<polygon fill="white" stroke="#bfbfbf" points="1104,-168.5 1104,-187.5 1154,-187.5 1154,-168.5 1104,-168.5"/>
<text text-anchor="middle" x="1129" y="-175.5" font-family="Helvetica,sans-Serif" font-size="10.00">cstring</text>
</a>
</g>
</g>
<!-- Node25&#45;&gt;Node26 -->
<g id="edge35" class="edge">
<title>Node25&#45;&gt;Node26</title>
<path fill="none" stroke="midnightblue" d="M1211.25,-224.32C1195.68,-215.74 1171.62,-202.49 1153.54,-192.52"/>
<polygon fill="midnightblue" stroke="midnightblue" points="1155.15,-189.42 1144.71,-187.65 1151.78,-195.55 1155.15,-189.42"/>
</g>
<!-- Node27 -->
<g id="node27" class="node">
<title>Node27</title>
<g id="a_node27"><a xlink:title=" ">
<polygon fill="white" stroke="#bfbfbf" points="1172.5,-168.5 1172.5,-187.5 1237.5,-187.5 1237.5,-168.5 1172.5,-168.5"/>
<text text-anchor="middle" x="1205" y="-175.5" font-family="Helvetica,sans-Serif" font-size="10.00">exception</text>
</a>
</g>
</g>
<!-- Node25&#45;&gt;Node27 -->
<g id="edge36" class="edge">
<title>Node25&#45;&gt;Node27</title>
<path fill="none" stroke="midnightblue" d="M1223.37,-224.08C1220.39,-216.77 1216.07,-206.18 1212.38,-197.1"/>
<polygon fill="midnightblue" stroke="midnightblue" points="1215.58,-195.69 1208.57,-187.75 1209.1,-198.33 1215.58,-195.69"/>
</g>
<!-- Node25&#45;&gt;Node28 -->
<g id="edge37" class="edge">
<title>Node25&#45;&gt;Node28</title>
<path fill="none" stroke="midnightblue" d="M1248.23,-224.44C1270.38,-215.52 1305.32,-201.44 1330.44,-191.32"/>
<polygon fill="midnightblue" stroke="midnightblue" points="1331.9,-194.5 1339.87,-187.52 1329.28,-188.01 1331.9,-194.5"/>
</g>
<!-- Node30&#45;&gt;Node5 -->
<g id="edge49" class="edge">
<title>Node30&#45;&gt;Node5</title>
<path fill="none" stroke="midnightblue" d="M867.89,-174.36C751.6,-168.56 495.46,-153.51 462,-132 429.17,-110.89 448.98,-79.74 418,-56 378.52,-25.74 320.28,-15.79 283.78,-12.54"/>
<polygon fill="midnightblue" stroke="midnightblue" points="283.88,-9.04 273.64,-11.76 283.34,-16.02 283.88,-9.04"/>
</g>
<!-- Node30&#45;&gt;Node17 -->
<g id="edge45" class="edge">
<title>Node30&#45;&gt;Node17</title>
<path fill="none" stroke="midnightblue" d="M924.69,-168.05C923.71,-154.07 919.76,-127.09 904,-112 873.8,-83.08 826.75,-72.41 790.94,-68.63"/>
<polygon fill="midnightblue" stroke="midnightblue" points="790.97,-65.12 780.69,-67.71 790.34,-72.09 790.97,-65.12"/>
</g>
<!-- Node30&#45;&gt;Node19 -->
<g id="edge47" class="edge">
<title>Node30&#45;&gt;Node19</title>
<path fill="none" stroke="midnightblue" d="M915.68,-168.32C907.11,-160.34 894.19,-148.31 883.81,-138.65"/>
<polygon fill="midnightblue" stroke="midnightblue" points="886.19,-136.09 876.49,-131.83 881.42,-141.21 886.19,-136.09"/>
</g>
<!-- Node30&#45;&gt;Node29 -->
<g id="edge43" class="edge">
<title>Node30&#45;&gt;Node29</title>
<path fill="none" stroke="midnightblue" d="M980.76,-168.49C1030.18,-160.64 1104.49,-148.09 1177.92,-132.09"/>
<polygon fill="midnightblue" stroke="midnightblue" points="1178.79,-135.49 1187.81,-129.92 1177.29,-128.65 1178.79,-135.49"/>
</g>
<!-- Node31 -->
<g id="node31" class="node">
<title>Node31</title>
<g id="a_node31"><a xlink:title=" ">
<polygon fill="white" stroke="#bfbfbf" points="1017.5,-112.5 1017.5,-131.5 1096.5,-131.5 1096.5,-112.5 1017.5,-112.5"/>
<text text-anchor="middle" x="1057" y="-119.5" font-family="Helvetica,sans-Serif" font-size="10.00">fmt/chrono.h</text>
</a>
</g>
</g>
<!-- Node30&#45;&gt;Node31 -->
<g id="edge44" class="edge">
<title>Node30&#45;&gt;Node31</title>
<path fill="none" stroke="midnightblue" d="M945.92,-168.44C967.74,-159.52 1002.15,-145.44 1026.89,-135.32"/>
<polygon fill="midnightblue" stroke="midnightblue" points="1028.25,-138.54 1036.18,-131.52 1025.6,-132.06 1028.25,-138.54"/>
</g>
<!-- Node32 -->
<g id="node32" class="node">
<title>Node32</title>
<g id="a_node32"><a xlink:title=" ">
<polygon fill="white" stroke="#bfbfbf" points="1114,-112.5 1114,-131.5 1170,-131.5 1170,-112.5 1114,-112.5"/>
<text text-anchor="middle" x="1142" y="-119.5" font-family="Helvetica,sans-Serif" font-size="10.00">iomanip</text>
</a>
</g>
</g>
<!-- Node30&#45;&gt;Node32 -->
<g id="edge46" class="edge">
<title>Node30&#45;&gt;Node32</title>
<path fill="none" stroke="midnightblue" d="M959.37,-168.47C993.71,-159.94 1048.32,-146.38 1103.72,-132.57"/>
<polygon fill="midnightblue" stroke="midnightblue" points="1104.85,-135.89 1113.7,-130.08 1103.15,-129.1 1104.85,-135.89"/>
</g>
<!-- Node33 -->
<g id="node33" class="node">
<title>Node33</title>
<g id="a_node33"><a xlink:title=" ">
<polygon fill="white" stroke="#bfbfbf" points="951,-112.5 951,-131.5 999,-131.5 999,-112.5 951,-112.5"/>
<text text-anchor="middle" x="975" y="-119.5" font-family="Helvetica,sans-Serif" font-size="10.00">time.h</text>
</a>
</g>
</g>
<!-- Node30&#45;&gt;Node33 -->
<g id="edge48" class="edge">
<title>Node30&#45;&gt;Node33</title>
<path fill="none" stroke="midnightblue" d="M933.26,-168.08C940.46,-160.3 951.11,-148.8 959.85,-139.37"/>
<polygon fill="midnightblue" stroke="midnightblue" points="962.67,-141.47 966.9,-131.75 957.53,-136.71 962.67,-141.47"/>
</g>
<!-- Node45&#45;&gt;Node5 -->
<g id="edge67" class="edge">
<title>Node45&#45;&gt;Node5</title>
<path fill="none" stroke="midnightblue" d="M226.81,-281.63C166.13,-272.12 69.42,-255.44 57,-244 34.87,-223.6 38,-209.1 38,-179 38,-179 38,-179 38,-121 38,-41.79 156.05,-19.54 215.97,-13.35"/>
<polygon fill="midnightblue" stroke="midnightblue" points="216.46,-16.82 226.09,-12.4 215.81,-9.85 216.46,-16.82"/>
</g>
<!-- Node45&#45;&gt;Node6 -->
<g id="edge66" class="edge">
<title>Node45&#45;&gt;Node6</title>
<path fill="none" stroke="midnightblue" d="M276,-280.08C276,-273.01 276,-262.86 276,-253.99"/>
<polygon fill="midnightblue" stroke="midnightblue" points="279.5,-253.75 276,-243.75 272.5,-253.75 279.5,-253.75"/>
</g>
<!-- Node46&#45;&gt;Node4 -->
<g id="edge69" class="edge">
<title>Node46&#45;&gt;Node4</title>
<path fill="none" stroke="midnightblue" d="M132,-280.08C132,-273.01 132,-262.86 132,-253.99"/>
<polygon fill="midnightblue" stroke="midnightblue" points="135.5,-253.75 132,-243.75 128.5,-253.75 135.5,-253.75"/>
</g>
<!-- Node46&#45;&gt;Node5 -->
<g id="edge70" class="edge">
<title>Node46&#45;&gt;Node5</title>
<path fill="none" stroke="midnightblue" d="M105.61,-280.47C67.08,-266.16 0,-233.44 0,-179 0,-179 0,-179 0,-121 0,-27.6 147.99,-12.81 216.25,-10.95"/>
<polygon fill="midnightblue" stroke="midnightblue" points="216.55,-14.45 226.48,-10.75 216.42,-7.45 216.55,-14.45"/>
</g>
</g>
</svg>
        <g id="navigator" transform="translate(0 0)" fill="#404254">
                <rect fill="#f2f5e9" fill-opacity="0.5" stroke="#606060" stroke-width=".5" x="0" y="0" width="60" height="60"/>
                <use id="zoomplus" xlink:href="#zoomPlus" x="17" y="9" onmousedown="handleZoom(evt,'in')"/>
                <use id="zoomminus" xlink:href="#zoomMin" x="42" y="9" onmousedown="handleZoom(evt,'out')"/>
                <use id="reset" xlink:href="#resetDef" x="30" y="36" onmousedown="handleReset()"/>
                <g id="arrowUp" xlink:href="#dirArrow" transform="translate(30 24)" onmousedown="handlePan(0,-1)">
                  <use xlink:href="#rim" fill="#404040">
                        <set attributeName="fill" to="#808080" begin="arrowUp.mouseover" end="arrowUp.mouseout"/>
                  </use>
                  <path fill="none" stroke="white" stroke-width="1.5" d="M0,-3.0v7 M-2.5,-0.5L0,-3.0L2.5,-0.5"/>
                </g>
                <g id="arrowRight" xlink:href="#dirArrow" transform="rotate(90) translate(36 -43)" onmousedown="handlePan(1,0)">
                  <use xlink:href="#rim" fill="#404040">
                        <set attributeName="fill" to="#808080" begin="arrowRight.mouseover" end="arrowRight.mouseout"/>
                  </use>
                  <path fill="none" stroke="white" stroke-width="1.5" d="M0,-3.0v7 M-2.5,-0.5L0,-3.0L2.5,-0.5"/>
                </g>
                <g id="arrowDown" xlink:href="#dirArrow" transform="rotate(180) translate(-30 -48)" onmousedown="handlePan(0,1)">
                  <use xlink:href="#rim" fill="#404040">
                        <set attributeName="fill" to="#808080" begin="arrowDown.mouseover" end="arrowDown.mouseout"/>
                  </use>
                  <path fill="none" stroke="white" stroke-width="1.5" d="M0,-3.0v7 M-2.5,-0.5L0,-3.0L2.5,-0.5"/>
                </g>
                <g id="arrowLeft" xlink:href="#dirArrow" transform="rotate(270) translate(-36 17)" onmousedown="handlePan(-1,0)">
                  <use xlink:href="#rim" fill="#404040">
                        <set attributeName="fill" to="#808080" begin="arrowLeft.mouseover" end="arrowLeft.mouseout"/>
                  </use>
                  <path fill="none" stroke="white" stroke-width="1.5" d="M0,-3.0v7 M-2.5,-0.5L0,-3.0L2.5,-0.5"/>
                </g>
        </g>
        <svg viewBox="0 0 15 15" width="100%" height="30px" preserveAspectRatio="xMaxYMin meet">
         <g id="arrow_out" transform="scale(0.3 0.3)">
          <a xlink:href="hash_8cpp__incl_org.svg" target="_base">
           <rect id="button" ry="5" rx="5" y="6" x="6" height="38" width="38"
                fill="#f2f5e9" fill-opacity="0.5" stroke="#606060" stroke-width="1.0"/>
           <path id="arrow"
             d="M 11.500037,31.436501 C 11.940474,20.09759 22.043105,11.32322 32.158766,21.979434 L 37.068811,17.246167 C 37.068811,17.246167 37.088388,32 37.088388,32 L 22.160133,31.978069 C 22.160133,31.978069 26.997745,27.140456 26.997745,27.140456 C 18.528582,18.264221 13.291696,25.230495 11.500037,31.436501 z"
             style="fill:#404040;"/>
          </a>
         </g>
        </svg>
</svg>
