<?xml version="1.0" encoding="UTF-8" standalone="no"?>
<!DOCTYPE svg PUBLIC "-//W3C//DTD SVG 1.1//EN"
 "http://www.w3.org/Graphics/SVG/1.1/DTD/svg11.dtd">
<!-- Generated by graphviz version 2.43.0 (0)
 -->
<!-- Title: src/crypto/hmac.h Pages: 1 -->
<svg width="2193pt" height="699pt"
 viewBox="0.00 0.00 2193.47 699.00" xmlns="http://www.w3.org/2000/svg" xmlns:xlink="http://www.w3.org/1999/xlink">
<g id="graph0" class="graph" transform="scale(1 1) rotate(0) translate(4 695)">
<title>src/crypto/hmac.h</title>
<polygon fill="white" stroke="transparent" points="-4,4 -4,-695 2189.47,-695 2189.47,4 -4,4"/>
<!-- Node1 -->
<g id="node1" class="node">
<title>Node1</title>
<g id="a_node1"><a xlink:title=" ">
<polygon fill="#bfbfbf" stroke="black" points="91.5,-671.5 91.5,-690.5 195.5,-690.5 195.5,-671.5 91.5,-671.5"/>
<text text-anchor="middle" x="143.5" y="-678.5" font-family="Helvetica,sans-Serif" font-size="10.00">src/crypto/hmac.h</text>
</a>
</g>
</g>
<!-- Node2 -->
<g id="node2" class="node">
<title>Node2</title>
<g id="a_node2"><a xlink:href="hmac_8cpp.html" target="_top" xlink:title=" ">
<polygon fill="white" stroke="black" points="0,-615.5 0,-634.5 115,-634.5 115,-615.5 0,-615.5"/>
<text text-anchor="middle" x="57.5" y="-622.5" font-family="Helvetica,sans-Serif" font-size="10.00">src/crypto/hmac.cpp</text>
</a>
</g>
</g>
<!-- Node1&#45;&gt;Node2 -->
<g id="edge1" class="edge">
<title>Node1&#45;&gt;Node2</title>
<path fill="none" stroke="midnightblue" d="M121.05,-665.9C105.28,-656 84.69,-643.07 71.28,-634.65"/>
<polygon fill="midnightblue" stroke="midnightblue" points="119.35,-668.97 129.68,-671.32 123.07,-663.04 119.35,-668.97"/>
</g>
<!-- Node3 -->
<g id="node3" class="node">
<title>Node3</title>
<g id="a_node3"><a xlink:href="kv_2encryptor_8h.html" target="_top" xlink:title=" ">
<polygon fill="white" stroke="black" points="133.5,-375 133.5,-394 237.5,-394 237.5,-375 133.5,-375"/>
<text text-anchor="middle" x="185.5" y="-382" font-family="Helvetica,sans-Serif" font-size="10.00">src/kv/encryptor.h</text>
</a>
</g>
</g>
<!-- Node1&#45;&gt;Node3 -->
<g id="edge2" class="edge">
<title>Node1&#45;&gt;Node3</title>
<path fill="none" stroke="midnightblue" d="M143.5,-661.25C143.5,-639.36 143.5,-602.05 143.5,-570 143.5,-570 143.5,-570 143.5,-506.5 143.5,-462.25 168.88,-413.68 180.18,-394.24"/>
<polygon fill="midnightblue" stroke="midnightblue" points="140,-661.44 143.5,-671.44 147,-661.44 140,-661.44"/>
</g>
<!-- Node13 -->
<g id="node13" class="node">
<title>Node13</title>
<g id="a_node13"><a xlink:href="ledger__secret_8h.html" target="_top" xlink:title=" ">
<polygon fill="white" stroke="black" points="600.5,-615.5 600.5,-634.5 736.5,-634.5 736.5,-615.5 600.5,-615.5"/>
<text text-anchor="middle" x="668.5" y="-622.5" font-family="Helvetica,sans-Serif" font-size="10.00">src/node/ledger_secret.h</text>
</a>
</g>
</g>
<!-- Node1&#45;&gt;Node13 -->
<g id="edge17" class="edge">
<title>Node1&#45;&gt;Node13</title>
<path fill="none" stroke="midnightblue" d="M205.93,-673.58C305.09,-663.38 497.85,-643.55 600.43,-633"/>
<polygon fill="midnightblue" stroke="midnightblue" points="205.35,-670.12 195.76,-674.62 206.06,-677.08 205.35,-670.12"/>
</g>
<!-- Node4 -->
<g id="node4" class="node">
<title>Node4</title>
<g id="a_node4"><a xlink:href="node_2encryptor_8h.html" target="_top" xlink:title=" ">
<polygon fill="white" stroke="black" points="133.5,-308 133.5,-327 249.5,-327 249.5,-308 133.5,-308"/>
<text text-anchor="middle" x="191.5" y="-315" font-family="Helvetica,sans-Serif" font-size="10.00">src/node/encryptor.h</text>
</a>
</g>
</g>
<!-- Node3&#45;&gt;Node4 -->
<g id="edge3" class="edge">
<title>Node3&#45;&gt;Node4</title>
<path fill="none" stroke="midnightblue" d="M187.25,-364.54C188.39,-352.17 189.83,-336.62 190.7,-327.13"/>
<polygon fill="midnightblue" stroke="midnightblue" points="183.74,-364.45 186.31,-374.73 190.71,-365.1 183.74,-364.45"/>
</g>
<!-- Node11 -->
<g id="node11" class="node">
<title>Node11</title>
<g id="a_node11"><a xlink:href="share__manager_8h.html" target="_top" xlink:title=" ">
<polygon fill="white" stroke="black" points="1250,-308 1250,-327 1395,-327 1395,-308 1250,-308"/>
<text text-anchor="middle" x="1322.5" y="-315" font-family="Helvetica,sans-Serif" font-size="10.00">src/node/share_manager.h</text>
</a>
</g>
</g>
<!-- Node3&#45;&gt;Node11 -->
<g id="edge13" class="edge">
<title>Node3&#45;&gt;Node11</title>
<path fill="none" stroke="midnightblue" d="M247.74,-381.91C406.77,-377.54 840.96,-363.53 1201.5,-333 1220.05,-331.43 1240.15,-329.23 1258.53,-327.01"/>
<polygon fill="midnightblue" stroke="midnightblue" points="247.56,-378.42 237.66,-382.19 247.75,-385.42 247.56,-378.42"/>
</g>
<!-- Node5 -->
<g id="node5" class="node">
<title>Node5</title>
<g id="a_node5"><a xlink:href="historical__queries_8h.html" target="_top" xlink:title=" ">
<polygon fill="white" stroke="black" points="93.5,-235.5 93.5,-265.5 199.5,-265.5 199.5,-235.5 93.5,-235.5"/>
<text text-anchor="start" x="101.5" y="-253.5" font-family="Helvetica,sans-Serif" font-size="10.00">src/node/historical</text>
<text text-anchor="middle" x="146.5" y="-242.5" font-family="Helvetica,sans-Serif" font-size="10.00">_queries.h</text>
</a>
</g>
</g>
<!-- Node4&#45;&gt;Node5 -->
<g id="edge4" class="edge">
<title>Node4&#45;&gt;Node5</title>
<path fill="none" stroke="midnightblue" d="M179.63,-299.35C172.34,-288.82 163.12,-275.5 156.25,-265.59"/>
<polygon fill="midnightblue" stroke="midnightblue" points="176.86,-301.5 185.43,-307.73 182.62,-297.52 176.86,-301.5"/>
</g>
<!-- Node9 -->
<g id="node9" class="node">
<title>Node9</title>
<g id="a_node9"><a xlink:href="node__state_8h.html" target="_top" xlink:title=" ">
<polygon fill="white" stroke="black" points="1264.5,-179.5 1264.5,-198.5 1388.5,-198.5 1388.5,-179.5 1264.5,-179.5"/>
<text text-anchor="middle" x="1326.5" y="-186.5" font-family="Helvetica,sans-Serif" font-size="10.00">src/node/node_state.h</text>
</a>
</g>
</g>
<!-- Node4&#45;&gt;Node9 -->
<g id="edge9" class="edge">
<title>Node4&#45;&gt;Node9</title>
<path fill="none" stroke="midnightblue" d="M260,-313.03C338.88,-307.8 471.82,-295.19 582.5,-266 617.77,-256.7 622.96,-243.22 658.5,-235 772.67,-208.6 1121.37,-195.87 1264.34,-191.65"/>
<polygon fill="midnightblue" stroke="midnightblue" points="259.46,-309.55 249.71,-313.69 259.91,-316.54 259.46,-309.55"/>
</g>
<!-- Node6 -->
<g id="node6" class="node">
<title>Node6</title>
<g id="a_node6"><a xlink:href="enclave_2enclave_8h.html" target="_top" xlink:title=" ">
<polygon fill="white" stroke="black" points="996.5,-56.5 996.5,-75.5 1118.5,-75.5 1118.5,-56.5 996.5,-56.5"/>
<text text-anchor="middle" x="1057.5" y="-63.5" font-family="Helvetica,sans-Serif" font-size="10.00">src/enclave/enclave.h</text>
</a>
</g>
</g>
<!-- Node5&#45;&gt;Node6 -->
<g id="edge5" class="edge">
<title>Node5&#45;&gt;Node6</title>
<path fill="none" stroke="midnightblue" d="M152.57,-225.59C162.12,-193.49 184,-137.54 225.5,-112 290.6,-71.94 815.42,-67.35 996.4,-66.97"/>
<polygon fill="midnightblue" stroke="midnightblue" points="149.13,-224.91 149.79,-235.49 155.87,-226.8 149.13,-224.91"/>
</g>
<!-- Node8 -->
<g id="node8" class="node">
<title>Node8</title>
<g id="a_node8"><a xlink:href="historical__transaction__fetcher_8h.html" target="_top" xlink:title=" ">
<polygon fill="white" stroke="black" points="48,-112.5 48,-142.5 173,-142.5 173,-112.5 48,-112.5"/>
<text text-anchor="start" x="56" y="-130.5" font-family="Helvetica,sans-Serif" font-size="10.00">src/indexing/historical</text>
<text text-anchor="middle" x="110.5" y="-119.5" font-family="Helvetica,sans-Serif" font-size="10.00">_transaction_fetcher.h</text>
</a>
</g>
</g>
<!-- Node5&#45;&gt;Node8 -->
<g id="edge7" class="edge">
<title>Node5&#45;&gt;Node8</title>
<path fill="none" stroke="midnightblue" d="M139.34,-225.45C132,-200.77 120.82,-163.2 114.77,-142.84"/>
<polygon fill="midnightblue" stroke="midnightblue" points="136.02,-226.56 142.23,-235.14 142.73,-224.56 136.02,-226.56"/>
</g>
<!-- Node7 -->
<g id="node7" class="node">
<title>Node7</title>
<g id="a_node7"><a xlink:href="enclave_2main_8cpp.html" target="_top" xlink:title=" ">
<polygon fill="white" stroke="black" points="997.5,-0.5 997.5,-19.5 1117.5,-19.5 1117.5,-0.5 997.5,-0.5"/>
<text text-anchor="middle" x="1057.5" y="-7.5" font-family="Helvetica,sans-Serif" font-size="10.00">src/enclave/main.cpp</text>
</a>
</g>
</g>
<!-- Node6&#45;&gt;Node7 -->
<g id="edge6" class="edge">
<title>Node6&#45;&gt;Node7</title>
<path fill="none" stroke="midnightblue" d="M1057.5,-45.8C1057.5,-36.91 1057.5,-26.78 1057.5,-19.75"/>
<polygon fill="midnightblue" stroke="midnightblue" points="1054,-46.08 1057.5,-56.08 1061,-46.08 1054,-46.08"/>
</g>
<!-- Node8&#45;&gt;Node6 -->
<g id="edge8" class="edge">
<title>Node8&#45;&gt;Node6</title>
<path fill="none" stroke="midnightblue" d="M183.03,-112.56C184.53,-112.36 186.02,-112.18 187.5,-112 489.54,-75.92 853.98,-68.75 996.35,-67.34"/>
<polygon fill="midnightblue" stroke="midnightblue" points="182.41,-109.12 173.01,-114 183.4,-116.04 182.41,-109.12"/>
</g>
<!-- Node9&#45;&gt;Node6 -->
<g id="edge10" class="edge">
<title>Node9&#45;&gt;Node6</title>
<path fill="none" stroke="midnightblue" d="M1318.17,-170.11C1309.01,-152.5 1292.62,-126.24 1270.5,-112 1225.06,-82.74 1163.92,-72.13 1118.8,-68.46"/>
<polygon fill="midnightblue" stroke="midnightblue" points="1315.15,-171.9 1322.71,-179.32 1321.43,-168.8 1315.15,-171.9"/>
</g>
<!-- Node10 -->
<g id="node10" class="node">
<title>Node10</title>
<g id="a_node10"><a xlink:href="gov__effects_8h.html" target="_top" xlink:title=" ">
<polygon fill="white" stroke="black" points="1117.5,-118 1117.5,-137 1261.5,-137 1261.5,-118 1117.5,-118"/>
<text text-anchor="middle" x="1189.5" y="-125" font-family="Helvetica,sans-Serif" font-size="10.00">src/node/rpc/gov_effects.h</text>
</a>
</g>
</g>
<!-- Node9&#45;&gt;Node10 -->
<g id="edge11" class="edge">
<title>Node9&#45;&gt;Node10</title>
<path fill="none" stroke="midnightblue" d="M1297.67,-175.48C1271.06,-163.92 1232.27,-147.08 1209.09,-137.01"/>
<polygon fill="midnightblue" stroke="midnightblue" points="1296.3,-178.7 1306.87,-179.48 1299.09,-172.28 1296.3,-178.7"/>
</g>
<!-- Node10&#45;&gt;Node6 -->
<g id="edge12" class="edge">
<title>Node10&#45;&gt;Node6</title>
<path fill="none" stroke="midnightblue" d="M1161.39,-113.83C1135.76,-102.28 1098.61,-85.53 1076.38,-75.51"/>
<polygon fill="midnightblue" stroke="midnightblue" points="1160.03,-117.06 1170.59,-117.98 1162.91,-110.67 1160.03,-117.06"/>
</g>
<!-- Node11&#45;&gt;Node9 -->
<g id="edge14" class="edge">
<title>Node11&#45;&gt;Node9</title>
<path fill="none" stroke="midnightblue" d="M1338.52,-300.29C1346.49,-291.06 1355.31,-278.81 1359.5,-266 1363.78,-252.91 1363.79,-248.09 1359.5,-235 1354.8,-220.64 1343.57,-207.07 1335.52,-198.66"/>
<polygon fill="midnightblue" stroke="midnightblue" points="1335.77,-298.11 1331.59,-307.84 1340.93,-302.84 1335.77,-298.11"/>
</g>
<!-- Node12 -->
<g id="node12" class="node">
<title>Node12</title>
<g id="a_node12"><a xlink:href="member__frontend_8h.html" target="_top" xlink:title=" ">
<polygon fill="white" stroke="black" points="1631.5,-235.5 1631.5,-265.5 1751.5,-265.5 1751.5,-235.5 1631.5,-235.5"/>
<text text-anchor="start" x="1639.5" y="-253.5" font-family="Helvetica,sans-Serif" font-size="10.00">src/node/rpc/member</text>
<text text-anchor="middle" x="1691.5" y="-242.5" font-family="Helvetica,sans-Serif" font-size="10.00">_frontend.h</text>
</a>
</g>
</g>
<!-- Node11&#45;&gt;Node12 -->
<g id="edge15" class="edge">
<title>Node11&#45;&gt;Node12</title>
<path fill="none" stroke="midnightblue" d="M1381.31,-306.14C1449.82,-294.07 1562.41,-274.24 1631.45,-262.08"/>
<polygon fill="midnightblue" stroke="midnightblue" points="1380.36,-302.75 1371.12,-307.94 1381.58,-309.65 1380.36,-302.75"/>
</g>
<!-- Node12&#45;&gt;Node6 -->
<g id="edge16" class="edge">
<title>Node12&#45;&gt;Node6</title>
<path fill="none" stroke="midnightblue" d="M1686.05,-225.3C1677.46,-193.36 1657.47,-138.11 1617.5,-112 1576.49,-85.21 1255.05,-72.76 1118.51,-68.63"/>
<polygon fill="midnightblue" stroke="midnightblue" points="1682.7,-226.33 1688.54,-235.17 1689.49,-224.62 1682.7,-226.33"/>
</g>
<!-- Node14 -->
<g id="node14" class="node">
<title>Node14</title>
<g id="a_node14"><a xlink:href="ledger__secrets_8h.html" target="_top" xlink:title=" ">
<polygon fill="white" stroke="black" points="1044,-559.5 1044,-578.5 1185,-578.5 1185,-559.5 1044,-559.5"/>
<text text-anchor="middle" x="1114.5" y="-566.5" font-family="Helvetica,sans-Serif" font-size="10.00">src/node/ledger_secrets.h</text>
</a>
</g>
</g>
<!-- Node13&#45;&gt;Node14 -->
<g id="edge18" class="edge">
<title>Node13&#45;&gt;Node14</title>
<path fill="none" stroke="midnightblue" d="M746.73,-614.53C830.78,-604.35 963.17,-588.32 1044.08,-578.53"/>
<polygon fill="midnightblue" stroke="midnightblue" points="746.23,-611.06 736.72,-615.74 747.07,-618.01 746.23,-611.06"/>
</g>
<!-- Node14&#45;&gt;Node4 -->
<g id="edge19" class="edge">
<title>Node14&#45;&gt;Node4</title>
<path fill="none" stroke="midnightblue" d="M1033.54,-564.54C880.81,-555.27 542.81,-521.52 289.5,-400 269.55,-390.43 220.96,-346.07 200.65,-327.12"/>
<polygon fill="midnightblue" stroke="midnightblue" points="1033.58,-568.05 1043.77,-565.14 1033.99,-561.06 1033.58,-568.05"/>
</g>
<!-- Node14&#45;&gt;Node5 -->
<g id="edge20" class="edge">
<title>Node14&#45;&gt;Node5</title>
<path fill="none" stroke="midnightblue" d="M1033.71,-567.76C817.27,-565.17 233.37,-544.66 124.5,-400 93.94,-359.39 122.7,-294.49 138.14,-265.86"/>
<polygon fill="midnightblue" stroke="midnightblue" points="1033.7,-571.26 1043.74,-567.87 1033.78,-564.26 1033.7,-571.26"/>
</g>
<!-- Node14&#45;&gt;Node11 -->
<g id="edge67" class="edge">
<title>Node14&#45;&gt;Node11</title>
<path fill="none" stroke="midnightblue" d="M1128.25,-551.5C1168.53,-503.19 1285.3,-363.12 1315.37,-327.05"/>
<polygon fill="midnightblue" stroke="midnightblue" points="1125.37,-549.49 1121.66,-559.41 1130.75,-553.97 1125.37,-549.49"/>
</g>
<!-- Node15 -->
<g id="node15" class="node">
<title>Node15</title>
<g id="a_node15"><a xlink:href="network__state_8h.html" target="_top" xlink:title=" ">
<polygon fill="white" stroke="black" points="1044.5,-375 1044.5,-394 1184.5,-394 1184.5,-375 1044.5,-375"/>
<text text-anchor="middle" x="1114.5" y="-382" font-family="Helvetica,sans-Serif" font-size="10.00">src/node/network_state.h</text>
</a>
</g>
</g>
<!-- Node14&#45;&gt;Node15 -->
<g id="edge21" class="edge">
<title>Node14&#45;&gt;Node15</title>
<path fill="none" stroke="midnightblue" d="M1114.5,-548.72C1114.5,-509.56 1114.5,-422.09 1114.5,-394.21"/>
<polygon fill="midnightblue" stroke="midnightblue" points="1111,-549.2 1114.5,-559.2 1118,-549.2 1111,-549.2"/>
</g>
<!-- Node27 -->
<g id="node27" class="node">
<title>Node27</title>
<g id="a_node27"><a xlink:href="secret__broadcast_8h.html" target="_top" xlink:title=" ">
<polygon fill="white" stroke="black" points="895,-308 895,-327 1048,-327 1048,-308 895,-308"/>
<text text-anchor="middle" x="971.5" y="-315" font-family="Helvetica,sans-Serif" font-size="10.00">src/node/secret_broadcast.h</text>
</a>
</g>
</g>
<!-- Node14&#45;&gt;Node27 -->
<g id="edge66" class="edge">
<title>Node14&#45;&gt;Node27</title>
<path fill="none" stroke="midnightblue" d="M1104.52,-550.59C1076.35,-501.45 996.95,-362.9 976.4,-327.05"/>
<polygon fill="midnightblue" stroke="midnightblue" points="1101.57,-552.48 1109.58,-559.41 1107.64,-549 1101.57,-552.48"/>
</g>
<!-- Node29 -->
<g id="node29" class="node">
<title>Node29</title>
<g id="a_node29"><a xlink:href="call__types_8h.html" target="_top" xlink:title=" ">
<polygon fill="white" stroke="black" points="1722,-436.5 1722,-455.5 1859,-455.5 1859,-436.5 1722,-436.5"/>
<text text-anchor="middle" x="1790.5" y="-443.5" font-family="Helvetica,sans-Serif" font-size="10.00">src/node/rpc/call_types.h</text>
</a>
</g>
</g>
<!-- Node14&#45;&gt;Node29 -->
<g id="edge50" class="edge">
<title>Node14&#45;&gt;Node29</title>
<path fill="none" stroke="midnightblue" d="M1195.35,-566.51C1289.62,-563.33 1449.6,-553.47 1583.5,-523 1655.54,-506.6 1736.61,-471.73 1772.15,-455.56"/>
<polygon fill="midnightblue" stroke="midnightblue" points="1195.2,-563.01 1185.32,-566.83 1195.42,-570.01 1195.2,-563.01"/>
</g>
<!-- Node34 -->
<g id="node34" class="node">
<title>Node34</title>
<g id="a_node34"><a xlink:href="node__call__types_8h.html" target="_top" xlink:title=" ">
<polygon fill="white" stroke="black" points="1449,-492.5 1449,-522.5 1574,-522.5 1574,-492.5 1449,-492.5"/>
<text text-anchor="start" x="1457" y="-510.5" font-family="Helvetica,sans-Serif" font-size="10.00">src/node/rpc/node_call</text>
<text text-anchor="middle" x="1511.5" y="-499.5" font-family="Helvetica,sans-Serif" font-size="10.00">_types.h</text>
</a>
</g>
</g>
<!-- Node14&#45;&gt;Node34 -->
<g id="edge64" class="edge">
<title>Node14&#45;&gt;Node34</title>
<path fill="none" stroke="midnightblue" d="M1181.61,-557.94C1256.29,-546.75 1376,-528.81 1448.83,-517.89"/>
<polygon fill="midnightblue" stroke="midnightblue" points="1180.75,-554.53 1171.38,-559.48 1181.79,-561.45 1180.75,-554.53"/>
</g>
<!-- Node35 -->
<g id="node35" class="node">
<title>Node35</title>
<g id="a_node35"><a xlink:href="genesis__gen_8h.html" target="_top" xlink:title=" ">
<polygon fill="white" stroke="black" points="1337.5,-369.5 1337.5,-399.5 1447.5,-399.5 1447.5,-369.5 1337.5,-369.5"/>
<text text-anchor="start" x="1345.5" y="-387.5" font-family="Helvetica,sans-Serif" font-size="10.00">src/service/genesis</text>
<text text-anchor="middle" x="1392.5" y="-376.5" font-family="Helvetica,sans-Serif" font-size="10.00">_gen.h</text>
</a>
</g>
</g>
<!-- Node14&#45;&gt;Node35 -->
<g id="edge68" class="edge">
<title>Node14&#45;&gt;Node35</title>
<path fill="none" stroke="midnightblue" d="M1195.35,-558.66C1226.41,-552.22 1260.98,-541.35 1288.5,-523 1337.06,-490.62 1371.98,-427.79 1385.87,-399.68"/>
<polygon fill="midnightblue" stroke="midnightblue" points="1194.54,-555.25 1185.4,-560.6 1195.88,-562.12 1194.54,-555.25"/>
</g>
<!-- Node15&#45;&gt;Node6 -->
<g id="edge22" class="edge">
<title>Node15&#45;&gt;Node6</title>
<path fill="none" stroke="midnightblue" d="M1034.3,-380.97C857.55,-374.97 445.51,-358.41 387.5,-333 347.76,-315.59 333.68,-305.84 316.5,-266 300.79,-229.57 307.7,-206.29 336.5,-179 431.14,-89.3 839.86,-71.44 996.28,-67.88"/>
<polygon fill="midnightblue" stroke="midnightblue" points="1034.22,-384.47 1044.33,-381.31 1034.45,-377.48 1034.22,-384.47"/>
</g>
<!-- Node15&#45;&gt;Node9 -->
<g id="edge38" class="edge">
<title>Node15&#45;&gt;Node9</title>
<path fill="none" stroke="midnightblue" d="M1140.08,-369.94C1157.74,-360.27 1181.54,-346.62 1201.5,-333 1219.79,-320.52 1221.93,-314.06 1240.5,-302 1269.5,-283.15 1288.43,-293.43 1309.5,-266 1324.98,-245.84 1326.89,-214.3 1326.82,-198.97"/>
<polygon fill="midnightblue" stroke="midnightblue" points="1138.09,-367.04 1130.97,-374.88 1141.43,-373.19 1138.09,-367.04"/>
</g>
<!-- Node15&#45;&gt;Node11 -->
<g id="edge47" class="edge">
<title>Node15&#45;&gt;Node11</title>
<path fill="none" stroke="midnightblue" d="M1151.79,-371.85C1192.99,-358.97 1258.35,-338.55 1295.1,-327.06"/>
<polygon fill="midnightblue" stroke="midnightblue" points="1150.62,-368.55 1142.12,-374.87 1152.71,-375.23 1150.62,-368.55"/>
</g>
<!-- Node16 -->
<g id="node16" class="node">
<title>Node16</title>
<g id="a_node16"><a xlink:href="wrap_8h.html" target="_top" xlink:title=" ">
<polygon fill="white" stroke="black" points="798.5,-308 798.5,-327 876.5,-327 876.5,-308 798.5,-308"/>
<text text-anchor="middle" x="837.5" y="-315" font-family="Helvetica,sans-Serif" font-size="10.00">src/js/wrap.h</text>
</a>
</g>
</g>
<!-- Node15&#45;&gt;Node16 -->
<g id="edge23" class="edge">
<title>Node15&#45;&gt;Node16</title>
<path fill="none" stroke="midnightblue" d="M1061.34,-372.98C1014.75,-363.47 945.32,-348.61 885.5,-333 878.68,-331.22 871.37,-329.11 864.56,-327.07"/>
<polygon fill="midnightblue" stroke="midnightblue" points="1060.72,-376.42 1071.22,-374.98 1062.11,-369.56 1060.72,-376.42"/>
</g>
<!-- Node24 -->
<g id="node24" class="node">
<title>Node24</title>
<g id="a_node24"><a xlink:href="node__frontend_8h.html" target="_top" xlink:title=" ">
<polygon fill="white" stroke="black" points="1451.5,-308 1451.5,-327 1609.5,-327 1609.5,-308 1451.5,-308"/>
<text text-anchor="middle" x="1530.5" y="-315" font-family="Helvetica,sans-Serif" font-size="10.00">src/node/rpc/node_frontend.h</text>
</a>
</g>
</g>
<!-- Node15&#45;&gt;Node24 -->
<g id="edge39" class="edge">
<title>Node15&#45;&gt;Node24</title>
<path fill="none" stroke="midnightblue" d="M1179.46,-373.35C1261.03,-360.6 1399.52,-338.96 1475.9,-327.03"/>
<polygon fill="midnightblue" stroke="midnightblue" points="1178.65,-369.93 1169.31,-374.94 1179.73,-376.85 1178.65,-369.93"/>
</g>
<!-- Node26 -->
<g id="node26" class="node">
<title>Node26</title>
<g id="a_node26"><a xlink:href="user__frontend_8h.html" target="_top" xlink:title=" ">
<polygon fill="white" stroke="black" points="571,-118 571,-137 726,-137 726,-118 571,-118"/>
<text text-anchor="middle" x="648.5" y="-125" font-family="Helvetica,sans-Serif" font-size="10.00">src/node/rpc/user_frontend.h</text>
</a>
</g>
</g>
<!-- Node15&#45;&gt;Node26 -->
<g id="edge43" class="edge">
<title>Node15&#45;&gt;Node26</title>
<path fill="none" stroke="midnightblue" d="M1033.99,-384C853.29,-383.24 424.21,-370.24 334.5,-266 263.17,-183.12 456.01,-148.38 570.54,-135.37"/>
<polygon fill="midnightblue" stroke="midnightblue" points="1034.22,-387.5 1044.23,-384.03 1034.24,-380.5 1034.22,-387.5"/>
</g>
<!-- Node15&#45;&gt;Node27 -->
<g id="edge45" class="edge">
<title>Node15&#45;&gt;Node27</title>
<path fill="none" stroke="midnightblue" d="M1086.15,-370.61C1057.83,-357.74 1015.07,-338.31 990.57,-327.17"/>
<polygon fill="midnightblue" stroke="midnightblue" points="1084.96,-373.92 1095.51,-374.87 1087.86,-367.54 1084.96,-373.92"/>
</g>
<!-- Node28 -->
<g id="node28" class="node">
<title>Node28</title>
<g id="a_node28"><a xlink:href="snapshotter_8h.html" target="_top" xlink:title=" ">
<polygon fill="white" stroke="black" points="1066,-308 1066,-327 1193,-327 1193,-308 1066,-308"/>
<text text-anchor="middle" x="1129.5" y="-315" font-family="Helvetica,sans-Serif" font-size="10.00">src/node/snapshotter.h</text>
</a>
</g>
</g>
<!-- Node15&#45;&gt;Node28 -->
<g id="edge48" class="edge">
<title>Node15&#45;&gt;Node28</title>
<path fill="none" stroke="midnightblue" d="M1118.79,-364.91C1121.66,-352.49 1125.3,-336.72 1127.51,-327.13"/>
<polygon fill="midnightblue" stroke="midnightblue" points="1115.36,-364.2 1116.52,-374.73 1122.18,-365.78 1115.36,-364.2"/>
</g>
<!-- Node16&#45;&gt;Node6 -->
<g id="edge25" class="edge">
<title>Node16&#45;&gt;Node6</title>
<path fill="none" stroke="midnightblue" d="M874.38,-305.11C878.12,-304.03 881.88,-302.97 885.5,-302 952.97,-283.89 992.57,-318.64 1038.5,-266 1087.79,-209.52 1067.43,-106.68 1059.86,-75.92"/>
<polygon fill="midnightblue" stroke="midnightblue" points="873.18,-301.81 864.58,-308 875.16,-308.53 873.18,-301.81"/>
</g>
<!-- Node16&#45;&gt;Node9 -->
<g id="edge36" class="edge">
<title>Node16&#45;&gt;Node9</title>
<path fill="none" stroke="midnightblue" d="M872.57,-305.1C876.89,-303.93 881.28,-302.86 885.5,-302 1028.75,-272.74 1079.72,-327.2 1212.5,-266 1230.78,-257.58 1229.25,-246.87 1245.5,-235 1265.64,-220.3 1291.08,-206.9 1308.03,-198.62"/>
<polygon fill="midnightblue" stroke="midnightblue" points="871.33,-301.81 862.69,-307.94 873.26,-308.54 871.33,-301.81"/>
</g>
<!-- Node16&#45;&gt;Node12 -->
<g id="edge37" class="edge">
<title>Node16&#45;&gt;Node12</title>
<path fill="none" stroke="midnightblue" d="M871.56,-305.11C876.2,-303.88 880.94,-302.79 885.5,-302 1191.97,-248.63 1274.77,-294.91 1584.5,-266 1599.71,-264.58 1616.08,-262.59 1631.33,-260.55"/>
<polygon fill="midnightblue" stroke="midnightblue" points="870.29,-301.84 861.64,-307.96 872.22,-308.56 870.29,-301.84"/>
</g>
<!-- Node17 -->
<g id="node17" class="node">
<title>Node17</title>
<g id="a_node17"><a xlink:href="js__generic__base_8cpp.html" target="_top" xlink:title=" ">
<polygon fill="white" stroke="black" points="1085.5,-235.5 1085.5,-265.5 1203.5,-265.5 1203.5,-235.5 1085.5,-235.5"/>
<text text-anchor="start" x="1093.5" y="-253.5" font-family="Helvetica,sans-Serif" font-size="10.00">src/apps/js_generic</text>
<text text-anchor="middle" x="1144.5" y="-242.5" font-family="Helvetica,sans-Serif" font-size="10.00">/js_generic_base.cpp</text>
</a>
</g>
</g>
<!-- Node16&#45;&gt;Node17 -->
<g id="edge24" class="edge">
<title>Node16&#45;&gt;Node17</title>
<path fill="none" stroke="midnightblue" d="M873.72,-305.13C877.68,-304.02 881.66,-302.95 885.5,-302 967.24,-281.8 988.87,-282.2 1071.5,-266 1075.94,-265.13 1080.53,-264.23 1085.14,-263.32"/>
<polygon fill="midnightblue" stroke="midnightblue" points="872.64,-301.8 864.02,-307.96 874.6,-308.52 872.64,-301.8"/>
</g>
<!-- Node18 -->
<g id="node18" class="node">
<title>Node18</title>
<g id="a_node18"><a xlink:href="js_2consensus_8cpp.html" target="_top" xlink:title=" ">
<polygon fill="white" stroke="black" points="457.5,-241 457.5,-260 573.5,-260 573.5,-241 457.5,-241"/>
<text text-anchor="middle" x="515.5" y="-248" font-family="Helvetica,sans-Serif" font-size="10.00">src/js/consensus.cpp</text>
</a>
</g>
</g>
<!-- Node16&#45;&gt;Node18 -->
<g id="edge26" class="edge">
<title>Node16&#45;&gt;Node18</title>
<path fill="none" stroke="midnightblue" d="M788.25,-306.56C725.23,-293.84 617.13,-272.01 557.7,-260.02"/>
<polygon fill="midnightblue" stroke="midnightblue" points="787.84,-310.05 798.34,-308.59 789.23,-303.19 787.84,-310.05"/>
</g>
<!-- Node19 -->
<g id="node19" class="node">
<title>Node19</title>
<g id="a_node19"><a xlink:href="wrap_8cpp.html" target="_top" xlink:title=" ">
<polygon fill="white" stroke="black" points="533,-179.5 533,-198.5 622,-198.5 622,-179.5 533,-179.5"/>
<text text-anchor="middle" x="577.5" y="-186.5" font-family="Helvetica,sans-Serif" font-size="10.00">src/js/wrap.cpp</text>
</a>
</g>
</g>
<!-- Node16&#45;&gt;Node19 -->
<g id="edge35" class="edge">
<title>Node16&#45;&gt;Node19</title>
<path fill="none" stroke="midnightblue" d="M788.27,-309.16C750.86,-302.07 699.1,-288.94 658.5,-266 626.43,-247.88 597.13,-214.49 584.31,-198.71"/>
<polygon fill="midnightblue" stroke="midnightblue" points="787.95,-312.66 798.42,-311 789.2,-305.77 787.95,-312.66"/>
</g>
<!-- Node20 -->
<g id="node20" class="node">
<title>Node20</title>
<g id="a_node20"><a xlink:href="conv_8cpp.html" target="_top" xlink:title=" ">
<polygon fill="white" stroke="black" points="795.5,-241 795.5,-260 883.5,-260 883.5,-241 795.5,-241"/>
<text text-anchor="middle" x="839.5" y="-248" font-family="Helvetica,sans-Serif" font-size="10.00">src/js/conv.cpp</text>
</a>
</g>
</g>
<!-- Node16&#45;&gt;Node20 -->
<g id="edge28" class="edge">
<title>Node16&#45;&gt;Node20</title>
<path fill="none" stroke="midnightblue" d="M838.08,-297.54C838.46,-285.17 838.94,-269.62 839.23,-260.13"/>
<polygon fill="midnightblue" stroke="midnightblue" points="834.58,-297.63 837.77,-307.73 841.58,-297.85 834.58,-297.63"/>
</g>
<!-- Node21 -->
<g id="node21" class="node">
<title>Node21</title>
<g id="a_node21"><a xlink:href="js_2crypto_8cpp.html" target="_top" xlink:title=" ">
<polygon fill="white" stroke="black" points="343.5,-241 343.5,-260 439.5,-260 439.5,-241 343.5,-241"/>
<text text-anchor="middle" x="391.5" y="-248" font-family="Helvetica,sans-Serif" font-size="10.00">src/js/crypto.cpp</text>
</a>
</g>
</g>
<!-- Node16&#45;&gt;Node21 -->
<g id="edge30" class="edge">
<title>Node16&#45;&gt;Node21</title>
<path fill="none" stroke="midnightblue" d="M788.35,-312.03C714.26,-304.86 569.72,-289.2 448.5,-266 439.88,-264.35 430.61,-262.17 422.11,-260.01"/>
<polygon fill="midnightblue" stroke="midnightblue" points="788.04,-315.52 798.33,-312.98 788.71,-308.55 788.04,-315.52"/>
</g>
<!-- Node22 -->
<g id="node22" class="node">
<title>Node22</title>
<g id="a_node22"><a xlink:href="js_2historical_8cpp.html" target="_top" xlink:title=" ">
<polygon fill="white" stroke="black" points="667.5,-241 667.5,-260 777.5,-260 777.5,-241 667.5,-241"/>
<text text-anchor="middle" x="722.5" y="-248" font-family="Helvetica,sans-Serif" font-size="10.00">src/js/historical.cpp</text>
</a>
</g>
</g>
<!-- Node16&#45;&gt;Node22 -->
<g id="edge32" class="edge">
<title>Node16&#45;&gt;Node22</title>
<path fill="none" stroke="midnightblue" d="M813.24,-302.79C790.45,-289.9 757.04,-271.02 737.76,-260.13"/>
<polygon fill="midnightblue" stroke="midnightblue" points="811.56,-305.86 821.99,-307.73 815.01,-299.77 811.56,-305.86"/>
</g>
<!-- Node23 -->
<g id="node23" class="node">
<title>Node23</title>
<g id="a_node23"><a xlink:href="openenclave_8cpp.html" target="_top" xlink:title=" ">
<polygon fill="white" stroke="black" points="901.5,-241 901.5,-260 1029.5,-260 1029.5,-241 901.5,-241"/>
<text text-anchor="middle" x="965.5" y="-248" font-family="Helvetica,sans-Serif" font-size="10.00">src/js/openenclave.cpp</text>
</a>
</g>
</g>
<!-- Node16&#45;&gt;Node23 -->
<g id="edge34" class="edge">
<title>Node16&#45;&gt;Node23</title>
<path fill="none" stroke="midnightblue" d="M863.55,-303.27C888.9,-290.4 926.69,-271.21 948.43,-260.17"/>
<polygon fill="midnightblue" stroke="midnightblue" points="861.83,-300.22 854.5,-307.87 865,-306.46 861.83,-300.22"/>
</g>
<!-- Node18&#45;&gt;Node19 -->
<g id="edge27" class="edge">
<title>Node18&#45;&gt;Node19</title>
<path fill="none" stroke="midnightblue" d="M531.83,-233.82C543.61,-222.52 559.06,-207.69 568.63,-198.51"/>
<polygon fill="midnightblue" stroke="midnightblue" points="529.17,-231.53 524.38,-240.98 534.02,-236.58 529.17,-231.53"/>
</g>
<!-- Node20&#45;&gt;Node19 -->
<g id="edge29" class="edge">
<title>Node20&#45;&gt;Node19</title>
<path fill="none" stroke="midnightblue" d="M799.34,-238.26C795.01,-237.13 790.67,-236.02 786.5,-235 729.35,-221.04 662.85,-207.12 620.49,-198.54"/>
<polygon fill="midnightblue" stroke="midnightblue" points="798.74,-241.73 809.3,-240.93 800.55,-234.96 798.74,-241.73"/>
</g>
<!-- Node21&#45;&gt;Node19 -->
<g id="edge31" class="edge">
<title>Node21&#45;&gt;Node19</title>
<path fill="none" stroke="midnightblue" d="M427.82,-237.88C463.98,-226.32 518.6,-208.84 550.9,-198.51"/>
<polygon fill="midnightblue" stroke="midnightblue" points="426.61,-234.59 418.15,-240.98 428.74,-241.26 426.61,-234.59"/>
</g>
<!-- Node22&#45;&gt;Node19 -->
<g id="edge33" class="edge">
<title>Node22&#45;&gt;Node19</title>
<path fill="none" stroke="midnightblue" d="M692.36,-237.13C664.19,-225.57 622.88,-208.62 598.24,-198.51"/>
<polygon fill="midnightblue" stroke="midnightblue" points="691.14,-240.42 701.73,-240.98 693.8,-233.94 691.14,-240.42"/>
</g>
<!-- Node24&#45;&gt;Node6 -->
<g id="edge40" class="edge">
<title>Node24&#45;&gt;Node6</title>
<path fill="none" stroke="midnightblue" d="M1551.86,-301.87C1572.92,-285.58 1599.89,-258.44 1584.5,-235 1509,-120.02 1432.07,-152.11 1300.5,-112 1239.86,-93.51 1168.28,-81.38 1118.58,-74.42"/>
<polygon fill="midnightblue" stroke="midnightblue" points="1549.58,-299.2 1543.61,-307.95 1553.74,-304.83 1549.58,-299.2"/>
</g>
<!-- Node25 -->
<g id="node25" class="node">
<title>Node25</title>
<g id="a_node25"><a xlink:href="jwt__key__auto__refresh_8h.html" target="_top" xlink:title=" ">
<polygon fill="white" stroke="black" points="1450,-235.5 1450,-265.5 1575,-265.5 1575,-235.5 1450,-235.5"/>
<text text-anchor="start" x="1458" y="-253.5" font-family="Helvetica,sans-Serif" font-size="10.00">src/node/jwt_key_auto</text>
<text text-anchor="middle" x="1512.5" y="-242.5" font-family="Helvetica,sans-Serif" font-size="10.00">_refresh.h</text>
</a>
</g>
</g>
<!-- Node24&#45;&gt;Node25 -->
<g id="edge41" class="edge">
<title>Node24&#45;&gt;Node25</title>
<path fill="none" stroke="midnightblue" d="M1525.39,-298.06C1522.54,-287.75 1519.04,-275.1 1516.4,-265.59"/>
<polygon fill="midnightblue" stroke="midnightblue" points="1522.03,-299.03 1528.07,-307.73 1528.78,-297.16 1522.03,-299.03"/>
</g>
<!-- Node25&#45;&gt;Node9 -->
<g id="edge42" class="edge">
<title>Node25&#45;&gt;Node9</title>
<path fill="none" stroke="midnightblue" d="M1458.48,-232.22C1423.95,-221.17 1380.67,-207.33 1353.29,-198.57"/>
<polygon fill="midnightblue" stroke="midnightblue" points="1457.83,-235.69 1468.42,-235.4 1459.96,-229.02 1457.83,-235.69"/>
</g>
<!-- Node26&#45;&gt;Node6 -->
<g id="edge44" class="edge">
<title>Node26&#45;&gt;Node6</title>
<path fill="none" stroke="midnightblue" d="M717.44,-116.47C796.47,-104.97 924.65,-86.33 999.01,-75.51"/>
<polygon fill="midnightblue" stroke="midnightblue" points="716.49,-113.07 707.1,-117.98 717.5,-120 716.49,-113.07"/>
</g>
<!-- Node27&#45;&gt;Node9 -->
<g id="edge46" class="edge">
<title>Node27&#45;&gt;Node9</title>
<path fill="none" stroke="midnightblue" d="M1030.01,-306.14C1109.04,-292.09 1240.68,-268.44 1245.5,-266 1262.54,-257.39 1301.68,-216.63 1318.53,-198.61"/>
<polygon fill="midnightblue" stroke="midnightblue" points="1028.93,-302.78 1019.7,-307.97 1030.15,-309.67 1028.93,-302.78"/>
</g>
<!-- Node28&#45;&gt;Node9 -->
<g id="edge49" class="edge">
<title>Node28&#45;&gt;Node9</title>
<path fill="none" stroke="midnightblue" d="M1175.56,-305.33C1214.58,-295.17 1266.77,-279.71 1283.5,-266 1305.9,-247.65 1318.81,-214.38 1323.92,-198.66"/>
<polygon fill="midnightblue" stroke="midnightblue" points="1174.27,-302.05 1165.45,-307.92 1176.01,-308.83 1174.27,-302.05"/>
</g>
<!-- Node29&#45;&gt;Node12 -->
<g id="edge56" class="edge">
<title>Node29&#45;&gt;Node12</title>
<path fill="none" stroke="midnightblue" d="M1869.4,-441.12C2004.04,-431.78 2255.42,-400.88 2166.5,-302 2139.22,-271.67 1873.3,-258.13 1751.67,-253.49"/>
<polygon fill="midnightblue" stroke="midnightblue" points="1868.87,-437.65 1859.12,-441.81 1869.34,-444.63 1868.87,-437.65"/>
</g>
<!-- Node29&#45;&gt;Node19 -->
<g id="edge53" class="edge">
<title>Node29&#45;&gt;Node19</title>
<path fill="none" stroke="midnightblue" d="M1711.74,-443.66C1574.09,-440.56 1280.99,-430.65 1035.5,-400 720.75,-360.7 536.64,-510.44 334.5,-266 279.71,-199.75 448.45,-190.3 532.68,-189.58"/>
<polygon fill="midnightblue" stroke="midnightblue" points="1711.71,-447.16 1721.78,-443.88 1711.86,-440.16 1711.71,-447.16"/>
</g>
<!-- Node30 -->
<g id="node30" class="node">
<title>Node30</title>
<g id="a_node30"><a xlink:href="nobuiltins_8cpp.html" target="_top" xlink:title=" ">
<polygon fill="white" stroke="black" points="1876,-302.5 1876,-332.5 2011,-332.5 2011,-302.5 1876,-302.5"/>
<text text-anchor="start" x="1884" y="-320.5" font-family="Helvetica,sans-Serif" font-size="10.00">samples/apps/nobuiltins</text>
<text text-anchor="middle" x="1943.5" y="-309.5" font-family="Helvetica,sans-Serif" font-size="10.00">/nobuiltins.cpp</text>
</a>
</g>
</g>
<!-- Node29&#45;&gt;Node30 -->
<g id="edge51" class="edge">
<title>Node29&#45;&gt;Node30</title>
<path fill="none" stroke="midnightblue" d="M1866.68,-433.71C1887.97,-427.1 1909.4,-416.61 1924.5,-400 1941.41,-381.4 1944.14,-350.72 1944.14,-332.78"/>
<polygon fill="midnightblue" stroke="midnightblue" points="1865.58,-430.39 1856.92,-436.49 1867.5,-437.12 1865.58,-430.39"/>
</g>
<!-- Node31 -->
<g id="node31" class="node">
<title>Node31</title>
<g id="a_node31"><a xlink:href="common__endpoint__registry_8cpp.html" target="_top" xlink:title=" ">
<polygon fill="white" stroke="black" points="2029.5,-302.5 2029.5,-332.5 2157.5,-332.5 2157.5,-302.5 2029.5,-302.5"/>
<text text-anchor="start" x="2037.5" y="-320.5" font-family="Helvetica,sans-Serif" font-size="10.00">src/endpoints/common</text>
<text text-anchor="middle" x="2093.5" y="-309.5" font-family="Helvetica,sans-Serif" font-size="10.00">_endpoint_registry.cpp</text>
</a>
</g>
</g>
<!-- Node29&#45;&gt;Node31 -->
<g id="edge52" class="edge">
<title>Node29&#45;&gt;Node31</title>
<path fill="none" stroke="midnightblue" d="M1838.3,-434.03C1869.42,-426.19 1910.58,-414.47 1945.5,-400 1992.38,-380.57 2043.49,-350.18 2071.7,-332.52"/>
<polygon fill="midnightblue" stroke="midnightblue" points="1837.43,-430.64 1828.56,-436.44 1839.11,-437.44 1837.43,-430.64"/>
</g>
<!-- Node32 -->
<g id="node32" class="node">
<title>Node32</title>
<g id="a_node32"><a xlink:href="resharing_8h.html" target="_top" xlink:title=" ">
<polygon fill="white" stroke="black" points="1703.5,-308 1703.5,-327 1819.5,-327 1819.5,-308 1703.5,-308"/>
<text text-anchor="middle" x="1761.5" y="-315" font-family="Helvetica,sans-Serif" font-size="10.00">src/node/resharing.h</text>
</a>
</g>
</g>
<!-- Node29&#45;&gt;Node32 -->
<g id="edge54" class="edge">
<title>Node29&#45;&gt;Node32</title>
<path fill="none" stroke="midnightblue" d="M1775.05,-428.55C1768.6,-420.57 1761.84,-410.46 1758.5,-400 1750.4,-374.64 1755.82,-342.58 1759.26,-327.33"/>
<polygon fill="midnightblue" stroke="midnightblue" points="1772.56,-431.02 1781.75,-436.29 1777.85,-426.44 1772.56,-431.02"/>
</g>
<!-- Node33 -->
<g id="node33" class="node">
<title>Node33</title>
<g id="a_node33"><a xlink:href="serialization_8h.html" target="_top" xlink:title=" ">
<polygon fill="white" stroke="black" points="1767.5,-375 1767.5,-394 1915.5,-394 1915.5,-375 1767.5,-375"/>
<text text-anchor="middle" x="1841.5" y="-382" font-family="Helvetica,sans-Serif" font-size="10.00">src/node/rpc/serialization.h</text>
</a>
</g>
</g>
<!-- Node29&#45;&gt;Node33 -->
<g id="edge57" class="edge">
<title>Node29&#45;&gt;Node33</title>
<path fill="none" stroke="midnightblue" d="M1804.5,-428.67C1814.11,-417.45 1826.49,-403.02 1834.21,-394.01"/>
<polygon fill="midnightblue" stroke="midnightblue" points="1801.66,-426.6 1797.81,-436.48 1806.97,-431.16 1801.66,-426.6"/>
</g>
<!-- Node32&#45;&gt;Node9 -->
<g id="edge55" class="edge">
<title>Node32&#45;&gt;Node9</title>
<path fill="none" stroke="midnightblue" d="M1767.57,-297.97C1772.31,-279.58 1775.82,-251.78 1760.5,-235 1735.92,-208.08 1502.91,-196.2 1388.82,-191.96"/>
<polygon fill="midnightblue" stroke="midnightblue" points="1764.15,-297.21 1764.69,-307.79 1770.87,-299.17 1764.15,-297.21"/>
</g>
<!-- Node33&#45;&gt;Node9 -->
<g id="edge60" class="edge">
<title>Node33&#45;&gt;Node9</title>
<path fill="none" stroke="midnightblue" d="M1840.97,-364.28C1839.92,-347.31 1836.92,-322.2 1828.5,-302 1814.31,-267.95 1811.53,-253.3 1779.5,-235 1714.4,-197.8 1496.93,-191.02 1388.73,-190.01"/>
<polygon fill="midnightblue" stroke="midnightblue" points="1837.49,-364.73 1841.43,-374.57 1844.48,-364.42 1837.49,-364.73"/>
</g>
<!-- Node33&#45;&gt;Node12 -->
<g id="edge62" class="edge">
<title>Node33&#45;&gt;Node12</title>
<path fill="none" stroke="midnightblue" d="M1757.26,-372.81C1733.25,-365.49 1709.55,-353.28 1694.5,-333 1679.99,-313.44 1683.62,-283.37 1687.57,-265.75"/>
<polygon fill="midnightblue" stroke="midnightblue" points="1756.6,-376.26 1767.18,-375.56 1758.48,-369.51 1756.6,-376.26"/>
</g>
<!-- Node33&#45;&gt;Node24 -->
<g id="edge63" class="edge">
<title>Node33&#45;&gt;Node24</title>
<path fill="none" stroke="midnightblue" d="M1790.7,-372.88C1729.54,-360.1 1628.02,-338.88 1571.57,-327.08"/>
<polygon fill="midnightblue" stroke="midnightblue" points="1790.02,-376.32 1800.52,-374.94 1791.45,-369.46 1790.02,-376.32"/>
</g>
<!-- Node33&#45;&gt;Node30 -->
<g id="edge58" class="edge">
<title>Node33&#45;&gt;Node30</title>
<path fill="none" stroke="midnightblue" d="M1864.01,-369.15C1881.08,-358.27 1904.42,-343.4 1921.39,-332.59"/>
<polygon fill="midnightblue" stroke="midnightblue" points="1861.81,-366.41 1855.26,-374.73 1865.57,-372.31 1861.81,-366.41"/>
</g>
<!-- Node33&#45;&gt;Node31 -->
<g id="edge59" class="edge">
<title>Node33&#45;&gt;Node31</title>
<path fill="none" stroke="midnightblue" d="M1884.5,-372.41C1927.17,-361.4 1992.7,-344.5 2038.99,-332.56"/>
<polygon fill="midnightblue" stroke="midnightblue" points="1883.51,-369.05 1874.7,-374.94 1885.26,-375.83 1883.51,-369.05"/>
</g>
<!-- Node33&#45;&gt;Node32 -->
<g id="edge61" class="edge">
<title>Node33&#45;&gt;Node32</title>
<path fill="none" stroke="midnightblue" d="M1822.69,-368.21C1806.92,-355.41 1784.99,-337.59 1772.12,-327.13"/>
<polygon fill="midnightblue" stroke="midnightblue" points="1820.74,-371.14 1830.71,-374.73 1825.16,-365.71 1820.74,-371.14"/>
</g>
<!-- Node34&#45;&gt;Node29 -->
<g id="edge65" class="edge">
<title>Node34&#45;&gt;Node29</title>
<path fill="none" stroke="midnightblue" d="M1584.15,-491.01C1637.23,-479.69 1707.21,-464.76 1750.51,-455.53"/>
<polygon fill="midnightblue" stroke="midnightblue" points="1583.16,-487.64 1574.11,-493.15 1584.62,-494.48 1583.16,-487.64"/>
</g>
<!-- Node35&#45;&gt;Node9 -->
<g id="edge69" class="edge">
<title>Node35&#45;&gt;Node9</title>
<path fill="none" stroke="midnightblue" d="M1399.91,-359.47C1403.93,-343.17 1407.35,-321.18 1403.5,-302 1397.15,-270.36 1394.04,-261.42 1375.5,-235 1365.28,-220.44 1349.63,-207.11 1338.77,-198.8"/>
<polygon fill="midnightblue" stroke="midnightblue" points="1396.5,-358.71 1397.26,-369.27 1403.25,-360.53 1396.5,-358.71"/>
</g>
<!-- Node35&#45;&gt;Node11 -->
<g id="edge73" class="edge">
<title>Node35&#45;&gt;Node11</title>
<path fill="none" stroke="midnightblue" d="M1369.71,-362.34C1356.85,-350.4 1341.49,-336.14 1331.86,-327.19"/>
<polygon fill="midnightblue" stroke="midnightblue" points="1367.6,-365.16 1377.31,-369.4 1372.36,-360.03 1367.6,-365.16"/>
</g>
<!-- Node35&#45;&gt;Node12 -->
<g id="edge70" class="edge">
<title>Node35&#45;&gt;Node12</title>
<path fill="none" stroke="midnightblue" d="M1457.66,-379.56C1505.03,-374.26 1569.22,-361.88 1618.5,-333 1647.18,-316.19 1670.76,-284.28 1682.81,-265.77"/>
<polygon fill="midnightblue" stroke="midnightblue" points="1457.1,-376.1 1447.51,-380.61 1457.82,-383.06 1457.1,-376.1"/>
</g>
<!-- Node35&#45;&gt;Node24 -->
<g id="edge71" class="edge">
<title>Node35&#45;&gt;Node24</title>
<path fill="none" stroke="midnightblue" d="M1431.5,-365.13C1458.06,-352.62 1491.99,-336.64 1512.44,-327.01"/>
<polygon fill="midnightblue" stroke="midnightblue" points="1430,-361.97 1422.44,-369.4 1432.98,-368.3 1430,-361.97"/>
</g>
<!-- Node35&#45;&gt;Node27 -->
<g id="edge72" class="edge">
<title>Node35&#45;&gt;Node27</title>
<path fill="none" stroke="midnightblue" d="M1327.35,-374.1C1259.62,-364.23 1150.54,-348.09 1056.5,-333 1044.82,-331.13 1032.26,-329.03 1020.47,-327.02"/>
<polygon fill="midnightblue" stroke="midnightblue" points="1327.05,-377.59 1337.45,-375.57 1328.06,-370.66 1327.05,-377.59"/>
</g>
</g>
</svg>
