<?xml version="1.0" encoding="UTF-8" standalone="no"?>
<!DOCTYPE svg PUBLIC "-//W3C//DTD SVG 1.1//EN"
 "http://www.w3.org/Graphics/SVG/1.1/DTD/svg11.dtd">
<!-- Generated by graphviz version 2.43.0 (0)
 -->
<!-- Title: include/ccf/http_configuration.h Pages: 1 -->
<!--zoomable 252 -->
<svg id="main" version="1.1" xmlns="http://www.w3.org/2000/svg" xmlns:xlink="http://www.w3.org/1999/xlink" xml:space="preserve" onload="init(evt)">
<style type="text/css"><![CDATA[
.edge:hover path { stroke: red; }
.edge:hover polygon { stroke: red; fill: red; }
]]></style>
<script type="text/javascript"><![CDATA[
var edges = document.getElementsByTagName('g');
if (edges && edges.length) {
  for (var i=0;i<edges.length;i++) {
    if (edges[i].id.substr(0,4)=='edge') {
      edges[i].setAttribute('class','edge');
    }
  }
}
]]></script>
        <defs>
                <circle id="rim" cx="0" cy="0" r="7"/>
                <circle id="rim2" cx="0" cy="0" r="3.5"/>
                <g id="zoomPlus">
                        <use xlink:href="#rim" fill="#404040">
                                <set attributeName="fill" to="#808080" begin="zoomplus.mouseover" end="zoomplus.mouseout"/>
                        </use>
                        <path d="M-4,0h8M0,-4v8" fill="none" stroke="white" stroke-width="1.5" pointer-events="none"/>
                </g>
                <g id="zoomMin">
                        <use xlink:href="#rim" fill="#404040">
                                <set attributeName="fill" to="#808080" begin="zoomminus.mouseover" end="zoomminus.mouseout"/>
                        </use>
                        <path d="M-4,0h8" fill="none" stroke="white" stroke-width="1.5" pointer-events="none"/>
                </g>
                <g id="dirArrow">
                        <path fill="none" stroke="white" stroke-width="1.5" d="M0,-3.0v7 M-2.5,-0.5L0,-3.0L2.5,-0.5"/>
                </g>
               <g id="resetDef">
                       <use xlink:href="#rim2" fill="#404040">
                               <set attributeName="fill" to="#808080" begin="reset.mouseover" end="reset.mouseout"/>
                       </use>
               </g>
        </defs>

<script type="text/javascript">
var viewWidth = 1141;
var viewHeight = 252;
var sectionId = 'dynsection-0';
</script>
<script xlink:href="svgpan.js"/>
<svg id="graph" class="graph">
<g id="viewport">
<title>include/ccf/http_configuration.h</title>
<polygon fill="white" stroke="transparent" points="-4,4 -4,-248 1137,-248 1137,4 -4,4"/>
<!-- Node1 -->
<g id="node1" class="node">
<title>Node1</title>
<g id="a_node1"><a xlink:title=" ">
<polygon fill="#bfbfbf" stroke="black" points="470,-224.5 470,-243.5 640,-243.5 640,-224.5 470,-224.5"/>
<text text-anchor="middle" x="555" y="-231.5" font-family="Helvetica,sans-Serif" font-size="10.00">include/ccf/http_configuration.h</text>
</a>
</g>
</g>
<!-- Node2 -->
<g id="node2" class="node">
<title>Node2</title>
<g id="a_node2"><a xlink:href="json_8h.html" target="_top" xlink:title=" ">
<polygon fill="white" stroke="black" points="363.5,-168.5 363.5,-187.5 440.5,-187.5 440.5,-168.5 363.5,-168.5"/>
<text text-anchor="middle" x="402" y="-175.5" font-family="Helvetica,sans-Serif" font-size="10.00">ccf/ds/json.h</text>
</a>
</g>
</g>
<!-- Node1&#45;&gt;Node2 -->
<g id="edge1" class="edge">
<title>Node1&#45;&gt;Node2</title>
<path fill="none" stroke="midnightblue" d="M530.76,-224.44C505.13,-215.4 464.51,-201.06 435.76,-190.92"/>
<polygon fill="midnightblue" stroke="midnightblue" points="436.72,-187.54 426.13,-187.52 434.39,-194.15 436.72,-187.54"/>
</g>
<!-- Node16 -->
<g id="node16" class="node">
<title>Node16</title>
<g id="a_node16"><a xlink:href="unit__strings_8h.html" target="_top" xlink:title=" ">
<polygon fill="white" stroke="black" points="498,-168.5 498,-187.5 612,-187.5 612,-168.5 498,-168.5"/>
<text text-anchor="middle" x="555" y="-175.5" font-family="Helvetica,sans-Serif" font-size="10.00">ccf/ds/unit_strings.h</text>
</a>
</g>
</g>
<!-- Node1&#45;&gt;Node16 -->
<g id="edge18" class="edge">
<title>Node1&#45;&gt;Node16</title>
<path fill="none" stroke="midnightblue" d="M555,-224.08C555,-217.01 555,-206.86 555,-197.99"/>
<polygon fill="midnightblue" stroke="midnightblue" points="558.5,-197.75 555,-187.75 551.5,-197.75 558.5,-197.75"/>
</g>
<!-- Node26 -->
<g id="node26" class="node">
<title>Node26</title>
<g id="a_node26"><a xlink:title=" ">
<polygon fill="white" stroke="#bfbfbf" points="1077,-56.5 1077,-75.5 1133,-75.5 1133,-56.5 1077,-56.5"/>
<text text-anchor="middle" x="1105" y="-63.5" font-family="Helvetica,sans-Serif" font-size="10.00">optional</text>
</a>
</g>
</g>
<!-- Node1&#45;&gt;Node26 -->
<g id="edge40" class="edge">
<title>Node1&#45;&gt;Node26</title>
<path fill="none" stroke="midnightblue" d="M583.41,-224.42C675.06,-196.76 962.92,-109.88 1066.99,-78.47"/>
<polygon fill="midnightblue" stroke="midnightblue" points="1068.2,-81.76 1076.76,-75.52 1066.17,-75.06 1068.2,-81.76"/>
</g>
<!-- Node3 -->
<g id="node3" class="node">
<title>Node3</title>
<g id="a_node3"><a xlink:href="include_2ccf_2crypto_2base64_8h.html" target="_top" xlink:title=" ">
<polygon fill="white" stroke="black" points="30,-56.5 30,-75.5 142,-75.5 142,-56.5 30,-56.5"/>
<text text-anchor="middle" x="86" y="-63.5" font-family="Helvetica,sans-Serif" font-size="10.00">ccf/crypto/base64.h</text>
</a>
</g>
</g>
<!-- Node2&#45;&gt;Node3 -->
<g id="edge2" class="edge">
<title>Node2&#45;&gt;Node3</title>
<path fill="none" stroke="midnightblue" d="M373.78,-168.42C345.23,-159.64 299.86,-145.41 261,-132 210.53,-114.58 152.55,-92.67 117.62,-79.25"/>
<polygon fill="midnightblue" stroke="midnightblue" points="118.57,-75.87 107.98,-75.54 116.06,-82.4 118.57,-75.87"/>
</g>
<!-- Node6 -->
<g id="node6" class="node">
<title>Node6</title>
<g id="a_node6"><a xlink:href="include_2ccf_2ds_2json__schema_8h.html" target="_top" xlink:title=" ">
<polygon fill="white" stroke="black" points="341.5,-112.5 341.5,-131.5 462.5,-131.5 462.5,-112.5 341.5,-112.5"/>
<text text-anchor="middle" x="402" y="-119.5" font-family="Helvetica,sans-Serif" font-size="10.00">ccf/ds/json_schema.h</text>
</a>
</g>
</g>
<!-- Node2&#45;&gt;Node6 -->
<g id="edge5" class="edge">
<title>Node2&#45;&gt;Node6</title>
<path fill="none" stroke="midnightblue" d="M402,-168.08C402,-161.01 402,-150.86 402,-141.99"/>
<polygon fill="midnightblue" stroke="midnightblue" points="405.5,-141.75 402,-131.75 398.5,-141.75 405.5,-141.75"/>
</g>
<!-- Node13 -->
<g id="node13" class="node">
<title>Node13</title>
<g id="a_node13"><a xlink:title=" ">
<polygon fill="white" stroke="#bfbfbf" points="554.5,-0.5 554.5,-19.5 633.5,-19.5 633.5,-0.5 554.5,-0.5"/>
<text text-anchor="middle" x="594" y="-7.5" font-family="Helvetica,sans-Serif" font-size="10.00">fmt/format.h</text>
</a>
</g>
</g>
<!-- Node2&#45;&gt;Node13 -->
<g id="edge16" class="edge">
<title>Node2&#45;&gt;Node13</title>
<path fill="none" stroke="midnightblue" d="M378.7,-168.47C362.71,-161.31 342.55,-149.43 332,-132 314.47,-103.04 305.14,-81.85 327,-56 333.98,-47.74 468.99,-28.09 544.29,-17.7"/>
<polygon fill="midnightblue" stroke="midnightblue" points="545.07,-21.13 554.5,-16.3 544.11,-14.19 545.07,-21.13"/>
</g>
<!-- Node15 -->
<g id="node15" class="node">
<title>Node15</title>
<g id="a_node15"><a xlink:title=" ">
<polygon fill="white" stroke="#bfbfbf" points="472,-56.5 472,-75.5 528,-75.5 528,-56.5 472,-56.5"/>
<text text-anchor="middle" x="500" y="-63.5" font-family="Helvetica,sans-Serif" font-size="10.00">sstream</text>
</a>
</g>
</g>
<!-- Node2&#45;&gt;Node15 -->
<g id="edge17" class="edge">
<title>Node2&#45;&gt;Node15</title>
<path fill="none" stroke="midnightblue" d="M420.84,-168.48C436.06,-160.8 457.17,-148.21 471,-132 482.52,-118.5 490.24,-99.69 494.8,-85.78"/>
<polygon fill="midnightblue" stroke="midnightblue" points="498.25,-86.45 497.79,-75.86 491.55,-84.43 498.25,-86.45"/>
</g>
<!-- Node4 -->
<g id="node4" class="node">
<title>Node4</title>
<g id="a_node4"><a xlink:title=" ">
<polygon fill="white" stroke="#bfbfbf" points="0,-0.5 0,-19.5 44,-19.5 44,-0.5 0,-0.5"/>
<text text-anchor="middle" x="22" y="-7.5" font-family="Helvetica,sans-Serif" font-size="10.00">string</text>
</a>
</g>
</g>
<!-- Node3&#45;&gt;Node4 -->
<g id="edge3" class="edge">
<title>Node3&#45;&gt;Node4</title>
<path fill="none" stroke="midnightblue" d="M75.72,-56.32C66.16,-48.26 51.72,-36.08 40.22,-26.37"/>
<polygon fill="midnightblue" stroke="midnightblue" points="42.37,-23.61 32.47,-19.83 37.86,-28.96 42.37,-23.61"/>
</g>
<!-- Node5 -->
<g id="node5" class="node">
<title>Node5</title>
<g id="a_node5"><a xlink:title=" ">
<polygon fill="white" stroke="#bfbfbf" points="62.5,-0.5 62.5,-19.5 109.5,-19.5 109.5,-0.5 62.5,-0.5"/>
<text text-anchor="middle" x="86" y="-7.5" font-family="Helvetica,sans-Serif" font-size="10.00">vector</text>
</a>
</g>
</g>
<!-- Node3&#45;&gt;Node5 -->
<g id="edge4" class="edge">
<title>Node3&#45;&gt;Node5</title>
<path fill="none" stroke="midnightblue" d="M86,-56.08C86,-49.01 86,-38.86 86,-29.99"/>
<polygon fill="midnightblue" stroke="midnightblue" points="89.5,-29.75 86,-19.75 82.5,-29.75 89.5,-29.75"/>
</g>
<!-- Node7 -->
<g id="node7" class="node">
<title>Node7</title>
<g id="a_node7"><a xlink:href="nonstd_8h.html" target="_top" xlink:title=" ">
<polygon fill="white" stroke="black" points="160,-56.5 160,-75.5 250,-75.5 250,-56.5 160,-56.5"/>
<text text-anchor="middle" x="205" y="-63.5" font-family="Helvetica,sans-Serif" font-size="10.00">ccf/ds/nonstd.h</text>
</a>
</g>
</g>
<!-- Node6&#45;&gt;Node7 -->
<g id="edge6" class="edge">
<title>Node6&#45;&gt;Node7</title>
<path fill="none" stroke="midnightblue" d="M370.78,-112.44C337.07,-103.2 283.2,-88.44 246.07,-78.26"/>
<polygon fill="midnightblue" stroke="midnightblue" points="246.64,-74.78 236.07,-75.52 244.79,-81.54 246.64,-74.78"/>
</g>
<!-- Node6&#45;&gt;Node13 -->
<g id="edge14" class="edge">
<title>Node6&#45;&gt;Node13</title>
<path fill="none" stroke="midnightblue" d="M381.08,-112.32C355.19,-100.36 316.64,-77.83 335,-56 341.72,-48.02 471.04,-28.47 544.35,-17.96"/>
<polygon fill="midnightblue" stroke="midnightblue" points="544.9,-21.42 554.3,-16.54 543.91,-14.49 544.9,-21.42"/>
</g>
<!-- Node14 -->
<g id="node14" class="node">
<title>Node14</title>
<g id="a_node14"><a xlink:title=" ">
<polygon fill="white" stroke="#bfbfbf" points="344,-56.5 344,-75.5 454,-75.5 454,-56.5 344,-56.5"/>
<text text-anchor="middle" x="399" y="-63.5" font-family="Helvetica,sans-Serif" font-size="10.00">nlohmann/json.hpp</text>
</a>
</g>
</g>
<!-- Node6&#45;&gt;Node14 -->
<g id="edge15" class="edge">
<title>Node6&#45;&gt;Node14</title>
<path fill="none" stroke="midnightblue" d="M401.5,-112.08C401.11,-105.01 400.55,-94.86 400.05,-85.99"/>
<polygon fill="midnightblue" stroke="midnightblue" points="403.54,-85.54 399.49,-75.75 396.55,-85.93 403.54,-85.54"/>
</g>
<!-- Node7&#45;&gt;Node4 -->
<g id="edge10" class="edge">
<title>Node7&#45;&gt;Node4</title>
<path fill="none" stroke="midnightblue" d="M176,-56.44C142.85,-46.66 88.72,-30.69 54.26,-20.52"/>
<polygon fill="midnightblue" stroke="midnightblue" points="54.82,-17.04 44.24,-17.56 52.84,-23.75 54.82,-17.04"/>
</g>
<!-- Node7&#45;&gt;Node5 -->
<g id="edge13" class="edge">
<title>Node7&#45;&gt;Node5</title>
<path fill="none" stroke="midnightblue" d="M186.14,-56.44C166.73,-47.64 136.27,-33.81 114.04,-23.72"/>
<polygon fill="midnightblue" stroke="midnightblue" points="115.32,-20.46 104.77,-19.52 112.43,-26.84 115.32,-20.46"/>
</g>
<!-- Node8 -->
<g id="node8" class="node">
<title>Node8</title>
<g id="a_node8"><a xlink:title=" ">
<polygon fill="white" stroke="#bfbfbf" points="347,-0.5 347,-19.5 411,-19.5 411,-0.5 347,-0.5"/>
<text text-anchor="middle" x="379" y="-7.5" font-family="Helvetica,sans-Serif" font-size="10.00">algorithm</text>
</a>
</g>
</g>
<!-- Node7&#45;&gt;Node8 -->
<g id="edge7" class="edge">
<title>Node7&#45;&gt;Node8</title>
<path fill="none" stroke="midnightblue" d="M232.57,-56.44C262.1,-47.28 309.12,-32.69 341.88,-22.52"/>
<polygon fill="midnightblue" stroke="midnightblue" points="343.04,-25.82 351.56,-19.52 340.97,-19.14 343.04,-25.82"/>
</g>
<!-- Node9 -->
<g id="node9" class="node">
<title>Node9</title>
<g id="a_node9"><a xlink:title=" ">
<polygon fill="white" stroke="#bfbfbf" points="128,-0.5 128,-19.5 170,-19.5 170,-0.5 128,-0.5"/>
<text text-anchor="middle" x="149" y="-7.5" font-family="Helvetica,sans-Serif" font-size="10.00">array</text>
</a>
</g>
</g>
<!-- Node7&#45;&gt;Node9 -->
<g id="edge8" class="edge">
<title>Node7&#45;&gt;Node9</title>
<path fill="none" stroke="midnightblue" d="M196,-56.32C187.81,-48.42 175.49,-36.55 165.53,-26.94"/>
<polygon fill="midnightblue" stroke="midnightblue" points="167.79,-24.26 158.16,-19.83 162.93,-29.29 167.79,-24.26"/>
</g>
<!-- Node10 -->
<g id="node10" class="node">
<title>Node10</title>
<g id="a_node10"><a xlink:title=" ">
<polygon fill="white" stroke="#bfbfbf" points="188.5,-0.5 188.5,-19.5 237.5,-19.5 237.5,-0.5 188.5,-0.5"/>
<text text-anchor="middle" x="213" y="-7.5" font-family="Helvetica,sans-Serif" font-size="10.00">cctype</text>
</a>
</g>
</g>
<!-- Node7&#45;&gt;Node10 -->
<g id="edge9" class="edge">
<title>Node7&#45;&gt;Node10</title>
<path fill="none" stroke="midnightblue" d="M206.32,-56.08C207.38,-48.93 208.91,-38.64 210.23,-29.69"/>
<polygon fill="midnightblue" stroke="midnightblue" points="213.7,-30.16 211.7,-19.75 206.78,-29.13 213.7,-30.16"/>
</g>
<!-- Node11 -->
<g id="node11" class="node">
<title>Node11</title>
<g id="a_node11"><a xlink:title=" ">
<polygon fill="white" stroke="#bfbfbf" points="255.5,-0.5 255.5,-19.5 328.5,-19.5 328.5,-0.5 255.5,-0.5"/>
<text text-anchor="middle" x="292" y="-7.5" font-family="Helvetica,sans-Serif" font-size="10.00">string_view</text>
</a>
</g>
</g>
<!-- Node7&#45;&gt;Node11 -->
<g id="edge11" class="edge">
<title>Node7&#45;&gt;Node11</title>
<path fill="none" stroke="midnightblue" d="M218.98,-56.32C232.55,-47.9 253.38,-34.97 269.32,-25.07"/>
<polygon fill="midnightblue" stroke="midnightblue" points="271.41,-27.9 278.06,-19.65 267.71,-21.95 271.41,-27.9"/>
</g>
<!-- Node12 -->
<g id="node12" class="node">
<title>Node12</title>
<g id="a_node12"><a xlink:title=" ">
<polygon fill="white" stroke="#bfbfbf" points="448.5,-0.5 448.5,-19.5 517.5,-19.5 517.5,-0.5 448.5,-0.5"/>
<text text-anchor="middle" x="483" y="-7.5" font-family="Helvetica,sans-Serif" font-size="10.00">type_traits</text>
</a>
</g>
</g>
<!-- Node7&#45;&gt;Node12 -->
<g id="edge12" class="edge">
<title>Node7&#45;&gt;Node12</title>
<path fill="none" stroke="midnightblue" d="M249.05,-56.44C300.87,-46.38 386.4,-29.76 438.44,-19.66"/>
<polygon fill="midnightblue" stroke="midnightblue" points="439.23,-23.07 448.38,-17.73 437.89,-16.2 439.23,-23.07"/>
</g>
<!-- Node16&#45;&gt;Node4 -->
<g id="edge39" class="edge">
<title>Node16&#45;&gt;Node4</title>
<path fill="none" stroke="midnightblue" d="M497.74,-170.36C366.11,-154.52 50.95,-113.06 21,-76 10.6,-63.13 12.44,-43.68 15.91,-29.41"/>
<polygon fill="midnightblue" stroke="midnightblue" points="19.3,-30.28 18.71,-19.7 12.58,-28.34 19.3,-30.28"/>
</g>
<!-- Node16&#45;&gt;Node7 -->
<g id="edge35" class="edge">
<title>Node16&#45;&gt;Node7</title>
<path fill="none" stroke="midnightblue" d="M497.95,-169.89C452.2,-163.14 386.81,-151.15 332,-132 293.43,-118.53 251.85,-95.44 227.14,-80.71"/>
<polygon fill="midnightblue" stroke="midnightblue" points="228.91,-77.69 218.54,-75.51 225.29,-83.68 228.91,-77.69"/>
</g>
<!-- Node16&#45;&gt;Node14 -->
<g id="edge38" class="edge">
<title>Node16&#45;&gt;Node14</title>
<path fill="none" stroke="midnightblue" d="M544.65,-168.45C529.04,-155.67 498.38,-131.08 471,-112 455.13,-100.94 436.6,-89.39 422.32,-80.76"/>
<polygon fill="midnightblue" stroke="midnightblue" points="423.99,-77.69 413.62,-75.55 420.4,-83.69 423.99,-77.69"/>
</g>
<!-- Node17 -->
<g id="node17" class="node">
<title>Node17</title>
<g id="a_node17"><a xlink:href="logger_8h.html" target="_top" xlink:title=" ">
<polygon fill="white" stroke="black" points="622.5,-112.5 622.5,-131.5 709.5,-131.5 709.5,-112.5 622.5,-112.5"/>
<text text-anchor="middle" x="666" y="-119.5" font-family="Helvetica,sans-Serif" font-size="10.00">ccf/ds/logger.h</text>
</a>
</g>
</g>
<!-- Node16&#45;&gt;Node17 -->
<g id="edge19" class="edge">
<title>Node16&#45;&gt;Node17</title>
<path fill="none" stroke="midnightblue" d="M572.83,-168.32C590.72,-159.62 618.48,-146.12 639.05,-136.11"/>
<polygon fill="midnightblue" stroke="midnightblue" points="640.75,-139.18 648.21,-131.65 637.69,-132.88 640.75,-139.18"/>
</g>
<!-- Node27 -->
<g id="node27" class="node">
<title>Node27</title>
<g id="a_node27"><a xlink:title=" ">
<polygon fill="white" stroke="#bfbfbf" points="727.5,-112.5 727.5,-131.5 788.5,-131.5 788.5,-112.5 727.5,-112.5"/>
<text text-anchor="middle" x="758" y="-119.5" font-family="Helvetica,sans-Serif" font-size="10.00">charconv</text>
</a>
</g>
</g>
<!-- Node16&#45;&gt;Node27 -->
<g id="edge36" class="edge">
<title>Node16&#45;&gt;Node27</title>
<path fill="none" stroke="midnightblue" d="M587.17,-168.44C622.47,-159.05 679.21,-143.96 717.51,-133.77"/>
<polygon fill="midnightblue" stroke="midnightblue" points="718.55,-137.12 727.31,-131.16 716.75,-130.35 718.55,-137.12"/>
</g>
<!-- Node28 -->
<g id="node28" class="node">
<title>Node28</title>
<g id="a_node28"><a xlink:title=" ">
<polygon fill="white" stroke="#bfbfbf" points="557.5,-112.5 557.5,-131.5 604.5,-131.5 604.5,-112.5 557.5,-112.5"/>
<text text-anchor="middle" x="581" y="-119.5" font-family="Helvetica,sans-Serif" font-size="10.00">cmath</text>
</a>
</g>
</g>
<!-- Node16&#45;&gt;Node28 -->
<g id="edge37" class="edge">
<title>Node16&#45;&gt;Node28</title>
<path fill="none" stroke="midnightblue" d="M559.29,-168.08C562.85,-160.69 568.02,-149.95 572.42,-140.81"/>
<polygon fill="midnightblue" stroke="midnightblue" points="575.6,-142.28 576.79,-131.75 569.29,-139.24 575.6,-142.28"/>
</g>
<!-- Node17&#45;&gt;Node12 -->
<g id="edge34" class="edge">
<title>Node17&#45;&gt;Node12</title>
<path fill="none" stroke="midnightblue" d="M651.64,-112.37C620.1,-93.41 544.56,-48 506.2,-24.94"/>
<polygon fill="midnightblue" stroke="midnightblue" points="507.67,-21.74 497.29,-19.59 504.06,-27.74 507.67,-21.74"/>
</g>
<!-- Node17&#45;&gt;Node13 -->
<g id="edge29" class="edge">
<title>Node17&#45;&gt;Node13</title>
<path fill="none" stroke="midnightblue" d="M651.81,-112.37C639.8,-104.37 622.99,-91.39 613,-76 603.9,-61.98 599.05,-43.48 596.53,-29.8"/>
<polygon fill="midnightblue" stroke="midnightblue" points="599.95,-28.98 594.93,-19.65 593.03,-30.08 599.95,-28.98"/>
</g>
<!-- Node17&#45;&gt;Node14 -->
<g id="edge31" class="edge">
<title>Node17&#45;&gt;Node14</title>
<path fill="none" stroke="midnightblue" d="M623.69,-112.44C576.92,-102.98 501.54,-87.74 451.15,-77.55"/>
<polygon fill="midnightblue" stroke="midnightblue" points="451.6,-74.07 441.11,-75.52 450.22,-80.93 451.6,-74.07"/>
</g>
<!-- Node17&#45;&gt;Node15 -->
<g id="edge33" class="edge">
<title>Node17&#45;&gt;Node15</title>
<path fill="none" stroke="midnightblue" d="M639.7,-112.44C611.65,-103.32 567.06,-88.81 535.82,-78.65"/>
<polygon fill="midnightblue" stroke="midnightblue" points="536.77,-75.28 526.18,-75.52 534.61,-81.94 536.77,-75.28"/>
</g>
<!-- Node18 -->
<g id="node18" class="node">
<title>Node18</title>
<g id="a_node18"><a xlink:href="enum__formatter_8h.html" target="_top" xlink:title=" ">
<polygon fill="white" stroke="black" points="622,-56.5 622,-75.5 758,-75.5 758,-56.5 622,-56.5"/>
<text text-anchor="middle" x="690" y="-63.5" font-family="Helvetica,sans-Serif" font-size="10.00">ccf/ds/enum_formatter.h</text>
</a>
</g>
</g>
<!-- Node17&#45;&gt;Node18 -->
<g id="edge20" class="edge">
<title>Node17&#45;&gt;Node18</title>
<path fill="none" stroke="midnightblue" d="M669.96,-112.08C673.21,-104.77 677.92,-94.18 681.95,-85.1"/>
<polygon fill="midnightblue" stroke="midnightblue" points="685.25,-86.31 686.11,-75.75 678.85,-83.47 685.25,-86.31"/>
</g>
<!-- Node19 -->
<g id="node19" class="node">
<title>Node19</title>
<g id="a_node19"><a xlink:href="thread__ids_8h.html" target="_top" xlink:title=" ">
<polygon fill="white" stroke="black" points="776,-56.5 776,-75.5 884,-75.5 884,-56.5 776,-56.5"/>
<text text-anchor="middle" x="830" y="-63.5" font-family="Helvetica,sans-Serif" font-size="10.00">ccf/ds/thread_ids.h</text>
</a>
</g>
</g>
<!-- Node17&#45;&gt;Node19 -->
<g id="edge22" class="edge">
<title>Node17&#45;&gt;Node19</title>
<path fill="none" stroke="midnightblue" d="M691.99,-112.44C719.7,-103.32 763.75,-88.81 794.62,-78.65"/>
<polygon fill="midnightblue" stroke="midnightblue" points="795.73,-81.97 804.14,-75.52 793.54,-75.32 795.73,-81.97"/>
</g>
<!-- Node24 -->
<g id="node24" class="node">
<title>Node24</title>
<g id="a_node24"><a xlink:title=" ">
<polygon fill="white" stroke="#bfbfbf" points="902.5,-56.5 902.5,-75.5 981.5,-75.5 981.5,-56.5 902.5,-56.5"/>
<text text-anchor="middle" x="942" y="-63.5" font-family="Helvetica,sans-Serif" font-size="10.00">fmt/chrono.h</text>
</a>
</g>
</g>
<!-- Node17&#45;&gt;Node24 -->
<g id="edge28" class="edge">
<title>Node17&#45;&gt;Node24</title>
<path fill="none" stroke="midnightblue" d="M709.73,-112.44C759.47,-102.71 840.49,-86.86 892.5,-76.69"/>
<polygon fill="midnightblue" stroke="midnightblue" points="893.35,-80.08 902.5,-74.73 892.01,-73.21 893.35,-80.08"/>
</g>
<!-- Node25 -->
<g id="node25" class="node">
<title>Node25</title>
<g id="a_node25"><a xlink:title=" ">
<polygon fill="white" stroke="#bfbfbf" points="999,-56.5 999,-75.5 1059,-75.5 1059,-56.5 999,-56.5"/>
<text text-anchor="middle" x="1029" y="-63.5" font-family="Helvetica,sans-Serif" font-size="10.00">iostream</text>
</a>
</g>
</g>
<!-- Node17&#45;&gt;Node25 -->
<g id="edge30" class="edge">
<title>Node17&#45;&gt;Node25</title>
<path fill="none" stroke="midnightblue" d="M709.67,-113.31C712.49,-112.86 715.28,-112.41 718,-112 835.37,-94.08 868.29,-97.53 988.84,-76.06"/>
<polygon fill="midnightblue" stroke="midnightblue" points="989.6,-79.48 998.83,-74.26 988.36,-72.59 989.6,-79.48"/>
</g>
<!-- Node17&#45;&gt;Node26 -->
<g id="edge32" class="edge">
<title>Node17&#45;&gt;Node26</title>
<path fill="none" stroke="midnightblue" d="M709.66,-113.22C712.48,-112.79 715.28,-112.38 718,-112 869.74,-91.09 912.16,-102.07 1066.93,-75.97"/>
<polygon fill="midnightblue" stroke="midnightblue" points="1067.53,-79.41 1076.8,-74.28 1066.35,-72.51 1067.53,-79.41"/>
</g>
<!-- Node18&#45;&gt;Node13 -->
<g id="edge21" class="edge">
<title>Node18&#45;&gt;Node13</title>
<path fill="none" stroke="midnightblue" d="M674.58,-56.32C659.46,-47.82 636.18,-34.73 618.53,-24.8"/>
<polygon fill="midnightblue" stroke="midnightblue" points="619.82,-21.51 609.39,-19.65 616.39,-27.61 619.82,-21.51"/>
</g>
<!-- Node19&#45;&gt;Node13 -->
<g id="edge23" class="edge">
<title>Node19&#45;&gt;Node13</title>
<path fill="none" stroke="midnightblue" d="M792.61,-56.44C751.61,-47.06 685.75,-31.99 641.22,-21.8"/>
<polygon fill="midnightblue" stroke="midnightblue" points="641.75,-18.34 631.22,-19.52 640.19,-25.16 641.75,-18.34"/>
</g>
<!-- Node20 -->
<g id="node20" class="node">
<title>Node20</title>
<g id="a_node20"><a xlink:title=" ">
<polygon fill="white" stroke="#bfbfbf" points="678,-0.5 678,-19.5 764,-19.5 764,-0.5 678,-0.5"/>
<text text-anchor="middle" x="721" y="-7.5" font-family="Helvetica,sans-Serif" font-size="10.00">fmt/ostream.h</text>
</a>
</g>
</g>
<!-- Node19&#45;&gt;Node20 -->
<g id="edge24" class="edge">
<title>Node19&#45;&gt;Node20</title>
<path fill="none" stroke="midnightblue" d="M812.49,-56.32C794.93,-47.62 767.67,-34.12 747.47,-24.11"/>
<polygon fill="midnightblue" stroke="midnightblue" points="748.98,-20.96 738.47,-19.65 745.88,-27.23 748.98,-20.96"/>
</g>
<!-- Node21 -->
<g id="node21" class="node">
<title>Node21</title>
<g id="a_node21"><a xlink:title=" ">
<polygon fill="white" stroke="#bfbfbf" points="782,-0.5 782,-19.5 826,-19.5 826,-0.5 782,-0.5"/>
<text text-anchor="middle" x="804" y="-7.5" font-family="Helvetica,sans-Serif" font-size="10.00">limits</text>
</a>
</g>
</g>
<!-- Node19&#45;&gt;Node21 -->
<g id="edge25" class="edge">
<title>Node19&#45;&gt;Node21</title>
<path fill="none" stroke="midnightblue" d="M825.71,-56.08C822.15,-48.69 816.98,-37.95 812.58,-28.81"/>
<polygon fill="midnightblue" stroke="midnightblue" points="815.71,-27.24 808.21,-19.75 809.4,-30.28 815.71,-27.24"/>
</g>
<!-- Node22 -->
<g id="node22" class="node">
<title>Node22</title>
<g id="a_node22"><a xlink:title=" ">
<polygon fill="white" stroke="#bfbfbf" points="844,-0.5 844,-19.5 882,-19.5 882,-0.5 844,-0.5"/>
<text text-anchor="middle" x="863" y="-7.5" font-family="Helvetica,sans-Serif" font-size="10.00">map</text>
</a>
</g>
</g>
<!-- Node19&#45;&gt;Node22 -->
<g id="edge26" class="edge">
<title>Node19&#45;&gt;Node22</title>
<path fill="none" stroke="midnightblue" d="M835.45,-56.08C840.01,-48.61 846.67,-37.72 852.29,-28.52"/>
<polygon fill="midnightblue" stroke="midnightblue" points="855.42,-30.11 857.65,-19.75 849.45,-26.46 855.42,-30.11"/>
</g>
<!-- Node23 -->
<g id="node23" class="node">
<title>Node23</title>
<g id="a_node23"><a xlink:title=" ">
<polygon fill="white" stroke="#bfbfbf" points="900,-0.5 900,-19.5 948,-19.5 948,-0.5 900,-0.5"/>
<text text-anchor="middle" x="924" y="-7.5" font-family="Helvetica,sans-Serif" font-size="10.00">thread</text>
</a>
</g>
</g>
<!-- Node19&#45;&gt;Node23 -->
<g id="edge27" class="edge">
<title>Node19&#45;&gt;Node23</title>
<path fill="none" stroke="midnightblue" d="M845.1,-56.32C859.9,-47.82 882.69,-34.73 899.98,-24.8"/>
<polygon fill="midnightblue" stroke="midnightblue" points="902.01,-27.67 908.93,-19.65 898.52,-21.6 902.01,-27.67"/>
</g>
</g>
</svg>
        <g id="navigator" transform="translate(0 0)" fill="#404254">
                <rect fill="#f2f5e9" fill-opacity="0.5" stroke="#606060" stroke-width=".5" x="0" y="0" width="60" height="60"/>
                <use id="zoomplus" xlink:href="#zoomPlus" x="17" y="9" onmousedown="handleZoom(evt,'in')"/>
                <use id="zoomminus" xlink:href="#zoomMin" x="42" y="9" onmousedown="handleZoom(evt,'out')"/>
                <use id="reset" xlink:href="#resetDef" x="30" y="36" onmousedown="handleReset()"/>
                <g id="arrowUp" xlink:href="#dirArrow" transform="translate(30 24)" onmousedown="handlePan(0,-1)">
                  <use xlink:href="#rim" fill="#404040">
                        <set attributeName="fill" to="#808080" begin="arrowUp.mouseover" end="arrowUp.mouseout"/>
                  </use>
                  <path fill="none" stroke="white" stroke-width="1.5" d="M0,-3.0v7 M-2.5,-0.5L0,-3.0L2.5,-0.5"/>
                </g>
                <g id="arrowRight" xlink:href="#dirArrow" transform="rotate(90) translate(36 -43)" onmousedown="handlePan(1,0)">
                  <use xlink:href="#rim" fill="#404040">
                        <set attributeName="fill" to="#808080" begin="arrowRight.mouseover" end="arrowRight.mouseout"/>
                  </use>
                  <path fill="none" stroke="white" stroke-width="1.5" d="M0,-3.0v7 M-2.5,-0.5L0,-3.0L2.5,-0.5"/>
                </g>
                <g id="arrowDown" xlink:href="#dirArrow" transform="rotate(180) translate(-30 -48)" onmousedown="handlePan(0,1)">
                  <use xlink:href="#rim" fill="#404040">
                        <set attributeName="fill" to="#808080" begin="arrowDown.mouseover" end="arrowDown.mouseout"/>
                  </use>
                  <path fill="none" stroke="white" stroke-width="1.5" d="M0,-3.0v7 M-2.5,-0.5L0,-3.0L2.5,-0.5"/>
                </g>
                <g id="arrowLeft" xlink:href="#dirArrow" transform="rotate(270) translate(-36 17)" onmousedown="handlePan(-1,0)">
                  <use xlink:href="#rim" fill="#404040">
                        <set attributeName="fill" to="#808080" begin="arrowLeft.mouseover" end="arrowLeft.mouseout"/>
                  </use>
                  <path fill="none" stroke="white" stroke-width="1.5" d="M0,-3.0v7 M-2.5,-0.5L0,-3.0L2.5,-0.5"/>
                </g>
        </g>
        <svg viewBox="0 0 15 15" width="100%" height="30px" preserveAspectRatio="xMaxYMin meet">
         <g id="arrow_out" transform="scale(0.3 0.3)">
          <a xlink:href="http__configuration_8h__incl_org.svg" target="_base">
           <rect id="button" ry="5" rx="5" y="6" x="6" height="38" width="38"
                fill="#f2f5e9" fill-opacity="0.5" stroke="#606060" stroke-width="1.0"/>
           <path id="arrow"
             d="M 11.500037,31.436501 C 11.940474,20.09759 22.043105,11.32322 32.158766,21.979434 L 37.068811,17.246167 C 37.068811,17.246167 37.088388,32 37.088388,32 L 22.160133,31.978069 C 22.160133,31.978069 26.997745,27.140456 26.997745,27.140456 C 18.528582,18.264221 13.291696,25.230495 11.500037,31.436501 z"
             style="fill:#404040;"/>
          </a>
         </g>
        </svg>
</svg>
