<?xml version="1.0" encoding="UTF-8" standalone="no"?>
<!DOCTYPE svg PUBLIC "-//W3C//DTD SVG 1.1//EN"
 "http://www.w3.org/Graphics/SVG/1.1/DTD/svg11.dtd">
<!-- Generated by graphviz version 2.43.0 (0)
 -->
<!-- Title: src/http/http_accept.h Pages: 1 -->
<svg width="708pt" height="364pt"
 viewBox="0.00 0.00 708.00 364.00" xmlns="http://www.w3.org/2000/svg" xmlns:xlink="http://www.w3.org/1999/xlink">
<g id="graph0" class="graph" transform="scale(1 1) rotate(0) translate(4 360)">
<title>src/http/http_accept.h</title>
<polygon fill="white" stroke="transparent" points="-4,4 -4,-360 704,-360 704,4 -4,4"/>
<!-- Node1 -->
<g id="node1" class="node">
<title>Node1</title>
<g id="a_node1"><a xlink:title=" ">
<polygon fill="#bfbfbf" stroke="black" points="262.5,-336.5 262.5,-355.5 384.5,-355.5 384.5,-336.5 262.5,-336.5"/>
<text text-anchor="middle" x="323.5" y="-343.5" font-family="Helvetica,sans-Serif" font-size="10.00">src/http/http_accept.h</text>
</a>
</g>
</g>
<!-- Node2 -->
<g id="node2" class="node">
<title>Node2</title>
<g id="a_node2"><a xlink:href="nonstd_8h.html" target="_top" xlink:title=" ">
<polygon fill="white" stroke="black" points="133.5,-56.5 133.5,-75.5 223.5,-75.5 223.5,-56.5 133.5,-56.5"/>
<text text-anchor="middle" x="178.5" y="-63.5" font-family="Helvetica,sans-Serif" font-size="10.00">ccf/ds/nonstd.h</text>
</a>
</g>
</g>
<!-- Node1&#45;&gt;Node2 -->
<g id="edge1" class="edge">
<title>Node1&#45;&gt;Node2</title>
<path fill="none" stroke="midnightblue" d="M307.81,-336.4C280.83,-320.31 228.5,-282.94 228.5,-235 228.5,-235 228.5,-235 228.5,-177 228.5,-141.18 206.26,-104.21 191.45,-83.56"/>
<polygon fill="midnightblue" stroke="midnightblue" points="194.23,-81.45 185.45,-75.52 188.62,-85.63 194.23,-81.45"/>
</g>
<!-- Node7 -->
<g id="node7" class="node">
<title>Node7</title>
<g id="a_node7"><a xlink:title=" ">
<polygon fill="white" stroke="#bfbfbf" points="0,-0.5 0,-19.5 73,-19.5 73,-0.5 0,-0.5"/>
<text text-anchor="middle" x="36.5" y="-7.5" font-family="Helvetica,sans-Serif" font-size="10.00">string_view</text>
</a>
</g>
</g>
<!-- Node1&#45;&gt;Node7 -->
<g id="edge26" class="edge">
<title>Node1&#45;&gt;Node7</title>
<path fill="none" stroke="midnightblue" d="M262.5,-343.94C187.92,-339.03 71.5,-318.06 71.5,-235 71.5,-235 71.5,-235 71.5,-121 71.5,-87.07 56.19,-49.91 45.82,-28.63"/>
<polygon fill="midnightblue" stroke="midnightblue" points="48.86,-26.88 41.22,-19.54 42.62,-30.05 48.86,-26.88"/>
</g>
<!-- Node10 -->
<g id="node10" class="node">
<title>Node10</title>
<g id="a_node10"><a xlink:href="http__status_8h.html" target="_top" xlink:title=" ">
<polygon fill="white" stroke="black" points="274.5,-168.5 274.5,-187.5 372.5,-187.5 372.5,-168.5 274.5,-168.5"/>
<text text-anchor="middle" x="323.5" y="-175.5" font-family="Helvetica,sans-Serif" font-size="10.00">ccf/http_status.h</text>
</a>
</g>
</g>
<!-- Node1&#45;&gt;Node10 -->
<g id="edge9" class="edge">
<title>Node1&#45;&gt;Node10</title>
<path fill="none" stroke="midnightblue" d="M323.5,-336.08C323.5,-309.95 323.5,-233.21 323.5,-197.58"/>
<polygon fill="midnightblue" stroke="midnightblue" points="327,-197.57 323.5,-187.57 320,-197.57 327,-197.57"/>
</g>
<!-- Node11 -->
<g id="node11" class="node">
<title>Node11</title>
<g id="a_node11"><a xlink:href="odata__error_8h.html" target="_top" xlink:title=" ">
<polygon fill="white" stroke="black" points="366.5,-224.5 366.5,-243.5 464.5,-243.5 464.5,-224.5 366.5,-224.5"/>
<text text-anchor="middle" x="415.5" y="-231.5" font-family="Helvetica,sans-Serif" font-size="10.00">ccf/odata_error.h</text>
</a>
</g>
</g>
<!-- Node1&#45;&gt;Node11 -->
<g id="edge10" class="edge">
<title>Node1&#45;&gt;Node11</title>
<path fill="none" stroke="midnightblue" d="M330.72,-336.37C346.04,-318.05 382,-275.05 401.82,-251.36"/>
<polygon fill="midnightblue" stroke="midnightblue" points="404.58,-253.51 408.31,-243.59 399.21,-249.02 404.58,-253.51"/>
</g>
<!-- Node18 -->
<g id="node18" class="node">
<title>Node18</title>
<g id="a_node18"><a xlink:href="rpc__exception_8h.html" target="_top" xlink:title=" ">
<polygon fill="white" stroke="black" points="488,-280.5 488,-299.5 627,-299.5 627,-280.5 488,-280.5"/>
<text text-anchor="middle" x="557.5" y="-287.5" font-family="Helvetica,sans-Serif" font-size="10.00">node/rpc/rpc_exception.h</text>
</a>
</g>
</g>
<!-- Node1&#45;&gt;Node18 -->
<g id="edge22" class="edge">
<title>Node1&#45;&gt;Node18</title>
<path fill="none" stroke="midnightblue" d="M360.58,-336.44C401.23,-327.06 466.53,-311.99 510.68,-301.8"/>
<polygon fill="midnightblue" stroke="midnightblue" points="511.64,-305.18 520.6,-299.52 510.06,-298.35 511.64,-305.18"/>
</g>
<!-- Node3 -->
<g id="node3" class="node">
<title>Node3</title>
<g id="a_node3"><a xlink:title=" ">
<polygon fill="white" stroke="#bfbfbf" points="91.5,-0.5 91.5,-19.5 155.5,-19.5 155.5,-0.5 91.5,-0.5"/>
<text text-anchor="middle" x="123.5" y="-7.5" font-family="Helvetica,sans-Serif" font-size="10.00">algorithm</text>
</a>
</g>
</g>
<!-- Node2&#45;&gt;Node3 -->
<g id="edge2" class="edge">
<title>Node2&#45;&gt;Node3</title>
<path fill="none" stroke="midnightblue" d="M169.42,-56.08C161.33,-48.14 149.3,-36.34 139.59,-26.8"/>
<polygon fill="midnightblue" stroke="midnightblue" points="142,-24.26 132.41,-19.75 137.1,-29.25 142,-24.26"/>
</g>
<!-- Node4 -->
<g id="node4" class="node">
<title>Node4</title>
<g id="a_node4"><a xlink:title=" ">
<polygon fill="white" stroke="#bfbfbf" points="173.5,-0.5 173.5,-19.5 215.5,-19.5 215.5,-0.5 173.5,-0.5"/>
<text text-anchor="middle" x="194.5" y="-7.5" font-family="Helvetica,sans-Serif" font-size="10.00">array</text>
</a>
</g>
</g>
<!-- Node2&#45;&gt;Node4 -->
<g id="edge3" class="edge">
<title>Node2&#45;&gt;Node4</title>
<path fill="none" stroke="midnightblue" d="M181.14,-56.08C183.29,-48.85 186.38,-38.41 189.05,-29.4"/>
<polygon fill="midnightblue" stroke="midnightblue" points="192.42,-30.33 191.91,-19.75 185.71,-28.34 192.42,-30.33"/>
</g>
<!-- Node5 -->
<g id="node5" class="node">
<title>Node5</title>
<g id="a_node5"><a xlink:title=" ">
<polygon fill="white" stroke="#bfbfbf" points="234,-0.5 234,-19.5 283,-19.5 283,-0.5 234,-0.5"/>
<text text-anchor="middle" x="258.5" y="-7.5" font-family="Helvetica,sans-Serif" font-size="10.00">cctype</text>
</a>
</g>
</g>
<!-- Node2&#45;&gt;Node5 -->
<g id="edge4" class="edge">
<title>Node2&#45;&gt;Node5</title>
<path fill="none" stroke="midnightblue" d="M191.35,-56.32C203.72,-47.98 222.63,-35.21 237.24,-25.35"/>
<polygon fill="midnightblue" stroke="midnightblue" points="239.35,-28.15 245.68,-19.65 235.43,-22.35 239.35,-28.15"/>
</g>
<!-- Node6 -->
<g id="node6" class="node">
<title>Node6</title>
<g id="a_node6"><a xlink:title=" ">
<polygon fill="white" stroke="#bfbfbf" points="500.5,-0.5 500.5,-19.5 544.5,-19.5 544.5,-0.5 500.5,-0.5"/>
<text text-anchor="middle" x="522.5" y="-7.5" font-family="Helvetica,sans-Serif" font-size="10.00">string</text>
</a>
</g>
</g>
<!-- Node2&#45;&gt;Node6 -->
<g id="edge5" class="edge">
<title>Node2&#45;&gt;Node6</title>
<path fill="none" stroke="midnightblue" d="M223.57,-57.43C226.59,-56.94 229.59,-56.46 232.5,-56 339.91,-39.06 367.26,-38.02 474.5,-20 479.46,-19.17 484.71,-18.23 489.83,-17.3"/>
<polygon fill="midnightblue" stroke="midnightblue" points="490.88,-20.66 500.07,-15.39 489.59,-13.78 490.88,-20.66"/>
</g>
<!-- Node2&#45;&gt;Node7 -->
<g id="edge6" class="edge">
<title>Node2&#45;&gt;Node7</title>
<path fill="none" stroke="midnightblue" d="M156,-56.44C132.42,-47.48 95.18,-33.31 68.54,-23.18"/>
<polygon fill="midnightblue" stroke="midnightblue" points="69.49,-19.8 58.9,-19.52 67,-26.34 69.49,-19.8"/>
</g>
<!-- Node8 -->
<g id="node8" class="node">
<title>Node8</title>
<g id="a_node8"><a xlink:title=" ">
<polygon fill="white" stroke="#bfbfbf" points="301,-0.5 301,-19.5 370,-19.5 370,-0.5 301,-0.5"/>
<text text-anchor="middle" x="335.5" y="-7.5" font-family="Helvetica,sans-Serif" font-size="10.00">type_traits</text>
</a>
</g>
</g>
<!-- Node2&#45;&gt;Node8 -->
<g id="edge7" class="edge">
<title>Node2&#45;&gt;Node8</title>
<path fill="none" stroke="midnightblue" d="M203.38,-56.44C229.79,-47.36 271.72,-32.94 301.24,-22.78"/>
<polygon fill="midnightblue" stroke="midnightblue" points="302.42,-26.08 310.74,-19.52 300.14,-19.46 302.42,-26.08"/>
</g>
<!-- Node9 -->
<g id="node9" class="node">
<title>Node9</title>
<g id="a_node9"><a xlink:title=" ">
<polygon fill="white" stroke="#bfbfbf" points="419,-0.5 419,-19.5 466,-19.5 466,-0.5 419,-0.5"/>
<text text-anchor="middle" x="442.5" y="-7.5" font-family="Helvetica,sans-Serif" font-size="10.00">vector</text>
</a>
</g>
</g>
<!-- Node2&#45;&gt;Node9 -->
<g id="edge8" class="edge">
<title>Node2&#45;&gt;Node9</title>
<path fill="none" stroke="midnightblue" d="M220.33,-56.44C272.62,-45.75 361.06,-27.66 409.07,-17.84"/>
<polygon fill="midnightblue" stroke="midnightblue" points="409.86,-21.25 418.95,-15.82 408.46,-14.39 409.86,-21.25"/>
</g>
<!-- Node11&#45;&gt;Node10 -->
<g id="edge21" class="edge">
<title>Node11&#45;&gt;Node10</title>
<path fill="none" stroke="midnightblue" d="M400.72,-224.32C386.23,-215.82 363.93,-202.73 347.01,-192.8"/>
<polygon fill="midnightblue" stroke="midnightblue" points="348.64,-189.7 338.24,-187.65 345.1,-195.74 348.64,-189.7"/>
</g>
<!-- Node12 -->
<g id="node12" class="node">
<title>Node12</title>
<g id="a_node12"><a xlink:href="json_8h.html" target="_top" xlink:title=" ">
<polygon fill="white" stroke="black" points="391,-168.5 391,-187.5 468,-187.5 468,-168.5 391,-168.5"/>
<text text-anchor="middle" x="429.5" y="-175.5" font-family="Helvetica,sans-Serif" font-size="10.00">ccf/ds/json.h</text>
</a>
</g>
</g>
<!-- Node11&#45;&gt;Node12 -->
<g id="edge11" class="edge">
<title>Node11&#45;&gt;Node12</title>
<path fill="none" stroke="midnightblue" d="M417.81,-224.08C419.67,-216.93 422.34,-206.64 424.65,-197.69"/>
<polygon fill="midnightblue" stroke="midnightblue" points="428.11,-198.31 427.23,-187.75 421.33,-196.55 428.11,-198.31"/>
</g>
<!-- Node13 -->
<g id="node13" class="node">
<title>Node13</title>
<g id="a_node13"><a xlink:href="include_2ccf_2crypto_2base64_8h.html" target="_top" xlink:title=" ">
<polygon fill="white" stroke="black" points="466.5,-56.5 466.5,-75.5 578.5,-75.5 578.5,-56.5 466.5,-56.5"/>
<text text-anchor="middle" x="522.5" y="-63.5" font-family="Helvetica,sans-Serif" font-size="10.00">ccf/crypto/base64.h</text>
</a>
</g>
</g>
<!-- Node12&#45;&gt;Node13 -->
<g id="edge12" class="edge">
<title>Node12&#45;&gt;Node13</title>
<path fill="none" stroke="midnightblue" d="M433.15,-168.36C438.94,-155.25 451.17,-129.99 466.5,-112 476.33,-100.46 489.44,-89.74 500.51,-81.66"/>
<polygon fill="midnightblue" stroke="midnightblue" points="502.69,-84.4 508.85,-75.78 498.66,-78.68 502.69,-84.4"/>
</g>
<!-- Node14 -->
<g id="node14" class="node">
<title>Node14</title>
<g id="a_node14"><a xlink:href="include_2ccf_2ds_2json__schema_8h.html" target="_top" xlink:title=" ">
<polygon fill="white" stroke="black" points="258,-112.5 258,-131.5 379,-131.5 379,-112.5 258,-112.5"/>
<text text-anchor="middle" x="318.5" y="-119.5" font-family="Helvetica,sans-Serif" font-size="10.00">ccf/ds/json_schema.h</text>
</a>
</g>
</g>
<!-- Node12&#45;&gt;Node14 -->
<g id="edge15" class="edge">
<title>Node12&#45;&gt;Node14</title>
<path fill="none" stroke="midnightblue" d="M411.67,-168.32C393.78,-159.62 366.02,-146.12 345.45,-136.11"/>
<polygon fill="midnightblue" stroke="midnightblue" points="346.81,-132.88 336.29,-131.65 343.75,-139.18 346.81,-132.88"/>
</g>
<!-- Node15 -->
<g id="node15" class="node">
<title>Node15</title>
<g id="a_node15"><a xlink:title=" ">
<polygon fill="white" stroke="#bfbfbf" points="370,-56.5 370,-75.5 449,-75.5 449,-56.5 370,-56.5"/>
<text text-anchor="middle" x="409.5" y="-63.5" font-family="Helvetica,sans-Serif" font-size="10.00">fmt/format.h</text>
</a>
</g>
</g>
<!-- Node12&#45;&gt;Node15 -->
<g id="edge19" class="edge">
<title>Node12&#45;&gt;Node15</title>
<path fill="none" stroke="midnightblue" d="M427.93,-168.37C424.7,-150.62 417.26,-109.67 412.88,-85.6"/>
<polygon fill="midnightblue" stroke="midnightblue" points="416.29,-84.8 411.06,-75.59 409.41,-86.06 416.29,-84.8"/>
</g>
<!-- Node17 -->
<g id="node17" class="node">
<title>Node17</title>
<g id="a_node17"><a xlink:title=" ">
<polygon fill="white" stroke="#bfbfbf" points="475.5,-112.5 475.5,-131.5 531.5,-131.5 531.5,-112.5 475.5,-112.5"/>
<text text-anchor="middle" x="503.5" y="-119.5" font-family="Helvetica,sans-Serif" font-size="10.00">sstream</text>
</a>
</g>
</g>
<!-- Node12&#45;&gt;Node17 -->
<g id="edge20" class="edge">
<title>Node12&#45;&gt;Node17</title>
<path fill="none" stroke="midnightblue" d="M441.39,-168.32C452.65,-160.11 469.79,-147.6 483.21,-137.81"/>
<polygon fill="midnightblue" stroke="midnightblue" points="485.38,-140.56 491.39,-131.83 481.25,-134.9 485.38,-140.56"/>
</g>
<!-- Node13&#45;&gt;Node6 -->
<g id="edge13" class="edge">
<title>Node13&#45;&gt;Node6</title>
<path fill="none" stroke="midnightblue" d="M522.5,-56.08C522.5,-49.01 522.5,-38.86 522.5,-29.99"/>
<polygon fill="midnightblue" stroke="midnightblue" points="526,-29.75 522.5,-19.75 519,-29.75 526,-29.75"/>
</g>
<!-- Node13&#45;&gt;Node9 -->
<g id="edge14" class="edge">
<title>Node13&#45;&gt;Node9</title>
<path fill="none" stroke="midnightblue" d="M509.65,-56.32C497.28,-47.98 478.37,-35.21 463.76,-25.35"/>
<polygon fill="midnightblue" stroke="midnightblue" points="465.57,-22.35 455.32,-19.65 461.65,-28.15 465.57,-22.35"/>
</g>
<!-- Node14&#45;&gt;Node2 -->
<g id="edge16" class="edge">
<title>Node14&#45;&gt;Node2</title>
<path fill="none" stroke="midnightblue" d="M296.32,-112.44C273.07,-103.48 236.35,-89.31 210.08,-79.18"/>
<polygon fill="midnightblue" stroke="midnightblue" points="211.17,-75.85 200.58,-75.52 208.65,-82.38 211.17,-75.85"/>
</g>
<!-- Node14&#45;&gt;Node15 -->
<g id="edge17" class="edge">
<title>Node14&#45;&gt;Node15</title>
<path fill="none" stroke="midnightblue" d="M333.12,-112.32C347.45,-103.82 369.51,-90.73 386.25,-80.8"/>
<polygon fill="midnightblue" stroke="midnightblue" points="388.1,-83.77 394.92,-75.65 384.53,-77.75 388.1,-83.77"/>
</g>
<!-- Node16 -->
<g id="node16" class="node">
<title>Node16</title>
<g id="a_node16"><a xlink:title=" ">
<polygon fill="white" stroke="#bfbfbf" points="241.5,-56.5 241.5,-75.5 351.5,-75.5 351.5,-56.5 241.5,-56.5"/>
<text text-anchor="middle" x="296.5" y="-63.5" font-family="Helvetica,sans-Serif" font-size="10.00">nlohmann/json.hpp</text>
</a>
</g>
</g>
<!-- Node14&#45;&gt;Node16 -->
<g id="edge18" class="edge">
<title>Node14&#45;&gt;Node16</title>
<path fill="none" stroke="midnightblue" d="M314.87,-112.08C311.89,-104.77 307.57,-94.18 303.88,-85.1"/>
<polygon fill="midnightblue" stroke="midnightblue" points="307.08,-83.69 300.07,-75.75 300.6,-86.33 307.08,-83.69"/>
</g>
<!-- Node18&#45;&gt;Node6 -->
<g id="edge25" class="edge">
<title>Node18&#45;&gt;Node6</title>
<path fill="none" stroke="midnightblue" d="M564.31,-280.46C577.78,-262.69 606.5,-219.98 606.5,-179 606.5,-179 606.5,-179 606.5,-121 606.5,-90.9 605.11,-80.41 587.5,-56 578,-42.83 563.4,-32.23 550.45,-24.62"/>
<polygon fill="midnightblue" stroke="midnightblue" points="551.84,-21.4 541.4,-19.63 548.46,-27.53 551.84,-21.4"/>
</g>
<!-- Node18&#45;&gt;Node11 -->
<g id="edge23" class="edge">
<title>Node18&#45;&gt;Node11</title>
<path fill="none" stroke="midnightblue" d="M535,-280.44C511.42,-271.48 474.18,-257.31 447.54,-247.18"/>
<polygon fill="midnightblue" stroke="midnightblue" points="448.49,-243.8 437.9,-243.52 446,-250.34 448.49,-243.8"/>
</g>
<!-- Node19 -->
<g id="node19" class="node">
<title>Node19</title>
<g id="a_node19"><a xlink:title=" ">
<polygon fill="white" stroke="#bfbfbf" points="635,-224.5 635,-243.5 700,-243.5 700,-224.5 635,-224.5"/>
<text text-anchor="middle" x="667.5" y="-231.5" font-family="Helvetica,sans-Serif" font-size="10.00">exception</text>
</a>
</g>
</g>
<!-- Node18&#45;&gt;Node19 -->
<g id="edge24" class="edge">
<title>Node18&#45;&gt;Node19</title>
<path fill="none" stroke="midnightblue" d="M575.17,-280.32C592.89,-271.62 620.4,-258.12 640.79,-248.11"/>
<polygon fill="midnightblue" stroke="midnightblue" points="642.44,-251.2 649.87,-243.65 639.35,-244.92 642.44,-251.2"/>
</g>
</g>
</svg>
