<?xml version="1.0" encoding="UTF-8" standalone="no"?>
<!DOCTYPE svg PUBLIC "-//W3C//DTD SVG 1.1//EN"
 "http://www.w3.org/Graphics/SVG/1.1/DTD/svg11.dtd">
<!-- Generated by graphviz version 2.43.0 (0)
 -->
<!-- Title: include/ccf/http_query.h Pages: 1 -->
<svg width="539pt" height="386pt"
 viewBox="0.00 0.00 538.50 386.00" xmlns="http://www.w3.org/2000/svg" xmlns:xlink="http://www.w3.org/1999/xlink">
<g id="graph0" class="graph" transform="scale(1 1) rotate(0) translate(4 382)">
<title>include/ccf/http_query.h</title>
<polygon fill="white" stroke="transparent" points="-4,4 -4,-382 534.5,-382 534.5,4 -4,4"/>
<!-- Node1 -->
<g id="node1" class="node">
<title>Node1</title>
<g id="a_node1"><a xlink:title=" ">
<polygon fill="#bfbfbf" stroke="black" points="139.5,-358.5 139.5,-377.5 271.5,-377.5 271.5,-358.5 139.5,-358.5"/>
<text text-anchor="middle" x="205.5" y="-365.5" font-family="Helvetica,sans-Serif" font-size="10.00">include/ccf/http_query.h</text>
</a>
</g>
</g>
<!-- Node2 -->
<g id="node2" class="node">
<title>Node2</title>
<g id="a_node2"><a xlink:href="logging_8cpp.html" target="_top" xlink:title=" ">
<polygon fill="white" stroke="black" points="0,-291.5 0,-321.5 123,-321.5 123,-291.5 0,-291.5"/>
<text text-anchor="start" x="8" y="-309.5" font-family="Helvetica,sans-Serif" font-size="10.00">samples/apps/logging</text>
<text text-anchor="middle" x="61.5" y="-298.5" font-family="Helvetica,sans-Serif" font-size="10.00">/logging.cpp</text>
</a>
</g>
</g>
<!-- Node1&#45;&gt;Node2 -->
<g id="edge1" class="edge">
<title>Node1&#45;&gt;Node2</title>
<path fill="none" stroke="midnightblue" d="M175.47,-354.59C152.12,-344.94 119.72,-331.56 95.44,-321.52"/>
<polygon fill="midnightblue" stroke="midnightblue" points="174.29,-357.89 184.87,-358.48 176.96,-351.42 174.29,-357.89"/>
</g>
<!-- Node3 -->
<g id="node3" class="node">
<title>Node3</title>
<g id="a_node3"><a xlink:href="common__endpoint__registry_8cpp.html" target="_top" xlink:title=" ">
<polygon fill="white" stroke="black" points="141.5,-291.5 141.5,-321.5 269.5,-321.5 269.5,-291.5 141.5,-291.5"/>
<text text-anchor="start" x="149.5" y="-309.5" font-family="Helvetica,sans-Serif" font-size="10.00">src/endpoints/common</text>
<text text-anchor="middle" x="205.5" y="-298.5" font-family="Helvetica,sans-Serif" font-size="10.00">_endpoint_registry.cpp</text>
</a>
</g>
</g>
<!-- Node1&#45;&gt;Node3 -->
<g id="edge2" class="edge">
<title>Node1&#45;&gt;Node3</title>
<path fill="none" stroke="midnightblue" d="M205.5,-348.23C205.5,-339.59 205.5,-329.5 205.5,-321.52"/>
<polygon fill="midnightblue" stroke="midnightblue" points="202,-348.48 205.5,-358.48 209,-348.48 202,-348.48"/>
</g>
<!-- Node4 -->
<g id="node4" class="node">
<title>Node4</title>
<g id="a_node4"><a xlink:href="node__frontend_8h.html" target="_top" xlink:title=" ">
<polygon fill="white" stroke="black" points="287.5,-297 287.5,-316 445.5,-316 445.5,-297 287.5,-297"/>
<text text-anchor="middle" x="366.5" y="-304" font-family="Helvetica,sans-Serif" font-size="10.00">src/node/rpc/node_frontend.h</text>
</a>
</g>
</g>
<!-- Node1&#45;&gt;Node4 -->
<g id="edge3" class="edge">
<title>Node1&#45;&gt;Node4</title>
<path fill="none" stroke="midnightblue" d="M238.15,-354.93C269.44,-343.37 315.88,-326.21 343.48,-316.01"/>
<polygon fill="midnightblue" stroke="midnightblue" points="236.73,-351.73 228.57,-358.48 239.16,-358.29 236.73,-351.73"/>
</g>
<!-- Node5 -->
<g id="node5" class="node">
<title>Node5</title>
<g id="a_node5"><a xlink:href="enclave_2enclave_8h.html" target="_top" xlink:title=" ">
<polygon fill="white" stroke="black" points="297.5,-56.5 297.5,-75.5 419.5,-75.5 419.5,-56.5 297.5,-56.5"/>
<text text-anchor="middle" x="358.5" y="-63.5" font-family="Helvetica,sans-Serif" font-size="10.00">src/enclave/enclave.h</text>
</a>
</g>
</g>
<!-- Node4&#45;&gt;Node5 -->
<g id="edge4" class="edge">
<title>Node4&#45;&gt;Node5</title>
<path fill="none" stroke="midnightblue" d="M354.88,-288.02C349.34,-278.65 343.33,-266.67 340.5,-255 324.13,-187.44 347.22,-102.85 355.64,-75.77"/>
<polygon fill="midnightblue" stroke="midnightblue" points="352.04,-290.09 360.32,-296.71 357.98,-286.38 352.04,-290.09"/>
</g>
<!-- Node7 -->
<g id="node7" class="node">
<title>Node7</title>
<g id="a_node7"><a xlink:href="jwt__key__auto__refresh_8h.html" target="_top" xlink:title=" ">
<polygon fill="white" stroke="black" points="349,-224.5 349,-254.5 474,-254.5 474,-224.5 349,-224.5"/>
<text text-anchor="start" x="357" y="-242.5" font-family="Helvetica,sans-Serif" font-size="10.00">src/node/jwt_key_auto</text>
<text text-anchor="middle" x="411.5" y="-231.5" font-family="Helvetica,sans-Serif" font-size="10.00">_refresh.h</text>
</a>
</g>
</g>
<!-- Node4&#45;&gt;Node7 -->
<g id="edge6" class="edge">
<title>Node4&#45;&gt;Node7</title>
<path fill="none" stroke="midnightblue" d="M378.37,-288.35C385.66,-277.82 394.88,-264.5 401.75,-254.59"/>
<polygon fill="midnightblue" stroke="midnightblue" points="375.38,-286.52 372.57,-296.73 381.14,-290.5 375.38,-286.52"/>
</g>
<!-- Node6 -->
<g id="node6" class="node">
<title>Node6</title>
<g id="a_node6"><a xlink:href="enclave_2main_8cpp.html" target="_top" xlink:title=" ">
<polygon fill="white" stroke="black" points="298.5,-0.5 298.5,-19.5 418.5,-19.5 418.5,-0.5 298.5,-0.5"/>
<text text-anchor="middle" x="358.5" y="-7.5" font-family="Helvetica,sans-Serif" font-size="10.00">src/enclave/main.cpp</text>
</a>
</g>
</g>
<!-- Node5&#45;&gt;Node6 -->
<g id="edge5" class="edge">
<title>Node5&#45;&gt;Node6</title>
<path fill="none" stroke="midnightblue" d="M358.5,-45.8C358.5,-36.91 358.5,-26.78 358.5,-19.75"/>
<polygon fill="midnightblue" stroke="midnightblue" points="355,-46.08 358.5,-56.08 362,-46.08 355,-46.08"/>
</g>
<!-- Node8 -->
<g id="node8" class="node">
<title>Node8</title>
<g id="a_node8"><a xlink:href="node__state_8h.html" target="_top" xlink:title=" ">
<polygon fill="white" stroke="black" points="349.5,-168.5 349.5,-187.5 473.5,-187.5 473.5,-168.5 349.5,-168.5"/>
<text text-anchor="middle" x="411.5" y="-175.5" font-family="Helvetica,sans-Serif" font-size="10.00">src/node/node_state.h</text>
</a>
</g>
</g>
<!-- Node7&#45;&gt;Node8 -->
<g id="edge7" class="edge">
<title>Node7&#45;&gt;Node8</title>
<path fill="none" stroke="midnightblue" d="M411.5,-214.29C411.5,-204.86 411.5,-194.65 411.5,-187.66"/>
<polygon fill="midnightblue" stroke="midnightblue" points="408,-214.4 411.5,-224.4 415,-214.4 408,-214.4"/>
</g>
<!-- Node8&#45;&gt;Node5 -->
<g id="edge8" class="edge">
<title>Node8&#45;&gt;Node5</title>
<path fill="none" stroke="midnightblue" d="M396.91,-160.72C390.22,-152.56 382.66,-142.26 377.5,-132 368,-113.09 362.46,-88.64 360.02,-75.79"/>
<polygon fill="midnightblue" stroke="midnightblue" points="394.27,-163.01 403.42,-168.34 399.59,-158.46 394.27,-163.01"/>
</g>
<!-- Node9 -->
<g id="node9" class="node">
<title>Node9</title>
<g id="a_node9"><a xlink:href="gov__effects_8h.html" target="_top" xlink:title=" ">
<polygon fill="white" stroke="black" points="386.5,-112.5 386.5,-131.5 530.5,-131.5 530.5,-112.5 386.5,-112.5"/>
<text text-anchor="middle" x="458.5" y="-119.5" font-family="Helvetica,sans-Serif" font-size="10.00">src/node/rpc/gov_effects.h</text>
</a>
</g>
</g>
<!-- Node8&#45;&gt;Node9 -->
<g id="edge9" class="edge">
<title>Node8&#45;&gt;Node9</title>
<path fill="none" stroke="midnightblue" d="M425.92,-160.43C434.16,-150.97 444.15,-139.48 450.88,-131.75"/>
<polygon fill="midnightblue" stroke="midnightblue" points="423.19,-158.24 419.26,-168.08 428.47,-162.84 423.19,-158.24"/>
</g>
<!-- Node9&#45;&gt;Node5 -->
<g id="edge10" class="edge">
<title>Node9&#45;&gt;Node5</title>
<path fill="none" stroke="midnightblue" d="M433.41,-107.45C414.95,-97.48 390.4,-84.23 374.53,-75.65"/>
<polygon fill="midnightblue" stroke="midnightblue" points="431.97,-110.65 442.43,-112.32 435.3,-104.49 431.97,-110.65"/>
</g>
</g>
</svg>
