<?xml version="1.0" encoding="UTF-8" standalone="no"?>
<!DOCTYPE svg PUBLIC "-//W3C//DTD SVG 1.1//EN"
 "http://www.w3.org/Graphics/SVG/1.1/DTD/svg11.dtd">
<!-- Generated by graphviz version 2.43.0 (0)
 -->
<!-- Title: src/http/http_rpc_context.h Pages: 1 -->
<!--zoomable 621 -->
<svg id="main" version="1.1" xmlns="http://www.w3.org/2000/svg" xmlns:xlink="http://www.w3.org/1999/xlink" xml:space="preserve" onload="init(evt)">
<style type="text/css"><![CDATA[
.edge:hover path { stroke: red; }
.edge:hover polygon { stroke: red; fill: red; }
]]></style>
<script type="text/javascript"><![CDATA[
var edges = document.getElementsByTagName('g');
if (edges && edges.length) {
  for (var i=0;i<edges.length;i++) {
    if (edges[i].id.substr(0,4)=='edge') {
      edges[i].setAttribute('class','edge');
    }
  }
}
]]></script>
        <defs>
                <circle id="rim" cx="0" cy="0" r="7"/>
                <circle id="rim2" cx="0" cy="0" r="3.5"/>
                <g id="zoomPlus">
                        <use xlink:href="#rim" fill="#404040">
                                <set attributeName="fill" to="#808080" begin="zoomplus.mouseover" end="zoomplus.mouseout"/>
                        </use>
                        <path d="M-4,0h8M0,-4v8" fill="none" stroke="white" stroke-width="1.5" pointer-events="none"/>
                </g>
                <g id="zoomMin">
                        <use xlink:href="#rim" fill="#404040">
                                <set attributeName="fill" to="#808080" begin="zoomminus.mouseover" end="zoomminus.mouseout"/>
                        </use>
                        <path d="M-4,0h8" fill="none" stroke="white" stroke-width="1.5" pointer-events="none"/>
                </g>
                <g id="dirArrow">
                        <path fill="none" stroke="white" stroke-width="1.5" d="M0,-3.0v7 M-2.5,-0.5L0,-3.0L2.5,-0.5"/>
                </g>
               <g id="resetDef">
                       <use xlink:href="#rim2" fill="#404040">
                               <set attributeName="fill" to="#808080" begin="reset.mouseover" end="reset.mouseout"/>
                       </use>
               </g>
        </defs>

<script type="text/javascript">
var viewWidth = 910;
var viewHeight = 621;
var sectionId = 'dynsection-1';
</script>
<script xlink:href="svgpan.js"/>
<svg id="graph" class="graph">
<g id="viewport">
<title>src/http/http_rpc_context.h</title>
<polygon fill="white" stroke="transparent" points="-4,4 -4,-617 906,-617 906,4 -4,4"/>
<!-- Node1 -->
<g id="node1" class="node">
<title>Node1</title>
<g id="a_node1"><a xlink:title=" ">
<polygon fill="#bfbfbf" stroke="black" points="400.5,-593.5 400.5,-612.5 547.5,-612.5 547.5,-593.5 400.5,-593.5"/>
<text text-anchor="middle" x="474" y="-600.5" font-family="Helvetica,sans-Serif" font-size="10.00">src/http/http_rpc_context.h</text>
</a>
</g>
</g>
<!-- Node2 -->
<g id="node2" class="node">
<title>Node2</title>
<g id="a_node2"><a xlink:href="http__endpoint_8h.html" target="_top" xlink:title=" ">
<polygon fill="white" stroke="black" points="253.5,-537.5 253.5,-556.5 386.5,-556.5 386.5,-537.5 253.5,-537.5"/>
<text text-anchor="middle" x="320" y="-544.5" font-family="Helvetica,sans-Serif" font-size="10.00">src/http/http_endpoint.h</text>
</a>
</g>
</g>
<!-- Node1&#45;&gt;Node2 -->
<g id="edge1" class="edge">
<title>Node1&#45;&gt;Node2</title>
<path fill="none" stroke="midnightblue" d="M439.89,-590.04C410.91,-579.88 370.04,-565.55 344.29,-556.52"/>
<polygon fill="midnightblue" stroke="midnightblue" points="439,-593.44 449.6,-593.44 441.32,-586.83 439,-593.44"/>
</g>
<!-- Node12 -->
<g id="node12" class="node">
<title>Node12</title>
<g id="a_node12"><a xlink:href="jwt__key__auto__refresh_8h.html" target="_top" xlink:title=" ">
<polygon fill="white" stroke="black" points="464.5,-235.5 464.5,-265.5 589.5,-265.5 589.5,-235.5 464.5,-235.5"/>
<text text-anchor="start" x="472.5" y="-253.5" font-family="Helvetica,sans-Serif" font-size="10.00">src/node/jwt_key_auto</text>
<text text-anchor="middle" x="527" y="-242.5" font-family="Helvetica,sans-Serif" font-size="10.00">_refresh.h</text>
</a>
</g>
</g>
<!-- Node1&#45;&gt;Node12 -->
<g id="edge24" class="edge">
<title>Node1&#45;&gt;Node12</title>
<path fill="none" stroke="midnightblue" d="M474,-583.25C474,-561.36 474,-524.05 474,-492 474,-492 474,-492 474,-372.5 474,-340.05 479.53,-331.53 493,-302 498.96,-288.92 508.19,-275.49 515.52,-265.77"/>
<polygon fill="midnightblue" stroke="midnightblue" points="470.5,-583.44 474,-593.44 477.5,-583.44 470.5,-583.44"/>
</g>
<!-- Node16 -->
<g id="node16" class="node">
<title>Node16</title>
<g id="a_node16"><a xlink:href="forwarder_8h.html" target="_top" xlink:title=" ">
<polygon fill="white" stroke="black" points="640,-425.5 640,-444.5 774,-444.5 774,-425.5 640,-425.5"/>
<text text-anchor="middle" x="707" y="-432.5" font-family="Helvetica,sans-Serif" font-size="10.00">src/node/rpc/forwarder.h</text>
</a>
</g>
</g>
<!-- Node1&#45;&gt;Node16 -->
<g id="edge25" class="edge">
<title>Node1&#45;&gt;Node16</title>
<path fill="none" stroke="midnightblue" d="M494.44,-587.44C541.68,-553.78 657.26,-471.44 694.92,-444.61"/>
<polygon fill="midnightblue" stroke="midnightblue" points="492.31,-584.66 486.2,-593.31 496.37,-590.36 492.31,-584.66"/>
</g>
<!-- Node3 -->
<g id="node3" class="node">
<title>Node3</title>
<g id="a_node3"><a xlink:href="rpc__sessions_8h.html" target="_top" xlink:title=" ">
<polygon fill="white" stroke="black" points="141,-481.5 141,-500.5 287,-500.5 287,-481.5 141,-481.5"/>
<text text-anchor="middle" x="214" y="-488.5" font-family="Helvetica,sans-Serif" font-size="10.00">src/enclave/rpc_sessions.h</text>
</a>
</g>
</g>
<!-- Node2&#45;&gt;Node3 -->
<g id="edge2" class="edge">
<title>Node2&#45;&gt;Node3</title>
<path fill="none" stroke="midnightblue" d="M293.94,-532.73C274.32,-522.73 247.97,-509.31 230.99,-500.65"/>
<polygon fill="midnightblue" stroke="midnightblue" points="292.47,-535.9 302.97,-537.32 295.65,-529.67 292.47,-535.9"/>
</g>
<!-- Node4 -->
<g id="node4" class="node">
<title>Node4</title>
<g id="a_node4"><a xlink:href="enclave_2enclave_8h.html" target="_top" xlink:title=" ">
<polygon fill="white" stroke="black" points="584,-56.5 584,-75.5 706,-75.5 706,-56.5 584,-56.5"/>
<text text-anchor="middle" x="645" y="-63.5" font-family="Helvetica,sans-Serif" font-size="10.00">src/enclave/enclave.h</text>
</a>
</g>
</g>
<!-- Node3&#45;&gt;Node4 -->
<g id="edge3" class="edge">
<title>Node3&#45;&gt;Node4</title>
<path fill="none" stroke="midnightblue" d="M133.62,-479.42C72.91,-466.38 0,-437.59 0,-374.5 0,-374.5 0,-374.5 0,-182.5 0,-123.56 422.74,-84.35 583.74,-71.56"/>
<polygon fill="midnightblue" stroke="midnightblue" points="133.14,-482.89 143.63,-481.45 134.53,-476.03 133.14,-482.89"/>
</g>
<!-- Node6 -->
<g id="node6" class="node">
<title>Node6</title>
<g id="a_node6"><a xlink:href="node__client_8h.html" target="_top" xlink:title=" ">
<polygon fill="white" stroke="black" points="151,-425.5 151,-444.5 277,-444.5 277,-425.5 151,-425.5"/>
<text text-anchor="middle" x="214" y="-432.5" font-family="Helvetica,sans-Serif" font-size="10.00">src/node/node_client.h</text>
</a>
</g>
</g>
<!-- Node3&#45;&gt;Node6 -->
<g id="edge5" class="edge">
<title>Node3&#45;&gt;Node6</title>
<path fill="none" stroke="midnightblue" d="M214,-470.8C214,-461.91 214,-451.78 214,-444.75"/>
<polygon fill="midnightblue" stroke="midnightblue" points="210.5,-471.08 214,-481.08 217.5,-471.08 210.5,-471.08"/>
</g>
<!-- Node9 -->
<g id="node9" class="node">
<title>Node9</title>
<g id="a_node9"><a xlink:href="node__state_8h.html" target="_top" xlink:title=" ">
<polygon fill="white" stroke="black" points="375,-174 375,-193 499,-193 499,-174 375,-174"/>
<text text-anchor="middle" x="437" y="-181" font-family="Helvetica,sans-Serif" font-size="10.00">src/node/node_state.h</text>
</a>
</g>
</g>
<!-- Node3&#45;&gt;Node9 -->
<g id="edge21" class="edge">
<title>Node3&#45;&gt;Node9</title>
<path fill="none" stroke="midnightblue" d="M297.29,-480.39C360.29,-467.93 436,-439.45 436,-374.5 436,-374.5 436,-374.5 436,-311 436,-266.64 436.62,-213.52 436.89,-193.09"/>
<polygon fill="midnightblue" stroke="midnightblue" points="296.49,-476.98 287.31,-482.25 297.78,-483.86 296.49,-476.98"/>
</g>
<!-- Node15 -->
<g id="node15" class="node">
<title>Node15</title>
<g id="a_node15"><a xlink:href="resharing_8h.html" target="_top" xlink:title=" ">
<polygon fill="white" stroke="black" points="41,-241 41,-260 157,-260 157,-241 41,-241"/>
<text text-anchor="middle" x="99" y="-248" font-family="Helvetica,sans-Serif" font-size="10.00">src/node/resharing.h</text>
</a>
</g>
</g>
<!-- Node3&#45;&gt;Node15 -->
<g id="edge22" class="edge">
<title>Node3&#45;&gt;Node15</title>
<path fill="none" stroke="midnightblue" d="M183.27,-477.05C151.19,-461.54 103.1,-432.14 85,-389 65.98,-343.64 86.4,-282.75 95.29,-260.3"/>
<polygon fill="midnightblue" stroke="midnightblue" points="182.11,-480.37 192.66,-481.41 185.06,-474.02 182.11,-480.37"/>
</g>
<!-- Node5 -->
<g id="node5" class="node">
<title>Node5</title>
<g id="a_node5"><a xlink:href="enclave_2main_8cpp.html" target="_top" xlink:title=" ">
<polygon fill="white" stroke="black" points="585,-0.5 585,-19.5 705,-19.5 705,-0.5 585,-0.5"/>
<text text-anchor="middle" x="645" y="-7.5" font-family="Helvetica,sans-Serif" font-size="10.00">src/enclave/main.cpp</text>
</a>
</g>
</g>
<!-- Node4&#45;&gt;Node5 -->
<g id="edge4" class="edge">
<title>Node4&#45;&gt;Node5</title>
<path fill="none" stroke="midnightblue" d="M645,-45.8C645,-36.91 645,-26.78 645,-19.75"/>
<polygon fill="midnightblue" stroke="midnightblue" points="641.5,-46.08 645,-56.08 648.5,-46.08 641.5,-46.08"/>
</g>
<!-- Node7 -->
<g id="node7" class="node">
<title>Node7</title>
<g id="a_node7"><a xlink:href="orc__requests_8h.html" target="_top" xlink:title=" ">
<polygon fill="white" stroke="black" points="288.5,-358.5 288.5,-388.5 407.5,-388.5 407.5,-358.5 288.5,-358.5"/>
<text text-anchor="start" x="296.5" y="-376.5" font-family="Helvetica,sans-Serif" font-size="10.00">src/consensus/aft/orc</text>
<text text-anchor="middle" x="348" y="-365.5" font-family="Helvetica,sans-Serif" font-size="10.00">_requests.h</text>
</a>
</g>
</g>
<!-- Node6&#45;&gt;Node7 -->
<g id="edge6" class="edge">
<title>Node6&#45;&gt;Node7</title>
<path fill="none" stroke="midnightblue" d="M242.53,-421.33C264.21,-411.7 294.02,-398.47 316.42,-388.52"/>
<polygon fill="midnightblue" stroke="midnightblue" points="240.92,-418.22 233.2,-425.48 243.76,-424.62 240.92,-418.22"/>
</g>
<!-- Node8 -->
<g id="node8" class="node">
<title>Node8</title>
<g id="a_node8"><a xlink:href="raft_8h.html" target="_top" xlink:title=" ">
<polygon fill="white" stroke="black" points="236.5,-302.5 236.5,-321.5 365.5,-321.5 365.5,-302.5 236.5,-302.5"/>
<text text-anchor="middle" x="301" y="-309.5" font-family="Helvetica,sans-Serif" font-size="10.00">src/consensus/aft/raft.h</text>
</a>
</g>
</g>
<!-- Node6&#45;&gt;Node8 -->
<g id="edge16" class="edge">
<title>Node6&#45;&gt;Node8</title>
<path fill="none" stroke="midnightblue" d="M226.16,-417.09C244.98,-390.91 280.5,-341.52 294.8,-321.62"/>
<polygon fill="midnightblue" stroke="midnightblue" points="223.25,-415.14 220.26,-425.3 228.94,-419.22 223.25,-415.14"/>
</g>
<!-- Node13 -->
<g id="node13" class="node">
<title>Node13</title>
<g id="a_node13"><a xlink:href="http__node__client_8h.html" target="_top" xlink:title=" ">
<polygon fill="white" stroke="black" points="224,-235.5 224,-265.5 334,-265.5 334,-235.5 224,-235.5"/>
<text text-anchor="start" x="232" y="-253.5" font-family="Helvetica,sans-Serif" font-size="10.00">src/node/http_node</text>
<text text-anchor="middle" x="279" y="-242.5" font-family="Helvetica,sans-Serif" font-size="10.00">_client.h</text>
</a>
</g>
</g>
<!-- Node6&#45;&gt;Node13 -->
<g id="edge17" class="edge">
<title>Node6&#45;&gt;Node13</title>
<path fill="none" stroke="midnightblue" d="M142.67,-422.27C124.13,-415.64 106.23,-405.25 95,-389 87.17,-377.66 88.12,-369.94 95,-358 123.21,-309.08 183.42,-280.59 227.31,-265.59"/>
<polygon fill="midnightblue" stroke="midnightblue" points="141.8,-425.67 152.4,-425.42 143.96,-419.01 141.8,-425.67"/>
</g>
<!-- Node14 -->
<g id="node14" class="node">
<title>Node14</title>
<g id="a_node14"><a xlink:href="retired__nodes__cleanup_8h.html" target="_top" xlink:title=" ">
<polygon fill="white" stroke="black" points="104,-358.5 104,-388.5 232,-388.5 232,-358.5 104,-358.5"/>
<text text-anchor="start" x="112" y="-376.5" font-family="Helvetica,sans-Serif" font-size="10.00">src/node/retired_nodes</text>
<text text-anchor="middle" x="168" y="-365.5" font-family="Helvetica,sans-Serif" font-size="10.00">_cleanup.h</text>
</a>
</g>
</g>
<!-- Node6&#45;&gt;Node14 -->
<g id="edge19" class="edge">
<title>Node6&#45;&gt;Node14</title>
<path fill="none" stroke="midnightblue" d="M201.27,-417.53C194.22,-408.42 185.56,-397.21 178.84,-388.52"/>
<polygon fill="midnightblue" stroke="midnightblue" points="198.52,-419.7 207.41,-425.48 204.06,-415.42 198.52,-419.7"/>
</g>
<!-- Node7&#45;&gt;Node8 -->
<g id="edge7" class="edge">
<title>Node7&#45;&gt;Node8</title>
<path fill="none" stroke="midnightblue" d="M330.55,-350.4C322.65,-340.41 313.78,-329.18 307.84,-321.66"/>
<polygon fill="midnightblue" stroke="midnightblue" points="327.92,-352.72 336.86,-358.4 333.41,-348.38 327.92,-352.72"/>
</g>
<!-- Node11 -->
<g id="node11" class="node">
<title>Node11</title>
<g id="a_node11"><a xlink:href="node__frontend_8h.html" target="_top" xlink:title=" ">
<polygon fill="white" stroke="black" points="502,-302.5 502,-321.5 660,-321.5 660,-302.5 502,-302.5"/>
<text text-anchor="middle" x="581" y="-309.5" font-family="Helvetica,sans-Serif" font-size="10.00">src/node/rpc/node_frontend.h</text>
</a>
</g>
</g>
<!-- Node7&#45;&gt;Node11 -->
<g id="edge12" class="edge">
<title>Node7&#45;&gt;Node11</title>
<path fill="none" stroke="midnightblue" d="M412.64,-355.99C456.47,-344.8 512.6,-330.47 547.69,-321.51"/>
<polygon fill="midnightblue" stroke="midnightblue" points="411.75,-352.61 402.92,-358.47 413.48,-359.39 411.75,-352.61"/>
</g>
<!-- Node8&#45;&gt;Node9 -->
<g id="edge8" class="edge">
<title>Node8&#45;&gt;Node9</title>
<path fill="none" stroke="midnightblue" d="M318.01,-295.17C346.97,-268.24 404.91,-214.35 427.59,-193.26"/>
<polygon fill="midnightblue" stroke="midnightblue" points="315.29,-292.93 310.35,-302.31 320.05,-298.06 315.29,-292.93"/>
</g>
<!-- Node9&#45;&gt;Node4 -->
<g id="edge9" class="edge">
<title>Node9&#45;&gt;Node4</title>
<path fill="none" stroke="midnightblue" d="M438.82,-163.38C441.35,-147.4 447.43,-125.18 462,-112 494.99,-82.14 544.58,-71.31 583.81,-67.71"/>
<polygon fill="midnightblue" stroke="midnightblue" points="435.29,-163.33 437.52,-173.69 442.24,-164.2 435.29,-163.33"/>
</g>
<!-- Node10 -->
<g id="node10" class="node">
<title>Node10</title>
<g id="a_node10"><a xlink:href="gov__effects_8h.html" target="_top" xlink:title=" ">
<polygon fill="white" stroke="black" points="471,-112.5 471,-131.5 615,-131.5 615,-112.5 471,-112.5"/>
<text text-anchor="middle" x="543" y="-119.5" font-family="Helvetica,sans-Serif" font-size="10.00">src/node/rpc/gov_effects.h</text>
</a>
</g>
</g>
<!-- Node9&#45;&gt;Node10 -->
<g id="edge10" class="edge">
<title>Node9&#45;&gt;Node10</title>
<path fill="none" stroke="midnightblue" d="M460.95,-169.06C481.46,-157.54 510.38,-141.31 527.84,-131.51"/>
<polygon fill="midnightblue" stroke="midnightblue" points="459.19,-166.03 452.19,-173.98 462.62,-172.13 459.19,-166.03"/>
</g>
<!-- Node10&#45;&gt;Node4 -->
<g id="edge11" class="edge">
<title>Node10&#45;&gt;Node4</title>
<path fill="none" stroke="midnightblue" d="M568.33,-107.59C587.19,-97.61 612.38,-84.27 628.65,-75.65"/>
<polygon fill="midnightblue" stroke="midnightblue" points="566.59,-104.55 559.39,-112.32 569.86,-110.74 566.59,-104.55"/>
</g>
<!-- Node11&#45;&gt;Node4 -->
<g id="edge13" class="edge">
<title>Node11&#45;&gt;Node4</title>
<path fill="none" stroke="midnightblue" d="M588.96,-292.95C592.35,-284.82 596.17,-275.03 599,-266 621.6,-193.93 638.44,-104.03 643.46,-75.86"/>
<polygon fill="midnightblue" stroke="midnightblue" points="585.72,-291.61 585,-302.18 592.15,-294.37 585.72,-291.61"/>
</g>
<!-- Node11&#45;&gt;Node12 -->
<g id="edge14" class="edge">
<title>Node11&#45;&gt;Node12</title>
<path fill="none" stroke="midnightblue" d="M566.31,-294.81C557.99,-285.65 547.7,-274.3 539.73,-265.52"/>
<polygon fill="midnightblue" stroke="midnightblue" points="563.95,-297.42 573.26,-302.48 569.13,-292.72 563.95,-297.42"/>
</g>
<!-- Node12&#45;&gt;Node9 -->
<g id="edge15" class="edge">
<title>Node12&#45;&gt;Node9</title>
<path fill="none" stroke="midnightblue" d="M499.04,-229.31C482.14,-217.1 461.48,-202.18 448.78,-193.01"/>
<polygon fill="midnightblue" stroke="midnightblue" points="497.32,-232.38 507.47,-235.4 501.41,-226.7 497.32,-232.38"/>
</g>
<!-- Node13&#45;&gt;Node9 -->
<g id="edge18" class="edge">
<title>Node13&#45;&gt;Node9</title>
<path fill="none" stroke="midnightblue" d="M322.85,-231.46C353.38,-218.9 392.7,-202.72 416.32,-193.01"/>
<polygon fill="midnightblue" stroke="midnightblue" points="321.2,-228.35 313.28,-235.4 323.86,-234.83 321.2,-228.35"/>
</g>
<!-- Node14&#45;&gt;Node8 -->
<g id="edge20" class="edge">
<title>Node14&#45;&gt;Node8</title>
<path fill="none" stroke="midnightblue" d="M208.84,-354.23C233.06,-343.39 262.64,-330.16 281.65,-321.66"/>
<polygon fill="midnightblue" stroke="midnightblue" points="207.22,-351.12 199.52,-358.4 210.08,-357.51 207.22,-351.12"/>
</g>
<!-- Node15&#45;&gt;Node9 -->
<g id="edge23" class="edge">
<title>Node15&#45;&gt;Node9</title>
<path fill="none" stroke="midnightblue" d="M153.41,-239.04C219.89,-226.25 331.09,-204.87 392.64,-193.03"/>
<polygon fill="midnightblue" stroke="midnightblue" points="152.69,-235.61 143.54,-240.94 154.02,-242.48 152.69,-235.61"/>
</g>
<!-- Node16&#45;&gt;Node4 -->
<g id="edge26" class="edge">
<title>Node16&#45;&gt;Node4</title>
<path fill="none" stroke="midnightblue" d="M766.79,-423.09C824.12,-408.77 902,-377.46 902,-313 902,-313 902,-313 902,-182.5 902,-97.02 782.25,-74.42 706.23,-68.69"/>
<polygon fill="midnightblue" stroke="midnightblue" points="765.63,-419.77 756.71,-425.49 767.25,-426.58 765.63,-419.77"/>
</g>
<!-- Node17 -->
<g id="node17" class="node">
<title>Node17</title>
<g id="a_node17"><a xlink:href="frontend_8h.html" target="_top" xlink:title=" ">
<polygon fill="white" stroke="black" points="642.5,-364 642.5,-383 771.5,-383 771.5,-364 642.5,-364"/>
<text text-anchor="middle" x="707" y="-371" font-family="Helvetica,sans-Serif" font-size="10.00">src/node/rpc/frontend.h</text>
</a>
</g>
</g>
<!-- Node16&#45;&gt;Node17 -->
<g id="edge27" class="edge">
<title>Node16&#45;&gt;Node17</title>
<path fill="none" stroke="midnightblue" d="M707,-415.32C707,-404.5 707,-391.4 707,-383.01"/>
<polygon fill="midnightblue" stroke="midnightblue" points="703.5,-415.48 707,-425.48 710.5,-415.48 703.5,-415.48"/>
</g>
<!-- Node17&#45;&gt;Node9 -->
<g id="edge28" class="edge">
<title>Node17&#45;&gt;Node9</title>
<path fill="none" stroke="midnightblue" d="M699.08,-354.2C692.23,-339.39 681.47,-318.38 669,-302 642.91,-267.74 636.09,-256.88 599,-235 563.09,-213.82 517.39,-200.63 483.68,-193.06"/>
<polygon fill="midnightblue" stroke="midnightblue" points="696.07,-356.04 703.35,-363.74 702.46,-353.18 696.07,-356.04"/>
</g>
<!-- Node17&#45;&gt;Node11 -->
<g id="edge31" class="edge">
<title>Node17&#45;&gt;Node11</title>
<path fill="none" stroke="midnightblue" d="M679.84,-359.67C655.39,-348.13 620.15,-331.49 599.02,-321.51"/>
<polygon fill="midnightblue" stroke="midnightblue" points="678.41,-362.87 688.95,-363.98 681.4,-356.54 678.41,-362.87"/>
</g>
<!-- Node18 -->
<g id="node18" class="node">
<title>Node18</title>
<g id="a_node18"><a xlink:href="member__frontend_8h.html" target="_top" xlink:title=" ">
<polygon fill="white" stroke="black" points="754,-168.5 754,-198.5 874,-198.5 874,-168.5 754,-168.5"/>
<text text-anchor="start" x="762" y="-186.5" font-family="Helvetica,sans-Serif" font-size="10.00">src/node/rpc/member</text>
<text text-anchor="middle" x="814" y="-175.5" font-family="Helvetica,sans-Serif" font-size="10.00">_frontend.h</text>
</a>
</g>
</g>
<!-- Node17&#45;&gt;Node18 -->
<g id="edge29" class="edge">
<title>Node17&#45;&gt;Node18</title>
<path fill="none" stroke="midnightblue" d="M718.7,-355.39C725.18,-345.71 733.27,-333.33 740,-322 766.18,-277.96 794.04,-224 806.83,-198.77"/>
<polygon fill="midnightblue" stroke="midnightblue" points="715.78,-353.46 713.07,-363.71 721.58,-357.38 715.78,-353.46"/>
</g>
<!-- Node19 -->
<g id="node19" class="node">
<title>Node19</title>
<g id="a_node19"><a xlink:href="user__frontend_8h.html" target="_top" xlink:title=" ">
<polygon fill="white" stroke="black" points="673.5,-112.5 673.5,-131.5 828.5,-131.5 828.5,-112.5 673.5,-112.5"/>
<text text-anchor="middle" x="751" y="-119.5" font-family="Helvetica,sans-Serif" font-size="10.00">src/node/rpc/user_frontend.h</text>
</a>
</g>
</g>
<!-- Node17&#45;&gt;Node19 -->
<g id="edge32" class="edge">
<title>Node17&#45;&gt;Node19</title>
<path fill="none" stroke="midnightblue" d="M710.29,-353.84C719.14,-303.64 743.22,-167.1 749.49,-131.55"/>
<polygon fill="midnightblue" stroke="midnightblue" points="706.8,-353.46 708.51,-363.91 713.7,-354.67 706.8,-353.46"/>
</g>
<!-- Node18&#45;&gt;Node4 -->
<g id="edge30" class="edge">
<title>Node18&#45;&gt;Node4</title>
<path fill="none" stroke="midnightblue" d="M831.95,-159.84C841.4,-144.99 848.98,-125.84 838,-112 821.69,-91.45 756.32,-79.42 706.13,-73.04"/>
<polygon fill="midnightblue" stroke="midnightblue" points="828.8,-158.23 825.97,-168.44 834.55,-162.23 828.8,-158.23"/>
</g>
<!-- Node19&#45;&gt;Node4 -->
<g id="edge33" class="edge">
<title>Node19&#45;&gt;Node4</title>
<path fill="none" stroke="midnightblue" d="M724.94,-107.73C705.32,-97.73 678.97,-84.31 661.99,-75.65"/>
<polygon fill="midnightblue" stroke="midnightblue" points="723.47,-110.9 733.97,-112.32 726.65,-104.67 723.47,-110.9"/>
</g>
</g>
</svg>
        <g id="navigator" transform="translate(0 0)" fill="#404254">
                <rect fill="#f2f5e9" fill-opacity="0.5" stroke="#606060" stroke-width=".5" x="0" y="0" width="60" height="60"/>
                <use id="zoomplus" xlink:href="#zoomPlus" x="17" y="9" onmousedown="handleZoom(evt,'in')"/>
                <use id="zoomminus" xlink:href="#zoomMin" x="42" y="9" onmousedown="handleZoom(evt,'out')"/>
                <use id="reset" xlink:href="#resetDef" x="30" y="36" onmousedown="handleReset()"/>
                <g id="arrowUp" xlink:href="#dirArrow" transform="translate(30 24)" onmousedown="handlePan(0,-1)">
                  <use xlink:href="#rim" fill="#404040">
                        <set attributeName="fill" to="#808080" begin="arrowUp.mouseover" end="arrowUp.mouseout"/>
                  </use>
                  <path fill="none" stroke="white" stroke-width="1.5" d="M0,-3.0v7 M-2.5,-0.5L0,-3.0L2.5,-0.5"/>
                </g>
                <g id="arrowRight" xlink:href="#dirArrow" transform="rotate(90) translate(36 -43)" onmousedown="handlePan(1,0)">
                  <use xlink:href="#rim" fill="#404040">
                        <set attributeName="fill" to="#808080" begin="arrowRight.mouseover" end="arrowRight.mouseout"/>
                  </use>
                  <path fill="none" stroke="white" stroke-width="1.5" d="M0,-3.0v7 M-2.5,-0.5L0,-3.0L2.5,-0.5"/>
                </g>
                <g id="arrowDown" xlink:href="#dirArrow" transform="rotate(180) translate(-30 -48)" onmousedown="handlePan(0,1)">
                  <use xlink:href="#rim" fill="#404040">
                        <set attributeName="fill" to="#808080" begin="arrowDown.mouseover" end="arrowDown.mouseout"/>
                  </use>
                  <path fill="none" stroke="white" stroke-width="1.5" d="M0,-3.0v7 M-2.5,-0.5L0,-3.0L2.5,-0.5"/>
                </g>
                <g id="arrowLeft" xlink:href="#dirArrow" transform="rotate(270) translate(-36 17)" onmousedown="handlePan(-1,0)">
                  <use xlink:href="#rim" fill="#404040">
                        <set attributeName="fill" to="#808080" begin="arrowLeft.mouseover" end="arrowLeft.mouseout"/>
                  </use>
                  <path fill="none" stroke="white" stroke-width="1.5" d="M0,-3.0v7 M-2.5,-0.5L0,-3.0L2.5,-0.5"/>
                </g>
        </g>
        <svg viewBox="0 0 15 15" width="100%" height="30px" preserveAspectRatio="xMaxYMin meet">
         <g id="arrow_out" transform="scale(0.3 0.3)">
          <a xlink:href="http__rpc__context_8h__dep__incl_org.svg" target="_base">
           <rect id="button" ry="5" rx="5" y="6" x="6" height="38" width="38"
                fill="#f2f5e9" fill-opacity="0.5" stroke="#606060" stroke-width="1.0"/>
           <path id="arrow"
             d="M 11.500037,31.436501 C 11.940474,20.09759 22.043105,11.32322 32.158766,21.979434 L 37.068811,17.246167 C 37.068811,17.246167 37.088388,32 37.088388,32 L 22.160133,31.978069 C 22.160133,31.978069 26.997745,27.140456 26.997745,27.140456 C 18.528582,18.264221 13.291696,25.230495 11.500037,31.436501 z"
             style="fill:#404040;"/>
          </a>
         </g>
        </svg>
</svg>
