<?xml version="1.0" encoding="UTF-8" standalone="no"?>
<!DOCTYPE svg PUBLIC "-//W3C//DTD SVG 1.1//EN"
 "http://www.w3.org/Graphics/SVG/1.1/DTD/svg11.dtd">
<!-- Generated by graphviz version 2.43.0 (0)
 -->
<!-- Title: include/ccf/crypto/rsa_key_pair.h Pages: 1 -->
<svg width="1487pt" height="408pt"
 viewBox="0.00 0.00 1486.50 408.00" xmlns="http://www.w3.org/2000/svg" xmlns:xlink="http://www.w3.org/1999/xlink">
<g id="graph0" class="graph" transform="scale(1 1) rotate(0) translate(4 404)">
<title>include/ccf/crypto/rsa_key_pair.h</title>
<polygon fill="white" stroke="transparent" points="-4,4 -4,-404 1482.5,-404 1482.5,4 -4,4"/>
<!-- Node1 -->
<g id="node1" class="node">
<title>Node1</title>
<g id="a_node1"><a xlink:title=" ">
<polygon fill="#bfbfbf" stroke="black" points="539.5,-369.5 539.5,-399.5 642.5,-399.5 642.5,-369.5 539.5,-369.5"/>
<text text-anchor="start" x="547.5" y="-387.5" font-family="Helvetica,sans-Serif" font-size="10.00">include/ccf/crypto</text>
<text text-anchor="middle" x="591" y="-376.5" font-family="Helvetica,sans-Serif" font-size="10.00">/rsa_key_pair.h</text>
</a>
</g>
</g>
<!-- Node2 -->
<g id="node2" class="node">
<title>Node2</title>
<g id="a_node2"><a xlink:href="key__wrap_8h.html" target="_top" xlink:title=" ">
<polygon fill="white" stroke="black" points="413.5,-302.5 413.5,-332.5 516.5,-332.5 516.5,-302.5 413.5,-302.5"/>
<text text-anchor="start" x="421.5" y="-320.5" font-family="Helvetica,sans-Serif" font-size="10.00">include/ccf/crypto</text>
<text text-anchor="middle" x="465" y="-309.5" font-family="Helvetica,sans-Serif" font-size="10.00">/key_wrap.h</text>
</a>
</g>
</g>
<!-- Node1&#45;&gt;Node2 -->
<g id="edge1" class="edge">
<title>Node1&#45;&gt;Node2</title>
<path fill="none" stroke="midnightblue" d="M554.58,-364.71C534.71,-354.46 510.52,-341.98 492.29,-332.58"/>
<polygon fill="midnightblue" stroke="midnightblue" points="553.17,-367.92 563.66,-369.4 556.38,-361.7 553.17,-367.92"/>
</g>
<!-- Node3 -->
<g id="node3" class="node">
<title>Node3</title>
<g id="a_node3"><a xlink:href="js__generic__base_8cpp.html" target="_top" xlink:title=" ">
<polygon fill="white" stroke="black" points="0,-235.5 0,-265.5 118,-265.5 118,-235.5 0,-235.5"/>
<text text-anchor="start" x="8" y="-253.5" font-family="Helvetica,sans-Serif" font-size="10.00">src/apps/js_generic</text>
<text text-anchor="middle" x="59" y="-242.5" font-family="Helvetica,sans-Serif" font-size="10.00">/js_generic_base.cpp</text>
</a>
</g>
</g>
<!-- Node1&#45;&gt;Node3 -->
<g id="edge14" class="edge">
<title>Node1&#45;&gt;Node3</title>
<path fill="none" stroke="midnightblue" d="M529.53,-376.49C467.84,-368.71 370.4,-354.35 288,-333 216.92,-314.58 136.67,-283.55 92.56,-265.56"/>
<polygon fill="midnightblue" stroke="midnightblue" points="529.14,-379.97 539.49,-377.73 530,-373.03 529.14,-379.97"/>
</g>
<!-- Node4 -->
<g id="node4" class="node">
<title>Node4</title>
<g id="a_node4"><a xlink:href="js__v8__base_8cpp.html" target="_top" xlink:title=" ">
<polygon fill="white" stroke="black" points="136,-235.5 136,-265.5 250,-265.5 250,-235.5 136,-235.5"/>
<text text-anchor="start" x="144" y="-253.5" font-family="Helvetica,sans-Serif" font-size="10.00">src/apps/js_v8/js_v8</text>
<text text-anchor="middle" x="193" y="-242.5" font-family="Helvetica,sans-Serif" font-size="10.00">_base.cpp</text>
</a>
</g>
</g>
<!-- Node1&#45;&gt;Node4 -->
<g id="edge15" class="edge">
<title>Node1&#45;&gt;Node4</title>
<path fill="none" stroke="midnightblue" d="M529.27,-373.66C483.02,-365.36 418.59,-351.81 364,-333 310.05,-314.41 250.69,-283.58 218.02,-265.65"/>
<polygon fill="midnightblue" stroke="midnightblue" points="528.69,-377.11 539.15,-375.41 529.91,-370.22 528.69,-377.11"/>
</g>
<!-- Node5 -->
<g id="node5" class="node">
<title>Node5</title>
<g id="a_node5"><a xlink:href="ccf__global_8cpp.html" target="_top" xlink:title=" ">
<polygon fill="white" stroke="black" points="268.5,-235.5 268.5,-265.5 379.5,-265.5 379.5,-235.5 268.5,-235.5"/>
<text text-anchor="start" x="276.5" y="-253.5" font-family="Helvetica,sans-Serif" font-size="10.00">src/apps/js_v8/tmpl</text>
<text text-anchor="middle" x="324" y="-242.5" font-family="Helvetica,sans-Serif" font-size="10.00">/ccf_global.cpp</text>
</a>
</g>
</g>
<!-- Node1&#45;&gt;Node5 -->
<g id="edge16" class="edge">
<title>Node1&#45;&gt;Node5</title>
<path fill="none" stroke="midnightblue" d="M529.41,-375.31C491.31,-368.26 442.5,-355.52 404,-333 374.05,-315.48 347.66,-283.83 333.96,-265.55"/>
<polygon fill="midnightblue" stroke="midnightblue" points="528.89,-378.77 539.35,-377.07 530.11,-371.88 528.89,-378.77"/>
</g>
<!-- Node6 -->
<g id="node6" class="node">
<title>Node6</title>
<g id="a_node6"><a xlink:href="key__wrap_8cpp.html" target="_top" xlink:title=" ">
<polygon fill="white" stroke="black" points="398,-241 398,-260 532,-260 532,-241 398,-241"/>
<text text-anchor="middle" x="465" y="-248" font-family="Helvetica,sans-Serif" font-size="10.00">src/crypto/key_wrap.cpp</text>
</a>
</g>
</g>
<!-- Node1&#45;&gt;Node6 -->
<g id="edge18" class="edge">
<title>Node1&#45;&gt;Node6</title>
<path fill="none" stroke="midnightblue" d="M574.68,-361.07C561.93,-344.13 543.35,-320.7 525,-302 509.36,-286.06 489.14,-269.82 476.62,-260.2"/>
<polygon fill="midnightblue" stroke="midnightblue" points="572,-363.34 580.78,-369.27 577.62,-359.16 572,-363.34"/>
</g>
<!-- Node7 -->
<g id="node7" class="node">
<title>Node7</title>
<g id="a_node7"><a xlink:href="js_2crypto_8cpp.html" target="_top" xlink:title=" ">
<polygon fill="white" stroke="black" points="550,-241 550,-260 646,-260 646,-241 550,-241"/>
<text text-anchor="middle" x="598" y="-248" font-family="Helvetica,sans-Serif" font-size="10.00">src/js/crypto.cpp</text>
</a>
</g>
</g>
<!-- Node1&#45;&gt;Node7 -->
<g id="edge25" class="edge">
<title>Node1&#45;&gt;Node7</title>
<path fill="none" stroke="midnightblue" d="M592.28,-359.32C593.87,-329.38 596.49,-279.91 597.54,-260.1"/>
<polygon fill="midnightblue" stroke="midnightblue" points="588.78,-359.2 591.75,-369.37 595.77,-359.57 588.78,-359.2"/>
</g>
<!-- Node9 -->
<g id="node9" class="node">
<title>Node9</title>
<g id="a_node9"><a xlink:href="secret__broadcast_8h.html" target="_top" xlink:title=" ">
<polygon fill="white" stroke="black" points="664.5,-241 664.5,-260 817.5,-260 817.5,-241 664.5,-241"/>
<text text-anchor="middle" x="741" y="-248" font-family="Helvetica,sans-Serif" font-size="10.00">src/node/secret_broadcast.h</text>
</a>
</g>
</g>
<!-- Node1&#45;&gt;Node9 -->
<g id="edge26" class="edge">
<title>Node1&#45;&gt;Node9</title>
<path fill="none" stroke="midnightblue" d="M604.59,-360.95C615.96,-343.38 633.44,-319.18 653,-302 673.78,-283.75 702.17,-268.89 721.02,-260.13"/>
<polygon fill="midnightblue" stroke="midnightblue" points="601.6,-359.13 599.22,-369.45 607.52,-362.86 601.6,-359.13"/>
</g>
<!-- Node14 -->
<g id="node14" class="node">
<title>Node14</title>
<g id="a_node14"><a xlink:href="apps_2js__v8_2tmpl_2crypto_8cpp.html" target="_top" xlink:title=" ">
<polygon fill="white" stroke="black" points="695.5,-302.5 695.5,-332.5 806.5,-332.5 806.5,-302.5 695.5,-302.5"/>
<text text-anchor="start" x="703.5" y="-320.5" font-family="Helvetica,sans-Serif" font-size="10.00">src/apps/js_v8/tmpl</text>
<text text-anchor="middle" x="751" y="-309.5" font-family="Helvetica,sans-Serif" font-size="10.00">/crypto.cpp</text>
</a>
</g>
</g>
<!-- Node1&#45;&gt;Node14 -->
<g id="edge17" class="edge">
<title>Node1&#45;&gt;Node14</title>
<path fill="none" stroke="midnightblue" d="M635.2,-365.54C660.8,-355.14 692.57,-342.24 716.35,-332.58"/>
<polygon fill="midnightblue" stroke="midnightblue" points="633.66,-362.39 625.72,-369.4 636.3,-368.87 633.66,-362.39"/>
</g>
<!-- Node15 -->
<g id="node15" class="node">
<title>Node15</title>
<g id="a_node15"><a xlink:href="src_2crypto_2openssl_2rsa__key__pair_8h.html" target="_top" xlink:title=" ">
<polygon fill="white" stroke="black" points="1064.5,-302.5 1064.5,-332.5 1169.5,-332.5 1169.5,-302.5 1064.5,-302.5"/>
<text text-anchor="start" x="1072.5" y="-320.5" font-family="Helvetica,sans-Serif" font-size="10.00">src/crypto/openssl</text>
<text text-anchor="middle" x="1117" y="-309.5" font-family="Helvetica,sans-Serif" font-size="10.00">/rsa_key_pair.h</text>
</a>
</g>
</g>
<!-- Node1&#45;&gt;Node15 -->
<g id="edge19" class="edge">
<title>Node1&#45;&gt;Node15</title>
<path fill="none" stroke="midnightblue" d="M652.95,-375.84C757.36,-362.94 966.55,-337.09 1064.35,-325.01"/>
<polygon fill="midnightblue" stroke="midnightblue" points="652.37,-372.39 642.87,-377.09 653.23,-379.34 652.37,-372.39"/>
</g>
<!-- Node20 -->
<g id="node20" class="node">
<title>Node20</title>
<g id="a_node20"><a xlink:href="symmetric__key_8cpp.html" target="_top" xlink:title=" ">
<polygon fill="white" stroke="black" points="1188,-302.5 1188,-332.5 1308,-332.5 1308,-302.5 1188,-302.5"/>
<text text-anchor="start" x="1196" y="-320.5" font-family="Helvetica,sans-Serif" font-size="10.00">src/crypto/symmetric</text>
<text text-anchor="middle" x="1248" y="-309.5" font-family="Helvetica,sans-Serif" font-size="10.00">_key.cpp</text>
</a>
</g>
</g>
<!-- Node1&#45;&gt;Node20 -->
<g id="edge24" class="edge">
<title>Node1&#45;&gt;Node20</title>
<path fill="none" stroke="midnightblue" d="M652.78,-380.67C760.22,-375.19 988.26,-361.13 1179,-333 1181.91,-332.57 1184.87,-332.1 1187.87,-331.59"/>
<polygon fill="midnightblue" stroke="midnightblue" points="652.57,-377.17 642.76,-381.17 652.92,-384.16 652.57,-377.17"/>
</g>
<!-- Node21 -->
<g id="node21" class="node">
<title>Node21</title>
<g id="a_node21"><a xlink:href="share__manager_8h.html" target="_top" xlink:title=" ">
<polygon fill="white" stroke="black" points="835.5,-241 835.5,-260 980.5,-260 980.5,-241 835.5,-241"/>
<text text-anchor="middle" x="908" y="-248" font-family="Helvetica,sans-Serif" font-size="10.00">src/node/share_manager.h</text>
</a>
</g>
</g>
<!-- Node1&#45;&gt;Node21 -->
<g id="edge27" class="edge">
<title>Node1&#45;&gt;Node21</title>
<path fill="none" stroke="midnightblue" d="M617.05,-362.96C628.26,-353.94 641.43,-343.13 653,-333 668.14,-319.75 668.23,-311.45 686,-302 701.7,-293.65 805.08,-272.07 865.07,-260"/>
<polygon fill="midnightblue" stroke="midnightblue" points="614.54,-360.48 608.91,-369.46 618.91,-365.95 614.54,-360.48"/>
</g>
<!-- Node2&#45;&gt;Node3 -->
<g id="edge2" class="edge">
<title>Node2&#45;&gt;Node3</title>
<path fill="none" stroke="midnightblue" d="M403.2,-308.43C335.29,-299.3 223.07,-283.4 127,-266 124.15,-265.48 121.24,-264.94 118.3,-264.37"/>
<polygon fill="midnightblue" stroke="midnightblue" points="402.92,-311.93 413.3,-309.79 403.85,-304.99 402.92,-311.93"/>
</g>
<!-- Node2&#45;&gt;Node4 -->
<g id="edge3" class="edge">
<title>Node2&#45;&gt;Node4</title>
<path fill="none" stroke="midnightblue" d="M403.36,-301.77C357.41,-290.79 295.11,-275.9 250.25,-265.18"/>
<polygon fill="midnightblue" stroke="midnightblue" points="402.66,-305.2 413.2,-304.12 404.29,-298.39 402.66,-305.2"/>
</g>
<!-- Node2&#45;&gt;Node5 -->
<g id="edge4" class="edge">
<title>Node2&#45;&gt;Node5</title>
<path fill="none" stroke="midnightblue" d="M425.15,-298.13C402.75,-287.8 375.22,-275.11 354.54,-265.58"/>
<polygon fill="midnightblue" stroke="midnightblue" points="423.86,-301.39 434.41,-302.4 426.79,-295.03 423.86,-301.39"/>
</g>
<!-- Node2&#45;&gt;Node6 -->
<g id="edge5" class="edge">
<title>Node2&#45;&gt;Node6</title>
<path fill="none" stroke="midnightblue" d="M465,-292.25C465,-281.02 465,-268.38 465,-260.19"/>
<polygon fill="midnightblue" stroke="midnightblue" points="461.5,-292.4 465,-302.4 468.5,-292.4 461.5,-292.4"/>
</g>
<!-- Node2&#45;&gt;Node7 -->
<g id="edge6" class="edge">
<title>Node2&#45;&gt;Node7</title>
<path fill="none" stroke="midnightblue" d="M502.92,-297.97C528.47,-285.48 560.97,-269.6 580.59,-260.01"/>
<polygon fill="midnightblue" stroke="midnightblue" points="501.31,-294.86 493.86,-302.4 504.38,-301.15 501.31,-294.86"/>
</g>
<!-- Node2&#45;&gt;Node9 -->
<g id="edge8" class="edge">
<title>Node2&#45;&gt;Node9</title>
<path fill="none" stroke="midnightblue" d="M526.52,-302.01C581.21,-289.13 659.32,-270.74 704.63,-260.07"/>
<polygon fill="midnightblue" stroke="midnightblue" points="525.52,-298.65 516.59,-304.35 527.13,-305.46 525.52,-298.65"/>
</g>
<!-- Node8 -->
<g id="node8" class="node">
<title>Node8</title>
<g id="a_node8"><a xlink:href="wrap_8cpp.html" target="_top" xlink:title=" ">
<polygon fill="white" stroke="black" points="553.5,-179.5 553.5,-198.5 642.5,-198.5 642.5,-179.5 553.5,-179.5"/>
<text text-anchor="middle" x="598" y="-186.5" font-family="Helvetica,sans-Serif" font-size="10.00">src/js/wrap.cpp</text>
</a>
</g>
</g>
<!-- Node7&#45;&gt;Node8 -->
<g id="edge7" class="edge">
<title>Node7&#45;&gt;Node8</title>
<path fill="none" stroke="midnightblue" d="M598,-230.82C598,-220 598,-206.9 598,-198.51"/>
<polygon fill="midnightblue" stroke="midnightblue" points="594.5,-230.98 598,-240.98 601.5,-230.98 594.5,-230.98"/>
</g>
<!-- Node10 -->
<g id="node10" class="node">
<title>Node10</title>
<g id="a_node10"><a xlink:href="node__state_8h.html" target="_top" xlink:title=" ">
<polygon fill="white" stroke="black" points="717,-179.5 717,-198.5 841,-198.5 841,-179.5 717,-179.5"/>
<text text-anchor="middle" x="779" y="-186.5" font-family="Helvetica,sans-Serif" font-size="10.00">src/node/node_state.h</text>
</a>
</g>
</g>
<!-- Node9&#45;&gt;Node10 -->
<g id="edge9" class="edge">
<title>Node9&#45;&gt;Node10</title>
<path fill="none" stroke="midnightblue" d="M751.85,-232.51C758.95,-221.39 767.93,-207.34 773.57,-198.51"/>
<polygon fill="midnightblue" stroke="midnightblue" points="748.88,-230.66 746.44,-240.98 754.78,-234.43 748.88,-230.66"/>
</g>
<!-- Node11 -->
<g id="node11" class="node">
<title>Node11</title>
<g id="a_node11"><a xlink:href="enclave_2enclave_8h.html" target="_top" xlink:title=" ">
<polygon fill="white" stroke="black" points="759,-56.5 759,-75.5 881,-75.5 881,-56.5 759,-56.5"/>
<text text-anchor="middle" x="820" y="-63.5" font-family="Helvetica,sans-Serif" font-size="10.00">src/enclave/enclave.h</text>
</a>
</g>
</g>
<!-- Node10&#45;&gt;Node11 -->
<g id="edge10" class="edge">
<title>Node10&#45;&gt;Node11</title>
<path fill="none" stroke="midnightblue" d="M788.69,-170.37C792.89,-162.21 797.61,-152.29 801,-143 809.67,-119.24 815.77,-89.88 818.46,-75.61"/>
<polygon fill="midnightblue" stroke="midnightblue" points="785.56,-168.8 783.95,-179.28 791.74,-172.09 785.56,-168.8"/>
</g>
<!-- Node13 -->
<g id="node13" class="node">
<title>Node13</title>
<g id="a_node13"><a xlink:href="gov__effects_8h.html" target="_top" xlink:title=" ">
<polygon fill="white" stroke="black" points="648,-118 648,-137 792,-137 792,-118 648,-118"/>
<text text-anchor="middle" x="720" y="-125" font-family="Helvetica,sans-Serif" font-size="10.00">src/node/rpc/gov_effects.h</text>
</a>
</g>
</g>
<!-- Node10&#45;&gt;Node13 -->
<g id="edge12" class="edge">
<title>Node10&#45;&gt;Node13</title>
<path fill="none" stroke="midnightblue" d="M763.46,-172.32C752.25,-161.02 737.54,-146.19 728.44,-137.01"/>
<polygon fill="midnightblue" stroke="midnightblue" points="761.02,-174.84 770.55,-179.48 765.99,-169.91 761.02,-174.84"/>
</g>
<!-- Node12 -->
<g id="node12" class="node">
<title>Node12</title>
<g id="a_node12"><a xlink:href="enclave_2main_8cpp.html" target="_top" xlink:title=" ">
<polygon fill="white" stroke="black" points="760,-0.5 760,-19.5 880,-19.5 880,-0.5 760,-0.5"/>
<text text-anchor="middle" x="820" y="-7.5" font-family="Helvetica,sans-Serif" font-size="10.00">src/enclave/main.cpp</text>
</a>
</g>
</g>
<!-- Node11&#45;&gt;Node12 -->
<g id="edge11" class="edge">
<title>Node11&#45;&gt;Node12</title>
<path fill="none" stroke="midnightblue" d="M820,-45.8C820,-36.91 820,-26.78 820,-19.75"/>
<polygon fill="midnightblue" stroke="midnightblue" points="816.5,-46.08 820,-56.08 823.5,-46.08 816.5,-46.08"/>
</g>
<!-- Node13&#45;&gt;Node11 -->
<g id="edge13" class="edge">
<title>Node13&#45;&gt;Node11</title>
<path fill="none" stroke="midnightblue" d="M743.12,-112.74C762.44,-101.25 789.37,-85.22 805.7,-75.51"/>
<polygon fill="midnightblue" stroke="midnightblue" points="741.13,-109.85 734.33,-117.98 744.71,-115.87 741.13,-109.85"/>
</g>
<!-- Node16 -->
<g id="node16" class="node">
<title>Node16</title>
<g id="a_node16"><a xlink:href="openssl_2rsa__key__pair_8cpp.html" target="_top" xlink:title=" ">
<polygon fill="white" stroke="black" points="1373.5,-235.5 1373.5,-265.5 1478.5,-265.5 1478.5,-235.5 1373.5,-235.5"/>
<text text-anchor="start" x="1381.5" y="-253.5" font-family="Helvetica,sans-Serif" font-size="10.00">src/crypto/openssl</text>
<text text-anchor="middle" x="1426" y="-242.5" font-family="Helvetica,sans-Serif" font-size="10.00">/rsa_key_pair.cpp</text>
</a>
</g>
</g>
<!-- Node15&#45;&gt;Node16 -->
<g id="edge20" class="edge">
<title>Node15&#45;&gt;Node16</title>
<path fill="none" stroke="midnightblue" d="M1179.65,-301.91C1263.01,-284.34 1285.74,-283.08 1365,-266 1367.77,-265.4 1370.6,-264.78 1373.46,-264.14"/>
<polygon fill="midnightblue" stroke="midnightblue" points="1178.79,-298.52 1169.73,-304.02 1180.24,-305.37 1178.79,-298.52"/>
</g>
<!-- Node17 -->
<g id="node17" class="node">
<title>Node17</title>
<g id="a_node17"><a xlink:href="rsa__public__key_8cpp.html" target="_top" xlink:title=" ">
<polygon fill="white" stroke="black" points="999,-235.5 999,-265.5 1109,-265.5 1109,-235.5 999,-235.5"/>
<text text-anchor="start" x="1007" y="-253.5" font-family="Helvetica,sans-Serif" font-size="10.00">src/crypto/openssl</text>
<text text-anchor="middle" x="1054" y="-242.5" font-family="Helvetica,sans-Serif" font-size="10.00">/rsa_public_key.cpp</text>
</a>
</g>
</g>
<!-- Node15&#45;&gt;Node17 -->
<g id="edge21" class="edge">
<title>Node15&#45;&gt;Node17</title>
<path fill="none" stroke="midnightblue" d="M1096.19,-295.02C1086.8,-285.34 1075.98,-274.17 1067.64,-265.58"/>
<polygon fill="midnightblue" stroke="midnightblue" points="1093.86,-297.65 1103.33,-302.4 1098.88,-292.78 1093.86,-297.65"/>
</g>
<!-- Node18 -->
<g id="node18" class="node">
<title>Node18</title>
<g id="a_node18"><a xlink:href="openssl_2verifier_8cpp.html" target="_top" xlink:title=" ">
<polygon fill="white" stroke="black" points="1127.5,-235.5 1127.5,-265.5 1232.5,-265.5 1232.5,-235.5 1127.5,-235.5"/>
<text text-anchor="start" x="1135.5" y="-253.5" font-family="Helvetica,sans-Serif" font-size="10.00">src/crypto/openssl</text>
<text text-anchor="middle" x="1180" y="-242.5" font-family="Helvetica,sans-Serif" font-size="10.00">/verifier.cpp</text>
</a>
</g>
</g>
<!-- Node15&#45;&gt;Node18 -->
<g id="edge22" class="edge">
<title>Node15&#45;&gt;Node18</title>
<path fill="none" stroke="midnightblue" d="M1137.81,-295.02C1147.2,-285.34 1158.02,-274.17 1166.36,-265.58"/>
<polygon fill="midnightblue" stroke="midnightblue" points="1135.12,-292.78 1130.67,-302.4 1140.14,-297.65 1135.12,-292.78"/>
</g>
<!-- Node19 -->
<g id="node19" class="node">
<title>Node19</title>
<g id="a_node19"><a xlink:href="rsa__key__pair_8cpp.html" target="_top" xlink:title=" ">
<polygon fill="white" stroke="black" points="1250.5,-235.5 1250.5,-265.5 1355.5,-265.5 1355.5,-235.5 1250.5,-235.5"/>
<text text-anchor="start" x="1258.5" y="-253.5" font-family="Helvetica,sans-Serif" font-size="10.00">src/crypto/rsa_key</text>
<text text-anchor="middle" x="1303" y="-242.5" font-family="Helvetica,sans-Serif" font-size="10.00">_pair.cpp</text>
</a>
</g>
</g>
<!-- Node15&#45;&gt;Node19 -->
<g id="edge23" class="edge">
<title>Node15&#45;&gt;Node19</title>
<path fill="none" stroke="midnightblue" d="M1166.81,-299.09C1196.84,-288.6 1234.59,-275.41 1262.72,-265.58"/>
<polygon fill="midnightblue" stroke="midnightblue" points="1165.64,-295.79 1157.36,-302.4 1167.95,-302.4 1165.64,-295.79"/>
</g>
<!-- Node21&#45;&gt;Node10 -->
<g id="edge28" class="edge">
<title>Node21&#45;&gt;Node10</title>
<path fill="none" stroke="midnightblue" d="M880.19,-236.67C855.16,-225.13 819.08,-208.49 797.45,-198.51"/>
<polygon fill="midnightblue" stroke="midnightblue" points="878.97,-239.96 889.52,-240.98 881.9,-233.61 878.97,-239.96"/>
</g>
<!-- Node22 -->
<g id="node22" class="node">
<title>Node22</title>
<g id="a_node22"><a xlink:href="member__frontend_8h.html" target="_top" xlink:title=" ">
<polygon fill="white" stroke="black" points="848,-112.5 848,-142.5 968,-142.5 968,-112.5 848,-112.5"/>
<text text-anchor="start" x="856" y="-130.5" font-family="Helvetica,sans-Serif" font-size="10.00">src/node/rpc/member</text>
<text text-anchor="middle" x="908" y="-119.5" font-family="Helvetica,sans-Serif" font-size="10.00">_frontend.h</text>
</a>
</g>
</g>
<!-- Node21&#45;&gt;Node22 -->
<g id="edge29" class="edge">
<title>Node21&#45;&gt;Node22</title>
<path fill="none" stroke="midnightblue" d="M908,-230.68C908,-206.3 908,-164.32 908,-142.54"/>
<polygon fill="midnightblue" stroke="midnightblue" points="904.5,-230.8 908,-240.8 911.5,-230.8 904.5,-230.8"/>
</g>
<!-- Node22&#45;&gt;Node11 -->
<g id="edge30" class="edge">
<title>Node22&#45;&gt;Node11</title>
<path fill="none" stroke="midnightblue" d="M878.83,-106.78C863.23,-96.23 844.82,-83.78 832.8,-75.66"/>
<polygon fill="midnightblue" stroke="midnightblue" points="876.9,-109.7 887.15,-112.4 880.82,-103.9 876.9,-109.7"/>
</g>
</g>
</svg>
