<?xml version="1.0" encoding="UTF-8" standalone="no"?>
<!DOCTYPE svg PUBLIC "-//W3C//DTD SVG 1.1//EN"
 "http://www.w3.org/Graphics/SVG/1.1/DTD/svg11.dtd">
<!-- Generated by graphviz version 2.43.0 (0)
 -->
<!-- Title: Graphical Class Hierarchy Pages: 1 -->
<svg width="405pt" height="28pt"
 viewBox="0.00 0.00 405.00 28.00" xmlns="http://www.w3.org/2000/svg" xmlns:xlink="http://www.w3.org/1999/xlink">
<g id="graph0" class="graph" transform="scale(1 1) rotate(0) translate(4 24)">
<title>Graphical Class Hierarchy</title>
<polygon fill="white" stroke="transparent" points="-4,4 -4,-24 401,-24 401,4 -4,4"/>
<!-- Node0 -->
<g id="node1" class="node">
<title>Node0</title>
<g id="a_node1"><a xlink:href="classccf_1_1RpcContext.html" target="_top" xlink:title="Describes the currently executing RPC.">
<polygon fill="white" stroke="black" points="0,-0.5 0,-19.5 92,-19.5 92,-0.5 0,-0.5"/>
<text text-anchor="middle" x="46" y="-7.5" font-family="Helvetica,sans-Serif" font-size="10.00">ccf::RpcContext</text>
</a>
</g>
</g>
<!-- Node1 -->
<g id="node2" class="node">
<title>Node1</title>
<g id="a_node2"><a xlink:href="classccf_1_1RpcContextImpl.html" target="_top" xlink:title=" ">
<polygon fill="white" stroke="black" points="128,-0.5 128,-19.5 242,-19.5 242,-0.5 128,-0.5"/>
<text text-anchor="middle" x="185" y="-7.5" font-family="Helvetica,sans-Serif" font-size="10.00">ccf::RpcContextImpl</text>
</a>
</g>
</g>
<!-- Node0&#45;&gt;Node1 -->
<g id="edge1" class="edge">
<title>Node0&#45;&gt;Node1</title>
<path fill="none" stroke="midnightblue" d="M102.31,-10C110.72,-10 119.39,-10 127.81,-10"/>
<polygon fill="midnightblue" stroke="midnightblue" points="102.24,-6.5 92.24,-10 102.24,-13.5 102.24,-6.5"/>
</g>
<!-- Node2 -->
<g id="node3" class="node">
<title>Node2</title>
<g id="a_node3"><a xlink:href="classhttp_1_1HttpRpcContext.html" target="_top" xlink:title=" ">
<polygon fill="white" stroke="black" points="278,-0.5 278,-19.5 397,-19.5 397,-0.5 278,-0.5"/>
<text text-anchor="middle" x="337.5" y="-7.5" font-family="Helvetica,sans-Serif" font-size="10.00">http::HttpRpcContext</text>
</a>
</g>
</g>
<!-- Node1&#45;&gt;Node2 -->
<g id="edge2" class="edge">
<title>Node1&#45;&gt;Node2</title>
<path fill="none" stroke="midnightblue" d="M252.04,-10C260.65,-10 269.42,-10 277.9,-10"/>
<polygon fill="midnightblue" stroke="midnightblue" points="252.04,-6.5 242.04,-10 252.04,-13.5 252.04,-6.5"/>
</g>
</g>
</svg>
