<?xml version="1.0" encoding="UTF-8" standalone="no"?>
<!DOCTYPE svg PUBLIC "-//W3C//DTD SVG 1.1//EN"
 "http://www.w3.org/Graphics/SVG/1.1/DTD/svg11.dtd">
<!-- Generated by graphviz version 2.43.0 (0)
 -->
<!-- Title: Graphical Class Hierarchy Pages: 1 -->
<svg width="454pt" height="88pt"
 viewBox="0.00 0.00 454.00 88.00" xmlns="http://www.w3.org/2000/svg" xmlns:xlink="http://www.w3.org/1999/xlink">
<g id="graph0" class="graph" transform="scale(1 1) rotate(0) translate(4 84)">
<title>Graphical Class Hierarchy</title>
<polygon fill="white" stroke="transparent" points="-4,4 -4,-84 450,-84 450,4 -4,4"/>
<!-- Node0 -->
<g id="node1" class="node">
<title>Node0</title>
<g id="a_node1"><a xlink:href="structcrypto_1_1GcmHeader.html" target="_top" xlink:title=" ">
<polygon fill="white" stroke="black" points="0,-30 0,-49 111,-49 111,-30 0,-30"/>
<text text-anchor="middle" x="55.5" y="-37" font-family="Helvetica,sans-Serif" font-size="10.00">crypto::GcmHeader</text>
</a>
</g>
</g>
<!-- Node1 -->
<g id="node2" class="node">
<title>Node1</title>
<g id="a_node2"><a xlink:href="structcrypto_1_1FixedSizeGcmHeader.html" target="_top" xlink:title=" ">
<polygon fill="white" stroke="black" points="147,-49.5 147,-79.5 304,-79.5 304,-49.5 147,-49.5"/>
<text text-anchor="start" x="155" y="-67.5" font-family="Helvetica,sans-Serif" font-size="10.00">crypto::FixedSizeGcmHeader</text>
<text text-anchor="middle" x="225.5" y="-56.5" font-family="Helvetica,sans-Serif" font-size="10.00">&lt; 12 &gt;</text>
</a>
</g>
</g>
<!-- Node0&#45;&gt;Node1 -->
<g id="edge1" class="edge">
<title>Node0&#45;&gt;Node1</title>
<path fill="none" stroke="midnightblue" d="M121.12,-49.12C129.5,-50.36 138.16,-51.65 146.73,-52.93"/>
<polygon fill="midnightblue" stroke="midnightblue" points="121.45,-45.63 111.04,-47.62 120.42,-52.55 121.45,-45.63"/>
</g>
<!-- Node3 -->
<g id="node4" class="node">
<title>Node3</title>
<g id="a_node4"><a xlink:href="structcrypto_1_1FixedSizeGcmHeader.html" target="_top" xlink:title=" ">
<polygon fill="white" stroke="black" points="147,-0.5 147,-30.5 304,-30.5 304,-0.5 147,-0.5"/>
<text text-anchor="start" x="155" y="-18.5" font-family="Helvetica,sans-Serif" font-size="10.00">crypto::FixedSizeGcmHeader</text>
<text text-anchor="middle" x="225.5" y="-7.5" font-family="Helvetica,sans-Serif" font-size="10.00">&lt; IV_BYTES &gt;</text>
</a>
</g>
</g>
<!-- Node0&#45;&gt;Node3 -->
<g id="edge3" class="edge">
<title>Node0&#45;&gt;Node3</title>
<path fill="none" stroke="midnightblue" d="M121.12,-30.27C129.5,-29.07 138.16,-27.83 146.73,-26.61"/>
<polygon fill="midnightblue" stroke="midnightblue" points="120.45,-26.83 111.04,-31.71 121.44,-33.76 120.45,-26.83"/>
</g>
<!-- Node2 -->
<g id="node3" class="node">
<title>Node2</title>
<g id="a_node3"><a xlink:href="structccf_1_1TxGcmHeader.html" target="_top" xlink:title=" ">
<polygon fill="white" stroke="black" points="340,-55 340,-74 446,-74 446,-55 340,-55"/>
<text text-anchor="middle" x="393" y="-62" font-family="Helvetica,sans-Serif" font-size="10.00">ccf::TxGcmHeader</text>
</a>
</g>
</g>
<!-- Node1&#45;&gt;Node2 -->
<g id="edge2" class="edge">
<title>Node1&#45;&gt;Node2</title>
<path fill="none" stroke="midnightblue" d="M314.46,-64.5C323.01,-64.5 331.49,-64.5 339.53,-64.5"/>
<polygon fill="midnightblue" stroke="midnightblue" points="314.4,-61 304.4,-64.5 314.4,-68 314.4,-61"/>
</g>
</g>
</svg>
