<?xml version="1.0" encoding="UTF-8" standalone="no"?>
<!DOCTYPE svg PUBLIC "-//W3C//DTD SVG 1.1//EN"
 "http://www.w3.org/Graphics/SVG/1.1/DTD/svg11.dtd">
<!-- Generated by graphviz version 2.43.0 (0)
 -->
<!-- Title: Graphical Class Hierarchy Pages: 1 -->
<svg width="586pt" height="317pt"
 viewBox="0.00 0.00 586.00 317.00" xmlns="http://www.w3.org/2000/svg" xmlns:xlink="http://www.w3.org/1999/xlink">
<g id="graph0" class="graph" transform="scale(1 1) rotate(0) translate(4 313)">
<title>Graphical Class Hierarchy</title>
<polygon fill="white" stroke="transparent" points="-4,4 -4,-313 582,-313 582,4 -4,4"/>
<!-- Node0 -->
<g id="node1" class="node">
<title>Node0</title>
<g id="a_node1"><a xlink:href="classccf_1_1AbstractNodeSubSystem.html" target="_top" xlink:title=" ">
<polygon fill="white" stroke="black" points="0,-169.5 0,-188.5 157,-188.5 157,-169.5 0,-169.5"/>
<text text-anchor="middle" x="78.5" y="-176.5" font-family="Helvetica,sans-Serif" font-size="10.00">ccf::AbstractNodeSubSystem</text>
</a>
</g>
</g>
<!-- Node1 -->
<g id="node2" class="node">
<title>Node1</title>
<g id="a_node2"><a xlink:href="classccf_1_1AbstractGovernanceEffects.html" target="_top" xlink:title=" ">
<polygon fill="white" stroke="black" points="197,-289.5 197,-308.5 365,-308.5 365,-289.5 197,-289.5"/>
<text text-anchor="middle" x="281" y="-296.5" font-family="Helvetica,sans-Serif" font-size="10.00">ccf::AbstractGovernanceEffects</text>
</a>
</g>
</g>
<!-- Node0&#45;&gt;Node1 -->
<g id="edge1" class="edge">
<title>Node0&#45;&gt;Node1</title>
<path fill="none" stroke="midnightblue" d="M93.85,-196.42C113.69,-219.29 151.73,-258.98 193,-280 200.58,-283.86 208.91,-286.94 217.33,-289.39"/>
<polygon fill="midnightblue" stroke="midnightblue" points="96.31,-193.91 87.17,-188.55 90.98,-198.44 96.31,-193.91"/>
</g>
<!-- Node3 -->
<g id="node4" class="node">
<title>Node3</title>
<g id="a_node4"><a xlink:href="classccf_1_1AbstractHostProcesses.html" target="_top" xlink:title=" ">
<polygon fill="white" stroke="black" points="207,-251.5 207,-270.5 355,-270.5 355,-251.5 207,-251.5"/>
<text text-anchor="middle" x="281" y="-258.5" font-family="Helvetica,sans-Serif" font-size="10.00">ccf::AbstractHostProcesses</text>
</a>
</g>
</g>
<!-- Node0&#45;&gt;Node3 -->
<g id="edge3" class="edge">
<title>Node0&#45;&gt;Node3</title>
<path fill="none" stroke="midnightblue" d="M101.93,-194.05C124.17,-208.32 159.64,-229.41 193,-242 202.98,-245.77 213.9,-248.88 224.53,-251.43"/>
<polygon fill="midnightblue" stroke="midnightblue" points="103.82,-191.1 93.54,-188.57 100,-196.97 103.82,-191.1"/>
</g>
<!-- Node5 -->
<g id="node6" class="node">
<title>Node5</title>
<g id="a_node6"><a xlink:href="classccf_1_1AbstractNodeOperation.html" target="_top" xlink:title=" ">
<polygon fill="white" stroke="black" points="206,-213.5 206,-232.5 356,-232.5 356,-213.5 206,-213.5"/>
<text text-anchor="middle" x="281" y="-220.5" font-family="Helvetica,sans-Serif" font-size="10.00">ccf::AbstractNodeOperation</text>
</a>
</g>
</g>
<!-- Node0&#45;&gt;Node5 -->
<g id="edge5" class="edge">
<title>Node0&#45;&gt;Node5</title>
<path fill="none" stroke="midnightblue" d="M132.6,-190.72C151.65,-194.91 173.29,-199.68 193,-204 207.04,-207.08 222.37,-210.43 236.18,-213.45"/>
<polygon fill="midnightblue" stroke="midnightblue" points="133.13,-187.25 122.61,-188.52 131.62,-194.09 133.13,-187.25"/>
</g>
<!-- Node7 -->
<g id="node8" class="node">
<title>Node7</title>
<g id="a_node8"><a xlink:href="classccf_1_1NetworkIdentitySubsystemInterface.html" target="_top" xlink:title=" ">
<polygon fill="white" stroke="black" points="196.5,-164 196.5,-194 365.5,-194 365.5,-164 196.5,-164"/>
<text text-anchor="start" x="204.5" y="-182" font-family="Helvetica,sans-Serif" font-size="10.00">ccf::NetworkIdentitySubsystem</text>
<text text-anchor="middle" x="281" y="-171" font-family="Helvetica,sans-Serif" font-size="10.00">Interface</text>
</a>
</g>
</g>
<!-- Node0&#45;&gt;Node7 -->
<g id="edge7" class="edge">
<title>Node0&#45;&gt;Node7</title>
<path fill="none" stroke="midnightblue" d="M167.08,-179C176.81,-179 186.7,-179 196.37,-179"/>
<polygon fill="midnightblue" stroke="midnightblue" points="167.02,-175.5 157.02,-179 167.02,-182.5 167.02,-175.5"/>
</g>
<!-- Node9 -->
<g id="node10" class="node">
<title>Node9</title>
<g id="a_node10"><a xlink:href="classccf_1_1historical_1_1AbstractStateCache.html" target="_top" xlink:title=" ">
<polygon fill="white" stroke="black" points="217,-115 217,-145 345,-145 345,-115 217,-115"/>
<text text-anchor="start" x="225" y="-133" font-family="Helvetica,sans-Serif" font-size="10.00">ccf::historical::Abstract</text>
<text text-anchor="middle" x="281" y="-122" font-family="Helvetica,sans-Serif" font-size="10.00">StateCache</text>
</a>
</g>
</g>
<!-- Node0&#45;&gt;Node9 -->
<g id="edge9" class="edge">
<title>Node0&#45;&gt;Node9</title>
<path fill="none" stroke="midnightblue" d="M128.66,-166.99C155.75,-160.36 189.64,-152.08 218.47,-145.04"/>
<polygon fill="midnightblue" stroke="midnightblue" points="127.52,-163.66 118.63,-169.44 129.18,-170.46 127.52,-163.66"/>
</g>
<!-- Node12 -->
<g id="node12" class="node">
<title>Node12</title>
<g id="a_node12"><a xlink:href="classccf_1_1indexing_1_1AbstractLFSAccess.html" target="_top" xlink:title=" ">
<polygon fill="white" stroke="black" points="193,-38.5 193,-57.5 369,-57.5 369,-38.5 193,-38.5"/>
<text text-anchor="middle" x="281" y="-45.5" font-family="Helvetica,sans-Serif" font-size="10.00">ccf::indexing::AbstractLFSAccess</text>
</a>
</g>
</g>
<!-- Node0&#45;&gt;Node12 -->
<g id="edge11" class="edge">
<title>Node0&#45;&gt;Node12</title>
<path fill="none" stroke="midnightblue" d="M92.3,-161.12C111.3,-135.98 149.44,-90.62 193,-67 200.2,-63.09 208.15,-59.99 216.23,-57.53"/>
<polygon fill="midnightblue" stroke="midnightblue" points="89.32,-159.26 86.19,-169.39 94.95,-163.42 89.32,-159.26"/>
</g>
<!-- Node14 -->
<g id="node14" class="node">
<title>Node14</title>
<g id="a_node14"><a xlink:href="classccf_1_1indexing_1_1IndexingStrategies.html" target="_top" xlink:title=" ">
<polygon fill="white" stroke="black" points="193,-0.5 193,-19.5 369,-19.5 369,-0.5 193,-0.5"/>
<text text-anchor="middle" x="281" y="-7.5" font-family="Helvetica,sans-Serif" font-size="10.00">ccf::indexing::IndexingStrategies</text>
</a>
</g>
</g>
<!-- Node0&#45;&gt;Node14 -->
<g id="edge13" class="edge">
<title>Node0&#45;&gt;Node14</title>
<path fill="none" stroke="midnightblue" d="M88.17,-160.18C104.08,-127.88 141.12,-62.18 193,-29 198.99,-25.17 205.64,-22.1 212.51,-19.64"/>
<polygon fill="midnightblue" stroke="midnightblue" points="84.92,-158.88 83.76,-169.41 91.23,-161.9 84.92,-158.88"/>
</g>
<!-- Node2 -->
<g id="node3" class="node">
<title>Node2</title>
<g id="a_node3"><a xlink:href="classccf_1_1GovernanceEffects.html" target="_top" xlink:title=" ">
<polygon fill="white" stroke="black" points="427.5,-289.5 427.5,-308.5 555.5,-308.5 555.5,-289.5 427.5,-289.5"/>
<text text-anchor="middle" x="491.5" y="-296.5" font-family="Helvetica,sans-Serif" font-size="10.00">ccf::GovernanceEffects</text>
</a>
</g>
</g>
<!-- Node1&#45;&gt;Node2 -->
<g id="edge2" class="edge">
<title>Node1&#45;&gt;Node2</title>
<path fill="none" stroke="midnightblue" d="M375.31,-299C392.93,-299 410.97,-299 427.38,-299"/>
<polygon fill="midnightblue" stroke="midnightblue" points="375,-295.5 365,-299 375,-302.5 375,-295.5"/>
</g>
<!-- Node4 -->
<g id="node5" class="node">
<title>Node4</title>
<g id="a_node5"><a xlink:href="classccf_1_1HostProcesses.html" target="_top" xlink:title=" ">
<polygon fill="white" stroke="black" points="438,-251.5 438,-270.5 545,-270.5 545,-251.5 438,-251.5"/>
<text text-anchor="middle" x="491.5" y="-258.5" font-family="Helvetica,sans-Serif" font-size="10.00">ccf::HostProcesses</text>
</a>
</g>
</g>
<!-- Node3&#45;&gt;Node4 -->
<g id="edge4" class="edge">
<title>Node3&#45;&gt;Node4</title>
<path fill="none" stroke="midnightblue" d="M365.23,-261C389.71,-261 415.8,-261 437.8,-261"/>
<polygon fill="midnightblue" stroke="midnightblue" points="365.22,-257.5 355.22,-261 365.22,-264.5 365.22,-257.5"/>
</g>
<!-- Node6 -->
<g id="node7" class="node">
<title>Node6</title>
<g id="a_node7"><a xlink:href="classccf_1_1NodeOperation.html" target="_top" xlink:title=" ">
<polygon fill="white" stroke="black" points="436.5,-213.5 436.5,-232.5 546.5,-232.5 546.5,-213.5 436.5,-213.5"/>
<text text-anchor="middle" x="491.5" y="-220.5" font-family="Helvetica,sans-Serif" font-size="10.00">ccf::NodeOperation</text>
</a>
</g>
</g>
<!-- Node5&#45;&gt;Node6 -->
<g id="edge6" class="edge">
<title>Node5&#45;&gt;Node6</title>
<path fill="none" stroke="midnightblue" d="M366.13,-223C389.8,-223 414.89,-223 436.3,-223"/>
<polygon fill="midnightblue" stroke="midnightblue" points="366.1,-219.5 356.1,-223 366.1,-226.5 366.1,-219.5"/>
</g>
<!-- Node8 -->
<g id="node9" class="node">
<title>Node8</title>
<g id="a_node9"><a xlink:href="classccf_1_1NetworkIdentitySubsystem.html" target="_top" xlink:title=" ">
<polygon fill="white" stroke="black" points="407,-169.5 407,-188.5 576,-188.5 576,-169.5 407,-169.5"/>
<text text-anchor="middle" x="491.5" y="-176.5" font-family="Helvetica,sans-Serif" font-size="10.00">ccf::NetworkIdentitySubsystem</text>
</a>
</g>
</g>
<!-- Node7&#45;&gt;Node8 -->
<g id="edge8" class="edge">
<title>Node7&#45;&gt;Node8</title>
<path fill="none" stroke="midnightblue" d="M375.88,-179C386.21,-179 396.68,-179 406.88,-179"/>
<polygon fill="midnightblue" stroke="midnightblue" points="375.6,-175.5 365.6,-179 375.6,-182.5 375.6,-175.5"/>
</g>
<!-- Node10 -->
<g id="node11" class="node">
<title>Node10</title>
<g id="a_node11"><a xlink:href="classccf_1_1historical_1_1StateCache.html" target="_top" xlink:title=" ">
<polygon fill="white" stroke="black" points="420,-98.5 420,-117.5 563,-117.5 563,-98.5 420,-98.5"/>
<text text-anchor="middle" x="491.5" y="-105.5" font-family="Helvetica,sans-Serif" font-size="10.00">ccf::historical::StateCache</text>
</a>
</g>
</g>
<!-- Node9&#45;&gt;Node10 -->
<g id="edge10" class="edge">
<title>Node9&#45;&gt;Node10</title>
<path fill="none" stroke="midnightblue" d="M355.27,-122.27C376.26,-120.05 399.11,-117.64 419.94,-115.45"/>
<polygon fill="midnightblue" stroke="midnightblue" points="354.7,-118.81 345.12,-123.34 355.43,-125.77 354.7,-118.81"/>
</g>
<!-- Node13 -->
<g id="node13" class="node">
<title>Node13</title>
<g id="a_node13"><a xlink:href="classccf_1_1indexing_1_1EnclaveLFSAccess.html" target="_top" xlink:title=" ">
<polygon fill="white" stroke="black" points="405,-38.5 405,-57.5 578,-57.5 578,-38.5 405,-38.5"/>
<text text-anchor="middle" x="491.5" y="-45.5" font-family="Helvetica,sans-Serif" font-size="10.00">ccf::indexing::EnclaveLFSAccess</text>
</a>
</g>
</g>
<!-- Node12&#45;&gt;Node13 -->
<g id="edge12" class="edge">
<title>Node12&#45;&gt;Node13</title>
<path fill="none" stroke="midnightblue" d="M379.25,-48C387.84,-48 396.49,-48 404.97,-48"/>
<polygon fill="midnightblue" stroke="midnightblue" points="379.21,-44.5 369.21,-48 379.21,-51.5 379.21,-44.5"/>
</g>
<!-- Node15 -->
<g id="node15" class="node">
<title>Node15</title>
<g id="a_node15"><a xlink:href="classccf_1_1indexing_1_1Indexer.html" target="_top" xlink:title=" ">
<polygon fill="white" stroke="black" points="431.5,-0.5 431.5,-19.5 551.5,-19.5 551.5,-0.5 431.5,-0.5"/>
<text text-anchor="middle" x="491.5" y="-7.5" font-family="Helvetica,sans-Serif" font-size="10.00">ccf::indexing::Indexer</text>
</a>
</g>
</g>
<!-- Node14&#45;&gt;Node15 -->
<g id="edge14" class="edge">
<title>Node14&#45;&gt;Node15</title>
<path fill="none" stroke="midnightblue" d="M379.6,-10C397.32,-10 415.29,-10 431.47,-10"/>
<polygon fill="midnightblue" stroke="midnightblue" points="379.21,-6.5 369.21,-10 379.21,-13.5 379.21,-6.5"/>
</g>
<!-- Node11 -->
<g id="node16" class="node">
<title>Node11</title>
<g id="a_node16"><a xlink:href="classccf_1_1historical_1_1StateCacheImpl.html" target="_top" xlink:title=" ">
<polygon fill="white" stroke="black" points="199,-76.5 199,-95.5 363,-95.5 363,-76.5 199,-76.5"/>
<text text-anchor="middle" x="281" y="-83.5" font-family="Helvetica,sans-Serif" font-size="10.00">ccf::historical::StateCacheImpl</text>
</a>
</g>
</g>
<!-- Node11&#45;&gt;Node10 -->
<g id="edge15" class="edge">
<title>Node11&#45;&gt;Node10</title>
<path fill="none" stroke="midnightblue" d="M373.34,-95.64C388.87,-97.28 404.78,-98.96 419.68,-100.53"/>
<polygon fill="midnightblue" stroke="midnightblue" points="373.52,-92.14 363.21,-94.57 372.79,-99.1 373.52,-92.14"/>
</g>
</g>
</svg>
