<?xml version="1.0" encoding="UTF-8" standalone="no"?>
<!DOCTYPE svg PUBLIC "-//W3C//DTD SVG 1.1//EN"
 "http://www.w3.org/Graphics/SVG/1.1/DTD/svg11.dtd">
<!-- Generated by graphviz version 2.43.0 (0)
 -->
<!-- Title: include/ccf/crypto/key_wrap.h Pages: 1 -->
<svg width="871pt" height="330pt"
 viewBox="0.00 0.00 871.00 330.00" xmlns="http://www.w3.org/2000/svg" xmlns:xlink="http://www.w3.org/1999/xlink">
<g id="graph0" class="graph" transform="scale(1 1) rotate(0) translate(4 326)">
<title>include/ccf/crypto/key_wrap.h</title>
<polygon fill="white" stroke="transparent" points="-4,4 -4,-326 867,-326 867,4 -4,4"/>
<!-- Node1 -->
<g id="node1" class="node">
<title>Node1</title>
<g id="a_node1"><a xlink:title=" ">
<polygon fill="#bfbfbf" stroke="black" points="342.5,-291.5 342.5,-321.5 445.5,-321.5 445.5,-291.5 342.5,-291.5"/>
<text text-anchor="start" x="350.5" y="-309.5" font-family="Helvetica,sans-Serif" font-size="10.00">include/ccf/crypto</text>
<text text-anchor="middle" x="394" y="-298.5" font-family="Helvetica,sans-Serif" font-size="10.00">/key_wrap.h</text>
</a>
</g>
</g>
<!-- Node2 -->
<g id="node2" class="node">
<title>Node2</title>
<g id="a_node2"><a xlink:href="js__generic__base_8cpp.html" target="_top" xlink:title=" ">
<polygon fill="white" stroke="black" points="0,-224.5 0,-254.5 118,-254.5 118,-224.5 0,-224.5"/>
<text text-anchor="start" x="8" y="-242.5" font-family="Helvetica,sans-Serif" font-size="10.00">src/apps/js_generic</text>
<text text-anchor="middle" x="59" y="-231.5" font-family="Helvetica,sans-Serif" font-size="10.00">/js_generic_base.cpp</text>
</a>
</g>
</g>
<!-- Node1&#45;&gt;Node2 -->
<g id="edge1" class="edge">
<title>Node1&#45;&gt;Node2</title>
<path fill="none" stroke="midnightblue" d="M332.37,-294.26C278.2,-284.28 197.28,-269.14 127,-255 124.16,-254.43 121.25,-253.84 118.32,-253.23"/>
<polygon fill="midnightblue" stroke="midnightblue" points="332.03,-297.76 342.5,-296.12 333.29,-290.87 332.03,-297.76"/>
</g>
<!-- Node3 -->
<g id="node3" class="node">
<title>Node3</title>
<g id="a_node3"><a xlink:href="js__v8__base_8cpp.html" target="_top" xlink:title=" ">
<polygon fill="white" stroke="black" points="136,-224.5 136,-254.5 250,-254.5 250,-224.5 136,-224.5"/>
<text text-anchor="start" x="144" y="-242.5" font-family="Helvetica,sans-Serif" font-size="10.00">src/apps/js_v8/js_v8</text>
<text text-anchor="middle" x="193" y="-231.5" font-family="Helvetica,sans-Serif" font-size="10.00">_base.cpp</text>
</a>
</g>
</g>
<!-- Node1&#45;&gt;Node3 -->
<g id="edge2" class="edge">
<title>Node1&#45;&gt;Node3</title>
<path fill="none" stroke="midnightblue" d="M340.59,-288.23C308.07,-277.71 267.06,-264.45 236.53,-254.58"/>
<polygon fill="midnightblue" stroke="midnightblue" points="339.79,-291.65 350.39,-291.4 341.95,-284.99 339.79,-291.65"/>
</g>
<!-- Node4 -->
<g id="node4" class="node">
<title>Node4</title>
<g id="a_node4"><a xlink:href="ccf__global_8cpp.html" target="_top" xlink:title=" ">
<polygon fill="white" stroke="black" points="268.5,-224.5 268.5,-254.5 379.5,-254.5 379.5,-224.5 268.5,-224.5"/>
<text text-anchor="start" x="276.5" y="-242.5" font-family="Helvetica,sans-Serif" font-size="10.00">src/apps/js_v8/tmpl</text>
<text text-anchor="middle" x="324" y="-231.5" font-family="Helvetica,sans-Serif" font-size="10.00">/ccf_global.cpp</text>
</a>
</g>
</g>
<!-- Node1&#45;&gt;Node4 -->
<g id="edge3" class="edge">
<title>Node1&#45;&gt;Node4</title>
<path fill="none" stroke="midnightblue" d="M371.18,-284.31C360.68,-274.56 348.51,-263.26 339.16,-254.58"/>
<polygon fill="midnightblue" stroke="midnightblue" points="369.1,-287.16 378.81,-291.4 373.86,-282.03 369.1,-287.16"/>
</g>
<!-- Node5 -->
<g id="node5" class="node">
<title>Node5</title>
<g id="a_node5"><a xlink:href="key__wrap_8cpp.html" target="_top" xlink:title=" ">
<polygon fill="white" stroke="black" points="398,-230 398,-249 532,-249 532,-230 398,-230"/>
<text text-anchor="middle" x="465" y="-237" font-family="Helvetica,sans-Serif" font-size="10.00">src/crypto/key_wrap.cpp</text>
</a>
</g>
</g>
<!-- Node1&#45;&gt;Node5 -->
<g id="edge4" class="edge">
<title>Node1&#45;&gt;Node5</title>
<path fill="none" stroke="midnightblue" d="M417.12,-284.34C430.15,-272.4 445.74,-258.14 455.5,-249.19"/>
<polygon fill="midnightblue" stroke="midnightblue" points="414.42,-282.06 409.41,-291.4 419.15,-287.22 414.42,-282.06"/>
</g>
<!-- Node6 -->
<g id="node6" class="node">
<title>Node6</title>
<g id="a_node6"><a xlink:href="js_2crypto_8cpp.html" target="_top" xlink:title=" ">
<polygon fill="white" stroke="black" points="550,-230 550,-249 646,-249 646,-230 550,-230"/>
<text text-anchor="middle" x="598" y="-237" font-family="Helvetica,sans-Serif" font-size="10.00">src/js/crypto.cpp</text>
</a>
</g>
</g>
<!-- Node1&#45;&gt;Node6 -->
<g id="edge5" class="edge">
<title>Node1&#45;&gt;Node6</title>
<path fill="none" stroke="midnightblue" d="M447.57,-288.43C487.36,-275.75 539.94,-259 571.23,-249.03"/>
<polygon fill="midnightblue" stroke="midnightblue" points="446.48,-285.11 438.01,-291.48 448.6,-291.77 446.48,-285.11"/>
</g>
<!-- Node8 -->
<g id="node8" class="node">
<title>Node8</title>
<g id="a_node8"><a xlink:href="secret__broadcast_8h.html" target="_top" xlink:title=" ">
<polygon fill="white" stroke="black" points="664.5,-230 664.5,-249 817.5,-249 817.5,-230 664.5,-230"/>
<text text-anchor="middle" x="741" y="-237" font-family="Helvetica,sans-Serif" font-size="10.00">src/node/secret_broadcast.h</text>
</a>
</g>
</g>
<!-- Node1&#45;&gt;Node8 -->
<g id="edge7" class="edge">
<title>Node1&#45;&gt;Node8</title>
<path fill="none" stroke="midnightblue" d="M455.41,-294C524.18,-281.11 634.02,-260.54 695.51,-249.02"/>
<polygon fill="midnightblue" stroke="midnightblue" points="454.76,-290.56 445.57,-295.84 456.05,-297.44 454.76,-290.56"/>
</g>
<!-- Node7 -->
<g id="node7" class="node">
<title>Node7</title>
<g id="a_node7"><a xlink:href="wrap_8cpp.html" target="_top" xlink:title=" ">
<polygon fill="white" stroke="black" points="553.5,-168.5 553.5,-187.5 642.5,-187.5 642.5,-168.5 553.5,-168.5"/>
<text text-anchor="middle" x="598" y="-175.5" font-family="Helvetica,sans-Serif" font-size="10.00">src/js/wrap.cpp</text>
</a>
</g>
</g>
<!-- Node6&#45;&gt;Node7 -->
<g id="edge6" class="edge">
<title>Node6&#45;&gt;Node7</title>
<path fill="none" stroke="midnightblue" d="M598,-219.82C598,-209 598,-195.9 598,-187.51"/>
<polygon fill="midnightblue" stroke="midnightblue" points="594.5,-219.98 598,-229.98 601.5,-219.98 594.5,-219.98"/>
</g>
<!-- Node9 -->
<g id="node9" class="node">
<title>Node9</title>
<g id="a_node9"><a xlink:href="node__state_8h.html" target="_top" xlink:title=" ">
<polygon fill="white" stroke="black" points="679,-168.5 679,-187.5 803,-187.5 803,-168.5 679,-168.5"/>
<text text-anchor="middle" x="741" y="-175.5" font-family="Helvetica,sans-Serif" font-size="10.00">src/node/node_state.h</text>
</a>
</g>
</g>
<!-- Node8&#45;&gt;Node9 -->
<g id="edge8" class="edge">
<title>Node8&#45;&gt;Node9</title>
<path fill="none" stroke="midnightblue" d="M741,-219.82C741,-209 741,-195.9 741,-187.51"/>
<polygon fill="midnightblue" stroke="midnightblue" points="737.5,-219.98 741,-229.98 744.5,-219.98 737.5,-219.98"/>
</g>
<!-- Node10 -->
<g id="node10" class="node">
<title>Node10</title>
<g id="a_node10"><a xlink:href="enclave_2enclave_8h.html" target="_top" xlink:title=" ">
<polygon fill="white" stroke="black" points="680,-56.5 680,-75.5 802,-75.5 802,-56.5 680,-56.5"/>
<text text-anchor="middle" x="741" y="-63.5" font-family="Helvetica,sans-Serif" font-size="10.00">src/enclave/enclave.h</text>
</a>
</g>
</g>
<!-- Node9&#45;&gt;Node10 -->
<g id="edge9" class="edge">
<title>Node9&#45;&gt;Node10</title>
<path fill="none" stroke="midnightblue" d="M725.45,-160.6C715.22,-147.77 704.63,-129.27 710,-112 714.4,-97.87 724.95,-84.25 732.52,-75.77"/>
<polygon fill="midnightblue" stroke="midnightblue" points="723.09,-163.22 732.28,-168.49 728.38,-158.64 723.09,-163.22"/>
</g>
<!-- Node12 -->
<g id="node12" class="node">
<title>Node12</title>
<g id="a_node12"><a xlink:href="gov__effects_8h.html" target="_top" xlink:title=" ">
<polygon fill="white" stroke="black" points="719,-112.5 719,-131.5 863,-131.5 863,-112.5 719,-112.5"/>
<text text-anchor="middle" x="791" y="-119.5" font-family="Helvetica,sans-Serif" font-size="10.00">src/node/rpc/gov_effects.h</text>
</a>
</g>
</g>
<!-- Node9&#45;&gt;Node12 -->
<g id="edge11" class="edge">
<title>Node9&#45;&gt;Node12</title>
<path fill="none" stroke="midnightblue" d="M756.08,-160.72C764.89,-151.2 775.67,-139.56 782.9,-131.75"/>
<polygon fill="midnightblue" stroke="midnightblue" points="753.48,-158.37 749.26,-168.08 758.62,-163.12 753.48,-158.37"/>
</g>
<!-- Node11 -->
<g id="node11" class="node">
<title>Node11</title>
<g id="a_node11"><a xlink:href="enclave_2main_8cpp.html" target="_top" xlink:title=" ">
<polygon fill="white" stroke="black" points="681,-0.5 681,-19.5 801,-19.5 801,-0.5 681,-0.5"/>
<text text-anchor="middle" x="741" y="-7.5" font-family="Helvetica,sans-Serif" font-size="10.00">src/enclave/main.cpp</text>
</a>
</g>
</g>
<!-- Node10&#45;&gt;Node11 -->
<g id="edge10" class="edge">
<title>Node10&#45;&gt;Node11</title>
<path fill="none" stroke="midnightblue" d="M741,-45.8C741,-36.91 741,-26.78 741,-19.75"/>
<polygon fill="midnightblue" stroke="midnightblue" points="737.5,-46.08 741,-56.08 744.5,-46.08 737.5,-46.08"/>
</g>
<!-- Node12&#45;&gt;Node10 -->
<g id="edge12" class="edge">
<title>Node12&#45;&gt;Node10</title>
<path fill="none" stroke="midnightblue" d="M775.92,-104.72C767.11,-95.2 756.33,-83.56 749.1,-75.75"/>
<polygon fill="midnightblue" stroke="midnightblue" points="773.38,-107.12 782.74,-112.08 778.52,-102.37 773.38,-107.12"/>
</g>
</g>
</svg>
