<?xml version="1.0" encoding="UTF-8" standalone="no"?>
<!DOCTYPE svg PUBLIC "-//W3C//DTD SVG 1.1//EN"
 "http://www.w3.org/Graphics/SVG/1.1/DTD/svg11.dtd">
<!-- Generated by graphviz version 2.43.0 (0)
 -->
<!-- Title: src/crypto/key_exchange.h Pages: 1 -->
<svg width="203pt" height="375pt"
 viewBox="0.00 0.00 203.00 375.00" xmlns="http://www.w3.org/2000/svg" xmlns:xlink="http://www.w3.org/1999/xlink">
<g id="graph0" class="graph" transform="scale(1 1) rotate(0) translate(4 371)">
<title>src/crypto/key_exchange.h</title>
<polygon fill="white" stroke="transparent" points="-4,4 -4,-371 199,-371 199,4 -4,4"/>
<!-- Node1 -->
<g id="node1" class="node">
<title>Node1</title>
<g id="a_node1"><a xlink:title=" ">
<polygon fill="#bfbfbf" stroke="black" points="0,-347.5 0,-366.5 146,-366.5 146,-347.5 0,-347.5"/>
<text text-anchor="middle" x="73" y="-354.5" font-family="Helvetica,sans-Serif" font-size="10.00">src/crypto/key_exchange.h</text>
</a>
</g>
</g>
<!-- Node2 -->
<g id="node2" class="node">
<title>Node2</title>
<g id="a_node2"><a xlink:href="channels_8h.html" target="_top" xlink:title=" ">
<polygon fill="white" stroke="black" points="16.5,-291.5 16.5,-310.5 129.5,-310.5 129.5,-291.5 16.5,-291.5"/>
<text text-anchor="middle" x="73" y="-298.5" font-family="Helvetica,sans-Serif" font-size="10.00">src/node/channels.h</text>
</a>
</g>
</g>
<!-- Node1&#45;&gt;Node2 -->
<g id="edge1" class="edge">
<title>Node1&#45;&gt;Node2</title>
<path fill="none" stroke="midnightblue" d="M73,-336.8C73,-327.91 73,-317.78 73,-310.75"/>
<polygon fill="midnightblue" stroke="midnightblue" points="69.5,-337.08 73,-347.08 76.5,-337.08 69.5,-337.08"/>
</g>
<!-- Node3 -->
<g id="node3" class="node">
<title>Node3</title>
<g id="a_node3"><a xlink:href="node__to__node__channel__manager_8h.html" target="_top" xlink:title=" ">
<polygon fill="white" stroke="black" points="8.5,-224.5 8.5,-254.5 137.5,-254.5 137.5,-224.5 8.5,-224.5"/>
<text text-anchor="start" x="16.5" y="-242.5" font-family="Helvetica,sans-Serif" font-size="10.00">src/node/node_to_node</text>
<text text-anchor="middle" x="73" y="-231.5" font-family="Helvetica,sans-Serif" font-size="10.00">_channel_manager.h</text>
</a>
</g>
</g>
<!-- Node2&#45;&gt;Node3 -->
<g id="edge2" class="edge">
<title>Node2&#45;&gt;Node3</title>
<path fill="none" stroke="midnightblue" d="M73,-281.23C73,-272.59 73,-262.5 73,-254.52"/>
<polygon fill="midnightblue" stroke="midnightblue" points="69.5,-281.48 73,-291.48 76.5,-281.48 69.5,-281.48"/>
</g>
<!-- Node4 -->
<g id="node4" class="node">
<title>Node4</title>
<g id="a_node4"><a xlink:href="node__state_8h.html" target="_top" xlink:title=" ">
<polygon fill="white" stroke="black" points="11,-168.5 11,-187.5 135,-187.5 135,-168.5 11,-168.5"/>
<text text-anchor="middle" x="73" y="-175.5" font-family="Helvetica,sans-Serif" font-size="10.00">src/node/node_state.h</text>
</a>
</g>
</g>
<!-- Node3&#45;&gt;Node4 -->
<g id="edge3" class="edge">
<title>Node3&#45;&gt;Node4</title>
<path fill="none" stroke="midnightblue" d="M73,-214.29C73,-204.86 73,-194.65 73,-187.66"/>
<polygon fill="midnightblue" stroke="midnightblue" points="69.5,-214.4 73,-224.4 76.5,-214.4 69.5,-214.4"/>
</g>
<!-- Node5 -->
<g id="node5" class="node">
<title>Node5</title>
<g id="a_node5"><a xlink:href="enclave_2enclave_8h.html" target="_top" xlink:title=" ">
<polygon fill="white" stroke="black" points="12,-56.5 12,-75.5 134,-75.5 134,-56.5 12,-56.5"/>
<text text-anchor="middle" x="73" y="-63.5" font-family="Helvetica,sans-Serif" font-size="10.00">src/enclave/enclave.h</text>
</a>
</g>
</g>
<!-- Node4&#45;&gt;Node5 -->
<g id="edge4" class="edge">
<title>Node4&#45;&gt;Node5</title>
<path fill="none" stroke="midnightblue" d="M58.02,-160.47C51.78,-152.48 45.23,-142.38 42,-132 35.39,-110.75 52.96,-87.63 64.28,-75.51"/>
<polygon fill="midnightblue" stroke="midnightblue" points="55.42,-162.81 64.52,-168.23 60.79,-158.32 55.42,-162.81"/>
</g>
<!-- Node7 -->
<g id="node7" class="node">
<title>Node7</title>
<g id="a_node7"><a xlink:href="gov__effects_8h.html" target="_top" xlink:title=" ">
<polygon fill="white" stroke="black" points="51,-112.5 51,-131.5 195,-131.5 195,-112.5 51,-112.5"/>
<text text-anchor="middle" x="123" y="-119.5" font-family="Helvetica,sans-Serif" font-size="10.00">src/node/rpc/gov_effects.h</text>
</a>
</g>
</g>
<!-- Node4&#45;&gt;Node7 -->
<g id="edge6" class="edge">
<title>Node4&#45;&gt;Node7</title>
<path fill="none" stroke="midnightblue" d="M88.08,-160.72C96.89,-151.2 107.67,-139.56 114.9,-131.75"/>
<polygon fill="midnightblue" stroke="midnightblue" points="85.48,-158.37 81.26,-168.08 90.62,-163.12 85.48,-158.37"/>
</g>
<!-- Node6 -->
<g id="node6" class="node">
<title>Node6</title>
<g id="a_node6"><a xlink:href="enclave_2main_8cpp.html" target="_top" xlink:title=" ">
<polygon fill="white" stroke="black" points="13,-0.5 13,-19.5 133,-19.5 133,-0.5 13,-0.5"/>
<text text-anchor="middle" x="73" y="-7.5" font-family="Helvetica,sans-Serif" font-size="10.00">src/enclave/main.cpp</text>
</a>
</g>
</g>
<!-- Node5&#45;&gt;Node6 -->
<g id="edge5" class="edge">
<title>Node5&#45;&gt;Node6</title>
<path fill="none" stroke="midnightblue" d="M73,-45.8C73,-36.91 73,-26.78 73,-19.75"/>
<polygon fill="midnightblue" stroke="midnightblue" points="69.5,-46.08 73,-56.08 76.5,-46.08 69.5,-46.08"/>
</g>
<!-- Node7&#45;&gt;Node5 -->
<g id="edge7" class="edge">
<title>Node7&#45;&gt;Node5</title>
<path fill="none" stroke="midnightblue" d="M107.92,-104.72C99.11,-95.2 88.33,-83.56 81.1,-75.75"/>
<polygon fill="midnightblue" stroke="midnightblue" points="105.38,-107.12 114.74,-112.08 110.52,-102.37 105.38,-107.12"/>
</g>
</g>
</svg>
