<?xml version="1.0" encoding="UTF-8" standalone="no"?>
<!DOCTYPE svg PUBLIC "-//W3C//DTD SVG 1.1//EN"
 "http://www.w3.org/Graphics/SVG/1.1/DTD/svg11.dtd">
<!-- Generated by graphviz version 2.43.0 (0)
 -->
<!-- Title: src/apps/js_v8/tmpl/kv_store.h Pages: 1 -->
<svg width="465pt" height="173pt"
 viewBox="0.00 0.00 465.00 173.00" xmlns="http://www.w3.org/2000/svg" xmlns:xlink="http://www.w3.org/1999/xlink">
<g id="graph0" class="graph" transform="scale(1 1) rotate(0) translate(4 169)">
<title>src/apps/js_v8/tmpl/kv_store.h</title>
<polygon fill="white" stroke="transparent" points="-4,4 -4,-169 461,-169 461,4 -4,4"/>
<!-- Node1 -->
<g id="node1" class="node">
<title>Node1</title>
<g id="a_node1"><a xlink:title=" ">
<polygon fill="#bfbfbf" stroke="black" points="149,-134.5 149,-164.5 260,-164.5 260,-134.5 149,-134.5"/>
<text text-anchor="start" x="157" y="-152.5" font-family="Helvetica,sans-Serif" font-size="10.00">src/apps/js_v8/tmpl</text>
<text text-anchor="middle" x="204.5" y="-141.5" font-family="Helvetica,sans-Serif" font-size="10.00">/kv_store.h</text>
</a>
</g>
</g>
<!-- Node2 -->
<g id="node2" class="node">
<title>Node2</title>
<g id="a_node2"><a xlink:href="ccf__global_8cpp.html" target="_top" xlink:title=" ">
<polygon fill="white" stroke="black" points="0,-0.5 0,-30.5 111,-30.5 111,-0.5 0,-0.5"/>
<text text-anchor="start" x="8" y="-18.5" font-family="Helvetica,sans-Serif" font-size="10.00">src/apps/js_v8/tmpl</text>
<text text-anchor="middle" x="55.5" y="-7.5" font-family="Helvetica,sans-Serif" font-size="10.00">/ccf_global.cpp</text>
</a>
</g>
</g>
<!-- Node1&#45;&gt;Node2 -->
<g id="edge1" class="edge">
<title>Node1&#45;&gt;Node2</title>
<path fill="none" stroke="midnightblue" d="M139,-135.97C116.01,-128.51 91.86,-116.68 75.5,-98 58.9,-79.04 55.6,-48.48 55.21,-30.67"/>
<polygon fill="midnightblue" stroke="midnightblue" points="138.17,-139.38 148.75,-138.91 140.19,-132.68 138.17,-139.38"/>
</g>
<!-- Node3 -->
<g id="node3" class="node">
<title>Node3</title>
<g id="a_node3"><a xlink:href="ccf__global_8h.html" target="_top" xlink:title=" ">
<polygon fill="white" stroke="black" points="84,-67.5 84,-97.5 195,-97.5 195,-67.5 84,-67.5"/>
<text text-anchor="start" x="92" y="-85.5" font-family="Helvetica,sans-Serif" font-size="10.00">src/apps/js_v8/tmpl</text>
<text text-anchor="middle" x="139.5" y="-74.5" font-family="Helvetica,sans-Serif" font-size="10.00">/ccf_global.h</text>
</a>
</g>
</g>
<!-- Node1&#45;&gt;Node3 -->
<g id="edge2" class="edge">
<title>Node1&#45;&gt;Node3</title>
<path fill="none" stroke="midnightblue" d="M183.31,-127.31C173.56,-117.56 162.26,-106.26 153.58,-97.58"/>
<polygon fill="midnightblue" stroke="midnightblue" points="180.85,-129.8 190.4,-134.4 185.8,-124.85 180.85,-129.8"/>
</g>
<!-- Node5 -->
<g id="node5" class="node">
<title>Node5</title>
<g id="a_node5"><a xlink:href="historical__state_8cpp.html" target="_top" xlink:title=" ">
<polygon fill="white" stroke="black" points="213,-67.5 213,-97.5 328,-97.5 328,-67.5 213,-67.5"/>
<text text-anchor="start" x="221" y="-85.5" font-family="Helvetica,sans-Serif" font-size="10.00">src/apps/js_v8/tmpl</text>
<text text-anchor="middle" x="270.5" y="-74.5" font-family="Helvetica,sans-Serif" font-size="10.00">/historical_state.cpp</text>
</a>
</g>
</g>
<!-- Node1&#45;&gt;Node5 -->
<g id="edge5" class="edge">
<title>Node1&#45;&gt;Node5</title>
<path fill="none" stroke="midnightblue" d="M226.01,-127.31C235.91,-117.56 247.39,-106.26 256.21,-97.58"/>
<polygon fill="midnightblue" stroke="midnightblue" points="223.49,-124.89 218.82,-134.4 228.4,-129.87 223.49,-124.89"/>
</g>
<!-- Node6 -->
<g id="node6" class="node">
<title>Node6</title>
<g id="a_node6"><a xlink:href="kv__store_8cpp.html" target="_top" xlink:title=" ">
<polygon fill="white" stroke="black" points="346,-67.5 346,-97.5 457,-97.5 457,-67.5 346,-67.5"/>
<text text-anchor="start" x="354" y="-85.5" font-family="Helvetica,sans-Serif" font-size="10.00">src/apps/js_v8/tmpl</text>
<text text-anchor="middle" x="401.5" y="-74.5" font-family="Helvetica,sans-Serif" font-size="10.00">/kv_store.cpp</text>
</a>
</g>
</g>
<!-- Node1&#45;&gt;Node6 -->
<g id="edge6" class="edge">
<title>Node1&#45;&gt;Node6</title>
<path fill="none" stroke="midnightblue" d="M256.85,-131.23C288.72,-120.71 328.91,-107.45 358.84,-97.58"/>
<polygon fill="midnightblue" stroke="midnightblue" points="255.65,-127.94 247.25,-134.4 257.84,-134.59 255.65,-127.94"/>
</g>
<!-- Node3&#45;&gt;Node2 -->
<g id="edge4" class="edge">
<title>Node3&#45;&gt;Node2</title>
<path fill="none" stroke="midnightblue" d="M113.22,-61.17C100.38,-51.23 85.24,-39.51 73.69,-30.58"/>
<polygon fill="midnightblue" stroke="midnightblue" points="111.22,-64.04 121.27,-67.4 115.51,-58.51 111.22,-64.04"/>
</g>
<!-- Node4 -->
<g id="node4" class="node">
<title>Node4</title>
<g id="a_node4"><a xlink:href="js__v8__base_8cpp.html" target="_top" xlink:title=" ">
<polygon fill="white" stroke="black" points="129.5,-0.5 129.5,-30.5 243.5,-30.5 243.5,-0.5 129.5,-0.5"/>
<text text-anchor="start" x="137.5" y="-18.5" font-family="Helvetica,sans-Serif" font-size="10.00">src/apps/js_v8/js_v8</text>
<text text-anchor="middle" x="186.5" y="-7.5" font-family="Helvetica,sans-Serif" font-size="10.00">_base.cpp</text>
</a>
</g>
</g>
<!-- Node3&#45;&gt;Node4 -->
<g id="edge3" class="edge">
<title>Node3&#45;&gt;Node4</title>
<path fill="none" stroke="midnightblue" d="M155.66,-59.16C162.51,-49.68 170.29,-38.92 176.32,-30.58"/>
<polygon fill="midnightblue" stroke="midnightblue" points="152.72,-57.24 149.7,-67.4 158.39,-61.34 152.72,-57.24"/>
</g>
</g>
</svg>
