<?xml version="1.0" encoding="UTF-8" standalone="no"?>
<!DOCTYPE svg PUBLIC "-//W3C//DTD SVG 1.1//EN"
 "http://www.w3.org/Graphics/SVG/1.1/DTD/svg11.dtd">
<!-- Generated by graphviz version 2.43.0 (0)
 -->
<!-- Title: include/ccf/service/tables/members.h Pages: 1 -->
<!--zoomable 665 -->
<svg id="main" version="1.1" xmlns="http://www.w3.org/2000/svg" xmlns:xlink="http://www.w3.org/1999/xlink" xml:space="preserve" onload="init(evt)">
<style type="text/css"><![CDATA[
.edge:hover path { stroke: red; }
.edge:hover polygon { stroke: red; fill: red; }
]]></style>
<script type="text/javascript"><![CDATA[
var edges = document.getElementsByTagName('g');
if (edges && edges.length) {
  for (var i=0;i<edges.length;i++) {
    if (edges[i].id.substr(0,4)=='edge') {
      edges[i].setAttribute('class','edge');
    }
  }
}
]]></script>
        <defs>
                <circle id="rim" cx="0" cy="0" r="7"/>
                <circle id="rim2" cx="0" cy="0" r="3.5"/>
                <g id="zoomPlus">
                        <use xlink:href="#rim" fill="#404040">
                                <set attributeName="fill" to="#808080" begin="zoomplus.mouseover" end="zoomplus.mouseout"/>
                        </use>
                        <path d="M-4,0h8M0,-4v8" fill="none" stroke="white" stroke-width="1.5" pointer-events="none"/>
                </g>
                <g id="zoomMin">
                        <use xlink:href="#rim" fill="#404040">
                                <set attributeName="fill" to="#808080" begin="zoomminus.mouseover" end="zoomminus.mouseout"/>
                        </use>
                        <path d="M-4,0h8" fill="none" stroke="white" stroke-width="1.5" pointer-events="none"/>
                </g>
                <g id="dirArrow">
                        <path fill="none" stroke="white" stroke-width="1.5" d="M0,-3.0v7 M-2.5,-0.5L0,-3.0L2.5,-0.5"/>
                </g>
               <g id="resetDef">
                       <use xlink:href="#rim2" fill="#404040">
                               <set attributeName="fill" to="#808080" begin="reset.mouseover" end="reset.mouseout"/>
                       </use>
               </g>
        </defs>

<script type="text/javascript">
var viewWidth = 2148;
var viewHeight = 665;
var sectionId = 'dynsection-1';
</script>
<script xlink:href="svgpan.js"/>
<svg id="graph" class="graph">
<g id="viewport">
<title>include/ccf/service/tables/members.h</title>
<polygon fill="white" stroke="transparent" points="-4,4 -4,-661 2143.97,-661 2143.97,4 -4,4"/>
<!-- Node1 -->
<g id="node1" class="node">
<title>Node1</title>
<g id="a_node1"><a xlink:title=" ">
<polygon fill="#bfbfbf" stroke="black" points="538.47,-626.5 538.47,-656.5 646.47,-656.5 646.47,-626.5 538.47,-626.5"/>
<text text-anchor="start" x="546.47" y="-644.5" font-family="Helvetica,sans-Serif" font-size="10.00">include/ccf/service</text>
<text text-anchor="middle" x="592.47" y="-633.5" font-family="Helvetica,sans-Serif" font-size="10.00">/tables/members.h</text>
</a>
</g>
</g>
<!-- Node2 -->
<g id="node2" class="node">
<title>Node2</title>
<g id="a_node2"><a xlink:href="common_2configuration_8h.html" target="_top" xlink:title=" ">
<polygon fill="white" stroke="black" points="301.47,-565 301.47,-584 453.47,-584 453.47,-565 301.47,-565"/>
<text text-anchor="middle" x="377.47" y="-572" font-family="Helvetica,sans-Serif" font-size="10.00">src/common/configuration.h</text>
</a>
</g>
</g>
<!-- Node1&#45;&gt;Node2 -->
<g id="edge1" class="edge">
<title>Node1&#45;&gt;Node2</title>
<path fill="none" stroke="midnightblue" d="M536.28,-623.51C494.32,-610.83 438.74,-594.02 405.68,-584.03"/>
<polygon fill="midnightblue" stroke="midnightblue" points="535.5,-626.93 546.09,-626.48 537.53,-620.23 535.5,-626.93"/>
</g>
<!-- Node5 -->
<g id="node5" class="node">
<title>Node5</title>
<g id="a_node5"><a xlink:href="node__call__types_8h.html" target="_top" xlink:title=" ">
<polygon fill="white" stroke="black" points="314.97,-492.5 314.97,-522.5 439.97,-522.5 439.97,-492.5 314.97,-492.5"/>
<text text-anchor="start" x="322.97" y="-510.5" font-family="Helvetica,sans-Serif" font-size="10.00">src/node/rpc/node_call</text>
<text text-anchor="middle" x="377.47" y="-499.5" font-family="Helvetica,sans-Serif" font-size="10.00">_types.h</text>
</a>
</g>
</g>
<!-- Node1&#45;&gt;Node5 -->
<g id="edge31" class="edge">
<title>Node1&#45;&gt;Node5</title>
<path fill="none" stroke="midnightblue" d="M561.76,-620.95C535.5,-604.31 496.64,-579.86 462.47,-559 442.11,-546.57 418.8,-532.75 401.75,-522.71"/>
<polygon fill="midnightblue" stroke="midnightblue" points="560.17,-624.09 570.49,-626.5 563.92,-618.18 560.17,-624.09"/>
</g>
<!-- Node15 -->
<g id="node15" class="node">
<title>Node15</title>
<g id="a_node15"><a xlink:href="member__frontend_8h.html" target="_top" xlink:title=" ">
<polygon fill="white" stroke="black" points="495.47,-224.5 495.47,-254.5 615.47,-254.5 615.47,-224.5 495.47,-224.5"/>
<text text-anchor="start" x="503.47" y="-242.5" font-family="Helvetica,sans-Serif" font-size="10.00">src/node/rpc/member</text>
<text text-anchor="middle" x="555.47" y="-231.5" font-family="Helvetica,sans-Serif" font-size="10.00">_frontend.h</text>
</a>
</g>
</g>
<!-- Node1&#45;&gt;Node15 -->
<g id="edge30" class="edge">
<title>Node1&#45;&gt;Node15</title>
<path fill="none" stroke="midnightblue" d="M575.92,-617.83C559.09,-592.5 535.47,-549.63 535.47,-508.5 535.47,-508.5 535.47,-508.5 535.47,-372.5 535.47,-329.16 546.15,-278.7 551.9,-254.65"/>
<polygon fill="midnightblue" stroke="midnightblue" points="573.21,-620.06 581.75,-626.33 578.98,-616.1 573.21,-620.06"/>
</g>
<!-- Node19 -->
<g id="node19" class="node">
<title>Node19</title>
<g id="a_node19"><a xlink:href="cert__auth_8cpp.html" target="_top" xlink:title=" ">
<polygon fill="white" stroke="black" points="639.97,-559.5 639.97,-589.5 794.97,-589.5 794.97,-559.5 639.97,-559.5"/>
<text text-anchor="start" x="647.97" y="-577.5" font-family="Helvetica,sans-Serif" font-size="10.00">src/endpoints/authentication</text>
<text text-anchor="middle" x="717.47" y="-566.5" font-family="Helvetica,sans-Serif" font-size="10.00">/cert_auth.cpp</text>
</a>
</g>
</g>
<!-- Node1&#45;&gt;Node19 -->
<g id="edge27" class="edge">
<title>Node1&#45;&gt;Node19</title>
<path fill="none" stroke="midnightblue" d="M628.6,-621.71C648.31,-611.46 672.32,-598.98 690.4,-589.58"/>
<polygon fill="midnightblue" stroke="midnightblue" points="626.85,-618.68 619.6,-626.4 630.08,-624.89 626.85,-618.68"/>
</g>
<!-- Node20 -->
<g id="node20" class="node">
<title>Node20</title>
<g id="a_node20"><a xlink:href="sig__auth_8cpp.html" target="_top" xlink:title=" ">
<polygon fill="white" stroke="black" points="812.97,-559.5 812.97,-589.5 967.97,-589.5 967.97,-559.5 812.97,-559.5"/>
<text text-anchor="start" x="820.97" y="-577.5" font-family="Helvetica,sans-Serif" font-size="10.00">src/endpoints/authentication</text>
<text text-anchor="middle" x="890.47" y="-566.5" font-family="Helvetica,sans-Serif" font-size="10.00">/sig_auth.cpp</text>
</a>
</g>
</g>
<!-- Node1&#45;&gt;Node20 -->
<g id="edge28" class="edge">
<title>Node1&#45;&gt;Node20</title>
<path fill="none" stroke="midnightblue" d="M656.85,-626.46C706.94,-615.53 776.11,-600.45 826.17,-589.53"/>
<polygon fill="midnightblue" stroke="midnightblue" points="655.81,-623.1 646.79,-628.65 657.3,-629.94 655.81,-623.1"/>
</g>
<!-- Node21 -->
<g id="node21" class="node">
<title>Node21</title>
<g id="a_node21"><a xlink:href="base__endpoint__registry_8cpp.html" target="_top" xlink:title=" ">
<polygon fill="white" stroke="black" points="986.47,-559.5 986.47,-589.5 1112.47,-589.5 1112.47,-559.5 986.47,-559.5"/>
<text text-anchor="start" x="994.47" y="-577.5" font-family="Helvetica,sans-Serif" font-size="10.00">src/endpoints/base</text>
<text text-anchor="middle" x="1049.47" y="-566.5" font-family="Helvetica,sans-Serif" font-size="10.00">_endpoint_registry.cpp</text>
</a>
</g>
</g>
<!-- Node1&#45;&gt;Node21 -->
<g id="edge29" class="edge">
<title>Node1&#45;&gt;Node21</title>
<path fill="none" stroke="midnightblue" d="M656.5,-633.46C733.06,-624.72 864.98,-608.68 977.47,-590 980.37,-589.52 983.32,-589.01 986.3,-588.48"/>
<polygon fill="midnightblue" stroke="midnightblue" points="656.07,-629.98 646.53,-634.59 656.86,-636.94 656.07,-629.98"/>
</g>
<!-- Node22 -->
<g id="node22" class="node">
<title>Node22</title>
<g id="a_node22"><a xlink:href="genesis__gen_8h.html" target="_top" xlink:title=" ">
<polygon fill="white" stroke="black" points="732.47,-358.5 732.47,-388.5 842.47,-388.5 842.47,-358.5 732.47,-358.5"/>
<text text-anchor="start" x="740.47" y="-376.5" font-family="Helvetica,sans-Serif" font-size="10.00">src/service/genesis</text>
<text text-anchor="middle" x="787.47" y="-365.5" font-family="Helvetica,sans-Serif" font-size="10.00">_gen.h</text>
</a>
</g>
</g>
<!-- Node1&#45;&gt;Node22 -->
<g id="edge32" class="edge">
<title>Node1&#45;&gt;Node22</title>
<path fill="none" stroke="midnightblue" d="M592.12,-616.3C592.79,-599.43 595.55,-576.84 604.47,-559 643.32,-481.33 727.22,-416.14 766.45,-388.59"/>
<polygon fill="midnightblue" stroke="midnightblue" points="588.62,-616.39 591.95,-626.45 595.62,-616.51 588.62,-616.39"/>
</g>
<!-- Node25 -->
<g id="node25" class="node">
<title>Node25</title>
<g id="a_node25"><a xlink:href="network__tables_8h.html" target="_top" xlink:title=" ">
<polygon fill="white" stroke="black" points="944.47,-425.5 944.47,-455.5 1056.47,-455.5 1056.47,-425.5 944.47,-425.5"/>
<text text-anchor="start" x="952.47" y="-443.5" font-family="Helvetica,sans-Serif" font-size="10.00">src/service/network</text>
<text text-anchor="middle" x="1000.47" y="-432.5" font-family="Helvetica,sans-Serif" font-size="10.00">_tables.h</text>
</a>
</g>
</g>
<!-- Node1&#45;&gt;Node25 -->
<g id="edge41" class="edge">
<title>Node1&#45;&gt;Node25</title>
<path fill="none" stroke="midnightblue" d="M598.07,-616.42C603.48,-598.26 613.42,-573.99 630.47,-559 720.97,-479.47 865.48,-453.72 944.45,-445.42"/>
<polygon fill="midnightblue" stroke="midnightblue" points="594.63,-615.72 595.39,-626.29 601.39,-617.56 594.63,-615.72"/>
</g>
<!-- Node3 -->
<g id="node3" class="node">
<title>Node3</title>
<g id="a_node3"><a xlink:href="host_2configuration_8h.html" target="_top" xlink:title=" ">
<polygon fill="white" stroke="black" points="159.97,-498 159.97,-517 290.97,-517 290.97,-498 159.97,-498"/>
<text text-anchor="middle" x="225.47" y="-505" font-family="Helvetica,sans-Serif" font-size="10.00">src/host/configuration.h</text>
</a>
</g>
</g>
<!-- Node2&#45;&gt;Node3 -->
<g id="edge2" class="edge">
<title>Node2&#45;&gt;Node3</title>
<path fill="none" stroke="midnightblue" d="M347.73,-560.78C317.63,-547.91 271.9,-528.35 245.74,-517.17"/>
<polygon fill="midnightblue" stroke="midnightblue" points="346.72,-564.15 357.29,-564.87 349.47,-557.72 346.72,-564.15"/>
</g>
<!-- Node2&#45;&gt;Node5 -->
<g id="edge4" class="edge">
<title>Node2&#45;&gt;Node5</title>
<path fill="none" stroke="midnightblue" d="M377.47,-554.41C377.47,-544.22 377.47,-531.9 377.47,-522.59"/>
<polygon fill="midnightblue" stroke="midnightblue" points="373.97,-554.73 377.47,-564.73 380.97,-554.73 373.97,-554.73"/>
</g>
<!-- Node4 -->
<g id="node4" class="node">
<title>Node4</title>
<g id="a_node4"><a xlink:href="host_2main_8cpp.html" target="_top" xlink:title=" ">
<polygon fill="white" stroke="black" points="148.97,-431 148.97,-450 251.97,-450 251.97,-431 148.97,-431"/>
<text text-anchor="middle" x="200.47" y="-438" font-family="Helvetica,sans-Serif" font-size="10.00">src/host/main.cpp</text>
</a>
</g>
</g>
<!-- Node3&#45;&gt;Node4 -->
<g id="edge3" class="edge">
<title>Node3&#45;&gt;Node4</title>
<path fill="none" stroke="midnightblue" d="M218.47,-488.29C213.67,-475.81 207.52,-459.81 203.79,-450.13"/>
<polygon fill="midnightblue" stroke="midnightblue" points="215.25,-489.66 222.1,-497.73 221.78,-487.14 215.25,-489.66"/>
</g>
<!-- Node6 -->
<g id="node6" class="node">
<title>Node6</title>
<g id="a_node6"><a xlink:href="call__types_8h.html" target="_top" xlink:title=" ">
<polygon fill="white" stroke="black" points="269.97,-431 269.97,-450 406.97,-450 406.97,-431 269.97,-431"/>
<text text-anchor="middle" x="338.47" y="-438" font-family="Helvetica,sans-Serif" font-size="10.00">src/node/rpc/call_types.h</text>
</a>
</g>
</g>
<!-- Node5&#45;&gt;Node6 -->
<g id="edge5" class="edge">
<title>Node5&#45;&gt;Node6</title>
<path fill="none" stroke="midnightblue" d="M363.75,-483.63C356.81,-472.07 348.8,-458.71 343.69,-450.19"/>
<polygon fill="midnightblue" stroke="midnightblue" points="360.87,-485.62 369.01,-492.4 366.87,-482.02 360.87,-485.62"/>
</g>
<!-- Node7 -->
<g id="node7" class="node">
<title>Node7</title>
<g id="a_node7"><a xlink:href="nobuiltins_8cpp.html" target="_top" xlink:title=" ">
<polygon fill="white" stroke="black" points="15.97,-291.5 15.97,-321.5 150.97,-321.5 150.97,-291.5 15.97,-291.5"/>
<text text-anchor="start" x="23.97" y="-309.5" font-family="Helvetica,sans-Serif" font-size="10.00">samples/apps/nobuiltins</text>
<text text-anchor="middle" x="83.47" y="-298.5" font-family="Helvetica,sans-Serif" font-size="10.00">/nobuiltins.cpp</text>
</a>
</g>
</g>
<!-- Node6&#45;&gt;Node7 -->
<g id="edge6" class="edge">
<title>Node6&#45;&gt;Node7</title>
<path fill="none" stroke="midnightblue" d="M311.31,-426.51C290.46,-416.47 261.02,-402.11 235.47,-389 190.72,-366.04 139.24,-338.11 109.14,-321.63"/>
<polygon fill="midnightblue" stroke="midnightblue" points="309.98,-429.76 320.51,-430.94 313.02,-423.45 309.98,-429.76"/>
</g>
<!-- Node8 -->
<g id="node8" class="node">
<title>Node8</title>
<g id="a_node8"><a xlink:href="common__endpoint__registry_8cpp.html" target="_top" xlink:title=" ">
<polygon fill="white" stroke="black" points="169.47,-291.5 169.47,-321.5 297.47,-321.5 297.47,-291.5 169.47,-291.5"/>
<text text-anchor="start" x="177.47" y="-309.5" font-family="Helvetica,sans-Serif" font-size="10.00">src/endpoints/common</text>
<text text-anchor="middle" x="233.47" y="-298.5" font-family="Helvetica,sans-Serif" font-size="10.00">_endpoint_registry.cpp</text>
</a>
</g>
</g>
<!-- Node6&#45;&gt;Node8 -->
<g id="edge7" class="edge">
<title>Node6&#45;&gt;Node8</title>
<path fill="none" stroke="midnightblue" d="M303.62,-426.87C285.79,-418.69 265.2,-406.3 252.47,-389 237.66,-368.87 234.18,-339 233.48,-321.57"/>
<polygon fill="midnightblue" stroke="midnightblue" points="302.61,-430.24 313.18,-430.98 305.38,-423.81 302.61,-430.24"/>
</g>
<!-- Node9 -->
<g id="node9" class="node">
<title>Node9</title>
<g id="a_node9"><a xlink:href="wrap_8cpp.html" target="_top" xlink:title=" ">
<polygon fill="white" stroke="black" points="1524.97,-168.5 1524.97,-187.5 1613.97,-187.5 1613.97,-168.5 1524.97,-168.5"/>
<text text-anchor="middle" x="1569.47" y="-175.5" font-family="Helvetica,sans-Serif" font-size="10.00">src/js/wrap.cpp</text>
</a>
</g>
</g>
<!-- Node6&#45;&gt;Node9 -->
<g id="edge8" class="edge">
<title>Node6&#45;&gt;Node9</title>
<path fill="none" stroke="midnightblue" d="M417.32,-437.99C640.07,-433.39 1260.08,-418.02 1292.47,-389 1325.12,-359.76 1331.67,-324.55 1303.47,-291 1241.53,-217.3 1032.71,-295.24 1097.47,-224 1125.92,-192.71 1412.85,-182.66 1524.94,-179.91"/>
<polygon fill="midnightblue" stroke="midnightblue" points="416.95,-434.5 407.02,-438.21 417.09,-441.5 416.95,-434.5"/>
</g>
<!-- Node10 -->
<g id="node10" class="node">
<title>Node10</title>
<g id="a_node10"><a xlink:href="resharing_8h.html" target="_top" xlink:title=" ">
<polygon fill="white" stroke="black" points="353.47,-297 353.47,-316 469.47,-316 469.47,-297 353.47,-297"/>
<text text-anchor="middle" x="411.47" y="-304" font-family="Helvetica,sans-Serif" font-size="10.00">src/node/resharing.h</text>
</a>
</g>
</g>
<!-- Node6&#45;&gt;Node10 -->
<g id="edge9" class="edge">
<title>Node6&#45;&gt;Node10</title>
<path fill="none" stroke="midnightblue" d="M374.01,-426.58C390.67,-418.51 408.93,-406.31 418.47,-389 431.57,-365.25 421.23,-331.57 415.13,-316"/>
<polygon fill="midnightblue" stroke="midnightblue" points="372.15,-423.57 364.46,-430.85 375.01,-429.96 372.15,-423.57"/>
</g>
<!-- Node6&#45;&gt;Node15 -->
<g id="edge15" class="edge">
<title>Node6&#45;&gt;Node15</title>
<path fill="none" stroke="midnightblue" d="M285.97,-428.78C200.72,-410.18 38.48,-369.33 6.47,-322 -1.24,-310.59 -2.81,-301.18 6.47,-291 38.93,-255.42 359.64,-244.57 495.34,-241.56"/>
<polygon fill="midnightblue" stroke="midnightblue" points="285.45,-432.25 295.97,-430.94 286.93,-425.41 285.45,-432.25"/>
</g>
<!-- Node16 -->
<g id="node16" class="node">
<title>Node16</title>
<g id="a_node16"><a xlink:href="serialization_8h.html" target="_top" xlink:title=" ">
<polygon fill="white" stroke="black" points="261.47,-364 261.47,-383 409.47,-383 409.47,-364 261.47,-364"/>
<text text-anchor="middle" x="335.47" y="-371" font-family="Helvetica,sans-Serif" font-size="10.00">src/node/rpc/serialization.h</text>
</a>
</g>
</g>
<!-- Node6&#45;&gt;Node16 -->
<g id="edge17" class="edge">
<title>Node6&#45;&gt;Node16</title>
<path fill="none" stroke="midnightblue" d="M337.6,-420.54C337.03,-408.17 336.31,-392.62 335.87,-383.13"/>
<polygon fill="midnightblue" stroke="midnightblue" points="334.11,-420.91 338.07,-430.73 341.1,-420.58 334.11,-420.91"/>
</g>
<!-- Node11 -->
<g id="node11" class="node">
<title>Node11</title>
<g id="a_node11"><a xlink:href="node__state_8h.html" target="_top" xlink:title=" ">
<polygon fill="white" stroke="black" points="845.47,-168.5 845.47,-187.5 969.47,-187.5 969.47,-168.5 845.47,-168.5"/>
<text text-anchor="middle" x="907.47" y="-175.5" font-family="Helvetica,sans-Serif" font-size="10.00">src/node/node_state.h</text>
</a>
</g>
</g>
<!-- Node10&#45;&gt;Node11 -->
<g id="edge10" class="edge">
<title>Node10&#45;&gt;Node11</title>
<path fill="none" stroke="midnightblue" d="M421.82,-288.27C434.43,-268.97 457.68,-238.51 486.47,-224 547.77,-193.12 743.68,-183.35 845.18,-180.32"/>
<polygon fill="midnightblue" stroke="midnightblue" points="418.71,-286.63 416.36,-296.96 424.64,-290.36 418.71,-286.63"/>
</g>
<!-- Node12 -->
<g id="node12" class="node">
<title>Node12</title>
<g id="a_node12"><a xlink:href="enclave_2enclave_8h.html" target="_top" xlink:title=" ">
<polygon fill="white" stroke="black" points="946.47,-56.5 946.47,-75.5 1068.47,-75.5 1068.47,-56.5 946.47,-56.5"/>
<text text-anchor="middle" x="1007.47" y="-63.5" font-family="Helvetica,sans-Serif" font-size="10.00">src/enclave/enclave.h</text>
</a>
</g>
</g>
<!-- Node11&#45;&gt;Node12 -->
<g id="edge11" class="edge">
<title>Node11&#45;&gt;Node12</title>
<path fill="none" stroke="midnightblue" d="M943.23,-164.41C959.12,-157.17 976.83,-146.57 988.47,-132 1001.98,-115.1 1005.88,-88.91 1007.02,-75.52"/>
<polygon fill="midnightblue" stroke="midnightblue" points="941.47,-161.36 933.64,-168.49 944.21,-167.8 941.47,-161.36"/>
</g>
<!-- Node14 -->
<g id="node14" class="node">
<title>Node14</title>
<g id="a_node14"><a xlink:href="gov__effects_8h.html" target="_top" xlink:title=" ">
<polygon fill="white" stroke="black" points="835.47,-112.5 835.47,-131.5 979.47,-131.5 979.47,-112.5 835.47,-112.5"/>
<text text-anchor="middle" x="907.47" y="-119.5" font-family="Helvetica,sans-Serif" font-size="10.00">src/node/rpc/gov_effects.h</text>
</a>
</g>
</g>
<!-- Node11&#45;&gt;Node14 -->
<g id="edge13" class="edge">
<title>Node11&#45;&gt;Node14</title>
<path fill="none" stroke="midnightblue" d="M907.47,-157.8C907.47,-148.91 907.47,-138.78 907.47,-131.75"/>
<polygon fill="midnightblue" stroke="midnightblue" points="903.97,-158.08 907.47,-168.08 910.97,-158.08 903.97,-158.08"/>
</g>
<!-- Node13 -->
<g id="node13" class="node">
<title>Node13</title>
<g id="a_node13"><a xlink:href="enclave_2main_8cpp.html" target="_top" xlink:title=" ">
<polygon fill="white" stroke="black" points="947.47,-0.5 947.47,-19.5 1067.47,-19.5 1067.47,-0.5 947.47,-0.5"/>
<text text-anchor="middle" x="1007.47" y="-7.5" font-family="Helvetica,sans-Serif" font-size="10.00">src/enclave/main.cpp</text>
</a>
</g>
</g>
<!-- Node12&#45;&gt;Node13 -->
<g id="edge12" class="edge">
<title>Node12&#45;&gt;Node13</title>
<path fill="none" stroke="midnightblue" d="M1007.47,-45.8C1007.47,-36.91 1007.47,-26.78 1007.47,-19.75"/>
<polygon fill="midnightblue" stroke="midnightblue" points="1003.97,-46.08 1007.47,-56.08 1010.97,-46.08 1003.97,-46.08"/>
</g>
<!-- Node14&#45;&gt;Node12 -->
<g id="edge14" class="edge">
<title>Node14&#45;&gt;Node12</title>
<path fill="none" stroke="midnightblue" d="M932.56,-107.45C951.02,-97.48 975.57,-84.23 991.45,-75.65"/>
<polygon fill="midnightblue" stroke="midnightblue" points="930.68,-104.49 923.54,-112.32 934,-110.65 930.68,-104.49"/>
</g>
<!-- Node15&#45;&gt;Node12 -->
<g id="edge16" class="edge">
<title>Node15&#45;&gt;Node12</title>
<path fill="none" stroke="midnightblue" d="M562.34,-214.27C572.07,-184.78 592.89,-135.97 629.47,-112 680.26,-78.73 852.89,-70.03 946.28,-67.78"/>
<polygon fill="midnightblue" stroke="midnightblue" points="558.89,-213.59 559.25,-224.18 565.57,-215.67 558.89,-213.59"/>
</g>
<!-- Node16&#45;&gt;Node7 -->
<g id="edge18" class="edge">
<title>Node16&#45;&gt;Node7</title>
<path fill="none" stroke="midnightblue" d="M292.47,-361.41C249.81,-350.4 184.27,-333.5 137.98,-321.56"/>
<polygon fill="midnightblue" stroke="midnightblue" points="291.71,-364.83 302.27,-363.94 293.46,-358.05 291.71,-364.83"/>
</g>
<!-- Node16&#45;&gt;Node8 -->
<g id="edge19" class="edge">
<title>Node16&#45;&gt;Node8</title>
<path fill="none" stroke="midnightblue" d="M312.96,-358.15C295.89,-347.27 272.55,-332.4 255.58,-321.59"/>
<polygon fill="midnightblue" stroke="midnightblue" points="311.4,-361.31 321.72,-363.73 315.17,-355.41 311.4,-361.31"/>
</g>
<!-- Node16&#45;&gt;Node10 -->
<g id="edge21" class="edge">
<title>Node16&#45;&gt;Node10</title>
<path fill="none" stroke="midnightblue" d="M353.35,-357.21C368.32,-344.41 389.16,-326.59 401.39,-316.13"/>
<polygon fill="midnightblue" stroke="midnightblue" points="351.05,-354.57 345.72,-363.73 355.6,-359.89 351.05,-354.57"/>
</g>
<!-- Node16&#45;&gt;Node11 -->
<g id="edge20" class="edge">
<title>Node16&#45;&gt;Node11</title>
<path fill="none" stroke="midnightblue" d="M333.24,-353.82C332.09,-336.3 332.86,-310.04 344.47,-291 372.52,-245.01 394.72,-242.04 445.47,-224 517.52,-198.4 736.58,-186.03 845.14,-181.34"/>
<polygon fill="midnightblue" stroke="midnightblue" points="329.77,-354.26 334.18,-363.9 336.74,-353.61 329.77,-354.26"/>
</g>
<!-- Node16&#45;&gt;Node15 -->
<g id="edge22" class="edge">
<title>Node16&#45;&gt;Node15</title>
<path fill="none" stroke="midnightblue" d="M384.64,-361.35C413.52,-353.33 449.85,-340.62 478.47,-322 506.87,-303.53 532.24,-272.52 545.57,-254.55"/>
<polygon fill="midnightblue" stroke="midnightblue" points="383.52,-358.03 374.76,-363.99 385.33,-364.79 383.52,-358.03"/>
</g>
<!-- Node17 -->
<g id="node17" class="node">
<title>Node17</title>
<g id="a_node17"><a xlink:href="node__frontend_8h.html" target="_top" xlink:title=" ">
<polygon fill="white" stroke="black" points="601.47,-297 601.47,-316 759.47,-316 759.47,-297 601.47,-297"/>
<text text-anchor="middle" x="680.47" y="-304" font-family="Helvetica,sans-Serif" font-size="10.00">src/node/rpc/node_frontend.h</text>
</a>
</g>
</g>
<!-- Node16&#45;&gt;Node17 -->
<g id="edge23" class="edge">
<title>Node16&#45;&gt;Node17</title>
<path fill="none" stroke="midnightblue" d="M391.01,-362.04C458.86,-349.25 572.37,-327.87 635.19,-316.03"/>
<polygon fill="midnightblue" stroke="midnightblue" points="390.11,-358.64 380.93,-363.94 391.41,-365.52 390.11,-358.64"/>
</g>
<!-- Node17&#45;&gt;Node12 -->
<g id="edge24" class="edge">
<title>Node17&#45;&gt;Node12</title>
<path fill="none" stroke="midnightblue" d="M670.37,-287.97C661.9,-270.79 652.78,-244.32 663.47,-224 704.41,-146.21 746.32,-148.07 826.47,-112 866.49,-94 914.85,-82.44 951.51,-75.56"/>
<polygon fill="midnightblue" stroke="midnightblue" points="667.33,-289.71 675.12,-296.89 673.5,-286.42 667.33,-289.71"/>
</g>
<!-- Node18 -->
<g id="node18" class="node">
<title>Node18</title>
<g id="a_node18"><a xlink:href="jwt__key__auto__refresh_8h.html" target="_top" xlink:title=" ">
<polygon fill="white" stroke="black" points="671.97,-224.5 671.97,-254.5 796.97,-254.5 796.97,-224.5 671.97,-224.5"/>
<text text-anchor="start" x="679.97" y="-242.5" font-family="Helvetica,sans-Serif" font-size="10.00">src/node/jwt_key_auto</text>
<text text-anchor="middle" x="734.47" y="-231.5" font-family="Helvetica,sans-Serif" font-size="10.00">_refresh.h</text>
</a>
</g>
</g>
<!-- Node17&#45;&gt;Node18 -->
<g id="edge25" class="edge">
<title>Node17&#45;&gt;Node18</title>
<path fill="none" stroke="midnightblue" d="M694.19,-288.99C703.02,-278.36 714.37,-264.7 722.77,-254.59"/>
<polygon fill="midnightblue" stroke="midnightblue" points="691.46,-286.81 687.76,-296.73 696.84,-291.28 691.46,-286.81"/>
</g>
<!-- Node18&#45;&gt;Node11 -->
<g id="edge26" class="edge">
<title>Node18&#45;&gt;Node11</title>
<path fill="none" stroke="midnightblue" d="M785.14,-221.08C817.18,-210.05 857.2,-196.29 882.55,-187.57"/>
<polygon fill="midnightblue" stroke="midnightblue" points="783.79,-217.84 775.47,-224.4 786.07,-224.46 783.79,-217.84"/>
</g>
<!-- Node22&#45;&gt;Node11 -->
<g id="edge33" class="edge">
<title>Node22&#45;&gt;Node11</title>
<path fill="none" stroke="midnightblue" d="M790.3,-348.08C792.98,-331.29 798.06,-308.87 807.47,-291 831.04,-246.26 876.32,-205.01 896.87,-187.65"/>
<polygon fill="midnightblue" stroke="midnightblue" points="786.8,-347.81 788.86,-358.21 793.73,-348.8 786.8,-347.81"/>
</g>
<!-- Node22&#45;&gt;Node15 -->
<g id="edge34" class="edge">
<title>Node22&#45;&gt;Node15</title>
<path fill="none" stroke="midnightblue" d="M722.07,-369.67C680.77,-364.74 628.58,-352.35 592.47,-322 571.66,-304.5 562.01,-272.84 557.99,-254.56"/>
<polygon fill="midnightblue" stroke="midnightblue" points="721.74,-373.15 732.05,-370.74 722.48,-366.19 721.74,-373.15"/>
</g>
<!-- Node22&#45;&gt;Node17 -->
<g id="edge35" class="edge">
<title>Node22&#45;&gt;Node17</title>
<path fill="none" stroke="midnightblue" d="M755.61,-353.14C735.27,-340.79 709.92,-325.39 694.48,-316.01"/>
<polygon fill="midnightblue" stroke="midnightblue" points="753.89,-356.2 764.26,-358.4 757.53,-350.21 753.89,-356.2"/>
</g>
<!-- Node23 -->
<g id="node23" class="node">
<title>Node23</title>
<g id="a_node23"><a xlink:href="secret__broadcast_8h.html" target="_top" xlink:title=" ">
<polygon fill="white" stroke="black" points="978.97,-297 978.97,-316 1131.97,-316 1131.97,-297 978.97,-297"/>
<text text-anchor="middle" x="1055.47" y="-304" font-family="Helvetica,sans-Serif" font-size="10.00">src/node/secret_broadcast.h</text>
</a>
</g>
</g>
<!-- Node22&#45;&gt;Node23 -->
<g id="edge36" class="edge">
<title>Node22&#45;&gt;Node23</title>
<path fill="none" stroke="midnightblue" d="M852.64,-356.7C905.46,-343.88 977.88,-326.32 1020.38,-316.01"/>
<polygon fill="midnightblue" stroke="midnightblue" points="851.57,-353.35 842.68,-359.11 853.22,-360.16 851.57,-353.35"/>
</g>
<!-- Node24 -->
<g id="node24" class="node">
<title>Node24</title>
<g id="a_node24"><a xlink:href="share__manager_8h.html" target="_top" xlink:title=" ">
<polygon fill="white" stroke="black" points="815.97,-297 815.97,-316 960.97,-316 960.97,-297 815.97,-297"/>
<text text-anchor="middle" x="888.47" y="-304" font-family="Helvetica,sans-Serif" font-size="10.00">src/node/share_manager.h</text>
</a>
</g>
</g>
<!-- Node22&#45;&gt;Node24 -->
<g id="edge38" class="edge">
<title>Node22&#45;&gt;Node24</title>
<path fill="none" stroke="midnightblue" d="M817.81,-352.97C836.97,-340.65 860.75,-325.35 875.26,-316.01"/>
<polygon fill="midnightblue" stroke="midnightblue" points="815.9,-350.04 809.39,-358.4 819.69,-355.93 815.9,-350.04"/>
</g>
<!-- Node23&#45;&gt;Node11 -->
<g id="edge37" class="edge">
<title>Node23&#45;&gt;Node11</title>
<path fill="none" stroke="midnightblue" d="M1016.89,-293.42C995.42,-285.21 969.3,-272.62 950.47,-255 929.44,-235.32 915.94,-202.99 910.38,-187.63"/>
<polygon fill="midnightblue" stroke="midnightblue" points="1015.79,-296.74 1026.39,-296.88 1018.19,-290.16 1015.79,-296.74"/>
</g>
<!-- Node24&#45;&gt;Node11 -->
<g id="edge39" class="edge">
<title>Node24&#45;&gt;Node11</title>
<path fill="none" stroke="midnightblue" d="M891.28,-286.81C895.45,-259.08 903.1,-208.13 906.16,-187.76"/>
<polygon fill="midnightblue" stroke="midnightblue" points="887.8,-286.4 889.78,-296.81 894.73,-287.44 887.8,-286.4"/>
</g>
<!-- Node24&#45;&gt;Node15 -->
<g id="edge40" class="edge">
<title>Node24&#45;&gt;Node15</title>
<path fill="none" stroke="midnightblue" d="M834.57,-294.98C774.57,-283.27 677.88,-264.39 615.51,-252.22"/>
<polygon fill="midnightblue" stroke="midnightblue" points="834.11,-298.45 844.6,-296.94 835.45,-291.58 834.11,-298.45"/>
</g>
<!-- Node25&#45;&gt;Node22 -->
<g id="edge68" class="edge">
<title>Node25&#45;&gt;Node22</title>
<path fill="none" stroke="midnightblue" d="M944.58,-422.44C910.06,-411.91 866.28,-398.55 833.71,-388.61"/>
<polygon fill="midnightblue" stroke="midnightblue" points="943.93,-425.9 954.52,-425.48 945.98,-419.21 943.93,-425.9"/>
</g>
<!-- Node26 -->
<g id="node26" class="node">
<title>Node26</title>
<g id="a_node26"><a xlink:href="kv__module__loader_8cpp.html" target="_top" xlink:title=" ">
<polygon fill="white" stroke="black" points="1371.97,-358.5 1371.97,-388.5 1514.97,-388.5 1514.97,-358.5 1371.97,-358.5"/>
<text text-anchor="start" x="1379.97" y="-376.5" font-family="Helvetica,sans-Serif" font-size="10.00">src/apps/js_v8/kv_module</text>
<text text-anchor="middle" x="1443.47" y="-365.5" font-family="Helvetica,sans-Serif" font-size="10.00">_loader.cpp</text>
</a>
</g>
</g>
<!-- Node25&#45;&gt;Node26 -->
<g id="edge42" class="edge">
<title>Node25&#45;&gt;Node26</title>
<path fill="none" stroke="midnightblue" d="M1066.74,-430.66C1138.48,-420.97 1256.21,-404.7 1357.47,-389 1362.11,-388.28 1366.89,-387.52 1371.7,-386.75"/>
<polygon fill="midnightblue" stroke="midnightblue" points="1065.94,-427.24 1056.5,-432.04 1066.88,-434.17 1065.94,-427.24"/>
</g>
<!-- Node27 -->
<g id="node27" class="node">
<title>Node27</title>
<g id="a_node27"><a xlink:href="network__state_8h.html" target="_top" xlink:title=" ">
<polygon fill="white" stroke="black" points="1143.47,-364 1143.47,-383 1283.47,-383 1283.47,-364 1143.47,-364"/>
<text text-anchor="middle" x="1213.47" y="-371" font-family="Helvetica,sans-Serif" font-size="10.00">src/node/network_state.h</text>
</a>
</g>
</g>
<!-- Node25&#45;&gt;Node27 -->
<g id="edge43" class="edge">
<title>Node25&#45;&gt;Node27</title>
<path fill="none" stroke="midnightblue" d="M1056.15,-422.51C1097.72,-409.83 1152.78,-393.02 1185.53,-383.03"/>
<polygon fill="midnightblue" stroke="midnightblue" points="1054.97,-419.21 1046.43,-425.48 1057.02,-425.9 1054.97,-419.21"/>
</g>
<!-- Node27&#45;&gt;Node11 -->
<g id="edge60" class="edge">
<title>Node27&#45;&gt;Node11</title>
<path fill="none" stroke="midnightblue" d="M1240.48,-358.97C1269.11,-342.88 1307.53,-315.17 1286.47,-291 1248.16,-247.02 1080.5,-277 1026.47,-255 1004.99,-246.25 1003.85,-236.76 984.47,-224 963.91,-210.46 939.19,-196.38 923.41,-187.65"/>
<polygon fill="midnightblue" stroke="midnightblue" points="1238.74,-355.93 1231.61,-363.77 1242.07,-362.09 1238.74,-355.93"/>
</g>
<!-- Node27&#45;&gt;Node12 -->
<g id="edge44" class="edge">
<title>Node27&#45;&gt;Node12</title>
<path fill="none" stroke="midnightblue" d="M1291.33,-362.72C1481.93,-338.26 1956.47,-274 1956.47,-240.5 1956.47,-240.5 1956.47,-240.5 1956.47,-177 1956.47,-87.28 1278.52,-70.64 1068.65,-67.64"/>
<polygon fill="midnightblue" stroke="midnightblue" points="1290.85,-359.25 1281.38,-364 1291.74,-366.2 1290.85,-359.25"/>
</g>
<!-- Node27&#45;&gt;Node17 -->
<g id="edge61" class="edge">
<title>Node27&#45;&gt;Node17</title>
<path fill="none" stroke="midnightblue" d="M1133.39,-362.73C1029.35,-350.05 849.37,-328.1 750.52,-316.04"/>
<polygon fill="midnightblue" stroke="midnightblue" points="1133.17,-366.23 1143.52,-363.97 1134.02,-359.28 1133.17,-366.23"/>
</g>
<!-- Node27&#45;&gt;Node23 -->
<g id="edge64" class="edge">
<title>Node27&#45;&gt;Node23</title>
<path fill="none" stroke="midnightblue" d="M1182.96,-359.95C1151.68,-347.08 1103.85,-327.4 1076.54,-316.17"/>
<polygon fill="midnightblue" stroke="midnightblue" points="1181.91,-363.3 1192.49,-363.87 1184.58,-356.83 1181.91,-363.3"/>
</g>
<!-- Node27&#45;&gt;Node24 -->
<g id="edge65" class="edge">
<title>Node27&#45;&gt;Node24</title>
<path fill="none" stroke="midnightblue" d="M1160.77,-361.96C1096.8,-349.16 990.19,-327.84 931.13,-316.03"/>
<polygon fill="midnightblue" stroke="midnightblue" points="1160.16,-365.41 1170.65,-363.94 1161.53,-358.54 1160.16,-365.41"/>
</g>
<!-- Node28 -->
<g id="node28" class="node">
<title>Node28</title>
<g id="a_node28"><a xlink:href="wrap_8h.html" target="_top" xlink:title=" ">
<polygon fill="white" stroke="black" points="1404.47,-297 1404.47,-316 1482.47,-316 1482.47,-297 1404.47,-297"/>
<text text-anchor="middle" x="1443.47" y="-304" font-family="Helvetica,sans-Serif" font-size="10.00">src/js/wrap.h</text>
</a>
</g>
</g>
<!-- Node27&#45;&gt;Node28 -->
<g id="edge45" class="edge">
<title>Node27&#45;&gt;Node28</title>
<path fill="none" stroke="midnightblue" d="M1253.84,-361.09C1299.35,-348.23 1372.29,-327.62 1413.17,-316.06"/>
<polygon fill="midnightblue" stroke="midnightblue" points="1252.69,-357.78 1244.02,-363.87 1254.59,-364.52 1252.69,-357.78"/>
</g>
<!-- Node35 -->
<g id="node35" class="node">
<title>Node35</title>
<g id="a_node35"><a xlink:href="user__frontend_8h.html" target="_top" xlink:title=" ">
<polygon fill="white" stroke="black" points="1984.97,-112.5 1984.97,-131.5 2139.97,-131.5 2139.97,-112.5 1984.97,-112.5"/>
<text text-anchor="middle" x="2062.47" y="-119.5" font-family="Helvetica,sans-Serif" font-size="10.00">src/node/rpc/user_frontend.h</text>
</a>
</g>
</g>
<!-- Node27&#45;&gt;Node35 -->
<g id="edge62" class="edge">
<title>Node27&#45;&gt;Node35</title>
<path fill="none" stroke="midnightblue" d="M1293.83,-364.18C1316.35,-362 1340.85,-359.76 1363.47,-358 1430.83,-352.75 1914.65,-360.06 1970.47,-322 2039.03,-275.25 2057.54,-163.82 2061.53,-131.76"/>
<polygon fill="midnightblue" stroke="midnightblue" points="1293.25,-360.72 1283.63,-365.17 1293.93,-367.68 1293.25,-360.72"/>
</g>
<!-- Node36 -->
<g id="node36" class="node">
<title>Node36</title>
<g id="a_node36"><a xlink:href="snapshotter_8h.html" target="_top" xlink:title=" ">
<polygon fill="white" stroke="black" points="1149.97,-297 1149.97,-316 1276.97,-316 1276.97,-297 1149.97,-297"/>
<text text-anchor="middle" x="1213.47" y="-304" font-family="Helvetica,sans-Serif" font-size="10.00">src/node/snapshotter.h</text>
</a>
</g>
</g>
<!-- Node27&#45;&gt;Node36 -->
<g id="edge66" class="edge">
<title>Node27&#45;&gt;Node36</title>
<path fill="none" stroke="midnightblue" d="M1213.47,-353.54C1213.47,-341.17 1213.47,-325.62 1213.47,-316.13"/>
<polygon fill="midnightblue" stroke="midnightblue" points="1209.97,-353.73 1213.47,-363.73 1216.97,-353.73 1209.97,-353.73"/>
</g>
<!-- Node28&#45;&gt;Node9 -->
<g id="edge57" class="edge">
<title>Node28&#45;&gt;Node9</title>
<path fill="none" stroke="midnightblue" d="M1464.23,-290.93C1477.24,-281.37 1494.03,-268.23 1507.47,-255 1530.05,-232.79 1552.55,-202.73 1563.17,-187.96"/>
<polygon fill="midnightblue" stroke="midnightblue" points="1461.98,-288.24 1455.92,-296.93 1466.08,-293.91 1461.98,-288.24"/>
</g>
<!-- Node28&#45;&gt;Node11 -->
<g id="edge58" class="edge">
<title>Node28&#45;&gt;Node11</title>
<path fill="none" stroke="midnightblue" d="M1394.19,-299.76C1312.46,-290 1152.43,-269.78 1097.47,-255 1080.28,-250.38 973.47,-206.38 927.97,-187.52"/>
<polygon fill="midnightblue" stroke="midnightblue" points="1393.89,-303.25 1404.24,-300.95 1394.72,-296.3 1393.89,-303.25"/>
</g>
<!-- Node28&#45;&gt;Node12 -->
<g id="edge47" class="edge">
<title>Node28&#45;&gt;Node12</title>
<path fill="none" stroke="midnightblue" d="M1492.7,-303.69C1605.03,-299.04 1872.68,-284.92 1899.47,-255 1908.66,-244.74 1908.19,-234.67 1899.47,-224 1794.11,-95.11 1252.77,-72.03 1068.77,-67.9"/>
<polygon fill="midnightblue" stroke="midnightblue" points="1492.49,-300.19 1482.64,-304.09 1492.78,-307.19 1492.49,-300.19"/>
</g>
<!-- Node28&#45;&gt;Node15 -->
<g id="edge59" class="edge">
<title>Node28&#45;&gt;Node15</title>
<path fill="none" stroke="midnightblue" d="M1394.38,-300.53C1363.44,-297.5 1322.65,-293.71 1286.47,-291 1009.9,-270.24 939.56,-281.47 663.47,-255 647.94,-253.51 631.2,-251.47 615.65,-249.4"/>
<polygon fill="midnightblue" stroke="midnightblue" points="1394.18,-304.03 1404.47,-301.52 1394.86,-297.06 1394.18,-304.03"/>
</g>
<!-- Node29 -->
<g id="node29" class="node">
<title>Node29</title>
<g id="a_node29"><a xlink:href="js__generic__base_8cpp.html" target="_top" xlink:title=" ">
<polygon fill="white" stroke="black" points="1106.47,-224.5 1106.47,-254.5 1224.47,-254.5 1224.47,-224.5 1106.47,-224.5"/>
<text text-anchor="start" x="1114.47" y="-242.5" font-family="Helvetica,sans-Serif" font-size="10.00">src/apps/js_generic</text>
<text text-anchor="middle" x="1165.47" y="-231.5" font-family="Helvetica,sans-Serif" font-size="10.00">/js_generic_base.cpp</text>
</a>
</g>
</g>
<!-- Node28&#45;&gt;Node29 -->
<g id="edge46" class="edge">
<title>Node28&#45;&gt;Node29</title>
<path fill="none" stroke="midnightblue" d="M1396.86,-294.6C1349.49,-283.53 1275.97,-266.34 1224.55,-254.31"/>
<polygon fill="midnightblue" stroke="midnightblue" points="1396.31,-298.07 1406.84,-296.94 1397.9,-291.25 1396.31,-298.07"/>
</g>
<!-- Node30 -->
<g id="node30" class="node">
<title>Node30</title>
<g id="a_node30"><a xlink:href="js_2consensus_8cpp.html" target="_top" xlink:title=" ">
<polygon fill="white" stroke="black" points="1554.47,-230 1554.47,-249 1670.47,-249 1670.47,-230 1554.47,-230"/>
<text text-anchor="middle" x="1612.47" y="-237" font-family="Helvetica,sans-Serif" font-size="10.00">src/js/consensus.cpp</text>
</a>
</g>
</g>
<!-- Node28&#45;&gt;Node30 -->
<g id="edge48" class="edge">
<title>Node28&#45;&gt;Node30</title>
<path fill="none" stroke="midnightblue" d="M1475.27,-293.27C1508.81,-280.37 1560.8,-260.38 1590.21,-249.06"/>
<polygon fill="midnightblue" stroke="midnightblue" points="1473.99,-290.01 1465.92,-296.87 1476.51,-296.55 1473.99,-290.01"/>
</g>
<!-- Node31 -->
<g id="node31" class="node">
<title>Node31</title>
<g id="a_node31"><a xlink:href="conv_8cpp.html" target="_top" xlink:title=" ">
<polygon fill="white" stroke="black" points="1688.47,-230 1688.47,-249 1776.47,-249 1776.47,-230 1688.47,-230"/>
<text text-anchor="middle" x="1732.47" y="-237" font-family="Helvetica,sans-Serif" font-size="10.00">src/js/conv.cpp</text>
</a>
</g>
</g>
<!-- Node28&#45;&gt;Node31 -->
<g id="edge50" class="edge">
<title>Node28&#45;&gt;Node31</title>
<path fill="none" stroke="midnightblue" d="M1492.98,-295.75C1540.85,-286.12 1615.38,-270.61 1679.47,-255 1686.98,-253.17 1695.04,-251.05 1702.56,-249"/>
<polygon fill="midnightblue" stroke="midnightblue" points="1492,-292.38 1482.88,-297.77 1493.37,-299.24 1492,-292.38"/>
</g>
<!-- Node32 -->
<g id="node32" class="node">
<title>Node32</title>
<g id="a_node32"><a xlink:href="js_2crypto_8cpp.html" target="_top" xlink:title=" ">
<polygon fill="white" stroke="black" points="1794.47,-230 1794.47,-249 1890.47,-249 1890.47,-230 1794.47,-230"/>
<text text-anchor="middle" x="1842.47" y="-237" font-family="Helvetica,sans-Serif" font-size="10.00">src/js/crypto.cpp</text>
</a>
</g>
</g>
<!-- Node28&#45;&gt;Node32 -->
<g id="edge52" class="edge">
<title>Node28&#45;&gt;Node32</title>
<path fill="none" stroke="midnightblue" d="M1492.9,-299.82C1559.64,-291.77 1682.13,-275.72 1785.47,-255 1793.88,-253.31 1802.91,-251.17 1811.25,-249.06"/>
<polygon fill="midnightblue" stroke="midnightblue" points="1492.19,-296.38 1482.68,-301.04 1493.02,-303.33 1492.19,-296.38"/>
</g>
<!-- Node33 -->
<g id="node33" class="node">
<title>Node33</title>
<g id="a_node33"><a xlink:href="js_2historical_8cpp.html" target="_top" xlink:title=" ">
<polygon fill="white" stroke="black" points="1388.47,-230 1388.47,-249 1498.47,-249 1498.47,-230 1388.47,-230"/>
<text text-anchor="middle" x="1443.47" y="-237" font-family="Helvetica,sans-Serif" font-size="10.00">src/js/historical.cpp</text>
</a>
</g>
</g>
<!-- Node28&#45;&gt;Node33 -->
<g id="edge54" class="edge">
<title>Node28&#45;&gt;Node33</title>
<path fill="none" stroke="midnightblue" d="M1443.47,-286.54C1443.47,-274.17 1443.47,-258.62 1443.47,-249.13"/>
<polygon fill="midnightblue" stroke="midnightblue" points="1439.97,-286.73 1443.47,-296.73 1446.97,-286.73 1439.97,-286.73"/>
</g>
<!-- Node34 -->
<g id="node34" class="node">
<title>Node34</title>
<g id="a_node34"><a xlink:href="openenclave_8cpp.html" target="_top" xlink:title=" ">
<polygon fill="white" stroke="black" points="1242.47,-230 1242.47,-249 1370.47,-249 1370.47,-230 1242.47,-230"/>
<text text-anchor="middle" x="1306.47" y="-237" font-family="Helvetica,sans-Serif" font-size="10.00">src/js/openenclave.cpp</text>
</a>
</g>
</g>
<!-- Node28&#45;&gt;Node34 -->
<g id="edge56" class="edge">
<title>Node28&#45;&gt;Node34</title>
<path fill="none" stroke="midnightblue" d="M1415.96,-292.44C1388.82,-279.57 1348.12,-260.26 1324.74,-249.17"/>
<polygon fill="midnightblue" stroke="midnightblue" points="1414.75,-295.74 1425.28,-296.87 1417.75,-289.42 1414.75,-295.74"/>
</g>
<!-- Node30&#45;&gt;Node9 -->
<g id="edge49" class="edge">
<title>Node30&#45;&gt;Node9</title>
<path fill="none" stroke="midnightblue" d="M1600.43,-221.84C1592.36,-210.67 1582.07,-196.43 1575.62,-187.51"/>
<polygon fill="midnightblue" stroke="midnightblue" points="1597.62,-223.92 1606.31,-229.98 1603.29,-219.82 1597.62,-223.92"/>
</g>
<!-- Node31&#45;&gt;Node9 -->
<g id="edge51" class="edge">
<title>Node31&#45;&gt;Node9</title>
<path fill="none" stroke="midnightblue" d="M1699.42,-226.43C1667.74,-214.87 1620.73,-197.71 1592.78,-187.51"/>
<polygon fill="midnightblue" stroke="midnightblue" points="1698.53,-229.83 1709.12,-229.98 1700.93,-223.26 1698.53,-229.83"/>
</g>
<!-- Node32&#45;&gt;Node9 -->
<g id="edge53" class="edge">
<title>Node32&#45;&gt;Node9</title>
<path fill="none" stroke="midnightblue" d="M1800.04,-227.49C1795.13,-226.28 1790.2,-225.09 1785.47,-224 1726.14,-210.28 1657.18,-196.24 1613.45,-187.58"/>
<polygon fill="midnightblue" stroke="midnightblue" points="1799.43,-230.94 1809.98,-229.97 1801.13,-224.15 1799.43,-230.94"/>
</g>
<!-- Node33&#45;&gt;Node9 -->
<g id="edge55" class="edge">
<title>Node33&#45;&gt;Node9</title>
<path fill="none" stroke="midnightblue" d="M1470.63,-225.67C1495.08,-214.13 1530.32,-197.49 1551.46,-187.51"/>
<polygon fill="midnightblue" stroke="midnightblue" points="1469.08,-222.54 1461.53,-229.98 1472.06,-228.87 1469.08,-222.54"/>
</g>
<!-- Node35&#45;&gt;Node12 -->
<g id="edge63" class="edge">
<title>Node35&#45;&gt;Node12</title>
<path fill="none" stroke="midnightblue" d="M1974.42,-112.29C1973.1,-112.19 1971.78,-112.09 1970.47,-112 1630.14,-87.42 1221.11,-73.45 1068.66,-68.78"/>
<polygon fill="midnightblue" stroke="midnightblue" points="1974.45,-115.81 1984.7,-113.11 1975.01,-108.83 1974.45,-115.81"/>
</g>
<!-- Node36&#45;&gt;Node11 -->
<g id="edge67" class="edge">
<title>Node36&#45;&gt;Node11</title>
<path fill="none" stroke="midnightblue" d="M1162.88,-294.85C1098.94,-281.29 996.23,-259.11 988.47,-255 971.6,-246.06 932.38,-205.49 915.47,-187.56"/>
<polygon fill="midnightblue" stroke="midnightblue" points="1162.28,-298.3 1172.79,-296.95 1163.73,-291.45 1162.28,-298.3"/>
</g>
</g>
</svg>
        <g id="navigator" transform="translate(0 0)" fill="#404254">
                <rect fill="#f2f5e9" fill-opacity="0.5" stroke="#606060" stroke-width=".5" x="0" y="0" width="60" height="60"/>
                <use id="zoomplus" xlink:href="#zoomPlus" x="17" y="9" onmousedown="handleZoom(evt,'in')"/>
                <use id="zoomminus" xlink:href="#zoomMin" x="42" y="9" onmousedown="handleZoom(evt,'out')"/>
                <use id="reset" xlink:href="#resetDef" x="30" y="36" onmousedown="handleReset()"/>
                <g id="arrowUp" xlink:href="#dirArrow" transform="translate(30 24)" onmousedown="handlePan(0,-1)">
                  <use xlink:href="#rim" fill="#404040">
                        <set attributeName="fill" to="#808080" begin="arrowUp.mouseover" end="arrowUp.mouseout"/>
                  </use>
                  <path fill="none" stroke="white" stroke-width="1.5" d="M0,-3.0v7 M-2.5,-0.5L0,-3.0L2.5,-0.5"/>
                </g>
                <g id="arrowRight" xlink:href="#dirArrow" transform="rotate(90) translate(36 -43)" onmousedown="handlePan(1,0)">
                  <use xlink:href="#rim" fill="#404040">
                        <set attributeName="fill" to="#808080" begin="arrowRight.mouseover" end="arrowRight.mouseout"/>
                  </use>
                  <path fill="none" stroke="white" stroke-width="1.5" d="M0,-3.0v7 M-2.5,-0.5L0,-3.0L2.5,-0.5"/>
                </g>
                <g id="arrowDown" xlink:href="#dirArrow" transform="rotate(180) translate(-30 -48)" onmousedown="handlePan(0,1)">
                  <use xlink:href="#rim" fill="#404040">
                        <set attributeName="fill" to="#808080" begin="arrowDown.mouseover" end="arrowDown.mouseout"/>
                  </use>
                  <path fill="none" stroke="white" stroke-width="1.5" d="M0,-3.0v7 M-2.5,-0.5L0,-3.0L2.5,-0.5"/>
                </g>
                <g id="arrowLeft" xlink:href="#dirArrow" transform="rotate(270) translate(-36 17)" onmousedown="handlePan(-1,0)">
                  <use xlink:href="#rim" fill="#404040">
                        <set attributeName="fill" to="#808080" begin="arrowLeft.mouseover" end="arrowLeft.mouseout"/>
                  </use>
                  <path fill="none" stroke="white" stroke-width="1.5" d="M0,-3.0v7 M-2.5,-0.5L0,-3.0L2.5,-0.5"/>
                </g>
        </g>
        <svg viewBox="0 0 15 15" width="100%" height="30px" preserveAspectRatio="xMaxYMin meet">
         <g id="arrow_out" transform="scale(0.3 0.3)">
          <a xlink:href="members_8h__dep__incl_org.svg" target="_base">
           <rect id="button" ry="5" rx="5" y="6" x="6" height="38" width="38"
                fill="#f2f5e9" fill-opacity="0.5" stroke="#606060" stroke-width="1.0"/>
           <path id="arrow"
             d="M 11.500037,31.436501 C 11.940474,20.09759 22.043105,11.32322 32.158766,21.979434 L 37.068811,17.246167 C 37.068811,17.246167 37.088388,32 37.088388,32 L 22.160133,31.978069 C 22.160133,31.978069 26.997745,27.140456 26.997745,27.140456 C 18.528582,18.264221 13.291696,25.230495 11.500037,31.436501 z"
             style="fill:#404040;"/>
          </a>
         </g>
        </svg>
</svg>
