<?xml version="1.0" encoding="UTF-8" standalone="no"?>
<!DOCTYPE svg PUBLIC "-//W3C//DTD SVG 1.1//EN"
 "http://www.w3.org/Graphics/SVG/1.1/DTD/svg11.dtd">
<!-- Generated by graphviz version 2.43.0 (0)
 -->
<!-- Title: src/ds/messaging.h Pages: 1 -->
<!--zoomable 308 -->
<svg id="main" version="1.1" xmlns="http://www.w3.org/2000/svg" xmlns:xlink="http://www.w3.org/1999/xlink" xml:space="preserve" onload="init(evt)">
<style type="text/css"><![CDATA[
.edge:hover path { stroke: red; }
.edge:hover polygon { stroke: red; fill: red; }
]]></style>
<script type="text/javascript"><![CDATA[
var edges = document.getElementsByTagName('g');
if (edges && edges.length) {
  for (var i=0;i<edges.length;i++) {
    if (edges[i].id.substr(0,4)=='edge') {
      edges[i].setAttribute('class','edge');
    }
  }
}
]]></script>
        <defs>
                <circle id="rim" cx="0" cy="0" r="7"/>
                <circle id="rim2" cx="0" cy="0" r="3.5"/>
                <g id="zoomPlus">
                        <use xlink:href="#rim" fill="#404040">
                                <set attributeName="fill" to="#808080" begin="zoomplus.mouseover" end="zoomplus.mouseout"/>
                        </use>
                        <path d="M-4,0h8M0,-4v8" fill="none" stroke="white" stroke-width="1.5" pointer-events="none"/>
                </g>
                <g id="zoomMin">
                        <use xlink:href="#rim" fill="#404040">
                                <set attributeName="fill" to="#808080" begin="zoomminus.mouseover" end="zoomminus.mouseout"/>
                        </use>
                        <path d="M-4,0h8" fill="none" stroke="white" stroke-width="1.5" pointer-events="none"/>
                </g>
                <g id="dirArrow">
                        <path fill="none" stroke="white" stroke-width="1.5" d="M0,-3.0v7 M-2.5,-0.5L0,-3.0L2.5,-0.5"/>
                </g>
               <g id="resetDef">
                       <use xlink:href="#rim2" fill="#404040">
                               <set attributeName="fill" to="#808080" begin="reset.mouseover" end="reset.mouseout"/>
                       </use>
               </g>
        </defs>

<script type="text/javascript">
var viewWidth = 1751;
var viewHeight = 308;
var sectionId = 'dynsection-0';
</script>
<script xlink:href="svgpan.js"/>
<svg id="graph" class="graph">
<g id="viewport">
<title>src/ds/messaging.h</title>
<polygon fill="white" stroke="transparent" points="-4,4 -4,-304 1746.83,-304 1746.83,4 -4,4"/>
<!-- Node1 -->
<g id="node1" class="node">
<title>Node1</title>
<g id="a_node1"><a xlink:title=" ">
<polygon fill="#bfbfbf" stroke="black" points="1112.33,-280.5 1112.33,-299.5 1222.33,-299.5 1222.33,-280.5 1112.33,-280.5"/>
<text text-anchor="middle" x="1167.33" y="-287.5" font-family="Helvetica,sans-Serif" font-size="10.00">src/ds/messaging.h</text>
</a>
</g>
</g>
<!-- Node2 -->
<g id="node2" class="node">
<title>Node2</title>
<g id="a_node2"><a xlink:href="logger_8h.html" target="_top" xlink:title=" ">
<polygon fill="white" stroke="black" points="394.83,-224.5 394.83,-243.5 481.83,-243.5 481.83,-224.5 394.83,-224.5"/>
<text text-anchor="middle" x="438.33" y="-231.5" font-family="Helvetica,sans-Serif" font-size="10.00">ccf/ds/logger.h</text>
</a>
</g>
</g>
<!-- Node1&#45;&gt;Node2 -->
<g id="edge1" class="edge">
<title>Node1&#45;&gt;Node2</title>
<path fill="none" stroke="midnightblue" d="M1112.24,-284.92C976.3,-274.85 626.21,-248.92 491.89,-238.97"/>
<polygon fill="midnightblue" stroke="midnightblue" points="492.07,-235.47 481.84,-238.22 491.56,-242.45 492.07,-235.47"/>
</g>
<!-- Node8 -->
<g id="node8" class="node">
<title>Node8</title>
<g id="a_node8"><a xlink:title=" ">
<polygon fill="white" stroke="#bfbfbf" points="64.33,-112.5 64.33,-131.5 102.33,-131.5 102.33,-112.5 64.33,-112.5"/>
<text text-anchor="middle" x="83.33" y="-119.5" font-family="Helvetica,sans-Serif" font-size="10.00">map</text>
</a>
</g>
</g>
<!-- Node1&#45;&gt;Node8 -->
<g id="edge59" class="edge">
<title>Node1&#45;&gt;Node8</title>
<path fill="none" stroke="midnightblue" d="M1112.21,-288.6C891.31,-286.43 78.45,-272.68 5.33,-188 -13.92,-165.7 25.2,-144.82 54.69,-133"/>
<polygon fill="midnightblue" stroke="midnightblue" points="56.13,-136.2 64.22,-129.36 53.63,-129.66 56.13,-136.2"/>
</g>
<!-- Node16 -->
<g id="node16" class="node">
<title>Node16</title>
<g id="a_node16"><a xlink:href="ring__buffer_8h.html" target="_top" xlink:title=" ">
<polygon fill="white" stroke="black" points="931.83,-224.5 931.83,-243.5 1008.83,-243.5 1008.83,-224.5 931.83,-224.5"/>
<text text-anchor="middle" x="970.33" y="-231.5" font-family="Helvetica,sans-Serif" font-size="10.00">ring_buffer.h</text>
</a>
</g>
</g>
<!-- Node1&#45;&gt;Node16 -->
<g id="edge17" class="edge">
<title>Node1&#45;&gt;Node16</title>
<path fill="none" stroke="midnightblue" d="M1136.12,-280.44C1102.4,-271.2 1048.53,-256.44 1011.4,-246.26"/>
<polygon fill="midnightblue" stroke="midnightblue" points="1011.97,-242.78 1001.4,-243.52 1010.12,-249.54 1011.97,-242.78"/>
</g>
<!-- Node34 -->
<g id="node34" class="node">
<title>Node34</title>
<g id="a_node34"><a xlink:title=" ">
<polygon fill="white" stroke="#bfbfbf" points="1486.83,-0.5 1486.83,-19.5 1551.83,-19.5 1551.83,-0.5 1486.83,-0.5"/>
<text text-anchor="middle" x="1519.33" y="-7.5" font-family="Helvetica,sans-Serif" font-size="10.00">stdexcept</text>
</a>
</g>
</g>
<!-- Node1&#45;&gt;Node34 -->
<g id="edge60" class="edge">
<title>Node1&#45;&gt;Node34</title>
<path fill="none" stroke="midnightblue" d="M1222.61,-286.74C1340.79,-280.42 1607.33,-257.44 1607.33,-179 1607.33,-179 1607.33,-179 1607.33,-121 1607.33,-79.03 1567.79,-43.9 1541.72,-25.3"/>
<polygon fill="midnightblue" stroke="midnightblue" points="1543.7,-22.41 1533.47,-19.64 1539.73,-28.18 1543.7,-22.41"/>
</g>
<!-- Node37 -->
<g id="node37" class="node">
<title>Node37</title>
<g id="a_node37"><a xlink:title=" ">
<polygon fill="white" stroke="#bfbfbf" points="1339.33,-112.5 1339.33,-131.5 1389.33,-131.5 1389.33,-112.5 1339.33,-112.5"/>
<text text-anchor="middle" x="1364.33" y="-119.5" font-family="Helvetica,sans-Serif" font-size="10.00">atomic</text>
</a>
</g>
</g>
<!-- Node1&#45;&gt;Node37 -->
<g id="edge57" class="edge">
<title>Node1&#45;&gt;Node37</title>
<path fill="none" stroke="midnightblue" d="M1177.65,-280.31C1209.43,-253.53 1306.14,-172.03 1346.42,-138.09"/>
<polygon fill="midnightblue" stroke="midnightblue" points="1348.73,-140.73 1354.12,-131.61 1344.22,-135.37 1348.73,-140.73"/>
</g>
<!-- Node39 -->
<g id="node39" class="node">
<title>Node39</title>
<g id="a_node39"><a xlink:title=" ">
<polygon fill="white" stroke="#bfbfbf" points="1635.83,-224.5 1635.83,-243.5 1742.83,-243.5 1742.83,-224.5 1635.83,-224.5"/>
<text text-anchor="middle" x="1689.33" y="-231.5" font-family="Helvetica,sans-Serif" font-size="10.00">condition_variable</text>
</a>
</g>
</g>
<!-- Node1&#45;&gt;Node39 -->
<g id="edge58" class="edge">
<title>Node1&#45;&gt;Node39</title>
<path fill="none" stroke="midnightblue" d="M1222.6,-284.11C1308.15,-276.41 1477.74,-260.61 1621.33,-244 1622.63,-243.85 1623.94,-243.7 1625.26,-243.54"/>
<polygon fill="midnightblue" stroke="midnightblue" points="1626.03,-246.97 1635.53,-242.29 1625.18,-240.02 1626.03,-246.97"/>
</g>
<!-- Node3 -->
<g id="node3" class="node">
<title>Node3</title>
<g id="a_node3"><a xlink:href="enum__formatter_8h.html" target="_top" xlink:title=" ">
<polygon fill="white" stroke="black" points="180.33,-168.5 180.33,-187.5 316.33,-187.5 316.33,-168.5 180.33,-168.5"/>
<text text-anchor="middle" x="248.33" y="-175.5" font-family="Helvetica,sans-Serif" font-size="10.00">ccf/ds/enum_formatter.h</text>
</a>
</g>
</g>
<!-- Node2&#45;&gt;Node3 -->
<g id="edge2" class="edge">
<title>Node2&#45;&gt;Node3</title>
<path fill="none" stroke="midnightblue" d="M408.22,-224.44C375.71,-215.2 323.75,-200.44 287.94,-190.26"/>
<polygon fill="midnightblue" stroke="midnightblue" points="288.87,-186.88 278.3,-187.52 286.96,-193.62 288.87,-186.88"/>
</g>
<!-- Node4 -->
<g id="node4" class="node">
<title>Node4</title>
<g id="a_node4"><a xlink:title=" ">
<polygon fill="white" stroke="#bfbfbf" points="208.83,-112.5 208.83,-131.5 287.83,-131.5 287.83,-112.5 208.83,-112.5"/>
<text text-anchor="middle" x="248.33" y="-119.5" font-family="Helvetica,sans-Serif" font-size="10.00">fmt/format.h</text>
</a>
</g>
</g>
<!-- Node2&#45;&gt;Node4 -->
<g id="edge11" class="edge">
<title>Node2&#45;&gt;Node4</title>
<path fill="none" stroke="midnightblue" d="M394.59,-232.2C326.34,-229.92 199.41,-221.2 171.33,-188 153.67,-167.12 186.29,-147.5 214.37,-135.39"/>
<polygon fill="midnightblue" stroke="midnightblue" points="215.72,-138.62 223.64,-131.58 213.06,-132.14 215.72,-138.62"/>
</g>
<!-- Node5 -->
<g id="node5" class="node">
<title>Node5</title>
<g id="a_node5"><a xlink:href="thread__ids_8h.html" target="_top" xlink:title=" ">
<polygon fill="white" stroke="black" points="334.33,-168.5 334.33,-187.5 442.33,-187.5 442.33,-168.5 334.33,-168.5"/>
<text text-anchor="middle" x="388.33" y="-175.5" font-family="Helvetica,sans-Serif" font-size="10.00">ccf/ds/thread_ids.h</text>
</a>
</g>
</g>
<!-- Node2&#45;&gt;Node5 -->
<g id="edge4" class="edge">
<title>Node2&#45;&gt;Node5</title>
<path fill="none" stroke="midnightblue" d="M430.07,-224.08C422.87,-216.3 412.22,-204.8 403.49,-195.37"/>
<polygon fill="midnightblue" stroke="midnightblue" points="405.8,-192.71 396.43,-187.75 400.66,-197.47 405.8,-192.71"/>
</g>
<!-- Node10 -->
<g id="node10" class="node">
<title>Node10</title>
<g id="a_node10"><a xlink:title=" ">
<polygon fill="white" stroke="#bfbfbf" points="534.83,-168.5 534.83,-187.5 613.83,-187.5 613.83,-168.5 534.83,-168.5"/>
<text text-anchor="middle" x="574.33" y="-175.5" font-family="Helvetica,sans-Serif" font-size="10.00">fmt/chrono.h</text>
</a>
</g>
</g>
<!-- Node2&#45;&gt;Node10 -->
<g id="edge10" class="edge">
<title>Node2&#45;&gt;Node10</title>
<path fill="none" stroke="midnightblue" d="M459.88,-224.44C482.36,-215.52 517.82,-201.44 543.31,-191.32"/>
<polygon fill="midnightblue" stroke="midnightblue" points="544.88,-194.46 552.88,-187.52 542.3,-187.95 544.88,-194.46"/>
</g>
<!-- Node11 -->
<g id="node11" class="node">
<title>Node11</title>
<g id="a_node11"><a xlink:title=" ">
<polygon fill="white" stroke="#bfbfbf" points="631.33,-168.5 631.33,-187.5 691.33,-187.5 691.33,-168.5 631.33,-168.5"/>
<text text-anchor="middle" x="661.33" y="-175.5" font-family="Helvetica,sans-Serif" font-size="10.00">iostream</text>
</a>
</g>
</g>
<!-- Node2&#45;&gt;Node11 -->
<g id="edge12" class="edge">
<title>Node2&#45;&gt;Node11</title>
<path fill="none" stroke="midnightblue" d="M473.67,-224.44C513.83,-214.72 579.25,-198.88 621.28,-188.7"/>
<polygon fill="midnightblue" stroke="midnightblue" points="622.27,-192.06 631.17,-186.3 620.62,-185.26 622.27,-192.06"/>
</g>
<!-- Node12 -->
<g id="node12" class="node">
<title>Node12</title>
<g id="a_node12"><a xlink:title=" ">
<polygon fill="white" stroke="#bfbfbf" points="14.33,-168.5 14.33,-187.5 124.33,-187.5 124.33,-168.5 14.33,-168.5"/>
<text text-anchor="middle" x="69.33" y="-175.5" font-family="Helvetica,sans-Serif" font-size="10.00">nlohmann/json.hpp</text>
</a>
</g>
</g>
<!-- Node2&#45;&gt;Node12 -->
<g id="edge13" class="edge">
<title>Node2&#45;&gt;Node12</title>
<path fill="none" stroke="midnightblue" d="M394.55,-226.59C330.19,-217.17 209.58,-199.52 134.7,-188.57"/>
<polygon fill="midnightblue" stroke="midnightblue" points="134.85,-185.05 124.45,-187.07 133.83,-191.98 134.85,-185.05"/>
</g>
<!-- Node13 -->
<g id="node13" class="node">
<title>Node13</title>
<g id="a_node13"><a xlink:title=" ">
<polygon fill="white" stroke="#bfbfbf" points="823.33,-112.5 823.33,-131.5 879.33,-131.5 879.33,-112.5 823.33,-112.5"/>
<text text-anchor="middle" x="851.33" y="-119.5" font-family="Helvetica,sans-Serif" font-size="10.00">optional</text>
</a>
</g>
</g>
<!-- Node2&#45;&gt;Node13 -->
<g id="edge14" class="edge">
<title>Node2&#45;&gt;Node13</title>
<path fill="none" stroke="midnightblue" d="M482.17,-228.68C534.79,-222.76 625.33,-210.24 700.33,-188 746.06,-174.44 796.43,-150.89 825.9,-136.16"/>
<polygon fill="midnightblue" stroke="midnightblue" points="827.71,-139.17 835.05,-131.54 824.55,-132.92 827.71,-139.17"/>
</g>
<!-- Node14 -->
<g id="node14" class="node">
<title>Node14</title>
<g id="a_node14"><a xlink:title=" ">
<polygon fill="white" stroke="#bfbfbf" points="460.33,-168.5 460.33,-187.5 516.33,-187.5 516.33,-168.5 460.33,-168.5"/>
<text text-anchor="middle" x="488.33" y="-175.5" font-family="Helvetica,sans-Serif" font-size="10.00">sstream</text>
</a>
</g>
</g>
<!-- Node2&#45;&gt;Node14 -->
<g id="edge15" class="edge">
<title>Node2&#45;&gt;Node14</title>
<path fill="none" stroke="midnightblue" d="M446.59,-224.08C453.8,-216.3 464.44,-204.8 473.18,-195.37"/>
<polygon fill="midnightblue" stroke="midnightblue" points="476,-197.47 480.23,-187.75 470.87,-192.71 476,-197.47"/>
</g>
<!-- Node15 -->
<g id="node15" class="node">
<title>Node15</title>
<g id="a_node15"><a xlink:title=" ">
<polygon fill="white" stroke="#bfbfbf" points="612.83,-0.5 612.83,-19.5 681.83,-19.5 681.83,-0.5 612.83,-0.5"/>
<text text-anchor="middle" x="647.33" y="-7.5" font-family="Helvetica,sans-Serif" font-size="10.00">type_traits</text>
</a>
</g>
</g>
<!-- Node2&#45;&gt;Node15 -->
<g id="edge16" class="edge">
<title>Node2&#45;&gt;Node15</title>
<path fill="none" stroke="midnightblue" d="M394.8,-231.71C290.14,-228.18 31.11,-216.59 5.33,-188 -0.62,-181.4 2.16,-176.31 5.33,-168 17.22,-136.83 26.14,-128.16 55.33,-112 150.18,-59.51 481.53,-25.65 602.6,-14.79"/>
<polygon fill="midnightblue" stroke="midnightblue" points="602.99,-18.27 612.64,-13.9 602.37,-11.3 602.99,-18.27"/>
</g>
<!-- Node3&#45;&gt;Node4 -->
<g id="edge3" class="edge">
<title>Node3&#45;&gt;Node4</title>
<path fill="none" stroke="midnightblue" d="M248.33,-168.08C248.33,-161.01 248.33,-150.86 248.33,-141.99"/>
<polygon fill="midnightblue" stroke="midnightblue" points="251.83,-141.75 248.33,-131.75 244.83,-141.75 251.83,-141.75"/>
</g>
<!-- Node5&#45;&gt;Node4 -->
<g id="edge5" class="edge">
<title>Node5&#45;&gt;Node4</title>
<path fill="none" stroke="midnightblue" d="M366.15,-168.44C342.9,-159.48 306.18,-145.31 279.92,-135.18"/>
<polygon fill="midnightblue" stroke="midnightblue" points="281,-131.85 270.41,-131.52 278.48,-138.38 281,-131.85"/>
</g>
<!-- Node6 -->
<g id="node6" class="node">
<title>Node6</title>
<g id="a_node6"><a xlink:title=" ">
<polygon fill="white" stroke="#bfbfbf" points="372.33,-112.5 372.33,-131.5 458.33,-131.5 458.33,-112.5 372.33,-112.5"/>
<text text-anchor="middle" x="415.33" y="-119.5" font-family="Helvetica,sans-Serif" font-size="10.00">fmt/ostream.h</text>
</a>
</g>
</g>
<!-- Node5&#45;&gt;Node6 -->
<g id="edge6" class="edge">
<title>Node5&#45;&gt;Node6</title>
<path fill="none" stroke="midnightblue" d="M392.79,-168.08C396.49,-160.69 401.85,-149.95 406.43,-140.81"/>
<polygon fill="midnightblue" stroke="midnightblue" points="409.61,-142.26 410.96,-131.75 403.35,-139.13 409.61,-142.26"/>
</g>
<!-- Node7 -->
<g id="node7" class="node">
<title>Node7</title>
<g id="a_node7"><a xlink:title=" ">
<polygon fill="white" stroke="#bfbfbf" points="476.33,-112.5 476.33,-131.5 520.33,-131.5 520.33,-112.5 476.33,-112.5"/>
<text text-anchor="middle" x="498.33" y="-119.5" font-family="Helvetica,sans-Serif" font-size="10.00">limits</text>
</a>
</g>
</g>
<!-- Node5&#45;&gt;Node7 -->
<g id="edge7" class="edge">
<title>Node5&#45;&gt;Node7</title>
<path fill="none" stroke="midnightblue" d="M406,-168.32C423.73,-159.62 451.23,-146.12 471.62,-136.11"/>
<polygon fill="midnightblue" stroke="midnightblue" points="473.27,-139.2 480.7,-131.65 470.18,-132.92 473.27,-139.2"/>
</g>
<!-- Node5&#45;&gt;Node8 -->
<g id="edge8" class="edge">
<title>Node5&#45;&gt;Node8</title>
<path fill="none" stroke="midnightblue" d="M340,-168.44C276.04,-157.12 165.26,-137.51 112.67,-128.19"/>
<polygon fill="midnightblue" stroke="midnightblue" points="113.12,-124.72 102.66,-126.42 111.9,-131.61 113.12,-124.72"/>
</g>
<!-- Node9 -->
<g id="node9" class="node">
<title>Node9</title>
<g id="a_node9"><a xlink:title=" ">
<polygon fill="white" stroke="#bfbfbf" points="306.33,-112.5 306.33,-131.5 354.33,-131.5 354.33,-112.5 306.33,-112.5"/>
<text text-anchor="middle" x="330.33" y="-119.5" font-family="Helvetica,sans-Serif" font-size="10.00">thread</text>
</a>
</g>
</g>
<!-- Node5&#45;&gt;Node9 -->
<g id="edge9" class="edge">
<title>Node5&#45;&gt;Node9</title>
<path fill="none" stroke="midnightblue" d="M379.01,-168.32C370.44,-160.34 357.52,-148.31 347.14,-138.65"/>
<polygon fill="midnightblue" stroke="midnightblue" points="349.52,-136.09 339.82,-131.83 344.75,-141.21 349.52,-136.09"/>
</g>
<!-- Node17 -->
<g id="node17" class="node">
<title>Node17</title>
<g id="a_node17"><a xlink:href="ccf__memcpy_8h.html" target="_top" xlink:title=" ">
<polygon fill="white" stroke="black" points="573.33,-56.5 573.33,-75.5 659.33,-75.5 659.33,-56.5 573.33,-56.5"/>
<text text-anchor="middle" x="616.33" y="-63.5" font-family="Helvetica,sans-Serif" font-size="10.00">ccf_memcpy.h</text>
</a>
</g>
</g>
<!-- Node16&#45;&gt;Node17 -->
<g id="edge18" class="edge">
<title>Node16&#45;&gt;Node17</title>
<path fill="none" stroke="midnightblue" d="M931.56,-228.37C892.28,-222.64 830.47,-210.73 781.33,-188 720.88,-160.04 660.47,-108.13 632.47,-82.35"/>
<polygon fill="midnightblue" stroke="midnightblue" points="634.85,-79.79 625.15,-75.53 630.08,-84.91 634.85,-79.79"/>
</g>
<!-- Node18 -->
<g id="node18" class="node">
<title>Node18</title>
<g id="a_node18"><a xlink:title=" ">
<polygon fill="white" stroke="#bfbfbf" points="700.33,-0.5 700.33,-19.5 750.33,-19.5 750.33,-0.5 700.33,-0.5"/>
<text text-anchor="middle" x="725.33" y="-7.5" font-family="Helvetica,sans-Serif" font-size="10.00">cstring</text>
</a>
</g>
</g>
<!-- Node16&#45;&gt;Node18 -->
<g id="edge55" class="edge">
<title>Node16&#45;&gt;Node18</title>
<path fill="none" stroke="midnightblue" d="M948.55,-224.43C902.84,-205.27 796.84,-154.39 744.33,-76 735.03,-62.11 730.2,-43.6 727.74,-29.88"/>
<polygon fill="midnightblue" stroke="midnightblue" points="731.16,-29.06 726.19,-19.7 724.24,-30.11 731.16,-29.06"/>
</g>
<!-- Node19 -->
<g id="node19" class="node">
<title>Node19</title>
<g id="a_node19"><a xlink:href="ring__buffer__types_8h.html" target="_top" xlink:title=" ">
<polygon fill="white" stroke="black" points="915.33,-168.5 915.33,-187.5 1025.33,-187.5 1025.33,-168.5 915.33,-168.5"/>
<text text-anchor="middle" x="970.33" y="-175.5" font-family="Helvetica,sans-Serif" font-size="10.00">ring_buffer_types.h</text>
</a>
</g>
</g>
<!-- Node16&#45;&gt;Node19 -->
<g id="edge20" class="edge">
<title>Node16&#45;&gt;Node19</title>
<path fill="none" stroke="midnightblue" d="M970.33,-224.08C970.33,-217.01 970.33,-206.86 970.33,-197.99"/>
<polygon fill="midnightblue" stroke="midnightblue" points="973.83,-197.75 970.33,-187.75 966.83,-197.75 973.83,-197.75"/>
</g>
<!-- Node38 -->
<g id="node38" class="node">
<title>Node38</title>
<g id="a_node38"><a xlink:title=" ">
<polygon fill="white" stroke="#bfbfbf" points="1043.83,-168.5 1043.83,-187.5 1108.83,-187.5 1108.83,-168.5 1043.83,-168.5"/>
<text text-anchor="middle" x="1076.33" y="-175.5" font-family="Helvetica,sans-Serif" font-size="10.00">functional</text>
</a>
</g>
</g>
<!-- Node16&#45;&gt;Node38 -->
<g id="edge56" class="edge">
<title>Node16&#45;&gt;Node38</title>
<path fill="none" stroke="midnightblue" d="M987.36,-224.32C1004.36,-215.66 1030.71,-202.24 1050.32,-192.25"/>
<polygon fill="midnightblue" stroke="midnightblue" points="1052.02,-195.31 1059.34,-187.65 1048.84,-189.08 1052.02,-195.31"/>
</g>
<!-- Node17&#45;&gt;Node18 -->
<g id="edge19" class="edge">
<title>Node17&#45;&gt;Node18</title>
<path fill="none" stroke="midnightblue" d="M633.84,-56.32C651.4,-47.62 678.66,-34.12 698.86,-24.11"/>
<polygon fill="midnightblue" stroke="midnightblue" points="700.45,-27.23 707.86,-19.65 697.35,-20.96 700.45,-27.23"/>
</g>
<!-- Node19&#45;&gt;Node4 -->
<g id="edge51" class="edge">
<title>Node19&#45;&gt;Node4</title>
<path fill="none" stroke="midnightblue" d="M915.17,-175.46C801.62,-171.82 533.4,-160.82 297.97,-131.92"/>
<polygon fill="midnightblue" stroke="midnightblue" points="298.21,-128.42 287.85,-130.66 297.34,-135.37 298.21,-128.42"/>
</g>
<!-- Node19&#45;&gt;Node13 -->
<g id="edge52" class="edge">
<title>Node19&#45;&gt;Node13</title>
<path fill="none" stroke="midnightblue" d="M951.48,-168.44C932.06,-159.64 901.6,-145.81 879.37,-135.72"/>
<polygon fill="midnightblue" stroke="midnightblue" points="880.65,-132.46 870.1,-131.52 877.76,-138.84 880.65,-132.46"/>
</g>
<!-- Node20 -->
<g id="node20" class="node">
<title>Node20</title>
<g id="a_node20"><a xlink:href="include_2ccf_2ds_2hash_8h.html" target="_top" xlink:title=" ">
<polygon fill="white" stroke="black" points="1241.33,-112.5 1241.33,-131.5 1321.33,-131.5 1321.33,-112.5 1241.33,-112.5"/>
<text text-anchor="middle" x="1281.33" y="-119.5" font-family="Helvetica,sans-Serif" font-size="10.00">ccf/ds/hash.h</text>
</a>
</g>
</g>
<!-- Node19&#45;&gt;Node20 -->
<g id="edge21" class="edge">
<title>Node19&#45;&gt;Node20</title>
<path fill="none" stroke="midnightblue" d="M1019.61,-168.44C1077.45,-158.4 1172.86,-141.83 1231.11,-131.72"/>
<polygon fill="midnightblue" stroke="midnightblue" points="1231.93,-135.13 1241.18,-129.97 1230.73,-128.23 1231.93,-135.13"/>
</g>
<!-- Node24 -->
<g id="node24" class="node">
<title>Node24</title>
<g id="a_node24"><a xlink:title=" ">
<polygon fill="white" stroke="#bfbfbf" points="1174.83,-0.5 1174.83,-19.5 1221.83,-19.5 1221.83,-0.5 1174.83,-0.5"/>
<text text-anchor="middle" x="1198.33" y="-7.5" font-family="Helvetica,sans-Serif" font-size="10.00">vector</text>
</a>
</g>
</g>
<!-- Node19&#45;&gt;Node24 -->
<g id="edge54" class="edge">
<title>Node19&#45;&gt;Node24</title>
<path fill="none" stroke="midnightblue" d="M993.93,-168.45C1031.47,-153.97 1105.61,-121.68 1155.33,-76 1170.08,-62.45 1182.16,-42.83 1189.71,-28.69"/>
<polygon fill="midnightblue" stroke="midnightblue" points="1192.96,-30.03 1194.39,-19.54 1186.72,-26.85 1192.96,-30.03"/>
</g>
<!-- Node27 -->
<g id="node27" class="node">
<title>Node27</title>
<g id="a_node27"><a xlink:href="nonstd_8h.html" target="_top" xlink:title=" ">
<polygon fill="white" stroke="black" points="753.33,-56.5 753.33,-75.5 843.33,-75.5 843.33,-56.5 753.33,-56.5"/>
<text text-anchor="middle" x="798.33" y="-63.5" font-family="Helvetica,sans-Serif" font-size="10.00">ccf/ds/nonstd.h</text>
</a>
</g>
</g>
<!-- Node19&#45;&gt;Node27 -->
<g id="edge30" class="edge">
<title>Node19&#45;&gt;Node27</title>
<path fill="none" stroke="midnightblue" d="M960.73,-168.3C945.9,-155.12 916.22,-129.76 888.33,-112 868.93,-99.65 845.69,-88.1 827.68,-79.8"/>
<polygon fill="midnightblue" stroke="midnightblue" points="828.83,-76.48 818.28,-75.54 825.94,-82.85 828.83,-76.48"/>
</g>
<!-- Node30 -->
<g id="node30" class="node">
<title>Node30</title>
<g id="a_node30"><a xlink:title=" ">
<polygon fill="white" stroke="#bfbfbf" points="1023.33,-0.5 1023.33,-19.5 1067.33,-19.5 1067.33,-0.5 1023.33,-0.5"/>
<text text-anchor="middle" x="1045.33" y="-7.5" font-family="Helvetica,sans-Serif" font-size="10.00">string</text>
</a>
</g>
</g>
<!-- Node19&#45;&gt;Node30 -->
<g id="edge53" class="edge">
<title>Node19&#45;&gt;Node30</title>
<path fill="none" stroke="midnightblue" d="M981.79,-168.25C991.83,-159.97 1006.08,-146.67 1014.33,-132 1032.87,-99.04 1040.54,-54.84 1043.54,-30"/>
<polygon fill="midnightblue" stroke="midnightblue" points="1047.05,-30.1 1044.64,-19.78 1040.09,-29.35 1047.05,-30.1"/>
</g>
<!-- Node32 -->
<g id="node32" class="node">
<title>Node32</title>
<g id="a_node32"><a xlink:href="serializer_8h.html" target="_top" xlink:title=" ">
<polygon fill="white" stroke="black" points="935.33,-112.5 935.33,-131.5 1005.33,-131.5 1005.33,-112.5 935.33,-112.5"/>
<text text-anchor="middle" x="970.33" y="-119.5" font-family="Helvetica,sans-Serif" font-size="10.00">serializer.h</text>
</a>
</g>
</g>
<!-- Node19&#45;&gt;Node32 -->
<g id="edge38" class="edge">
<title>Node19&#45;&gt;Node32</title>
<path fill="none" stroke="midnightblue" d="M970.33,-168.08C970.33,-161.01 970.33,-150.86 970.33,-141.99"/>
<polygon fill="midnightblue" stroke="midnightblue" points="973.83,-141.75 970.33,-131.75 966.83,-141.75 973.83,-141.75"/>
</g>
<!-- Node19&#45;&gt;Node37 -->
<g id="edge50" class="edge">
<title>Node19&#45;&gt;Node37</title>
<path fill="none" stroke="midnightblue" d="M1025.48,-169.18C1028.47,-168.77 1031.44,-168.38 1034.33,-168 1162.52,-151.19 1198.45,-156.72 1329.17,-131.99"/>
<polygon fill="midnightblue" stroke="midnightblue" points="1330.01,-135.39 1339.17,-130.07 1328.69,-128.52 1330.01,-135.39"/>
</g>
<!-- Node21 -->
<g id="node21" class="node">
<title>Node21</title>
<g id="a_node21"><a xlink:href="siphash_8h.html" target="_top" xlink:title=" ">
<polygon fill="white" stroke="black" points="1279.83,-56.5 1279.83,-75.5 1374.83,-75.5 1374.83,-56.5 1279.83,-56.5"/>
<text text-anchor="middle" x="1327.33" y="-63.5" font-family="Helvetica,sans-Serif" font-size="10.00">ccf/ds/siphash.h</text>
</a>
</g>
</g>
<!-- Node20&#45;&gt;Node21 -->
<g id="edge22" class="edge">
<title>Node20&#45;&gt;Node21</title>
<path fill="none" stroke="midnightblue" d="M1288.93,-112.08C1295.56,-104.3 1305.35,-92.8 1313.39,-83.37"/>
<polygon fill="midnightblue" stroke="midnightblue" points="1316.06,-85.63 1319.88,-75.75 1310.73,-81.09 1316.06,-85.63"/>
</g>
<!-- Node23 -->
<g id="node23" class="node">
<title>Node23</title>
<g id="a_node23"><a xlink:title=" ">
<polygon fill="white" stroke="#bfbfbf" points="1316.33,-0.5 1316.33,-19.5 1366.33,-19.5 1366.33,-0.5 1316.33,-0.5"/>
<text text-anchor="middle" x="1341.33" y="-7.5" font-family="Helvetica,sans-Serif" font-size="10.00">cstdint</text>
</a>
</g>
</g>
<!-- Node20&#45;&gt;Node23 -->
<g id="edge27" class="edge">
<title>Node20&#45;&gt;Node23</title>
<path fill="none" stroke="midnightblue" d="M1321.43,-113.57C1324.44,-113.03 1327.43,-112.5 1330.33,-112 1379.14,-103.52 1518.25,-113.75 1550.33,-76 1556.09,-69.23 1555.92,-62.92 1550.33,-56 1528.91,-29.47 1430.56,-17.84 1376.76,-13.39"/>
<polygon fill="midnightblue" stroke="midnightblue" points="1376.87,-9.89 1366.63,-12.59 1376.32,-16.87 1376.87,-9.89"/>
</g>
<!-- Node20&#45;&gt;Node24 -->
<g id="edge29" class="edge">
<title>Node20&#45;&gt;Node24</title>
<path fill="none" stroke="midnightblue" d="M1274.82,-112.37C1261.06,-94.14 1228.83,-51.43 1210.91,-27.68"/>
<polygon fill="midnightblue" stroke="midnightblue" points="1213.63,-25.47 1204.81,-19.59 1208.04,-29.68 1213.63,-25.47"/>
</g>
<!-- Node25 -->
<g id="node25" class="node">
<title>Node25</title>
<g id="a_node25"><a xlink:title=" ">
<polygon fill="white" stroke="#bfbfbf" points="1095.33,-0.5 1095.33,-19.5 1137.33,-19.5 1137.33,-0.5 1095.33,-0.5"/>
<text text-anchor="middle" x="1116.33" y="-7.5" font-family="Helvetica,sans-Serif" font-size="10.00">array</text>
</a>
</g>
</g>
<!-- Node20&#45;&gt;Node25 -->
<g id="edge26" class="edge">
<title>Node20&#45;&gt;Node25</title>
<path fill="none" stroke="midnightblue" d="M1268.38,-112.37C1240.07,-93.49 1172.41,-48.38 1137.69,-25.24"/>
<polygon fill="midnightblue" stroke="midnightblue" points="1139.48,-22.23 1129.22,-19.59 1135.6,-28.05 1139.48,-22.23"/>
</g>
<!-- Node26 -->
<g id="node26" class="node">
<title>Node26</title>
<g id="a_node26"><a xlink:title=" ">
<polygon fill="white" stroke="#bfbfbf" points="1392.83,-56.5 1392.83,-75.5 1541.83,-75.5 1541.83,-56.5 1392.83,-56.5"/>
<text text-anchor="middle" x="1467.33" y="-63.5" font-family="Helvetica,sans-Serif" font-size="10.00">small_vector/SmallVector.h</text>
</a>
</g>
</g>
<!-- Node20&#45;&gt;Node26 -->
<g id="edge28" class="edge">
<title>Node20&#45;&gt;Node26</title>
<path fill="none" stroke="midnightblue" d="M1310.8,-112.44C1342.5,-103.24 1393.06,-88.56 1428.11,-78.39"/>
<polygon fill="midnightblue" stroke="midnightblue" points="1429.37,-81.67 1438,-75.52 1427.42,-74.94 1429.37,-81.67"/>
</g>
<!-- Node22 -->
<g id="node22" class="node">
<title>Node22</title>
<g id="a_node22"><a xlink:title=" ">
<polygon fill="white" stroke="#bfbfbf" points="1244.83,-0.5 1244.83,-19.5 1297.83,-19.5 1297.83,-0.5 1244.83,-0.5"/>
<text text-anchor="middle" x="1271.33" y="-7.5" font-family="Helvetica,sans-Serif" font-size="10.00">cstddef</text>
</a>
</g>
</g>
<!-- Node21&#45;&gt;Node22 -->
<g id="edge23" class="edge">
<title>Node21&#45;&gt;Node22</title>
<path fill="none" stroke="midnightblue" d="M1318.33,-56.32C1310.14,-48.42 1297.83,-36.55 1287.86,-26.94"/>
<polygon fill="midnightblue" stroke="midnightblue" points="1290.12,-24.26 1280.49,-19.83 1285.26,-29.29 1290.12,-24.26"/>
</g>
<!-- Node21&#45;&gt;Node23 -->
<g id="edge24" class="edge">
<title>Node21&#45;&gt;Node23</title>
<path fill="none" stroke="midnightblue" d="M1329.64,-56.08C1331.5,-48.93 1334.17,-38.64 1336.49,-29.69"/>
<polygon fill="midnightblue" stroke="midnightblue" points="1339.94,-30.31 1339.06,-19.75 1333.16,-28.55 1339.94,-30.31"/>
</g>
<!-- Node21&#45;&gt;Node24 -->
<g id="edge25" class="edge">
<title>Node21&#45;&gt;Node24</title>
<path fill="none" stroke="midnightblue" d="M1306.89,-56.44C1285.66,-47.56 1252.23,-33.56 1228.08,-23.45"/>
<polygon fill="midnightblue" stroke="midnightblue" points="1229.25,-20.15 1218.68,-19.52 1226.55,-26.61 1229.25,-20.15"/>
</g>
<!-- Node27&#45;&gt;Node15 -->
<g id="edge36" class="edge">
<title>Node27&#45;&gt;Node15</title>
<path fill="none" stroke="midnightblue" d="M774.4,-56.44C749.11,-47.4 709.03,-33.06 680.65,-22.92"/>
<polygon fill="midnightblue" stroke="midnightblue" points="681.74,-19.59 671.15,-19.52 679.38,-26.18 681.74,-19.59"/>
</g>
<!-- Node27&#45;&gt;Node24 -->
<g id="edge37" class="edge">
<title>Node27&#45;&gt;Node24</title>
<path fill="none" stroke="midnightblue" d="M843.39,-57.34C846.41,-56.87 849.41,-56.42 852.33,-56 982.62,-37.17 1016.1,-39.23 1146.33,-20 1152.31,-19.12 1158.66,-18.09 1164.8,-17.05"/>
<polygon fill="midnightblue" stroke="midnightblue" points="1165.56,-20.48 1174.81,-15.32 1164.36,-13.58 1165.56,-20.48"/>
</g>
<!-- Node27&#45;&gt;Node25 -->
<g id="edge32" class="edge">
<title>Node27&#45;&gt;Node25</title>
<path fill="none" stroke="midnightblue" d="M843.41,-57.47C846.43,-56.97 849.42,-56.48 852.33,-56 951.84,-39.71 977.32,-39.08 1076.33,-20 1079.21,-19.44 1082.21,-18.83 1085.2,-18.2"/>
<polygon fill="midnightblue" stroke="midnightblue" points="1086.19,-21.57 1095.21,-16.01 1084.69,-14.73 1086.19,-21.57"/>
</g>
<!-- Node28 -->
<g id="node28" class="node">
<title>Node28</title>
<g id="a_node28"><a xlink:title=" ">
<polygon fill="white" stroke="#bfbfbf" points="927.33,-0.5 927.33,-19.5 991.33,-19.5 991.33,-0.5 927.33,-0.5"/>
<text text-anchor="middle" x="959.33" y="-7.5" font-family="Helvetica,sans-Serif" font-size="10.00">algorithm</text>
</a>
</g>
</g>
<!-- Node27&#45;&gt;Node28 -->
<g id="edge31" class="edge">
<title>Node27&#45;&gt;Node28</title>
<path fill="none" stroke="midnightblue" d="M823.84,-56.44C850.93,-47.36 893.92,-32.94 924.2,-22.78"/>
<polygon fill="midnightblue" stroke="midnightblue" points="925.57,-26.01 933.94,-19.52 923.35,-19.38 925.57,-26.01"/>
</g>
<!-- Node29 -->
<g id="node29" class="node">
<title>Node29</title>
<g id="a_node29"><a xlink:title=" ">
<polygon fill="white" stroke="#bfbfbf" points="768.83,-0.5 768.83,-19.5 817.83,-19.5 817.83,-0.5 768.83,-0.5"/>
<text text-anchor="middle" x="793.33" y="-7.5" font-family="Helvetica,sans-Serif" font-size="10.00">cctype</text>
</a>
</g>
</g>
<!-- Node27&#45;&gt;Node29 -->
<g id="edge33" class="edge">
<title>Node27&#45;&gt;Node29</title>
<path fill="none" stroke="midnightblue" d="M797.51,-56.08C796.85,-49.01 795.91,-38.86 795.09,-29.99"/>
<polygon fill="midnightblue" stroke="midnightblue" points="798.55,-29.39 794.14,-19.75 791.58,-30.03 798.55,-29.39"/>
</g>
<!-- Node27&#45;&gt;Node30 -->
<g id="edge34" class="edge">
<title>Node27&#45;&gt;Node30</title>
<path fill="none" stroke="midnightblue" d="M837.47,-56.44C886.18,-45.79 968.44,-27.81 1013.49,-17.96"/>
<polygon fill="midnightblue" stroke="midnightblue" points="1014.28,-21.37 1023.3,-15.82 1012.78,-14.53 1014.28,-21.37"/>
</g>
<!-- Node31 -->
<g id="node31" class="node">
<title>Node31</title>
<g id="a_node31"><a xlink:title=" ">
<polygon fill="white" stroke="#bfbfbf" points="835.83,-0.5 835.83,-19.5 908.83,-19.5 908.83,-0.5 835.83,-0.5"/>
<text text-anchor="middle" x="872.33" y="-7.5" font-family="Helvetica,sans-Serif" font-size="10.00">string_view</text>
</a>
</g>
</g>
<!-- Node27&#45;&gt;Node31 -->
<g id="edge35" class="edge">
<title>Node27&#45;&gt;Node31</title>
<path fill="none" stroke="midnightblue" d="M810.22,-56.32C821.48,-48.11 838.62,-35.6 852.04,-25.81"/>
<polygon fill="midnightblue" stroke="midnightblue" points="854.21,-28.56 860.23,-19.83 850.08,-22.9 854.21,-28.56"/>
</g>
<!-- Node32&#45;&gt;Node15 -->
<g id="edge48" class="edge">
<title>Node32&#45;&gt;Node15</title>
<path fill="none" stroke="midnightblue" d="M935.27,-115.74C880.76,-107.28 778.42,-90.15 744.33,-76 714.27,-63.52 683.76,-41.12 665.19,-26.16"/>
<polygon fill="midnightblue" stroke="midnightblue" points="667.26,-23.33 657.31,-19.68 662.81,-28.74 667.26,-23.33"/>
</g>
<!-- Node32&#45;&gt;Node24 -->
<g id="edge49" class="edge">
<title>Node32&#45;&gt;Node24</title>
<path fill="none" stroke="midnightblue" d="M980.71,-112.35C997.41,-98.78 1031.69,-72.35 1064.33,-56 1097.02,-39.62 1137.04,-27.07 1164.79,-19.43"/>
<polygon fill="midnightblue" stroke="midnightblue" points="1166.03,-22.72 1174.78,-16.75 1164.22,-15.96 1166.03,-22.72"/>
</g>
<!-- Node32&#45;&gt;Node27 -->
<g id="edge39" class="edge">
<title>Node32&#45;&gt;Node27</title>
<path fill="none" stroke="midnightblue" d="M943.08,-112.44C913.89,-103.28 867.41,-88.69 835.02,-78.52"/>
<polygon fill="midnightblue" stroke="midnightblue" points="836.05,-75.17 825.46,-75.52 833.95,-81.85 836.05,-75.17"/>
</g>
<!-- Node33 -->
<g id="node33" class="node">
<title>Node33</title>
<g id="a_node33"><a xlink:href="serialized_8h.html" target="_top" xlink:title=" ">
<polygon fill="white" stroke="black" points="1073.83,-56.5 1073.83,-75.5 1146.83,-75.5 1146.83,-56.5 1073.83,-56.5"/>
<text text-anchor="middle" x="1110.33" y="-63.5" font-family="Helvetica,sans-Serif" font-size="10.00">serialized.h</text>
</a>
</g>
</g>
<!-- Node32&#45;&gt;Node33 -->
<g id="edge40" class="edge">
<title>Node32&#45;&gt;Node33</title>
<path fill="none" stroke="midnightblue" d="M992.51,-112.44C1015.76,-103.48 1052.48,-89.31 1078.75,-79.18"/>
<polygon fill="midnightblue" stroke="midnightblue" points="1080.18,-82.38 1088.25,-75.52 1077.66,-75.85 1080.18,-82.38"/>
</g>
<!-- Node35 -->
<g id="node35" class="node">
<title>Node35</title>
<g id="a_node35"><a xlink:title=" ">
<polygon fill="white" stroke="#bfbfbf" points="861.33,-56.5 861.33,-75.5 919.33,-75.5 919.33,-56.5 861.33,-56.5"/>
<text text-anchor="middle" x="890.33" y="-63.5" font-family="Helvetica,sans-Serif" font-size="10.00">memory</text>
</a>
</g>
</g>
<!-- Node32&#45;&gt;Node35 -->
<g id="edge46" class="edge">
<title>Node32&#45;&gt;Node35</title>
<path fill="none" stroke="midnightblue" d="M957.48,-112.32C945.11,-103.98 926.2,-91.21 911.59,-81.35"/>
<polygon fill="midnightblue" stroke="midnightblue" points="913.4,-78.35 903.15,-75.65 909.48,-84.15 913.4,-78.35"/>
</g>
<!-- Node36 -->
<g id="node36" class="node">
<title>Node36</title>
<g id="a_node36"><a xlink:title=" ">
<polygon fill="white" stroke="#bfbfbf" points="937.83,-56.5 937.83,-75.5 978.83,-75.5 978.83,-56.5 937.83,-56.5"/>
<text text-anchor="middle" x="958.33" y="-63.5" font-family="Helvetica,sans-Serif" font-size="10.00">tuple</text>
</a>
</g>
</g>
<!-- Node32&#45;&gt;Node36 -->
<g id="edge47" class="edge">
<title>Node32&#45;&gt;Node36</title>
<path fill="none" stroke="midnightblue" d="M968.35,-112.08C966.76,-104.93 964.47,-94.64 962.48,-85.69"/>
<polygon fill="midnightblue" stroke="midnightblue" points="965.86,-84.75 960.28,-75.75 959.03,-86.27 965.86,-84.75"/>
</g>
<!-- Node33&#45;&gt;Node18 -->
<g id="edge42" class="edge">
<title>Node33&#45;&gt;Node18</title>
<path fill="none" stroke="midnightblue" d="M1073.7,-61.9C1011.32,-56.28 880.4,-42.98 760.57,-20.02"/>
<polygon fill="midnightblue" stroke="midnightblue" points="760.98,-16.53 750.5,-18.06 759.64,-23.4 760.98,-16.53"/>
</g>
<!-- Node33&#45;&gt;Node23 -->
<g id="edge41" class="edge">
<title>Node33&#45;&gt;Node23</title>
<path fill="none" stroke="midnightblue" d="M1146.88,-56.91C1186.3,-48.11 1250.87,-33.5 1306.33,-20 1306.43,-19.98 1306.53,-19.95 1306.63,-19.93"/>
<polygon fill="midnightblue" stroke="midnightblue" points="1307.26,-23.38 1316.12,-17.57 1305.57,-16.59 1307.26,-23.38"/>
</g>
<!-- Node33&#45;&gt;Node24 -->
<g id="edge45" class="edge">
<title>Node33&#45;&gt;Node24</title>
<path fill="none" stroke="midnightblue" d="M1124.47,-56.32C1138.2,-47.9 1159.27,-34.97 1175.4,-25.07"/>
<polygon fill="midnightblue" stroke="midnightblue" points="1177.53,-27.87 1184.23,-19.65 1173.87,-21.9 1177.53,-27.87"/>
</g>
<!-- Node33&#45;&gt;Node30 -->
<g id="edge44" class="edge">
<title>Node33&#45;&gt;Node30</title>
<path fill="none" stroke="midnightblue" d="M1099.89,-56.32C1090.18,-48.26 1075.52,-36.08 1063.83,-26.37"/>
<polygon fill="midnightblue" stroke="midnightblue" points="1065.89,-23.53 1055.96,-19.83 1061.42,-28.92 1065.89,-23.53"/>
</g>
<!-- Node33&#45;&gt;Node34 -->
<g id="edge43" class="edge">
<title>Node33&#45;&gt;Node34</title>
<path fill="none" stroke="midnightblue" d="M1146.99,-60.16C1222.61,-50.18 1395.58,-27.34 1476.33,-16.68"/>
<polygon fill="midnightblue" stroke="midnightblue" points="1477.18,-20.1 1486.63,-15.32 1476.26,-13.16 1477.18,-20.1"/>
</g>
</g>
</svg>
        <g id="navigator" transform="translate(0 0)" fill="#404254">
                <rect fill="#f2f5e9" fill-opacity="0.5" stroke="#606060" stroke-width=".5" x="0" y="0" width="60" height="60"/>
                <use id="zoomplus" xlink:href="#zoomPlus" x="17" y="9" onmousedown="handleZoom(evt,'in')"/>
                <use id="zoomminus" xlink:href="#zoomMin" x="42" y="9" onmousedown="handleZoom(evt,'out')"/>
                <use id="reset" xlink:href="#resetDef" x="30" y="36" onmousedown="handleReset()"/>
                <g id="arrowUp" xlink:href="#dirArrow" transform="translate(30 24)" onmousedown="handlePan(0,-1)">
                  <use xlink:href="#rim" fill="#404040">
                        <set attributeName="fill" to="#808080" begin="arrowUp.mouseover" end="arrowUp.mouseout"/>
                  </use>
                  <path fill="none" stroke="white" stroke-width="1.5" d="M0,-3.0v7 M-2.5,-0.5L0,-3.0L2.5,-0.5"/>
                </g>
                <g id="arrowRight" xlink:href="#dirArrow" transform="rotate(90) translate(36 -43)" onmousedown="handlePan(1,0)">
                  <use xlink:href="#rim" fill="#404040">
                        <set attributeName="fill" to="#808080" begin="arrowRight.mouseover" end="arrowRight.mouseout"/>
                  </use>
                  <path fill="none" stroke="white" stroke-width="1.5" d="M0,-3.0v7 M-2.5,-0.5L0,-3.0L2.5,-0.5"/>
                </g>
                <g id="arrowDown" xlink:href="#dirArrow" transform="rotate(180) translate(-30 -48)" onmousedown="handlePan(0,1)">
                  <use xlink:href="#rim" fill="#404040">
                        <set attributeName="fill" to="#808080" begin="arrowDown.mouseover" end="arrowDown.mouseout"/>
                  </use>
                  <path fill="none" stroke="white" stroke-width="1.5" d="M0,-3.0v7 M-2.5,-0.5L0,-3.0L2.5,-0.5"/>
                </g>
                <g id="arrowLeft" xlink:href="#dirArrow" transform="rotate(270) translate(-36 17)" onmousedown="handlePan(-1,0)">
                  <use xlink:href="#rim" fill="#404040">
                        <set attributeName="fill" to="#808080" begin="arrowLeft.mouseover" end="arrowLeft.mouseout"/>
                  </use>
                  <path fill="none" stroke="white" stroke-width="1.5" d="M0,-3.0v7 M-2.5,-0.5L0,-3.0L2.5,-0.5"/>
                </g>
        </g>
        <svg viewBox="0 0 15 15" width="100%" height="30px" preserveAspectRatio="xMaxYMin meet">
         <g id="arrow_out" transform="scale(0.3 0.3)">
          <a xlink:href="messaging_8h__incl_org.svg" target="_base">
           <rect id="button" ry="5" rx="5" y="6" x="6" height="38" width="38"
                fill="#f2f5e9" fill-opacity="0.5" stroke="#606060" stroke-width="1.0"/>
           <path id="arrow"
             d="M 11.500037,31.436501 C 11.940474,20.09759 22.043105,11.32322 32.158766,21.979434 L 37.068811,17.246167 C 37.068811,17.246167 37.088388,32 37.088388,32 L 22.160133,31.978069 C 22.160133,31.978069 26.997745,27.140456 26.997745,27.140456 C 18.528582,18.264221 13.291696,25.230495 11.500037,31.436501 z"
             style="fill:#404040;"/>
          </a>
         </g>
        </svg>
</svg>
