<?xml version="1.0" encoding="UTF-8" standalone="no"?>
<!DOCTYPE svg PUBLIC "-//W3C//DTD SVG 1.1//EN"
 "http://www.w3.org/Graphics/SVG/1.1/DTD/svg11.dtd">
<!-- Generated by graphviz version 2.43.0 (0)
 -->
<!-- Title: src/node/node_types.h Pages: 1 -->
<!--zoomable 554 -->
<svg id="main" version="1.1" xmlns="http://www.w3.org/2000/svg" xmlns:xlink="http://www.w3.org/1999/xlink" xml:space="preserve" onload="init(evt)">
<style type="text/css"><![CDATA[
.edge:hover path { stroke: red; }
.edge:hover polygon { stroke: red; fill: red; }
]]></style>
<script type="text/javascript"><![CDATA[
var edges = document.getElementsByTagName('g');
if (edges && edges.length) {
  for (var i=0;i<edges.length;i++) {
    if (edges[i].id.substr(0,4)=='edge') {
      edges[i].setAttribute('class','edge');
    }
  }
}
]]></script>
        <defs>
                <circle id="rim" cx="0" cy="0" r="7"/>
                <circle id="rim2" cx="0" cy="0" r="3.5"/>
                <g id="zoomPlus">
                        <use xlink:href="#rim" fill="#404040">
                                <set attributeName="fill" to="#808080" begin="zoomplus.mouseover" end="zoomplus.mouseout"/>
                        </use>
                        <path d="M-4,0h8M0,-4v8" fill="none" stroke="white" stroke-width="1.5" pointer-events="none"/>
                </g>
                <g id="zoomMin">
                        <use xlink:href="#rim" fill="#404040">
                                <set attributeName="fill" to="#808080" begin="zoomminus.mouseover" end="zoomminus.mouseout"/>
                        </use>
                        <path d="M-4,0h8" fill="none" stroke="white" stroke-width="1.5" pointer-events="none"/>
                </g>
                <g id="dirArrow">
                        <path fill="none" stroke="white" stroke-width="1.5" d="M0,-3.0v7 M-2.5,-0.5L0,-3.0L2.5,-0.5"/>
                </g>
               <g id="resetDef">
                       <use xlink:href="#rim2" fill="#404040">
                               <set attributeName="fill" to="#808080" begin="reset.mouseover" end="reset.mouseout"/>
                       </use>
               </g>
        </defs>

<script type="text/javascript">
var viewWidth = 756;
var viewHeight = 554;
var sectionId = 'dynsection-1';
</script>
<script xlink:href="svgpan.js"/>
<svg id="graph" class="graph">
<g id="viewport">
<title>src/node/node_types.h</title>
<polygon fill="white" stroke="transparent" points="-4,4 -4,-550 752,-550 752,4 -4,4"/>
<!-- Node1 -->
<g id="node1" class="node">
<title>Node1</title>
<g id="a_node1"><a xlink:title=" ">
<polygon fill="#bfbfbf" stroke="black" points="123,-526.5 123,-545.5 249,-545.5 249,-526.5 123,-526.5"/>
<text text-anchor="middle" x="186" y="-533.5" font-family="Helvetica,sans-Serif" font-size="10.00">src/node/node_types.h</text>
</a>
</g>
</g>
<!-- Node2 -->
<g id="node2" class="node">
<title>Node2</title>
<g id="a_node2"><a xlink:href="raft_8h.html" target="_top" xlink:title=" ">
<polygon fill="white" stroke="black" points="28.5,-409 28.5,-428 157.5,-428 157.5,-409 28.5,-409"/>
<text text-anchor="middle" x="93" y="-416" font-family="Helvetica,sans-Serif" font-size="10.00">src/consensus/aft/raft.h</text>
</a>
</g>
</g>
<!-- Node1&#45;&gt;Node2 -->
<g id="edge1" class="edge">
<title>Node1&#45;&gt;Node2</title>
<path fill="none" stroke="midnightblue" d="M159,-521.65C145.74,-513.95 130.41,-503.17 120,-490 104.88,-470.88 97.48,-442.33 94.56,-428.14"/>
<polygon fill="midnightblue" stroke="midnightblue" points="157.32,-524.72 167.77,-526.48 160.7,-518.59 157.32,-524.72"/>
</g>
<!-- Node4 -->
<g id="node4" class="node">
<title>Node4</title>
<g id="a_node4"><a xlink:href="enclave_2enclave_8h.html" target="_top" xlink:title=" ">
<polygon fill="white" stroke="black" points="437,-56.5 437,-75.5 559,-75.5 559,-56.5 437,-56.5"/>
<text text-anchor="middle" x="498" y="-63.5" font-family="Helvetica,sans-Serif" font-size="10.00">src/enclave/enclave.h</text>
</a>
</g>
</g>
<!-- Node1&#45;&gt;Node4 -->
<g id="edge7" class="edge">
<title>Node1&#45;&gt;Node4</title>
<path fill="none" stroke="midnightblue" d="M126.71,-524C72.26,-510.07 0,-480.15 0,-419.5 0,-419.5 0,-419.5 0,-177 0,-88.46 303.96,-71.12 436.94,-67.78"/>
<polygon fill="midnightblue" stroke="midnightblue" points="126.1,-527.45 136.64,-526.42 127.76,-520.65 126.1,-527.45"/>
</g>
<!-- Node7 -->
<g id="node7" class="node">
<title>Node7</title>
<g id="a_node7"><a xlink:href="node__connections_8h.html" target="_top" xlink:title=" ">
<polygon fill="white" stroke="black" points="479.5,-470.5 479.5,-489.5 634.5,-489.5 634.5,-470.5 479.5,-470.5"/>
<text text-anchor="middle" x="557" y="-477.5" font-family="Helvetica,sans-Serif" font-size="10.00">src/host/node_connections.h</text>
</a>
</g>
</g>
<!-- Node1&#45;&gt;Node7 -->
<g id="edge8" class="edge">
<title>Node1&#45;&gt;Node7</title>
<path fill="none" stroke="midnightblue" d="M254.85,-524.98C324.93,-514.78 432.39,-499.14 498.49,-489.52"/>
<polygon fill="midnightblue" stroke="midnightblue" points="254.18,-521.54 244.79,-526.44 255.19,-528.47 254.18,-521.54"/>
</g>
<!-- Node9 -->
<g id="node9" class="node">
<title>Node9</title>
<g id="a_node9"><a xlink:href="channels_8h.html" target="_top" xlink:title=" ">
<polygon fill="white" stroke="black" points="129.5,-470.5 129.5,-489.5 242.5,-489.5 242.5,-470.5 129.5,-470.5"/>
<text text-anchor="middle" x="186" y="-477.5" font-family="Helvetica,sans-Serif" font-size="10.00">src/node/channels.h</text>
</a>
</g>
</g>
<!-- Node1&#45;&gt;Node9 -->
<g id="edge10" class="edge">
<title>Node1&#45;&gt;Node9</title>
<path fill="none" stroke="midnightblue" d="M186,-515.8C186,-506.91 186,-496.78 186,-489.75"/>
<polygon fill="midnightblue" stroke="midnightblue" points="182.5,-516.08 186,-526.08 189.5,-516.08 182.5,-516.08"/>
</g>
<!-- Node11 -->
<g id="node11" class="node">
<title>Node11</title>
<g id="a_node11"><a xlink:href="node__to__node_8h.html" target="_top" xlink:title=" ">
<polygon fill="white" stroke="black" points="261,-470.5 261,-489.5 399,-489.5 399,-470.5 261,-470.5"/>
<text text-anchor="middle" x="330" y="-477.5" font-family="Helvetica,sans-Serif" font-size="10.00">src/node/node_to_node.h</text>
</a>
</g>
</g>
<!-- Node1&#45;&gt;Node11 -->
<g id="edge13" class="edge">
<title>Node1&#45;&gt;Node11</title>
<path fill="none" stroke="midnightblue" d="M218.25,-522.91C245.32,-512.75 283.32,-498.51 307.29,-489.52"/>
<polygon fill="midnightblue" stroke="midnightblue" points="216.95,-519.66 208.82,-526.44 219.41,-526.21 216.95,-519.66"/>
</g>
<!-- Node3 -->
<g id="node3" class="node">
<title>Node3</title>
<g id="a_node3"><a xlink:href="node__state_8h.html" target="_top" xlink:title=" ">
<polygon fill="white" stroke="black" points="254,-168.5 254,-187.5 378,-187.5 378,-168.5 254,-168.5"/>
<text text-anchor="middle" x="316" y="-175.5" font-family="Helvetica,sans-Serif" font-size="10.00">src/node/node_state.h</text>
</a>
</g>
</g>
<!-- Node2&#45;&gt;Node3 -->
<g id="edge2" class="edge">
<title>Node2&#45;&gt;Node3</title>
<path fill="none" stroke="midnightblue" d="M103.97,-400.21C127.25,-364.42 184.59,-280.78 247,-224 263.4,-209.08 285.23,-195.73 299.91,-187.52"/>
<polygon fill="midnightblue" stroke="midnightblue" points="100.8,-398.68 98.33,-408.98 106.68,-402.46 100.8,-398.68"/>
</g>
<!-- Node3&#45;&gt;Node4 -->
<g id="edge3" class="edge">
<title>Node3&#45;&gt;Node4</title>
<path fill="none" stroke="midnightblue" d="M350.28,-164.78C370.9,-156.77 397.27,-145.33 419,-132 446.55,-115.1 474.86,-89.38 488.92,-75.92"/>
<polygon fill="midnightblue" stroke="midnightblue" points="348.77,-161.61 340.67,-168.43 351.26,-168.15 348.77,-161.61"/>
</g>
<!-- Node6 -->
<g id="node6" class="node">
<title>Node6</title>
<g id="a_node6"><a xlink:href="gov__effects_8h.html" target="_top" xlink:title=" ">
<polygon fill="white" stroke="black" points="266,-112.5 266,-131.5 410,-131.5 410,-112.5 266,-112.5"/>
<text text-anchor="middle" x="338" y="-119.5" font-family="Helvetica,sans-Serif" font-size="10.00">src/node/rpc/gov_effects.h</text>
</a>
</g>
</g>
<!-- Node3&#45;&gt;Node6 -->
<g id="edge5" class="edge">
<title>Node3&#45;&gt;Node6</title>
<path fill="none" stroke="midnightblue" d="M323.46,-158.69C327.17,-149.59 331.48,-139.01 334.43,-131.75"/>
<polygon fill="midnightblue" stroke="midnightblue" points="320.16,-157.5 319.63,-168.08 326.65,-160.14 320.16,-157.5"/>
</g>
<!-- Node5 -->
<g id="node5" class="node">
<title>Node5</title>
<g id="a_node5"><a xlink:href="enclave_2main_8cpp.html" target="_top" xlink:title=" ">
<polygon fill="white" stroke="black" points="438,-0.5 438,-19.5 558,-19.5 558,-0.5 438,-0.5"/>
<text text-anchor="middle" x="498" y="-7.5" font-family="Helvetica,sans-Serif" font-size="10.00">src/enclave/main.cpp</text>
</a>
</g>
</g>
<!-- Node4&#45;&gt;Node5 -->
<g id="edge4" class="edge">
<title>Node4&#45;&gt;Node5</title>
<path fill="none" stroke="midnightblue" d="M498,-45.8C498,-36.91 498,-26.78 498,-19.75"/>
<polygon fill="midnightblue" stroke="midnightblue" points="494.5,-46.08 498,-56.08 501.5,-46.08 494.5,-46.08"/>
</g>
<!-- Node6&#45;&gt;Node4 -->
<g id="edge6" class="edge">
<title>Node6&#45;&gt;Node4</title>
<path fill="none" stroke="midnightblue" d="M373.05,-109.17C403.17,-99 445.9,-84.59 472.77,-75.52"/>
<polygon fill="midnightblue" stroke="midnightblue" points="371.71,-105.93 363.35,-112.44 373.95,-112.56 371.71,-105.93"/>
</g>
<!-- Node8 -->
<g id="node8" class="node">
<title>Node8</title>
<g id="a_node8"><a xlink:href="host_2main_8cpp.html" target="_top" xlink:title=" ">
<polygon fill="white" stroke="black" points="520.5,-409 520.5,-428 623.5,-428 623.5,-409 520.5,-409"/>
<text text-anchor="middle" x="572" y="-416" font-family="Helvetica,sans-Serif" font-size="10.00">src/host/main.cpp</text>
</a>
</g>
</g>
<!-- Node7&#45;&gt;Node8 -->
<g id="edge9" class="edge">
<title>Node7&#45;&gt;Node8</title>
<path fill="none" stroke="midnightblue" d="M561.62,-460.66C564.37,-449.77 567.72,-436.49 569.85,-428.01"/>
<polygon fill="midnightblue" stroke="midnightblue" points="558.2,-459.92 559.15,-470.48 564.99,-461.63 558.2,-459.92"/>
</g>
<!-- Node10 -->
<g id="node10" class="node">
<title>Node10</title>
<g id="a_node10"><a xlink:href="node__to__node__channel__manager_8h.html" target="_top" xlink:title=" ">
<polygon fill="white" stroke="black" points="175.5,-403.5 175.5,-433.5 304.5,-433.5 304.5,-403.5 175.5,-403.5"/>
<text text-anchor="start" x="183.5" y="-421.5" font-family="Helvetica,sans-Serif" font-size="10.00">src/node/node_to_node</text>
<text text-anchor="middle" x="240" y="-410.5" font-family="Helvetica,sans-Serif" font-size="10.00">_channel_manager.h</text>
</a>
</g>
</g>
<!-- Node9&#45;&gt;Node10 -->
<g id="edge11" class="edge">
<title>Node9&#45;&gt;Node10</title>
<path fill="none" stroke="midnightblue" d="M200.69,-462.81C209.01,-453.65 219.3,-442.3 227.27,-433.52"/>
<polygon fill="midnightblue" stroke="midnightblue" points="197.87,-460.72 193.74,-470.48 203.05,-465.42 197.87,-460.72"/>
</g>
<!-- Node10&#45;&gt;Node3 -->
<g id="edge12" class="edge">
<title>Node10&#45;&gt;Node3</title>
<path fill="none" stroke="midnightblue" d="M237.66,-393.14C235.1,-354.75 234.69,-278.9 264,-224 272.43,-208.2 288.84,-195.47 300.98,-187.63"/>
<polygon fill="midnightblue" stroke="midnightblue" points="234.19,-393.66 238.45,-403.35 241.17,-393.11 234.19,-393.66"/>
</g>
<!-- Node11&#45;&gt;Node2 -->
<g id="edge14" class="edge">
<title>Node11&#45;&gt;Node2</title>
<path fill="none" stroke="midnightblue" d="M286.06,-467.97C240.04,-456.41 168.75,-438.52 126.89,-428.01"/>
<polygon fill="midnightblue" stroke="midnightblue" points="285.49,-471.43 296.04,-470.48 287.2,-464.65 285.49,-471.43"/>
</g>
<!-- Node11&#45;&gt;Node3 -->
<g id="edge15" class="edge">
<title>Node11&#45;&gt;Node3</title>
<path fill="none" stroke="midnightblue" d="M328.32,-460.29C324.97,-421.86 317.55,-331.25 315,-255 314.19,-230.73 315.06,-202.09 315.61,-187.9"/>
<polygon fill="midnightblue" stroke="midnightblue" points="324.85,-460.81 329.22,-470.47 331.83,-460.2 324.85,-460.81"/>
</g>
<!-- Node11&#45;&gt;Node10 -->
<g id="edge16" class="edge">
<title>Node11&#45;&gt;Node10</title>
<path fill="none" stroke="midnightblue" d="M308.43,-464.74C294.12,-455.28 275.44,-442.93 261.21,-433.52"/>
<polygon fill="midnightblue" stroke="midnightblue" points="306.83,-467.88 317.11,-470.48 310.69,-462.04 306.83,-467.88"/>
</g>
<!-- Node12 -->
<g id="node12" class="node">
<title>Node12</title>
<g id="a_node12"><a xlink:href="forwarder_8h.html" target="_top" xlink:title=" ">
<polygon fill="white" stroke="black" points="368,-409 368,-428 502,-428 502,-409 368,-409"/>
<text text-anchor="middle" x="435" y="-416" font-family="Helvetica,sans-Serif" font-size="10.00">src/node/rpc/forwarder.h</text>
</a>
</g>
</g>
<!-- Node11&#45;&gt;Node12 -->
<g id="edge17" class="edge">
<title>Node11&#45;&gt;Node12</title>
<path fill="none" stroke="midnightblue" d="M354,-465.4C374.3,-453.9 402.76,-437.77 419.98,-428.01"/>
<polygon fill="midnightblue" stroke="midnightblue" points="352.02,-462.5 345.04,-470.48 355.47,-468.59 352.02,-462.5"/>
</g>
<!-- Node12&#45;&gt;Node4 -->
<g id="edge18" class="edge">
<title>Node12&#45;&gt;Node4</title>
<path fill="none" stroke="midnightblue" d="M477.59,-406.37C563.19,-383.39 748,-330.48 748,-302 748,-302 748,-302 748,-177 748,-94.73 633.17,-73.45 559.16,-68.28"/>
<polygon fill="midnightblue" stroke="midnightblue" points="476.66,-402.99 467.9,-408.95 478.47,-409.76 476.66,-402.99"/>
</g>
<!-- Node13 -->
<g id="node13" class="node">
<title>Node13</title>
<g id="a_node13"><a xlink:href="frontend_8h.html" target="_top" xlink:title=" ">
<polygon fill="white" stroke="black" points="376.5,-347.5 376.5,-366.5 505.5,-366.5 505.5,-347.5 376.5,-347.5"/>
<text text-anchor="middle" x="441" y="-354.5" font-family="Helvetica,sans-Serif" font-size="10.00">src/node/rpc/frontend.h</text>
</a>
</g>
</g>
<!-- Node12&#45;&gt;Node13 -->
<g id="edge19" class="edge">
<title>Node12&#45;&gt;Node13</title>
<path fill="none" stroke="midnightblue" d="M436.88,-398.82C437.98,-388 439.3,-374.9 440.14,-366.51"/>
<polygon fill="midnightblue" stroke="midnightblue" points="433.38,-398.67 435.86,-408.98 440.35,-399.38 433.38,-398.67"/>
</g>
<!-- Node13&#45;&gt;Node3 -->
<g id="edge20" class="edge">
<title>Node13&#45;&gt;Node3</title>
<path fill="none" stroke="midnightblue" d="M401.25,-343.62C384.27,-336.51 365.51,-325.97 353,-311 321.4,-273.21 316.71,-210.23 316.07,-187.5"/>
<polygon fill="midnightblue" stroke="midnightblue" points="400.4,-347.04 410.99,-347.41 402.94,-340.52 400.4,-347.04"/>
</g>
<!-- Node14 -->
<g id="node14" class="node">
<title>Node14</title>
<g id="a_node14"><a xlink:href="member__frontend_8h.html" target="_top" xlink:title=" ">
<polygon fill="white" stroke="black" points="526,-224.5 526,-254.5 646,-254.5 646,-224.5 526,-224.5"/>
<text text-anchor="start" x="534" y="-242.5" font-family="Helvetica,sans-Serif" font-size="10.00">src/node/rpc/member</text>
<text text-anchor="middle" x="586" y="-231.5" font-family="Helvetica,sans-Serif" font-size="10.00">_frontend.h</text>
</a>
</g>
</g>
<!-- Node13&#45;&gt;Node14 -->
<g id="edge21" class="edge">
<title>Node13&#45;&gt;Node14</title>
<path fill="none" stroke="midnightblue" d="M473.16,-343.46C490.73,-335.69 512.25,-324.59 529,-311 549.16,-294.63 567.01,-270.08 577.16,-254.69"/>
<polygon fill="midnightblue" stroke="midnightblue" points="471.69,-340.29 463.86,-347.43 474.44,-346.72 471.69,-340.29"/>
</g>
<!-- Node15 -->
<g id="node15" class="node">
<title>Node15</title>
<g id="a_node15"><a xlink:href="node__frontend_8h.html" target="_top" xlink:title=" ">
<polygon fill="white" stroke="black" points="362,-291.5 362,-310.5 520,-310.5 520,-291.5 362,-291.5"/>
<text text-anchor="middle" x="441" y="-298.5" font-family="Helvetica,sans-Serif" font-size="10.00">src/node/rpc/node_frontend.h</text>
</a>
</g>
</g>
<!-- Node13&#45;&gt;Node15 -->
<g id="edge23" class="edge">
<title>Node13&#45;&gt;Node15</title>
<path fill="none" stroke="midnightblue" d="M441,-336.8C441,-327.91 441,-317.78 441,-310.75"/>
<polygon fill="midnightblue" stroke="midnightblue" points="437.5,-337.08 441,-347.08 444.5,-337.08 437.5,-337.08"/>
</g>
<!-- Node17 -->
<g id="node17" class="node">
<title>Node17</title>
<g id="a_node17"><a xlink:href="user__frontend_8h.html" target="_top" xlink:title=" ">
<polygon fill="white" stroke="black" points="564.5,-168.5 564.5,-187.5 719.5,-187.5 719.5,-168.5 564.5,-168.5"/>
<text text-anchor="middle" x="642" y="-175.5" font-family="Helvetica,sans-Serif" font-size="10.00">src/node/rpc/user_frontend.h</text>
</a>
</g>
</g>
<!-- Node13&#45;&gt;Node17 -->
<g id="edge27" class="edge">
<title>Node13&#45;&gt;Node17</title>
<path fill="none" stroke="midnightblue" d="M506.41,-345.18C557.14,-332.9 623.9,-307.31 655,-255 667.86,-233.37 654.82,-202.52 646.99,-187.66"/>
<polygon fill="midnightblue" stroke="midnightblue" points="505.45,-341.8 496.49,-347.46 507.02,-348.63 505.45,-341.8"/>
</g>
<!-- Node14&#45;&gt;Node4 -->
<g id="edge22" class="edge">
<title>Node14&#45;&gt;Node4</title>
<path fill="none" stroke="midnightblue" d="M571.72,-215.45C566.59,-206.92 560.88,-197.11 556,-188 533.9,-146.72 510.75,-95.67 501.82,-75.64"/>
<polygon fill="midnightblue" stroke="midnightblue" points="568.8,-217.39 576.99,-224.11 574.78,-213.75 568.8,-217.39"/>
</g>
<!-- Node15&#45;&gt;Node4 -->
<g id="edge24" class="edge">
<title>Node15&#45;&gt;Node4</title>
<path fill="none" stroke="midnightblue" d="M458.31,-284.35C465.99,-276.36 474.33,-266.01 479,-255 506.27,-190.67 501.32,-103.24 498.88,-75.69"/>
<polygon fill="midnightblue" stroke="midnightblue" points="455.72,-281.99 451.01,-291.49 460.61,-287 455.72,-281.99"/>
</g>
<!-- Node16 -->
<g id="node16" class="node">
<title>Node16</title>
<g id="a_node16"><a xlink:href="jwt__key__auto__refresh_8h.html" target="_top" xlink:title=" ">
<polygon fill="white" stroke="black" points="344.5,-224.5 344.5,-254.5 469.5,-254.5 469.5,-224.5 344.5,-224.5"/>
<text text-anchor="start" x="352.5" y="-242.5" font-family="Helvetica,sans-Serif" font-size="10.00">src/node/jwt_key_auto</text>
<text text-anchor="middle" x="407" y="-231.5" font-family="Helvetica,sans-Serif" font-size="10.00">_refresh.h</text>
</a>
</g>
</g>
<!-- Node15&#45;&gt;Node16 -->
<g id="edge25" class="edge">
<title>Node15&#45;&gt;Node16</title>
<path fill="none" stroke="midnightblue" d="M431.1,-282.68C425.99,-273.73 419.83,-262.94 415.01,-254.52"/>
<polygon fill="midnightblue" stroke="midnightblue" points="428.13,-284.53 436.13,-291.48 434.21,-281.06 428.13,-284.53"/>
</g>
<!-- Node16&#45;&gt;Node3 -->
<g id="edge26" class="edge">
<title>Node16&#45;&gt;Node3</title>
<path fill="none" stroke="midnightblue" d="M376.83,-218.78C360.71,-208.23 341.67,-195.78 329.24,-187.66"/>
<polygon fill="midnightblue" stroke="midnightblue" points="375.15,-221.86 385.43,-224.4 378.98,-216 375.15,-221.86"/>
</g>
<!-- Node17&#45;&gt;Node4 -->
<g id="edge28" class="edge">
<title>Node17&#45;&gt;Node4</title>
<path fill="none" stroke="midnightblue" d="M622.52,-162.12C591.95,-138.77 533.7,-94.27 509.25,-75.59"/>
<polygon fill="midnightblue" stroke="midnightblue" points="620.63,-165.08 630.7,-168.37 624.88,-159.52 620.63,-165.08"/>
</g>
</g>
</svg>
        <g id="navigator" transform="translate(0 0)" fill="#404254">
                <rect fill="#f2f5e9" fill-opacity="0.5" stroke="#606060" stroke-width=".5" x="0" y="0" width="60" height="60"/>
                <use id="zoomplus" xlink:href="#zoomPlus" x="17" y="9" onmousedown="handleZoom(evt,'in')"/>
                <use id="zoomminus" xlink:href="#zoomMin" x="42" y="9" onmousedown="handleZoom(evt,'out')"/>
                <use id="reset" xlink:href="#resetDef" x="30" y="36" onmousedown="handleReset()"/>
                <g id="arrowUp" xlink:href="#dirArrow" transform="translate(30 24)" onmousedown="handlePan(0,-1)">
                  <use xlink:href="#rim" fill="#404040">
                        <set attributeName="fill" to="#808080" begin="arrowUp.mouseover" end="arrowUp.mouseout"/>
                  </use>
                  <path fill="none" stroke="white" stroke-width="1.5" d="M0,-3.0v7 M-2.5,-0.5L0,-3.0L2.5,-0.5"/>
                </g>
                <g id="arrowRight" xlink:href="#dirArrow" transform="rotate(90) translate(36 -43)" onmousedown="handlePan(1,0)">
                  <use xlink:href="#rim" fill="#404040">
                        <set attributeName="fill" to="#808080" begin="arrowRight.mouseover" end="arrowRight.mouseout"/>
                  </use>
                  <path fill="none" stroke="white" stroke-width="1.5" d="M0,-3.0v7 M-2.5,-0.5L0,-3.0L2.5,-0.5"/>
                </g>
                <g id="arrowDown" xlink:href="#dirArrow" transform="rotate(180) translate(-30 -48)" onmousedown="handlePan(0,1)">
                  <use xlink:href="#rim" fill="#404040">
                        <set attributeName="fill" to="#808080" begin="arrowDown.mouseover" end="arrowDown.mouseout"/>
                  </use>
                  <path fill="none" stroke="white" stroke-width="1.5" d="M0,-3.0v7 M-2.5,-0.5L0,-3.0L2.5,-0.5"/>
                </g>
                <g id="arrowLeft" xlink:href="#dirArrow" transform="rotate(270) translate(-36 17)" onmousedown="handlePan(-1,0)">
                  <use xlink:href="#rim" fill="#404040">
                        <set attributeName="fill" to="#808080" begin="arrowLeft.mouseover" end="arrowLeft.mouseout"/>
                  </use>
                  <path fill="none" stroke="white" stroke-width="1.5" d="M0,-3.0v7 M-2.5,-0.5L0,-3.0L2.5,-0.5"/>
                </g>
        </g>
        <svg viewBox="0 0 15 15" width="100%" height="30px" preserveAspectRatio="xMaxYMin meet">
         <g id="arrow_out" transform="scale(0.3 0.3)">
          <a xlink:href="node__types_8h__dep__incl_org.svg" target="_base">
           <rect id="button" ry="5" rx="5" y="6" x="6" height="38" width="38"
                fill="#f2f5e9" fill-opacity="0.5" stroke="#606060" stroke-width="1.0"/>
           <path id="arrow"
             d="M 11.500037,31.436501 C 11.940474,20.09759 22.043105,11.32322 32.158766,21.979434 L 37.068811,17.246167 C 37.068811,17.246167 37.088388,32 37.088388,32 L 22.160133,31.978069 C 22.160133,31.978069 26.997745,27.140456 26.997745,27.140456 C 18.528582,18.264221 13.291696,25.230495 11.500037,31.436501 z"
             style="fill:#404040;"/>
          </a>
         </g>
        </svg>
</svg>
