<?xml version="1.0" encoding="UTF-8" standalone="no"?>
<!DOCTYPE svg PUBLIC "-//W3C//DTD SVG 1.1//EN"
 "http://www.w3.org/Graphics/SVG/1.1/DTD/svg11.dtd">
<!-- Generated by graphviz version 2.43.0 (0)
 -->
<!-- Title: src/node/node_to_node.h Pages: 1 -->
<svg width="665pt" height="498pt"
 viewBox="0.00 0.00 665.35 498.00" xmlns="http://www.w3.org/2000/svg" xmlns:xlink="http://www.w3.org/1999/xlink">
<g id="graph0" class="graph" transform="scale(1 1) rotate(0) translate(4 494)">
<title>src/node/node_to_node.h</title>
<polygon fill="white" stroke="transparent" points="-4,4 -4,-494 661.35,-494 661.35,4 -4,4"/>
<!-- Node1 -->
<g id="node1" class="node">
<title>Node1</title>
<g id="a_node1"><a xlink:title=" ">
<polygon fill="#bfbfbf" stroke="black" points="71.35,-470.5 71.35,-489.5 209.35,-489.5 209.35,-470.5 71.35,-470.5"/>
<text text-anchor="middle" x="140.35" y="-477.5" font-family="Helvetica,sans-Serif" font-size="10.00">src/node/node_to_node.h</text>
</a>
</g>
</g>
<!-- Node2 -->
<g id="node2" class="node">
<title>Node2</title>
<g id="a_node2"><a xlink:href="raft_8h.html" target="_top" xlink:title=" ">
<polygon fill="white" stroke="black" points="122.85,-358.5 122.85,-377.5 251.85,-377.5 251.85,-358.5 122.85,-358.5"/>
<text text-anchor="middle" x="187.35" y="-365.5" font-family="Helvetica,sans-Serif" font-size="10.00">src/consensus/aft/raft.h</text>
</a>
</g>
</g>
<!-- Node1&#45;&gt;Node2 -->
<g id="edge1" class="edge">
<title>Node1&#45;&gt;Node2</title>
<path fill="none" stroke="midnightblue" d="M148.04,-461C158.29,-437 176.04,-395.47 183.68,-377.59"/>
<polygon fill="midnightblue" stroke="midnightblue" points="144.75,-459.8 144.03,-470.37 151.18,-462.55 144.75,-459.8"/>
</g>
<!-- Node3 -->
<g id="node3" class="node">
<title>Node3</title>
<g id="a_node3"><a xlink:href="node__state_8h.html" target="_top" xlink:title=" ">
<polygon fill="white" stroke="black" points="145.35,-174 145.35,-193 269.35,-193 269.35,-174 145.35,-174"/>
<text text-anchor="middle" x="207.35" y="-181" font-family="Helvetica,sans-Serif" font-size="10.00">src/node/node_state.h</text>
</a>
</g>
</g>
<!-- Node1&#45;&gt;Node3 -->
<g id="edge7" class="edge">
<title>Node1&#45;&gt;Node3</title>
<path fill="none" stroke="midnightblue" d="M101.7,-467.02C60.57,-451.58 1.35,-420.42 1.35,-369 1.35,-369 1.35,-369 1.35,-311 1.35,-276.18 -4.04,-259.85 20.35,-235 52.73,-202 104.28,-189.88 145.06,-185.73"/>
<polygon fill="midnightblue" stroke="midnightblue" points="100.61,-470.35 111.21,-470.43 102.98,-463.76 100.61,-470.35"/>
</g>
<!-- Node7 -->
<g id="node7" class="node">
<title>Node7</title>
<g id="a_node7"><a xlink:href="node__to__node__channel__manager_8h.html" target="_top" xlink:title=" ">
<polygon fill="white" stroke="black" points="29.85,-235.5 29.85,-265.5 158.85,-265.5 158.85,-235.5 29.85,-235.5"/>
<text text-anchor="start" x="37.85" y="-253.5" font-family="Helvetica,sans-Serif" font-size="10.00">src/node/node_to_node</text>
<text text-anchor="middle" x="94.35" y="-242.5" font-family="Helvetica,sans-Serif" font-size="10.00">_channel_manager.h</text>
</a>
</g>
</g>
<!-- Node1&#45;&gt;Node7 -->
<g id="edge8" class="edge">
<title>Node1&#45;&gt;Node7</title>
<path fill="none" stroke="midnightblue" d="M135.08,-460.7C129.41,-440.56 120.39,-407.17 114.35,-378 105.95,-337.5 99.2,-289.08 96.13,-265.62"/>
<polygon fill="midnightblue" stroke="midnightblue" points="131.74,-461.76 137.84,-470.42 138.47,-459.84 131.74,-461.76"/>
</g>
<!-- Node8 -->
<g id="node8" class="node">
<title>Node8</title>
<g id="a_node8"><a xlink:href="forwarder_8h.html" target="_top" xlink:title=" ">
<polygon fill="white" stroke="black" points="360.35,-414.5 360.35,-433.5 494.35,-433.5 494.35,-414.5 360.35,-414.5"/>
<text text-anchor="middle" x="427.35" y="-421.5" font-family="Helvetica,sans-Serif" font-size="10.00">src/node/rpc/forwarder.h</text>
</a>
</g>
</g>
<!-- Node1&#45;&gt;Node8 -->
<g id="edge10" class="edge">
<title>Node1&#45;&gt;Node8</title>
<path fill="none" stroke="midnightblue" d="M195.95,-468.54C250.2,-458.33 331.68,-443 382.08,-433.52"/>
<polygon fill="midnightblue" stroke="midnightblue" points="195,-465.15 185.82,-470.44 196.3,-472.03 195,-465.15"/>
</g>
<!-- Node2&#45;&gt;Node3 -->
<g id="edge2" class="edge">
<title>Node2&#45;&gt;Node3</title>
<path fill="none" stroke="midnightblue" d="M189.4,-348.22C193.67,-309.32 203.32,-221.21 206.39,-193.21"/>
<polygon fill="midnightblue" stroke="midnightblue" points="185.92,-347.88 188.31,-358.2 192.88,-348.64 185.92,-347.88"/>
</g>
<!-- Node4 -->
<g id="node4" class="node">
<title>Node4</title>
<g id="a_node4"><a xlink:href="enclave_2enclave_8h.html" target="_top" xlink:title=" ">
<polygon fill="white" stroke="black" points="399.35,-56.5 399.35,-75.5 521.35,-75.5 521.35,-56.5 399.35,-56.5"/>
<text text-anchor="middle" x="460.35" y="-63.5" font-family="Helvetica,sans-Serif" font-size="10.00">src/enclave/enclave.h</text>
</a>
</g>
</g>
<!-- Node3&#45;&gt;Node4 -->
<g id="edge3" class="edge">
<title>Node3&#45;&gt;Node4</title>
<path fill="none" stroke="midnightblue" d="M207.23,-163.31C208.22,-147.3 212.3,-125.05 226.35,-112 250.93,-89.15 338.35,-77.19 399.08,-71.49"/>
<polygon fill="midnightblue" stroke="midnightblue" points="203.72,-163.57 206.96,-173.65 210.72,-163.75 203.72,-163.57"/>
</g>
<!-- Node6 -->
<g id="node6" class="node">
<title>Node6</title>
<g id="a_node6"><a xlink:href="gov__effects_8h.html" target="_top" xlink:title=" ">
<polygon fill="white" stroke="black" points="235.35,-112.5 235.35,-131.5 379.35,-131.5 379.35,-112.5 235.35,-112.5"/>
<text text-anchor="middle" x="307.35" y="-119.5" font-family="Helvetica,sans-Serif" font-size="10.00">src/node/rpc/gov_effects.h</text>
</a>
</g>
</g>
<!-- Node3&#45;&gt;Node6 -->
<g id="edge5" class="edge">
<title>Node3&#45;&gt;Node6</title>
<path fill="none" stroke="midnightblue" d="M230.47,-168.74C249.78,-157.25 276.72,-141.22 293.05,-131.51"/>
<polygon fill="midnightblue" stroke="midnightblue" points="228.48,-165.85 221.67,-173.98 232.06,-171.87 228.48,-165.85"/>
</g>
<!-- Node5 -->
<g id="node5" class="node">
<title>Node5</title>
<g id="a_node5"><a xlink:href="enclave_2main_8cpp.html" target="_top" xlink:title=" ">
<polygon fill="white" stroke="black" points="400.35,-0.5 400.35,-19.5 520.35,-19.5 520.35,-0.5 400.35,-0.5"/>
<text text-anchor="middle" x="460.35" y="-7.5" font-family="Helvetica,sans-Serif" font-size="10.00">src/enclave/main.cpp</text>
</a>
</g>
</g>
<!-- Node4&#45;&gt;Node5 -->
<g id="edge4" class="edge">
<title>Node4&#45;&gt;Node5</title>
<path fill="none" stroke="midnightblue" d="M460.35,-45.8C460.35,-36.91 460.35,-26.78 460.35,-19.75"/>
<polygon fill="midnightblue" stroke="midnightblue" points="456.85,-46.08 460.35,-56.08 463.85,-46.08 456.85,-46.08"/>
</g>
<!-- Node6&#45;&gt;Node4 -->
<g id="edge6" class="edge">
<title>Node6&#45;&gt;Node4</title>
<path fill="none" stroke="midnightblue" d="M341.24,-109.04C370.02,-98.88 410.63,-84.55 436.22,-75.52"/>
<polygon fill="midnightblue" stroke="midnightblue" points="339.86,-105.81 331.59,-112.44 342.18,-112.42 339.86,-105.81"/>
</g>
<!-- Node7&#45;&gt;Node3 -->
<g id="edge9" class="edge">
<title>Node7&#45;&gt;Node3</title>
<path fill="none" stroke="midnightblue" d="M127.71,-230.31C149.24,-217.93 176.18,-202.43 192.56,-193.01"/>
<polygon fill="midnightblue" stroke="midnightblue" points="125.79,-227.38 118.87,-235.4 129.28,-233.44 125.79,-227.38"/>
</g>
<!-- Node8&#45;&gt;Node4 -->
<g id="edge11" class="edge">
<title>Node8&#45;&gt;Node4</title>
<path fill="none" stroke="midnightblue" d="M504.61,-417.45C571.43,-407.95 657.35,-382.26 657.35,-313 657.35,-313 657.35,-313 657.35,-182.5 657.35,-146.25 644.93,-134.29 616.35,-112 589.23,-90.85 552.53,-79.64 521.54,-73.7"/>
<polygon fill="midnightblue" stroke="midnightblue" points="503.94,-414.01 494.49,-418.79 504.86,-420.95 503.94,-414.01"/>
</g>
<!-- Node9 -->
<g id="node9" class="node">
<title>Node9</title>
<g id="a_node9"><a xlink:href="frontend_8h.html" target="_top" xlink:title=" ">
<polygon fill="white" stroke="black" points="362.85,-358.5 362.85,-377.5 491.85,-377.5 491.85,-358.5 362.85,-358.5"/>
<text text-anchor="middle" x="427.35" y="-365.5" font-family="Helvetica,sans-Serif" font-size="10.00">src/node/rpc/frontend.h</text>
</a>
</g>
</g>
<!-- Node8&#45;&gt;Node9 -->
<g id="edge12" class="edge">
<title>Node8&#45;&gt;Node9</title>
<path fill="none" stroke="midnightblue" d="M427.35,-403.8C427.35,-394.91 427.35,-384.78 427.35,-377.75"/>
<polygon fill="midnightblue" stroke="midnightblue" points="423.85,-404.08 427.35,-414.08 430.85,-404.08 423.85,-404.08"/>
</g>
<!-- Node9&#45;&gt;Node3 -->
<g id="edge13" class="edge">
<title>Node9&#45;&gt;Node3</title>
<path fill="none" stroke="midnightblue" d="M365.05,-356.05C338.99,-349.3 309.46,-338.64 286.35,-322 239.65,-288.39 216.54,-218.01 209.64,-193.3"/>
<polygon fill="midnightblue" stroke="midnightblue" points="364.3,-359.47 374.85,-358.45 365.97,-352.67 364.3,-359.47"/>
</g>
<!-- Node10 -->
<g id="node10" class="node">
<title>Node10</title>
<g id="a_node10"><a xlink:href="member__frontend_8h.html" target="_top" xlink:title=" ">
<polygon fill="white" stroke="black" points="509.35,-168.5 509.35,-198.5 629.35,-198.5 629.35,-168.5 509.35,-168.5"/>
<text text-anchor="start" x="517.35" y="-186.5" font-family="Helvetica,sans-Serif" font-size="10.00">src/node/rpc/member</text>
<text text-anchor="middle" x="569.35" y="-175.5" font-family="Helvetica,sans-Serif" font-size="10.00">_frontend.h</text>
</a>
</g>
</g>
<!-- Node9&#45;&gt;Node10 -->
<g id="edge14" class="edge">
<title>Node9&#45;&gt;Node10</title>
<path fill="none" stroke="midnightblue" d="M453.94,-353.53C467.53,-345.69 483.64,-334.83 495.35,-322 530.44,-283.56 554.52,-225.44 564.36,-198.78"/>
<polygon fill="midnightblue" stroke="midnightblue" points="452.07,-350.57 445.01,-358.47 455.45,-356.69 452.07,-350.57"/>
</g>
<!-- Node11 -->
<g id="node11" class="node">
<title>Node11</title>
<g id="a_node11"><a xlink:href="node__frontend_8h.html" target="_top" xlink:title=" ">
<polygon fill="white" stroke="black" points="295.35,-302.5 295.35,-321.5 453.35,-321.5 453.35,-302.5 295.35,-302.5"/>
<text text-anchor="middle" x="374.35" y="-309.5" font-family="Helvetica,sans-Serif" font-size="10.00">src/node/rpc/node_frontend.h</text>
</a>
</g>
</g>
<!-- Node9&#45;&gt;Node11 -->
<g id="edge16" class="edge">
<title>Node9&#45;&gt;Node11</title>
<path fill="none" stroke="midnightblue" d="M411.37,-350.72C402.02,-341.2 390.6,-329.56 382.94,-321.75"/>
<polygon fill="midnightblue" stroke="midnightblue" points="409.09,-353.4 418.59,-358.08 414.09,-348.49 409.09,-353.4"/>
</g>
<!-- Node13 -->
<g id="node13" class="node">
<title>Node13</title>
<g id="a_node13"><a xlink:href="user__frontend_8h.html" target="_top" xlink:title=" ">
<polygon fill="white" stroke="black" points="435.85,-112.5 435.85,-131.5 590.85,-131.5 590.85,-112.5 435.85,-112.5"/>
<text text-anchor="middle" x="513.35" y="-119.5" font-family="Helvetica,sans-Serif" font-size="10.00">src/node/rpc/user_frontend.h</text>
</a>
</g>
</g>
<!-- Node9&#45;&gt;Node13 -->
<g id="edge20" class="edge">
<title>Node9&#45;&gt;Node13</title>
<path fill="none" stroke="midnightblue" d="M442.58,-350.88C449.51,-342.76 457.28,-332.44 462.35,-322 493.1,-258.57 482.12,-236.1 500.35,-168 503.75,-155.27 508.05,-140.63 510.75,-131.6"/>
<polygon fill="midnightblue" stroke="midnightblue" points="439.87,-348.66 435.81,-358.45 445.08,-353.33 439.87,-348.66"/>
</g>
<!-- Node10&#45;&gt;Node4 -->
<g id="edge15" class="edge">
<title>Node10&#45;&gt;Node4</title>
<path fill="none" stroke="midnightblue" d="M590.39,-160.32C601.6,-145.74 611.08,-126.72 600.35,-112 582.3,-87.24 550.41,-75.81 521.62,-70.65"/>
<polygon fill="midnightblue" stroke="midnightblue" points="587.44,-158.4 583.73,-168.32 592.82,-162.88 587.44,-158.4"/>
</g>
<!-- Node11&#45;&gt;Node4 -->
<g id="edge17" class="edge">
<title>Node11&#45;&gt;Node4</title>
<path fill="none" stroke="midnightblue" d="M380.25,-292.81C382.84,-284.65 385.85,-274.87 388.35,-266 407.51,-198.04 397.25,-175.87 427.35,-112 433.87,-98.15 444.91,-84.26 452.41,-75.65"/>
<polygon fill="midnightblue" stroke="midnightblue" points="376.89,-291.82 377.17,-302.41 383.56,-293.96 376.89,-291.82"/>
</g>
<!-- Node12 -->
<g id="node12" class="node">
<title>Node12</title>
<g id="a_node12"><a xlink:href="jwt__key__auto__refresh_8h.html" target="_top" xlink:title=" ">
<polygon fill="white" stroke="black" points="253.85,-235.5 253.85,-265.5 378.85,-265.5 378.85,-235.5 253.85,-235.5"/>
<text text-anchor="start" x="261.85" y="-253.5" font-family="Helvetica,sans-Serif" font-size="10.00">src/node/jwt_key_auto</text>
<text text-anchor="middle" x="316.35" y="-242.5" font-family="Helvetica,sans-Serif" font-size="10.00">_refresh.h</text>
</a>
</g>
</g>
<!-- Node11&#45;&gt;Node12 -->
<g id="edge18" class="edge">
<title>Node11&#45;&gt;Node12</title>
<path fill="none" stroke="midnightblue" d="M358.84,-295.09C349.86,-285.88 338.66,-274.39 330.02,-265.52"/>
<polygon fill="midnightblue" stroke="midnightblue" points="356.55,-297.76 366.04,-302.48 361.56,-292.87 356.55,-297.76"/>
</g>
<!-- Node12&#45;&gt;Node3 -->
<g id="edge19" class="edge">
<title>Node12&#45;&gt;Node3</title>
<path fill="none" stroke="midnightblue" d="M283.88,-230.14C263.17,-217.79 237.34,-202.39 221.61,-193.01"/>
<polygon fill="midnightblue" stroke="midnightblue" points="282.31,-233.28 292.7,-235.4 285.9,-227.27 282.31,-233.28"/>
</g>
<!-- Node13&#45;&gt;Node4 -->
<g id="edge21" class="edge">
<title>Node13&#45;&gt;Node4</title>
<path fill="none" stroke="midnightblue" d="M497.37,-104.72C488.02,-95.2 476.6,-83.56 468.94,-75.75"/>
<polygon fill="midnightblue" stroke="midnightblue" points="495.09,-107.4 504.59,-112.08 500.09,-102.49 495.09,-107.4"/>
</g>
</g>
</svg>
