<?xml version="1.0" encoding="UTF-8" standalone="no"?>
<!DOCTYPE svg PUBLIC "-//W3C//DTD SVG 1.1//EN"
 "http://www.w3.org/Graphics/SVG/1.1/DTD/svg11.dtd">
<!-- Generated by graphviz version 2.43.0 (0)
 -->
<!-- Title: src/node/rpc/node_frontend.h Pages: 1 -->
<svg width="252pt" height="319pt"
 viewBox="0.00 0.00 252.00 319.00" xmlns="http://www.w3.org/2000/svg" xmlns:xlink="http://www.w3.org/1999/xlink">
<g id="graph0" class="graph" transform="scale(1 1) rotate(0) translate(4 315)">
<title>src/node/rpc/node_frontend.h</title>
<polygon fill="white" stroke="transparent" points="-4,4 -4,-315 248,-315 248,4 -4,4"/>
<!-- Node1 -->
<g id="node1" class="node">
<title>Node1</title>
<g id="a_node1"><a xlink:title=" ">
<polygon fill="#bfbfbf" stroke="black" points="0,-291.5 0,-310.5 158,-310.5 158,-291.5 0,-291.5"/>
<text text-anchor="middle" x="79" y="-298.5" font-family="Helvetica,sans-Serif" font-size="10.00">src/node/rpc/node_frontend.h</text>
</a>
</g>
</g>
<!-- Node2 -->
<g id="node2" class="node">
<title>Node2</title>
<g id="a_node2"><a xlink:href="enclave_2enclave_8h.html" target="_top" xlink:title=" ">
<polygon fill="white" stroke="black" points="11,-56.5 11,-75.5 133,-75.5 133,-56.5 11,-56.5"/>
<text text-anchor="middle" x="72" y="-63.5" font-family="Helvetica,sans-Serif" font-size="10.00">src/enclave/enclave.h</text>
</a>
</g>
</g>
<!-- Node1&#45;&gt;Node2 -->
<g id="edge1" class="edge">
<title>Node1&#45;&gt;Node2</title>
<path fill="none" stroke="midnightblue" d="M66.76,-282.83C61.75,-274.79 56.55,-264.82 54,-255 36.56,-187.71 60.35,-102.94 69.04,-75.79"/>
<polygon fill="midnightblue" stroke="midnightblue" points="63.92,-284.89 72.37,-291.27 69.75,-281.01 63.92,-284.89"/>
</g>
<!-- Node4 -->
<g id="node4" class="node">
<title>Node4</title>
<g id="a_node4"><a xlink:href="jwt__key__auto__refresh_8h.html" target="_top" xlink:title=" ">
<polygon fill="white" stroke="black" points="62.5,-224.5 62.5,-254.5 187.5,-254.5 187.5,-224.5 62.5,-224.5"/>
<text text-anchor="start" x="70.5" y="-242.5" font-family="Helvetica,sans-Serif" font-size="10.00">src/node/jwt_key_auto</text>
<text text-anchor="middle" x="125" y="-231.5" font-family="Helvetica,sans-Serif" font-size="10.00">_refresh.h</text>
</a>
</g>
</g>
<!-- Node1&#45;&gt;Node4 -->
<g id="edge3" class="edge">
<title>Node1&#45;&gt;Node4</title>
<path fill="none" stroke="midnightblue" d="M91.73,-283.53C98.78,-274.42 107.44,-263.21 114.16,-254.52"/>
<polygon fill="midnightblue" stroke="midnightblue" points="88.94,-281.42 85.59,-291.48 94.48,-285.7 88.94,-281.42"/>
</g>
<!-- Node3 -->
<g id="node3" class="node">
<title>Node3</title>
<g id="a_node3"><a xlink:href="enclave_2main_8cpp.html" target="_top" xlink:title=" ">
<polygon fill="white" stroke="black" points="12,-0.5 12,-19.5 132,-19.5 132,-0.5 12,-0.5"/>
<text text-anchor="middle" x="72" y="-7.5" font-family="Helvetica,sans-Serif" font-size="10.00">src/enclave/main.cpp</text>
</a>
</g>
</g>
<!-- Node2&#45;&gt;Node3 -->
<g id="edge2" class="edge">
<title>Node2&#45;&gt;Node3</title>
<path fill="none" stroke="midnightblue" d="M72,-45.8C72,-36.91 72,-26.78 72,-19.75"/>
<polygon fill="midnightblue" stroke="midnightblue" points="68.5,-46.08 72,-56.08 75.5,-46.08 68.5,-46.08"/>
</g>
<!-- Node5 -->
<g id="node5" class="node">
<title>Node5</title>
<g id="a_node5"><a xlink:href="node__state_8h.html" target="_top" xlink:title=" ">
<polygon fill="white" stroke="black" points="63,-168.5 63,-187.5 187,-187.5 187,-168.5 63,-168.5"/>
<text text-anchor="middle" x="125" y="-175.5" font-family="Helvetica,sans-Serif" font-size="10.00">src/node/node_state.h</text>
</a>
</g>
</g>
<!-- Node4&#45;&gt;Node5 -->
<g id="edge4" class="edge">
<title>Node4&#45;&gt;Node5</title>
<path fill="none" stroke="midnightblue" d="M125,-214.29C125,-204.86 125,-194.65 125,-187.66"/>
<polygon fill="midnightblue" stroke="midnightblue" points="121.5,-214.4 125,-224.4 128.5,-214.4 121.5,-214.4"/>
</g>
<!-- Node5&#45;&gt;Node2 -->
<g id="edge5" class="edge">
<title>Node5&#45;&gt;Node2</title>
<path fill="none" stroke="midnightblue" d="M110.41,-160.72C103.72,-152.56 96.16,-142.26 91,-132 81.5,-113.09 75.96,-88.64 73.52,-75.79"/>
<polygon fill="midnightblue" stroke="midnightblue" points="107.77,-163.01 116.92,-168.34 113.09,-158.46 107.77,-163.01"/>
</g>
<!-- Node6 -->
<g id="node6" class="node">
<title>Node6</title>
<g id="a_node6"><a xlink:href="gov__effects_8h.html" target="_top" xlink:title=" ">
<polygon fill="white" stroke="black" points="100,-112.5 100,-131.5 244,-131.5 244,-112.5 100,-112.5"/>
<text text-anchor="middle" x="172" y="-119.5" font-family="Helvetica,sans-Serif" font-size="10.00">src/node/rpc/gov_effects.h</text>
</a>
</g>
</g>
<!-- Node5&#45;&gt;Node6 -->
<g id="edge6" class="edge">
<title>Node5&#45;&gt;Node6</title>
<path fill="none" stroke="midnightblue" d="M139.42,-160.43C147.66,-150.97 157.65,-139.48 164.38,-131.75"/>
<polygon fill="midnightblue" stroke="midnightblue" points="136.69,-158.24 132.76,-168.08 141.97,-162.84 136.69,-158.24"/>
</g>
<!-- Node6&#45;&gt;Node2 -->
<g id="edge7" class="edge">
<title>Node6&#45;&gt;Node2</title>
<path fill="none" stroke="midnightblue" d="M146.91,-107.45C128.45,-97.48 103.9,-84.23 88.03,-75.65"/>
<polygon fill="midnightblue" stroke="midnightblue" points="145.47,-110.65 155.93,-112.32 148.8,-104.49 145.47,-110.65"/>
</g>
</g>
</svg>
