<?xml version="1.0" encoding="UTF-8" standalone="no"?>
<!DOCTYPE svg PUBLIC "-//W3C//DTD SVG 1.1//EN"
 "http://www.w3.org/Graphics/SVG/1.1/DTD/svg11.dtd">
<!-- Generated by graphviz version 2.43.0 (0)
 -->
<!-- Title: src/ds/non_blocking.h Pages: 1 -->
<!--zoomable 308 -->
<svg id="main" version="1.1" xmlns="http://www.w3.org/2000/svg" xmlns:xlink="http://www.w3.org/1999/xlink" xml:space="preserve" onload="init(evt)">
<style type="text/css"><![CDATA[
.edge:hover path { stroke: red; }
.edge:hover polygon { stroke: red; fill: red; }
]]></style>
<script type="text/javascript"><![CDATA[
var edges = document.getElementsByTagName('g');
if (edges && edges.length) {
  for (var i=0;i<edges.length;i++) {
    if (edges[i].id.substr(0,4)=='edge') {
      edges[i].setAttribute('class','edge');
    }
  }
}
]]></script>
        <defs>
                <circle id="rim" cx="0" cy="0" r="7"/>
                <circle id="rim2" cx="0" cy="0" r="3.5"/>
                <g id="zoomPlus">
                        <use xlink:href="#rim" fill="#404040">
                                <set attributeName="fill" to="#808080" begin="zoomplus.mouseover" end="zoomplus.mouseout"/>
                        </use>
                        <path d="M-4,0h8M0,-4v8" fill="none" stroke="white" stroke-width="1.5" pointer-events="none"/>
                </g>
                <g id="zoomMin">
                        <use xlink:href="#rim" fill="#404040">
                                <set attributeName="fill" to="#808080" begin="zoomminus.mouseover" end="zoomminus.mouseout"/>
                        </use>
                        <path d="M-4,0h8" fill="none" stroke="white" stroke-width="1.5" pointer-events="none"/>
                </g>
                <g id="dirArrow">
                        <path fill="none" stroke="white" stroke-width="1.5" d="M0,-3.0v7 M-2.5,-0.5L0,-3.0L2.5,-0.5"/>
                </g>
               <g id="resetDef">
                       <use xlink:href="#rim2" fill="#404040">
                               <set attributeName="fill" to="#808080" begin="reset.mouseover" end="reset.mouseout"/>
                       </use>
               </g>
        </defs>

<script type="text/javascript">
var viewWidth = 1167;
var viewHeight = 308;
var sectionId = 'dynsection-0';
</script>
<script xlink:href="svgpan.js"/>
<svg id="graph" class="graph">
<g id="viewport">
<title>src/ds/non_blocking.h</title>
<polygon fill="white" stroke="transparent" points="-4,4 -4,-304 1162.5,-304 1162.5,4 -4,4"/>
<!-- Node1 -->
<g id="node1" class="node">
<title>Node1</title>
<g id="a_node1"><a xlink:title=" ">
<polygon fill="#bfbfbf" stroke="black" points="866,-280.5 866,-299.5 988,-299.5 988,-280.5 866,-280.5"/>
<text text-anchor="middle" x="927" y="-287.5" font-family="Helvetica,sans-Serif" font-size="10.00">src/ds/non_blocking.h</text>
</a>
</g>
</g>
<!-- Node2 -->
<g id="node2" class="node">
<title>Node2</title>
<g id="a_node2"><a xlink:href="ring__buffer_8h.html" target="_top" xlink:title=" ">
<polygon fill="white" stroke="black" points="888.5,-224.5 888.5,-243.5 965.5,-243.5 965.5,-224.5 888.5,-224.5"/>
<text text-anchor="middle" x="927" y="-231.5" font-family="Helvetica,sans-Serif" font-size="10.00">ring_buffer.h</text>
</a>
</g>
</g>
<!-- Node1&#45;&gt;Node2 -->
<g id="edge1" class="edge">
<title>Node1&#45;&gt;Node2</title>
<path fill="none" stroke="midnightblue" d="M927,-280.08C927,-273.01 927,-262.86 927,-253.99"/>
<polygon fill="midnightblue" stroke="midnightblue" points="930.5,-253.75 927,-243.75 923.5,-253.75 930.5,-253.75"/>
</g>
<!-- Node10 -->
<g id="node10" class="node">
<title>Node10</title>
<g id="a_node10"><a xlink:title=" ">
<polygon fill="white" stroke="#bfbfbf" points="510.5,-0.5 510.5,-19.5 557.5,-19.5 557.5,-0.5 510.5,-0.5"/>
<text text-anchor="middle" x="534" y="-7.5" font-family="Helvetica,sans-Serif" font-size="10.00">vector</text>
</a>
</g>
</g>
<!-- Node1&#45;&gt;Node10 -->
<g id="edge44" class="edge">
<title>Node1&#45;&gt;Node10</title>
<path fill="none" stroke="midnightblue" d="M865.82,-288.8C728.36,-286.7 407,-271.85 407,-179 407,-179 407,-179 407,-121 407,-71.33 463.19,-39.07 500.82,-23.03"/>
<polygon fill="midnightblue" stroke="midnightblue" points="502.47,-26.14 510.41,-19.12 499.83,-19.66 502.47,-26.14"/>
</g>
<!-- Node22 -->
<g id="node22" class="node">
<title>Node22</title>
<g id="a_node22"><a xlink:title=" ">
<polygon fill="white" stroke="#bfbfbf" points="77,-56.5 77,-75.5 135,-75.5 135,-56.5 77,-56.5"/>
<text text-anchor="middle" x="106" y="-63.5" font-family="Helvetica,sans-Serif" font-size="10.00">memory</text>
</a>
</g>
</g>
<!-- Node1&#45;&gt;Node22 -->
<g id="edge43" class="edge">
<title>Node1&#45;&gt;Node22</title>
<path fill="none" stroke="midnightblue" d="M865.63,-287.4C744.57,-283.67 479.26,-272.43 393,-244 280.65,-206.97 166.84,-118.11 123.88,-82.32"/>
<polygon fill="midnightblue" stroke="midnightblue" points="125.94,-79.48 116.03,-75.71 121.43,-84.83 125.94,-79.48"/>
</g>
<!-- Node25 -->
<g id="node25" class="node">
<title>Node25</title>
<g id="a_node25"><a xlink:title=" ">
<polygon fill="white" stroke="#bfbfbf" points="855.5,-112.5 855.5,-131.5 934.5,-131.5 934.5,-112.5 855.5,-112.5"/>
<text text-anchor="middle" x="895" y="-119.5" font-family="Helvetica,sans-Serif" font-size="10.00">fmt/format.h</text>
</a>
</g>
</g>
<!-- Node1&#45;&gt;Node25 -->
<g id="edge42" class="edge">
<title>Node1&#45;&gt;Node25</title>
<path fill="none" stroke="midnightblue" d="M943.94,-280.36C979.76,-260.94 1057.46,-212.07 1026,-168 1007.57,-142.18 973.33,-131.02 944.49,-126.27"/>
<polygon fill="midnightblue" stroke="midnightblue" points="944.94,-122.8 934.54,-124.84 943.94,-129.73 944.94,-122.8"/>
</g>
<!-- Node28 -->
<g id="node28" class="node">
<title>Node28</title>
<g id="a_node28"><a xlink:title=" ">
<polygon fill="white" stroke="#bfbfbf" points="1111.5,-224.5 1111.5,-243.5 1158.5,-243.5 1158.5,-224.5 1111.5,-224.5"/>
<text text-anchor="middle" x="1135" y="-231.5" font-family="Helvetica,sans-Serif" font-size="10.00">deque</text>
</a>
</g>
</g>
<!-- Node1&#45;&gt;Node28 -->
<g id="edge41" class="edge">
<title>Node1&#45;&gt;Node28</title>
<path fill="none" stroke="midnightblue" d="M959.96,-280.44C998.66,-270.4 1062.49,-253.83 1101.44,-243.71"/>
<polygon fill="midnightblue" stroke="midnightblue" points="1102.45,-247.07 1111.25,-241.16 1100.7,-240.29 1102.45,-247.07"/>
</g>
<!-- Node3 -->
<g id="node3" class="node">
<title>Node3</title>
<g id="a_node3"><a xlink:href="ccf__memcpy_8h.html" target="_top" xlink:title=" ">
<polygon fill="white" stroke="black" points="931,-168.5 931,-187.5 1017,-187.5 1017,-168.5 931,-168.5"/>
<text text-anchor="middle" x="974" y="-175.5" font-family="Helvetica,sans-Serif" font-size="10.00">ccf_memcpy.h</text>
</a>
</g>
</g>
<!-- Node2&#45;&gt;Node3 -->
<g id="edge2" class="edge">
<title>Node2&#45;&gt;Node3</title>
<path fill="none" stroke="midnightblue" d="M934.76,-224.08C941.54,-216.3 951.54,-204.8 959.76,-195.37"/>
<polygon fill="midnightblue" stroke="midnightblue" points="962.46,-197.59 966.38,-187.75 957.18,-193 962.46,-197.59"/>
</g>
<!-- Node4 -->
<g id="node4" class="node">
<title>Node4</title>
<g id="a_node4"><a xlink:title=" ">
<polygon fill="white" stroke="#bfbfbf" points="982,-0.5 982,-19.5 1032,-19.5 1032,-0.5 982,-0.5"/>
<text text-anchor="middle" x="1007" y="-7.5" font-family="Helvetica,sans-Serif" font-size="10.00">cstring</text>
</a>
</g>
</g>
<!-- Node2&#45;&gt;Node4 -->
<g id="edge39" class="edge">
<title>Node2&#45;&gt;Node4</title>
<path fill="none" stroke="midnightblue" d="M965.68,-226.02C987.39,-219.92 1012.71,-208.64 1026,-188 1058.3,-137.84 1031.09,-62.69 1015.75,-28.75"/>
<polygon fill="midnightblue" stroke="midnightblue" points="1018.87,-27.18 1011.44,-19.62 1012.54,-30.16 1018.87,-27.18"/>
</g>
<!-- Node5 -->
<g id="node5" class="node">
<title>Node5</title>
<g id="a_node5"><a xlink:href="ring__buffer__types_8h.html" target="_top" xlink:title=" ">
<polygon fill="white" stroke="black" points="552,-168.5 552,-187.5 662,-187.5 662,-168.5 552,-168.5"/>
<text text-anchor="middle" x="607" y="-175.5" font-family="Helvetica,sans-Serif" font-size="10.00">ring_buffer_types.h</text>
</a>
</g>
</g>
<!-- Node2&#45;&gt;Node5 -->
<g id="edge4" class="edge">
<title>Node2&#45;&gt;Node5</title>
<path fill="none" stroke="midnightblue" d="M888.4,-226.49C833.57,-217.23 732.59,-200.19 667.68,-189.24"/>
<polygon fill="midnightblue" stroke="midnightblue" points="668.03,-185.75 657.59,-187.54 666.87,-192.65 668.03,-185.75"/>
</g>
<!-- Node27 -->
<g id="node27" class="node">
<title>Node27</title>
<g id="a_node27"><a xlink:title=" ">
<polygon fill="white" stroke="#bfbfbf" points="847.5,-168.5 847.5,-187.5 912.5,-187.5 912.5,-168.5 847.5,-168.5"/>
<text text-anchor="middle" x="880" y="-175.5" font-family="Helvetica,sans-Serif" font-size="10.00">functional</text>
</a>
</g>
</g>
<!-- Node2&#45;&gt;Node27 -->
<g id="edge40" class="edge">
<title>Node2&#45;&gt;Node27</title>
<path fill="none" stroke="midnightblue" d="M919.24,-224.08C912.46,-216.3 902.46,-204.8 894.24,-195.37"/>
<polygon fill="midnightblue" stroke="midnightblue" points="896.82,-193 887.62,-187.75 891.54,-197.59 896.82,-193"/>
</g>
<!-- Node3&#45;&gt;Node4 -->
<g id="edge3" class="edge">
<title>Node3&#45;&gt;Node4</title>
<path fill="none" stroke="midnightblue" d="M975.77,-168.08C980.97,-141.95 996.22,-65.21 1003.31,-29.58"/>
<polygon fill="midnightblue" stroke="midnightblue" points="1006.78,-30.06 1005.3,-19.57 999.91,-28.69 1006.78,-30.06"/>
</g>
<!-- Node6 -->
<g id="node6" class="node">
<title>Node6</title>
<g id="a_node6"><a xlink:href="include_2ccf_2ds_2hash_8h.html" target="_top" xlink:title=" ">
<polygon fill="white" stroke="black" points="702,-112.5 702,-131.5 782,-131.5 782,-112.5 702,-112.5"/>
<text text-anchor="middle" x="742" y="-119.5" font-family="Helvetica,sans-Serif" font-size="10.00">ccf/ds/hash.h</text>
</a>
</g>
</g>
<!-- Node5&#45;&gt;Node6 -->
<g id="edge5" class="edge">
<title>Node5&#45;&gt;Node6</title>
<path fill="none" stroke="midnightblue" d="M628.39,-168.44C650.71,-159.52 685.9,-145.44 711.21,-135.32"/>
<polygon fill="midnightblue" stroke="midnightblue" points="712.72,-138.48 720.71,-131.52 710.12,-131.98 712.72,-138.48"/>
</g>
<!-- Node5&#45;&gt;Node10 -->
<g id="edge38" class="edge">
<title>Node5&#45;&gt;Node10</title>
<path fill="none" stroke="midnightblue" d="M618.3,-168.34C633.47,-155.64 657.07,-131.38 644,-112 620.15,-76.62 584.07,-107.24 555,-76 543.27,-63.4 538.09,-44.18 535.8,-29.91"/>
<polygon fill="midnightblue" stroke="midnightblue" points="539.25,-29.22 534.52,-19.74 532.3,-30.1 539.25,-29.22"/>
</g>
<!-- Node13 -->
<g id="node13" class="node">
<title>Node13</title>
<g id="a_node13"><a xlink:href="nonstd_8h.html" target="_top" xlink:title=" ">
<polygon fill="white" stroke="black" points="153,-56.5 153,-75.5 243,-75.5 243,-56.5 153,-56.5"/>
<text text-anchor="middle" x="198" y="-63.5" font-family="Helvetica,sans-Serif" font-size="10.00">ccf/ds/nonstd.h</text>
</a>
</g>
</g>
<!-- Node5&#45;&gt;Node13 -->
<g id="edge14" class="edge">
<title>Node5&#45;&gt;Node13</title>
<path fill="none" stroke="midnightblue" d="M551.79,-173.2C470.82,-167.01 324.23,-153.25 276,-132 250.68,-120.85 227.09,-98.94 212.63,-83.66"/>
<polygon fill="midnightblue" stroke="midnightblue" points="214.91,-80.97 205.58,-75.96 209.75,-85.7 214.91,-80.97"/>
</g>
<!-- Node16 -->
<g id="node16" class="node">
<title>Node16</title>
<g id="a_node16"><a xlink:title=" ">
<polygon fill="white" stroke="#bfbfbf" points="448,-0.5 448,-19.5 492,-19.5 492,-0.5 448,-0.5"/>
<text text-anchor="middle" x="470" y="-7.5" font-family="Helvetica,sans-Serif" font-size="10.00">string</text>
</a>
</g>
</g>
<!-- Node5&#45;&gt;Node16 -->
<g id="edge37" class="edge">
<title>Node5&#45;&gt;Node16</title>
<path fill="none" stroke="midnightblue" d="M565.38,-168.45C543.62,-161.93 518.2,-150.76 502,-132 476.77,-102.77 471.15,-55.82 470.07,-29.83"/>
<polygon fill="midnightblue" stroke="midnightblue" points="473.57,-29.71 469.84,-19.8 466.57,-29.87 473.57,-29.71"/>
</g>
<!-- Node19 -->
<g id="node19" class="node">
<title>Node19</title>
<g id="a_node19"><a xlink:href="serializer_8h.html" target="_top" xlink:title=" ">
<polygon fill="white" stroke="black" points="285,-112.5 285,-131.5 355,-131.5 355,-112.5 285,-112.5"/>
<text text-anchor="middle" x="320" y="-119.5" font-family="Helvetica,sans-Serif" font-size="10.00">serializer.h</text>
</a>
</g>
</g>
<!-- Node5&#45;&gt;Node19 -->
<g id="edge22" class="edge">
<title>Node5&#45;&gt;Node19</title>
<path fill="none" stroke="midnightblue" d="M561.52,-168.44C507.77,-158.33 418.87,-141.6 365.22,-131.51"/>
<polygon fill="midnightblue" stroke="midnightblue" points="365.79,-128.05 355.31,-129.64 364.49,-134.93 365.79,-128.05"/>
</g>
<!-- Node24 -->
<g id="node24" class="node">
<title>Node24</title>
<g id="a_node24"><a xlink:title=" ">
<polygon fill="white" stroke="#bfbfbf" points="511,-112.5 511,-131.5 561,-131.5 561,-112.5 511,-112.5"/>
<text text-anchor="middle" x="536" y="-119.5" font-family="Helvetica,sans-Serif" font-size="10.00">atomic</text>
</a>
</g>
</g>
<!-- Node5&#45;&gt;Node24 -->
<g id="edge34" class="edge">
<title>Node5&#45;&gt;Node24</title>
<path fill="none" stroke="midnightblue" d="M595.59,-168.32C584.89,-160.18 568.66,-147.84 555.84,-138.09"/>
<polygon fill="midnightblue" stroke="midnightblue" points="557.69,-135.1 547.61,-131.83 553.46,-140.67 557.69,-135.1"/>
</g>
<!-- Node5&#45;&gt;Node25 -->
<g id="edge35" class="edge">
<title>Node5&#45;&gt;Node25</title>
<path fill="none" stroke="midnightblue" d="M652.63,-168.44C705.08,-158.61 790.89,-142.52 845.08,-132.36"/>
<polygon fill="midnightblue" stroke="midnightblue" points="845.96,-135.76 855.14,-130.47 844.67,-128.88 845.96,-135.76"/>
</g>
<!-- Node26 -->
<g id="node26" class="node">
<title>Node26</title>
<g id="a_node26"><a xlink:title=" ">
<polygon fill="white" stroke="#bfbfbf" points="579,-112.5 579,-131.5 635,-131.5 635,-112.5 579,-112.5"/>
<text text-anchor="middle" x="607" y="-119.5" font-family="Helvetica,sans-Serif" font-size="10.00">optional</text>
</a>
</g>
</g>
<!-- Node5&#45;&gt;Node26 -->
<g id="edge36" class="edge">
<title>Node5&#45;&gt;Node26</title>
<path fill="none" stroke="midnightblue" d="M607,-168.08C607,-161.01 607,-150.86 607,-141.99"/>
<polygon fill="midnightblue" stroke="midnightblue" points="610.5,-141.75 607,-131.75 603.5,-141.75 610.5,-141.75"/>
</g>
<!-- Node7 -->
<g id="node7" class="node">
<title>Node7</title>
<g id="a_node7"><a xlink:href="siphash_8h.html" target="_top" xlink:title=" ">
<polygon fill="white" stroke="black" points="883.5,-56.5 883.5,-75.5 978.5,-75.5 978.5,-56.5 883.5,-56.5"/>
<text text-anchor="middle" x="931" y="-63.5" font-family="Helvetica,sans-Serif" font-size="10.00">ccf/ds/siphash.h</text>
</a>
</g>
</g>
<!-- Node6&#45;&gt;Node7 -->
<g id="edge6" class="edge">
<title>Node6&#45;&gt;Node7</title>
<path fill="none" stroke="midnightblue" d="M771.95,-112.44C804.16,-103.24 855.53,-88.56 891.14,-78.39"/>
<polygon fill="midnightblue" stroke="midnightblue" points="892.54,-81.63 901.19,-75.52 890.62,-74.9 892.54,-81.63"/>
</g>
<!-- Node9 -->
<g id="node9" class="node">
<title>Node9</title>
<g id="a_node9"><a xlink:title=" ">
<polygon fill="white" stroke="#bfbfbf" points="830,-0.5 830,-19.5 880,-19.5 880,-0.5 830,-0.5"/>
<text text-anchor="middle" x="855" y="-7.5" font-family="Helvetica,sans-Serif" font-size="10.00">cstdint</text>
</a>
</g>
</g>
<!-- Node6&#45;&gt;Node9 -->
<g id="edge11" class="edge">
<title>Node6&#45;&gt;Node9</title>
<path fill="none" stroke="midnightblue" d="M776.82,-112.38C797.1,-105.65 821.61,-94.3 837,-76 847.94,-62.99 852.26,-43.83 853.95,-29.68"/>
<polygon fill="midnightblue" stroke="midnightblue" points="857.45,-29.88 854.82,-19.62 850.47,-29.28 857.45,-29.88"/>
</g>
<!-- Node6&#45;&gt;Node10 -->
<g id="edge13" class="edge">
<title>Node6&#45;&gt;Node10</title>
<path fill="none" stroke="midnightblue" d="M701.96,-113.22C660.38,-104.57 598.69,-89.98 579,-76 562.09,-63.99 549.46,-43.51 541.95,-28.74"/>
<polygon fill="midnightblue" stroke="midnightblue" points="545.06,-27.12 537.58,-19.61 538.74,-30.14 545.06,-27.12"/>
</g>
<!-- Node11 -->
<g id="node11" class="node">
<title>Node11</title>
<g id="a_node11"><a xlink:title=" ">
<polygon fill="white" stroke="#bfbfbf" points="352,-0.5 352,-19.5 394,-19.5 394,-0.5 352,-0.5"/>
<text text-anchor="middle" x="373" y="-7.5" font-family="Helvetica,sans-Serif" font-size="10.00">array</text>
</a>
</g>
</g>
<!-- Node6&#45;&gt;Node11 -->
<g id="edge10" class="edge">
<title>Node6&#45;&gt;Node11</title>
<path fill="none" stroke="midnightblue" d="M701.91,-112.65C663.82,-104.42 605.08,-90.92 555,-76 500.92,-59.89 439.34,-36.89 403.46,-23.01"/>
<polygon fill="midnightblue" stroke="midnightblue" points="404.64,-19.71 394.05,-19.35 402.1,-26.24 404.64,-19.71"/>
</g>
<!-- Node12 -->
<g id="node12" class="node">
<title>Node12</title>
<g id="a_node12"><a xlink:title=" ">
<polygon fill="white" stroke="#bfbfbf" points="678.5,-56.5 678.5,-75.5 827.5,-75.5 827.5,-56.5 678.5,-56.5"/>
<text text-anchor="middle" x="753" y="-63.5" font-family="Helvetica,sans-Serif" font-size="10.00">small_vector/SmallVector.h</text>
</a>
</g>
</g>
<!-- Node6&#45;&gt;Node12 -->
<g id="edge12" class="edge">
<title>Node6&#45;&gt;Node12</title>
<path fill="none" stroke="midnightblue" d="M743.82,-112.08C745.27,-104.93 747.37,-94.64 749.19,-85.69"/>
<polygon fill="midnightblue" stroke="midnightblue" points="752.65,-86.25 751.22,-75.75 745.79,-84.85 752.65,-86.25"/>
</g>
<!-- Node8 -->
<g id="node8" class="node">
<title>Node8</title>
<g id="a_node8"><a xlink:title=" ">
<polygon fill="white" stroke="#bfbfbf" points="904.5,-0.5 904.5,-19.5 957.5,-19.5 957.5,-0.5 904.5,-0.5"/>
<text text-anchor="middle" x="931" y="-7.5" font-family="Helvetica,sans-Serif" font-size="10.00">cstddef</text>
</a>
</g>
</g>
<!-- Node7&#45;&gt;Node8 -->
<g id="edge7" class="edge">
<title>Node7&#45;&gt;Node8</title>
<path fill="none" stroke="midnightblue" d="M931,-56.08C931,-49.01 931,-38.86 931,-29.99"/>
<polygon fill="midnightblue" stroke="midnightblue" points="934.5,-29.75 931,-19.75 927.5,-29.75 934.5,-29.75"/>
</g>
<!-- Node7&#45;&gt;Node9 -->
<g id="edge8" class="edge">
<title>Node7&#45;&gt;Node9</title>
<path fill="none" stroke="midnightblue" d="M918.79,-56.32C907.22,-48.11 889.62,-35.6 875.84,-25.81"/>
<polygon fill="midnightblue" stroke="midnightblue" points="877.61,-22.77 867.43,-19.83 873.56,-28.48 877.61,-22.77"/>
</g>
<!-- Node7&#45;&gt;Node10 -->
<g id="edge9" class="edge">
<title>Node7&#45;&gt;Node10</title>
<path fill="none" stroke="midnightblue" d="M883.32,-59.65C816.17,-51.92 689.98,-36.73 583,-20 578.13,-19.24 573,-18.37 567.96,-17.48"/>
<polygon fill="midnightblue" stroke="midnightblue" points="568.35,-13.99 557.88,-15.65 567.1,-20.88 568.35,-13.99"/>
</g>
<!-- Node13&#45;&gt;Node10 -->
<g id="edge21" class="edge">
<title>Node13&#45;&gt;Node10</title>
<path fill="none" stroke="midnightblue" d="M243.22,-59.99C300.72,-53.24 403.21,-39.95 500.31,-19.92"/>
<polygon fill="midnightblue" stroke="midnightblue" points="501.22,-23.3 510.29,-17.83 499.78,-16.45 501.22,-23.3"/>
</g>
<!-- Node13&#45;&gt;Node11 -->
<g id="edge16" class="edge">
<title>Node13&#45;&gt;Node11</title>
<path fill="none" stroke="midnightblue" d="M225.73,-56.44C257.52,-46.63 309.48,-30.6 342.42,-20.44"/>
<polygon fill="midnightblue" stroke="midnightblue" points="343.47,-23.78 351.99,-17.48 341.4,-17.09 343.47,-23.78"/>
</g>
<!-- Node14 -->
<g id="node14" class="node">
<title>Node14</title>
<g id="a_node14"><a xlink:title=" ">
<polygon fill="white" stroke="#bfbfbf" points="0,-0.5 0,-19.5 64,-19.5 64,-0.5 0,-0.5"/>
<text text-anchor="middle" x="32" y="-7.5" font-family="Helvetica,sans-Serif" font-size="10.00">algorithm</text>
</a>
</g>
</g>
<!-- Node13&#45;&gt;Node14 -->
<g id="edge15" class="edge">
<title>Node13&#45;&gt;Node14</title>
<path fill="none" stroke="midnightblue" d="M171.7,-56.44C143.65,-47.32 99.06,-32.81 67.82,-22.65"/>
<polygon fill="midnightblue" stroke="midnightblue" points="68.77,-19.28 58.18,-19.52 66.61,-25.94 68.77,-19.28"/>
</g>
<!-- Node15 -->
<g id="node15" class="node">
<title>Node15</title>
<g id="a_node15"><a xlink:title=" ">
<polygon fill="white" stroke="#bfbfbf" points="173.5,-0.5 173.5,-19.5 222.5,-19.5 222.5,-0.5 173.5,-0.5"/>
<text text-anchor="middle" x="198" y="-7.5" font-family="Helvetica,sans-Serif" font-size="10.00">cctype</text>
</a>
</g>
</g>
<!-- Node13&#45;&gt;Node15 -->
<g id="edge17" class="edge">
<title>Node13&#45;&gt;Node15</title>
<path fill="none" stroke="midnightblue" d="M198,-56.08C198,-49.01 198,-38.86 198,-29.99"/>
<polygon fill="midnightblue" stroke="midnightblue" points="201.5,-29.75 198,-19.75 194.5,-29.75 201.5,-29.75"/>
</g>
<!-- Node13&#45;&gt;Node16 -->
<g id="edge18" class="edge">
<title>Node13&#45;&gt;Node16</title>
<path fill="none" stroke="midnightblue" d="M241.1,-56.44C295.81,-45.58 388.93,-27.09 437.83,-17.39"/>
<polygon fill="midnightblue" stroke="midnightblue" points="438.72,-20.78 447.85,-15.4 437.36,-13.91 438.72,-20.78"/>
</g>
<!-- Node17 -->
<g id="node17" class="node">
<title>Node17</title>
<g id="a_node17"><a xlink:title=" ">
<polygon fill="white" stroke="#bfbfbf" points="82.5,-0.5 82.5,-19.5 155.5,-19.5 155.5,-0.5 82.5,-0.5"/>
<text text-anchor="middle" x="119" y="-7.5" font-family="Helvetica,sans-Serif" font-size="10.00">string_view</text>
</a>
</g>
</g>
<!-- Node13&#45;&gt;Node17 -->
<g id="edge19" class="edge">
<title>Node13&#45;&gt;Node17</title>
<path fill="none" stroke="midnightblue" d="M185.31,-56.32C173.1,-47.98 154.42,-35.21 140,-25.35"/>
<polygon fill="midnightblue" stroke="midnightblue" points="141.89,-22.41 131.66,-19.65 137.94,-28.19 141.89,-22.41"/>
</g>
<!-- Node18 -->
<g id="node18" class="node">
<title>Node18</title>
<g id="a_node18"><a xlink:title=" ">
<polygon fill="white" stroke="#bfbfbf" points="240.5,-0.5 240.5,-19.5 309.5,-19.5 309.5,-0.5 240.5,-0.5"/>
<text text-anchor="middle" x="275" y="-7.5" font-family="Helvetica,sans-Serif" font-size="10.00">type_traits</text>
</a>
</g>
</g>
<!-- Node13&#45;&gt;Node18 -->
<g id="edge20" class="edge">
<title>Node13&#45;&gt;Node18</title>
<path fill="none" stroke="midnightblue" d="M210.37,-56.32C222.16,-48.06 240.13,-35.45 254.14,-25.63"/>
<polygon fill="midnightblue" stroke="midnightblue" points="256.48,-28.26 262.66,-19.65 252.46,-22.53 256.48,-28.26"/>
</g>
<!-- Node19&#45;&gt;Node10 -->
<g id="edge33" class="edge">
<title>Node19&#45;&gt;Node10</title>
<path fill="none" stroke="midnightblue" d="M327.64,-112.14C340.03,-98.28 365.88,-71.47 393,-56 402.53,-50.57 462.07,-32.36 500.67,-20.84"/>
<polygon fill="midnightblue" stroke="midnightblue" points="501.88,-24.13 510.47,-17.93 499.88,-17.42 501.88,-24.13"/>
</g>
<!-- Node19&#45;&gt;Node13 -->
<g id="edge23" class="edge">
<title>Node19&#45;&gt;Node13</title>
<path fill="none" stroke="midnightblue" d="M300.67,-112.44C280.68,-103.6 249.26,-89.69 226.44,-79.59"/>
<polygon fill="midnightblue" stroke="midnightblue" points="227.8,-76.36 217.24,-75.52 224.97,-82.76 227.8,-76.36"/>
</g>
<!-- Node19&#45;&gt;Node18 -->
<g id="edge32" class="edge">
<title>Node19&#45;&gt;Node18</title>
<path fill="none" stroke="midnightblue" d="M313.06,-112.19C306.5,-103.47 296.81,-89.49 291,-76 284.6,-61.14 280.43,-43.22 277.95,-29.96"/>
<polygon fill="midnightblue" stroke="midnightblue" points="281.34,-28.97 276.2,-19.71 274.44,-30.15 281.34,-28.97"/>
</g>
<!-- Node20 -->
<g id="node20" class="node">
<title>Node20</title>
<g id="a_node20"><a xlink:href="serialized_8h.html" target="_top" xlink:title=" ">
<polygon fill="white" stroke="black" points="587.5,-56.5 587.5,-75.5 660.5,-75.5 660.5,-56.5 587.5,-56.5"/>
<text text-anchor="middle" x="624" y="-63.5" font-family="Helvetica,sans-Serif" font-size="10.00">serialized.h</text>
</a>
</g>
</g>
<!-- Node19&#45;&gt;Node20 -->
<g id="edge24" class="edge">
<title>Node19&#45;&gt;Node20</title>
<path fill="none" stroke="midnightblue" d="M355.17,-114.75C409.98,-105.02 515.84,-86.21 577.09,-75.33"/>
<polygon fill="midnightblue" stroke="midnightblue" points="578.02,-78.72 587.26,-73.53 576.8,-71.83 578.02,-78.72"/>
</g>
<!-- Node19&#45;&gt;Node22 -->
<g id="edge30" class="edge">
<title>Node19&#45;&gt;Node22</title>
<path fill="none" stroke="midnightblue" d="M286.09,-112.44C247.74,-102.77 185.39,-87.03 145.04,-76.85"/>
<polygon fill="midnightblue" stroke="midnightblue" points="145.83,-73.44 135.28,-74.39 144.12,-80.23 145.83,-73.44"/>
</g>
<!-- Node23 -->
<g id="node23" class="node">
<title>Node23</title>
<g id="a_node23"><a xlink:title=" ">
<polygon fill="white" stroke="#bfbfbf" points="299.5,-56.5 299.5,-75.5 340.5,-75.5 340.5,-56.5 299.5,-56.5"/>
<text text-anchor="middle" x="320" y="-63.5" font-family="Helvetica,sans-Serif" font-size="10.00">tuple</text>
</a>
</g>
</g>
<!-- Node19&#45;&gt;Node23 -->
<g id="edge31" class="edge">
<title>Node19&#45;&gt;Node23</title>
<path fill="none" stroke="midnightblue" d="M320,-112.08C320,-105.01 320,-94.86 320,-85.99"/>
<polygon fill="midnightblue" stroke="midnightblue" points="323.5,-85.75 320,-75.75 316.5,-85.75 323.5,-85.75"/>
</g>
<!-- Node20&#45;&gt;Node4 -->
<g id="edge26" class="edge">
<title>Node20&#45;&gt;Node4</title>
<path fill="none" stroke="midnightblue" d="M660.62,-57.59C663.78,-57.02 666.95,-56.48 670,-56 801.33,-35.22 835.97,-42.62 967,-20 968.49,-19.74 970.01,-19.47 971.54,-19.18"/>
<polygon fill="midnightblue" stroke="midnightblue" points="972.59,-22.53 981.68,-17.1 971.19,-15.68 972.59,-22.53"/>
</g>
<!-- Node20&#45;&gt;Node9 -->
<g id="edge25" class="edge">
<title>Node20&#45;&gt;Node9</title>
<path fill="none" stroke="midnightblue" d="M660.6,-56.44C704.32,-46.22 776.93,-29.25 819.95,-19.19"/>
<polygon fill="midnightblue" stroke="midnightblue" points="821.02,-22.54 829.96,-16.85 819.43,-15.72 821.02,-22.54"/>
</g>
<!-- Node20&#45;&gt;Node10 -->
<g id="edge29" class="edge">
<title>Node20&#45;&gt;Node10</title>
<path fill="none" stroke="midnightblue" d="M609.54,-56.32C595.5,-47.9 573.95,-34.97 557.46,-25.07"/>
<polygon fill="midnightblue" stroke="midnightblue" points="558.8,-21.8 548.42,-19.65 555.2,-27.8 558.8,-21.8"/>
</g>
<!-- Node20&#45;&gt;Node16 -->
<g id="edge28" class="edge">
<title>Node20&#45;&gt;Node16</title>
<path fill="none" stroke="midnightblue" d="M599.6,-56.44C573.2,-47.19 530.99,-32.39 501.96,-22.21"/>
<polygon fill="midnightblue" stroke="midnightblue" points="502.88,-18.82 492.29,-18.82 500.57,-25.43 502.88,-18.82"/>
</g>
<!-- Node21 -->
<g id="node21" class="node">
<title>Node21</title>
<g id="a_node21"><a xlink:title=" ">
<polygon fill="white" stroke="#bfbfbf" points="591.5,-0.5 591.5,-19.5 656.5,-19.5 656.5,-0.5 591.5,-0.5"/>
<text text-anchor="middle" x="624" y="-7.5" font-family="Helvetica,sans-Serif" font-size="10.00">stdexcept</text>
</a>
</g>
</g>
<!-- Node20&#45;&gt;Node21 -->
<g id="edge27" class="edge">
<title>Node20&#45;&gt;Node21</title>
<path fill="none" stroke="midnightblue" d="M624,-56.08C624,-49.01 624,-38.86 624,-29.99"/>
<polygon fill="midnightblue" stroke="midnightblue" points="627.5,-29.75 624,-19.75 620.5,-29.75 627.5,-29.75"/>
</g>
</g>
</svg>
        <g id="navigator" transform="translate(0 0)" fill="#404254">
                <rect fill="#f2f5e9" fill-opacity="0.5" stroke="#606060" stroke-width=".5" x="0" y="0" width="60" height="60"/>
                <use id="zoomplus" xlink:href="#zoomPlus" x="17" y="9" onmousedown="handleZoom(evt,'in')"/>
                <use id="zoomminus" xlink:href="#zoomMin" x="42" y="9" onmousedown="handleZoom(evt,'out')"/>
                <use id="reset" xlink:href="#resetDef" x="30" y="36" onmousedown="handleReset()"/>
                <g id="arrowUp" xlink:href="#dirArrow" transform="translate(30 24)" onmousedown="handlePan(0,-1)">
                  <use xlink:href="#rim" fill="#404040">
                        <set attributeName="fill" to="#808080" begin="arrowUp.mouseover" end="arrowUp.mouseout"/>
                  </use>
                  <path fill="none" stroke="white" stroke-width="1.5" d="M0,-3.0v7 M-2.5,-0.5L0,-3.0L2.5,-0.5"/>
                </g>
                <g id="arrowRight" xlink:href="#dirArrow" transform="rotate(90) translate(36 -43)" onmousedown="handlePan(1,0)">
                  <use xlink:href="#rim" fill="#404040">
                        <set attributeName="fill" to="#808080" begin="arrowRight.mouseover" end="arrowRight.mouseout"/>
                  </use>
                  <path fill="none" stroke="white" stroke-width="1.5" d="M0,-3.0v7 M-2.5,-0.5L0,-3.0L2.5,-0.5"/>
                </g>
                <g id="arrowDown" xlink:href="#dirArrow" transform="rotate(180) translate(-30 -48)" onmousedown="handlePan(0,1)">
                  <use xlink:href="#rim" fill="#404040">
                        <set attributeName="fill" to="#808080" begin="arrowDown.mouseover" end="arrowDown.mouseout"/>
                  </use>
                  <path fill="none" stroke="white" stroke-width="1.5" d="M0,-3.0v7 M-2.5,-0.5L0,-3.0L2.5,-0.5"/>
                </g>
                <g id="arrowLeft" xlink:href="#dirArrow" transform="rotate(270) translate(-36 17)" onmousedown="handlePan(-1,0)">
                  <use xlink:href="#rim" fill="#404040">
                        <set attributeName="fill" to="#808080" begin="arrowLeft.mouseover" end="arrowLeft.mouseout"/>
                  </use>
                  <path fill="none" stroke="white" stroke-width="1.5" d="M0,-3.0v7 M-2.5,-0.5L0,-3.0L2.5,-0.5"/>
                </g>
        </g>
        <svg viewBox="0 0 15 15" width="100%" height="30px" preserveAspectRatio="xMaxYMin meet">
         <g id="arrow_out" transform="scale(0.3 0.3)">
          <a xlink:href="non__blocking_8h__incl_org.svg" target="_base">
           <rect id="button" ry="5" rx="5" y="6" x="6" height="38" width="38"
                fill="#f2f5e9" fill-opacity="0.5" stroke="#606060" stroke-width="1.0"/>
           <path id="arrow"
             d="M 11.500037,31.436501 C 11.940474,20.09759 22.043105,11.32322 32.158766,21.979434 L 37.068811,17.246167 C 37.068811,17.246167 37.088388,32 37.088388,32 L 22.160133,31.978069 C 22.160133,31.978069 26.997745,27.140456 26.997745,27.140456 C 18.528582,18.264221 13.291696,25.230495 11.500037,31.436501 z"
             style="fill:#404040;"/>
          </a>
         </g>
        </svg>
</svg>
