<?xml version="1.0" encoding="UTF-8" standalone="no"?>
<!DOCTYPE svg PUBLIC "-//W3C//DTD SVG 1.1//EN"
 "http://www.w3.org/Graphics/SVG/1.1/DTD/svg11.dtd">
<!-- Generated by graphviz version 2.43.0 (0)
 -->
<!-- Title: src/ds/oversized.h Pages: 1 -->
<!--zoomable 621 -->
<svg id="main" version="1.1" xmlns="http://www.w3.org/2000/svg" xmlns:xlink="http://www.w3.org/1999/xlink" xml:space="preserve" onload="init(evt)">
<style type="text/css"><![CDATA[
.edge:hover path { stroke: red; }
.edge:hover polygon { stroke: red; fill: red; }
]]></style>
<script type="text/javascript"><![CDATA[
var edges = document.getElementsByTagName('g');
if (edges && edges.length) {
  for (var i=0;i<edges.length;i++) {
    if (edges[i].id.substr(0,4)=='edge') {
      edges[i].setAttribute('class','edge');
    }
  }
}
]]></script>
        <defs>
                <circle id="rim" cx="0" cy="0" r="7"/>
                <circle id="rim2" cx="0" cy="0" r="3.5"/>
                <g id="zoomPlus">
                        <use xlink:href="#rim" fill="#404040">
                                <set attributeName="fill" to="#808080" begin="zoomplus.mouseover" end="zoomplus.mouseout"/>
                        </use>
                        <path d="M-4,0h8M0,-4v8" fill="none" stroke="white" stroke-width="1.5" pointer-events="none"/>
                </g>
                <g id="zoomMin">
                        <use xlink:href="#rim" fill="#404040">
                                <set attributeName="fill" to="#808080" begin="zoomminus.mouseover" end="zoomminus.mouseout"/>
                        </use>
                        <path d="M-4,0h8" fill="none" stroke="white" stroke-width="1.5" pointer-events="none"/>
                </g>
                <g id="dirArrow">
                        <path fill="none" stroke="white" stroke-width="1.5" d="M0,-3.0v7 M-2.5,-0.5L0,-3.0L2.5,-0.5"/>
                </g>
               <g id="resetDef">
                       <use xlink:href="#rim2" fill="#404040">
                               <set attributeName="fill" to="#808080" begin="reset.mouseover" end="reset.mouseout"/>
                       </use>
               </g>
        </defs>

<script type="text/javascript">
var viewWidth = 835;
var viewHeight = 621;
var sectionId = 'dynsection-1';
</script>
<script xlink:href="svgpan.js"/>
<svg id="graph" class="graph">
<g id="viewport">
<title>src/ds/oversized.h</title>
<polygon fill="white" stroke="transparent" points="-4,4 -4,-617 830.76,-617 830.76,4 -4,4"/>
<!-- Node1 -->
<g id="node1" class="node">
<title>Node1</title>
<g id="a_node1"><a xlink:title=" ">
<polygon fill="#bfbfbf" stroke="black" points="316,-593.5 316,-612.5 420,-612.5 420,-593.5 316,-593.5"/>
<text text-anchor="middle" x="368" y="-600.5" font-family="Helvetica,sans-Serif" font-size="10.00">src/ds/oversized.h</text>
</a>
</g>
</g>
<!-- Node2 -->
<g id="node2" class="node">
<title>Node2</title>
<g id="a_node2"><a xlink:href="common_2configuration_8h.html" target="_top" xlink:title=" ">
<polygon fill="white" stroke="black" points="213,-537.5 213,-556.5 365,-556.5 365,-537.5 213,-537.5"/>
<text text-anchor="middle" x="289" y="-544.5" font-family="Helvetica,sans-Serif" font-size="10.00">src/common/configuration.h</text>
</a>
</g>
</g>
<!-- Node1&#45;&gt;Node2 -->
<g id="edge1" class="edge">
<title>Node1&#45;&gt;Node2</title>
<path fill="none" stroke="midnightblue" d="M346.97,-587.62C332.53,-577.76 313.86,-564.99 301.66,-556.65"/>
<polygon fill="midnightblue" stroke="midnightblue" points="345.08,-590.57 355.31,-593.32 349.03,-584.79 345.08,-590.57"/>
</g>
<!-- Node4 -->
<g id="node4" class="node">
<title>Node4</title>
<g id="a_node4"><a xlink:href="host_2main_8cpp.html" target="_top" xlink:title=" ">
<polygon fill="white" stroke="black" points="532.5,-358.5 532.5,-377.5 635.5,-377.5 635.5,-358.5 532.5,-358.5"/>
<text text-anchor="middle" x="584" y="-365.5" font-family="Helvetica,sans-Serif" font-size="10.00">src/host/main.cpp</text>
</a>
</g>
</g>
<!-- Node1&#45;&gt;Node4 -->
<g id="edge42" class="edge">
<title>Node1&#45;&gt;Node4</title>
<path fill="none" stroke="midnightblue" d="M430.5,-596.95C540.1,-586.65 759.75,-559.12 806,-501 830.07,-470.74 830.48,-443.93 806,-414 784.9,-388.2 694.42,-376.84 635.68,-372.1"/>
<polygon fill="midnightblue" stroke="midnightblue" points="429.88,-593.49 420.25,-597.89 430.53,-600.46 429.88,-593.49"/>
</g>
<!-- Node12 -->
<g id="node12" class="node">
<title>Node12</title>
<g id="a_node12"><a xlink:href="enclave_2enclave_8h.html" target="_top" xlink:title=" ">
<polygon fill="white" stroke="black" points="444,-56.5 444,-75.5 566,-75.5 566,-56.5 444,-56.5"/>
<text text-anchor="middle" x="505" y="-63.5" font-family="Helvetica,sans-Serif" font-size="10.00">src/enclave/enclave.h</text>
</a>
</g>
</g>
<!-- Node1&#45;&gt;Node12 -->
<g id="edge27" class="edge">
<title>Node1&#45;&gt;Node12</title>
<path fill="none" stroke="midnightblue" d="M305.5,-595.4C200.49,-582.56 0,-549.76 0,-486.5 0,-486.5 0,-486.5 0,-177 0,-87.1 309.38,-70.54 443.83,-67.59"/>
<polygon fill="midnightblue" stroke="midnightblue" points="305.32,-598.9 315.67,-596.62 306.15,-591.95 305.32,-598.9"/>
</g>
<!-- Node19 -->
<g id="node19" class="node">
<title>Node19</title>
<g id="a_node19"><a xlink:href="interface_8h.html" target="_top" xlink:title=" ">
<polygon fill="white" stroke="black" points="383,-537.5 383,-556.5 511,-556.5 511,-537.5 383,-537.5"/>
<text text-anchor="middle" x="447" y="-544.5" font-family="Helvetica,sans-Serif" font-size="10.00">src/enclave/interface.h</text>
</a>
</g>
</g>
<!-- Node1&#45;&gt;Node19 -->
<g id="edge28" class="edge">
<title>Node1&#45;&gt;Node19</title>
<path fill="none" stroke="midnightblue" d="M389.03,-587.62C403.47,-577.76 422.14,-564.99 434.34,-556.65"/>
<polygon fill="midnightblue" stroke="midnightblue" points="386.97,-584.79 380.69,-593.32 390.92,-590.57 386.97,-584.79"/>
</g>
<!-- Node3 -->
<g id="node3" class="node">
<title>Node3</title>
<g id="a_node3"><a xlink:href="host_2configuration_8h.html" target="_top" xlink:title=" ">
<polygon fill="white" stroke="black" points="229.5,-414.5 229.5,-433.5 360.5,-433.5 360.5,-414.5 229.5,-414.5"/>
<text text-anchor="middle" x="295" y="-421.5" font-family="Helvetica,sans-Serif" font-size="10.00">src/host/configuration.h</text>
</a>
</g>
</g>
<!-- Node2&#45;&gt;Node3 -->
<g id="edge2" class="edge">
<title>Node2&#45;&gt;Node3</title>
<path fill="none" stroke="midnightblue" d="M289.94,-526.99C291.26,-500.35 293.61,-453 294.57,-433.62"/>
<polygon fill="midnightblue" stroke="midnightblue" points="286.43,-527.14 289.43,-537.3 293.42,-527.48 286.43,-527.14"/>
</g>
<!-- Node5 -->
<g id="node5" class="node">
<title>Node5</title>
<g id="a_node5"><a xlink:href="node__call__types_8h.html" target="_top" xlink:title=" ">
<polygon fill="white" stroke="black" points="141.5,-470.5 141.5,-500.5 266.5,-500.5 266.5,-470.5 141.5,-470.5"/>
<text text-anchor="start" x="149.5" y="-488.5" font-family="Helvetica,sans-Serif" font-size="10.00">src/node/rpc/node_call</text>
<text text-anchor="middle" x="204" y="-477.5" font-family="Helvetica,sans-Serif" font-size="10.00">_types.h</text>
</a>
</g>
</g>
<!-- Node2&#45;&gt;Node5 -->
<g id="edge4" class="edge">
<title>Node2&#45;&gt;Node5</title>
<path fill="none" stroke="midnightblue" d="M268.63,-531.74C255.12,-522.28 237.47,-509.93 224.03,-500.52"/>
<polygon fill="midnightblue" stroke="midnightblue" points="266.62,-534.61 276.82,-537.48 270.64,-528.87 266.62,-534.61"/>
</g>
<!-- Node3&#45;&gt;Node4 -->
<g id="edge3" class="edge">
<title>Node3&#45;&gt;Node4</title>
<path fill="none" stroke="midnightblue" d="M350.66,-412.6C405.27,-402.4 487.57,-387.02 538.42,-377.52"/>
<polygon fill="midnightblue" stroke="midnightblue" points="349.98,-409.17 340.79,-414.44 351.27,-416.05 349.98,-409.17"/>
</g>
<!-- Node6 -->
<g id="node6" class="node">
<title>Node6</title>
<g id="a_node6"><a xlink:href="call__types_8h.html" target="_top" xlink:title=" ">
<polygon fill="white" stroke="black" points="74.5,-414.5 74.5,-433.5 211.5,-433.5 211.5,-414.5 74.5,-414.5"/>
<text text-anchor="middle" x="143" y="-421.5" font-family="Helvetica,sans-Serif" font-size="10.00">src/node/rpc/call_types.h</text>
</a>
</g>
</g>
<!-- Node5&#45;&gt;Node6 -->
<g id="edge5" class="edge">
<title>Node5&#45;&gt;Node6</title>
<path fill="none" stroke="midnightblue" d="M182.27,-463.3C171.8,-453.09 159.82,-441.41 151.88,-433.66"/>
<polygon fill="midnightblue" stroke="midnightblue" points="179.94,-465.92 189.54,-470.4 184.83,-460.91 179.94,-465.92"/>
</g>
<!-- Node7 -->
<g id="node7" class="node">
<title>Node7</title>
<g id="a_node7"><a xlink:href="nobuiltins_8cpp.html" target="_top" xlink:title=" ">
<polygon fill="white" stroke="black" points="166.5,-291.5 166.5,-321.5 301.5,-321.5 301.5,-291.5 166.5,-291.5"/>
<text text-anchor="start" x="174.5" y="-309.5" font-family="Helvetica,sans-Serif" font-size="10.00">samples/apps/nobuiltins</text>
<text text-anchor="middle" x="234" y="-298.5" font-family="Helvetica,sans-Serif" font-size="10.00">/nobuiltins.cpp</text>
</a>
</g>
</g>
<!-- Node6&#45;&gt;Node7 -->
<g id="edge6" class="edge">
<title>Node6&#45;&gt;Node7</title>
<path fill="none" stroke="midnightblue" d="M146.15,-404.39C149.19,-390.57 154.88,-371.8 165,-358 176.06,-342.92 192.95,-330.45 207.25,-321.67"/>
<polygon fill="midnightblue" stroke="midnightblue" points="142.71,-403.75 144.24,-414.23 149.58,-405.08 142.71,-403.75"/>
</g>
<!-- Node8 -->
<g id="node8" class="node">
<title>Node8</title>
<g id="a_node8"><a xlink:href="common__endpoint__registry_8cpp.html" target="_top" xlink:title=" ">
<polygon fill="white" stroke="black" points="320,-291.5 320,-321.5 448,-321.5 448,-291.5 320,-291.5"/>
<text text-anchor="start" x="328" y="-309.5" font-family="Helvetica,sans-Serif" font-size="10.00">src/endpoints/common</text>
<text text-anchor="middle" x="384" y="-298.5" font-family="Helvetica,sans-Serif" font-size="10.00">_endpoint_registry.cpp</text>
</a>
</g>
</g>
<!-- Node6&#45;&gt;Node8 -->
<g id="edge7" class="edge">
<title>Node6&#45;&gt;Node8</title>
<path fill="none" stroke="midnightblue" d="M153.36,-405.68C163.09,-390.88 178.97,-370.11 198,-358 218.25,-345.11 274.24,-330.8 319.54,-320.72"/>
<polygon fill="midnightblue" stroke="midnightblue" points="150.24,-404.06 147.89,-414.39 156.17,-407.78 150.24,-404.06"/>
</g>
<!-- Node9 -->
<g id="node9" class="node">
<title>Node9</title>
<g id="a_node9"><a xlink:href="wrap_8cpp.html" target="_top" xlink:title=" ">
<polygon fill="white" stroke="black" points="207.5,-358.5 207.5,-377.5 296.5,-377.5 296.5,-358.5 207.5,-358.5"/>
<text text-anchor="middle" x="252" y="-365.5" font-family="Helvetica,sans-Serif" font-size="10.00">src/js/wrap.cpp</text>
</a>
</g>
</g>
<!-- Node6&#45;&gt;Node9 -->
<g id="edge8" class="edge">
<title>Node6&#45;&gt;Node9</title>
<path fill="none" stroke="midnightblue" d="M169.52,-409.86C189.73,-399.85 216.99,-386.35 234.53,-377.65"/>
<polygon fill="midnightblue" stroke="midnightblue" points="167.92,-406.75 160.51,-414.32 171.03,-413.02 167.92,-406.75"/>
</g>
<!-- Node10 -->
<g id="node10" class="node">
<title>Node10</title>
<g id="a_node10"><a xlink:href="resharing_8h.html" target="_top" xlink:title=" ">
<polygon fill="white" stroke="black" points="504,-297 504,-316 620,-316 620,-297 504,-297"/>
<text text-anchor="middle" x="562" y="-304" font-family="Helvetica,sans-Serif" font-size="10.00">src/node/resharing.h</text>
</a>
</g>
</g>
<!-- Node6&#45;&gt;Node10 -->
<g id="edge9" class="edge">
<title>Node6&#45;&gt;Node10</title>
<path fill="none" stroke="midnightblue" d="M221.57,-413.3C315.21,-401.58 460.55,-382.84 472,-378 506.73,-363.31 539.48,-331.59 554.06,-316.21"/>
<polygon fill="midnightblue" stroke="midnightblue" points="221.04,-409.84 211.55,-414.55 221.91,-416.78 221.04,-409.84"/>
</g>
<!-- Node15 -->
<g id="node15" class="node">
<title>Node15</title>
<g id="a_node15"><a xlink:href="member__frontend_8h.html" target="_top" xlink:title=" ">
<polygon fill="white" stroke="black" points="28,-291.5 28,-321.5 148,-321.5 148,-291.5 28,-291.5"/>
<text text-anchor="start" x="36" y="-309.5" font-family="Helvetica,sans-Serif" font-size="10.00">src/node/rpc/member</text>
<text text-anchor="middle" x="88" y="-298.5" font-family="Helvetica,sans-Serif" font-size="10.00">_frontend.h</text>
</a>
</g>
</g>
<!-- Node6&#45;&gt;Node15 -->
<g id="edge15" class="edge">
<title>Node6&#45;&gt;Node15</title>
<path fill="none" stroke="midnightblue" d="M134.43,-405.01C123.46,-381.97 104.67,-342.51 94.69,-321.55"/>
<polygon fill="midnightblue" stroke="midnightblue" points="131.41,-406.79 138.87,-414.32 137.73,-403.79 131.41,-406.79"/>
</g>
<!-- Node16 -->
<g id="node16" class="node">
<title>Node16</title>
<g id="a_node16"><a xlink:href="serialization_8h.html" target="_top" xlink:title=" ">
<polygon fill="white" stroke="black" points="315,-358.5 315,-377.5 463,-377.5 463,-358.5 315,-358.5"/>
<text text-anchor="middle" x="389" y="-365.5" font-family="Helvetica,sans-Serif" font-size="10.00">src/node/rpc/serialization.h</text>
</a>
</g>
</g>
<!-- Node6&#45;&gt;Node16 -->
<g id="edge17" class="edge">
<title>Node6&#45;&gt;Node16</title>
<path fill="none" stroke="midnightblue" d="M191.83,-412.28C238.32,-402.08 307.36,-386.92 350.2,-377.52"/>
<polygon fill="midnightblue" stroke="midnightblue" points="191,-408.88 181.98,-414.44 192.5,-415.72 191,-408.88"/>
</g>
<!-- Node11 -->
<g id="node11" class="node">
<title>Node11</title>
<g id="a_node11"><a xlink:href="node__state_8h.html" target="_top" xlink:title=" ">
<polygon fill="white" stroke="black" points="473,-168.5 473,-187.5 597,-187.5 597,-168.5 473,-168.5"/>
<text text-anchor="middle" x="535" y="-175.5" font-family="Helvetica,sans-Serif" font-size="10.00">src/node/node_state.h</text>
</a>
</g>
</g>
<!-- Node10&#45;&gt;Node11 -->
<g id="edge10" class="edge">
<title>Node10&#45;&gt;Node11</title>
<path fill="none" stroke="midnightblue" d="M558.01,-286.81C552.09,-259.08 541.22,-208.13 536.87,-187.76"/>
<polygon fill="midnightblue" stroke="midnightblue" points="554.63,-287.76 560.14,-296.81 561.48,-286.29 554.63,-287.76"/>
</g>
<!-- Node11&#45;&gt;Node12 -->
<g id="edge11" class="edge">
<title>Node11&#45;&gt;Node12</title>
<path fill="none" stroke="midnightblue" d="M506,-163.33C493.77,-155.92 480.81,-145.48 474,-132 463.97,-112.13 482.87,-88.47 495.33,-75.89"/>
<polygon fill="midnightblue" stroke="midnightblue" points="504.66,-166.59 515.09,-168.41 508.07,-160.48 504.66,-166.59"/>
</g>
<!-- Node14 -->
<g id="node14" class="node">
<title>Node14</title>
<g id="a_node14"><a xlink:href="gov__effects_8h.html" target="_top" xlink:title=" ">
<polygon fill="white" stroke="black" points="483,-112.5 483,-131.5 627,-131.5 627,-112.5 483,-112.5"/>
<text text-anchor="middle" x="555" y="-119.5" font-family="Helvetica,sans-Serif" font-size="10.00">src/node/rpc/gov_effects.h</text>
</a>
</g>
</g>
<!-- Node11&#45;&gt;Node14 -->
<g id="edge13" class="edge">
<title>Node11&#45;&gt;Node14</title>
<path fill="none" stroke="midnightblue" d="M541.78,-158.69C545.15,-149.59 549.07,-139.01 551.76,-131.75"/>
<polygon fill="midnightblue" stroke="midnightblue" points="538.49,-157.49 538.3,-168.08 545.06,-159.92 538.49,-157.49"/>
</g>
<!-- Node13 -->
<g id="node13" class="node">
<title>Node13</title>
<g id="a_node13"><a xlink:href="enclave_2main_8cpp.html" target="_top" xlink:title=" ">
<polygon fill="white" stroke="black" points="445,-0.5 445,-19.5 565,-19.5 565,-0.5 445,-0.5"/>
<text text-anchor="middle" x="505" y="-7.5" font-family="Helvetica,sans-Serif" font-size="10.00">src/enclave/main.cpp</text>
</a>
</g>
</g>
<!-- Node12&#45;&gt;Node13 -->
<g id="edge12" class="edge">
<title>Node12&#45;&gt;Node13</title>
<path fill="none" stroke="midnightblue" d="M505,-45.8C505,-36.91 505,-26.78 505,-19.75"/>
<polygon fill="midnightblue" stroke="midnightblue" points="501.5,-46.08 505,-56.08 508.5,-46.08 501.5,-46.08"/>
</g>
<!-- Node14&#45;&gt;Node12 -->
<g id="edge14" class="edge">
<title>Node14&#45;&gt;Node12</title>
<path fill="none" stroke="midnightblue" d="M539.92,-104.72C531.11,-95.2 520.33,-83.56 513.1,-75.75"/>
<polygon fill="midnightblue" stroke="midnightblue" points="537.38,-107.12 546.74,-112.08 542.52,-102.37 537.38,-107.12"/>
</g>
<!-- Node15&#45;&gt;Node12 -->
<g id="edge16" class="edge">
<title>Node15&#45;&gt;Node12</title>
<path fill="none" stroke="midnightblue" d="M121.26,-286.47C206.34,-237.82 429.39,-110.24 489.75,-75.72"/>
<polygon fill="midnightblue" stroke="midnightblue" points="119.47,-283.47 112.53,-291.47 122.95,-289.54 119.47,-283.47"/>
</g>
<!-- Node16&#45;&gt;Node7 -->
<g id="edge18" class="edge">
<title>Node16&#45;&gt;Node7</title>
<path fill="none" stroke="midnightblue" d="M357.34,-354.85C332.16,-345.18 296.9,-331.65 270.53,-321.52"/>
<polygon fill="midnightblue" stroke="midnightblue" points="356.2,-358.16 366.79,-358.48 358.71,-351.62 356.2,-358.16"/>
</g>
<!-- Node16&#45;&gt;Node8 -->
<g id="edge19" class="edge">
<title>Node16&#45;&gt;Node8</title>
<path fill="none" stroke="midnightblue" d="M387.42,-348.23C386.7,-339.59 385.85,-329.5 385.18,-321.52"/>
<polygon fill="midnightblue" stroke="midnightblue" points="383.96,-348.8 388.28,-358.48 390.93,-348.22 383.96,-348.8"/>
</g>
<!-- Node16&#45;&gt;Node10 -->
<g id="edge21" class="edge">
<title>Node16&#45;&gt;Node10</title>
<path fill="none" stroke="midnightblue" d="M423.65,-355.08C457.28,-343.52 507.48,-326.25 537.26,-316.01"/>
<polygon fill="midnightblue" stroke="midnightblue" points="422.1,-351.91 413.79,-358.48 424.38,-358.53 422.1,-351.91"/>
</g>
<!-- Node16&#45;&gt;Node11 -->
<g id="edge20" class="edge">
<title>Node16&#45;&gt;Node11</title>
<path fill="none" stroke="midnightblue" d="M415.56,-353.51C429.15,-345.66 445.25,-334.79 457,-322 496.78,-278.67 523.41,-211.35 532,-187.63"/>
<polygon fill="midnightblue" stroke="midnightblue" points="413.69,-350.54 406.64,-358.45 417.08,-356.67 413.69,-350.54"/>
</g>
<!-- Node16&#45;&gt;Node15 -->
<g id="edge22" class="edge">
<title>Node16&#45;&gt;Node15</title>
<path fill="none" stroke="midnightblue" d="M334.07,-356.59C287.03,-347.62 217.51,-334.23 157,-322 154.12,-321.42 151.17,-320.82 148.2,-320.21"/>
<polygon fill="midnightblue" stroke="midnightblue" points="333.57,-360.06 344.05,-358.5 334.88,-353.19 333.57,-360.06"/>
</g>
<!-- Node17 -->
<g id="node17" class="node">
<title>Node17</title>
<g id="a_node17"><a xlink:href="node__frontend_8h.html" target="_top" xlink:title=" ">
<polygon fill="white" stroke="black" points="638,-297 638,-316 796,-316 796,-297 638,-297"/>
<text text-anchor="middle" x="717" y="-304" font-family="Helvetica,sans-Serif" font-size="10.00">src/node/rpc/node_frontend.h</text>
</a>
</g>
</g>
<!-- Node16&#45;&gt;Node17 -->
<g id="edge23" class="edge">
<title>Node16&#45;&gt;Node17</title>
<path fill="none" stroke="midnightblue" d="M445.85,-356.69C509.34,-345.17 610.95,-326.74 670.09,-316.01"/>
<polygon fill="midnightblue" stroke="midnightblue" points="445.21,-353.25 435.99,-358.48 446.46,-360.13 445.21,-353.25"/>
</g>
<!-- Node17&#45;&gt;Node12 -->
<g id="edge24" class="edge">
<title>Node17&#45;&gt;Node12</title>
<path fill="none" stroke="midnightblue" d="M714.81,-286.55C709.24,-247.53 690.87,-158.03 636,-112 613.43,-93.07 582.47,-81.95 556.31,-75.5"/>
<polygon fill="midnightblue" stroke="midnightblue" points="711.39,-287.46 716.15,-296.93 718.34,-286.57 711.39,-287.46"/>
</g>
<!-- Node18 -->
<g id="node18" class="node">
<title>Node18</title>
<g id="a_node18"><a xlink:href="jwt__key__auto__refresh_8h.html" target="_top" xlink:title=" ">
<polygon fill="white" stroke="black" points="563.5,-224.5 563.5,-254.5 688.5,-254.5 688.5,-224.5 563.5,-224.5"/>
<text text-anchor="start" x="571.5" y="-242.5" font-family="Helvetica,sans-Serif" font-size="10.00">src/node/jwt_key_auto</text>
<text text-anchor="middle" x="626" y="-231.5" font-family="Helvetica,sans-Serif" font-size="10.00">_refresh.h</text>
</a>
</g>
</g>
<!-- Node17&#45;&gt;Node18 -->
<g id="edge25" class="edge">
<title>Node17&#45;&gt;Node18</title>
<path fill="none" stroke="midnightblue" d="M696.49,-290.85C681.3,-280 660.72,-265.3 645.72,-254.59"/>
<polygon fill="midnightblue" stroke="midnightblue" points="694.56,-293.77 704.73,-296.73 698.62,-288.07 694.56,-293.77"/>
</g>
<!-- Node18&#45;&gt;Node11 -->
<g id="edge26" class="edge">
<title>Node18&#45;&gt;Node11</title>
<path fill="none" stroke="midnightblue" d="M595.83,-218.78C579.71,-208.23 560.67,-195.78 548.24,-187.66"/>
<polygon fill="midnightblue" stroke="midnightblue" points="594.15,-221.86 604.43,-224.4 597.98,-216 594.15,-221.86"/>
</g>
<!-- Node19&#45;&gt;Node5 -->
<g id="edge40" class="edge">
<title>Node19&#45;&gt;Node5</title>
<path fill="none" stroke="midnightblue" d="M402.26,-535.05C362.57,-525.33 304.36,-511.07 261.27,-500.52"/>
<polygon fill="midnightblue" stroke="midnightblue" points="401.64,-538.5 412.18,-537.48 403.3,-531.7 401.64,-538.5"/>
</g>
<!-- Node19&#45;&gt;Node12 -->
<g id="edge29" class="edge">
<title>Node19&#45;&gt;Node12</title>
<path fill="none" stroke="midnightblue" d="M521.35,-546.26C613.99,-545.01 765.11,-537.25 806,-501 832.05,-477.9 825,-459.82 825,-425 825,-425 825,-425 825,-177 825,-122.88 659.24,-89.68 566.32,-75.33"/>
<polygon fill="midnightblue" stroke="midnightblue" points="521.15,-542.77 511.19,-546.38 521.23,-549.77 521.15,-542.77"/>
</g>
<!-- Node19&#45;&gt;Node16 -->
<g id="edge41" class="edge">
<title>Node19&#45;&gt;Node16</title>
<path fill="none" stroke="midnightblue" d="M415.16,-532.94C401.76,-525.67 387.55,-515.17 380,-501 357.85,-459.45 376.95,-399.8 385.43,-377.68"/>
<polygon fill="midnightblue" stroke="midnightblue" points="413.7,-536.13 424.21,-537.47 416.83,-529.87 413.7,-536.13"/>
</g>
<!-- Node20 -->
<g id="node20" class="node">
<title>Node20</title>
<g id="a_node20"><a xlink:href="host_2enclave_8h.html" target="_top" xlink:title=" ">
<polygon fill="white" stroke="black" points="691.5,-476 691.5,-495 796.5,-495 796.5,-476 691.5,-476"/>
<text text-anchor="middle" x="744" y="-483" font-family="Helvetica,sans-Serif" font-size="10.00">src/host/enclave.h</text>
</a>
</g>
</g>
<!-- Node19&#45;&gt;Node20 -->
<g id="edge30" class="edge">
<title>Node19&#45;&gt;Node20</title>
<path fill="none" stroke="midnightblue" d="M504.91,-535.71C552.78,-527.02 622.46,-513.96 683,-501 691.52,-499.18 700.67,-497.08 709.22,-495.05"/>
<polygon fill="midnightblue" stroke="midnightblue" points="504.26,-532.27 495.04,-537.49 505.5,-539.16 504.26,-532.27"/>
</g>
<!-- Node23 -->
<g id="node23" class="node">
<title>Node23</title>
<g id="a_node23"><a xlink:href="handle__ring__buffer_8h.html" target="_top" xlink:title=" ">
<polygon fill="white" stroke="black" points="389.5,-470.5 389.5,-500.5 504.5,-500.5 504.5,-470.5 389.5,-470.5"/>
<text text-anchor="start" x="397.5" y="-488.5" font-family="Helvetica,sans-Serif" font-size="10.00">src/host/handle_ring</text>
<text text-anchor="middle" x="447" y="-477.5" font-family="Helvetica,sans-Serif" font-size="10.00">_buffer.h</text>
</a>
</g>
</g>
<!-- Node19&#45;&gt;Node23 -->
<g id="edge36" class="edge">
<title>Node19&#45;&gt;Node23</title>
<path fill="none" stroke="midnightblue" d="M447,-527.23C447,-518.59 447,-508.5 447,-500.52"/>
<polygon fill="midnightblue" stroke="midnightblue" points="443.5,-527.48 447,-537.48 450.5,-527.48 443.5,-527.48"/>
</g>
<!-- Node24 -->
<g id="node24" class="node">
<title>Node24</title>
<g id="a_node24"><a xlink:href="process__launcher_8h.html" target="_top" xlink:title=" ">
<polygon fill="white" stroke="black" points="522.5,-476 522.5,-495 673.5,-495 673.5,-476 522.5,-476"/>
<text text-anchor="middle" x="598" y="-483" font-family="Helvetica,sans-Serif" font-size="10.00">src/host/process_launcher.h</text>
</a>
</g>
</g>
<!-- Node19&#45;&gt;Node24 -->
<g id="edge38" class="edge">
<title>Node19&#45;&gt;Node24</title>
<path fill="none" stroke="midnightblue" d="M478.01,-533.78C507.35,-522.22 550.63,-505.16 576.41,-495.01"/>
<polygon fill="midnightblue" stroke="midnightblue" points="476.66,-530.55 468.63,-537.48 479.22,-537.07 476.66,-530.55"/>
</g>
<!-- Node20&#45;&gt;Node4 -->
<g id="edge31" class="edge">
<title>Node20&#45;&gt;Node4</title>
<path fill="none" stroke="midnightblue" d="M723.79,-469.91C690.11,-445.6 623.52,-397.53 596.17,-377.78"/>
<polygon fill="midnightblue" stroke="midnightblue" points="721.82,-472.8 731.97,-475.82 725.91,-467.13 721.82,-472.8"/>
</g>
<!-- Node21 -->
<g id="node21" class="node">
<title>Node21</title>
<g id="a_node21"><a xlink:href="sig__term_8h.html" target="_top" xlink:title=" ">
<polygon fill="white" stroke="black" points="687,-414.5 687,-433.5 797,-433.5 797,-414.5 687,-414.5"/>
<text text-anchor="middle" x="742" y="-421.5" font-family="Helvetica,sans-Serif" font-size="10.00">src/host/sig_term.h</text>
</a>
</g>
</g>
<!-- Node20&#45;&gt;Node21 -->
<g id="edge32" class="edge">
<title>Node20&#45;&gt;Node21</title>
<path fill="none" stroke="midnightblue" d="M743.37,-465.82C743.01,-455 742.57,-441.9 742.29,-433.51"/>
<polygon fill="midnightblue" stroke="midnightblue" points="739.88,-466.1 743.71,-475.98 746.88,-465.86 739.88,-466.1"/>
</g>
<!-- Node22 -->
<g id="node22" class="node">
<title>Node22</title>
<g id="a_node22"><a xlink:href="ticker_8h.html" target="_top" xlink:title=" ">
<polygon fill="white" stroke="black" points="537.5,-414.5 537.5,-433.5 630.5,-433.5 630.5,-414.5 537.5,-414.5"/>
<text text-anchor="middle" x="584" y="-421.5" font-family="Helvetica,sans-Serif" font-size="10.00">src/host/ticker.h</text>
</a>
</g>
</g>
<!-- Node20&#45;&gt;Node22 -->
<g id="edge34" class="edge">
<title>Node20&#45;&gt;Node22</title>
<path fill="none" stroke="midnightblue" d="M711.55,-472.43C680.45,-460.87 634.31,-443.71 606.88,-433.51"/>
<polygon fill="midnightblue" stroke="midnightblue" points="710.48,-475.77 721.08,-475.98 712.92,-469.21 710.48,-475.77"/>
</g>
<!-- Node21&#45;&gt;Node4 -->
<g id="edge33" class="edge">
<title>Node21&#45;&gt;Node4</title>
<path fill="none" stroke="midnightblue" d="M707.39,-411.17C677.64,-401 635.45,-386.59 608.92,-377.52"/>
<polygon fill="midnightblue" stroke="midnightblue" points="706.37,-414.52 716.96,-414.44 708.63,-407.9 706.37,-414.52"/>
</g>
<!-- Node22&#45;&gt;Node4 -->
<g id="edge35" class="edge">
<title>Node22&#45;&gt;Node4</title>
<path fill="none" stroke="midnightblue" d="M584,-403.8C584,-394.91 584,-384.78 584,-377.75"/>
<polygon fill="midnightblue" stroke="midnightblue" points="580.5,-404.08 584,-414.08 587.5,-404.08 580.5,-404.08"/>
</g>
<!-- Node23&#45;&gt;Node4 -->
<g id="edge37" class="edge">
<title>Node23&#45;&gt;Node4</title>
<path fill="none" stroke="midnightblue" d="M468.02,-463.38C482.7,-448.97 503,-429.71 522,-414 538.4,-400.44 558.52,-386.25 571.3,-377.52"/>
<polygon fill="midnightblue" stroke="midnightblue" points="465.54,-460.91 460.89,-470.43 470.46,-465.89 465.54,-460.91"/>
</g>
<!-- Node24&#45;&gt;Node4 -->
<g id="edge39" class="edge">
<title>Node24&#45;&gt;Node4</title>
<path fill="none" stroke="midnightblue" d="M568.6,-471.2C553.84,-462.82 537.34,-450.44 529,-434 517.36,-411.06 546.95,-389.28 567.1,-377.67"/>
<polygon fill="midnightblue" stroke="midnightblue" points="567.01,-474.32 577.49,-475.91 570.29,-468.14 567.01,-474.32"/>
</g>
</g>
</svg>
        <g id="navigator" transform="translate(0 0)" fill="#404254">
                <rect fill="#f2f5e9" fill-opacity="0.5" stroke="#606060" stroke-width=".5" x="0" y="0" width="60" height="60"/>
                <use id="zoomplus" xlink:href="#zoomPlus" x="17" y="9" onmousedown="handleZoom(evt,'in')"/>
                <use id="zoomminus" xlink:href="#zoomMin" x="42" y="9" onmousedown="handleZoom(evt,'out')"/>
                <use id="reset" xlink:href="#resetDef" x="30" y="36" onmousedown="handleReset()"/>
                <g id="arrowUp" xlink:href="#dirArrow" transform="translate(30 24)" onmousedown="handlePan(0,-1)">
                  <use xlink:href="#rim" fill="#404040">
                        <set attributeName="fill" to="#808080" begin="arrowUp.mouseover" end="arrowUp.mouseout"/>
                  </use>
                  <path fill="none" stroke="white" stroke-width="1.5" d="M0,-3.0v7 M-2.5,-0.5L0,-3.0L2.5,-0.5"/>
                </g>
                <g id="arrowRight" xlink:href="#dirArrow" transform="rotate(90) translate(36 -43)" onmousedown="handlePan(1,0)">
                  <use xlink:href="#rim" fill="#404040">
                        <set attributeName="fill" to="#808080" begin="arrowRight.mouseover" end="arrowRight.mouseout"/>
                  </use>
                  <path fill="none" stroke="white" stroke-width="1.5" d="M0,-3.0v7 M-2.5,-0.5L0,-3.0L2.5,-0.5"/>
                </g>
                <g id="arrowDown" xlink:href="#dirArrow" transform="rotate(180) translate(-30 -48)" onmousedown="handlePan(0,1)">
                  <use xlink:href="#rim" fill="#404040">
                        <set attributeName="fill" to="#808080" begin="arrowDown.mouseover" end="arrowDown.mouseout"/>
                  </use>
                  <path fill="none" stroke="white" stroke-width="1.5" d="M0,-3.0v7 M-2.5,-0.5L0,-3.0L2.5,-0.5"/>
                </g>
                <g id="arrowLeft" xlink:href="#dirArrow" transform="rotate(270) translate(-36 17)" onmousedown="handlePan(-1,0)">
                  <use xlink:href="#rim" fill="#404040">
                        <set attributeName="fill" to="#808080" begin="arrowLeft.mouseover" end="arrowLeft.mouseout"/>
                  </use>
                  <path fill="none" stroke="white" stroke-width="1.5" d="M0,-3.0v7 M-2.5,-0.5L0,-3.0L2.5,-0.5"/>
                </g>
        </g>
        <svg viewBox="0 0 15 15" width="100%" height="30px" preserveAspectRatio="xMaxYMin meet">
         <g id="arrow_out" transform="scale(0.3 0.3)">
          <a xlink:href="oversized_8h__dep__incl_org.svg" target="_base">
           <rect id="button" ry="5" rx="5" y="6" x="6" height="38" width="38"
                fill="#f2f5e9" fill-opacity="0.5" stroke="#606060" stroke-width="1.0"/>
           <path id="arrow"
             d="M 11.500037,31.436501 C 11.940474,20.09759 22.043105,11.32322 32.158766,21.979434 L 37.068811,17.246167 C 37.068811,17.246167 37.088388,32 37.088388,32 L 22.160133,31.978069 C 22.160133,31.978069 26.997745,27.140456 26.997745,27.140456 C 18.528582,18.264221 13.291696,25.230495 11.500037,31.436501 z"
             style="fill:#404040;"/>
          </a>
         </g>
        </svg>
</svg>
