<?xml version="1.0" encoding="UTF-8" standalone="no"?>
<!DOCTYPE svg PUBLIC "-//W3C//DTD SVG 1.1//EN"
 "http://www.w3.org/Graphics/SVG/1.1/DTD/svg11.dtd">
<!-- Generated by graphviz version 2.43.0 (0)
 -->
<!-- Title: include/ccf/crypto/pem.h Pages: 1 -->
<svg width="790pt" height="263pt"
 viewBox="0.00 0.00 790.06 263.00" xmlns="http://www.w3.org/2000/svg" xmlns:xlink="http://www.w3.org/1999/xlink">
<g id="graph0" class="graph" transform="scale(1 1) rotate(0) translate(4 259)">
<title>include/ccf/crypto/pem.h</title>
<polygon fill="white" stroke="transparent" points="-4,4 -4,-259 786.06,-259 786.06,4 -4,4"/>
<!-- Node1 -->
<g id="node1" class="node">
<title>Node1</title>
<g id="a_node1"><a xlink:title=" ">
<polygon fill="#bfbfbf" stroke="black" points="487.56,-224.5 487.56,-254.5 590.56,-254.5 590.56,-224.5 487.56,-224.5"/>
<text text-anchor="start" x="495.56" y="-242.5" font-family="Helvetica,sans-Serif" font-size="10.00">include/ccf/crypto</text>
<text text-anchor="middle" x="539.06" y="-231.5" font-family="Helvetica,sans-Serif" font-size="10.00">/pem.h</text>
</a>
</g>
</g>
<!-- Node2 -->
<g id="node2" class="node">
<title>Node2</title>
<g id="a_node2"><a xlink:href="json_8h.html" target="_top" xlink:title=" ">
<polygon fill="white" stroke="black" points="169.56,-168.5 169.56,-187.5 246.56,-187.5 246.56,-168.5 169.56,-168.5"/>
<text text-anchor="middle" x="208.06" y="-175.5" font-family="Helvetica,sans-Serif" font-size="10.00">ccf/ds/json.h</text>
</a>
</g>
</g>
<!-- Node1&#45;&gt;Node2 -->
<g id="edge1" class="edge">
<title>Node1&#45;&gt;Node2</title>
<path fill="none" stroke="midnightblue" d="M487.35,-229.2C424.31,-217.87 318.58,-198.87 256.89,-187.78"/>
<polygon fill="midnightblue" stroke="midnightblue" points="257.47,-184.32 247.01,-186 256.23,-191.21 257.47,-184.32"/>
</g>
<!-- Node5 -->
<g id="node5" class="node">
<title>Node5</title>
<g id="a_node5"><a xlink:title=" ">
<polygon fill="white" stroke="#bfbfbf" points="24.56,-0.5 24.56,-19.5 71.56,-19.5 71.56,-0.5 24.56,-0.5"/>
<text text-anchor="middle" x="48.06" y="-7.5" font-family="Helvetica,sans-Serif" font-size="10.00">vector</text>
</a>
</g>
</g>
<!-- Node1&#45;&gt;Node5 -->
<g id="edge23" class="edge">
<title>Node1&#45;&gt;Node5</title>
<path fill="none" stroke="midnightblue" d="M487.45,-239.39C412.63,-238.98 270.89,-231.76 160.06,-188 80.34,-156.52 42.31,-152.2 3.06,-76 -6.41,-57.61 10.87,-38.34 26.69,-25.6"/>
<polygon fill="midnightblue" stroke="midnightblue" points="28.8,-28.4 34.67,-19.58 24.58,-22.81 28.8,-28.4"/>
</g>
<!-- Node11 -->
<g id="node11" class="node">
<title>Node11</title>
<g id="a_node11"><a xlink:title=" ">
<polygon fill="white" stroke="#bfbfbf" points="449.56,-0.5 449.56,-19.5 522.56,-19.5 522.56,-0.5 449.56,-0.5"/>
<text text-anchor="middle" x="486.06" y="-7.5" font-family="Helvetica,sans-Serif" font-size="10.00">string_view</text>
</a>
</g>
</g>
<!-- Node1&#45;&gt;Node11 -->
<g id="edge22" class="edge">
<title>Node1&#45;&gt;Node11</title>
<path fill="none" stroke="midnightblue" d="M526.56,-224.09C519,-214.52 509.92,-201.31 505.06,-188 485.08,-133.2 484.23,-62.99 485.17,-29.88"/>
<polygon fill="midnightblue" stroke="midnightblue" points="488.67,-29.93 485.55,-19.81 481.68,-29.67 488.67,-29.93"/>
</g>
<!-- Node16 -->
<g id="node16" class="node">
<title>Node16</title>
<g id="a_node16"><a xlink:title=" ">
<polygon fill="white" stroke="#bfbfbf" points="514.06,-168.5 514.06,-187.5 564.06,-187.5 564.06,-168.5 514.06,-168.5"/>
<text text-anchor="middle" x="539.06" y="-175.5" font-family="Helvetica,sans-Serif" font-size="10.00">cstring</text>
</a>
</g>
</g>
<!-- Node1&#45;&gt;Node16 -->
<g id="edge18" class="edge">
<title>Node1&#45;&gt;Node16</title>
<path fill="none" stroke="midnightblue" d="M539.06,-224.4C539.06,-216.47 539.06,-206.46 539.06,-197.86"/>
<polygon fill="midnightblue" stroke="midnightblue" points="542.56,-197.66 539.06,-187.66 535.56,-197.66 542.56,-197.66"/>
</g>
<!-- Node17 -->
<g id="node17" class="node">
<title>Node17</title>
<g id="a_node17"><a xlink:title=" ">
<polygon fill="white" stroke="#bfbfbf" points="582.56,-168.5 582.56,-187.5 647.56,-187.5 647.56,-168.5 582.56,-168.5"/>
<text text-anchor="middle" x="615.06" y="-175.5" font-family="Helvetica,sans-Serif" font-size="10.00">exception</text>
</a>
</g>
</g>
<!-- Node1&#45;&gt;Node17 -->
<g id="edge19" class="edge">
<title>Node1&#45;&gt;Node17</title>
<path fill="none" stroke="midnightblue" d="M557.07,-224.4C568.8,-215.22 584.08,-203.26 596.01,-193.92"/>
<polygon fill="midnightblue" stroke="midnightblue" points="598.29,-196.58 604.01,-187.66 593.97,-191.07 598.29,-196.58"/>
</g>
<!-- Node18 -->
<g id="node18" class="node">
<title>Node18</title>
<g id="a_node18"><a xlink:title=" ">
<polygon fill="white" stroke="#bfbfbf" points="666.06,-168.5 666.06,-187.5 724.06,-187.5 724.06,-168.5 666.06,-168.5"/>
<text text-anchor="middle" x="695.06" y="-175.5" font-family="Helvetica,sans-Serif" font-size="10.00">memory</text>
</a>
</g>
</g>
<!-- Node1&#45;&gt;Node18 -->
<g id="edge20" class="edge">
<title>Node1&#45;&gt;Node18</title>
<path fill="none" stroke="midnightblue" d="M576.03,-224.4C602.44,-214.33 637.62,-200.91 662.88,-191.28"/>
<polygon fill="midnightblue" stroke="midnightblue" points="664.27,-194.49 672.36,-187.66 661.77,-187.95 664.27,-194.49"/>
</g>
<!-- Node19 -->
<g id="node19" class="node">
<title>Node19</title>
<g id="a_node19"><a xlink:title=" ">
<polygon fill="white" stroke="#bfbfbf" points="742.06,-168.5 742.06,-187.5 782.06,-187.5 782.06,-168.5 742.06,-168.5"/>
<text text-anchor="middle" x="762.06" y="-175.5" font-family="Helvetica,sans-Serif" font-size="10.00">span</text>
</a>
</g>
</g>
<!-- Node1&#45;&gt;Node19 -->
<g id="edge21" class="edge">
<title>Node1&#45;&gt;Node19</title>
<path fill="none" stroke="midnightblue" d="M590.71,-225.75C627.68,-216.46 678.84,-203.29 732.19,-188.16"/>
<polygon fill="midnightblue" stroke="midnightblue" points="733.16,-191.52 741.82,-185.41 731.24,-184.79 733.16,-191.52"/>
</g>
<!-- Node3 -->
<g id="node3" class="node">
<title>Node3</title>
<g id="a_node3"><a xlink:href="include_2ccf_2crypto_2base64_8h.html" target="_top" xlink:title=" ">
<polygon fill="white" stroke="black" points="12.06,-56.5 12.06,-75.5 124.06,-75.5 124.06,-56.5 12.06,-56.5"/>
<text text-anchor="middle" x="68.06" y="-63.5" font-family="Helvetica,sans-Serif" font-size="10.00">ccf/crypto/base64.h</text>
</a>
</g>
</g>
<!-- Node2&#45;&gt;Node3 -->
<g id="edge2" class="edge">
<title>Node2&#45;&gt;Node3</title>
<path fill="none" stroke="midnightblue" d="M197.08,-168.37C173.26,-149.65 116.62,-105.15 86.94,-81.83"/>
<polygon fill="midnightblue" stroke="midnightblue" points="89.02,-79.02 79,-75.59 84.7,-84.52 89.02,-79.02"/>
</g>
<!-- Node6 -->
<g id="node6" class="node">
<title>Node6</title>
<g id="a_node6"><a xlink:href="include_2ccf_2ds_2json__schema_8h.html" target="_top" xlink:title=" ">
<polygon fill="white" stroke="black" points="254.56,-112.5 254.56,-131.5 375.56,-131.5 375.56,-112.5 254.56,-112.5"/>
<text text-anchor="middle" x="315.06" y="-119.5" font-family="Helvetica,sans-Serif" font-size="10.00">ccf/ds/json_schema.h</text>
</a>
</g>
</g>
<!-- Node2&#45;&gt;Node6 -->
<g id="edge5" class="edge">
<title>Node2&#45;&gt;Node6</title>
<path fill="none" stroke="midnightblue" d="M225.26,-168.32C242.41,-159.66 269.01,-146.24 288.81,-136.25"/>
<polygon fill="midnightblue" stroke="midnightblue" points="290.56,-139.28 297.92,-131.65 287.41,-133.04 290.56,-139.28"/>
</g>
<!-- Node13 -->
<g id="node13" class="node">
<title>Node13</title>
<g id="a_node13"><a xlink:title=" ">
<polygon fill="white" stroke="#bfbfbf" points="142.56,-56.5 142.56,-75.5 221.56,-75.5 221.56,-56.5 142.56,-56.5"/>
<text text-anchor="middle" x="182.06" y="-63.5" font-family="Helvetica,sans-Serif" font-size="10.00">fmt/format.h</text>
</a>
</g>
</g>
<!-- Node2&#45;&gt;Node13 -->
<g id="edge16" class="edge">
<title>Node2&#45;&gt;Node13</title>
<path fill="none" stroke="midnightblue" d="M197.63,-168.24C188.64,-159.97 176.32,-146.66 171.06,-132 165.58,-116.7 169.57,-98.37 174.2,-85.08"/>
<polygon fill="midnightblue" stroke="midnightblue" points="177.51,-86.24 177.89,-75.66 170.99,-83.69 177.51,-86.24"/>
</g>
<!-- Node15 -->
<g id="node15" class="node">
<title>Node15</title>
<g id="a_node15"><a xlink:title=" ">
<polygon fill="white" stroke="#bfbfbf" points="180.06,-112.5 180.06,-131.5 236.06,-131.5 236.06,-112.5 180.06,-112.5"/>
<text text-anchor="middle" x="208.06" y="-119.5" font-family="Helvetica,sans-Serif" font-size="10.00">sstream</text>
</a>
</g>
</g>
<!-- Node2&#45;&gt;Node15 -->
<g id="edge17" class="edge">
<title>Node2&#45;&gt;Node15</title>
<path fill="none" stroke="midnightblue" d="M208.06,-168.08C208.06,-161.01 208.06,-150.86 208.06,-141.99"/>
<polygon fill="midnightblue" stroke="midnightblue" points="211.56,-141.75 208.06,-131.75 204.56,-141.75 211.56,-141.75"/>
</g>
<!-- Node4 -->
<g id="node4" class="node">
<title>Node4</title>
<g id="a_node4"><a xlink:title=" ">
<polygon fill="white" stroke="#bfbfbf" points="90.06,-0.5 90.06,-19.5 134.06,-19.5 134.06,-0.5 90.06,-0.5"/>
<text text-anchor="middle" x="112.06" y="-7.5" font-family="Helvetica,sans-Serif" font-size="10.00">string</text>
</a>
</g>
</g>
<!-- Node3&#45;&gt;Node4 -->
<g id="edge3" class="edge">
<title>Node3&#45;&gt;Node4</title>
<path fill="none" stroke="midnightblue" d="M75.33,-56.08C81.61,-48.38 90.85,-37.03 98.49,-27.65"/>
<polygon fill="midnightblue" stroke="midnightblue" points="101.33,-29.71 104.93,-19.75 95.9,-25.29 101.33,-29.71"/>
</g>
<!-- Node3&#45;&gt;Node5 -->
<g id="edge4" class="edge">
<title>Node3&#45;&gt;Node5</title>
<path fill="none" stroke="midnightblue" d="M64.76,-56.08C62.08,-48.85 58.22,-38.41 54.88,-29.4"/>
<polygon fill="midnightblue" stroke="midnightblue" points="58.06,-27.91 51.3,-19.75 51.5,-30.34 58.06,-27.91"/>
</g>
<!-- Node7 -->
<g id="node7" class="node">
<title>Node7</title>
<g id="a_node7"><a xlink:href="nonstd_8h.html" target="_top" xlink:title=" ">
<polygon fill="white" stroke="black" points="240.06,-56.5 240.06,-75.5 330.06,-75.5 330.06,-56.5 240.06,-56.5"/>
<text text-anchor="middle" x="285.06" y="-63.5" font-family="Helvetica,sans-Serif" font-size="10.00">ccf/ds/nonstd.h</text>
</a>
</g>
</g>
<!-- Node6&#45;&gt;Node7 -->
<g id="edge6" class="edge">
<title>Node6&#45;&gt;Node7</title>
<path fill="none" stroke="midnightblue" d="M310.11,-112.08C305.96,-104.61 299.91,-93.72 294.8,-84.52"/>
<polygon fill="midnightblue" stroke="midnightblue" points="297.84,-82.79 289.93,-75.75 291.72,-86.19 297.84,-82.79"/>
</g>
<!-- Node6&#45;&gt;Node13 -->
<g id="edge14" class="edge">
<title>Node6&#45;&gt;Node13</title>
<path fill="none" stroke="midnightblue" d="M293.99,-112.44C272,-103.52 237.33,-89.44 212.4,-79.32"/>
<polygon fill="midnightblue" stroke="midnightblue" points="213.62,-76.04 203.04,-75.52 210.99,-82.52 213.62,-76.04"/>
</g>
<!-- Node14 -->
<g id="node14" class="node">
<title>Node14</title>
<g id="a_node14"><a xlink:title=" ">
<polygon fill="white" stroke="#bfbfbf" points="348.06,-56.5 348.06,-75.5 458.06,-75.5 458.06,-56.5 348.06,-56.5"/>
<text text-anchor="middle" x="403.06" y="-63.5" font-family="Helvetica,sans-Serif" font-size="10.00">nlohmann/json.hpp</text>
</a>
</g>
</g>
<!-- Node6&#45;&gt;Node14 -->
<g id="edge15" class="edge">
<title>Node6&#45;&gt;Node14</title>
<path fill="none" stroke="midnightblue" d="M329.2,-112.32C342.93,-103.9 364,-90.97 380.13,-81.07"/>
<polygon fill="midnightblue" stroke="midnightblue" points="382.27,-83.87 388.96,-75.65 378.61,-77.9 382.27,-83.87"/>
</g>
<!-- Node7&#45;&gt;Node4 -->
<g id="edge10" class="edge">
<title>Node7&#45;&gt;Node4</title>
<path fill="none" stroke="midnightblue" d="M257.65,-56.44C226.79,-46.81 176.7,-31.18 144.07,-20.99"/>
<polygon fill="midnightblue" stroke="midnightblue" points="144.72,-17.53 134.13,-17.89 142.64,-24.21 144.72,-17.53"/>
</g>
<!-- Node7&#45;&gt;Node5 -->
<g id="edge13" class="edge">
<title>Node7&#45;&gt;Node5</title>
<path fill="none" stroke="midnightblue" d="M243.51,-56.46C204.29,-48.26 143.61,-35.21 81.75,-20.08"/>
<polygon fill="midnightblue" stroke="midnightblue" points="82.37,-16.62 71.82,-17.63 80.69,-23.42 82.37,-16.62"/>
</g>
<!-- Node8 -->
<g id="node8" class="node">
<title>Node8</title>
<g id="a_node8"><a xlink:title=" ">
<polygon fill="white" stroke="#bfbfbf" points="240.06,-0.5 240.06,-19.5 304.06,-19.5 304.06,-0.5 240.06,-0.5"/>
<text text-anchor="middle" x="272.06" y="-7.5" font-family="Helvetica,sans-Serif" font-size="10.00">algorithm</text>
</a>
</g>
</g>
<!-- Node7&#45;&gt;Node8 -->
<g id="edge7" class="edge">
<title>Node7&#45;&gt;Node8</title>
<path fill="none" stroke="midnightblue" d="M282.92,-56.08C281.19,-48.93 278.72,-38.64 276.56,-29.69"/>
<polygon fill="midnightblue" stroke="midnightblue" points="279.91,-28.65 274.17,-19.75 273.11,-30.29 279.91,-28.65"/>
</g>
<!-- Node9 -->
<g id="node9" class="node">
<title>Node9</title>
<g id="a_node9"><a xlink:title=" ">
<polygon fill="white" stroke="#bfbfbf" points="322.06,-0.5 322.06,-19.5 364.06,-19.5 364.06,-0.5 322.06,-0.5"/>
<text text-anchor="middle" x="343.06" y="-7.5" font-family="Helvetica,sans-Serif" font-size="10.00">array</text>
</a>
</g>
</g>
<!-- Node7&#45;&gt;Node9 -->
<g id="edge8" class="edge">
<title>Node7&#45;&gt;Node9</title>
<path fill="none" stroke="midnightblue" d="M294.38,-56.32C302.96,-48.34 315.88,-36.31 326.25,-26.65"/>
<polygon fill="midnightblue" stroke="midnightblue" points="328.64,-29.21 333.58,-19.83 323.87,-24.09 328.64,-29.21"/>
</g>
<!-- Node10 -->
<g id="node10" class="node">
<title>Node10</title>
<g id="a_node10"><a xlink:title=" ">
<polygon fill="white" stroke="#bfbfbf" points="382.56,-0.5 382.56,-19.5 431.56,-19.5 431.56,-0.5 382.56,-0.5"/>
<text text-anchor="middle" x="407.06" y="-7.5" font-family="Helvetica,sans-Serif" font-size="10.00">cctype</text>
</a>
</g>
</g>
<!-- Node7&#45;&gt;Node10 -->
<g id="edge9" class="edge">
<title>Node7&#45;&gt;Node10</title>
<path fill="none" stroke="midnightblue" d="M304.4,-56.44C324.38,-47.6 355.81,-33.69 378.63,-23.59"/>
<polygon fill="midnightblue" stroke="midnightblue" points="380.1,-26.76 387.82,-19.52 377.26,-20.36 380.1,-26.76"/>
</g>
<!-- Node7&#45;&gt;Node11 -->
<g id="edge11" class="edge">
<title>Node7&#45;&gt;Node11</title>
<path fill="none" stroke="midnightblue" d="M316.91,-56.44C351.46,-47.16 406.75,-32.31 444.65,-22.13"/>
<polygon fill="midnightblue" stroke="midnightblue" points="445.61,-25.49 454.36,-19.52 443.8,-18.73 445.61,-25.49"/>
</g>
<!-- Node12 -->
<g id="node12" class="node">
<title>Node12</title>
<g id="a_node12"><a xlink:title=" ">
<polygon fill="white" stroke="#bfbfbf" points="152.56,-0.5 152.56,-19.5 221.56,-19.5 221.56,-0.5 152.56,-0.5"/>
<text text-anchor="middle" x="187.06" y="-7.5" font-family="Helvetica,sans-Serif" font-size="10.00">type_traits</text>
</a>
</g>
</g>
<!-- Node7&#45;&gt;Node12 -->
<g id="edge12" class="edge">
<title>Node7&#45;&gt;Node12</title>
<path fill="none" stroke="midnightblue" d="M269.32,-56.32C253.75,-47.74 229.69,-34.49 211.6,-24.52"/>
<polygon fill="midnightblue" stroke="midnightblue" points="213.22,-21.42 202.77,-19.65 209.84,-27.55 213.22,-21.42"/>
</g>
</g>
</svg>
