<?xml version="1.0" encoding="UTF-8" standalone="no"?>
<!DOCTYPE svg PUBLIC "-//W3C//DTD SVG 1.1//EN"
 "http://www.w3.org/Graphics/SVG/1.1/DTD/svg11.dtd">
<!-- Generated by graphviz version 2.43.0 (0)
 -->
<!-- Title: include/ccf/service/tables/proposals.h Pages: 1 -->
<!--zoomable 520 -->
<svg id="main" version="1.1" xmlns="http://www.w3.org/2000/svg" xmlns:xlink="http://www.w3.org/1999/xlink" xml:space="preserve" onload="init(evt)">
<style type="text/css"><![CDATA[
.edge:hover path { stroke: red; }
.edge:hover polygon { stroke: red; fill: red; }
]]></style>
<script type="text/javascript"><![CDATA[
var edges = document.getElementsByTagName('g');
if (edges && edges.length) {
  for (var i=0;i<edges.length;i++) {
    if (edges[i].id.substr(0,4)=='edge') {
      edges[i].setAttribute('class','edge');
    }
  }
}
]]></script>
        <defs>
                <circle id="rim" cx="0" cy="0" r="7"/>
                <circle id="rim2" cx="0" cy="0" r="3.5"/>
                <g id="zoomPlus">
                        <use xlink:href="#rim" fill="#404040">
                                <set attributeName="fill" to="#808080" begin="zoomplus.mouseover" end="zoomplus.mouseout"/>
                        </use>
                        <path d="M-4,0h8M0,-4v8" fill="none" stroke="white" stroke-width="1.5" pointer-events="none"/>
                </g>
                <g id="zoomMin">
                        <use xlink:href="#rim" fill="#404040">
                                <set attributeName="fill" to="#808080" begin="zoomminus.mouseover" end="zoomminus.mouseout"/>
                        </use>
                        <path d="M-4,0h8" fill="none" stroke="white" stroke-width="1.5" pointer-events="none"/>
                </g>
                <g id="dirArrow">
                        <path fill="none" stroke="white" stroke-width="1.5" d="M0,-3.0v7 M-2.5,-0.5L0,-3.0L2.5,-0.5"/>
                </g>
               <g id="resetDef">
                       <use xlink:href="#rim2" fill="#404040">
                               <set attributeName="fill" to="#808080" begin="reset.mouseover" end="reset.mouseout"/>
                       </use>
               </g>
        </defs>

<script type="text/javascript">
var viewWidth = 1559;
var viewHeight = 520;
var sectionId = 'dynsection-1';
</script>
<script xlink:href="svgpan.js"/>
<svg id="graph" class="graph">
<g id="viewport">
<title>include/ccf/service/tables/proposals.h</title>
<polygon fill="white" stroke="transparent" points="-4,4 -4,-516 1555,-516 1555,4 -4,4"/>
<!-- Node1 -->
<g id="node1" class="node">
<title>Node1</title>
<g id="a_node1"><a xlink:title=" ">
<polygon fill="#bfbfbf" stroke="black" points="1332.5,-481.5 1332.5,-511.5 1441.5,-511.5 1441.5,-481.5 1332.5,-481.5"/>
<text text-anchor="start" x="1340.5" y="-499.5" font-family="Helvetica,sans-Serif" font-size="10.00">include/ccf/service</text>
<text text-anchor="middle" x="1387" y="-488.5" font-family="Helvetica,sans-Serif" font-size="10.00">/tables/proposals.h</text>
</a>
</g>
</g>
<!-- Node2 -->
<g id="node2" class="node">
<title>Node2</title>
<g id="a_node2"><a xlink:href="gov_8h.html" target="_top" xlink:title=" ">
<polygon fill="white" stroke="black" points="1426.5,-414.5 1426.5,-444.5 1533.5,-444.5 1533.5,-414.5 1426.5,-414.5"/>
<text text-anchor="start" x="1434.5" y="-432.5" font-family="Helvetica,sans-Serif" font-size="10.00">include/ccf/service</text>
<text text-anchor="middle" x="1480" y="-421.5" font-family="Helvetica,sans-Serif" font-size="10.00">/tables/gov.h</text>
</a>
</g>
</g>
<!-- Node1&#45;&gt;Node2 -->
<g id="edge1" class="edge">
<title>Node1&#45;&gt;Node2</title>
<path fill="none" stroke="midnightblue" d="M1415.69,-475.45C1429.99,-465.45 1446.95,-453.6 1459.86,-444.58"/>
<polygon fill="midnightblue" stroke="midnightblue" points="1413.37,-472.8 1407.18,-481.4 1417.38,-478.54 1413.37,-472.8"/>
</g>
<!-- Node6 -->
<g id="node6" class="node">
<title>Node6</title>
<g id="a_node6"><a xlink:href="network__tables_8h.html" target="_top" xlink:title=" ">
<polygon fill="white" stroke="black" points="1267,-414.5 1267,-444.5 1379,-444.5 1379,-414.5 1267,-414.5"/>
<text text-anchor="start" x="1275" y="-432.5" font-family="Helvetica,sans-Serif" font-size="10.00">src/service/network</text>
<text text-anchor="middle" x="1323" y="-421.5" font-family="Helvetica,sans-Serif" font-size="10.00">_tables.h</text>
</a>
</g>
</g>
<!-- Node1&#45;&gt;Node6 -->
<g id="edge5" class="edge">
<title>Node1&#45;&gt;Node6</title>
<path fill="none" stroke="midnightblue" d="M1365.85,-474.02C1356.32,-464.34 1345.33,-453.17 1336.86,-444.58"/>
<polygon fill="midnightblue" stroke="midnightblue" points="1363.6,-476.73 1373.11,-481.4 1368.59,-471.81 1363.6,-476.73"/>
</g>
<!-- Node3 -->
<g id="node3" class="node">
<title>Node3</title>
<g id="a_node3"><a xlink:href="member__frontend_8h.html" target="_top" xlink:title=" ">
<polygon fill="white" stroke="black" points="1431,-224.5 1431,-254.5 1551,-254.5 1551,-224.5 1431,-224.5"/>
<text text-anchor="start" x="1439" y="-242.5" font-family="Helvetica,sans-Serif" font-size="10.00">src/node/rpc/member</text>
<text text-anchor="middle" x="1491" y="-231.5" font-family="Helvetica,sans-Serif" font-size="10.00">_frontend.h</text>
</a>
</g>
</g>
<!-- Node2&#45;&gt;Node3 -->
<g id="edge2" class="edge">
<title>Node2&#45;&gt;Node3</title>
<path fill="none" stroke="midnightblue" d="M1486.3,-404.64C1488.21,-396.28 1490.05,-386.78 1491,-378 1495.83,-333.14 1493.53,-279.57 1491.99,-254.61"/>
<polygon fill="midnightblue" stroke="midnightblue" points="1482.87,-403.94 1483.9,-414.48 1489.67,-405.6 1482.87,-403.94"/>
</g>
<!-- Node4 -->
<g id="node4" class="node">
<title>Node4</title>
<g id="a_node4"><a xlink:href="enclave_2enclave_8h.html" target="_top" xlink:title=" ">
<polygon fill="white" stroke="black" points="931,-56.5 931,-75.5 1053,-75.5 1053,-56.5 931,-56.5"/>
<text text-anchor="middle" x="992" y="-63.5" font-family="Helvetica,sans-Serif" font-size="10.00">src/enclave/enclave.h</text>
</a>
</g>
</g>
<!-- Node3&#45;&gt;Node4 -->
<g id="edge3" class="edge">
<title>Node3&#45;&gt;Node4</title>
<path fill="none" stroke="midnightblue" d="M1456.01,-219.63C1403.97,-192.28 1302.48,-141.66 1211,-112 1158.2,-94.88 1096.05,-82.85 1051.48,-75.56"/>
<polygon fill="midnightblue" stroke="midnightblue" points="1454.66,-222.87 1465.14,-224.45 1457.93,-216.69 1454.66,-222.87"/>
</g>
<!-- Node5 -->
<g id="node5" class="node">
<title>Node5</title>
<g id="a_node5"><a xlink:href="enclave_2main_8cpp.html" target="_top" xlink:title=" ">
<polygon fill="white" stroke="black" points="932,-0.5 932,-19.5 1052,-19.5 1052,-0.5 932,-0.5"/>
<text text-anchor="middle" x="992" y="-7.5" font-family="Helvetica,sans-Serif" font-size="10.00">src/enclave/main.cpp</text>
</a>
</g>
</g>
<!-- Node4&#45;&gt;Node5 -->
<g id="edge4" class="edge">
<title>Node4&#45;&gt;Node5</title>
<path fill="none" stroke="midnightblue" d="M992,-45.8C992,-36.91 992,-26.78 992,-19.75"/>
<polygon fill="midnightblue" stroke="midnightblue" points="988.5,-46.08 992,-56.08 995.5,-46.08 988.5,-46.08"/>
</g>
<!-- Node7 -->
<g id="node7" class="node">
<title>Node7</title>
<g id="a_node7"><a xlink:href="kv__module__loader_8cpp.html" target="_top" xlink:title=" ">
<polygon fill="white" stroke="black" points="1338.5,-347.5 1338.5,-377.5 1481.5,-377.5 1481.5,-347.5 1338.5,-347.5"/>
<text text-anchor="start" x="1346.5" y="-365.5" font-family="Helvetica,sans-Serif" font-size="10.00">src/apps/js_v8/kv_module</text>
<text text-anchor="middle" x="1410" y="-354.5" font-family="Helvetica,sans-Serif" font-size="10.00">_loader.cpp</text>
</a>
</g>
</g>
<!-- Node6&#45;&gt;Node7 -->
<g id="edge6" class="edge">
<title>Node6&#45;&gt;Node7</title>
<path fill="none" stroke="midnightblue" d="M1350.21,-408.17C1363.52,-398.23 1379.2,-386.51 1391.16,-377.58"/>
<polygon fill="midnightblue" stroke="midnightblue" points="1347.79,-405.61 1341.88,-414.4 1351.98,-411.21 1347.79,-405.61"/>
</g>
<!-- Node8 -->
<g id="node8" class="node">
<title>Node8</title>
<g id="a_node8"><a xlink:href="network__state_8h.html" target="_top" xlink:title=" ">
<polygon fill="white" stroke="black" points="815,-353 815,-372 955,-372 955,-353 815,-353"/>
<text text-anchor="middle" x="885" y="-360" font-family="Helvetica,sans-Serif" font-size="10.00">src/node/network_state.h</text>
</a>
</g>
</g>
<!-- Node6&#45;&gt;Node8 -->
<g id="edge7" class="edge">
<title>Node6&#45;&gt;Node8</title>
<path fill="none" stroke="midnightblue" d="M1256.51,-418.63C1170.91,-405.93 1023.56,-384.06 942.54,-372.04"/>
<polygon fill="midnightblue" stroke="midnightblue" points="1256.23,-422.13 1266.64,-420.14 1257.26,-415.21 1256.23,-422.13"/>
</g>
<!-- Node25 -->
<g id="node25" class="node">
<title>Node25</title>
<g id="a_node25"><a xlink:href="genesis__gen_8h.html" target="_top" xlink:title=" ">
<polygon fill="white" stroke="black" points="1210,-347.5 1210,-377.5 1320,-377.5 1320,-347.5 1210,-347.5"/>
<text text-anchor="start" x="1218" y="-365.5" font-family="Helvetica,sans-Serif" font-size="10.00">src/service/genesis</text>
<text text-anchor="middle" x="1265" y="-354.5" font-family="Helvetica,sans-Serif" font-size="10.00">_gen.h</text>
</a>
</g>
</g>
<!-- Node6&#45;&gt;Node25 -->
<g id="edge41" class="edge">
<title>Node6&#45;&gt;Node25</title>
<path fill="none" stroke="midnightblue" d="M1303.58,-406.74C1295,-397.12 1285.16,-386.09 1277.56,-377.58"/>
<polygon fill="midnightblue" stroke="midnightblue" points="1301.15,-409.26 1310.41,-414.4 1306.37,-404.6 1301.15,-409.26"/>
</g>
<!-- Node8&#45;&gt;Node4 -->
<g id="edge8" class="edge">
<title>Node8&#45;&gt;Node4</title>
<path fill="none" stroke="midnightblue" d="M804.5,-359.29C642.56,-354.28 282.68,-340.16 163,-311 86.31,-292.31 0,-319.43 0,-240.5 0,-240.5 0,-240.5 0,-177 0,-82.89 714.42,-69.29 930.69,-67.33"/>
<polygon fill="midnightblue" stroke="midnightblue" points="804.77,-362.8 814.87,-359.6 804.99,-355.8 804.77,-362.8"/>
</g>
<!-- Node9 -->
<g id="node9" class="node">
<title>Node9</title>
<g id="a_node9"><a xlink:href="wrap_8h.html" target="_top" xlink:title=" ">
<polygon fill="white" stroke="black" points="557,-291.5 557,-310.5 635,-310.5 635,-291.5 557,-291.5"/>
<text text-anchor="middle" x="596" y="-298.5" font-family="Helvetica,sans-Serif" font-size="10.00">src/js/wrap.h</text>
</a>
</g>
</g>
<!-- Node8&#45;&gt;Node9 -->
<g id="edge9" class="edge">
<title>Node8&#45;&gt;Node9</title>
<path fill="none" stroke="midnightblue" d="M833.73,-350.94C776.87,-339.24 686.4,-320.61 635.02,-310.03"/>
<polygon fill="midnightblue" stroke="midnightblue" points="833.09,-354.39 843.59,-352.98 834.5,-347.53 833.09,-354.39"/>
</g>
<!-- Node17 -->
<g id="node17" class="node">
<title>Node17</title>
<g id="a_node17"><a xlink:href="node__state_8h.html" target="_top" xlink:title=" ">
<polygon fill="white" stroke="black" points="1059,-168.5 1059,-187.5 1183,-187.5 1183,-168.5 1059,-168.5"/>
<text text-anchor="middle" x="1121" y="-175.5" font-family="Helvetica,sans-Serif" font-size="10.00">src/node/node_state.h</text>
</a>
</g>
</g>
<!-- Node8&#45;&gt;Node17 -->
<g id="edge27" class="edge">
<title>Node8&#45;&gt;Node17</title>
<path fill="none" stroke="midnightblue" d="M885.76,-342.61C887.31,-327.12 891.73,-305.47 904,-291 928.95,-261.57 948.52,-272.32 983,-255 1028.71,-232.04 1081.27,-202.07 1106.29,-187.58"/>
<polygon fill="midnightblue" stroke="midnightblue" points="882.27,-342.38 885.06,-352.6 889.25,-342.87 882.27,-342.38"/>
</g>
<!-- Node19 -->
<g id="node19" class="node">
<title>Node19</title>
<g id="a_node19"><a xlink:href="node__frontend_8h.html" target="_top" xlink:title=" ">
<polygon fill="white" stroke="black" points="913,-291.5 913,-310.5 1071,-310.5 1071,-291.5 913,-291.5"/>
<text text-anchor="middle" x="992" y="-298.5" font-family="Helvetica,sans-Serif" font-size="10.00">src/node/rpc/node_frontend.h</text>
</a>
</g>
</g>
<!-- Node8&#45;&gt;Node19 -->
<g id="edge28" class="edge">
<title>Node8&#45;&gt;Node19</title>
<path fill="none" stroke="midnightblue" d="M909.18,-348.06C929.88,-336.54 959.07,-320.31 976.7,-310.51"/>
<polygon fill="midnightblue" stroke="midnightblue" points="907.37,-345.06 900.33,-352.98 910.77,-351.17 907.37,-345.06"/>
</g>
<!-- Node21 -->
<g id="node21" class="node">
<title>Node21</title>
<g id="a_node21"><a xlink:href="user__frontend_8h.html" target="_top" xlink:title=" ">
<polygon fill="white" stroke="black" points="220.5,-112.5 220.5,-131.5 375.5,-131.5 375.5,-112.5 220.5,-112.5"/>
<text text-anchor="middle" x="298" y="-119.5" font-family="Helvetica,sans-Serif" font-size="10.00">src/node/rpc/user_frontend.h</text>
</a>
</g>
</g>
<!-- Node8&#45;&gt;Node21 -->
<g id="edge32" class="edge">
<title>Node8&#45;&gt;Node21</title>
<path fill="none" stroke="midnightblue" d="M804.81,-357.11C606.59,-345.45 106.01,-310.72 57,-255 -2.47,-187.39 156.77,-147.72 244.53,-131.54"/>
<polygon fill="midnightblue" stroke="midnightblue" points="804.68,-360.61 814.87,-357.7 805.09,-353.62 804.68,-360.61"/>
</g>
<!-- Node22 -->
<g id="node22" class="node">
<title>Node22</title>
<g id="a_node22"><a xlink:href="secret__broadcast_8h.html" target="_top" xlink:title=" ">
<polygon fill="white" stroke="black" points="1089.5,-291.5 1089.5,-310.5 1242.5,-310.5 1242.5,-291.5 1089.5,-291.5"/>
<text text-anchor="middle" x="1166" y="-298.5" font-family="Helvetica,sans-Serif" font-size="10.00">src/node/secret_broadcast.h</text>
</a>
</g>
</g>
<!-- Node8&#45;&gt;Node22 -->
<g id="edge34" class="edge">
<title>Node8&#45;&gt;Node22</title>
<path fill="none" stroke="midnightblue" d="M935.05,-350.9C989.53,-339.37 1075.56,-321.15 1125.81,-310.51"/>
<polygon fill="midnightblue" stroke="midnightblue" points="934.32,-347.48 925.26,-352.98 935.77,-354.33 934.32,-347.48"/>
</g>
<!-- Node23 -->
<g id="node23" class="node">
<title>Node23</title>
<g id="a_node23"><a xlink:href="share__manager_8h.html" target="_top" xlink:title=" ">
<polygon fill="white" stroke="black" points="1260.5,-291.5 1260.5,-310.5 1405.5,-310.5 1405.5,-291.5 1260.5,-291.5"/>
<text text-anchor="middle" x="1333" y="-298.5" font-family="Helvetica,sans-Serif" font-size="10.00">src/node/share_manager.h</text>
</a>
</g>
</g>
<!-- Node8&#45;&gt;Node23 -->
<g id="edge36" class="edge">
<title>Node8&#45;&gt;Node23</title>
<path fill="none" stroke="midnightblue" d="M959.19,-351.65C1045.64,-340.16 1187.07,-321.38 1268.93,-310.51"/>
<polygon fill="midnightblue" stroke="midnightblue" points="958.64,-348.19 949.19,-352.98 959.56,-355.13 958.64,-348.19"/>
</g>
<!-- Node24 -->
<g id="node24" class="node">
<title>Node24</title>
<g id="a_node24"><a xlink:href="snapshotter_8h.html" target="_top" xlink:title=" ">
<polygon fill="white" stroke="black" points="729.5,-291.5 729.5,-310.5 856.5,-310.5 856.5,-291.5 729.5,-291.5"/>
<text text-anchor="middle" x="793" y="-298.5" font-family="Helvetica,sans-Serif" font-size="10.00">src/node/snapshotter.h</text>
</a>
</g>
</g>
<!-- Node8&#45;&gt;Node24 -->
<g id="edge39" class="edge">
<title>Node8&#45;&gt;Node24</title>
<path fill="none" stroke="midnightblue" d="M863.24,-347.43C845.51,-335.96 821.04,-320.13 806.16,-310.51"/>
<polygon fill="midnightblue" stroke="midnightblue" points="861.52,-350.48 871.82,-352.98 865.32,-344.61 861.52,-350.48"/>
</g>
<!-- Node9&#45;&gt;Node3 -->
<g id="edge26" class="edge">
<title>Node9&#45;&gt;Node3</title>
<path fill="none" stroke="midnightblue" d="M645.33,-296.38C668.33,-294.7 696.06,-292.72 721,-291 985.3,-272.82 1300.73,-252.59 1430.6,-244.33"/>
<polygon fill="midnightblue" stroke="midnightblue" points="644.84,-292.9 635.12,-297.12 645.35,-299.88 644.84,-292.9"/>
</g>
<!-- Node9&#45;&gt;Node4 -->
<g id="edge11" class="edge">
<title>Node9&#45;&gt;Node4</title>
<path fill="none" stroke="midnightblue" d="M596.13,-281.1C597.22,-264.27 601.3,-239.91 615,-224 697.2,-128.48 847.01,-89.91 930.9,-75.26"/>
<polygon fill="midnightblue" stroke="midnightblue" points="592.62,-281.24 595.78,-291.36 599.62,-281.48 592.62,-281.24"/>
</g>
<!-- Node10 -->
<g id="node10" class="node">
<title>Node10</title>
<g id="a_node10"><a xlink:href="js__generic__base_8cpp.html" target="_top" xlink:title=" ">
<polygon fill="white" stroke="black" points="770,-224.5 770,-254.5 888,-254.5 888,-224.5 770,-224.5"/>
<text text-anchor="start" x="778" y="-242.5" font-family="Helvetica,sans-Serif" font-size="10.00">src/apps/js_generic</text>
<text text-anchor="middle" x="829" y="-231.5" font-family="Helvetica,sans-Serif" font-size="10.00">/js_generic_base.cpp</text>
</a>
</g>
</g>
<!-- Node9&#45;&gt;Node10 -->
<g id="edge10" class="edge">
<title>Node9&#45;&gt;Node10</title>
<path fill="none" stroke="midnightblue" d="M639.14,-288.98C677.2,-279.27 732.86,-265.05 774.09,-254.52"/>
<polygon fill="midnightblue" stroke="midnightblue" points="638.21,-285.61 629.38,-291.48 639.94,-292.39 638.21,-285.61"/>
</g>
<!-- Node11 -->
<g id="node11" class="node">
<title>Node11</title>
<g id="a_node11"><a xlink:href="js_2consensus_8cpp.html" target="_top" xlink:title=" ">
<polygon fill="white" stroke="black" points="346,-230 346,-249 462,-249 462,-230 346,-230"/>
<text text-anchor="middle" x="404" y="-237" font-family="Helvetica,sans-Serif" font-size="10.00">src/js/consensus.cpp</text>
</a>
</g>
</g>
<!-- Node9&#45;&gt;Node11 -->
<g id="edge12" class="edge">
<title>Node9&#45;&gt;Node11</title>
<path fill="none" stroke="midnightblue" d="M558.51,-288.38C521.19,-276.82 464.8,-259.34 431.46,-249.01"/>
<polygon fill="midnightblue" stroke="midnightblue" points="557.9,-291.86 568.49,-291.48 559.98,-285.17 557.9,-291.86"/>
</g>
<!-- Node12 -->
<g id="node12" class="node">
<title>Node12</title>
<g id="a_node12"><a xlink:href="wrap_8cpp.html" target="_top" xlink:title=" ">
<polygon fill="white" stroke="black" points="273.5,-168.5 273.5,-187.5 362.5,-187.5 362.5,-168.5 273.5,-168.5"/>
<text text-anchor="middle" x="318" y="-175.5" font-family="Helvetica,sans-Serif" font-size="10.00">src/js/wrap.cpp</text>
</a>
</g>
</g>
<!-- Node9&#45;&gt;Node12 -->
<g id="edge21" class="edge">
<title>Node9&#45;&gt;Node12</title>
<path fill="none" stroke="midnightblue" d="M546.51,-297.7C480.01,-293.58 366.71,-282.62 337,-255 317.87,-237.22 316.75,-203.36 317.38,-187.54"/>
<polygon fill="midnightblue" stroke="midnightblue" points="546.58,-301.21 556.77,-298.3 546.99,-294.22 546.58,-301.21"/>
</g>
<!-- Node13 -->
<g id="node13" class="node">
<title>Node13</title>
<g id="a_node13"><a xlink:href="conv_8cpp.html" target="_top" xlink:title=" ">
<polygon fill="white" stroke="black" points="480,-230 480,-249 568,-249 568,-230 480,-230"/>
<text text-anchor="middle" x="524" y="-237" font-family="Helvetica,sans-Serif" font-size="10.00">src/js/conv.cpp</text>
</a>
</g>
</g>
<!-- Node9&#45;&gt;Node13 -->
<g id="edge14" class="edge">
<title>Node9&#45;&gt;Node13</title>
<path fill="none" stroke="midnightblue" d="M577.82,-284.97C564.04,-273.59 545.62,-258.37 534.3,-249.01"/>
<polygon fill="midnightblue" stroke="midnightblue" points="575.75,-287.8 585.68,-291.48 580.21,-282.41 575.75,-287.8"/>
</g>
<!-- Node14 -->
<g id="node14" class="node">
<title>Node14</title>
<g id="a_node14"><a xlink:href="js_2crypto_8cpp.html" target="_top" xlink:title=" ">
<polygon fill="white" stroke="black" points="66,-230 66,-249 162,-249 162,-230 66,-230"/>
<text text-anchor="middle" x="114" y="-237" font-family="Helvetica,sans-Serif" font-size="10.00">src/js/crypto.cpp</text>
</a>
</g>
</g>
<!-- Node9&#45;&gt;Node14 -->
<g id="edge16" class="edge">
<title>Node9&#45;&gt;Node14</title>
<path fill="none" stroke="midnightblue" d="M546.55,-297.08C466.96,-291.86 305.72,-279.14 171,-255 162.26,-253.43 152.87,-251.26 144.29,-249.07"/>
<polygon fill="midnightblue" stroke="midnightblue" points="546.56,-300.59 556.77,-297.74 547.01,-293.6 546.56,-300.59"/>
</g>
<!-- Node15 -->
<g id="node15" class="node">
<title>Node15</title>
<g id="a_node15"><a xlink:href="js_2historical_8cpp.html" target="_top" xlink:title=" ">
<polygon fill="white" stroke="black" points="180,-230 180,-249 290,-249 290,-230 180,-230"/>
<text text-anchor="middle" x="235" y="-237" font-family="Helvetica,sans-Serif" font-size="10.00">src/js/historical.cpp</text>
</a>
</g>
</g>
<!-- Node9&#45;&gt;Node15 -->
<g id="edge18" class="edge">
<title>Node9&#45;&gt;Node15</title>
<path fill="none" stroke="midnightblue" d="M546.67,-293.23C488.5,-285.05 388.98,-270.46 304,-255 294.25,-253.22 283.76,-251.12 273.97,-249.07"/>
<polygon fill="midnightblue" stroke="midnightblue" points="546.3,-296.71 556.69,-294.63 547.27,-289.78 546.3,-296.71"/>
</g>
<!-- Node16 -->
<g id="node16" class="node">
<title>Node16</title>
<g id="a_node16"><a xlink:href="openenclave_8cpp.html" target="_top" xlink:title=" ">
<polygon fill="white" stroke="black" points="624,-230 624,-249 752,-249 752,-230 624,-230"/>
<text text-anchor="middle" x="688" y="-237" font-family="Helvetica,sans-Serif" font-size="10.00">src/js/openenclave.cpp</text>
</a>
</g>
</g>
<!-- Node9&#45;&gt;Node16 -->
<g id="edge20" class="edge">
<title>Node9&#45;&gt;Node16</title>
<path fill="none" stroke="midnightblue" d="M617.76,-285.93C635.49,-274.46 659.96,-258.63 674.84,-249.01"/>
<polygon fill="midnightblue" stroke="midnightblue" points="615.68,-283.11 609.18,-291.48 619.48,-288.98 615.68,-283.11"/>
</g>
<!-- Node9&#45;&gt;Node17 -->
<g id="edge22" class="edge">
<title>Node9&#45;&gt;Node17</title>
<path fill="none" stroke="midnightblue" d="M645.43,-296.2C719.08,-289.95 853.61,-276.03 897,-255 915.11,-246.22 912.27,-233.52 930,-224 969.92,-202.57 1019.91,-191.26 1058.74,-185.34"/>
<polygon fill="midnightblue" stroke="midnightblue" points="644.7,-292.75 635.02,-297.07 645.28,-299.73 644.7,-292.75"/>
</g>
<!-- Node11&#45;&gt;Node12 -->
<g id="edge13" class="edge">
<title>Node11&#45;&gt;Node12</title>
<path fill="none" stroke="midnightblue" d="M383.2,-224.11C366.66,-212.67 344.08,-197.05 330.3,-187.51"/>
<polygon fill="midnightblue" stroke="midnightblue" points="381.46,-227.16 391.68,-229.98 385.45,-221.41 381.46,-227.16"/>
</g>
<!-- Node13&#45;&gt;Node12 -->
<g id="edge15" class="edge">
<title>Node13&#45;&gt;Node12</title>
<path fill="none" stroke="midnightblue" d="M484.79,-227.18C444.77,-215.61 383.54,-197.93 347.46,-187.51"/>
<polygon fill="midnightblue" stroke="midnightblue" points="483.91,-230.56 494.49,-229.98 485.85,-223.84 483.91,-230.56"/>
</g>
<!-- Node14&#45;&gt;Node12 -->
<g id="edge17" class="edge">
<title>Node14&#45;&gt;Node12</title>
<path fill="none" stroke="midnightblue" d="M153.08,-227.1C192.72,-215.54 253.18,-197.91 288.83,-187.51"/>
<polygon fill="midnightblue" stroke="midnightblue" points="151.85,-223.82 143.23,-229.98 153.81,-230.54 151.85,-223.82"/>
</g>
<!-- Node15&#45;&gt;Node12 -->
<g id="edge19" class="edge">
<title>Node15&#45;&gt;Node12</title>
<path fill="none" stroke="midnightblue" d="M255.07,-224.11C271.03,-212.67 292.83,-197.05 306.13,-187.51"/>
<polygon fill="midnightblue" stroke="midnightblue" points="252.98,-221.3 246.89,-229.98 257.06,-226.99 252.98,-221.3"/>
</g>
<!-- Node17&#45;&gt;Node4 -->
<g id="edge23" class="edge">
<title>Node17&#45;&gt;Node4</title>
<path fill="none" stroke="midnightblue" d="M1095.49,-163.5C1081.13,-155.32 1063.28,-144.14 1049,-132 1028.19,-114.3 1008.16,-88.92 998.32,-75.72"/>
<polygon fill="midnightblue" stroke="midnightblue" points="1093.91,-166.63 1104.35,-168.43 1097.31,-160.51 1093.91,-166.63"/>
</g>
<!-- Node18 -->
<g id="node18" class="node">
<title>Node18</title>
<g id="a_node18"><a xlink:href="gov__effects_8h.html" target="_top" xlink:title=" ">
<polygon fill="white" stroke="black" points="1058,-112.5 1058,-131.5 1202,-131.5 1202,-112.5 1058,-112.5"/>
<text text-anchor="middle" x="1130" y="-119.5" font-family="Helvetica,sans-Serif" font-size="10.00">src/node/rpc/gov_effects.h</text>
</a>
</g>
</g>
<!-- Node17&#45;&gt;Node18 -->
<g id="edge24" class="edge">
<title>Node17&#45;&gt;Node18</title>
<path fill="none" stroke="midnightblue" d="M1124.15,-158.1C1125.64,-149.14 1127.36,-138.86 1128.54,-131.75"/>
<polygon fill="midnightblue" stroke="midnightblue" points="1120.68,-157.64 1122.49,-168.08 1127.58,-158.79 1120.68,-157.64"/>
</g>
<!-- Node18&#45;&gt;Node4 -->
<g id="edge25" class="edge">
<title>Node18&#45;&gt;Node4</title>
<path fill="none" stroke="midnightblue" d="M1098.75,-108.77C1072.83,-98.63 1036.64,-84.47 1013.76,-75.52"/>
<polygon fill="midnightblue" stroke="midnightblue" points="1097.55,-112.06 1108.13,-112.44 1100.1,-105.54 1097.55,-112.06"/>
</g>
<!-- Node19&#45;&gt;Node4 -->
<g id="edge29" class="edge">
<title>Node19&#45;&gt;Node4</title>
<path fill="none" stroke="midnightblue" d="M992,-281.36C992,-233.95 992,-110.15 992,-75.9"/>
<polygon fill="midnightblue" stroke="midnightblue" points="988.5,-281.43 992,-291.43 995.5,-281.43 988.5,-281.43"/>
</g>
<!-- Node20 -->
<g id="node20" class="node">
<title>Node20</title>
<g id="a_node20"><a xlink:href="jwt__key__auto__refresh_8h.html" target="_top" xlink:title=" ">
<polygon fill="white" stroke="black" points="1058.5,-224.5 1058.5,-254.5 1183.5,-254.5 1183.5,-224.5 1058.5,-224.5"/>
<text text-anchor="start" x="1066.5" y="-242.5" font-family="Helvetica,sans-Serif" font-size="10.00">src/node/jwt_key_auto</text>
<text text-anchor="middle" x="1121" y="-231.5" font-family="Helvetica,sans-Serif" font-size="10.00">_refresh.h</text>
</a>
</g>
</g>
<!-- Node19&#45;&gt;Node20 -->
<g id="edge30" class="edge">
<title>Node19&#45;&gt;Node20</title>
<path fill="none" stroke="midnightblue" d="M1019.75,-287.2C1040.6,-277.58 1069.13,-264.42 1090.6,-254.52"/>
<polygon fill="midnightblue" stroke="midnightblue" points="1018.1,-284.11 1010.48,-291.48 1021.03,-290.46 1018.1,-284.11"/>
</g>
<!-- Node20&#45;&gt;Node17 -->
<g id="edge31" class="edge">
<title>Node20&#45;&gt;Node17</title>
<path fill="none" stroke="midnightblue" d="M1121,-214.29C1121,-204.86 1121,-194.65 1121,-187.66"/>
<polygon fill="midnightblue" stroke="midnightblue" points="1117.5,-214.4 1121,-224.4 1124.5,-214.4 1117.5,-214.4"/>
</g>
<!-- Node21&#45;&gt;Node4 -->
<g id="edge33" class="edge">
<title>Node21&#45;&gt;Node4</title>
<path fill="none" stroke="midnightblue" d="M385.62,-114.18C528.25,-103.08 807.08,-81.39 930.59,-71.78"/>
<polygon fill="midnightblue" stroke="midnightblue" points="385.29,-110.7 375.59,-114.96 385.83,-117.68 385.29,-110.7"/>
</g>
<!-- Node22&#45;&gt;Node17 -->
<g id="edge35" class="edge">
<title>Node22&#45;&gt;Node17</title>
<path fill="none" stroke="midnightblue" d="M1180.1,-282.86C1191.33,-266.99 1203.55,-243.04 1193,-224 1183.14,-206.21 1162.99,-194.52 1146.5,-187.53"/>
<polygon fill="midnightblue" stroke="midnightblue" points="1177.05,-281.09 1173.78,-291.17 1182.62,-285.33 1177.05,-281.09"/>
</g>
<!-- Node23&#45;&gt;Node3 -->
<g id="edge38" class="edge">
<title>Node23&#45;&gt;Node3</title>
<path fill="none" stroke="midnightblue" d="M1365.27,-287.85C1390.94,-278.18 1426.88,-264.65 1453.76,-254.52"/>
<polygon fill="midnightblue" stroke="midnightblue" points="1363.76,-284.68 1355.64,-291.48 1366.23,-291.23 1363.76,-284.68"/>
</g>
<!-- Node23&#45;&gt;Node17 -->
<g id="edge37" class="edge">
<title>Node23&#45;&gt;Node17</title>
<path fill="none" stroke="midnightblue" d="M1311.27,-285.98C1286.75,-270.32 1245.51,-244.49 1209,-224 1185.06,-210.57 1156.67,-196.35 1138.74,-187.57"/>
<polygon fill="midnightblue" stroke="midnightblue" points="1309.5,-289 1319.81,-291.45 1313.28,-283.1 1309.5,-289"/>
</g>
<!-- Node24&#45;&gt;Node17 -->
<g id="edge40" class="edge">
<title>Node24&#45;&gt;Node17</title>
<path fill="none" stroke="midnightblue" d="M830.39,-288.4C858.06,-279.65 896.57,-267.13 930,-255 992.9,-232.18 1066.12,-202.02 1100.8,-187.51"/>
<polygon fill="midnightblue" stroke="midnightblue" points="829.21,-285.1 820.72,-291.44 831.31,-291.78 829.21,-285.1"/>
</g>
<!-- Node25&#45;&gt;Node3 -->
<g id="edge43" class="edge">
<title>Node25&#45;&gt;Node3</title>
<path fill="none" stroke="midnightblue" d="M1330.21,-346C1378.77,-334.04 1438.28,-318.33 1448,-311 1467.23,-296.5 1479.74,-270.67 1486.07,-254.62"/>
<polygon fill="midnightblue" stroke="midnightblue" points="1329.23,-342.63 1320.35,-348.41 1330.9,-349.43 1329.23,-342.63"/>
</g>
<!-- Node25&#45;&gt;Node17 -->
<g id="edge42" class="edge">
<title>Node25&#45;&gt;Node17</title>
<path fill="none" stroke="midnightblue" d="M1325.92,-344.63C1364.97,-333.21 1409.38,-318.82 1415,-311 1420.19,-303.78 1419.98,-298.36 1415,-291 1363.6,-214.99 1253.04,-190.51 1183.11,-182.66"/>
<polygon fill="midnightblue" stroke="midnightblue" points="1324.77,-341.32 1316.14,-347.47 1326.72,-348.05 1324.77,-341.32"/>
</g>
<!-- Node25&#45;&gt;Node19 -->
<g id="edge44" class="edge">
<title>Node25&#45;&gt;Node19</title>
<path fill="none" stroke="midnightblue" d="M1199.86,-347.3C1147.37,-335.86 1075.3,-320.16 1031.28,-310.56"/>
<polygon fill="midnightblue" stroke="midnightblue" points="1199.24,-350.75 1209.75,-349.46 1200.73,-343.91 1199.24,-350.75"/>
</g>
<!-- Node25&#45;&gt;Node22 -->
<g id="edge45" class="edge">
<title>Node25&#45;&gt;Node22</title>
<path fill="none" stroke="midnightblue" d="M1232.67,-342.07C1215.02,-331.46 1194.05,-318.86 1180.41,-310.66"/>
<polygon fill="midnightblue" stroke="midnightblue" points="1231.16,-345.25 1241.54,-347.4 1234.77,-339.25 1231.16,-345.25"/>
</g>
<!-- Node25&#45;&gt;Node23 -->
<g id="edge46" class="edge">
<title>Node25&#45;&gt;Node23</title>
<path fill="none" stroke="midnightblue" d="M1288.89,-340.6C1300.64,-330.32 1314.16,-318.48 1323.11,-310.66"/>
<polygon fill="midnightblue" stroke="midnightblue" points="1286.34,-338.18 1281.12,-347.4 1290.95,-343.45 1286.34,-338.18"/>
</g>
</g>
</svg>
        <g id="navigator" transform="translate(0 0)" fill="#404254">
                <rect fill="#f2f5e9" fill-opacity="0.5" stroke="#606060" stroke-width=".5" x="0" y="0" width="60" height="60"/>
                <use id="zoomplus" xlink:href="#zoomPlus" x="17" y="9" onmousedown="handleZoom(evt,'in')"/>
                <use id="zoomminus" xlink:href="#zoomMin" x="42" y="9" onmousedown="handleZoom(evt,'out')"/>
                <use id="reset" xlink:href="#resetDef" x="30" y="36" onmousedown="handleReset()"/>
                <g id="arrowUp" xlink:href="#dirArrow" transform="translate(30 24)" onmousedown="handlePan(0,-1)">
                  <use xlink:href="#rim" fill="#404040">
                        <set attributeName="fill" to="#808080" begin="arrowUp.mouseover" end="arrowUp.mouseout"/>
                  </use>
                  <path fill="none" stroke="white" stroke-width="1.5" d="M0,-3.0v7 M-2.5,-0.5L0,-3.0L2.5,-0.5"/>
                </g>
                <g id="arrowRight" xlink:href="#dirArrow" transform="rotate(90) translate(36 -43)" onmousedown="handlePan(1,0)">
                  <use xlink:href="#rim" fill="#404040">
                        <set attributeName="fill" to="#808080" begin="arrowRight.mouseover" end="arrowRight.mouseout"/>
                  </use>
                  <path fill="none" stroke="white" stroke-width="1.5" d="M0,-3.0v7 M-2.5,-0.5L0,-3.0L2.5,-0.5"/>
                </g>
                <g id="arrowDown" xlink:href="#dirArrow" transform="rotate(180) translate(-30 -48)" onmousedown="handlePan(0,1)">
                  <use xlink:href="#rim" fill="#404040">
                        <set attributeName="fill" to="#808080" begin="arrowDown.mouseover" end="arrowDown.mouseout"/>
                  </use>
                  <path fill="none" stroke="white" stroke-width="1.5" d="M0,-3.0v7 M-2.5,-0.5L0,-3.0L2.5,-0.5"/>
                </g>
                <g id="arrowLeft" xlink:href="#dirArrow" transform="rotate(270) translate(-36 17)" onmousedown="handlePan(-1,0)">
                  <use xlink:href="#rim" fill="#404040">
                        <set attributeName="fill" to="#808080" begin="arrowLeft.mouseover" end="arrowLeft.mouseout"/>
                  </use>
                  <path fill="none" stroke="white" stroke-width="1.5" d="M0,-3.0v7 M-2.5,-0.5L0,-3.0L2.5,-0.5"/>
                </g>
        </g>
        <svg viewBox="0 0 15 15" width="100%" height="30px" preserveAspectRatio="xMaxYMin meet">
         <g id="arrow_out" transform="scale(0.3 0.3)">
          <a xlink:href="proposals_8h__dep__incl_org.svg" target="_base">
           <rect id="button" ry="5" rx="5" y="6" x="6" height="38" width="38"
                fill="#f2f5e9" fill-opacity="0.5" stroke="#606060" stroke-width="1.0"/>
           <path id="arrow"
             d="M 11.500037,31.436501 C 11.940474,20.09759 22.043105,11.32322 32.158766,21.979434 L 37.068811,17.246167 C 37.068811,17.246167 37.088388,32 37.088388,32 L 22.160133,31.978069 C 22.160133,31.978069 26.997745,27.140456 26.997745,27.140456 C 18.528582,18.264221 13.291696,25.230495 11.500037,31.436501 z"
             style="fill:#404040;"/>
          </a>
         </g>
        </svg>
</svg>
