<?xml version="1.0" encoding="UTF-8" standalone="no"?>
<!DOCTYPE svg PUBLIC "-//W3C//DTD SVG 1.1//EN"
 "http://www.w3.org/Graphics/SVG/1.1/DTD/svg11.dtd">
<!-- Generated by graphviz version 2.43.0 (0)
 -->
<!-- Title: src/node/quote.cpp Pages: 1 -->
<svg width="1473pt" height="420pt"
 viewBox="0.00 0.00 1473.40 420.00" xmlns="http://www.w3.org/2000/svg" xmlns:xlink="http://www.w3.org/1999/xlink">
<g id="graph0" class="graph" transform="scale(1 1) rotate(0) translate(4 416)">
<title>src/node/quote.cpp</title>
<polygon fill="white" stroke="transparent" points="-4,4 -4,-416 1469.4,-416 1469.4,4 -4,4"/>
<!-- Node1 -->
<g id="node1" class="node">
<title>Node1</title>
<g id="a_node1"><a xlink:title=" ">
<polygon fill="#bfbfbf" stroke="black" points="383.5,-392.5 383.5,-411.5 492.5,-411.5 492.5,-392.5 383.5,-392.5"/>
<text text-anchor="middle" x="438" y="-399.5" font-family="Helvetica,sans-Serif" font-size="10.00">src/node/quote.cpp</text>
</a>
</g>
</g>
<!-- Node2 -->
<g id="node2" class="node">
<title>Node2</title>
<g id="a_node2"><a xlink:href="quote_8h.html" target="_top" xlink:title=" ">
<polygon fill="white" stroke="black" points="389,-336.5 389,-355.5 487,-355.5 487,-336.5 389,-336.5"/>
<text text-anchor="middle" x="438" y="-343.5" font-family="Helvetica,sans-Serif" font-size="10.00">ccf/node/quote.h</text>
</a>
</g>
</g>
<!-- Node1&#45;&gt;Node2 -->
<g id="edge1" class="edge">
<title>Node1&#45;&gt;Node2</title>
<path fill="none" stroke="midnightblue" d="M438,-392.08C438,-385.01 438,-374.86 438,-365.99"/>
<polygon fill="midnightblue" stroke="midnightblue" points="441.5,-365.75 438,-355.75 434.5,-365.75 441.5,-365.75"/>
</g>
<!-- Node3 -->
<g id="node3" class="node">
<title>Node3</title>
<g id="a_node3"><a xlink:href="quote__info_8h.html" target="_top" xlink:title=" ">
<polygon fill="white" stroke="black" points="120.5,-224.5 120.5,-243.5 215.5,-243.5 215.5,-224.5 120.5,-224.5"/>
<text text-anchor="middle" x="168" y="-231.5" font-family="Helvetica,sans-Serif" font-size="10.00">ccf/quote_info.h</text>
</a>
</g>
</g>
<!-- Node2&#45;&gt;Node3 -->
<g id="edge2" class="edge">
<title>Node2&#45;&gt;Node3</title>
<path fill="none" stroke="midnightblue" d="M416.81,-336.37C369.2,-316.97 253.59,-269.87 198.36,-247.37"/>
<polygon fill="midnightblue" stroke="midnightblue" points="199.67,-244.12 189.09,-243.59 197.03,-250.61 199.67,-244.12"/>
</g>
<!-- Node7 -->
<g id="node7" class="node">
<title>Node7</title>
<g id="a_node7"><a xlink:title=" ">
<polygon fill="white" stroke="#bfbfbf" points="52.5,-0.5 52.5,-19.5 99.5,-19.5 99.5,-0.5 52.5,-0.5"/>
<text text-anchor="middle" x="76" y="-7.5" font-family="Helvetica,sans-Serif" font-size="10.00">vector</text>
</a>
</g>
</g>
<!-- Node2&#45;&gt;Node7 -->
<g id="edge67" class="edge">
<title>Node2&#45;&gt;Node7</title>
<path fill="none" stroke="midnightblue" d="M388.61,-343C274.06,-337.01 0,-314.38 0,-235 0,-235 0,-235 0,-121 0,-81.28 33.96,-45.5 56.48,-26.15"/>
<polygon fill="midnightblue" stroke="midnightblue" points="58.98,-28.63 64.46,-19.57 54.52,-23.24 58.98,-28.63"/>
</g>
<!-- Node18 -->
<g id="node18" class="node">
<title>Node18</title>
<g id="a_node18"><a xlink:href="code__digest_8h.html" target="_top" xlink:title=" ">
<polygon fill="white" stroke="black" points="368,-280.5 368,-299.5 508,-299.5 508,-280.5 368,-280.5"/>
<text text-anchor="middle" x="438" y="-287.5" font-family="Helvetica,sans-Serif" font-size="10.00">ccf/service/code_digest.h</text>
</a>
</g>
</g>
<!-- Node2&#45;&gt;Node18 -->
<g id="edge21" class="edge">
<title>Node2&#45;&gt;Node18</title>
<path fill="none" stroke="midnightblue" d="M438,-336.08C438,-329.01 438,-318.86 438,-309.99"/>
<polygon fill="midnightblue" stroke="midnightblue" points="441.5,-309.75 438,-299.75 434.5,-309.75 441.5,-309.75"/>
</g>
<!-- Node22 -->
<g id="node22" class="node">
<title>Node22</title>
<g id="a_node22"><a xlink:href="tx_8h.html" target="_top" xlink:title=" ">
<polygon fill="white" stroke="black" points="1003.5,-280.5 1003.5,-299.5 1056.5,-299.5 1056.5,-280.5 1003.5,-280.5"/>
<text text-anchor="middle" x="1030" y="-287.5" font-family="Helvetica,sans-Serif" font-size="10.00">ccf/tx.h</text>
</a>
</g>
</g>
<!-- Node2&#45;&gt;Node22 -->
<g id="edge33" class="edge">
<title>Node2&#45;&gt;Node22</title>
<path fill="none" stroke="midnightblue" d="M487.2,-340.51C603.1,-329.94 891.18,-303.66 993.35,-294.34"/>
<polygon fill="midnightblue" stroke="midnightblue" points="993.84,-297.81 1003.48,-293.42 993.21,-290.84 993.84,-297.81"/>
</g>
<!-- Node33 -->
<g id="node33" class="node">
<title>Node33</title>
<g id="a_node33"><a xlink:title=" ">
<polygon fill="white" stroke="#bfbfbf" points="1397,-112.5 1397,-131.5 1453,-131.5 1453,-112.5 1397,-112.5"/>
<text text-anchor="middle" x="1425" y="-119.5" font-family="Helvetica,sans-Serif" font-size="10.00">optional</text>
</a>
</g>
</g>
<!-- Node2&#45;&gt;Node33 -->
<g id="edge66" class="edge">
<title>Node2&#45;&gt;Node33</title>
<path fill="none" stroke="midnightblue" d="M487.11,-343.87C593.26,-340.9 851.78,-330.85 1066,-300 1181.71,-283.34 1213.28,-284.33 1323,-244 1372.64,-225.75 1400.79,-233.35 1428,-188 1436.35,-174.09 1434.38,-155.33 1431.05,-141.54"/>
<polygon fill="midnightblue" stroke="midnightblue" points="1434.37,-140.39 1428.26,-131.73 1427.63,-142.31 1434.37,-140.39"/>
</g>
<!-- Node4 -->
<g id="node4" class="node">
<title>Node4</title>
<g id="a_node4"><a xlink:href="json_8h.html" target="_top" xlink:title=" ">
<polygon fill="white" stroke="black" points="404.5,-168.5 404.5,-187.5 481.5,-187.5 481.5,-168.5 404.5,-168.5"/>
<text text-anchor="middle" x="443" y="-175.5" font-family="Helvetica,sans-Serif" font-size="10.00">ccf/ds/json.h</text>
</a>
</g>
</g>
<!-- Node3&#45;&gt;Node4 -->
<g id="edge3" class="edge">
<title>Node3&#45;&gt;Node4</title>
<path fill="none" stroke="midnightblue" d="M211.57,-224.44C261.27,-214.69 342.32,-198.77 394.12,-188.6"/>
<polygon fill="midnightblue" stroke="midnightblue" points="394.94,-192 404.08,-186.64 393.59,-185.14 394.94,-192"/>
</g>
<!-- Node3&#45;&gt;Node7 -->
<g id="edge20" class="edge">
<title>Node3&#45;&gt;Node7</title>
<path fill="none" stroke="midnightblue" d="M161.32,-224.44C144.08,-201.78 98.17,-137.75 80,-76 75.56,-60.9 74.76,-43 74.96,-29.81"/>
<polygon fill="midnightblue" stroke="midnightblue" points="78.47,-29.74 75.33,-19.62 71.47,-29.49 78.47,-29.74"/>
</g>
<!-- Node5 -->
<g id="node5" class="node">
<title>Node5</title>
<g id="a_node5"><a xlink:href="include_2ccf_2crypto_2base64_8h.html" target="_top" xlink:title=" ">
<polygon fill="white" stroke="black" points="104,-56.5 104,-75.5 216,-75.5 216,-56.5 104,-56.5"/>
<text text-anchor="middle" x="160" y="-63.5" font-family="Helvetica,sans-Serif" font-size="10.00">ccf/crypto/base64.h</text>
</a>
</g>
</g>
<!-- Node4&#45;&gt;Node5 -->
<g id="edge4" class="edge">
<title>Node4&#45;&gt;Node5</title>
<path fill="none" stroke="midnightblue" d="M404.4,-176.12C336.77,-173.72 201.01,-164.83 169,-132 157.33,-120.03 156.08,-100.42 157.14,-85.87"/>
<polygon fill="midnightblue" stroke="midnightblue" points="160.67,-85.85 158.33,-75.52 153.71,-85.05 160.67,-85.85"/>
</g>
<!-- Node8 -->
<g id="node8" class="node">
<title>Node8</title>
<g id="a_node8"><a xlink:href="include_2ccf_2ds_2json__schema_8h.html" target="_top" xlink:title=" ">
<polygon fill="white" stroke="black" points="386.5,-112.5 386.5,-131.5 507.5,-131.5 507.5,-112.5 386.5,-112.5"/>
<text text-anchor="middle" x="447" y="-119.5" font-family="Helvetica,sans-Serif" font-size="10.00">ccf/ds/json_schema.h</text>
</a>
</g>
</g>
<!-- Node4&#45;&gt;Node8 -->
<g id="edge7" class="edge">
<title>Node4&#45;&gt;Node8</title>
<path fill="none" stroke="midnightblue" d="M443.66,-168.08C444.18,-161.01 444.94,-150.86 445.59,-141.99"/>
<polygon fill="midnightblue" stroke="midnightblue" points="449.1,-141.98 446.35,-131.75 442.12,-141.47 449.1,-141.98"/>
</g>
<!-- Node15 -->
<g id="node15" class="node">
<title>Node15</title>
<g id="a_node15"><a xlink:title=" ">
<polygon fill="white" stroke="#bfbfbf" points="584.5,-56.5 584.5,-75.5 663.5,-75.5 663.5,-56.5 584.5,-56.5"/>
<text text-anchor="middle" x="624" y="-63.5" font-family="Helvetica,sans-Serif" font-size="10.00">fmt/format.h</text>
</a>
</g>
</g>
<!-- Node4&#45;&gt;Node15 -->
<g id="edge18" class="edge">
<title>Node4&#45;&gt;Node15</title>
<path fill="none" stroke="midnightblue" d="M422.81,-168.5C397.3,-156.56 358.76,-133.86 377,-112 383.31,-104.43 503.98,-85.1 574.28,-74.4"/>
<polygon fill="midnightblue" stroke="midnightblue" points="574.9,-77.85 584.27,-72.89 573.85,-70.92 574.9,-77.85"/>
</g>
<!-- Node17 -->
<g id="node17" class="node">
<title>Node17</title>
<g id="a_node17"><a xlink:title=" ">
<polygon fill="white" stroke="#bfbfbf" points="564,-112.5 564,-131.5 620,-131.5 620,-112.5 564,-112.5"/>
<text text-anchor="middle" x="592" y="-119.5" font-family="Helvetica,sans-Serif" font-size="10.00">sstream</text>
</a>
</g>
</g>
<!-- Node4&#45;&gt;Node17 -->
<g id="edge19" class="edge">
<title>Node4&#45;&gt;Node17</title>
<path fill="none" stroke="midnightblue" d="M466.61,-168.44C491.46,-159.44 530.77,-145.19 558.75,-135.05"/>
<polygon fill="midnightblue" stroke="midnightblue" points="560.29,-138.21 568.5,-131.52 557.91,-131.63 560.29,-138.21"/>
</g>
<!-- Node6 -->
<g id="node6" class="node">
<title>Node6</title>
<g id="a_node6"><a xlink:title=" ">
<polygon fill="white" stroke="#bfbfbf" points="260,-0.5 260,-19.5 304,-19.5 304,-0.5 260,-0.5"/>
<text text-anchor="middle" x="282" y="-7.5" font-family="Helvetica,sans-Serif" font-size="10.00">string</text>
</a>
</g>
</g>
<!-- Node5&#45;&gt;Node6 -->
<g id="edge5" class="edge">
<title>Node5&#45;&gt;Node6</title>
<path fill="none" stroke="midnightblue" d="M179.33,-56.44C199.32,-47.6 230.74,-33.69 253.56,-23.59"/>
<polygon fill="midnightblue" stroke="midnightblue" points="255.03,-26.76 262.76,-19.52 252.2,-20.36 255.03,-26.76"/>
</g>
<!-- Node5&#45;&gt;Node7 -->
<g id="edge6" class="edge">
<title>Node5&#45;&gt;Node7</title>
<path fill="none" stroke="midnightblue" d="M146.5,-56.32C133.4,-47.9 113.29,-34.97 97.89,-25.07"/>
<polygon fill="midnightblue" stroke="midnightblue" points="99.77,-22.12 89.46,-19.65 95.98,-28.01 99.77,-22.12"/>
</g>
<!-- Node9 -->
<g id="node9" class="node">
<title>Node9</title>
<g id="a_node9"><a xlink:href="nonstd_8h.html" target="_top" xlink:title=" ">
<polygon fill="white" stroke="black" points="451,-56.5 451,-75.5 541,-75.5 541,-56.5 451,-56.5"/>
<text text-anchor="middle" x="496" y="-63.5" font-family="Helvetica,sans-Serif" font-size="10.00">ccf/ds/nonstd.h</text>
</a>
</g>
</g>
<!-- Node8&#45;&gt;Node9 -->
<g id="edge8" class="edge">
<title>Node8&#45;&gt;Node9</title>
<path fill="none" stroke="midnightblue" d="M455.09,-112.08C462.16,-104.3 472.59,-92.8 481.15,-83.37"/>
<polygon fill="midnightblue" stroke="midnightblue" points="483.93,-85.51 488.06,-75.75 478.75,-80.8 483.93,-85.51"/>
</g>
<!-- Node8&#45;&gt;Node15 -->
<g id="edge16" class="edge">
<title>Node8&#45;&gt;Node15</title>
<path fill="none" stroke="midnightblue" d="M475.05,-112.44C505.08,-103.28 552.91,-88.69 586.24,-78.52"/>
<polygon fill="midnightblue" stroke="midnightblue" points="587.54,-81.78 596.09,-75.52 585.5,-75.09 587.54,-81.78"/>
</g>
<!-- Node16 -->
<g id="node16" class="node">
<title>Node16</title>
<g id="a_node16"><a xlink:title=" ">
<polygon fill="white" stroke="#bfbfbf" points="829,-56.5 829,-75.5 939,-75.5 939,-56.5 829,-56.5"/>
<text text-anchor="middle" x="884" y="-63.5" font-family="Helvetica,sans-Serif" font-size="10.00">nlohmann/json.hpp</text>
</a>
</g>
</g>
<!-- Node8&#45;&gt;Node16 -->
<g id="edge17" class="edge">
<title>Node8&#45;&gt;Node16</title>
<path fill="none" stroke="midnightblue" d="M507.76,-113.49C589.68,-103.37 734.94,-85.42 818.99,-75.03"/>
<polygon fill="midnightblue" stroke="midnightblue" points="819.43,-78.51 828.92,-73.81 818.57,-71.56 819.43,-78.51"/>
</g>
<!-- Node9&#45;&gt;Node6 -->
<g id="edge12" class="edge">
<title>Node9&#45;&gt;Node6</title>
<path fill="none" stroke="midnightblue" d="M462.09,-56.44C421.43,-46.18 353.81,-29.12 314.01,-19.08"/>
<polygon fill="midnightblue" stroke="midnightblue" points="314.84,-15.68 304.29,-16.62 313.13,-22.46 314.84,-15.68"/>
</g>
<!-- Node9&#45;&gt;Node7 -->
<g id="edge15" class="edge">
<title>Node9&#45;&gt;Node7</title>
<path fill="none" stroke="midnightblue" d="M450.65,-59.17C365.94,-48.28 185.44,-25.07 110.12,-15.39"/>
<polygon fill="midnightblue" stroke="midnightblue" points="110.16,-11.86 99.8,-14.06 109.27,-18.81 110.16,-11.86"/>
</g>
<!-- Node10 -->
<g id="node10" class="node">
<title>Node10</title>
<g id="a_node10"><a xlink:title=" ">
<polygon fill="white" stroke="#bfbfbf" points="426,-0.5 426,-19.5 490,-19.5 490,-0.5 426,-0.5"/>
<text text-anchor="middle" x="458" y="-7.5" font-family="Helvetica,sans-Serif" font-size="10.00">algorithm</text>
</a>
</g>
</g>
<!-- Node9&#45;&gt;Node10 -->
<g id="edge9" class="edge">
<title>Node9&#45;&gt;Node10</title>
<path fill="none" stroke="midnightblue" d="M489.73,-56.08C484.36,-48.46 476.48,-37.26 469.92,-27.94"/>
<polygon fill="midnightblue" stroke="midnightblue" points="472.78,-25.91 464.16,-19.75 467.05,-29.94 472.78,-25.91"/>
</g>
<!-- Node11 -->
<g id="node11" class="node">
<title>Node11</title>
<g id="a_node11"><a xlink:title=" ">
<polygon fill="white" stroke="#bfbfbf" points="1147,-0.5 1147,-19.5 1189,-19.5 1189,-0.5 1147,-0.5"/>
<text text-anchor="middle" x="1168" y="-7.5" font-family="Helvetica,sans-Serif" font-size="10.00">array</text>
</a>
</g>
</g>
<!-- Node9&#45;&gt;Node11 -->
<g id="edge10" class="edge">
<title>Node9&#45;&gt;Node11</title>
<path fill="none" stroke="midnightblue" d="M541.09,-59.57C552.17,-58.31 564.01,-57.04 575,-56 789.61,-35.64 1048.61,-18.56 1136.83,-12.95"/>
<polygon fill="midnightblue" stroke="midnightblue" points="1137.21,-16.43 1146.97,-12.31 1136.77,-9.45 1137.21,-16.43"/>
</g>
<!-- Node12 -->
<g id="node12" class="node">
<title>Node12</title>
<g id="a_node12"><a xlink:title=" ">
<polygon fill="white" stroke="#bfbfbf" points="508.5,-0.5 508.5,-19.5 557.5,-19.5 557.5,-0.5 508.5,-0.5"/>
<text text-anchor="middle" x="533" y="-7.5" font-family="Helvetica,sans-Serif" font-size="10.00">cctype</text>
</a>
</g>
</g>
<!-- Node9&#45;&gt;Node12 -->
<g id="edge11" class="edge">
<title>Node9&#45;&gt;Node12</title>
<path fill="none" stroke="midnightblue" d="M502.11,-56.08C507.28,-48.53 514.85,-37.49 521.19,-28.23"/>
<polygon fill="midnightblue" stroke="midnightblue" points="524.24,-29.98 527,-19.75 518.46,-26.02 524.24,-29.98"/>
</g>
<!-- Node13 -->
<g id="node13" class="node">
<title>Node13</title>
<g id="a_node13"><a xlink:title=" ">
<polygon fill="white" stroke="#bfbfbf" points="1288.5,-0.5 1288.5,-19.5 1361.5,-19.5 1361.5,-0.5 1288.5,-0.5"/>
<text text-anchor="middle" x="1325" y="-7.5" font-family="Helvetica,sans-Serif" font-size="10.00">string_view</text>
</a>
</g>
</g>
<!-- Node9&#45;&gt;Node13 -->
<g id="edge13" class="edge">
<title>Node9&#45;&gt;Node13</title>
<path fill="none" stroke="midnightblue" d="M541.08,-59.43C552.16,-58.18 564,-56.94 575,-56 851.34,-32.29 921.22,-37.8 1198,-20 1224.52,-18.29 1254.13,-16.21 1278.09,-14.47"/>
<polygon fill="midnightblue" stroke="midnightblue" points="1278.61,-17.94 1288.33,-13.73 1278.1,-10.96 1278.61,-17.94"/>
</g>
<!-- Node14 -->
<g id="node14" class="node">
<title>Node14</title>
<g id="a_node14"><a xlink:title=" ">
<polygon fill="white" stroke="#bfbfbf" points="898.5,-0.5 898.5,-19.5 967.5,-19.5 967.5,-0.5 898.5,-0.5"/>
<text text-anchor="middle" x="933" y="-7.5" font-family="Helvetica,sans-Serif" font-size="10.00">type_traits</text>
</a>
</g>
</g>
<!-- Node9&#45;&gt;Node14 -->
<g id="edge14" class="edge">
<title>Node9&#45;&gt;Node14</title>
<path fill="none" stroke="midnightblue" d="M541.12,-59.42C625.17,-49.04 804.75,-26.85 888.4,-16.51"/>
<polygon fill="midnightblue" stroke="midnightblue" points="888.86,-19.98 898.35,-15.28 888,-13.03 888.86,-19.98"/>
</g>
<!-- Node18&#45;&gt;Node4 -->
<g id="edge32" class="edge">
<title>Node18&#45;&gt;Node4</title>
<path fill="none" stroke="midnightblue" d="M438.39,-280.37C439.2,-262.62 441.06,-221.67 442.15,-197.6"/>
<polygon fill="midnightblue" stroke="midnightblue" points="445.65,-197.74 442.61,-187.59 438.66,-197.42 445.65,-197.74"/>
</g>
<!-- Node19 -->
<g id="node19" class="node">
<title>Node19</title>
<g id="a_node19"><a xlink:href="sha256__hash_8h.html" target="_top" xlink:title=" ">
<polygon fill="white" stroke="black" points="466,-224.5 466,-243.5 606,-243.5 606,-224.5 466,-224.5"/>
<text text-anchor="middle" x="536" y="-231.5" font-family="Helvetica,sans-Serif" font-size="10.00">ccf/crypto/sha256_hash.h</text>
</a>
</g>
</g>
<!-- Node18&#45;&gt;Node19 -->
<g id="edge22" class="edge">
<title>Node18&#45;&gt;Node19</title>
<path fill="none" stroke="midnightblue" d="M453.75,-280.32C469.32,-271.74 493.38,-258.49 511.46,-248.52"/>
<polygon fill="midnightblue" stroke="midnightblue" points="513.22,-251.55 520.29,-243.65 509.85,-245.42 513.22,-251.55"/>
</g>
<!-- Node21 -->
<g id="node21" class="node">
<title>Node21</title>
<g id="a_node21"><a xlink:href="hex_8h.html" target="_top" xlink:title=" ">
<polygon fill="white" stroke="black" points="178.5,-112.5 178.5,-131.5 253.5,-131.5 253.5,-112.5 178.5,-112.5"/>
<text text-anchor="middle" x="216" y="-119.5" font-family="Helvetica,sans-Serif" font-size="10.00">ccf/ds/hex.h</text>
</a>
</g>
</g>
<!-- Node18&#45;&gt;Node21 -->
<g id="edge27" class="edge">
<title>Node18&#45;&gt;Node21</title>
<path fill="none" stroke="midnightblue" d="M367.68,-284.52C334.18,-279.12 295.51,-267.73 268,-244 236.79,-217.08 223.75,-168.08 218.77,-141.44"/>
<polygon fill="midnightblue" stroke="midnightblue" points="222.21,-140.8 217.09,-131.52 215.31,-141.97 222.21,-140.8"/>
</g>
<!-- Node19&#45;&gt;Node4 -->
<g id="edge23" class="edge">
<title>Node19&#45;&gt;Node4</title>
<path fill="none" stroke="midnightblue" d="M521.06,-224.32C506.41,-215.82 483.87,-202.73 466.76,-192.8"/>
<polygon fill="midnightblue" stroke="midnightblue" points="468.31,-189.65 457.9,-187.65 464.8,-195.7 468.31,-189.65"/>
</g>
<!-- Node19&#45;&gt;Node11 -->
<g id="edge24" class="edge">
<title>Node19&#45;&gt;Node11</title>
<path fill="none" stroke="midnightblue" d="M606.24,-229.08C785.96,-218.32 1251.33,-185.48 1294,-132 1315.07,-105.6 1313.46,-83.61 1294,-56 1272.79,-25.9 1229.53,-15.82 1199.66,-12.51"/>
<polygon fill="midnightblue" stroke="midnightblue" points="1199.61,-8.99 1189.33,-11.57 1198.97,-15.96 1199.61,-8.99"/>
</g>
<!-- Node19&#45;&gt;Node15 -->
<g id="edge26" class="edge">
<title>Node19&#45;&gt;Node15</title>
<path fill="none" stroke="midnightblue" d="M535.09,-224.25C533.34,-203.09 531.55,-148.24 555,-112 564.03,-98.05 579.07,-87.49 592.82,-80.12"/>
<polygon fill="midnightblue" stroke="midnightblue" points="594.64,-83.12 602.03,-75.53 591.52,-76.86 594.64,-83.12"/>
</g>
<!-- Node20 -->
<g id="node20" class="node">
<title>Node20</title>
<g id="a_node20"><a xlink:title=" ">
<polygon fill="white" stroke="#bfbfbf" points="310,-56.5 310,-75.5 350,-75.5 350,-56.5 310,-56.5"/>
<text text-anchor="middle" x="330" y="-63.5" font-family="Helvetica,sans-Serif" font-size="10.00">span</text>
</a>
</g>
</g>
<!-- Node19&#45;&gt;Node20 -->
<g id="edge25" class="edge">
<title>Node19&#45;&gt;Node20</title>
<path fill="none" stroke="midnightblue" d="M476.18,-224.44C449.02,-218.08 417.92,-207.05 395,-188 362.1,-160.66 343.39,-112.23 335.14,-85.68"/>
<polygon fill="midnightblue" stroke="midnightblue" points="338.41,-84.38 332.23,-75.77 331.69,-86.35 338.41,-84.38"/>
</g>
<!-- Node21&#45;&gt;Node6 -->
<g id="edge30" class="edge">
<title>Node21&#45;&gt;Node6</title>
<path fill="none" stroke="midnightblue" d="M221.18,-112.37C232.02,-94.3 257.29,-52.18 271.62,-28.31"/>
<polygon fill="midnightblue" stroke="midnightblue" points="274.7,-29.97 276.85,-19.59 268.7,-26.37 274.7,-29.97"/>
</g>
<!-- Node21&#45;&gt;Node7 -->
<g id="edge31" class="edge">
<title>Node21&#45;&gt;Node7</title>
<path fill="none" stroke="midnightblue" d="M178.29,-116.04C151.54,-110.59 116.68,-99.3 95,-76 83.37,-63.51 78.82,-44.28 77.06,-29.97"/>
<polygon fill="midnightblue" stroke="midnightblue" points="80.53,-29.43 76.17,-19.77 73.55,-30.04 80.53,-29.43"/>
</g>
<!-- Node21&#45;&gt;Node15 -->
<g id="edge28" class="edge">
<title>Node21&#45;&gt;Node15</title>
<path fill="none" stroke="midnightblue" d="M253.65,-116.02C327.53,-106.24 491.46,-84.54 574.19,-73.59"/>
<polygon fill="midnightblue" stroke="midnightblue" points="574.89,-77.03 584.35,-72.25 573.97,-70.09 574.89,-77.03"/>
</g>
<!-- Node21&#45;&gt;Node20 -->
<g id="edge29" class="edge">
<title>Node21&#45;&gt;Node20</title>
<path fill="none" stroke="midnightblue" d="M234.06,-112.44C252.57,-103.68 281.58,-89.94 302.86,-79.86"/>
<polygon fill="midnightblue" stroke="midnightblue" points="304.48,-82.96 312.02,-75.52 301.49,-76.63 304.48,-82.96"/>
</g>
<!-- Node22&#45;&gt;Node6 -->
<g id="edge65" class="edge">
<title>Node22&#45;&gt;Node6</title>
<path fill="none" stroke="midnightblue" d="M1003.35,-289.51C920.97,-290.52 663.58,-289.55 457,-244 375.98,-226.14 282,-261.97 282,-179 282,-179 282,-179 282,-121 282,-88.95 282,-51.64 282,-29.75"/>
<polygon fill="midnightblue" stroke="midnightblue" points="285.5,-29.56 282,-19.56 278.5,-29.56 285.5,-29.56"/>
</g>
<!-- Node22&#45;&gt;Node19 -->
<g id="edge51" class="edge">
<title>Node22&#45;&gt;Node19</title>
<path fill="none" stroke="midnightblue" d="M1003.44,-286.1C931.36,-278.22 729.91,-256.2 616.39,-243.79"/>
<polygon fill="midnightblue" stroke="midnightblue" points="616.68,-240.3 606.36,-242.69 615.92,-247.26 616.68,-240.3"/>
</g>
<!-- Node23 -->
<g id="node23" class="node">
<title>Node23</title>
<g id="a_node23"><a xlink:href="ccf__assert_8h.html" target="_top" xlink:title=" ">
<polygon fill="white" stroke="black" points="904,-224.5 904,-243.5 996,-243.5 996,-224.5 904,-224.5"/>
<text text-anchor="middle" x="950" y="-231.5" font-family="Helvetica,sans-Serif" font-size="10.00">ccf/ccf_assert.h</text>
</a>
</g>
</g>
<!-- Node22&#45;&gt;Node23 -->
<g id="edge34" class="edge">
<title>Node22&#45;&gt;Node23</title>
<path fill="none" stroke="midnightblue" d="M1017.15,-280.32C1004.78,-271.98 985.87,-259.21 971.26,-249.35"/>
<polygon fill="midnightblue" stroke="midnightblue" points="973.07,-246.35 962.82,-243.65 969.15,-252.15 973.07,-246.35"/>
</g>
<!-- Node29 -->
<g id="node29" class="node">
<title>Node29</title>
<g id="a_node29"><a xlink:title=" ">
<polygon fill="white" stroke="#bfbfbf" points="1227,-56.5 1227,-75.5 1265,-75.5 1265,-56.5 1227,-56.5"/>
<text text-anchor="middle" x="1246" y="-63.5" font-family="Helvetica,sans-Serif" font-size="10.00">map</text>
</a>
</g>
</g>
<!-- Node22&#45;&gt;Node29 -->
<g id="edge62" class="edge">
<title>Node22&#45;&gt;Node29</title>
<path fill="none" stroke="midnightblue" d="M1056.56,-287.91C1108.85,-285.11 1228.26,-275.52 1323,-244 1398.28,-218.95 1440.62,-208.4 1462,-132 1464.4,-123.44 1467.61,-118.9 1462,-112 1438.77,-83.43 1328.61,-72.39 1275.19,-68.67"/>
<polygon fill="midnightblue" stroke="midnightblue" points="1275.21,-65.16 1265,-68 1274.75,-72.15 1275.21,-65.16"/>
</g>
<!-- Node22&#45;&gt;Node33 -->
<g id="edge64" class="edge">
<title>Node22&#45;&gt;Node33</title>
<path fill="none" stroke="midnightblue" d="M1056.68,-285.5C1134.59,-274.76 1359.35,-239.8 1409,-188 1420.68,-175.82 1424.25,-156.55 1425.16,-142.15"/>
<polygon fill="midnightblue" stroke="midnightblue" points="1428.67,-141.96 1425.43,-131.87 1421.67,-141.78 1428.67,-141.96"/>
</g>
<!-- Node34 -->
<g id="node34" class="node">
<title>Node34</title>
<g id="a_node34"><a xlink:href="tx__id_8h.html" target="_top" xlink:title=" ">
<polygon fill="white" stroke="black" points="1140.5,-224.5 1140.5,-243.5 1207.5,-243.5 1207.5,-224.5 1140.5,-224.5"/>
<text text-anchor="middle" x="1174" y="-231.5" font-family="Helvetica,sans-Serif" font-size="10.00">ccf/tx_id.h</text>
</a>
</g>
</g>
<!-- Node22&#45;&gt;Node34 -->
<g id="edge52" class="edge">
<title>Node22&#45;&gt;Node34</title>
<path fill="none" stroke="midnightblue" d="M1052.82,-280.44C1076.83,-271.44 1114.83,-257.19 1141.87,-247.05"/>
<polygon fill="midnightblue" stroke="midnightblue" points="1143.16,-250.3 1151.29,-243.52 1140.7,-243.75 1143.16,-250.3"/>
</g>
<!-- Node37 -->
<g id="node37" class="node">
<title>Node37</title>
<g id="a_node37"><a xlink:title=" ">
<polygon fill="white" stroke="#bfbfbf" points="1014,-224.5 1014,-243.5 1046,-243.5 1046,-224.5 1014,-224.5"/>
<text text-anchor="middle" x="1030" y="-231.5" font-family="Helvetica,sans-Serif" font-size="10.00">list</text>
</a>
</g>
</g>
<!-- Node22&#45;&gt;Node37 -->
<g id="edge61" class="edge">
<title>Node22&#45;&gt;Node37</title>
<path fill="none" stroke="midnightblue" d="M1030,-280.08C1030,-273.01 1030,-262.86 1030,-253.99"/>
<polygon fill="midnightblue" stroke="midnightblue" points="1033.5,-253.75 1030,-243.75 1026.5,-253.75 1033.5,-253.75"/>
</g>
<!-- Node38 -->
<g id="node38" class="node">
<title>Node38</title>
<g id="a_node38"><a xlink:title=" ">
<polygon fill="white" stroke="#bfbfbf" points="1064,-224.5 1064,-243.5 1122,-243.5 1122,-224.5 1064,-224.5"/>
<text text-anchor="middle" x="1093" y="-231.5" font-family="Helvetica,sans-Serif" font-size="10.00">memory</text>
</a>
</g>
</g>
<!-- Node22&#45;&gt;Node38 -->
<g id="edge63" class="edge">
<title>Node22&#45;&gt;Node38</title>
<path fill="none" stroke="midnightblue" d="M1040.12,-280.32C1049.53,-272.26 1063.74,-260.08 1075.07,-250.37"/>
<polygon fill="midnightblue" stroke="midnightblue" points="1077.38,-253 1082.69,-243.83 1072.82,-247.68 1077.38,-253"/>
</g>
<!-- Node24 -->
<g id="node24" class="node">
<title>Node24</title>
<g id="a_node24"><a xlink:href="logger_8h.html" target="_top" xlink:title=" ">
<polygon fill="white" stroke="black" points="951.5,-168.5 951.5,-187.5 1038.5,-187.5 1038.5,-168.5 951.5,-168.5"/>
<text text-anchor="middle" x="995" y="-175.5" font-family="Helvetica,sans-Serif" font-size="10.00">ccf/ds/logger.h</text>
</a>
</g>
</g>
<!-- Node23&#45;&gt;Node24 -->
<g id="edge35" class="edge">
<title>Node23&#45;&gt;Node24</title>
<path fill="none" stroke="midnightblue" d="M957.43,-224.08C963.85,-216.38 973.31,-205.03 981.12,-195.65"/>
<polygon fill="midnightblue" stroke="midnightblue" points="983.99,-197.67 987.71,-187.75 978.62,-193.19 983.99,-197.67"/>
</g>
<!-- Node24&#45;&gt;Node14 -->
<g id="edge50" class="edge">
<title>Node24&#45;&gt;Node14</title>
<path fill="none" stroke="midnightblue" d="M1038.68,-176.56C1109.46,-174.82 1244.3,-166.88 1274,-132 1295.9,-106.28 1296.27,-81.4 1274,-56 1254.76,-34.05 1065.94,-19.38 977.84,-13.67"/>
<polygon fill="midnightblue" stroke="midnightblue" points="977.82,-10.16 967.62,-13.02 977.37,-17.15 977.82,-10.16"/>
</g>
<!-- Node24&#45;&gt;Node15 -->
<g id="edge45" class="edge">
<title>Node24&#45;&gt;Node15</title>
<path fill="none" stroke="midnightblue" d="M965.03,-168.44C937.35,-160.2 895.3,-146.83 860,-132 842.04,-124.45 839.3,-118.67 821,-112 772.22,-94.24 714.02,-81.98 673.58,-74.79"/>
<polygon fill="midnightblue" stroke="midnightblue" points="674.15,-71.34 663.7,-73.07 672.96,-78.23 674.15,-71.34"/>
</g>
<!-- Node24&#45;&gt;Node16 -->
<g id="edge47" class="edge">
<title>Node24&#45;&gt;Node16</title>
<path fill="none" stroke="midnightblue" d="M1006.74,-168.45C1022.84,-155.69 1048.22,-131.11 1034,-112 1022.99,-97.2 981.48,-85.44 944.91,-77.66"/>
<polygon fill="midnightblue" stroke="midnightblue" points="945.26,-74.16 934.76,-75.57 943.85,-81.02 945.26,-74.16"/>
</g>
<!-- Node24&#45;&gt;Node17 -->
<g id="edge49" class="edge">
<title>Node24&#45;&gt;Node17</title>
<path fill="none" stroke="midnightblue" d="M951.49,-171.17C872.18,-160.54 705.36,-138.19 630.18,-128.12"/>
<polygon fill="midnightblue" stroke="midnightblue" points="630.57,-124.64 620.19,-126.78 629.64,-131.57 630.57,-124.64"/>
</g>
<!-- Node25 -->
<g id="node25" class="node">
<title>Node25</title>
<g id="a_node25"><a xlink:href="enum__formatter_8h.html" target="_top" xlink:title=" ">
<polygon fill="white" stroke="black" points="676,-112.5 676,-131.5 812,-131.5 812,-112.5 676,-112.5"/>
<text text-anchor="middle" x="744" y="-119.5" font-family="Helvetica,sans-Serif" font-size="10.00">ccf/ds/enum_formatter.h</text>
</a>
</g>
</g>
<!-- Node24&#45;&gt;Node25 -->
<g id="edge36" class="edge">
<title>Node24&#45;&gt;Node25</title>
<path fill="none" stroke="midnightblue" d="M955.23,-168.44C911.44,-159.02 840.99,-143.87 793.62,-133.68"/>
<polygon fill="midnightblue" stroke="midnightblue" points="794.1,-130.2 783.59,-131.52 792.63,-137.04 794.1,-130.2"/>
</g>
<!-- Node26 -->
<g id="node26" class="node">
<title>Node26</title>
<g id="a_node26"><a xlink:href="thread__ids_8h.html" target="_top" xlink:title=" ">
<polygon fill="white" stroke="black" points="1157,-112.5 1157,-131.5 1265,-131.5 1265,-112.5 1157,-112.5"/>
<text text-anchor="middle" x="1211" y="-119.5" font-family="Helvetica,sans-Serif" font-size="10.00">ccf/ds/thread_ids.h</text>
</a>
</g>
</g>
<!-- Node24&#45;&gt;Node26 -->
<g id="edge38" class="edge">
<title>Node24&#45;&gt;Node26</title>
<path fill="none" stroke="midnightblue" d="M1029.23,-168.44C1066.51,-159.12 1126.27,-144.18 1167.01,-134"/>
<polygon fill="midnightblue" stroke="midnightblue" points="1168.08,-137.34 1176.93,-131.52 1166.38,-130.55 1168.08,-137.34"/>
</g>
<!-- Node31 -->
<g id="node31" class="node">
<title>Node31</title>
<g id="a_node31"><a xlink:title=" ">
<polygon fill="white" stroke="#bfbfbf" points="868.5,-112.5 868.5,-131.5 947.5,-131.5 947.5,-112.5 868.5,-112.5"/>
<text text-anchor="middle" x="908" y="-119.5" font-family="Helvetica,sans-Serif" font-size="10.00">fmt/chrono.h</text>
</a>
</g>
</g>
<!-- Node24&#45;&gt;Node31 -->
<g id="edge44" class="edge">
<title>Node24&#45;&gt;Node31</title>
<path fill="none" stroke="midnightblue" d="M981.02,-168.32C967.45,-159.9 946.62,-146.97 930.68,-137.07"/>
<polygon fill="midnightblue" stroke="midnightblue" points="932.29,-133.95 921.94,-131.65 928.59,-139.9 932.29,-133.95"/>
</g>
<!-- Node32 -->
<g id="node32" class="node">
<title>Node32</title>
<g id="a_node32"><a xlink:title=" ">
<polygon fill="white" stroke="#bfbfbf" points="965,-112.5 965,-131.5 1025,-131.5 1025,-112.5 965,-112.5"/>
<text text-anchor="middle" x="995" y="-119.5" font-family="Helvetica,sans-Serif" font-size="10.00">iostream</text>
</a>
</g>
</g>
<!-- Node24&#45;&gt;Node32 -->
<g id="edge46" class="edge">
<title>Node24&#45;&gt;Node32</title>
<path fill="none" stroke="midnightblue" d="M995,-168.08C995,-161.01 995,-150.86 995,-141.99"/>
<polygon fill="midnightblue" stroke="midnightblue" points="998.5,-141.75 995,-131.75 991.5,-141.75 998.5,-141.75"/>
</g>
<!-- Node24&#45;&gt;Node33 -->
<g id="edge48" class="edge">
<title>Node24&#45;&gt;Node33</title>
<path fill="none" stroke="midnightblue" d="M1038.6,-171.53C1122.89,-160.94 1306.91,-137.83 1386.76,-127.8"/>
<polygon fill="midnightblue" stroke="midnightblue" points="1387.39,-131.25 1396.87,-126.53 1386.51,-124.31 1387.39,-131.25"/>
</g>
<!-- Node25&#45;&gt;Node15 -->
<g id="edge37" class="edge">
<title>Node25&#45;&gt;Node15</title>
<path fill="none" stroke="midnightblue" d="M724.99,-112.44C705.41,-103.64 674.69,-89.81 652.27,-79.72"/>
<polygon fill="midnightblue" stroke="midnightblue" points="653.48,-76.43 642.93,-75.52 650.61,-82.81 653.48,-76.43"/>
</g>
<!-- Node26&#45;&gt;Node15 -->
<g id="edge39" class="edge">
<title>Node26&#45;&gt;Node15</title>
<path fill="none" stroke="midnightblue" d="M1156.83,-116.02C1043.55,-105.6 783.09,-81.64 673.75,-71.58"/>
<polygon fill="midnightblue" stroke="midnightblue" points="673.93,-68.08 663.66,-70.65 673.29,-75.05 673.93,-68.08"/>
</g>
<!-- Node27 -->
<g id="node27" class="node">
<title>Node27</title>
<g id="a_node27"><a xlink:title=" ">
<polygon fill="white" stroke="#bfbfbf" points="1123,-56.5 1123,-75.5 1209,-75.5 1209,-56.5 1123,-56.5"/>
<text text-anchor="middle" x="1166" y="-63.5" font-family="Helvetica,sans-Serif" font-size="10.00">fmt/ostream.h</text>
</a>
</g>
</g>
<!-- Node26&#45;&gt;Node27 -->
<g id="edge40" class="edge">
<title>Node26&#45;&gt;Node27</title>
<path fill="none" stroke="midnightblue" d="M1203.57,-112.08C1197.15,-104.38 1187.69,-93.03 1179.88,-83.65"/>
<polygon fill="midnightblue" stroke="midnightblue" points="1182.38,-81.19 1173.29,-75.75 1177.01,-85.67 1182.38,-81.19"/>
</g>
<!-- Node28 -->
<g id="node28" class="node">
<title>Node28</title>
<g id="a_node28"><a xlink:title=" ">
<polygon fill="white" stroke="#bfbfbf" points="1061,-56.5 1061,-75.5 1105,-75.5 1105,-56.5 1061,-56.5"/>
<text text-anchor="middle" x="1083" y="-63.5" font-family="Helvetica,sans-Serif" font-size="10.00">limits</text>
</a>
</g>
</g>
<!-- Node26&#45;&gt;Node28 -->
<g id="edge41" class="edge">
<title>Node26&#45;&gt;Node28</title>
<path fill="none" stroke="midnightblue" d="M1190.72,-112.44C1169.65,-103.56 1136.48,-89.56 1112.51,-79.45"/>
<polygon fill="midnightblue" stroke="midnightblue" points="1113.76,-76.18 1103.19,-75.52 1111.04,-82.63 1113.76,-76.18"/>
</g>
<!-- Node26&#45;&gt;Node29 -->
<g id="edge42" class="edge">
<title>Node26&#45;&gt;Node29</title>
<path fill="none" stroke="midnightblue" d="M1216.78,-112.08C1221.67,-104.53 1228.83,-93.49 1234.83,-84.23"/>
<polygon fill="midnightblue" stroke="midnightblue" points="1237.83,-86.05 1240.33,-75.75 1231.95,-82.24 1237.83,-86.05"/>
</g>
<!-- Node30 -->
<g id="node30" class="node">
<title>Node30</title>
<g id="a_node30"><a xlink:title=" ">
<polygon fill="white" stroke="#bfbfbf" points="995,-56.5 995,-75.5 1043,-75.5 1043,-56.5 995,-56.5"/>
<text text-anchor="middle" x="1019" y="-63.5" font-family="Helvetica,sans-Serif" font-size="10.00">thread</text>
</a>
</g>
</g>
<!-- Node26&#45;&gt;Node30 -->
<g id="edge43" class="edge">
<title>Node26&#45;&gt;Node30</title>
<path fill="none" stroke="midnightblue" d="M1180.58,-112.44C1145.93,-102.7 1089.46,-86.82 1053.28,-76.64"/>
<polygon fill="midnightblue" stroke="midnightblue" points="1053.78,-73.14 1043.2,-73.81 1051.88,-79.88 1053.78,-73.14"/>
</g>
<!-- Node34&#45;&gt;Node4 -->
<g id="edge53" class="edge">
<title>Node34&#45;&gt;Node4</title>
<path fill="none" stroke="midnightblue" d="M1140.28,-225.47C1137.15,-224.92 1134.02,-224.41 1131,-224 1007.18,-207.08 627.62,-187.82 491.89,-181.3"/>
<polygon fill="midnightblue" stroke="midnightblue" points="491.95,-177.8 481.79,-180.81 491.61,-184.79 491.95,-177.8"/>
</g>
<!-- Node34&#45;&gt;Node6 -->
<g id="edge59" class="edge">
<title>Node34&#45;&gt;Node6</title>
<path fill="none" stroke="midnightblue" d="M1169.11,-224.43C1156.34,-202.74 1119.8,-144.99 1075,-112 1040.64,-86.7 1024.71,-93.96 986,-76 968.69,-67.97 966.36,-61.2 948,-56 946.07,-55.45 447.7,-22.08 314.44,-13.17"/>
<polygon fill="midnightblue" stroke="midnightblue" points="314.3,-9.65 304.09,-12.48 313.83,-16.64 314.3,-9.65"/>
</g>
<!-- Node34&#45;&gt;Node13 -->
<g id="edge60" class="edge">
<title>Node34&#45;&gt;Node13</title>
<path fill="none" stroke="midnightblue" d="M1180.62,-224.15C1191.39,-210.3 1214.06,-183.51 1239,-168 1281.25,-141.72 1316.02,-172.44 1345,-132 1367.33,-100.83 1348.35,-53.63 1335.12,-28.38"/>
<polygon fill="midnightblue" stroke="midnightblue" points="1338.16,-26.65 1330.27,-19.58 1332.03,-30.03 1338.16,-26.65"/>
</g>
<!-- Node34&#45;&gt;Node15 -->
<g id="edge56" class="edge">
<title>Node34&#45;&gt;Node15</title>
<path fill="none" stroke="midnightblue" d="M1140.21,-225.87C1137.1,-225.23 1133.99,-224.6 1131,-224 924.86,-182.69 841.31,-249.54 667,-132 650.05,-120.57 638.12,-99.98 631.2,-85.03"/>
<polygon fill="midnightblue" stroke="midnightblue" points="634.38,-83.56 627.21,-75.77 627.95,-86.33 634.38,-83.56"/>
</g>
<!-- Node34&#45;&gt;Node16 -->
<g id="edge57" class="edge">
<title>Node34&#45;&gt;Node16</title>
<path fill="none" stroke="midnightblue" d="M1161.18,-224.41C1148.8,-215.85 1129.79,-201.98 1115,-188 1082.7,-157.46 1087.56,-135.76 1050,-112 1019.83,-92.92 981.63,-81.84 949.49,-75.46"/>
<polygon fill="midnightblue" stroke="midnightblue" points="949.75,-71.95 939.28,-73.55 948.46,-78.83 949.75,-71.95"/>
</g>
<!-- Node34&#45;&gt;Node33 -->
<g id="edge58" class="edge">
<title>Node34&#45;&gt;Node33</title>
<path fill="none" stroke="midnightblue" d="M1207.76,-233.83C1252.56,-233.27 1332.25,-226.35 1386,-188 1402.03,-176.56 1412.65,-156.28 1418.7,-141.4"/>
<polygon fill="midnightblue" stroke="midnightblue" points="1422.09,-142.33 1422.32,-131.73 1415.54,-139.88 1422.09,-142.33"/>
</g>
<!-- Node35 -->
<g id="node35" class="node">
<title>Node35</title>
<g id="a_node35"><a xlink:title=" ">
<polygon fill="white" stroke="#bfbfbf" points="1247.5,-168.5 1247.5,-187.5 1308.5,-187.5 1308.5,-168.5 1247.5,-168.5"/>
<text text-anchor="middle" x="1278" y="-175.5" font-family="Helvetica,sans-Serif" font-size="10.00">charconv</text>
</a>
</g>
</g>
<!-- Node34&#45;&gt;Node35 -->
<g id="edge54" class="edge">
<title>Node34&#45;&gt;Node35</title>
<path fill="none" stroke="midnightblue" d="M1190.71,-224.32C1207.31,-215.7 1233,-202.36 1252.22,-192.39"/>
<polygon fill="midnightblue" stroke="midnightblue" points="1254.07,-195.37 1261.33,-187.65 1250.84,-189.16 1254.07,-195.37"/>
</g>
<!-- Node36 -->
<g id="node36" class="node">
<title>Node36</title>
<g id="a_node36"><a xlink:title=" ">
<polygon fill="white" stroke="#bfbfbf" points="1327,-168.5 1327,-187.5 1377,-187.5 1377,-168.5 1327,-168.5"/>
<text text-anchor="middle" x="1352" y="-175.5" font-family="Helvetica,sans-Serif" font-size="10.00">cstdint</text>
</a>
</g>
</g>
<!-- Node34&#45;&gt;Node36 -->
<g id="edge55" class="edge">
<title>Node34&#45;&gt;Node36</title>
<path fill="none" stroke="midnightblue" d="M1202.2,-224.44C1233.3,-215.01 1283.36,-199.82 1316.95,-189.63"/>
<polygon fill="midnightblue" stroke="midnightblue" points="1318.25,-192.9 1326.81,-186.64 1316.22,-186.2 1318.25,-192.9"/>
</g>
</g>
</svg>
