<?xml version="1.0" encoding="UTF-8" standalone="no"?>
<!DOCTYPE svg PUBLIC "-//W3C//DTD SVG 1.1//EN"
 "http://www.w3.org/Graphics/SVG/1.1/DTD/svg11.dtd">
<!-- Generated by graphviz version 2.43.0 (0)
 -->
<!-- Title: src/consensus/aft/raft.h Pages: 1 -->
<svg width="195pt" height="252pt"
 viewBox="0.00 0.00 194.50 252.00" xmlns="http://www.w3.org/2000/svg" xmlns:xlink="http://www.w3.org/1999/xlink">
<g id="graph0" class="graph" transform="scale(1 1) rotate(0) translate(4 248)">
<title>src/consensus/aft/raft.h</title>
<polygon fill="white" stroke="transparent" points="-4,4 -4,-248 190.5,-248 190.5,4 -4,4"/>
<!-- Node1 -->
<g id="node1" class="node">
<title>Node1</title>
<g id="a_node1"><a xlink:title=" ">
<polygon fill="#bfbfbf" stroke="black" points="0,-224.5 0,-243.5 129,-243.5 129,-224.5 0,-224.5"/>
<text text-anchor="middle" x="64.5" y="-231.5" font-family="Helvetica,sans-Serif" font-size="10.00">src/consensus/aft/raft.h</text>
</a>
</g>
</g>
<!-- Node2 -->
<g id="node2" class="node">
<title>Node2</title>
<g id="a_node2"><a xlink:href="node__state_8h.html" target="_top" xlink:title=" ">
<polygon fill="white" stroke="black" points="2.5,-168.5 2.5,-187.5 126.5,-187.5 126.5,-168.5 2.5,-168.5"/>
<text text-anchor="middle" x="64.5" y="-175.5" font-family="Helvetica,sans-Serif" font-size="10.00">src/node/node_state.h</text>
</a>
</g>
</g>
<!-- Node1&#45;&gt;Node2 -->
<g id="edge1" class="edge">
<title>Node1&#45;&gt;Node2</title>
<path fill="none" stroke="midnightblue" d="M64.5,-213.8C64.5,-204.91 64.5,-194.78 64.5,-187.75"/>
<polygon fill="midnightblue" stroke="midnightblue" points="61,-214.08 64.5,-224.08 68,-214.08 61,-214.08"/>
</g>
<!-- Node3 -->
<g id="node3" class="node">
<title>Node3</title>
<g id="a_node3"><a xlink:href="enclave_2enclave_8h.html" target="_top" xlink:title=" ">
<polygon fill="white" stroke="black" points="3.5,-56.5 3.5,-75.5 125.5,-75.5 125.5,-56.5 3.5,-56.5"/>
<text text-anchor="middle" x="64.5" y="-63.5" font-family="Helvetica,sans-Serif" font-size="10.00">src/enclave/enclave.h</text>
</a>
</g>
</g>
<!-- Node2&#45;&gt;Node3 -->
<g id="edge2" class="edge">
<title>Node2&#45;&gt;Node3</title>
<path fill="none" stroke="midnightblue" d="M49.52,-160.47C43.28,-152.48 36.73,-142.38 33.5,-132 26.89,-110.75 44.46,-87.63 55.78,-75.51"/>
<polygon fill="midnightblue" stroke="midnightblue" points="46.92,-162.81 56.02,-168.23 52.29,-158.32 46.92,-162.81"/>
</g>
<!-- Node5 -->
<g id="node5" class="node">
<title>Node5</title>
<g id="a_node5"><a xlink:href="gov__effects_8h.html" target="_top" xlink:title=" ">
<polygon fill="white" stroke="black" points="42.5,-112.5 42.5,-131.5 186.5,-131.5 186.5,-112.5 42.5,-112.5"/>
<text text-anchor="middle" x="114.5" y="-119.5" font-family="Helvetica,sans-Serif" font-size="10.00">src/node/rpc/gov_effects.h</text>
</a>
</g>
</g>
<!-- Node2&#45;&gt;Node5 -->
<g id="edge4" class="edge">
<title>Node2&#45;&gt;Node5</title>
<path fill="none" stroke="midnightblue" d="M79.58,-160.72C88.39,-151.2 99.17,-139.56 106.4,-131.75"/>
<polygon fill="midnightblue" stroke="midnightblue" points="76.98,-158.37 72.76,-168.08 82.12,-163.12 76.98,-158.37"/>
</g>
<!-- Node4 -->
<g id="node4" class="node">
<title>Node4</title>
<g id="a_node4"><a xlink:href="enclave_2main_8cpp.html" target="_top" xlink:title=" ">
<polygon fill="white" stroke="black" points="4.5,-0.5 4.5,-19.5 124.5,-19.5 124.5,-0.5 4.5,-0.5"/>
<text text-anchor="middle" x="64.5" y="-7.5" font-family="Helvetica,sans-Serif" font-size="10.00">src/enclave/main.cpp</text>
</a>
</g>
</g>
<!-- Node3&#45;&gt;Node4 -->
<g id="edge3" class="edge">
<title>Node3&#45;&gt;Node4</title>
<path fill="none" stroke="midnightblue" d="M64.5,-45.8C64.5,-36.91 64.5,-26.78 64.5,-19.75"/>
<polygon fill="midnightblue" stroke="midnightblue" points="61,-46.08 64.5,-56.08 68,-46.08 61,-46.08"/>
</g>
<!-- Node5&#45;&gt;Node3 -->
<g id="edge5" class="edge">
<title>Node5&#45;&gt;Node3</title>
<path fill="none" stroke="midnightblue" d="M99.42,-104.72C90.61,-95.2 79.83,-83.56 72.6,-75.75"/>
<polygon fill="midnightblue" stroke="midnightblue" points="96.88,-107.12 106.24,-112.08 102.02,-102.37 96.88,-107.12"/>
</g>
</g>
</svg>
