<?xml version="1.0" encoding="UTF-8" standalone="no"?>
<!DOCTYPE svg PUBLIC "-//W3C//DTD SVG 1.1//EN"
 "http://www.w3.org/Graphics/SVG/1.1/DTD/svg11.dtd">
<!-- Generated by graphviz version 2.43.0 (0)
 -->
<!-- Title: src/node/rpc/rpc_context_impl.h Pages: 1 -->
<!--zoomable 699 -->
<svg id="main" version="1.1" xmlns="http://www.w3.org/2000/svg" xmlns:xlink="http://www.w3.org/1999/xlink" xml:space="preserve" onload="init(evt)">
<style type="text/css"><![CDATA[
.edge:hover path { stroke: red; }
.edge:hover polygon { stroke: red; fill: red; }
]]></style>
<script type="text/javascript"><![CDATA[
var edges = document.getElementsByTagName('g');
if (edges && edges.length) {
  for (var i=0;i<edges.length;i++) {
    if (edges[i].id.substr(0,4)=='edge') {
      edges[i].setAttribute('class','edge');
    }
  }
}
]]></script>
        <defs>
                <circle id="rim" cx="0" cy="0" r="7"/>
                <circle id="rim2" cx="0" cy="0" r="3.5"/>
                <g id="zoomPlus">
                        <use xlink:href="#rim" fill="#404040">
                                <set attributeName="fill" to="#808080" begin="zoomplus.mouseover" end="zoomplus.mouseout"/>
                        </use>
                        <path d="M-4,0h8M0,-4v8" fill="none" stroke="white" stroke-width="1.5" pointer-events="none"/>
                </g>
                <g id="zoomMin">
                        <use xlink:href="#rim" fill="#404040">
                                <set attributeName="fill" to="#808080" begin="zoomminus.mouseover" end="zoomminus.mouseout"/>
                        </use>
                        <path d="M-4,0h8" fill="none" stroke="white" stroke-width="1.5" pointer-events="none"/>
                </g>
                <g id="dirArrow">
                        <path fill="none" stroke="white" stroke-width="1.5" d="M0,-3.0v7 M-2.5,-0.5L0,-3.0L2.5,-0.5"/>
                </g>
               <g id="resetDef">
                       <use xlink:href="#rim2" fill="#404040">
                               <set attributeName="fill" to="#808080" begin="reset.mouseover" end="reset.mouseout"/>
                       </use>
               </g>
        </defs>

<script type="text/javascript">
var viewWidth = 924;
var viewHeight = 699;
var sectionId = 'dynsection-1';
</script>
<script xlink:href="svgpan.js"/>
<svg id="graph" class="graph">
<g id="viewport">
<title>src/node/rpc/rpc_context_impl.h</title>
<polygon fill="white" stroke="transparent" points="-4,4 -4,-695 920,-695 920,4 -4,4"/>
<!-- Node1 -->
<g id="node1" class="node">
<title>Node1</title>
<g id="a_node1"><a xlink:title=" ">
<polygon fill="#bfbfbf" stroke="black" points="194,-660.5 194,-690.5 330,-690.5 330,-660.5 194,-660.5"/>
<text text-anchor="start" x="202" y="-678.5" font-family="Helvetica,sans-Serif" font-size="10.00">src/node/rpc/rpc_context</text>
<text text-anchor="middle" x="262" y="-667.5" font-family="Helvetica,sans-Serif" font-size="10.00">_impl.h</text>
</a>
</g>
</g>
<!-- Node2 -->
<g id="node2" class="node">
<title>Node2</title>
<g id="a_node2"><a xlink:href="js__generic__base_8cpp.html" target="_top" xlink:title=" ">
<polygon fill="white" stroke="black" points="0,-593.5 0,-623.5 118,-623.5 118,-593.5 0,-593.5"/>
<text text-anchor="start" x="8" y="-611.5" font-family="Helvetica,sans-Serif" font-size="10.00">src/apps/js_generic</text>
<text text-anchor="middle" x="59" y="-600.5" font-family="Helvetica,sans-Serif" font-size="10.00">/js_generic_base.cpp</text>
</a>
</g>
</g>
<!-- Node1&#45;&gt;Node2 -->
<g id="edge1" class="edge">
<title>Node1&#45;&gt;Node2</title>
<path fill="none" stroke="midnightblue" d="M208.06,-657.23C175.22,-646.71 133.8,-633.45 102.96,-623.58"/>
<polygon fill="midnightblue" stroke="midnightblue" points="207.36,-660.68 217.95,-660.4 209.5,-654.01 207.36,-660.68"/>
</g>
<!-- Node3 -->
<g id="node3" class="node">
<title>Node3</title>
<g id="a_node3"><a xlink:href="js__v8__base_8cpp.html" target="_top" xlink:title=" ">
<polygon fill="white" stroke="black" points="136,-593.5 136,-623.5 250,-623.5 250,-593.5 136,-593.5"/>
<text text-anchor="start" x="144" y="-611.5" font-family="Helvetica,sans-Serif" font-size="10.00">src/apps/js_v8/js_v8</text>
<text text-anchor="middle" x="193" y="-600.5" font-family="Helvetica,sans-Serif" font-size="10.00">_base.cpp</text>
</a>
</g>
</g>
<!-- Node1&#45;&gt;Node3 -->
<g id="edge2" class="edge">
<title>Node1&#45;&gt;Node3</title>
<path fill="none" stroke="midnightblue" d="M239.51,-653.31C229.16,-643.56 217.16,-632.26 207.94,-623.58"/>
<polygon fill="midnightblue" stroke="midnightblue" points="237.35,-656.09 247.03,-660.4 242.15,-650.99 237.35,-656.09"/>
</g>
<!-- Node4 -->
<g id="node4" class="node">
<title>Node4</title>
<g id="a_node4"><a xlink:href="endpoint__registry_8cpp.html" target="_top" xlink:title=" ">
<polygon fill="white" stroke="black" points="268,-593.5 268,-623.5 396,-623.5 396,-593.5 268,-593.5"/>
<text text-anchor="start" x="276" y="-611.5" font-family="Helvetica,sans-Serif" font-size="10.00">src/endpoints/endpoint</text>
<text text-anchor="middle" x="332" y="-600.5" font-family="Helvetica,sans-Serif" font-size="10.00">_registry.cpp</text>
</a>
</g>
</g>
<!-- Node1&#45;&gt;Node4 -->
<g id="edge3" class="edge">
<title>Node1&#45;&gt;Node4</title>
<path fill="none" stroke="midnightblue" d="M284.82,-653.31C295.32,-643.56 307.49,-632.26 316.84,-623.58"/>
<polygon fill="midnightblue" stroke="midnightblue" points="282.14,-651.03 277.19,-660.4 286.9,-656.16 282.14,-651.03"/>
</g>
<!-- Node5 -->
<g id="node5" class="node">
<title>Node5</title>
<g id="a_node5"><a xlink:href="http__rpc__context_8h.html" target="_top" xlink:title=" ">
<polygon fill="white" stroke="black" points="414.5,-599 414.5,-618 561.5,-618 561.5,-599 414.5,-599"/>
<text text-anchor="middle" x="488" y="-606" font-family="Helvetica,sans-Serif" font-size="10.00">src/http/http_rpc_context.h</text>
</a>
</g>
</g>
<!-- Node1&#45;&gt;Node5 -->
<g id="edge4" class="edge">
<title>Node1&#45;&gt;Node5</title>
<path fill="none" stroke="midnightblue" d="M320.51,-657.67C364.68,-644.97 423.45,-628.06 458.35,-618.03"/>
<polygon fill="midnightblue" stroke="midnightblue" points="319.4,-654.35 310.76,-660.48 321.34,-661.08 319.4,-654.35"/>
</g>
<!-- Node6 -->
<g id="node6" class="node">
<title>Node6</title>
<g id="a_node6"><a xlink:href="http__endpoint_8h.html" target="_top" xlink:title=" ">
<polygon fill="white" stroke="black" points="267.5,-537.5 267.5,-556.5 400.5,-556.5 400.5,-537.5 267.5,-537.5"/>
<text text-anchor="middle" x="334" y="-544.5" font-family="Helvetica,sans-Serif" font-size="10.00">src/http/http_endpoint.h</text>
</a>
</g>
</g>
<!-- Node5&#45;&gt;Node6 -->
<g id="edge5" class="edge">
<title>Node5&#45;&gt;Node6</title>
<path fill="none" stroke="midnightblue" d="M456.38,-595.28C426.45,-583.72 382.31,-566.66 356.02,-556.51"/>
<polygon fill="midnightblue" stroke="midnightblue" points="455.35,-598.64 465.94,-598.98 457.87,-592.11 455.35,-598.64"/>
</g>
<!-- Node16 -->
<g id="node16" class="node">
<title>Node16</title>
<g id="a_node16"><a xlink:href="jwt__key__auto__refresh_8h.html" target="_top" xlink:title=" ">
<polygon fill="white" stroke="black" points="478.5,-235.5 478.5,-265.5 603.5,-265.5 603.5,-235.5 478.5,-235.5"/>
<text text-anchor="start" x="486.5" y="-253.5" font-family="Helvetica,sans-Serif" font-size="10.00">src/node/jwt_key_auto</text>
<text text-anchor="middle" x="541" y="-242.5" font-family="Helvetica,sans-Serif" font-size="10.00">_refresh.h</text>
</a>
</g>
</g>
<!-- Node5&#45;&gt;Node16 -->
<g id="edge28" class="edge">
<title>Node5&#45;&gt;Node16</title>
<path fill="none" stroke="midnightblue" d="M488,-588.79C488,-565.95 488,-526.14 488,-492 488,-492 488,-492 488,-372.5 488,-340.05 493.53,-331.53 507,-302 512.96,-288.92 522.19,-275.49 529.52,-265.77"/>
<polygon fill="midnightblue" stroke="midnightblue" points="484.5,-588.81 488,-598.81 491.5,-588.81 484.5,-588.81"/>
</g>
<!-- Node20 -->
<g id="node20" class="node">
<title>Node20</title>
<g id="a_node20"><a xlink:href="forwarder_8h.html" target="_top" xlink:title=" ">
<polygon fill="white" stroke="black" points="654,-425.5 654,-444.5 788,-444.5 788,-425.5 654,-425.5"/>
<text text-anchor="middle" x="721" y="-432.5" font-family="Helvetica,sans-Serif" font-size="10.00">src/node/rpc/forwarder.h</text>
</a>
</g>
</g>
<!-- Node5&#45;&gt;Node20 -->
<g id="edge29" class="edge">
<title>Node5&#45;&gt;Node20</title>
<path fill="none" stroke="midnightblue" d="M507.72,-592.99C554.68,-558.42 672.01,-472.06 709.38,-444.56"/>
<polygon fill="midnightblue" stroke="midnightblue" points="505.53,-590.25 499.55,-599 509.68,-595.89 505.53,-590.25"/>
</g>
<!-- Node7 -->
<g id="node7" class="node">
<title>Node7</title>
<g id="a_node7"><a xlink:href="rpc__sessions_8h.html" target="_top" xlink:title=" ">
<polygon fill="white" stroke="black" points="155,-481.5 155,-500.5 301,-500.5 301,-481.5 155,-481.5"/>
<text text-anchor="middle" x="228" y="-488.5" font-family="Helvetica,sans-Serif" font-size="10.00">src/enclave/rpc_sessions.h</text>
</a>
</g>
</g>
<!-- Node6&#45;&gt;Node7 -->
<g id="edge6" class="edge">
<title>Node6&#45;&gt;Node7</title>
<path fill="none" stroke="midnightblue" d="M307.94,-532.73C288.32,-522.73 261.97,-509.31 244.99,-500.65"/>
<polygon fill="midnightblue" stroke="midnightblue" points="306.47,-535.9 316.97,-537.32 309.65,-529.67 306.47,-535.9"/>
</g>
<!-- Node8 -->
<g id="node8" class="node">
<title>Node8</title>
<g id="a_node8"><a xlink:href="enclave_2enclave_8h.html" target="_top" xlink:title=" ">
<polygon fill="white" stroke="black" points="598,-56.5 598,-75.5 720,-75.5 720,-56.5 598,-56.5"/>
<text text-anchor="middle" x="659" y="-63.5" font-family="Helvetica,sans-Serif" font-size="10.00">src/enclave/enclave.h</text>
</a>
</g>
</g>
<!-- Node7&#45;&gt;Node8 -->
<g id="edge7" class="edge">
<title>Node7&#45;&gt;Node8</title>
<path fill="none" stroke="midnightblue" d="M147.62,-479.42C86.91,-466.38 14,-437.59 14,-374.5 14,-374.5 14,-374.5 14,-182.5 14,-123.56 436.74,-84.35 597.74,-71.56"/>
<polygon fill="midnightblue" stroke="midnightblue" points="147.14,-482.89 157.63,-481.45 148.53,-476.03 147.14,-482.89"/>
</g>
<!-- Node10 -->
<g id="node10" class="node">
<title>Node10</title>
<g id="a_node10"><a xlink:href="node__client_8h.html" target="_top" xlink:title=" ">
<polygon fill="white" stroke="black" points="165,-425.5 165,-444.5 291,-444.5 291,-425.5 165,-425.5"/>
<text text-anchor="middle" x="228" y="-432.5" font-family="Helvetica,sans-Serif" font-size="10.00">src/node/node_client.h</text>
</a>
</g>
</g>
<!-- Node7&#45;&gt;Node10 -->
<g id="edge9" class="edge">
<title>Node7&#45;&gt;Node10</title>
<path fill="none" stroke="midnightblue" d="M228,-470.8C228,-461.91 228,-451.78 228,-444.75"/>
<polygon fill="midnightblue" stroke="midnightblue" points="224.5,-471.08 228,-481.08 231.5,-471.08 224.5,-471.08"/>
</g>
<!-- Node13 -->
<g id="node13" class="node">
<title>Node13</title>
<g id="a_node13"><a xlink:href="node__state_8h.html" target="_top" xlink:title=" ">
<polygon fill="white" stroke="black" points="389,-174 389,-193 513,-193 513,-174 389,-174"/>
<text text-anchor="middle" x="451" y="-181" font-family="Helvetica,sans-Serif" font-size="10.00">src/node/node_state.h</text>
</a>
</g>
</g>
<!-- Node7&#45;&gt;Node13 -->
<g id="edge25" class="edge">
<title>Node7&#45;&gt;Node13</title>
<path fill="none" stroke="midnightblue" d="M311.29,-480.39C374.29,-467.93 450,-439.45 450,-374.5 450,-374.5 450,-374.5 450,-311 450,-266.64 450.62,-213.52 450.89,-193.09"/>
<polygon fill="midnightblue" stroke="midnightblue" points="310.49,-476.98 301.31,-482.25 311.78,-483.86 310.49,-476.98"/>
</g>
<!-- Node19 -->
<g id="node19" class="node">
<title>Node19</title>
<g id="a_node19"><a xlink:href="resharing_8h.html" target="_top" xlink:title=" ">
<polygon fill="white" stroke="black" points="55,-241 55,-260 171,-260 171,-241 55,-241"/>
<text text-anchor="middle" x="113" y="-248" font-family="Helvetica,sans-Serif" font-size="10.00">src/node/resharing.h</text>
</a>
</g>
</g>
<!-- Node7&#45;&gt;Node19 -->
<g id="edge26" class="edge">
<title>Node7&#45;&gt;Node19</title>
<path fill="none" stroke="midnightblue" d="M197.27,-477.05C165.19,-461.54 117.1,-432.14 99,-389 79.98,-343.64 100.4,-282.75 109.29,-260.3"/>
<polygon fill="midnightblue" stroke="midnightblue" points="196.11,-480.37 206.66,-481.41 199.06,-474.02 196.11,-480.37"/>
</g>
<!-- Node9 -->
<g id="node9" class="node">
<title>Node9</title>
<g id="a_node9"><a xlink:href="enclave_2main_8cpp.html" target="_top" xlink:title=" ">
<polygon fill="white" stroke="black" points="599,-0.5 599,-19.5 719,-19.5 719,-0.5 599,-0.5"/>
<text text-anchor="middle" x="659" y="-7.5" font-family="Helvetica,sans-Serif" font-size="10.00">src/enclave/main.cpp</text>
</a>
</g>
</g>
<!-- Node8&#45;&gt;Node9 -->
<g id="edge8" class="edge">
<title>Node8&#45;&gt;Node9</title>
<path fill="none" stroke="midnightblue" d="M659,-45.8C659,-36.91 659,-26.78 659,-19.75"/>
<polygon fill="midnightblue" stroke="midnightblue" points="655.5,-46.08 659,-56.08 662.5,-46.08 655.5,-46.08"/>
</g>
<!-- Node11 -->
<g id="node11" class="node">
<title>Node11</title>
<g id="a_node11"><a xlink:href="orc__requests_8h.html" target="_top" xlink:title=" ">
<polygon fill="white" stroke="black" points="302.5,-358.5 302.5,-388.5 421.5,-388.5 421.5,-358.5 302.5,-358.5"/>
<text text-anchor="start" x="310.5" y="-376.5" font-family="Helvetica,sans-Serif" font-size="10.00">src/consensus/aft/orc</text>
<text text-anchor="middle" x="362" y="-365.5" font-family="Helvetica,sans-Serif" font-size="10.00">_requests.h</text>
</a>
</g>
</g>
<!-- Node10&#45;&gt;Node11 -->
<g id="edge10" class="edge">
<title>Node10&#45;&gt;Node11</title>
<path fill="none" stroke="midnightblue" d="M256.53,-421.33C278.21,-411.7 308.02,-398.47 330.42,-388.52"/>
<polygon fill="midnightblue" stroke="midnightblue" points="254.92,-418.22 247.2,-425.48 257.76,-424.62 254.92,-418.22"/>
</g>
<!-- Node12 -->
<g id="node12" class="node">
<title>Node12</title>
<g id="a_node12"><a xlink:href="raft_8h.html" target="_top" xlink:title=" ">
<polygon fill="white" stroke="black" points="250.5,-302.5 250.5,-321.5 379.5,-321.5 379.5,-302.5 250.5,-302.5"/>
<text text-anchor="middle" x="315" y="-309.5" font-family="Helvetica,sans-Serif" font-size="10.00">src/consensus/aft/raft.h</text>
</a>
</g>
</g>
<!-- Node10&#45;&gt;Node12 -->
<g id="edge20" class="edge">
<title>Node10&#45;&gt;Node12</title>
<path fill="none" stroke="midnightblue" d="M240.16,-417.09C258.98,-390.91 294.5,-341.52 308.8,-321.62"/>
<polygon fill="midnightblue" stroke="midnightblue" points="237.25,-415.14 234.26,-425.3 242.94,-419.22 237.25,-415.14"/>
</g>
<!-- Node17 -->
<g id="node17" class="node">
<title>Node17</title>
<g id="a_node17"><a xlink:href="http__node__client_8h.html" target="_top" xlink:title=" ">
<polygon fill="white" stroke="black" points="238,-235.5 238,-265.5 348,-265.5 348,-235.5 238,-235.5"/>
<text text-anchor="start" x="246" y="-253.5" font-family="Helvetica,sans-Serif" font-size="10.00">src/node/http_node</text>
<text text-anchor="middle" x="293" y="-242.5" font-family="Helvetica,sans-Serif" font-size="10.00">_client.h</text>
</a>
</g>
</g>
<!-- Node10&#45;&gt;Node17 -->
<g id="edge21" class="edge">
<title>Node10&#45;&gt;Node17</title>
<path fill="none" stroke="midnightblue" d="M156.67,-422.27C138.13,-415.64 120.23,-405.25 109,-389 101.17,-377.66 102.12,-369.94 109,-358 137.21,-309.08 197.42,-280.59 241.31,-265.59"/>
<polygon fill="midnightblue" stroke="midnightblue" points="155.8,-425.67 166.4,-425.42 157.96,-419.01 155.8,-425.67"/>
</g>
<!-- Node18 -->
<g id="node18" class="node">
<title>Node18</title>
<g id="a_node18"><a xlink:href="retired__nodes__cleanup_8h.html" target="_top" xlink:title=" ">
<polygon fill="white" stroke="black" points="118,-358.5 118,-388.5 246,-388.5 246,-358.5 118,-358.5"/>
<text text-anchor="start" x="126" y="-376.5" font-family="Helvetica,sans-Serif" font-size="10.00">src/node/retired_nodes</text>
<text text-anchor="middle" x="182" y="-365.5" font-family="Helvetica,sans-Serif" font-size="10.00">_cleanup.h</text>
</a>
</g>
</g>
<!-- Node10&#45;&gt;Node18 -->
<g id="edge23" class="edge">
<title>Node10&#45;&gt;Node18</title>
<path fill="none" stroke="midnightblue" d="M215.27,-417.53C208.22,-408.42 199.56,-397.21 192.84,-388.52"/>
<polygon fill="midnightblue" stroke="midnightblue" points="212.52,-419.7 221.41,-425.48 218.06,-415.42 212.52,-419.7"/>
</g>
<!-- Node11&#45;&gt;Node12 -->
<g id="edge11" class="edge">
<title>Node11&#45;&gt;Node12</title>
<path fill="none" stroke="midnightblue" d="M344.55,-350.4C336.65,-340.41 327.78,-329.18 321.84,-321.66"/>
<polygon fill="midnightblue" stroke="midnightblue" points="341.92,-352.72 350.86,-358.4 347.41,-348.38 341.92,-352.72"/>
</g>
<!-- Node15 -->
<g id="node15" class="node">
<title>Node15</title>
<g id="a_node15"><a xlink:href="node__frontend_8h.html" target="_top" xlink:title=" ">
<polygon fill="white" stroke="black" points="516,-302.5 516,-321.5 674,-321.5 674,-302.5 516,-302.5"/>
<text text-anchor="middle" x="595" y="-309.5" font-family="Helvetica,sans-Serif" font-size="10.00">src/node/rpc/node_frontend.h</text>
</a>
</g>
</g>
<!-- Node11&#45;&gt;Node15 -->
<g id="edge16" class="edge">
<title>Node11&#45;&gt;Node15</title>
<path fill="none" stroke="midnightblue" d="M426.64,-355.99C470.47,-344.8 526.6,-330.47 561.69,-321.51"/>
<polygon fill="midnightblue" stroke="midnightblue" points="425.75,-352.61 416.92,-358.47 427.48,-359.39 425.75,-352.61"/>
</g>
<!-- Node12&#45;&gt;Node13 -->
<g id="edge12" class="edge">
<title>Node12&#45;&gt;Node13</title>
<path fill="none" stroke="midnightblue" d="M332.01,-295.17C360.97,-268.24 418.91,-214.35 441.59,-193.26"/>
<polygon fill="midnightblue" stroke="midnightblue" points="329.29,-292.93 324.35,-302.31 334.05,-298.06 329.29,-292.93"/>
</g>
<!-- Node13&#45;&gt;Node8 -->
<g id="edge13" class="edge">
<title>Node13&#45;&gt;Node8</title>
<path fill="none" stroke="midnightblue" d="M452.82,-163.38C455.35,-147.4 461.43,-125.18 476,-112 508.99,-82.14 558.58,-71.31 597.81,-67.71"/>
<polygon fill="midnightblue" stroke="midnightblue" points="449.29,-163.33 451.52,-173.69 456.24,-164.2 449.29,-163.33"/>
</g>
<!-- Node14 -->
<g id="node14" class="node">
<title>Node14</title>
<g id="a_node14"><a xlink:href="gov__effects_8h.html" target="_top" xlink:title=" ">
<polygon fill="white" stroke="black" points="485,-112.5 485,-131.5 629,-131.5 629,-112.5 485,-112.5"/>
<text text-anchor="middle" x="557" y="-119.5" font-family="Helvetica,sans-Serif" font-size="10.00">src/node/rpc/gov_effects.h</text>
</a>
</g>
</g>
<!-- Node13&#45;&gt;Node14 -->
<g id="edge14" class="edge">
<title>Node13&#45;&gt;Node14</title>
<path fill="none" stroke="midnightblue" d="M474.95,-169.06C495.46,-157.54 524.38,-141.31 541.84,-131.51"/>
<polygon fill="midnightblue" stroke="midnightblue" points="473.19,-166.03 466.19,-173.98 476.62,-172.13 473.19,-166.03"/>
</g>
<!-- Node14&#45;&gt;Node8 -->
<g id="edge15" class="edge">
<title>Node14&#45;&gt;Node8</title>
<path fill="none" stroke="midnightblue" d="M582.33,-107.59C601.19,-97.61 626.38,-84.27 642.65,-75.65"/>
<polygon fill="midnightblue" stroke="midnightblue" points="580.59,-104.55 573.39,-112.32 583.86,-110.74 580.59,-104.55"/>
</g>
<!-- Node15&#45;&gt;Node8 -->
<g id="edge17" class="edge">
<title>Node15&#45;&gt;Node8</title>
<path fill="none" stroke="midnightblue" d="M602.96,-292.95C606.35,-284.82 610.17,-275.03 613,-266 635.6,-193.93 652.44,-104.03 657.46,-75.86"/>
<polygon fill="midnightblue" stroke="midnightblue" points="599.72,-291.61 599,-302.18 606.15,-294.37 599.72,-291.61"/>
</g>
<!-- Node15&#45;&gt;Node16 -->
<g id="edge18" class="edge">
<title>Node15&#45;&gt;Node16</title>
<path fill="none" stroke="midnightblue" d="M580.31,-294.81C571.99,-285.65 561.7,-274.3 553.73,-265.52"/>
<polygon fill="midnightblue" stroke="midnightblue" points="577.95,-297.42 587.26,-302.48 583.13,-292.72 577.95,-297.42"/>
</g>
<!-- Node16&#45;&gt;Node13 -->
<g id="edge19" class="edge">
<title>Node16&#45;&gt;Node13</title>
<path fill="none" stroke="midnightblue" d="M513.04,-229.31C496.14,-217.1 475.48,-202.18 462.78,-193.01"/>
<polygon fill="midnightblue" stroke="midnightblue" points="511.32,-232.38 521.47,-235.4 515.41,-226.7 511.32,-232.38"/>
</g>
<!-- Node17&#45;&gt;Node13 -->
<g id="edge22" class="edge">
<title>Node17&#45;&gt;Node13</title>
<path fill="none" stroke="midnightblue" d="M336.85,-231.46C367.38,-218.9 406.7,-202.72 430.32,-193.01"/>
<polygon fill="midnightblue" stroke="midnightblue" points="335.2,-228.35 327.28,-235.4 337.86,-234.83 335.2,-228.35"/>
</g>
<!-- Node18&#45;&gt;Node12 -->
<g id="edge24" class="edge">
<title>Node18&#45;&gt;Node12</title>
<path fill="none" stroke="midnightblue" d="M222.84,-354.23C247.06,-343.39 276.64,-330.16 295.65,-321.66"/>
<polygon fill="midnightblue" stroke="midnightblue" points="221.22,-351.12 213.52,-358.4 224.08,-357.51 221.22,-351.12"/>
</g>
<!-- Node19&#45;&gt;Node13 -->
<g id="edge27" class="edge">
<title>Node19&#45;&gt;Node13</title>
<path fill="none" stroke="midnightblue" d="M167.41,-239.04C233.89,-226.25 345.09,-204.87 406.64,-193.03"/>
<polygon fill="midnightblue" stroke="midnightblue" points="166.69,-235.61 157.54,-240.94 168.02,-242.48 166.69,-235.61"/>
</g>
<!-- Node20&#45;&gt;Node8 -->
<g id="edge30" class="edge">
<title>Node20&#45;&gt;Node8</title>
<path fill="none" stroke="midnightblue" d="M780.79,-423.09C838.12,-408.77 916,-377.46 916,-313 916,-313 916,-313 916,-182.5 916,-97.02 796.25,-74.42 720.23,-68.69"/>
<polygon fill="midnightblue" stroke="midnightblue" points="779.63,-419.77 770.71,-425.49 781.25,-426.58 779.63,-419.77"/>
</g>
<!-- Node21 -->
<g id="node21" class="node">
<title>Node21</title>
<g id="a_node21"><a xlink:href="frontend_8h.html" target="_top" xlink:title=" ">
<polygon fill="white" stroke="black" points="656.5,-364 656.5,-383 785.5,-383 785.5,-364 656.5,-364"/>
<text text-anchor="middle" x="721" y="-371" font-family="Helvetica,sans-Serif" font-size="10.00">src/node/rpc/frontend.h</text>
</a>
</g>
</g>
<!-- Node20&#45;&gt;Node21 -->
<g id="edge31" class="edge">
<title>Node20&#45;&gt;Node21</title>
<path fill="none" stroke="midnightblue" d="M721,-415.32C721,-404.5 721,-391.4 721,-383.01"/>
<polygon fill="midnightblue" stroke="midnightblue" points="717.5,-415.48 721,-425.48 724.5,-415.48 717.5,-415.48"/>
</g>
<!-- Node21&#45;&gt;Node13 -->
<g id="edge32" class="edge">
<title>Node21&#45;&gt;Node13</title>
<path fill="none" stroke="midnightblue" d="M713.08,-354.2C706.23,-339.39 695.47,-318.38 683,-302 656.91,-267.74 650.09,-256.88 613,-235 577.09,-213.82 531.39,-200.63 497.68,-193.06"/>
<polygon fill="midnightblue" stroke="midnightblue" points="710.07,-356.04 717.35,-363.74 716.46,-353.18 710.07,-356.04"/>
</g>
<!-- Node21&#45;&gt;Node15 -->
<g id="edge35" class="edge">
<title>Node21&#45;&gt;Node15</title>
<path fill="none" stroke="midnightblue" d="M693.84,-359.67C669.39,-348.13 634.15,-331.49 613.02,-321.51"/>
<polygon fill="midnightblue" stroke="midnightblue" points="692.41,-362.87 702.95,-363.98 695.4,-356.54 692.41,-362.87"/>
</g>
<!-- Node22 -->
<g id="node22" class="node">
<title>Node22</title>
<g id="a_node22"><a xlink:href="member__frontend_8h.html" target="_top" xlink:title=" ">
<polygon fill="white" stroke="black" points="768,-168.5 768,-198.5 888,-198.5 888,-168.5 768,-168.5"/>
<text text-anchor="start" x="776" y="-186.5" font-family="Helvetica,sans-Serif" font-size="10.00">src/node/rpc/member</text>
<text text-anchor="middle" x="828" y="-175.5" font-family="Helvetica,sans-Serif" font-size="10.00">_frontend.h</text>
</a>
</g>
</g>
<!-- Node21&#45;&gt;Node22 -->
<g id="edge33" class="edge">
<title>Node21&#45;&gt;Node22</title>
<path fill="none" stroke="midnightblue" d="M732.7,-355.39C739.18,-345.71 747.27,-333.33 754,-322 780.18,-277.96 808.04,-224 820.83,-198.77"/>
<polygon fill="midnightblue" stroke="midnightblue" points="729.78,-353.46 727.07,-363.71 735.58,-357.38 729.78,-353.46"/>
</g>
<!-- Node23 -->
<g id="node23" class="node">
<title>Node23</title>
<g id="a_node23"><a xlink:href="user__frontend_8h.html" target="_top" xlink:title=" ">
<polygon fill="white" stroke="black" points="687.5,-112.5 687.5,-131.5 842.5,-131.5 842.5,-112.5 687.5,-112.5"/>
<text text-anchor="middle" x="765" y="-119.5" font-family="Helvetica,sans-Serif" font-size="10.00">src/node/rpc/user_frontend.h</text>
</a>
</g>
</g>
<!-- Node21&#45;&gt;Node23 -->
<g id="edge36" class="edge">
<title>Node21&#45;&gt;Node23</title>
<path fill="none" stroke="midnightblue" d="M724.29,-353.84C733.14,-303.64 757.22,-167.1 763.49,-131.55"/>
<polygon fill="midnightblue" stroke="midnightblue" points="720.8,-353.46 722.51,-363.91 727.7,-354.67 720.8,-353.46"/>
</g>
<!-- Node22&#45;&gt;Node8 -->
<g id="edge34" class="edge">
<title>Node22&#45;&gt;Node8</title>
<path fill="none" stroke="midnightblue" d="M845.95,-159.84C855.4,-144.99 862.98,-125.84 852,-112 835.69,-91.45 770.32,-79.42 720.13,-73.04"/>
<polygon fill="midnightblue" stroke="midnightblue" points="842.8,-158.23 839.97,-168.44 848.55,-162.23 842.8,-158.23"/>
</g>
<!-- Node23&#45;&gt;Node8 -->
<g id="edge37" class="edge">
<title>Node23&#45;&gt;Node8</title>
<path fill="none" stroke="midnightblue" d="M738.94,-107.73C719.32,-97.73 692.97,-84.31 675.99,-75.65"/>
<polygon fill="midnightblue" stroke="midnightblue" points="737.47,-110.9 747.97,-112.32 740.65,-104.67 737.47,-110.9"/>
</g>
</g>
</svg>
        <g id="navigator" transform="translate(0 0)" fill="#404254">
                <rect fill="#f2f5e9" fill-opacity="0.5" stroke="#606060" stroke-width=".5" x="0" y="0" width="60" height="60"/>
                <use id="zoomplus" xlink:href="#zoomPlus" x="17" y="9" onmousedown="handleZoom(evt,'in')"/>
                <use id="zoomminus" xlink:href="#zoomMin" x="42" y="9" onmousedown="handleZoom(evt,'out')"/>
                <use id="reset" xlink:href="#resetDef" x="30" y="36" onmousedown="handleReset()"/>
                <g id="arrowUp" xlink:href="#dirArrow" transform="translate(30 24)" onmousedown="handlePan(0,-1)">
                  <use xlink:href="#rim" fill="#404040">
                        <set attributeName="fill" to="#808080" begin="arrowUp.mouseover" end="arrowUp.mouseout"/>
                  </use>
                  <path fill="none" stroke="white" stroke-width="1.5" d="M0,-3.0v7 M-2.5,-0.5L0,-3.0L2.5,-0.5"/>
                </g>
                <g id="arrowRight" xlink:href="#dirArrow" transform="rotate(90) translate(36 -43)" onmousedown="handlePan(1,0)">
                  <use xlink:href="#rim" fill="#404040">
                        <set attributeName="fill" to="#808080" begin="arrowRight.mouseover" end="arrowRight.mouseout"/>
                  </use>
                  <path fill="none" stroke="white" stroke-width="1.5" d="M0,-3.0v7 M-2.5,-0.5L0,-3.0L2.5,-0.5"/>
                </g>
                <g id="arrowDown" xlink:href="#dirArrow" transform="rotate(180) translate(-30 -48)" onmousedown="handlePan(0,1)">
                  <use xlink:href="#rim" fill="#404040">
                        <set attributeName="fill" to="#808080" begin="arrowDown.mouseover" end="arrowDown.mouseout"/>
                  </use>
                  <path fill="none" stroke="white" stroke-width="1.5" d="M0,-3.0v7 M-2.5,-0.5L0,-3.0L2.5,-0.5"/>
                </g>
                <g id="arrowLeft" xlink:href="#dirArrow" transform="rotate(270) translate(-36 17)" onmousedown="handlePan(-1,0)">
                  <use xlink:href="#rim" fill="#404040">
                        <set attributeName="fill" to="#808080" begin="arrowLeft.mouseover" end="arrowLeft.mouseout"/>
                  </use>
                  <path fill="none" stroke="white" stroke-width="1.5" d="M0,-3.0v7 M-2.5,-0.5L0,-3.0L2.5,-0.5"/>
                </g>
        </g>
        <svg viewBox="0 0 15 15" width="100%" height="30px" preserveAspectRatio="xMaxYMin meet">
         <g id="arrow_out" transform="scale(0.3 0.3)">
          <a xlink:href="rpc__context__impl_8h__dep__incl_org.svg" target="_base">
           <rect id="button" ry="5" rx="5" y="6" x="6" height="38" width="38"
                fill="#f2f5e9" fill-opacity="0.5" stroke="#606060" stroke-width="1.0"/>
           <path id="arrow"
             d="M 11.500037,31.436501 C 11.940474,20.09759 22.043105,11.32322 32.158766,21.979434 L 37.068811,17.246167 C 37.068811,17.246167 37.088388,32 37.088388,32 L 22.160133,31.978069 C 22.160133,31.978069 26.997745,27.140456 26.997745,27.140456 C 18.528582,18.264221 13.291696,25.230495 11.500037,31.436501 z"
             style="fill:#404040;"/>
          </a>
         </g>
        </svg>
</svg>
