<?xml version="1.0" encoding="UTF-8" standalone="no"?>
<!DOCTYPE svg PUBLIC "-//W3C//DTD SVG 1.1//EN"
 "http://www.w3.org/Graphics/SVG/1.1/DTD/svg11.dtd">
<!-- Generated by graphviz version 2.43.0 (0)
 -->
<!-- Title: src/node/rpc/rpc_context_impl.h Pages: 1 -->
<svg width="1763pt" height="442pt"
 viewBox="0.00 0.00 1763.00 442.00" xmlns="http://www.w3.org/2000/svg" xmlns:xlink="http://www.w3.org/1999/xlink">
<g id="graph0" class="graph" transform="scale(1 1) rotate(0) translate(4 438)">
<title>src/node/rpc/rpc_context_impl.h</title>
<polygon fill="white" stroke="transparent" points="-4,4 -4,-438 1759,-438 1759,4 -4,4"/>
<!-- Node1 -->
<g id="node1" class="node">
<title>Node1</title>
<g id="a_node1"><a xlink:title=" ">
<polygon fill="#bfbfbf" stroke="black" points="604,-403.5 604,-433.5 740,-433.5 740,-403.5 604,-403.5"/>
<text text-anchor="start" x="612" y="-421.5" font-family="Helvetica,sans-Serif" font-size="10.00">src/node/rpc/rpc_context</text>
<text text-anchor="middle" x="672" y="-410.5" font-family="Helvetica,sans-Serif" font-size="10.00">_impl.h</text>
</a>
</g>
</g>
<!-- Node2 -->
<g id="node2" class="node">
<title>Node2</title>
<g id="a_node2"><a xlink:href="rpc__context_8h.html" target="_top" xlink:title=" ">
<polygon fill="white" stroke="black" points="438,-347.5 438,-366.5 538,-366.5 538,-347.5 438,-347.5"/>
<text text-anchor="middle" x="488" y="-354.5" font-family="Helvetica,sans-Serif" font-size="10.00">ccf/rpc_context.h</text>
</a>
</g>
</g>
<!-- Node1&#45;&gt;Node2 -->
<g id="edge1" class="edge">
<title>Node1&#45;&gt;Node2</title>
<path fill="none" stroke="midnightblue" d="M628.39,-403.4C596.6,-393.12 554.03,-379.35 524.13,-369.68"/>
<polygon fill="midnightblue" stroke="midnightblue" points="525.1,-366.32 514.51,-366.57 522.94,-372.98 525.1,-366.32"/>
</g>
<!-- Node33 -->
<g id="node33" class="node">
<title>Node33</title>
<g id="a_node33"><a xlink:href="claims_8h.html" target="_top" xlink:title=" ">
<polygon fill="white" stroke="black" points="903.5,-347.5 903.5,-366.5 1006.5,-366.5 1006.5,-347.5 903.5,-347.5"/>
<text text-anchor="middle" x="955" y="-354.5" font-family="Helvetica,sans-Serif" font-size="10.00">node/rpc/claims.h</text>
</a>
</g>
</g>
<!-- Node1&#45;&gt;Node33 -->
<g id="edge49" class="edge">
<title>Node1&#45;&gt;Node33</title>
<path fill="none" stroke="midnightblue" d="M738.71,-403.47C789.56,-392.78 858.49,-378.29 904.74,-368.57"/>
<polygon fill="midnightblue" stroke="midnightblue" points="905.48,-371.99 914.54,-366.51 904.03,-365.14 905.48,-371.99"/>
</g>
<!-- Node3 -->
<g id="node3" class="node">
<title>Node3</title>
<g id="a_node3"><a xlink:href="claims__digest_8h.html" target="_top" xlink:title=" ">
<polygon fill="white" stroke="black" points="900,-286 900,-305 1010,-305 1010,-286 900,-286"/>
<text text-anchor="middle" x="955" y="-293" font-family="Helvetica,sans-Serif" font-size="10.00">ccf/claims_digest.h</text>
</a>
</g>
</g>
<!-- Node2&#45;&gt;Node3 -->
<g id="edge2" class="edge">
<title>Node2&#45;&gt;Node3</title>
<path fill="none" stroke="midnightblue" d="M538.42,-349.58C623.53,-338.73 795.6,-316.81 889.77,-304.81"/>
<polygon fill="midnightblue" stroke="midnightblue" points="890.27,-308.28 899.75,-303.54 889.39,-301.33 890.27,-308.28"/>
</g>
<!-- Node8 -->
<g id="node8" class="node">
<title>Node8</title>
<g id="a_node8"><a xlink:title=" ">
<polygon fill="white" stroke="#bfbfbf" points="399.5,-0.5 399.5,-19.5 446.5,-19.5 446.5,-0.5 399.5,-0.5"/>
<text text-anchor="middle" x="423" y="-7.5" font-family="Helvetica,sans-Serif" font-size="10.00">vector</text>
</a>
</g>
</g>
<!-- Node2&#45;&gt;Node8 -->
<g id="edge48" class="edge">
<title>Node2&#45;&gt;Node8</title>
<path fill="none" stroke="midnightblue" d="M437.81,-349.07C391.96,-341.73 328.68,-328.75 311,-311 286.43,-286.33 292,-269.82 292,-235 292,-235 292,-235 292,-121 292,-69.94 351.09,-37.85 389.9,-22.28"/>
<polygon fill="midnightblue" stroke="midnightblue" points="391.2,-25.53 399.28,-18.67 388.69,-18.99 391.2,-25.53"/>
</g>
<!-- Node20 -->
<g id="node20" class="node">
<title>Node20</title>
<g id="a_node20"><a xlink:href="frame__format_8h.html" target="_top" xlink:title=" ">
<polygon fill="white" stroke="black" points="474,-286 474,-305 584,-305 584,-286 474,-286"/>
<text text-anchor="middle" x="529" y="-293" font-family="Helvetica,sans-Serif" font-size="10.00">ccf/frame_format.h</text>
</a>
</g>
</g>
<!-- Node2&#45;&gt;Node20 -->
<g id="edge24" class="edge">
<title>Node2&#45;&gt;Node20</title>
<path fill="none" stroke="midnightblue" d="M493.87,-347.48C499.96,-338.64 509.64,-324.59 517.3,-313.48"/>
<polygon fill="midnightblue" stroke="midnightblue" points="520.34,-315.23 523.14,-305.01 514.58,-311.26 520.34,-315.23"/>
</g>
<!-- Node21 -->
<g id="node21" class="node">
<title>Node21</title>
<g id="a_node21"><a xlink:href="http__consts_8h.html" target="_top" xlink:title=" ">
<polygon fill="white" stroke="black" points="602.5,-286 602.5,-305 701.5,-305 701.5,-286 602.5,-286"/>
<text text-anchor="middle" x="652" y="-293" font-family="Helvetica,sans-Serif" font-size="10.00">ccf/http_consts.h</text>
</a>
</g>
</g>
<!-- Node2&#45;&gt;Node21 -->
<g id="edge25" class="edge">
<title>Node2&#45;&gt;Node21</title>
<path fill="none" stroke="midnightblue" d="M511.5,-347.48C539.63,-337.27 586.93,-320.11 618.79,-308.55"/>
<polygon fill="midnightblue" stroke="midnightblue" points="620.34,-311.71 628.55,-305.01 617.95,-305.13 620.34,-311.71"/>
</g>
<!-- Node22 -->
<g id="node22" class="node">
<title>Node22</title>
<g id="a_node22"><a xlink:href="http__header__map_8h.html" target="_top" xlink:title=" ">
<polygon fill="white" stroke="black" points="0,-224.5 0,-243.5 128,-243.5 128,-224.5 0,-224.5"/>
<text text-anchor="middle" x="64" y="-231.5" font-family="Helvetica,sans-Serif" font-size="10.00">ccf/http_header_map.h</text>
</a>
</g>
</g>
<!-- Node2&#45;&gt;Node22 -->
<g id="edge26" class="edge">
<title>Node2&#45;&gt;Node22</title>
<path fill="none" stroke="midnightblue" d="M437.84,-356.68C372.55,-355.89 256.05,-348.61 165,-311 131.08,-296.99 98.37,-268.84 79.77,-251.02"/>
<polygon fill="midnightblue" stroke="midnightblue" points="82.07,-248.37 72.48,-243.86 77.16,-253.36 82.07,-248.37"/>
</g>
<!-- Node23 -->
<g id="node23" class="node">
<title>Node23</title>
<g id="a_node23"><a xlink:href="odata__error_8h.html" target="_top" xlink:title=" ">
<polygon fill="white" stroke="black" points="320,-286 320,-305 418,-305 418,-286 320,-286"/>
<text text-anchor="middle" x="369" y="-293" font-family="Helvetica,sans-Serif" font-size="10.00">ccf/odata_error.h</text>
</a>
</g>
</g>
<!-- Node2&#45;&gt;Node23 -->
<g id="edge28" class="edge">
<title>Node2&#45;&gt;Node23</title>
<path fill="none" stroke="midnightblue" d="M470.95,-347.48C451.16,-337.58 418.28,-321.14 395.23,-309.62"/>
<polygon fill="midnightblue" stroke="midnightblue" points="396.53,-306.35 386.02,-305.01 393.4,-312.61 396.53,-306.35"/>
</g>
<!-- Node25 -->
<g id="node25" class="node">
<title>Node25</title>
<g id="a_node25"><a xlink:href="rest__verb_8h.html" target="_top" xlink:title=" ">
<polygon fill="white" stroke="black" points="174.5,-286 174.5,-305 263.5,-305 263.5,-286 174.5,-286"/>
<text text-anchor="middle" x="219" y="-293" font-family="Helvetica,sans-Serif" font-size="10.00">ccf/rest_verb.h</text>
</a>
</g>
</g>
<!-- Node2&#45;&gt;Node25 -->
<g id="edge31" class="edge">
<title>Node2&#45;&gt;Node25</title>
<path fill="none" stroke="midnightblue" d="M446.48,-347.48C404.06,-338.69 336.32,-324.41 278,-311 273.05,-309.86 267.88,-308.64 262.74,-307.4"/>
<polygon fill="midnightblue" stroke="midnightblue" points="263.51,-303.99 252.97,-305.03 261.86,-310.79 263.51,-303.99"/>
</g>
<!-- Node27 -->
<g id="node27" class="node">
<title>Node27</title>
<g id="a_node27"><a xlink:href="signed__req_8h.html" target="_top" xlink:title=" ">
<polygon fill="white" stroke="black" points="720,-280.5 720,-310.5 824,-310.5 824,-280.5 720,-280.5"/>
<text text-anchor="start" x="728" y="-298.5" font-family="Helvetica,sans-Serif" font-size="10.00">ccf/service/signed</text>
<text text-anchor="middle" x="772" y="-287.5" font-family="Helvetica,sans-Serif" font-size="10.00">_req.h</text>
</a>
</g>
</g>
<!-- Node2&#45;&gt;Node27 -->
<g id="edge34" class="edge">
<title>Node2&#45;&gt;Node27</title>
<path fill="none" stroke="midnightblue" d="M532.52,-347.48C575.49,-339.16 642.62,-325.88 709.86,-311.21"/>
<polygon fill="midnightblue" stroke="midnightblue" points="710.76,-314.6 719.78,-309.04 709.27,-307.76 710.76,-314.6"/>
</g>
<!-- Node29 -->
<g id="node29" class="node">
<title>Node29</title>
<g id="a_node29"><a xlink:href="tx__id_8h.html" target="_top" xlink:title=" ">
<polygon fill="white" stroke="black" points="520.5,-224.5 520.5,-243.5 587.5,-243.5 587.5,-224.5 520.5,-224.5"/>
<text text-anchor="middle" x="554" y="-231.5" font-family="Helvetica,sans-Serif" font-size="10.00">ccf/tx_id.h</text>
</a>
</g>
</g>
<!-- Node2&#45;&gt;Node29 -->
<g id="edge39" class="edge">
<title>Node2&#45;&gt;Node29</title>
<path fill="none" stroke="midnightblue" d="M481.12,-347.43C470.19,-332.72 451.42,-302.08 465,-280 475.18,-263.45 493.53,-252.76 510.94,-245.98"/>
<polygon fill="midnightblue" stroke="midnightblue" points="512.21,-249.24 520.46,-242.6 509.87,-242.65 512.21,-249.24"/>
</g>
<!-- Node4 -->
<g id="node4" class="node">
<title>Node4</title>
<g id="a_node4"><a xlink:href="sha256__hash_8h.html" target="_top" xlink:title=" ">
<polygon fill="white" stroke="black" points="944,-224.5 944,-243.5 1084,-243.5 1084,-224.5 944,-224.5"/>
<text text-anchor="middle" x="1014" y="-231.5" font-family="Helvetica,sans-Serif" font-size="10.00">ccf/crypto/sha256_hash.h</text>
</a>
</g>
</g>
<!-- Node3&#45;&gt;Node4 -->
<g id="edge3" class="edge">
<title>Node3&#45;&gt;Node4</title>
<path fill="none" stroke="midnightblue" d="M963.45,-285.98C972.57,-276.78 987.27,-261.96 998.48,-250.66"/>
<polygon fill="midnightblue" stroke="midnightblue" points="1001.01,-253.07 1005.56,-243.51 996.04,-248.15 1001.01,-253.07"/>
</g>
<!-- Node5 -->
<g id="node5" class="node">
<title>Node5</title>
<g id="a_node5"><a xlink:href="json_8h.html" target="_top" xlink:title=" ">
<polygon fill="white" stroke="black" points="797.5,-168.5 797.5,-187.5 874.5,-187.5 874.5,-168.5 797.5,-168.5"/>
<text text-anchor="middle" x="836" y="-175.5" font-family="Helvetica,sans-Serif" font-size="10.00">ccf/ds/json.h</text>
</a>
</g>
</g>
<!-- Node4&#45;&gt;Node5 -->
<g id="edge4" class="edge">
<title>Node4&#45;&gt;Node5</title>
<path fill="none" stroke="midnightblue" d="M985.8,-224.44C955.59,-215.28 907.49,-200.69 873.97,-190.52"/>
<polygon fill="midnightblue" stroke="midnightblue" points="874.66,-187.07 864.07,-187.52 872.63,-193.77 874.66,-187.07"/>
</g>
<!-- Node12 -->
<g id="node12" class="node">
<title>Node12</title>
<g id="a_node12"><a xlink:title=" ">
<polygon fill="white" stroke="#bfbfbf" points="1330,-0.5 1330,-19.5 1372,-19.5 1372,-0.5 1330,-0.5"/>
<text text-anchor="middle" x="1351" y="-7.5" font-family="Helvetica,sans-Serif" font-size="10.00">array</text>
</a>
</g>
</g>
<!-- Node4&#45;&gt;Node12 -->
<g id="edge21" class="edge">
<title>Node4&#45;&gt;Node12</title>
<path fill="none" stroke="midnightblue" d="M1084.09,-225.82C1188.84,-213.47 1378.31,-184.35 1419,-132 1446.19,-97.02 1399.25,-49.88 1370.64,-26.08"/>
<polygon fill="midnightblue" stroke="midnightblue" points="1372.77,-23.3 1362.79,-19.75 1368.38,-28.75 1372.77,-23.3"/>
</g>
<!-- Node16 -->
<g id="node16" class="node">
<title>Node16</title>
<g id="a_node16"><a xlink:title=" ">
<polygon fill="white" stroke="#bfbfbf" points="974.5,-56.5 974.5,-75.5 1053.5,-75.5 1053.5,-56.5 974.5,-56.5"/>
<text text-anchor="middle" x="1014" y="-63.5" font-family="Helvetica,sans-Serif" font-size="10.00">fmt/format.h</text>
</a>
</g>
</g>
<!-- Node4&#45;&gt;Node16 -->
<g id="edge23" class="edge">
<title>Node4&#45;&gt;Node16</title>
<path fill="none" stroke="midnightblue" d="M1014,-224.08C1014,-197.95 1014,-121.21 1014,-85.58"/>
<polygon fill="midnightblue" stroke="midnightblue" points="1017.5,-85.57 1014,-75.57 1010.5,-85.57 1017.5,-85.57"/>
</g>
<!-- Node19 -->
<g id="node19" class="node">
<title>Node19</title>
<g id="a_node19"><a xlink:title=" ">
<polygon fill="white" stroke="#bfbfbf" points="1042,-168.5 1042,-187.5 1082,-187.5 1082,-168.5 1042,-168.5"/>
<text text-anchor="middle" x="1062" y="-175.5" font-family="Helvetica,sans-Serif" font-size="10.00">span</text>
</a>
</g>
</g>
<!-- Node4&#45;&gt;Node19 -->
<g id="edge22" class="edge">
<title>Node4&#45;&gt;Node19</title>
<path fill="none" stroke="midnightblue" d="M1021.93,-224.08C1028.85,-216.3 1039.07,-204.8 1047.45,-195.37"/>
<polygon fill="midnightblue" stroke="midnightblue" points="1050.19,-197.55 1054.22,-187.75 1044.96,-192.9 1050.19,-197.55"/>
</g>
<!-- Node6 -->
<g id="node6" class="node">
<title>Node6</title>
<g id="a_node6"><a xlink:href="include_2ccf_2crypto_2base64_8h.html" target="_top" xlink:title=" ">
<polygon fill="white" stroke="black" points="396,-56.5 396,-75.5 508,-75.5 508,-56.5 396,-56.5"/>
<text text-anchor="middle" x="452" y="-63.5" font-family="Helvetica,sans-Serif" font-size="10.00">ccf/crypto/base64.h</text>
</a>
</g>
</g>
<!-- Node5&#45;&gt;Node6 -->
<g id="edge5" class="edge">
<title>Node5&#45;&gt;Node6</title>
<path fill="none" stroke="midnightblue" d="M797.41,-172.5C749.77,-166.32 666.64,-153.45 598,-132 553.98,-118.25 505.58,-94.95 477.04,-80.3"/>
<polygon fill="midnightblue" stroke="midnightblue" points="478.64,-77.19 468.16,-75.69 475.42,-83.41 478.64,-77.19"/>
</g>
<!-- Node9 -->
<g id="node9" class="node">
<title>Node9</title>
<g id="a_node9"><a xlink:href="include_2ccf_2ds_2json__schema_8h.html" target="_top" xlink:title=" ">
<polygon fill="white" stroke="black" points="640.5,-112.5 640.5,-131.5 761.5,-131.5 761.5,-112.5 640.5,-112.5"/>
<text text-anchor="middle" x="701" y="-119.5" font-family="Helvetica,sans-Serif" font-size="10.00">ccf/ds/json_schema.h</text>
</a>
</g>
</g>
<!-- Node5&#45;&gt;Node9 -->
<g id="edge8" class="edge">
<title>Node5&#45;&gt;Node9</title>
<path fill="none" stroke="midnightblue" d="M814.61,-168.44C792.29,-159.52 757.1,-145.44 731.79,-135.32"/>
<polygon fill="midnightblue" stroke="midnightblue" points="732.88,-131.98 722.29,-131.52 730.28,-138.48 732.88,-131.98"/>
</g>
<!-- Node5&#45;&gt;Node16 -->
<g id="edge19" class="edge">
<title>Node5&#45;&gt;Node16</title>
<path fill="none" stroke="midnightblue" d="M834.76,-168.17C833.35,-154.35 832.84,-127.59 847,-112 862.7,-94.72 920.97,-81.83 964.28,-74.37"/>
<polygon fill="midnightblue" stroke="midnightblue" points="965.09,-77.78 974.38,-72.68 963.94,-70.88 965.09,-77.78"/>
</g>
<!-- Node18 -->
<g id="node18" class="node">
<title>Node18</title>
<g id="a_node18"><a xlink:title=" ">
<polygon fill="white" stroke="#bfbfbf" points="930,-112.5 930,-131.5 986,-131.5 986,-112.5 930,-112.5"/>
<text text-anchor="middle" x="958" y="-119.5" font-family="Helvetica,sans-Serif" font-size="10.00">sstream</text>
</a>
</g>
</g>
<!-- Node5&#45;&gt;Node18 -->
<g id="edge20" class="edge">
<title>Node5&#45;&gt;Node18</title>
<path fill="none" stroke="midnightblue" d="M855.33,-168.44C875.32,-159.6 906.74,-145.69 929.56,-135.59"/>
<polygon fill="midnightblue" stroke="midnightblue" points="931.03,-138.76 938.76,-131.52 928.2,-132.36 931.03,-138.76"/>
</g>
<!-- Node7 -->
<g id="node7" class="node">
<title>Node7</title>
<g id="a_node7"><a xlink:title=" ">
<polygon fill="white" stroke="#bfbfbf" points="308,-0.5 308,-19.5 352,-19.5 352,-0.5 308,-0.5"/>
<text text-anchor="middle" x="330" y="-7.5" font-family="Helvetica,sans-Serif" font-size="10.00">string</text>
</a>
</g>
</g>
<!-- Node6&#45;&gt;Node7 -->
<g id="edge6" class="edge">
<title>Node6&#45;&gt;Node7</title>
<path fill="none" stroke="midnightblue" d="M432.67,-56.44C412.68,-47.6 381.26,-33.69 358.44,-23.59"/>
<polygon fill="midnightblue" stroke="midnightblue" points="359.8,-20.36 349.24,-19.52 356.97,-26.76 359.8,-20.36"/>
</g>
<!-- Node6&#45;&gt;Node8 -->
<g id="edge7" class="edge">
<title>Node6&#45;&gt;Node8</title>
<path fill="none" stroke="midnightblue" d="M447.21,-56.08C443.24,-48.69 437.47,-37.95 432.57,-28.81"/>
<polygon fill="midnightblue" stroke="midnightblue" points="435.51,-26.91 427.7,-19.75 429.35,-30.22 435.51,-26.91"/>
</g>
<!-- Node10 -->
<g id="node10" class="node">
<title>Node10</title>
<g id="a_node10"><a xlink:href="nonstd_8h.html" target="_top" xlink:title=" ">
<polygon fill="white" stroke="black" points="692,-56.5 692,-75.5 782,-75.5 782,-56.5 692,-56.5"/>
<text text-anchor="middle" x="737" y="-63.5" font-family="Helvetica,sans-Serif" font-size="10.00">ccf/ds/nonstd.h</text>
</a>
</g>
</g>
<!-- Node9&#45;&gt;Node10 -->
<g id="edge9" class="edge">
<title>Node9&#45;&gt;Node10</title>
<path fill="none" stroke="midnightblue" d="M706.94,-112.08C711.98,-104.53 719.34,-93.49 725.51,-84.23"/>
<polygon fill="midnightblue" stroke="midnightblue" points="728.53,-86.01 731.17,-75.75 722.71,-82.13 728.53,-86.01"/>
</g>
<!-- Node9&#45;&gt;Node16 -->
<g id="edge17" class="edge">
<title>Node9&#45;&gt;Node16</title>
<path fill="none" stroke="midnightblue" d="M750.6,-112.44C808.97,-102.37 905.37,-85.74 963.95,-75.64"/>
<polygon fill="midnightblue" stroke="midnightblue" points="964.81,-79.04 974.07,-73.89 963.62,-72.14 964.81,-79.04"/>
</g>
<!-- Node17 -->
<g id="node17" class="node">
<title>Node17</title>
<g id="a_node17"><a xlink:title=" ">
<polygon fill="white" stroke="#bfbfbf" points="564,-56.5 564,-75.5 674,-75.5 674,-56.5 564,-56.5"/>
<text text-anchor="middle" x="619" y="-63.5" font-family="Helvetica,sans-Serif" font-size="10.00">nlohmann/json.hpp</text>
</a>
</g>
</g>
<!-- Node9&#45;&gt;Node17 -->
<g id="edge18" class="edge">
<title>Node9&#45;&gt;Node17</title>
<path fill="none" stroke="midnightblue" d="M687.83,-112.32C675.15,-103.98 655.77,-91.21 640.79,-81.35"/>
<polygon fill="midnightblue" stroke="midnightblue" points="642.42,-78.23 632.14,-75.65 638.57,-84.08 642.42,-78.23"/>
</g>
<!-- Node10&#45;&gt;Node7 -->
<g id="edge13" class="edge">
<title>Node10&#45;&gt;Node7</title>
<path fill="none" stroke="midnightblue" d="M691.94,-57.34C688.92,-56.87 685.92,-56.42 683,-56 553.59,-37.25 520.58,-37.54 391,-20 381.6,-18.73 371.39,-17.26 362.07,-15.88"/>
<polygon fill="midnightblue" stroke="midnightblue" points="362.41,-12.39 352.01,-14.38 361.38,-19.31 362.41,-12.39"/>
</g>
<!-- Node10&#45;&gt;Node8 -->
<g id="edge16" class="edge">
<title>Node10&#45;&gt;Node8</title>
<path fill="none" stroke="midnightblue" d="M691.68,-57.21C627.88,-46.23 513.08,-26.49 456.45,-16.75"/>
<polygon fill="midnightblue" stroke="midnightblue" points="457.03,-13.3 446.58,-15.06 455.84,-20.2 457.03,-13.3"/>
</g>
<!-- Node11 -->
<g id="node11" class="node">
<title>Node11</title>
<g id="a_node11"><a xlink:title=" ">
<polygon fill="white" stroke="#bfbfbf" points="667,-0.5 667,-19.5 731,-19.5 731,-0.5 667,-0.5"/>
<text text-anchor="middle" x="699" y="-7.5" font-family="Helvetica,sans-Serif" font-size="10.00">algorithm</text>
</a>
</g>
</g>
<!-- Node10&#45;&gt;Node11 -->
<g id="edge10" class="edge">
<title>Node10&#45;&gt;Node11</title>
<path fill="none" stroke="midnightblue" d="M730.73,-56.08C725.36,-48.46 717.48,-37.26 710.92,-27.94"/>
<polygon fill="midnightblue" stroke="midnightblue" points="713.78,-25.91 705.16,-19.75 708.05,-29.94 713.78,-25.91"/>
</g>
<!-- Node10&#45;&gt;Node12 -->
<g id="edge11" class="edge">
<title>Node10&#45;&gt;Node12</title>
<path fill="none" stroke="midnightblue" d="M782.15,-61.03C900.66,-50.61 1218.41,-22.66 1319.6,-13.76"/>
<polygon fill="midnightblue" stroke="midnightblue" points="1320.12,-17.23 1329.77,-12.87 1319.51,-10.26 1320.12,-17.23"/>
</g>
<!-- Node13 -->
<g id="node13" class="node">
<title>Node13</title>
<g id="a_node13"><a xlink:title=" ">
<polygon fill="white" stroke="#bfbfbf" points="749.5,-0.5 749.5,-19.5 798.5,-19.5 798.5,-0.5 749.5,-0.5"/>
<text text-anchor="middle" x="774" y="-7.5" font-family="Helvetica,sans-Serif" font-size="10.00">cctype</text>
</a>
</g>
</g>
<!-- Node10&#45;&gt;Node13 -->
<g id="edge12" class="edge">
<title>Node10&#45;&gt;Node13</title>
<path fill="none" stroke="midnightblue" d="M743.11,-56.08C748.28,-48.53 755.85,-37.49 762.19,-28.23"/>
<polygon fill="midnightblue" stroke="midnightblue" points="765.24,-29.98 768,-19.75 759.46,-26.02 765.24,-29.98"/>
</g>
<!-- Node14 -->
<g id="node14" class="node">
<title>Node14</title>
<g id="a_node14"><a xlink:title=" ">
<polygon fill="white" stroke="#bfbfbf" points="537.5,-0.5 537.5,-19.5 610.5,-19.5 610.5,-0.5 537.5,-0.5"/>
<text text-anchor="middle" x="574" y="-7.5" font-family="Helvetica,sans-Serif" font-size="10.00">string_view</text>
</a>
</g>
</g>
<!-- Node10&#45;&gt;Node14 -->
<g id="edge14" class="edge">
<title>Node10&#45;&gt;Node14</title>
<path fill="none" stroke="midnightblue" d="M711.17,-56.44C683.75,-47.36 640.22,-32.94 609.57,-22.78"/>
<polygon fill="midnightblue" stroke="midnightblue" points="610.3,-19.34 599.71,-19.52 608.1,-25.98 610.3,-19.34"/>
</g>
<!-- Node15 -->
<g id="node15" class="node">
<title>Node15</title>
<g id="a_node15"><a xlink:title=" ">
<polygon fill="white" stroke="#bfbfbf" points="1100.5,-0.5 1100.5,-19.5 1169.5,-19.5 1169.5,-0.5 1100.5,-0.5"/>
<text text-anchor="middle" x="1135" y="-7.5" font-family="Helvetica,sans-Serif" font-size="10.00">type_traits</text>
</a>
</g>
</g>
<!-- Node10&#45;&gt;Node15 -->
<g id="edge15" class="edge">
<title>Node10&#45;&gt;Node15</title>
<path fill="none" stroke="midnightblue" d="M782.27,-58.86C859.03,-48.44 1013.84,-27.44 1090.25,-17.07"/>
<polygon fill="midnightblue" stroke="midnightblue" points="1091.06,-20.49 1100.49,-15.68 1090.11,-13.56 1091.06,-20.49"/>
</g>
<!-- Node22&#45;&gt;Node7 -->
<g id="edge27" class="edge">
<title>Node22&#45;&gt;Node7</title>
<path fill="none" stroke="midnightblue" d="M65.1,-224.39C69.23,-195.66 86.56,-102.25 142,-56 186.59,-18.8 256.79,-11.33 297.61,-10.39"/>
<polygon fill="midnightblue" stroke="midnightblue" points="297.85,-13.89 307.81,-10.28 297.78,-6.89 297.85,-13.89"/>
</g>
<!-- Node23&#45;&gt;Node5 -->
<g id="edge29" class="edge">
<title>Node23&#45;&gt;Node5</title>
<path fill="none" stroke="midnightblue" d="M410.33,-285.96C456.11,-276.36 532.05,-260.02 597,-244 667.6,-226.59 749.2,-203.82 796.48,-190.37"/>
<polygon fill="midnightblue" stroke="midnightblue" points="797.65,-193.67 806.31,-187.56 795.73,-186.94 797.65,-193.67"/>
</g>
<!-- Node24 -->
<g id="node24" class="node">
<title>Node24</title>
<g id="a_node24"><a xlink:href="http__status_8h.html" target="_top" xlink:title=" ">
<polygon fill="white" stroke="black" points="320,-224.5 320,-243.5 418,-243.5 418,-224.5 320,-224.5"/>
<text text-anchor="middle" x="369" y="-231.5" font-family="Helvetica,sans-Serif" font-size="10.00">ccf/http_status.h</text>
</a>
</g>
</g>
<!-- Node23&#45;&gt;Node24 -->
<g id="edge30" class="edge">
<title>Node23&#45;&gt;Node24</title>
<path fill="none" stroke="midnightblue" d="M369,-285.98C369,-277.58 369,-264.48 369,-253.66"/>
<polygon fill="midnightblue" stroke="midnightblue" points="372.5,-253.51 369,-243.51 365.5,-253.51 372.5,-253.51"/>
</g>
<!-- Node25&#45;&gt;Node7 -->
<g id="edge33" class="edge">
<title>Node25&#45;&gt;Node7</title>
<path fill="none" stroke="midnightblue" d="M209.22,-285.76C199.26,-276.36 184.04,-260.53 175,-244 160.56,-217.59 156,-209.1 156,-179 156,-179 156,-179 156,-121 156,-54.6 247.64,-26.64 297.91,-16.3"/>
<polygon fill="midnightblue" stroke="midnightblue" points="298.81,-19.69 307.96,-14.35 297.48,-12.82 298.81,-19.69"/>
</g>
<!-- Node26 -->
<g id="node26" class="node">
<title>Node26</title>
<g id="a_node26"><a xlink:title=" ">
<polygon fill="white" stroke="#bfbfbf" points="184,-224.5 184,-243.5 264,-243.5 264,-224.5 184,-224.5"/>
<text text-anchor="middle" x="224" y="-231.5" font-family="Helvetica,sans-Serif" font-size="10.00">llhttp/llhttp.h</text>
</a>
</g>
</g>
<!-- Node25&#45;&gt;Node26 -->
<g id="edge32" class="edge">
<title>Node25&#45;&gt;Node26</title>
<path fill="none" stroke="midnightblue" d="M219.72,-285.98C220.42,-277.58 221.52,-264.48 222.43,-253.66"/>
<polygon fill="midnightblue" stroke="midnightblue" points="225.94,-253.77 223.28,-243.51 218.96,-253.18 225.94,-253.77"/>
</g>
<!-- Node27&#45;&gt;Node5 -->
<g id="edge37" class="edge">
<title>Node27&#45;&gt;Node5</title>
<path fill="none" stroke="midnightblue" d="M797.55,-280.44C810.61,-271.78 825.33,-259.38 833,-244 840.17,-229.63 840.3,-211.17 839,-197.6"/>
<polygon fill="midnightblue" stroke="midnightblue" points="842.45,-197.01 837.69,-187.54 835.51,-197.91 842.45,-197.01"/>
</g>
<!-- Node27&#45;&gt;Node8 -->
<g id="edge38" class="edge">
<title>Node27&#45;&gt;Node8</title>
<path fill="none" stroke="midnightblue" d="M719.8,-281.89C716.83,-281.24 713.88,-280.6 711,-280 637.74,-264.68 427.69,-250.82 387,-188 355.1,-138.76 367.58,-111.36 387,-56 390.79,-45.21 398.37,-35.08 405.6,-27.18"/>
<polygon fill="midnightblue" stroke="midnightblue" points="408.33,-29.4 412.84,-19.81 403.33,-24.49 408.33,-29.4"/>
</g>
<!-- Node28 -->
<g id="node28" class="node">
<title>Node28</title>
<g id="a_node28"><a xlink:href="md__type_8h.html" target="_top" xlink:title=" ">
<polygon fill="white" stroke="black" points="704.5,-224.5 704.5,-243.5 823.5,-243.5 823.5,-224.5 704.5,-224.5"/>
<text text-anchor="middle" x="764" y="-231.5" font-family="Helvetica,sans-Serif" font-size="10.00">ccf/crypto/md_type.h</text>
</a>
</g>
</g>
<!-- Node27&#45;&gt;Node28 -->
<g id="edge35" class="edge">
<title>Node27&#45;&gt;Node28</title>
<path fill="none" stroke="midnightblue" d="M770.1,-280.4C769.03,-272.38 767.66,-262.23 766.5,-253.57"/>
<polygon fill="midnightblue" stroke="midnightblue" points="769.97,-253.1 765.16,-243.66 763.03,-254.04 769.97,-253.1"/>
</g>
<!-- Node28&#45;&gt;Node5 -->
<g id="edge36" class="edge">
<title>Node28&#45;&gt;Node5</title>
<path fill="none" stroke="midnightblue" d="M775.57,-224.32C786.42,-216.18 802.88,-203.84 815.88,-194.09"/>
<polygon fill="midnightblue" stroke="midnightblue" points="818.32,-196.63 824.22,-187.83 814.12,-191.03 818.32,-196.63"/>
</g>
<!-- Node29&#45;&gt;Node5 -->
<g id="edge40" class="edge">
<title>Node29&#45;&gt;Node5</title>
<path fill="none" stroke="midnightblue" d="M587.74,-226.54C637.38,-217.03 730.4,-199.22 787.4,-188.31"/>
<polygon fill="midnightblue" stroke="midnightblue" points="788.1,-191.74 797.27,-186.42 786.79,-184.86 788.1,-191.74"/>
</g>
<!-- Node29&#45;&gt;Node7 -->
<g id="edge46" class="edge">
<title>Node29&#45;&gt;Node7</title>
<path fill="none" stroke="midnightblue" d="M520.14,-227.78C477.08,-220.5 406.02,-206.12 387,-188 341.87,-145 332.39,-66.16 330.46,-30.02"/>
<polygon fill="midnightblue" stroke="midnightblue" points="333.95,-29.74 330.06,-19.88 326.96,-30.01 333.95,-29.74"/>
</g>
<!-- Node29&#45;&gt;Node14 -->
<g id="edge47" class="edge">
<title>Node29&#45;&gt;Node14</title>
<path fill="none" stroke="midnightblue" d="M552.87,-224.4C549.73,-198.57 541.95,-119.51 555,-56 556.92,-46.65 560.82,-36.83 564.59,-28.76"/>
<polygon fill="midnightblue" stroke="midnightblue" points="567.81,-30.14 569.14,-19.63 561.55,-27.02 567.81,-30.14"/>
</g>
<!-- Node29&#45;&gt;Node16 -->
<g id="edge43" class="edge">
<title>Node29&#45;&gt;Node16</title>
<path fill="none" stroke="midnightblue" d="M570.91,-224.48C613.82,-203.14 730.73,-146.62 833,-112 876.59,-97.24 927.58,-85 964.3,-77.03"/>
<polygon fill="midnightblue" stroke="midnightblue" points="965.22,-80.41 974.27,-74.9 963.76,-73.57 965.22,-80.41"/>
</g>
<!-- Node29&#45;&gt;Node17 -->
<g id="edge44" class="edge">
<title>Node29&#45;&gt;Node17</title>
<path fill="none" stroke="midnightblue" d="M557.49,-224.08C567.77,-197.83 598.03,-120.55 611.91,-85.12"/>
<polygon fill="midnightblue" stroke="midnightblue" points="615.26,-86.16 615.65,-75.57 608.74,-83.6 615.26,-86.16"/>
</g>
<!-- Node30 -->
<g id="node30" class="node">
<title>Node30</title>
<g id="a_node30"><a xlink:title=" ">
<polygon fill="white" stroke="#bfbfbf" points="464.5,-168.5 464.5,-187.5 525.5,-187.5 525.5,-168.5 464.5,-168.5"/>
<text text-anchor="middle" x="495" y="-175.5" font-family="Helvetica,sans-Serif" font-size="10.00">charconv</text>
</a>
</g>
</g>
<!-- Node29&#45;&gt;Node30 -->
<g id="edge41" class="edge">
<title>Node29&#45;&gt;Node30</title>
<path fill="none" stroke="midnightblue" d="M544.52,-224.32C535.8,-216.34 522.66,-204.31 512.1,-194.65"/>
<polygon fill="midnightblue" stroke="midnightblue" points="514.39,-192 504.65,-187.83 509.67,-197.17 514.39,-192"/>
</g>
<!-- Node31 -->
<g id="node31" class="node">
<title>Node31</title>
<g id="a_node31"><a xlink:title=" ">
<polygon fill="white" stroke="#bfbfbf" points="396,-168.5 396,-187.5 446,-187.5 446,-168.5 396,-168.5"/>
<text text-anchor="middle" x="421" y="-175.5" font-family="Helvetica,sans-Serif" font-size="10.00">cstdint</text>
</a>
</g>
</g>
<!-- Node29&#45;&gt;Node31 -->
<g id="edge42" class="edge">
<title>Node29&#45;&gt;Node31</title>
<path fill="none" stroke="midnightblue" d="M532.93,-224.44C510.94,-215.52 476.27,-201.44 451.34,-191.32"/>
<polygon fill="midnightblue" stroke="midnightblue" points="452.56,-188.04 441.98,-187.52 449.92,-194.52 452.56,-188.04"/>
</g>
<!-- Node32 -->
<g id="node32" class="node">
<title>Node32</title>
<g id="a_node32"><a xlink:title=" ">
<polygon fill="white" stroke="#bfbfbf" points="856,-112.5 856,-131.5 912,-131.5 912,-112.5 856,-112.5"/>
<text text-anchor="middle" x="884" y="-119.5" font-family="Helvetica,sans-Serif" font-size="10.00">optional</text>
</a>
</g>
</g>
<!-- Node29&#45;&gt;Node32 -->
<g id="edge45" class="edge">
<title>Node29&#45;&gt;Node32</title>
<path fill="none" stroke="midnightblue" d="M587.72,-227.24C626.35,-220.13 691.26,-206.67 745,-188 750.7,-186.02 817.93,-154.3 856.76,-135.91"/>
<polygon fill="midnightblue" stroke="midnightblue" points="858.43,-139 865.97,-131.55 855.43,-132.67 858.43,-139"/>
</g>
<!-- Node33&#45;&gt;Node3 -->
<g id="edge50" class="edge">
<title>Node33&#45;&gt;Node3</title>
<path fill="none" stroke="midnightblue" d="M955,-347.48C955,-339.08 955,-325.98 955,-315.16"/>
<polygon fill="midnightblue" stroke="midnightblue" points="958.5,-315.01 955,-305.01 951.5,-315.01 958.5,-315.01"/>
</g>
<!-- Node34 -->
<g id="node34" class="node">
<title>Node34</title>
<g id="a_node34"><a xlink:href="logger_8h.html" target="_top" xlink:title=" ">
<polygon fill="white" stroke="black" points="1102.5,-168.5 1102.5,-187.5 1189.5,-187.5 1189.5,-168.5 1102.5,-168.5"/>
<text text-anchor="middle" x="1146" y="-175.5" font-family="Helvetica,sans-Serif" font-size="10.00">ccf/ds/logger.h</text>
</a>
</g>
</g>
<!-- Node33&#45;&gt;Node34 -->
<g id="edge51" class="edge">
<title>Node33&#45;&gt;Node34</title>
<path fill="none" stroke="midnightblue" d="M968.09,-347.49C981.27,-338.75 1002.02,-324.57 1019,-311 1053.66,-283.3 1062.45,-276.17 1093,-244 1107.66,-228.56 1122.87,-209.55 1133.21,-196.08"/>
<polygon fill="midnightblue" stroke="midnightblue" points="1136.27,-197.84 1139.53,-187.76 1130.7,-193.61 1136.27,-197.84"/>
</g>
<!-- Node34&#45;&gt;Node15 -->
<g id="edge66" class="edge">
<title>Node34&#45;&gt;Node15</title>
<path fill="none" stroke="midnightblue" d="M1189.76,-175.77C1255.19,-172.9 1373.67,-163.4 1400,-132 1464.3,-55.31 1270.88,-24.88 1179.73,-15.02"/>
<polygon fill="midnightblue" stroke="midnightblue" points="1179.97,-11.53 1169.66,-13.97 1179.25,-18.49 1179.97,-11.53"/>
</g>
<!-- Node34&#45;&gt;Node16 -->
<g id="edge61" class="edge">
<title>Node34&#45;&gt;Node16</title>
<path fill="none" stroke="midnightblue" d="M1128.32,-168.4C1112.45,-160.23 1088.95,-146.99 1071,-132 1053.8,-117.64 1037.27,-97.92 1026.49,-83.98"/>
<polygon fill="midnightblue" stroke="midnightblue" points="1029.1,-81.63 1020.28,-75.77 1023.52,-85.85 1029.1,-81.63"/>
</g>
<!-- Node34&#45;&gt;Node17 -->
<g id="edge63" class="edge">
<title>Node34&#45;&gt;Node17</title>
<path fill="none" stroke="midnightblue" d="M1102.22,-169.5C1098.43,-168.95 1094.65,-168.44 1091,-168 1040.21,-161.86 670.26,-165.96 632,-132 619.24,-120.68 616.9,-100.68 617.19,-85.84"/>
<polygon fill="midnightblue" stroke="midnightblue" points="620.69,-85.93 617.79,-75.74 613.7,-85.51 620.69,-85.93"/>
</g>
<!-- Node34&#45;&gt;Node18 -->
<g id="edge65" class="edge">
<title>Node34&#45;&gt;Node18</title>
<path fill="none" stroke="midnightblue" d="M1116.21,-168.44C1083.7,-159.11 1031.56,-144.13 996.09,-133.94"/>
<polygon fill="midnightblue" stroke="midnightblue" points="996.69,-130.47 986.11,-131.08 994.76,-137.2 996.69,-130.47"/>
</g>
<!-- Node34&#45;&gt;Node32 -->
<g id="edge64" class="edge">
<title>Node34&#45;&gt;Node32</title>
<path fill="none" stroke="midnightblue" d="M1102.33,-168.82C1059.05,-160.59 990.61,-147.24 922.32,-132.23"/>
<polygon fill="midnightblue" stroke="midnightblue" points="922.77,-128.74 912.25,-130 921.26,-135.58 922.77,-128.74"/>
</g>
<!-- Node35 -->
<g id="node35" class="node">
<title>Node35</title>
<g id="a_node35"><a xlink:href="enum__formatter_8h.html" target="_top" xlink:title=" ">
<polygon fill="white" stroke="black" points="1080,-112.5 1080,-131.5 1216,-131.5 1216,-112.5 1080,-112.5"/>
<text text-anchor="middle" x="1148" y="-119.5" font-family="Helvetica,sans-Serif" font-size="10.00">ccf/ds/enum_formatter.h</text>
</a>
</g>
</g>
<!-- Node34&#45;&gt;Node35 -->
<g id="edge52" class="edge">
<title>Node34&#45;&gt;Node35</title>
<path fill="none" stroke="midnightblue" d="M1146.33,-168.08C1146.59,-161.01 1146.97,-150.86 1147.3,-141.99"/>
<polygon fill="midnightblue" stroke="midnightblue" points="1150.8,-141.87 1147.68,-131.75 1143.81,-141.61 1150.8,-141.87"/>
</g>
<!-- Node36 -->
<g id="node36" class="node">
<title>Node36</title>
<g id="a_node36"><a xlink:href="thread__ids_8h.html" target="_top" xlink:title=" ">
<polygon fill="white" stroke="black" points="1521,-112.5 1521,-131.5 1629,-131.5 1629,-112.5 1521,-112.5"/>
<text text-anchor="middle" x="1575" y="-119.5" font-family="Helvetica,sans-Serif" font-size="10.00">ccf/ds/thread_ids.h</text>
</a>
</g>
</g>
<!-- Node34&#45;&gt;Node36 -->
<g id="edge54" class="edge">
<title>Node34&#45;&gt;Node36</title>
<path fill="none" stroke="midnightblue" d="M1189.89,-171.47C1265.9,-161.91 1422.32,-142.22 1510.64,-131.1"/>
<polygon fill="midnightblue" stroke="midnightblue" points="1511.31,-134.54 1520.8,-129.82 1510.44,-127.6 1511.31,-134.54"/>
</g>
<!-- Node41 -->
<g id="node41" class="node">
<title>Node41</title>
<g id="a_node41"><a xlink:title=" ">
<polygon fill="white" stroke="#bfbfbf" points="1234.5,-112.5 1234.5,-131.5 1313.5,-131.5 1313.5,-112.5 1234.5,-112.5"/>
<text text-anchor="middle" x="1274" y="-119.5" font-family="Helvetica,sans-Serif" font-size="10.00">fmt/chrono.h</text>
</a>
</g>
</g>
<!-- Node34&#45;&gt;Node41 -->
<g id="edge60" class="edge">
<title>Node34&#45;&gt;Node41</title>
<path fill="none" stroke="midnightblue" d="M1166.28,-168.44C1187.35,-159.56 1220.52,-145.56 1244.49,-135.45"/>
<polygon fill="midnightblue" stroke="midnightblue" points="1245.96,-138.63 1253.81,-131.52 1243.24,-132.18 1245.96,-138.63"/>
</g>
<!-- Node42 -->
<g id="node42" class="node">
<title>Node42</title>
<g id="a_node42"><a xlink:title=" ">
<polygon fill="white" stroke="#bfbfbf" points="1331,-112.5 1331,-131.5 1391,-131.5 1391,-112.5 1331,-112.5"/>
<text text-anchor="middle" x="1361" y="-119.5" font-family="Helvetica,sans-Serif" font-size="10.00">iostream</text>
</a>
</g>
</g>
<!-- Node34&#45;&gt;Node42 -->
<g id="edge62" class="edge">
<title>Node34&#45;&gt;Node42</title>
<path fill="none" stroke="midnightblue" d="M1180.07,-168.44C1218.38,-158.82 1280.53,-143.21 1321.09,-133.02"/>
<polygon fill="midnightblue" stroke="midnightblue" points="1322.06,-136.39 1330.91,-130.56 1320.36,-129.6 1322.06,-136.39"/>
</g>
<!-- Node35&#45;&gt;Node16 -->
<g id="edge53" class="edge">
<title>Node35&#45;&gt;Node16</title>
<path fill="none" stroke="midnightblue" d="M1126.77,-112.44C1104.62,-103.52 1069.68,-89.44 1044.56,-79.32"/>
<polygon fill="midnightblue" stroke="midnightblue" points="1045.72,-76.01 1035.13,-75.52 1043.1,-82.5 1045.72,-76.01"/>
</g>
<!-- Node36&#45;&gt;Node16 -->
<g id="edge55" class="edge">
<title>Node36&#45;&gt;Node16</title>
<path fill="none" stroke="midnightblue" d="M1520.95,-115.8C1412.26,-105.33 1168.64,-81.88 1063.67,-71.78"/>
<polygon fill="midnightblue" stroke="midnightblue" points="1063.95,-68.29 1053.66,-70.82 1063.28,-75.26 1063.95,-68.29"/>
</g>
<!-- Node37 -->
<g id="node37" class="node">
<title>Node37</title>
<g id="a_node37"><a xlink:title=" ">
<polygon fill="white" stroke="#bfbfbf" points="1485,-56.5 1485,-75.5 1571,-75.5 1571,-56.5 1485,-56.5"/>
<text text-anchor="middle" x="1528" y="-63.5" font-family="Helvetica,sans-Serif" font-size="10.00">fmt/ostream.h</text>
</a>
</g>
</g>
<!-- Node36&#45;&gt;Node37 -->
<g id="edge56" class="edge">
<title>Node36&#45;&gt;Node37</title>
<path fill="none" stroke="midnightblue" d="M1567.24,-112.08C1560.46,-104.3 1550.46,-92.8 1542.24,-83.37"/>
<polygon fill="midnightblue" stroke="midnightblue" points="1544.82,-81 1535.62,-75.75 1539.54,-85.59 1544.82,-81"/>
</g>
<!-- Node38 -->
<g id="node38" class="node">
<title>Node38</title>
<g id="a_node38"><a xlink:title=" ">
<polygon fill="white" stroke="#bfbfbf" points="1589,-56.5 1589,-75.5 1633,-75.5 1633,-56.5 1589,-56.5"/>
<text text-anchor="middle" x="1611" y="-63.5" font-family="Helvetica,sans-Serif" font-size="10.00">limits</text>
</a>
</g>
</g>
<!-- Node36&#45;&gt;Node38 -->
<g id="edge57" class="edge">
<title>Node36&#45;&gt;Node38</title>
<path fill="none" stroke="midnightblue" d="M1580.94,-112.08C1585.98,-104.53 1593.34,-93.49 1599.51,-84.23"/>
<polygon fill="midnightblue" stroke="midnightblue" points="1602.53,-86.01 1605.17,-75.75 1596.71,-82.13 1602.53,-86.01"/>
</g>
<!-- Node39 -->
<g id="node39" class="node">
<title>Node39</title>
<g id="a_node39"><a xlink:title=" ">
<polygon fill="white" stroke="#bfbfbf" points="1651,-56.5 1651,-75.5 1689,-75.5 1689,-56.5 1651,-56.5"/>
<text text-anchor="middle" x="1670" y="-63.5" font-family="Helvetica,sans-Serif" font-size="10.00">map</text>
</a>
</g>
</g>
<!-- Node36&#45;&gt;Node39 -->
<g id="edge58" class="edge">
<title>Node36&#45;&gt;Node39</title>
<path fill="none" stroke="midnightblue" d="M1590.26,-112.32C1605.22,-103.82 1628.25,-90.73 1645.73,-80.8"/>
<polygon fill="midnightblue" stroke="midnightblue" points="1647.81,-83.64 1654.77,-75.65 1644.35,-77.55 1647.81,-83.64"/>
</g>
<!-- Node40 -->
<g id="node40" class="node">
<title>Node40</title>
<g id="a_node40"><a xlink:title=" ">
<polygon fill="white" stroke="#bfbfbf" points="1707,-56.5 1707,-75.5 1755,-75.5 1755,-56.5 1707,-56.5"/>
<text text-anchor="middle" x="1731" y="-63.5" font-family="Helvetica,sans-Serif" font-size="10.00">thread</text>
</a>
</g>
</g>
<!-- Node36&#45;&gt;Node40 -->
<g id="edge59" class="edge">
<title>Node36&#45;&gt;Node40</title>
<path fill="none" stroke="midnightblue" d="M1599.72,-112.44C1626,-103.35 1667.75,-88.9 1697.09,-78.74"/>
<polygon fill="midnightblue" stroke="midnightblue" points="1698.6,-81.92 1706.91,-75.34 1696.31,-75.3 1698.6,-81.92"/>
</g>
</g>
</svg>
