<?xml version="1.0" encoding="UTF-8" standalone="no"?>
<!DOCTYPE svg PUBLIC "-//W3C//DTD SVG 1.1//EN"
 "http://www.w3.org/Graphics/SVG/1.1/DTD/svg11.dtd">
<!-- Generated by graphviz version 2.43.0 (0)
 -->
<!-- Title: include/ccf/rpc_context.h Pages: 1 -->
<svg width="1187pt" height="375pt"
 viewBox="0.00 0.00 1186.50 375.00" xmlns="http://www.w3.org/2000/svg" xmlns:xlink="http://www.w3.org/1999/xlink">
<g id="graph0" class="graph" transform="scale(1 1) rotate(0) translate(4 371)">
<title>include/ccf/rpc_context.h</title>
<polygon fill="white" stroke="transparent" points="-4,4 -4,-371 1182.5,-371 1182.5,4 -4,4"/>
<!-- Node1 -->
<g id="node1" class="node">
<title>Node1</title>
<g id="a_node1"><a xlink:title=" ">
<polygon fill="#bfbfbf" stroke="black" points="287,-347.5 287,-366.5 425,-366.5 425,-347.5 287,-347.5"/>
<text text-anchor="middle" x="356" y="-354.5" font-family="Helvetica,sans-Serif" font-size="10.00">include/ccf/rpc_context.h</text>
</a>
</g>
</g>
<!-- Node2 -->
<g id="node2" class="node">
<title>Node2</title>
<g id="a_node2"><a xlink:href="claims__digest_8h.html" target="_top" xlink:title=" ">
<polygon fill="white" stroke="black" points="419,-286 419,-305 529,-305 529,-286 419,-286"/>
<text text-anchor="middle" x="474" y="-293" font-family="Helvetica,sans-Serif" font-size="10.00">ccf/claims_digest.h</text>
</a>
</g>
</g>
<!-- Node1&#45;&gt;Node2 -->
<g id="edge1" class="edge">
<title>Node1&#45;&gt;Node2</title>
<path fill="none" stroke="midnightblue" d="M372.91,-347.48C392.53,-337.58 425.13,-321.14 447.99,-309.62"/>
<polygon fill="midnightblue" stroke="midnightblue" points="449.77,-312.64 457.12,-305.01 446.62,-306.39 449.77,-312.64"/>
</g>
<!-- Node7 -->
<g id="node7" class="node">
<title>Node7</title>
<g id="a_node7"><a xlink:title=" ">
<polygon fill="white" stroke="#bfbfbf" points="250.5,-0.5 250.5,-19.5 297.5,-19.5 297.5,-0.5 250.5,-0.5"/>
<text text-anchor="middle" x="274" y="-7.5" font-family="Helvetica,sans-Serif" font-size="10.00">vector</text>
</a>
</g>
</g>
<!-- Node1&#45;&gt;Node7 -->
<g id="edge47" class="edge">
<title>Node1&#45;&gt;Node7</title>
<path fill="none" stroke="midnightblue" d="M287,-353.73C205.39,-349.79 75.73,-339.17 37,-311 6.62,-288.9 0,-272.57 0,-235 0,-235 0,-235 0,-121 0,-69.82 166.7,-31.56 240.05,-17.2"/>
<polygon fill="midnightblue" stroke="midnightblue" points="241,-20.58 250.16,-15.25 239.68,-13.71 241,-20.58"/>
</g>
<!-- Node19 -->
<g id="node19" class="node">
<title>Node19</title>
<g id="a_node19"><a xlink:href="frame__format_8h.html" target="_top" xlink:title=" ">
<polygon fill="white" stroke="black" points="66,-286 66,-305 176,-305 176,-286 66,-286"/>
<text text-anchor="middle" x="121" y="-293" font-family="Helvetica,sans-Serif" font-size="10.00">ccf/frame_format.h</text>
</a>
</g>
</g>
<!-- Node1&#45;&gt;Node19 -->
<g id="edge23" class="edge">
<title>Node1&#45;&gt;Node19</title>
<path fill="none" stroke="midnightblue" d="M322.33,-347.48C280.8,-336.96 210.11,-319.06 164.5,-307.51"/>
<polygon fill="midnightblue" stroke="midnightblue" points="165.16,-304.07 154.61,-305.01 163.44,-310.86 165.16,-304.07"/>
</g>
<!-- Node20 -->
<g id="node20" class="node">
<title>Node20</title>
<g id="a_node20"><a xlink:href="http__consts_8h.html" target="_top" xlink:title=" ">
<polygon fill="white" stroke="black" points="194.5,-286 194.5,-305 293.5,-305 293.5,-286 194.5,-286"/>
<text text-anchor="middle" x="244" y="-293" font-family="Helvetica,sans-Serif" font-size="10.00">ccf/http_consts.h</text>
</a>
</g>
</g>
<!-- Node1&#45;&gt;Node20 -->
<g id="edge24" class="edge">
<title>Node1&#45;&gt;Node20</title>
<path fill="none" stroke="midnightblue" d="M339.95,-347.48C321.41,-337.62 290.66,-321.29 268.98,-309.77"/>
<polygon fill="midnightblue" stroke="midnightblue" points="270.49,-306.61 260.02,-305.01 267.21,-312.79 270.49,-306.61"/>
</g>
<!-- Node21 -->
<g id="node21" class="node">
<title>Node21</title>
<g id="a_node21"><a xlink:href="http__header__map_8h.html" target="_top" xlink:title=" ">
<polygon fill="white" stroke="black" points="200,-112.5 200,-131.5 328,-131.5 328,-112.5 200,-112.5"/>
<text text-anchor="middle" x="264" y="-119.5" font-family="Helvetica,sans-Serif" font-size="10.00">ccf/http_header_map.h</text>
</a>
</g>
</g>
<!-- Node1&#45;&gt;Node21 -->
<g id="edge25" class="edge">
<title>Node1&#45;&gt;Node21</title>
<path fill="none" stroke="midnightblue" d="M286.95,-355.62C208.05,-353.54 86.07,-344.77 57,-311 31.78,-281.69 36.51,-256.79 57,-224 89.21,-172.44 156.17,-146.5 205.24,-133.93"/>
<polygon fill="midnightblue" stroke="midnightblue" points="206.23,-137.3 215.11,-131.52 204.56,-130.5 206.23,-137.3"/>
</g>
<!-- Node22 -->
<g id="node22" class="node">
<title>Node22</title>
<g id="a_node22"><a xlink:href="odata__error_8h.html" target="_top" xlink:title=" ">
<polygon fill="white" stroke="black" points="547,-286 547,-305 645,-305 645,-286 547,-286"/>
<text text-anchor="middle" x="596" y="-293" font-family="Helvetica,sans-Serif" font-size="10.00">ccf/odata_error.h</text>
</a>
</g>
</g>
<!-- Node1&#45;&gt;Node22 -->
<g id="edge27" class="edge">
<title>Node1&#45;&gt;Node22</title>
<path fill="none" stroke="midnightblue" d="M390.56,-347.48C427.17,-338.45 486.67,-323.76 538,-311 542.61,-309.86 547.42,-308.66 552.21,-307.46"/>
<polygon fill="midnightblue" stroke="midnightblue" points="553.11,-310.84 561.96,-305.03 551.41,-304.05 553.11,-310.84"/>
</g>
<!-- Node24 -->
<g id="node24" class="node">
<title>Node24</title>
<g id="a_node24"><a xlink:href="rest__verb_8h.html" target="_top" xlink:title=" ">
<polygon fill="white" stroke="black" points="311.5,-286 311.5,-305 400.5,-305 400.5,-286 311.5,-286"/>
<text text-anchor="middle" x="356" y="-293" font-family="Helvetica,sans-Serif" font-size="10.00">ccf/rest_verb.h</text>
</a>
</g>
</g>
<!-- Node1&#45;&gt;Node24 -->
<g id="edge30" class="edge">
<title>Node1&#45;&gt;Node24</title>
<path fill="none" stroke="midnightblue" d="M356,-347.48C356,-339.08 356,-325.98 356,-315.16"/>
<polygon fill="midnightblue" stroke="midnightblue" points="359.5,-315.01 356,-305.01 352.5,-315.01 359.5,-315.01"/>
</g>
<!-- Node26 -->
<g id="node26" class="node">
<title>Node26</title>
<g id="a_node26"><a xlink:href="signed__req_8h.html" target="_top" xlink:title=" ">
<polygon fill="white" stroke="black" points="683,-280.5 683,-310.5 787,-310.5 787,-280.5 683,-280.5"/>
<text text-anchor="start" x="691" y="-298.5" font-family="Helvetica,sans-Serif" font-size="10.00">ccf/service/signed</text>
<text text-anchor="middle" x="735" y="-287.5" font-family="Helvetica,sans-Serif" font-size="10.00">_req.h</text>
</a>
</g>
</g>
<!-- Node1&#45;&gt;Node26 -->
<g id="edge33" class="edge">
<title>Node1&#45;&gt;Node26</title>
<path fill="none" stroke="midnightblue" d="M415.72,-347.47C475.94,-338.75 571.53,-324.61 654,-311 660.11,-309.99 666.46,-308.91 672.81,-307.81"/>
<polygon fill="midnightblue" stroke="midnightblue" points="673.5,-311.24 682.75,-306.07 672.3,-304.35 673.5,-311.24"/>
</g>
<!-- Node28 -->
<g id="node28" class="node">
<title>Node28</title>
<g id="a_node28"><a xlink:href="tx__id_8h.html" target="_top" xlink:title=" ">
<polygon fill="white" stroke="black" points="872.5,-224.5 872.5,-243.5 939.5,-243.5 939.5,-224.5 872.5,-224.5"/>
<text text-anchor="middle" x="906" y="-231.5" font-family="Helvetica,sans-Serif" font-size="10.00">ccf/tx_id.h</text>
</a>
</g>
</g>
<!-- Node1&#45;&gt;Node28 -->
<g id="edge38" class="edge">
<title>Node1&#45;&gt;Node28</title>
<path fill="none" stroke="midnightblue" d="M425.11,-353.12C531.41,-347.99 729.72,-335.44 796,-311 832.94,-297.38 869.22,-268.44 889.5,-250.46"/>
<polygon fill="midnightblue" stroke="midnightblue" points="891.87,-253.04 896.93,-243.73 887.17,-247.85 891.87,-253.04"/>
</g>
<!-- Node3 -->
<g id="node3" class="node">
<title>Node3</title>
<g id="a_node3"><a xlink:href="sha256__hash_8h.html" target="_top" xlink:title=" ">
<polygon fill="white" stroke="black" points="384,-224.5 384,-243.5 524,-243.5 524,-224.5 384,-224.5"/>
<text text-anchor="middle" x="454" y="-231.5" font-family="Helvetica,sans-Serif" font-size="10.00">ccf/crypto/sha256_hash.h</text>
</a>
</g>
</g>
<!-- Node2&#45;&gt;Node3 -->
<g id="edge2" class="edge">
<title>Node2&#45;&gt;Node3</title>
<path fill="none" stroke="midnightblue" d="M471.13,-285.98C468.28,-277.49 463.82,-264.2 460.16,-253.32"/>
<polygon fill="midnightblue" stroke="midnightblue" points="463.36,-251.87 456.86,-243.51 456.73,-254.1 463.36,-251.87"/>
</g>
<!-- Node4 -->
<g id="node4" class="node">
<title>Node4</title>
<g id="a_node4"><a xlink:href="json_8h.html" target="_top" xlink:title=" ">
<polygon fill="white" stroke="black" points="593.5,-168.5 593.5,-187.5 670.5,-187.5 670.5,-168.5 593.5,-168.5"/>
<text text-anchor="middle" x="632" y="-175.5" font-family="Helvetica,sans-Serif" font-size="10.00">ccf/ds/json.h</text>
</a>
</g>
</g>
<!-- Node3&#45;&gt;Node4 -->
<g id="edge3" class="edge">
<title>Node3&#45;&gt;Node4</title>
<path fill="none" stroke="midnightblue" d="M482.2,-224.44C512.41,-215.28 560.51,-200.69 594.03,-190.52"/>
<polygon fill="midnightblue" stroke="midnightblue" points="595.37,-193.77 603.93,-187.52 593.34,-187.07 595.37,-193.77"/>
</g>
<!-- Node11 -->
<g id="node11" class="node">
<title>Node11</title>
<g id="a_node11"><a xlink:title=" ">
<polygon fill="white" stroke="#bfbfbf" points="646,-0.5 646,-19.5 688,-19.5 688,-0.5 646,-0.5"/>
<text text-anchor="middle" x="667" y="-7.5" font-family="Helvetica,sans-Serif" font-size="10.00">array</text>
</a>
</g>
</g>
<!-- Node3&#45;&gt;Node11 -->
<g id="edge20" class="edge">
<title>Node3&#45;&gt;Node11</title>
<path fill="none" stroke="midnightblue" d="M458.37,-224.39C469.22,-203.53 499.05,-149.31 534,-112 567.84,-75.88 615.68,-43.02 643.81,-25.14"/>
<polygon fill="midnightblue" stroke="midnightblue" points="645.93,-27.94 652.55,-19.66 642.22,-22.01 645.93,-27.94"/>
</g>
<!-- Node15 -->
<g id="node15" class="node">
<title>Node15</title>
<g id="a_node15"><a xlink:title=" ">
<polygon fill="white" stroke="#bfbfbf" points="622.5,-56.5 622.5,-75.5 701.5,-75.5 701.5,-56.5 622.5,-56.5"/>
<text text-anchor="middle" x="662" y="-63.5" font-family="Helvetica,sans-Serif" font-size="10.00">fmt/format.h</text>
</a>
</g>
</g>
<!-- Node3&#45;&gt;Node15 -->
<g id="edge22" class="edge">
<title>Node3&#45;&gt;Node15</title>
<path fill="none" stroke="midnightblue" d="M467.66,-224.23C479.82,-215.95 497.56,-202.64 510,-188 535.13,-158.43 523.92,-137.7 553,-112 570.75,-96.32 594.71,-85.62 615.65,-78.6"/>
<polygon fill="midnightblue" stroke="midnightblue" points="616.86,-81.89 625.34,-75.54 614.75,-75.22 616.86,-81.89"/>
</g>
<!-- Node18 -->
<g id="node18" class="node">
<title>Node18</title>
<g id="a_node18"><a xlink:title=" ">
<polygon fill="white" stroke="#bfbfbf" points="428,-168.5 428,-187.5 468,-187.5 468,-168.5 428,-168.5"/>
<text text-anchor="middle" x="448" y="-175.5" font-family="Helvetica,sans-Serif" font-size="10.00">span</text>
</a>
</g>
</g>
<!-- Node3&#45;&gt;Node18 -->
<g id="edge21" class="edge">
<title>Node3&#45;&gt;Node18</title>
<path fill="none" stroke="midnightblue" d="M453.01,-224.08C452.21,-216.93 451.07,-206.64 450.08,-197.69"/>
<polygon fill="midnightblue" stroke="midnightblue" points="453.56,-197.3 448.97,-187.75 446.6,-198.08 453.56,-197.3"/>
</g>
<!-- Node5 -->
<g id="node5" class="node">
<title>Node5</title>
<g id="a_node5"><a xlink:href="include_2ccf_2crypto_2base64_8h.html" target="_top" xlink:title=" ">
<polygon fill="white" stroke="black" points="384,-56.5 384,-75.5 496,-75.5 496,-56.5 384,-56.5"/>
<text text-anchor="middle" x="440" y="-63.5" font-family="Helvetica,sans-Serif" font-size="10.00">ccf/crypto/base64.h</text>
</a>
</g>
</g>
<!-- Node4&#45;&gt;Node5 -->
<g id="edge4" class="edge">
<title>Node4&#45;&gt;Node5</title>
<path fill="none" stroke="midnightblue" d="M616.84,-168.39C600.93,-159.35 575.19,-144.7 553,-132 522.1,-114.31 486.5,-93.82 463.65,-80.64"/>
<polygon fill="midnightblue" stroke="midnightblue" points="465.39,-77.6 454.98,-75.64 461.89,-83.67 465.39,-77.6"/>
</g>
<!-- Node8 -->
<g id="node8" class="node">
<title>Node8</title>
<g id="a_node8"><a xlink:href="include_2ccf_2ds_2json__schema_8h.html" target="_top" xlink:title=" ">
<polygon fill="white" stroke="black" points="712.5,-112.5 712.5,-131.5 833.5,-131.5 833.5,-112.5 712.5,-112.5"/>
<text text-anchor="middle" x="773" y="-119.5" font-family="Helvetica,sans-Serif" font-size="10.00">ccf/ds/json_schema.h</text>
</a>
</g>
</g>
<!-- Node4&#45;&gt;Node8 -->
<g id="edge7" class="edge">
<title>Node4&#45;&gt;Node8</title>
<path fill="none" stroke="midnightblue" d="M654.34,-168.44C677.75,-159.48 714.74,-145.31 741.19,-135.18"/>
<polygon fill="midnightblue" stroke="midnightblue" points="742.68,-138.36 750.76,-131.52 740.17,-131.82 742.68,-138.36"/>
</g>
<!-- Node4&#45;&gt;Node15 -->
<g id="edge18" class="edge">
<title>Node4&#45;&gt;Node15</title>
<path fill="none" stroke="midnightblue" d="M634.35,-168.37C639.22,-150.54 650.46,-109.3 657.02,-85.27"/>
<polygon fill="midnightblue" stroke="midnightblue" points="660.4,-86.16 659.66,-75.59 653.65,-84.32 660.4,-86.16"/>
</g>
<!-- Node17 -->
<g id="node17" class="node">
<title>Node17</title>
<g id="a_node17"><a xlink:title=" ">
<polygon fill="white" stroke="#bfbfbf" points="562,-112.5 562,-131.5 618,-131.5 618,-112.5 562,-112.5"/>
<text text-anchor="middle" x="590" y="-119.5" font-family="Helvetica,sans-Serif" font-size="10.00">sstream</text>
</a>
</g>
</g>
<!-- Node4&#45;&gt;Node17 -->
<g id="edge19" class="edge">
<title>Node4&#45;&gt;Node17</title>
<path fill="none" stroke="midnightblue" d="M625.06,-168.08C619.07,-160.38 610.25,-149.03 602.95,-139.65"/>
<polygon fill="midnightblue" stroke="midnightblue" points="605.71,-137.5 596.81,-131.75 600.18,-141.79 605.71,-137.5"/>
</g>
<!-- Node6 -->
<g id="node6" class="node">
<title>Node6</title>
<g id="a_node6"><a xlink:title=" ">
<polygon fill="white" stroke="#bfbfbf" points="418,-0.5 418,-19.5 462,-19.5 462,-0.5 418,-0.5"/>
<text text-anchor="middle" x="440" y="-7.5" font-family="Helvetica,sans-Serif" font-size="10.00">string</text>
</a>
</g>
</g>
<!-- Node5&#45;&gt;Node6 -->
<g id="edge5" class="edge">
<title>Node5&#45;&gt;Node6</title>
<path fill="none" stroke="midnightblue" d="M440,-56.08C440,-49.01 440,-38.86 440,-29.99"/>
<polygon fill="midnightblue" stroke="midnightblue" points="443.5,-29.75 440,-19.75 436.5,-29.75 443.5,-29.75"/>
</g>
<!-- Node5&#45;&gt;Node7 -->
<g id="edge6" class="edge">
<title>Node5&#45;&gt;Node7</title>
<path fill="none" stroke="midnightblue" d="M413.7,-56.44C384.91,-47.08 338.68,-32.04 307.36,-21.85"/>
<polygon fill="midnightblue" stroke="midnightblue" points="308.35,-18.49 297.76,-18.73 306.19,-25.15 308.35,-18.49"/>
</g>
<!-- Node9 -->
<g id="node9" class="node">
<title>Node9</title>
<g id="a_node9"><a xlink:href="nonstd_8h.html" target="_top" xlink:title=" ">
<polygon fill="white" stroke="black" points="915,-56.5 915,-75.5 1005,-75.5 1005,-56.5 915,-56.5"/>
<text text-anchor="middle" x="960" y="-63.5" font-family="Helvetica,sans-Serif" font-size="10.00">ccf/ds/nonstd.h</text>
</a>
</g>
</g>
<!-- Node8&#45;&gt;Node9 -->
<g id="edge8" class="edge">
<title>Node8&#45;&gt;Node9</title>
<path fill="none" stroke="midnightblue" d="M802.63,-112.44C834.5,-103.24 885.33,-88.56 920.56,-78.39"/>
<polygon fill="midnightblue" stroke="midnightblue" points="921.87,-81.65 930.51,-75.52 919.93,-74.93 921.87,-81.65"/>
</g>
<!-- Node8&#45;&gt;Node15 -->
<g id="edge16" class="edge">
<title>Node8&#45;&gt;Node15</title>
<path fill="none" stroke="midnightblue" d="M755.17,-112.32C737.28,-103.62 709.52,-90.12 688.95,-80.11"/>
<polygon fill="midnightblue" stroke="midnightblue" points="690.31,-76.88 679.79,-75.65 687.25,-83.18 690.31,-76.88"/>
</g>
<!-- Node16 -->
<g id="node16" class="node">
<title>Node16</title>
<g id="a_node16"><a xlink:title=" ">
<polygon fill="white" stroke="#bfbfbf" points="727,-56.5 727,-75.5 837,-75.5 837,-56.5 727,-56.5"/>
<text text-anchor="middle" x="782" y="-63.5" font-family="Helvetica,sans-Serif" font-size="10.00">nlohmann/json.hpp</text>
</a>
</g>
</g>
<!-- Node8&#45;&gt;Node16 -->
<g id="edge17" class="edge">
<title>Node8&#45;&gt;Node16</title>
<path fill="none" stroke="midnightblue" d="M774.49,-112.08C775.68,-104.93 777.39,-94.64 778.88,-85.69"/>
<polygon fill="midnightblue" stroke="midnightblue" points="782.35,-86.19 780.54,-75.75 775.45,-85.04 782.35,-86.19"/>
</g>
<!-- Node9&#45;&gt;Node6 -->
<g id="edge12" class="edge">
<title>Node9&#45;&gt;Node6</title>
<path fill="none" stroke="midnightblue" d="M914.94,-57.87C910.24,-57.2 905.52,-56.57 901,-56 740.53,-35.94 547.68,-19.63 472.36,-13.55"/>
<polygon fill="midnightblue" stroke="midnightblue" points="472.37,-10.04 462.12,-12.73 471.81,-17.02 472.37,-10.04"/>
</g>
<!-- Node9&#45;&gt;Node7 -->
<g id="edge15" class="edge">
<title>Node9&#45;&gt;Node7</title>
<path fill="none" stroke="midnightblue" d="M914.79,-61.43C893.86,-59.77 868.66,-57.79 846,-56 641.55,-39.89 395.99,-20.59 307.68,-13.65"/>
<polygon fill="midnightblue" stroke="midnightblue" points="307.95,-10.16 297.7,-12.86 307.4,-17.14 307.95,-10.16"/>
</g>
<!-- Node10 -->
<g id="node10" class="node">
<title>Node10</title>
<g id="a_node10"><a xlink:title=" ">
<polygon fill="white" stroke="#bfbfbf" points="1013,-0.5 1013,-19.5 1077,-19.5 1077,-0.5 1013,-0.5"/>
<text text-anchor="middle" x="1045" y="-7.5" font-family="Helvetica,sans-Serif" font-size="10.00">algorithm</text>
</a>
</g>
</g>
<!-- Node9&#45;&gt;Node10 -->
<g id="edge9" class="edge">
<title>Node9&#45;&gt;Node10</title>
<path fill="none" stroke="midnightblue" d="M973.66,-56.32C986.92,-47.9 1007.27,-34.97 1022.85,-25.07"/>
<polygon fill="midnightblue" stroke="midnightblue" points="1024.81,-27.97 1031.38,-19.65 1021.06,-22.06 1024.81,-27.97"/>
</g>
<!-- Node9&#45;&gt;Node11 -->
<g id="edge10" class="edge">
<title>Node9&#45;&gt;Node11</title>
<path fill="none" stroke="midnightblue" d="M914.86,-56.68C854.79,-45.61 750.12,-26.32 698.14,-16.74"/>
<polygon fill="midnightblue" stroke="midnightblue" points="698.64,-13.27 688.17,-14.9 697.37,-20.16 698.64,-13.27"/>
</g>
<!-- Node12 -->
<g id="node12" class="node">
<title>Node12</title>
<g id="a_node12"><a xlink:title=" ">
<polygon fill="white" stroke="#bfbfbf" points="858.5,-0.5 858.5,-19.5 907.5,-19.5 907.5,-0.5 858.5,-0.5"/>
<text text-anchor="middle" x="883" y="-7.5" font-family="Helvetica,sans-Serif" font-size="10.00">cctype</text>
</a>
</g>
</g>
<!-- Node9&#45;&gt;Node12 -->
<g id="edge11" class="edge">
<title>Node9&#45;&gt;Node12</title>
<path fill="none" stroke="midnightblue" d="M947.63,-56.32C935.84,-48.06 917.87,-35.45 903.86,-25.63"/>
<polygon fill="midnightblue" stroke="midnightblue" points="905.54,-22.53 895.34,-19.65 901.52,-28.26 905.54,-22.53"/>
</g>
<!-- Node13 -->
<g id="node13" class="node">
<title>Node13</title>
<g id="a_node13"><a xlink:title=" ">
<polygon fill="white" stroke="#bfbfbf" points="1105.5,-0.5 1105.5,-19.5 1178.5,-19.5 1178.5,-0.5 1105.5,-0.5"/>
<text text-anchor="middle" x="1142" y="-7.5" font-family="Helvetica,sans-Serif" font-size="10.00">string_view</text>
</a>
</g>
</g>
<!-- Node9&#45;&gt;Node13 -->
<g id="edge13" class="edge">
<title>Node9&#45;&gt;Node13</title>
<path fill="none" stroke="midnightblue" d="M988.84,-56.44C1019.86,-47.24 1069.33,-32.56 1103.62,-22.39"/>
<polygon fill="midnightblue" stroke="midnightblue" points="1104.71,-25.72 1113.3,-19.52 1102.71,-19.01 1104.71,-25.72"/>
</g>
<!-- Node14 -->
<g id="node14" class="node">
<title>Node14</title>
<g id="a_node14"><a xlink:title=" ">
<polygon fill="white" stroke="#bfbfbf" points="925.5,-0.5 925.5,-19.5 994.5,-19.5 994.5,-0.5 925.5,-0.5"/>
<text text-anchor="middle" x="960" y="-7.5" font-family="Helvetica,sans-Serif" font-size="10.00">type_traits</text>
</a>
</g>
</g>
<!-- Node9&#45;&gt;Node14 -->
<g id="edge14" class="edge">
<title>Node9&#45;&gt;Node14</title>
<path fill="none" stroke="midnightblue" d="M960,-56.08C960,-49.01 960,-38.86 960,-29.99"/>
<polygon fill="midnightblue" stroke="midnightblue" points="963.5,-29.75 960,-19.75 956.5,-29.75 963.5,-29.75"/>
</g>
<!-- Node21&#45;&gt;Node6 -->
<g id="edge26" class="edge">
<title>Node21&#45;&gt;Node6</title>
<path fill="none" stroke="midnightblue" d="M272.98,-112.14C286.89,-98.75 314.86,-73.11 342,-56 363,-42.76 388.54,-31.16 408.28,-23.06"/>
<polygon fill="midnightblue" stroke="midnightblue" points="409.76,-26.23 417.74,-19.26 407.15,-19.74 409.76,-26.23"/>
</g>
<!-- Node22&#45;&gt;Node4 -->
<g id="edge28" class="edge">
<title>Node22&#45;&gt;Node4</title>
<path fill="none" stroke="midnightblue" d="M610.37,-285.75C623.22,-276.99 641.19,-262.22 649,-244 655.59,-228.62 649.46,-210.07 642.79,-196.73"/>
<polygon fill="midnightblue" stroke="midnightblue" points="645.69,-194.74 637.79,-187.68 639.57,-198.13 645.69,-194.74"/>
</g>
<!-- Node23 -->
<g id="node23" class="node">
<title>Node23</title>
<g id="a_node23"><a xlink:href="http__status_8h.html" target="_top" xlink:title=" ">
<polygon fill="white" stroke="black" points="542,-224.5 542,-243.5 640,-243.5 640,-224.5 542,-224.5"/>
<text text-anchor="middle" x="591" y="-231.5" font-family="Helvetica,sans-Serif" font-size="10.00">ccf/http_status.h</text>
</a>
</g>
</g>
<!-- Node22&#45;&gt;Node23 -->
<g id="edge29" class="edge">
<title>Node22&#45;&gt;Node23</title>
<path fill="none" stroke="midnightblue" d="M595.28,-285.98C594.58,-277.58 593.48,-264.48 592.57,-253.66"/>
<polygon fill="midnightblue" stroke="midnightblue" points="596.04,-253.18 591.72,-243.51 589.06,-253.77 596.04,-253.18"/>
</g>
<!-- Node24&#45;&gt;Node6 -->
<g id="edge32" class="edge">
<title>Node24&#45;&gt;Node6</title>
<path fill="none" stroke="midnightblue" d="M356,-285.81C356,-266.56 356,-218.9 356,-179 356,-179 356,-179 356,-121 356,-90.9 357.39,-80.41 375,-56 384.5,-42.83 399.1,-32.23 412.05,-24.62"/>
<polygon fill="midnightblue" stroke="midnightblue" points="414.04,-27.53 421.1,-19.63 410.66,-21.4 414.04,-27.53"/>
</g>
<!-- Node25 -->
<g id="node25" class="node">
<title>Node25</title>
<g id="a_node25"><a xlink:title=" ">
<polygon fill="white" stroke="#bfbfbf" points="66,-224.5 66,-243.5 146,-243.5 146,-224.5 66,-224.5"/>
<text text-anchor="middle" x="106" y="-231.5" font-family="Helvetica,sans-Serif" font-size="10.00">llhttp/llhttp.h</text>
</a>
</g>
</g>
<!-- Node24&#45;&gt;Node25 -->
<g id="edge31" class="edge">
<title>Node24&#45;&gt;Node25</title>
<path fill="none" stroke="midnightblue" d="M324.93,-285.95C317.43,-283.94 309.44,-281.85 302,-280 252.13,-267.59 194.82,-254.57 155.1,-245.75"/>
<polygon fill="midnightblue" stroke="midnightblue" points="155.67,-242.29 145.15,-243.54 154.15,-249.12 155.67,-242.29"/>
</g>
<!-- Node26&#45;&gt;Node4 -->
<g id="edge36" class="edge">
<title>Node26&#45;&gt;Node4</title>
<path fill="none" stroke="midnightblue" d="M777.4,-280.5C808.97,-267.79 843.63,-247.48 825,-224 820.44,-218.26 736.45,-200.22 680.78,-188.8"/>
<polygon fill="midnightblue" stroke="midnightblue" points="681.24,-185.33 670.74,-186.75 679.84,-192.18 681.24,-185.33"/>
</g>
<!-- Node26&#45;&gt;Node7 -->
<g id="edge37" class="edge">
<title>Node26&#45;&gt;Node7</title>
<path fill="none" stroke="midnightblue" d="M682.78,-284.76C673.22,-283.09 663.32,-281.43 654,-280 440.48,-247.13 296.84,-320.33 191,-132 168.3,-91.6 219.76,-47.53 251.46,-25.39"/>
<polygon fill="midnightblue" stroke="midnightblue" points="253.47,-28.25 259.79,-19.75 249.55,-22.46 253.47,-28.25"/>
</g>
<!-- Node27 -->
<g id="node27" class="node">
<title>Node27</title>
<g id="a_node27"><a xlink:href="md__type_8h.html" target="_top" xlink:title=" ">
<polygon fill="white" stroke="black" points="696.5,-224.5 696.5,-243.5 815.5,-243.5 815.5,-224.5 696.5,-224.5"/>
<text text-anchor="middle" x="756" y="-231.5" font-family="Helvetica,sans-Serif" font-size="10.00">ccf/crypto/md_type.h</text>
</a>
</g>
</g>
<!-- Node26&#45;&gt;Node27 -->
<g id="edge34" class="edge">
<title>Node26&#45;&gt;Node27</title>
<path fill="none" stroke="midnightblue" d="M739.98,-280.4C742.84,-272.29 746.47,-262.01 749.55,-253.28"/>
<polygon fill="midnightblue" stroke="midnightblue" points="752.92,-254.25 752.94,-243.66 746.32,-251.92 752.92,-254.25"/>
</g>
<!-- Node27&#45;&gt;Node4 -->
<g id="edge35" class="edge">
<title>Node27&#45;&gt;Node4</title>
<path fill="none" stroke="midnightblue" d="M736.35,-224.44C716.04,-215.6 684.1,-201.69 660.9,-191.59"/>
<polygon fill="midnightblue" stroke="midnightblue" points="662.12,-188.3 651.56,-187.52 659.33,-194.72 662.12,-188.3"/>
</g>
<!-- Node28&#45;&gt;Node4 -->
<g id="edge39" class="edge">
<title>Node28&#45;&gt;Node4</title>
<path fill="none" stroke="midnightblue" d="M872.4,-226.38C824.38,-216.91 735.82,-199.46 680.63,-188.58"/>
<polygon fill="midnightblue" stroke="midnightblue" points="681.22,-185.13 670.73,-186.63 679.87,-192 681.22,-185.13"/>
</g>
<!-- Node28&#45;&gt;Node6 -->
<g id="edge45" class="edge">
<title>Node28&#45;&gt;Node6</title>
<path fill="none" stroke="midnightblue" d="M906.09,-224.16C905.85,-194.7 900.72,-99.27 846,-56 816.84,-32.94 563.04,-17.46 472.18,-12.62"/>
<polygon fill="midnightblue" stroke="midnightblue" points="472.35,-9.12 462.18,-12.1 471.98,-16.12 472.35,-9.12"/>
</g>
<!-- Node28&#45;&gt;Node13 -->
<g id="edge46" class="edge">
<title>Node28&#45;&gt;Node13</title>
<path fill="none" stroke="midnightblue" d="M939.77,-231.62C998.54,-228.43 1115.77,-218.34 1141,-188 1178.94,-142.37 1160.21,-64.87 1148.72,-29.54"/>
<polygon fill="midnightblue" stroke="midnightblue" points="1151.88,-27.97 1145.32,-19.65 1145.26,-30.24 1151.88,-27.97"/>
</g>
<!-- Node28&#45;&gt;Node15 -->
<g id="edge42" class="edge">
<title>Node28&#45;&gt;Node15</title>
<path fill="none" stroke="midnightblue" d="M878.45,-224.5C836.83,-210.57 757.16,-179.61 704,-132 689.18,-118.73 677.45,-99.07 670.2,-84.84"/>
<polygon fill="midnightblue" stroke="midnightblue" points="673.24,-83.09 665.73,-75.62 666.94,-86.14 673.24,-83.09"/>
</g>
<!-- Node28&#45;&gt;Node16 -->
<g id="edge43" class="edge">
<title>Node28&#45;&gt;Node16</title>
<path fill="none" stroke="midnightblue" d="M902.04,-224.16C890.9,-199.55 859.09,-130.81 843,-112 832.57,-99.81 818.24,-89.02 806.09,-81.07"/>
<polygon fill="midnightblue" stroke="midnightblue" points="807.65,-77.92 797.32,-75.56 803.93,-83.84 807.65,-77.92"/>
</g>
<!-- Node29 -->
<g id="node29" class="node">
<title>Node29</title>
<g id="a_node29"><a xlink:title=" ">
<polygon fill="white" stroke="#bfbfbf" points="928.5,-168.5 928.5,-187.5 989.5,-187.5 989.5,-168.5 928.5,-168.5"/>
<text text-anchor="middle" x="959" y="-175.5" font-family="Helvetica,sans-Serif" font-size="10.00">charconv</text>
</a>
</g>
</g>
<!-- Node28&#45;&gt;Node29 -->
<g id="edge40" class="edge">
<title>Node28&#45;&gt;Node29</title>
<path fill="none" stroke="midnightblue" d="M914.75,-224.08C922.47,-216.22 933.9,-204.57 943.22,-195.08"/>
<polygon fill="midnightblue" stroke="midnightblue" points="945.9,-197.34 950.41,-187.75 940.91,-192.44 945.9,-197.34"/>
</g>
<!-- Node30 -->
<g id="node30" class="node">
<title>Node30</title>
<g id="a_node30"><a xlink:title=" ">
<polygon fill="white" stroke="#bfbfbf" points="1008,-168.5 1008,-187.5 1058,-187.5 1058,-168.5 1008,-168.5"/>
<text text-anchor="middle" x="1033" y="-175.5" font-family="Helvetica,sans-Serif" font-size="10.00">cstdint</text>
</a>
</g>
</g>
<!-- Node28&#45;&gt;Node30 -->
<g id="edge41" class="edge">
<title>Node28&#45;&gt;Node30</title>
<path fill="none" stroke="midnightblue" d="M926.12,-224.44C947.02,-215.56 979.93,-201.56 1003.72,-191.45"/>
<polygon fill="midnightblue" stroke="midnightblue" points="1005.14,-194.65 1012.97,-187.52 1002.4,-188.21 1005.14,-194.65"/>
</g>
<!-- Node31 -->
<g id="node31" class="node">
<title>Node31</title>
<g id="a_node31"><a xlink:title=" ">
<polygon fill="white" stroke="#bfbfbf" points="1076,-168.5 1076,-187.5 1132,-187.5 1132,-168.5 1076,-168.5"/>
<text text-anchor="middle" x="1104" y="-175.5" font-family="Helvetica,sans-Serif" font-size="10.00">optional</text>
</a>
</g>
</g>
<!-- Node28&#45;&gt;Node31 -->
<g id="edge44" class="edge">
<title>Node28&#45;&gt;Node31</title>
<path fill="none" stroke="midnightblue" d="M937.37,-224.44C972.26,-214.93 1028.61,-199.56 1065.97,-189.37"/>
<polygon fill="midnightblue" stroke="midnightblue" points="1067.25,-192.65 1075.97,-186.64 1065.41,-185.9 1067.25,-192.65"/>
</g>
</g>
</svg>
