<?xml version="1.0" encoding="UTF-8" standalone="no"?>
<!DOCTYPE svg PUBLIC "-//W3C//DTD SVG 1.1//EN"
 "http://www.w3.org/Graphics/SVG/1.1/DTD/svg11.dtd">
<!-- Generated by graphviz version 2.43.0 (0)
 -->
<!-- Title: src/host/rpc_connections.h Pages: 1 -->
<svg width="1808pt" height="308pt"
 viewBox="0.00 0.00 1808.15 308.00" xmlns="http://www.w3.org/2000/svg" xmlns:xlink="http://www.w3.org/1999/xlink">
<g id="graph0" class="graph" transform="scale(1 1) rotate(0) translate(4 304)">
<title>src/host/rpc_connections.h</title>
<polygon fill="white" stroke="transparent" points="-4,4 -4,-304 1804.15,-304 1804.15,4 -4,4"/>
<!-- Node1 -->
<g id="node1" class="node">
<title>Node1</title>
<g id="a_node1"><a xlink:title=" ">
<polygon fill="#bfbfbf" stroke="black" points="945.15,-280.5 945.15,-299.5 1091.15,-299.5 1091.15,-280.5 945.15,-280.5"/>
<text text-anchor="middle" x="1018.15" y="-287.5" font-family="Helvetica,sans-Serif" font-size="10.00">src/host/rpc_connections.h</text>
</a>
</g>
</g>
<!-- Node2 -->
<g id="node2" class="node">
<title>Node2</title>
<g id="a_node2"><a xlink:href="msg__types_8h.html" target="_top" xlink:title=" ">
<polygon fill="white" stroke="black" points="713.65,-224.5 713.65,-243.5 816.65,-243.5 816.65,-224.5 713.65,-224.5"/>
<text text-anchor="middle" x="765.15" y="-231.5" font-family="Helvetica,sans-Serif" font-size="10.00">../tls/msg_types.h</text>
</a>
</g>
</g>
<!-- Node1&#45;&gt;Node2 -->
<g id="edge1" class="edge">
<title>Node1&#45;&gt;Node2</title>
<path fill="none" stroke="midnightblue" d="M978.06,-280.44C933.83,-271 862.61,-255.8 814.86,-245.61"/>
<polygon fill="midnightblue" stroke="midnightblue" points="815.56,-242.18 805.05,-243.52 814.1,-249.03 815.56,-242.18"/>
</g>
<!-- Node26 -->
<g id="node26" class="node">
<title>Node26</title>
<g id="a_node26"><a xlink:href="tcp_8h.html" target="_top" xlink:title=" ">
<polygon fill="white" stroke="black" points="997.65,-224.5 997.65,-243.5 1038.65,-243.5 1038.65,-224.5 997.65,-224.5"/>
<text text-anchor="middle" x="1018.15" y="-231.5" font-family="Helvetica,sans-Serif" font-size="10.00">tcp.h</text>
</a>
</g>
</g>
<!-- Node1&#45;&gt;Node26 -->
<g id="edge37" class="edge">
<title>Node1&#45;&gt;Node26</title>
<path fill="none" stroke="midnightblue" d="M1018.15,-280.08C1018.15,-273.01 1018.15,-262.86 1018.15,-253.99"/>
<polygon fill="midnightblue" stroke="midnightblue" points="1021.65,-253.75 1018.15,-243.75 1014.65,-253.75 1021.65,-253.75"/>
</g>
<!-- Node43 -->
<g id="node43" class="node">
<title>Node43</title>
<g id="a_node43"><a xlink:title=" ">
<polygon fill="white" stroke="#bfbfbf" points="1056.65,-224.5 1056.65,-243.5 1149.65,-243.5 1149.65,-224.5 1056.65,-224.5"/>
<text text-anchor="middle" x="1103.15" y="-231.5" font-family="Helvetica,sans-Serif" font-size="10.00">unordered_map</text>
</a>
</g>
</g>
<!-- Node1&#45;&gt;Node43 -->
<g id="edge65" class="edge">
<title>Node1&#45;&gt;Node43</title>
<path fill="none" stroke="midnightblue" d="M1031.8,-280.32C1045.06,-271.9 1065.41,-258.97 1080.99,-249.07"/>
<polygon fill="midnightblue" stroke="midnightblue" points="1082.96,-251.97 1089.52,-243.65 1079.21,-246.06 1082.96,-251.97"/>
</g>
<!-- Node3 -->
<g id="node3" class="node">
<title>Node3</title>
<g id="a_node3"><a xlink:href="ring__buffer__types_8h.html" target="_top" xlink:title=" ">
<polygon fill="white" stroke="black" points="501.65,-168.5 501.65,-187.5 626.65,-187.5 626.65,-168.5 501.65,-168.5"/>
<text text-anchor="middle" x="564.15" y="-175.5" font-family="Helvetica,sans-Serif" font-size="10.00">ds/ring_buffer_types.h</text>
</a>
</g>
</g>
<!-- Node2&#45;&gt;Node3 -->
<g id="edge2" class="edge">
<title>Node2&#45;&gt;Node3</title>
<path fill="none" stroke="midnightblue" d="M733.3,-224.44C698.75,-215.16 643.46,-200.31 605.56,-190.13"/>
<polygon fill="midnightblue" stroke="midnightblue" points="606.41,-186.73 595.85,-187.52 604.59,-193.49 606.41,-186.73"/>
</g>
<!-- Node4 -->
<g id="node4" class="node">
<title>Node4</title>
<g id="a_node4"><a xlink:href="include_2ccf_2ds_2hash_8h.html" target="_top" xlink:title=" ">
<polygon fill="white" stroke="black" points="149.15,-112.5 149.15,-131.5 229.15,-131.5 229.15,-112.5 149.15,-112.5"/>
<text text-anchor="middle" x="189.15" y="-119.5" font-family="Helvetica,sans-Serif" font-size="10.00">ccf/ds/hash.h</text>
</a>
</g>
</g>
<!-- Node3&#45;&gt;Node4 -->
<g id="edge3" class="edge">
<title>Node3&#45;&gt;Node4</title>
<path fill="none" stroke="midnightblue" d="M504.73,-168.44C431.45,-157.89 308.2,-140.14 239.41,-130.24"/>
<polygon fill="midnightblue" stroke="midnightblue" points="239.66,-126.74 229.26,-128.78 238.66,-133.67 239.66,-126.74"/>
</g>
<!-- Node8 -->
<g id="node8" class="node">
<title>Node8</title>
<g id="a_node8"><a xlink:title=" ">
<polygon fill="white" stroke="#bfbfbf" points="300.65,-0.5 300.65,-19.5 347.65,-19.5 347.65,-0.5 300.65,-0.5"/>
<text text-anchor="middle" x="324.15" y="-7.5" font-family="Helvetica,sans-Serif" font-size="10.00">vector</text>
</a>
</g>
</g>
<!-- Node3&#45;&gt;Node8 -->
<g id="edge36" class="edge">
<title>Node3&#45;&gt;Node8</title>
<path fill="none" stroke="midnightblue" d="M526.79,-168.45C500.79,-161.37 466.09,-149.58 439.15,-132 394.83,-103.08 355.23,-53.87 336.16,-28.01"/>
<polygon fill="midnightblue" stroke="midnightblue" points="338.79,-25.68 330.1,-19.63 333.12,-29.78 338.79,-25.68"/>
</g>
<!-- Node11 -->
<g id="node11" class="node">
<title>Node11</title>
<g id="a_node11"><a xlink:href="nonstd_8h.html" target="_top" xlink:title=" ">
<polygon fill="white" stroke="black" points="446.15,-56.5 446.15,-75.5 536.15,-75.5 536.15,-56.5 446.15,-56.5"/>
<text text-anchor="middle" x="491.15" y="-63.5" font-family="Helvetica,sans-Serif" font-size="10.00">ccf/ds/nonstd.h</text>
</a>
</g>
</g>
<!-- Node3&#45;&gt;Node11 -->
<g id="edge12" class="edge">
<title>Node3&#45;&gt;Node11</title>
<path fill="none" stroke="midnightblue" d="M558.42,-168.37C546.37,-150.22 518.22,-107.8 502.42,-83.99"/>
<polygon fill="midnightblue" stroke="midnightblue" points="505.29,-81.99 496.85,-75.59 499.46,-85.86 505.29,-81.99"/>
</g>
<!-- Node14 -->
<g id="node14" class="node">
<title>Node14</title>
<g id="a_node14"><a xlink:title=" ">
<polygon fill="white" stroke="#bfbfbf" points="607.15,-0.5 607.15,-19.5 651.15,-19.5 651.15,-0.5 607.15,-0.5"/>
<text text-anchor="middle" x="629.15" y="-7.5" font-family="Helvetica,sans-Serif" font-size="10.00">string</text>
</a>
</g>
</g>
<!-- Node3&#45;&gt;Node14 -->
<g id="edge35" class="edge">
<title>Node3&#45;&gt;Node14</title>
<path fill="none" stroke="midnightblue" d="M563.82,-168.23C563.4,-147.48 564.49,-94.26 584.15,-56 590.1,-44.41 600.11,-33.95 609.19,-26.04"/>
<polygon fill="midnightblue" stroke="midnightblue" points="611.6,-28.58 617.11,-19.53 607.16,-23.17 611.6,-28.58"/>
</g>
<!-- Node17 -->
<g id="node17" class="node">
<title>Node17</title>
<g id="a_node17"><a xlink:href="serializer_8h.html" target="_top" xlink:title=" ">
<polygon fill="white" stroke="black" points="594.15,-112.5 594.15,-131.5 664.15,-131.5 664.15,-112.5 594.15,-112.5"/>
<text text-anchor="middle" x="629.15" y="-119.5" font-family="Helvetica,sans-Serif" font-size="10.00">serializer.h</text>
</a>
</g>
</g>
<!-- Node3&#45;&gt;Node17 -->
<g id="edge20" class="edge">
<title>Node3&#45;&gt;Node17</title>
<path fill="none" stroke="midnightblue" d="M574.59,-168.32C584.29,-160.26 598.96,-148.08 610.65,-138.37"/>
<polygon fill="midnightblue" stroke="midnightblue" points="613.06,-140.92 618.51,-131.83 608.58,-135.53 613.06,-140.92"/>
</g>
<!-- Node23 -->
<g id="node23" class="node">
<title>Node23</title>
<g id="a_node23"><a xlink:title=" ">
<polygon fill="white" stroke="#bfbfbf" points="448.15,-112.5 448.15,-131.5 498.15,-131.5 498.15,-112.5 448.15,-112.5"/>
<text text-anchor="middle" x="473.15" y="-119.5" font-family="Helvetica,sans-Serif" font-size="10.00">atomic</text>
</a>
</g>
</g>
<!-- Node3&#45;&gt;Node23 -->
<g id="edge32" class="edge">
<title>Node3&#45;&gt;Node23</title>
<path fill="none" stroke="midnightblue" d="M549.52,-168.32C535.2,-159.82 513.13,-146.73 496.4,-136.8"/>
<polygon fill="midnightblue" stroke="midnightblue" points="498.12,-133.75 487.73,-131.65 494.54,-139.77 498.12,-133.75"/>
</g>
<!-- Node24 -->
<g id="node24" class="node">
<title>Node24</title>
<g id="a_node24"><a xlink:title=" ">
<polygon fill="white" stroke="#bfbfbf" points="1081.65,-0.5 1081.65,-19.5 1160.65,-19.5 1160.65,-0.5 1081.65,-0.5"/>
<text text-anchor="middle" x="1121.15" y="-7.5" font-family="Helvetica,sans-Serif" font-size="10.00">fmt/format.h</text>
</a>
</g>
</g>
<!-- Node3&#45;&gt;Node24 -->
<g id="edge33" class="edge">
<title>Node3&#45;&gt;Node24</title>
<path fill="none" stroke="midnightblue" d="M592.48,-168.41C644.16,-152.41 756.84,-116.02 848.15,-76 865.63,-68.34 868.13,-62.31 886.15,-56 948.06,-34.32 1023.01,-22.26 1071.35,-16.21"/>
<polygon fill="midnightblue" stroke="midnightblue" points="1072.04,-19.65 1081.55,-14.97 1071.2,-12.7 1072.04,-19.65"/>
</g>
<!-- Node25 -->
<g id="node25" class="node">
<title>Node25</title>
<g id="a_node25"><a xlink:title=" ">
<polygon fill="white" stroke="#bfbfbf" points="895.15,-56.5 895.15,-75.5 951.15,-75.5 951.15,-56.5 895.15,-56.5"/>
<text text-anchor="middle" x="923.15" y="-63.5" font-family="Helvetica,sans-Serif" font-size="10.00">optional</text>
</a>
</g>
</g>
<!-- Node3&#45;&gt;Node25 -->
<g id="edge34" class="edge">
<title>Node3&#45;&gt;Node25</title>
<path fill="none" stroke="midnightblue" d="M626.96,-174.21C707.08,-169.61 840.17,-158.21 881.15,-132 898.25,-121.06 909.8,-100.38 916.39,-85.28"/>
<polygon fill="midnightblue" stroke="midnightblue" points="919.67,-86.49 920.16,-75.9 913.18,-83.87 919.67,-86.49"/>
</g>
<!-- Node5 -->
<g id="node5" class="node">
<title>Node5</title>
<g id="a_node5"><a xlink:href="siphash_8h.html" target="_top" xlink:title=" ">
<polygon fill="white" stroke="black" points="14.65,-56.5 14.65,-75.5 109.65,-75.5 109.65,-56.5 14.65,-56.5"/>
<text text-anchor="middle" x="62.15" y="-63.5" font-family="Helvetica,sans-Serif" font-size="10.00">ccf/ds/siphash.h</text>
</a>
</g>
</g>
<!-- Node4&#45;&gt;Node5 -->
<g id="edge4" class="edge">
<title>Node4&#45;&gt;Node5</title>
<path fill="none" stroke="midnightblue" d="M169.02,-112.44C148.12,-103.56 115.21,-89.56 91.43,-79.45"/>
<polygon fill="midnightblue" stroke="midnightblue" points="92.75,-76.21 82.17,-75.52 90.01,-82.65 92.75,-76.21"/>
</g>
<!-- Node7 -->
<g id="node7" class="node">
<title>Node7</title>
<g id="a_node7"><a xlink:title=" ">
<polygon fill="white" stroke="#bfbfbf" points="4.15,-0.5 4.15,-19.5 54.15,-19.5 54.15,-0.5 4.15,-0.5"/>
<text text-anchor="middle" x="29.15" y="-7.5" font-family="Helvetica,sans-Serif" font-size="10.00">cstdint</text>
</a>
</g>
</g>
<!-- Node4&#45;&gt;Node7 -->
<g id="edge9" class="edge">
<title>Node4&#45;&gt;Node7</title>
<path fill="none" stroke="midnightblue" d="M148.78,-116.88C100.11,-110.99 22.66,-98.31 5.15,-76 -6.05,-61.74 4.26,-41.74 14.63,-27.7"/>
<polygon fill="midnightblue" stroke="midnightblue" points="17.4,-29.84 20.9,-19.84 11.93,-25.47 17.4,-29.84"/>
</g>
<!-- Node4&#45;&gt;Node8 -->
<g id="edge11" class="edge">
<title>Node4&#45;&gt;Node8</title>
<path fill="none" stroke="midnightblue" d="M229.44,-119.35C260.56,-115.71 301.79,-105.23 323.15,-76 332.81,-62.77 331.84,-43.64 329.18,-29.56"/>
<polygon fill="midnightblue" stroke="midnightblue" points="332.53,-28.5 326.86,-19.55 325.71,-30.09 332.53,-28.5"/>
</g>
<!-- Node9 -->
<g id="node9" class="node">
<title>Node9</title>
<g id="a_node9"><a xlink:title=" ">
<polygon fill="white" stroke="#bfbfbf" points="149.15,-0.5 149.15,-19.5 191.15,-19.5 191.15,-0.5 149.15,-0.5"/>
<text text-anchor="middle" x="170.15" y="-7.5" font-family="Helvetica,sans-Serif" font-size="10.00">array</text>
</a>
</g>
</g>
<!-- Node4&#45;&gt;Node9 -->
<g id="edge8" class="edge">
<title>Node4&#45;&gt;Node9</title>
<path fill="none" stroke="midnightblue" d="M180.13,-112.34C172.07,-103.93 160.85,-90.36 156.15,-76 151.04,-60.42 155.91,-42.12 161.26,-28.91"/>
<polygon fill="midnightblue" stroke="midnightblue" points="164.55,-30.12 165.47,-19.56 158.17,-27.25 164.55,-30.12"/>
</g>
<!-- Node10 -->
<g id="node10" class="node">
<title>Node10</title>
<g id="a_node10"><a xlink:title=" ">
<polygon fill="white" stroke="#bfbfbf" points="165.65,-56.5 165.65,-75.5 314.65,-75.5 314.65,-56.5 165.65,-56.5"/>
<text text-anchor="middle" x="240.15" y="-63.5" font-family="Helvetica,sans-Serif" font-size="10.00">small_vector/SmallVector.h</text>
</a>
</g>
</g>
<!-- Node4&#45;&gt;Node10 -->
<g id="edge10" class="edge">
<title>Node4&#45;&gt;Node10</title>
<path fill="none" stroke="midnightblue" d="M197.57,-112.08C204.99,-104.22 216,-92.57 224.96,-83.08"/>
<polygon fill="midnightblue" stroke="midnightblue" points="227.56,-85.42 231.88,-75.75 222.47,-80.62 227.56,-85.42"/>
</g>
<!-- Node6 -->
<g id="node6" class="node">
<title>Node6</title>
<g id="a_node6"><a xlink:title=" ">
<polygon fill="white" stroke="#bfbfbf" points="72.65,-0.5 72.65,-19.5 125.65,-19.5 125.65,-0.5 72.65,-0.5"/>
<text text-anchor="middle" x="99.15" y="-7.5" font-family="Helvetica,sans-Serif" font-size="10.00">cstddef</text>
</a>
</g>
</g>
<!-- Node5&#45;&gt;Node6 -->
<g id="edge5" class="edge">
<title>Node5&#45;&gt;Node6</title>
<path fill="none" stroke="midnightblue" d="M68.26,-56.08C73.43,-48.53 80.99,-37.49 87.34,-28.23"/>
<polygon fill="midnightblue" stroke="midnightblue" points="90.38,-29.98 93.15,-19.75 84.61,-26.02 90.38,-29.98"/>
</g>
<!-- Node5&#45;&gt;Node7 -->
<g id="edge6" class="edge">
<title>Node5&#45;&gt;Node7</title>
<path fill="none" stroke="midnightblue" d="M56.7,-56.08C52.13,-48.61 45.48,-37.72 39.85,-28.52"/>
<polygon fill="midnightblue" stroke="midnightblue" points="42.69,-26.46 34.49,-19.75 36.72,-30.11 42.69,-26.46"/>
</g>
<!-- Node5&#45;&gt;Node8 -->
<g id="edge7" class="edge">
<title>Node5&#45;&gt;Node8</title>
<path fill="none" stroke="midnightblue" d="M103.66,-56.44C155.41,-45.78 242.86,-27.75 290.6,-17.91"/>
<polygon fill="midnightblue" stroke="midnightblue" points="291.34,-21.33 300.43,-15.89 289.93,-14.48 291.34,-21.33"/>
</g>
<!-- Node11&#45;&gt;Node8 -->
<g id="edge19" class="edge">
<title>Node11&#45;&gt;Node8</title>
<path fill="none" stroke="midnightblue" d="M464.68,-56.44C435.64,-47.05 388.95,-31.96 357.44,-21.77"/>
<polygon fill="midnightblue" stroke="midnightblue" points="358.37,-18.39 347.78,-18.64 356.22,-25.05 358.37,-18.39"/>
</g>
<!-- Node11&#45;&gt;Node9 -->
<g id="edge14" class="edge">
<title>Node11&#45;&gt;Node9</title>
<path fill="none" stroke="midnightblue" d="M445.83,-57.38C379.76,-46.26 258.62,-25.88 201.51,-16.28"/>
<polygon fill="midnightblue" stroke="midnightblue" points="201.74,-12.77 191.3,-14.56 200.58,-19.67 201.74,-12.77"/>
</g>
<!-- Node12 -->
<g id="node12" class="node">
<title>Node12</title>
<g id="a_node12"><a xlink:title=" ">
<polygon fill="white" stroke="#bfbfbf" points="457.15,-0.5 457.15,-19.5 521.15,-19.5 521.15,-0.5 457.15,-0.5"/>
<text text-anchor="middle" x="489.15" y="-7.5" font-family="Helvetica,sans-Serif" font-size="10.00">algorithm</text>
</a>
</g>
</g>
<!-- Node11&#45;&gt;Node12 -->
<g id="edge13" class="edge">
<title>Node11&#45;&gt;Node12</title>
<path fill="none" stroke="midnightblue" d="M490.82,-56.08C490.55,-49.01 490.18,-38.86 489.85,-29.99"/>
<polygon fill="midnightblue" stroke="midnightblue" points="493.34,-29.61 489.47,-19.75 486.34,-29.87 493.34,-29.61"/>
</g>
<!-- Node13 -->
<g id="node13" class="node">
<title>Node13</title>
<g id="a_node13"><a xlink:title=" ">
<polygon fill="white" stroke="#bfbfbf" points="539.65,-0.5 539.65,-19.5 588.65,-19.5 588.65,-0.5 539.65,-0.5"/>
<text text-anchor="middle" x="564.15" y="-7.5" font-family="Helvetica,sans-Serif" font-size="10.00">cctype</text>
</a>
</g>
</g>
<!-- Node11&#45;&gt;Node13 -->
<g id="edge15" class="edge">
<title>Node11&#45;&gt;Node13</title>
<path fill="none" stroke="midnightblue" d="M502.87,-56.32C513.98,-48.11 530.89,-35.6 544.13,-25.81"/>
<polygon fill="midnightblue" stroke="midnightblue" points="546.25,-28.59 552.2,-19.83 542.08,-22.97 546.25,-28.59"/>
</g>
<!-- Node11&#45;&gt;Node14 -->
<g id="edge16" class="edge">
<title>Node11&#45;&gt;Node14</title>
<path fill="none" stroke="midnightblue" d="M513.01,-56.44C535.92,-47.48 572.12,-33.31 598.01,-23.18"/>
<polygon fill="midnightblue" stroke="midnightblue" points="599.34,-26.42 607.38,-19.52 596.79,-19.9 599.34,-26.42"/>
</g>
<!-- Node15 -->
<g id="node15" class="node">
<title>Node15</title>
<g id="a_node15"><a xlink:title=" ">
<polygon fill="white" stroke="#bfbfbf" points="365.65,-0.5 365.65,-19.5 438.65,-19.5 438.65,-0.5 365.65,-0.5"/>
<text text-anchor="middle" x="402.15" y="-7.5" font-family="Helvetica,sans-Serif" font-size="10.00">string_view</text>
</a>
</g>
</g>
<!-- Node11&#45;&gt;Node15 -->
<g id="edge17" class="edge">
<title>Node11&#45;&gt;Node15</title>
<path fill="none" stroke="midnightblue" d="M476.85,-56.32C462.96,-47.9 441.65,-34.97 425.34,-25.07"/>
<polygon fill="midnightblue" stroke="midnightblue" points="426.77,-21.85 416.41,-19.65 423.14,-27.83 426.77,-21.85"/>
</g>
<!-- Node16 -->
<g id="node16" class="node">
<title>Node16</title>
<g id="a_node16"><a xlink:title=" ">
<polygon fill="white" stroke="#bfbfbf" points="820.65,-0.5 820.65,-19.5 889.65,-19.5 889.65,-0.5 820.65,-0.5"/>
<text text-anchor="middle" x="855.15" y="-7.5" font-family="Helvetica,sans-Serif" font-size="10.00">type_traits</text>
</a>
</g>
</g>
<!-- Node11&#45;&gt;Node16 -->
<g id="edge18" class="edge">
<title>Node11&#45;&gt;Node16</title>
<path fill="none" stroke="midnightblue" d="M536.22,-59.65C596.52,-52.28 706.98,-38.03 810.46,-20.21"/>
<polygon fill="midnightblue" stroke="midnightblue" points="811.2,-23.63 820.45,-18.47 810,-16.73 811.2,-23.63"/>
</g>
<!-- Node17&#45;&gt;Node8 -->
<g id="edge31" class="edge">
<title>Node17&#45;&gt;Node8</title>
<path fill="none" stroke="midnightblue" d="M593.88,-115.91C554.65,-109.52 489.85,-96.81 437.15,-76 403.07,-62.54 366.91,-40.12 344.92,-25.44"/>
<polygon fill="midnightblue" stroke="midnightblue" points="346.66,-22.39 336.41,-19.68 342.73,-28.18 346.66,-22.39"/>
</g>
<!-- Node17&#45;&gt;Node11 -->
<g id="edge21" class="edge">
<title>Node17&#45;&gt;Node11</title>
<path fill="none" stroke="midnightblue" d="M607.28,-112.44C584.37,-103.48 548.17,-89.31 522.28,-79.18"/>
<polygon fill="midnightblue" stroke="midnightblue" points="523.5,-75.9 512.91,-75.52 520.95,-82.42 523.5,-75.9"/>
</g>
<!-- Node17&#45;&gt;Node16 -->
<g id="edge30" class="edge">
<title>Node17&#45;&gt;Node16</title>
<path fill="none" stroke="midnightblue" d="M650.71,-112.41C672.11,-103.73 705.74,-89.69 734.15,-76 743.63,-71.43 797.59,-42.24 830.17,-24.57"/>
<polygon fill="midnightblue" stroke="midnightblue" points="832.01,-27.55 839.12,-19.71 828.67,-21.4 832.01,-27.55"/>
</g>
<!-- Node18 -->
<g id="node18" class="node">
<title>Node18</title>
<g id="a_node18"><a xlink:href="serialized_8h.html" target="_top" xlink:title=" ">
<polygon fill="white" stroke="black" points="592.65,-56.5 592.65,-75.5 665.65,-75.5 665.65,-56.5 592.65,-56.5"/>
<text text-anchor="middle" x="629.15" y="-63.5" font-family="Helvetica,sans-Serif" font-size="10.00">serialized.h</text>
</a>
</g>
</g>
<!-- Node17&#45;&gt;Node18 -->
<g id="edge22" class="edge">
<title>Node17&#45;&gt;Node18</title>
<path fill="none" stroke="midnightblue" d="M629.15,-112.08C629.15,-105.01 629.15,-94.86 629.15,-85.99"/>
<polygon fill="midnightblue" stroke="midnightblue" points="632.65,-85.75 629.15,-75.75 625.65,-85.75 632.65,-85.75"/>
</g>
<!-- Node21 -->
<g id="node21" class="node">
<title>Node21</title>
<g id="a_node21"><a xlink:title=" ">
<polygon fill="white" stroke="#bfbfbf" points="781.15,-56.5 781.15,-75.5 839.15,-75.5 839.15,-56.5 781.15,-56.5"/>
<text text-anchor="middle" x="810.15" y="-63.5" font-family="Helvetica,sans-Serif" font-size="10.00">memory</text>
</a>
</g>
</g>
<!-- Node17&#45;&gt;Node21 -->
<g id="edge28" class="edge">
<title>Node17&#45;&gt;Node21</title>
<path fill="none" stroke="midnightblue" d="M657.83,-112.44C688.67,-103.24 737.87,-88.56 771.97,-78.39"/>
<polygon fill="midnightblue" stroke="midnightblue" points="773.02,-81.73 781.6,-75.52 771.02,-75.02 773.02,-81.73"/>
</g>
<!-- Node22 -->
<g id="node22" class="node">
<title>Node22</title>
<g id="a_node22"><a xlink:title=" ">
<polygon fill="white" stroke="#bfbfbf" points="683.65,-56.5 683.65,-75.5 724.65,-75.5 724.65,-56.5 683.65,-56.5"/>
<text text-anchor="middle" x="704.15" y="-63.5" font-family="Helvetica,sans-Serif" font-size="10.00">tuple</text>
</a>
</g>
</g>
<!-- Node17&#45;&gt;Node22 -->
<g id="edge29" class="edge">
<title>Node17&#45;&gt;Node22</title>
<path fill="none" stroke="midnightblue" d="M641.2,-112.32C652.61,-104.11 669.98,-91.6 683.58,-81.81"/>
<polygon fill="midnightblue" stroke="midnightblue" points="685.81,-84.52 691.88,-75.83 681.72,-78.84 685.81,-84.52"/>
</g>
<!-- Node18&#45;&gt;Node7 -->
<g id="edge23" class="edge">
<title>Node18&#45;&gt;Node7</title>
<path fill="none" stroke="midnightblue" d="M592.37,-60.8C577.69,-59.19 560.63,-57.41 545.15,-56 334.45,-36.85 276.73,-55.07 64.19,-19.87"/>
<polygon fill="midnightblue" stroke="midnightblue" points="64.72,-16.41 54.28,-18.21 63.57,-23.31 64.72,-16.41"/>
</g>
<!-- Node18&#45;&gt;Node8 -->
<g id="edge27" class="edge">
<title>Node18&#45;&gt;Node8</title>
<path fill="none" stroke="midnightblue" d="M592.25,-60.24C541.45,-53.4 446.99,-39.65 357.84,-20.19"/>
<polygon fill="midnightblue" stroke="midnightblue" points="358.36,-16.72 347.84,-17.98 356.84,-23.56 358.36,-16.72"/>
</g>
<!-- Node18&#45;&gt;Node14 -->
<g id="edge26" class="edge">
<title>Node18&#45;&gt;Node14</title>
<path fill="none" stroke="midnightblue" d="M629.15,-56.08C629.15,-49.01 629.15,-38.86 629.15,-29.99"/>
<polygon fill="midnightblue" stroke="midnightblue" points="632.65,-29.75 629.15,-19.75 625.65,-29.75 632.65,-29.75"/>
</g>
<!-- Node19 -->
<g id="node19" class="node">
<title>Node19</title>
<g id="a_node19"><a xlink:title=" ">
<polygon fill="white" stroke="#bfbfbf" points="669.15,-0.5 669.15,-19.5 719.15,-19.5 719.15,-0.5 669.15,-0.5"/>
<text text-anchor="middle" x="694.15" y="-7.5" font-family="Helvetica,sans-Serif" font-size="10.00">cstring</text>
</a>
</g>
</g>
<!-- Node18&#45;&gt;Node19 -->
<g id="edge24" class="edge">
<title>Node18&#45;&gt;Node19</title>
<path fill="none" stroke="midnightblue" d="M639.59,-56.32C649.29,-48.26 663.96,-36.08 675.65,-26.37"/>
<polygon fill="midnightblue" stroke="midnightblue" points="678.06,-28.92 683.51,-19.83 673.58,-23.53 678.06,-28.92"/>
</g>
<!-- Node20 -->
<g id="node20" class="node">
<title>Node20</title>
<g id="a_node20"><a xlink:title=" ">
<polygon fill="white" stroke="#bfbfbf" points="737.65,-0.5 737.65,-19.5 802.65,-19.5 802.65,-0.5 737.65,-0.5"/>
<text text-anchor="middle" x="770.15" y="-7.5" font-family="Helvetica,sans-Serif" font-size="10.00">stdexcept</text>
</a>
</g>
</g>
<!-- Node18&#45;&gt;Node20 -->
<g id="edge25" class="edge">
<title>Node18&#45;&gt;Node20</title>
<path fill="none" stroke="midnightblue" d="M651.49,-56.44C674.9,-47.48 711.88,-33.31 738.34,-23.18"/>
<polygon fill="midnightblue" stroke="midnightblue" points="739.82,-26.36 747.91,-19.52 737.32,-19.82 739.82,-26.36"/>
</g>
<!-- Node26&#45;&gt;Node25 -->
<g id="edge64" class="edge">
<title>Node26&#45;&gt;Node25</title>
<path fill="none" stroke="midnightblue" d="M1013.04,-224.08C997.95,-197.72 953.41,-119.88 933.25,-84.66"/>
<polygon fill="midnightblue" stroke="midnightblue" points="936.05,-82.51 928.05,-75.57 929.98,-85.99 936.05,-82.51"/>
</g>
<!-- Node27 -->
<g id="node27" class="node">
<title>Node27</title>
<g id="a_node27"><a xlink:href="before__io_8h.html" target="_top" xlink:title=" ">
<polygon fill="white" stroke="black" points="1014.65,-168.5 1014.65,-187.5 1085.65,-187.5 1085.65,-168.5 1014.65,-168.5"/>
<text text-anchor="middle" x="1050.15" y="-175.5" font-family="Helvetica,sans-Serif" font-size="10.00">before_io.h</text>
</a>
</g>
</g>
<!-- Node26&#45;&gt;Node27 -->
<g id="edge38" class="edge">
<title>Node26&#45;&gt;Node27</title>
<path fill="none" stroke="midnightblue" d="M1023.43,-224.08C1027.86,-216.61 1034.31,-205.72 1039.76,-196.52"/>
<polygon fill="midnightblue" stroke="midnightblue" points="1042.87,-198.14 1044.96,-187.75 1036.85,-194.57 1042.87,-198.14"/>
</g>
<!-- Node28 -->
<g id="node28" class="node">
<title>Node28</title>
<g id="a_node28"><a xlink:href="logger_8h.html" target="_top" xlink:title=" ">
<polygon fill="white" stroke="black" points="1120.65,-112.5 1120.65,-131.5 1207.65,-131.5 1207.65,-112.5 1120.65,-112.5"/>
<text text-anchor="middle" x="1164.15" y="-119.5" font-family="Helvetica,sans-Serif" font-size="10.00">ccf/ds/logger.h</text>
</a>
</g>
</g>
<!-- Node26&#45;&gt;Node28 -->
<g id="edge58" class="edge">
<title>Node26&#45;&gt;Node28</title>
<path fill="none" stroke="midnightblue" d="M1035.36,-224.39C1051.44,-216.01 1075.8,-202.47 1095.15,-188 1115.2,-173 1135.78,-152.87 1149.19,-139.01"/>
<polygon fill="midnightblue" stroke="midnightblue" points="1151.83,-141.31 1156.19,-131.66 1146.76,-136.48 1151.83,-141.31"/>
</g>
<!-- Node39 -->
<g id="node39" class="node">
<title>Node39</title>
<g id="a_node39"><a xlink:href="proxy_8h.html" target="_top" xlink:title=" ">
<polygon fill="white" stroke="black" points="971.15,-112.5 971.15,-131.5 1023.15,-131.5 1023.15,-112.5 971.15,-112.5"/>
<text text-anchor="middle" x="997.15" y="-119.5" font-family="Helvetica,sans-Serif" font-size="10.00">proxy.h</text>
</a>
</g>
</g>
<!-- Node26&#45;&gt;Node39 -->
<g id="edge63" class="edge">
<title>Node26&#45;&gt;Node39</title>
<path fill="none" stroke="midnightblue" d="M1015.53,-224.45C1012.85,-215.45 1008.74,-200.84 1006.15,-188 1003.04,-172.63 1000.67,-154.99 999.15,-141.97"/>
<polygon fill="midnightblue" stroke="midnightblue" points="1002.61,-141.44 998.03,-131.89 995.65,-142.22 1002.61,-141.44"/>
</g>
<!-- Node41 -->
<g id="node41" class="node">
<title>Node41</title>
<g id="a_node41"><a xlink:href="dns_8h.html" target="_top" xlink:title=" ">
<polygon fill="white" stroke="black" points="1142.65,-168.5 1142.65,-187.5 1185.65,-187.5 1185.65,-168.5 1142.65,-168.5"/>
<text text-anchor="middle" x="1164.15" y="-175.5" font-family="Helvetica,sans-Serif" font-size="10.00">dns.h</text>
</a>
</g>
</g>
<!-- Node26&#45;&gt;Node41 -->
<g id="edge59" class="edge">
<title>Node26&#45;&gt;Node41</title>
<path fill="none" stroke="midnightblue" d="M1038.75,-225.38C1063.22,-216.33 1104.29,-201.14 1132.73,-190.62"/>
<polygon fill="midnightblue" stroke="midnightblue" points="1134.05,-193.86 1142.21,-187.11 1131.62,-187.3 1134.05,-193.86"/>
</g>
<!-- Node27&#45;&gt;Node28 -->
<g id="edge39" class="edge">
<title>Node27&#45;&gt;Node28</title>
<path fill="none" stroke="midnightblue" d="M1068.21,-168.44C1086.72,-159.68 1115.73,-145.94 1137,-135.86"/>
<polygon fill="midnightblue" stroke="midnightblue" points="1138.63,-138.96 1146.17,-131.52 1135.63,-132.63 1138.63,-138.96"/>
</g>
<!-- Node27&#45;&gt;Node39 -->
<g id="edge55" class="edge">
<title>Node27&#45;&gt;Node39</title>
<path fill="none" stroke="midnightblue" d="M1041.39,-168.08C1033.68,-160.22 1022.24,-148.57 1012.93,-139.08"/>
<polygon fill="midnightblue" stroke="midnightblue" points="1015.24,-136.44 1005.73,-131.75 1010.24,-141.34 1015.24,-136.44"/>
</g>
<!-- Node28&#45;&gt;Node16 -->
<g id="edge54" class="edge">
<title>Node28&#45;&gt;Node16</title>
<path fill="none" stroke="midnightblue" d="M1146.7,-112.37C1119.35,-99.07 1064.51,-73.28 1016.15,-56 977.55,-42.21 932.54,-29.94 899.94,-21.71"/>
<polygon fill="midnightblue" stroke="midnightblue" points="900.37,-18.21 889.82,-19.18 898.67,-25 900.37,-18.21"/>
</g>
<!-- Node28&#45;&gt;Node24 -->
<g id="edge49" class="edge">
<title>Node28&#45;&gt;Node24</title>
<path fill="none" stroke="midnightblue" d="M1138.64,-112.47C1122.16,-105.48 1102.01,-93.79 1092.15,-76 1083.3,-60.04 1094.31,-40.87 1105.21,-27.5"/>
<polygon fill="midnightblue" stroke="midnightblue" points="1108.15,-29.45 1112.14,-19.64 1102.9,-24.82 1108.15,-29.45"/>
</g>
<!-- Node28&#45;&gt;Node25 -->
<g id="edge52" class="edge">
<title>Node28&#45;&gt;Node25</title>
<path fill="none" stroke="midnightblue" d="M1124.81,-112.46C1083.89,-103.53 1017.97,-89.03 961.15,-76 961.05,-75.98 960.95,-75.95 960.85,-75.93"/>
<polygon fill="midnightblue" stroke="midnightblue" points="961.89,-72.58 951.36,-73.73 960.31,-79.4 961.89,-72.58"/>
</g>
<!-- Node29 -->
<g id="node29" class="node">
<title>Node29</title>
<g id="a_node29"><a xlink:href="enum__formatter_8h.html" target="_top" xlink:title=" ">
<polygon fill="white" stroke="black" points="1101.15,-56.5 1101.15,-75.5 1237.15,-75.5 1237.15,-56.5 1101.15,-56.5"/>
<text text-anchor="middle" x="1169.15" y="-63.5" font-family="Helvetica,sans-Serif" font-size="10.00">ccf/ds/enum_formatter.h</text>
</a>
</g>
</g>
<!-- Node28&#45;&gt;Node29 -->
<g id="edge40" class="edge">
<title>Node28&#45;&gt;Node29</title>
<path fill="none" stroke="midnightblue" d="M1164.97,-112.08C1165.63,-105.01 1166.57,-94.86 1167.39,-85.99"/>
<polygon fill="midnightblue" stroke="midnightblue" points="1170.9,-86.03 1168.34,-75.75 1163.93,-85.39 1170.9,-86.03"/>
</g>
<!-- Node30 -->
<g id="node30" class="node">
<title>Node30</title>
<g id="a_node30"><a xlink:href="thread__ids_8h.html" target="_top" xlink:title=" ">
<polygon fill="white" stroke="black" points="1632.15,-56.5 1632.15,-75.5 1740.15,-75.5 1740.15,-56.5 1632.15,-56.5"/>
<text text-anchor="middle" x="1686.15" y="-63.5" font-family="Helvetica,sans-Serif" font-size="10.00">ccf/ds/thread_ids.h</text>
</a>
</g>
</g>
<!-- Node28&#45;&gt;Node30 -->
<g id="edge42" class="edge">
<title>Node28&#45;&gt;Node30</title>
<path fill="none" stroke="midnightblue" d="M1207.78,-113.31C1210.94,-112.84 1214.09,-112.39 1217.15,-112 1393.56,-89.24 1441.47,-96.54 1621.78,-76.1"/>
<polygon fill="midnightblue" stroke="midnightblue" points="1622.34,-79.56 1631.87,-74.94 1621.54,-72.6 1622.34,-79.56"/>
</g>
<!-- Node35 -->
<g id="node35" class="node">
<title>Node35</title>
<g id="a_node35"><a xlink:title=" ">
<polygon fill="white" stroke="#bfbfbf" points="1255.65,-56.5 1255.65,-75.5 1334.65,-75.5 1334.65,-56.5 1255.65,-56.5"/>
<text text-anchor="middle" x="1295.15" y="-63.5" font-family="Helvetica,sans-Serif" font-size="10.00">fmt/chrono.h</text>
</a>
</g>
</g>
<!-- Node28&#45;&gt;Node35 -->
<g id="edge48" class="edge">
<title>Node28&#45;&gt;Node35</title>
<path fill="none" stroke="midnightblue" d="M1184.9,-112.44C1206.46,-103.56 1240.41,-89.56 1264.94,-79.45"/>
<polygon fill="midnightblue" stroke="midnightblue" points="1266.57,-82.56 1274.49,-75.52 1263.91,-76.09 1266.57,-82.56"/>
</g>
<!-- Node36 -->
<g id="node36" class="node">
<title>Node36</title>
<g id="a_node36"><a xlink:title=" ">
<polygon fill="white" stroke="#bfbfbf" points="1352.15,-56.5 1352.15,-75.5 1412.15,-75.5 1412.15,-56.5 1352.15,-56.5"/>
<text text-anchor="middle" x="1382.15" y="-63.5" font-family="Helvetica,sans-Serif" font-size="10.00">iostream</text>
</a>
</g>
</g>
<!-- Node28&#45;&gt;Node36 -->
<g id="edge50" class="edge">
<title>Node28&#45;&gt;Node36</title>
<path fill="none" stroke="midnightblue" d="M1198.69,-112.44C1237.65,-102.79 1300.92,-87.12 1342.03,-76.94"/>
<polygon fill="midnightblue" stroke="midnightblue" points="1343.11,-80.27 1351.98,-74.47 1341.43,-73.48 1343.11,-80.27"/>
</g>
<!-- Node37 -->
<g id="node37" class="node">
<title>Node37</title>
<g id="a_node37"><a xlink:title=" ">
<polygon fill="white" stroke="#bfbfbf" points="1430.15,-56.5 1430.15,-75.5 1540.15,-75.5 1540.15,-56.5 1430.15,-56.5"/>
<text text-anchor="middle" x="1485.15" y="-63.5" font-family="Helvetica,sans-Serif" font-size="10.00">nlohmann/json.hpp</text>
</a>
</g>
</g>
<!-- Node28&#45;&gt;Node37 -->
<g id="edge51" class="edge">
<title>Node28&#45;&gt;Node37</title>
<path fill="none" stroke="midnightblue" d="M1207.82,-113.58C1210.97,-113.04 1214.11,-112.51 1217.15,-112 1288.16,-100.01 1369.79,-86.32 1424.11,-77.22"/>
<polygon fill="midnightblue" stroke="midnightblue" points="1424.98,-80.62 1434.26,-75.52 1423.82,-73.72 1424.98,-80.62"/>
</g>
<!-- Node38 -->
<g id="node38" class="node">
<title>Node38</title>
<g id="a_node38"><a xlink:title=" ">
<polygon fill="white" stroke="#bfbfbf" points="1558.15,-56.5 1558.15,-75.5 1614.15,-75.5 1614.15,-56.5 1558.15,-56.5"/>
<text text-anchor="middle" x="1586.15" y="-63.5" font-family="Helvetica,sans-Serif" font-size="10.00">sstream</text>
</a>
</g>
</g>
<!-- Node28&#45;&gt;Node38 -->
<g id="edge53" class="edge">
<title>Node28&#45;&gt;Node38</title>
<path fill="none" stroke="midnightblue" d="M1207.79,-113.38C1210.95,-112.89 1214.09,-112.42 1217.15,-112 1360.85,-92.03 1401.15,-101.16 1547.67,-76.05"/>
<polygon fill="midnightblue" stroke="midnightblue" points="1548.69,-79.42 1557.94,-74.26 1547.49,-72.53 1548.69,-79.42"/>
</g>
<!-- Node29&#45;&gt;Node24 -->
<g id="edge41" class="edge">
<title>Node29&#45;&gt;Node24</title>
<path fill="none" stroke="midnightblue" d="M1161.22,-56.08C1154.3,-48.3 1144.08,-36.8 1135.69,-27.37"/>
<polygon fill="midnightblue" stroke="midnightblue" points="1138.18,-24.9 1128.92,-19.75 1132.95,-29.55 1138.18,-24.9"/>
</g>
<!-- Node30&#45;&gt;Node24 -->
<g id="edge43" class="edge">
<title>Node30&#45;&gt;Node24</title>
<path fill="none" stroke="midnightblue" d="M1631.87,-57.06C1628.92,-56.69 1626,-56.33 1623.15,-56 1458.02,-36.82 1261.52,-21.32 1171.14,-14.61"/>
<polygon fill="midnightblue" stroke="midnightblue" points="1171.15,-11.1 1160.91,-13.85 1170.63,-18.08 1171.15,-11.1"/>
</g>
<!-- Node31 -->
<g id="node31" class="node">
<title>Node31</title>
<g id="a_node31"><a xlink:title=" ">
<polygon fill="white" stroke="#bfbfbf" points="1530.15,-0.5 1530.15,-19.5 1616.15,-19.5 1616.15,-0.5 1530.15,-0.5"/>
<text text-anchor="middle" x="1573.15" y="-7.5" font-family="Helvetica,sans-Serif" font-size="10.00">fmt/ostream.h</text>
</a>
</g>
</g>
<!-- Node30&#45;&gt;Node31 -->
<g id="edge44" class="edge">
<title>Node30&#45;&gt;Node31</title>
<path fill="none" stroke="midnightblue" d="M1668.24,-56.44C1649.89,-47.68 1621.14,-33.94 1600.05,-23.86"/>
<polygon fill="midnightblue" stroke="midnightblue" points="1601.5,-20.67 1590.97,-19.52 1598.48,-26.99 1601.5,-20.67"/>
</g>
<!-- Node32 -->
<g id="node32" class="node">
<title>Node32</title>
<g id="a_node32"><a xlink:title=" ">
<polygon fill="white" stroke="#bfbfbf" points="1634.15,-0.5 1634.15,-19.5 1678.15,-19.5 1678.15,-0.5 1634.15,-0.5"/>
<text text-anchor="middle" x="1656.15" y="-7.5" font-family="Helvetica,sans-Serif" font-size="10.00">limits</text>
</a>
</g>
</g>
<!-- Node30&#45;&gt;Node32 -->
<g id="edge45" class="edge">
<title>Node30&#45;&gt;Node32</title>
<path fill="none" stroke="midnightblue" d="M1681.19,-56.08C1677.04,-48.61 1670.99,-37.72 1665.88,-28.52"/>
<polygon fill="midnightblue" stroke="midnightblue" points="1668.92,-26.79 1661.01,-19.75 1662.8,-30.19 1668.92,-26.79"/>
</g>
<!-- Node33 -->
<g id="node33" class="node">
<title>Node33</title>
<g id="a_node33"><a xlink:title=" ">
<polygon fill="white" stroke="#bfbfbf" points="1696.15,-0.5 1696.15,-19.5 1734.15,-19.5 1734.15,-0.5 1696.15,-0.5"/>
<text text-anchor="middle" x="1715.15" y="-7.5" font-family="Helvetica,sans-Serif" font-size="10.00">map</text>
</a>
</g>
</g>
<!-- Node30&#45;&gt;Node33 -->
<g id="edge46" class="edge">
<title>Node30&#45;&gt;Node33</title>
<path fill="none" stroke="midnightblue" d="M1690.93,-56.08C1694.9,-48.69 1700.67,-37.95 1705.58,-28.81"/>
<polygon fill="midnightblue" stroke="midnightblue" points="1708.8,-30.22 1710.45,-19.75 1702.63,-26.91 1708.8,-30.22"/>
</g>
<!-- Node34 -->
<g id="node34" class="node">
<title>Node34</title>
<g id="a_node34"><a xlink:title=" ">
<polygon fill="white" stroke="#bfbfbf" points="1752.15,-0.5 1752.15,-19.5 1800.15,-19.5 1800.15,-0.5 1752.15,-0.5"/>
<text text-anchor="middle" x="1776.15" y="-7.5" font-family="Helvetica,sans-Serif" font-size="10.00">thread</text>
</a>
</g>
</g>
<!-- Node30&#45;&gt;Node34 -->
<g id="edge47" class="edge">
<title>Node30&#45;&gt;Node34</title>
<path fill="none" stroke="midnightblue" d="M1700.61,-56.32C1714.65,-47.9 1736.19,-34.97 1752.69,-25.07"/>
<polygon fill="midnightblue" stroke="midnightblue" points="1754.95,-27.8 1761.72,-19.65 1751.35,-21.8 1754.95,-27.8"/>
</g>
<!-- Node39&#45;&gt;Node21 -->
<g id="edge56" class="edge">
<title>Node39&#45;&gt;Node21</title>
<path fill="none" stroke="midnightblue" d="M971.14,-113.49C939.5,-104.35 885.76,-88.83 849.15,-78.26"/>
<polygon fill="midnightblue" stroke="midnightblue" points="849.88,-74.83 839.31,-75.42 847.94,-81.56 849.88,-74.83"/>
</g>
<!-- Node40 -->
<g id="node40" class="node">
<title>Node40</title>
<g id="a_node40"><a xlink:title=" ">
<polygon fill="white" stroke="#bfbfbf" points="969.65,-56.5 969.65,-75.5 1006.65,-75.5 1006.65,-56.5 969.65,-56.5"/>
<text text-anchor="middle" x="988.15" y="-63.5" font-family="Helvetica,sans-Serif" font-size="10.00">uv.h</text>
</a>
</g>
</g>
<!-- Node39&#45;&gt;Node40 -->
<g id="edge57" class="edge">
<title>Node39&#45;&gt;Node40</title>
<path fill="none" stroke="midnightblue" d="M995.66,-112.08C994.47,-104.93 992.75,-94.64 991.26,-85.69"/>
<polygon fill="midnightblue" stroke="midnightblue" points="994.7,-85.04 989.6,-75.75 987.8,-86.19 994.7,-85.04"/>
</g>
<!-- Node41&#45;&gt;Node28 -->
<g id="edge60" class="edge">
<title>Node41&#45;&gt;Node28</title>
<path fill="none" stroke="midnightblue" d="M1164.15,-168.08C1164.15,-161.01 1164.15,-150.86 1164.15,-141.99"/>
<polygon fill="midnightblue" stroke="midnightblue" points="1167.65,-141.75 1164.15,-131.75 1160.65,-141.75 1167.65,-141.75"/>
</g>
<!-- Node41&#45;&gt;Node40 -->
<g id="edge62" class="edge">
<title>Node41&#45;&gt;Node40</title>
<path fill="none" stroke="midnightblue" d="M1150.33,-168.37C1120,-149.41 1047.35,-104 1010.45,-80.94"/>
<polygon fill="midnightblue" stroke="midnightblue" points="1012.23,-77.92 1001.89,-75.59 1008.52,-83.86 1012.23,-77.92"/>
</g>
<!-- Node42 -->
<g id="node42" class="node">
<title>Node42</title>
<g id="a_node42"><a xlink:title=" ">
<polygon fill="white" stroke="#bfbfbf" points="1226.15,-112.5 1226.15,-131.5 1312.15,-131.5 1312.15,-112.5 1226.15,-112.5"/>
<text text-anchor="middle" x="1269.15" y="-119.5" font-family="Helvetica,sans-Serif" font-size="10.00">unordered_set</text>
</a>
</g>
</g>
<!-- Node41&#45;&gt;Node42 -->
<g id="edge61" class="edge">
<title>Node41&#45;&gt;Node42</title>
<path fill="none" stroke="midnightblue" d="M1181.02,-168.32C1197.85,-159.66 1223.95,-146.24 1243.38,-136.25"/>
<polygon fill="midnightblue" stroke="midnightblue" points="1245.03,-139.34 1252.32,-131.65 1241.82,-133.12 1245.03,-139.34"/>
</g>
</g>
</svg>
