<?xml version="1.0" encoding="UTF-8" standalone="no"?>
<!DOCTYPE svg PUBLIC "-//W3C//DTD SVG 1.1//EN"
 "http://www.w3.org/Graphics/SVG/1.1/DTD/svg11.dtd">
<!-- Generated by graphviz version 2.43.0 (0)
 -->
<!-- Title: src/service/tables/snapshot_evidence.h Pages: 1 -->
<!--zoomable 654 -->
<svg id="main" version="1.1" xmlns="http://www.w3.org/2000/svg" xmlns:xlink="http://www.w3.org/1999/xlink" xml:space="preserve" onload="init(evt)">
<style type="text/css"><![CDATA[
.edge:hover path { stroke: red; }
.edge:hover polygon { stroke: red; fill: red; }
]]></style>
<script type="text/javascript"><![CDATA[
var edges = document.getElementsByTagName('g');
if (edges && edges.length) {
  for (var i=0;i<edges.length;i++) {
    if (edges[i].id.substr(0,4)=='edge') {
      edges[i].setAttribute('class','edge');
    }
  }
}
]]></script>
        <defs>
                <circle id="rim" cx="0" cy="0" r="7"/>
                <circle id="rim2" cx="0" cy="0" r="3.5"/>
                <g id="zoomPlus">
                        <use xlink:href="#rim" fill="#404040">
                                <set attributeName="fill" to="#808080" begin="zoomplus.mouseover" end="zoomplus.mouseout"/>
                        </use>
                        <path d="M-4,0h8M0,-4v8" fill="none" stroke="white" stroke-width="1.5" pointer-events="none"/>
                </g>
                <g id="zoomMin">
                        <use xlink:href="#rim" fill="#404040">
                                <set attributeName="fill" to="#808080" begin="zoomminus.mouseover" end="zoomminus.mouseout"/>
                        </use>
                        <path d="M-4,0h8" fill="none" stroke="white" stroke-width="1.5" pointer-events="none"/>
                </g>
                <g id="dirArrow">
                        <path fill="none" stroke="white" stroke-width="1.5" d="M0,-3.0v7 M-2.5,-0.5L0,-3.0L2.5,-0.5"/>
                </g>
               <g id="resetDef">
                       <use xlink:href="#rim2" fill="#404040">
                               <set attributeName="fill" to="#808080" begin="reset.mouseover" end="reset.mouseout"/>
                       </use>
               </g>
        </defs>

<script type="text/javascript">
var viewWidth = 2311;
var viewHeight = 654;
var sectionId = 'dynsection-1';
</script>
<script xlink:href="svgpan.js"/>
<svg id="graph" class="graph">
<g id="viewport">
<title>src/service/tables/snapshot_evidence.h</title>
<polygon fill="white" stroke="transparent" points="-4,4 -4,-650 2306.5,-650 2306.5,4 -4,4"/>
<!-- Node1 -->
<g id="node1" class="node">
<title>Node1</title>
<g id="a_node1"><a xlink:title=" ">
<polygon fill="#bfbfbf" stroke="black" points="717.5,-615.5 717.5,-645.5 839.5,-645.5 839.5,-615.5 717.5,-615.5"/>
<text text-anchor="start" x="725.5" y="-633.5" font-family="Helvetica,sans-Serif" font-size="10.00">src/service/tables</text>
<text text-anchor="middle" x="778.5" y="-622.5" font-family="Helvetica,sans-Serif" font-size="10.00">/snapshot_evidence.h</text>
</a>
</g>
</g>
<!-- Node2 -->
<g id="node2" class="node">
<title>Node2</title>
<g id="a_node2"><a xlink:href="deserialise_8h.html" target="_top" xlink:title=" ">
<polygon fill="white" stroke="black" points="598,-559.5 598,-578.5 709,-578.5 709,-559.5 598,-559.5"/>
<text text-anchor="middle" x="653.5" y="-566.5" font-family="Helvetica,sans-Serif" font-size="10.00">src/kv/deserialise.h</text>
</a>
</g>
</g>
<!-- Node1&#45;&gt;Node2 -->
<g id="edge1" class="edge">
<title>Node1&#45;&gt;Node2</title>
<path fill="none" stroke="midnightblue" d="M739.81,-611.08C717.11,-600.28 689.47,-587.12 671.69,-578.66"/>
<polygon fill="midnightblue" stroke="midnightblue" points="738.34,-614.26 748.88,-615.4 741.35,-607.94 738.34,-614.26"/>
</g>
<!-- Node14 -->
<g id="node14" class="node">
<title>Node14</title>
<g id="a_node14"><a xlink:href="snapshotter_8h.html" target="_top" xlink:title=" ">
<polygon fill="white" stroke="black" points="693,-241 693,-260 820,-260 820,-241 693,-241"/>
<text text-anchor="middle" x="756.5" y="-248" font-family="Helvetica,sans-Serif" font-size="10.00">src/node/snapshotter.h</text>
</a>
</g>
</g>
<!-- Node1&#45;&gt;Node14 -->
<g id="edge72" class="edge">
<title>Node1&#45;&gt;Node14</title>
<path fill="none" stroke="midnightblue" d="M777.06,-604.8C772.69,-529.74 759.71,-306.62 757,-260.07"/>
<polygon fill="midnightblue" stroke="midnightblue" points="773.59,-605.36 777.66,-615.14 780.58,-604.96 773.59,-605.36"/>
</g>
<!-- Node25 -->
<g id="node25" class="node">
<title>Node25</title>
<g id="a_node25"><a xlink:href="network__tables_8h.html" target="_top" xlink:title=" ">
<polygon fill="white" stroke="black" points="1004.5,-436.5 1004.5,-466.5 1116.5,-466.5 1116.5,-436.5 1004.5,-436.5"/>
<text text-anchor="start" x="1012.5" y="-454.5" font-family="Helvetica,sans-Serif" font-size="10.00">src/service/network</text>
<text text-anchor="middle" x="1060.5" y="-443.5" font-family="Helvetica,sans-Serif" font-size="10.00">_tables.h</text>
</a>
</g>
</g>
<!-- Node1&#45;&gt;Node25 -->
<g id="edge73" class="edge">
<title>Node1&#45;&gt;Node25</title>
<path fill="none" stroke="midnightblue" d="M809.75,-609.88C867.19,-573.84 988.21,-497.88 1038.18,-466.51"/>
<polygon fill="midnightblue" stroke="midnightblue" points="807.71,-607.03 801.1,-615.31 811.43,-612.96 807.71,-607.03"/>
</g>
<!-- Node3 -->
<g id="node3" class="node">
<title>Node3</title>
<g id="a_node3"><a xlink:href="store_8h.html" target="_top" xlink:title=" ">
<polygon fill="white" stroke="black" points="591,-503.5 591,-522.5 674,-522.5 674,-503.5 591,-503.5"/>
<text text-anchor="middle" x="632.5" y="-510.5" font-family="Helvetica,sans-Serif" font-size="10.00">src/kv/store.h</text>
</a>
</g>
</g>
<!-- Node2&#45;&gt;Node3 -->
<g id="edge2" class="edge">
<title>Node2&#45;&gt;Node3</title>
<path fill="none" stroke="midnightblue" d="M646.38,-549.69C642.84,-540.59 638.73,-530.01 635.9,-522.75"/>
<polygon fill="midnightblue" stroke="midnightblue" points="643.15,-551.03 650.03,-559.08 649.67,-548.49 643.15,-551.03"/>
</g>
<!-- Node4 -->
<g id="node4" class="node">
<title>Node4</title>
<g id="a_node4"><a xlink:href="indexer_8h.html" target="_top" xlink:title=" ">
<polygon fill="white" stroke="black" points="551,-442 551,-461 674,-461 674,-442 551,-442"/>
<text text-anchor="middle" x="612.5" y="-449" font-family="Helvetica,sans-Serif" font-size="10.00">src/indexing/indexer.h</text>
</a>
</g>
</g>
<!-- Node3&#45;&gt;Node4 -->
<g id="edge3" class="edge">
<title>Node3&#45;&gt;Node4</title>
<path fill="none" stroke="midnightblue" d="M626.33,-493.66C622.68,-482.77 618.21,-469.49 615.36,-461.01"/>
<polygon fill="midnightblue" stroke="midnightblue" points="623.13,-495.11 629.63,-503.48 629.77,-492.88 623.13,-495.11"/>
</g>
<!-- Node9 -->
<g id="node9" class="node">
<title>Node9</title>
<g id="a_node9"><a xlink:href="visit__each__entry__in__map_8cpp.html" target="_top" xlink:title=" ">
<polygon fill="white" stroke="black" points="239,-436.5 239,-466.5 400,-466.5 400,-436.5 239,-436.5"/>
<text text-anchor="start" x="247" y="-454.5" font-family="Helvetica,sans-Serif" font-size="10.00">src/indexing/strategies</text>
<text text-anchor="middle" x="319.5" y="-443.5" font-family="Helvetica,sans-Serif" font-size="10.00">/visit_each_entry_in_map.cpp</text>
</a>
</g>
</g>
<!-- Node3&#45;&gt;Node9 -->
<g id="edge9" class="edge">
<title>Node3&#45;&gt;Node9</title>
<path fill="none" stroke="midnightblue" d="M581.1,-502.23C530.02,-492.52 451.17,-477.53 393.38,-466.54"/>
<polygon fill="midnightblue" stroke="midnightblue" points="580.46,-505.67 590.94,-504.1 581.77,-498.79 580.46,-505.67"/>
</g>
<!-- Node10 -->
<g id="node10" class="node">
<title>Node10</title>
<g id="a_node10"><a xlink:href="historical__queries_8h.html" target="_top" xlink:title=" ">
<polygon fill="white" stroke="black" points="54.5,-302.5 54.5,-332.5 160.5,-332.5 160.5,-302.5 54.5,-302.5"/>
<text text-anchor="start" x="62.5" y="-320.5" font-family="Helvetica,sans-Serif" font-size="10.00">src/node/historical</text>
<text text-anchor="middle" x="107.5" y="-309.5" font-family="Helvetica,sans-Serif" font-size="10.00">_queries.h</text>
</a>
</g>
</g>
<!-- Node3&#45;&gt;Node10 -->
<g id="edge10" class="edge">
<title>Node3&#45;&gt;Node10</title>
<path fill="none" stroke="midnightblue" d="M580.74,-511.01C485.99,-508.43 288.92,-499.24 229.5,-467 171.14,-435.33 129.79,-363.17 114.27,-332.6"/>
<polygon fill="midnightblue" stroke="midnightblue" points="580.87,-514.52 590.96,-511.28 581.05,-507.52 580.87,-514.52"/>
</g>
<!-- Node12 -->
<g id="node12" class="node">
<title>Node12</title>
<g id="a_node12"><a xlink:href="history_8h.html" target="_top" xlink:title=" ">
<polygon fill="white" stroke="black" points="418.5,-442 418.5,-461 520.5,-461 520.5,-442 418.5,-442"/>
<text text-anchor="middle" x="469.5" y="-449" font-family="Helvetica,sans-Serif" font-size="10.00">src/node/history.h</text>
</a>
</g>
</g>
<!-- Node3&#45;&gt;Node12 -->
<g id="edge14" class="edge">
<title>Node3&#45;&gt;Node12</title>
<path fill="none" stroke="midnightblue" d="M599.44,-499.93C567.76,-488.37 520.75,-471.21 492.81,-461.01"/>
<polygon fill="midnightblue" stroke="midnightblue" points="598.55,-503.33 609.15,-503.48 600.95,-496.76 598.55,-503.33"/>
</g>
<!-- Node3&#45;&gt;Node14 -->
<g id="edge37" class="edge">
<title>Node3&#45;&gt;Node14</title>
<path fill="none" stroke="midnightblue" d="M654.43,-497.36C664.65,-489.49 676.15,-478.94 683.5,-467 723.2,-402.45 697.3,-371.93 726.5,-302 733.02,-286.38 743.7,-269.78 750.4,-260.04"/>
<polygon fill="midnightblue" stroke="midnightblue" points="652.27,-494.6 646.26,-503.32 656.4,-500.26 652.27,-494.6"/>
</g>
<!-- Node20 -->
<g id="node20" class="node">
<title>Node20</title>
<g id="a_node20"><a xlink:href="frontend_8h.html" target="_top" xlink:title=" ">
<polygon fill="white" stroke="black" points="842,-375 842,-394 971,-394 971,-375 842,-375"/>
<text text-anchor="middle" x="906.5" y="-382" font-family="Helvetica,sans-Serif" font-size="10.00">src/node/rpc/frontend.h</text>
</a>
</g>
</g>
<!-- Node3&#45;&gt;Node20 -->
<g id="edge27" class="edge">
<title>Node3&#45;&gt;Node20</title>
<path fill="none" stroke="midnightblue" d="M660.66,-499C716.69,-473.13 840.81,-415.83 887.9,-394.09"/>
<polygon fill="midnightblue" stroke="midnightblue" points="658.95,-495.94 651.33,-503.31 661.88,-502.29 658.95,-495.94"/>
</g>
<!-- Node3&#45;&gt;Node25 -->
<g id="edge38" class="edge">
<title>Node3&#45;&gt;Node25</title>
<path fill="none" stroke="midnightblue" d="M684.28,-504.8C765.18,-493.56 920.93,-471.9 1004.41,-460.3"/>
<polygon fill="midnightblue" stroke="midnightblue" points="683.74,-501.34 674.32,-506.19 684.7,-508.28 683.74,-501.34"/>
</g>
<!-- Node5 -->
<g id="node5" class="node">
<title>Node5</title>
<g id="a_node5"><a xlink:href="node__state_8h.html" target="_top" xlink:title=" ">
<polygon fill="white" stroke="black" points="1021.5,-179.5 1021.5,-198.5 1145.5,-198.5 1145.5,-179.5 1021.5,-179.5"/>
<text text-anchor="middle" x="1083.5" y="-186.5" font-family="Helvetica,sans-Serif" font-size="10.00">src/node/node_state.h</text>
</a>
</g>
</g>
<!-- Node4&#45;&gt;Node5 -->
<g id="edge4" class="edge">
<title>Node4&#45;&gt;Node5</title>
<path fill="none" stroke="midnightblue" d="M617.41,-432.15C630.9,-382.43 668.54,-247.92 684.5,-235 734.83,-194.27 922.19,-188.96 1021.22,-189.11"/>
<polygon fill="midnightblue" stroke="midnightblue" points="614.01,-431.33 614.79,-441.89 620.77,-433.15 614.01,-431.33"/>
</g>
<!-- Node6 -->
<g id="node6" class="node">
<title>Node6</title>
<g id="a_node6"><a xlink:href="enclave_2enclave_8h.html" target="_top" xlink:title=" ">
<polygon fill="white" stroke="black" points="981.5,-56.5 981.5,-75.5 1103.5,-75.5 1103.5,-56.5 981.5,-56.5"/>
<text text-anchor="middle" x="1042.5" y="-63.5" font-family="Helvetica,sans-Serif" font-size="10.00">src/enclave/enclave.h</text>
</a>
</g>
</g>
<!-- Node5&#45;&gt;Node6 -->
<g id="edge5" class="edge">
<title>Node5&#45;&gt;Node6</title>
<path fill="none" stroke="midnightblue" d="M1102.29,-172.66C1110.47,-164.76 1119.16,-154.4 1123.5,-143 1128.4,-130.12 1130.49,-123.87 1123.5,-112 1112.73,-93.7 1091.53,-82.31 1073.52,-75.56"/>
<polygon fill="midnightblue" stroke="midnightblue" points="1099.86,-170.14 1094.77,-179.43 1104.54,-175.34 1099.86,-170.14"/>
</g>
<!-- Node8 -->
<g id="node8" class="node">
<title>Node8</title>
<g id="a_node8"><a xlink:href="gov__effects_8h.html" target="_top" xlink:title=" ">
<polygon fill="white" stroke="black" points="970.5,-118 970.5,-137 1114.5,-137 1114.5,-118 970.5,-118"/>
<text text-anchor="middle" x="1042.5" y="-125" font-family="Helvetica,sans-Serif" font-size="10.00">src/node/rpc/gov_effects.h</text>
</a>
</g>
</g>
<!-- Node5&#45;&gt;Node8 -->
<g id="edge7" class="edge">
<title>Node5&#45;&gt;Node8</title>
<path fill="none" stroke="midnightblue" d="M1071.79,-171.01C1064.13,-159.89 1054.45,-145.84 1048.36,-137.01"/>
<polygon fill="midnightblue" stroke="midnightblue" points="1069.07,-173.23 1077.63,-179.48 1074.83,-169.25 1069.07,-173.23"/>
</g>
<!-- Node7 -->
<g id="node7" class="node">
<title>Node7</title>
<g id="a_node7"><a xlink:href="enclave_2main_8cpp.html" target="_top" xlink:title=" ">
<polygon fill="white" stroke="black" points="982.5,-0.5 982.5,-19.5 1102.5,-19.5 1102.5,-0.5 982.5,-0.5"/>
<text text-anchor="middle" x="1042.5" y="-7.5" font-family="Helvetica,sans-Serif" font-size="10.00">src/enclave/main.cpp</text>
</a>
</g>
</g>
<!-- Node6&#45;&gt;Node7 -->
<g id="edge6" class="edge">
<title>Node6&#45;&gt;Node7</title>
<path fill="none" stroke="midnightblue" d="M1042.5,-45.8C1042.5,-36.91 1042.5,-26.78 1042.5,-19.75"/>
<polygon fill="midnightblue" stroke="midnightblue" points="1039,-46.08 1042.5,-56.08 1046,-46.08 1039,-46.08"/>
</g>
<!-- Node8&#45;&gt;Node6 -->
<g id="edge8" class="edge">
<title>Node8&#45;&gt;Node6</title>
<path fill="none" stroke="midnightblue" d="M1042.5,-107.82C1042.5,-97 1042.5,-83.9 1042.5,-75.51"/>
<polygon fill="midnightblue" stroke="midnightblue" points="1039,-107.98 1042.5,-117.98 1046,-107.98 1039,-107.98"/>
</g>
<!-- Node10&#45;&gt;Node6 -->
<g id="edge11" class="edge">
<title>Node10&#45;&gt;Node6</title>
<path fill="none" stroke="midnightblue" d="M119.63,-293.59C130.81,-274.81 149.19,-249.11 172.5,-235 310.61,-151.43 807.01,-91.97 981.4,-73.26"/>
<polygon fill="midnightblue" stroke="midnightblue" points="116.51,-292.01 114.59,-302.43 122.59,-295.48 116.51,-292.01"/>
</g>
<!-- Node11 -->
<g id="node11" class="node">
<title>Node11</title>
<g id="a_node11"><a xlink:href="historical__transaction__fetcher_8h.html" target="_top" xlink:title=" ">
<polygon fill="white" stroke="black" points="0,-112.5 0,-142.5 125,-142.5 125,-112.5 0,-112.5"/>
<text text-anchor="start" x="8" y="-130.5" font-family="Helvetica,sans-Serif" font-size="10.00">src/indexing/historical</text>
<text text-anchor="middle" x="62.5" y="-119.5" font-family="Helvetica,sans-Serif" font-size="10.00">_transaction_fetcher.h</text>
</a>
</g>
</g>
<!-- Node10&#45;&gt;Node11 -->
<g id="edge12" class="edge">
<title>Node10&#45;&gt;Node11</title>
<path fill="none" stroke="midnightblue" d="M101.75,-292.47C92.23,-252.7 73.5,-174.44 65.86,-142.54"/>
<polygon fill="midnightblue" stroke="midnightblue" points="98.39,-293.46 104.12,-302.37 105.19,-291.83 98.39,-293.46"/>
</g>
<!-- Node11&#45;&gt;Node6 -->
<g id="edge13" class="edge">
<title>Node11&#45;&gt;Node6</title>
<path fill="none" stroke="midnightblue" d="M135.03,-112.56C136.53,-112.36 138.02,-112.18 139.5,-112 454.76,-74.64 835.5,-68.22 981.49,-67.18"/>
<polygon fill="midnightblue" stroke="midnightblue" points="134.41,-109.11 125.01,-113.99 135.4,-116.04 134.41,-109.11"/>
</g>
<!-- Node12&#45;&gt;Node5 -->
<g id="edge16" class="edge">
<title>Node12&#45;&gt;Node5</title>
<path fill="none" stroke="midnightblue" d="M464.23,-432C456.77,-401.61 447,-340.66 475.5,-302 539.67,-214.96 879.5,-195.55 1021.29,-191.23"/>
<polygon fill="midnightblue" stroke="midnightblue" points="460.86,-432.94 466.8,-441.71 467.63,-431.15 460.86,-432.94"/>
</g>
<!-- Node12&#45;&gt;Node10 -->
<g id="edge15" class="edge">
<title>Node12&#45;&gt;Node10</title>
<path fill="none" stroke="midnightblue" d="M428.58,-439.15C394.97,-429.55 346.28,-415 304.5,-400 245.1,-378.68 177.44,-349.61 138.87,-332.57"/>
<polygon fill="midnightblue" stroke="midnightblue" points="427.92,-442.6 438.5,-441.97 429.83,-435.87 427.92,-442.6"/>
</g>
<!-- Node13 -->
<g id="node13" class="node">
<title>Node13</title>
<g id="a_node13"><a xlink:href="snapshot__serdes_8h.html" target="_top" xlink:title=" ">
<polygon fill="white" stroke="black" points="484.5,-308 484.5,-327 636.5,-327 636.5,-308 484.5,-308"/>
<text text-anchor="middle" x="560.5" y="-315" font-family="Helvetica,sans-Serif" font-size="10.00">src/node/snapshot_serdes.h</text>
</a>
</g>
</g>
<!-- Node12&#45;&gt;Node13 -->
<g id="edge17" class="edge">
<title>Node12&#45;&gt;Node13</title>
<path fill="none" stroke="midnightblue" d="M481.36,-433.29C501.08,-404.69 539.88,-348.41 554.63,-327.02"/>
<polygon fill="midnightblue" stroke="midnightblue" points="478.27,-431.62 475.47,-441.84 484.03,-435.59 478.27,-431.62"/>
</g>
<!-- Node15 -->
<g id="node15" class="node">
<title>Node15</title>
<g id="a_node15"><a xlink:href="tx__receipt__impl_8h.html" target="_top" xlink:title=" ">
<polygon fill="white" stroke="black" points="313.5,-369.5 313.5,-399.5 423.5,-399.5 423.5,-369.5 313.5,-369.5"/>
<text text-anchor="start" x="321.5" y="-387.5" font-family="Helvetica,sans-Serif" font-size="10.00">src/node/tx_receipt</text>
<text text-anchor="middle" x="368.5" y="-376.5" font-family="Helvetica,sans-Serif" font-size="10.00">_impl.h</text>
</a>
</g>
</g>
<!-- Node12&#45;&gt;Node15 -->
<g id="edge20" class="edge">
<title>Node12&#45;&gt;Node15</title>
<path fill="none" stroke="midnightblue" d="M447.21,-436.15C430.3,-425.27 407.2,-410.4 390.39,-399.59"/>
<polygon fill="midnightblue" stroke="midnightblue" points="445.58,-439.27 455.88,-441.73 449.36,-433.38 445.58,-439.27"/>
</g>
<!-- Node13&#45;&gt;Node14 -->
<g id="edge18" class="edge">
<title>Node13&#45;&gt;Node14</title>
<path fill="none" stroke="midnightblue" d="M596.38,-304.6C635.24,-291.71 696.27,-271.47 730.68,-260.06"/>
<polygon fill="midnightblue" stroke="midnightblue" points="594.92,-301.4 586.53,-307.87 597.12,-308.04 594.92,-301.4"/>
</g>
<!-- Node14&#45;&gt;Node5 -->
<g id="edge19" class="edge">
<title>Node14&#45;&gt;Node5</title>
<path fill="none" stroke="midnightblue" d="M812.34,-239.09C819.79,-237.71 827.33,-236.31 834.5,-235 904.5,-222.17 985.62,-207.56 1035.75,-198.56"/>
<polygon fill="midnightblue" stroke="midnightblue" points="811.47,-235.69 802.27,-240.95 812.75,-242.57 811.47,-235.69"/>
</g>
<!-- Node15&#45;&gt;Node10 -->
<g id="edge24" class="edge">
<title>Node15&#45;&gt;Node10</title>
<path fill="none" stroke="midnightblue" d="M303.71,-367.37C259.65,-356.39 202.05,-342.05 160.67,-331.74"/>
<polygon fill="midnightblue" stroke="midnightblue" points="302.92,-370.77 313.47,-369.79 304.61,-363.98 302.92,-370.77"/>
</g>
<!-- Node15&#45;&gt;Node13 -->
<g id="edge26" class="edge">
<title>Node15&#45;&gt;Node13</title>
<path fill="none" stroke="midnightblue" d="M419.87,-366.11C457.23,-353.46 506.17,-336.89 535.37,-327.01"/>
<polygon fill="midnightblue" stroke="midnightblue" points="418.51,-362.87 410.16,-369.4 420.76,-369.5 418.51,-362.87"/>
</g>
<!-- Node16 -->
<g id="node16" class="node">
<title>Node16</title>
<g id="a_node16"><a xlink:href="src_2apps_2js__v8_2tmpl_2receipt_8h.html" target="_top" xlink:title=" ">
<polygon fill="white" stroke="black" points="179,-302.5 179,-332.5 290,-332.5 290,-302.5 179,-302.5"/>
<text text-anchor="start" x="187" y="-320.5" font-family="Helvetica,sans-Serif" font-size="10.00">src/apps/js_v8/tmpl</text>
<text text-anchor="middle" x="234.5" y="-309.5" font-family="Helvetica,sans-Serif" font-size="10.00">/receipt.h</text>
</a>
</g>
</g>
<!-- Node15&#45;&gt;Node16 -->
<g id="edge21" class="edge">
<title>Node15&#45;&gt;Node16</title>
<path fill="none" stroke="midnightblue" d="M330.35,-364.99C309.11,-354.69 283.09,-342.07 263.52,-332.58"/>
<polygon fill="midnightblue" stroke="midnightblue" points="328.9,-368.18 339.42,-369.4 331.95,-361.88 328.9,-368.18"/>
</g>
<!-- Node19 -->
<g id="node19" class="node">
<title>Node19</title>
<g id="a_node19"><a xlink:href="historical__queries__adapter_8cpp.html" target="_top" xlink:title=" ">
<polygon fill="white" stroke="black" points="308.5,-302.5 308.5,-332.5 428.5,-332.5 428.5,-302.5 308.5,-302.5"/>
<text text-anchor="start" x="316.5" y="-320.5" font-family="Helvetica,sans-Serif" font-size="10.00">src/node/historical</text>
<text text-anchor="middle" x="368.5" y="-309.5" font-family="Helvetica,sans-Serif" font-size="10.00">_queries_adapter.cpp</text>
</a>
</g>
</g>
<!-- Node15&#45;&gt;Node19 -->
<g id="edge25" class="edge">
<title>Node15&#45;&gt;Node19</title>
<path fill="none" stroke="midnightblue" d="M368.5,-359.11C368.5,-350.15 368.5,-340.32 368.5,-332.58"/>
<polygon fill="midnightblue" stroke="midnightblue" points="365,-359.4 368.5,-369.4 372,-359.4 365,-359.4"/>
</g>
<!-- Node17 -->
<g id="node17" class="node">
<title>Node17</title>
<g id="a_node17"><a xlink:href="historical__state_8cpp.html" target="_top" xlink:title=" ">
<polygon fill="white" stroke="black" points="311,-235.5 311,-265.5 426,-265.5 426,-235.5 311,-235.5"/>
<text text-anchor="start" x="319" y="-253.5" font-family="Helvetica,sans-Serif" font-size="10.00">src/apps/js_v8/tmpl</text>
<text text-anchor="middle" x="368.5" y="-242.5" font-family="Helvetica,sans-Serif" font-size="10.00">/historical_state.cpp</text>
</a>
</g>
</g>
<!-- Node16&#45;&gt;Node17 -->
<g id="edge22" class="edge">
<title>Node16&#45;&gt;Node17</title>
<path fill="none" stroke="midnightblue" d="M272.65,-297.99C293.89,-287.69 319.91,-275.07 339.48,-265.58"/>
<polygon fill="midnightblue" stroke="midnightblue" points="271.05,-294.88 263.58,-302.4 274.1,-301.18 271.05,-294.88"/>
</g>
<!-- Node18 -->
<g id="node18" class="node">
<title>Node18</title>
<g id="a_node18"><a xlink:href="apps_2js__v8_2tmpl_2receipt_8cpp.html" target="_top" xlink:title=" ">
<polygon fill="white" stroke="black" points="182,-235.5 182,-265.5 293,-265.5 293,-235.5 182,-235.5"/>
<text text-anchor="start" x="190" y="-253.5" font-family="Helvetica,sans-Serif" font-size="10.00">src/apps/js_v8/tmpl</text>
<text text-anchor="middle" x="237.5" y="-242.5" font-family="Helvetica,sans-Serif" font-size="10.00">/receipt.cpp</text>
</a>
</g>
</g>
<!-- Node16&#45;&gt;Node18 -->
<g id="edge23" class="edge">
<title>Node16&#45;&gt;Node18</title>
<path fill="none" stroke="midnightblue" d="M235.61,-292.4C236.03,-283.37 236.49,-273.41 236.85,-265.58"/>
<polygon fill="midnightblue" stroke="midnightblue" points="232.12,-292.25 235.15,-302.4 239.11,-292.57 232.12,-292.25"/>
</g>
<!-- Node20&#45;&gt;Node5 -->
<g id="edge28" class="edge">
<title>Node20&#45;&gt;Node5</title>
<path fill="none" stroke="midnightblue" d="M876.69,-370.31C861.71,-361.95 844.98,-349.57 836.5,-333 830.22,-320.73 829.4,-313.81 836.5,-302 875.24,-237.53 961.81,-209.9 1021.44,-198.25"/>
<polygon fill="midnightblue" stroke="midnightblue" points="875.21,-373.48 885.7,-374.99 878.44,-367.27 875.21,-373.48"/>
</g>
<!-- Node21 -->
<g id="node21" class="node">
<title>Node21</title>
<g id="a_node21"><a xlink:href="member__frontend_8h.html" target="_top" xlink:title=" ">
<polygon fill="white" stroke="black" points="2182.5,-235.5 2182.5,-265.5 2302.5,-265.5 2302.5,-235.5 2182.5,-235.5"/>
<text text-anchor="start" x="2190.5" y="-253.5" font-family="Helvetica,sans-Serif" font-size="10.00">src/node/rpc/member</text>
<text text-anchor="middle" x="2242.5" y="-242.5" font-family="Helvetica,sans-Serif" font-size="10.00">_frontend.h</text>
</a>
</g>
</g>
<!-- Node20&#45;&gt;Node21 -->
<g id="edge29" class="edge">
<title>Node20&#45;&gt;Node21</title>
<path fill="none" stroke="midnightblue" d="M954.34,-373.06C963.01,-371.47 972,-370.02 980.5,-369 1327.26,-327.31 1418.26,-370.48 1765.5,-333 1916.48,-316.7 2092.05,-282.79 2182.22,-264.26"/>
<polygon fill="midnightblue" stroke="midnightblue" points="953.52,-369.65 944.36,-374.97 954.83,-376.52 953.52,-369.65"/>
</g>
<!-- Node22 -->
<g id="node22" class="node">
<title>Node22</title>
<g id="a_node22"><a xlink:href="node__frontend_8h.html" target="_top" xlink:title=" ">
<polygon fill="white" stroke="black" points="1018.5,-308 1018.5,-327 1176.5,-327 1176.5,-308 1018.5,-308"/>
<text text-anchor="middle" x="1097.5" y="-315" font-family="Helvetica,sans-Serif" font-size="10.00">src/node/rpc/node_frontend.h</text>
</a>
</g>
</g>
<!-- Node20&#45;&gt;Node22 -->
<g id="edge31" class="edge">
<title>Node20&#45;&gt;Node22</title>
<path fill="none" stroke="midnightblue" d="M941.46,-371.6C979.33,-358.71 1038.81,-338.47 1072.34,-327.06"/>
<polygon fill="midnightblue" stroke="midnightblue" points="940.2,-368.33 931.86,-374.87 942.46,-374.96 940.2,-368.33"/>
</g>
<!-- Node24 -->
<g id="node24" class="node">
<title>Node24</title>
<g id="a_node24"><a xlink:href="user__frontend_8h.html" target="_top" xlink:title=" ">
<polygon fill="white" stroke="black" points="845,-308 845,-327 1000,-327 1000,-308 845,-308"/>
<text text-anchor="middle" x="922.5" y="-315" font-family="Helvetica,sans-Serif" font-size="10.00">src/node/rpc/user_frontend.h</text>
</a>
</g>
</g>
<!-- Node20&#45;&gt;Node24 -->
<g id="edge35" class="edge">
<title>Node20&#45;&gt;Node24</title>
<path fill="none" stroke="midnightblue" d="M911.07,-364.91C914.13,-352.49 918.02,-336.72 920.38,-327.13"/>
<polygon fill="midnightblue" stroke="midnightblue" points="907.65,-364.19 908.66,-374.73 914.45,-365.86 907.65,-364.19"/>
</g>
<!-- Node21&#45;&gt;Node6 -->
<g id="edge30" class="edge">
<title>Node21&#45;&gt;Node6</title>
<path fill="none" stroke="midnightblue" d="M2237.33,-225.56C2228.99,-193.42 2209.19,-137.43 2168.5,-112 2123.11,-83.64 1332.24,-70.88 1103.81,-67.78"/>
<polygon fill="midnightblue" stroke="midnightblue" points="2233.98,-226.57 2239.74,-235.47 2240.78,-224.92 2233.98,-226.57"/>
</g>
<!-- Node22&#45;&gt;Node6 -->
<g id="edge32" class="edge">
<title>Node22&#45;&gt;Node6</title>
<path fill="none" stroke="midnightblue" d="M1021.53,-305.1C998.82,-297.77 976.31,-285.73 962.5,-266 923.26,-209.92 926.79,-170.99 961.5,-112 972.27,-93.7 993.47,-82.31 1011.48,-75.56"/>
<polygon fill="midnightblue" stroke="midnightblue" points="1020.67,-308.5 1031.25,-307.97 1022.65,-301.78 1020.67,-308.5"/>
</g>
<!-- Node23 -->
<g id="node23" class="node">
<title>Node23</title>
<g id="a_node23"><a xlink:href="jwt__key__auto__refresh_8h.html" target="_top" xlink:title=" ">
<polygon fill="white" stroke="black" points="971,-235.5 971,-265.5 1096,-265.5 1096,-235.5 971,-235.5"/>
<text text-anchor="start" x="979" y="-253.5" font-family="Helvetica,sans-Serif" font-size="10.00">src/node/jwt_key_auto</text>
<text text-anchor="middle" x="1033.5" y="-242.5" font-family="Helvetica,sans-Serif" font-size="10.00">_refresh.h</text>
</a>
</g>
</g>
<!-- Node22&#45;&gt;Node23 -->
<g id="edge33" class="edge">
<title>Node22&#45;&gt;Node23</title>
<path fill="none" stroke="midnightblue" d="M1081.55,-300.3C1071.05,-289.63 1057.43,-275.8 1047.37,-265.59"/>
<polygon fill="midnightblue" stroke="midnightblue" points="1079.36,-303.06 1088.87,-307.73 1084.35,-298.15 1079.36,-303.06"/>
</g>
<!-- Node23&#45;&gt;Node5 -->
<g id="edge34" class="edge">
<title>Node23&#45;&gt;Node5</title>
<path fill="none" stroke="midnightblue" d="M1051.82,-227.7C1060.28,-217.64 1069.84,-206.26 1076.22,-198.66"/>
<polygon fill="midnightblue" stroke="midnightblue" points="1049.1,-225.49 1045.35,-235.4 1054.46,-230 1049.1,-225.49"/>
</g>
<!-- Node24&#45;&gt;Node6 -->
<g id="edge36" class="edge">
<title>Node24&#45;&gt;Node6</title>
<path fill="none" stroke="midnightblue" d="M918.22,-298.03C910.35,-259.06 898.08,-167.44 941.5,-112 956.24,-93.18 980.53,-82.03 1001.59,-75.53"/>
<polygon fill="midnightblue" stroke="midnightblue" points="914.83,-298.92 920.37,-307.95 921.67,-297.43 914.83,-298.92"/>
</g>
<!-- Node26 -->
<g id="node26" class="node">
<title>Node26</title>
<g id="a_node26"><a xlink:href="kv__module__loader_8cpp.html" target="_top" xlink:title=" ">
<polygon fill="white" stroke="black" points="989,-369.5 989,-399.5 1132,-399.5 1132,-369.5 989,-369.5"/>
<text text-anchor="start" x="997" y="-387.5" font-family="Helvetica,sans-Serif" font-size="10.00">src/apps/js_v8/kv_module</text>
<text text-anchor="middle" x="1060.5" y="-376.5" font-family="Helvetica,sans-Serif" font-size="10.00">_loader.cpp</text>
</a>
</g>
</g>
<!-- Node25&#45;&gt;Node26 -->
<g id="edge39" class="edge">
<title>Node25&#45;&gt;Node26</title>
<path fill="none" stroke="midnightblue" d="M1060.5,-426.11C1060.5,-417.15 1060.5,-407.32 1060.5,-399.58"/>
<polygon fill="midnightblue" stroke="midnightblue" points="1057,-426.4 1060.5,-436.4 1064,-426.4 1057,-426.4"/>
</g>
<!-- Node27 -->
<g id="node27" class="node">
<title>Node27</title>
<g id="a_node27"><a xlink:href="network__state_8h.html" target="_top" xlink:title=" ">
<polygon fill="white" stroke="black" points="1150.5,-375 1150.5,-394 1290.5,-394 1290.5,-375 1150.5,-375"/>
<text text-anchor="middle" x="1220.5" y="-382" font-family="Helvetica,sans-Serif" font-size="10.00">src/node/network_state.h</text>
</a>
</g>
</g>
<!-- Node25&#45;&gt;Node27 -->
<g id="edge40" class="edge">
<title>Node25&#45;&gt;Node27</title>
<path fill="none" stroke="midnightblue" d="M1104.51,-432.62C1135.48,-420.04 1175.54,-403.77 1199.56,-394.01"/>
<polygon fill="midnightblue" stroke="midnightblue" points="1103.16,-429.39 1095.22,-436.4 1105.8,-435.87 1103.16,-429.39"/>
</g>
<!-- Node38 -->
<g id="node38" class="node">
<title>Node38</title>
<g id="a_node38"><a xlink:href="genesis__gen_8h.html" target="_top" xlink:title=" ">
<polygon fill="white" stroke="black" points="1341.5,-369.5 1341.5,-399.5 1451.5,-399.5 1451.5,-369.5 1341.5,-369.5"/>
<text text-anchor="start" x="1349.5" y="-387.5" font-family="Helvetica,sans-Serif" font-size="10.00">src/service/genesis</text>
<text text-anchor="middle" x="1396.5" y="-376.5" font-family="Helvetica,sans-Serif" font-size="10.00">_gen.h</text>
</a>
</g>
</g>
<!-- Node25&#45;&gt;Node38 -->
<g id="edge66" class="edge">
<title>Node25&#45;&gt;Node38</title>
<path fill="none" stroke="midnightblue" d="M1126.93,-437.65C1189.7,-425.51 1282.75,-407.51 1341.47,-396.14"/>
<polygon fill="midnightblue" stroke="midnightblue" points="1125.89,-434.28 1116.74,-439.62 1127.22,-441.16 1125.89,-434.28"/>
</g>
<!-- Node27&#45;&gt;Node5 -->
<g id="edge57" class="edge">
<title>Node27&#45;&gt;Node5</title>
<path fill="none" stroke="midnightblue" d="M1215.47,-364.81C1210.11,-347.3 1200.32,-321.04 1185.5,-302 1169.34,-281.24 1156.85,-284.86 1138.5,-266 1117.14,-244.06 1097.49,-213.36 1088.56,-198.59"/>
<polygon fill="midnightblue" stroke="midnightblue" points="1212.25,-366.25 1218.37,-374.89 1218.97,-364.32 1212.25,-366.25"/>
</g>
<!-- Node27&#45;&gt;Node6 -->
<g id="edge41" class="edge">
<title>Node27&#45;&gt;Node6</title>
<path fill="none" stroke="midnightblue" d="M1292.42,-373.69C1305.73,-372.02 1319.53,-370.38 1332.5,-369 1495.86,-351.64 2125.59,-385.4 2059.5,-235 2012.7,-128.52 1942.1,-136.96 1828.5,-112 1690.58,-81.69 1263.25,-70.99 1103.55,-67.99"/>
<polygon fill="midnightblue" stroke="midnightblue" points="1291.83,-370.24 1282.35,-374.98 1292.71,-377.18 1291.83,-370.24"/>
</g>
<!-- Node27&#45;&gt;Node14 -->
<g id="edge65" class="edge">
<title>Node27&#45;&gt;Node14</title>
<path fill="none" stroke="midnightblue" d="M1166.61,-373.13C1158.22,-371.66 1149.64,-370.23 1141.5,-369 1006.53,-348.67 959.04,-393.12 836.5,-333 801.61,-315.88 773.25,-277.2 761.87,-260.01"/>
<polygon fill="midnightblue" stroke="midnightblue" points="1166.25,-376.62 1176.71,-374.95 1167.48,-369.73 1166.25,-376.62"/>
</g>
<!-- Node27&#45;&gt;Node22 -->
<g id="edge58" class="edge">
<title>Node27&#45;&gt;Node22</title>
<path fill="none" stroke="midnightblue" d="M1195.15,-370.1C1170.79,-357.23 1134.7,-338.16 1113.9,-327.17"/>
<polygon fill="midnightblue" stroke="midnightblue" points="1193.69,-373.29 1204.17,-374.87 1196.96,-367.1 1193.69,-373.29"/>
</g>
<!-- Node27&#45;&gt;Node24 -->
<g id="edge59" class="edge">
<title>Node27&#45;&gt;Node24</title>
<path fill="none" stroke="midnightblue" d="M1171.46,-372.8C1112.82,-360.01 1015.83,-338.86 961.85,-327.08"/>
<polygon fill="midnightblue" stroke="midnightblue" points="1170.72,-376.22 1181.24,-374.94 1172.21,-369.38 1170.72,-376.22"/>
</g>
<!-- Node28 -->
<g id="node28" class="node">
<title>Node28</title>
<g id="a_node28"><a xlink:href="wrap_8h.html" target="_top" xlink:title=" ">
<polygon fill="white" stroke="black" points="1678.5,-308 1678.5,-327 1756.5,-327 1756.5,-308 1678.5,-308"/>
<text text-anchor="middle" x="1717.5" y="-315" font-family="Helvetica,sans-Serif" font-size="10.00">src/js/wrap.h</text>
</a>
</g>
</g>
<!-- Node27&#45;&gt;Node28 -->
<g id="edge42" class="edge">
<title>Node27&#45;&gt;Node28</title>
<path fill="none" stroke="midnightblue" d="M1295.84,-373.65C1403.1,-359.62 1595.97,-334.39 1678.4,-323.61"/>
<polygon fill="midnightblue" stroke="midnightblue" points="1295.19,-370.2 1285.73,-374.97 1296.1,-377.14 1295.19,-370.2"/>
</g>
<!-- Node36 -->
<g id="node36" class="node">
<title>Node36</title>
<g id="a_node36"><a xlink:href="secret__broadcast_8h.html" target="_top" xlink:title=" ">
<polygon fill="white" stroke="black" points="1233,-308 1233,-327 1386,-327 1386,-308 1233,-308"/>
<text text-anchor="middle" x="1309.5" y="-315" font-family="Helvetica,sans-Serif" font-size="10.00">src/node/secret_broadcast.h</text>
</a>
</g>
</g>
<!-- Node27&#45;&gt;Node36 -->
<g id="edge60" class="edge">
<title>Node27&#45;&gt;Node36</title>
<path fill="none" stroke="midnightblue" d="M1240.95,-368.57C1258.51,-355.74 1283.23,-337.69 1297.69,-327.13"/>
<polygon fill="midnightblue" stroke="midnightblue" points="1238.51,-366.01 1232.5,-374.73 1242.64,-371.66 1238.51,-366.01"/>
</g>
<!-- Node37 -->
<g id="node37" class="node">
<title>Node37</title>
<g id="a_node37"><a xlink:href="share__manager_8h.html" target="_top" xlink:title=" ">
<polygon fill="white" stroke="black" points="2069,-308 2069,-327 2214,-327 2214,-308 2069,-308"/>
<text text-anchor="middle" x="2141.5" y="-315" font-family="Helvetica,sans-Serif" font-size="10.00">src/node/share_manager.h</text>
</a>
</g>
</g>
<!-- Node27&#45;&gt;Node37 -->
<g id="edge62" class="edge">
<title>Node27&#45;&gt;Node37</title>
<path fill="none" stroke="midnightblue" d="M1289.58,-373.69C1303.76,-371.92 1318.59,-370.25 1332.5,-369 1652.51,-340.35 1735.07,-367.47 2054.5,-333 2068.2,-331.52 2083.02,-329.29 2096.48,-327.02"/>
<polygon fill="midnightblue" stroke="midnightblue" points="1288.88,-370.25 1279.4,-374.99 1289.77,-377.19 1288.88,-370.25"/>
</g>
<!-- Node28&#45;&gt;Node5 -->
<g id="edge55" class="edge">
<title>Node28&#45;&gt;Node5</title>
<path fill="none" stroke="midnightblue" d="M1668.34,-314.27C1565.63,-309.1 1331.63,-294.5 1257.5,-266 1235.51,-257.55 1235.42,-245.83 1214.5,-235 1182.89,-218.64 1144.05,-206.15 1116.9,-198.53"/>
<polygon fill="midnightblue" stroke="midnightblue" points="1668.29,-317.77 1678.45,-314.77 1668.64,-310.78 1668.29,-317.77"/>
</g>
<!-- Node28&#45;&gt;Node6 -->
<g id="edge44" class="edge">
<title>Node28&#45;&gt;Node6</title>
<path fill="none" stroke="midnightblue" d="M1750.28,-304.94C1754.04,-303.85 1757.83,-302.83 1761.5,-302 1885.43,-273.82 2110.36,-340.51 2039.5,-235 1934.42,-78.53 1304.05,-66.35 1103.63,-66.49"/>
<polygon fill="midnightblue" stroke="midnightblue" points="1749.06,-301.66 1740.56,-307.99 1751.15,-308.34 1749.06,-301.66"/>
</g>
<!-- Node28&#45;&gt;Node21 -->
<g id="edge56" class="edge">
<title>Node28&#45;&gt;Node21</title>
<path fill="none" stroke="midnightblue" d="M1766.45,-310.63C1843.79,-301.32 1998.98,-282.55 2130.5,-266 2147.33,-263.88 2165.57,-261.54 2182.35,-259.37"/>
<polygon fill="midnightblue" stroke="midnightblue" points="1766.03,-307.15 1756.52,-311.82 1766.86,-314.1 1766.03,-307.15"/>
</g>
<!-- Node29 -->
<g id="node29" class="node">
<title>Node29</title>
<g id="a_node29"><a xlink:href="js__generic__base_8cpp.html" target="_top" xlink:title=" ">
<polygon fill="white" stroke="black" points="1412.5,-235.5 1412.5,-265.5 1530.5,-265.5 1530.5,-235.5 1412.5,-235.5"/>
<text text-anchor="start" x="1420.5" y="-253.5" font-family="Helvetica,sans-Serif" font-size="10.00">src/apps/js_generic</text>
<text text-anchor="middle" x="1471.5" y="-242.5" font-family="Helvetica,sans-Serif" font-size="10.00">/js_generic_base.cpp</text>
</a>
</g>
</g>
<!-- Node28&#45;&gt;Node29 -->
<g id="edge43" class="edge">
<title>Node28&#45;&gt;Node29</title>
<path fill="none" stroke="midnightblue" d="M1675.26,-305.34C1633.6,-294.33 1569.8,-277.47 1524.71,-265.56"/>
<polygon fill="midnightblue" stroke="midnightblue" points="1674.52,-308.76 1685.09,-307.94 1676.31,-302 1674.52,-308.76"/>
</g>
<!-- Node30 -->
<g id="node30" class="node">
<title>Node30</title>
<g id="a_node30"><a xlink:href="js_2consensus_8cpp.html" target="_top" xlink:title=" ">
<polygon fill="white" stroke="black" points="1790.5,-241 1790.5,-260 1906.5,-260 1906.5,-241 1790.5,-241"/>
<text text-anchor="middle" x="1848.5" y="-248" font-family="Helvetica,sans-Serif" font-size="10.00">src/js/consensus.cpp</text>
</a>
</g>
</g>
<!-- Node28&#45;&gt;Node30 -->
<g id="edge45" class="edge">
<title>Node28&#45;&gt;Node30</title>
<path fill="none" stroke="midnightblue" d="M1744.16,-303.27C1770.1,-290.4 1808.78,-271.21 1831.03,-260.17"/>
<polygon fill="midnightblue" stroke="midnightblue" points="1742.3,-300.29 1734.9,-307.87 1745.41,-306.56 1742.3,-300.29"/>
</g>
<!-- Node31 -->
<g id="node31" class="node">
<title>Node31</title>
<g id="a_node31"><a xlink:href="wrap_8cpp.html" target="_top" xlink:title=" ">
<polygon fill="white" stroke="black" points="1804,-179.5 1804,-198.5 1893,-198.5 1893,-179.5 1804,-179.5"/>
<text text-anchor="middle" x="1848.5" y="-186.5" font-family="Helvetica,sans-Serif" font-size="10.00">src/js/wrap.cpp</text>
</a>
</g>
</g>
<!-- Node28&#45;&gt;Node31 -->
<g id="edge54" class="edge">
<title>Node28&#45;&gt;Node31</title>
<path fill="none" stroke="midnightblue" d="M1766.75,-311.79C1848.58,-303.46 2005.22,-285.2 2021.5,-266 2060.1,-220.45 1956.38,-201.26 1893.19,-193.96"/>
<polygon fill="midnightblue" stroke="midnightblue" points="1766.28,-308.32 1756.68,-312.8 1766.98,-315.29 1766.28,-308.32"/>
</g>
<!-- Node32 -->
<g id="node32" class="node">
<title>Node32</title>
<g id="a_node32"><a xlink:href="conv_8cpp.html" target="_top" xlink:title=" ">
<polygon fill="white" stroke="black" points="1924.5,-241 1924.5,-260 2012.5,-260 2012.5,-241 1924.5,-241"/>
<text text-anchor="middle" x="1968.5" y="-248" font-family="Helvetica,sans-Serif" font-size="10.00">src/js/conv.cpp</text>
</a>
</g>
</g>
<!-- Node28&#45;&gt;Node32 -->
<g id="edge47" class="edge">
<title>Node28&#45;&gt;Node32</title>
<path fill="none" stroke="midnightblue" d="M1761.63,-305.48C1801.8,-295.39 1862.7,-279.96 1915.5,-266 1922.69,-264.1 1930.42,-262.01 1937.7,-260.02"/>
<polygon fill="midnightblue" stroke="midnightblue" points="1760.73,-302.09 1751.89,-307.92 1762.44,-308.88 1760.73,-302.09"/>
</g>
<!-- Node33 -->
<g id="node33" class="node">
<title>Node33</title>
<g id="a_node33"><a xlink:href="js_2crypto_8cpp.html" target="_top" xlink:title=" ">
<polygon fill="white" stroke="black" points="1548.5,-241 1548.5,-260 1644.5,-260 1644.5,-241 1548.5,-241"/>
<text text-anchor="middle" x="1596.5" y="-248" font-family="Helvetica,sans-Serif" font-size="10.00">src/js/crypto.cpp</text>
</a>
</g>
</g>
<!-- Node28&#45;&gt;Node33 -->
<g id="edge49" class="edge">
<title>Node28&#45;&gt;Node33</title>
<path fill="none" stroke="midnightblue" d="M1692.29,-302.96C1668.3,-290.07 1632.94,-271.07 1612.56,-260.13"/>
<polygon fill="midnightblue" stroke="midnightblue" points="1690.72,-306.08 1701.18,-307.73 1694.03,-299.92 1690.72,-306.08"/>
</g>
<!-- Node34 -->
<g id="node34" class="node">
<title>Node34</title>
<g id="a_node34"><a xlink:href="js_2historical_8cpp.html" target="_top" xlink:title=" ">
<polygon fill="white" stroke="black" points="1662.5,-241 1662.5,-260 1772.5,-260 1772.5,-241 1662.5,-241"/>
<text text-anchor="middle" x="1717.5" y="-248" font-family="Helvetica,sans-Serif" font-size="10.00">src/js/historical.cpp</text>
</a>
</g>
</g>
<!-- Node28&#45;&gt;Node34 -->
<g id="edge51" class="edge">
<title>Node28&#45;&gt;Node34</title>
<path fill="none" stroke="midnightblue" d="M1717.5,-297.54C1717.5,-285.17 1717.5,-269.62 1717.5,-260.13"/>
<polygon fill="midnightblue" stroke="midnightblue" points="1714,-297.73 1717.5,-307.73 1721,-297.73 1714,-297.73"/>
</g>
<!-- Node35 -->
<g id="node35" class="node">
<title>Node35</title>
<g id="a_node35"><a xlink:href="openenclave_8cpp.html" target="_top" xlink:title=" ">
<polygon fill="white" stroke="black" points="1266.5,-241 1266.5,-260 1394.5,-260 1394.5,-241 1266.5,-241"/>
<text text-anchor="middle" x="1330.5" y="-248" font-family="Helvetica,sans-Serif" font-size="10.00">src/js/openenclave.cpp</text>
</a>
</g>
</g>
<!-- Node28&#45;&gt;Node35 -->
<g id="edge53" class="edge">
<title>Node28&#45;&gt;Node35</title>
<path fill="none" stroke="midnightblue" d="M1668,-309.11C1606.04,-299.73 1496.74,-282.75 1403.5,-266 1393.33,-264.17 1382.38,-262.07 1372.14,-260.04"/>
<polygon fill="midnightblue" stroke="midnightblue" points="1667.85,-312.63 1678.26,-310.66 1668.89,-305.71 1667.85,-312.63"/>
</g>
<!-- Node30&#45;&gt;Node31 -->
<g id="edge46" class="edge">
<title>Node30&#45;&gt;Node31</title>
<path fill="none" stroke="midnightblue" d="M1848.5,-230.82C1848.5,-220 1848.5,-206.9 1848.5,-198.51"/>
<polygon fill="midnightblue" stroke="midnightblue" points="1845,-230.98 1848.5,-240.98 1852,-230.98 1845,-230.98"/>
</g>
<!-- Node32&#45;&gt;Node31 -->
<g id="edge48" class="edge">
<title>Node32&#45;&gt;Node31</title>
<path fill="none" stroke="midnightblue" d="M1942.32,-236.52C1919.05,-224.98 1885.7,-208.44 1865.66,-198.51"/>
<polygon fill="midnightblue" stroke="midnightblue" points="1940.79,-239.67 1951.31,-240.98 1943.9,-233.4 1940.79,-239.67"/>
</g>
<!-- Node33&#45;&gt;Node31 -->
<g id="edge50" class="edge">
<title>Node33&#45;&gt;Node31</title>
<path fill="none" stroke="midnightblue" d="M1639.33,-238.5C1644.11,-237.3 1648.9,-236.11 1653.5,-235 1707.86,-221.81 1770.97,-207.42 1810.33,-198.54"/>
<polygon fill="midnightblue" stroke="midnightblue" points="1638.47,-235.1 1629.62,-240.94 1640.18,-241.89 1638.47,-235.1"/>
</g>
<!-- Node34&#45;&gt;Node31 -->
<g id="edge52" class="edge">
<title>Node34&#45;&gt;Node31</title>
<path fill="none" stroke="midnightblue" d="M1745.4,-236.83C1770.83,-225.28 1807.7,-208.53 1829.77,-198.51"/>
<polygon fill="midnightblue" stroke="midnightblue" points="1743.93,-233.65 1736.27,-240.98 1746.82,-240.03 1743.93,-233.65"/>
</g>
<!-- Node36&#45;&gt;Node5 -->
<g id="edge61" class="edge">
<title>Node36&#45;&gt;Node5</title>
<path fill="none" stroke="midnightblue" d="M1274.17,-304.63C1248.99,-295.54 1214.74,-281.89 1186.5,-266 1149.9,-245.4 1111.2,-213.79 1093.45,-198.66"/>
<polygon fill="midnightblue" stroke="midnightblue" points="1273.09,-307.96 1283.68,-308 1275.43,-301.36 1273.09,-307.96"/>
</g>
<!-- Node37&#45;&gt;Node5 -->
<g id="edge63" class="edge">
<title>Node37&#45;&gt;Node5</title>
<path fill="none" stroke="midnightblue" d="M2125.17,-300.97C2103.47,-281.47 2063.02,-248.86 2021.5,-235 1938.96,-207.44 1341.69,-194.55 1145.65,-191.03"/>
<polygon fill="midnightblue" stroke="midnightblue" points="2122.8,-303.55 2132.53,-307.74 2127.54,-298.4 2122.8,-303.55"/>
</g>
<!-- Node37&#45;&gt;Node21 -->
<g id="edge64" class="edge">
<title>Node37&#45;&gt;Node21</title>
<path fill="none" stroke="midnightblue" d="M2163.79,-302.15C2180.7,-291.27 2203.8,-276.4 2220.61,-265.59"/>
<polygon fill="midnightblue" stroke="midnightblue" points="2161.64,-299.38 2155.12,-307.73 2165.42,-305.27 2161.64,-299.38"/>
</g>
<!-- Node38&#45;&gt;Node5 -->
<g id="edge67" class="edge">
<title>Node38&#45;&gt;Node5</title>
<path fill="none" stroke="midnightblue" d="M1403.58,-359.33C1407.21,-341.48 1408.52,-317.67 1395.5,-302 1343.08,-238.92 1288.7,-300.96 1214.5,-266 1194.78,-256.71 1194.88,-246.72 1176.5,-235 1153.06,-220.06 1123.91,-206.71 1104.56,-198.51"/>
<polygon fill="midnightblue" stroke="midnightblue" points="1400.12,-358.75 1401.19,-369.29 1406.92,-360.38 1400.12,-358.75"/>
</g>
<!-- Node38&#45;&gt;Node21 -->
<g id="edge68" class="edge">
<title>Node38&#45;&gt;Node21</title>
<path fill="none" stroke="midnightblue" d="M1461.67,-383.92C1646.73,-384.49 2165.83,-381.71 2223.5,-333 2243.03,-316.5 2244.69,-284.17 2243.82,-265.57"/>
<polygon fill="midnightblue" stroke="midnightblue" points="1461.55,-380.41 1451.54,-383.88 1461.52,-387.41 1461.55,-380.41"/>
</g>
<!-- Node38&#45;&gt;Node22 -->
<g id="edge69" class="edge">
<title>Node38&#45;&gt;Node22</title>
<path fill="none" stroke="midnightblue" d="M1331.28,-369.32C1271.87,-356.41 1186.09,-337.76 1136.65,-327.01"/>
<polygon fill="midnightblue" stroke="midnightblue" points="1330.8,-372.8 1341.31,-371.5 1332.28,-365.96 1330.8,-372.8"/>
</g>
<!-- Node38&#45;&gt;Node36 -->
<g id="edge70" class="edge">
<title>Node38&#45;&gt;Node36</title>
<path fill="none" stroke="midnightblue" d="M1369.52,-363.34C1353.28,-351.21 1333.44,-336.39 1321.14,-327.19"/>
<polygon fill="midnightblue" stroke="midnightblue" points="1367.52,-366.21 1377.62,-369.4 1371.71,-360.61 1367.52,-366.21"/>
</g>
<!-- Node38&#45;&gt;Node37 -->
<g id="edge71" class="edge">
<title>Node38&#45;&gt;Node37</title>
<path fill="none" stroke="midnightblue" d="M1461.68,-380.41C1580.06,-374.38 1838.17,-359.28 2054.5,-333 2067.72,-331.39 2082.01,-329.2 2095.1,-327.01"/>
<polygon fill="midnightblue" stroke="midnightblue" points="1461.5,-376.92 1451.69,-380.92 1461.85,-383.91 1461.5,-376.92"/>
</g>
</g>
</svg>
        <g id="navigator" transform="translate(0 0)" fill="#404254">
                <rect fill="#f2f5e9" fill-opacity="0.5" stroke="#606060" stroke-width=".5" x="0" y="0" width="60" height="60"/>
                <use id="zoomplus" xlink:href="#zoomPlus" x="17" y="9" onmousedown="handleZoom(evt,'in')"/>
                <use id="zoomminus" xlink:href="#zoomMin" x="42" y="9" onmousedown="handleZoom(evt,'out')"/>
                <use id="reset" xlink:href="#resetDef" x="30" y="36" onmousedown="handleReset()"/>
                <g id="arrowUp" xlink:href="#dirArrow" transform="translate(30 24)" onmousedown="handlePan(0,-1)">
                  <use xlink:href="#rim" fill="#404040">
                        <set attributeName="fill" to="#808080" begin="arrowUp.mouseover" end="arrowUp.mouseout"/>
                  </use>
                  <path fill="none" stroke="white" stroke-width="1.5" d="M0,-3.0v7 M-2.5,-0.5L0,-3.0L2.5,-0.5"/>
                </g>
                <g id="arrowRight" xlink:href="#dirArrow" transform="rotate(90) translate(36 -43)" onmousedown="handlePan(1,0)">
                  <use xlink:href="#rim" fill="#404040">
                        <set attributeName="fill" to="#808080" begin="arrowRight.mouseover" end="arrowRight.mouseout"/>
                  </use>
                  <path fill="none" stroke="white" stroke-width="1.5" d="M0,-3.0v7 M-2.5,-0.5L0,-3.0L2.5,-0.5"/>
                </g>
                <g id="arrowDown" xlink:href="#dirArrow" transform="rotate(180) translate(-30 -48)" onmousedown="handlePan(0,1)">
                  <use xlink:href="#rim" fill="#404040">
                        <set attributeName="fill" to="#808080" begin="arrowDown.mouseover" end="arrowDown.mouseout"/>
                  </use>
                  <path fill="none" stroke="white" stroke-width="1.5" d="M0,-3.0v7 M-2.5,-0.5L0,-3.0L2.5,-0.5"/>
                </g>
                <g id="arrowLeft" xlink:href="#dirArrow" transform="rotate(270) translate(-36 17)" onmousedown="handlePan(-1,0)">
                  <use xlink:href="#rim" fill="#404040">
                        <set attributeName="fill" to="#808080" begin="arrowLeft.mouseover" end="arrowLeft.mouseout"/>
                  </use>
                  <path fill="none" stroke="white" stroke-width="1.5" d="M0,-3.0v7 M-2.5,-0.5L0,-3.0L2.5,-0.5"/>
                </g>
        </g>
        <svg viewBox="0 0 15 15" width="100%" height="30px" preserveAspectRatio="xMaxYMin meet">
         <g id="arrow_out" transform="scale(0.3 0.3)">
          <a xlink:href="snapshot__evidence_8h__dep__incl_org.svg" target="_base">
           <rect id="button" ry="5" rx="5" y="6" x="6" height="38" width="38"
                fill="#f2f5e9" fill-opacity="0.5" stroke="#606060" stroke-width="1.0"/>
           <path id="arrow"
             d="M 11.500037,31.436501 C 11.940474,20.09759 22.043105,11.32322 32.158766,21.979434 L 37.068811,17.246167 C 37.068811,17.246167 37.088388,32 37.088388,32 L 22.160133,31.978069 C 22.160133,31.978069 26.997745,27.140456 26.997745,27.140456 C 18.528582,18.264221 13.291696,25.230495 11.500037,31.436501 z"
             style="fill:#404040;"/>
          </a>
         </g>
        </svg>
</svg>
