<?xml version="1.0" encoding="UTF-8" standalone="no"?>
<!DOCTYPE svg PUBLIC "-//W3C//DTD SVG 1.1//EN"
 "http://www.w3.org/Graphics/SVG/1.1/DTD/svg11.dtd">
<!-- Generated by graphviz version 2.43.0 (0)
 -->
<!-- Title: src/crypto/openssl/hash.h Pages: 1 -->
<svg width="1756pt" height="375pt"
 viewBox="0.00 0.00 1755.92 375.00" xmlns="http://www.w3.org/2000/svg" xmlns:xlink="http://www.w3.org/1999/xlink">
<g id="graph0" class="graph" transform="scale(1 1) rotate(0) translate(4 371)">
<title>src/crypto/openssl/hash.h</title>
<polygon fill="white" stroke="transparent" points="-4,4 -4,-371 1751.92,-371 1751.92,4 -4,4"/>
<!-- Node1 -->
<g id="node1" class="node">
<title>Node1</title>
<g id="a_node1"><a xlink:title=" ">
<polygon fill="#bfbfbf" stroke="black" points="1073.42,-336.5 1073.42,-366.5 1178.42,-366.5 1178.42,-336.5 1073.42,-336.5"/>
<text text-anchor="start" x="1081.42" y="-354.5" font-family="Helvetica,sans-Serif" font-size="10.00">src/crypto/openssl</text>
<text text-anchor="middle" x="1125.92" y="-343.5" font-family="Helvetica,sans-Serif" font-size="10.00">/hash.h</text>
</a>
</g>
</g>
<!-- Node2 -->
<g id="node2" class="node">
<title>Node2</title>
<g id="a_node2"><a xlink:href="hash__provider_8h.html" target="_top" xlink:title=" ">
<polygon fill="white" stroke="black" points="246.42,-280.5 246.42,-299.5 391.42,-299.5 391.42,-280.5 246.42,-280.5"/>
<text text-anchor="middle" x="318.92" y="-287.5" font-family="Helvetica,sans-Serif" font-size="10.00">ccf/crypto/hash_provider.h</text>
</a>
</g>
</g>
<!-- Node1&#45;&gt;Node2 -->
<g id="edge1" class="edge">
<title>Node1&#45;&gt;Node2</title>
<path fill="none" stroke="midnightblue" d="M1073.28,-346.62C936.25,-336.52 567.62,-309.34 401.77,-297.11"/>
<polygon fill="midnightblue" stroke="midnightblue" points="401.85,-293.61 391.62,-296.36 401.34,-300.59 401.85,-293.61"/>
</g>
<!-- Node16 -->
<g id="node16" class="node">
<title>Node16</title>
<g id="a_node16"><a xlink:title=" ">
<polygon fill="white" stroke="#bfbfbf" points="303.42,-56.5 303.42,-75.5 382.42,-75.5 382.42,-56.5 303.42,-56.5"/>
<text text-anchor="middle" x="342.92" y="-63.5" font-family="Helvetica,sans-Serif" font-size="10.00">fmt/format.h</text>
</a>
</g>
</g>
<!-- Node1&#45;&gt;Node16 -->
<g id="edge63" class="edge">
<title>Node1&#45;&gt;Node16</title>
<path fill="none" stroke="midnightblue" d="M1073.21,-349.8C862.02,-346.41 85.19,-328.25 19.92,-244 14.47,-236.97 15.2,-231.54 19.92,-224 28.54,-210.22 237.53,-114.67 314.66,-79.75"/>
<polygon fill="midnightblue" stroke="midnightblue" points="316.14,-82.92 323.81,-75.61 313.25,-76.54 316.14,-82.92"/>
</g>
<!-- Node23 -->
<g id="node23" class="node">
<title>Node23</title>
<g id="a_node23"><a xlink:href="openssl__wrappers_8h.html" target="_top" xlink:title=" ">
<polygon fill="white" stroke="black" points="1027.42,-280.5 1027.42,-299.5 1140.42,-299.5 1140.42,-280.5 1027.42,-280.5"/>
<text text-anchor="middle" x="1083.92" y="-287.5" font-family="Helvetica,sans-Serif" font-size="10.00">openssl_wrappers.h</text>
</a>
</g>
</g>
<!-- Node1&#45;&gt;Node23 -->
<g id="edge31" class="edge">
<title>Node1&#45;&gt;Node23</title>
<path fill="none" stroke="midnightblue" d="M1115.96,-336.4C1109.92,-327.84 1102.18,-316.87 1095.82,-307.86"/>
<polygon fill="midnightblue" stroke="midnightblue" points="1098.65,-305.81 1090.03,-299.66 1092.94,-309.85 1098.65,-305.81"/>
</g>
<!-- Node37 -->
<g id="node37" class="node">
<title>Node37</title>
<g id="a_node37"><a xlink:title=" ">
<polygon fill="white" stroke="#bfbfbf" points="1663.92,-224.5 1663.92,-243.5 1747.92,-243.5 1747.92,-224.5 1663.92,-224.5"/>
<text text-anchor="middle" x="1705.92" y="-231.5" font-family="Helvetica,sans-Serif" font-size="10.00">openssl/evp.h</text>
</a>
</g>
</g>
<!-- Node1&#45;&gt;Node37 -->
<g id="edge60" class="edge">
<title>Node1&#45;&gt;Node37</title>
<path fill="none" stroke="midnightblue" d="M1133.82,-336.46C1144.1,-319.73 1163.76,-292.45 1188.92,-280 1281,-234.41 1547.88,-256.16 1649.92,-244 1651.18,-243.85 1652.46,-243.69 1653.75,-243.53"/>
<polygon fill="midnightblue" stroke="midnightblue" points="1654.34,-246.98 1663.77,-242.15 1653.39,-240.04 1654.34,-246.98"/>
</g>
<!-- Node42 -->
<g id="node42" class="node">
<title>Node42</title>
<g id="a_node42"><a xlink:title=" ">
<polygon fill="white" stroke="#bfbfbf" points="1197.42,-280.5 1197.42,-299.5 1278.42,-299.5 1278.42,-280.5 1197.42,-280.5"/>
<text text-anchor="middle" x="1237.92" y="-287.5" font-family="Helvetica,sans-Serif" font-size="10.00">openssl/kdf.h</text>
</a>
</g>
</g>
<!-- Node1&#45;&gt;Node42 -->
<g id="edge61" class="edge">
<title>Node1&#45;&gt;Node42</title>
<path fill="none" stroke="midnightblue" d="M1152.46,-336.4C1170.58,-326.77 1194.45,-314.09 1212.36,-304.58"/>
<polygon fill="midnightblue" stroke="midnightblue" points="1214.43,-307.44 1221.62,-299.66 1211.15,-301.26 1214.43,-307.44"/>
</g>
<!-- Node43 -->
<g id="node43" class="node">
<title>Node43</title>
<g id="a_node43"><a xlink:title=" ">
<polygon fill="white" stroke="#bfbfbf" points="1296.42,-280.5 1296.42,-299.5 1379.42,-299.5 1379.42,-280.5 1296.42,-280.5"/>
<text text-anchor="middle" x="1337.92" y="-287.5" font-family="Helvetica,sans-Serif" font-size="10.00">openssl/sha.h</text>
</a>
</g>
</g>
<!-- Node1&#45;&gt;Node43 -->
<g id="edge62" class="edge">
<title>Node1&#45;&gt;Node43</title>
<path fill="none" stroke="midnightblue" d="M1175.89,-336.47C1213.1,-326.03 1263.24,-311.96 1297.84,-302.25"/>
<polygon fill="midnightblue" stroke="midnightblue" points="1298.93,-305.58 1307.61,-299.51 1297.04,-298.84 1298.93,-305.58"/>
</g>
<!-- Node3 -->
<g id="node3" class="node">
<title>Node3</title>
<g id="a_node3"><a xlink:href="hash__bytes_8h.html" target="_top" xlink:title=" ">
<polygon fill="white" stroke="black" points="567.92,-56.5 567.92,-75.5 699.92,-75.5 699.92,-56.5 567.92,-56.5"/>
<text text-anchor="middle" x="633.92" y="-63.5" font-family="Helvetica,sans-Serif" font-size="10.00">ccf/crypto/hash_bytes.h</text>
</a>
</g>
</g>
<!-- Node2&#45;&gt;Node3 -->
<g id="edge2" class="edge">
<title>Node2&#45;&gt;Node3</title>
<path fill="none" stroke="midnightblue" d="M389.6,-280.42C414.96,-274.08 441.95,-263.07 460.92,-244 504.23,-200.44 459.08,-156.03 501.92,-112 518.17,-95.3 540.86,-84.79 562.85,-78.19"/>
<polygon fill="midnightblue" stroke="midnightblue" points="563.84,-81.54 572.55,-75.5 561.98,-74.8 563.84,-81.54"/>
</g>
<!-- Node4 -->
<g id="node4" class="node">
<title>Node4</title>
<g id="a_node4"><a xlink:title=" ">
<polygon fill="white" stroke="#bfbfbf" points="657.42,-0.5 657.42,-19.5 704.42,-19.5 704.42,-0.5 657.42,-0.5"/>
<text text-anchor="middle" x="680.92" y="-7.5" font-family="Helvetica,sans-Serif" font-size="10.00">vector</text>
</a>
</g>
</g>
<!-- Node2&#45;&gt;Node4 -->
<g id="edge30" class="edge">
<title>Node2&#45;&gt;Node4</title>
<path fill="none" stroke="midnightblue" d="M368.88,-280.45C402.11,-273.52 446.07,-261.91 481.92,-244 567.8,-201.09 574.46,-167.34 652.92,-112 677.1,-94.94 694.74,-101.97 708.92,-76 717.61,-60.08 706.96,-40.9 696.39,-27.52"/>
<polygon fill="midnightblue" stroke="midnightblue" points="698.82,-24.97 689.66,-19.65 693.5,-29.52 698.82,-24.97"/>
</g>
<!-- Node5 -->
<g id="node5" class="node">
<title>Node5</title>
<g id="a_node5"><a xlink:href="md__type_8h.html" target="_top" xlink:title=" ">
<polygon fill="white" stroke="black" points="333.42,-224.5 333.42,-243.5 452.42,-243.5 452.42,-224.5 333.42,-224.5"/>
<text text-anchor="middle" x="392.92" y="-231.5" font-family="Helvetica,sans-Serif" font-size="10.00">ccf/crypto/md_type.h</text>
</a>
</g>
</g>
<!-- Node2&#45;&gt;Node5 -->
<g id="edge4" class="edge">
<title>Node2&#45;&gt;Node5</title>
<path fill="none" stroke="midnightblue" d="M330.81,-280.32C342.07,-272.11 359.2,-259.6 372.63,-249.81"/>
<polygon fill="midnightblue" stroke="midnightblue" points="374.8,-252.56 380.81,-243.83 370.67,-246.9 374.8,-252.56"/>
</g>
<!-- Node12 -->
<g id="node12" class="node">
<title>Node12</title>
<g id="a_node12"><a xlink:title=" ">
<polygon fill="white" stroke="#bfbfbf" points="17.92,-0.5 17.92,-19.5 59.92,-19.5 59.92,-0.5 17.92,-0.5"/>
<text text-anchor="middle" x="38.92" y="-7.5" font-family="Helvetica,sans-Serif" font-size="10.00">array</text>
</a>
</g>
</g>
<!-- Node2&#45;&gt;Node12 -->
<g id="edge27" class="edge">
<title>Node2&#45;&gt;Node12</title>
<path fill="none" stroke="midnightblue" d="M246.2,-286.85C168.71,-283.07 52.73,-272.66 19.92,-244 -2.75,-224.2 0.92,-209.1 0.92,-179 0.92,-179 0.92,-179 0.92,-121 0.92,-86.81 17.52,-49.76 28.77,-28.57"/>
<polygon fill="midnightblue" stroke="midnightblue" points="31.86,-30.22 33.63,-19.77 25.74,-26.83 31.86,-30.22"/>
</g>
<!-- Node19 -->
<g id="node19" class="node">
<title>Node19</title>
<g id="a_node19"><a xlink:href="sha256__hash_8h.html" target="_top" xlink:title=" ">
<polygon fill="white" stroke="black" points="174.92,-224.5 174.92,-243.5 314.92,-243.5 314.92,-224.5 174.92,-224.5"/>
<text text-anchor="middle" x="244.92" y="-231.5" font-family="Helvetica,sans-Serif" font-size="10.00">ccf/crypto/sha256_hash.h</text>
</a>
</g>
</g>
<!-- Node2&#45;&gt;Node19 -->
<g id="edge22" class="edge">
<title>Node2&#45;&gt;Node19</title>
<path fill="none" stroke="midnightblue" d="M307.03,-280.32C295.77,-272.11 278.63,-259.6 265.21,-249.81"/>
<polygon fill="midnightblue" stroke="midnightblue" points="267.16,-246.9 257.02,-243.83 263.04,-252.56 267.16,-246.9"/>
</g>
<!-- Node21 -->
<g id="node21" class="node">
<title>Node21</title>
<g id="a_node21"><a xlink:title=" ">
<polygon fill="white" stroke="#bfbfbf" points="28.92,-224.5 28.92,-243.5 78.92,-243.5 78.92,-224.5 28.92,-224.5"/>
<text text-anchor="middle" x="53.92" y="-231.5" font-family="Helvetica,sans-Serif" font-size="10.00">cstdint</text>
</a>
</g>
</g>
<!-- Node2&#45;&gt;Node21 -->
<g id="edge28" class="edge">
<title>Node2&#45;&gt;Node21</title>
<path fill="none" stroke="midnightblue" d="M270.05,-280.45C225.35,-272.42 157.2,-259.62 89.16,-244.17"/>
<polygon fill="midnightblue" stroke="midnightblue" points="89.65,-240.69 79.12,-241.87 88.09,-247.52 89.65,-240.69"/>
</g>
<!-- Node22 -->
<g id="node22" class="node">
<title>Node22</title>
<g id="a_node22"><a xlink:title=" ">
<polygon fill="white" stroke="#bfbfbf" points="96.92,-224.5 96.92,-243.5 156.92,-243.5 156.92,-224.5 96.92,-224.5"/>
<text text-anchor="middle" x="126.92" y="-231.5" font-family="Helvetica,sans-Serif" font-size="10.00">iostream</text>
</a>
</g>
</g>
<!-- Node2&#45;&gt;Node22 -->
<g id="edge29" class="edge">
<title>Node2&#45;&gt;Node22</title>
<path fill="none" stroke="midnightblue" d="M288.49,-280.44C255.63,-271.2 203.13,-256.44 166.94,-246.26"/>
<polygon fill="midnightblue" stroke="midnightblue" points="167.77,-242.85 157.2,-243.52 165.88,-249.59 167.77,-242.85"/>
</g>
<!-- Node3&#45;&gt;Node4 -->
<g id="edge3" class="edge">
<title>Node3&#45;&gt;Node4</title>
<path fill="none" stroke="midnightblue" d="M641.68,-56.08C648.45,-48.3 658.46,-36.8 666.67,-27.37"/>
<polygon fill="midnightblue" stroke="midnightblue" points="669.38,-29.59 673.3,-19.75 664.1,-25 669.38,-29.59"/>
</g>
<!-- Node6 -->
<g id="node6" class="node">
<title>Node6</title>
<g id="a_node6"><a xlink:href="json_8h.html" target="_top" xlink:title=" ">
<polygon fill="white" stroke="black" points="339.42,-168.5 339.42,-187.5 416.42,-187.5 416.42,-168.5 339.42,-168.5"/>
<text text-anchor="middle" x="377.92" y="-175.5" font-family="Helvetica,sans-Serif" font-size="10.00">ccf/ds/json.h</text>
</a>
</g>
</g>
<!-- Node5&#45;&gt;Node6 -->
<g id="edge5" class="edge">
<title>Node5&#45;&gt;Node6</title>
<path fill="none" stroke="midnightblue" d="M390.44,-224.08C388.43,-216.85 385.53,-206.41 383.03,-197.4"/>
<polygon fill="midnightblue" stroke="midnightblue" points="386.4,-196.45 380.35,-187.75 379.65,-198.32 386.4,-196.45"/>
</g>
<!-- Node7 -->
<g id="node7" class="node">
<title>Node7</title>
<g id="a_node7"><a xlink:href="include_2ccf_2crypto_2base64_8h.html" target="_top" xlink:title=" ">
<polygon fill="white" stroke="black" points="399.92,-56.5 399.92,-75.5 511.92,-75.5 511.92,-56.5 399.92,-56.5"/>
<text text-anchor="middle" x="455.92" y="-63.5" font-family="Helvetica,sans-Serif" font-size="10.00">ccf/crypto/base64.h</text>
</a>
</g>
</g>
<!-- Node6&#45;&gt;Node7 -->
<g id="edge6" class="edge">
<title>Node6&#45;&gt;Node7</title>
<path fill="none" stroke="midnightblue" d="M384.04,-168.37C396.91,-150.22 426.99,-107.8 443.87,-83.99"/>
<polygon fill="midnightblue" stroke="midnightblue" points="446.9,-85.77 449.83,-75.59 441.19,-81.72 446.9,-85.77"/>
</g>
<!-- Node9 -->
<g id="node9" class="node">
<title>Node9</title>
<g id="a_node9"><a xlink:href="include_2ccf_2ds_2json__schema_8h.html" target="_top" xlink:title=" ">
<polygon fill="white" stroke="black" points="67.42,-112.5 67.42,-131.5 188.42,-131.5 188.42,-112.5 67.42,-112.5"/>
<text text-anchor="middle" x="127.92" y="-119.5" font-family="Helvetica,sans-Serif" font-size="10.00">ccf/ds/json_schema.h</text>
</a>
</g>
</g>
<!-- Node6&#45;&gt;Node9 -->
<g id="edge9" class="edge">
<title>Node6&#45;&gt;Node9</title>
<path fill="none" stroke="midnightblue" d="M339.4,-168.68C295.8,-159.26 224.65,-143.9 177.08,-133.62"/>
<polygon fill="midnightblue" stroke="midnightblue" points="177.81,-130.2 167.3,-131.51 176.34,-137.04 177.81,-130.2"/>
</g>
<!-- Node6&#45;&gt;Node16 -->
<g id="edge20" class="edge">
<title>Node6&#45;&gt;Node16</title>
<path fill="none" stroke="midnightblue" d="M375.17,-168.37C369.5,-150.54 356.37,-109.3 348.73,-85.27"/>
<polygon fill="midnightblue" stroke="midnightblue" points="352.02,-84.06 345.65,-75.59 345.35,-86.18 352.02,-84.06"/>
</g>
<!-- Node18 -->
<g id="node18" class="node">
<title>Node18</title>
<g id="a_node18"><a xlink:title=" ">
<polygon fill="white" stroke="#bfbfbf" points="510.92,-112.5 510.92,-131.5 566.92,-131.5 566.92,-112.5 510.92,-112.5"/>
<text text-anchor="middle" x="538.92" y="-119.5" font-family="Helvetica,sans-Serif" font-size="10.00">sstream</text>
</a>
</g>
</g>
<!-- Node6&#45;&gt;Node18 -->
<g id="edge21" class="edge">
<title>Node6&#45;&gt;Node18</title>
<path fill="none" stroke="midnightblue" d="M403.43,-168.44C430.51,-159.36 473.51,-144.94 503.79,-134.78"/>
<polygon fill="midnightblue" stroke="midnightblue" points="505.16,-138.01 513.53,-131.52 502.93,-131.38 505.16,-138.01"/>
</g>
<!-- Node7&#45;&gt;Node4 -->
<g id="edge8" class="edge">
<title>Node7&#45;&gt;Node4</title>
<path fill="none" stroke="midnightblue" d="M491.57,-56.44C534.29,-46.19 605.34,-29.14 647.19,-19.09"/>
<polygon fill="midnightblue" stroke="midnightblue" points="648.26,-22.44 657.17,-16.7 646.63,-15.63 648.26,-22.44"/>
</g>
<!-- Node8 -->
<g id="node8" class="node">
<title>Node8</title>
<g id="a_node8"><a xlink:title=" ">
<polygon fill="white" stroke="#bfbfbf" points="401.92,-0.5 401.92,-19.5 445.92,-19.5 445.92,-0.5 401.92,-0.5"/>
<text text-anchor="middle" x="423.92" y="-7.5" font-family="Helvetica,sans-Serif" font-size="10.00">string</text>
</a>
</g>
</g>
<!-- Node7&#45;&gt;Node8 -->
<g id="edge7" class="edge">
<title>Node7&#45;&gt;Node8</title>
<path fill="none" stroke="midnightblue" d="M450.63,-56.08C446.21,-48.61 439.75,-37.72 434.3,-28.52"/>
<polygon fill="midnightblue" stroke="midnightblue" points="437.21,-26.57 429.1,-19.75 431.19,-30.14 437.21,-26.57"/>
</g>
<!-- Node10 -->
<g id="node10" class="node">
<title>Node10</title>
<g id="a_node10"><a xlink:href="nonstd_8h.html" target="_top" xlink:title=" ">
<polygon fill="white" stroke="black" points="194.92,-56.5 194.92,-75.5 284.92,-75.5 284.92,-56.5 194.92,-56.5"/>
<text text-anchor="middle" x="239.92" y="-63.5" font-family="Helvetica,sans-Serif" font-size="10.00">ccf/ds/nonstd.h</text>
</a>
</g>
</g>
<!-- Node9&#45;&gt;Node10 -->
<g id="edge10" class="edge">
<title>Node9&#45;&gt;Node10</title>
<path fill="none" stroke="midnightblue" d="M145.91,-112.32C163.96,-103.62 191.96,-90.12 212.72,-80.11"/>
<polygon fill="midnightblue" stroke="midnightblue" points="214.48,-83.15 221.97,-75.65 211.44,-76.84 214.48,-83.15"/>
</g>
<!-- Node9&#45;&gt;Node16 -->
<g id="edge18" class="edge">
<title>Node9&#45;&gt;Node16</title>
<path fill="none" stroke="midnightblue" d="M161.98,-112.44C199.1,-103.12 258.58,-88.18 299.13,-78"/>
<polygon fill="midnightblue" stroke="midnightblue" points="300.16,-81.35 309.01,-75.52 298.46,-74.56 300.16,-81.35"/>
</g>
<!-- Node17 -->
<g id="node17" class="node">
<title>Node17</title>
<g id="a_node17"><a xlink:title=" ">
<polygon fill="white" stroke="#bfbfbf" points="66.92,-56.5 66.92,-75.5 176.92,-75.5 176.92,-56.5 66.92,-56.5"/>
<text text-anchor="middle" x="121.92" y="-63.5" font-family="Helvetica,sans-Serif" font-size="10.00">nlohmann/json.hpp</text>
</a>
</g>
</g>
<!-- Node9&#45;&gt;Node17 -->
<g id="edge19" class="edge">
<title>Node9&#45;&gt;Node17</title>
<path fill="none" stroke="midnightblue" d="M126.93,-112.08C126.13,-104.93 124.99,-94.64 123.99,-85.69"/>
<polygon fill="midnightblue" stroke="midnightblue" points="127.47,-85.3 122.89,-75.75 120.52,-86.08 127.47,-85.3"/>
</g>
<!-- Node10&#45;&gt;Node4 -->
<g id="edge17" class="edge">
<title>Node10&#45;&gt;Node4</title>
<path fill="none" stroke="midnightblue" d="M284.97,-57.32C288,-56.86 291,-56.41 293.92,-56 424.24,-37.57 580.04,-21.16 647.29,-14.35"/>
<polygon fill="midnightblue" stroke="midnightblue" points="647.71,-17.82 657.31,-13.34 647.01,-10.86 647.71,-17.82"/>
</g>
<!-- Node10&#45;&gt;Node8 -->
<g id="edge14" class="edge">
<title>Node10&#45;&gt;Node8</title>
<path fill="none" stroke="midnightblue" d="M269.07,-56.44C302.64,-46.59 357.6,-30.46 392.21,-20.3"/>
<polygon fill="midnightblue" stroke="midnightblue" points="393.22,-23.66 401.83,-17.48 391.25,-16.94 393.22,-23.66"/>
</g>
<!-- Node11 -->
<g id="node11" class="node">
<title>Node11</title>
<g id="a_node11"><a xlink:title=" ">
<polygon fill="white" stroke="#bfbfbf" points="132.92,-0.5 132.92,-19.5 196.92,-19.5 196.92,-0.5 132.92,-0.5"/>
<text text-anchor="middle" x="164.92" y="-7.5" font-family="Helvetica,sans-Serif" font-size="10.00">algorithm</text>
</a>
</g>
</g>
<!-- Node10&#45;&gt;Node11 -->
<g id="edge11" class="edge">
<title>Node10&#45;&gt;Node11</title>
<path fill="none" stroke="midnightblue" d="M227.87,-56.32C216.45,-48.11 199.09,-35.6 185.48,-25.81"/>
<polygon fill="midnightblue" stroke="midnightblue" points="187.35,-22.84 177.19,-19.83 183.26,-28.52 187.35,-22.84"/>
</g>
<!-- Node10&#45;&gt;Node12 -->
<g id="edge12" class="edge">
<title>Node10&#45;&gt;Node12</title>
<path fill="none" stroke="midnightblue" d="M208.07,-56.44C170.23,-46.28 107.51,-29.43 70,-19.35"/>
<polygon fill="midnightblue" stroke="midnightblue" points="70.7,-15.91 60.14,-16.7 68.88,-22.68 70.7,-15.91"/>
</g>
<!-- Node13 -->
<g id="node13" class="node">
<title>Node13</title>
<g id="a_node13"><a xlink:title=" ">
<polygon fill="white" stroke="#bfbfbf" points="215.42,-0.5 215.42,-19.5 264.42,-19.5 264.42,-0.5 215.42,-0.5"/>
<text text-anchor="middle" x="239.92" y="-7.5" font-family="Helvetica,sans-Serif" font-size="10.00">cctype</text>
</a>
</g>
</g>
<!-- Node10&#45;&gt;Node13 -->
<g id="edge13" class="edge">
<title>Node10&#45;&gt;Node13</title>
<path fill="none" stroke="midnightblue" d="M239.92,-56.08C239.92,-49.01 239.92,-38.86 239.92,-29.99"/>
<polygon fill="midnightblue" stroke="midnightblue" points="243.42,-29.75 239.92,-19.75 236.42,-29.75 243.42,-29.75"/>
</g>
<!-- Node14 -->
<g id="node14" class="node">
<title>Node14</title>
<g id="a_node14"><a xlink:title=" ">
<polygon fill="white" stroke="#bfbfbf" points="484.42,-0.5 484.42,-19.5 557.42,-19.5 557.42,-0.5 484.42,-0.5"/>
<text text-anchor="middle" x="520.92" y="-7.5" font-family="Helvetica,sans-Serif" font-size="10.00">string_view</text>
</a>
</g>
</g>
<!-- Node10&#45;&gt;Node14 -->
<g id="edge15" class="edge">
<title>Node10&#45;&gt;Node14</title>
<path fill="none" stroke="midnightblue" d="M284.44,-56.44C336.24,-46.49 421.36,-30.13 474.11,-19.99"/>
<polygon fill="midnightblue" stroke="midnightblue" points="475.05,-23.38 484.21,-18.05 473.73,-16.5 475.05,-23.38"/>
</g>
<!-- Node15 -->
<g id="node15" class="node">
<title>Node15</title>
<g id="a_node15"><a xlink:title=" ">
<polygon fill="white" stroke="#bfbfbf" points="282.42,-0.5 282.42,-19.5 351.42,-19.5 351.42,-0.5 282.42,-0.5"/>
<text text-anchor="middle" x="316.92" y="-7.5" font-family="Helvetica,sans-Serif" font-size="10.00">type_traits</text>
</a>
</g>
</g>
<!-- Node10&#45;&gt;Node15 -->
<g id="edge16" class="edge">
<title>Node10&#45;&gt;Node15</title>
<path fill="none" stroke="midnightblue" d="M252.29,-56.32C264.08,-48.06 282.05,-35.45 296.05,-25.63"/>
<polygon fill="midnightblue" stroke="midnightblue" points="298.4,-28.26 304.58,-19.65 294.38,-22.53 298.4,-28.26"/>
</g>
<!-- Node19&#45;&gt;Node6 -->
<g id="edge23" class="edge">
<title>Node19&#45;&gt;Node6</title>
<path fill="none" stroke="midnightblue" d="M265.99,-224.44C287.98,-215.52 322.65,-201.44 347.58,-191.32"/>
<polygon fill="midnightblue" stroke="midnightblue" points="348.99,-194.52 356.94,-187.52 346.36,-188.04 348.99,-194.52"/>
</g>
<!-- Node19&#45;&gt;Node12 -->
<g id="edge24" class="edge">
<title>Node19&#45;&gt;Node12</title>
<path fill="none" stroke="midnightblue" d="M210.32,-224.47C167.22,-211.92 94.78,-184.11 57.92,-132 36.19,-101.29 35.42,-55.24 37.02,-29.72"/>
<polygon fill="midnightblue" stroke="midnightblue" points="40.52,-29.82 37.85,-19.57 33.54,-29.25 40.52,-29.82"/>
</g>
<!-- Node19&#45;&gt;Node16 -->
<g id="edge26" class="edge">
<title>Node19&#45;&gt;Node16</title>
<path fill="none" stroke="midnightblue" d="M247.84,-224.31C252.27,-211.58 261.31,-187.27 271.92,-168 289.22,-136.57 314.24,-103.07 329.5,-83.64"/>
<polygon fill="midnightblue" stroke="midnightblue" points="332.28,-85.76 335.76,-75.76 326.8,-81.41 332.28,-85.76"/>
</g>
<!-- Node20 -->
<g id="node20" class="node">
<title>Node20</title>
<g id="a_node20"><a xlink:title=" ">
<polygon fill="white" stroke="#bfbfbf" points="280.92,-168.5 280.92,-187.5 320.92,-187.5 320.92,-168.5 280.92,-168.5"/>
<text text-anchor="middle" x="300.92" y="-175.5" font-family="Helvetica,sans-Serif" font-size="10.00">span</text>
</a>
</g>
</g>
<!-- Node19&#45;&gt;Node20 -->
<g id="edge25" class="edge">
<title>Node19&#45;&gt;Node20</title>
<path fill="none" stroke="midnightblue" d="M253.91,-224.32C262.11,-216.42 274.42,-204.55 284.39,-194.94"/>
<polygon fill="midnightblue" stroke="midnightblue" points="286.99,-197.29 291.76,-187.83 282.13,-192.26 286.99,-197.29"/>
</g>
<!-- Node23&#45;&gt;Node16 -->
<g id="edge49" class="edge">
<title>Node23&#45;&gt;Node16</title>
<path fill="none" stroke="midnightblue" d="M1027.17,-287.89C912.64,-285.01 657.82,-275.2 576.92,-244 481.88,-207.35 392.54,-119.96 357.98,-83.46"/>
<polygon fill="midnightblue" stroke="midnightblue" points="360.13,-80.64 350.75,-75.71 355.02,-85.41 360.13,-80.64"/>
</g>
<!-- Node24 -->
<g id="node24" class="node">
<title>Node24</title>
<g id="a_node24"><a xlink:href="pem_8h.html" target="_top" xlink:title=" ">
<polygon fill="white" stroke="black" points="1471.92,-224.5 1471.92,-243.5 1569.92,-243.5 1569.92,-224.5 1471.92,-224.5"/>
<text text-anchor="middle" x="1520.92" y="-231.5" font-family="Helvetica,sans-Serif" font-size="10.00">ccf/crypto/pem.h</text>
</a>
</g>
</g>
<!-- Node23&#45;&gt;Node24 -->
<g id="edge32" class="edge">
<title>Node23&#45;&gt;Node24</title>
<path fill="none" stroke="midnightblue" d="M1140.49,-281.78C1145.37,-281.17 1150.23,-280.57 1154.92,-280 1288.52,-263.72 1324.67,-262.61 1461.84,-244.1"/>
<polygon fill="midnightblue" stroke="midnightblue" points="1462.45,-247.55 1471.89,-242.74 1461.51,-240.62 1462.45,-247.55"/>
</g>
<!-- Node27 -->
<g id="node27" class="node">
<title>Node27</title>
<g id="a_node27"><a xlink:title=" ">
<polygon fill="white" stroke="#bfbfbf" points="1549.92,-168.5 1549.92,-187.5 1607.92,-187.5 1607.92,-168.5 1549.92,-168.5"/>
<text text-anchor="middle" x="1578.92" y="-175.5" font-family="Helvetica,sans-Serif" font-size="10.00">memory</text>
</a>
</g>
</g>
<!-- Node23&#45;&gt;Node27 -->
<g id="edge50" class="edge">
<title>Node23&#45;&gt;Node27</title>
<path fill="none" stroke="midnightblue" d="M1140.47,-281.62C1145.36,-281.04 1150.22,-280.5 1154.92,-280 1201.94,-275.03 1546.93,-278.82 1578.92,-244 1590.11,-231.82 1588.48,-212.27 1585.05,-197.78"/>
<polygon fill="midnightblue" stroke="midnightblue" points="1588.34,-196.57 1582.25,-187.9 1581.61,-198.48 1588.34,-196.57"/>
</g>
<!-- Node28 -->
<g id="node28" class="node">
<title>Node28</title>
<g id="a_node28"><a xlink:title=" ">
<polygon fill="white" stroke="#bfbfbf" points="1133.92,-112.5 1133.92,-131.5 1183.92,-131.5 1183.92,-112.5 1133.92,-112.5"/>
<text text-anchor="middle" x="1158.92" y="-119.5" font-family="Helvetica,sans-Serif" font-size="10.00">chrono</text>
</a>
</g>
</g>
<!-- Node23&#45;&gt;Node28 -->
<g id="edge40" class="edge">
<title>Node23&#45;&gt;Node28</title>
<path fill="none" stroke="midnightblue" d="M1140.46,-281.89C1146.35,-281.22 1152.25,-280.58 1157.92,-280 1206.61,-275.04 1558.1,-273.81 1596.92,-244 1617.88,-227.91 1612.41,-214.04 1616.92,-188 1618.43,-179.24 1622.89,-174.59 1616.92,-168 1588.64,-136.81 1296.41,-126.47 1194.08,-123.8"/>
<polygon fill="midnightblue" stroke="midnightblue" points="1194.03,-120.29 1183.95,-123.54 1193.86,-127.29 1194.03,-120.29"/>
</g>
<!-- Node29 -->
<g id="node29" class="node">
<title>Node29</title>
<g id="a_node29"><a xlink:href="x509__time__fmt_8h.html" target="_top" xlink:title=" ">
<polygon fill="white" stroke="black" points="746.92,-168.5 746.92,-187.5 860.92,-187.5 860.92,-168.5 746.92,-168.5"/>
<text text-anchor="middle" x="803.92" y="-175.5" font-family="Helvetica,sans-Serif" font-size="10.00">ds/x509_time_fmt.h</text>
</a>
</g>
</g>
<!-- Node23&#45;&gt;Node29 -->
<g id="edge41" class="edge">
<title>Node23&#45;&gt;Node29</title>
<path fill="none" stroke="midnightblue" d="M1074.6,-280.43C1058.93,-266.49 1025.79,-238.96 992.92,-224 954.47,-206.51 908.41,-195.36 871.39,-188.54"/>
<polygon fill="midnightblue" stroke="midnightblue" points="871.66,-185.03 861.2,-186.73 870.43,-191.92 871.66,-185.03"/>
</g>
<!-- Node33 -->
<g id="node33" class="node">
<title>Node33</title>
<g id="a_node33"><a xlink:title=" ">
<polygon fill="white" stroke="#bfbfbf" points="585.42,-224.5 585.42,-243.5 674.42,-243.5 674.42,-224.5 585.42,-224.5"/>
<text text-anchor="middle" x="629.92" y="-231.5" font-family="Helvetica,sans-Serif" font-size="10.00">openssl/asn1.h</text>
</a>
</g>
</g>
<!-- Node23&#45;&gt;Node33 -->
<g id="edge51" class="edge">
<title>Node23&#45;&gt;Node33</title>
<path fill="none" stroke="midnightblue" d="M1027.16,-283.57C951.49,-276.13 813.15,-261.77 684.7,-244.04"/>
<polygon fill="midnightblue" stroke="midnightblue" points="685.06,-240.56 674.68,-242.65 684.1,-247.49 685.06,-240.56"/>
</g>
<!-- Node34 -->
<g id="node34" class="node">
<title>Node34</title>
<g id="a_node34"><a xlink:title=" ">
<polygon fill="white" stroke="#bfbfbf" points="692.42,-224.5 692.42,-243.5 769.42,-243.5 769.42,-224.5 692.42,-224.5"/>
<text text-anchor="middle" x="730.92" y="-231.5" font-family="Helvetica,sans-Serif" font-size="10.00">openssl/ec.h</text>
</a>
</g>
</g>
<!-- Node23&#45;&gt;Node34 -->
<g id="edge52" class="edge">
<title>Node23&#45;&gt;Node34</title>
<path fill="none" stroke="midnightblue" d="M1027.32,-281.32C968.16,-273.14 872.39,-259.48 779.78,-244.09"/>
<polygon fill="midnightblue" stroke="midnightblue" points="780.11,-240.6 769.67,-242.4 778.95,-247.5 780.11,-240.6"/>
</g>
<!-- Node35 -->
<g id="node35" class="node">
<title>Node35</title>
<g id="a_node35"><a xlink:title=" ">
<polygon fill="white" stroke="#bfbfbf" points="787.42,-224.5 787.42,-243.5 886.42,-243.5 886.42,-224.5 787.42,-224.5"/>
<text text-anchor="middle" x="836.92" y="-231.5" font-family="Helvetica,sans-Serif" font-size="10.00">openssl/engine.h</text>
</a>
</g>
</g>
<!-- Node23&#45;&gt;Node35 -->
<g id="edge53" class="edge">
<title>Node23&#45;&gt;Node35</title>
<path fill="none" stroke="midnightblue" d="M1044.78,-280.44C1001.69,-271.02 932.36,-255.87 885.75,-245.68"/>
<polygon fill="midnightblue" stroke="midnightblue" points="886.39,-242.23 875.87,-243.52 884.89,-249.07 886.39,-242.23"/>
</g>
<!-- Node36 -->
<g id="node36" class="node">
<title>Node36</title>
<g id="a_node36"><a xlink:title=" ">
<polygon fill="white" stroke="#bfbfbf" points="904.42,-224.5 904.42,-243.5 983.42,-243.5 983.42,-224.5 904.42,-224.5"/>
<text text-anchor="middle" x="943.92" y="-231.5" font-family="Helvetica,sans-Serif" font-size="10.00">openssl/err.h</text>
</a>
</g>
</g>
<!-- Node23&#45;&gt;Node36 -->
<g id="edge54" class="edge">
<title>Node23&#45;&gt;Node36</title>
<path fill="none" stroke="midnightblue" d="M1061.73,-280.44C1038.49,-271.48 1001.77,-257.31 975.5,-247.18"/>
<polygon fill="midnightblue" stroke="midnightblue" points="976.59,-243.85 966,-243.52 974.07,-250.38 976.59,-243.85"/>
</g>
<!-- Node23&#45;&gt;Node37 -->
<g id="edge55" class="edge">
<title>Node23&#45;&gt;Node37</title>
<path fill="none" stroke="midnightblue" d="M1140.47,-281.55C1145.35,-281 1150.22,-280.47 1154.92,-280 1374.41,-258.12 1430.82,-269.52 1649.92,-244 1651.18,-243.85 1652.46,-243.7 1653.75,-243.53"/>
<polygon fill="midnightblue" stroke="midnightblue" points="1654.34,-246.99 1663.77,-242.17 1653.39,-240.05 1654.34,-246.99"/>
</g>
<!-- Node38 -->
<g id="node38" class="node">
<title>Node38</title>
<g id="a_node38"><a xlink:title=" ">
<polygon fill="white" stroke="#bfbfbf" points="1039.92,-224.5 1039.92,-243.5 1127.92,-243.5 1127.92,-224.5 1039.92,-224.5"/>
<text text-anchor="middle" x="1083.92" y="-231.5" font-family="Helvetica,sans-Serif" font-size="10.00">openssl/pem.h</text>
</a>
</g>
</g>
<!-- Node23&#45;&gt;Node38 -->
<g id="edge56" class="edge">
<title>Node23&#45;&gt;Node38</title>
<path fill="none" stroke="midnightblue" d="M1083.92,-280.08C1083.92,-273.01 1083.92,-262.86 1083.92,-253.99"/>
<polygon fill="midnightblue" stroke="midnightblue" points="1087.42,-253.75 1083.92,-243.75 1080.42,-253.75 1087.42,-253.75"/>
</g>
<!-- Node39 -->
<g id="node39" class="node">
<title>Node39</title>
<g id="a_node39"><a xlink:title=" ">
<polygon fill="white" stroke="#bfbfbf" points="1145.92,-224.5 1145.92,-243.5 1225.92,-243.5 1225.92,-224.5 1145.92,-224.5"/>
<text text-anchor="middle" x="1185.92" y="-231.5" font-family="Helvetica,sans-Serif" font-size="10.00">openssl/ssl.h</text>
</a>
</g>
</g>
<!-- Node23&#45;&gt;Node39 -->
<g id="edge57" class="edge">
<title>Node23&#45;&gt;Node39</title>
<path fill="none" stroke="midnightblue" d="M1100.31,-280.32C1116.59,-271.7 1141.78,-258.36 1160.63,-248.39"/>
<polygon fill="midnightblue" stroke="midnightblue" points="1162.37,-251.43 1169.57,-243.65 1159.09,-245.24 1162.37,-251.43"/>
</g>
<!-- Node40 -->
<g id="node40" class="node">
<title>Node40</title>
<g id="a_node40"><a xlink:title=" ">
<polygon fill="white" stroke="#bfbfbf" points="1243.92,-224.5 1243.92,-243.5 1333.92,-243.5 1333.92,-224.5 1243.92,-224.5"/>
<text text-anchor="middle" x="1288.92" y="-231.5" font-family="Helvetica,sans-Serif" font-size="10.00">openssl/x509.h</text>
</a>
</g>
</g>
<!-- Node23&#45;&gt;Node40 -->
<g id="edge58" class="edge">
<title>Node23&#45;&gt;Node40</title>
<path fill="none" stroke="midnightblue" d="M1116.4,-280.44C1151.64,-271.16 1208.02,-256.31 1246.68,-246.13"/>
<polygon fill="midnightblue" stroke="midnightblue" points="1247.81,-249.45 1256.59,-243.52 1246.02,-242.68 1247.81,-249.45"/>
</g>
<!-- Node41 -->
<g id="node41" class="node">
<title>Node41</title>
<g id="a_node41"><a xlink:title=" ">
<polygon fill="white" stroke="#bfbfbf" points="1351.92,-224.5 1351.92,-243.5 1453.92,-243.5 1453.92,-224.5 1351.92,-224.5"/>
<text text-anchor="middle" x="1402.92" y="-231.5" font-family="Helvetica,sans-Serif" font-size="10.00">openssl/x509v3.h</text>
</a>
</g>
</g>
<!-- Node23&#45;&gt;Node41 -->
<g id="edge59" class="edge">
<title>Node23&#45;&gt;Node41</title>
<path fill="none" stroke="midnightblue" d="M1134.46,-280.44C1190.93,-270.89 1282.29,-255.42 1342.49,-245.23"/>
<polygon fill="midnightblue" stroke="midnightblue" points="1343.33,-248.64 1352.61,-243.52 1342.16,-241.73 1343.33,-248.64"/>
</g>
<!-- Node24&#45;&gt;Node4 -->
<g id="edge39" class="edge">
<title>Node24&#45;&gt;Node4</title>
<path fill="none" stroke="midnightblue" d="M1494.51,-224.35C1467.78,-215.52 1425.32,-201.26 1388.92,-188 1301.13,-156.03 1282.65,-138.03 1192.92,-112 1015.98,-60.67 797.11,-27.16 714.54,-15.55"/>
<polygon fill="midnightblue" stroke="midnightblue" points="714.87,-12.06 704.48,-14.15 713.91,-18.99 714.87,-12.06"/>
</g>
<!-- Node24&#45;&gt;Node6 -->
<g id="edge33" class="edge">
<title>Node24&#45;&gt;Node6</title>
<path fill="none" stroke="midnightblue" d="M1471.6,-224.96C1468.67,-224.6 1465.76,-224.28 1462.92,-224 1257.58,-203.87 610.23,-185.27 426.8,-180.29"/>
<polygon fill="midnightblue" stroke="midnightblue" points="426.74,-176.79 416.64,-180.02 426.55,-183.79 426.74,-176.79"/>
</g>
<!-- Node24&#45;&gt;Node14 -->
<g id="edge38" class="edge">
<title>Node24&#45;&gt;Node14</title>
<path fill="none" stroke="midnightblue" d="M1482.27,-224.47C1383.77,-202.99 1115.12,-145.94 888.92,-112 815.97,-101.06 620.81,-116.13 558.92,-76 542.5,-65.36 532.29,-44.94 526.64,-29.82"/>
<polygon fill="midnightblue" stroke="midnightblue" points="529.83,-28.31 523.31,-19.96 523.2,-30.55 529.83,-28.31"/>
</g>
<!-- Node24&#45;&gt;Node20 -->
<g id="edge37" class="edge">
<title>Node24&#45;&gt;Node20</title>
<path fill="none" stroke="midnightblue" d="M1471.61,-224.93C1468.67,-224.58 1465.76,-224.26 1462.92,-224 1215.28,-200.94 594.37,-228.98 331.01,-187.63"/>
<polygon fill="midnightblue" stroke="midnightblue" points="331.46,-184.16 321.03,-186 330.34,-191.07 331.46,-184.16"/>
</g>
<!-- Node25 -->
<g id="node25" class="node">
<title>Node25</title>
<g id="a_node25"><a xlink:title=" ">
<polygon fill="white" stroke="#bfbfbf" points="1397.92,-168.5 1397.92,-187.5 1447.92,-187.5 1447.92,-168.5 1397.92,-168.5"/>
<text text-anchor="middle" x="1422.92" y="-175.5" font-family="Helvetica,sans-Serif" font-size="10.00">cstring</text>
</a>
</g>
</g>
<!-- Node24&#45;&gt;Node25 -->
<g id="edge34" class="edge">
<title>Node24&#45;&gt;Node25</title>
<path fill="none" stroke="midnightblue" d="M1505.17,-224.32C1489.6,-215.74 1465.54,-202.49 1447.46,-192.52"/>
<polygon fill="midnightblue" stroke="midnightblue" points="1449.07,-189.42 1438.62,-187.65 1445.69,-195.55 1449.07,-189.42"/>
</g>
<!-- Node26 -->
<g id="node26" class="node">
<title>Node26</title>
<g id="a_node26"><a xlink:title=" ">
<polygon fill="white" stroke="#bfbfbf" points="1466.42,-168.5 1466.42,-187.5 1531.42,-187.5 1531.42,-168.5 1466.42,-168.5"/>
<text text-anchor="middle" x="1498.92" y="-175.5" font-family="Helvetica,sans-Serif" font-size="10.00">exception</text>
</a>
</g>
</g>
<!-- Node24&#45;&gt;Node26 -->
<g id="edge35" class="edge">
<title>Node24&#45;&gt;Node26</title>
<path fill="none" stroke="midnightblue" d="M1517.28,-224.08C1514.31,-216.77 1509.99,-206.18 1506.29,-197.1"/>
<polygon fill="midnightblue" stroke="midnightblue" points="1509.5,-195.69 1502.48,-187.75 1503.01,-198.33 1509.5,-195.69"/>
</g>
<!-- Node24&#45;&gt;Node27 -->
<g id="edge36" class="edge">
<title>Node24&#45;&gt;Node27</title>
<path fill="none" stroke="midnightblue" d="M1530.24,-224.32C1538.81,-216.34 1551.73,-204.31 1562.1,-194.65"/>
<polygon fill="midnightblue" stroke="midnightblue" points="1564.5,-197.21 1569.43,-187.83 1559.73,-192.09 1564.5,-197.21"/>
</g>
<!-- Node29&#45;&gt;Node4 -->
<g id="edge48" class="edge">
<title>Node29&#45;&gt;Node4</title>
<path fill="none" stroke="midnightblue" d="M833.56,-168.43C864.19,-157.94 905.38,-138.3 888.92,-112 850.52,-50.66 763.05,-25.63 714.67,-16.18"/>
<polygon fill="midnightblue" stroke="midnightblue" points="715.15,-12.71 704.69,-14.35 713.89,-19.6 715.15,-12.71"/>
</g>
<!-- Node29&#45;&gt;Node16 -->
<g id="edge44" class="edge">
<title>Node29&#45;&gt;Node16</title>
<path fill="none" stroke="midnightblue" d="M775.09,-168.44C722.82,-152.98 614.25,-121.15 575.92,-112 558.36,-107.81 455.66,-88.27 392.61,-76.36"/>
<polygon fill="midnightblue" stroke="midnightblue" points="392.94,-72.86 382.47,-74.44 391.64,-79.74 392.94,-72.86"/>
</g>
<!-- Node29&#45;&gt;Node18 -->
<g id="edge46" class="edge">
<title>Node29&#45;&gt;Node18</title>
<path fill="none" stroke="midnightblue" d="M761.93,-168.44C711.11,-158.09 626.25,-140.8 577.17,-130.8"/>
<polygon fill="midnightblue" stroke="midnightblue" points="577.76,-127.34 567.27,-128.78 576.37,-134.2 577.76,-127.34"/>
</g>
<!-- Node29&#45;&gt;Node28 -->
<g id="edge42" class="edge">
<title>Node29&#45;&gt;Node28</title>
<path fill="none" stroke="midnightblue" d="M860.17,-168.44C934.09,-157.2 1061.77,-137.78 1123.49,-128.39"/>
<polygon fill="midnightblue" stroke="midnightblue" points="1124.15,-131.83 1133.51,-126.86 1123.1,-124.91 1124.15,-131.83"/>
</g>
<!-- Node30 -->
<g id="node30" class="node">
<title>Node30</title>
<g id="a_node30"><a xlink:title=" ">
<polygon fill="white" stroke="#bfbfbf" points="661.42,-112.5 661.42,-131.5 740.42,-131.5 740.42,-112.5 661.42,-112.5"/>
<text text-anchor="middle" x="700.92" y="-119.5" font-family="Helvetica,sans-Serif" font-size="10.00">fmt/chrono.h</text>
</a>
</g>
</g>
<!-- Node29&#45;&gt;Node30 -->
<g id="edge43" class="edge">
<title>Node29&#45;&gt;Node30</title>
<path fill="none" stroke="midnightblue" d="M787.37,-168.32C770.93,-159.7 745.48,-146.36 726.45,-136.39"/>
<polygon fill="midnightblue" stroke="midnightblue" points="727.91,-133.2 717.43,-131.65 724.66,-139.4 727.91,-133.2"/>
</g>
<!-- Node31 -->
<g id="node31" class="node">
<title>Node31</title>
<g id="a_node31"><a xlink:title=" ">
<polygon fill="white" stroke="#bfbfbf" points="757.92,-112.5 757.92,-131.5 813.92,-131.5 813.92,-112.5 757.92,-112.5"/>
<text text-anchor="middle" x="785.92" y="-119.5" font-family="Helvetica,sans-Serif" font-size="10.00">iomanip</text>
</a>
</g>
</g>
<!-- Node29&#45;&gt;Node31 -->
<g id="edge45" class="edge">
<title>Node29&#45;&gt;Node31</title>
<path fill="none" stroke="midnightblue" d="M800.95,-168.08C798.53,-160.85 795.05,-150.41 792.05,-141.4"/>
<polygon fill="midnightblue" stroke="midnightblue" points="795.32,-140.13 788.83,-131.75 788.68,-142.34 795.32,-140.13"/>
</g>
<!-- Node32 -->
<g id="node32" class="node">
<title>Node32</title>
<g id="a_node32"><a xlink:title=" ">
<polygon fill="white" stroke="#bfbfbf" points="831.92,-112.5 831.92,-131.5 879.92,-131.5 879.92,-112.5 831.92,-112.5"/>
<text text-anchor="middle" x="855.92" y="-119.5" font-family="Helvetica,sans-Serif" font-size="10.00">time.h</text>
</a>
</g>
</g>
<!-- Node29&#45;&gt;Node32 -->
<g id="edge47" class="edge">
<title>Node29&#45;&gt;Node32</title>
<path fill="none" stroke="midnightblue" d="M812.5,-168.08C820.08,-160.22 831.3,-148.57 840.43,-139.08"/>
<polygon fill="midnightblue" stroke="midnightblue" points="843.08,-141.38 847.49,-131.75 838.03,-136.53 843.08,-141.38"/>
</g>
</g>
</svg>
