<?xml version="1.0" encoding="UTF-8" standalone="no"?>
<!DOCTYPE svg PUBLIC "-//W3C//DTD SVG 1.1//EN"
 "http://www.w3.org/Graphics/SVG/1.1/DTD/svg11.dtd">
<!-- Generated by graphviz version 2.43.0 (0)
 -->
<!-- Title: src/enclave/endpoint.h Pages: 1 -->
<svg width="1268pt" height="934pt"
 viewBox="0.00 0.00 1268.00 934.00" xmlns="http://www.w3.org/2000/svg" xmlns:xlink="http://www.w3.org/1999/xlink">
<g id="graph0" class="graph" transform="scale(1 1) rotate(0) translate(4 930)">
<title>src/enclave/endpoint.h</title>
<polygon fill="white" stroke="transparent" points="-4,4 -4,-930 1264,-930 1264,4 -4,4"/>
<!-- Node1 -->
<g id="node1" class="node">
<title>Node1</title>
<g id="a_node1"><a xlink:title=" ">
<polygon fill="#bfbfbf" stroke="black" points="531,-906.5 531,-925.5 658,-925.5 658,-906.5 531,-906.5"/>
<text text-anchor="middle" x="594.5" y="-913.5" font-family="Helvetica,sans-Serif" font-size="10.00">src/enclave/endpoint.h</text>
</a>
</g>
</g>
<!-- Node2 -->
<g id="node2" class="node">
<title>Node2</title>
<g id="a_node2"><a xlink:href="tls__endpoint_8h.html" target="_top" xlink:title=" ">
<polygon fill="white" stroke="black" points="522.5,-850.5 522.5,-869.5 666.5,-869.5 666.5,-850.5 522.5,-850.5"/>
<text text-anchor="middle" x="594.5" y="-857.5" font-family="Helvetica,sans-Serif" font-size="10.00">src/enclave/tls_endpoint.h</text>
</a>
</g>
</g>
<!-- Node1&#45;&gt;Node2 -->
<g id="edge1" class="edge">
<title>Node1&#45;&gt;Node2</title>
<path fill="none" stroke="midnightblue" d="M594.5,-895.8C594.5,-886.91 594.5,-876.78 594.5,-869.75"/>
<polygon fill="midnightblue" stroke="midnightblue" points="591,-896.08 594.5,-906.08 598,-896.08 591,-896.08"/>
</g>
<!-- Node3 -->
<g id="node3" class="node">
<title>Node3</title>
<g id="a_node3"><a xlink:href="http__parser_8h.html" target="_top" xlink:title=" ">
<polygon fill="white" stroke="black" points="534.5,-738.5 534.5,-757.5 654.5,-757.5 654.5,-738.5 534.5,-738.5"/>
<text text-anchor="middle" x="594.5" y="-745.5" font-family="Helvetica,sans-Serif" font-size="10.00">src/http/http_parser.h</text>
</a>
</g>
</g>
<!-- Node2&#45;&gt;Node3 -->
<g id="edge2" class="edge">
<title>Node2&#45;&gt;Node3</title>
<path fill="none" stroke="midnightblue" d="M583.08,-841.44C578.52,-833.42 573.81,-823.58 571.5,-814 566.51,-793.28 579.58,-769.95 588.01,-757.66"/>
<polygon fill="midnightblue" stroke="midnightblue" points="580.21,-843.46 588.4,-850.19 586.19,-839.83 580.21,-843.46"/>
</g>
<!-- Node32 -->
<g id="node32" class="node">
<title>Node32</title>
<g id="a_node32"><a xlink:href="http__proc_8h.html" target="_top" xlink:title=" ">
<polygon fill="white" stroke="black" points="581,-794.5 581,-813.5 692,-813.5 692,-794.5 581,-794.5"/>
<text text-anchor="middle" x="636.5" y="-801.5" font-family="Helvetica,sans-Serif" font-size="10.00">src/http/http_proc.h</text>
</a>
</g>
</g>
<!-- Node2&#45;&gt;Node32 -->
<g id="edge51" class="edge">
<title>Node2&#45;&gt;Node32</title>
<path fill="none" stroke="midnightblue" d="M607.61,-842.14C614.93,-832.74 623.74,-821.4 629.69,-813.75"/>
<polygon fill="midnightblue" stroke="midnightblue" points="604.81,-840.04 601.44,-850.08 610.34,-844.34 604.81,-840.04"/>
</g>
<!-- Node4 -->
<g id="node4" class="node">
<title>Node4</title>
<g id="a_node4"><a xlink:href="rpc__tls__client_8h.html" target="_top" xlink:title=" ">
<polygon fill="white" stroke="black" points="321,-615.5 321,-645.5 422,-645.5 422,-615.5 321,-615.5"/>
<text text-anchor="start" x="329" y="-633.5" font-family="Helvetica,sans-Serif" font-size="10.00">src/clients/rpc_tls</text>
<text text-anchor="middle" x="371.5" y="-622.5" font-family="Helvetica,sans-Serif" font-size="10.00">_client.h</text>
</a>
</g>
</g>
<!-- Node3&#45;&gt;Node4 -->
<g id="edge3" class="edge">
<title>Node3&#45;&gt;Node4</title>
<path fill="none" stroke="midnightblue" d="M556.52,-735.38C532.4,-727.37 500.87,-715.71 474.5,-702 442.78,-685.51 409.16,-660.99 389.27,-645.64"/>
<polygon fill="midnightblue" stroke="midnightblue" points="555.44,-738.71 566.03,-738.48 557.61,-732.05 555.44,-738.71"/>
</g>
<!-- Node9 -->
<g id="node9" class="node">
<title>Node9</title>
<g id="a_node9"><a xlink:href="http__endpoint_8h.html" target="_top" xlink:title=" ">
<polygon fill="white" stroke="black" points="422,-559.5 422,-578.5 555,-578.5 555,-559.5 422,-559.5"/>
<text text-anchor="middle" x="488.5" y="-566.5" font-family="Helvetica,sans-Serif" font-size="10.00">src/http/http_endpoint.h</text>
</a>
</g>
</g>
<!-- Node3&#45;&gt;Node9 -->
<g id="edge9" class="edge">
<title>Node3&#45;&gt;Node9</title>
<path fill="none" stroke="midnightblue" d="M569.94,-732.97C557.78,-725.08 543.58,-714.35 533.5,-702 501.95,-663.37 492.04,-601.44 489.37,-578.72"/>
<polygon fill="midnightblue" stroke="midnightblue" points="568.4,-736.13 578.74,-738.42 572.09,-730.18 568.4,-736.13"/>
</g>
<!-- Node23 -->
<g id="node23" class="node">
<title>Node23</title>
<g id="a_node23"><a xlink:href="http__jwt_8h.html" target="_top" xlink:title=" ">
<polygon fill="white" stroke="black" points="1024,-682.5 1024,-701.5 1129,-701.5 1129,-682.5 1024,-682.5"/>
<text text-anchor="middle" x="1076.5" y="-689.5" font-family="Helvetica,sans-Serif" font-size="10.00">src/http/http_jwt.h</text>
</a>
</g>
</g>
<!-- Node3&#45;&gt;Node23 -->
<g id="edge32" class="edge">
<title>Node3&#45;&gt;Node23</title>
<path fill="none" stroke="midnightblue" d="M664.63,-739.14C762.17,-728.22 936.59,-708.67 1023.81,-698.9"/>
<polygon fill="midnightblue" stroke="midnightblue" points="664.12,-735.68 654.57,-740.27 664.9,-742.63 664.12,-735.68"/>
</g>
<!-- Node28 -->
<g id="node28" class="node">
<title>Node28</title>
<g id="a_node28"><a xlink:href="http__rpc__context_8h.html" target="_top" xlink:title=" ">
<polygon fill="white" stroke="black" points="690,-621 690,-640 837,-640 837,-621 690,-621"/>
<text text-anchor="middle" x="763.5" y="-628" font-family="Helvetica,sans-Serif" font-size="10.00">src/http/http_rpc_context.h</text>
</a>
</g>
</g>
<!-- Node3&#45;&gt;Node28 -->
<g id="edge41" class="edge">
<title>Node3&#45;&gt;Node28</title>
<path fill="none" stroke="midnightblue" d="M615.85,-732.41C651.42,-708.1 721.76,-660.03 750.65,-640.28"/>
<polygon fill="midnightblue" stroke="midnightblue" points="613.48,-729.79 607.2,-738.32 617.43,-735.57 613.48,-729.79"/>
</g>
<!-- Node30 -->
<g id="node30" class="node">
<title>Node30</title>
<g id="a_node30"><a xlink:href="http__sig_8h.html" target="_top" xlink:title=" ">
<polygon fill="white" stroke="black" points="542.5,-682.5 542.5,-701.5 646.5,-701.5 646.5,-682.5 542.5,-682.5"/>
<text text-anchor="middle" x="594.5" y="-689.5" font-family="Helvetica,sans-Serif" font-size="10.00">src/http/http_sig.h</text>
</a>
</g>
</g>
<!-- Node3&#45;&gt;Node30 -->
<g id="edge47" class="edge">
<title>Node3&#45;&gt;Node30</title>
<path fill="none" stroke="midnightblue" d="M594.5,-727.8C594.5,-718.91 594.5,-708.78 594.5,-701.75"/>
<polygon fill="midnightblue" stroke="midnightblue" points="591,-728.08 594.5,-738.08 598,-728.08 591,-728.08"/>
</g>
<!-- Node5 -->
<g id="node5" class="node">
<title>Node5</title>
<g id="a_node5"><a xlink:href="perf__client_8h.html" target="_top" xlink:title=" ">
<polygon fill="white" stroke="black" points="161,-492.5 161,-522.5 272,-522.5 272,-492.5 161,-492.5"/>
<text text-anchor="start" x="169" y="-510.5" font-family="Helvetica,sans-Serif" font-size="10.00">src/clients/perf/perf</text>
<text text-anchor="middle" x="216.5" y="-499.5" font-family="Helvetica,sans-Serif" font-size="10.00">_client.h</text>
</a>
</g>
</g>
<!-- Node4&#45;&gt;Node5 -->
<g id="edge4" class="edge">
<title>Node4&#45;&gt;Node5</title>
<path fill="none" stroke="midnightblue" d="M313.95,-611.72C294.82,-603.85 274.37,-593.11 258.5,-579 240.83,-563.28 228.41,-538.31 221.87,-522.69"/>
<polygon fill="midnightblue" stroke="midnightblue" points="312.92,-615.08 323.51,-615.47 315.48,-608.56 312.92,-615.08"/>
</g>
<!-- Node8 -->
<g id="node8" class="node">
<title>Node8</title>
<g id="a_node8"><a xlink:href="timing_8h.html" target="_top" xlink:title=" ">
<polygon fill="white" stroke="black" points="267.5,-559.5 267.5,-578.5 399.5,-578.5 399.5,-559.5 267.5,-559.5"/>
<text text-anchor="middle" x="333.5" y="-566.5" font-family="Helvetica,sans-Serif" font-size="10.00">src/clients/perf/timing.h</text>
</a>
</g>
</g>
<!-- Node4&#45;&gt;Node8 -->
<g id="edge7" class="edge">
<title>Node4&#45;&gt;Node8</title>
<path fill="none" stroke="midnightblue" d="M357,-606.8C350.72,-596.96 343.74,-586.03 339.03,-578.66"/>
<polygon fill="midnightblue" stroke="midnightblue" points="354.16,-608.86 362.49,-615.4 360.06,-605.09 354.16,-608.86"/>
</g>
<!-- Node6 -->
<g id="node6" class="node">
<title>Node6</title>
<g id="a_node6"><a xlink:href="tpcc__client_8cpp.html" target="_top" xlink:title=" ">
<polygon fill="white" stroke="black" points="151.5,-425.5 151.5,-455.5 267.5,-455.5 267.5,-425.5 151.5,-425.5"/>
<text text-anchor="start" x="159.5" y="-443.5" font-family="Helvetica,sans-Serif" font-size="10.00">src/apps/tpcc/clients</text>
<text text-anchor="middle" x="209.5" y="-432.5" font-family="Helvetica,sans-Serif" font-size="10.00">/tpcc_client.cpp</text>
</a>
</g>
</g>
<!-- Node5&#45;&gt;Node6 -->
<g id="edge5" class="edge">
<title>Node5&#45;&gt;Node6</title>
<path fill="none" stroke="midnightblue" d="M213.9,-482.4C212.93,-473.37 211.86,-463.41 211.02,-455.58"/>
<polygon fill="midnightblue" stroke="midnightblue" points="210.43,-482.83 214.98,-492.4 217.39,-482.08 210.43,-482.83"/>
</g>
<!-- Node7 -->
<g id="node7" class="node">
<title>Node7</title>
<g id="a_node7"><a xlink:href="scenario__perf__client_8cpp.html" target="_top" xlink:title=" ">
<polygon fill="white" stroke="black" points="0,-425.5 0,-455.5 133,-455.5 133,-425.5 0,-425.5"/>
<text text-anchor="start" x="8" y="-443.5" font-family="Helvetica,sans-Serif" font-size="10.00">src/clients/perf/scenario</text>
<text text-anchor="middle" x="66.5" y="-432.5" font-family="Helvetica,sans-Serif" font-size="10.00">_perf_client.cpp</text>
</a>
</g>
</g>
<!-- Node5&#45;&gt;Node7 -->
<g id="edge6" class="edge">
<title>Node5&#45;&gt;Node7</title>
<path fill="none" stroke="midnightblue" d="M174.75,-488.41C150.8,-478.03 121.18,-465.2 98.98,-455.58"/>
<polygon fill="midnightblue" stroke="midnightblue" points="173.39,-491.63 183.95,-492.4 176.17,-485.21 173.39,-491.63"/>
</g>
<!-- Node8&#45;&gt;Node5 -->
<g id="edge8" class="edge">
<title>Node8&#45;&gt;Node5</title>
<path fill="none" stroke="midnightblue" d="M307.82,-554.94C288.95,-545.35 263.37,-532.33 244.07,-522.52"/>
<polygon fill="midnightblue" stroke="midnightblue" points="306.24,-558.06 316.74,-559.48 309.41,-551.82 306.24,-558.06"/>
</g>
<!-- Node10 -->
<g id="node10" class="node">
<title>Node10</title>
<g id="a_node10"><a xlink:href="rpc__sessions_8h.html" target="_top" xlink:title=" ">
<polygon fill="white" stroke="black" points="298.5,-498 298.5,-517 444.5,-517 444.5,-498 298.5,-498"/>
<text text-anchor="middle" x="371.5" y="-505" font-family="Helvetica,sans-Serif" font-size="10.00">src/enclave/rpc_sessions.h</text>
</a>
</g>
</g>
<!-- Node9&#45;&gt;Node10 -->
<g id="edge10" class="edge">
<title>Node9&#45;&gt;Node10</title>
<path fill="none" stroke="midnightblue" d="M462.67,-554.87C440,-543.33 407.68,-526.9 388.23,-517.01"/>
<polygon fill="midnightblue" stroke="midnightblue" points="461.24,-558.06 471.74,-559.48 464.41,-551.82 461.24,-558.06"/>
</g>
<!-- Node11 -->
<g id="node11" class="node">
<title>Node11</title>
<g id="a_node11"><a xlink:href="enclave_2enclave_8h.html" target="_top" xlink:title=" ">
<polygon fill="white" stroke="black" points="856.5,-56.5 856.5,-75.5 978.5,-75.5 978.5,-56.5 856.5,-56.5"/>
<text text-anchor="middle" x="917.5" y="-63.5" font-family="Helvetica,sans-Serif" font-size="10.00">src/enclave/enclave.h</text>
</a>
</g>
</g>
<!-- Node10&#45;&gt;Node11 -->
<g id="edge11" class="edge">
<title>Node10&#45;&gt;Node11</title>
<path fill="none" stroke="midnightblue" d="M354.97,-490.67C332.62,-467.46 295.5,-421.81 295.5,-374.5 295.5,-374.5 295.5,-374.5 295.5,-182.5 295.5,-125.83 699.73,-85.47 856.44,-71.95"/>
<polygon fill="midnightblue" stroke="midnightblue" points="352.64,-493.29 362.18,-497.91 357.61,-488.35 352.64,-493.29"/>
</g>
<!-- Node13 -->
<g id="node13" class="node">
<title>Node13</title>
<g id="a_node13"><a xlink:href="node__client_8h.html" target="_top" xlink:title=" ">
<polygon fill="white" stroke="black" points="438.5,-431 438.5,-450 564.5,-450 564.5,-431 438.5,-431"/>
<text text-anchor="middle" x="501.5" y="-438" font-family="Helvetica,sans-Serif" font-size="10.00">src/node/node_client.h</text>
</a>
</g>
</g>
<!-- Node10&#45;&gt;Node13 -->
<g id="edge13" class="edge">
<title>Node10&#45;&gt;Node13</title>
<path fill="none" stroke="midnightblue" d="M397.95,-493.27C423.7,-480.4 462.08,-461.21 484.17,-450.17"/>
<polygon fill="midnightblue" stroke="midnightblue" points="396.14,-490.27 388.76,-497.87 399.27,-496.53 396.14,-490.27"/>
</g>
<!-- Node16 -->
<g id="node16" class="node">
<title>Node16</title>
<g id="a_node16"><a xlink:href="node__state_8h.html" target="_top" xlink:title=" ">
<polygon fill="white" stroke="black" points="639.5,-174 639.5,-193 763.5,-193 763.5,-174 639.5,-174"/>
<text text-anchor="middle" x="701.5" y="-181" font-family="Helvetica,sans-Serif" font-size="10.00">src/node/node_state.h</text>
</a>
</g>
</g>
<!-- Node10&#45;&gt;Node16 -->
<g id="edge29" class="edge">
<title>Node10&#45;&gt;Node16</title>
<path fill="none" stroke="midnightblue" d="M362.83,-488.5C351.61,-463.52 333.5,-416.65 333.5,-374.5 333.5,-374.5 333.5,-374.5 333.5,-311 333.5,-274 338.04,-257.4 367.5,-235 409.11,-203.36 554.7,-191.3 639.3,-186.89"/>
<polygon fill="midnightblue" stroke="midnightblue" points="359.76,-490.19 367.14,-497.79 366.11,-487.24 359.76,-490.19"/>
</g>
<!-- Node22 -->
<g id="node22" class="node">
<title>Node22</title>
<g id="a_node22"><a xlink:href="resharing_8h.html" target="_top" xlink:title=" ">
<polygon fill="white" stroke="black" points="376.5,-241 376.5,-260 492.5,-260 492.5,-241 376.5,-241"/>
<text text-anchor="middle" x="434.5" y="-248" font-family="Helvetica,sans-Serif" font-size="10.00">src/node/resharing.h</text>
</a>
</g>
</g>
<!-- Node10&#45;&gt;Node22 -->
<g id="edge30" class="edge">
<title>Node10&#45;&gt;Node22</title>
<path fill="none" stroke="midnightblue" d="M376.13,-487.75C388.74,-436.71 423.35,-296.65 432.34,-260.24"/>
<polygon fill="midnightblue" stroke="midnightblue" points="372.67,-487.17 373.67,-497.72 379.46,-488.85 372.67,-487.17"/>
</g>
<!-- Node12 -->
<g id="node12" class="node">
<title>Node12</title>
<g id="a_node12"><a xlink:href="enclave_2main_8cpp.html" target="_top" xlink:title=" ">
<polygon fill="white" stroke="black" points="857.5,-0.5 857.5,-19.5 977.5,-19.5 977.5,-0.5 857.5,-0.5"/>
<text text-anchor="middle" x="917.5" y="-7.5" font-family="Helvetica,sans-Serif" font-size="10.00">src/enclave/main.cpp</text>
</a>
</g>
</g>
<!-- Node11&#45;&gt;Node12 -->
<g id="edge12" class="edge">
<title>Node11&#45;&gt;Node12</title>
<path fill="none" stroke="midnightblue" d="M917.5,-45.8C917.5,-36.91 917.5,-26.78 917.5,-19.75"/>
<polygon fill="midnightblue" stroke="midnightblue" points="914,-46.08 917.5,-56.08 921,-46.08 914,-46.08"/>
</g>
<!-- Node14 -->
<g id="node14" class="node">
<title>Node14</title>
<g id="a_node14"><a xlink:href="orc__requests_8h.html" target="_top" xlink:title=" ">
<polygon fill="white" stroke="black" points="584,-358.5 584,-388.5 703,-388.5 703,-358.5 584,-358.5"/>
<text text-anchor="start" x="592" y="-376.5" font-family="Helvetica,sans-Serif" font-size="10.00">src/consensus/aft/orc</text>
<text text-anchor="middle" x="643.5" y="-365.5" font-family="Helvetica,sans-Serif" font-size="10.00">_requests.h</text>
</a>
</g>
</g>
<!-- Node13&#45;&gt;Node14 -->
<g id="edge14" class="edge">
<title>Node13&#45;&gt;Node14</title>
<path fill="none" stroke="midnightblue" d="M529.64,-426.62C553.66,-415.63 588.14,-399.84 612.85,-388.53"/>
<polygon fill="midnightblue" stroke="midnightblue" points="527.99,-423.52 520.36,-430.87 530.91,-429.89 527.99,-423.52"/>
</g>
<!-- Node15 -->
<g id="node15" class="node">
<title>Node15</title>
<g id="a_node15"><a xlink:href="raft_8h.html" target="_top" xlink:title=" ">
<polygon fill="white" stroke="black" points="476,-302.5 476,-321.5 605,-321.5 605,-302.5 476,-302.5"/>
<text text-anchor="middle" x="540.5" y="-309.5" font-family="Helvetica,sans-Serif" font-size="10.00">src/consensus/aft/raft.h</text>
</a>
</g>
</g>
<!-- Node13&#45;&gt;Node15 -->
<g id="edge24" class="edge">
<title>Node13&#45;&gt;Node15</title>
<path fill="none" stroke="midnightblue" d="M469.82,-426.28C454.37,-418.01 437.27,-405.73 428.5,-389 422.1,-376.8 420.78,-369.41 428.5,-358 441.41,-338.9 463.9,-327.91 485.36,-321.58"/>
<polygon fill="midnightblue" stroke="midnightblue" points="468.63,-429.59 479.14,-430.91 471.74,-423.32 468.63,-429.59"/>
</g>
<!-- Node20 -->
<g id="node20" class="node">
<title>Node20</title>
<g id="a_node20"><a xlink:href="http__node__client_8h.html" target="_top" xlink:title=" ">
<polygon fill="white" stroke="black" points="635.5,-235.5 635.5,-265.5 745.5,-265.5 745.5,-235.5 635.5,-235.5"/>
<text text-anchor="start" x="643.5" y="-253.5" font-family="Helvetica,sans-Serif" font-size="10.00">src/node/http_node</text>
<text text-anchor="middle" x="690.5" y="-242.5" font-family="Helvetica,sans-Serif" font-size="10.00">_client.h</text>
</a>
</g>
</g>
<!-- Node13&#45;&gt;Node20 -->
<g id="edge25" class="edge">
<title>Node13&#45;&gt;Node20</title>
<path fill="none" stroke="midnightblue" d="M574.76,-431.5C628.35,-423.96 694.52,-410.55 711.5,-389 740.35,-352.39 713.76,-292.83 698.93,-265.73"/>
<polygon fill="midnightblue" stroke="midnightblue" points="574.01,-428.07 564.57,-432.88 574.95,-435.01 574.01,-428.07"/>
</g>
<!-- Node21 -->
<g id="node21" class="node">
<title>Node21</title>
<g id="a_node21"><a xlink:href="retired__nodes__cleanup_8h.html" target="_top" xlink:title=" ">
<polygon fill="white" stroke="black" points="437.5,-358.5 437.5,-388.5 565.5,-388.5 565.5,-358.5 437.5,-358.5"/>
<text text-anchor="start" x="445.5" y="-376.5" font-family="Helvetica,sans-Serif" font-size="10.00">src/node/retired_nodes</text>
<text text-anchor="middle" x="501.5" y="-365.5" font-family="Helvetica,sans-Serif" font-size="10.00">_cleanup.h</text>
</a>
</g>
</g>
<!-- Node13&#45;&gt;Node21 -->
<g id="edge27" class="edge">
<title>Node13&#45;&gt;Node21</title>
<path fill="none" stroke="midnightblue" d="M501.5,-420.41C501.5,-410.22 501.5,-397.9 501.5,-388.59"/>
<polygon fill="midnightblue" stroke="midnightblue" points="498,-420.73 501.5,-430.73 505,-420.73 498,-420.73"/>
</g>
<!-- Node14&#45;&gt;Node15 -->
<g id="edge15" class="edge">
<title>Node14&#45;&gt;Node15</title>
<path fill="none" stroke="midnightblue" d="M610.37,-353.36C591.9,-342.69 569.81,-329.93 555.49,-321.66"/>
<polygon fill="midnightblue" stroke="midnightblue" points="608.68,-356.43 619.09,-358.4 612.18,-350.37 608.68,-356.43"/>
</g>
<!-- Node18 -->
<g id="node18" class="node">
<title>Node18</title>
<g id="a_node18"><a xlink:href="node__frontend_8h.html" target="_top" xlink:title=" ">
<polygon fill="white" stroke="black" points="797.5,-302.5 797.5,-321.5 955.5,-321.5 955.5,-302.5 797.5,-302.5"/>
<text text-anchor="middle" x="876.5" y="-309.5" font-family="Helvetica,sans-Serif" font-size="10.00">src/node/rpc/node_frontend.h</text>
</a>
</g>
</g>
<!-- Node14&#45;&gt;Node18 -->
<g id="edge20" class="edge">
<title>Node14&#45;&gt;Node18</title>
<path fill="none" stroke="midnightblue" d="M708.14,-355.99C751.97,-344.8 808.1,-330.47 843.19,-321.51"/>
<polygon fill="midnightblue" stroke="midnightblue" points="707.25,-352.61 698.42,-358.47 708.98,-359.39 707.25,-352.61"/>
</g>
<!-- Node15&#45;&gt;Node16 -->
<g id="edge16" class="edge">
<title>Node15&#45;&gt;Node16</title>
<path fill="none" stroke="midnightblue" d="M557.12,-295.13C574.04,-279.26 601.3,-254.48 626.5,-235 646.99,-219.16 672.22,-202.76 687.57,-193.1"/>
<polygon fill="midnightblue" stroke="midnightblue" points="554.56,-292.73 549.7,-302.15 559.37,-297.82 554.56,-292.73"/>
</g>
<!-- Node16&#45;&gt;Node11 -->
<g id="edge17" class="edge">
<title>Node16&#45;&gt;Node11</title>
<path fill="none" stroke="midnightblue" d="M726.81,-168.96C771.72,-144.95 864.09,-95.56 901.37,-75.62"/>
<polygon fill="midnightblue" stroke="midnightblue" points="724.9,-166.02 717.74,-173.82 728.2,-172.19 724.9,-166.02"/>
</g>
<!-- Node17 -->
<g id="node17" class="node">
<title>Node17</title>
<g id="a_node17"><a xlink:href="gov__effects_8h.html" target="_top" xlink:title=" ">
<polygon fill="white" stroke="black" points="641.5,-112.5 641.5,-131.5 785.5,-131.5 785.5,-112.5 641.5,-112.5"/>
<text text-anchor="middle" x="713.5" y="-119.5" font-family="Helvetica,sans-Serif" font-size="10.00">src/node/rpc/gov_effects.h</text>
</a>
</g>
</g>
<!-- Node16&#45;&gt;Node17 -->
<g id="edge18" class="edge">
<title>Node16&#45;&gt;Node17</title>
<path fill="none" stroke="midnightblue" d="M705.2,-164.16C707.39,-153.27 710.07,-139.99 711.78,-131.51"/>
<polygon fill="midnightblue" stroke="midnightblue" points="701.77,-163.48 703.22,-173.98 708.63,-164.86 701.77,-163.48"/>
</g>
<!-- Node17&#45;&gt;Node11 -->
<g id="edge19" class="edge">
<title>Node17&#45;&gt;Node11</title>
<path fill="none" stroke="midnightblue" d="M755.7,-109.83C794.22,-99.63 850.32,-84.78 885.33,-75.52"/>
<polygon fill="midnightblue" stroke="midnightblue" points="754.6,-106.5 745.82,-112.44 756.39,-113.27 754.6,-106.5"/>
</g>
<!-- Node18&#45;&gt;Node11 -->
<g id="edge21" class="edge">
<title>Node18&#45;&gt;Node11</title>
<path fill="none" stroke="midnightblue" d="M886.84,-293.58C891.17,-285.46 895.81,-275.52 898.5,-266 918.66,-194.52 918.39,-103.49 917.76,-75.54"/>
<polygon fill="midnightblue" stroke="midnightblue" points="883.72,-291.98 881.87,-302.41 889.82,-295.41 883.72,-291.98"/>
</g>
<!-- Node19 -->
<g id="node19" class="node">
<title>Node19</title>
<g id="a_node19"><a xlink:href="jwt__key__auto__refresh_8h.html" target="_top" xlink:title=" ">
<polygon fill="white" stroke="black" points="764,-235.5 764,-265.5 889,-265.5 889,-235.5 764,-235.5"/>
<text text-anchor="start" x="772" y="-253.5" font-family="Helvetica,sans-Serif" font-size="10.00">src/node/jwt_key_auto</text>
<text text-anchor="middle" x="826.5" y="-242.5" font-family="Helvetica,sans-Serif" font-size="10.00">_refresh.h</text>
</a>
</g>
</g>
<!-- Node18&#45;&gt;Node19 -->
<g id="edge22" class="edge">
<title>Node18&#45;&gt;Node19</title>
<path fill="none" stroke="midnightblue" d="M862.9,-294.81C855.2,-285.65 845.66,-274.3 838.28,-265.52"/>
<polygon fill="midnightblue" stroke="midnightblue" points="860.22,-297.07 869.34,-302.48 865.58,-292.57 860.22,-297.07"/>
</g>
<!-- Node19&#45;&gt;Node16 -->
<g id="edge23" class="edge">
<title>Node19&#45;&gt;Node16</title>
<path fill="none" stroke="midnightblue" d="M790.23,-230.64C766.31,-218.2 736.14,-202.51 717.86,-193.01"/>
<polygon fill="midnightblue" stroke="midnightblue" points="788.89,-233.89 799.38,-235.4 792.12,-227.68 788.89,-233.89"/>
</g>
<!-- Node20&#45;&gt;Node16 -->
<g id="edge26" class="edge">
<title>Node20&#45;&gt;Node16</title>
<path fill="none" stroke="midnightblue" d="M694.6,-225.25C696.5,-214.02 698.64,-201.38 700.03,-193.19"/>
<polygon fill="midnightblue" stroke="midnightblue" points="691.1,-224.95 692.89,-235.4 698.01,-226.12 691.1,-224.95"/>
</g>
<!-- Node21&#45;&gt;Node15 -->
<g id="edge28" class="edge">
<title>Node21&#45;&gt;Node15</title>
<path fill="none" stroke="midnightblue" d="M516.38,-349.8C522.83,-339.96 529.99,-329.03 534.83,-321.66"/>
<polygon fill="midnightblue" stroke="midnightblue" points="513.3,-348.12 510.74,-358.4 519.15,-351.95 513.3,-348.12"/>
</g>
<!-- Node22&#45;&gt;Node16 -->
<g id="edge31" class="edge">
<title>Node22&#45;&gt;Node16</title>
<path fill="none" stroke="midnightblue" d="M479.42,-238.56C532.06,-225.75 618.18,-204.78 666.24,-193.08"/>
<polygon fill="midnightblue" stroke="midnightblue" points="478.57,-235.17 469.68,-240.94 480.22,-241.97 478.57,-235.17"/>
</g>
<!-- Node24 -->
<g id="node24" class="node">
<title>Node24</title>
<g id="a_node24"><a xlink:href="jwt__auth_8cpp.html" target="_top" xlink:title=" ">
<polygon fill="white" stroke="black" points="1105,-615.5 1105,-645.5 1260,-645.5 1260,-615.5 1105,-615.5"/>
<text text-anchor="start" x="1113" y="-633.5" font-family="Helvetica,sans-Serif" font-size="10.00">src/endpoints/authentication</text>
<text text-anchor="middle" x="1182.5" y="-622.5" font-family="Helvetica,sans-Serif" font-size="10.00">/jwt_auth.cpp</text>
</a>
</g>
</g>
<!-- Node23&#45;&gt;Node24 -->
<g id="edge33" class="edge">
<title>Node23&#45;&gt;Node24</title>
<path fill="none" stroke="midnightblue" d="M1100.48,-677.54C1117.49,-667.99 1140.28,-655.2 1157.52,-645.52"/>
<polygon fill="midnightblue" stroke="midnightblue" points="1098.69,-674.53 1091.69,-682.48 1102.12,-680.63 1098.69,-674.53"/>
</g>
<!-- Node25 -->
<g id="node25" class="node">
<title>Node25</title>
<g id="a_node25"><a xlink:href="frontend_8h.html" target="_top" xlink:title=" ">
<polygon fill="white" stroke="black" points="1012,-364 1012,-383 1141,-383 1141,-364 1012,-364"/>
<text text-anchor="middle" x="1076.5" y="-371" font-family="Helvetica,sans-Serif" font-size="10.00">src/node/rpc/frontend.h</text>
</a>
</g>
</g>
<!-- Node23&#45;&gt;Node25 -->
<g id="edge34" class="edge">
<title>Node23&#45;&gt;Node25</title>
<path fill="none" stroke="midnightblue" d="M1076.5,-672.44C1076.5,-648.69 1076.5,-606.29 1076.5,-570 1076.5,-570 1076.5,-570 1076.5,-506.5 1076.5,-459.98 1076.5,-404.24 1076.5,-383.15"/>
<polygon fill="midnightblue" stroke="midnightblue" points="1073,-672.49 1076.5,-682.49 1080,-672.49 1073,-672.49"/>
</g>
<!-- Node25&#45;&gt;Node16 -->
<g id="edge35" class="edge">
<title>Node25&#45;&gt;Node16</title>
<path fill="none" stroke="midnightblue" d="M1060.88,-356.76C1031.64,-328.19 965.53,-267.74 898.5,-235 854.4,-213.46 800.11,-200.42 759.7,-193.01"/>
<polygon fill="midnightblue" stroke="midnightblue" points="1058.55,-359.37 1068.12,-363.92 1063.47,-354.4 1058.55,-359.37"/>
</g>
<!-- Node25&#45;&gt;Node18 -->
<g id="edge38" class="edge">
<title>Node25&#45;&gt;Node18</title>
<path fill="none" stroke="midnightblue" d="M1037.94,-361.03C999.07,-349.46 939.98,-331.88 905.1,-321.51"/>
<polygon fill="midnightblue" stroke="midnightblue" points="1037.26,-364.48 1047.84,-363.98 1039.26,-357.77 1037.26,-364.48"/>
</g>
<!-- Node26 -->
<g id="node26" class="node">
<title>Node26</title>
<g id="a_node26"><a xlink:href="member__frontend_8h.html" target="_top" xlink:title=" ">
<polygon fill="white" stroke="black" points="1113.5,-168.5 1113.5,-198.5 1233.5,-198.5 1233.5,-168.5 1113.5,-168.5"/>
<text text-anchor="start" x="1121.5" y="-186.5" font-family="Helvetica,sans-Serif" font-size="10.00">src/node/rpc/member</text>
<text text-anchor="middle" x="1173.5" y="-175.5" font-family="Helvetica,sans-Serif" font-size="10.00">_frontend.h</text>
</a>
</g>
</g>
<!-- Node25&#45;&gt;Node26 -->
<g id="edge36" class="edge">
<title>Node25&#45;&gt;Node26</title>
<path fill="none" stroke="midnightblue" d="M1085.61,-354.84C1104.73,-317.78 1148.72,-232.53 1166.17,-198.7"/>
<polygon fill="midnightblue" stroke="midnightblue" points="1082.39,-353.44 1080.92,-363.93 1088.62,-356.65 1082.39,-353.44"/>
</g>
<!-- Node27 -->
<g id="node27" class="node">
<title>Node27</title>
<g id="a_node27"><a xlink:href="user__frontend_8h.html" target="_top" xlink:title=" ">
<polygon fill="white" stroke="black" points="999,-112.5 999,-131.5 1154,-131.5 1154,-112.5 999,-112.5"/>
<text text-anchor="middle" x="1076.5" y="-119.5" font-family="Helvetica,sans-Serif" font-size="10.00">src/node/rpc/user_frontend.h</text>
</a>
</g>
</g>
<!-- Node25&#45;&gt;Node27 -->
<g id="edge39" class="edge">
<title>Node25&#45;&gt;Node27</title>
<path fill="none" stroke="midnightblue" d="M1076.5,-353.84C1076.5,-303.64 1076.5,-167.1 1076.5,-131.55"/>
<polygon fill="midnightblue" stroke="midnightblue" points="1073,-353.91 1076.5,-363.91 1080,-353.91 1073,-353.91"/>
</g>
<!-- Node26&#45;&gt;Node11 -->
<g id="edge37" class="edge">
<title>Node26&#45;&gt;Node11</title>
<path fill="none" stroke="midnightblue" d="M1176.67,-158C1177.19,-142.81 1175.01,-123.98 1163.5,-112 1138.61,-86.09 1043.09,-74.87 978.66,-70.18"/>
<polygon fill="midnightblue" stroke="midnightblue" points="1173.15,-158.03 1175.9,-168.26 1180.13,-158.55 1173.15,-158.03"/>
</g>
<!-- Node27&#45;&gt;Node11 -->
<g id="edge40" class="edge">
<title>Node27&#45;&gt;Node11</title>
<path fill="none" stroke="midnightblue" d="M1041.67,-109.17C1011.73,-99 969.28,-84.59 942.58,-75.52"/>
<polygon fill="midnightblue" stroke="midnightblue" points="1040.71,-112.54 1051.31,-112.44 1042.96,-105.91 1040.71,-112.54"/>
</g>
<!-- Node28&#45;&gt;Node9 -->
<g id="edge42" class="edge">
<title>Node28&#45;&gt;Node9</title>
<path fill="none" stroke="midnightblue" d="M714.19,-618.83C660.86,-607.29 576.91,-589.13 527.83,-578.51"/>
<polygon fill="midnightblue" stroke="midnightblue" points="713.59,-622.28 724.1,-620.98 715.07,-615.44 713.59,-622.28"/>
</g>
<!-- Node28&#45;&gt;Node19 -->
<g id="edge43" class="edge">
<title>Node28&#45;&gt;Node19</title>
<path fill="none" stroke="midnightblue" d="M764.99,-610.96C766.77,-587.22 769.5,-544.83 769.5,-508.5 769.5,-508.5 769.5,-508.5 769.5,-372.5 769.5,-340.05 774.26,-331.16 788.5,-302 795.05,-288.59 805.36,-275.18 813.59,-265.55"/>
<polygon fill="midnightblue" stroke="midnightblue" points="761.5,-610.76 764.21,-621 768.48,-611.3 761.5,-610.76"/>
</g>
<!-- Node29 -->
<g id="node29" class="node">
<title>Node29</title>
<g id="a_node29"><a xlink:href="forwarder_8h.html" target="_top" xlink:title=" ">
<polygon fill="white" stroke="black" points="914.5,-431 914.5,-450 1048.5,-450 1048.5,-431 914.5,-431"/>
<text text-anchor="middle" x="981.5" y="-438" font-family="Helvetica,sans-Serif" font-size="10.00">src/node/rpc/forwarder.h</text>
</a>
</g>
</g>
<!-- Node28&#45;&gt;Node29 -->
<g id="edge44" class="edge">
<title>Node28&#45;&gt;Node29</title>
<path fill="none" stroke="midnightblue" d="M781.24,-614.2C825.07,-576.4 937.37,-479.56 971.51,-450.12"/>
<polygon fill="midnightblue" stroke="midnightblue" points="778.72,-611.75 773.43,-620.93 783.29,-617.05 778.72,-611.75"/>
</g>
<!-- Node29&#45;&gt;Node11 -->
<g id="edge45" class="edge">
<title>Node29&#45;&gt;Node11</title>
<path fill="none" stroke="midnightblue" d="M979.57,-420.76C974.18,-370.37 957.54,-227.94 930.5,-112 927.51,-99.17 923.1,-84.56 920.26,-75.56"/>
<polygon fill="midnightblue" stroke="midnightblue" points="976.1,-421.23 980.63,-430.81 983.07,-420.5 976.1,-421.23"/>
</g>
<!-- Node29&#45;&gt;Node25 -->
<g id="edge46" class="edge">
<title>Node29&#45;&gt;Node25</title>
<path fill="none" stroke="midnightblue" d="M1002.81,-424.92C1021.59,-412.07 1048.32,-393.78 1063.89,-383.13"/>
<polygon fill="midnightblue" stroke="midnightblue" points="1000.59,-422.2 994.31,-430.73 1004.54,-427.98 1000.59,-422.2"/>
</g>
<!-- Node30&#45;&gt;Node4 -->
<g id="edge48" class="edge">
<title>Node30&#45;&gt;Node4</title>
<path fill="none" stroke="midnightblue" d="M552.61,-679.82C515.67,-669.97 461.75,-655.58 422.35,-645.07"/>
<polygon fill="midnightblue" stroke="midnightblue" points="551.99,-683.28 562.55,-682.48 553.79,-676.52 551.99,-683.28"/>
</g>
<!-- Node30&#45;&gt;Node28 -->
<g id="edge50" class="edge">
<title>Node30&#45;&gt;Node28</title>
<path fill="none" stroke="midnightblue" d="M628.35,-679.08C661.2,-667.52 710.24,-650.25 739.33,-640.01"/>
<polygon fill="midnightblue" stroke="midnightblue" points="626.98,-675.85 618.71,-682.48 629.31,-682.46 626.98,-675.85"/>
</g>
<!-- Node31 -->
<g id="node31" class="node">
<title>Node31</title>
<g id="a_node31"><a xlink:href="sig__auth_8cpp.html" target="_top" xlink:title=" ">
<polygon fill="white" stroke="black" points="517,-615.5 517,-645.5 672,-645.5 672,-615.5 517,-615.5"/>
<text text-anchor="start" x="525" y="-633.5" font-family="Helvetica,sans-Serif" font-size="10.00">src/endpoints/authentication</text>
<text text-anchor="middle" x="594.5" y="-622.5" font-family="Helvetica,sans-Serif" font-size="10.00">/sig_auth.cpp</text>
</a>
</g>
</g>
<!-- Node30&#45;&gt;Node31 -->
<g id="edge49" class="edge">
<title>Node30&#45;&gt;Node31</title>
<path fill="none" stroke="midnightblue" d="M594.5,-672.23C594.5,-663.59 594.5,-653.5 594.5,-645.52"/>
<polygon fill="midnightblue" stroke="midnightblue" points="591,-672.48 594.5,-682.48 598,-672.48 591,-672.48"/>
</g>
<!-- Node32&#45;&gt;Node3 -->
<g id="edge52" class="edge">
<title>Node32&#45;&gt;Node3</title>
<path fill="none" stroke="midnightblue" d="M623.39,-786.14C616.07,-776.74 607.26,-765.4 601.31,-757.75"/>
<polygon fill="midnightblue" stroke="midnightblue" points="620.66,-788.34 629.56,-794.08 626.19,-784.04 620.66,-788.34"/>
</g>
</g>
</svg>
