<?xml version="1.0" encoding="UTF-8" standalone="no"?>
<!DOCTYPE svg PUBLIC "-//W3C//DTD SVG 1.1//EN"
 "http://www.w3.org/Graphics/SVG/1.1/DTD/svg11.dtd">
<!-- Generated by graphviz version 2.43.0 (0)
 -->
<!-- Title: crypto::OpenSSL::Unique_X509 Pages: 1 -->
<svg width="175pt" height="185pt"
 viewBox="0.00 0.00 175.00 185.00" xmlns="http://www.w3.org/2000/svg" xmlns:xlink="http://www.w3.org/1999/xlink">
<g id="graph0" class="graph" transform="scale(1 1) rotate(0) translate(4 181)">
<title>crypto::OpenSSL::Unique_X509</title>
<polygon fill="white" stroke="transparent" points="-4,4 -4,-181 171,-181 171,4 -4,4"/>
<!-- Node1 -->
<g id="node1" class="node">
<title>Node1</title>
<g id="a_node1"><a xlink:title=" ">
<polygon fill="#bfbfbf" stroke="black" points="0,-0.5 0,-19.5 167,-19.5 167,-0.5 0,-0.5"/>
<text text-anchor="middle" x="83.5" y="-7.5" font-family="Helvetica,sans-Serif" font-size="10.00">crypto::OpenSSL::Unique_X509</text>
</a>
</g>
</g>
<!-- Node2 -->
<g id="node2" class="node">
<title>Node2</title>
<g id="a_node2"><a xlink:href="classcrypto_1_1OpenSSL_1_1Unique__SSL__OBJECT.html" target="_top" xlink:title=" ">
<polygon fill="white" stroke="black" points="10,-57.5 10,-98.5 157,-98.5 157,-57.5 10,-57.5"/>
<text text-anchor="start" x="18" y="-86.5" font-family="Helvetica,sans-Serif" font-size="10.00">crypto::OpenSSL::Unique</text>
<text text-anchor="start" x="18" y="-75.5" font-family="Helvetica,sans-Serif" font-size="10.00">_SSL_OBJECT&lt; X509, X509</text>
<text text-anchor="middle" x="83.5" y="-64.5" font-family="Helvetica,sans-Serif" font-size="10.00">_new, X509_free &gt;</text>
</a>
</g>
</g>
<!-- Node2&#45;&gt;Node1 -->
<g id="edge1" class="edge">
<title>Node2&#45;&gt;Node1</title>
<path fill="none" stroke="midnightblue" d="M83.5,-47.12C83.5,-37.17 83.5,-26.84 83.5,-19.79"/>
<polygon fill="midnightblue" stroke="midnightblue" points="80,-47.2 83.5,-57.2 87,-47.2 80,-47.2"/>
</g>
<!-- Node3 -->
<g id="node3" class="node">
<title>Node3</title>
<g id="a_node3"><a xlink:title=" ">
<polygon fill="white" stroke="black" points="19.5,-146.5 19.5,-176.5 147.5,-176.5 147.5,-146.5 19.5,-146.5"/>
<text text-anchor="start" x="27.5" y="-164.5" font-family="Helvetica,sans-Serif" font-size="10.00">std::unique_ptr&lt; X509,</text>
<text text-anchor="middle" x="83.5" y="-153.5" font-family="Helvetica,sans-Serif" font-size="10.00"> void(*)(X509 *)&gt;</text>
</a>
</g>
</g>
<!-- Node3&#45;&gt;Node2 -->
<g id="edge2" class="edge">
<title>Node3&#45;&gt;Node2</title>
<path fill="none" stroke="#9a32cd" stroke-dasharray="5,2" d="M83.5,-136.07C83.5,-124.06 83.5,-109.79 83.5,-98.53"/>
<polygon fill="#9a32cd" stroke="#9a32cd" points="80,-136.3 83.5,-146.3 87,-136.3 80,-136.3"/>
<text text-anchor="middle" x="88.5" y="-120" font-family="Helvetica,sans-Serif" font-size="10.00"> p</text>
</g>
</g>
</svg>
