<?xml version="1.0" encoding="UTF-8" standalone="no"?>
<!DOCTYPE svg PUBLIC "-//W3C//DTD SVG 1.1//EN"
 "http://www.w3.org/Graphics/SVG/1.1/DTD/svg11.dtd">
<!-- Generated by graphviz version 2.43.0 (0)
 -->
<!-- Title: client::PerfOptions Pages: 1 -->
<svg width="129pt" height="240pt"
 viewBox="0.00 0.00 128.50 240.00" xmlns="http://www.w3.org/2000/svg" xmlns:xlink="http://www.w3.org/1999/xlink">
<g id="graph0" class="graph" transform="scale(1 1) rotate(0) translate(4 236)">
<title>client::PerfOptions</title>
<polygon fill="white" stroke="transparent" points="-4,4 -4,-236 124.5,-236 124.5,4 -4,4"/>
<!-- Node1 -->
<g id="node1" class="node">
<title>Node1</title>
<g id="a_node1"><a xlink:title=" ">
<polygon fill="#bfbfbf" stroke="black" points="0,-0.5 0,-19.5 107,-19.5 107,-0.5 0,-0.5"/>
<text text-anchor="middle" x="53.5" y="-7.5" font-family="Helvetica,sans-Serif" font-size="10.00">client::PerfOptions</text>
</a>
</g>
</g>
<!-- Node2 -->
<g id="node2" class="node">
<title>Node2</title>
<g id="a_node2"><a xlink:title=" ">
<polygon fill="white" stroke="black" points="21,-144.5 21,-163.5 86,-163.5 86,-144.5 21,-144.5"/>
<text text-anchor="middle" x="53.5" y="-151.5" font-family="Helvetica,sans-Serif" font-size="10.00">std::string</text>
</a>
</g>
</g>
<!-- Node2&#45;&gt;Node1 -->
<g id="edge1" class="edge">
<title>Node2&#45;&gt;Node1</title>
<path fill="none" stroke="#9a32cd" stroke-dasharray="5,2" d="M53.5,-134.11C53.5,-102.93 53.5,-41.93 53.5,-19.52"/>
<polygon fill="#9a32cd" stroke="#9a32cd" points="50,-134.12 53.5,-144.12 57,-134.12 50,-134.12"/>
<text text-anchor="middle" x="87" y="-118" font-family="Helvetica,sans-Serif" font-size="10.00"> bearer_token</text>
<text text-anchor="middle" x="87" y="-107" font-family="Helvetica,sans-Serif" font-size="10.00">ca_file</text>
<text text-anchor="middle" x="87" y="-96" font-family="Helvetica,sans-Serif" font-size="10.00">cert_file</text>
<text text-anchor="middle" x="87" y="-85" font-family="Helvetica,sans-Serif" font-size="10.00">key_file</text>
<text text-anchor="middle" x="87" y="-74" font-family="Helvetica,sans-Serif" font-size="10.00">label</text>
<text text-anchor="middle" x="87" y="-63" font-family="Helvetica,sans-Serif" font-size="10.00">pid_file</text>
<text text-anchor="start" x="53.5" y="-52" font-family="Helvetica,sans-Serif" font-size="10.00">verification</text>
<text text-anchor="middle" x="87" y="-41" font-family="Helvetica,sans-Serif" font-size="10.00">_file</text>
</g>
<!-- Node3 -->
<g id="node3" class="node">
<title>Node3</title>
<g id="a_node3"><a xlink:title=" ">
<polygon fill="white" stroke="black" points="1.5,-201.5 1.5,-231.5 105.5,-231.5 105.5,-201.5 1.5,-201.5"/>
<text text-anchor="start" x="9.5" y="-219.5" font-family="Helvetica,sans-Serif" font-size="10.00">std::basic_string&lt;</text>
<text text-anchor="middle" x="53.5" y="-208.5" font-family="Helvetica,sans-Serif" font-size="10.00"> Char &gt;</text>
</a>
</g>
</g>
<!-- Node3&#45;&gt;Node2 -->
<g id="edge2" class="edge">
<title>Node3&#45;&gt;Node2</title>
<path fill="none" stroke="midnightblue" d="M53.5,-191.35C53.5,-181.51 53.5,-170.78 53.5,-163.54"/>
<polygon fill="midnightblue" stroke="midnightblue" points="50,-191.47 53.5,-201.47 57,-191.47 50,-191.47"/>
</g>
</g>
</svg>
