<?xml version="1.0" encoding="UTF-8" standalone="no"?>
<!DOCTYPE svg PUBLIC "-//W3C//DTD SVG 1.1//EN"
 "http://www.w3.org/Graphics/SVG/1.1/DTD/svg11.dtd">
<!-- Generated by graphviz version 2.43.0 (0)
 -->
<!-- Title: ccf::SetJwtPublicSigningKeys Pages: 1 -->
<svg width="293pt" height="444pt"
 viewBox="0.00 0.00 292.50 444.00" xmlns="http://www.w3.org/2000/svg" xmlns:xlink="http://www.w3.org/1999/xlink">
<g id="graph0" class="graph" transform="scale(1 1) rotate(0) translate(4 440)">
<title>ccf::SetJwtPublicSigningKeys</title>
<polygon fill="white" stroke="transparent" points="-4,4 -4,-440 288.5,-440 288.5,4 -4,4"/>
<!-- Node1 -->
<g id="node1" class="node">
<title>Node1</title>
<g id="a_node1"><a xlink:title=" ">
<polygon fill="#bfbfbf" stroke="black" points="0,-0.5 0,-19.5 155,-19.5 155,-0.5 0,-0.5"/>
<text text-anchor="middle" x="77.5" y="-7.5" font-family="Helvetica,sans-Serif" font-size="10.00">ccf::SetJwtPublicSigningKeys</text>
</a>
</g>
</g>
<!-- Node2 -->
<g id="node2" class="node">
<title>Node2</title>
<g id="a_node2"><a xlink:title=" ">
<polygon fill="white" stroke="black" points="75,-348.5 75,-367.5 140,-367.5 140,-348.5 75,-348.5"/>
<text text-anchor="middle" x="107.5" y="-355.5" font-family="Helvetica,sans-Serif" font-size="10.00">std::string</text>
</a>
</g>
</g>
<!-- Node2&#45;&gt;Node1 -->
<g id="edge1" class="edge">
<title>Node2&#45;&gt;Node1</title>
<path fill="none" stroke="#9a32cd" stroke-dasharray="5,2" d="M88.37,-341.3C75.74,-329.08 61.5,-310.89 61.5,-291 61.5,-291 61.5,-291 61.5,-76 61.5,-55.31 69.24,-31.97 73.95,-19.66"/>
<polygon fill="#9a32cd" stroke="#9a32cd" points="86.13,-343.99 95.89,-348.1 90.82,-338.8 86.13,-343.99"/>
<text text-anchor="middle" x="78" y="-186" font-family="Helvetica,sans-Serif" font-size="10.00"> issuer</text>
</g>
<!-- Node6 -->
<g id="node6" class="node">
<title>Node6</title>
<g id="a_node6"><a xlink:href="structccf_1_1JsonWebKey.html" target="_top" xlink:title=" ">
<polygon fill="white" stroke="black" points="112,-212.5 112,-231.5 207,-231.5 207,-212.5 112,-212.5"/>
<text text-anchor="middle" x="159.5" y="-219.5" font-family="Helvetica,sans-Serif" font-size="10.00">ccf::JsonWebKey</text>
</a>
</g>
</g>
<!-- Node2&#45;&gt;Node6 -->
<g id="edge8" class="edge">
<title>Node2&#45;&gt;Node6</title>
<path fill="none" stroke="#9a32cd" stroke-dasharray="5,2" d="M106.9,-338.12C107.02,-321.88 108.76,-298.11 116.5,-279 124.23,-259.91 140.33,-241.76 150.49,-231.54"/>
<polygon fill="#9a32cd" stroke="#9a32cd" points="103.4,-338.49 107.03,-348.44 110.4,-338.4 103.4,-338.49"/>
<text text-anchor="middle" x="126" y="-293" font-family="Helvetica,sans-Serif" font-size="10.00"> kid</text>
<text text-anchor="middle" x="126" y="-282" font-family="Helvetica,sans-Serif" font-size="10.00">kty</text>
</g>
<!-- Node7 -->
<g id="node7" class="node">
<title>Node7</title>
<g id="a_node7"><a xlink:title=" ">
<polygon fill="white" stroke="black" points="144.5,-280.5 144.5,-299.5 284.5,-299.5 284.5,-280.5 144.5,-280.5"/>
<text text-anchor="middle" x="214.5" y="-287.5" font-family="Helvetica,sans-Serif" font-size="10.00">std::vector&lt; std::string &gt;</text>
</a>
</g>
</g>
<!-- Node2&#45;&gt;Node7 -->
<g id="edge7" class="edge">
<title>Node2&#45;&gt;Node7</title>
<path fill="none" stroke="#9a32cd" stroke-dasharray="5,2" d="M130.22,-342.99C151.5,-329.86 182.64,-310.65 200.51,-299.63"/>
<polygon fill="#9a32cd" stroke="#9a32cd" points="128.16,-340.14 121.49,-348.37 131.84,-346.1 128.16,-340.14"/>
<text text-anchor="middle" x="191" y="-322" font-family="Helvetica,sans-Serif" font-size="10.00"> elements</text>
</g>
<!-- Node3 -->
<g id="node3" class="node">
<title>Node3</title>
<g id="a_node3"><a xlink:title=" ">
<polygon fill="white" stroke="black" points="55.5,-405.5 55.5,-435.5 159.5,-435.5 159.5,-405.5 55.5,-405.5"/>
<text text-anchor="start" x="63.5" y="-423.5" font-family="Helvetica,sans-Serif" font-size="10.00">std::basic_string&lt;</text>
<text text-anchor="middle" x="107.5" y="-412.5" font-family="Helvetica,sans-Serif" font-size="10.00"> Char &gt;</text>
</a>
</g>
</g>
<!-- Node3&#45;&gt;Node2 -->
<g id="edge2" class="edge">
<title>Node3&#45;&gt;Node2</title>
<path fill="none" stroke="midnightblue" d="M107.5,-395.35C107.5,-385.51 107.5,-374.78 107.5,-367.54"/>
<polygon fill="midnightblue" stroke="midnightblue" points="104,-395.47 107.5,-405.47 111,-395.47 104,-395.47"/>
</g>
<!-- Node4 -->
<g id="node4" class="node">
<title>Node4</title>
<g id="a_node4"><a xlink:href="structccf_1_1JsonWebKeySet.html" target="_top" xlink:title=" ">
<polygon fill="white" stroke="black" points="97,-67.5 97,-86.5 208,-86.5 208,-67.5 97,-67.5"/>
<text text-anchor="middle" x="152.5" y="-74.5" font-family="Helvetica,sans-Serif" font-size="10.00">ccf::JsonWebKeySet</text>
</a>
</g>
</g>
<!-- Node4&#45;&gt;Node1 -->
<g id="edge3" class="edge">
<title>Node4&#45;&gt;Node1</title>
<path fill="none" stroke="#9a32cd" stroke-dasharray="5,2" d="M134.45,-60.36C119.71,-47.58 99.41,-29.99 87.45,-19.63"/>
<polygon fill="#9a32cd" stroke="#9a32cd" points="132.54,-63.33 142.39,-67.23 137.12,-58.04 132.54,-63.33"/>
<text text-anchor="middle" x="132.5" y="-41" font-family="Helvetica,sans-Serif" font-size="10.00"> jwks</text>
</g>
<!-- Node5 -->
<g id="node5" class="node">
<title>Node5</title>
<g id="a_node5"><a xlink:title=" ">
<polygon fill="white" stroke="black" points="89.5,-134.5 89.5,-164.5 229.5,-164.5 229.5,-134.5 89.5,-134.5"/>
<text text-anchor="start" x="97.5" y="-152.5" font-family="Helvetica,sans-Serif" font-size="10.00">std::vector&lt; ccf::JsonWeb</text>
<text text-anchor="middle" x="159.5" y="-141.5" font-family="Helvetica,sans-Serif" font-size="10.00">Key &gt;</text>
</a>
</g>
</g>
<!-- Node5&#45;&gt;Node4 -->
<g id="edge4" class="edge">
<title>Node5&#45;&gt;Node4</title>
<path fill="none" stroke="#9a32cd" stroke-dasharray="5,2" d="M157.08,-124.09C155.8,-111.21 154.31,-96.2 153.38,-86.89"/>
<polygon fill="#9a32cd" stroke="#9a32cd" points="153.61,-124.63 158.08,-134.23 160.58,-123.94 153.61,-124.63"/>
<text text-anchor="middle" x="169.5" y="-108" font-family="Helvetica,sans-Serif" font-size="10.00"> keys</text>
</g>
<!-- Node6&#45;&gt;Node5 -->
<g id="edge5" class="edge">
<title>Node6&#45;&gt;Node5</title>
<path fill="none" stroke="#9a32cd" stroke-dasharray="5,2" d="M159.5,-202.24C159.5,-190.41 159.5,-175.38 159.5,-164.58"/>
<polygon fill="#9a32cd" stroke="#9a32cd" points="156,-202.36 159.5,-212.36 163,-202.36 156,-202.36"/>
<text text-anchor="middle" x="184" y="-186" font-family="Helvetica,sans-Serif" font-size="10.00"> elements</text>
</g>
<!-- Node7&#45;&gt;Node6 -->
<g id="edge6" class="edge">
<title>Node7&#45;&gt;Node6</title>
<path fill="none" stroke="#9a32cd" stroke-dasharray="5,2" d="M200.9,-272.68C190.15,-259.78 175.55,-242.26 166.87,-231.84"/>
<polygon fill="#9a32cd" stroke="#9a32cd" points="198.22,-274.93 207.31,-280.37 203.6,-270.45 198.22,-274.93"/>
<text text-anchor="middle" x="200" y="-253" font-family="Helvetica,sans-Serif" font-size="10.00"> x5c</text>
</g>
</g>
</svg>
