<?xml version="1.0" encoding="UTF-8" standalone="no"?>
<!DOCTYPE svg PUBLIC "-//W3C//DTD SVG 1.1//EN"
 "http://www.w3.org/Graphics/SVG/1.1/DTD/svg11.dtd">
<!-- Generated by graphviz version 2.43.0 (0)
 -->
<!-- Title: logger::LogLine Pages: 1 -->
<svg width="268pt" height="356pt"
 viewBox="0.00 0.00 267.50 356.00" xmlns="http://www.w3.org/2000/svg" xmlns:xlink="http://www.w3.org/1999/xlink">
<g id="graph0" class="graph" transform="scale(1 1) rotate(0) translate(4 352)">
<title>logger::LogLine</title>
<polygon fill="white" stroke="transparent" points="-4,4 -4,-352 263.5,-352 263.5,4 -4,4"/>
<!-- Node1 -->
<g id="node1" class="node">
<title>Node1</title>
<g id="a_node1"><a xlink:title=" ">
<polygon fill="#bfbfbf" stroke="black" points="74.5,-0.5 74.5,-19.5 165.5,-19.5 165.5,-0.5 74.5,-0.5"/>
<text text-anchor="middle" x="120" y="-7.5" font-family="Helvetica,sans-Serif" font-size="10.00">logger::LogLine</text>
</a>
</g>
</g>
<!-- Node2 -->
<g id="node2" class="node">
<title>Node2</title>
<g id="a_node2"><a xlink:title=" ">
<polygon fill="white" stroke="black" points="36.5,-78.5 36.5,-97.5 101.5,-97.5 101.5,-78.5 36.5,-78.5"/>
<text text-anchor="middle" x="69" y="-85.5" font-family="Helvetica,sans-Serif" font-size="10.00">std::string</text>
</a>
</g>
</g>
<!-- Node2&#45;&gt;Node1 -->
<g id="edge1" class="edge">
<title>Node2&#45;&gt;Node1</title>
<path fill="none" stroke="#9a32cd" stroke-dasharray="5,2" d="M77.51,-69.36C82.43,-59.77 89.01,-47.89 96,-38 100.63,-31.44 106.63,-24.69 111.47,-19.58"/>
<polygon fill="#9a32cd" stroke="#9a32cd" points="74.36,-67.82 73.04,-78.33 80.63,-70.94 74.36,-67.82"/>
<text text-anchor="middle" x="122" y="-52" font-family="Helvetica,sans-Serif" font-size="10.00"> file_name</text>
<text text-anchor="middle" x="122" y="-41" font-family="Helvetica,sans-Serif" font-size="10.00">msg</text>
</g>
<!-- Node3 -->
<g id="node3" class="node">
<title>Node3</title>
<g id="a_node3"><a xlink:title=" ">
<polygon fill="white" stroke="black" points="0,-135.5 0,-165.5 104,-165.5 104,-135.5 0,-135.5"/>
<text text-anchor="start" x="8" y="-153.5" font-family="Helvetica,sans-Serif" font-size="10.00">std::basic_string&lt;</text>
<text text-anchor="middle" x="52" y="-142.5" font-family="Helvetica,sans-Serif" font-size="10.00"> Char &gt;</text>
</a>
</g>
</g>
<!-- Node3&#45;&gt;Node2 -->
<g id="edge2" class="edge">
<title>Node3&#45;&gt;Node2</title>
<path fill="none" stroke="midnightblue" d="M58.7,-125.67C61.49,-115.74 64.55,-104.85 66.6,-97.54"/>
<polygon fill="midnightblue" stroke="midnightblue" points="55.28,-124.89 55.94,-135.47 62.02,-126.79 55.28,-124.89"/>
</g>
<!-- Node4 -->
<g id="node4" class="node">
<title>Node4</title>
<g id="a_node4"><a xlink:title=" ">
<polygon fill="white" stroke="black" points="129,-78.5 129,-97.5 235,-97.5 235,-78.5 129,-78.5"/>
<text text-anchor="middle" x="182" y="-85.5" font-family="Helvetica,sans-Serif" font-size="10.00">std::ostringstream</text>
</a>
</g>
</g>
<!-- Node4&#45;&gt;Node1 -->
<g id="edge3" class="edge">
<title>Node4&#45;&gt;Node1</title>
<path fill="none" stroke="#9a32cd" stroke-dasharray="5,2" d="M171.14,-69.61C164.82,-59.96 156.46,-47.94 148,-38 142.4,-31.42 135.4,-24.67 129.8,-19.56"/>
<polygon fill="#9a32cd" stroke="#9a32cd" points="168.37,-71.77 176.71,-78.31 174.26,-68 168.37,-71.77"/>
<text text-anchor="middle" x="170" y="-46.5" font-family="Helvetica,sans-Serif" font-size="10.00"> ss</text>
</g>
<!-- Node5 -->
<g id="node5" class="node">
<title>Node5</title>
<g id="a_node5"><a xlink:title=" ">
<polygon fill="white" stroke="black" points="122.5,-135.5 122.5,-165.5 259.5,-165.5 259.5,-135.5 122.5,-135.5"/>
<text text-anchor="start" x="130.5" y="-153.5" font-family="Helvetica,sans-Serif" font-size="10.00">std::basic_ostringstream</text>
<text text-anchor="middle" x="191" y="-142.5" font-family="Helvetica,sans-Serif" font-size="10.00">&lt; Char &gt;</text>
</a>
</g>
</g>
<!-- Node5&#45;&gt;Node4 -->
<g id="edge4" class="edge">
<title>Node5&#45;&gt;Node4</title>
<path fill="none" stroke="midnightblue" d="M187.41,-125.35C185.94,-115.51 184.35,-104.78 183.27,-97.54"/>
<polygon fill="midnightblue" stroke="midnightblue" points="183.98,-126.09 188.91,-135.47 190.9,-125.06 183.98,-126.09"/>
</g>
<!-- Node6 -->
<g id="node6" class="node">
<title>Node6</title>
<g id="a_node6"><a xlink:title=" ">
<polygon fill="white" stroke="black" points="136.5,-203.5 136.5,-233.5 245.5,-233.5 245.5,-203.5 136.5,-203.5"/>
<text text-anchor="start" x="144.5" y="-221.5" font-family="Helvetica,sans-Serif" font-size="10.00">std::basic_ostream</text>
<text text-anchor="middle" x="191" y="-210.5" font-family="Helvetica,sans-Serif" font-size="10.00">&lt; Char &gt;</text>
</a>
</g>
</g>
<!-- Node6&#45;&gt;Node5 -->
<g id="edge5" class="edge">
<title>Node6&#45;&gt;Node5</title>
<path fill="none" stroke="midnightblue" d="M191,-193.03C191,-183.86 191,-173.74 191,-165.79"/>
<polygon fill="midnightblue" stroke="midnightblue" points="187.5,-193.18 191,-203.18 194.5,-193.18 187.5,-193.18"/>
</g>
<!-- Node7 -->
<g id="node7" class="node">
<title>Node7</title>
<g id="a_node7"><a xlink:title=" ">
<polygon fill="white" stroke="black" points="127,-271.5 127,-290.5 255,-290.5 255,-271.5 127,-271.5"/>
<text text-anchor="middle" x="191" y="-278.5" font-family="Helvetica,sans-Serif" font-size="10.00">std::basic_ios&lt; Char &gt;</text>
</a>
</g>
</g>
<!-- Node7&#45;&gt;Node6 -->
<g id="edge6" class="edge">
<title>Node7&#45;&gt;Node6</title>
<path fill="none" stroke="midnightblue" d="M191,-261.22C191,-252.36 191,-241.96 191,-233.76"/>
<polygon fill="midnightblue" stroke="midnightblue" points="187.5,-261.33 191,-271.33 194.5,-261.33 187.5,-261.33"/>
</g>
<!-- Node8 -->
<g id="node8" class="node">
<title>Node8</title>
<g id="a_node8"><a xlink:title=" ">
<polygon fill="white" stroke="black" points="151,-328.5 151,-347.5 231,-347.5 231,-328.5 151,-328.5"/>
<text text-anchor="middle" x="191" y="-335.5" font-family="Helvetica,sans-Serif" font-size="10.00">std::ios_base</text>
</a>
</g>
</g>
<!-- Node8&#45;&gt;Node7 -->
<g id="edge7" class="edge">
<title>Node8&#45;&gt;Node7</title>
<path fill="none" stroke="midnightblue" d="M191,-318.12C191,-308.82 191,-298.06 191,-290.71"/>
<polygon fill="midnightblue" stroke="midnightblue" points="187.5,-318.41 191,-328.41 194.5,-318.41 187.5,-318.41"/>
</g>
</g>
</svg>
