<?xml version="1.0" encoding="UTF-8" standalone="no"?>
<!DOCTYPE svg PUBLIC "-//W3C//DTD SVG 1.1//EN"
 "http://www.w3.org/Graphics/SVG/1.1/DTD/svg11.dtd">
<!-- Generated by graphviz version 2.43.0 (0)
 -->
<!-- Title: ccf::JsBundleMetadata Pages: 1 -->
<svg width="235pt" height="251pt"
 viewBox="0.00 0.00 235.00 251.00" xmlns="http://www.w3.org/2000/svg" xmlns:xlink="http://www.w3.org/1999/xlink">
<g id="graph0" class="graph" transform="scale(1 1) rotate(0) translate(4 247)">
<title>ccf::JsBundleMetadata</title>
<polygon fill="white" stroke="transparent" points="-4,4 -4,-247 231,-247 231,4 -4,4"/>
<!-- Node1 -->
<g id="node1" class="node">
<title>Node1</title>
<g id="a_node1"><a xlink:title=" ">
<polygon fill="#bfbfbf" stroke="black" points="39.5,-0.5 39.5,-19.5 164.5,-19.5 164.5,-0.5 39.5,-0.5"/>
<text text-anchor="middle" x="102" y="-7.5" font-family="Helvetica,sans-Serif" font-size="10.00">ccf::JsBundleMetadata</text>
</a>
</g>
</g>
<!-- Node2 -->
<g id="node2" class="node">
<title>Node2</title>
<g id="a_node2"><a xlink:title=" ">
<polygon fill="white" stroke="black" points="41,-67.5 41,-97.5 163,-97.5 163,-67.5 41,-67.5"/>
<text text-anchor="start" x="49" y="-85.5" font-family="Helvetica,sans-Serif" font-size="10.00">std::map&lt; std::string,</text>
<text text-anchor="middle" x="102" y="-74.5" font-family="Helvetica,sans-Serif" font-size="10.00"> JsBundleEndpoint &gt;</text>
</a>
</g>
</g>
<!-- Node2&#45;&gt;Node1 -->
<g id="edge1" class="edge">
<title>Node2&#45;&gt;Node1</title>
<path fill="none" stroke="#9a32cd" stroke-dasharray="5,2" d="M102,-57.09C102,-44.21 102,-29.2 102,-19.89"/>
<polygon fill="#9a32cd" stroke="#9a32cd" points="98.5,-57.23 102,-67.23 105.5,-57.23 98.5,-57.23"/>
<text text-anchor="middle" x="128" y="-41" font-family="Helvetica,sans-Serif" font-size="10.00"> endpoints</text>
</g>
<!-- Node3 -->
<g id="node3" class="node">
<title>Node3</title>
<g id="a_node3"><a xlink:title=" ">
<polygon fill="white" stroke="black" points="19.5,-145.5 19.5,-164.5 84.5,-164.5 84.5,-145.5 19.5,-145.5"/>
<text text-anchor="middle" x="52" y="-152.5" font-family="Helvetica,sans-Serif" font-size="10.00">std::string</text>
</a>
</g>
</g>
<!-- Node3&#45;&gt;Node2 -->
<g id="edge2" class="edge">
<title>Node3&#45;&gt;Node2</title>
<path fill="none" stroke="#9a32cd" stroke-dasharray="5,2" d="M64.03,-137.04C72.59,-124.97 83.96,-108.94 92.02,-97.58"/>
<polygon fill="#9a32cd" stroke="#9a32cd" points="61.06,-135.17 58.13,-145.36 66.77,-139.22 61.06,-135.17"/>
<text text-anchor="middle" x="92" y="-119" font-family="Helvetica,sans-Serif" font-size="10.00"> keys</text>
</g>
<!-- Node4 -->
<g id="node4" class="node">
<title>Node4</title>
<g id="a_node4"><a xlink:title=" ">
<polygon fill="white" stroke="black" points="0,-212.5 0,-242.5 104,-242.5 104,-212.5 0,-212.5"/>
<text text-anchor="start" x="8" y="-230.5" font-family="Helvetica,sans-Serif" font-size="10.00">std::basic_string&lt;</text>
<text text-anchor="middle" x="52" y="-219.5" font-family="Helvetica,sans-Serif" font-size="10.00"> Char &gt;</text>
</a>
</g>
</g>
<!-- Node4&#45;&gt;Node3 -->
<g id="edge3" class="edge">
<title>Node4&#45;&gt;Node3</title>
<path fill="none" stroke="midnightblue" d="M52,-202.09C52,-189.21 52,-174.2 52,-164.89"/>
<polygon fill="midnightblue" stroke="midnightblue" points="48.5,-202.23 52,-212.23 55.5,-202.23 48.5,-202.23"/>
</g>
<!-- Node5 -->
<g id="node5" class="node">
<title>Node5</title>
<g id="a_node5"><a xlink:title=" ">
<polygon fill="white" stroke="black" points="102.5,-145.5 102.5,-164.5 203.5,-164.5 203.5,-145.5 102.5,-145.5"/>
<text text-anchor="middle" x="153" y="-152.5" font-family="Helvetica,sans-Serif" font-size="10.00">std::map&lt; K, T &gt;</text>
</a>
</g>
</g>
<!-- Node5&#45;&gt;Node2 -->
<g id="edge4" class="edge">
<title>Node5&#45;&gt;Node2</title>
<path fill="none" stroke="#9a32cd" stroke-dasharray="5,2" d="M140.73,-137.04C132,-124.97 120.4,-108.94 112.18,-97.58"/>
<polygon fill="#9a32cd" stroke="#9a32cd" points="138.05,-139.3 146.75,-145.36 143.72,-135.2 138.05,-139.3"/>
<text text-anchor="middle" x="157.5" y="-119" font-family="Helvetica,sans-Serif" font-size="10.00"> elements</text>
</g>
<!-- Node6 -->
<g id="node6" class="node">
<title>Node6</title>
<g id="a_node6"><a xlink:title=" ">
<polygon fill="white" stroke="black" points="130.5,-218 130.5,-237 159.5,-237 159.5,-218 130.5,-218"/>
<text text-anchor="middle" x="145" y="-225" font-family="Helvetica,sans-Serif" font-size="10.00">K</text>
</a>
</g>
</g>
<!-- Node6&#45;&gt;Node5 -->
<g id="edge5" class="edge">
<title>Node6&#45;&gt;Node5</title>
<path fill="none" stroke="#9a32cd" stroke-dasharray="5,2" d="M144.49,-207.69C144.52,-200 144.88,-191.04 146,-183 146.85,-176.86 148.6,-170.11 150.14,-164.9"/>
<polygon fill="#9a32cd" stroke="#9a32cd" points="140.99,-207.83 144.61,-217.79 147.99,-207.74 140.99,-207.83"/>
<text text-anchor="middle" x="159" y="-186" font-family="Helvetica,sans-Serif" font-size="10.00"> keys</text>
</g>
<!-- Node7 -->
<g id="node7" class="node">
<title>Node7</title>
<g id="a_node7"><a xlink:title=" ">
<polygon fill="white" stroke="black" points="179.5,-218 179.5,-237 208.5,-237 208.5,-218 179.5,-218"/>
<text text-anchor="middle" x="194" y="-225" font-family="Helvetica,sans-Serif" font-size="10.00">T</text>
</a>
</g>
</g>
<!-- Node7&#45;&gt;Node5 -->
<g id="edge6" class="edge">
<title>Node7&#45;&gt;Node5</title>
<path fill="none" stroke="#9a32cd" stroke-dasharray="5,2" d="M185.78,-208.81C181.86,-200.79 176.96,-191.26 172,-183 168.22,-176.71 163.47,-169.96 159.67,-164.78"/>
<polygon fill="#9a32cd" stroke="#9a32cd" points="182.68,-210.44 190.13,-217.97 189,-207.43 182.68,-210.44"/>
<text text-anchor="middle" x="202.5" y="-186" font-family="Helvetica,sans-Serif" font-size="10.00"> elements</text>
</g>
</g>
</svg>
