<?xml version="1.0" encoding="UTF-8" standalone="no"?>
<!DOCTYPE svg PUBLIC "-//W3C//DTD SVG 1.1//EN"
 "http://www.w3.org/Graphics/SVG/1.1/DTD/svg11.dtd">
<!-- Generated by graphviz version 2.43.0 (0)
 -->
<!-- Title: ccf::ODataErrorResponse Pages: 1 -->
<svg width="145pt" height="241pt"
 viewBox="0.00 0.00 145.00 241.00" xmlns="http://www.w3.org/2000/svg" xmlns:xlink="http://www.w3.org/1999/xlink">
<g id="graph0" class="graph" transform="scale(1 1) rotate(0) translate(4 237)">
<title>ccf::ODataErrorResponse</title>
<polygon fill="white" stroke="transparent" points="-4,4 -4,-237 141,-237 141,4 -4,4"/>
<!-- Node1 -->
<g id="node1" class="node">
<title>Node1</title>
<g id="a_node1"><a xlink:title=" ">
<polygon fill="#bfbfbf" stroke="black" points="0,-0.5 0,-19.5 137,-19.5 137,-0.5 0,-0.5"/>
<text text-anchor="middle" x="68.5" y="-7.5" font-family="Helvetica,sans-Serif" font-size="10.00">ccf::ODataErrorResponse</text>
</a>
</g>
</g>
<!-- Node2 -->
<g id="node2" class="node">
<title>Node2</title>
<g id="a_node2"><a xlink:href="structccf_1_1ODataError.html" target="_top" xlink:title=" ">
<polygon fill="white" stroke="black" points="23.5,-67.5 23.5,-86.5 113.5,-86.5 113.5,-67.5 23.5,-67.5"/>
<text text-anchor="middle" x="68.5" y="-74.5" font-family="Helvetica,sans-Serif" font-size="10.00">ccf::ODataError</text>
</a>
</g>
</g>
<!-- Node2&#45;&gt;Node1 -->
<g id="edge1" class="edge">
<title>Node2&#45;&gt;Node1</title>
<path fill="none" stroke="#9a32cd" stroke-dasharray="5,2" d="M68.5,-57.04C68.5,-44.67 68.5,-29.12 68.5,-19.63"/>
<polygon fill="#9a32cd" stroke="#9a32cd" points="65,-57.23 68.5,-67.23 72,-57.23 65,-57.23"/>
<text text-anchor="middle" x="82" y="-41" font-family="Helvetica,sans-Serif" font-size="10.00"> error</text>
</g>
<!-- Node3 -->
<g id="node3" class="node">
<title>Node3</title>
<g id="a_node3"><a xlink:title=" ">
<polygon fill="white" stroke="black" points="36,-145.5 36,-164.5 101,-164.5 101,-145.5 36,-145.5"/>
<text text-anchor="middle" x="68.5" y="-152.5" font-family="Helvetica,sans-Serif" font-size="10.00">std::string</text>
</a>
</g>
</g>
<!-- Node3&#45;&gt;Node2 -->
<g id="edge2" class="edge">
<title>Node3&#45;&gt;Node2</title>
<path fill="none" stroke="#9a32cd" stroke-dasharray="5,2" d="M68.5,-135.22C68.5,-119.7 68.5,-98.36 68.5,-86.62"/>
<polygon fill="#9a32cd" stroke="#9a32cd" points="65,-135.28 68.5,-145.28 72,-135.28 65,-135.28"/>
<text text-anchor="middle" x="91" y="-119" font-family="Helvetica,sans-Serif" font-size="10.00"> code</text>
<text text-anchor="middle" x="91" y="-108" font-family="Helvetica,sans-Serif" font-size="10.00">message</text>
</g>
<!-- Node4 -->
<g id="node4" class="node">
<title>Node4</title>
<g id="a_node4"><a xlink:title=" ">
<polygon fill="white" stroke="black" points="16.5,-202.5 16.5,-232.5 120.5,-232.5 120.5,-202.5 16.5,-202.5"/>
<text text-anchor="start" x="24.5" y="-220.5" font-family="Helvetica,sans-Serif" font-size="10.00">std::basic_string&lt;</text>
<text text-anchor="middle" x="68.5" y="-209.5" font-family="Helvetica,sans-Serif" font-size="10.00"> Char &gt;</text>
</a>
</g>
</g>
<!-- Node4&#45;&gt;Node3 -->
<g id="edge3" class="edge">
<title>Node4&#45;&gt;Node3</title>
<path fill="none" stroke="midnightblue" d="M68.5,-192.35C68.5,-182.51 68.5,-171.78 68.5,-164.54"/>
<polygon fill="midnightblue" stroke="midnightblue" points="65,-192.47 68.5,-202.47 72,-192.47 65,-192.47"/>
</g>
</g>
</svg>
