<?xml version="1.0" encoding="UTF-8" standalone="no"?>
<!DOCTYPE svg PUBLIC "-//W3C//DTD SVG 1.1//EN"
 "http://www.w3.org/Graphics/SVG/1.1/DTD/svg11.dtd">
<!-- Generated by graphviz version 2.43.0 (0)
 -->
<!-- Title: host::CCHostConfig Pages: 1 -->
<svg width="1932pt" height="724pt"
 viewBox="0.00 0.00 1932.00 724.10" xmlns="http://www.w3.org/2000/svg" xmlns:xlink="http://www.w3.org/1999/xlink">
<g id="graph0" class="graph" transform="scale(1 1) rotate(0) translate(4 720.1)">
<title>host::CCHostConfig</title>
<polygon fill="white" stroke="transparent" points="-4,4 -4,-720.1 1928,-720.1 1928,4 -4,4"/>
<!-- Node1 -->
<g id="node1" class="node">
<title>Node1</title>
<g id="a_node1"><a xlink:title=" ">
<polygon fill="#bfbfbf" stroke="black" points="1814,-280.6 1814,-299.6 1924,-299.6 1924,-280.6 1814,-280.6"/>
<text text-anchor="middle" x="1869" y="-287.6" font-family="Helvetica,sans-Serif" font-size="10.00">host::CCHostConfig</text>
</a>
</g>
</g>
<!-- Node2 -->
<g id="node2" class="node">
<title>Node2</title>
<g id="a_node2"><a xlink:href="structCCFConfig.html" target="_top" xlink:title=" ">
<polygon fill="white" stroke="black" points="1637.5,-539.6 1637.5,-558.6 1704.5,-558.6 1704.5,-539.6 1637.5,-539.6"/>
<text text-anchor="middle" x="1671" y="-546.6" font-family="Helvetica,sans-Serif" font-size="10.00">CCFConfig</text>
</a>
</g>
</g>
<!-- Node2&#45;&gt;Node1 -->
<g id="edge1" class="edge">
<title>Node2&#45;&gt;Node1</title>
<path fill="none" stroke="midnightblue" d="M1687.62,-532.07C1711.9,-505.28 1759.69,-451.27 1796,-402.1 1822.91,-365.65 1850.82,-319.36 1862.42,-299.66"/>
<polygon fill="midnightblue" stroke="midnightblue" points="1685.02,-529.73 1680.88,-539.48 1690.2,-534.44 1685.02,-529.73"/>
</g>
<!-- Node3 -->
<g id="node3" class="node">
<title>Node3</title>
<g id="a_node3"><a xlink:href="structconsensus_1_1Configuration.html" target="_top" xlink:title=" ">
<polygon fill="white" stroke="black" points="1298.5,-620.6 1298.5,-639.6 1437.5,-639.6 1437.5,-620.6 1298.5,-620.6"/>
<text text-anchor="middle" x="1368" y="-627.6" font-family="Helvetica,sans-Serif" font-size="10.00">consensus::Configuration</text>
</a>
</g>
</g>
<!-- Node3&#45;&gt;Node2 -->
<g id="edge2" class="edge">
<title>Node3&#45;&gt;Node2</title>
<path fill="none" stroke="#9a32cd" stroke-dasharray="5,2" d="M1427.03,-617.81C1433.84,-615.82 1440.63,-613.59 1447,-611.1 1455.52,-607.76 1456.37,-604.14 1465,-601.1 1521.57,-581.14 1540.3,-594.51 1598,-578.1 1615.89,-573.01 1635.41,-564.98 1649.61,-558.66"/>
<polygon fill="#9a32cd" stroke="#9a32cd" points="1425.78,-614.52 1417.06,-620.53 1427.63,-621.27 1425.78,-614.52"/>
<text text-anchor="middle" x="1531.5" y="-604.1" font-family="Helvetica,sans-Serif" font-size="10.00"> consensus</text>
</g>
<!-- Node4 -->
<g id="node4" class="node">
<title>Node4</title>
<g id="a_node4"><a xlink:href="structds_1_1TimeString.html" target="_top" xlink:title=" ">
<polygon fill="white" stroke="black" points="1016,-544.6 1016,-563.6 1103,-563.6 1103,-544.6 1016,-544.6"/>
<text text-anchor="middle" x="1059.5" y="-551.6" font-family="Helvetica,sans-Serif" font-size="10.00">ds::TimeString</text>
</a>
</g>
</g>
<!-- Node4&#45;&gt;Node1 -->
<g id="edge24" class="edge">
<title>Node4&#45;&gt;Node1</title>
<path fill="none" stroke="#9a32cd" stroke-dasharray="5,2" d="M1112.91,-557.08C1124.06,-560.02 1134.9,-564.96 1143,-573.1 1168.71,-598.93 1132.54,-630.33 1161,-653.1 1179.85,-668.18 1462.33,-685.75 1598,-646.1 1717.76,-611.1 1738.69,-557.92 1796,-447.1 1824.24,-392.49 1853.42,-324.66 1863.93,-299.81"/>
<polygon fill="#9a32cd" stroke="#9a32cd" points="1113.6,-553.65 1103.09,-554.98 1112.14,-560.49 1113.6,-553.65"/>
<text text-anchor="middle" x="1531.5" y="-691.1" font-family="Helvetica,sans-Serif" font-size="10.00"> client_connection_timeout</text>
<text text-anchor="middle" x="1531.5" y="-680.1" font-family="Helvetica,sans-Serif" font-size="10.00">slow_io_logging_threshold</text>
<text text-anchor="middle" x="1531.5" y="-669.1" font-family="Helvetica,sans-Serif" font-size="10.00">tick_interval</text>
</g>
<!-- Node4&#45;&gt;Node3 -->
<g id="edge3" class="edge">
<title>Node4&#45;&gt;Node3</title>
<path fill="none" stroke="#9a32cd" stroke-dasharray="5,2" d="M1113.16,-560.78C1123.55,-563.57 1134.01,-567.51 1143,-573.1 1153.73,-579.76 1150.08,-588.75 1161,-595.1 1202.55,-619.26 1256.28,-627.78 1298.44,-630.39"/>
<polygon fill="#9a32cd" stroke="#9a32cd" points="1113.81,-557.34 1103.27,-558.45 1112.2,-564.15 1113.81,-557.34"/>
<text text-anchor="middle" x="1216" y="-641.1" font-family="Helvetica,sans-Serif" font-size="10.00"> election_timeout</text>
<text text-anchor="middle" x="1216" y="-630.1" font-family="Helvetica,sans-Serif" font-size="10.00">message_timeout</text>
</g>
<!-- Node14 -->
<g id="node14" class="node">
<title>Node14</title>
<g id="a_node14"><a xlink:href="structCCFConfig_1_1LedgerSignatures.html" target="_top" xlink:title=" ">
<polygon fill="white" stroke="black" points="1289,-582.6 1289,-601.6 1447,-601.6 1447,-582.6 1289,-582.6"/>
<text text-anchor="middle" x="1368" y="-589.6" font-family="Helvetica,sans-Serif" font-size="10.00">CCFConfig::LedgerSignatures</text>
</a>
</g>
</g>
<!-- Node4&#45;&gt;Node14 -->
<g id="edge19" class="edge">
<title>Node4&#45;&gt;Node14</title>
<path fill="none" stroke="#9a32cd" stroke-dasharray="5,2" d="M1112.94,-561.63C1128.41,-563.79 1145.38,-566.1 1161,-568.1 1203.14,-573.49 1250.2,-579.01 1288.69,-583.39"/>
<polygon fill="#9a32cd" stroke="#9a32cd" points="1113.41,-558.16 1103.02,-560.23 1112.43,-565.09 1113.41,-558.16"/>
<text text-anchor="middle" x="1216" y="-583.1" font-family="Helvetica,sans-Serif" font-size="10.00"> delay</text>
</g>
<!-- Node15 -->
<g id="node15" class="node">
<title>Node15</title>
<g id="a_node15"><a xlink:href="structCCFConfig_1_1JWT.html" target="_top" xlink:title=" ">
<polygon fill="white" stroke="black" points="1322,-544.6 1322,-563.6 1414,-563.6 1414,-544.6 1322,-544.6"/>
<text text-anchor="middle" x="1368" y="-551.6" font-family="Helvetica,sans-Serif" font-size="10.00">CCFConfig::JWT</text>
</a>
</g>
</g>
<!-- Node4&#45;&gt;Node15 -->
<g id="edge21" class="edge">
<title>Node4&#45;&gt;Node15</title>
<path fill="none" stroke="#9a32cd" stroke-dasharray="5,2" d="M1113.31,-554.1C1172.12,-554.1 1266.2,-554.1 1321.75,-554.1"/>
<polygon fill="#9a32cd" stroke="#9a32cd" points="1113.12,-550.6 1103.12,-554.1 1113.12,-557.6 1113.12,-550.6"/>
<text text-anchor="middle" x="1216" y="-557.1" font-family="Helvetica,sans-Serif" font-size="10.00"> key_refresh_interval</text>
</g>
<!-- Node28 -->
<g id="node28" class="node">
<title>Node28</title>
<g id="a_node28"><a xlink:href="structhost_1_1CCHostConfig_1_1Command_1_1Join.html" target="_top" xlink:title=" ">
<polygon fill="white" stroke="black" points="1313,-495.1 1313,-525.1 1423,-525.1 1423,-495.1 1313,-495.1"/>
<text text-anchor="start" x="1321" y="-513.1" font-family="Helvetica,sans-Serif" font-size="10.00">host::CCHostConfig</text>
<text text-anchor="middle" x="1368" y="-502.1" font-family="Helvetica,sans-Serif" font-size="10.00">::Command::Join</text>
</a>
</g>
</g>
<!-- Node4&#45;&gt;Node28 -->
<g id="edge46" class="edge">
<title>Node4&#45;&gt;Node28</title>
<path fill="none" stroke="#9a32cd" stroke-dasharray="5,2" d="M1112.95,-546.18C1128.42,-543.87 1145.39,-541.36 1161,-539.1 1212.47,-531.63 1271.22,-523.39 1312.77,-517.61"/>
<polygon fill="#9a32cd" stroke="#9a32cd" points="1112.4,-542.73 1103.03,-547.67 1113.44,-549.65 1112.4,-542.73"/>
<text text-anchor="middle" x="1216" y="-542.1" font-family="Helvetica,sans-Serif" font-size="10.00"> retry_timeout</text>
</g>
<!-- Node5 -->
<g id="node5" class="node">
<title>Node5</title>
<g id="a_node5"><a xlink:href="structds_1_1UnitString.html" target="_top" xlink:title=" ">
<polygon fill="white" stroke="black" points="712.5,-431.6 712.5,-450.6 795.5,-450.6 795.5,-431.6 712.5,-431.6"/>
<text text-anchor="middle" x="754" y="-438.6" font-family="Helvetica,sans-Serif" font-size="10.00">ds::UnitString</text>
</a>
</g>
</g>
<!-- Node5&#45;&gt;Node4 -->
<g id="edge4" class="edge">
<title>Node5&#45;&gt;Node4</title>
<path fill="none" stroke="midnightblue" d="M790.3,-454.24C852.05,-477.23 978.26,-524.22 1032.63,-544.47"/>
<polygon fill="midnightblue" stroke="midnightblue" points="791.21,-450.84 780.61,-450.63 788.76,-457.4 791.21,-450.84"/>
</g>
<!-- Node19 -->
<g id="node19" class="node">
<title>Node19</title>
<g id="a_node19"><a xlink:href="structds_1_1SizeString.html" target="_top" xlink:title=" ">
<polygon fill="white" stroke="black" points="1018,-409.6 1018,-428.6 1101,-428.6 1101,-409.6 1018,-409.6"/>
<text text-anchor="middle" x="1059.5" y="-416.6" font-family="Helvetica,sans-Serif" font-size="10.00">ds::SizeString</text>
</a>
</g>
</g>
<!-- Node5&#45;&gt;Node19 -->
<g id="edge31" class="edge">
<title>Node5&#45;&gt;Node19</title>
<path fill="none" stroke="midnightblue" d="M805.79,-437.08C818.59,-436.09 832.3,-435.04 845,-434.1 905.22,-429.64 975.01,-424.8 1017.96,-421.85"/>
<polygon fill="midnightblue" stroke="midnightblue" points="805.46,-433.59 795.77,-437.86 806.01,-440.57 805.46,-433.59"/>
</g>
<!-- Node6 -->
<g id="node6" class="node">
<title>Node6</title>
<g id="a_node6"><a xlink:title=" ">
<polygon fill="white" stroke="black" points="141,-319.6 141,-338.6 206,-338.6 206,-319.6 141,-319.6"/>
<text text-anchor="middle" x="173.5" y="-326.6" font-family="Helvetica,sans-Serif" font-size="10.00">std::string</text>
</a>
</g>
</g>
<!-- Node6&#45;&gt;Node5 -->
<g id="edge5" class="edge">
<title>Node6&#45;&gt;Node5</title>
<path fill="none" stroke="#9a32cd" stroke-dasharray="5,2" d="M184.05,-347.73C192.51,-362.25 206.28,-381.65 224,-392.1 306.44,-440.68 602.78,-442.7 712.11,-441.72"/>
<polygon fill="#9a32cd" stroke="#9a32cd" points="186.93,-345.71 179.05,-338.62 180.79,-349.07 186.93,-345.71"/>
<text text-anchor="middle" x="458.5" y="-441.1" font-family="Helvetica,sans-Serif" font-size="10.00"> str</text>
</g>
<!-- Node10 -->
<g id="node10" class="node">
<title>Node10</title>
<g id="a_node10"><a xlink:href="structccf_1_1NodeInfoNetwork__v2_1_1NetInterface.html" target="_top" xlink:title=" ">
<polygon fill="white" stroke="black" points="397.5,-517.1 397.5,-547.1 519.5,-547.1 519.5,-517.1 397.5,-517.1"/>
<text text-anchor="start" x="405.5" y="-535.1" font-family="Helvetica,sans-Serif" font-size="10.00">ccf::NodeInfoNetwork</text>
<text text-anchor="middle" x="458.5" y="-524.1" font-family="Helvetica,sans-Serif" font-size="10.00">_v2::NetInterface</text>
</a>
</g>
</g>
<!-- Node6&#45;&gt;Node10 -->
<g id="edge10" class="edge">
<title>Node6&#45;&gt;Node10</title>
<path fill="none" stroke="#9a32cd" stroke-dasharray="5,2" d="M174.16,-349.11C174.74,-384.21 181.39,-456.7 224,-494.1 271.23,-535.55 345.41,-541.02 397.46,-538.72"/>
<polygon fill="#9a32cd" stroke="#9a32cd" points="177.66,-348.74 174.15,-338.74 170.66,-348.74 177.66,-348.74"/>
<text text-anchor="middle" x="298.5" y="-553.1" font-family="Helvetica,sans-Serif" font-size="10.00"> bind_address</text>
<text text-anchor="middle" x="298.5" y="-542.1" font-family="Helvetica,sans-Serif" font-size="10.00">published_address</text>
</g>
<!-- Node11 -->
<g id="node11" class="node">
<title>Node11</title>
<g id="a_node11"><a xlink:title=" ">
<polygon fill="white" stroke="black" points="681,-576.1 681,-606.1 827,-606.1 827,-576.1 681,-576.1"/>
<text text-anchor="start" x="689" y="-594.1" font-family="Helvetica,sans-Serif" font-size="10.00">std::map&lt; RpcInterfaceID,</text>
<text text-anchor="middle" x="754" y="-583.1" font-family="Helvetica,sans-Serif" font-size="10.00"> NetInterface &gt;</text>
</a>
</g>
</g>
<!-- Node6&#45;&gt;Node11 -->
<g id="edge12" class="edge">
<title>Node6&#45;&gt;Node11</title>
<path fill="none" stroke="#9a32cd" stroke-dasharray="5,2" d="M175.63,-348.74C179.04,-400.22 191.07,-536.99 224,-565.1 362.13,-683 601.98,-634.46 704.39,-606.11"/>
<polygon fill="#9a32cd" stroke="#9a32cd" points="179.12,-348.37 175,-338.61 172.13,-348.81 179.12,-348.37"/>
<text text-anchor="middle" x="458.5" y="-643.1" font-family="Helvetica,sans-Serif" font-size="10.00"> keys</text>
</g>
<!-- Node12 -->
<g id="node12" class="node">
<title>Node12</title>
<g id="a_node12"><a xlink:href="structCCFConfig_1_1NodeCertificateInfo.html" target="_top" xlink:title=" ">
<polygon fill="white" stroke="black" points="976,-457.6 976,-476.6 1143,-476.6 1143,-457.6 976,-457.6"/>
<text text-anchor="middle" x="1059.5" y="-464.6" font-family="Helvetica,sans-Serif" font-size="10.00">CCFConfig::NodeCertificateInfo</text>
</a>
</g>
</g>
<!-- Node6&#45;&gt;Node12 -->
<g id="edge15" class="edge">
<title>Node6&#45;&gt;Node12</title>
<path fill="none" stroke="#9a32cd" stroke-dasharray="5,2" d="M179.2,-348.42C185.55,-370.17 199.05,-404.83 224,-423.1 284.85,-467.64 315.97,-445.5 391,-453.1 600.74,-474.34 849.37,-472.46 975.77,-469.6"/>
<polygon fill="#9a32cd" stroke="#9a32cd" points="182.55,-347.4 176.58,-338.65 175.79,-349.21 182.55,-347.4"/>
<text text-anchor="middle" x="603.5" y="-472.1" font-family="Helvetica,sans-Serif" font-size="10.00"> subject_name</text>
</g>
<!-- Node13 -->
<g id="node13" class="node">
<title>Node13</title>
<g id="a_node13"><a xlink:title=" ">
<polygon fill="white" stroke="black" points="684,-381.6 684,-400.6 824,-400.6 824,-381.6 684,-381.6"/>
<text text-anchor="middle" x="754" y="-388.6" font-family="Helvetica,sans-Serif" font-size="10.00">std::vector&lt; std::string &gt;</text>
</a>
</g>
</g>
<!-- Node6&#45;&gt;Node13 -->
<g id="edge17" class="edge">
<title>Node6&#45;&gt;Node13</title>
<path fill="none" stroke="#9a32cd" stroke-dasharray="5,2" d="M193.33,-345.12C202.08,-351.61 212.98,-358.43 224,-362.1 381.74,-414.61 580.45,-407.43 683.64,-398.66"/>
<polygon fill="#9a32cd" stroke="#9a32cd" points="195.4,-342.29 185.37,-338.87 191.07,-347.8 195.4,-342.29"/>
<text text-anchor="middle" x="458.5" y="-407.1" font-family="Helvetica,sans-Serif" font-size="10.00"> elements</text>
</g>
<!-- Node16 -->
<g id="node16" class="node">
<title>Node16</title>
<g id="a_node16"><a xlink:href="structhost_1_1CCHostConfig_1_1Enclave.html" target="_top" xlink:title=" ">
<polygon fill="white" stroke="black" points="548.5,-284.1 548.5,-314.1 658.5,-314.1 658.5,-284.1 548.5,-284.1"/>
<text text-anchor="start" x="556.5" y="-302.1" font-family="Helvetica,sans-Serif" font-size="10.00">host::CCHostConfig</text>
<text text-anchor="middle" x="603.5" y="-291.1" font-family="Helvetica,sans-Serif" font-size="10.00">::Enclave</text>
</a>
</g>
</g>
<!-- Node6&#45;&gt;Node16 -->
<g id="edge23" class="edge">
<title>Node6&#45;&gt;Node16</title>
<path fill="none" stroke="#9a32cd" stroke-dasharray="5,2" d="M216.26,-323.86C218.88,-323.59 221.47,-323.33 224,-323.1 339.23,-312.47 474.64,-305.12 548.21,-301.56"/>
<polygon fill="#9a32cd" stroke="#9a32cd" points="215.71,-320.4 206.16,-324.99 216.48,-327.36 215.71,-320.4"/>
<text text-anchor="middle" x="298.5" y="-326.1" font-family="Helvetica,sans-Serif" font-size="10.00"> file</text>
</g>
<!-- Node17 -->
<g id="node17" class="node">
<title>Node17</title>
<g id="a_node17"><a xlink:href="structhost_1_1CCHostConfig_1_1OutputFiles.html" target="_top" xlink:title=" ">
<polygon fill="white" stroke="black" points="846.5,-224.1 846.5,-254.1 956.5,-254.1 956.5,-224.1 846.5,-224.1"/>
<text text-anchor="start" x="854.5" y="-242.1" font-family="Helvetica,sans-Serif" font-size="10.00">host::CCHostConfig</text>
<text text-anchor="middle" x="901.5" y="-231.1" font-family="Helvetica,sans-Serif" font-size="10.00">::OutputFiles</text>
</a>
</g>
</g>
<!-- Node6&#45;&gt;Node17 -->
<g id="edge26" class="edge">
<title>Node6&#45;&gt;Node17</title>
<path fill="none" stroke="#9a32cd" stroke-dasharray="5,2" d="M200.79,-314.8C240.57,-294.09 319.04,-256.7 391,-243.1 554.4,-212.19 752.59,-224.52 846.34,-233.25"/>
<polygon fill="#9a32cd" stroke="#9a32cd" points="198.98,-311.8 191.77,-319.57 202.25,-317.99 198.98,-311.8"/>
<text text-anchor="middle" x="458.5" y="-290.1" font-family="Helvetica,sans-Serif" font-size="10.00"> node_certificate_file</text>
<text text-anchor="start" x="402.5" y="-279.1" font-family="Helvetica,sans-Serif" font-size="10.00">node_to_node_address</text>
<text text-anchor="middle" x="458.5" y="-268.1" font-family="Helvetica,sans-Serif" font-size="10.00">_file</text>
<text text-anchor="middle" x="458.5" y="-257.1" font-family="Helvetica,sans-Serif" font-size="10.00">pid_file</text>
<text text-anchor="middle" x="458.5" y="-246.1" font-family="Helvetica,sans-Serif" font-size="10.00">rpc_addresses_file</text>
</g>
<!-- Node18 -->
<g id="node18" class="node">
<title>Node18</title>
<g id="a_node18"><a xlink:href="structhost_1_1CCHostConfig_1_1Ledger.html" target="_top" xlink:title=" ">
<polygon fill="white" stroke="black" points="1313,-329.1 1313,-359.1 1423,-359.1 1423,-329.1 1313,-329.1"/>
<text text-anchor="start" x="1321" y="-347.1" font-family="Helvetica,sans-Serif" font-size="10.00">host::CCHostConfig</text>
<text text-anchor="middle" x="1368" y="-336.1" font-family="Helvetica,sans-Serif" font-size="10.00">::Ledger</text>
</a>
</g>
</g>
<!-- Node6&#45;&gt;Node18 -->
<g id="edge28" class="edge">
<title>Node6&#45;&gt;Node18</title>
<path fill="none" stroke="#9a32cd" stroke-dasharray="5,2" d="M216.25,-333.59C218.87,-333.79 221.47,-333.96 224,-334.1 439.86,-345.92 1116.2,-344.86 1312.86,-344.28"/>
<polygon fill="#9a32cd" stroke="#9a32cd" points="216.41,-330.09 206.15,-332.73 215.82,-337.07 216.41,-330.09"/>
<text text-anchor="middle" x="754" y="-346.1" font-family="Helvetica,sans-Serif" font-size="10.00"> directory</text>
</g>
<!-- Node20 -->
<g id="node20" class="node">
<title>Node20</title>
<g id="a_node20"><a xlink:href="structhost_1_1CCHostConfig_1_1Snapshots.html" target="_top" xlink:title=" ">
<polygon fill="white" stroke="black" points="1161,-158.1 1161,-188.1 1271,-188.1 1271,-158.1 1161,-158.1"/>
<text text-anchor="start" x="1169" y="-176.1" font-family="Helvetica,sans-Serif" font-size="10.00">host::CCHostConfig</text>
<text text-anchor="middle" x="1216" y="-165.1" font-family="Helvetica,sans-Serif" font-size="10.00">::Snapshots</text>
</a>
</g>
</g>
<!-- Node6&#45;&gt;Node20 -->
<g id="edge33" class="edge">
<title>Node6&#45;&gt;Node20</title>
<path fill="none" stroke="#9a32cd" stroke-dasharray="5,2" d="M180.02,-309.67C186.84,-289.48 200.53,-258.7 224,-243.1 286.29,-201.68 316.63,-230.17 391,-222.1 680.22,-190.69 1028.88,-178.28 1160.86,-174.49"/>
<polygon fill="#9a32cd" stroke="#9a32cd" points="176.63,-308.79 176.99,-319.38 183.31,-310.88 176.63,-308.79"/>
<text text-anchor="middle" x="603.5" y="-210.1" font-family="Helvetica,sans-Serif" font-size="10.00"> directory</text>
</g>
<!-- Node23 -->
<g id="node23" class="node">
<title>Node23</title>
<g id="a_node23"><a xlink:href="structhost_1_1CCHostConfig_1_1Command.html" target="_top" xlink:title=" ">
<polygon fill="white" stroke="black" points="1616,-105.1 1616,-135.1 1726,-135.1 1726,-105.1 1616,-105.1"/>
<text text-anchor="start" x="1624" y="-123.1" font-family="Helvetica,sans-Serif" font-size="10.00">host::CCHostConfig</text>
<text text-anchor="middle" x="1671" y="-112.1" font-family="Helvetica,sans-Serif" font-size="10.00">::Command</text>
</a>
</g>
</g>
<!-- Node6&#45;&gt;Node23 -->
<g id="edge38" class="edge">
<title>Node6&#45;&gt;Node23</title>
<path fill="none" stroke="#9a32cd" stroke-dasharray="5,2" d="M175.05,-309.22C177.1,-250.9 186.23,-81.98 224,-45.1 299.08,28.22 352.56,-10.1 457.5,-10.1 457.5,-10.1 457.5,-10.1 1369,-10.1 1473.37,-10.1 1504.05,-16.63 1598,-62.1 1620.25,-72.86 1641.79,-91.67 1655.41,-104.94"/>
<polygon fill="#9a32cd" stroke="#9a32cd" points="171.55,-309.24 174.73,-319.34 178.55,-309.46 171.55,-309.24"/>
<text text-anchor="middle" x="901.5" y="-13.1" font-family="Helvetica,sans-Serif" font-size="10.00"> service_certificate_file</text>
</g>
<!-- Node26 -->
<g id="node26" class="node">
<title>Node26</title>
<g id="a_node26"><a xlink:href="structhost_1_1ParsedMemberInfo.html" target="_top" xlink:title=" ">
<polygon fill="white" stroke="black" points="391,-130.6 391,-149.6 526,-149.6 526,-130.6 391,-130.6"/>
<text text-anchor="middle" x="458.5" y="-137.6" font-family="Helvetica,sans-Serif" font-size="10.00">host::ParsedMemberInfo</text>
</a>
</g>
</g>
<!-- Node6&#45;&gt;Node26 -->
<g id="edge42" class="edge">
<title>Node6&#45;&gt;Node26</title>
<path fill="none" stroke="#9a32cd" stroke-dasharray="5,2" d="M177.28,-309.39C183.52,-268.27 199.97,-175.54 224,-156.1 279.44,-111.24 368.6,-120.37 419.2,-130.54"/>
<polygon fill="#9a32cd" stroke="#9a32cd" points="173.82,-308.9 175.83,-319.3 180.74,-309.91 173.82,-308.9"/>
<text text-anchor="middle" x="298.5" y="-159.1" font-family="Helvetica,sans-Serif" font-size="10.00"> certificate_file</text>
</g>
<!-- Node29 -->
<g id="node29" class="node">
<title>Node29</title>
<g id="a_node29"><a xlink:href="structhost_1_1CCHostConfig_1_1Command_1_1Recover.html" target="_top" xlink:title=" ">
<polygon fill="white" stroke="black" points="544,-53.1 544,-83.1 663,-83.1 663,-53.1 544,-53.1"/>
<text text-anchor="start" x="552" y="-71.1" font-family="Helvetica,sans-Serif" font-size="10.00">host::CCHostConfig</text>
<text text-anchor="middle" x="603.5" y="-60.1" font-family="Helvetica,sans-Serif" font-size="10.00">::Command::Recover</text>
</a>
</g>
</g>
<!-- Node6&#45;&gt;Node29 -->
<g id="edge48" class="edge">
<title>Node6&#45;&gt;Node29</title>
<path fill="none" stroke="#9a32cd" stroke-dasharray="5,2" d="M176.05,-309.18C180.32,-260 193.97,-134.86 224,-108.1 312.18,-29.52 461.75,-41.17 543.99,-55.36"/>
<polygon fill="#9a32cd" stroke="#9a32cd" points="172.54,-309.2 175.2,-319.45 179.52,-309.78 172.54,-309.2"/>
<text text-anchor="middle" x="298.5" y="-111.1" font-family="Helvetica,sans-Serif" font-size="10.00"> previous_service_identity_file</text>
</g>
<!-- Node7 -->
<g id="node7" class="node">
<title>Node7</title>
<g id="a_node7"><a xlink:title=" ">
<polygon fill="white" stroke="black" points="0,-314.1 0,-344.1 104,-344.1 104,-314.1 0,-314.1"/>
<text text-anchor="start" x="8" y="-332.1" font-family="Helvetica,sans-Serif" font-size="10.00">std::basic_string&lt;</text>
<text text-anchor="middle" x="52" y="-321.1" font-family="Helvetica,sans-Serif" font-size="10.00"> Char &gt;</text>
</a>
</g>
</g>
<!-- Node7&#45;&gt;Node6 -->
<g id="edge6" class="edge">
<title>Node7&#45;&gt;Node6</title>
<path fill="none" stroke="midnightblue" d="M114.1,-329.1C123.41,-329.1 132.68,-329.1 141,-329.1"/>
<polygon fill="midnightblue" stroke="midnightblue" points="114.03,-325.6 104.03,-329.1 114.03,-332.6 114.03,-325.6"/>
</g>
<!-- Node8 -->
<g id="node8" class="node">
<title>Node8</title>
<g id="a_node8"><a xlink:href="structccf_1_1NodeInfoNetwork.html" target="_top" xlink:title=" ">
<polygon fill="white" stroke="black" points="1307,-696.6 1307,-715.6 1429,-715.6 1429,-696.6 1307,-696.6"/>
<text text-anchor="middle" x="1368" y="-703.6" font-family="Helvetica,sans-Serif" font-size="10.00">ccf::NodeInfoNetwork</text>
</a>
</g>
</g>
<!-- Node8&#45;&gt;Node2 -->
<g id="edge7" class="edge">
<title>Node8&#45;&gt;Node2</title>
<path fill="none" stroke="#9a32cd" stroke-dasharray="5,2" d="M1390.84,-690.41C1406.55,-679.05 1428.19,-663.28 1447,-649.1 1455.09,-642.99 1455.73,-639.19 1465,-635.1 1519.87,-610.85 1543.85,-637.92 1598,-612.1 1624.99,-599.23 1649.62,-573.31 1661.87,-559.05"/>
<polygon fill="#9a32cd" stroke="#9a32cd" points="1388.4,-687.85 1382.34,-696.53 1392.5,-693.52 1388.4,-687.85"/>
<text text-anchor="middle" x="1531.5" y="-638.1" font-family="Helvetica,sans-Serif" font-size="10.00"> network</text>
</g>
<!-- Node9 -->
<g id="node9" class="node">
<title>Node9</title>
<g id="a_node9"><a xlink:href="structccf_1_1NodeInfoNetwork__v2.html" target="_top" xlink:title=" ">
<polygon fill="white" stroke="black" points="990,-582.6 990,-601.6 1129,-601.6 1129,-582.6 990,-582.6"/>
<text text-anchor="middle" x="1059.5" y="-589.6" font-family="Helvetica,sans-Serif" font-size="10.00">ccf::NodeInfoNetwork_v2</text>
</a>
</g>
</g>
<!-- Node9&#45;&gt;Node8 -->
<g id="edge8" class="edge">
<title>Node9&#45;&gt;Node8</title>
<path fill="none" stroke="midnightblue" d="M1074.18,-609.69C1091.76,-630.86 1124.4,-665.61 1161,-682.1 1206.96,-702.8 1264.26,-708.03 1306.75,-708.53"/>
<polygon fill="midnightblue" stroke="midnightblue" points="1076.81,-607.38 1067.81,-601.8 1071.37,-611.77 1076.81,-607.38"/>
</g>
<!-- Node10&#45;&gt;Node9 -->
<g id="edge9" class="edge">
<title>Node10&#45;&gt;Node9</title>
<path fill="none" stroke="#9a32cd" stroke-dasharray="5,2" d="M529.94,-534.83C604.04,-538.14 723.96,-544.74 827,-556.1 888.65,-562.89 959,-574.36 1005.81,-582.53"/>
<polygon fill="#9a32cd" stroke="#9a32cd" points="529.94,-531.33 519.8,-534.39 529.64,-538.32 529.94,-531.33"/>
<text text-anchor="middle" x="754" y="-559.1" font-family="Helvetica,sans-Serif" font-size="10.00"> node_to_node_interface</text>
</g>
<!-- Node10&#45;&gt;Node11 -->
<g id="edge13" class="edge">
<title>Node10&#45;&gt;Node11</title>
<path fill="none" stroke="#9a32cd" stroke-dasharray="5,2" d="M529.95,-542C569.29,-547.99 619.09,-556.36 663,-566.1 675.82,-568.94 689.54,-572.49 702.31,-576.01"/>
<polygon fill="#9a32cd" stroke="#9a32cd" points="530.34,-538.52 519.93,-540.49 529.29,-545.44 530.34,-538.52"/>
<text text-anchor="middle" x="603.5" y="-569.1" font-family="Helvetica,sans-Serif" font-size="10.00"> elements</text>
</g>
<!-- Node11&#45;&gt;Node9 -->
<g id="edge11" class="edge">
<title>Node11&#45;&gt;Node9</title>
<path fill="none" stroke="#9a32cd" stroke-dasharray="5,2" d="M837.32,-591.37C885.12,-591.53 944.62,-591.72 989.87,-591.87"/>
<polygon fill="#9a32cd" stroke="#9a32cd" points="837.32,-587.87 827.31,-591.33 837.3,-594.87 837.32,-587.87"/>
<text text-anchor="middle" x="901.5" y="-594.1" font-family="Helvetica,sans-Serif" font-size="10.00"> rpc_interfaces</text>
</g>
<!-- Node12&#45;&gt;Node2 -->
<g id="edge14" class="edge">
<title>Node12&#45;&gt;Node2</title>
<path fill="none" stroke="#9a32cd" stroke-dasharray="5,2" d="M1153.71,-461.44C1232.45,-458.47 1347.88,-458.36 1447,-475.1 1523.62,-488.03 1609.69,-522.69 1648.72,-539.58"/>
<polygon fill="#9a32cd" stroke="#9a32cd" points="1153.19,-457.96 1143.34,-461.86 1153.47,-464.96 1153.19,-457.96"/>
<text text-anchor="middle" x="1368" y="-478.1" font-family="Helvetica,sans-Serif" font-size="10.00"> node_certificate</text>
</g>
<!-- Node13&#45;&gt;Node12 -->
<g id="edge16" class="edge">
<title>Node13&#45;&gt;Node12</title>
<path fill="none" stroke="#9a32cd" stroke-dasharray="5,2" d="M803.14,-403.15C863.34,-418.23 965.16,-443.72 1020.29,-457.53"/>
<polygon fill="#9a32cd" stroke="#9a32cd" points="803.68,-399.68 793.13,-400.64 801.98,-406.47 803.68,-399.68"/>
<text text-anchor="middle" x="901.5" y="-443.1" font-family="Helvetica,sans-Serif" font-size="10.00"> subject_alt_names</text>
</g>
<!-- Node13&#45;&gt;Node18 -->
<g id="edge29" class="edge">
<title>Node13&#45;&gt;Node18</title>
<path fill="none" stroke="#9a32cd" stroke-dasharray="5,2" d="M834.01,-385.03C960.35,-375.33 1204.62,-356.57 1312.97,-348.25"/>
<polygon fill="#9a32cd" stroke="#9a32cd" points="833.72,-381.54 824.01,-385.8 834.25,-388.52 833.72,-381.54"/>
<text text-anchor="middle" x="1059.5" y="-376.1" font-family="Helvetica,sans-Serif" font-size="10.00"> read_only_directories</text>
</g>
<!-- Node24 -->
<g id="node24" class="node">
<title>Node24</title>
<g id="a_node24"><a xlink:href="structhost_1_1CCHostConfig_1_1Command_1_1Start.html" target="_top" xlink:title=" ">
<polygon fill="white" stroke="black" points="1004.5,-113.1 1004.5,-143.1 1114.5,-143.1 1114.5,-113.1 1004.5,-113.1"/>
<text text-anchor="start" x="1012.5" y="-131.1" font-family="Helvetica,sans-Serif" font-size="10.00">host::CCHostConfig</text>
<text text-anchor="middle" x="1059.5" y="-120.1" font-family="Helvetica,sans-Serif" font-size="10.00">::Command::Start</text>
</a>
</g>
</g>
<!-- Node13&#45;&gt;Node24 -->
<g id="edge43" class="edge">
<title>Node13&#45;&gt;Node24</title>
<path fill="none" stroke="#9a32cd" stroke-dasharray="5,2" d="M795.61,-377.94C806.15,-373.83 817.27,-368.83 827,-363.1 835.97,-357.81 836.82,-354.54 845,-348.1 894.17,-309.38 913.81,-308.41 958,-264.1 996.97,-225.01 1032.9,-169.99 1049.24,-143.51"/>
<polygon fill="#9a32cd" stroke="#9a32cd" points="794.29,-374.7 786.14,-381.48 796.74,-381.26 794.29,-374.7"/>
<text text-anchor="middle" x="901.5" y="-351.1" font-family="Helvetica,sans-Serif" font-size="10.00"> constitution_files</text>
</g>
<!-- Node14&#45;&gt;Node2 -->
<g id="edge18" class="edge">
<title>Node14&#45;&gt;Node2</title>
<path fill="none" stroke="#9a32cd" stroke-dasharray="5,2" d="M1420.68,-580.15C1429.49,-577.93 1438.53,-575.53 1447,-573.1 1455.1,-570.76 1456.74,-568.81 1465,-567.1 1524.99,-554.64 1596.61,-550.8 1637.35,-549.61"/>
<polygon fill="#9a32cd" stroke="#9a32cd" points="1419.73,-576.78 1410.86,-582.57 1421.41,-583.57 1419.73,-576.78"/>
<text text-anchor="middle" x="1531.5" y="-570.1" font-family="Helvetica,sans-Serif" font-size="10.00"> ledger_signatures</text>
</g>
<!-- Node15&#45;&gt;Node2 -->
<g id="edge20" class="edge">
<title>Node15&#45;&gt;Node2</title>
<path fill="none" stroke="#9a32cd" stroke-dasharray="5,2" d="M1413.96,-542.17C1429.95,-538.48 1448.16,-534.92 1465,-533.1 1523.77,-526.74 1539.24,-526.65 1598,-533.1 1610.98,-534.52 1625.05,-537.35 1637.28,-540.24"/>
<polygon fill="#9a32cd" stroke="#9a32cd" points="1412.73,-538.86 1403.81,-544.59 1414.35,-545.67 1412.73,-538.86"/>
<text text-anchor="middle" x="1531.5" y="-536.1" font-family="Helvetica,sans-Serif" font-size="10.00"> jwt</text>
</g>
<!-- Node16&#45;&gt;Node1 -->
<g id="edge22" class="edge">
<title>Node16&#45;&gt;Node1</title>
<path fill="none" stroke="#9a32cd" stroke-dasharray="5,2" d="M668.9,-298.64C889.17,-297.07 1610.13,-291.93 1813.91,-290.48"/>
<polygon fill="#9a32cd" stroke="#9a32cd" points="668.77,-295.14 658.79,-298.71 668.82,-302.14 668.77,-295.14"/>
<text text-anchor="middle" x="1216" y="-297.1" font-family="Helvetica,sans-Serif" font-size="10.00"> enclave</text>
</g>
<!-- Node17&#45;&gt;Node1 -->
<g id="edge25" class="edge">
<title>Node17&#45;&gt;Node1</title>
<path fill="none" stroke="#9a32cd" stroke-dasharray="5,2" d="M966.82,-238.45C1114.09,-237.68 1486.93,-239.86 1796,-276.1 1805.36,-277.19 1815.32,-278.83 1824.76,-280.59"/>
<polygon fill="#9a32cd" stroke="#9a32cd" points="966.59,-234.95 956.61,-238.51 966.63,-241.95 966.59,-234.95"/>
<text text-anchor="middle" x="1368" y="-251.1" font-family="Helvetica,sans-Serif" font-size="10.00"> output_files</text>
</g>
<!-- Node18&#45;&gt;Node1 -->
<g id="edge27" class="edge">
<title>Node18&#45;&gt;Node1</title>
<path fill="none" stroke="#9a32cd" stroke-dasharray="5,2" d="M1433.25,-340.06C1517.01,-334.35 1667.95,-322.5 1796,-304.1 1804.57,-302.86 1813.67,-301.3 1822.41,-299.67"/>
<polygon fill="#9a32cd" stroke="#9a32cd" points="1432.87,-336.58 1423.13,-340.74 1433.34,-343.56 1432.87,-336.58"/>
<text text-anchor="middle" x="1671" y="-327.1" font-family="Helvetica,sans-Serif" font-size="10.00"> ledger</text>
</g>
<!-- Node19&#45;&gt;Node18 -->
<g id="edge30" class="edge">
<title>Node19&#45;&gt;Node18</title>
<path fill="none" stroke="#9a32cd" stroke-dasharray="5,2" d="M1096.19,-406.26C1115.26,-399.68 1139.23,-391.87 1161,-386.1 1175.55,-382.24 1256.92,-365.91 1312.93,-354.78"/>
<polygon fill="#9a32cd" stroke="#9a32cd" points="1094.99,-402.97 1086.7,-409.57 1097.29,-409.58 1094.99,-402.97"/>
<text text-anchor="middle" x="1216" y="-389.1" font-family="Helvetica,sans-Serif" font-size="10.00"> chunk_size</text>
</g>
<!-- Node22 -->
<g id="node22" class="node">
<title>Node22</title>
<g id="a_node22"><a xlink:href="structhost_1_1CCHostConfig_1_1Memory.html" target="_top" xlink:title=" ">
<polygon fill="white" stroke="black" points="1476.5,-379.1 1476.5,-409.1 1586.5,-409.1 1586.5,-379.1 1476.5,-379.1"/>
<text text-anchor="start" x="1484.5" y="-397.1" font-family="Helvetica,sans-Serif" font-size="10.00">host::CCHostConfig</text>
<text text-anchor="middle" x="1531.5" y="-386.1" font-family="Helvetica,sans-Serif" font-size="10.00">::Memory</text>
</a>
</g>
</g>
<!-- Node19&#45;&gt;Node22 -->
<g id="edge36" class="edge">
<title>Node19&#45;&gt;Node22</title>
<path fill="none" stroke="#9a32cd" stroke-dasharray="5,2" d="M1111.54,-416.38C1200.84,-411.63 1384.63,-401.86 1476.19,-396.99"/>
<polygon fill="#9a32cd" stroke="#9a32cd" points="1111.19,-412.9 1101.39,-416.92 1111.56,-419.89 1111.19,-412.9"/>
<text text-anchor="middle" x="1216" y="-438.1" font-family="Helvetica,sans-Serif" font-size="10.00"> circuit_size</text>
<text text-anchor="middle" x="1216" y="-427.1" font-family="Helvetica,sans-Serif" font-size="10.00">max_fragment_size</text>
<text text-anchor="middle" x="1216" y="-416.1" font-family="Helvetica,sans-Serif" font-size="10.00">max_msg_size</text>
</g>
<!-- Node20&#45;&gt;Node1 -->
<g id="edge32" class="edge">
<title>Node20&#45;&gt;Node1</title>
<path fill="none" stroke="#9a32cd" stroke-dasharray="5,2" d="M1281.28,-168.2C1378.44,-162.22 1568.15,-156.03 1726,-184.1 1758.38,-189.85 1768.68,-189.79 1796,-208.1 1825.9,-228.13 1851.08,-263.6 1862.07,-280.55"/>
<polygon fill="#9a32cd" stroke="#9a32cd" points="1280.79,-164.73 1271.03,-168.86 1281.23,-171.71 1280.79,-164.73"/>
<text text-anchor="middle" x="1531.5" y="-171.1" font-family="Helvetica,sans-Serif" font-size="10.00"> snapshots</text>
</g>
<!-- Node21 -->
<g id="node21" class="node">
<title>Node21</title>
<g id="a_node21"><a xlink:href="structhost_1_1CCHostConfig_1_1Logging.html" target="_top" xlink:title=" ">
<polygon fill="white" stroke="black" points="1616,-193.1 1616,-223.1 1726,-223.1 1726,-193.1 1616,-193.1"/>
<text text-anchor="start" x="1624" y="-211.1" font-family="Helvetica,sans-Serif" font-size="10.00">host::CCHostConfig</text>
<text text-anchor="middle" x="1671" y="-200.1" font-family="Helvetica,sans-Serif" font-size="10.00">::Logging</text>
</a>
</g>
</g>
<!-- Node21&#45;&gt;Node1 -->
<g id="edge34" class="edge">
<title>Node21&#45;&gt;Node1</title>
<path fill="none" stroke="#9a32cd" stroke-dasharray="5,2" d="M1736.3,-210.98C1756.14,-213.68 1777.59,-218.53 1796,-227.1 1823.41,-239.85 1848.24,-266.31 1860.3,-280.54"/>
<polygon fill="#9a32cd" stroke="#9a32cd" points="1736.45,-207.48 1726.1,-209.76 1735.62,-214.43 1736.45,-207.48"/>
<text text-anchor="middle" x="1770" y="-230.1" font-family="Helvetica,sans-Serif" font-size="10.00"> logging</text>
</g>
<!-- Node22&#45;&gt;Node1 -->
<g id="edge35" class="edge">
<title>Node22&#45;&gt;Node1</title>
<path fill="none" stroke="#9a32cd" stroke-dasharray="5,2" d="M1596.58,-394.43C1651.83,-392.42 1732.51,-383.88 1796,-354.1 1823.56,-341.17 1848.32,-314.27 1860.34,-299.81"/>
<polygon fill="#9a32cd" stroke="#9a32cd" points="1596.46,-390.93 1586.57,-394.73 1596.67,-397.93 1596.46,-390.93"/>
<text text-anchor="middle" x="1671" y="-396.1" font-family="Helvetica,sans-Serif" font-size="10.00"> memory</text>
</g>
<!-- Node23&#45;&gt;Node1 -->
<g id="edge37" class="edge">
<title>Node23&#45;&gt;Node1</title>
<path fill="none" stroke="#9a32cd" stroke-dasharray="5,2" d="M1736.11,-118.36C1756.89,-120.66 1778.95,-126.43 1796,-139.1 1844.72,-175.3 1861.88,-253.03 1866.54,-280.36"/>
<polygon fill="#9a32cd" stroke="#9a32cd" points="1736.31,-114.87 1726.05,-117.5 1735.71,-121.84 1736.31,-114.87"/>
<text text-anchor="middle" x="1770" y="-142.1" font-family="Helvetica,sans-Serif" font-size="10.00"> command</text>
</g>
<!-- Node24&#45;&gt;Node23 -->
<g id="edge39" class="edge">
<title>Node24&#45;&gt;Node23</title>
<path fill="none" stroke="#9a32cd" stroke-dasharray="5,2" d="M1124.77,-127.25C1245.26,-125.67 1503.08,-122.29 1615.59,-120.81"/>
<polygon fill="#9a32cd" stroke="#9a32cd" points="1124.54,-123.76 1114.59,-127.39 1124.63,-130.75 1124.54,-123.76"/>
<text text-anchor="middle" x="1368" y="-128.1" font-family="Helvetica,sans-Serif" font-size="10.00"> start</text>
</g>
<!-- Node25 -->
<g id="node25" class="node">
<title>Node25</title>
<g id="a_node25"><a xlink:title=" ">
<polygon fill="white" stroke="black" points="694.5,-123.1 694.5,-153.1 813.5,-153.1 813.5,-123.1 694.5,-123.1"/>
<text text-anchor="start" x="702.5" y="-141.1" font-family="Helvetica,sans-Serif" font-size="10.00">std::vector&lt; host::</text>
<text text-anchor="middle" x="754" y="-130.1" font-family="Helvetica,sans-Serif" font-size="10.00">ParsedMemberInfo &gt;</text>
</a>
</g>
</g>
<!-- Node25&#45;&gt;Node24 -->
<g id="edge40" class="edge">
<title>Node25&#45;&gt;Node24</title>
<path fill="none" stroke="#9a32cd" stroke-dasharray="5,2" d="M823.83,-135.83C878.56,-134.03 954.06,-131.54 1004.49,-129.88"/>
<polygon fill="#9a32cd" stroke="#9a32cd" points="823.4,-132.34 813.52,-136.17 823.63,-139.34 823.4,-132.34"/>
<text text-anchor="middle" x="901.5" y="-138.1" font-family="Helvetica,sans-Serif" font-size="10.00"> members</text>
</g>
<!-- Node26&#45;&gt;Node25 -->
<g id="edge41" class="edge">
<title>Node26&#45;&gt;Node25</title>
<path fill="none" stroke="#9a32cd" stroke-dasharray="5,2" d="M536.41,-139.57C585.73,-139.24 648.78,-138.81 694.12,-138.5"/>
<polygon fill="#9a32cd" stroke="#9a32cd" points="536.08,-136.07 526.1,-139.64 536.12,-143.07 536.08,-136.07"/>
<text text-anchor="middle" x="603.5" y="-143.1" font-family="Helvetica,sans-Serif" font-size="10.00"> elements</text>
</g>
<!-- Node27 -->
<g id="node27" class="node">
<title>Node27</title>
<g id="a_node27"><a xlink:href="structccf_1_1ServiceConfiguration.html" target="_top" xlink:title=" ">
<polygon fill="white" stroke="black" points="685.5,-84.6 685.5,-103.6 822.5,-103.6 822.5,-84.6 685.5,-84.6"/>
<text text-anchor="middle" x="754" y="-91.6" font-family="Helvetica,sans-Serif" font-size="10.00">ccf::ServiceConfiguration</text>
</a>
</g>
</g>
<!-- Node27&#45;&gt;Node24 -->
<g id="edge44" class="edge">
<title>Node27&#45;&gt;Node24</title>
<path fill="none" stroke="#9a32cd" stroke-dasharray="5,2" d="M832.89,-102.82C886.52,-108.83 956.43,-116.66 1004.12,-122"/>
<polygon fill="#9a32cd" stroke="#9a32cd" points="833.06,-99.32 822.73,-101.68 832.28,-106.28 833.06,-99.32"/>
<text text-anchor="middle" x="901.5" y="-120.1" font-family="Helvetica,sans-Serif" font-size="10.00"> service_configuration</text>
</g>
<!-- Node28&#45;&gt;Node23 -->
<g id="edge45" class="edge">
<title>Node28&#45;&gt;Node23</title>
<path fill="none" stroke="#9a32cd" stroke-dasharray="5,2" d="M1433.12,-502.09C1486.61,-491.73 1560,-468.21 1598,-415.1 1627.96,-373.22 1596.46,-231.73 1616,-184.1 1623.89,-164.86 1639.82,-147.15 1652.34,-135.25"/>
<polygon fill="#9a32cd" stroke="#9a32cd" points="1432.25,-498.69 1423.04,-503.93 1433.51,-505.57 1432.25,-498.69"/>
<text text-anchor="middle" x="1531.5" y="-497.1" font-family="Helvetica,sans-Serif" font-size="10.00"> join</text>
</g>
<!-- Node29&#45;&gt;Node23 -->
<g id="edge47" class="edge">
<title>Node29&#45;&gt;Node23</title>
<path fill="none" stroke="#9a32cd" stroke-dasharray="5,2" d="M673.27,-63.73C733.24,-60.3 822.59,-56.1 900.5,-56.1 900.5,-56.1 900.5,-56.1 1369,-56.1 1462.76,-56.1 1569.43,-86.17 1627.24,-105.09"/>
<polygon fill="#9a32cd" stroke="#9a32cd" points="672.94,-60.24 663.16,-64.32 673.35,-67.23 672.94,-60.24"/>
<text text-anchor="middle" x="1059.5" y="-59.1" font-family="Helvetica,sans-Serif" font-size="10.00"> recover</text>
</g>
</g>
</svg>
