<?xml version="1.0" encoding="UTF-8" standalone="no"?>
<!DOCTYPE svg PUBLIC "-//W3C//DTD SVG 1.1//EN"
 "http://www.w3.org/Graphics/SVG/1.1/DTD/svg11.dtd">
<!-- Generated by graphviz version 2.43.0 (0)
 -->
<!-- Title: http::HttpSignatureVerifier::SignatureParams Pages: 1 -->
<svg width="353pt" height="263pt"
 viewBox="0.00 0.00 352.80 263.00" xmlns="http://www.w3.org/2000/svg" xmlns:xlink="http://www.w3.org/1999/xlink">
<g id="graph0" class="graph" transform="scale(1 1) rotate(0) translate(4 259)">
<title>http::HttpSignatureVerifier::SignatureParams</title>
<polygon fill="white" stroke="transparent" points="-4,4 -4,-259 348.8,-259 348.8,4 -4,4"/>
<!-- Node1 -->
<g id="node1" class="node">
<title>Node1</title>
<g id="a_node1"><a xlink:title=" ">
<polygon fill="#bfbfbf" stroke="black" points="105.8,-0.5 105.8,-30.5 249.8,-30.5 249.8,-0.5 105.8,-0.5"/>
<text text-anchor="start" x="113.8" y="-18.5" font-family="Helvetica,sans-Serif" font-size="10.00">http::HttpSignatureVerifier</text>
<text text-anchor="middle" x="177.8" y="-7.5" font-family="Helvetica,sans-Serif" font-size="10.00">::SignatureParams</text>
</a>
</g>
</g>
<!-- Node2 -->
<g id="node2" class="node">
<title>Node2</title>
<g id="a_node2"><a xlink:title=" ">
<polygon fill="white" stroke="black" points="39.8,-162 39.8,-181 133.8,-181 133.8,-162 39.8,-162"/>
<text text-anchor="middle" x="86.8" y="-169" font-family="Helvetica,sans-Serif" font-size="10.00">std::string_view</text>
</a>
</g>
</g>
<!-- Node2&#45;&gt;Node1 -->
<g id="edge1" class="edge">
<title>Node2&#45;&gt;Node1</title>
<path fill="none" stroke="#9a32cd" stroke-dasharray="5,2" d="M59.63,-156.91C28.59,-139.52 -15.37,-108.05 5.8,-78 28.36,-45.98 69.18,-30.54 105.39,-23.14"/>
<polygon fill="#9a32cd" stroke="#9a32cd" points="58.31,-160.17 68.77,-161.84 61.63,-154.01 58.31,-160.17"/>
<text text-anchor="middle" x="55.3" y="-96.5" font-family="Helvetica,sans-Serif" font-size="10.00"> signature</text>
<text text-anchor="middle" x="55.3" y="-85.5" font-family="Helvetica,sans-Serif" font-size="10.00">signature_algorithm</text>
</g>
<!-- Node4 -->
<g id="node4" class="node">
<title>Node4</title>
<g id="a_node4"><a xlink:title=" ">
<polygon fill="white" stroke="black" points="113.8,-78.5 113.8,-108.5 241.8,-108.5 241.8,-78.5 113.8,-78.5"/>
<text text-anchor="start" x="121.8" y="-96.5" font-family="Helvetica,sans-Serif" font-size="10.00">std::vector&lt; std::string</text>
<text text-anchor="middle" x="177.8" y="-85.5" font-family="Helvetica,sans-Serif" font-size="10.00">_view &gt;</text>
</a>
</g>
</g>
<!-- Node2&#45;&gt;Node4 -->
<g id="edge4" class="edge">
<title>Node2&#45;&gt;Node4</title>
<path fill="none" stroke="#9a32cd" stroke-dasharray="5,2" d="M105.02,-155.28C121.36,-141.64 145.13,-121.78 161.01,-108.52"/>
<polygon fill="#9a32cd" stroke="#9a32cd" points="102.67,-152.69 97.24,-161.78 107.16,-158.06 102.67,-152.69"/>
<text text-anchor="middle" x="162.3" y="-130" font-family="Helvetica,sans-Serif" font-size="10.00"> elements</text>
</g>
<!-- Node3 -->
<g id="node3" class="node">
<title>Node3</title>
<g id="a_node3"><a xlink:title=" ">
<polygon fill="white" stroke="black" points="24.3,-224.5 24.3,-254.5 149.3,-254.5 149.3,-224.5 24.3,-224.5"/>
<text text-anchor="start" x="32.3" y="-242.5" font-family="Helvetica,sans-Serif" font-size="10.00">std::basic_string_view</text>
<text text-anchor="middle" x="86.8" y="-231.5" font-family="Helvetica,sans-Serif" font-size="10.00">&lt; Char &gt;</text>
</a>
</g>
</g>
<!-- Node3&#45;&gt;Node2 -->
<g id="edge2" class="edge">
<title>Node3&#45;&gt;Node2</title>
<path fill="none" stroke="midnightblue" d="M86.8,-213.88C86.8,-202.47 86.8,-189.64 86.8,-181.33"/>
<polygon fill="midnightblue" stroke="midnightblue" points="83.3,-214.18 86.8,-224.18 90.3,-214.18 83.3,-214.18"/>
</g>
<!-- Node4&#45;&gt;Node1 -->
<g id="edge3" class="edge">
<title>Node4&#45;&gt;Node1</title>
<path fill="none" stroke="#9a32cd" stroke-dasharray="5,2" d="M177.8,-68.09C177.8,-55.76 177.8,-41.22 177.8,-30.73"/>
<polygon fill="#9a32cd" stroke="#9a32cd" points="174.3,-68.2 177.8,-78.2 181.3,-68.21 174.3,-68.2"/>
<text text-anchor="middle" x="217.8" y="-52" font-family="Helvetica,sans-Serif" font-size="10.00"> signed_headers</text>
</g>
<!-- Node5 -->
<g id="node5" class="node">
<title>Node5</title>
<g id="a_node5"><a xlink:title=" ">
<polygon fill="white" stroke="black" points="260.3,-84 260.3,-103 325.3,-103 325.3,-84 260.3,-84"/>
<text text-anchor="middle" x="292.8" y="-91" font-family="Helvetica,sans-Serif" font-size="10.00">std::string</text>
</a>
</g>
</g>
<!-- Node5&#45;&gt;Node1 -->
<g id="edge5" class="edge">
<title>Node5&#45;&gt;Node1</title>
<path fill="none" stroke="#9a32cd" stroke-dasharray="5,2" d="M283.54,-74.91C278.18,-66.13 270.73,-55.93 261.8,-49 251.92,-41.33 240.01,-35.27 228.31,-30.58"/>
<polygon fill="#9a32cd" stroke="#9a32cd" points="280.53,-76.68 288.51,-83.65 286.62,-73.23 280.53,-76.68"/>
<text text-anchor="middle" x="290.3" y="-52" font-family="Helvetica,sans-Serif" font-size="10.00"> key_id</text>
</g>
<!-- Node6 -->
<g id="node6" class="node">
<title>Node6</title>
<g id="a_node6"><a xlink:title=" ">
<polygon fill="white" stroke="black" points="240.8,-156.5 240.8,-186.5 344.8,-186.5 344.8,-156.5 240.8,-156.5"/>
<text text-anchor="start" x="248.8" y="-174.5" font-family="Helvetica,sans-Serif" font-size="10.00">std::basic_string&lt;</text>
<text text-anchor="middle" x="292.8" y="-163.5" font-family="Helvetica,sans-Serif" font-size="10.00"> Char &gt;</text>
</a>
</g>
</g>
<!-- Node6&#45;&gt;Node5 -->
<g id="edge6" class="edge">
<title>Node6&#45;&gt;Node5</title>
<path fill="none" stroke="midnightblue" d="M292.8,-146.17C292.8,-131.4 292.8,-113.45 292.8,-103.06"/>
<polygon fill="midnightblue" stroke="midnightblue" points="289.3,-146.2 292.8,-156.2 296.3,-146.21 289.3,-146.2"/>
</g>
</g>
</svg>
