<?xml version="1.0" encoding="UTF-8" standalone="no"?>
<!DOCTYPE svg PUBLIC "-//W3C//DTD SVG 1.1//EN"
 "http://www.w3.org/Graphics/SVG/1.1/DTD/svg11.dtd">
<!-- Generated by graphviz version 2.43.0 (0)
 -->
<!-- Title: ccf::GetCode::Out Pages: 1 -->
<svg width="149pt" height="308pt"
 viewBox="0.00 0.00 149.00 308.00" xmlns="http://www.w3.org/2000/svg" xmlns:xlink="http://www.w3.org/1999/xlink">
<g id="graph0" class="graph" transform="scale(1 1) rotate(0) translate(4 304)">
<title>ccf::GetCode::Out</title>
<polygon fill="white" stroke="transparent" points="-4,4 -4,-304 145,-304 145,4 -4,4"/>
<!-- Node1 -->
<g id="node1" class="node">
<title>Node1</title>
<g id="a_node1"><a xlink:title=" ">
<polygon fill="#bfbfbf" stroke="black" points="20,-0.5 20,-19.5 121,-19.5 121,-0.5 20,-0.5"/>
<text text-anchor="middle" x="70.5" y="-7.5" font-family="Helvetica,sans-Serif" font-size="10.00">ccf::GetCode::Out</text>
</a>
</g>
</g>
<!-- Node2 -->
<g id="node2" class="node">
<title>Node2</title>
<g id="a_node2"><a xlink:title=" ">
<polygon fill="white" stroke="black" points="0,-67.5 0,-97.5 141,-97.5 141,-67.5 0,-67.5"/>
<text text-anchor="start" x="8" y="-85.5" font-family="Helvetica,sans-Serif" font-size="10.00">std::vector&lt; ccf::GetCode</text>
<text text-anchor="middle" x="70.5" y="-74.5" font-family="Helvetica,sans-Serif" font-size="10.00">::Version &gt;</text>
</a>
</g>
</g>
<!-- Node2&#45;&gt;Node1 -->
<g id="edge1" class="edge">
<title>Node2&#45;&gt;Node1</title>
<path fill="none" stroke="#9a32cd" stroke-dasharray="5,2" d="M70.5,-57.09C70.5,-44.21 70.5,-29.2 70.5,-19.89"/>
<polygon fill="#9a32cd" stroke="#9a32cd" points="67,-57.23 70.5,-67.23 74,-57.23 67,-57.23"/>
<text text-anchor="middle" x="93" y="-41" font-family="Helvetica,sans-Serif" font-size="10.00"> versions</text>
</g>
<!-- Node3 -->
<g id="node3" class="node">
<title>Node3</title>
<g id="a_node3"><a xlink:href="structccf_1_1GetCode_1_1Version.html" target="_top" xlink:title=" ">
<polygon fill="white" stroke="black" points="10.5,-145.5 10.5,-164.5 130.5,-164.5 130.5,-145.5 10.5,-145.5"/>
<text text-anchor="middle" x="70.5" y="-152.5" font-family="Helvetica,sans-Serif" font-size="10.00">ccf::GetCode::Version</text>
</a>
</g>
</g>
<!-- Node3&#45;&gt;Node2 -->
<g id="edge2" class="edge">
<title>Node3&#45;&gt;Node2</title>
<path fill="none" stroke="#9a32cd" stroke-dasharray="5,2" d="M70.5,-135.24C70.5,-123.41 70.5,-108.38 70.5,-97.58"/>
<polygon fill="#9a32cd" stroke="#9a32cd" points="67,-135.36 70.5,-145.36 74,-135.36 67,-135.36"/>
<text text-anchor="middle" x="95" y="-119" font-family="Helvetica,sans-Serif" font-size="10.00"> elements</text>
</g>
<!-- Node4 -->
<g id="node4" class="node">
<title>Node4</title>
<g id="a_node4"><a xlink:title=" ">
<polygon fill="white" stroke="black" points="38,-212.5 38,-231.5 103,-231.5 103,-212.5 38,-212.5"/>
<text text-anchor="middle" x="70.5" y="-219.5" font-family="Helvetica,sans-Serif" font-size="10.00">std::string</text>
</a>
</g>
</g>
<!-- Node4&#45;&gt;Node3 -->
<g id="edge3" class="edge">
<title>Node4&#45;&gt;Node3</title>
<path fill="none" stroke="#9a32cd" stroke-dasharray="5,2" d="M70.5,-202.04C70.5,-189.67 70.5,-174.12 70.5,-164.63"/>
<polygon fill="#9a32cd" stroke="#9a32cd" points="67,-202.23 70.5,-212.23 74,-202.23 67,-202.23"/>
<text text-anchor="middle" x="87.5" y="-186" font-family="Helvetica,sans-Serif" font-size="10.00"> digest</text>
</g>
<!-- Node5 -->
<g id="node5" class="node">
<title>Node5</title>
<g id="a_node5"><a xlink:title=" ">
<polygon fill="white" stroke="black" points="18.5,-269.5 18.5,-299.5 122.5,-299.5 122.5,-269.5 18.5,-269.5"/>
<text text-anchor="start" x="26.5" y="-287.5" font-family="Helvetica,sans-Serif" font-size="10.00">std::basic_string&lt;</text>
<text text-anchor="middle" x="70.5" y="-276.5" font-family="Helvetica,sans-Serif" font-size="10.00"> Char &gt;</text>
</a>
</g>
</g>
<!-- Node5&#45;&gt;Node4 -->
<g id="edge4" class="edge">
<title>Node5&#45;&gt;Node4</title>
<path fill="none" stroke="midnightblue" d="M70.5,-259.35C70.5,-249.51 70.5,-238.78 70.5,-231.54"/>
<polygon fill="midnightblue" stroke="midnightblue" points="67,-259.47 70.5,-269.47 74,-259.47 67,-259.47"/>
</g>
</g>
</svg>
