<?xml version="1.0" encoding="UTF-8" standalone="no"?>
<!DOCTYPE svg PUBLIC "-//W3C//DTD SVG 1.1//EN"
 "http://www.w3.org/Graphics/SVG/1.1/DTD/svg11.dtd">
<!-- Generated by graphviz version 2.43.0 (0)
 -->
<!-- Title: src/host/time_updater.h Pages: 1 -->
<svg width="217pt" height="196pt"
 viewBox="0.00 0.00 217.00 196.00" xmlns="http://www.w3.org/2000/svg" xmlns:xlink="http://www.w3.org/1999/xlink">
<g id="graph0" class="graph" transform="scale(1 1) rotate(0) translate(4 192)">
<title>src/host/time_updater.h</title>
<polygon fill="white" stroke="transparent" points="-4,4 -4,-192 213,-192 213,4 -4,4"/>
<!-- Node1 -->
<g id="node1" class="node">
<title>Node1</title>
<g id="a_node1"><a xlink:title=" ">
<polygon fill="#bfbfbf" stroke="black" points="65.5,-168.5 65.5,-187.5 196.5,-187.5 196.5,-168.5 65.5,-168.5"/>
<text text-anchor="middle" x="131" y="-175.5" font-family="Helvetica,sans-Serif" font-size="10.00">src/host/time_updater.h</text>
</a>
</g>
</g>
<!-- Node2 -->
<g id="node2" class="node">
<title>Node2</title>
<g id="a_node2"><a xlink:href="timer_8h.html" target="_top" xlink:title=" ">
<polygon fill="white" stroke="black" points="51.5,-112.5 51.5,-131.5 102.5,-131.5 102.5,-112.5 51.5,-112.5"/>
<text text-anchor="middle" x="77" y="-119.5" font-family="Helvetica,sans-Serif" font-size="10.00">timer.h</text>
</a>
</g>
</g>
<!-- Node1&#45;&gt;Node2 -->
<g id="edge1" class="edge">
<title>Node1&#45;&gt;Node2</title>
<path fill="none" stroke="midnightblue" d="M122.08,-168.08C114.22,-160.22 102.57,-148.57 93.08,-139.08"/>
<polygon fill="midnightblue" stroke="midnightblue" points="95.3,-136.35 85.75,-131.75 90.35,-141.3 95.3,-136.35"/>
</g>
<!-- Node6 -->
<g id="node6" class="node">
<title>Node6</title>
<g id="a_node6"><a xlink:title=" ">
<polygon fill="white" stroke="#bfbfbf" points="106,-56.5 106,-75.5 156,-75.5 156,-56.5 106,-56.5"/>
<text text-anchor="middle" x="131" y="-63.5" font-family="Helvetica,sans-Serif" font-size="10.00">chrono</text>
</a>
</g>
</g>
<!-- Node1&#45;&gt;Node6 -->
<g id="edge7" class="edge">
<title>Node1&#45;&gt;Node6</title>
<path fill="none" stroke="midnightblue" d="M131,-168.37C131,-150.62 131,-109.67 131,-85.6"/>
<polygon fill="midnightblue" stroke="midnightblue" points="134.5,-85.59 131,-75.59 127.5,-85.59 134.5,-85.59"/>
</g>
<!-- Node7 -->
<g id="node7" class="node">
<title>Node7</title>
<g id="a_node7"><a xlink:title=" ">
<polygon fill="white" stroke="#bfbfbf" points="159,-112.5 159,-131.5 209,-131.5 209,-112.5 159,-112.5"/>
<text text-anchor="middle" x="184" y="-119.5" font-family="Helvetica,sans-Serif" font-size="10.00">atomic</text>
</a>
</g>
</g>
<!-- Node1&#45;&gt;Node7 -->
<g id="edge6" class="edge">
<title>Node1&#45;&gt;Node7</title>
<path fill="none" stroke="midnightblue" d="M139.75,-168.08C147.47,-160.22 158.9,-148.57 168.22,-139.08"/>
<polygon fill="midnightblue" stroke="midnightblue" points="170.9,-141.34 175.41,-131.75 165.91,-136.44 170.9,-141.34"/>
</g>
<!-- Node3 -->
<g id="node3" class="node">
<title>Node3</title>
<g id="a_node3"><a xlink:href="proxy_8h.html" target="_top" xlink:title=" ">
<polygon fill="white" stroke="black" points="36,-56.5 36,-75.5 88,-75.5 88,-56.5 36,-56.5"/>
<text text-anchor="middle" x="62" y="-63.5" font-family="Helvetica,sans-Serif" font-size="10.00">proxy.h</text>
</a>
</g>
</g>
<!-- Node2&#45;&gt;Node3 -->
<g id="edge2" class="edge">
<title>Node2&#45;&gt;Node3</title>
<path fill="none" stroke="midnightblue" d="M74.52,-112.08C72.51,-104.85 69.61,-94.41 67.11,-85.4"/>
<polygon fill="midnightblue" stroke="midnightblue" points="70.48,-84.45 64.43,-75.75 63.74,-86.32 70.48,-84.45"/>
</g>
<!-- Node2&#45;&gt;Node6 -->
<g id="edge5" class="edge">
<title>Node2&#45;&gt;Node6</title>
<path fill="none" stroke="midnightblue" d="M85.92,-112.08C93.78,-104.22 105.43,-92.57 114.92,-83.08"/>
<polygon fill="midnightblue" stroke="midnightblue" points="117.65,-85.3 122.25,-75.75 112.7,-80.35 117.65,-85.3"/>
</g>
<!-- Node4 -->
<g id="node4" class="node">
<title>Node4</title>
<g id="a_node4"><a xlink:title=" ">
<polygon fill="white" stroke="#bfbfbf" points="0,-0.5 0,-19.5 58,-19.5 58,-0.5 0,-0.5"/>
<text text-anchor="middle" x="29" y="-7.5" font-family="Helvetica,sans-Serif" font-size="10.00">memory</text>
</a>
</g>
</g>
<!-- Node3&#45;&gt;Node4 -->
<g id="edge3" class="edge">
<title>Node3&#45;&gt;Node4</title>
<path fill="none" stroke="midnightblue" d="M56.55,-56.08C51.99,-48.61 45.33,-37.72 39.71,-28.52"/>
<polygon fill="midnightblue" stroke="midnightblue" points="42.55,-26.46 34.35,-19.75 36.58,-30.11 42.55,-26.46"/>
</g>
<!-- Node5 -->
<g id="node5" class="node">
<title>Node5</title>
<g id="a_node5"><a xlink:title=" ">
<polygon fill="white" stroke="#bfbfbf" points="76.5,-0.5 76.5,-19.5 113.5,-19.5 113.5,-0.5 76.5,-0.5"/>
<text text-anchor="middle" x="95" y="-7.5" font-family="Helvetica,sans-Serif" font-size="10.00">uv.h</text>
</a>
</g>
</g>
<!-- Node3&#45;&gt;Node5 -->
<g id="edge4" class="edge">
<title>Node3&#45;&gt;Node5</title>
<path fill="none" stroke="midnightblue" d="M67.45,-56.08C72.01,-48.61 78.67,-37.72 84.29,-28.52"/>
<polygon fill="midnightblue" stroke="midnightblue" points="87.42,-30.11 89.65,-19.75 81.45,-26.46 87.42,-30.11"/>
</g>
</g>
</svg>
