<?xml version="1.0" encoding="UTF-8" standalone="no"?>
<!DOCTYPE svg PUBLIC "-//W3C//DTD SVG 1.1//EN"
 "http://www.w3.org/Graphics/SVG/1.1/DTD/svg11.dtd">
<!-- Generated by graphviz version 2.43.0 (0)
 -->
<!-- Title: include/ccf/service/tables/users.h Pages: 1 -->
<svg width="1479pt" height="520pt"
 viewBox="0.00 0.00 1479.40 520.00" xmlns="http://www.w3.org/2000/svg" xmlns:xlink="http://www.w3.org/1999/xlink">
<g id="graph0" class="graph" transform="scale(1 1) rotate(0) translate(4 516)">
<title>include/ccf/service/tables/users.h</title>
<polygon fill="white" stroke="transparent" points="-4,4 -4,-516 1475.4,-516 1475.4,4 -4,4"/>
<!-- Node1 -->
<g id="node1" class="node">
<title>Node1</title>
<g id="a_node1"><a xlink:title=" ">
<polygon fill="#bfbfbf" stroke="black" points="592.5,-481.5 592.5,-511.5 699.5,-511.5 699.5,-481.5 592.5,-481.5"/>
<text text-anchor="start" x="600.5" y="-499.5" font-family="Helvetica,sans-Serif" font-size="10.00">include/ccf/service</text>
<text text-anchor="middle" x="646" y="-488.5" font-family="Helvetica,sans-Serif" font-size="10.00">/tables/users.h</text>
</a>
</g>
</g>
<!-- Node2 -->
<g id="node2" class="node">
<title>Node2</title>
<g id="a_node2"><a xlink:href="cert__auth_8cpp.html" target="_top" xlink:title=" ">
<polygon fill="white" stroke="black" points="316.5,-414.5 316.5,-444.5 471.5,-444.5 471.5,-414.5 316.5,-414.5"/>
<text text-anchor="start" x="324.5" y="-432.5" font-family="Helvetica,sans-Serif" font-size="10.00">src/endpoints/authentication</text>
<text text-anchor="middle" x="394" y="-421.5" font-family="Helvetica,sans-Serif" font-size="10.00">/cert_auth.cpp</text>
</a>
</g>
</g>
<!-- Node1&#45;&gt;Node2 -->
<g id="edge1" class="edge">
<title>Node1&#45;&gt;Node2</title>
<path fill="none" stroke="midnightblue" d="M582.56,-479.14C541.26,-468.48 487.93,-454.73 448.54,-444.57"/>
<polygon fill="midnightblue" stroke="midnightblue" points="581.69,-482.53 592.25,-481.64 583.44,-475.75 581.69,-482.53"/>
</g>
<!-- Node3 -->
<g id="node3" class="node">
<title>Node3</title>
<g id="a_node3"><a xlink:href="sig__auth_8cpp.html" target="_top" xlink:title=" ">
<polygon fill="white" stroke="black" points="489.5,-414.5 489.5,-444.5 644.5,-444.5 644.5,-414.5 489.5,-414.5"/>
<text text-anchor="start" x="497.5" y="-432.5" font-family="Helvetica,sans-Serif" font-size="10.00">src/endpoints/authentication</text>
<text text-anchor="middle" x="567" y="-421.5" font-family="Helvetica,sans-Serif" font-size="10.00">/sig_auth.cpp</text>
</a>
</g>
</g>
<!-- Node1&#45;&gt;Node3 -->
<g id="edge2" class="edge">
<title>Node1&#45;&gt;Node3</title>
<path fill="none" stroke="midnightblue" d="M620.94,-474.88C608.94,-465.01 594.87,-453.43 584.11,-444.58"/>
<polygon fill="midnightblue" stroke="midnightblue" points="618.91,-477.75 628.86,-481.4 623.36,-472.34 618.91,-477.75"/>
</g>
<!-- Node4 -->
<g id="node4" class="node">
<title>Node4</title>
<g id="a_node4"><a xlink:href="base__endpoint__registry_8cpp.html" target="_top" xlink:title=" ">
<polygon fill="white" stroke="black" points="663,-414.5 663,-444.5 789,-444.5 789,-414.5 663,-414.5"/>
<text text-anchor="start" x="671" y="-432.5" font-family="Helvetica,sans-Serif" font-size="10.00">src/endpoints/base</text>
<text text-anchor="middle" x="726" y="-421.5" font-family="Helvetica,sans-Serif" font-size="10.00">_endpoint_registry.cpp</text>
</a>
</g>
</g>
<!-- Node1&#45;&gt;Node4 -->
<g id="edge3" class="edge">
<title>Node1&#45;&gt;Node4</title>
<path fill="none" stroke="midnightblue" d="M671.37,-474.88C683.53,-465.01 697.78,-453.43 708.68,-444.58"/>
<polygon fill="midnightblue" stroke="midnightblue" points="668.91,-472.37 663.36,-481.4 673.33,-477.81 668.91,-472.37"/>
</g>
<!-- Node5 -->
<g id="node5" class="node">
<title>Node5</title>
<g id="a_node5"><a xlink:href="network__tables_8h.html" target="_top" xlink:title=" ">
<polygon fill="white" stroke="black" points="807,-414.5 807,-444.5 919,-444.5 919,-414.5 807,-414.5"/>
<text text-anchor="start" x="815" y="-432.5" font-family="Helvetica,sans-Serif" font-size="10.00">src/service/network</text>
<text text-anchor="middle" x="863" y="-421.5" font-family="Helvetica,sans-Serif" font-size="10.00">_tables.h</text>
</a>
</g>
</g>
<!-- Node1&#45;&gt;Node5 -->
<g id="edge4" class="edge">
<title>Node1&#45;&gt;Node5</title>
<path fill="none" stroke="midnightblue" d="M702.49,-478.58C737.73,-468.02 782.57,-454.59 815.89,-444.61"/>
<polygon fill="midnightblue" stroke="midnightblue" points="701.39,-475.25 692.82,-481.48 703.4,-481.96 701.39,-475.25"/>
</g>
<!-- Node6 -->
<g id="node6" class="node">
<title>Node6</title>
<g id="a_node6"><a xlink:href="kv__module__loader_8cpp.html" target="_top" xlink:title=" ">
<polygon fill="white" stroke="black" points="631.5,-347.5 631.5,-377.5 774.5,-377.5 774.5,-347.5 631.5,-347.5"/>
<text text-anchor="start" x="639.5" y="-365.5" font-family="Helvetica,sans-Serif" font-size="10.00">src/apps/js_v8/kv_module</text>
<text text-anchor="middle" x="703" y="-354.5" font-family="Helvetica,sans-Serif" font-size="10.00">_loader.cpp</text>
</a>
</g>
</g>
<!-- Node5&#45;&gt;Node6 -->
<g id="edge5" class="edge">
<title>Node5&#45;&gt;Node6</title>
<path fill="none" stroke="midnightblue" d="M818.8,-410.54C793.2,-400.14 761.43,-387.24 737.65,-377.58"/>
<polygon fill="midnightblue" stroke="midnightblue" points="817.7,-413.87 828.28,-414.4 820.34,-407.39 817.7,-413.87"/>
</g>
<!-- Node7 -->
<g id="node7" class="node">
<title>Node7</title>
<g id="a_node7"><a xlink:href="network__state_8h.html" target="_top" xlink:title=" ">
<polygon fill="white" stroke="black" points="793,-353 793,-372 933,-372 933,-353 793,-353"/>
<text text-anchor="middle" x="863" y="-360" font-family="Helvetica,sans-Serif" font-size="10.00">src/node/network_state.h</text>
</a>
</g>
</g>
<!-- Node5&#45;&gt;Node7 -->
<g id="edge6" class="edge">
<title>Node5&#45;&gt;Node7</title>
<path fill="none" stroke="midnightblue" d="M863,-404.25C863,-393.02 863,-380.38 863,-372.19"/>
<polygon fill="midnightblue" stroke="midnightblue" points="859.5,-404.4 863,-414.4 866.5,-404.4 859.5,-404.4"/>
</g>
<!-- Node27 -->
<g id="node27" class="node">
<title>Node27</title>
<g id="a_node27"><a xlink:href="genesis__gen_8h.html" target="_top" xlink:title=" ">
<polygon fill="white" stroke="black" points="1225,-347.5 1225,-377.5 1335,-377.5 1335,-347.5 1225,-347.5"/>
<text text-anchor="start" x="1233" y="-365.5" font-family="Helvetica,sans-Serif" font-size="10.00">src/service/genesis</text>
<text text-anchor="middle" x="1280" y="-354.5" font-family="Helvetica,sans-Serif" font-size="10.00">_gen.h</text>
</a>
</g>
</g>
<!-- Node5&#45;&gt;Node27 -->
<g id="edge42" class="edge">
<title>Node5&#45;&gt;Node27</title>
<path fill="none" stroke="midnightblue" d="M929.17,-418.19C1010.98,-405.43 1148.7,-383.97 1224.98,-372.08"/>
<polygon fill="midnightblue" stroke="midnightblue" points="928.58,-414.74 919.24,-419.73 929.66,-421.65 928.58,-414.74"/>
</g>
<!-- Node8 -->
<g id="node8" class="node">
<title>Node8</title>
<g id="a_node8"><a xlink:href="enclave_2enclave_8h.html" target="_top" xlink:title=" ">
<polygon fill="white" stroke="black" points="917,-56.5 917,-75.5 1039,-75.5 1039,-56.5 917,-56.5"/>
<text text-anchor="middle" x="978" y="-63.5" font-family="Helvetica,sans-Serif" font-size="10.00">src/enclave/enclave.h</text>
</a>
</g>
</g>
<!-- Node7&#45;&gt;Node8 -->
<g id="edge7" class="edge">
<title>Node7&#45;&gt;Node8</title>
<path fill="none" stroke="midnightblue" d="M812.19,-351.18C802.85,-349.57 793.15,-348.08 784,-347 634.38,-329.36 250.11,-358.09 107,-311 52.9,-293.2 0,-297.45 0,-240.5 0,-240.5 0,-240.5 0,-177 0,-84.31 702.71,-69.72 916.82,-67.43"/>
<polygon fill="midnightblue" stroke="midnightblue" points="811.69,-354.65 822.15,-352.97 812.92,-347.76 811.69,-354.65"/>
</g>
<!-- Node10 -->
<g id="node10" class="node">
<title>Node10</title>
<g id="a_node10"><a xlink:href="wrap_8h.html" target="_top" xlink:title=" ">
<polygon fill="white" stroke="black" points="665,-291.5 665,-310.5 743,-310.5 743,-291.5 665,-291.5"/>
<text text-anchor="middle" x="704" y="-298.5" font-family="Helvetica,sans-Serif" font-size="10.00">src/js/wrap.h</text>
</a>
</g>
</g>
<!-- Node7&#45;&gt;Node10 -->
<g id="edge9" class="edge">
<title>Node7&#45;&gt;Node10</title>
<path fill="none" stroke="midnightblue" d="M830.75,-349.43C799.85,-337.87 753.99,-320.71 726.74,-310.51"/>
<polygon fill="midnightblue" stroke="midnightblue" points="829.63,-352.75 840.22,-352.98 832.08,-346.19 829.63,-352.75"/>
</g>
<!-- Node18 -->
<g id="node18" class="node">
<title>Node18</title>
<g id="a_node18"><a xlink:href="node__state_8h.html" target="_top" xlink:title=" ">
<polygon fill="white" stroke="black" points="968,-168.5 968,-187.5 1092,-187.5 1092,-168.5 968,-168.5"/>
<text text-anchor="middle" x="1030" y="-175.5" font-family="Helvetica,sans-Serif" font-size="10.00">src/node/node_state.h</text>
</a>
</g>
</g>
<!-- Node7&#45;&gt;Node18 -->
<g id="edge28" class="edge">
<title>Node7&#45;&gt;Node18</title>
<path fill="none" stroke="midnightblue" d="M833.05,-348.56C806.32,-335.17 773.85,-313.15 791,-291 830.06,-240.53 873.07,-283.84 930,-255 949.44,-245.15 950.73,-237.3 968,-224 984.86,-211.02 1004.87,-196.69 1017.5,-187.76"/>
<polygon fill="midnightblue" stroke="midnightblue" points="831.64,-351.77 842.17,-352.92 834.66,-345.45 831.64,-351.77"/>
</g>
<!-- Node21 -->
<g id="node21" class="node">
<title>Node21</title>
<g id="a_node21"><a xlink:href="node__frontend_8h.html" target="_top" xlink:title=" ">
<polygon fill="white" stroke="black" points="1116,-291.5 1116,-310.5 1274,-310.5 1274,-291.5 1116,-291.5"/>
<text text-anchor="middle" x="1195" y="-298.5" font-family="Helvetica,sans-Serif" font-size="10.00">src/node/rpc/node_frontend.h</text>
</a>
</g>
</g>
<!-- Node7&#45;&gt;Node21 -->
<g id="edge29" class="edge">
<title>Node7&#45;&gt;Node21</title>
<path fill="none" stroke="midnightblue" d="M920.54,-351.19C984.81,-339.67 1087.65,-321.24 1147.52,-310.51"/>
<polygon fill="midnightblue" stroke="midnightblue" points="919.79,-347.77 910.57,-352.98 921.03,-354.66 919.79,-347.77"/>
</g>
<!-- Node23 -->
<g id="node23" class="node">
<title>Node23</title>
<g id="a_node23"><a xlink:href="user__frontend_8h.html" target="_top" xlink:title=" ">
<polygon fill="white" stroke="black" points="361.5,-112.5 361.5,-131.5 516.5,-131.5 516.5,-112.5 361.5,-112.5"/>
<text text-anchor="middle" x="439" y="-119.5" font-family="Helvetica,sans-Serif" font-size="10.00">src/node/rpc/user_frontend.h</text>
</a>
</g>
</g>
<!-- Node7&#45;&gt;Node23 -->
<g id="edge33" class="edge">
<title>Node7&#45;&gt;Node23</title>
<path fill="none" stroke="midnightblue" d="M808.8,-351.14C800.5,-349.67 792.03,-348.24 784,-347 623.08,-322.07 164.68,-377.16 57,-255 -31.79,-154.26 225.65,-130.37 361.28,-124.73"/>
<polygon fill="midnightblue" stroke="midnightblue" points="808.32,-354.61 818.78,-352.94 809.56,-347.72 808.32,-354.61"/>
</g>
<!-- Node24 -->
<g id="node24" class="node">
<title>Node24</title>
<g id="a_node24"><a xlink:href="secret__broadcast_8h.html" target="_top" xlink:title=" ">
<polygon fill="white" stroke="black" points="944.5,-291.5 944.5,-310.5 1097.5,-310.5 1097.5,-291.5 944.5,-291.5"/>
<text text-anchor="middle" x="1021" y="-298.5" font-family="Helvetica,sans-Serif" font-size="10.00">src/node/secret_broadcast.h</text>
</a>
</g>
</g>
<!-- Node7&#45;&gt;Node24 -->
<g id="edge35" class="edge">
<title>Node7&#45;&gt;Node24</title>
<path fill="none" stroke="midnightblue" d="M895.04,-349.43C925.75,-337.87 971.32,-320.71 998.4,-310.51"/>
<polygon fill="midnightblue" stroke="midnightblue" points="893.76,-346.18 885.64,-352.98 896.23,-352.73 893.76,-346.18"/>
</g>
<!-- Node25 -->
<g id="node25" class="node">
<title>Node25</title>
<g id="a_node25"><a xlink:href="share__manager_8h.html" target="_top" xlink:title=" ">
<polygon fill="white" stroke="black" points="1292.5,-291.5 1292.5,-310.5 1437.5,-310.5 1437.5,-291.5 1292.5,-291.5"/>
<text text-anchor="middle" x="1365" y="-298.5" font-family="Helvetica,sans-Serif" font-size="10.00">src/node/share_manager.h</text>
</a>
</g>
</g>
<!-- Node7&#45;&gt;Node25 -->
<g id="edge37" class="edge">
<title>Node7&#45;&gt;Node25</title>
<path fill="none" stroke="midnightblue" d="M943.06,-352.01C1039.57,-340.57 1200.3,-321.52 1293.03,-310.53"/>
<polygon fill="midnightblue" stroke="midnightblue" points="942.58,-348.54 933.07,-353.2 943.41,-355.49 942.58,-348.54"/>
</g>
<!-- Node26 -->
<g id="node26" class="node">
<title>Node26</title>
<g id="a_node26"><a xlink:href="snapshotter_8h.html" target="_top" xlink:title=" ">
<polygon fill="white" stroke="black" points="799.5,-291.5 799.5,-310.5 926.5,-310.5 926.5,-291.5 799.5,-291.5"/>
<text text-anchor="middle" x="863" y="-298.5" font-family="Helvetica,sans-Serif" font-size="10.00">src/node/snapshotter.h</text>
</a>
</g>
</g>
<!-- Node7&#45;&gt;Node26 -->
<g id="edge40" class="edge">
<title>Node7&#45;&gt;Node26</title>
<path fill="none" stroke="midnightblue" d="M863,-342.82C863,-332 863,-318.9 863,-310.51"/>
<polygon fill="midnightblue" stroke="midnightblue" points="859.5,-342.98 863,-352.98 866.5,-342.98 859.5,-342.98"/>
</g>
<!-- Node9 -->
<g id="node9" class="node">
<title>Node9</title>
<g id="a_node9"><a xlink:href="enclave_2main_8cpp.html" target="_top" xlink:title=" ">
<polygon fill="white" stroke="black" points="918,-0.5 918,-19.5 1038,-19.5 1038,-0.5 918,-0.5"/>
<text text-anchor="middle" x="978" y="-7.5" font-family="Helvetica,sans-Serif" font-size="10.00">src/enclave/main.cpp</text>
</a>
</g>
</g>
<!-- Node8&#45;&gt;Node9 -->
<g id="edge8" class="edge">
<title>Node8&#45;&gt;Node9</title>
<path fill="none" stroke="midnightblue" d="M978,-45.8C978,-36.91 978,-26.78 978,-19.75"/>
<polygon fill="midnightblue" stroke="midnightblue" points="974.5,-46.08 978,-56.08 981.5,-46.08 974.5,-46.08"/>
</g>
<!-- Node10&#45;&gt;Node8 -->
<g id="edge11" class="edge">
<title>Node10&#45;&gt;Node8</title>
<path fill="none" stroke="midnightblue" d="M753.05,-293.74C780.96,-287.9 814.85,-276.64 838,-255 888.22,-208.05 851.28,-163.35 897,-112 912.3,-94.82 935.78,-82.79 953.53,-75.52"/>
<polygon fill="midnightblue" stroke="midnightblue" points="752.23,-290.34 743.07,-295.66 753.55,-297.21 752.23,-290.34"/>
</g>
<!-- Node11 -->
<g id="node11" class="node">
<title>Node11</title>
<g id="a_node11"><a xlink:href="js__generic__base_8cpp.html" target="_top" xlink:title=" ">
<polygon fill="white" stroke="black" points="694,-224.5 694,-254.5 812,-254.5 812,-224.5 694,-224.5"/>
<text text-anchor="start" x="702" y="-242.5" font-family="Helvetica,sans-Serif" font-size="10.00">src/apps/js_generic</text>
<text text-anchor="middle" x="753" y="-231.5" font-family="Helvetica,sans-Serif" font-size="10.00">/js_generic_base.cpp</text>
</a>
</g>
</g>
<!-- Node10&#45;&gt;Node11 -->
<g id="edge10" class="edge">
<title>Node10&#45;&gt;Node11</title>
<path fill="none" stroke="midnightblue" d="M717.56,-283.53C725.07,-274.42 734.29,-263.21 741.45,-254.52"/>
<polygon fill="midnightblue" stroke="midnightblue" points="714.68,-281.53 711.02,-291.48 720.08,-285.98 714.68,-281.53"/>
</g>
<!-- Node12 -->
<g id="node12" class="node">
<title>Node12</title>
<g id="a_node12"><a xlink:href="js_2consensus_8cpp.html" target="_top" xlink:title=" ">
<polygon fill="white" stroke="black" points="308,-230 308,-249 424,-249 424,-230 308,-230"/>
<text text-anchor="middle" x="366" y="-237" font-family="Helvetica,sans-Serif" font-size="10.00">src/js/consensus.cpp</text>
</a>
</g>
</g>
<!-- Node10&#45;&gt;Node12 -->
<g id="edge12" class="edge">
<title>Node10&#45;&gt;Node12</title>
<path fill="none" stroke="midnightblue" d="M654.79,-292.56C600.39,-284.17 510.24,-269.76 433,-255 423.53,-253.19 413.35,-251.07 403.85,-249.03"/>
<polygon fill="midnightblue" stroke="midnightblue" points="654.43,-296.05 664.85,-294.11 655.5,-289.13 654.43,-296.05"/>
</g>
<!-- Node13 -->
<g id="node13" class="node">
<title>Node13</title>
<g id="a_node13"><a xlink:href="wrap_8cpp.html" target="_top" xlink:title=" ">
<polygon fill="white" stroke="black" points="321.5,-168.5 321.5,-187.5 410.5,-187.5 410.5,-168.5 321.5,-168.5"/>
<text text-anchor="middle" x="366" y="-175.5" font-family="Helvetica,sans-Serif" font-size="10.00">src/js/wrap.cpp</text>
</a>
</g>
</g>
<!-- Node10&#45;&gt;Node13 -->
<g id="edge21" class="edge">
<title>Node10&#45;&gt;Node13</title>
<path fill="none" stroke="midnightblue" d="M747.77,-288.75C777.23,-280.18 812.26,-267.73 821,-255 828.8,-243.64 830.25,-234.21 821,-224 793.75,-193.93 519.69,-183.18 410.52,-180.08"/>
<polygon fill="midnightblue" stroke="midnightblue" points="746.7,-285.41 738.03,-291.5 748.61,-292.15 746.7,-285.41"/>
</g>
<!-- Node14 -->
<g id="node14" class="node">
<title>Node14</title>
<g id="a_node14"><a xlink:href="conv_8cpp.html" target="_top" xlink:title=" ">
<polygon fill="white" stroke="black" points="442,-230 442,-249 530,-249 530,-230 442,-230"/>
<text text-anchor="middle" x="486" y="-237" font-family="Helvetica,sans-Serif" font-size="10.00">src/js/conv.cpp</text>
</a>
</g>
</g>
<!-- Node10&#45;&gt;Node14 -->
<g id="edge14" class="edge">
<title>Node10&#45;&gt;Node14</title>
<path fill="none" stroke="midnightblue" d="M662.81,-288.78C629.43,-279.68 581.18,-266.52 539,-255 531.91,-253.06 524.3,-250.98 517.11,-249.01"/>
<polygon fill="midnightblue" stroke="midnightblue" points="662.1,-292.21 672.67,-291.46 663.95,-285.46 662.1,-292.21"/>
</g>
<!-- Node15 -->
<g id="node15" class="node">
<title>Node15</title>
<g id="a_node15"><a xlink:href="js_2crypto_8cpp.html" target="_top" xlink:title=" ">
<polygon fill="white" stroke="black" points="194,-230 194,-249 290,-249 290,-230 194,-230"/>
<text text-anchor="middle" x="242" y="-237" font-family="Helvetica,sans-Serif" font-size="10.00">src/js/crypto.cpp</text>
</a>
</g>
</g>
<!-- Node10&#45;&gt;Node15 -->
<g id="edge16" class="edge">
<title>Node10&#45;&gt;Node15</title>
<path fill="none" stroke="midnightblue" d="M654.63,-296.73C578.03,-291.16 426.14,-278.12 299,-255 290.26,-253.41 280.88,-251.23 272.3,-249.04"/>
<polygon fill="midnightblue" stroke="midnightblue" points="654.7,-300.24 664.93,-297.47 655.2,-293.26 654.7,-300.24"/>
</g>
<!-- Node16 -->
<g id="node16" class="node">
<title>Node16</title>
<g id="a_node16"><a xlink:href="js_2historical_8cpp.html" target="_top" xlink:title=" ">
<polygon fill="white" stroke="black" points="66,-230 66,-249 176,-249 176,-230 66,-230"/>
<text text-anchor="middle" x="121" y="-237" font-family="Helvetica,sans-Serif" font-size="10.00">src/js/historical.cpp</text>
</a>
</g>
</g>
<!-- Node10&#45;&gt;Node16 -->
<g id="edge18" class="edge">
<title>Node10&#45;&gt;Node16</title>
<path fill="none" stroke="midnightblue" d="M654.52,-297.96C561.9,-293.64 356.23,-281.69 185,-255 175.09,-253.46 164.44,-251.26 154.71,-249.04"/>
<polygon fill="midnightblue" stroke="midnightblue" points="654.57,-301.46 664.72,-298.42 654.89,-294.47 654.57,-301.46"/>
</g>
<!-- Node17 -->
<g id="node17" class="node">
<title>Node17</title>
<g id="a_node17"><a xlink:href="openenclave_8cpp.html" target="_top" xlink:title=" ">
<polygon fill="white" stroke="black" points="548,-230 548,-249 676,-249 676,-230 548,-230"/>
<text text-anchor="middle" x="612" y="-237" font-family="Helvetica,sans-Serif" font-size="10.00">src/js/openenclave.cpp</text>
</a>
</g>
</g>
<!-- Node10&#45;&gt;Node17 -->
<g id="edge20" class="edge">
<title>Node10&#45;&gt;Node17</title>
<path fill="none" stroke="midnightblue" d="M682.24,-285.93C664.51,-274.46 640.04,-258.63 625.16,-249.01"/>
<polygon fill="midnightblue" stroke="midnightblue" points="680.52,-288.98 690.82,-291.48 684.32,-283.11 680.52,-288.98"/>
</g>
<!-- Node10&#45;&gt;Node18 -->
<g id="edge22" class="edge">
<title>Node10&#45;&gt;Node18</title>
<path fill="none" stroke="midnightblue" d="M753.27,-290.18C800.24,-280.46 867.35,-265.54 892,-255 915.35,-245.01 917.94,-236.59 940,-224 964.12,-210.23 993,-196.21 1011.42,-187.56"/>
<polygon fill="midnightblue" stroke="midnightblue" points="752.37,-286.79 743.28,-292.23 753.78,-293.64 752.37,-286.79"/>
</g>
<!-- Node20 -->
<g id="node20" class="node">
<title>Node20</title>
<g id="a_node20"><a xlink:href="member__frontend_8h.html" target="_top" xlink:title=" ">
<polygon fill="white" stroke="black" points="1296,-224.5 1296,-254.5 1416,-254.5 1416,-224.5 1296,-224.5"/>
<text text-anchor="start" x="1304" y="-242.5" font-family="Helvetica,sans-Serif" font-size="10.00">src/node/rpc/member</text>
<text text-anchor="middle" x="1356" y="-231.5" font-family="Helvetica,sans-Serif" font-size="10.00">_frontend.h</text>
</a>
</g>
</g>
<!-- Node10&#45;&gt;Node20 -->
<g id="edge26" class="edge">
<title>Node10&#45;&gt;Node20</title>
<path fill="none" stroke="midnightblue" d="M753.46,-294.76C765.73,-293.5 778.84,-292.17 791,-291 815.83,-288.61 1155.31,-258.36 1295.8,-245.86"/>
<polygon fill="midnightblue" stroke="midnightblue" points="752.98,-291.29 743.4,-295.81 753.71,-298.26 752.98,-291.29"/>
</g>
<!-- Node12&#45;&gt;Node13 -->
<g id="edge13" class="edge">
<title>Node12&#45;&gt;Node13</title>
<path fill="none" stroke="midnightblue" d="M366,-219.82C366,-209 366,-195.9 366,-187.51"/>
<polygon fill="midnightblue" stroke="midnightblue" points="362.5,-219.98 366,-229.98 369.5,-219.98 362.5,-219.98"/>
</g>
<!-- Node14&#45;&gt;Node13 -->
<g id="edge15" class="edge">
<title>Node14&#45;&gt;Node13</title>
<path fill="none" stroke="midnightblue" d="M459.82,-225.52C436.55,-213.98 403.2,-197.44 383.16,-187.51"/>
<polygon fill="midnightblue" stroke="midnightblue" points="458.29,-228.67 468.81,-229.98 461.4,-222.4 458.29,-228.67"/>
</g>
<!-- Node15&#45;&gt;Node13 -->
<g id="edge17" class="edge">
<title>Node15&#45;&gt;Node13</title>
<path fill="none" stroke="midnightblue" d="M269.05,-225.52C293.1,-213.98 327.56,-197.44 348.27,-187.51"/>
<polygon fill="midnightblue" stroke="midnightblue" points="267.27,-222.49 259.77,-229.98 270.3,-228.8 267.27,-222.49"/>
</g>
<!-- Node16&#45;&gt;Node13 -->
<g id="edge19" class="edge">
<title>Node16&#45;&gt;Node13</title>
<path fill="none" stroke="midnightblue" d="M165.83,-227.61C213.38,-216.07 287.51,-198.06 330.96,-187.51"/>
<polygon fill="midnightblue" stroke="midnightblue" points="164.99,-224.21 156.1,-229.98 166.65,-231.02 164.99,-224.21"/>
</g>
<!-- Node18&#45;&gt;Node8 -->
<g id="edge23" class="edge">
<title>Node18&#45;&gt;Node8</title>
<path fill="none" stroke="midnightblue" d="M1045.84,-160.76C1056.97,-147.3 1068.34,-127.88 1059,-112 1048.23,-93.7 1027.03,-82.31 1009.02,-75.56"/>
<polygon fill="midnightblue" stroke="midnightblue" points="1043.18,-158.49 1039.13,-168.28 1048.4,-163.15 1043.18,-158.49"/>
</g>
<!-- Node19 -->
<g id="node19" class="node">
<title>Node19</title>
<g id="a_node19"><a xlink:href="gov__effects_8h.html" target="_top" xlink:title=" ">
<polygon fill="white" stroke="black" points="906,-112.5 906,-131.5 1050,-131.5 1050,-112.5 906,-112.5"/>
<text text-anchor="middle" x="978" y="-119.5" font-family="Helvetica,sans-Serif" font-size="10.00">src/node/rpc/gov_effects.h</text>
</a>
</g>
</g>
<!-- Node18&#45;&gt;Node19 -->
<g id="edge24" class="edge">
<title>Node18&#45;&gt;Node19</title>
<path fill="none" stroke="midnightblue" d="M1014.32,-160.72C1005.16,-151.2 993.95,-139.56 986.43,-131.75"/>
<polygon fill="midnightblue" stroke="midnightblue" points="1011.96,-163.31 1021.41,-168.08 1017,-158.45 1011.96,-163.31"/>
</g>
<!-- Node19&#45;&gt;Node8 -->
<g id="edge25" class="edge">
<title>Node19&#45;&gt;Node8</title>
<path fill="none" stroke="midnightblue" d="M978,-101.8C978,-92.91 978,-82.78 978,-75.75"/>
<polygon fill="midnightblue" stroke="midnightblue" points="974.5,-102.08 978,-112.08 981.5,-102.08 974.5,-102.08"/>
</g>
<!-- Node20&#45;&gt;Node8 -->
<g id="edge27" class="edge">
<title>Node20&#45;&gt;Node8</title>
<path fill="none" stroke="midnightblue" d="M1345.81,-214.78C1331.89,-185.47 1303.99,-136.47 1264,-112 1227.29,-89.54 1111.71,-76.99 1039.21,-71.15"/>
<polygon fill="midnightblue" stroke="midnightblue" points="1342.8,-216.62 1350.15,-224.26 1349.17,-213.71 1342.8,-216.62"/>
</g>
<!-- Node21&#45;&gt;Node8 -->
<g id="edge30" class="edge">
<title>Node21&#45;&gt;Node8</title>
<path fill="none" stroke="midnightblue" d="M1198.43,-280.89C1200.39,-264.96 1201.07,-242.03 1193,-224 1156.26,-141.95 1051.24,-93.95 1002.9,-75.62"/>
<polygon fill="midnightblue" stroke="midnightblue" points="1194.92,-280.67 1196.88,-291.09 1201.84,-281.72 1194.92,-280.67"/>
</g>
<!-- Node22 -->
<g id="node22" class="node">
<title>Node22</title>
<g id="a_node22"><a xlink:href="jwt__key__auto__refresh_8h.html" target="_top" xlink:title=" ">
<polygon fill="white" stroke="black" points="1058.5,-224.5 1058.5,-254.5 1183.5,-254.5 1183.5,-224.5 1058.5,-224.5"/>
<text text-anchor="start" x="1066.5" y="-242.5" font-family="Helvetica,sans-Serif" font-size="10.00">src/node/jwt_key_auto</text>
<text text-anchor="middle" x="1121" y="-231.5" font-family="Helvetica,sans-Serif" font-size="10.00">_refresh.h</text>
</a>
</g>
</g>
<!-- Node21&#45;&gt;Node22 -->
<g id="edge31" class="edge">
<title>Node21&#45;&gt;Node22</title>
<path fill="none" stroke="midnightblue" d="M1176.59,-285.2C1164.92,-275.81 1149.92,-263.75 1138.44,-254.52"/>
<polygon fill="midnightblue" stroke="midnightblue" points="1174.41,-287.94 1184.4,-291.48 1178.8,-282.48 1174.41,-287.94"/>
</g>
<!-- Node22&#45;&gt;Node18 -->
<g id="edge32" class="edge">
<title>Node22&#45;&gt;Node18</title>
<path fill="none" stroke="midnightblue" d="M1090.83,-218.78C1074.71,-208.23 1055.67,-195.78 1043.24,-187.66"/>
<polygon fill="midnightblue" stroke="midnightblue" points="1089.15,-221.86 1099.43,-224.4 1092.98,-216 1089.15,-221.86"/>
</g>
<!-- Node23&#45;&gt;Node8 -->
<g id="edge34" class="edge">
<title>Node23&#45;&gt;Node8</title>
<path fill="none" stroke="midnightblue" d="M526.56,-112.23C636.23,-101.24 821.33,-82.7 916.87,-73.12"/>
<polygon fill="midnightblue" stroke="midnightblue" points="526.11,-108.75 516.51,-113.23 526.81,-115.72 526.11,-108.75"/>
</g>
<!-- Node24&#45;&gt;Node18 -->
<g id="edge36" class="edge">
<title>Node24&#45;&gt;Node18</title>
<path fill="none" stroke="midnightblue" d="M1022.41,-280.99C1024.4,-254.35 1027.92,-207 1029.36,-187.62"/>
<polygon fill="midnightblue" stroke="midnightblue" points="1018.9,-281.07 1021.65,-291.3 1025.88,-281.59 1018.9,-281.07"/>
</g>
<!-- Node25&#45;&gt;Node18 -->
<g id="edge38" class="edge">
<title>Node25&#45;&gt;Node18</title>
<path fill="none" stroke="midnightblue" d="M1338.69,-286.92C1305.36,-270.7 1245.89,-242.87 1193,-224 1150.42,-208.81 1100.08,-195.61 1066.73,-187.5"/>
<polygon fill="midnightblue" stroke="midnightblue" points="1337.24,-290.11 1347.76,-291.37 1340.32,-283.83 1337.24,-290.11"/>
</g>
<!-- Node25&#45;&gt;Node20 -->
<g id="edge39" class="edge">
<title>Node25&#45;&gt;Node20</title>
<path fill="none" stroke="midnightblue" d="M1362.21,-281.53C1360.89,-272.81 1359.34,-262.59 1358.12,-254.52"/>
<polygon fill="midnightblue" stroke="midnightblue" points="1358.75,-282.11 1363.71,-291.48 1365.68,-281.06 1358.75,-282.11"/>
</g>
<!-- Node26&#45;&gt;Node18 -->
<g id="edge41" class="edge">
<title>Node26&#45;&gt;Node18</title>
<path fill="none" stroke="midnightblue" d="M902.57,-288.15C923.33,-280.72 948.45,-269.73 968,-255 993.84,-235.53 1015.48,-203.1 1024.91,-187.67"/>
<polygon fill="midnightblue" stroke="midnightblue" points="901.39,-284.85 893.07,-291.41 903.67,-291.47 901.39,-284.85"/>
</g>
<!-- Node27&#45;&gt;Node18 -->
<g id="edge43" class="edge">
<title>Node27&#45;&gt;Node18</title>
<path fill="none" stroke="midnightblue" d="M1345.34,-351.95C1391.84,-343.66 1448.54,-329.99 1463,-311 1485.87,-280.97 1458.01,-245.82 1425,-224 1371.74,-188.79 1189.18,-180.97 1092.01,-179.34"/>
<polygon fill="midnightblue" stroke="midnightblue" points="1344.55,-348.54 1335.29,-353.69 1345.74,-355.43 1344.55,-348.54"/>
</g>
<!-- Node27&#45;&gt;Node20 -->
<g id="edge44" class="edge">
<title>Node27&#45;&gt;Node20</title>
<path fill="none" stroke="midnightblue" d="M1345.04,-359.75C1381.26,-355.02 1423.65,-342.46 1447,-311 1464.75,-287.09 1431.01,-267.13 1399.71,-254.62"/>
<polygon fill="midnightblue" stroke="midnightblue" points="1344.55,-356.28 1335.01,-360.88 1345.34,-363.24 1344.55,-356.28"/>
</g>
<!-- Node27&#45;&gt;Node21 -->
<g id="edge45" class="edge">
<title>Node27&#45;&gt;Node21</title>
<path fill="none" stroke="midnightblue" d="M1251.4,-341.48C1236.43,-331 1218.87,-318.71 1207.37,-310.66"/>
<polygon fill="midnightblue" stroke="midnightblue" points="1249.66,-344.53 1259.86,-347.4 1253.67,-338.8 1249.66,-344.53"/>
</g>
<!-- Node27&#45;&gt;Node24 -->
<g id="edge46" class="edge">
<title>Node27&#45;&gt;Node24</title>
<path fill="none" stroke="midnightblue" d="M1214.78,-346.52C1165.29,-335.15 1099.02,-319.92 1058.2,-310.55"/>
<polygon fill="midnightblue" stroke="midnightblue" points="1214.23,-349.98 1224.76,-348.81 1215.79,-343.16 1214.23,-349.98"/>
</g>
<!-- Node27&#45;&gt;Node25 -->
<g id="edge47" class="edge">
<title>Node27&#45;&gt;Node25</title>
<path fill="none" stroke="midnightblue" d="M1308.6,-341.48C1323.57,-331 1341.13,-318.71 1352.63,-310.66"/>
<polygon fill="midnightblue" stroke="midnightblue" points="1306.33,-338.8 1300.14,-347.4 1310.34,-344.53 1306.33,-338.8"/>
</g>
</g>
</svg>
