<?xml version="1.0" encoding="UTF-8" standalone="no"?>
<!DOCTYPE svg PUBLIC "-//W3C//DTD SVG 1.1//EN"
 "http://www.w3.org/Graphics/SVG/1.1/DTD/svg11.dtd">
<!-- Generated by graphviz version 2.43.0 (0)
 -->
<!-- Title: include/ccf/service/tables/acme_certificates.h Pages: 1 -->
<!--zoomable 531 -->
<svg id="main" version="1.1" xmlns="http://www.w3.org/2000/svg" xmlns:xlink="http://www.w3.org/1999/xlink" xml:space="preserve" onload="init(evt)">
<style type="text/css"><![CDATA[
.edge:hover path { stroke: red; }
.edge:hover polygon { stroke: red; fill: red; }
]]></style>
<script type="text/javascript"><![CDATA[
var edges = document.getElementsByTagName('g');
if (edges && edges.length) {
  for (var i=0;i<edges.length;i++) {
    if (edges[i].id.substr(0,4)=='edge') {
      edges[i].setAttribute('class','edge');
    }
  }
}
]]></script>
        <defs>
                <circle id="rim" cx="0" cy="0" r="7"/>
                <circle id="rim2" cx="0" cy="0" r="3.5"/>
                <g id="zoomPlus">
                        <use xlink:href="#rim" fill="#404040">
                                <set attributeName="fill" to="#808080" begin="zoomplus.mouseover" end="zoomplus.mouseout"/>
                        </use>
                        <path d="M-4,0h8M0,-4v8" fill="none" stroke="white" stroke-width="1.5" pointer-events="none"/>
                </g>
                <g id="zoomMin">
                        <use xlink:href="#rim" fill="#404040">
                                <set attributeName="fill" to="#808080" begin="zoomminus.mouseover" end="zoomminus.mouseout"/>
                        </use>
                        <path d="M-4,0h8" fill="none" stroke="white" stroke-width="1.5" pointer-events="none"/>
                </g>
                <g id="dirArrow">
                        <path fill="none" stroke="white" stroke-width="1.5" d="M0,-3.0v7 M-2.5,-0.5L0,-3.0L2.5,-0.5"/>
                </g>
               <g id="resetDef">
                       <use xlink:href="#rim2" fill="#404040">
                               <set attributeName="fill" to="#808080" begin="reset.mouseover" end="reset.mouseout"/>
                       </use>
               </g>
        </defs>

<script type="text/javascript">
var viewWidth = 1909;
var viewHeight = 531;
var sectionId = 'dynsection-1';
</script>
<script xlink:href="svgpan.js"/>
<svg id="graph" class="graph">
<g id="viewport">
<title>include/ccf/service/tables/acme_certificates.h</title>
<polygon fill="white" stroke="transparent" points="-4,4 -4,-527 1904.5,-527 1904.5,4 -4,4"/>
<!-- Node1 -->
<g id="node1" class="node">
<title>Node1</title>
<g id="a_node1"><a xlink:title=" ">
<polygon fill="#bfbfbf" stroke="black" points="776,-492.5 776,-522.5 924,-522.5 924,-492.5 776,-492.5"/>
<text text-anchor="start" x="784" y="-510.5" font-family="Helvetica,sans-Serif" font-size="10.00">include/ccf/service</text>
<text text-anchor="middle" x="850" y="-499.5" font-family="Helvetica,sans-Serif" font-size="10.00">/tables/acme_certificates.h</text>
</a>
</g>
</g>
<!-- Node2 -->
<g id="node2" class="node">
<title>Node2</title>
<g id="a_node2"><a xlink:href="ccf__acme__client_8h.html" target="_top" xlink:title=" ">
<polygon fill="white" stroke="black" points="1751.5,-230 1751.5,-249 1900.5,-249 1900.5,-230 1751.5,-230"/>
<text text-anchor="middle" x="1826" y="-237" font-family="Helvetica,sans-Serif" font-size="10.00">src/node/ccf_acme_client.h</text>
</a>
</g>
</g>
<!-- Node1&#45;&gt;Node2 -->
<g id="edge1" class="edge">
<title>Node1&#45;&gt;Node2</title>
<path fill="none" stroke="midnightblue" d="M934.12,-499.67C1077.42,-486.73 1377.24,-453.92 1623,-389 1703.52,-367.73 1740.14,-381.9 1798,-322 1817.96,-301.34 1823.73,-265.83 1825.37,-249.36"/>
<polygon fill="midnightblue" stroke="midnightblue" points="933.73,-496.2 924.08,-500.57 934.35,-503.17 933.73,-496.2"/>
</g>
<!-- Node3 -->
<g id="node3" class="node">
<title>Node3</title>
<g id="a_node3"><a xlink:href="node__state_8h.html" target="_top" xlink:title=" ">
<polygon fill="white" stroke="black" points="546,-168.5 546,-187.5 670,-187.5 670,-168.5 546,-168.5"/>
<text text-anchor="middle" x="608" y="-175.5" font-family="Helvetica,sans-Serif" font-size="10.00">src/node/node_state.h</text>
</a>
</g>
</g>
<!-- Node1&#45;&gt;Node3 -->
<g id="edge7" class="edge">
<title>Node1&#45;&gt;Node3</title>
<path fill="none" stroke="midnightblue" d="M765.4,-502.16C550.4,-490.02 0,-451.41 0,-374.5 0,-374.5 0,-374.5 0,-305.5 0,-259.99 22.09,-245.87 62,-224 103.57,-201.22 411.56,-186.63 545.78,-181.29"/>
<polygon fill="midnightblue" stroke="midnightblue" points="765.5,-505.67 775.68,-502.74 765.9,-498.68 765.5,-505.67"/>
</g>
<!-- Node7 -->
<g id="node7" class="node">
<title>Node7</title>
<g id="a_node7"><a xlink:href="network__tables_8h.html" target="_top" xlink:title=" ">
<polygon fill="white" stroke="black" points="794,-425.5 794,-455.5 906,-455.5 906,-425.5 794,-425.5"/>
<text text-anchor="start" x="802" y="-443.5" font-family="Helvetica,sans-Serif" font-size="10.00">src/service/network</text>
<text text-anchor="middle" x="850" y="-432.5" font-family="Helvetica,sans-Serif" font-size="10.00">_tables.h</text>
</a>
</g>
</g>
<!-- Node1&#45;&gt;Node7 -->
<g id="edge8" class="edge">
<title>Node1&#45;&gt;Node7</title>
<path fill="none" stroke="midnightblue" d="M850,-482.11C850,-473.15 850,-463.32 850,-455.58"/>
<polygon fill="midnightblue" stroke="midnightblue" points="846.5,-482.4 850,-492.4 853.5,-482.4 846.5,-482.4"/>
</g>
<!-- Node2&#45;&gt;Node3 -->
<g id="edge2" class="edge">
<title>Node2&#45;&gt;Node3</title>
<path fill="none" stroke="midnightblue" d="M1741.12,-229.99C1717.17,-227.8 1691.08,-225.61 1667,-224 1288.76,-198.73 833.52,-184.99 670.13,-180.59"/>
<polygon fill="midnightblue" stroke="midnightblue" points="1740.96,-233.49 1751.24,-230.93 1741.61,-226.52 1740.96,-233.49"/>
</g>
<!-- Node4 -->
<g id="node4" class="node">
<title>Node4</title>
<g id="a_node4"><a xlink:href="enclave_2enclave_8h.html" target="_top" xlink:title=" ">
<polygon fill="white" stroke="black" points="697,-56.5 697,-75.5 819,-75.5 819,-56.5 697,-56.5"/>
<text text-anchor="middle" x="758" y="-63.5" font-family="Helvetica,sans-Serif" font-size="10.00">src/enclave/enclave.h</text>
</a>
</g>
</g>
<!-- Node3&#45;&gt;Node4 -->
<g id="edge3" class="edge">
<title>Node3&#45;&gt;Node4</title>
<path fill="none" stroke="midnightblue" d="M608.97,-157.95C610.69,-143.6 615.21,-124.35 627,-112 645.35,-92.78 672.26,-81.77 696.93,-75.46"/>
<polygon fill="midnightblue" stroke="midnightblue" points="605.46,-157.92 608.12,-168.18 612.44,-158.51 605.46,-157.92"/>
</g>
<!-- Node6 -->
<g id="node6" class="node">
<title>Node6</title>
<g id="a_node6"><a xlink:href="gov__effects_8h.html" target="_top" xlink:title=" ">
<polygon fill="white" stroke="black" points="636,-112.5 636,-131.5 780,-131.5 780,-112.5 636,-112.5"/>
<text text-anchor="middle" x="708" y="-119.5" font-family="Helvetica,sans-Serif" font-size="10.00">src/node/rpc/gov_effects.h</text>
</a>
</g>
</g>
<!-- Node3&#45;&gt;Node6 -->
<g id="edge5" class="edge">
<title>Node3&#45;&gt;Node6</title>
<path fill="none" stroke="midnightblue" d="M633.09,-163.45C651.55,-153.48 676.1,-140.23 691.97,-131.65"/>
<polygon fill="midnightblue" stroke="midnightblue" points="631.2,-160.49 624.07,-168.32 634.53,-166.65 631.2,-160.49"/>
</g>
<!-- Node5 -->
<g id="node5" class="node">
<title>Node5</title>
<g id="a_node5"><a xlink:href="enclave_2main_8cpp.html" target="_top" xlink:title=" ">
<polygon fill="white" stroke="black" points="698,-0.5 698,-19.5 818,-19.5 818,-0.5 698,-0.5"/>
<text text-anchor="middle" x="758" y="-7.5" font-family="Helvetica,sans-Serif" font-size="10.00">src/enclave/main.cpp</text>
</a>
</g>
</g>
<!-- Node4&#45;&gt;Node5 -->
<g id="edge4" class="edge">
<title>Node4&#45;&gt;Node5</title>
<path fill="none" stroke="midnightblue" d="M758,-45.8C758,-36.91 758,-26.78 758,-19.75"/>
<polygon fill="midnightblue" stroke="midnightblue" points="754.5,-46.08 758,-56.08 761.5,-46.08 754.5,-46.08"/>
</g>
<!-- Node6&#45;&gt;Node4 -->
<g id="edge6" class="edge">
<title>Node6&#45;&gt;Node4</title>
<path fill="none" stroke="midnightblue" d="M723.08,-104.72C731.89,-95.2 742.67,-83.56 749.9,-75.75"/>
<polygon fill="midnightblue" stroke="midnightblue" points="720.48,-102.37 716.26,-112.08 725.62,-107.12 720.48,-102.37"/>
</g>
<!-- Node7&#45;&gt;Node2 -->
<g id="edge10" class="edge">
<title>Node7&#45;&gt;Node2</title>
<path fill="none" stroke="midnightblue" d="M916.23,-437.89C1102.19,-432.32 1624.96,-409.09 1769,-322 1797.81,-304.58 1815.8,-266.41 1822.74,-249.21"/>
<polygon fill="midnightblue" stroke="midnightblue" points="915.94,-434.4 906.05,-438.19 916.14,-441.39 915.94,-434.4"/>
</g>
<!-- Node8 -->
<g id="node8" class="node">
<title>Node8</title>
<g id="a_node8"><a xlink:href="kv__module__loader_8cpp.html" target="_top" xlink:title=" ">
<polygon fill="white" stroke="black" points="858.5,-358.5 858.5,-388.5 1001.5,-388.5 1001.5,-358.5 858.5,-358.5"/>
<text text-anchor="start" x="866.5" y="-376.5" font-family="Helvetica,sans-Serif" font-size="10.00">src/apps/js_v8/kv_module</text>
<text text-anchor="middle" x="930" y="-365.5" font-family="Helvetica,sans-Serif" font-size="10.00">_loader.cpp</text>
</a>
</g>
</g>
<!-- Node7&#45;&gt;Node8 -->
<g id="edge9" class="edge">
<title>Node7&#45;&gt;Node8</title>
<path fill="none" stroke="midnightblue" d="M875.37,-418.88C887.53,-409.01 901.78,-397.43 912.68,-388.58"/>
<polygon fill="midnightblue" stroke="midnightblue" points="872.91,-416.37 867.36,-425.4 877.33,-421.81 872.91,-416.37"/>
</g>
<!-- Node9 -->
<g id="node9" class="node">
<title>Node9</title>
<g id="a_node9"><a xlink:href="network__state_8h.html" target="_top" xlink:title=" ">
<polygon fill="white" stroke="black" points="700,-364 700,-383 840,-383 840,-364 700,-364"/>
<text text-anchor="middle" x="770" y="-371" font-family="Helvetica,sans-Serif" font-size="10.00">src/node/network_state.h</text>
</a>
</g>
</g>
<!-- Node7&#45;&gt;Node9 -->
<g id="edge11" class="edge">
<title>Node7&#45;&gt;Node9</title>
<path fill="none" stroke="midnightblue" d="M824.78,-419.01C809.93,-406.94 791.91,-392.3 780.7,-383.19"/>
<polygon fill="midnightblue" stroke="midnightblue" points="822.67,-421.81 832.64,-425.4 827.09,-416.37 822.67,-421.81"/>
</g>
<!-- Node26 -->
<g id="node26" class="node">
<title>Node26</title>
<g id="a_node26"><a xlink:href="genesis__gen_8h.html" target="_top" xlink:title=" ">
<polygon fill="white" stroke="black" points="248,-358.5 248,-388.5 358,-388.5 358,-358.5 248,-358.5"/>
<text text-anchor="start" x="256" y="-376.5" font-family="Helvetica,sans-Serif" font-size="10.00">src/service/genesis</text>
<text text-anchor="middle" x="303" y="-365.5" font-family="Helvetica,sans-Serif" font-size="10.00">_gen.h</text>
</a>
</g>
</g>
<!-- Node7&#45;&gt;Node26 -->
<g id="edge46" class="edge">
<title>Node7&#45;&gt;Node26</title>
<path fill="none" stroke="midnightblue" d="M783.55,-431.6C674.4,-418.63 459.19,-393.06 358.01,-381.04"/>
<polygon fill="midnightblue" stroke="midnightblue" points="783.43,-435.11 793.78,-432.82 784.26,-428.16 783.43,-435.11"/>
</g>
<!-- Node9&#45;&gt;Node3 -->
<g id="edge32" class="edge">
<title>Node9&#45;&gt;Node3</title>
<path fill="none" stroke="midnightblue" d="M769.17,-353.88C767.61,-336.42 763.24,-310.19 751,-291 718.95,-240.75 656.28,-203.65 625.67,-187.67"/>
<polygon fill="midnightblue" stroke="midnightblue" points="765.68,-354.18 769.83,-363.93 772.66,-353.72 765.68,-354.18"/>
</g>
<!-- Node9&#45;&gt;Node4 -->
<g id="edge12" class="edge">
<title>Node9&#45;&gt;Node4</title>
<path fill="none" stroke="midnightblue" d="M778.67,-354.5C789.89,-329.52 808,-282.65 808,-240.5 808,-240.5 808,-240.5 808,-177 808,-146.9 801.92,-139.18 789,-112 782.56,-98.46 772.26,-84.49 765.32,-75.78"/>
<polygon fill="midnightblue" stroke="midnightblue" points="775.39,-353.24 774.36,-363.79 781.74,-356.19 775.39,-353.24"/>
</g>
<!-- Node10 -->
<g id="node10" class="node">
<title>Node10</title>
<g id="a_node10"><a xlink:href="wrap_8h.html" target="_top" xlink:title=" ">
<polygon fill="white" stroke="black" points="1125,-297 1125,-316 1203,-316 1203,-297 1125,-297"/>
<text text-anchor="middle" x="1164" y="-304" font-family="Helvetica,sans-Serif" font-size="10.00">src/js/wrap.h</text>
</a>
</g>
</g>
<!-- Node9&#45;&gt;Node10 -->
<g id="edge13" class="edge">
<title>Node9&#45;&gt;Node10</title>
<path fill="none" stroke="midnightblue" d="M826.12,-362.18C834.13,-360.75 842.27,-359.32 850,-358 948.78,-341.11 1065.33,-322.78 1124.8,-313.55"/>
<polygon fill="midnightblue" stroke="midnightblue" points="825.31,-358.77 816.08,-363.99 826.55,-365.66 825.31,-358.77"/>
</g>
<!-- Node19 -->
<g id="node19" class="node">
<title>Node19</title>
<g id="a_node19"><a xlink:href="acme__challenge__frontend_8h.html" target="_top" xlink:title=" ">
<polygon fill="white" stroke="black" points="1620,-291.5 1620,-321.5 1760,-321.5 1760,-291.5 1620,-291.5"/>
<text text-anchor="start" x="1628" y="-309.5" font-family="Helvetica,sans-Serif" font-size="10.00">src/node/acme_challenge</text>
<text text-anchor="middle" x="1690" y="-298.5" font-family="Helvetica,sans-Serif" font-size="10.00">_frontend.h</text>
</a>
</g>
</g>
<!-- Node9&#45;&gt;Node19 -->
<g id="edge29" class="edge">
<title>Node9&#45;&gt;Node19</title>
<path fill="none" stroke="midnightblue" d="M821.78,-362.19C831.14,-360.59 840.84,-359.1 850,-358 1134.12,-323.83 1475.22,-312.39 1619.78,-308.89"/>
<polygon fill="midnightblue" stroke="midnightblue" points="821.03,-358.76 811.79,-363.95 822.25,-365.66 821.03,-358.76"/>
</g>
<!-- Node20 -->
<g id="node20" class="node">
<title>Node20</title>
<g id="a_node20"><a xlink:href="node__frontend_8h.html" target="_top" xlink:title=" ">
<polygon fill="white" stroke="black" points="66,-297 66,-316 224,-316 224,-297 66,-297"/>
<text text-anchor="middle" x="145" y="-304" font-family="Helvetica,sans-Serif" font-size="10.00">src/node/rpc/node_frontend.h</text>
</a>
</g>
</g>
<!-- Node9&#45;&gt;Node20 -->
<g id="edge33" class="edge">
<title>Node9&#45;&gt;Node20</title>
<path fill="none" stroke="midnightblue" d="M689.7,-364.67C591.24,-355 419.29,-337.88 272,-322 254.57,-320.12 235.8,-318.02 218.18,-316.02"/>
<polygon fill="midnightblue" stroke="midnightblue" points="689.58,-368.18 699.87,-365.67 690.26,-361.21 689.58,-368.18"/>
</g>
<!-- Node22 -->
<g id="node22" class="node">
<title>Node22</title>
<g id="a_node22"><a xlink:href="user__frontend_8h.html" target="_top" xlink:title=" ">
<polygon fill="white" stroke="black" points="836.5,-112.5 836.5,-131.5 991.5,-131.5 991.5,-112.5 836.5,-112.5"/>
<text text-anchor="middle" x="914" y="-119.5" font-family="Helvetica,sans-Serif" font-size="10.00">src/node/rpc/user_frontend.h</text>
</a>
</g>
</g>
<!-- Node9&#45;&gt;Node22 -->
<g id="edge37" class="edge">
<title>Node9&#45;&gt;Node22</title>
<path fill="none" stroke="midnightblue" d="M788.84,-357.41C799.59,-348.07 812.74,-335.35 822,-322 849.12,-282.93 845.06,-267.18 865,-224 880.93,-189.5 901.02,-148.96 909.69,-131.59"/>
<polygon fill="midnightblue" stroke="midnightblue" points="786.58,-354.73 781.18,-363.85 791.09,-360.09 786.58,-354.73"/>
</g>
<!-- Node23 -->
<g id="node23" class="node">
<title>Node23</title>
<g id="a_node23"><a xlink:href="secret__broadcast_8h.html" target="_top" xlink:title=" ">
<polygon fill="white" stroke="black" points="443.5,-297 443.5,-316 596.5,-316 596.5,-297 443.5,-297"/>
<text text-anchor="middle" x="520" y="-304" font-family="Helvetica,sans-Serif" font-size="10.00">src/node/secret_broadcast.h</text>
</a>
</g>
</g>
<!-- Node9&#45;&gt;Node23 -->
<g id="edge39" class="edge">
<title>Node9&#45;&gt;Node23</title>
<path fill="none" stroke="midnightblue" d="M727.32,-361.4C677.98,-348.58 597.83,-327.74 553.01,-316.08"/>
<polygon fill="midnightblue" stroke="midnightblue" points="726.5,-364.81 737.06,-363.94 728.26,-358.03 726.5,-364.81"/>
</g>
<!-- Node24 -->
<g id="node24" class="node">
<title>Node24</title>
<g id="a_node24"><a xlink:href="share__manager_8h.html" target="_top" xlink:title=" ">
<polygon fill="white" stroke="black" points="280.5,-297 280.5,-316 425.5,-316 425.5,-297 280.5,-297"/>
<text text-anchor="middle" x="353" y="-304" font-family="Helvetica,sans-Serif" font-size="10.00">src/node/share_manager.h</text>
</a>
</g>
</g>
<!-- Node9&#45;&gt;Node24 -->
<g id="edge41" class="edge">
<title>Node9&#45;&gt;Node24</title>
<path fill="none" stroke="midnightblue" d="M700.18,-362.5C632.36,-352.67 526.51,-336.99 435,-322 423.73,-320.15 411.61,-318.07 400.23,-316.06"/>
<polygon fill="midnightblue" stroke="midnightblue" points="699.92,-366 710.32,-363.97 700.93,-359.07 699.92,-366"/>
</g>
<!-- Node25 -->
<g id="node25" class="node">
<title>Node25</title>
<g id="a_node25"><a xlink:href="snapshotter_8h.html" target="_top" xlink:title=" ">
<polygon fill="white" stroke="black" points="614.5,-297 614.5,-316 741.5,-316 741.5,-297 614.5,-297"/>
<text text-anchor="middle" x="678" y="-304" font-family="Helvetica,sans-Serif" font-size="10.00">src/node/snapshotter.h</text>
</a>
</g>
</g>
<!-- Node9&#45;&gt;Node25 -->
<g id="edge44" class="edge">
<title>Node9&#45;&gt;Node25</title>
<path fill="none" stroke="midnightblue" d="M749.36,-357.92C731.18,-345.07 705.29,-326.78 690.21,-316.13"/>
<polygon fill="midnightblue" stroke="midnightblue" points="747.41,-360.82 757.59,-363.73 751.44,-355.1 747.41,-360.82"/>
</g>
<!-- Node10&#45;&gt;Node3 -->
<g id="edge26" class="edge">
<title>Node10&#45;&gt;Node3</title>
<path fill="none" stroke="midnightblue" d="M1114.76,-299.03C1055.2,-290.79 952.09,-275.16 865,-255 778.87,-235.07 679.02,-202.86 633.26,-187.58"/>
<polygon fill="midnightblue" stroke="midnightblue" points="1114.62,-302.55 1125,-300.44 1115.57,-295.61 1114.62,-302.55"/>
</g>
<!-- Node10&#45;&gt;Node4 -->
<g id="edge15" class="edge">
<title>Node10&#45;&gt;Node4</title>
<path fill="none" stroke="midnightblue" d="M1213.16,-304.23C1333.8,-300.62 1636.89,-288.28 1667,-255 1676.24,-244.78 1675.87,-234.54 1667,-224 1557.59,-94.07 1005.38,-71.67 819.31,-67.8"/>
<polygon fill="midnightblue" stroke="midnightblue" points="1212.98,-300.74 1203.08,-304.53 1213.18,-307.73 1212.98,-300.74"/>
</g>
<!-- Node11 -->
<g id="node11" class="node">
<title>Node11</title>
<g id="a_node11"><a xlink:href="js__generic__base_8cpp.html" target="_top" xlink:title=" ">
<polygon fill="white" stroke="black" points="874,-224.5 874,-254.5 992,-254.5 992,-224.5 874,-224.5"/>
<text text-anchor="start" x="882" y="-242.5" font-family="Helvetica,sans-Serif" font-size="10.00">src/apps/js_generic</text>
<text text-anchor="middle" x="933" y="-231.5" font-family="Helvetica,sans-Serif" font-size="10.00">/js_generic_base.cpp</text>
</a>
</g>
</g>
<!-- Node10&#45;&gt;Node11 -->
<g id="edge14" class="edge">
<title>Node10&#45;&gt;Node11</title>
<path fill="none" stroke="midnightblue" d="M1123.58,-294.13C1084.42,-283.11 1024.94,-266.37 982.85,-254.53"/>
<polygon fill="midnightblue" stroke="midnightblue" points="1122.75,-297.53 1133.32,-296.87 1124.65,-290.79 1122.75,-297.53"/>
</g>
<!-- Node12 -->
<g id="node12" class="node">
<title>Node12</title>
<g id="a_node12"><a xlink:href="js_2consensus_8cpp.html" target="_top" xlink:title=" ">
<polygon fill="white" stroke="black" points="1542,-230 1542,-249 1658,-249 1658,-230 1542,-230"/>
<text text-anchor="middle" x="1600" y="-237" font-family="Helvetica,sans-Serif" font-size="10.00">src/js/consensus.cpp</text>
</a>
</g>
</g>
<!-- Node10&#45;&gt;Node12 -->
<g id="edge16" class="edge">
<title>Node10&#45;&gt;Node12</title>
<path fill="none" stroke="midnightblue" d="M1213.48,-299.61C1283.64,-291.03 1415.97,-274.03 1528,-255 1538.31,-253.25 1549.4,-251.13 1559.72,-249.06"/>
<polygon fill="midnightblue" stroke="midnightblue" points="1212.68,-296.18 1203.17,-300.86 1213.52,-303.13 1212.68,-296.18"/>
</g>
<!-- Node13 -->
<g id="node13" class="node">
<title>Node13</title>
<g id="a_node13"><a xlink:href="wrap_8cpp.html" target="_top" xlink:title=" ">
<polygon fill="white" stroke="black" points="1240.5,-168.5 1240.5,-187.5 1329.5,-187.5 1329.5,-168.5 1240.5,-168.5"/>
<text text-anchor="middle" x="1285" y="-175.5" font-family="Helvetica,sans-Serif" font-size="10.00">src/js/wrap.cpp</text>
</a>
</g>
</g>
<!-- Node10&#45;&gt;Node13 -->
<g id="edge25" class="edge">
<title>Node10&#45;&gt;Node13</title>
<path fill="none" stroke="midnightblue" d="M1213.53,-305.49C1296.82,-304.29 1459.31,-296.55 1495,-255 1542.94,-199.19 1404.44,-184.36 1329.54,-180.42"/>
<polygon fill="midnightblue" stroke="midnightblue" points="1213.26,-301.99 1203.3,-305.61 1213.34,-308.99 1213.26,-301.99"/>
</g>
<!-- Node14 -->
<g id="node14" class="node">
<title>Node14</title>
<g id="a_node14"><a xlink:href="conv_8cpp.html" target="_top" xlink:title=" ">
<polygon fill="white" stroke="black" points="1010,-230 1010,-249 1098,-249 1098,-230 1010,-230"/>
<text text-anchor="middle" x="1054" y="-237" font-family="Helvetica,sans-Serif" font-size="10.00">src/js/conv.cpp</text>
</a>
</g>
</g>
<!-- Node10&#45;&gt;Node14 -->
<g id="edge18" class="edge">
<title>Node10&#45;&gt;Node14</title>
<path fill="none" stroke="midnightblue" d="M1140.5,-291.62C1118.71,-278.74 1086.96,-259.98 1068.6,-249.13"/>
<polygon fill="midnightblue" stroke="midnightblue" points="1138.78,-294.66 1149.16,-296.73 1142.34,-288.63 1138.78,-294.66"/>
</g>
<!-- Node15 -->
<g id="node15" class="node">
<title>Node15</title>
<g id="a_node15"><a xlink:href="js_2crypto_8cpp.html" target="_top" xlink:title=" ">
<polygon fill="white" stroke="black" points="1116,-230 1116,-249 1212,-249 1212,-230 1116,-230"/>
<text text-anchor="middle" x="1164" y="-237" font-family="Helvetica,sans-Serif" font-size="10.00">src/js/crypto.cpp</text>
</a>
</g>
</g>
<!-- Node10&#45;&gt;Node15 -->
<g id="edge20" class="edge">
<title>Node10&#45;&gt;Node15</title>
<path fill="none" stroke="midnightblue" d="M1164,-286.54C1164,-274.17 1164,-258.62 1164,-249.13"/>
<polygon fill="midnightblue" stroke="midnightblue" points="1160.5,-286.73 1164,-296.73 1167.5,-286.73 1160.5,-286.73"/>
</g>
<!-- Node16 -->
<g id="node16" class="node">
<title>Node16</title>
<g id="a_node16"><a xlink:href="js_2historical_8cpp.html" target="_top" xlink:title=" ">
<polygon fill="white" stroke="black" points="1230,-230 1230,-249 1340,-249 1340,-230 1230,-230"/>
<text text-anchor="middle" x="1285" y="-237" font-family="Helvetica,sans-Serif" font-size="10.00">src/js/historical.cpp</text>
</a>
</g>
</g>
<!-- Node10&#45;&gt;Node16 -->
<g id="edge22" class="edge">
<title>Node10&#45;&gt;Node16</title>
<path fill="none" stroke="midnightblue" d="M1189.21,-291.96C1213.2,-279.07 1248.56,-260.07 1268.94,-249.13"/>
<polygon fill="midnightblue" stroke="midnightblue" points="1187.47,-288.92 1180.32,-296.73 1190.78,-295.08 1187.47,-288.92"/>
</g>
<!-- Node17 -->
<g id="node17" class="node">
<title>Node17</title>
<g id="a_node17"><a xlink:href="openenclave_8cpp.html" target="_top" xlink:title=" ">
<polygon fill="white" stroke="black" points="1358,-230 1358,-249 1486,-249 1486,-230 1358,-230"/>
<text text-anchor="middle" x="1422" y="-237" font-family="Helvetica,sans-Serif" font-size="10.00">src/js/openenclave.cpp</text>
</a>
</g>
</g>
<!-- Node10&#45;&gt;Node17 -->
<g id="edge24" class="edge">
<title>Node10&#45;&gt;Node17</title>
<path fill="none" stroke="midnightblue" d="M1207.72,-294.48C1258.62,-281.66 1341.58,-260.76 1387.93,-249.08"/>
<polygon fill="midnightblue" stroke="midnightblue" points="1206.84,-291.1 1197.99,-296.94 1208.55,-297.89 1206.84,-291.1"/>
</g>
<!-- Node18 -->
<g id="node18" class="node">
<title>Node18</title>
<g id="a_node18"><a xlink:href="member__frontend_8h.html" target="_top" xlink:title=" ">
<polygon fill="white" stroke="black" points="337,-224.5 337,-254.5 457,-254.5 457,-224.5 337,-224.5"/>
<text text-anchor="start" x="345" y="-242.5" font-family="Helvetica,sans-Serif" font-size="10.00">src/node/rpc/member</text>
<text text-anchor="middle" x="397" y="-231.5" font-family="Helvetica,sans-Serif" font-size="10.00">_frontend.h</text>
</a>
</g>
</g>
<!-- Node10&#45;&gt;Node18 -->
<g id="edge27" class="edge">
<title>Node10&#45;&gt;Node18</title>
<path fill="none" stroke="midnightblue" d="M1114.87,-301.34C980.02,-289.91 604.43,-258.08 457.26,-245.61"/>
<polygon fill="midnightblue" stroke="midnightblue" points="1114.65,-304.83 1124.91,-302.19 1115.24,-297.86 1114.65,-304.83"/>
</g>
<!-- Node12&#45;&gt;Node13 -->
<g id="edge17" class="edge">
<title>Node12&#45;&gt;Node13</title>
<path fill="none" stroke="midnightblue" d="M1548.27,-227.98C1541.45,-226.62 1534.56,-225.27 1528,-224 1458.91,-210.65 1378.62,-195.93 1329.83,-187.08"/>
<polygon fill="midnightblue" stroke="midnightblue" points="1547.65,-231.43 1558.14,-229.96 1549.02,-224.56 1547.65,-231.43"/>
</g>
<!-- Node14&#45;&gt;Node13 -->
<g id="edge19" class="edge">
<title>Node14&#45;&gt;Node13</title>
<path fill="none" stroke="midnightblue" d="M1094.53,-227.33C1098.74,-226.19 1102.95,-225.07 1107,-224 1156.78,-210.9 1214.59,-196.42 1250.49,-187.51"/>
<polygon fill="midnightblue" stroke="midnightblue" points="1093.54,-223.97 1084.8,-229.96 1095.37,-230.72 1093.54,-223.97"/>
</g>
<!-- Node15&#45;&gt;Node13 -->
<g id="edge21" class="edge">
<title>Node15&#45;&gt;Node13</title>
<path fill="none" stroke="midnightblue" d="M1190.39,-225.52C1213.86,-213.98 1247.49,-197.44 1267.7,-187.51"/>
<polygon fill="midnightblue" stroke="midnightblue" points="1188.77,-222.42 1181.34,-229.98 1191.85,-228.7 1188.77,-222.42"/>
</g>
<!-- Node16&#45;&gt;Node13 -->
<g id="edge23" class="edge">
<title>Node16&#45;&gt;Node13</title>
<path fill="none" stroke="midnightblue" d="M1285,-219.82C1285,-209 1285,-195.9 1285,-187.51"/>
<polygon fill="midnightblue" stroke="midnightblue" points="1281.5,-219.98 1285,-229.98 1288.5,-219.98 1281.5,-219.98"/>
</g>
<!-- Node18&#45;&gt;Node4 -->
<g id="edge28" class="edge">
<title>Node18&#45;&gt;Node4</title>
<path fill="none" stroke="midnightblue" d="M425.52,-218.65C465.47,-191.56 541.07,-142.85 611,-112 647.51,-95.9 691.51,-83.25 721.8,-75.52"/>
<polygon fill="midnightblue" stroke="midnightblue" points="423.37,-215.88 417.09,-224.41 427.32,-221.66 423.37,-215.88"/>
</g>
<!-- Node19&#45;&gt;Node2 -->
<g id="edge31" class="edge">
<title>Node19&#45;&gt;Node2</title>
<path fill="none" stroke="midnightblue" d="M1728.78,-286.97C1754.9,-274.48 1788.13,-258.6 1808.2,-249.01"/>
<polygon fill="midnightblue" stroke="midnightblue" points="1727.02,-283.93 1719.51,-291.4 1730.04,-290.24 1727.02,-283.93"/>
</g>
<!-- Node19&#45;&gt;Node4 -->
<g id="edge30" class="edge">
<title>Node19&#45;&gt;Node4</title>
<path fill="none" stroke="midnightblue" d="M1693.13,-281.09C1694.18,-264.12 1693.22,-241.51 1684,-224 1626.7,-115.2 1551.94,-134.24 1431,-112 1208.43,-71.07 938.38,-66.29 819.37,-66.41"/>
<polygon fill="midnightblue" stroke="midnightblue" points="1689.63,-281.04 1692.23,-291.31 1696.6,-281.66 1689.63,-281.04"/>
</g>
<!-- Node20&#45;&gt;Node4 -->
<g id="edge34" class="edge">
<title>Node20&#45;&gt;Node4</title>
<path fill="none" stroke="midnightblue" d="M122.55,-291.21C99.37,-274.68 68.92,-246.8 87,-224 163.06,-128.09 546.23,-85.2 696.96,-71.84"/>
<polygon fill="midnightblue" stroke="midnightblue" points="120.74,-294.21 130.97,-296.96 124.69,-288.43 120.74,-294.21"/>
</g>
<!-- Node21 -->
<g id="node21" class="node">
<title>Node21</title>
<g id="a_node21"><a xlink:href="jwt__key__auto__refresh_8h.html" target="_top" xlink:title=" ">
<polygon fill="white" stroke="black" points="95.5,-224.5 95.5,-254.5 220.5,-254.5 220.5,-224.5 95.5,-224.5"/>
<text text-anchor="start" x="103.5" y="-242.5" font-family="Helvetica,sans-Serif" font-size="10.00">src/node/jwt_key_auto</text>
<text text-anchor="middle" x="158" y="-231.5" font-family="Helvetica,sans-Serif" font-size="10.00">_refresh.h</text>
</a>
</g>
</g>
<!-- Node20&#45;&gt;Node21 -->
<g id="edge35" class="edge">
<title>Node20&#45;&gt;Node21</title>
<path fill="none" stroke="midnightblue" d="M148.75,-286.74C150.8,-276.49 153.3,-264 155.18,-254.59"/>
<polygon fill="midnightblue" stroke="midnightblue" points="145.28,-286.24 146.75,-296.73 152.15,-287.61 145.28,-286.24"/>
</g>
<!-- Node21&#45;&gt;Node3 -->
<g id="edge36" class="edge">
<title>Node21&#45;&gt;Node3</title>
<path fill="none" stroke="midnightblue" d="M230.68,-228.89C318.16,-217.32 463.53,-198.1 545.96,-187.2"/>
<polygon fill="midnightblue" stroke="midnightblue" points="230.03,-225.45 220.57,-230.23 230.94,-232.39 230.03,-225.45"/>
</g>
<!-- Node22&#45;&gt;Node4 -->
<g id="edge38" class="edge">
<title>Node22&#45;&gt;Node4</title>
<path fill="none" stroke="midnightblue" d="M879.83,-109.17C850.46,-99 808.8,-84.59 782.6,-75.52"/>
<polygon fill="midnightblue" stroke="midnightblue" points="878.69,-112.48 889.28,-112.44 880.98,-105.86 878.69,-112.48"/>
</g>
<!-- Node23&#45;&gt;Node3 -->
<g id="edge40" class="edge">
<title>Node23&#45;&gt;Node3</title>
<path fill="none" stroke="midnightblue" d="M531.99,-288.26C551.03,-260.9 587.49,-208.49 601.91,-187.76"/>
<polygon fill="midnightblue" stroke="midnightblue" points="528.89,-286.6 526.05,-296.81 534.63,-290.59 528.89,-286.6"/>
</g>
<!-- Node24&#45;&gt;Node3 -->
<g id="edge42" class="edge">
<title>Node24&#45;&gt;Node3</title>
<path fill="none" stroke="midnightblue" d="M382.41,-293.04C405.38,-283.15 437.98,-268.74 466,-255 512.95,-231.98 567.08,-202.04 592.85,-187.57"/>
<polygon fill="midnightblue" stroke="midnightblue" points="381.02,-289.83 373.2,-296.99 383.77,-296.26 381.02,-289.83"/>
</g>
<!-- Node24&#45;&gt;Node18 -->
<g id="edge43" class="edge">
<title>Node24&#45;&gt;Node18</title>
<path fill="none" stroke="midnightblue" d="M364.61,-288.35C371.73,-277.82 380.75,-264.5 387.46,-254.59"/>
<polygon fill="midnightblue" stroke="midnightblue" points="361.64,-286.49 358.93,-296.73 367.44,-290.41 361.64,-286.49"/>
</g>
<!-- Node25&#45;&gt;Node3 -->
<g id="edge45" class="edge">
<title>Node25&#45;&gt;Node3</title>
<path fill="none" stroke="midnightblue" d="M668.26,-287.9C653.07,-260.44 624.27,-208.4 612.85,-187.76"/>
<polygon fill="midnightblue" stroke="midnightblue" points="665.28,-289.75 673.19,-296.81 671.41,-286.36 665.28,-289.75"/>
</g>
<!-- Node26&#45;&gt;Node3 -->
<g id="edge47" class="edge">
<title>Node26&#45;&gt;Node3</title>
<path fill="none" stroke="midnightblue" d="M237.55,-368.2C172.54,-362.41 79.4,-349.46 57,-322 33.96,-293.75 78.08,-230.34 87,-224 123.63,-197.96 415.26,-185.28 545.53,-180.87"/>
<polygon fill="midnightblue" stroke="midnightblue" points="237.46,-371.71 247.73,-369.07 238.06,-364.73 237.46,-371.71"/>
</g>
<!-- Node26&#45;&gt;Node18 -->
<g id="edge48" class="edge">
<title>Node26&#45;&gt;Node18</title>
<path fill="none" stroke="midnightblue" d="M283.59,-350C271.26,-332.85 259.75,-309.17 272,-291 286.66,-269.27 312.42,-256.89 336.76,-249.83"/>
<polygon fill="midnightblue" stroke="midnightblue" points="281.11,-352.52 289.98,-358.31 286.66,-348.25 281.11,-352.52"/>
</g>
<!-- Node26&#45;&gt;Node20 -->
<g id="edge49" class="edge">
<title>Node26&#45;&gt;Node20</title>
<path fill="none" stroke="midnightblue" d="M259.15,-354.46C228.62,-341.9 189.3,-325.72 165.68,-316.01"/>
<polygon fill="midnightblue" stroke="midnightblue" points="258.14,-357.83 268.72,-358.4 260.8,-351.35 258.14,-357.83"/>
</g>
<!-- Node26&#45;&gt;Node23 -->
<g id="edge50" class="edge">
<title>Node26&#45;&gt;Node23</title>
<path fill="none" stroke="midnightblue" d="M359.45,-355.59C401.83,-342.9 458.1,-326.04 491.53,-316.03"/>
<polygon fill="midnightblue" stroke="midnightblue" points="358.39,-352.25 349.82,-358.48 360.4,-358.96 358.39,-352.25"/>
</g>
<!-- Node26&#45;&gt;Node24 -->
<g id="edge51" class="edge">
<title>Node26&#45;&gt;Node24</title>
<path fill="none" stroke="midnightblue" d="M320.06,-350.32C329.08,-338.6 339.63,-324.88 346.31,-316.19"/>
<polygon fill="midnightblue" stroke="midnightblue" points="317.17,-348.34 313.85,-358.4 322.72,-352.6 317.17,-348.34"/>
</g>
</g>
</svg>
        <g id="navigator" transform="translate(0 0)" fill="#404254">
                <rect fill="#f2f5e9" fill-opacity="0.5" stroke="#606060" stroke-width=".5" x="0" y="0" width="60" height="60"/>
                <use id="zoomplus" xlink:href="#zoomPlus" x="17" y="9" onmousedown="handleZoom(evt,'in')"/>
                <use id="zoomminus" xlink:href="#zoomMin" x="42" y="9" onmousedown="handleZoom(evt,'out')"/>
                <use id="reset" xlink:href="#resetDef" x="30" y="36" onmousedown="handleReset()"/>
                <g id="arrowUp" xlink:href="#dirArrow" transform="translate(30 24)" onmousedown="handlePan(0,-1)">
                  <use xlink:href="#rim" fill="#404040">
                        <set attributeName="fill" to="#808080" begin="arrowUp.mouseover" end="arrowUp.mouseout"/>
                  </use>
                  <path fill="none" stroke="white" stroke-width="1.5" d="M0,-3.0v7 M-2.5,-0.5L0,-3.0L2.5,-0.5"/>
                </g>
                <g id="arrowRight" xlink:href="#dirArrow" transform="rotate(90) translate(36 -43)" onmousedown="handlePan(1,0)">
                  <use xlink:href="#rim" fill="#404040">
                        <set attributeName="fill" to="#808080" begin="arrowRight.mouseover" end="arrowRight.mouseout"/>
                  </use>
                  <path fill="none" stroke="white" stroke-width="1.5" d="M0,-3.0v7 M-2.5,-0.5L0,-3.0L2.5,-0.5"/>
                </g>
                <g id="arrowDown" xlink:href="#dirArrow" transform="rotate(180) translate(-30 -48)" onmousedown="handlePan(0,1)">
                  <use xlink:href="#rim" fill="#404040">
                        <set attributeName="fill" to="#808080" begin="arrowDown.mouseover" end="arrowDown.mouseout"/>
                  </use>
                  <path fill="none" stroke="white" stroke-width="1.5" d="M0,-3.0v7 M-2.5,-0.5L0,-3.0L2.5,-0.5"/>
                </g>
                <g id="arrowLeft" xlink:href="#dirArrow" transform="rotate(270) translate(-36 17)" onmousedown="handlePan(-1,0)">
                  <use xlink:href="#rim" fill="#404040">
                        <set attributeName="fill" to="#808080" begin="arrowLeft.mouseover" end="arrowLeft.mouseout"/>
                  </use>
                  <path fill="none" stroke="white" stroke-width="1.5" d="M0,-3.0v7 M-2.5,-0.5L0,-3.0L2.5,-0.5"/>
                </g>
        </g>
        <svg viewBox="0 0 15 15" width="100%" height="30px" preserveAspectRatio="xMaxYMin meet">
         <g id="arrow_out" transform="scale(0.3 0.3)">
          <a xlink:href="acme__certificates_8h__dep__incl_org.svg" target="_base">
           <rect id="button" ry="5" rx="5" y="6" x="6" height="38" width="38"
                fill="#f2f5e9" fill-opacity="0.5" stroke="#606060" stroke-width="1.0"/>
           <path id="arrow"
             d="M 11.500037,31.436501 C 11.940474,20.09759 22.043105,11.32322 32.158766,21.979434 L 37.068811,17.246167 C 37.068811,17.246167 37.088388,32 37.088388,32 L 22.160133,31.978069 C 22.160133,31.978069 26.997745,27.140456 26.997745,27.140456 C 18.528582,18.264221 13.291696,25.230495 11.500037,31.436501 z"
             style="fill:#404040;"/>
          </a>
         </g>
        </svg>
</svg>
