<?xml version="1.0" encoding="UTF-8" standalone="no"?>
<!DOCTYPE svg PUBLIC "-//W3C//DTD SVG 1.1//EN"
 "http://www.w3.org/Graphics/SVG/1.1/DTD/svg11.dtd">
<!-- Generated by graphviz version 2.43.0 (0)
 -->
<!-- Title: src/crypto/base64.cpp Pages: 1 -->
<!--zoomable 431 -->
<svg id="main" version="1.1" xmlns="http://www.w3.org/2000/svg" xmlns:xlink="http://www.w3.org/1999/xlink" xml:space="preserve" onload="init(evt)">
<style type="text/css"><![CDATA[
.edge:hover path { stroke: red; }
.edge:hover polygon { stroke: red; fill: red; }
]]></style>
<script type="text/javascript"><![CDATA[
var edges = document.getElementsByTagName('g');
if (edges && edges.length) {
  for (var i=0;i<edges.length;i++) {
    if (edges[i].id.substr(0,4)=='edge') {
      edges[i].setAttribute('class','edge');
    }
  }
}
]]></script>
        <defs>
                <circle id="rim" cx="0" cy="0" r="7"/>
                <circle id="rim2" cx="0" cy="0" r="3.5"/>
                <g id="zoomPlus">
                        <use xlink:href="#rim" fill="#404040">
                                <set attributeName="fill" to="#808080" begin="zoomplus.mouseover" end="zoomplus.mouseout"/>
                        </use>
                        <path d="M-4,0h8M0,-4v8" fill="none" stroke="white" stroke-width="1.5" pointer-events="none"/>
                </g>
                <g id="zoomMin">
                        <use xlink:href="#rim" fill="#404040">
                                <set attributeName="fill" to="#808080" begin="zoomminus.mouseover" end="zoomminus.mouseout"/>
                        </use>
                        <path d="M-4,0h8" fill="none" stroke="white" stroke-width="1.5" pointer-events="none"/>
                </g>
                <g id="dirArrow">
                        <path fill="none" stroke="white" stroke-width="1.5" d="M0,-3.0v7 M-2.5,-0.5L0,-3.0L2.5,-0.5"/>
                </g>
               <g id="resetDef">
                       <use xlink:href="#rim2" fill="#404040">
                               <set attributeName="fill" to="#808080" begin="reset.mouseover" end="reset.mouseout"/>
                       </use>
               </g>
        </defs>

<script type="text/javascript">
var viewWidth = 1503;
var viewHeight = 431;
var sectionId = 'dynsection-0';
</script>
<script xlink:href="svgpan.js"/>
<svg id="graph" class="graph">
<g id="viewport">
<title>src/crypto/base64.cpp</title>
<polygon fill="white" stroke="transparent" points="-4,4 -4,-427 1499.17,-427 1499.17,4 -4,4"/>
<!-- Node1 -->
<g id="node1" class="node">
<title>Node1</title>
<g id="a_node1"><a xlink:title=" ">
<polygon fill="#bfbfbf" stroke="black" points="374.67,-403.5 374.67,-422.5 497.67,-422.5 497.67,-403.5 374.67,-403.5"/>
<text text-anchor="middle" x="436.17" y="-410.5" font-family="Helvetica,sans-Serif" font-size="10.00">src/crypto/base64.cpp</text>
</a>
</g>
</g>
<!-- Node2 -->
<g id="node2" class="node">
<title>Node2</title>
<g id="a_node2"><a xlink:href="src_2crypto_2openssl_2base64_8h.html" target="_top" xlink:title=" ">
<polygon fill="white" stroke="black" points="832.67,-347.5 832.67,-366.5 933.67,-366.5 933.67,-347.5 832.67,-347.5"/>
<text text-anchor="middle" x="883.17" y="-354.5" font-family="Helvetica,sans-Serif" font-size="10.00">openssl/base64.h</text>
</a>
</g>
</g>
<!-- Node1&#45;&gt;Node2 -->
<g id="edge1" class="edge">
<title>Node1&#45;&gt;Node2</title>
<path fill="none" stroke="midnightblue" d="M497.85,-404.55C583.47,-394.21 737.36,-375.61 822.45,-365.33"/>
<polygon fill="midnightblue" stroke="midnightblue" points="822.97,-368.8 832.48,-364.12 822.13,-361.85 822.97,-368.8"/>
</g>
<!-- Node3 -->
<g id="node3" class="node">
<title>Node3</title>
<g id="a_node3"><a xlink:href="logger_8h.html" target="_top" xlink:title=" ">
<polygon fill="white" stroke="black" points="273.67,-168.5 273.67,-187.5 360.67,-187.5 360.67,-168.5 273.67,-168.5"/>
<text text-anchor="middle" x="317.17" y="-175.5" font-family="Helvetica,sans-Serif" font-size="10.00">ccf/ds/logger.h</text>
</a>
</g>
</g>
<!-- Node1&#45;&gt;Node3 -->
<g id="edge67" class="edge">
<title>Node1&#45;&gt;Node3</title>
<path fill="none" stroke="midnightblue" d="M388.48,-403.47C315.68,-387.38 181.07,-344.68 141.17,-244 120.85,-192.72 204.41,-180.84 263.33,-178.67"/>
<polygon fill="midnightblue" stroke="midnightblue" points="263.75,-182.16 273.64,-178.38 263.55,-175.17 263.75,-182.16"/>
</g>
<!-- Node2&#45;&gt;Node3 -->
<g id="edge2" class="edge">
<title>Node2&#45;&gt;Node3</title>
<path fill="none" stroke="midnightblue" d="M832.4,-356.35C681.62,-356.21 241.43,-346.83 153.17,-244 119.13,-204.34 203.33,-188.68 263.26,-182.63"/>
<polygon fill="midnightblue" stroke="midnightblue" points="263.77,-186.1 273.4,-181.68 263.11,-179.13 263.77,-186.1"/>
</g>
<!-- Node17 -->
<g id="node17" class="node">
<title>Node17</title>
<g id="a_node17"><a xlink:href="openssl__wrappers_8h.html" target="_top" xlink:title=" ">
<polygon fill="white" stroke="black" points="819.17,-280.5 819.17,-310.5 947.17,-310.5 947.17,-280.5 819.17,-280.5"/>
<text text-anchor="start" x="827.17" y="-298.5" font-family="Helvetica,sans-Serif" font-size="10.00">crypto/openssl/openssl</text>
<text text-anchor="middle" x="883.17" y="-287.5" font-family="Helvetica,sans-Serif" font-size="10.00">_wrappers.h</text>
</a>
</g>
</g>
<!-- Node2&#45;&gt;Node17 -->
<g id="edge18" class="edge">
<title>Node2&#45;&gt;Node17</title>
<path fill="none" stroke="midnightblue" d="M883.17,-347.48C883.17,-340.47 883.17,-330.19 883.17,-320.7"/>
<polygon fill="midnightblue" stroke="midnightblue" points="886.67,-320.52 883.17,-310.52 879.67,-320.52 886.67,-320.52"/>
</g>
<!-- Node21 -->
<g id="node21" class="node">
<title>Node21</title>
<g id="a_node21"><a xlink:title=" ">
<polygon fill="white" stroke="#bfbfbf" points="1380.17,-0.5 1380.17,-19.5 1424.17,-19.5 1424.17,-0.5 1380.17,-0.5"/>
<text text-anchor="middle" x="1402.17" y="-7.5" font-family="Helvetica,sans-Serif" font-size="10.00">string</text>
</a>
</g>
</g>
<!-- Node2&#45;&gt;Node21 -->
<g id="edge65" class="edge">
<title>Node2&#45;&gt;Node21</title>
<path fill="none" stroke="midnightblue" d="M933.77,-356.69C1080.4,-357.35 1495.17,-349.13 1495.17,-235 1495.17,-235 1495.17,-235 1495.17,-121 1495.17,-78.31 1453.82,-43.64 1426.26,-25.28"/>
<polygon fill="midnightblue" stroke="midnightblue" points="1427.84,-22.13 1417.53,-19.69 1424.06,-28.03 1427.84,-22.13"/>
</g>
<!-- Node22 -->
<g id="node22" class="node">
<title>Node22</title>
<g id="a_node22"><a xlink:title=" ">
<polygon fill="white" stroke="#bfbfbf" points="1013.67,-0.5 1013.67,-19.5 1060.67,-19.5 1060.67,-0.5 1013.67,-0.5"/>
<text text-anchor="middle" x="1037.17" y="-7.5" font-family="Helvetica,sans-Serif" font-size="10.00">vector</text>
</a>
</g>
</g>
<!-- Node2&#45;&gt;Node22 -->
<g id="edge66" class="edge">
<title>Node2&#45;&gt;Node22</title>
<path fill="none" stroke="midnightblue" d="M832.31,-355.94C695.23,-355.25 320.61,-349.76 204.17,-311 102.06,-277.01 1.17,-286.62 1.17,-179 1.17,-179 1.17,-179 1.17,-121 1.17,-90.9 -3.51,-74.58 20.17,-56 39.96,-40.47 829.34,-16.96 1003.43,-11.96"/>
<polygon fill="midnightblue" stroke="midnightblue" points="1003.65,-15.45 1013.54,-11.67 1003.45,-8.46 1003.65,-15.45"/>
</g>
<!-- Node40 -->
<g id="node40" class="node">
<title>Node40</title>
<g id="a_node40"><a xlink:title=" ">
<polygon fill="white" stroke="#bfbfbf" points="1210.67,-224.5 1210.67,-243.5 1289.67,-243.5 1289.67,-224.5 1210.67,-224.5"/>
<text text-anchor="middle" x="1250.17" y="-231.5" font-family="Helvetica,sans-Serif" font-size="10.00">openssl/err.h</text>
</a>
</g>
</g>
<!-- Node2&#45;&gt;Node40 -->
<g id="edge63" class="edge">
<title>Node2&#45;&gt;Node40</title>
<path fill="none" stroke="midnightblue" d="M908.98,-347.49C973.18,-326.32 1140.22,-271.25 1214.11,-246.89"/>
<polygon fill="midnightblue" stroke="midnightblue" points="1215.5,-250.12 1223.9,-243.66 1213.31,-243.47 1215.5,-250.12"/>
</g>
<!-- Node41 -->
<g id="node41" class="node">
<title>Node41</title>
<g id="a_node41"><a xlink:title=" ">
<polygon fill="white" stroke="#bfbfbf" points="1307.17,-224.5 1307.17,-243.5 1391.17,-243.5 1391.17,-224.5 1307.17,-224.5"/>
<text text-anchor="middle" x="1349.17" y="-231.5" font-family="Helvetica,sans-Serif" font-size="10.00">openssl/evp.h</text>
</a>
</g>
</g>
<!-- Node2&#45;&gt;Node41 -->
<g id="edge64" class="edge">
<title>Node2&#45;&gt;Node41</title>
<path fill="none" stroke="midnightblue" d="M923.31,-347.46C963.22,-338.82 1026.12,-324.8 1080.17,-311 1162.82,-289.9 1258.8,-261.94 1310.83,-246.49"/>
<polygon fill="midnightblue" stroke="midnightblue" points="1312.05,-249.78 1320.63,-243.58 1310.05,-243.07 1312.05,-249.78"/>
</g>
<!-- Node4 -->
<g id="node4" class="node">
<title>Node4</title>
<g id="a_node4"><a xlink:href="enum__formatter_8h.html" target="_top" xlink:title=" ">
<polygon fill="white" stroke="black" points="345.17,-112.5 345.17,-131.5 481.17,-131.5 481.17,-112.5 345.17,-112.5"/>
<text text-anchor="middle" x="413.17" y="-119.5" font-family="Helvetica,sans-Serif" font-size="10.00">ccf/ds/enum_formatter.h</text>
</a>
</g>
</g>
<!-- Node3&#45;&gt;Node4 -->
<g id="edge3" class="edge">
<title>Node3&#45;&gt;Node4</title>
<path fill="none" stroke="midnightblue" d="M332.59,-168.32C347.71,-159.82 370.99,-146.73 388.64,-136.8"/>
<polygon fill="midnightblue" stroke="midnightblue" points="390.78,-139.61 397.78,-131.65 387.35,-133.51 390.78,-139.61"/>
</g>
<!-- Node5 -->
<g id="node5" class="node">
<title>Node5</title>
<g id="a_node5"><a xlink:title=" ">
<polygon fill="white" stroke="#bfbfbf" points="507.67,-56.5 507.67,-75.5 586.67,-75.5 586.67,-56.5 507.67,-56.5"/>
<text text-anchor="middle" x="547.17" y="-63.5" font-family="Helvetica,sans-Serif" font-size="10.00">fmt/format.h</text>
</a>
</g>
</g>
<!-- Node3&#45;&gt;Node5 -->
<g id="edge12" class="edge">
<title>Node3&#45;&gt;Node5</title>
<path fill="none" stroke="midnightblue" d="M360.84,-172.86C397.61,-167.76 450.42,-156.52 490.17,-132 509.66,-119.98 526.17,-99.2 536.32,-84.37"/>
<polygon fill="midnightblue" stroke="midnightblue" points="539.49,-85.92 542.04,-75.63 533.64,-82.08 539.49,-85.92"/>
</g>
<!-- Node6 -->
<g id="node6" class="node">
<title>Node6</title>
<g id="a_node6"><a xlink:href="thread__ids_8h.html" target="_top" xlink:title=" ">
<polygon fill="white" stroke="black" points="181.17,-112.5 181.17,-131.5 289.17,-131.5 289.17,-112.5 181.17,-112.5"/>
<text text-anchor="middle" x="235.17" y="-119.5" font-family="Helvetica,sans-Serif" font-size="10.00">ccf/ds/thread_ids.h</text>
</a>
</g>
</g>
<!-- Node3&#45;&gt;Node6 -->
<g id="edge5" class="edge">
<title>Node3&#45;&gt;Node6</title>
<path fill="none" stroke="midnightblue" d="M303.99,-168.32C291.32,-159.98 271.94,-147.21 256.96,-137.35"/>
<polygon fill="midnightblue" stroke="midnightblue" points="258.59,-134.23 248.31,-131.65 254.74,-140.08 258.59,-134.23"/>
</g>
<!-- Node11 -->
<g id="node11" class="node">
<title>Node11</title>
<g id="a_node11"><a xlink:title=" ">
<polygon fill="white" stroke="#bfbfbf" points="613.67,-112.5 613.67,-131.5 692.67,-131.5 692.67,-112.5 613.67,-112.5"/>
<text text-anchor="middle" x="653.17" y="-119.5" font-family="Helvetica,sans-Serif" font-size="10.00">fmt/chrono.h</text>
</a>
</g>
</g>
<!-- Node3&#45;&gt;Node11 -->
<g id="edge11" class="edge">
<title>Node3&#45;&gt;Node11</title>
<path fill="none" stroke="midnightblue" d="M361.15,-170.08C416.64,-161.32 515.01,-145.73 599.17,-132 600.64,-131.76 602.12,-131.52 603.63,-131.27"/>
<polygon fill="midnightblue" stroke="midnightblue" points="604.36,-134.7 613.66,-129.62 603.22,-127.79 604.36,-134.7"/>
</g>
<!-- Node12 -->
<g id="node12" class="node">
<title>Node12</title>
<g id="a_node12"><a xlink:title=" ">
<polygon fill="white" stroke="#bfbfbf" points="29.17,-112.5 29.17,-131.5 89.17,-131.5 89.17,-112.5 29.17,-112.5"/>
<text text-anchor="middle" x="59.17" y="-119.5" font-family="Helvetica,sans-Serif" font-size="10.00">iostream</text>
</a>
</g>
</g>
<!-- Node3&#45;&gt;Node12 -->
<g id="edge13" class="edge">
<title>Node3&#45;&gt;Node12</title>
<path fill="none" stroke="midnightblue" d="M273.89,-168.43C231.74,-160.01 165.6,-146.6 99.19,-132.18"/>
<polygon fill="midnightblue" stroke="midnightblue" points="99.9,-128.76 89.39,-130.05 98.41,-135.6 99.9,-128.76"/>
</g>
<!-- Node13 -->
<g id="node13" class="node">
<title>Node13</title>
<g id="a_node13"><a xlink:title=" ">
<polygon fill="white" stroke="#bfbfbf" points="919.17,-56.5 919.17,-75.5 1029.17,-75.5 1029.17,-56.5 919.17,-56.5"/>
<text text-anchor="middle" x="974.17" y="-63.5" font-family="Helvetica,sans-Serif" font-size="10.00">nlohmann/json.hpp</text>
</a>
</g>
</g>
<!-- Node3&#45;&gt;Node13 -->
<g id="edge14" class="edge">
<title>Node3&#45;&gt;Node13</title>
<path fill="none" stroke="midnightblue" d="M354.73,-168.47C431.33,-151.08 598.94,-113.08 605.17,-112 710.84,-93.68 834.82,-80.18 908.8,-72.97"/>
<polygon fill="midnightblue" stroke="midnightblue" points="909.28,-76.43 918.9,-71.99 908.61,-69.47 909.28,-76.43"/>
</g>
<!-- Node14 -->
<g id="node14" class="node">
<title>Node14</title>
<g id="a_node14"><a xlink:title=" ">
<polygon fill="white" stroke="#bfbfbf" points="107.17,-112.5 107.17,-131.5 163.17,-131.5 163.17,-112.5 107.17,-112.5"/>
<text text-anchor="middle" x="135.17" y="-119.5" font-family="Helvetica,sans-Serif" font-size="10.00">optional</text>
</a>
</g>
</g>
<!-- Node3&#45;&gt;Node14 -->
<g id="edge15" class="edge">
<title>Node3&#45;&gt;Node14</title>
<path fill="none" stroke="midnightblue" d="M288.33,-168.44C257.13,-159.19 207.26,-144.39 172.95,-134.21"/>
<polygon fill="midnightblue" stroke="midnightblue" points="173.86,-130.83 163.28,-131.34 171.87,-137.54 173.86,-130.83"/>
</g>
<!-- Node15 -->
<g id="node15" class="node">
<title>Node15</title>
<g id="a_node15"><a xlink:title=" ">
<polygon fill="white" stroke="#bfbfbf" points="710.17,-112.5 710.17,-131.5 766.17,-131.5 766.17,-112.5 710.17,-112.5"/>
<text text-anchor="middle" x="738.17" y="-119.5" font-family="Helvetica,sans-Serif" font-size="10.00">sstream</text>
</a>
</g>
</g>
<!-- Node3&#45;&gt;Node15 -->
<g id="edge16" class="edge">
<title>Node3&#45;&gt;Node15</title>
<path fill="none" stroke="midnightblue" d="M360.74,-173.74C430.57,-168.13 571.95,-155.11 699.97,-132.23"/>
<polygon fill="midnightblue" stroke="midnightblue" points="700.73,-135.65 709.95,-130.42 699.48,-128.76 700.73,-135.65"/>
</g>
<!-- Node16 -->
<g id="node16" class="node">
<title>Node16</title>
<g id="a_node16"><a xlink:title=" ">
<polygon fill="white" stroke="#bfbfbf" points="615.67,-0.5 615.67,-19.5 684.67,-19.5 684.67,-0.5 615.67,-0.5"/>
<text text-anchor="middle" x="650.17" y="-7.5" font-family="Helvetica,sans-Serif" font-size="10.00">type_traits</text>
</a>
</g>
</g>
<!-- Node3&#45;&gt;Node16 -->
<g id="edge17" class="edge">
<title>Node3&#45;&gt;Node16</title>
<path fill="none" stroke="midnightblue" d="M317.29,-168.18C317.95,-154.38 321.23,-127.65 336.17,-112 408.32,-36.41 537.17,-17.26 605.21,-12.5"/>
<polygon fill="midnightblue" stroke="midnightblue" points="605.83,-15.97 615.59,-11.86 605.39,-8.98 605.83,-15.97"/>
</g>
<!-- Node4&#45;&gt;Node5 -->
<g id="edge4" class="edge">
<title>Node4&#45;&gt;Node5</title>
<path fill="none" stroke="midnightblue" d="M434.4,-112.44C456.55,-103.52 491.49,-89.44 516.61,-79.32"/>
<polygon fill="midnightblue" stroke="midnightblue" points="518.07,-82.5 526.04,-75.52 515.45,-76.01 518.07,-82.5"/>
</g>
<!-- Node6&#45;&gt;Node5 -->
<g id="edge6" class="edge">
<title>Node6&#45;&gt;Node5</title>
<path fill="none" stroke="midnightblue" d="M284.61,-112.44C342.8,-102.37 438.89,-85.74 497.28,-75.64"/>
<polygon fill="midnightblue" stroke="midnightblue" points="498.11,-79.04 507.37,-73.89 496.92,-72.15 498.11,-79.04"/>
</g>
<!-- Node7 -->
<g id="node7" class="node">
<title>Node7</title>
<g id="a_node7"><a xlink:title=" ">
<polygon fill="white" stroke="#bfbfbf" points="213.17,-56.5 213.17,-75.5 299.17,-75.5 299.17,-56.5 213.17,-56.5"/>
<text text-anchor="middle" x="256.17" y="-63.5" font-family="Helvetica,sans-Serif" font-size="10.00">fmt/ostream.h</text>
</a>
</g>
</g>
<!-- Node6&#45;&gt;Node7 -->
<g id="edge7" class="edge">
<title>Node6&#45;&gt;Node7</title>
<path fill="none" stroke="midnightblue" d="M238.64,-112.08C241.48,-104.77 245.6,-94.18 249.13,-85.1"/>
<polygon fill="midnightblue" stroke="midnightblue" points="252.4,-86.34 252.77,-75.75 245.88,-83.8 252.4,-86.34"/>
</g>
<!-- Node8 -->
<g id="node8" class="node">
<title>Node8</title>
<g id="a_node8"><a xlink:title=" ">
<polygon fill="white" stroke="#bfbfbf" points="29.17,-56.5 29.17,-75.5 73.17,-75.5 73.17,-56.5 29.17,-56.5"/>
<text text-anchor="middle" x="51.17" y="-63.5" font-family="Helvetica,sans-Serif" font-size="10.00">limits</text>
</a>
</g>
</g>
<!-- Node6&#45;&gt;Node8 -->
<g id="edge8" class="edge">
<title>Node6&#45;&gt;Node8</title>
<path fill="none" stroke="midnightblue" d="M206.01,-112.44C172.44,-102.59 117.48,-86.46 82.87,-76.3"/>
<polygon fill="midnightblue" stroke="midnightblue" points="83.84,-72.94 73.26,-73.48 81.87,-79.66 83.84,-72.94"/>
</g>
<!-- Node9 -->
<g id="node9" class="node">
<title>Node9</title>
<g id="a_node9"><a xlink:title=" ">
<polygon fill="white" stroke="#bfbfbf" points="91.17,-56.5 91.17,-75.5 129.17,-75.5 129.17,-56.5 91.17,-56.5"/>
<text text-anchor="middle" x="110.17" y="-63.5" font-family="Helvetica,sans-Serif" font-size="10.00">map</text>
</a>
</g>
</g>
<!-- Node6&#45;&gt;Node9 -->
<g id="edge9" class="edge">
<title>Node6&#45;&gt;Node9</title>
<path fill="none" stroke="midnightblue" d="M215.36,-112.44C194.76,-103.54 162.31,-89.52 138.89,-79.41"/>
<polygon fill="midnightblue" stroke="midnightblue" points="140.04,-76.09 129.47,-75.34 137.26,-82.52 140.04,-76.09"/>
</g>
<!-- Node10 -->
<g id="node10" class="node">
<title>Node10</title>
<g id="a_node10"><a xlink:title=" ">
<polygon fill="white" stroke="#bfbfbf" points="147.17,-56.5 147.17,-75.5 195.17,-75.5 195.17,-56.5 147.17,-56.5"/>
<text text-anchor="middle" x="171.17" y="-63.5" font-family="Helvetica,sans-Serif" font-size="10.00">thread</text>
</a>
</g>
</g>
<!-- Node6&#45;&gt;Node10 -->
<g id="edge10" class="edge">
<title>Node6&#45;&gt;Node10</title>
<path fill="none" stroke="midnightblue" d="M224.89,-112.32C215.33,-104.26 200.89,-92.08 189.39,-82.37"/>
<polygon fill="midnightblue" stroke="midnightblue" points="191.54,-79.61 181.64,-75.83 187.03,-84.96 191.54,-79.61"/>
</g>
<!-- Node17&#45;&gt;Node5 -->
<g id="edge52" class="edge">
<title>Node17&#45;&gt;Node5</title>
<path fill="none" stroke="midnightblue" d="M894.18,-280.26C904.49,-265.04 916.61,-240.85 904.17,-224 899.01,-217.01 612.48,-136.69 605.17,-132 585.75,-119.54 568.87,-98.84 558.41,-84.15"/>
<polygon fill="midnightblue" stroke="midnightblue" points="561.03,-81.79 552.5,-75.52 555.26,-85.74 561.03,-81.79"/>
</g>
<!-- Node18 -->
<g id="node18" class="node">
<title>Node18</title>
<g id="a_node18"><a xlink:href="pem_8h.html" target="_top" xlink:title=" ">
<polygon fill="white" stroke="black" points="1056.17,-224.5 1056.17,-243.5 1154.17,-243.5 1154.17,-224.5 1056.17,-224.5"/>
<text text-anchor="middle" x="1105.17" y="-231.5" font-family="Helvetica,sans-Serif" font-size="10.00">ccf/crypto/pem.h</text>
</a>
</g>
</g>
<!-- Node17&#45;&gt;Node18 -->
<g id="edge19" class="edge">
<title>Node17&#45;&gt;Node18</title>
<path fill="none" stroke="midnightblue" d="M935.5,-280.47C974.64,-269.99 1027.43,-255.84 1063.67,-246.12"/>
<polygon fill="midnightblue" stroke="midnightblue" points="1064.68,-249.48 1073.43,-243.51 1062.87,-242.71 1064.68,-249.48"/>
</g>
<!-- Node31 -->
<g id="node31" class="node">
<title>Node31</title>
<g id="a_node31"><a xlink:title=" ">
<polygon fill="white" stroke="#bfbfbf" points="1409.17,-168.5 1409.17,-187.5 1467.17,-187.5 1467.17,-168.5 1409.17,-168.5"/>
<text text-anchor="middle" x="1438.17" y="-175.5" font-family="Helvetica,sans-Serif" font-size="10.00">memory</text>
</a>
</g>
</g>
<!-- Node17&#45;&gt;Node31 -->
<g id="edge53" class="edge">
<title>Node17&#45;&gt;Node31</title>
<path fill="none" stroke="midnightblue" d="M947.34,-288.38C1004.98,-281.61 1091.34,-268.29 1163.17,-244 1181.62,-237.76 1183.74,-230.3 1202.17,-224 1284.74,-195.8 1309.57,-204.94 1395.17,-188 1396.43,-187.75 1397.72,-187.49 1399.01,-187.23"/>
<polygon fill="midnightblue" stroke="midnightblue" points="1399.94,-190.62 1409.04,-185.19 1398.55,-183.76 1399.94,-190.62"/>
</g>
<!-- Node33 -->
<g id="node33" class="node">
<title>Node33</title>
<g id="a_node33"><a xlink:title=" ">
<polygon fill="white" stroke="#bfbfbf" points="1000.17,-112.5 1000.17,-131.5 1050.17,-131.5 1050.17,-112.5 1000.17,-112.5"/>
<text text-anchor="middle" x="1025.17" y="-119.5" font-family="Helvetica,sans-Serif" font-size="10.00">chrono</text>
</a>
</g>
</g>
<!-- Node17&#45;&gt;Node33 -->
<g id="edge43" class="edge">
<title>Node17&#45;&gt;Node33</title>
<path fill="none" stroke="midnightblue" d="M907.07,-280.4C921.28,-271.24 939.04,-258.35 952.17,-244 981.58,-211.85 1005.32,-166.06 1017.1,-141.04"/>
<polygon fill="midnightblue" stroke="midnightblue" points="1020.41,-142.23 1021.4,-131.69 1014.04,-139.31 1020.41,-142.23"/>
</g>
<!-- Node34 -->
<g id="node34" class="node">
<title>Node34</title>
<g id="a_node34"><a xlink:href="x509__time__fmt_8h.html" target="_top" xlink:title=" ">
<polygon fill="white" stroke="black" points="803.17,-168.5 803.17,-187.5 917.17,-187.5 917.17,-168.5 803.17,-168.5"/>
<text text-anchor="middle" x="860.17" y="-175.5" font-family="Helvetica,sans-Serif" font-size="10.00">ds/x509_time_fmt.h</text>
</a>
</g>
</g>
<!-- Node17&#45;&gt;Node34 -->
<g id="edge44" class="edge">
<title>Node17&#45;&gt;Node34</title>
<path fill="none" stroke="midnightblue" d="M906.56,-280.44C926.18,-266.75 949.22,-244.99 937.17,-224 928.55,-208.99 912.78,-198.5 897.74,-191.46"/>
<polygon fill="midnightblue" stroke="midnightblue" points="899.11,-188.24 888.54,-187.51 896.35,-194.67 899.11,-188.24"/>
</g>
<!-- Node37 -->
<g id="node37" class="node">
<title>Node37</title>
<g id="a_node37"><a xlink:title=" ">
<polygon fill="white" stroke="#bfbfbf" points="161.67,-224.5 161.67,-243.5 250.67,-243.5 250.67,-224.5 161.67,-224.5"/>
<text text-anchor="middle" x="206.17" y="-231.5" font-family="Helvetica,sans-Serif" font-size="10.00">openssl/asn1.h</text>
</a>
</g>
</g>
<!-- Node17&#45;&gt;Node37 -->
<g id="edge54" class="edge">
<title>Node17&#45;&gt;Node37</title>
<path fill="none" stroke="midnightblue" d="M818.86,-291.08C707.41,-284.76 470.98,-269.62 260.9,-243.98"/>
<polygon fill="midnightblue" stroke="midnightblue" points="261.27,-240.5 250.92,-242.76 260.41,-247.45 261.27,-240.5"/>
</g>
<!-- Node38 -->
<g id="node38" class="node">
<title>Node38</title>
<g id="a_node38"><a xlink:title=" ">
<polygon fill="white" stroke="#bfbfbf" points="268.67,-224.5 268.67,-243.5 345.67,-243.5 345.67,-224.5 268.67,-224.5"/>
<text text-anchor="middle" x="307.17" y="-231.5" font-family="Helvetica,sans-Serif" font-size="10.00">openssl/ec.h</text>
</a>
</g>
</g>
<!-- Node17&#45;&gt;Node38 -->
<g id="edge55" class="edge">
<title>Node17&#45;&gt;Node38</title>
<path fill="none" stroke="midnightblue" d="M819.15,-290.24C721.49,-283.34 529.3,-268.14 355.97,-243.99"/>
<polygon fill="midnightblue" stroke="midnightblue" points="356.28,-240.5 345.89,-242.57 355.31,-247.43 356.28,-240.5"/>
</g>
<!-- Node39 -->
<g id="node39" class="node">
<title>Node39</title>
<g id="a_node39"><a xlink:title=" ">
<polygon fill="white" stroke="#bfbfbf" points="363.67,-224.5 363.67,-243.5 462.67,-243.5 462.67,-224.5 363.67,-224.5"/>
<text text-anchor="middle" x="413.17" y="-231.5" font-family="Helvetica,sans-Serif" font-size="10.00">openssl/engine.h</text>
</a>
</g>
</g>
<!-- Node17&#45;&gt;Node39 -->
<g id="edge56" class="edge">
<title>Node17&#45;&gt;Node39</title>
<path fill="none" stroke="midnightblue" d="M819.02,-287.2C740.14,-278.1 601.91,-261.72 472.8,-244.05"/>
<polygon fill="midnightblue" stroke="midnightblue" points="473.11,-240.56 462.73,-242.67 472.16,-247.5 473.11,-240.56"/>
</g>
<!-- Node17&#45;&gt;Node40 -->
<g id="edge57" class="edge">
<title>Node17&#45;&gt;Node40</title>
<path fill="none" stroke="midnightblue" d="M947.33,-284.25C1010.61,-274.11 1110.08,-258.12 1196.17,-244 1197.64,-243.76 1199.12,-243.52 1200.62,-243.27"/>
<polygon fill="midnightblue" stroke="midnightblue" points="1201.36,-246.69 1210.65,-241.61 1200.22,-239.79 1201.36,-246.69"/>
</g>
<!-- Node17&#45;&gt;Node41 -->
<g id="edge58" class="edge">
<title>Node17&#45;&gt;Node41</title>
<path fill="none" stroke="midnightblue" d="M947.46,-287.85C1027.25,-279.34 1167.71,-263.52 1296.85,-244.29"/>
<polygon fill="midnightblue" stroke="midnightblue" points="1297.54,-247.73 1306.92,-242.78 1296.51,-240.8 1297.54,-247.73"/>
</g>
<!-- Node42 -->
<g id="node42" class="node">
<title>Node42</title>
<g id="a_node42"><a xlink:title=" ">
<polygon fill="white" stroke="#bfbfbf" points="481.17,-224.5 481.17,-243.5 569.17,-243.5 569.17,-224.5 481.17,-224.5"/>
<text text-anchor="middle" x="525.17" y="-231.5" font-family="Helvetica,sans-Serif" font-size="10.00">openssl/pem.h</text>
</a>
</g>
</g>
<!-- Node17&#45;&gt;Node42 -->
<g id="edge59" class="edge">
<title>Node17&#45;&gt;Node42</title>
<path fill="none" stroke="midnightblue" d="M818.89,-283.94C759.39,-274.14 668.16,-259.07 579.39,-244.2"/>
<polygon fill="midnightblue" stroke="midnightblue" points="579.85,-240.73 569.41,-242.53 578.7,-247.63 579.85,-240.73"/>
</g>
<!-- Node43 -->
<g id="node43" class="node">
<title>Node43</title>
<g id="a_node43"><a xlink:title=" ">
<polygon fill="white" stroke="#bfbfbf" points="587.17,-224.5 587.17,-243.5 667.17,-243.5 667.17,-224.5 587.17,-224.5"/>
<text text-anchor="middle" x="627.17" y="-231.5" font-family="Helvetica,sans-Serif" font-size="10.00">openssl/ssl.h</text>
</a>
</g>
</g>
<!-- Node17&#45;&gt;Node43 -->
<g id="edge60" class="edge">
<title>Node17&#45;&gt;Node43</title>
<path fill="none" stroke="midnightblue" d="M822.83,-280.47C777.21,-269.87 715.52,-255.53 673.69,-245.81"/>
<polygon fill="midnightblue" stroke="midnightblue" points="674.3,-242.36 663.77,-243.51 672.72,-249.18 674.3,-242.36"/>
</g>
<!-- Node44 -->
<g id="node44" class="node">
<title>Node44</title>
<g id="a_node44"><a xlink:title=" ">
<polygon fill="white" stroke="#bfbfbf" points="685.17,-224.5 685.17,-243.5 775.17,-243.5 775.17,-224.5 685.17,-224.5"/>
<text text-anchor="middle" x="730.17" y="-231.5" font-family="Helvetica,sans-Serif" font-size="10.00">openssl/x509.h</text>
</a>
</g>
</g>
<!-- Node17&#45;&gt;Node44 -->
<g id="edge61" class="edge">
<title>Node17&#45;&gt;Node44</title>
<path fill="none" stroke="midnightblue" d="M846.91,-280.4C821.13,-270.37 786.81,-257.03 762.07,-247.4"/>
<polygon fill="midnightblue" stroke="midnightblue" points="763.02,-244.02 752.43,-243.66 760.48,-250.54 763.02,-244.02"/>
</g>
<!-- Node45 -->
<g id="node45" class="node">
<title>Node45</title>
<g id="a_node45"><a xlink:title=" ">
<polygon fill="white" stroke="#bfbfbf" points="793.17,-224.5 793.17,-243.5 895.17,-243.5 895.17,-224.5 793.17,-224.5"/>
<text text-anchor="middle" x="844.17" y="-231.5" font-family="Helvetica,sans-Serif" font-size="10.00">openssl/x509v3.h</text>
</a>
</g>
</g>
<!-- Node17&#45;&gt;Node45 -->
<g id="edge62" class="edge">
<title>Node17&#45;&gt;Node45</title>
<path fill="none" stroke="midnightblue" d="M873.93,-280.4C868.38,-271.93 861.28,-261.1 855.4,-252.14"/>
<polygon fill="midnightblue" stroke="midnightblue" points="858.25,-250.1 849.84,-243.66 852.4,-253.94 858.25,-250.1"/>
</g>
<!-- Node19 -->
<g id="node19" class="node">
<title>Node19</title>
<g id="a_node19"><a xlink:href="json_8h.html" target="_top" xlink:title=" ">
<polygon fill="white" stroke="black" points="1027.67,-168.5 1027.67,-187.5 1104.67,-187.5 1104.67,-168.5 1027.67,-168.5"/>
<text text-anchor="middle" x="1066.17" y="-175.5" font-family="Helvetica,sans-Serif" font-size="10.00">ccf/ds/json.h</text>
</a>
</g>
</g>
<!-- Node18&#45;&gt;Node19 -->
<g id="edge20" class="edge">
<title>Node18&#45;&gt;Node19</title>
<path fill="none" stroke="midnightblue" d="M1098.73,-224.08C1093.22,-216.46 1085.14,-205.26 1078.4,-195.94"/>
<polygon fill="midnightblue" stroke="midnightblue" points="1081.18,-193.81 1072.49,-187.75 1075.51,-197.91 1081.18,-193.81"/>
</g>
<!-- Node18&#45;&gt;Node22 -->
<g id="edge42" class="edge">
<title>Node18&#45;&gt;Node22</title>
<path fill="none" stroke="midnightblue" d="M1109.48,-224.26C1116.62,-210.56 1132.13,-183.97 1152.17,-168 1187.55,-139.81 1263.87,-148.52 1237.17,-112 1206.07,-69.45 1171.04,-100.11 1124.17,-76 1097.9,-62.49 1071.19,-41.17 1054.43,-26.66"/>
<polygon fill="midnightblue" stroke="midnightblue" points="1056.44,-23.76 1046.62,-19.77 1051.8,-29.01 1056.44,-23.76"/>
</g>
<!-- Node28 -->
<g id="node28" class="node">
<title>Node28</title>
<g id="a_node28"><a xlink:title=" ">
<polygon fill="white" stroke="#bfbfbf" points="1288.67,-0.5 1288.67,-19.5 1361.67,-19.5 1361.67,-0.5 1288.67,-0.5"/>
<text text-anchor="middle" x="1325.17" y="-7.5" font-family="Helvetica,sans-Serif" font-size="10.00">string_view</text>
</a>
</g>
</g>
<!-- Node18&#45;&gt;Node28 -->
<g id="edge41" class="edge">
<title>Node18&#45;&gt;Node28</title>
<path fill="none" stroke="midnightblue" d="M1154.32,-224.8C1228.46,-212.37 1360.49,-189.99 1362.17,-188 1399.91,-143.08 1381.96,-111.23 1362.17,-56 1358.23,-45 1350.31,-34.77 1342.81,-26.85"/>
<polygon fill="midnightblue" stroke="midnightblue" points="1345.19,-24.28 1335.61,-19.76 1340.28,-29.27 1345.19,-24.28"/>
</g>
<!-- Node29 -->
<g id="node29" class="node">
<title>Node29</title>
<g id="a_node29"><a xlink:title=" ">
<polygon fill="white" stroke="#bfbfbf" points="1161.17,-168.5 1161.17,-187.5 1211.17,-187.5 1211.17,-168.5 1161.17,-168.5"/>
<text text-anchor="middle" x="1186.17" y="-175.5" font-family="Helvetica,sans-Serif" font-size="10.00">cstring</text>
</a>
</g>
</g>
<!-- Node18&#45;&gt;Node29 -->
<g id="edge37" class="edge">
<title>Node18&#45;&gt;Node29</title>
<path fill="none" stroke="midnightblue" d="M1118.18,-224.32C1130.7,-215.98 1149.85,-203.21 1164.64,-193.35"/>
<polygon fill="midnightblue" stroke="midnightblue" points="1166.81,-196.11 1173.19,-187.65 1162.93,-190.29 1166.81,-196.11"/>
</g>
<!-- Node30 -->
<g id="node30" class="node">
<title>Node30</title>
<g id="a_node30"><a xlink:title=" ">
<polygon fill="white" stroke="#bfbfbf" points="1229.67,-168.5 1229.67,-187.5 1294.67,-187.5 1294.67,-168.5 1229.67,-168.5"/>
<text text-anchor="middle" x="1262.17" y="-175.5" font-family="Helvetica,sans-Serif" font-size="10.00">exception</text>
</a>
</g>
</g>
<!-- Node18&#45;&gt;Node30 -->
<g id="edge38" class="edge">
<title>Node18&#45;&gt;Node30</title>
<path fill="none" stroke="midnightblue" d="M1130.05,-224.44C1156.46,-215.36 1198.38,-200.94 1227.91,-190.78"/>
<polygon fill="midnightblue" stroke="midnightblue" points="1229.09,-194.08 1237.41,-187.52 1226.81,-187.46 1229.09,-194.08"/>
</g>
<!-- Node18&#45;&gt;Node31 -->
<g id="edge39" class="edge">
<title>Node18&#45;&gt;Node31</title>
<path fill="none" stroke="midnightblue" d="M1154.45,-225.67C1224.66,-215.18 1349.99,-196.23 1395.17,-188 1396.44,-187.77 1397.72,-187.53 1399.02,-187.28"/>
<polygon fill="midnightblue" stroke="midnightblue" points="1399.93,-190.67 1409.07,-185.31 1398.58,-183.8 1399.93,-190.67"/>
</g>
<!-- Node32 -->
<g id="node32" class="node">
<title>Node32</title>
<g id="a_node32"><a xlink:title=" ">
<polygon fill="white" stroke="#bfbfbf" points="1313.17,-168.5 1313.17,-187.5 1353.17,-187.5 1353.17,-168.5 1313.17,-168.5"/>
<text text-anchor="middle" x="1333.17" y="-175.5" font-family="Helvetica,sans-Serif" font-size="10.00">span</text>
</a>
</g>
</g>
<!-- Node18&#45;&gt;Node32 -->
<g id="edge40" class="edge">
<title>Node18&#45;&gt;Node32</title>
<path fill="none" stroke="midnightblue" d="M1147.33,-224.47C1185.64,-216.5 1243.9,-203.81 1303.06,-188.14"/>
<polygon fill="midnightblue" stroke="midnightblue" points="1304.19,-191.46 1312.95,-185.5 1302.38,-184.7 1304.19,-191.46"/>
</g>
<!-- Node19&#45;&gt;Node5 -->
<g id="edge35" class="edge">
<title>Node19&#45;&gt;Node5</title>
<path fill="none" stroke="midnightblue" d="M1068.27,-168.39C1071.11,-154.4 1074.24,-126.78 1059.17,-112 1026.59,-80.05 719.23,-70.43 596.97,-67.85"/>
<polygon fill="midnightblue" stroke="midnightblue" points="596.83,-64.35 586.76,-67.64 596.69,-71.35 596.83,-64.35"/>
</g>
<!-- Node19&#45;&gt;Node15 -->
<g id="edge36" class="edge">
<title>Node19&#45;&gt;Node15</title>
<path fill="none" stroke="midnightblue" d="M1027.58,-170.65C964.38,-160.24 839.53,-139.69 776.5,-129.31"/>
<polygon fill="midnightblue" stroke="midnightblue" points="777,-125.85 766.57,-127.68 775.87,-132.75 777,-125.85"/>
</g>
<!-- Node20 -->
<g id="node20" class="node">
<title>Node20</title>
<g id="a_node20"><a xlink:href="include_2ccf_2crypto_2base64_8h.html" target="_top" xlink:title=" ">
<polygon fill="white" stroke="black" points="1241.17,-56.5 1241.17,-75.5 1353.17,-75.5 1353.17,-56.5 1241.17,-56.5"/>
<text text-anchor="middle" x="1297.17" y="-63.5" font-family="Helvetica,sans-Serif" font-size="10.00">ccf/crypto/base64.h</text>
</a>
</g>
</g>
<!-- Node19&#45;&gt;Node20 -->
<g id="edge21" class="edge">
<title>Node19&#45;&gt;Node20</title>
<path fill="none" stroke="midnightblue" d="M1104.93,-173.11C1141.26,-168.06 1196,-156.76 1237.17,-132 1257.44,-119.81 1275.04,-98.76 1285.84,-83.92"/>
<polygon fill="midnightblue" stroke="midnightblue" points="1288.79,-85.82 1291.66,-75.62 1283.05,-81.8 1288.79,-85.82"/>
</g>
<!-- Node23 -->
<g id="node23" class="node">
<title>Node23</title>
<g id="a_node23"><a xlink:href="include_2ccf_2ds_2json__schema_8h.html" target="_top" xlink:title=" ">
<polygon fill="white" stroke="black" points="1106.67,-112.5 1106.67,-131.5 1227.67,-131.5 1227.67,-112.5 1106.67,-112.5"/>
<text text-anchor="middle" x="1167.17" y="-119.5" font-family="Helvetica,sans-Serif" font-size="10.00">ccf/ds/json_schema.h</text>
</a>
</g>
</g>
<!-- Node19&#45;&gt;Node23 -->
<g id="edge24" class="edge">
<title>Node19&#45;&gt;Node23</title>
<path fill="none" stroke="midnightblue" d="M1082.4,-168.32C1098.52,-159.7 1123.47,-146.36 1142.13,-136.39"/>
<polygon fill="midnightblue" stroke="midnightblue" points="1143.81,-139.46 1150.98,-131.65 1140.51,-133.28 1143.81,-139.46"/>
</g>
<!-- Node20&#45;&gt;Node21 -->
<g id="edge22" class="edge">
<title>Node20&#45;&gt;Node21</title>
<path fill="none" stroke="midnightblue" d="M1314.04,-56.32C1330.88,-47.66 1356.98,-34.24 1376.41,-24.25"/>
<polygon fill="midnightblue" stroke="midnightblue" points="1378.05,-27.34 1385.34,-19.65 1374.85,-21.12 1378.05,-27.34"/>
</g>
<!-- Node20&#45;&gt;Node22 -->
<g id="edge23" class="edge">
<title>Node20&#45;&gt;Node22</title>
<path fill="none" stroke="midnightblue" d="M1249.13,-56.49C1205.2,-48.49 1138.22,-35.71 1070.85,-20.02"/>
<polygon fill="midnightblue" stroke="midnightblue" points="1071.45,-16.57 1060.91,-17.69 1069.85,-23.38 1071.45,-16.57"/>
</g>
<!-- Node23&#45;&gt;Node5 -->
<g id="edge33" class="edge">
<title>Node23&#45;&gt;Node5</title>
<path fill="none" stroke="midnightblue" d="M1106.61,-113.54C1101.73,-113 1096.87,-112.48 1092.17,-112 909.9,-93.55 692.75,-77.34 596.87,-70.48"/>
<polygon fill="midnightblue" stroke="midnightblue" points="597.1,-66.99 586.88,-69.77 596.6,-73.97 597.1,-66.99"/>
</g>
<!-- Node23&#45;&gt;Node13 -->
<g id="edge34" class="edge">
<title>Node23&#45;&gt;Node13</title>
<path fill="none" stroke="midnightblue" d="M1136.59,-112.44C1103.56,-103.2 1050.78,-88.44 1014.4,-78.26"/>
<polygon fill="midnightblue" stroke="midnightblue" points="1015.18,-74.84 1004.61,-75.52 1013.3,-81.58 1015.18,-74.84"/>
</g>
<!-- Node24 -->
<g id="node24" class="node">
<title>Node24</title>
<g id="a_node24"><a xlink:href="nonstd_8h.html" target="_top" xlink:title=" ">
<polygon fill="white" stroke="black" points="1133.17,-56.5 1133.17,-75.5 1223.17,-75.5 1223.17,-56.5 1133.17,-56.5"/>
<text text-anchor="middle" x="1178.17" y="-63.5" font-family="Helvetica,sans-Serif" font-size="10.00">ccf/ds/nonstd.h</text>
</a>
</g>
</g>
<!-- Node23&#45;&gt;Node24 -->
<g id="edge25" class="edge">
<title>Node23&#45;&gt;Node24</title>
<path fill="none" stroke="midnightblue" d="M1168.99,-112.08C1170.44,-104.93 1172.54,-94.64 1174.36,-85.69"/>
<polygon fill="midnightblue" stroke="midnightblue" points="1177.82,-86.25 1176.39,-75.75 1170.96,-84.85 1177.82,-86.25"/>
</g>
<!-- Node24&#45;&gt;Node16 -->
<g id="edge31" class="edge">
<title>Node24&#45;&gt;Node16</title>
<path fill="none" stroke="midnightblue" d="M1133.15,-60.4C1033.32,-50.19 794.32,-25.74 694.82,-15.57"/>
<polygon fill="midnightblue" stroke="midnightblue" points="695.1,-12.08 684.8,-14.54 694.39,-19.04 695.1,-12.08"/>
</g>
<!-- Node24&#45;&gt;Node21 -->
<g id="edge29" class="edge">
<title>Node24&#45;&gt;Node21</title>
<path fill="none" stroke="midnightblue" d="M1217.5,-56.48C1254.55,-48.3 1311.81,-35.3 1370.11,-20.18"/>
<polygon fill="midnightblue" stroke="midnightblue" points="1371.07,-23.55 1379.86,-17.63 1369.3,-16.77 1371.07,-23.55"/>
</g>
<!-- Node24&#45;&gt;Node22 -->
<g id="edge32" class="edge">
<title>Node24&#45;&gt;Node22</title>
<path fill="none" stroke="midnightblue" d="M1155.83,-56.44C1132.42,-47.48 1095.43,-33.31 1068.98,-23.18"/>
<polygon fill="midnightblue" stroke="midnightblue" points="1070,-19.82 1059.41,-19.52 1067.49,-26.36 1070,-19.82"/>
</g>
<!-- Node25 -->
<g id="node25" class="node">
<title>Node25</title>
<g id="a_node25"><a xlink:title=" ">
<polygon fill="white" stroke="#bfbfbf" points="1146.17,-0.5 1146.17,-19.5 1210.17,-19.5 1210.17,-0.5 1146.17,-0.5"/>
<text text-anchor="middle" x="1178.17" y="-7.5" font-family="Helvetica,sans-Serif" font-size="10.00">algorithm</text>
</a>
</g>
</g>
<!-- Node24&#45;&gt;Node25 -->
<g id="edge26" class="edge">
<title>Node24&#45;&gt;Node25</title>
<path fill="none" stroke="midnightblue" d="M1178.17,-56.08C1178.17,-49.01 1178.17,-38.86 1178.17,-29.99"/>
<polygon fill="midnightblue" stroke="midnightblue" points="1181.67,-29.75 1178.17,-19.75 1174.67,-29.75 1181.67,-29.75"/>
</g>
<!-- Node26 -->
<g id="node26" class="node">
<title>Node26</title>
<g id="a_node26"><a xlink:title=" ">
<polygon fill="white" stroke="#bfbfbf" points="1228.17,-0.5 1228.17,-19.5 1270.17,-19.5 1270.17,-0.5 1228.17,-0.5"/>
<text text-anchor="middle" x="1249.17" y="-7.5" font-family="Helvetica,sans-Serif" font-size="10.00">array</text>
</a>
</g>
</g>
<!-- Node24&#45;&gt;Node26 -->
<g id="edge27" class="edge">
<title>Node24&#45;&gt;Node26</title>
<path fill="none" stroke="midnightblue" d="M1189.58,-56.32C1200.28,-48.18 1216.51,-35.84 1229.33,-26.09"/>
<polygon fill="midnightblue" stroke="midnightblue" points="1231.71,-28.67 1237.55,-19.83 1227.48,-23.1 1231.71,-28.67"/>
</g>
<!-- Node27 -->
<g id="node27" class="node">
<title>Node27</title>
<g id="a_node27"><a xlink:title=" ">
<polygon fill="white" stroke="#bfbfbf" points="1078.67,-0.5 1078.67,-19.5 1127.67,-19.5 1127.67,-0.5 1078.67,-0.5"/>
<text text-anchor="middle" x="1103.17" y="-7.5" font-family="Helvetica,sans-Serif" font-size="10.00">cctype</text>
</a>
</g>
</g>
<!-- Node24&#45;&gt;Node27 -->
<g id="edge28" class="edge">
<title>Node24&#45;&gt;Node27</title>
<path fill="none" stroke="midnightblue" d="M1166.12,-56.32C1154.71,-48.11 1137.34,-35.6 1123.73,-25.81"/>
<polygon fill="midnightblue" stroke="midnightblue" points="1125.6,-22.84 1115.44,-19.83 1121.51,-28.52 1125.6,-22.84"/>
</g>
<!-- Node24&#45;&gt;Node28 -->
<g id="edge30" class="edge">
<title>Node24&#45;&gt;Node28</title>
<path fill="none" stroke="midnightblue" d="M1201.46,-56.44C1225.98,-47.44 1264.77,-33.19 1292.37,-23.05"/>
<polygon fill="midnightblue" stroke="midnightblue" points="1293.81,-26.25 1301.99,-19.52 1291.39,-19.68 1293.81,-26.25"/>
</g>
<!-- Node34&#45;&gt;Node5 -->
<g id="edge47" class="edge">
<title>Node34&#45;&gt;Node5</title>
<path fill="none" stroke="midnightblue" d="M851.64,-168.27C837.26,-154.08 806.67,-126.21 775.17,-112 717.27,-85.87 644.34,-74.86 596.78,-70.26"/>
<polygon fill="midnightblue" stroke="midnightblue" points="597.01,-66.76 586.73,-69.34 596.38,-73.73 597.01,-66.76"/>
</g>
<!-- Node34&#45;&gt;Node11 -->
<g id="edge46" class="edge">
<title>Node34&#45;&gt;Node11</title>
<path fill="none" stroke="midnightblue" d="M827.37,-168.44C791.79,-159.16 734.86,-144.31 695.82,-134.13"/>
<polygon fill="midnightblue" stroke="midnightblue" points="696.38,-130.65 685.82,-131.52 694.61,-137.43 696.38,-130.65"/>
</g>
<!-- Node34&#45;&gt;Node15 -->
<g id="edge49" class="edge">
<title>Node34&#45;&gt;Node15</title>
<path fill="none" stroke="midnightblue" d="M840.84,-168.44C820.85,-159.6 789.43,-145.69 766.61,-135.59"/>
<polygon fill="midnightblue" stroke="midnightblue" points="767.97,-132.36 757.41,-131.52 765.14,-138.76 767.97,-132.36"/>
</g>
<!-- Node34&#45;&gt;Node22 -->
<g id="edge51" class="edge">
<title>Node34&#45;&gt;Node22</title>
<path fill="none" stroke="midnightblue" d="M856.12,-168.2C850.81,-155.32 843.08,-130.84 851.17,-112 865.44,-78.78 879.35,-74.89 910.17,-56 939.4,-38.08 976.78,-25.93 1003.4,-18.82"/>
<polygon fill="midnightblue" stroke="midnightblue" points="1004.58,-22.13 1013.39,-16.25 1002.83,-15.35 1004.58,-22.13"/>
</g>
<!-- Node34&#45;&gt;Node33 -->
<g id="edge45" class="edge">
<title>Node34&#45;&gt;Node33</title>
<path fill="none" stroke="midnightblue" d="M886.31,-168.44C914.44,-159.24 959.3,-144.56 990.39,-134.38"/>
<polygon fill="midnightblue" stroke="midnightblue" points="991.54,-137.69 999.96,-131.25 989.37,-131.03 991.54,-137.69"/>
</g>
<!-- Node35 -->
<g id="node35" class="node">
<title>Node35</title>
<g id="a_node35"><a xlink:title=" ">
<polygon fill="white" stroke="#bfbfbf" points="860.17,-112.5 860.17,-131.5 916.17,-131.5 916.17,-112.5 860.17,-112.5"/>
<text text-anchor="middle" x="888.17" y="-119.5" font-family="Helvetica,sans-Serif" font-size="10.00">iomanip</text>
</a>
</g>
</g>
<!-- Node34&#45;&gt;Node35 -->
<g id="edge48" class="edge">
<title>Node34&#45;&gt;Node35</title>
<path fill="none" stroke="midnightblue" d="M864.79,-168.08C868.63,-160.69 874.19,-149.95 878.93,-140.81"/>
<polygon fill="midnightblue" stroke="midnightblue" points="882.14,-142.24 883.63,-131.75 875.92,-139.02 882.14,-142.24"/>
</g>
<!-- Node36 -->
<g id="node36" class="node">
<title>Node36</title>
<g id="a_node36"><a xlink:title=" ">
<polygon fill="white" stroke="#bfbfbf" points="934.17,-112.5 934.17,-131.5 982.17,-131.5 982.17,-112.5 934.17,-112.5"/>
<text text-anchor="middle" x="958.17" y="-119.5" font-family="Helvetica,sans-Serif" font-size="10.00">time.h</text>
</a>
</g>
</g>
<!-- Node34&#45;&gt;Node36 -->
<g id="edge50" class="edge">
<title>Node34&#45;&gt;Node36</title>
<path fill="none" stroke="midnightblue" d="M875.92,-168.32C891.49,-159.74 915.55,-146.49 933.63,-136.52"/>
<polygon fill="midnightblue" stroke="midnightblue" points="935.39,-139.55 942.46,-131.65 932.02,-133.42 935.39,-139.55"/>
</g>
</g>
</svg>
        <g id="navigator" transform="translate(0 0)" fill="#404254">
                <rect fill="#f2f5e9" fill-opacity="0.5" stroke="#606060" stroke-width=".5" x="0" y="0" width="60" height="60"/>
                <use id="zoomplus" xlink:href="#zoomPlus" x="17" y="9" onmousedown="handleZoom(evt,'in')"/>
                <use id="zoomminus" xlink:href="#zoomMin" x="42" y="9" onmousedown="handleZoom(evt,'out')"/>
                <use id="reset" xlink:href="#resetDef" x="30" y="36" onmousedown="handleReset()"/>
                <g id="arrowUp" xlink:href="#dirArrow" transform="translate(30 24)" onmousedown="handlePan(0,-1)">
                  <use xlink:href="#rim" fill="#404040">
                        <set attributeName="fill" to="#808080" begin="arrowUp.mouseover" end="arrowUp.mouseout"/>
                  </use>
                  <path fill="none" stroke="white" stroke-width="1.5" d="M0,-3.0v7 M-2.5,-0.5L0,-3.0L2.5,-0.5"/>
                </g>
                <g id="arrowRight" xlink:href="#dirArrow" transform="rotate(90) translate(36 -43)" onmousedown="handlePan(1,0)">
                  <use xlink:href="#rim" fill="#404040">
                        <set attributeName="fill" to="#808080" begin="arrowRight.mouseover" end="arrowRight.mouseout"/>
                  </use>
                  <path fill="none" stroke="white" stroke-width="1.5" d="M0,-3.0v7 M-2.5,-0.5L0,-3.0L2.5,-0.5"/>
                </g>
                <g id="arrowDown" xlink:href="#dirArrow" transform="rotate(180) translate(-30 -48)" onmousedown="handlePan(0,1)">
                  <use xlink:href="#rim" fill="#404040">
                        <set attributeName="fill" to="#808080" begin="arrowDown.mouseover" end="arrowDown.mouseout"/>
                  </use>
                  <path fill="none" stroke="white" stroke-width="1.5" d="M0,-3.0v7 M-2.5,-0.5L0,-3.0L2.5,-0.5"/>
                </g>
                <g id="arrowLeft" xlink:href="#dirArrow" transform="rotate(270) translate(-36 17)" onmousedown="handlePan(-1,0)">
                  <use xlink:href="#rim" fill="#404040">
                        <set attributeName="fill" to="#808080" begin="arrowLeft.mouseover" end="arrowLeft.mouseout"/>
                  </use>
                  <path fill="none" stroke="white" stroke-width="1.5" d="M0,-3.0v7 M-2.5,-0.5L0,-3.0L2.5,-0.5"/>
                </g>
        </g>
        <svg viewBox="0 0 15 15" width="100%" height="30px" preserveAspectRatio="xMaxYMin meet">
         <g id="arrow_out" transform="scale(0.3 0.3)">
          <a xlink:href="base64_8cpp__incl_org.svg" target="_base">
           <rect id="button" ry="5" rx="5" y="6" x="6" height="38" width="38"
                fill="#f2f5e9" fill-opacity="0.5" stroke="#606060" stroke-width="1.0"/>
           <path id="arrow"
             d="M 11.500037,31.436501 C 11.940474,20.09759 22.043105,11.32322 32.158766,21.979434 L 37.068811,17.246167 C 37.068811,17.246167 37.088388,32 37.088388,32 L 22.160133,31.978069 C 22.160133,31.978069 26.997745,27.140456 26.997745,27.140456 C 18.528582,18.264221 13.291696,25.230495 11.500037,31.436501 z"
             style="fill:#404040;"/>
          </a>
         </g>
        </svg>
</svg>
