<?xml version="1.0" encoding="UTF-8" standalone="no"?>
<!DOCTYPE svg PUBLIC "-//W3C//DTD SVG 1.1//EN"
 "http://www.w3.org/Graphics/SVG/1.1/DTD/svg11.dtd">
<!-- Generated by graphviz version 2.43.0 (0)
 -->
<!-- Title: include/ccf/ccf_assert.h Pages: 1 -->
<svg width="847pt" height="196pt"
 viewBox="0.00 0.00 846.50 196.00" xmlns="http://www.w3.org/2000/svg" xmlns:xlink="http://www.w3.org/1999/xlink">
<g id="graph0" class="graph" transform="scale(1 1) rotate(0) translate(4 192)">
<title>include/ccf/ccf_assert.h</title>
<polygon fill="white" stroke="transparent" points="-4,4 -4,-192 842.5,-192 842.5,4 -4,4"/>
<!-- Node1 -->
<g id="node1" class="node">
<title>Node1</title>
<g id="a_node1"><a xlink:title=" ">
<polygon fill="#bfbfbf" stroke="black" points="379.5,-168.5 379.5,-187.5 510.5,-187.5 510.5,-168.5 379.5,-168.5"/>
<text text-anchor="middle" x="445" y="-175.5" font-family="Helvetica,sans-Serif" font-size="10.00">include/ccf/ccf_assert.h</text>
</a>
</g>
</g>
<!-- Node2 -->
<g id="node2" class="node">
<title>Node2</title>
<g id="a_node2"><a xlink:href="logger_8h.html" target="_top" xlink:title=" ">
<polygon fill="white" stroke="black" points="401.5,-112.5 401.5,-131.5 488.5,-131.5 488.5,-112.5 401.5,-112.5"/>
<text text-anchor="middle" x="445" y="-119.5" font-family="Helvetica,sans-Serif" font-size="10.00">ccf/ds/logger.h</text>
</a>
</g>
</g>
<!-- Node1&#45;&gt;Node2 -->
<g id="edge1" class="edge">
<title>Node1&#45;&gt;Node2</title>
<path fill="none" stroke="midnightblue" d="M445,-168.08C445,-161.01 445,-150.86 445,-141.99"/>
<polygon fill="midnightblue" stroke="midnightblue" points="448.5,-141.75 445,-131.75 441.5,-141.75 448.5,-141.75"/>
</g>
<!-- Node3 -->
<g id="node3" class="node">
<title>Node3</title>
<g id="a_node3"><a xlink:href="enum__formatter_8h.html" target="_top" xlink:title=" ">
<polygon fill="white" stroke="black" points="0,-56.5 0,-75.5 136,-75.5 136,-56.5 0,-56.5"/>
<text text-anchor="middle" x="68" y="-63.5" font-family="Helvetica,sans-Serif" font-size="10.00">ccf/ds/enum_formatter.h</text>
</a>
</g>
</g>
<!-- Node2&#45;&gt;Node3 -->
<g id="edge2" class="edge">
<title>Node2&#45;&gt;Node3</title>
<path fill="none" stroke="midnightblue" d="M401.39,-114.75C336.74,-105.49 214.85,-88.03 137.72,-76.99"/>
<polygon fill="midnightblue" stroke="midnightblue" points="138.01,-73.49 127.61,-75.54 137.02,-80.42 138.01,-73.49"/>
</g>
<!-- Node4 -->
<g id="node4" class="node">
<title>Node4</title>
<g id="a_node4"><a xlink:title=" ">
<polygon fill="white" stroke="#bfbfbf" points="28.5,-0.5 28.5,-19.5 107.5,-19.5 107.5,-0.5 28.5,-0.5"/>
<text text-anchor="middle" x="68" y="-7.5" font-family="Helvetica,sans-Serif" font-size="10.00">fmt/format.h</text>
</a>
</g>
</g>
<!-- Node2&#45;&gt;Node4 -->
<g id="edge11" class="edge">
<title>Node2&#45;&gt;Node4</title>
<path fill="none" stroke="midnightblue" d="M401.18,-118.09C348.19,-113.54 256.91,-102.33 183,-76 173.46,-72.6 122.29,-42.92 91.51,-24.86"/>
<polygon fill="midnightblue" stroke="midnightblue" points="93.08,-21.72 82.68,-19.67 89.53,-27.76 93.08,-21.72"/>
</g>
<!-- Node5 -->
<g id="node5" class="node">
<title>Node5</title>
<g id="a_node5"><a xlink:href="thread__ids_8h.html" target="_top" xlink:title=" ">
<polygon fill="white" stroke="black" points="192,-56.5 192,-75.5 300,-75.5 300,-56.5 192,-56.5"/>
<text text-anchor="middle" x="246" y="-63.5" font-family="Helvetica,sans-Serif" font-size="10.00">ccf/ds/thread_ids.h</text>
</a>
</g>
</g>
<!-- Node2&#45;&gt;Node5 -->
<g id="edge4" class="edge">
<title>Node2&#45;&gt;Node5</title>
<path fill="none" stroke="midnightblue" d="M413.47,-112.44C379.41,-103.2 324.99,-88.44 287.48,-78.26"/>
<polygon fill="midnightblue" stroke="midnightblue" points="287.95,-74.76 277.38,-75.52 286.12,-81.51 287.95,-74.76"/>
</g>
<!-- Node10 -->
<g id="node10" class="node">
<title>Node10</title>
<g id="a_node10"><a xlink:title=" ">
<polygon fill="white" stroke="#bfbfbf" points="318.5,-56.5 318.5,-75.5 397.5,-75.5 397.5,-56.5 318.5,-56.5"/>
<text text-anchor="middle" x="358" y="-63.5" font-family="Helvetica,sans-Serif" font-size="10.00">fmt/chrono.h</text>
</a>
</g>
</g>
<!-- Node2&#45;&gt;Node10 -->
<g id="edge10" class="edge">
<title>Node2&#45;&gt;Node10</title>
<path fill="none" stroke="midnightblue" d="M431.02,-112.32C417.45,-103.9 396.62,-90.97 380.68,-81.07"/>
<polygon fill="midnightblue" stroke="midnightblue" points="382.29,-77.95 371.94,-75.65 378.59,-83.9 382.29,-77.95"/>
</g>
<!-- Node11 -->
<g id="node11" class="node">
<title>Node11</title>
<g id="a_node11"><a xlink:title=" ">
<polygon fill="white" stroke="#bfbfbf" points="415,-56.5 415,-75.5 475,-75.5 475,-56.5 415,-56.5"/>
<text text-anchor="middle" x="445" y="-63.5" font-family="Helvetica,sans-Serif" font-size="10.00">iostream</text>
</a>
</g>
</g>
<!-- Node2&#45;&gt;Node11 -->
<g id="edge12" class="edge">
<title>Node2&#45;&gt;Node11</title>
<path fill="none" stroke="midnightblue" d="M445,-112.08C445,-105.01 445,-94.86 445,-85.99"/>
<polygon fill="midnightblue" stroke="midnightblue" points="448.5,-85.75 445,-75.75 441.5,-85.75 448.5,-85.75"/>
</g>
<!-- Node12 -->
<g id="node12" class="node">
<title>Node12</title>
<g id="a_node12"><a xlink:title=" ">
<polygon fill="white" stroke="#bfbfbf" points="493,-56.5 493,-75.5 603,-75.5 603,-56.5 493,-56.5"/>
<text text-anchor="middle" x="548" y="-63.5" font-family="Helvetica,sans-Serif" font-size="10.00">nlohmann/json.hpp</text>
</a>
</g>
</g>
<!-- Node2&#45;&gt;Node12 -->
<g id="edge13" class="edge">
<title>Node2&#45;&gt;Node12</title>
<path fill="none" stroke="midnightblue" d="M461.55,-112.32C477.99,-103.7 503.43,-90.36 522.47,-80.39"/>
<polygon fill="midnightblue" stroke="midnightblue" points="524.26,-83.4 531.49,-75.65 521.01,-77.2 524.26,-83.4"/>
</g>
<!-- Node13 -->
<g id="node13" class="node">
<title>Node13</title>
<g id="a_node13"><a xlink:title=" ">
<polygon fill="white" stroke="#bfbfbf" points="621,-56.5 621,-75.5 677,-75.5 677,-56.5 621,-56.5"/>
<text text-anchor="middle" x="649" y="-63.5" font-family="Helvetica,sans-Serif" font-size="10.00">optional</text>
</a>
</g>
</g>
<!-- Node2&#45;&gt;Node13 -->
<g id="edge14" class="edge">
<title>Node2&#45;&gt;Node13</title>
<path fill="none" stroke="midnightblue" d="M477.32,-112.44C513.63,-102.83 572.49,-87.25 610.97,-77.07"/>
<polygon fill="midnightblue" stroke="midnightblue" points="612,-80.42 620.77,-74.47 610.21,-73.65 612,-80.42"/>
</g>
<!-- Node14 -->
<g id="node14" class="node">
<title>Node14</title>
<g id="a_node14"><a xlink:title=" ">
<polygon fill="white" stroke="#bfbfbf" points="695,-56.5 695,-75.5 751,-75.5 751,-56.5 695,-56.5"/>
<text text-anchor="middle" x="723" y="-63.5" font-family="Helvetica,sans-Serif" font-size="10.00">sstream</text>
</a>
</g>
</g>
<!-- Node2&#45;&gt;Node14 -->
<g id="edge15" class="edge">
<title>Node2&#45;&gt;Node14</title>
<path fill="none" stroke="midnightblue" d="M488.68,-113.58C534.99,-105.54 610.5,-91.98 684.76,-76.18"/>
<polygon fill="midnightblue" stroke="midnightblue" points="685.71,-79.55 694.75,-74.04 684.24,-72.71 685.71,-79.55"/>
</g>
<!-- Node15 -->
<g id="node15" class="node">
<title>Node15</title>
<g id="a_node15"><a xlink:title=" ">
<polygon fill="white" stroke="#bfbfbf" points="769.5,-56.5 769.5,-75.5 838.5,-75.5 838.5,-56.5 769.5,-56.5"/>
<text text-anchor="middle" x="804" y="-63.5" font-family="Helvetica,sans-Serif" font-size="10.00">type_traits</text>
</a>
</g>
</g>
<!-- Node2&#45;&gt;Node15 -->
<g id="edge16" class="edge">
<title>Node2&#45;&gt;Node15</title>
<path fill="none" stroke="midnightblue" d="M488.7,-115.6C547.73,-108.11 656.46,-93.68 759.5,-75.99"/>
<polygon fill="midnightblue" stroke="midnightblue" points="760.19,-79.42 769.45,-74.27 759,-72.53 760.19,-79.42"/>
</g>
<!-- Node3&#45;&gt;Node4 -->
<g id="edge3" class="edge">
<title>Node3&#45;&gt;Node4</title>
<path fill="none" stroke="midnightblue" d="M68,-56.08C68,-49.01 68,-38.86 68,-29.99"/>
<polygon fill="midnightblue" stroke="midnightblue" points="71.5,-29.75 68,-19.75 64.5,-29.75 71.5,-29.75"/>
</g>
<!-- Node5&#45;&gt;Node4 -->
<g id="edge5" class="edge">
<title>Node5&#45;&gt;Node4</title>
<path fill="none" stroke="midnightblue" d="M217.8,-56.44C187.59,-47.28 139.49,-32.69 105.97,-22.52"/>
<polygon fill="midnightblue" stroke="midnightblue" points="106.66,-19.07 96.07,-19.52 104.63,-25.77 106.66,-19.07"/>
</g>
<!-- Node6 -->
<g id="node6" class="node">
<title>Node6</title>
<g id="a_node6"><a xlink:title=" ">
<polygon fill="white" stroke="#bfbfbf" points="126,-0.5 126,-19.5 212,-19.5 212,-0.5 126,-0.5"/>
<text text-anchor="middle" x="169" y="-7.5" font-family="Helvetica,sans-Serif" font-size="10.00">fmt/ostream.h</text>
</a>
</g>
</g>
<!-- Node5&#45;&gt;Node6 -->
<g id="edge6" class="edge">
<title>Node5&#45;&gt;Node6</title>
<path fill="none" stroke="midnightblue" d="M233.63,-56.32C221.84,-48.06 203.87,-35.45 189.86,-25.63"/>
<polygon fill="midnightblue" stroke="midnightblue" points="191.54,-22.53 181.34,-19.65 187.52,-28.26 191.54,-22.53"/>
</g>
<!-- Node7 -->
<g id="node7" class="node">
<title>Node7</title>
<g id="a_node7"><a xlink:title=" ">
<polygon fill="white" stroke="#bfbfbf" points="230,-0.5 230,-19.5 274,-19.5 274,-0.5 230,-0.5"/>
<text text-anchor="middle" x="252" y="-7.5" font-family="Helvetica,sans-Serif" font-size="10.00">limits</text>
</a>
</g>
</g>
<!-- Node5&#45;&gt;Node7 -->
<g id="edge7" class="edge">
<title>Node5&#45;&gt;Node7</title>
<path fill="none" stroke="midnightblue" d="M246.99,-56.08C247.79,-48.93 248.93,-38.64 249.92,-29.69"/>
<polygon fill="midnightblue" stroke="midnightblue" points="253.4,-30.08 251.03,-19.75 246.44,-29.3 253.4,-30.08"/>
</g>
<!-- Node8 -->
<g id="node8" class="node">
<title>Node8</title>
<g id="a_node8"><a xlink:title=" ">
<polygon fill="white" stroke="#bfbfbf" points="292,-0.5 292,-19.5 330,-19.5 330,-0.5 292,-0.5"/>
<text text-anchor="middle" x="311" y="-7.5" font-family="Helvetica,sans-Serif" font-size="10.00">map</text>
</a>
</g>
</g>
<!-- Node5&#45;&gt;Node8 -->
<g id="edge8" class="edge">
<title>Node5&#45;&gt;Node8</title>
<path fill="none" stroke="midnightblue" d="M256.44,-56.32C266.15,-48.26 280.82,-36.08 292.5,-26.37"/>
<polygon fill="midnightblue" stroke="midnightblue" points="294.91,-28.92 300.37,-19.83 290.44,-23.53 294.91,-28.92"/>
</g>
<!-- Node9 -->
<g id="node9" class="node">
<title>Node9</title>
<g id="a_node9"><a xlink:title=" ">
<polygon fill="white" stroke="#bfbfbf" points="348,-0.5 348,-19.5 396,-19.5 396,-0.5 348,-0.5"/>
<text text-anchor="middle" x="372" y="-7.5" font-family="Helvetica,sans-Serif" font-size="10.00">thread</text>
</a>
</g>
</g>
<!-- Node5&#45;&gt;Node9 -->
<g id="edge9" class="edge">
<title>Node5&#45;&gt;Node9</title>
<path fill="none" stroke="midnightblue" d="M265.97,-56.44C286.61,-47.6 319.06,-33.69 342.63,-23.59"/>
<polygon fill="midnightblue" stroke="midnightblue" points="344.32,-26.67 352.13,-19.52 341.56,-20.24 344.32,-26.67"/>
</g>
</g>
</svg>
