<?xml version="1.0" encoding="UTF-8" standalone="no"?>
<!DOCTYPE svg PUBLIC "-//W3C//DTD SVG 1.1//EN"
 "http://www.w3.org/Graphics/SVG/1.1/DTD/svg11.dtd">
<!-- Generated by graphviz version 2.43.0 (0)
 -->
<!-- Title: ccf::ACMERpcFrontend Pages: 1 -->
<svg width="3018pt" height="768pt"
 viewBox="0.00 0.00 3018.00 767.50" xmlns="http://www.w3.org/2000/svg" xmlns:xlink="http://www.w3.org/1999/xlink">
<g id="graph0" class="graph" transform="scale(1 1) rotate(0) translate(4 763.5)">
<title>ccf::ACMERpcFrontend</title>
<polygon fill="white" stroke="transparent" points="-4,4 -4,-763.5 3014,-763.5 3014,4 -4,4"/>
<!-- Node1 -->
<g id="node1" class="node">
<title>Node1</title>
<g id="a_node1"><a xlink:title=" ">
<polygon fill="#bfbfbf" stroke="black" points="2885,-524 2885,-543 3010,-543 3010,-524 2885,-524"/>
<text text-anchor="middle" x="2947.5" y="-531" font-family="Helvetica,sans-Serif" font-size="10.00">ccf::ACMERpcFrontend</text>
</a>
</g>
</g>
<!-- Node2 -->
<g id="node2" class="node">
<title>Node2</title>
<g id="a_node2"><a xlink:href="classccf_1_1RpcFrontend.html" target="_top" xlink:title=" ">
<polygon fill="white" stroke="black" points="2308,-583 2308,-602 2405,-602 2405,-583 2308,-583"/>
<text text-anchor="middle" x="2356.5" y="-590" font-family="Helvetica,sans-Serif" font-size="10.00">ccf::RpcFrontend</text>
</a>
</g>
</g>
<!-- Node2&#45;&gt;Node1 -->
<g id="edge1" class="edge">
<title>Node2&#45;&gt;Node1</title>
<path fill="none" stroke="midnightblue" d="M2415.24,-586.72C2526.67,-575.55 2770.44,-551.14 2884.87,-539.67"/>
<polygon fill="midnightblue" stroke="midnightblue" points="2414.8,-583.24 2405.2,-587.72 2415.5,-590.21 2414.8,-583.24"/>
</g>
<!-- Node3 -->
<g id="node3" class="node">
<title>Node3</title>
<g id="a_node3"><a xlink:href="classccf_1_1RpcHandler.html" target="_top" xlink:title=" ">
<polygon fill="white" stroke="black" points="2053.5,-599 2053.5,-618 2145.5,-618 2145.5,-599 2053.5,-599"/>
<text text-anchor="middle" x="2099.5" y="-606" font-family="Helvetica,sans-Serif" font-size="10.00">ccf::RpcHandler</text>
</a>
</g>
</g>
<!-- Node3&#45;&gt;Node2 -->
<g id="edge2" class="edge">
<title>Node3&#45;&gt;Node2</title>
<path fill="none" stroke="midnightblue" d="M2155.76,-605.03C2201.15,-602.18 2264.77,-598.19 2307.92,-595.49"/>
<polygon fill="midnightblue" stroke="midnightblue" points="2155.26,-601.56 2145.5,-605.68 2155.7,-608.54 2155.26,-601.56"/>
</g>
<!-- Node4 -->
<g id="node4" class="node">
<title>Node4</title>
<g id="a_node4"><a xlink:href="classccf_1_1ForwardedRpcHandler.html" target="_top" xlink:title=" ">
<polygon fill="white" stroke="black" points="2028,-685 2028,-704 2171,-704 2171,-685 2028,-685"/>
<text text-anchor="middle" x="2099.5" y="-692" font-family="Helvetica,sans-Serif" font-size="10.00">ccf::ForwardedRpcHandler</text>
</a>
</g>
</g>
<!-- Node4&#45;&gt;Node2 -->
<g id="edge3" class="edge">
<title>Node4&#45;&gt;Node2</title>
<path fill="none" stroke="midnightblue" d="M2152.5,-682.54C2161.38,-680.32 2170.48,-677.93 2179,-675.5 2218.6,-664.2 2229.62,-663.78 2267,-646.5 2294.94,-633.58 2325.04,-613.83 2341.95,-602.13"/>
<polygon fill="midnightblue" stroke="midnightblue" points="2151.5,-679.18 2142.63,-684.97 2153.17,-685.98 2151.5,-679.18"/>
</g>
<!-- Node5 -->
<g id="node5" class="node">
<title>Node5</title>
<g id="a_node5"><a xlink:href="classkv_1_1Store.html" target="_top" xlink:title=" ">
<polygon fill="white" stroke="black" points="2070,-647 2070,-666 2129,-666 2129,-647 2070,-647"/>
<text text-anchor="middle" x="2099.5" y="-654" font-family="Helvetica,sans-Serif" font-size="10.00">kv::Store</text>
</a>
</g>
</g>
<!-- Node5&#45;&gt;Node2 -->
<g id="edge4" class="edge">
<title>Node5&#45;&gt;Node2</title>
<path fill="none" stroke="#9a32cd" stroke-dasharray="5,2" d="M2139,-646.84C2187.21,-634.74 2269.29,-614.14 2317.33,-602.08"/>
<polygon fill="#9a32cd" stroke="#9a32cd" points="2138.1,-643.45 2129.26,-649.28 2139.81,-650.24 2138.1,-643.45"/>
<text text-anchor="middle" x="2232" y="-634.5" font-family="Helvetica,sans-Serif" font-size="10.00"> tables</text>
</g>
<!-- Node6 -->
<g id="node6" class="node">
<title>Node6</title>
<g id="a_node6"><a xlink:href="classkv_1_1AbstractStore.html" target="_top" xlink:title=" ">
<polygon fill="white" stroke="black" points="1765,-740 1765,-759 1865,-759 1865,-740 1765,-740"/>
<text text-anchor="middle" x="1815" y="-747" font-family="Helvetica,sans-Serif" font-size="10.00">kv::AbstractStore</text>
</a>
</g>
</g>
<!-- Node6&#45;&gt;Node5 -->
<g id="edge5" class="edge">
<title>Node6&#45;&gt;Node5</title>
<path fill="none" stroke="midnightblue" d="M1869.35,-737.64C1878.92,-735.37 1888.77,-732.94 1898,-730.5 1944.63,-718.16 1962.43,-727.07 2002,-699.5 2012.94,-691.88 2008.86,-682.83 2020,-675.5 2034.76,-665.78 2054,-661.03 2069.75,-658.7"/>
<polygon fill="midnightblue" stroke="midnightblue" points="1868.47,-734.26 1859.53,-739.94 1870.07,-741.07 1868.47,-734.26"/>
</g>
<!-- Node7 -->
<g id="node7" class="node">
<title>Node7</title>
<g id="a_node7"><a xlink:href="classkv_1_1StoreState.html" target="_top" xlink:title=" ">
<polygon fill="white" stroke="black" points="1772.5,-626 1772.5,-645 1857.5,-645 1857.5,-626 1772.5,-626"/>
<text text-anchor="middle" x="1815" y="-633" font-family="Helvetica,sans-Serif" font-size="10.00">kv::StoreState</text>
</a>
</g>
</g>
<!-- Node7&#45;&gt;Node5 -->
<g id="edge6" class="edge">
<title>Node7&#45;&gt;Node5</title>
<path fill="none" stroke="midnightblue" d="M1867.99,-639.36C1927.46,-643.79 2022.7,-650.87 2069.97,-654.38"/>
<polygon fill="midnightblue" stroke="midnightblue" points="1867.92,-635.85 1857.68,-638.6 1867.4,-642.83 1867.92,-635.85"/>
</g>
<!-- Node8 -->
<g id="node8" class="node">
<title>Node8</title>
<g id="a_node8"><a xlink:title=" ">
<polygon fill="white" stroke="black" points="1413,-489 1413,-508 1482,-508 1482,-489 1413,-489"/>
<text text-anchor="middle" x="1447.5" y="-496" font-family="Helvetica,sans-Serif" font-size="10.00">std::mutex</text>
</a>
</g>
</g>
<!-- Node8&#45;&gt;Node7 -->
<g id="edge7" class="edge">
<title>Node8&#45;&gt;Node7</title>
<path fill="none" stroke="#9a32cd" stroke-dasharray="5,2" d="M1492.08,-504.43C1503.48,-507.39 1515.28,-511.83 1525,-518.5 1536.29,-526.24 1531.91,-535.47 1543,-543.5 1607.57,-590.22 1646.44,-555.22 1714,-597.5 1723.86,-603.67 1721.91,-610.72 1732,-616.5 1744.17,-623.47 1758.75,-627.89 1772.21,-630.68"/>
<polygon fill="#9a32cd" stroke="#9a32cd" points="1492.76,-500.99 1482.23,-502.18 1491.21,-507.82 1492.76,-500.99"/>
<text text-anchor="middle" x="1628.5" y="-622.5" font-family="Helvetica,sans-Serif" font-size="10.00"> commit_lock</text>
<text text-anchor="middle" x="1628.5" y="-611.5" font-family="Helvetica,sans-Serif" font-size="10.00">maps_lock</text>
<text text-anchor="middle" x="1628.5" y="-600.5" font-family="Helvetica,sans-Serif" font-size="10.00">version_lock</text>
</g>
<!-- Node15 -->
<g id="node15" class="node">
<title>Node15</title>
<g id="a_node15"><a xlink:href="classccf_1_1endpoints_1_1EndpointRegistry.html" target="_top" xlink:title=" ">
<polygon fill="white" stroke="black" points="2033,-360.5 2033,-390.5 2166,-390.5 2166,-360.5 2033,-360.5"/>
<text text-anchor="start" x="2041" y="-378.5" font-family="Helvetica,sans-Serif" font-size="10.00">ccf::endpoints::Endpoint</text>
<text text-anchor="middle" x="2099.5" y="-367.5" font-family="Helvetica,sans-Serif" font-size="10.00">Registry</text>
</a>
</g>
</g>
<!-- Node8&#45;&gt;Node15 -->
<g id="edge39" class="edge">
<title>Node8&#45;&gt;Node15</title>
<path fill="none" stroke="#9a32cd" stroke-dasharray="5,2" d="M1492.26,-499.78C1606.41,-502.53 1910.71,-505.84 2002,-466.5 2039.85,-450.19 2071.95,-412.2 2087.83,-390.82"/>
<polygon fill="#9a32cd" stroke="#9a32cd" points="1492.22,-496.28 1482.13,-499.53 1492.04,-503.28 1492.22,-496.28"/>
<text text-anchor="middle" x="1815" y="-502.5" font-family="Helvetica,sans-Serif" font-size="10.00"> metrics_lock</text>
</g>
<!-- Node9 -->
<g id="node9" class="node">
<title>Node9</title>
<g id="a_node9"><a xlink:title=" ">
<polygon fill="white" stroke="black" points="854,-624.5 854,-676.5 997,-676.5 997,-624.5 854,-624.5"/>
<text text-anchor="start" x="862" y="-664.5" font-family="Helvetica,sans-Serif" font-size="10.00">std::map&lt; std::string,</text>
<text text-anchor="start" x="862" y="-653.5" font-family="Helvetica,sans-Serif" font-size="10.00"> std::pair&lt; kv::Version,</text>
<text text-anchor="start" x="862" y="-642.5" font-family="Helvetica,sans-Serif" font-size="10.00"> std::shared_ptr&lt; untyped</text>
<text text-anchor="middle" x="925.5" y="-631.5" font-family="Helvetica,sans-Serif" font-size="10.00">::Map &gt; &gt; &gt;</text>
</a>
</g>
</g>
<!-- Node9&#45;&gt;Node7 -->
<g id="edge8" class="edge">
<title>Node9&#45;&gt;Node7</title>
<path fill="none" stroke="#9a32cd" stroke-dasharray="5,2" d="M1007.39,-649.13C1191.13,-646.03 1634.63,-638.53 1772.43,-636.2"/>
<polygon fill="#9a32cd" stroke="#9a32cd" points="1007.19,-645.64 997.25,-649.3 1007.31,-652.63 1007.19,-645.64"/>
<text text-anchor="middle" x="1280.5" y="-648.5" font-family="Helvetica,sans-Serif" font-size="10.00"> maps</text>
</g>
<!-- Node10 -->
<g id="node10" class="node">
<title>Node10</title>
<g id="a_node10"><a xlink:title=" ">
<polygon fill="white" stroke="black" points="155.5,-298 155.5,-317 220.5,-317 220.5,-298 155.5,-298"/>
<text text-anchor="middle" x="188" y="-305" font-family="Helvetica,sans-Serif" font-size="10.00">std::string</text>
</a>
</g>
</g>
<!-- Node10&#45;&gt;Node9 -->
<g id="edge9" class="edge">
<title>Node10&#45;&gt;Node9</title>
<path fill="none" stroke="#9a32cd" stroke-dasharray="5,2" d="M189.97,-327.16C193.51,-389.67 207.94,-582.01 253,-620.5 424.37,-766.87 719.34,-709.47 853.89,-672.45"/>
<polygon fill="#9a32cd" stroke="#9a32cd" points="193.46,-326.87 189.43,-317.07 186.47,-327.24 193.46,-326.87"/>
<text text-anchor="middle" x="405" y="-713.5" font-family="Helvetica,sans-Serif" font-size="10.00"> keys</text>
</g>
<!-- Node10&#45;&gt;Node15 -->
<g id="edge16" class="edge">
<title>Node10&#45;&gt;Node15</title>
<path fill="none" stroke="#9a32cd" stroke-dasharray="5,2" d="M230.78,-314.26C256.45,-318.08 290.03,-322.49 320,-324.5 745.49,-353.11 853.05,-329.5 1279.5,-329.5 1279.5,-329.5 1279.5,-329.5 1816,-329.5 1894.51,-329.5 1983.72,-347.02 2040.52,-360.44"/>
<polygon fill="#9a32cd" stroke="#9a32cd" points="231.07,-310.77 220.66,-312.73 230.02,-317.69 231.07,-310.77"/>
<text text-anchor="middle" x="1103" y="-336.5" font-family="Helvetica,sans-Serif" font-size="10.00"> method_prefix</text>
</g>
<!-- Node17 -->
<g id="node17" class="node">
<title>Node17</title>
<g id="a_node17"><a xlink:href="structccf_1_1endpoints_1_1EndpointRegistry_1_1OpenApiInfo.html" target="_top" xlink:title=" ">
<polygon fill="white" stroke="black" points="859,-265.5 859,-295.5 992,-295.5 992,-265.5 859,-265.5"/>
<text text-anchor="start" x="867" y="-283.5" font-family="Helvetica,sans-Serif" font-size="10.00">ccf::endpoints::Endpoint</text>
<text text-anchor="middle" x="925.5" y="-272.5" font-family="Helvetica,sans-Serif" font-size="10.00">Registry::OpenApiInfo</text>
</a>
</g>
</g>
<!-- Node10&#45;&gt;Node17 -->
<g id="edge18" class="edge">
<title>Node10&#45;&gt;Node17</title>
<path fill="none" stroke="#9a32cd" stroke-dasharray="5,2" d="M230.81,-301.28C256.48,-297.73 290.07,-293.59 320,-291.5 515.54,-277.82 747.48,-278.24 858.66,-279.48"/>
<polygon fill="#9a32cd" stroke="#9a32cd" points="230.09,-297.84 220.68,-302.7 231.07,-304.77 230.09,-297.84"/>
<text text-anchor="middle" x="405" y="-316.5" font-family="Helvetica,sans-Serif" font-size="10.00"> description</text>
<text text-anchor="middle" x="405" y="-305.5" font-family="Helvetica,sans-Serif" font-size="10.00">document_version</text>
<text text-anchor="middle" x="405" y="-294.5" font-family="Helvetica,sans-Serif" font-size="10.00">title</text>
</g>
<!-- Node20 -->
<g id="node20" class="node">
<title>Node20</title>
<g id="a_node20"><a xlink:href="structccf_1_1endpoints_1_1EndpointDefinition.html" target="_top" xlink:title=" ">
<polygon fill="white" stroke="black" points="1036.5,-123.5 1036.5,-153.5 1169.5,-153.5 1169.5,-123.5 1036.5,-123.5"/>
<text text-anchor="start" x="1044.5" y="-141.5" font-family="Helvetica,sans-Serif" font-size="10.00">ccf::endpoints::Endpoint</text>
<text text-anchor="middle" x="1103" y="-130.5" font-family="Helvetica,sans-Serif" font-size="10.00">Definition</text>
</a>
</g>
</g>
<!-- Node10&#45;&gt;Node20 -->
<g id="edge25" class="edge">
<title>Node10&#45;&gt;Node20</title>
<path fill="none" stroke="#9a32cd" stroke-dasharray="5,2" d="M191.1,-287.74C195.83,-252.97 210.47,-180.64 253,-139.5 275.63,-117.61 288.95,-121.68 320,-116.5 582.4,-72.71 901.07,-108.81 1036.28,-128.18"/>
<polygon fill="#9a32cd" stroke="#9a32cd" points="187.59,-287.65 189.85,-298 194.54,-288.49 187.59,-287.65"/>
<text text-anchor="middle" x="596" y="-101.5" font-family="Helvetica,sans-Serif" font-size="10.00"> full_uri_path</text>
</g>
<!-- Node21 -->
<g id="node21" class="node">
<title>Node21</title>
<g id="a_node21"><a xlink:href="structccf_1_1endpoints_1_1EndpointKey.html" target="_top" xlink:title=" ">
<polygon fill="white" stroke="black" points="329.5,-126 329.5,-145 480.5,-145 480.5,-126 329.5,-126"/>
<text text-anchor="middle" x="405" y="-133" font-family="Helvetica,sans-Serif" font-size="10.00">ccf::endpoints::EndpointKey</text>
</a>
</g>
</g>
<!-- Node10&#45;&gt;Node21 -->
<g id="edge23" class="edge">
<title>Node10&#45;&gt;Node21</title>
<path fill="none" stroke="#9a32cd" stroke-dasharray="5,2" d="M191.64,-287.87C197.04,-255.97 212.45,-193.24 253,-161.5 274.47,-144.69 302.96,-137.18 329.4,-134.21"/>
<polygon fill="#9a32cd" stroke="#9a32cd" points="188.18,-287.35 190.13,-297.77 195.1,-288.41 188.18,-287.35"/>
<text text-anchor="middle" x="277.5" y="-164.5" font-family="Helvetica,sans-Serif" font-size="10.00"> uri_path</text>
</g>
<!-- Node23 -->
<g id="node23" class="node">
<title>Node23</title>
<g id="a_node23"><a xlink:href="structccf_1_1endpoints_1_1EndpointProperties.html" target="_top" xlink:title=" ">
<polygon fill="white" stroke="black" points="702.5,-173.5 702.5,-203.5 835.5,-203.5 835.5,-173.5 702.5,-173.5"/>
<text text-anchor="start" x="710.5" y="-191.5" font-family="Helvetica,sans-Serif" font-size="10.00">ccf::endpoints::Endpoint</text>
<text text-anchor="middle" x="769" y="-180.5" font-family="Helvetica,sans-Serif" font-size="10.00">Properties</text>
</a>
</g>
</g>
<!-- Node10&#45;&gt;Node23 -->
<g id="edge29" class="edge">
<title>Node10&#45;&gt;Node23</title>
<path fill="none" stroke="#9a32cd" stroke-dasharray="5,2" d="M209.21,-291.61C233.77,-273.41 277.24,-244.68 320,-233.5 477.16,-192.41 522.65,-219.33 684,-200.5 690,-199.8 696.23,-199.02 702.47,-198.19"/>
<polygon fill="#9a32cd" stroke="#9a32cd" points="206.92,-288.96 201.06,-297.78 211.14,-294.54 206.92,-288.96"/>
<text text-anchor="middle" x="405" y="-247.5" font-family="Helvetica,sans-Serif" font-size="10.00"> js_function</text>
<text text-anchor="middle" x="405" y="-236.5" font-family="Helvetica,sans-Serif" font-size="10.00">js_module</text>
</g>
<!-- Node24 -->
<g id="node24" class="node">
<title>Node24</title>
<g id="a_node24"><a xlink:title=" ">
<polygon fill="white" stroke="black" points="335,-164 335,-183 475,-183 475,-164 335,-164"/>
<text text-anchor="middle" x="405" y="-171" font-family="Helvetica,sans-Serif" font-size="10.00">std::vector&lt; std::string &gt;</text>
</a>
</g>
</g>
<!-- Node10&#45;&gt;Node24 -->
<g id="edge28" class="edge">
<title>Node10&#45;&gt;Node24</title>
<path fill="none" stroke="#9a32cd" stroke-dasharray="5,2" d="M194.13,-288.16C202.08,-262.23 220.04,-216.9 253,-194.5 276.64,-178.43 307.21,-172.19 334.66,-170.33"/>
<polygon fill="#9a32cd" stroke="#9a32cd" points="190.71,-287.38 191.31,-297.95 197.44,-289.31 190.71,-287.38"/>
<text text-anchor="middle" x="277.5" y="-197.5" font-family="Helvetica,sans-Serif" font-size="10.00"> elements</text>
</g>
<!-- Node29 -->
<g id="node29" class="node">
<title>Node29</title>
<g id="a_node29"><a xlink:title=" ">
<polygon fill="white" stroke="black" points="1209,-437 1209,-478 1352,-478 1352,-437 1209,-437"/>
<text text-anchor="start" x="1217" y="-466" font-family="Helvetica,sans-Serif" font-size="10.00">std::map&lt; std::string,</text>
<text text-anchor="start" x="1217" y="-455" font-family="Helvetica,sans-Serif" font-size="10.00"> std::map&lt; ccf::RESTVerb,</text>
<text text-anchor="middle" x="1280.5" y="-444" font-family="Helvetica,sans-Serif" font-size="10.00"> EndpointPtr &gt; &gt;</text>
</a>
</g>
</g>
<!-- Node10&#45;&gt;Node29 -->
<g id="edge36" class="edge">
<title>Node10&#45;&gt;Node29</title>
<path fill="none" stroke="#9a32cd" stroke-dasharray="5,2" d="M193.66,-327.18C201.21,-354.51 218.84,-403.39 253,-428.5 308,-468.92 335.74,-456.5 404,-456.5 404,-456.5 404,-456.5 926.5,-456.5 1024.4,-456.5 1137.58,-456.89 1208.84,-457.18"/>
<polygon fill="#9a32cd" stroke="#9a32cd" points="196.98,-326.05 191.1,-317.24 190.2,-327.79 196.98,-326.05"/>
<text text-anchor="middle" x="596" y="-459.5" font-family="Helvetica,sans-Serif" font-size="10.00"> keys</text>
</g>
<!-- Node30 -->
<g id="node30" class="node">
<title>Node30</title>
<g id="a_node30"><a xlink:title=" ">
<polygon fill="white" stroke="black" points="1543,-383.5 1543,-435.5 1714,-435.5 1714,-383.5 1543,-383.5"/>
<text text-anchor="start" x="1551" y="-423.5" font-family="Helvetica,sans-Serif" font-size="10.00">std::map&lt; std::string,</text>
<text text-anchor="start" x="1551" y="-412.5" font-family="Helvetica,sans-Serif" font-size="10.00"> std::map&lt; ccf::RESTVerb,</text>
<text text-anchor="start" x="1551" y="-401.5" font-family="Helvetica,sans-Serif" font-size="10.00"> std::shared_ptr&lt; ccf::endpoints</text>
<text text-anchor="middle" x="1628.5" y="-390.5" font-family="Helvetica,sans-Serif" font-size="10.00">::PathTemplatedEndpoint &gt; &gt; &gt;</text>
</a>
</g>
</g>
<!-- Node10&#45;&gt;Node30 -->
<g id="edge38" class="edge">
<title>Node10&#45;&gt;Node30</title>
<path fill="none" stroke="#9a32cd" stroke-dasharray="5,2" d="M199.94,-325.49C211.15,-342.34 230.14,-366.91 253,-380.5 312.14,-415.65 335.21,-414.5 404,-414.5 404,-414.5 404,-414.5 1281.5,-414.5 1370.71,-414.5 1472.85,-412.82 1542.9,-411.4"/>
<polygon fill="#9a32cd" stroke="#9a32cd" points="202.87,-323.58 194.54,-317.04 196.97,-327.35 202.87,-323.58"/>
<text text-anchor="middle" x="769" y="-417.5" font-family="Helvetica,sans-Serif" font-size="10.00"> keys</text>
</g>
<!-- Node31 -->
<g id="node31" class="node">
<title>Node31</title>
<g id="a_node31"><a xlink:title=" ">
<polygon fill="white" stroke="black" points="508,-346.5 508,-398.5 684,-398.5 684,-346.5 508,-346.5"/>
<text text-anchor="start" x="516" y="-386.5" font-family="Helvetica,sans-Serif" font-size="10.00">std::map&lt; std::string,</text>
<text text-anchor="start" x="516" y="-375.5" font-family="Helvetica,sans-Serif" font-size="10.00"> std::map&lt; std::string,</text>
<text text-anchor="start" x="516" y="-364.5" font-family="Helvetica,sans-Serif" font-size="10.00"> ccf::endpoints::EndpointRegistry</text>
<text text-anchor="middle" x="596" y="-353.5" font-family="Helvetica,sans-Serif" font-size="10.00">::Metrics &gt; &gt;</text>
</a>
</g>
</g>
<!-- Node10&#45;&gt;Node31 -->
<g id="edge41" class="edge">
<title>Node10&#45;&gt;Node31</title>
<path fill="none" stroke="#9a32cd" stroke-dasharray="5,2" d="M206.37,-323.77C218.46,-334.01 235.49,-346.39 253,-352.5 335.97,-381.44 437.09,-383.64 507.77,-380.32"/>
<polygon fill="#9a32cd" stroke="#9a32cd" points="208.66,-321.12 198.85,-317.13 204.03,-326.37 208.66,-321.12"/>
<text text-anchor="middle" x="277.5" y="-368.5" font-family="Helvetica,sans-Serif" font-size="10.00"> keys</text>
</g>
<!-- Node36 -->
<g id="node36" class="node">
<title>Node36</title>
<g id="a_node36"><a xlink:title=" ">
<polygon fill="white" stroke="black" points="1732,-566 1732,-607 1898,-607 1898,-566 1732,-566"/>
<text text-anchor="start" x="1740" y="-595" font-family="Helvetica,sans-Serif" font-size="10.00">std::map&lt; std::string,</text>
<text text-anchor="start" x="1740" y="-584" font-family="Helvetica,sans-Serif" font-size="10.00"> std::shared_ptr&lt; ccf</text>
<text text-anchor="middle" x="1815" y="-573" font-family="Helvetica,sans-Serif" font-size="10.00">::AbstractNodeSubSystem &gt; &gt;</text>
</a>
</g>
</g>
<!-- Node10&#45;&gt;Node36 -->
<g id="edge47" class="edge">
<title>Node10&#45;&gt;Node36</title>
<path fill="none" stroke="#9a32cd" stroke-dasharray="5,2" d="M192.99,-327.11C207.78,-393.63 265.89,-606.5 404,-606.5 404,-606.5 404,-606.5 1281.5,-606.5 1473.75,-606.5 1522.26,-613.47 1714,-599.5 1719.85,-599.07 1725.88,-598.54 1731.95,-597.92"/>
<polygon fill="#9a32cd" stroke="#9a32cd" points="196.37,-326.16 190.85,-317.11 189.52,-327.62 196.37,-326.16"/>
<text text-anchor="middle" x="925.5" y="-609.5" font-family="Helvetica,sans-Serif" font-size="10.00"> keys</text>
</g>
<!-- Node42 -->
<g id="node42" class="node">
<title>Node42</title>
<g id="a_node42"><a xlink:title=" ">
<polygon fill="white" stroke="black" points="535,-41.5 535,-71.5 657,-71.5 657,-41.5 535,-41.5"/>
<text text-anchor="start" x="543" y="-59.5" font-family="Helvetica,sans-Serif" font-size="10.00">std::map&lt; std::string,</text>
<text text-anchor="middle" x="596" y="-48.5" font-family="Helvetica,sans-Serif" font-size="10.00"> std::string &gt;</text>
</a>
</g>
</g>
<!-- Node10&#45;&gt;Node42 -->
<g id="edge56" class="edge">
<title>Node10&#45;&gt;Node42</title>
<path fill="none" stroke="#9a32cd" stroke-dasharray="5,2" d="M193.32,-287.88C204.92,-236.07 236.93,-98.69 253,-85.5 294.68,-51.28 448.39,-50.95 534.87,-53.7"/>
<polygon fill="#9a32cd" stroke="#9a32cd" points="189.87,-287.3 191.12,-297.82 196.7,-288.82 189.87,-287.3"/>
<text text-anchor="middle" x="277.5" y="-99.5" font-family="Helvetica,sans-Serif" font-size="10.00"> elements</text>
<text text-anchor="middle" x="277.5" y="-88.5" font-family="Helvetica,sans-Serif" font-size="10.00">keys</text>
</g>
<!-- Node11 -->
<g id="node11" class="node">
<title>Node11</title>
<g id="a_node11"><a xlink:title=" ">
<polygon fill="white" stroke="black" points="0,-292.5 0,-322.5 104,-322.5 104,-292.5 0,-292.5"/>
<text text-anchor="start" x="8" y="-310.5" font-family="Helvetica,sans-Serif" font-size="10.00">std::basic_string&lt;</text>
<text text-anchor="middle" x="52" y="-299.5" font-family="Helvetica,sans-Serif" font-size="10.00"> Char &gt;</text>
</a>
</g>
</g>
<!-- Node11&#45;&gt;Node10 -->
<g id="edge10" class="edge">
<title>Node11&#45;&gt;Node10</title>
<path fill="none" stroke="midnightblue" d="M114.32,-307.5C128.57,-307.5 143.16,-307.5 155.49,-307.5"/>
<polygon fill="midnightblue" stroke="midnightblue" points="114.04,-304 104.04,-307.5 114.04,-311 114.04,-304"/>
</g>
<!-- Node12 -->
<g id="node12" class="node">
<title>Node12</title>
<g id="a_node12"><a xlink:title=" ">
<polygon fill="white" stroke="black" points="1380.5,-673.5 1380.5,-725.5 1514.5,-725.5 1514.5,-673.5 1380.5,-673.5"/>
<text text-anchor="start" x="1388.5" y="-713.5" font-family="Helvetica,sans-Serif" font-size="10.00">std::unordered_map</text>
<text text-anchor="start" x="1388.5" y="-702.5" font-family="Helvetica,sans-Serif" font-size="10.00">&lt; Version, std::tuple</text>
<text text-anchor="start" x="1388.5" y="-691.5" font-family="Helvetica,sans-Serif" font-size="10.00">&lt; std::unique_ptr&lt; kv</text>
<text text-anchor="middle" x="1447.5" y="-680.5" font-family="Helvetica,sans-Serif" font-size="10.00">::PendingTx &gt;, bool &gt; &gt;</text>
</a>
</g>
</g>
<!-- Node12&#45;&gt;Node7 -->
<g id="edge11" class="edge">
<title>Node12&#45;&gt;Node7</title>
<path fill="none" stroke="#9a32cd" stroke-dasharray="5,2" d="M1524.78,-689.22C1577.98,-681.69 1650.53,-670.68 1714,-658.5 1717.06,-657.91 1746.68,-651.09 1772.9,-645.03"/>
<polygon fill="#9a32cd" stroke="#9a32cd" points="1524.16,-685.78 1514.74,-690.64 1525.13,-692.71 1524.16,-685.78"/>
<text text-anchor="middle" x="1628.5" y="-689.5" font-family="Helvetica,sans-Serif" font-size="10.00"> pending_txs</text>
</g>
<!-- Node13 -->
<g id="node13" class="node">
<title>Node13</title>
<g id="a_node13"><a xlink:href="classkv_1_1ExecutionWrapperStore.html" target="_top" xlink:title=" ">
<polygon fill="white" stroke="black" points="1741,-702 1741,-721 1889,-721 1889,-702 1741,-702"/>
<text text-anchor="middle" x="1815" y="-709" font-family="Helvetica,sans-Serif" font-size="10.00">kv::ExecutionWrapperStore</text>
</a>
</g>
</g>
<!-- Node13&#45;&gt;Node5 -->
<g id="edge12" class="edge">
<title>Node13&#45;&gt;Node5</title>
<path fill="none" stroke="midnightblue" d="M1884.13,-700.23C1919.39,-694.19 1963.09,-686.38 2002,-678.5 2024.9,-673.86 2050.71,-667.94 2069.87,-663.41"/>
<polygon fill="midnightblue" stroke="midnightblue" points="1883.22,-696.83 1873.95,-701.96 1884.39,-703.73 1883.22,-696.83"/>
</g>
<!-- Node14 -->
<g id="node14" class="node">
<title>Node14</title>
<g id="a_node14"><a xlink:href="classkv_1_1ReadOnlyStore.html" target="_top" xlink:title=" ">
<polygon fill="white" stroke="black" points="1761.5,-664 1761.5,-683 1868.5,-683 1868.5,-664 1761.5,-664"/>
<text text-anchor="middle" x="1815" y="-671" font-family="Helvetica,sans-Serif" font-size="10.00">kv::ReadOnlyStore</text>
</a>
</g>
</g>
<!-- Node14&#45;&gt;Node5 -->
<g id="edge13" class="edge">
<title>Node14&#45;&gt;Node5</title>
<path fill="none" stroke="midnightblue" d="M1878.85,-669.72C1938.39,-666.13 2025.13,-660.92 2069.7,-658.23"/>
<polygon fill="midnightblue" stroke="midnightblue" points="1878.58,-666.23 1868.8,-670.32 1879,-673.22 1878.58,-666.23"/>
</g>
<!-- Node15&#45;&gt;Node2 -->
<g id="edge14" class="edge">
<title>Node15&#45;&gt;Node2</title>
<path fill="none" stroke="#9a32cd" stroke-dasharray="5,2" d="M2150.41,-394.7C2185.66,-409.94 2232.57,-433.79 2267,-464.5 2307.73,-500.83 2339.28,-559.52 2350.78,-582.67"/>
<polygon fill="#9a32cd" stroke="#9a32cd" points="2151.37,-391.3 2140.79,-390.63 2148.64,-397.75 2151.37,-391.3"/>
<text text-anchor="middle" x="2232" y="-467.5" font-family="Helvetica,sans-Serif" font-size="10.00"> endpoints</text>
</g>
<!-- Node41 -->
<g id="node41" class="node">
<title>Node41</title>
<g id="a_node41"><a xlink:href="classccf_1_1BaseEndpointRegistry.html" target="_top" xlink:title=" ">
<polygon fill="white" stroke="black" points="2285,-422 2285,-441 2428,-441 2428,-422 2285,-422"/>
<text text-anchor="middle" x="2356.5" y="-429" font-family="Helvetica,sans-Serif" font-size="10.00">ccf::BaseEndpointRegistry</text>
</a>
</g>
</g>
<!-- Node15&#45;&gt;Node41 -->
<g id="edge53" class="edge">
<title>Node15&#45;&gt;Node41</title>
<path fill="none" stroke="midnightblue" d="M2176.18,-390.25C2204.7,-396 2237.4,-402.8 2267,-409.5 2283.99,-413.34 2302.71,-417.95 2318.55,-421.95"/>
<polygon fill="midnightblue" stroke="midnightblue" points="2176.77,-386.8 2166.27,-388.27 2175.39,-393.66 2176.77,-386.8"/>
</g>
<!-- Node16 -->
<g id="node16" class="node">
<title>Node16</title>
<g id="a_node16"><a xlink:href="structccf_1_1endpoints_1_1Endpoint_1_1Installer.html" target="_top" xlink:title=" ">
<polygon fill="white" stroke="black" points="1036.5,-219.5 1036.5,-249.5 1169.5,-249.5 1169.5,-219.5 1036.5,-219.5"/>
<text text-anchor="start" x="1044.5" y="-237.5" font-family="Helvetica,sans-Serif" font-size="10.00">ccf::endpoints::Endpoint</text>
<text text-anchor="middle" x="1103" y="-226.5" font-family="Helvetica,sans-Serif" font-size="10.00">::Installer</text>
</a>
</g>
</g>
<!-- Node16&#45;&gt;Node15 -->
<g id="edge15" class="edge">
<title>Node16&#45;&gt;Node15</title>
<path fill="none" stroke="midnightblue" d="M1179.77,-234.65C1382.72,-235.52 1928.2,-240.98 2002,-274.5 2042.63,-292.95 2074.71,-337.06 2089.54,-360.41"/>
<polygon fill="midnightblue" stroke="midnightblue" points="1179.52,-231.15 1169.5,-234.61 1179.49,-238.15 1179.52,-231.15"/>
</g>
<!-- Node19 -->
<g id="node19" class="node">
<title>Node19</title>
<g id="a_node19"><a xlink:href="structccf_1_1endpoints_1_1Endpoint.html" target="_top" xlink:title=" ">
<polygon fill="white" stroke="black" points="1381,-185 1381,-204 1514,-204 1514,-185 1381,-185"/>
<text text-anchor="middle" x="1447.5" y="-192" font-family="Helvetica,sans-Serif" font-size="10.00">ccf::endpoints::Endpoint</text>
</a>
</g>
</g>
<!-- Node16&#45;&gt;Node19 -->
<g id="edge33" class="edge">
<title>Node16&#45;&gt;Node19</title>
<path fill="none" stroke="#9a32cd" stroke-dasharray="5,2" d="M1179.86,-221.63C1189.65,-220.14 1199.55,-218.72 1209,-217.5 1266.93,-210.01 1333.09,-203.8 1380.85,-199.72"/>
<polygon fill="#9a32cd" stroke="#9a32cd" points="1179.07,-218.21 1169.72,-223.2 1180.14,-225.13 1179.07,-218.21"/>
<text text-anchor="middle" x="1280.5" y="-220.5" font-family="Helvetica,sans-Serif" font-size="10.00"> installer</text>
</g>
<!-- Node17&#45;&gt;Node15 -->
<g id="edge17" class="edge">
<title>Node17&#45;&gt;Node15</title>
<path fill="none" stroke="#9a32cd" stroke-dasharray="5,2" d="M1002.44,-277.9C1215.42,-271.4 1815,-258.8 2002,-315.5 2032.21,-324.66 2062.35,-345.81 2080.71,-360.38"/>
<polygon fill="#9a32cd" stroke="#9a32cd" points="1002.18,-274.4 992.29,-278.21 1002.4,-281.4 1002.18,-274.4"/>
<text text-anchor="middle" x="1447.5" y="-276.5" font-family="Helvetica,sans-Serif" font-size="10.00"> openapi_info</text>
</g>
<!-- Node18 -->
<g id="node18" class="node">
<title>Node18</title>
<g id="a_node18"><a xlink:title=" ">
<polygon fill="white" stroke="black" points="1751.5,-183.5 1751.5,-213.5 1878.5,-213.5 1878.5,-183.5 1751.5,-183.5"/>
<text text-anchor="start" x="1759.5" y="-201.5" font-family="Helvetica,sans-Serif" font-size="10.00">std::shared_ptr&lt; const</text>
<text text-anchor="middle" x="1815" y="-190.5" font-family="Helvetica,sans-Serif" font-size="10.00"> Endpoint &gt;</text>
</a>
</g>
</g>
<!-- Node18&#45;&gt;Node15 -->
<g id="edge19" class="edge">
<title>Node18&#45;&gt;Node15</title>
<path fill="none" stroke="#9a32cd" stroke-dasharray="5,2" d="M1888.79,-191.31C1925.32,-191.17 1968.74,-196.55 2002,-217.5 2055.85,-251.42 2084.13,-327.39 2094.18,-360.07"/>
<polygon fill="#9a32cd" stroke="#9a32cd" points="1888.63,-187.82 1878.69,-191.49 1888.75,-194.82 1888.63,-187.82"/>
<text text-anchor="middle" x="1959" y="-220.5" font-family="Helvetica,sans-Serif" font-size="10.00"> default_endpoint</text>
</g>
<!-- Node19&#45;&gt;Node18 -->
<g id="edge20" class="edge">
<title>Node19&#45;&gt;Node18</title>
<path fill="none" stroke="#9a32cd" stroke-dasharray="5,2" d="M1524.36,-195.33C1591.5,-196.07 1688.32,-197.12 1751.2,-197.81"/>
<polygon fill="#9a32cd" stroke="#9a32cd" points="1524.3,-191.83 1514.27,-195.22 1524.23,-198.83 1524.3,-191.83"/>
<text text-anchor="middle" x="1628.5" y="-200.5" font-family="Helvetica,sans-Serif" font-size="10.00"> ptr</text>
</g>
<!-- Node20&#45;&gt;Node19 -->
<g id="edge21" class="edge">
<title>Node20&#45;&gt;Node19</title>
<path fill="none" stroke="midnightblue" d="M1179.56,-149.35C1228.75,-156.6 1294.27,-166.58 1352,-176.5 1366.98,-179.07 1383.25,-182.09 1398,-184.91"/>
<polygon fill="midnightblue" stroke="midnightblue" points="1180.04,-145.89 1169.63,-147.9 1179.02,-152.81 1180.04,-145.89"/>
</g>
<!-- Node21&#45;&gt;Node20 -->
<g id="edge22" class="edge">
<title>Node21&#45;&gt;Node20</title>
<path fill="none" stroke="#9a32cd" stroke-dasharray="5,2" d="M491.11,-135.87C631.75,-136.47 909.66,-137.67 1036.32,-138.22"/>
<polygon fill="#9a32cd" stroke="#9a32cd" points="490.83,-132.37 480.81,-135.82 490.8,-139.37 490.83,-132.37"/>
<text text-anchor="middle" x="769" y="-140.5" font-family="Helvetica,sans-Serif" font-size="10.00"> dispatch</text>
</g>
<!-- Node22 -->
<g id="node22" class="node">
<title>Node22</title>
<g id="a_node22"><a xlink:href="classccf_1_1RESTVerb.html" target="_top" xlink:title=" ">
<polygon fill="white" stroke="black" points="146.5,-90 146.5,-109 229.5,-109 229.5,-90 146.5,-90"/>
<text text-anchor="middle" x="188" y="-97" font-family="Helvetica,sans-Serif" font-size="10.00">ccf::RESTVerb</text>
</a>
</g>
</g>
<!-- Node22&#45;&gt;Node21 -->
<g id="edge24" class="edge">
<title>Node22&#45;&gt;Node21</title>
<path fill="none" stroke="#9a32cd" stroke-dasharray="5,2" d="M239.81,-108.01C272.08,-113.41 313.89,-120.41 347.24,-126"/>
<polygon fill="#9a32cd" stroke="#9a32cd" points="240.13,-104.51 229.69,-106.31 238.98,-111.42 240.13,-104.51"/>
<text text-anchor="middle" x="277.5" y="-120.5" font-family="Helvetica,sans-Serif" font-size="10.00"> verb</text>
</g>
<!-- Node23&#45;&gt;Node20 -->
<g id="edge26" class="edge">
<title>Node23&#45;&gt;Node20</title>
<path fill="none" stroke="#9a32cd" stroke-dasharray="5,2" d="M845.76,-178.99C889.94,-173.23 946.71,-165.48 997,-157.5 1009.72,-155.48 1023.27,-153.16 1036.26,-150.85"/>
<polygon fill="#9a32cd" stroke="#9a32cd" points="845.14,-175.54 835.67,-180.3 846.04,-182.48 845.14,-175.54"/>
<text text-anchor="middle" x="925.5" y="-181.5" font-family="Helvetica,sans-Serif" font-size="10.00"> properties</text>
</g>
<!-- Node24&#45;&gt;Node23 -->
<g id="edge27" class="edge">
<title>Node24&#45;&gt;Node23</title>
<path fill="none" stroke="#9a32cd" stroke-dasharray="5,2" d="M485.57,-176.8C550.55,-179.49 641.29,-183.25 702.22,-185.77"/>
<polygon fill="#9a32cd" stroke="#9a32cd" points="485.51,-173.29 475.37,-176.37 485.22,-180.29 485.51,-173.29"/>
<text text-anchor="middle" x="596" y="-188.5" font-family="Helvetica,sans-Serif" font-size="10.00"> authn_policies</text>
</g>
<!-- Node25 -->
<g id="node25" class="node">
<title>Node25</title>
<g id="a_node25"><a xlink:title=" ">
<polygon fill="white" stroke="black" points="702,-0.5 702,-30.5 836,-30.5 836,-0.5 702,-0.5"/>
<text text-anchor="start" x="710" y="-18.5" font-family="Helvetica,sans-Serif" font-size="10.00">std::vector&lt; std::shared</text>
<text text-anchor="middle" x="769" y="-7.5" font-family="Helvetica,sans-Serif" font-size="10.00">_ptr&lt; AuthnPolicy &gt; &gt;</text>
</a>
</g>
</g>
<!-- Node25&#45;&gt;Node20 -->
<g id="edge30" class="edge">
<title>Node25&#45;&gt;Node20</title>
<path fill="none" stroke="#9a32cd" stroke-dasharray="5,2" d="M846.34,-28.42C891.33,-37.55 948.71,-51.88 997,-72.5 1028.68,-86.03 1061.78,-108.43 1082.14,-123.32"/>
<polygon fill="#9a32cd" stroke="#9a32cd" points="846.85,-24.95 836.36,-26.44 845.48,-31.82 846.85,-24.95"/>
<text text-anchor="middle" x="925.5" y="-75.5" font-family="Helvetica,sans-Serif" font-size="10.00"> authn_policies</text>
</g>
<!-- Node26 -->
<g id="node26" class="node">
<title>Node26</title>
<g id="a_node26"><a xlink:title=" ">
<polygon fill="white" stroke="black" points="320,-6 320,-25 490,-25 490,-6 320,-6"/>
<text text-anchor="middle" x="405" y="-13" font-family="Helvetica,sans-Serif" font-size="10.00">std::shared_ptr&lt; AuthnPolicy &gt;</text>
</a>
</g>
</g>
<!-- Node26&#45;&gt;Node25 -->
<g id="edge31" class="edge">
<title>Node26&#45;&gt;Node25</title>
<path fill="none" stroke="#9a32cd" stroke-dasharray="5,2" d="M500.8,-15.5C564.03,-15.5 645.56,-15.5 701.85,-15.5"/>
<polygon fill="#9a32cd" stroke="#9a32cd" points="500.42,-12 490.42,-15.5 500.42,-19 500.42,-12"/>
<text text-anchor="middle" x="596" y="-18.5" font-family="Helvetica,sans-Serif" font-size="10.00"> elements</text>
</g>
<!-- Node27 -->
<g id="node27" class="node">
<title>Node27</title>
<g id="a_node27"><a xlink:href="classccf_1_1AuthnPolicy.html" target="_top" xlink:title=" ">
<polygon fill="white" stroke="black" points="141,-6 141,-25 235,-25 235,-6 141,-6"/>
<text text-anchor="middle" x="188" y="-13" font-family="Helvetica,sans-Serif" font-size="10.00">ccf::AuthnPolicy</text>
</a>
</g>
</g>
<!-- Node27&#45;&gt;Node26 -->
<g id="edge32" class="edge">
<title>Node27&#45;&gt;Node26</title>
<path fill="none" stroke="#9a32cd" stroke-dasharray="5,2" d="M245.28,-15.5C268.04,-15.5 294.79,-15.5 319.79,-15.5"/>
<polygon fill="#9a32cd" stroke="#9a32cd" points="245.12,-12 235.12,-15.5 245.12,-19 245.12,-12"/>
<text text-anchor="middle" x="277.5" y="-18.5" font-family="Helvetica,sans-Serif" font-size="10.00"> ptr</text>
</g>
<!-- Node28 -->
<g id="node28" class="node">
<title>Node28</title>
<g id="a_node28"><a xlink:title=" ">
<polygon fill="white" stroke="black" points="1015,-173 1015,-192 1191,-192 1191,-173 1015,-173"/>
<text text-anchor="middle" x="1103" y="-180" font-family="Helvetica,sans-Serif" font-size="10.00">std::vector&lt; SchemaBuilderFn &gt;</text>
</a>
</g>
</g>
<!-- Node28&#45;&gt;Node19 -->
<g id="edge34" class="edge">
<title>Node28&#45;&gt;Node19</title>
<path fill="none" stroke="#9a32cd" stroke-dasharray="5,2" d="M1201.23,-180.38C1247.02,-180.03 1302.35,-180.52 1352,-183.5 1361.32,-184.06 1371.12,-184.91 1380.75,-185.89"/>
<polygon fill="#9a32cd" stroke="#9a32cd" points="1200.98,-176.88 1191.02,-180.47 1201.05,-183.88 1200.98,-176.88"/>
<text text-anchor="middle" x="1280.5" y="-186.5" font-family="Helvetica,sans-Serif" font-size="10.00"> schema_builders</text>
</g>
<!-- Node29&#45;&gt;Node15 -->
<g id="edge35" class="edge">
<title>Node29&#45;&gt;Node15</title>
<path fill="none" stroke="#9a32cd" stroke-dasharray="5,2" d="M1362.06,-455.27C1448.99,-452.51 1591.45,-446.98 1714,-437.5 1796.01,-431.15 1816.49,-428.58 1898,-417.5 1944.41,-411.19 1956.17,-410.16 2002,-400.5 2015.72,-397.61 2030.41,-394.04 2044.1,-390.52"/>
<polygon fill="#9a32cd" stroke="#9a32cd" points="1361.89,-451.77 1352,-455.58 1362.1,-458.77 1361.89,-451.77"/>
<text text-anchor="middle" x="1628.5" y="-451.5" font-family="Helvetica,sans-Serif" font-size="10.00"> fully_qualified_endpoints</text>
</g>
<!-- Node30&#45;&gt;Node15 -->
<g id="edge37" class="edge">
<title>Node30&#45;&gt;Node15</title>
<path fill="none" stroke="#9a32cd" stroke-dasharray="5,2" d="M1724.27,-402.63C1815.89,-395.99 1952.3,-386.1 2032.65,-380.27"/>
<polygon fill="#9a32cd" stroke="#9a32cd" points="1723.88,-399.15 1714.16,-403.36 1724.39,-406.13 1723.88,-399.15"/>
<text text-anchor="middle" x="1815" y="-405.5" font-family="Helvetica,sans-Serif" font-size="10.00"> templated_endpoints</text>
</g>
<!-- Node31&#45;&gt;Node15 -->
<g id="edge40" class="edge">
<title>Node31&#45;&gt;Node15</title>
<path fill="none" stroke="#9a32cd" stroke-dasharray="5,2" d="M694.47,-372.69C977.55,-373.26 1794.71,-374.89 2032.72,-375.37"/>
<polygon fill="#9a32cd" stroke="#9a32cd" points="694.22,-369.19 684.22,-372.67 694.21,-376.19 694.22,-369.19"/>
<text text-anchor="middle" x="1280.5" y="-377.5" font-family="Helvetica,sans-Serif" font-size="10.00"> metrics</text>
</g>
<!-- Node32 -->
<g id="node32" class="node">
<title>Node32</title>
<g id="a_node32"><a xlink:href="classkv_1_1Consensus.html" target="_top" xlink:title=" ">
<polygon fill="white" stroke="black" points="1772,-145 1772,-164 1858,-164 1858,-145 1772,-145"/>
<text text-anchor="middle" x="1815" y="-152" font-family="Helvetica,sans-Serif" font-size="10.00">kv::Consensus</text>
</a>
</g>
</g>
<!-- Node32&#45;&gt;Node15 -->
<g id="edge42" class="edge">
<title>Node32&#45;&gt;Node15</title>
<path fill="none" stroke="#9a32cd" stroke-dasharray="5,2" d="M1868.27,-148.64C1908.44,-146.91 1963.41,-150.85 2002,-178.5 2065.3,-223.87 2089.05,-322.46 2096.04,-360.3"/>
<polygon fill="#9a32cd" stroke="#9a32cd" points="1867.92,-145.15 1858.14,-149.21 1868.32,-152.14 1867.92,-145.15"/>
<text text-anchor="middle" x="1959" y="-181.5" font-family="Helvetica,sans-Serif" font-size="10.00"> consensus</text>
</g>
<!-- Node33 -->
<g id="node33" class="node">
<title>Node33</title>
<g id="a_node33"><a xlink:href="classkv_1_1ConfigurableConsensus.html" target="_top" xlink:title=" ">
<polygon fill="white" stroke="black" points="1373.5,-145 1373.5,-164 1521.5,-164 1521.5,-145 1373.5,-145"/>
<text text-anchor="middle" x="1447.5" y="-152" font-family="Helvetica,sans-Serif" font-size="10.00">kv::ConfigurableConsensus</text>
</a>
</g>
</g>
<!-- Node33&#45;&gt;Node32 -->
<g id="edge43" class="edge">
<title>Node33&#45;&gt;Node32</title>
<path fill="none" stroke="midnightblue" d="M1531.92,-154.5C1606.73,-154.5 1713.43,-154.5 1771.82,-154.5"/>
<polygon fill="midnightblue" stroke="midnightblue" points="1531.59,-151 1521.59,-154.5 1531.59,-158 1531.59,-151"/>
</g>
<!-- Node34 -->
<g id="node34" class="node">
<title>Node34</title>
<g id="a_node34"><a xlink:href="classkv_1_1TxHistory.html" target="_top" xlink:title=" ">
<polygon fill="white" stroke="black" points="1774.5,-528 1774.5,-547 1855.5,-547 1855.5,-528 1774.5,-528"/>
<text text-anchor="middle" x="1815" y="-535" font-family="Helvetica,sans-Serif" font-size="10.00">kv::TxHistory</text>
</a>
</g>
</g>
<!-- Node34&#45;&gt;Node15 -->
<g id="edge44" class="edge">
<title>Node34&#45;&gt;Node15</title>
<path fill="none" stroke="#9a32cd" stroke-dasharray="5,2" d="M1865.91,-541.27C1905.55,-541.92 1960.96,-537.4 2002,-512.5 2050.25,-483.22 2080.79,-419.64 2092.75,-390.56"/>
<polygon fill="#9a32cd" stroke="#9a32cd" points="1865.77,-537.77 1855.68,-540.98 1865.57,-544.76 1865.77,-537.77"/>
<text text-anchor="middle" x="1959" y="-540.5" font-family="Helvetica,sans-Serif" font-size="10.00"> history</text>
</g>
<!-- Node35 -->
<g id="node35" class="node">
<title>Node35</title>
<g id="a_node35"><a xlink:href="structccfapp_1_1AbstractNodeContext.html" target="_top" xlink:title=" ">
<polygon fill="white" stroke="black" points="2020,-561 2020,-580 2179,-580 2179,-561 2020,-561"/>
<text text-anchor="middle" x="2099.5" y="-568" font-family="Helvetica,sans-Serif" font-size="10.00">ccfapp::AbstractNodeContext</text>
</a>
</g>
</g>
<!-- Node35&#45;&gt;Node2 -->
<g id="edge45" class="edge">
<title>Node35&#45;&gt;Node2</title>
<path fill="none" stroke="#9a32cd" stroke-dasharray="5,2" d="M2189.55,-576.25C2214.61,-578.05 2241.89,-580.18 2267,-582.5 2280.24,-583.72 2294.57,-585.26 2307.77,-586.75"/>
<polygon fill="#9a32cd" stroke="#9a32cd" points="2189.54,-572.74 2179.32,-575.52 2189.05,-579.72 2189.54,-572.74"/>
<text text-anchor="middle" x="2232" y="-585.5" font-family="Helvetica,sans-Serif" font-size="10.00"> node_context</text>
</g>
<!-- Node35&#45;&gt;Node41 -->
<g id="edge54" class="edge">
<title>Node35&#45;&gt;Node41</title>
<path fill="none" stroke="#9a32cd" stroke-dasharray="5,2" d="M2127.01,-556.05C2179.16,-527.62 2293.86,-465.1 2337.85,-441.12"/>
<polygon fill="#9a32cd" stroke="#9a32cd" points="2125.13,-553.09 2118.03,-560.95 2128.48,-559.23 2125.13,-553.09"/>
<text text-anchor="middle" x="2232" y="-520.5" font-family="Helvetica,sans-Serif" font-size="10.00"> context</text>
</g>
<!-- Node36&#45;&gt;Node35 -->
<g id="edge46" class="edge">
<title>Node36&#45;&gt;Node35</title>
<path fill="none" stroke="#9a32cd" stroke-dasharray="5,2" d="M1908.11,-581.28C1944.11,-579.24 1984.99,-576.93 2019.61,-574.97"/>
<polygon fill="#9a32cd" stroke="#9a32cd" points="1907.88,-577.79 1898.09,-581.85 1908.27,-584.78 1907.88,-577.79"/>
<text text-anchor="middle" x="1959" y="-582.5" font-family="Helvetica,sans-Serif" font-size="10.00"> subsystems</text>
</g>
<!-- Node37 -->
<g id="node37" class="node">
<title>Node37</title>
<g id="a_node37"><a xlink:title=" ">
<polygon fill="white" stroke="black" points="1370,-527.5 1370,-557.5 1525,-557.5 1525,-527.5 1370,-527.5"/>
<text text-anchor="start" x="1378" y="-545.5" font-family="Helvetica,sans-Serif" font-size="10.00">std::shared_ptr&lt; ccf</text>
<text text-anchor="middle" x="1447.5" y="-534.5" font-family="Helvetica,sans-Serif" font-size="10.00">::AbstractNodeSubSystem &gt;</text>
</a>
</g>
</g>
<!-- Node37&#45;&gt;Node36 -->
<g id="edge48" class="edge">
<title>Node37&#45;&gt;Node36</title>
<path fill="none" stroke="#9a32cd" stroke-dasharray="5,2" d="M1506.26,-525.02C1562.43,-511.43 1648.61,-499.81 1714,-532.5 1725.93,-538.46 1721.3,-548.55 1732,-556.5 1736.75,-560.03 1741.95,-563.17 1747.36,-565.98"/>
<polygon fill="#9a32cd" stroke="#9a32cd" points="1505.32,-521.65 1496.48,-527.48 1507.03,-528.44 1505.32,-521.65"/>
<text text-anchor="middle" x="1628.5" y="-535.5" font-family="Helvetica,sans-Serif" font-size="10.00"> elements</text>
</g>
<!-- Node38 -->
<g id="node38" class="node">
<title>Node38</title>
<g id="a_node38"><a xlink:href="classccf_1_1AbstractNodeSubSystem.html" target="_top" xlink:title=" ">
<polygon fill="white" stroke="black" points="1024.5,-533 1024.5,-552 1181.5,-552 1181.5,-533 1024.5,-533"/>
<text text-anchor="middle" x="1103" y="-540" font-family="Helvetica,sans-Serif" font-size="10.00">ccf::AbstractNodeSubSystem</text>
</a>
</g>
</g>
<!-- Node38&#45;&gt;Node37 -->
<g id="edge49" class="edge">
<title>Node38&#45;&gt;Node37</title>
<path fill="none" stroke="#9a32cd" stroke-dasharray="5,2" d="M1191.82,-542.5C1246.89,-542.5 1317.19,-542.5 1369.97,-542.5"/>
<polygon fill="#9a32cd" stroke="#9a32cd" points="1191.72,-539 1181.72,-542.5 1191.72,-546 1191.72,-539"/>
<text text-anchor="middle" x="1280.5" y="-545.5" font-family="Helvetica,sans-Serif" font-size="10.00"> ptr</text>
</g>
<!-- Node39 -->
<g id="node39" class="node">
<title>Node39</title>
<g id="a_node39"><a xlink:href="classccf_1_1ACMERpcEndpoints.html" target="_top" xlink:title=" ">
<polygon fill="white" stroke="black" points="2666,-422 2666,-441 2797,-441 2797,-422 2666,-422"/>
<text text-anchor="middle" x="2731.5" y="-429" font-family="Helvetica,sans-Serif" font-size="10.00">ccf::ACMERpcEndpoints</text>
</a>
</g>
</g>
<!-- Node39&#45;&gt;Node1 -->
<g id="edge50" class="edge">
<title>Node39&#45;&gt;Node1</title>
<path fill="none" stroke="#9a32cd" stroke-dasharray="5,2" d="M2761.68,-445.41C2805.75,-466.42 2888.19,-505.71 2926.26,-523.86"/>
<polygon fill="#9a32cd" stroke="#9a32cd" points="2763.17,-442.24 2752.63,-441.1 2760.15,-448.56 2763.17,-442.24"/>
<text text-anchor="middle" x="2841" y="-497.5" font-family="Helvetica,sans-Serif" font-size="10.00"> endpoints</text>
</g>
<!-- Node40 -->
<g id="node40" class="node">
<title>Node40</title>
<g id="a_node40"><a xlink:href="classccf_1_1CommonEndpointRegistry.html" target="_top" xlink:title=" ">
<polygon fill="white" stroke="black" points="2465,-422 2465,-441 2629,-441 2629,-422 2465,-422"/>
<text text-anchor="middle" x="2547" y="-429" font-family="Helvetica,sans-Serif" font-size="10.00">ccf::CommonEndpointRegistry</text>
</a>
</g>
</g>
<!-- Node40&#45;&gt;Node39 -->
<g id="edge51" class="edge">
<title>Node40&#45;&gt;Node39</title>
<path fill="none" stroke="midnightblue" d="M2639.22,-431.5C2648.19,-431.5 2657.17,-431.5 2665.79,-431.5"/>
<polygon fill="midnightblue" stroke="midnightblue" points="2639.11,-428 2629.11,-431.5 2639.11,-435 2639.11,-428"/>
</g>
<!-- Node41&#45;&gt;Node40 -->
<g id="edge52" class="edge">
<title>Node41&#45;&gt;Node40</title>
<path fill="none" stroke="midnightblue" d="M2438.38,-431.5C2447.11,-431.5 2456,-431.5 2464.73,-431.5"/>
<polygon fill="midnightblue" stroke="midnightblue" points="2438.23,-428 2428.23,-431.5 2438.23,-435 2438.23,-428"/>
</g>
<!-- Node42&#45;&gt;Node39 -->
<g id="edge55" class="edge">
<title>Node42&#45;&gt;Node39</title>
<path fill="none" stroke="#9a32cd" stroke-dasharray="5,2" d="M667.39,-57.52C733.71,-58.39 835.85,-59.5 924.5,-59.5 924.5,-59.5 924.5,-59.5 2548,-59.5 2714.53,-59.5 2729.12,-363.7 2730.38,-421.93"/>
<polygon fill="#9a32cd" stroke="#9a32cd" points="667.1,-54.01 657.06,-57.38 667.01,-61.01 667.1,-54.01"/>
<text text-anchor="middle" x="1815" y="-62.5" font-family="Helvetica,sans-Serif" font-size="10.00"> prepared_responses</text>
</g>
</g>
</svg>
