<?xml version="1.0" encoding="UTF-8" standalone="no"?>
<!DOCTYPE svg PUBLIC "-//W3C//DTD SVG 1.1//EN"
 "http://www.w3.org/Graphics/SVG/1.1/DTD/svg11.dtd">
<!-- Generated by graphviz version 2.43.0 (0)
 -->
<!-- Title: http::HTTP2Endpoint Pages: 1 -->
<svg width="1460pt" height="185pt"
 viewBox="0.00 0.00 1460.00 184.50" xmlns="http://www.w3.org/2000/svg" xmlns:xlink="http://www.w3.org/1999/xlink">
<g id="graph0" class="graph" transform="scale(1 1) rotate(0) translate(4 180.5)">
<title>http::HTTP2Endpoint</title>
<polygon fill="white" stroke="transparent" points="-4,4 -4,-180.5 1456,-180.5 1456,4 -4,4"/>
<!-- Node1 -->
<g id="node1" class="node">
<title>Node1</title>
<g id="a_node1"><a xlink:title=" ">
<polygon fill="#bfbfbf" stroke="black" points="1336,-50 1336,-69 1452,-69 1452,-50 1336,-50"/>
<text text-anchor="middle" x="1394" y="-57" font-family="Helvetica,sans-Serif" font-size="10.00">http::HTTP2Endpoint</text>
</a>
</g>
</g>
<!-- Node2 -->
<g id="node2" class="node">
<title>Node2</title>
<g id="a_node2"><a xlink:href="classccf_1_1TLSEndpoint.html" target="_top" xlink:title=" ">
<polygon fill="white" stroke="black" points="1164,-32 1164,-51 1260,-51 1260,-32 1164,-32"/>
<text text-anchor="middle" x="1212" y="-39" font-family="Helvetica,sans-Serif" font-size="10.00">ccf::TLSEndpoint</text>
</a>
</g>
</g>
<!-- Node2&#45;&gt;Node1 -->
<g id="edge1" class="edge">
<title>Node2&#45;&gt;Node1</title>
<path fill="none" stroke="midnightblue" d="M1270.31,-47.23C1291.22,-49.32 1314.86,-51.69 1335.76,-53.78"/>
<polygon fill="midnightblue" stroke="midnightblue" points="1270.59,-43.74 1260.29,-46.23 1269.89,-50.71 1270.59,-43.74"/>
</g>
<!-- Node3 -->
<g id="node3" class="node">
<title>Node3</title>
<g id="a_node3"><a xlink:href="classccf_1_1Endpoint.html" target="_top" xlink:title=" ">
<polygon fill="white" stroke="black" points="963,-50 963,-69 1042,-69 1042,-50 963,-50"/>
<text text-anchor="middle" x="1002.5" y="-57" font-family="Helvetica,sans-Serif" font-size="10.00">ccf::Endpoint</text>
</a>
</g>
</g>
<!-- Node3&#45;&gt;Node2 -->
<g id="edge2" class="edge">
<title>Node3&#45;&gt;Node2</title>
<path fill="none" stroke="midnightblue" d="M1052.13,-55.28C1085.87,-52.36 1130.55,-48.48 1163.93,-45.58"/>
<polygon fill="midnightblue" stroke="midnightblue" points="1051.7,-51.81 1042.04,-56.16 1052.31,-58.78 1051.7,-51.81"/>
</g>
<!-- Node6 -->
<g id="node6" class="node">
<title>Node6</title>
<g id="a_node6"><a xlink:href="classhttp2_1_1Session.html" target="_top" xlink:title=" ">
<polygon fill="white" stroke="black" points="1169,-84 1169,-103 1255,-103 1255,-84 1169,-84"/>
<text text-anchor="middle" x="1212" y="-91" font-family="Helvetica,sans-Serif" font-size="10.00">http2::Session</text>
</a>
</g>
</g>
<!-- Node3&#45;&gt;Node6 -->
<g id="edge16" class="edge">
<title>Node3&#45;&gt;Node6</title>
<path fill="none" stroke="#9a32cd" stroke-dasharray="5,2" d="M1052.38,-67.29C1079.89,-71.71 1114.87,-77.35 1146,-82.5 1153.34,-83.71 1161.14,-85.02 1168.7,-86.29"/>
<polygon fill="#9a32cd" stroke="#9a32cd" points="1052.65,-63.79 1042.22,-65.67 1051.54,-70.71 1052.65,-63.79"/>
<text text-anchor="middle" x="1123" y="-85.5" font-family="Helvetica,sans-Serif" font-size="10.00"> endpoint</text>
</g>
<!-- Node4 -->
<g id="node4" class="node">
<title>Node4</title>
<g id="a_node4"><a xlink:title=" ">
<polygon fill="white" stroke="black" points="704,-44.5 704,-74.5 838,-74.5 838,-44.5 704,-44.5"/>
<text text-anchor="start" x="712" y="-62.5" font-family="Helvetica,sans-Serif" font-size="10.00">std::enable_shared</text>
<text text-anchor="middle" x="771" y="-51.5" font-family="Helvetica,sans-Serif" font-size="10.00">_from_this&lt; Endpoint &gt;</text>
</a>
</g>
</g>
<!-- Node4&#45;&gt;Node3 -->
<g id="edge3" class="edge">
<title>Node4&#45;&gt;Node3</title>
<path fill="none" stroke="midnightblue" d="M848.2,-59.5C886.6,-59.5 931.52,-59.5 962.77,-59.5"/>
<polygon fill="midnightblue" stroke="midnightblue" points="848.07,-56 838.07,-59.5 848.07,-63 848.07,-56"/>
</g>
<!-- Node5 -->
<g id="node5" class="node">
<title>Node5</title>
<g id="a_node5"><a xlink:title=" ">
<polygon fill="white" stroke="black" points="932,-0.5 932,-30.5 1073,-30.5 1073,-0.5 932,-0.5"/>
<text text-anchor="start" x="940" y="-18.5" font-family="Helvetica,sans-Serif" font-size="10.00">std::shared_ptr&lt; Abstract</text>
<text text-anchor="middle" x="1002.5" y="-7.5" font-family="Helvetica,sans-Serif" font-size="10.00">Writer &gt;</text>
</a>
</g>
</g>
<!-- Node5&#45;&gt;Node2 -->
<g id="edge4" class="edge">
<title>Node5&#45;&gt;Node2</title>
<path fill="none" stroke="#9a32cd" stroke-dasharray="5,2" d="M1083.05,-24.72C1103.57,-27.17 1125.61,-29.87 1146,-32.5 1151.76,-33.24 1157.81,-34.05 1163.8,-34.86"/>
<polygon fill="#9a32cd" stroke="#9a32cd" points="1083.46,-21.25 1073.11,-23.54 1082.63,-28.2 1083.46,-21.25"/>
<text text-anchor="middle" x="1123" y="-35.5" font-family="Helvetica,sans-Serif" font-size="10.00"> to_host</text>
</g>
<!-- Node6&#45;&gt;Node1 -->
<g id="edge5" class="edge">
<title>Node6&#45;&gt;Node1</title>
<path fill="none" stroke="#9a32cd" stroke-dasharray="5,2" d="M1265.31,-83.62C1289.59,-79.03 1318.35,-73.6 1342.42,-69.05"/>
<polygon fill="#9a32cd" stroke="#9a32cd" points="1264.38,-80.23 1255.2,-85.53 1265.68,-87.11 1264.38,-80.23"/>
<text text-anchor="middle" x="1298" y="-83.5" font-family="Helvetica,sans-Serif" font-size="10.00"> session</text>
</g>
<!-- Node7 -->
<g id="node7" class="node">
<title>Node7</title>
<g id="a_node7"><a xlink:href="classhttp2_1_1AbstractSession.html" target="_top" xlink:title=" ">
<polygon fill="white" stroke="black" points="939.5,-143 939.5,-162 1065.5,-162 1065.5,-143 939.5,-143"/>
<text text-anchor="middle" x="1002.5" y="-150" font-family="Helvetica,sans-Serif" font-size="10.00">http2::AbstractSession</text>
</a>
</g>
</g>
<!-- Node7&#45;&gt;Node6 -->
<g id="edge6" class="edge">
<title>Node7&#45;&gt;Node6</title>
<path fill="none" stroke="midnightblue" d="M1054.07,-140.58C1081.46,-133.82 1115.77,-124.86 1146,-115.5 1158.52,-111.62 1172.28,-107.02 1183.9,-103.02"/>
<polygon fill="midnightblue" stroke="midnightblue" points="1053.2,-137.19 1044.32,-142.96 1054.87,-143.99 1053.2,-137.19"/>
</g>
<!-- Node8 -->
<g id="node8" class="node">
<title>Node8</title>
<g id="a_node8"><a xlink:title=" ">
<polygon fill="white" stroke="black" points="923,-93.5 923,-123.5 1082,-123.5 1082,-93.5 923,-93.5"/>
<text text-anchor="start" x="931" y="-111.5" font-family="Helvetica,sans-Serif" font-size="10.00">std::list&lt; std::shared</text>
<text text-anchor="middle" x="1002.5" y="-100.5" font-family="Helvetica,sans-Serif" font-size="10.00">_ptr&lt; http2::StreamData &gt; &gt;</text>
</a>
</g>
</g>
<!-- Node8&#45;&gt;Node6 -->
<g id="edge7" class="edge">
<title>Node8&#45;&gt;Node6</title>
<path fill="none" stroke="#9a32cd" stroke-dasharray="5,2" d="M1092.35,-102.08C1118.94,-100.16 1146.85,-98.14 1168.92,-96.54"/>
<polygon fill="#9a32cd" stroke="#9a32cd" points="1091.96,-98.6 1082.24,-102.81 1092.47,-105.58 1091.96,-98.6"/>
<text text-anchor="middle" x="1123" y="-103.5" font-family="Helvetica,sans-Serif" font-size="10.00"> streams</text>
</g>
<!-- Node9 -->
<g id="node9" class="node">
<title>Node9</title>
<g id="a_node9"><a xlink:title=" ">
<polygon fill="white" stroke="black" points="708,-93.5 708,-123.5 834,-123.5 834,-93.5 708,-93.5"/>
<text text-anchor="start" x="716" y="-111.5" font-family="Helvetica,sans-Serif" font-size="10.00">std::shared_ptr&lt; http2</text>
<text text-anchor="middle" x="771" y="-100.5" font-family="Helvetica,sans-Serif" font-size="10.00">::StreamData &gt;</text>
</a>
</g>
</g>
<!-- Node9&#45;&gt;Node8 -->
<g id="edge8" class="edge">
<title>Node9&#45;&gt;Node8</title>
<path fill="none" stroke="#9a32cd" stroke-dasharray="5,2" d="M844.25,-108.5C869.26,-108.5 897.4,-108.5 922.9,-108.5"/>
<polygon fill="#9a32cd" stroke="#9a32cd" points="844.11,-105 834.11,-108.5 844.11,-112 844.11,-105"/>
<text text-anchor="middle" x="880.5" y="-111.5" font-family="Helvetica,sans-Serif" font-size="10.00"> elements</text>
</g>
<!-- Node10 -->
<g id="node10" class="node">
<title>Node10</title>
<g id="a_node10"><a xlink:href="structhttp2_1_1StreamData.html" target="_top" xlink:title=" ">
<polygon fill="white" stroke="black" points="544,-99 544,-118 651,-118 651,-99 544,-99"/>
<text text-anchor="middle" x="597.5" y="-106" font-family="Helvetica,sans-Serif" font-size="10.00">http2::StreamData</text>
</a>
</g>
</g>
<!-- Node10&#45;&gt;Node9 -->
<g id="edge9" class="edge">
<title>Node10&#45;&gt;Node9</title>
<path fill="none" stroke="#9a32cd" stroke-dasharray="5,2" d="M661.64,-108.5C676.77,-108.5 692.92,-108.5 708,-108.5"/>
<polygon fill="#9a32cd" stroke="#9a32cd" points="661.36,-105 651.36,-108.5 661.36,-112 661.36,-105"/>
<text text-anchor="middle" x="677.5" y="-111.5" font-family="Helvetica,sans-Serif" font-size="10.00"> ptr</text>
</g>
<!-- Node11 -->
<g id="node11" class="node">
<title>Node11</title>
<g id="a_node11"><a xlink:title=" ">
<polygon fill="white" stroke="black" points="291,-113.5 291,-143.5 434,-143.5 434,-113.5 291,-113.5"/>
<text text-anchor="start" x="299" y="-131.5" font-family="Helvetica,sans-Serif" font-size="10.00">std::map&lt; std::string,</text>
<text text-anchor="middle" x="362.5" y="-120.5" font-family="Helvetica,sans-Serif" font-size="10.00"> std::string, std::less&lt;&gt; &gt;</text>
</a>
</g>
</g>
<!-- Node11&#45;&gt;Node10 -->
<g id="edge10" class="edge">
<title>Node11&#45;&gt;Node10</title>
<path fill="none" stroke="#9a32cd" stroke-dasharray="5,2" d="M444.15,-121.58C477.21,-118.74 514.53,-115.54 543.97,-113.01"/>
<polygon fill="#9a32cd" stroke="#9a32cd" points="443.7,-118.1 434.04,-122.45 444.3,-125.08 443.7,-118.1"/>
<text text-anchor="middle" x="489" y="-123.5" font-family="Helvetica,sans-Serif" font-size="10.00"> headers</text>
</g>
<!-- Node12 -->
<g id="node12" class="node">
<title>Node12</title>
<g id="a_node12"><a xlink:title=" ">
<polygon fill="white" stroke="black" points="141,-145 141,-164 206,-164 206,-145 141,-145"/>
<text text-anchor="middle" x="173.5" y="-152" font-family="Helvetica,sans-Serif" font-size="10.00">std::string</text>
</a>
</g>
</g>
<!-- Node12&#45;&gt;Node10 -->
<g id="edge13" class="edge">
<title>Node12&#45;&gt;Node10</title>
<path fill="none" stroke="#9a32cd" stroke-dasharray="5,2" d="M216.27,-165.36C218.87,-165.81 221.46,-166.2 224,-166.5 245.62,-169.08 251.24,-167.38 273,-166.5 386.19,-161.94 417.11,-166.75 526,-135.5 542.63,-130.73 560.85,-123.7 574.61,-118.01"/>
<polygon fill="#9a32cd" stroke="#9a32cd" points="216.74,-161.89 206.25,-163.37 215.38,-168.75 216.74,-161.89"/>
<text text-anchor="middle" x="362.5" y="-168.5" font-family="Helvetica,sans-Serif" font-size="10.00"> url</text>
</g>
<!-- Node12&#45;&gt;Node11 -->
<g id="edge11" class="edge">
<title>Node12&#45;&gt;Node11</title>
<path fill="none" stroke="#9a32cd" stroke-dasharray="5,2" d="M215.95,-145.86C218.67,-145.38 221.37,-144.92 224,-144.5 245.6,-141.07 269.22,-138.05 290.69,-135.59"/>
<polygon fill="#9a32cd" stroke="#9a32cd" points="215.3,-142.42 206.12,-147.7 216.59,-149.3 215.3,-142.42"/>
<text text-anchor="middle" x="248.5" y="-158.5" font-family="Helvetica,sans-Serif" font-size="10.00"> elements</text>
<text text-anchor="middle" x="248.5" y="-147.5" font-family="Helvetica,sans-Serif" font-size="10.00">keys</text>
</g>
<!-- Node13 -->
<g id="node13" class="node">
<title>Node13</title>
<g id="a_node13"><a xlink:title=" ">
<polygon fill="white" stroke="black" points="0,-139.5 0,-169.5 104,-169.5 104,-139.5 0,-139.5"/>
<text text-anchor="start" x="8" y="-157.5" font-family="Helvetica,sans-Serif" font-size="10.00">std::basic_string&lt;</text>
<text text-anchor="middle" x="52" y="-146.5" font-family="Helvetica,sans-Serif" font-size="10.00"> Char &gt;</text>
</a>
</g>
</g>
<!-- Node13&#45;&gt;Node12 -->
<g id="edge12" class="edge">
<title>Node13&#45;&gt;Node12</title>
<path fill="none" stroke="midnightblue" d="M114.1,-154.5C123.41,-154.5 132.68,-154.5 141,-154.5"/>
<polygon fill="midnightblue" stroke="midnightblue" points="114.03,-151 104.03,-154.5 114.03,-158 114.03,-151"/>
</g>
<!-- Node14 -->
<g id="node14" class="node">
<title>Node14</title>
<g id="a_node14"><a xlink:href="classccf_1_1RESTVerb.html" target="_top" xlink:title=" ">
<polygon fill="white" stroke="black" points="321,-75 321,-94 404,-94 404,-75 321,-75"/>
<text text-anchor="middle" x="362.5" y="-82" font-family="Helvetica,sans-Serif" font-size="10.00">ccf::RESTVerb</text>
</a>
</g>
</g>
<!-- Node14&#45;&gt;Node10 -->
<g id="edge14" class="edge">
<title>Node14&#45;&gt;Node10</title>
<path fill="none" stroke="#9a32cd" stroke-dasharray="5,2" d="M414.31,-88.73C446.37,-91.51 488.64,-95.39 526,-99.5 531.76,-100.13 537.79,-100.84 543.78,-101.57"/>
<polygon fill="#9a32cd" stroke="#9a32cd" points="414.54,-85.24 404.28,-87.87 413.94,-92.21 414.54,-85.24"/>
<text text-anchor="middle" x="489" y="-102.5" font-family="Helvetica,sans-Serif" font-size="10.00"> verb</text>
</g>
<!-- Node15 -->
<g id="node15" class="node">
<title>Node15</title>
<g id="a_node15"><a xlink:title=" ">
<polygon fill="white" stroke="black" points="300,-34 300,-53 425,-53 425,-34 300,-34"/>
<text text-anchor="middle" x="362.5" y="-41" font-family="Helvetica,sans-Serif" font-size="10.00">std::vector&lt; uint8_t &gt;</text>
</a>
</g>
</g>
<!-- Node15&#45;&gt;Node10 -->
<g id="edge15" class="edge">
<title>Node15&#45;&gt;Node10</title>
<path fill="none" stroke="#9a32cd" stroke-dasharray="5,2" d="M435.11,-46.8C463.98,-49.76 497.2,-55.28 526,-65.5 548.16,-73.37 570.86,-88.8 584.31,-98.88"/>
<polygon fill="#9a32cd" stroke="#9a32cd" points="435.38,-43.31 425.1,-45.85 434.73,-50.28 435.38,-43.31"/>
<text text-anchor="middle" x="489" y="-79.5" font-family="Helvetica,sans-Serif" font-size="10.00"> request_body</text>
<text text-anchor="middle" x="489" y="-68.5" font-family="Helvetica,sans-Serif" font-size="10.00">response_body</text>
</g>
</g>
</svg>
