<?xml version="1.0" encoding="UTF-8" standalone="no"?>
<!DOCTYPE svg PUBLIC "-//W3C//DTD SVG 1.1//EN"
 "http://www.w3.org/Graphics/SVG/1.1/DTD/svg11.dtd">
<!-- Generated by graphviz version 2.43.0 (0)
 -->
<!-- Title: ccf::indexing::strategies::VisitEachEntryInMap Pages: 1 -->
<svg width="313pt" height="174pt"
 viewBox="0.00 0.00 312.50 174.00" xmlns="http://www.w3.org/2000/svg" xmlns:xlink="http://www.w3.org/1999/xlink">
<g id="graph0" class="graph" transform="scale(1 1) rotate(0) translate(4 170)">
<title>ccf::indexing::strategies::VisitEachEntryInMap</title>
<polygon fill="white" stroke="transparent" points="-4,4 -4,-170 308.5,-170 308.5,4 -4,4"/>
<!-- Node1 -->
<g id="node1" class="node">
<title>Node1</title>
<g id="a_node1"><a xlink:title=" ">
<polygon fill="#bfbfbf" stroke="black" points="108,-0.5 108,-30.5 241,-30.5 241,-0.5 108,-0.5"/>
<text text-anchor="start" x="116" y="-18.5" font-family="Helvetica,sans-Serif" font-size="10.00">ccf::indexing::strategies</text>
<text text-anchor="middle" x="174.5" y="-7.5" font-family="Helvetica,sans-Serif" font-size="10.00">::VisitEachEntryInMap</text>
</a>
</g>
</g>
<!-- Node2 -->
<g id="node2" class="node">
<title>Node2</title>
<g id="a_node2"><a xlink:href="classccf_1_1indexing_1_1Strategy.html" target="_top" xlink:title=" ">
<polygon fill="white" stroke="black" points="0,-78.5 0,-97.5 125,-97.5 125,-78.5 0,-78.5"/>
<text text-anchor="middle" x="62.5" y="-85.5" font-family="Helvetica,sans-Serif" font-size="10.00">ccf::indexing::Strategy</text>
</a>
</g>
</g>
<!-- Node2&#45;&gt;Node1 -->
<g id="edge1" class="edge">
<title>Node2&#45;&gt;Node1</title>
<path fill="none" stroke="midnightblue" d="M84.79,-72.97C104.33,-60.67 132.58,-42.89 152.14,-30.58"/>
<polygon fill="midnightblue" stroke="midnightblue" points="82.83,-70.07 76.23,-78.36 86.56,-75.99 82.83,-70.07"/>
</g>
<!-- Node3 -->
<g id="node3" class="node">
<title>Node3</title>
<g id="a_node3"><a xlink:title=" ">
<polygon fill="white" stroke="black" points="143,-78.5 143,-97.5 208,-97.5 208,-78.5 143,-78.5"/>
<text text-anchor="middle" x="175.5" y="-85.5" font-family="Helvetica,sans-Serif" font-size="10.00">std::string</text>
</a>
</g>
</g>
<!-- Node3&#45;&gt;Node1 -->
<g id="edge2" class="edge">
<title>Node3&#45;&gt;Node1</title>
<path fill="none" stroke="#9a32cd" stroke-dasharray="5,2" d="M175.23,-68.24C175.07,-56.41 174.85,-41.38 174.7,-30.58"/>
<polygon fill="#9a32cd" stroke="#9a32cd" points="171.74,-68.41 175.38,-78.36 178.74,-68.31 171.74,-68.41"/>
<text text-anchor="middle" x="204.5" y="-52" font-family="Helvetica,sans-Serif" font-size="10.00"> map_name</text>
</g>
<!-- Node4 -->
<g id="node4" class="node">
<title>Node4</title>
<g id="a_node4"><a xlink:title=" ">
<polygon fill="white" stroke="black" points="123.5,-135.5 123.5,-165.5 227.5,-165.5 227.5,-135.5 123.5,-135.5"/>
<text text-anchor="start" x="131.5" y="-153.5" font-family="Helvetica,sans-Serif" font-size="10.00">std::basic_string&lt;</text>
<text text-anchor="middle" x="175.5" y="-142.5" font-family="Helvetica,sans-Serif" font-size="10.00"> Char &gt;</text>
</a>
</g>
</g>
<!-- Node4&#45;&gt;Node3 -->
<g id="edge3" class="edge">
<title>Node4&#45;&gt;Node3</title>
<path fill="none" stroke="midnightblue" d="M175.5,-125.35C175.5,-115.51 175.5,-104.78 175.5,-97.54"/>
<polygon fill="midnightblue" stroke="midnightblue" points="172,-125.47 175.5,-135.47 179,-125.47 172,-125.47"/>
</g>
<!-- Node5 -->
<g id="node5" class="node">
<title>Node5</title>
<g id="a_node5"><a xlink:href="structccf_1_1TxID.html" target="_top" xlink:title=" ">
<polygon fill="white" stroke="black" points="226,-78.5 226,-97.5 285,-97.5 285,-78.5 226,-78.5"/>
<text text-anchor="middle" x="255.5" y="-85.5" font-family="Helvetica,sans-Serif" font-size="10.00">ccf::TxID</text>
</a>
</g>
</g>
<!-- Node5&#45;&gt;Node1 -->
<g id="edge4" class="edge">
<title>Node5&#45;&gt;Node1</title>
<path fill="none" stroke="#9a32cd" stroke-dasharray="5,2" d="M247.66,-69C244.05,-62.16 239.28,-54.66 233.5,-49 226.06,-41.72 216.67,-35.57 207.57,-30.65"/>
<polygon fill="#9a32cd" stroke="#9a32cd" points="244.61,-70.75 252.08,-78.26 250.93,-67.73 244.61,-70.75"/>
<text text-anchor="middle" x="273.5" y="-52" font-family="Helvetica,sans-Serif" font-size="10.00"> current_txid</text>
</g>
</g>
</svg>
