<?xml version="1.0" encoding="UTF-8" standalone="no"?>
<!DOCTYPE svg PUBLIC "-//W3C//DTD SVG 1.1//EN"
 "http://www.w3.org/Graphics/SVG/1.1/DTD/svg11.dtd">
<!-- Generated by graphviz version 2.43.0 (0)
 -->
<!-- Title: ccf::indexing::strategies::SeqnosByKey_Bucketed_Untyped Pages: 1 -->
<!--zoomable 273 -->
<svg id="main" version="1.1" xmlns="http://www.w3.org/2000/svg" xmlns:xlink="http://www.w3.org/1999/xlink" xml:space="preserve" onload="init(evt)">
<style type="text/css"><![CDATA[
.edge:hover path { stroke: red; }
.edge:hover polygon { stroke: red; fill: red; }
]]></style>
<script type="text/javascript"><![CDATA[
var edges = document.getElementsByTagName('g');
if (edges && edges.length) {
  for (var i=0;i<edges.length;i++) {
    if (edges[i].id.substr(0,4)=='edge') {
      edges[i].setAttribute('class','edge');
    }
  }
}
]]></script>
        <defs>
                <circle id="rim" cx="0" cy="0" r="7"/>
                <circle id="rim2" cx="0" cy="0" r="3.5"/>
                <g id="zoomPlus">
                        <use xlink:href="#rim" fill="#404040">
                                <set attributeName="fill" to="#808080" begin="zoomplus.mouseover" end="zoomplus.mouseout"/>
                        </use>
                        <path d="M-4,0h8M0,-4v8" fill="none" stroke="white" stroke-width="1.5" pointer-events="none"/>
                </g>
                <g id="zoomMin">
                        <use xlink:href="#rim" fill="#404040">
                                <set attributeName="fill" to="#808080" begin="zoomminus.mouseover" end="zoomminus.mouseout"/>
                        </use>
                        <path d="M-4,0h8" fill="none" stroke="white" stroke-width="1.5" pointer-events="none"/>
                </g>
                <g id="dirArrow">
                        <path fill="none" stroke="white" stroke-width="1.5" d="M0,-3.0v7 M-2.5,-0.5L0,-3.0L2.5,-0.5"/>
                </g>
               <g id="resetDef">
                       <use xlink:href="#rim2" fill="#404040">
                               <set attributeName="fill" to="#808080" begin="reset.mouseover" end="reset.mouseout"/>
                       </use>
               </g>
        </defs>

<script type="text/javascript">
var viewWidth = 1250;
var viewHeight = 273;
var sectionId = 'dynsection-0';
</script>
<script xlink:href="svgpan.js"/>
<svg id="graph" class="graph">
<g id="viewport">
<title>ccf::indexing::strategies::SeqnosByKey_Bucketed_Untyped</title>
<polygon fill="white" stroke="transparent" points="-4,4 -4,-269 1246,-269 1246,4 -4,4"/>
<!-- Node1 -->
<g id="node1" class="node">
<title>Node1</title>
<g id="a_node1"><a xlink:title=" ">
<polygon fill="#bfbfbf" stroke="black" points="1103,-120.5 1103,-161.5 1242,-161.5 1242,-120.5 1103,-120.5"/>
<text text-anchor="start" x="1111" y="-149.5" font-family="Helvetica,sans-Serif" font-size="10.00">ccf::indexing::strategies</text>
<text text-anchor="start" x="1111" y="-138.5" font-family="Helvetica,sans-Serif" font-size="10.00">::SeqnosByKey_Bucketed</text>
<text text-anchor="middle" x="1172.5" y="-127.5" font-family="Helvetica,sans-Serif" font-size="10.00">_Untyped</text>
</a>
</g>
</g>
<!-- Node2 -->
<g id="node2" class="node">
<title>Node2</title>
<g id="a_node2"><a xlink:href="classccf_1_1indexing_1_1strategies_1_1VisitEachEntryInMap.html" target="_top" xlink:title=" ">
<polygon fill="white" stroke="black" points="714,-159 714,-189 847,-189 847,-159 714,-159"/>
<text text-anchor="start" x="722" y="-177" font-family="Helvetica,sans-Serif" font-size="10.00">ccf::indexing::strategies</text>
<text text-anchor="middle" x="780.5" y="-166" font-family="Helvetica,sans-Serif" font-size="10.00">::VisitEachEntryInMap</text>
</a>
</g>
</g>
<!-- Node2&#45;&gt;Node1 -->
<g id="edge1" class="edge">
<title>Node2&#45;&gt;Node1</title>
<path fill="none" stroke="midnightblue" d="M857.47,-167.57C928.67,-161.55 1034.17,-152.62 1102.89,-146.81"/>
<polygon fill="midnightblue" stroke="midnightblue" points="856.89,-164.11 847.22,-168.44 857.48,-171.08 856.89,-164.11"/>
</g>
<!-- Node3 -->
<g id="node3" class="node">
<title>Node3</title>
<g id="a_node3"><a xlink:href="classccf_1_1indexing_1_1Strategy.html" target="_top" xlink:title=" ">
<polygon fill="white" stroke="black" points="448.5,-245.5 448.5,-264.5 573.5,-264.5 573.5,-245.5 448.5,-245.5"/>
<text text-anchor="middle" x="511" y="-252.5" font-family="Helvetica,sans-Serif" font-size="10.00">ccf::indexing::Strategy</text>
</a>
</g>
</g>
<!-- Node3&#45;&gt;Node2 -->
<g id="edge2" class="edge">
<title>Node3&#45;&gt;Node2</title>
<path fill="none" stroke="midnightblue" d="M584.16,-251.04C618.01,-247.48 658.42,-240.74 693,-228 718.08,-218.76 743.67,-201.63 760.44,-189.14"/>
<polygon fill="midnightblue" stroke="midnightblue" points="583.49,-247.59 573.88,-252.05 584.17,-254.56 583.49,-247.59"/>
</g>
<!-- Node4 -->
<g id="node4" class="node">
<title>Node4</title>
<g id="a_node4"><a xlink:title=" ">
<polygon fill="white" stroke="black" points="478.5,-197.5 478.5,-216.5 543.5,-216.5 543.5,-197.5 478.5,-197.5"/>
<text text-anchor="middle" x="511" y="-204.5" font-family="Helvetica,sans-Serif" font-size="10.00">std::string</text>
</a>
</g>
</g>
<!-- Node4&#45;&gt;Node2 -->
<g id="edge3" class="edge">
<title>Node4&#45;&gt;Node2</title>
<path fill="none" stroke="#9a32cd" stroke-dasharray="5,2" d="M554.09,-211.29C591.03,-214.03 646.03,-215.66 693,-207 711.97,-203.5 732.16,-196.04 748.26,-189.09"/>
<polygon fill="#9a32cd" stroke="#9a32cd" points="553.95,-207.76 543.71,-210.45 553.39,-214.74 553.95,-207.76"/>
<text text-anchor="middle" x="655" y="-216" font-family="Helvetica,sans-Serif" font-size="10.00"> map_name</text>
</g>
<!-- Node8 -->
<g id="node8" class="node">
<title>Node8</title>
<g id="a_node8"><a xlink:href="structccf_1_1indexing_1_1strategies_1_1SeqnosByKey__Bucketed__Untyped_1_1Impl.html" target="_top" xlink:title=" ">
<polygon fill="white" stroke="black" points="711,-92.5 711,-133.5 850,-133.5 850,-92.5 711,-92.5"/>
<text text-anchor="start" x="719" y="-121.5" font-family="Helvetica,sans-Serif" font-size="10.00">ccf::indexing::strategies</text>
<text text-anchor="start" x="719" y="-110.5" font-family="Helvetica,sans-Serif" font-size="10.00">::SeqnosByKey_Bucketed</text>
<text text-anchor="middle" x="780.5" y="-99.5" font-family="Helvetica,sans-Serif" font-size="10.00">_Untyped::Impl</text>
</a>
</g>
</g>
<!-- Node4&#45;&gt;Node8 -->
<g id="edge10" class="edge">
<title>Node4&#45;&gt;Node8</title>
<path fill="none" stroke="#9a32cd" stroke-dasharray="5,2" d="M553.53,-202.72C599.53,-197.37 670.22,-187.17 693,-173 704.32,-165.96 700.85,-157.65 711,-149 717.75,-143.25 725.57,-138.07 733.47,-133.55"/>
<polygon fill="#9a32cd" stroke="#9a32cd" points="553.09,-199.25 543.55,-203.85 553.88,-206.2 553.09,-199.25"/>
<text text-anchor="middle" x="655" y="-197" font-family="Helvetica,sans-Serif" font-size="10.00"> name</text>
</g>
<!-- Node5 -->
<g id="node5" class="node">
<title>Node5</title>
<g id="a_node5"><a xlink:title=" ">
<polygon fill="white" stroke="black" points="230,-192 230,-222 334,-222 334,-192 230,-192"/>
<text text-anchor="start" x="238" y="-210" font-family="Helvetica,sans-Serif" font-size="10.00">std::basic_string&lt;</text>
<text text-anchor="middle" x="282" y="-199" font-family="Helvetica,sans-Serif" font-size="10.00"> Char &gt;</text>
</a>
</g>
</g>
<!-- Node5&#45;&gt;Node4 -->
<g id="edge4" class="edge">
<title>Node5&#45;&gt;Node4</title>
<path fill="none" stroke="midnightblue" d="M344.35,-207C387.56,-207 443.64,-207 478.21,-207"/>
<polygon fill="midnightblue" stroke="midnightblue" points="344.23,-203.5 334.23,-207 344.23,-210.5 344.23,-203.5"/>
</g>
<!-- Node6 -->
<g id="node6" class="node">
<title>Node6</title>
<g id="a_node6"><a xlink:href="structccf_1_1TxID.html" target="_top" xlink:title=" ">
<polygon fill="white" stroke="black" points="481.5,-149.5 481.5,-168.5 540.5,-168.5 540.5,-149.5 481.5,-149.5"/>
<text text-anchor="middle" x="511" y="-156.5" font-family="Helvetica,sans-Serif" font-size="10.00">ccf::TxID</text>
</a>
</g>
</g>
<!-- Node6&#45;&gt;Node2 -->
<g id="edge5" class="edge">
<title>Node6&#45;&gt;Node2</title>
<path fill="none" stroke="#9a32cd" stroke-dasharray="5,2" d="M550.84,-158.29C587.53,-157.93 644.09,-158.22 693,-162 699.8,-162.53 706.89,-163.24 713.94,-164.05"/>
<polygon fill="#9a32cd" stroke="#9a32cd" points="550.54,-154.79 540.58,-158.41 550.62,-161.79 550.54,-154.79"/>
<text text-anchor="middle" x="655" y="-165" font-family="Helvetica,sans-Serif" font-size="10.00"> current_txid</text>
</g>
<!-- Node6&#45;&gt;Node8 -->
<g id="edge14" class="edge">
<title>Node6&#45;&gt;Node8</title>
<path fill="none" stroke="#9a32cd" stroke-dasharray="5,2" d="M550.68,-152.35C592.48,-145.16 659.93,-133.56 710.8,-124.81"/>
<polygon fill="#9a32cd" stroke="#9a32cd" points="549.89,-148.93 540.63,-154.08 551.08,-155.83 549.89,-148.93"/>
<text text-anchor="middle" x="655" y="-144" font-family="Helvetica,sans-Serif" font-size="10.00"> current_txid</text>
</g>
<!-- Node7 -->
<g id="node7" class="node">
<title>Node7</title>
<g id="a_node7"><a xlink:title=" ">
<polygon fill="white" stroke="black" points="903,-87 903,-139 1042,-139 1042,-87 903,-87"/>
<text text-anchor="start" x="911" y="-127" font-family="Helvetica,sans-Serif" font-size="10.00">std::shared_ptr&lt; ccf</text>
<text text-anchor="start" x="911" y="-116" font-family="Helvetica,sans-Serif" font-size="10.00">::indexing::strategies</text>
<text text-anchor="start" x="911" y="-105" font-family="Helvetica,sans-Serif" font-size="10.00">::SeqnosByKey_Bucketed</text>
<text text-anchor="middle" x="972.5" y="-94" font-family="Helvetica,sans-Serif" font-size="10.00">_Untyped::Impl &gt;</text>
</a>
</g>
</g>
<!-- Node7&#45;&gt;Node1 -->
<g id="edge6" class="edge">
<title>Node7&#45;&gt;Node1</title>
<path fill="none" stroke="#9a32cd" stroke-dasharray="5,2" d="M1052.47,-124.17C1069.16,-126.53 1086.65,-129 1102.93,-131.3"/>
<polygon fill="#9a32cd" stroke="#9a32cd" points="1052.59,-120.65 1042.2,-122.71 1051.61,-127.58 1052.59,-120.65"/>
<text text-anchor="middle" x="1072.5" y="-132" font-family="Helvetica,sans-Serif" font-size="10.00"> impl</text>
</g>
<!-- Node8&#45;&gt;Node7 -->
<g id="edge7" class="edge">
<title>Node8&#45;&gt;Node7</title>
<path fill="none" stroke="#9a32cd" stroke-dasharray="5,2" d="M860.25,-113C874.33,-113 888.91,-113 902.69,-113"/>
<polygon fill="#9a32cd" stroke="#9a32cd" points="860.09,-109.5 850.09,-113 860.09,-116.5 860.09,-109.5"/>
<text text-anchor="middle" x="876.5" y="-116" font-family="Helvetica,sans-Serif" font-size="10.00"> ptr</text>
</g>
<!-- Node9 -->
<g id="node9" class="node">
<title>Node9</title>
<g id="a_node9"><a xlink:title=" ">
<polygon fill="white" stroke="black" points="439.5,-38.5 439.5,-79.5 582.5,-79.5 582.5,-38.5 439.5,-38.5"/>
<text text-anchor="start" x="447.5" y="-67.5" font-family="Helvetica,sans-Serif" font-size="10.00">std::unordered_map</text>
<text text-anchor="start" x="447.5" y="-56.5" font-family="Helvetica,sans-Serif" font-size="10.00">&lt; ccf::ByteVector, Current</text>
<text text-anchor="middle" x="511" y="-45.5" font-family="Helvetica,sans-Serif" font-size="10.00">Result &gt;</text>
</a>
</g>
</g>
<!-- Node9&#45;&gt;Node8 -->
<g id="edge8" class="edge">
<title>Node9&#45;&gt;Node8</title>
<path fill="none" stroke="#9a32cd" stroke-dasharray="5,2" d="M592.96,-61.94C624.54,-64.41 660.81,-68.89 693,-77 707.83,-80.73 723.43,-86.58 737.24,-92.48"/>
<polygon fill="#9a32cd" stroke="#9a32cd" points="593.11,-58.44 582.88,-61.2 592.6,-65.42 593.11,-58.44"/>
<text text-anchor="middle" x="655" y="-80" font-family="Helvetica,sans-Serif" font-size="10.00"> current_results</text>
</g>
<!-- Node10 -->
<g id="node10" class="node">
<title>Node10</title>
<g id="a_node10"><a xlink:href="classLRU.html" target="_top" xlink:title=" ">
<polygon fill="white" stroke="black" points="423,-0.5 423,-19.5 599,-19.5 599,-0.5 423,-0.5"/>
<text text-anchor="middle" x="511" y="-7.5" font-family="Helvetica,sans-Serif" font-size="10.00">LRU&lt; BucketKey, BucketValue &gt;</text>
</a>
</g>
</g>
<!-- Node10&#45;&gt;Node8 -->
<g id="edge9" class="edge">
<title>Node10&#45;&gt;Node8</title>
<path fill="none" stroke="#9a32cd" stroke-dasharray="5,2" d="M597.67,-21.41C628.61,-27.47 663.23,-36.54 693,-50 716.53,-60.64 740.01,-78.3 756.56,-92.22"/>
<polygon fill="#9a32cd" stroke="#9a32cd" points="598.24,-17.96 587.76,-19.55 596.94,-24.84 598.24,-17.96"/>
<text text-anchor="middle" x="655" y="-53" font-family="Helvetica,sans-Serif" font-size="10.00"> old_results</text>
</g>
<!-- Node11 -->
<g id="node11" class="node">
<title>Node11</title>
<g id="a_node11"><a xlink:title=" ">
<polygon fill="white" stroke="black" points="424.5,-99 424.5,-129 597.5,-129 597.5,-99 424.5,-99"/>
<text text-anchor="start" x="432.5" y="-117" font-family="Helvetica,sans-Serif" font-size="10.00">std::shared_ptr&lt; ccf</text>
<text text-anchor="middle" x="511" y="-106" font-family="Helvetica,sans-Serif" font-size="10.00">::indexing::AbstractLFSAccess &gt;</text>
</a>
</g>
</g>
<!-- Node11&#45;&gt;Node8 -->
<g id="edge11" class="edge">
<title>Node11&#45;&gt;Node8</title>
<path fill="none" stroke="#9a32cd" stroke-dasharray="5,2" d="M590.81,-97.34C599.61,-95.97 608.48,-94.8 617,-94 650.63,-90.83 659.42,-90.36 693,-94 698.81,-94.63 704.8,-95.49 710.79,-96.5"/>
<polygon fill="#9a32cd" stroke="#9a32cd" points="590.22,-93.89 580.92,-98.96 591.36,-100.79 590.22,-93.89"/>
<text text-anchor="middle" x="655" y="-97" font-family="Helvetica,sans-Serif" font-size="10.00"> lfs_access</text>
</g>
<!-- Node12 -->
<g id="node12" class="node">
<title>Node12</title>
<g id="a_node12"><a xlink:href="classccf_1_1indexing_1_1AbstractLFSAccess.html" target="_top" xlink:title=" ">
<polygon fill="white" stroke="black" points="194,-104.5 194,-123.5 370,-123.5 370,-104.5 194,-104.5"/>
<text text-anchor="middle" x="282" y="-111.5" font-family="Helvetica,sans-Serif" font-size="10.00">ccf::indexing::AbstractLFSAccess</text>
</a>
</g>
</g>
<!-- Node12&#45;&gt;Node11 -->
<g id="edge12" class="edge">
<title>Node12&#45;&gt;Node11</title>
<path fill="none" stroke="#9a32cd" stroke-dasharray="5,2" d="M380.19,-114C394.84,-114 409.86,-114 424.24,-114"/>
<polygon fill="#9a32cd" stroke="#9a32cd" points="380.11,-110.5 370.11,-114 380.11,-117.5 380.11,-110.5"/>
<text text-anchor="middle" x="396.5" y="-117" font-family="Helvetica,sans-Serif" font-size="10.00"> ptr</text>
</g>
<!-- Node13 -->
<g id="node13" class="node">
<title>Node13</title>
<g id="a_node13"><a xlink:href="classccf_1_1AbstractNodeSubSystem.html" target="_top" xlink:title=" ">
<polygon fill="white" stroke="black" points="0,-104.5 0,-123.5 157,-123.5 157,-104.5 0,-104.5"/>
<text text-anchor="middle" x="78.5" y="-111.5" font-family="Helvetica,sans-Serif" font-size="10.00">ccf::AbstractNodeSubSystem</text>
</a>
</g>
</g>
<!-- Node13&#45;&gt;Node12 -->
<g id="edge13" class="edge">
<title>Node13&#45;&gt;Node12</title>
<path fill="none" stroke="midnightblue" d="M167.31,-114C176.06,-114 184.95,-114 193.69,-114"/>
<polygon fill="midnightblue" stroke="midnightblue" points="167.12,-110.5 157.12,-114 167.12,-117.5 167.12,-110.5"/>
</g>
</g>
</svg>
        <g id="navigator" transform="translate(0 0)" fill="#404254">
                <rect fill="#f2f5e9" fill-opacity="0.5" stroke="#606060" stroke-width=".5" x="0" y="0" width="60" height="60"/>
                <use id="zoomplus" xlink:href="#zoomPlus" x="17" y="9" onmousedown="handleZoom(evt,'in')"/>
                <use id="zoomminus" xlink:href="#zoomMin" x="42" y="9" onmousedown="handleZoom(evt,'out')"/>
                <use id="reset" xlink:href="#resetDef" x="30" y="36" onmousedown="handleReset()"/>
                <g id="arrowUp" xlink:href="#dirArrow" transform="translate(30 24)" onmousedown="handlePan(0,-1)">
                  <use xlink:href="#rim" fill="#404040">
                        <set attributeName="fill" to="#808080" begin="arrowUp.mouseover" end="arrowUp.mouseout"/>
                  </use>
                  <path fill="none" stroke="white" stroke-width="1.5" d="M0,-3.0v7 M-2.5,-0.5L0,-3.0L2.5,-0.5"/>
                </g>
                <g id="arrowRight" xlink:href="#dirArrow" transform="rotate(90) translate(36 -43)" onmousedown="handlePan(1,0)">
                  <use xlink:href="#rim" fill="#404040">
                        <set attributeName="fill" to="#808080" begin="arrowRight.mouseover" end="arrowRight.mouseout"/>
                  </use>
                  <path fill="none" stroke="white" stroke-width="1.5" d="M0,-3.0v7 M-2.5,-0.5L0,-3.0L2.5,-0.5"/>
                </g>
                <g id="arrowDown" xlink:href="#dirArrow" transform="rotate(180) translate(-30 -48)" onmousedown="handlePan(0,1)">
                  <use xlink:href="#rim" fill="#404040">
                        <set attributeName="fill" to="#808080" begin="arrowDown.mouseover" end="arrowDown.mouseout"/>
                  </use>
                  <path fill="none" stroke="white" stroke-width="1.5" d="M0,-3.0v7 M-2.5,-0.5L0,-3.0L2.5,-0.5"/>
                </g>
                <g id="arrowLeft" xlink:href="#dirArrow" transform="rotate(270) translate(-36 17)" onmousedown="handlePan(-1,0)">
                  <use xlink:href="#rim" fill="#404040">
                        <set attributeName="fill" to="#808080" begin="arrowLeft.mouseover" end="arrowLeft.mouseout"/>
                  </use>
                  <path fill="none" stroke="white" stroke-width="1.5" d="M0,-3.0v7 M-2.5,-0.5L0,-3.0L2.5,-0.5"/>
                </g>
        </g>
        <svg viewBox="0 0 15 15" width="100%" height="30px" preserveAspectRatio="xMaxYMin meet">
         <g id="arrow_out" transform="scale(0.3 0.3)">
          <a xlink:href="classccf_1_1indexing_1_1strategies_1_1SeqnosByKey__Bucketed__Untyped__coll__graph_org.svg" target="_base">
           <rect id="button" ry="5" rx="5" y="6" x="6" height="38" width="38"
                fill="#f2f5e9" fill-opacity="0.5" stroke="#606060" stroke-width="1.0"/>
           <path id="arrow"
             d="M 11.500037,31.436501 C 11.940474,20.09759 22.043105,11.32322 32.158766,21.979434 L 37.068811,17.246167 C 37.068811,17.246167 37.088388,32 37.088388,32 L 22.160133,31.978069 C 22.160133,31.978069 26.997745,27.140456 26.997745,27.140456 C 18.528582,18.264221 13.291696,25.230495 11.500037,31.436501 z"
             style="fill:#404040;"/>
          </a>
         </g>
        </svg>
</svg>
