<?xml version="1.0" encoding="UTF-8" standalone="no"?>
<!DOCTYPE svg PUBLIC "-//W3C//DTD SVG 1.1//EN"
 "http://www.w3.org/Graphics/SVG/1.1/DTD/svg11.dtd">
<!-- Generated by graphviz version 2.43.0 (0)
 -->
<!-- Title: ccf::UserRpcFrontend Pages: 1 -->
<!--zoomable 719 -->
<svg id="main" version="1.1" xmlns="http://www.w3.org/2000/svg" xmlns:xlink="http://www.w3.org/1999/xlink" xml:space="preserve" onload="init(evt)">
<style type="text/css"><![CDATA[
.edge:hover path { stroke: red; }
.edge:hover polygon { stroke: red; fill: red; }
]]></style>
<script type="text/javascript"><![CDATA[
var edges = document.getElementsByTagName('g');
if (edges && edges.length) {
  for (var i=0;i<edges.length;i++) {
    if (edges[i].id.substr(0,4)=='edge') {
      edges[i].setAttribute('class','edge');
    }
  }
}
]]></script>
        <defs>
                <circle id="rim" cx="0" cy="0" r="7"/>
                <circle id="rim2" cx="0" cy="0" r="3.5"/>
                <g id="zoomPlus">
                        <use xlink:href="#rim" fill="#404040">
                                <set attributeName="fill" to="#808080" begin="zoomplus.mouseover" end="zoomplus.mouseout"/>
                        </use>
                        <path d="M-4,0h8M0,-4v8" fill="none" stroke="white" stroke-width="1.5" pointer-events="none"/>
                </g>
                <g id="zoomMin">
                        <use xlink:href="#rim" fill="#404040">
                                <set attributeName="fill" to="#808080" begin="zoomminus.mouseover" end="zoomminus.mouseout"/>
                        </use>
                        <path d="M-4,0h8" fill="none" stroke="white" stroke-width="1.5" pointer-events="none"/>
                </g>
                <g id="dirArrow">
                        <path fill="none" stroke="white" stroke-width="1.5" d="M0,-3.0v7 M-2.5,-0.5L0,-3.0L2.5,-0.5"/>
                </g>
               <g id="resetDef">
                       <use xlink:href="#rim2" fill="#404040">
                               <set attributeName="fill" to="#808080" begin="reset.mouseover" end="reset.mouseout"/>
                       </use>
               </g>
        </defs>

<script type="text/javascript">
var viewWidth = 2857;
var viewHeight = 719;
var sectionId = 'dynsection-0';
</script>
<script xlink:href="svgpan.js"/>
<svg id="graph" class="graph">
<g id="viewport">
<title>ccf::UserRpcFrontend</title>
<polygon fill="white" stroke="transparent" points="-4,4 -4,-715 2853,-715 2853,4 -4,4"/>
<!-- Node1 -->
<g id="node1" class="node">
<title>Node1</title>
<g id="a_node1"><a xlink:title=" ">
<polygon fill="#bfbfbf" stroke="black" points="2730,-550.5 2730,-569.5 2849,-569.5 2849,-550.5 2730,-550.5"/>
<text text-anchor="middle" x="2789.5" y="-557.5" font-family="Helvetica,sans-Serif" font-size="10.00">ccf::UserRpcFrontend</text>
</a>
</g>
</g>
<!-- Node2 -->
<g id="node2" class="node">
<title>Node2</title>
<g id="a_node2"><a xlink:href="classccf_1_1RpcFrontend.html" target="_top" xlink:title=" ">
<polygon fill="white" stroke="black" points="2508,-584.5 2508,-603.5 2605,-603.5 2605,-584.5 2508,-584.5"/>
<text text-anchor="middle" x="2556.5" y="-591.5" font-family="Helvetica,sans-Serif" font-size="10.00">ccf::RpcFrontend</text>
</a>
</g>
</g>
<!-- Node2&#45;&gt;Node1 -->
<g id="edge1" class="edge">
<title>Node2&#45;&gt;Node1</title>
<path fill="none" stroke="midnightblue" d="M2615.15,-585.51C2650.16,-580.36 2694.73,-573.8 2729.91,-568.62"/>
<polygon fill="midnightblue" stroke="midnightblue" points="2614.47,-582.08 2605.08,-587 2615.49,-589 2614.47,-582.08"/>
</g>
<!-- Node3 -->
<g id="node3" class="node">
<title>Node3</title>
<g id="a_node3"><a xlink:href="classccf_1_1RpcHandler.html" target="_top" xlink:title=" ">
<polygon fill="white" stroke="black" points="2265.5,-638.5 2265.5,-657.5 2357.5,-657.5 2357.5,-638.5 2265.5,-638.5"/>
<text text-anchor="middle" x="2311.5" y="-645.5" font-family="Helvetica,sans-Serif" font-size="10.00">ccf::RpcHandler</text>
</a>
</g>
</g>
<!-- Node3&#45;&gt;Node2 -->
<g id="edge2" class="edge">
<title>Node3&#45;&gt;Node2</title>
<path fill="none" stroke="midnightblue" d="M2365.35,-636.26C2409.47,-626.45 2471.56,-612.65 2512.64,-603.53"/>
<polygon fill="midnightblue" stroke="midnightblue" points="2364.39,-632.88 2355.38,-638.47 2365.91,-639.72 2364.39,-632.88"/>
</g>
<!-- Node4 -->
<g id="node4" class="node">
<title>Node4</title>
<g id="a_node4"><a xlink:href="classccf_1_1ForwardedRpcHandler.html" target="_top" xlink:title=" ">
<polygon fill="white" stroke="black" points="2240,-600.5 2240,-619.5 2383,-619.5 2383,-600.5 2240,-600.5"/>
<text text-anchor="middle" x="2311.5" y="-607.5" font-family="Helvetica,sans-Serif" font-size="10.00">ccf::ForwardedRpcHandler</text>
</a>
</g>
</g>
<!-- Node4&#45;&gt;Node2 -->
<g id="edge3" class="edge">
<title>Node4&#45;&gt;Node2</title>
<path fill="none" stroke="midnightblue" d="M2393.14,-604.69C2431.15,-602.19 2475.2,-599.29 2507.81,-597.14"/>
<polygon fill="midnightblue" stroke="midnightblue" points="2392.86,-601.2 2383.11,-605.35 2393.32,-608.19 2392.86,-601.2"/>
</g>
<!-- Node5 -->
<g id="node5" class="node">
<title>Node5</title>
<g id="a_node5"><a xlink:href="classkv_1_1Store.html" target="_top" xlink:title=" ">
<polygon fill="white" stroke="black" points="2282,-562.5 2282,-581.5 2341,-581.5 2341,-562.5 2282,-562.5"/>
<text text-anchor="middle" x="2311.5" y="-569.5" font-family="Helvetica,sans-Serif" font-size="10.00">kv::Store</text>
</a>
</g>
</g>
<!-- Node5&#45;&gt;Node2 -->
<g id="edge4" class="edge">
<title>Node5&#45;&gt;Node2</title>
<path fill="none" stroke="#9a32cd" stroke-dasharray="5,2" d="M2351.3,-575.51C2393.86,-579.37 2462.17,-585.55 2507.92,-589.69"/>
<polygon fill="#9a32cd" stroke="#9a32cd" points="2351.6,-572.03 2341.33,-574.61 2350.97,-579 2351.6,-572.03"/>
<text text-anchor="middle" x="2427" y="-587" font-family="Helvetica,sans-Serif" font-size="10.00"> tables</text>
</g>
<!-- Node6 -->
<g id="node6" class="node">
<title>Node6</title>
<g id="a_node6"><a xlink:href="classkv_1_1AbstractStore.html" target="_top" xlink:title=" ">
<polygon fill="white" stroke="black" points="1921,-570.5 1921,-589.5 2021,-589.5 2021,-570.5 1921,-570.5"/>
<text text-anchor="middle" x="1971" y="-577.5" font-family="Helvetica,sans-Serif" font-size="10.00">kv::AbstractStore</text>
</a>
</g>
</g>
<!-- Node6&#45;&gt;Node5 -->
<g id="edge5" class="edge">
<title>Node6&#45;&gt;Node5</title>
<path fill="none" stroke="midnightblue" d="M2031.23,-578.6C2104.53,-576.87 2226.41,-573.99 2281.68,-572.68"/>
<polygon fill="midnightblue" stroke="midnightblue" points="2031.14,-575.1 2021.22,-578.84 2031.3,-582.1 2031.14,-575.1"/>
</g>
<!-- Node7 -->
<g id="node7" class="node">
<title>Node7</title>
<g id="a_node7"><a xlink:href="classkv_1_1StoreState.html" target="_top" xlink:title=" ">
<polygon fill="white" stroke="black" points="1928.5,-608.5 1928.5,-627.5 2013.5,-627.5 2013.5,-608.5 1928.5,-608.5"/>
<text text-anchor="middle" x="1971" y="-615.5" font-family="Helvetica,sans-Serif" font-size="10.00">kv::StoreState</text>
</a>
</g>
</g>
<!-- Node7&#45;&gt;Node5 -->
<g id="edge6" class="edge">
<title>Node7&#45;&gt;Node5</title>
<path fill="none" stroke="midnightblue" d="M2023.76,-613.13C2074.42,-608.09 2153.72,-599.5 2222,-589 2242.1,-585.91 2264.61,-581.57 2281.9,-578.05"/>
<polygon fill="midnightblue" stroke="midnightblue" points="2023.32,-609.66 2013.71,-614.12 2024,-616.62 2023.32,-609.66"/>
</g>
<!-- Node8 -->
<g id="node8" class="node">
<title>Node8</title>
<g id="a_node8"><a xlink:title=" ">
<polygon fill="white" stroke="black" points="1576.5,-509.5 1576.5,-528.5 1645.5,-528.5 1645.5,-509.5 1576.5,-509.5"/>
<text text-anchor="middle" x="1611" y="-516.5" font-family="Helvetica,sans-Serif" font-size="10.00">std::mutex</text>
</a>
</g>
</g>
<!-- Node8&#45;&gt;Node7 -->
<g id="edge7" class="edge">
<title>Node8&#45;&gt;Node7</title>
<path fill="none" stroke="#9a32cd" stroke-dasharray="5,2" d="M1655.93,-516.09C1722.78,-512.62 1845.76,-510.25 1879,-537 1901.35,-554.99 1876.43,-579 1897,-599 1905.45,-607.22 1916.98,-612 1928.38,-614.76"/>
<polygon fill="#9a32cd" stroke="#9a32cd" points="1655.5,-512.61 1645.71,-516.65 1655.89,-519.6 1655.5,-512.61"/>
<text text-anchor="middle" x="1791" y="-562" font-family="Helvetica,sans-Serif" font-size="10.00"> commit_lock</text>
<text text-anchor="middle" x="1791" y="-551" font-family="Helvetica,sans-Serif" font-size="10.00">maps_lock</text>
<text text-anchor="middle" x="1791" y="-540" font-family="Helvetica,sans-Serif" font-size="10.00">version_lock</text>
</g>
<!-- Node15 -->
<g id="node15" class="node">
<title>Node15</title>
<g id="a_node15"><a xlink:href="classccf_1_1endpoints_1_1EndpointRegistry.html" target="_top" xlink:title=" ">
<polygon fill="white" stroke="black" points="2245,-346 2245,-376 2378,-376 2378,-346 2245,-346"/>
<text text-anchor="start" x="2253" y="-364" font-family="Helvetica,sans-Serif" font-size="10.00">ccf::endpoints::Endpoint</text>
<text text-anchor="middle" x="2311.5" y="-353" font-family="Helvetica,sans-Serif" font-size="10.00">Registry</text>
</a>
</g>
</g>
<!-- Node8&#45;&gt;Node15 -->
<g id="edge39" class="edge">
<title>Node8&#45;&gt;Node15</title>
<path fill="none" stroke="#9a32cd" stroke-dasharray="5,2" d="M1655.89,-517.55C1787.41,-512.92 2172.27,-497.26 2222,-471 2262.53,-449.59 2291.07,-400.77 2303.51,-376"/>
<polygon fill="#9a32cd" stroke="#9a32cd" points="1655.65,-514.05 1645.77,-517.9 1655.89,-521.05 1655.65,-514.05"/>
<text text-anchor="middle" x="1971" y="-509" font-family="Helvetica,sans-Serif" font-size="10.00"> metrics_lock</text>
</g>
<!-- Node9 -->
<g id="node9" class="node">
<title>Node9</title>
<g id="a_node9"><a xlink:title=" ">
<polygon fill="white" stroke="black" points="680,-536 680,-588 823,-588 823,-536 680,-536"/>
<text text-anchor="start" x="688" y="-576" font-family="Helvetica,sans-Serif" font-size="10.00">std::map&lt; std::string,</text>
<text text-anchor="start" x="688" y="-565" font-family="Helvetica,sans-Serif" font-size="10.00"> std::pair&lt; kv::Version,</text>
<text text-anchor="start" x="688" y="-554" font-family="Helvetica,sans-Serif" font-size="10.00"> std::shared_ptr&lt; untyped</text>
<text text-anchor="middle" x="751.5" y="-543" font-family="Helvetica,sans-Serif" font-size="10.00">::Map &gt; &gt; &gt;</text>
</a>
</g>
</g>
<!-- Node9&#45;&gt;Node7 -->
<g id="edge8" class="edge">
<title>Node9&#45;&gt;Node7</title>
<path fill="none" stroke="#9a32cd" stroke-dasharray="5,2" d="M833.33,-570.86C896.04,-576.97 985.18,-584 1063.5,-584 1063.5,-584 1063.5,-584 1612,-584 1726.88,-584 1861.56,-601.56 1928.23,-611.44"/>
<polygon fill="#9a32cd" stroke="#9a32cd" points="833.41,-567.35 823.11,-569.85 832.72,-574.32 833.41,-567.35"/>
<text text-anchor="middle" x="1242" y="-587" font-family="Helvetica,sans-Serif" font-size="10.00"> maps</text>
</g>
<!-- Node10 -->
<g id="node10" class="node">
<title>Node10</title>
<g id="a_node10"><a xlink:title=" ">
<polygon fill="white" stroke="black" points="255,-256.5 255,-275.5 320,-275.5 320,-256.5 255,-256.5"/>
<text text-anchor="middle" x="287.5" y="-263.5" font-family="Helvetica,sans-Serif" font-size="10.00">std::string</text>
</a>
</g>
</g>
<!-- Node10&#45;&gt;Node9 -->
<g id="edge9" class="edge">
<title>Node10&#45;&gt;Node9</title>
<path fill="none" stroke="#9a32cd" stroke-dasharray="5,2" d="M293.02,-285.48C302.76,-323.15 329.34,-406.18 383,-451 468.68,-522.57 599.57,-548 679.82,-557.04"/>
<polygon fill="#9a32cd" stroke="#9a32cd" points="296.4,-284.61 290.61,-275.74 289.61,-286.28 296.4,-284.61"/>
<text text-anchor="middle" x="428.5" y="-507" font-family="Helvetica,sans-Serif" font-size="10.00"> keys</text>
</g>
<!-- Node10&#45;&gt;Node15 -->
<g id="edge16" class="edge">
<title>Node10&#45;&gt;Node15</title>
<path fill="none" stroke="#9a32cd" stroke-dasharray="5,2" d="M329.97,-255.12C385.55,-241.52 487.49,-220 576,-220 576,-220 576,-220 1972,-220 2084.39,-220 2123.69,-203.54 2222,-258 2259.74,-278.91 2288.75,-322.56 2302.22,-345.75"/>
<polygon fill="#9a32cd" stroke="#9a32cd" points="329,-251.76 320.14,-257.56 330.69,-258.55 329,-251.76"/>
<text text-anchor="middle" x="1242" y="-223" font-family="Helvetica,sans-Serif" font-size="10.00"> method_prefix</text>
</g>
<!-- Node17 -->
<g id="node17" class="node">
<title>Node17</title>
<g id="a_node17"><a xlink:href="structccf_1_1endpoints_1_1EndpointRegistry_1_1OpenApiInfo.html" target="_top" xlink:title=" ">
<polygon fill="white" stroke="black" points="685,-409 685,-439 818,-439 818,-409 685,-409"/>
<text text-anchor="start" x="693" y="-427" font-family="Helvetica,sans-Serif" font-size="10.00">ccf::endpoints::Endpoint</text>
<text text-anchor="middle" x="751.5" y="-416" font-family="Helvetica,sans-Serif" font-size="10.00">Registry::OpenApiInfo</text>
</a>
</g>
</g>
<!-- Node10&#45;&gt;Node17 -->
<g id="edge18" class="edge">
<title>Node10&#45;&gt;Node17</title>
<path fill="none" stroke="#9a32cd" stroke-dasharray="5,2" d="M297.69,-284.67C311.92,-311.33 341.98,-359.56 383,-382 478.08,-434 607.49,-435.7 684.66,-430.81"/>
<polygon fill="#9a32cd" stroke="#9a32cd" points="300.72,-282.89 293.03,-275.6 294.49,-286.1 300.72,-282.89"/>
<text text-anchor="middle" x="428.5" y="-439" font-family="Helvetica,sans-Serif" font-size="10.00"> description</text>
<text text-anchor="middle" x="428.5" y="-428" font-family="Helvetica,sans-Serif" font-size="10.00">document_version</text>
<text text-anchor="middle" x="428.5" y="-417" font-family="Helvetica,sans-Serif" font-size="10.00">title</text>
</g>
<!-- Node20 -->
<g id="node20" class="node">
<title>Node20</title>
<g id="a_node20"><a xlink:href="structccf_1_1endpoints_1_1EndpointDefinition.html" target="_top" xlink:title=" ">
<polygon fill="white" stroke="black" points="1175.5,-63 1175.5,-93 1308.5,-93 1308.5,-63 1175.5,-63"/>
<text text-anchor="start" x="1183.5" y="-81" font-family="Helvetica,sans-Serif" font-size="10.00">ccf::endpoints::Endpoint</text>
<text text-anchor="middle" x="1242" y="-70" font-family="Helvetica,sans-Serif" font-size="10.00">Definition</text>
</a>
</g>
</g>
<!-- Node10&#45;&gt;Node20 -->
<g id="edge25" class="edge">
<title>Node10&#45;&gt;Node20</title>
<path fill="none" stroke="#9a32cd" stroke-dasharray="5,2" d="M307.87,-249.96C326.07,-235.84 354.66,-216.03 383,-206 445.42,-183.92 909.33,-146.46 975,-138 1046.69,-128.76 1068.48,-140.8 1136,-115 1144.98,-111.57 1145.28,-107.04 1154,-103 1162.13,-99.23 1170.95,-95.91 1179.75,-93.01"/>
<polygon fill="#9a32cd" stroke="#9a32cd" points="305.47,-247.4 299.82,-256.36 309.83,-252.87 305.47,-247.4"/>
<text text-anchor="middle" x="751.5" y="-170" font-family="Helvetica,sans-Serif" font-size="10.00"> full_uri_path</text>
</g>
<!-- Node21 -->
<g id="node21" class="node">
<title>Node21</title>
<g id="a_node21"><a xlink:href="structccf_1_1endpoints_1_1EndpointKey.html" target="_top" xlink:title=" ">
<polygon fill="white" stroke="black" points="501.5,-134.5 501.5,-153.5 652.5,-153.5 652.5,-134.5 501.5,-134.5"/>
<text text-anchor="middle" x="577" y="-141.5" font-family="Helvetica,sans-Serif" font-size="10.00">ccf::endpoints::EndpointKey</text>
</a>
</g>
</g>
<!-- Node10&#45;&gt;Node21 -->
<g id="edge23" class="edge">
<title>Node10&#45;&gt;Node21</title>
<path fill="none" stroke="#9a32cd" stroke-dasharray="5,2" d="M298.56,-247.3C313.31,-221.99 343.43,-177.71 383,-158 419.23,-139.95 464.12,-135.79 501.48,-136.44"/>
<polygon fill="#9a32cd" stroke="#9a32cd" points="295.36,-245.85 293.5,-256.28 301.46,-249.28 295.36,-245.85"/>
<text text-anchor="middle" x="428.5" y="-161" font-family="Helvetica,sans-Serif" font-size="10.00"> uri_path</text>
</g>
<!-- Node23 -->
<g id="node23" class="node">
<title>Node23</title>
<g id="a_node23"><a xlink:href="structccf_1_1endpoints_1_1EndpointProperties.html" target="_top" xlink:title=" ">
<polygon fill="white" stroke="black" points="841.5,-63 841.5,-93 974.5,-93 974.5,-63 841.5,-63"/>
<text text-anchor="start" x="849.5" y="-81" font-family="Helvetica,sans-Serif" font-size="10.00">ccf::endpoints::Endpoint</text>
<text text-anchor="middle" x="908" y="-70" font-family="Helvetica,sans-Serif" font-size="10.00">Properties</text>
</a>
</g>
</g>
<!-- Node10&#45;&gt;Node23 -->
<g id="edge29" class="edge">
<title>Node10&#45;&gt;Node23</title>
<path fill="none" stroke="#9a32cd" stroke-dasharray="5,2" d="M297.65,-247.24C312.05,-217.67 340.86,-158.41 365,-108 373.07,-91.15 367.44,-80.35 383,-70 456.19,-21.3 717.48,-50.68 841.18,-68.02"/>
<polygon fill="#9a32cd" stroke="#9a32cd" points="294.42,-245.87 293.19,-256.4 300.71,-248.94 294.42,-245.87"/>
<text text-anchor="middle" x="577" y="-62" font-family="Helvetica,sans-Serif" font-size="10.00"> js_function</text>
<text text-anchor="middle" x="577" y="-51" font-family="Helvetica,sans-Serif" font-size="10.00">js_module</text>
</g>
<!-- Node24 -->
<g id="node24" class="node">
<title>Node24</title>
<g id="a_node24"><a xlink:title=" ">
<polygon fill="white" stroke="black" points="507,-96.5 507,-115.5 647,-115.5 647,-96.5 507,-96.5"/>
<text text-anchor="middle" x="577" y="-103.5" font-family="Helvetica,sans-Serif" font-size="10.00">std::vector&lt; std::string &gt;</text>
</a>
</g>
</g>
<!-- Node10&#45;&gt;Node24 -->
<g id="edge28" class="edge">
<title>Node10&#45;&gt;Node24</title>
<path fill="none" stroke="#9a32cd" stroke-dasharray="5,2" d="M295,-246.58C306.84,-214.57 335.23,-151.46 383,-123 403.44,-110.82 460.25,-106.91 506.98,-105.85"/>
<polygon fill="#9a32cd" stroke="#9a32cd" points="291.65,-245.55 291.61,-256.14 298.25,-247.89 291.65,-245.55"/>
<text text-anchor="middle" x="428.5" y="-126" font-family="Helvetica,sans-Serif" font-size="10.00"> elements</text>
</g>
<!-- Node29 -->
<g id="node29" class="node">
<title>Node29</title>
<g id="a_node29"><a xlink:title=" ">
<polygon fill="white" stroke="black" points="993,-372.5 993,-413.5 1136,-413.5 1136,-372.5 993,-372.5"/>
<text text-anchor="start" x="1001" y="-401.5" font-family="Helvetica,sans-Serif" font-size="10.00">std::map&lt; std::string,</text>
<text text-anchor="start" x="1001" y="-390.5" font-family="Helvetica,sans-Serif" font-size="10.00"> std::map&lt; ccf::RESTVerb,</text>
<text text-anchor="middle" x="1064.5" y="-379.5" font-family="Helvetica,sans-Serif" font-size="10.00"> EndpointPtr &gt; &gt;</text>
</a>
</g>
</g>
<!-- Node10&#45;&gt;Node29 -->
<g id="edge36" class="edge">
<title>Node10&#45;&gt;Node29</title>
<path fill="none" stroke="#9a32cd" stroke-dasharray="5,2" d="M308.95,-281.68C327.28,-294.84 355.46,-312.89 383,-322 596.71,-392.69 866.91,-397.63 992.86,-395.43"/>
<polygon fill="#9a32cd" stroke="#9a32cd" points="310.92,-278.78 300.79,-275.68 306.77,-284.42 310.92,-278.78"/>
<text text-anchor="middle" x="577" y="-382" font-family="Helvetica,sans-Serif" font-size="10.00"> keys</text>
</g>
<!-- Node30 -->
<g id="node30" class="node">
<title>Node30</title>
<g id="a_node30"><a xlink:title=" ">
<polygon fill="white" stroke="black" points="1348,-296 1348,-348 1519,-348 1519,-296 1348,-296"/>
<text text-anchor="start" x="1356" y="-336" font-family="Helvetica,sans-Serif" font-size="10.00">std::map&lt; std::string,</text>
<text text-anchor="start" x="1356" y="-325" font-family="Helvetica,sans-Serif" font-size="10.00"> std::map&lt; ccf::RESTVerb,</text>
<text text-anchor="start" x="1356" y="-314" font-family="Helvetica,sans-Serif" font-size="10.00"> std::shared_ptr&lt; ccf::endpoints</text>
<text text-anchor="middle" x="1433.5" y="-303" font-family="Helvetica,sans-Serif" font-size="10.00">::PathTemplatedEndpoint &gt; &gt; &gt;</text>
</a>
</g>
</g>
<!-- Node10&#45;&gt;Node30 -->
<g id="edge38" class="edge">
<title>Node10&#45;&gt;Node30</title>
<path fill="none" stroke="#9a32cd" stroke-dasharray="5,2" d="M330.02,-275.93C385.67,-288.35 487.67,-308 576,-308 576,-308 576,-308 1065.5,-308 1162.42,-308 1273.63,-312.94 1347.99,-316.95"/>
<polygon fill="#9a32cd" stroke="#9a32cd" points="330.71,-272.5 320.19,-273.7 329.17,-279.33 330.71,-272.5"/>
<text text-anchor="middle" x="751.5" y="-311" font-family="Helvetica,sans-Serif" font-size="10.00"> keys</text>
</g>
<!-- Node31 -->
<g id="node31" class="node">
<title>Node31</title>
<g id="a_node31"><a xlink:title=" ">
<polygon fill="white" stroke="black" points="1703,-240 1703,-292 1879,-292 1879,-240 1703,-240"/>
<text text-anchor="start" x="1711" y="-280" font-family="Helvetica,sans-Serif" font-size="10.00">std::map&lt; std::string,</text>
<text text-anchor="start" x="1711" y="-269" font-family="Helvetica,sans-Serif" font-size="10.00"> std::map&lt; std::string,</text>
<text text-anchor="start" x="1711" y="-258" font-family="Helvetica,sans-Serif" font-size="10.00"> ccf::endpoints::EndpointRegistry</text>
<text text-anchor="middle" x="1791" y="-247" font-family="Helvetica,sans-Serif" font-size="10.00">::Metrics &gt; &gt;</text>
</a>
</g>
</g>
<!-- Node10&#45;&gt;Node31 -->
<g id="edge41" class="edge">
<title>Node10&#45;&gt;Node31</title>
<path fill="none" stroke="#9a32cd" stroke-dasharray="5,2" d="M330.65,-266C386.68,-266 488.78,-266 576,-266 576,-266 576,-266 1434.5,-266 1526,-266 1630.74,-266 1702.71,-266"/>
<polygon fill="#9a32cd" stroke="#9a32cd" points="330.41,-262.5 320.41,-266 330.41,-269.5 330.41,-262.5"/>
<text text-anchor="middle" x="908" y="-269" font-family="Helvetica,sans-Serif" font-size="10.00"> keys</text>
</g>
<!-- Node36 -->
<g id="node36" class="node">
<title>Node36</title>
<g id="a_node36"><a xlink:title=" ">
<polygon fill="white" stroke="black" points="494,-669.5 494,-710.5 660,-710.5 660,-669.5 494,-669.5"/>
<text text-anchor="start" x="502" y="-698.5" font-family="Helvetica,sans-Serif" font-size="10.00">std::map&lt; std::string,</text>
<text text-anchor="start" x="502" y="-687.5" font-family="Helvetica,sans-Serif" font-size="10.00"> std::shared_ptr&lt; ccf</text>
<text text-anchor="middle" x="577" y="-676.5" font-family="Helvetica,sans-Serif" font-size="10.00">::AbstractNodeSubSystem &gt; &gt;</text>
</a>
</g>
</g>
<!-- Node10&#45;&gt;Node36 -->
<g id="edge47" class="edge">
<title>Node10&#45;&gt;Node36</title>
<path fill="none" stroke="#9a32cd" stroke-dasharray="5,2" d="M290.66,-285.73C296.93,-335.33 318.97,-467.46 383,-554 422.13,-606.89 488.06,-646.92 531.8,-669.42"/>
<polygon fill="#9a32cd" stroke="#9a32cd" points="294.12,-285.21 289.47,-275.7 287.17,-286.04 294.12,-285.21"/>
<text text-anchor="middle" x="428.5" y="-637" font-family="Helvetica,sans-Serif" font-size="10.00"> keys</text>
</g>
<!-- Node11 -->
<g id="node11" class="node">
<title>Node11</title>
<g id="a_node11"><a xlink:title=" ">
<polygon fill="white" stroke="black" points="26.5,-251 26.5,-281 130.5,-281 130.5,-251 26.5,-251"/>
<text text-anchor="start" x="34.5" y="-269" font-family="Helvetica,sans-Serif" font-size="10.00">std::basic_string&lt;</text>
<text text-anchor="middle" x="78.5" y="-258" font-family="Helvetica,sans-Serif" font-size="10.00"> Char &gt;</text>
</a>
</g>
</g>
<!-- Node11&#45;&gt;Node10 -->
<g id="edge10" class="edge">
<title>Node11&#45;&gt;Node10</title>
<path fill="none" stroke="midnightblue" d="M140.98,-266C178.43,-266 224.72,-266 254.89,-266"/>
<polygon fill="midnightblue" stroke="midnightblue" points="140.67,-262.5 130.67,-266 140.67,-269.5 140.67,-262.5"/>
</g>
<!-- Node12 -->
<g id="node12" class="node">
<title>Node12</title>
<g id="a_node12"><a xlink:title=" ">
<polygon fill="white" stroke="black" points="1544,-613 1544,-665 1678,-665 1678,-613 1544,-613"/>
<text text-anchor="start" x="1552" y="-653" font-family="Helvetica,sans-Serif" font-size="10.00">std::unordered_map</text>
<text text-anchor="start" x="1552" y="-642" font-family="Helvetica,sans-Serif" font-size="10.00">&lt; Version, std::tuple</text>
<text text-anchor="start" x="1552" y="-631" font-family="Helvetica,sans-Serif" font-size="10.00">&lt; std::unique_ptr&lt; kv</text>
<text text-anchor="middle" x="1611" y="-620" font-family="Helvetica,sans-Serif" font-size="10.00">::PendingTx &gt;, bool &gt; &gt;</text>
</a>
</g>
</g>
<!-- Node12&#45;&gt;Node7 -->
<g id="edge11" class="edge">
<title>Node12&#45;&gt;Node7</title>
<path fill="none" stroke="#9a32cd" stroke-dasharray="5,2" d="M1688.18,-634.53C1761.5,-630.23 1869.62,-623.89 1928.35,-620.44"/>
<polygon fill="#9a32cd" stroke="#9a32cd" points="1687.86,-631.04 1678.08,-635.12 1688.27,-638.03 1687.86,-631.04"/>
<text text-anchor="middle" x="1791" y="-636" font-family="Helvetica,sans-Serif" font-size="10.00"> pending_txs</text>
</g>
<!-- Node13 -->
<g id="node13" class="node">
<title>Node13</title>
<g id="a_node13"><a xlink:href="classkv_1_1ExecutionWrapperStore.html" target="_top" xlink:title=" ">
<polygon fill="white" stroke="black" points="1897,-532.5 1897,-551.5 2045,-551.5 2045,-532.5 1897,-532.5"/>
<text text-anchor="middle" x="1971" y="-539.5" font-family="Helvetica,sans-Serif" font-size="10.00">kv::ExecutionWrapperStore</text>
</a>
</g>
</g>
<!-- Node13&#45;&gt;Node5 -->
<g id="edge12" class="edge">
<title>Node13&#45;&gt;Node5</title>
<path fill="none" stroke="midnightblue" d="M2055.23,-549.38C2128.92,-555.91 2232.26,-565.07 2281.8,-569.46"/>
<polygon fill="midnightblue" stroke="midnightblue" points="2055.3,-545.87 2045.03,-548.47 2054.68,-552.84 2055.3,-545.87"/>
</g>
<!-- Node14 -->
<g id="node14" class="node">
<title>Node14</title>
<g id="a_node14"><a xlink:href="classkv_1_1ReadOnlyStore.html" target="_top" xlink:title=" ">
<polygon fill="white" stroke="black" points="1917.5,-646.5 1917.5,-665.5 2024.5,-665.5 2024.5,-646.5 1917.5,-646.5"/>
<text text-anchor="middle" x="1971" y="-653.5" font-family="Helvetica,sans-Serif" font-size="10.00">kv::ReadOnlyStore</text>
</a>
</g>
</g>
<!-- Node14&#45;&gt;Node5 -->
<g id="edge13" class="edge">
<title>Node14&#45;&gt;Node5</title>
<path fill="none" stroke="midnightblue" d="M2035.06,-656.48C2088.14,-654.28 2164.39,-644.84 2222,-612 2232.68,-605.91 2229.6,-597.56 2240,-591 2252.54,-583.09 2268.35,-578.44 2281.81,-575.72"/>
<polygon fill="midnightblue" stroke="midnightblue" points="2034.64,-652.99 2024.76,-656.83 2034.87,-659.99 2034.64,-652.99"/>
</g>
<!-- Node15&#45;&gt;Node2 -->
<g id="edge14" class="edge">
<title>Node15&#45;&gt;Node2</title>
<path fill="none" stroke="#9a32cd" stroke-dasharray="5,2" d="M2325.25,-384.96C2348.7,-426.85 2402.59,-513.62 2471,-563 2484.3,-572.6 2500.91,-579.54 2515.87,-584.39"/>
<polygon fill="#9a32cd" stroke="#9a32cd" points="2328.22,-383.1 2320.34,-376.03 2322.09,-386.48 2328.22,-383.1"/>
<text text-anchor="middle" x="2427" y="-548" font-family="Helvetica,sans-Serif" font-size="10.00"> endpoints</text>
</g>
<!-- Node39 -->
<g id="node39" class="node">
<title>Node39</title>
<g id="a_node39"><a xlink:title=" ">
<polygon fill="white" stroke="black" points="2471,-523 2471,-553 2642,-553 2642,-523 2471,-523"/>
<text text-anchor="start" x="2479" y="-541" font-family="Helvetica,sans-Serif" font-size="10.00">std::unique_ptr&lt; ccf</text>
<text text-anchor="middle" x="2556.5" y="-530" font-family="Helvetica,sans-Serif" font-size="10.00">::endpoints::EndpointRegistry &gt;</text>
</a>
</g>
</g>
<!-- Node15&#45;&gt;Node39 -->
<g id="edge51" class="edge">
<title>Node15&#45;&gt;Node39</title>
<path fill="none" stroke="#9a32cd" stroke-dasharray="5,2" d="M2341.3,-381.98C2390.95,-418.14 2491.48,-491.37 2534.83,-522.95"/>
<polygon fill="#9a32cd" stroke="#9a32cd" points="2343.36,-379.15 2333.22,-376.09 2339.24,-384.81 2343.36,-379.15"/>
<text text-anchor="middle" x="2427" y="-463" font-family="Helvetica,sans-Serif" font-size="10.00"> ptr</text>
</g>
<!-- Node16 -->
<g id="node16" class="node">
<title>Node16</title>
<g id="a_node16"><a xlink:href="structccf_1_1endpoints_1_1Endpoint_1_1Installer.html" target="_top" xlink:title=" ">
<polygon fill="white" stroke="black" points="1175.5,-152 1175.5,-182 1308.5,-182 1308.5,-152 1175.5,-152"/>
<text text-anchor="start" x="1183.5" y="-170" font-family="Helvetica,sans-Serif" font-size="10.00">ccf::endpoints::Endpoint</text>
<text text-anchor="middle" x="1242" y="-159" font-family="Helvetica,sans-Serif" font-size="10.00">::Installer</text>
</a>
</g>
</g>
<!-- Node16&#45;&gt;Node15 -->
<g id="edge15" class="edge">
<title>Node16&#45;&gt;Node15</title>
<path fill="none" stroke="midnightblue" d="M1319.09,-168.03C1542.55,-171.3 2183.63,-182.69 2222,-206 2274.44,-237.85 2298.7,-313.16 2307.01,-345.64"/>
<polygon fill="midnightblue" stroke="midnightblue" points="1318.82,-164.52 1308.77,-167.88 1318.72,-171.52 1318.82,-164.52"/>
</g>
<!-- Node19 -->
<g id="node19" class="node">
<title>Node19</title>
<g id="a_node19"><a xlink:href="structccf_1_1endpoints_1_1Endpoint.html" target="_top" xlink:title=" ">
<polygon fill="white" stroke="black" points="1544.5,-116.5 1544.5,-135.5 1677.5,-135.5 1677.5,-116.5 1544.5,-116.5"/>
<text text-anchor="middle" x="1611" y="-123.5" font-family="Helvetica,sans-Serif" font-size="10.00">ccf::endpoints::Endpoint</text>
</a>
</g>
</g>
<!-- Node16&#45;&gt;Node19 -->
<g id="edge33" class="edge">
<title>Node16&#45;&gt;Node19</title>
<path fill="none" stroke="#9a32cd" stroke-dasharray="5,2" d="M1318.62,-158.55C1385.13,-151.12 1480.98,-140.41 1544.34,-133.34"/>
<polygon fill="#9a32cd" stroke="#9a32cd" points="1318.16,-155.08 1308.61,-159.67 1318.94,-162.04 1318.16,-155.08"/>
<text text-anchor="middle" x="1433.5" y="-158" font-family="Helvetica,sans-Serif" font-size="10.00"> installer</text>
</g>
<!-- Node17&#45;&gt;Node15 -->
<g id="edge17" class="edge">
<title>Node17&#45;&gt;Node15</title>
<path fill="none" stroke="#9a32cd" stroke-dasharray="5,2" d="M828.19,-427.35C1027.47,-435.55 1583.14,-454.48 2045,-433 2123.9,-429.33 2147.2,-442.38 2222,-417 2248.69,-407.94 2275.5,-389.32 2292.51,-376.04"/>
<polygon fill="#9a32cd" stroke="#9a32cd" points="828.25,-423.85 818.12,-426.93 827.96,-430.84 828.25,-423.85"/>
<text text-anchor="middle" x="1433.5" y="-445" font-family="Helvetica,sans-Serif" font-size="10.00"> openapi_info</text>
</g>
<!-- Node18 -->
<g id="node18" class="node">
<title>Node18</title>
<g id="a_node18"><a xlink:title=" ">
<polygon fill="white" stroke="black" points="1907.5,-121 1907.5,-151 2034.5,-151 2034.5,-121 1907.5,-121"/>
<text text-anchor="start" x="1915.5" y="-139" font-family="Helvetica,sans-Serif" font-size="10.00">std::shared_ptr&lt; const</text>
<text text-anchor="middle" x="1971" y="-128" font-family="Helvetica,sans-Serif" font-size="10.00"> Endpoint &gt;</text>
</a>
</g>
</g>
<!-- Node18&#45;&gt;Node15 -->
<g id="edge19" class="edge">
<title>Node18&#45;&gt;Node15</title>
<path fill="none" stroke="#9a32cd" stroke-dasharray="5,2" d="M2044.72,-123.51C2098.58,-118.36 2171.14,-120.49 2222,-157 2286.45,-203.27 2304.45,-306.71 2309.05,-345.72"/>
<polygon fill="#9a32cd" stroke="#9a32cd" points="2044.13,-120.05 2034.55,-124.59 2044.87,-127.01 2044.13,-120.05"/>
<text text-anchor="middle" x="2142.5" y="-160" font-family="Helvetica,sans-Serif" font-size="10.00"> default_endpoint</text>
</g>
<!-- Node19&#45;&gt;Node18 -->
<g id="edge20" class="edge">
<title>Node19&#45;&gt;Node18</title>
<path fill="none" stroke="#9a32cd" stroke-dasharray="5,2" d="M1687.9,-128.12C1753.22,-129.94 1846.34,-132.55 1907.45,-134.25"/>
<polygon fill="#9a32cd" stroke="#9a32cd" points="1687.76,-124.61 1677.66,-127.83 1687.56,-131.61 1687.76,-124.61"/>
<text text-anchor="middle" x="1791" y="-137" font-family="Helvetica,sans-Serif" font-size="10.00"> ptr</text>
</g>
<!-- Node20&#45;&gt;Node19 -->
<g id="edge21" class="edge">
<title>Node20&#45;&gt;Node19</title>
<path fill="none" stroke="midnightblue" d="M1318.62,-87.89C1385.13,-96.59 1480.98,-109.13 1544.34,-117.41"/>
<polygon fill="midnightblue" stroke="midnightblue" points="1318.98,-84.41 1308.61,-86.58 1318.07,-91.35 1318.98,-84.41"/>
</g>
<!-- Node21&#45;&gt;Node20 -->
<g id="edge22" class="edge">
<title>Node21&#45;&gt;Node20</title>
<path fill="none" stroke="#9a32cd" stroke-dasharray="5,2" d="M662.58,-137.61C772.02,-129.04 968.52,-112.6 1136,-93 1148.71,-91.51 1162.26,-89.73 1175.25,-87.91"/>
<polygon fill="#9a32cd" stroke="#9a32cd" points="662.28,-134.13 652.59,-138.39 662.83,-141.1 662.28,-134.13"/>
<text text-anchor="middle" x="908" y="-126" font-family="Helvetica,sans-Serif" font-size="10.00"> dispatch</text>
</g>
<!-- Node22 -->
<g id="node22" class="node">
<title>Node22</title>
<g id="a_node22"><a xlink:href="classccf_1_1RESTVerb.html" target="_top" xlink:title=" ">
<polygon fill="white" stroke="black" points="246,-79.5 246,-98.5 329,-98.5 329,-79.5 246,-79.5"/>
<text text-anchor="middle" x="287.5" y="-86.5" font-family="Helvetica,sans-Serif" font-size="10.00">ccf::RESTVerb</text>
</a>
</g>
</g>
<!-- Node22&#45;&gt;Node21 -->
<g id="edge24" class="edge">
<title>Node22&#45;&gt;Node21</title>
<path fill="none" stroke="#9a32cd" stroke-dasharray="5,2" d="M331.76,-77.29C371.72,-69.09 431.2,-63.73 474,-90 488.91,-99.15 478.17,-114.29 492,-125 496.96,-128.85 502.56,-131.94 508.45,-134.43"/>
<polygon fill="#9a32cd" stroke="#9a32cd" points="330.81,-73.92 321.79,-79.48 332.31,-80.76 330.81,-73.92"/>
<text text-anchor="middle" x="428.5" y="-93" font-family="Helvetica,sans-Serif" font-size="10.00"> verb</text>
</g>
<!-- Node23&#45;&gt;Node20 -->
<g id="edge26" class="edge">
<title>Node23&#45;&gt;Node20</title>
<path fill="none" stroke="#9a32cd" stroke-dasharray="5,2" d="M984.71,-78C1042.18,-78 1120.4,-78 1175.26,-78"/>
<polygon fill="#9a32cd" stroke="#9a32cd" points="984.59,-74.5 974.59,-78 984.59,-81.5 984.59,-74.5"/>
<text text-anchor="middle" x="1064.5" y="-81" font-family="Helvetica,sans-Serif" font-size="10.00"> properties</text>
</g>
<!-- Node24&#45;&gt;Node23 -->
<g id="edge27" class="edge">
<title>Node24&#45;&gt;Node23</title>
<path fill="none" stroke="#9a32cd" stroke-dasharray="5,2" d="M657.66,-99.22C713.95,-94.43 788.49,-88.09 841.37,-83.59"/>
<polygon fill="#9a32cd" stroke="#9a32cd" points="657.04,-95.76 647.37,-100.1 657.63,-102.74 657.04,-95.76"/>
<text text-anchor="middle" x="751.5" y="-100" font-family="Helvetica,sans-Serif" font-size="10.00"> authn_policies</text>
</g>
<!-- Node25 -->
<g id="node25" class="node">
<title>Node25</title>
<g id="a_node25"><a xlink:title=" ">
<polygon fill="white" stroke="black" points="841,-9 841,-39 975,-39 975,-9 841,-9"/>
<text text-anchor="start" x="849" y="-27" font-family="Helvetica,sans-Serif" font-size="10.00">std::vector&lt; std::shared</text>
<text text-anchor="middle" x="908" y="-16" font-family="Helvetica,sans-Serif" font-size="10.00">_ptr&lt; AuthnPolicy &gt; &gt;</text>
</a>
</g>
</g>
<!-- Node25&#45;&gt;Node20 -->
<g id="edge30" class="edge">
<title>Node25&#45;&gt;Node20</title>
<path fill="none" stroke="#9a32cd" stroke-dasharray="5,2" d="M985.5,-36.44C1042.9,-45.78 1120.68,-58.43 1175.29,-67.31"/>
<polygon fill="#9a32cd" stroke="#9a32cd" points="985.82,-32.95 975.39,-34.8 984.7,-39.86 985.82,-32.95"/>
<text text-anchor="middle" x="1064.5" y="-64" font-family="Helvetica,sans-Serif" font-size="10.00"> authn_policies</text>
</g>
<!-- Node26 -->
<g id="node26" class="node">
<title>Node26</title>
<g id="a_node26"><a xlink:title=" ">
<polygon fill="white" stroke="black" points="492,-0.5 492,-19.5 662,-19.5 662,-0.5 492,-0.5"/>
<text text-anchor="middle" x="577" y="-7.5" font-family="Helvetica,sans-Serif" font-size="10.00">std::shared_ptr&lt; AuthnPolicy &gt;</text>
</a>
</g>
</g>
<!-- Node26&#45;&gt;Node25 -->
<g id="edge31" class="edge">
<title>Node26&#45;&gt;Node25</title>
<path fill="none" stroke="#9a32cd" stroke-dasharray="5,2" d="M672.55,-14.02C726.4,-16.31 792.53,-19.13 840.82,-21.18"/>
<polygon fill="#9a32cd" stroke="#9a32cd" points="672.44,-10.52 662.3,-13.59 672.14,-17.51 672.44,-10.52"/>
<text text-anchor="middle" x="751.5" y="-24" font-family="Helvetica,sans-Serif" font-size="10.00"> elements</text>
</g>
<!-- Node27 -->
<g id="node27" class="node">
<title>Node27</title>
<g id="a_node27"><a xlink:href="classccf_1_1AuthnPolicy.html" target="_top" xlink:title=" ">
<polygon fill="white" stroke="black" points="240.5,-0.5 240.5,-19.5 334.5,-19.5 334.5,-0.5 240.5,-0.5"/>
<text text-anchor="middle" x="287.5" y="-7.5" font-family="Helvetica,sans-Serif" font-size="10.00">ccf::AuthnPolicy</text>
</a>
</g>
</g>
<!-- Node27&#45;&gt;Node26 -->
<g id="edge32" class="edge">
<title>Node27&#45;&gt;Node26</title>
<path fill="none" stroke="#9a32cd" stroke-dasharray="5,2" d="M344.71,-10C386.62,-10 444.54,-10 491.94,-10"/>
<polygon fill="#9a32cd" stroke="#9a32cd" points="344.69,-6.5 334.69,-10 344.69,-13.5 344.69,-6.5"/>
<text text-anchor="middle" x="428.5" y="-13" font-family="Helvetica,sans-Serif" font-size="10.00"> ptr</text>
</g>
<!-- Node28 -->
<g id="node28" class="node">
<title>Node28</title>
<g id="a_node28"><a xlink:title=" ">
<polygon fill="white" stroke="black" points="1154,-112.5 1154,-131.5 1330,-131.5 1330,-112.5 1154,-112.5"/>
<text text-anchor="middle" x="1242" y="-119.5" font-family="Helvetica,sans-Serif" font-size="10.00">std::vector&lt; SchemaBuilderFn &gt;</text>
</a>
</g>
</g>
<!-- Node28&#45;&gt;Node19 -->
<g id="edge34" class="edge">
<title>Node28&#45;&gt;Node19</title>
<path fill="none" stroke="#9a32cd" stroke-dasharray="5,2" d="M1340.07,-121.66C1392.97,-121.64 1459.59,-121.91 1519,-123 1527.22,-123.15 1535.85,-123.36 1544.39,-123.61"/>
<polygon fill="#9a32cd" stroke="#9a32cd" points="1340.02,-118.16 1330.02,-121.66 1340.02,-125.16 1340.02,-118.16"/>
<text text-anchor="middle" x="1433.5" y="-126" font-family="Helvetica,sans-Serif" font-size="10.00"> schema_builders</text>
</g>
<!-- Node29&#45;&gt;Node15 -->
<g id="edge35" class="edge">
<title>Node29&#45;&gt;Node15</title>
<path fill="none" stroke="#9a32cd" stroke-dasharray="5,2" d="M1146.31,-402.02C1220.6,-409.53 1333.82,-419 1432.5,-419 1432.5,-419 1432.5,-419 1972,-419 2083.86,-419 2112.74,-413.98 2222,-390 2238.11,-386.46 2255.43,-381.14 2270.44,-376.02"/>
<polygon fill="#9a32cd" stroke="#9a32cd" points="1146.4,-398.51 1136.09,-400.98 1145.69,-405.48 1146.4,-398.51"/>
<text text-anchor="middle" x="1611" y="-422" font-family="Helvetica,sans-Serif" font-size="10.00"> fully_qualified_endpoints</text>
</g>
<!-- Node30&#45;&gt;Node15 -->
<g id="edge37" class="edge">
<title>Node30&#45;&gt;Node15</title>
<path fill="none" stroke="#9a32cd" stroke-dasharray="5,2" d="M1529.48,-326.23C1708.47,-334.2 2091.48,-351.25 2244.93,-358.08"/>
<polygon fill="#9a32cd" stroke="#9a32cd" points="1529.44,-322.72 1519.29,-325.77 1529.12,-329.72 1529.44,-322.72"/>
<text text-anchor="middle" x="1791" y="-345" font-family="Helvetica,sans-Serif" font-size="10.00"> templated_endpoints</text>
</g>
<!-- Node31&#45;&gt;Node15 -->
<g id="edge40" class="edge">
<title>Node31&#45;&gt;Node15</title>
<path fill="none" stroke="#9a32cd" stroke-dasharray="5,2" d="M1889.5,-257.22C1979.09,-252.82 2113.97,-255.61 2222,-298 2250.27,-309.09 2277.98,-331.15 2294.66,-345.99"/>
<polygon fill="#9a32cd" stroke="#9a32cd" points="1889.15,-253.74 1879.35,-257.76 1889.52,-260.73 1889.15,-253.74"/>
<text text-anchor="middle" x="1971" y="-263" font-family="Helvetica,sans-Serif" font-size="10.00"> metrics</text>
</g>
<!-- Node32 -->
<g id="node32" class="node">
<title>Node32</title>
<g id="a_node32"><a xlink:href="classkv_1_1Consensus.html" target="_top" xlink:title=" ">
<polygon fill="white" stroke="black" points="1928,-371.5 1928,-390.5 2014,-390.5 2014,-371.5 1928,-371.5"/>
<text text-anchor="middle" x="1971" y="-378.5" font-family="Helvetica,sans-Serif" font-size="10.00">kv::Consensus</text>
</a>
</g>
</g>
<!-- Node32&#45;&gt;Node15 -->
<g id="edge42" class="edge">
<title>Node32&#45;&gt;Node15</title>
<path fill="none" stroke="#9a32cd" stroke-dasharray="5,2" d="M2024.45,-377.9C2083.78,-374.4 2180.47,-368.68 2244.78,-364.88"/>
<polygon fill="#9a32cd" stroke="#9a32cd" points="2023.96,-374.42 2014.19,-378.51 2024.38,-381.41 2023.96,-374.42"/>
<text text-anchor="middle" x="2142.5" y="-378" font-family="Helvetica,sans-Serif" font-size="10.00"> consensus</text>
</g>
<!-- Node33 -->
<g id="node33" class="node">
<title>Node33</title>
<g id="a_node33"><a xlink:href="classkv_1_1ConfigurableConsensus.html" target="_top" xlink:title=" ">
<polygon fill="white" stroke="black" points="1537,-363.5 1537,-382.5 1685,-382.5 1685,-363.5 1537,-363.5"/>
<text text-anchor="middle" x="1611" y="-370.5" font-family="Helvetica,sans-Serif" font-size="10.00">kv::ConfigurableConsensus</text>
</a>
</g>
</g>
<!-- Node33&#45;&gt;Node32 -->
<g id="edge43" class="edge">
<title>Node33&#45;&gt;Node32</title>
<path fill="none" stroke="midnightblue" d="M1695.38,-374.86C1768.21,-376.49 1870.92,-378.79 1927.85,-380.06"/>
<polygon fill="midnightblue" stroke="midnightblue" points="1695.39,-371.36 1685.31,-374.64 1695.23,-378.36 1695.39,-371.36"/>
</g>
<!-- Node34 -->
<g id="node34" class="node">
<title>Node34</title>
<g id="a_node34"><a xlink:href="classkv_1_1TxHistory.html" target="_top" xlink:title=" ">
<polygon fill="white" stroke="black" points="1930.5,-295.5 1930.5,-314.5 2011.5,-314.5 2011.5,-295.5 1930.5,-295.5"/>
<text text-anchor="middle" x="1971" y="-302.5" font-family="Helvetica,sans-Serif" font-size="10.00">kv::TxHistory</text>
</a>
</g>
</g>
<!-- Node34&#45;&gt;Node15 -->
<g id="edge44" class="edge">
<title>Node34&#45;&gt;Node15</title>
<path fill="none" stroke="#9a32cd" stroke-dasharray="5,2" d="M2021.82,-301.83C2072.91,-299.9 2154.28,-300.55 2222,-318 2244.99,-323.92 2269.11,-336.09 2286.35,-345.98"/>
<polygon fill="#9a32cd" stroke="#9a32cd" points="2021.55,-298.34 2011.7,-302.26 2021.84,-305.33 2021.55,-298.34"/>
<text text-anchor="middle" x="2142.5" y="-321" font-family="Helvetica,sans-Serif" font-size="10.00"> history</text>
</g>
<!-- Node35 -->
<g id="node35" class="node">
<title>Node35</title>
<g id="a_node35"><a xlink:href="structccfapp_1_1AbstractNodeContext.html" target="_top" xlink:title=" ">
<polygon fill="white" stroke="black" points="2063,-684.5 2063,-703.5 2222,-703.5 2222,-684.5 2063,-684.5"/>
<text text-anchor="middle" x="2142.5" y="-691.5" font-family="Helvetica,sans-Serif" font-size="10.00">ccfapp::AbstractNodeContext</text>
</a>
</g>
</g>
<!-- Node35&#45;&gt;Node2 -->
<g id="edge45" class="edge">
<title>Node35&#45;&gt;Node2</title>
<path fill="none" stroke="#9a32cd" stroke-dasharray="5,2" d="M2232.36,-690.09C2277.97,-686.55 2334.08,-679.82 2383,-667 2441.82,-651.58 2506.75,-619.74 2537.48,-603.69"/>
<polygon fill="#9a32cd" stroke="#9a32cd" points="2231.92,-686.61 2222.2,-690.84 2232.43,-693.59 2231.92,-686.61"/>
<text text-anchor="middle" x="2311.5" y="-692" font-family="Helvetica,sans-Serif" font-size="10.00"> node_context</text>
</g>
<!-- Node36&#45;&gt;Node35 -->
<g id="edge46" class="edge">
<title>Node36&#45;&gt;Node35</title>
<path fill="none" stroke="#9a32cd" stroke-dasharray="5,2" d="M670.5,-691.72C736.43,-692.81 827.16,-694 907,-694 907,-694 907,-694 1792,-694 1884.99,-694 1991.89,-694 2062.73,-694"/>
<polygon fill="#9a32cd" stroke="#9a32cd" points="670.19,-688.22 660.13,-691.55 670.07,-695.22 670.19,-688.22"/>
<text text-anchor="middle" x="1242" y="-697" font-family="Helvetica,sans-Serif" font-size="10.00"> subsystems</text>
</g>
<!-- Node37 -->
<g id="node37" class="node">
<title>Node37</title>
<g id="a_node37"><a xlink:title=" ">
<polygon fill="white" stroke="black" points="210,-675 210,-705 365,-705 365,-675 210,-675"/>
<text text-anchor="start" x="218" y="-693" font-family="Helvetica,sans-Serif" font-size="10.00">std::shared_ptr&lt; ccf</text>
<text text-anchor="middle" x="287.5" y="-682" font-family="Helvetica,sans-Serif" font-size="10.00">::AbstractNodeSubSystem &gt;</text>
</a>
</g>
</g>
<!-- Node37&#45;&gt;Node36 -->
<g id="edge48" class="edge">
<title>Node37&#45;&gt;Node36</title>
<path fill="none" stroke="#9a32cd" stroke-dasharray="5,2" d="M375.58,-690C413.11,-690 456.78,-690 493.75,-690"/>
<polygon fill="#9a32cd" stroke="#9a32cd" points="375.17,-686.5 365.17,-690 375.17,-693.5 375.17,-686.5"/>
<text text-anchor="middle" x="428.5" y="-693" font-family="Helvetica,sans-Serif" font-size="10.00"> elements</text>
</g>
<!-- Node38 -->
<g id="node38" class="node">
<title>Node38</title>
<g id="a_node38"><a xlink:href="classccf_1_1AbstractNodeSubSystem.html" target="_top" xlink:title=" ">
<polygon fill="white" stroke="black" points="0,-680.5 0,-699.5 157,-699.5 157,-680.5 0,-680.5"/>
<text text-anchor="middle" x="78.5" y="-687.5" font-family="Helvetica,sans-Serif" font-size="10.00">ccf::AbstractNodeSubSystem</text>
</a>
</g>
</g>
<!-- Node38&#45;&gt;Node37 -->
<g id="edge49" class="edge">
<title>Node38&#45;&gt;Node37</title>
<path fill="none" stroke="#9a32cd" stroke-dasharray="5,2" d="M167.35,-690C181.46,-690 195.96,-690 209.77,-690"/>
<polygon fill="#9a32cd" stroke="#9a32cd" points="167.17,-686.5 157.17,-690 167.17,-693.5 167.17,-686.5"/>
<text text-anchor="middle" x="183.5" y="-693" font-family="Helvetica,sans-Serif" font-size="10.00"> ptr</text>
</g>
<!-- Node39&#45;&gt;Node1 -->
<g id="edge50" class="edge">
<title>Node39&#45;&gt;Node1</title>
<path fill="none" stroke="#9a32cd" stroke-dasharray="5,2" d="M2652.34,-546.38C2672.06,-548.19 2692.71,-550.12 2712,-552 2717.71,-552.56 2723.67,-553.15 2729.62,-553.76"/>
<polygon fill="#9a32cd" stroke="#9a32cd" points="2652.39,-542.88 2642.12,-545.45 2651.76,-549.85 2652.39,-542.88"/>
<text text-anchor="middle" x="2686" y="-555" font-family="Helvetica,sans-Serif" font-size="10.00"> endpoints</text>
</g>
</g>
</svg>
        <g id="navigator" transform="translate(0 0)" fill="#404254">
                <rect fill="#f2f5e9" fill-opacity="0.5" stroke="#606060" stroke-width=".5" x="0" y="0" width="60" height="60"/>
                <use id="zoomplus" xlink:href="#zoomPlus" x="17" y="9" onmousedown="handleZoom(evt,'in')"/>
                <use id="zoomminus" xlink:href="#zoomMin" x="42" y="9" onmousedown="handleZoom(evt,'out')"/>
                <use id="reset" xlink:href="#resetDef" x="30" y="36" onmousedown="handleReset()"/>
                <g id="arrowUp" xlink:href="#dirArrow" transform="translate(30 24)" onmousedown="handlePan(0,-1)">
                  <use xlink:href="#rim" fill="#404040">
                        <set attributeName="fill" to="#808080" begin="arrowUp.mouseover" end="arrowUp.mouseout"/>
                  </use>
                  <path fill="none" stroke="white" stroke-width="1.5" d="M0,-3.0v7 M-2.5,-0.5L0,-3.0L2.5,-0.5"/>
                </g>
                <g id="arrowRight" xlink:href="#dirArrow" transform="rotate(90) translate(36 -43)" onmousedown="handlePan(1,0)">
                  <use xlink:href="#rim" fill="#404040">
                        <set attributeName="fill" to="#808080" begin="arrowRight.mouseover" end="arrowRight.mouseout"/>
                  </use>
                  <path fill="none" stroke="white" stroke-width="1.5" d="M0,-3.0v7 M-2.5,-0.5L0,-3.0L2.5,-0.5"/>
                </g>
                <g id="arrowDown" xlink:href="#dirArrow" transform="rotate(180) translate(-30 -48)" onmousedown="handlePan(0,1)">
                  <use xlink:href="#rim" fill="#404040">
                        <set attributeName="fill" to="#808080" begin="arrowDown.mouseover" end="arrowDown.mouseout"/>
                  </use>
                  <path fill="none" stroke="white" stroke-width="1.5" d="M0,-3.0v7 M-2.5,-0.5L0,-3.0L2.5,-0.5"/>
                </g>
                <g id="arrowLeft" xlink:href="#dirArrow" transform="rotate(270) translate(-36 17)" onmousedown="handlePan(-1,0)">
                  <use xlink:href="#rim" fill="#404040">
                        <set attributeName="fill" to="#808080" begin="arrowLeft.mouseover" end="arrowLeft.mouseout"/>
                  </use>
                  <path fill="none" stroke="white" stroke-width="1.5" d="M0,-3.0v7 M-2.5,-0.5L0,-3.0L2.5,-0.5"/>
                </g>
        </g>
        <svg viewBox="0 0 15 15" width="100%" height="30px" preserveAspectRatio="xMaxYMin meet">
         <g id="arrow_out" transform="scale(0.3 0.3)">
          <a xlink:href="classccf_1_1UserRpcFrontend__coll__graph_org.svg" target="_base">
           <rect id="button" ry="5" rx="5" y="6" x="6" height="38" width="38"
                fill="#f2f5e9" fill-opacity="0.5" stroke="#606060" stroke-width="1.0"/>
           <path id="arrow"
             d="M 11.500037,31.436501 C 11.940474,20.09759 22.043105,11.32322 32.158766,21.979434 L 37.068811,17.246167 C 37.068811,17.246167 37.088388,32 37.088388,32 L 22.160133,31.978069 C 22.160133,31.978069 26.997745,27.140456 26.997745,27.140456 C 18.528582,18.264221 13.291696,25.230495 11.500037,31.436501 z"
             style="fill:#404040;"/>
          </a>
         </g>
        </svg>
</svg>
