<?xml version="1.0" encoding="UTF-8" standalone="no"?>
<!DOCTYPE svg PUBLIC "-//W3C//DTD SVG 1.1//EN"
 "http://www.w3.org/Graphics/SVG/1.1/DTD/svg11.dtd">
<!-- Generated by graphviz version 2.43.0 (0)
 -->
<!-- Title: JsonParseError Pages: 1 -->
<svg width="290pt" height="230pt"
 viewBox="0.00 0.00 289.50 230.00" xmlns="http://www.w3.org/2000/svg" xmlns:xlink="http://www.w3.org/1999/xlink">
<g id="graph0" class="graph" transform="scale(1 1) rotate(0) translate(4 226)">
<title>JsonParseError</title>
<polygon fill="white" stroke="transparent" points="-4,4 -4,-226 285.5,-226 285.5,4 -4,4"/>
<!-- Node1 -->
<g id="node1" class="node">
<title>Node1</title>
<g id="a_node1"><a xlink:title=" ">
<polygon fill="#bfbfbf" stroke="black" points="92.5,-0.5 92.5,-19.5 178.5,-19.5 178.5,-0.5 92.5,-0.5"/>
<text text-anchor="middle" x="135.5" y="-7.5" font-family="Helvetica,sans-Serif" font-size="10.00">JsonParseError</text>
</a>
</g>
</g>
<!-- Node2 -->
<g id="node2" class="node">
<title>Node2</title>
<g id="a_node2"><a xlink:title=" ">
<polygon fill="white" stroke="black" points="0,-67.5 0,-86.5 123,-86.5 123,-67.5 0,-67.5"/>
<text text-anchor="middle" x="61.5" y="-74.5" font-family="Helvetica,sans-Serif" font-size="10.00">std::invalid_argument</text>
</a>
</g>
</g>
<!-- Node2&#45;&gt;Node1 -->
<g id="edge1" class="edge">
<title>Node2&#45;&gt;Node1</title>
<path fill="none" stroke="midnightblue" d="M79.31,-60.36C93.86,-47.58 113.88,-29.99 125.68,-19.63"/>
<polygon fill="midnightblue" stroke="midnightblue" points="76.68,-58 71.48,-67.23 81.3,-63.26 76.68,-58"/>
</g>
<!-- Node3 -->
<g id="node3" class="node">
<title>Node3</title>
<g id="a_node3"><a xlink:title=" ">
<polygon fill="white" stroke="black" points="17,-134.5 17,-153.5 106,-153.5 106,-134.5 17,-134.5"/>
<text text-anchor="middle" x="61.5" y="-141.5" font-family="Helvetica,sans-Serif" font-size="10.00">std::logic_error</text>
</a>
</g>
</g>
<!-- Node3&#45;&gt;Node2 -->
<g id="edge2" class="edge">
<title>Node3&#45;&gt;Node2</title>
<path fill="none" stroke="midnightblue" d="M61.5,-124.04C61.5,-111.67 61.5,-96.12 61.5,-86.63"/>
<polygon fill="midnightblue" stroke="midnightblue" points="58,-124.23 61.5,-134.23 65,-124.23 58,-124.23"/>
</g>
<!-- Node4 -->
<g id="node4" class="node">
<title>Node4</title>
<g id="a_node4"><a xlink:title=" ">
<polygon fill="white" stroke="black" points="18.5,-197 18.5,-216 104.5,-216 104.5,-197 18.5,-197"/>
<text text-anchor="middle" x="61.5" y="-204" font-family="Helvetica,sans-Serif" font-size="10.00">std::exception</text>
</a>
</g>
</g>
<!-- Node4&#45;&gt;Node3 -->
<g id="edge3" class="edge">
<title>Node4&#45;&gt;Node3</title>
<path fill="none" stroke="midnightblue" d="M61.5,-186.5C61.5,-175.5 61.5,-162.18 61.5,-153.65"/>
<polygon fill="midnightblue" stroke="midnightblue" points="58,-186.83 61.5,-196.83 65,-186.83 58,-186.83"/>
</g>
<!-- Node5 -->
<g id="node5" class="node">
<title>Node5</title>
<g id="a_node5"><a xlink:title=" ">
<polygon fill="white" stroke="black" points="141.5,-67.5 141.5,-86.5 281.5,-86.5 281.5,-67.5 141.5,-67.5"/>
<text text-anchor="middle" x="211.5" y="-74.5" font-family="Helvetica,sans-Serif" font-size="10.00">std::vector&lt; std::string &gt;</text>
</a>
</g>
</g>
<!-- Node5&#45;&gt;Node1 -->
<g id="edge4" class="edge">
<title>Node5&#45;&gt;Node1</title>
<path fill="none" stroke="#9a32cd" stroke-dasharray="5,2" d="M193.63,-60.71C178.65,-47.91 157.82,-30.09 145.59,-19.63"/>
<polygon fill="#9a32cd" stroke="#9a32cd" points="191.38,-63.39 201.25,-67.23 195.93,-58.07 191.38,-63.39"/>
<text text-anchor="middle" x="223" y="-41" font-family="Helvetica,sans-Serif" font-size="10.00"> pointer_elements</text>
</g>
<!-- Node6 -->
<g id="node6" class="node">
<title>Node6</title>
<g id="a_node6"><a xlink:title=" ">
<polygon fill="white" stroke="black" points="179,-134.5 179,-153.5 244,-153.5 244,-134.5 179,-134.5"/>
<text text-anchor="middle" x="211.5" y="-141.5" font-family="Helvetica,sans-Serif" font-size="10.00">std::string</text>
</a>
</g>
</g>
<!-- Node6&#45;&gt;Node5 -->
<g id="edge5" class="edge">
<title>Node6&#45;&gt;Node5</title>
<path fill="none" stroke="#9a32cd" stroke-dasharray="5,2" d="M211.5,-124.04C211.5,-111.67 211.5,-96.12 211.5,-86.63"/>
<polygon fill="#9a32cd" stroke="#9a32cd" points="208,-124.23 211.5,-134.23 215,-124.23 208,-124.23"/>
<text text-anchor="middle" x="236" y="-108" font-family="Helvetica,sans-Serif" font-size="10.00"> elements</text>
</g>
<!-- Node7 -->
<g id="node7" class="node">
<title>Node7</title>
<g id="a_node7"><a xlink:title=" ">
<polygon fill="white" stroke="black" points="159.5,-191.5 159.5,-221.5 263.5,-221.5 263.5,-191.5 159.5,-191.5"/>
<text text-anchor="start" x="167.5" y="-209.5" font-family="Helvetica,sans-Serif" font-size="10.00">std::basic_string&lt;</text>
<text text-anchor="middle" x="211.5" y="-198.5" font-family="Helvetica,sans-Serif" font-size="10.00"> Char &gt;</text>
</a>
</g>
</g>
<!-- Node7&#45;&gt;Node6 -->
<g id="edge6" class="edge">
<title>Node7&#45;&gt;Node6</title>
<path fill="none" stroke="midnightblue" d="M211.5,-181.35C211.5,-171.51 211.5,-160.78 211.5,-153.54"/>
<polygon fill="midnightblue" stroke="midnightblue" points="208,-181.47 211.5,-191.47 215,-181.47 208,-181.47"/>
</g>
</g>
</svg>
