<?xml version="1.0" encoding="UTF-8" standalone="no"?>
<!DOCTYPE svg PUBLIC "-//W3C//DTD SVG 1.1//EN"
 "http://www.w3.org/Graphics/SVG/1.1/DTD/svg11.dtd">
<!-- Generated by graphviz version 2.43.0 (0)
 -->
<!-- Title: nontls::PlaintextServer Pages: 1 -->
<svg width="979pt" height="162pt"
 viewBox="0.00 0.00 979.00 162.00" xmlns="http://www.w3.org/2000/svg" xmlns:xlink="http://www.w3.org/1999/xlink">
<g id="graph0" class="graph" transform="scale(1 1) rotate(0) translate(4 158)">
<title>nontls::PlaintextServer</title>
<polygon fill="white" stroke="transparent" points="-4,4 -4,-158 975,-158 975,4 -4,4"/>
<!-- Node1 -->
<g id="node1" class="node">
<title>Node1</title>
<g id="a_node1"><a xlink:title=" ">
<polygon fill="#bfbfbf" stroke="black" points="843,-40.5 843,-59.5 971,-59.5 971,-40.5 843,-40.5"/>
<text text-anchor="middle" x="907" y="-47.5" font-family="Helvetica,sans-Serif" font-size="10.00">nontls::PlaintextServer</text>
</a>
</g>
</g>
<!-- Node2 -->
<g id="node2" class="node">
<title>Node2</title>
<g id="a_node2"><a xlink:href="classtls_1_1Context.html" target="_top" xlink:title=" ">
<polygon fill="white" stroke="black" points="645,-63.5 645,-82.5 718,-82.5 718,-63.5 645,-63.5"/>
<text text-anchor="middle" x="681.5" y="-70.5" font-family="Helvetica,sans-Serif" font-size="10.00">tls::Context</text>
</a>
</g>
</g>
<!-- Node2&#45;&gt;Node1 -->
<g id="edge1" class="edge">
<title>Node2&#45;&gt;Node1</title>
<path fill="none" stroke="midnightblue" d="M728.67,-68.25C761.63,-64.86 806.37,-60.25 842.67,-56.52"/>
<polygon fill="midnightblue" stroke="midnightblue" points="728,-64.8 718.41,-69.3 728.71,-71.76 728,-64.8"/>
</g>
<!-- Node3 -->
<g id="node3" class="node">
<title>Node3</title>
<g id="a_node3"><a xlink:href="structcrypto_1_1OpenSSL_1_1Unique__SSL__CTX.html" target="_top" xlink:title=" ">
<polygon fill="white" stroke="black" points="399,-110 399,-140 536,-140 536,-110 399,-110"/>
<text text-anchor="start" x="407" y="-128" font-family="Helvetica,sans-Serif" font-size="10.00">crypto::OpenSSL::Unique</text>
<text text-anchor="middle" x="467.5" y="-117" font-family="Helvetica,sans-Serif" font-size="10.00">_SSL_CTX</text>
</a>
</g>
</g>
<!-- Node3&#45;&gt;Node2 -->
<g id="edge2" class="edge">
<title>Node3&#45;&gt;Node2</title>
<path fill="none" stroke="#9a32cd" stroke-dasharray="5,2" d="M539.62,-107.56C574.97,-98.88 616.14,-88.79 644.82,-81.75"/>
<polygon fill="#9a32cd" stroke="#9a32cd" points="538.7,-104.18 529.82,-109.96 540.37,-110.98 538.7,-104.18"/>
<text text-anchor="middle" x="574.5" y="-103" font-family="Helvetica,sans-Serif" font-size="10.00"> cfg</text>
</g>
<!-- Node4 -->
<g id="node4" class="node">
<title>Node4</title>
<g id="a_node4"><a xlink:href="classcrypto_1_1OpenSSL_1_1Unique__SSL__OBJECT.html" target="_top" xlink:title=" ">
<polygon fill="white" stroke="black" points="199,-112.5 199,-153.5 336,-153.5 336,-112.5 199,-112.5"/>
<text text-anchor="start" x="207" y="-141.5" font-family="Helvetica,sans-Serif" font-size="10.00">crypto::OpenSSL::Unique</text>
<text text-anchor="start" x="207" y="-130.5" font-family="Helvetica,sans-Serif" font-size="10.00">_SSL_OBJECT&lt; SSL_CTX,</text>
<text text-anchor="middle" x="267.5" y="-119.5" font-family="Helvetica,sans-Serif" font-size="10.00"> nullptr, nullptr &gt;</text>
</a>
</g>
</g>
<!-- Node4&#45;&gt;Node3 -->
<g id="edge3" class="edge">
<title>Node4&#45;&gt;Node3</title>
<path fill="none" stroke="midnightblue" d="M346.21,-129.86C363.61,-129.16 381.93,-128.42 398.88,-127.73"/>
<polygon fill="midnightblue" stroke="midnightblue" points="345.94,-126.37 336.09,-130.27 346.22,-133.36 345.94,-126.37"/>
</g>
<!-- Node5 -->
<g id="node5" class="node">
<title>Node5</title>
<g id="a_node5"><a xlink:title=" ">
<polygon fill="white" stroke="black" points="0,-118 0,-148 147,-148 147,-118 0,-118"/>
<text text-anchor="start" x="8" y="-136" font-family="Helvetica,sans-Serif" font-size="10.00">std::unique_ptr&lt; SSL</text>
<text text-anchor="middle" x="73.5" y="-125" font-family="Helvetica,sans-Serif" font-size="10.00">_CTX, void(*)(SSL_CTX *)&gt;</text>
</a>
</g>
</g>
<!-- Node5&#45;&gt;Node4 -->
<g id="edge4" class="edge">
<title>Node5&#45;&gt;Node4</title>
<path fill="none" stroke="#9a32cd" stroke-dasharray="5,2" d="M157.14,-133C171.07,-133 185.39,-133 198.88,-133"/>
<polygon fill="#9a32cd" stroke="#9a32cd" points="157.09,-129.5 147.09,-133 157.09,-136.5 157.09,-129.5"/>
<text text-anchor="middle" x="170" y="-136" font-family="Helvetica,sans-Serif" font-size="10.00"> p</text>
</g>
<!-- Node6 -->
<g id="node6" class="node">
<title>Node6</title>
<g id="a_node6"><a xlink:href="structcrypto_1_1OpenSSL_1_1Unique__SSL.html" target="_top" xlink:title=" ">
<polygon fill="white" stroke="black" points="388,-63.5 388,-82.5 547,-82.5 547,-63.5 388,-63.5"/>
<text text-anchor="middle" x="467.5" y="-70.5" font-family="Helvetica,sans-Serif" font-size="10.00">crypto::OpenSSL::Unique_SSL</text>
</a>
</g>
</g>
<!-- Node6&#45;&gt;Node2 -->
<g id="edge5" class="edge">
<title>Node6&#45;&gt;Node2</title>
<path fill="none" stroke="#9a32cd" stroke-dasharray="5,2" d="M557.48,-73C588.23,-73 620.95,-73 644.91,-73"/>
<polygon fill="#9a32cd" stroke="#9a32cd" points="557.14,-69.5 547.14,-73 557.14,-76.5 557.14,-69.5"/>
<text text-anchor="middle" x="574.5" y="-76" font-family="Helvetica,sans-Serif" font-size="10.00"> ssl</text>
</g>
<!-- Node7 -->
<g id="node7" class="node">
<title>Node7</title>
<g id="a_node7"><a xlink:href="classcrypto_1_1OpenSSL_1_1Unique__SSL__OBJECT.html" target="_top" xlink:title=" ">
<polygon fill="white" stroke="black" points="193,-52.5 193,-93.5 342,-93.5 342,-52.5 193,-52.5"/>
<text text-anchor="start" x="201" y="-81.5" font-family="Helvetica,sans-Serif" font-size="10.00">crypto::OpenSSL::Unique</text>
<text text-anchor="start" x="201" y="-70.5" font-family="Helvetica,sans-Serif" font-size="10.00">_SSL_OBJECT&lt; SSL, nullptr,</text>
<text text-anchor="middle" x="267.5" y="-59.5" font-family="Helvetica,sans-Serif" font-size="10.00"> nullptr &gt;</text>
</a>
</g>
</g>
<!-- Node7&#45;&gt;Node6 -->
<g id="edge6" class="edge">
<title>Node7&#45;&gt;Node6</title>
<path fill="none" stroke="midnightblue" d="M352.42,-73C364.13,-73 376.13,-73 387.73,-73"/>
<polygon fill="midnightblue" stroke="midnightblue" points="352.23,-69.5 342.23,-73 352.23,-76.5 352.23,-69.5"/>
</g>
<!-- Node8 -->
<g id="node8" class="node">
<title>Node8</title>
<g id="a_node8"><a xlink:title=" ">
<polygon fill="white" stroke="black" points="13,-58 13,-88 134,-88 134,-58 13,-58"/>
<text text-anchor="start" x="21" y="-76" font-family="Helvetica,sans-Serif" font-size="10.00">std::unique_ptr&lt; SSL,</text>
<text text-anchor="middle" x="73.5" y="-65" font-family="Helvetica,sans-Serif" font-size="10.00"> void(*)(SSL *)&gt;</text>
</a>
</g>
</g>
<!-- Node8&#45;&gt;Node7 -->
<g id="edge7" class="edge">
<title>Node8&#45;&gt;Node7</title>
<path fill="none" stroke="#9a32cd" stroke-dasharray="5,2" d="M144.41,-73C160.21,-73 177.03,-73 192.97,-73"/>
<polygon fill="#9a32cd" stroke="#9a32cd" points="144.2,-69.5 134.2,-73 144.2,-76.5 144.2,-69.5"/>
<text text-anchor="middle" x="170" y="-76" font-family="Helvetica,sans-Serif" font-size="10.00"> p</text>
</g>
<!-- Node9 -->
<g id="node9" class="node">
<title>Node9</title>
<g id="a_node9"><a xlink:href="structcrypto_1_1OpenSSL_1_1Unique__BIO.html" target="_top" xlink:title=" ">
<polygon fill="white" stroke="black" points="602,-22.5 602,-41.5 761,-41.5 761,-22.5 602,-22.5"/>
<text text-anchor="middle" x="681.5" y="-29.5" font-family="Helvetica,sans-Serif" font-size="10.00">crypto::OpenSSL::Unique_BIO</text>
</a>
</g>
</g>
<!-- Node9&#45;&gt;Node1 -->
<g id="edge8" class="edge">
<title>Node9&#45;&gt;Node1</title>
<path fill="none" stroke="#9a32cd" stroke-dasharray="5,2" d="M771.43,-29.89C789.21,-30.23 807.73,-31.15 825,-33 839.29,-34.53 854.77,-37.46 868.34,-40.46"/>
<polygon fill="#9a32cd" stroke="#9a32cd" points="771.11,-26.38 761.06,-29.74 771.01,-33.38 771.11,-26.38"/>
<text text-anchor="middle" x="802" y="-47" font-family="Helvetica,sans-Serif" font-size="10.00"> read_bio</text>
<text text-anchor="middle" x="802" y="-36" font-family="Helvetica,sans-Serif" font-size="10.00">write_bio</text>
</g>
<!-- Node10 -->
<g id="node10" class="node">
<title>Node10</title>
<g id="a_node10"><a xlink:href="classcrypto_1_1OpenSSL_1_1Unique__SSL__OBJECT.html" target="_top" xlink:title=" ">
<polygon fill="white" stroke="black" points="393,-0.5 393,-41.5 542,-41.5 542,-0.5 393,-0.5"/>
<text text-anchor="start" x="401" y="-29.5" font-family="Helvetica,sans-Serif" font-size="10.00">crypto::OpenSSL::Unique</text>
<text text-anchor="start" x="401" y="-18.5" font-family="Helvetica,sans-Serif" font-size="10.00">_SSL_OBJECT&lt; BIO, nullptr,</text>
<text text-anchor="middle" x="467.5" y="-7.5" font-family="Helvetica,sans-Serif" font-size="10.00"> nullptr &gt;</text>
</a>
</g>
</g>
<!-- Node10&#45;&gt;Node9 -->
<g id="edge9" class="edge">
<title>Node10&#45;&gt;Node9</title>
<path fill="none" stroke="midnightblue" d="M552.11,-25.34C568.43,-26.19 585.5,-27.07 601.66,-27.91"/>
<polygon fill="midnightblue" stroke="midnightblue" points="552.22,-21.84 542.05,-24.82 551.86,-28.83 552.22,-21.84"/>
</g>
<!-- Node11 -->
<g id="node11" class="node">
<title>Node11</title>
<g id="a_node11"><a xlink:title=" ">
<polygon fill="white" stroke="black" points="207,-3 207,-33 328,-33 328,-3 207,-3"/>
<text text-anchor="start" x="215" y="-21" font-family="Helvetica,sans-Serif" font-size="10.00">std::unique_ptr&lt; BIO,</text>
<text text-anchor="middle" x="267.5" y="-10" font-family="Helvetica,sans-Serif" font-size="10.00"> void(*)(BIO *)&gt;</text>
</a>
</g>
</g>
<!-- Node11&#45;&gt;Node10 -->
<g id="edge10" class="edge">
<title>Node11&#45;&gt;Node10</title>
<path fill="none" stroke="#9a32cd" stroke-dasharray="5,2" d="M338.4,-19.06C356.07,-19.33 375.1,-19.62 392.94,-19.89"/>
<polygon fill="#9a32cd" stroke="#9a32cd" points="338.23,-15.56 328.18,-18.9 338.12,-22.56 338.23,-15.56"/>
<text text-anchor="middle" x="365" y="-23" font-family="Helvetica,sans-Serif" font-size="10.00"> p</text>
</g>
</g>
</svg>
