<?xml version="1.0" encoding="UTF-8" standalone="no"?>
<!DOCTYPE svg PUBLIC "-//W3C//DTD SVG 1.1//EN"
 "http://www.w3.org/Graphics/SVG/1.1/DTD/svg11.dtd">
<!-- Generated by graphviz version 2.43.0 (0)
 -->
<!-- Title: ccf::SignatureReceipt Pages: 1 -->
<svg width="827pt" height="212pt"
 viewBox="0.00 0.00 827.00 211.50" xmlns="http://www.w3.org/2000/svg" xmlns:xlink="http://www.w3.org/1999/xlink">
<g id="graph0" class="graph" transform="scale(1 1) rotate(0) translate(4 207.5)">
<title>ccf::SignatureReceipt</title>
<polygon fill="white" stroke="transparent" points="-4,4 -4,-207.5 823,-207.5 823,4 -4,4"/>
<!-- Node1 -->
<g id="node1" class="node">
<title>Node1</title>
<g id="a_node1"><a xlink:title=" ">
<polygon fill="#bfbfbf" stroke="black" points="700,-57 700,-76 819,-76 819,-57 700,-57"/>
<text text-anchor="middle" x="759.5" y="-64" font-family="Helvetica,sans-Serif" font-size="10.00">ccf::SignatureReceipt</text>
</a>
</g>
</g>
<!-- Node2 -->
<g id="node2" class="node">
<title>Node2</title>
<g id="a_node2"><a xlink:href="classccf_1_1Receipt.html" target="_top" xlink:title=" ">
<polygon fill="white" stroke="black" points="509.5,-107 509.5,-126 582.5,-126 582.5,-107 509.5,-107"/>
<text text-anchor="middle" x="546" y="-114" font-family="Helvetica,sans-Serif" font-size="10.00">ccf::Receipt</text>
</a>
</g>
</g>
<!-- Node2&#45;&gt;Node1 -->
<g id="edge1" class="edge">
<title>Node2&#45;&gt;Node1</title>
<path fill="none" stroke="midnightblue" d="M592.98,-105.63C630.3,-96.81 682.39,-84.49 718.11,-76.05"/>
<polygon fill="midnightblue" stroke="midnightblue" points="591.8,-102.31 582.88,-108.02 593.42,-109.12 591.8,-102.31"/>
</g>
<!-- Node3 -->
<g id="node3" class="node">
<title>Node3</title>
<g id="a_node3"><a xlink:title=" ">
<polygon fill="white" stroke="black" points="187,-184 187,-203 312,-203 312,-184 187,-184"/>
<text text-anchor="middle" x="249.5" y="-191" font-family="Helvetica,sans-Serif" font-size="10.00">std::vector&lt; uint8_t &gt;</text>
</a>
</g>
</g>
<!-- Node3&#45;&gt;Node2 -->
<g id="edge2" class="edge">
<title>Node3&#45;&gt;Node2</title>
<path fill="none" stroke="#9a32cd" stroke-dasharray="5,2" d="M322.32,-188.65C366.22,-184.09 422.98,-175.32 471,-158.5 493.59,-150.59 517.22,-135.87 531.53,-126.13"/>
<polygon fill="#9a32cd" stroke="#9a32cd" points="321.91,-185.17 312.31,-189.64 322.6,-192.14 321.91,-185.17"/>
<text text-anchor="middle" x="414" y="-186.5" font-family="Helvetica,sans-Serif" font-size="10.00"> signature</text>
</g>
<!-- Node4 -->
<g id="node4" class="node">
<title>Node4</title>
<g id="a_node4"><a xlink:href="structccf_1_1EntityId.html" target="_top" xlink:title=" ">
<polygon fill="white" stroke="black" points="160,-146 160,-165 339,-165 339,-146 160,-146"/>
<text text-anchor="middle" x="249.5" y="-153" font-family="Helvetica,sans-Serif" font-size="10.00">ccf::EntityId&lt; NodeIdFormatter &gt;</text>
</a>
</g>
</g>
<!-- Node4&#45;&gt;Node2 -->
<g id="edge3" class="edge">
<title>Node4&#45;&gt;Node2</title>
<path fill="none" stroke="#9a32cd" stroke-dasharray="5,2" d="M349.29,-145.88C387.4,-141.75 431.31,-136.5 471,-130.5 483.54,-128.61 497.2,-126.14 509.33,-123.8"/>
<polygon fill="#9a32cd" stroke="#9a32cd" points="348.78,-142.41 339.21,-146.96 349.53,-149.37 348.78,-142.41"/>
<text text-anchor="middle" x="414" y="-146.5" font-family="Helvetica,sans-Serif" font-size="10.00"> node_id</text>
</g>
<!-- Node5 -->
<g id="node5" class="node">
<title>Node5</title>
<g id="a_node5"><a xlink:href="classcrypto_1_1Pem.html" target="_top" xlink:title=" ">
<polygon fill="white" stroke="black" points="0,-81 0,-100 75,-100 75,-81 0,-81"/>
<text text-anchor="middle" x="37.5" y="-88" font-family="Helvetica,sans-Serif" font-size="10.00">crypto::Pem</text>
</a>
</g>
</g>
<!-- Node5&#45;&gt;Node2 -->
<g id="edge4" class="edge">
<title>Node5&#45;&gt;Node2</title>
<path fill="none" stroke="#9a32cd" stroke-dasharray="5,2" d="M85.23,-97.69C87.86,-97.99 90.46,-98.26 93,-98.5 247.63,-112.89 433.08,-115.79 509.46,-116.36"/>
<polygon fill="#9a32cd" stroke="#9a32cd" points="85.44,-94.19 75.08,-96.41 84.57,-101.13 85.44,-94.19"/>
<text text-anchor="middle" x="249.5" y="-115.5" font-family="Helvetica,sans-Serif" font-size="10.00"> cert</text>
</g>
<!-- Node6 -->
<g id="node6" class="node">
<title>Node6</title>
<g id="a_node6"><a xlink:title=" ">
<polygon fill="white" stroke="black" points="194.5,-49.5 194.5,-79.5 304.5,-79.5 304.5,-49.5 194.5,-49.5"/>
<text text-anchor="start" x="202.5" y="-67.5" font-family="Helvetica,sans-Serif" font-size="10.00">std::vector&lt; crypto</text>
<text text-anchor="middle" x="249.5" y="-56.5" font-family="Helvetica,sans-Serif" font-size="10.00">::Pem &gt;</text>
</a>
</g>
</g>
<!-- Node5&#45;&gt;Node6 -->
<g id="edge6" class="edge">
<title>Node5&#45;&gt;Node6</title>
<path fill="none" stroke="#9a32cd" stroke-dasharray="5,2" d="M85.15,-84.72C117.4,-80.73 160.42,-75.41 194.21,-71.22"/>
<polygon fill="#9a32cd" stroke="#9a32cd" points="84.57,-81.27 75.08,-85.97 85.43,-88.22 84.57,-81.27"/>
<text text-anchor="middle" x="117.5" y="-86.5" font-family="Helvetica,sans-Serif" font-size="10.00"> elements</text>
</g>
<!-- Node6&#45;&gt;Node2 -->
<g id="edge5" class="edge">
<title>Node6&#45;&gt;Node2</title>
<path fill="none" stroke="#9a32cd" stroke-dasharray="5,2" d="M315,-68.91C359.29,-72.79 419.19,-79.71 471,-91.5 487.92,-95.35 506.42,-101.6 520.69,-106.89"/>
<polygon fill="#9a32cd" stroke="#9a32cd" points="315.21,-65.42 304.95,-68.06 314.62,-72.39 315.21,-65.42"/>
<text text-anchor="middle" x="414" y="-94.5" font-family="Helvetica,sans-Serif" font-size="10.00"> service_endorsements</text>
</g>
<!-- Node7 -->
<g id="node7" class="node">
<title>Node7</title>
<g id="a_node7"><a xlink:href="classcrypto_1_1Sha256Hash.html" target="_top" xlink:title=" ">
<polygon fill="white" stroke="black" points="489,-38 489,-57 603,-57 603,-38 489,-38"/>
<text text-anchor="middle" x="546" y="-45" font-family="Helvetica,sans-Serif" font-size="10.00">crypto::Sha256Hash</text>
</a>
</g>
</g>
<!-- Node7&#45;&gt;Node1 -->
<g id="edge7" class="edge">
<title>Node7&#45;&gt;Node1</title>
<path fill="none" stroke="#9a32cd" stroke-dasharray="5,2" d="M613.38,-51.84C635.25,-53.43 659.68,-55.36 682,-57.5 687.72,-58.05 693.68,-58.67 699.64,-59.32"/>
<polygon fill="#9a32cd" stroke="#9a32cd" points="613.43,-48.34 603.2,-51.12 612.93,-55.32 613.43,-48.34"/>
<text text-anchor="middle" x="651.5" y="-60.5" font-family="Helvetica,sans-Serif" font-size="10.00"> signed_root</text>
</g>
<!-- Node8 -->
<g id="node8" class="node">
<title>Node8</title>
<g id="a_node8"><a xlink:title=" ">
<polygon fill="white" stroke="black" points="194,-0.5 194,-30.5 305,-30.5 305,-0.5 194,-0.5"/>
<text text-anchor="start" x="202" y="-18.5" font-family="Helvetica,sans-Serif" font-size="10.00">std::array&lt; uint8_t,</text>
<text text-anchor="middle" x="249.5" y="-7.5" font-family="Helvetica,sans-Serif" font-size="10.00"> SIZE &gt;</text>
</a>
</g>
</g>
<!-- Node8&#45;&gt;Node7 -->
<g id="edge8" class="edge">
<title>Node8&#45;&gt;Node7</title>
<path fill="none" stroke="#9a32cd" stroke-dasharray="5,2" d="M315.31,-22.54C367.23,-28.18 439.34,-36.02 488.84,-41.4"/>
<polygon fill="#9a32cd" stroke="#9a32cd" points="315.52,-19.04 305.2,-21.44 314.77,-26 315.52,-19.04"/>
<text text-anchor="middle" x="414" y="-42.5" font-family="Helvetica,sans-Serif" font-size="10.00"> h</text>
</g>
</g>
</svg>
