<?xml version="1.0" encoding="UTF-8" standalone="no"?>
<!DOCTYPE svg PUBLIC "-//W3C//DTD SVG 1.1//EN"
 "http://www.w3.org/Graphics/SVG/1.1/DTD/svg11.dtd">
<!-- Generated by graphviz version 2.43.0 (0)
 -->
<!-- Title: ccf::NetworkIdentitySubsystem Pages: 1 -->
<svg width="831pt" height="127pt"
 viewBox="0.00 0.00 831.00 127.00" xmlns="http://www.w3.org/2000/svg" xmlns:xlink="http://www.w3.org/1999/xlink">
<g id="graph0" class="graph" transform="scale(1 1) rotate(0) translate(4 123)">
<title>ccf::NetworkIdentitySubsystem</title>
<polygon fill="white" stroke="transparent" points="-4,4 -4,-123 827,-123 827,4 -4,4"/>
<!-- Node1 -->
<g id="node1" class="node">
<title>Node1</title>
<g id="a_node1"><a xlink:title=" ">
<polygon fill="#bfbfbf" stroke="black" points="654,-50 654,-69 823,-69 823,-50 654,-50"/>
<text text-anchor="middle" x="738.5" y="-57" font-family="Helvetica,sans-Serif" font-size="10.00">ccf::NetworkIdentitySubsystem</text>
</a>
</g>
</g>
<!-- Node2 -->
<g id="node2" class="node">
<title>Node2</title>
<g id="a_node2"><a xlink:href="classccf_1_1NetworkIdentitySubsystemInterface.html" target="_top" xlink:title=" ">
<polygon fill="white" stroke="black" points="363,-88.5 363,-118.5 532,-118.5 532,-88.5 363,-88.5"/>
<text text-anchor="start" x="371" y="-106.5" font-family="Helvetica,sans-Serif" font-size="10.00">ccf::NetworkIdentitySubsystem</text>
<text text-anchor="middle" x="447.5" y="-95.5" font-family="Helvetica,sans-Serif" font-size="10.00">Interface</text>
</a>
</g>
</g>
<!-- Node2&#45;&gt;Node1 -->
<g id="edge1" class="edge">
<title>Node2&#45;&gt;Node1</title>
<path fill="none" stroke="midnightblue" d="M542.1,-89.25C585.53,-82.64 636,-74.95 674.76,-69.05"/>
<polygon fill="midnightblue" stroke="midnightblue" points="541.45,-85.81 532.09,-90.77 542.5,-92.73 541.45,-85.81"/>
</g>
<!-- Node3 -->
<g id="node3" class="node">
<title>Node3</title>
<g id="a_node3"><a xlink:href="classccf_1_1AbstractNodeSubSystem.html" target="_top" xlink:title=" ">
<polygon fill="white" stroke="black" points="153,-94 153,-113 310,-113 310,-94 153,-94"/>
<text text-anchor="middle" x="231.5" y="-101" font-family="Helvetica,sans-Serif" font-size="10.00">ccf::AbstractNodeSubSystem</text>
</a>
</g>
</g>
<!-- Node3&#45;&gt;Node2 -->
<g id="edge2" class="edge">
<title>Node3&#45;&gt;Node2</title>
<path fill="none" stroke="midnightblue" d="M320.19,-103.5C334.24,-103.5 348.75,-103.5 362.7,-103.5"/>
<polygon fill="midnightblue" stroke="midnightblue" points="320.06,-100 310.06,-103.5 320.06,-107 320.06,-100"/>
</g>
<!-- Node4 -->
<g id="node4" class="node">
<title>Node4</title>
<g id="a_node4"><a xlink:href="classccf_1_1AbstractNodeState.html" target="_top" xlink:title=" ">
<polygon fill="white" stroke="black" points="383.5,-50 383.5,-69 511.5,-69 511.5,-50 383.5,-50"/>
<text text-anchor="middle" x="447.5" y="-57" font-family="Helvetica,sans-Serif" font-size="10.00">ccf::AbstractNodeState</text>
</a>
</g>
</g>
<!-- Node4&#45;&gt;Node1 -->
<g id="edge3" class="edge">
<title>Node4&#45;&gt;Node1</title>
<path fill="none" stroke="#9a32cd" stroke-dasharray="5,2" d="M521.59,-59.5C561.91,-59.5 612.13,-59.5 653.99,-59.5"/>
<polygon fill="#9a32cd" stroke="#9a32cd" points="521.57,-56 511.57,-59.5 521.57,-63 521.57,-56"/>
<text text-anchor="middle" x="593" y="-62.5" font-family="Helvetica,sans-Serif" font-size="10.00"> node_state</text>
</g>
<!-- Node5 -->
<g id="node5" class="node">
<title>Node5</title>
<g id="a_node5"><a xlink:title=" ">
<polygon fill="white" stroke="black" points="390,-0.5 390,-30.5 505,-30.5 505,-0.5 390,-0.5"/>
<text text-anchor="start" x="398" y="-18.5" font-family="Helvetica,sans-Serif" font-size="10.00">std::unique_ptr&lt; ccf</text>
<text text-anchor="middle" x="447.5" y="-7.5" font-family="Helvetica,sans-Serif" font-size="10.00">::NetworkIdentity &gt;</text>
</a>
</g>
</g>
<!-- Node5&#45;&gt;Node1 -->
<g id="edge4" class="edge">
<title>Node5&#45;&gt;Node1</title>
<path fill="none" stroke="#9a32cd" stroke-dasharray="5,2" d="M515.25,-25.66C563.33,-32.98 627.75,-42.79 674.86,-49.96"/>
<polygon fill="#9a32cd" stroke="#9a32cd" points="515.67,-22.19 505.25,-24.14 514.61,-29.11 515.67,-22.19"/>
<text text-anchor="middle" x="593" y="-47.5" font-family="Helvetica,sans-Serif" font-size="10.00"> network_identity</text>
</g>
<!-- Node6 -->
<g id="node6" class="node">
<title>Node6</title>
<g id="a_node6"><a xlink:href="structccf_1_1NetworkIdentity.html" target="_top" xlink:title=" ">
<polygon fill="white" stroke="black" points="174,-6 174,-25 289,-25 289,-6 174,-6"/>
<text text-anchor="middle" x="231.5" y="-13" font-family="Helvetica,sans-Serif" font-size="10.00">ccf::NetworkIdentity</text>
</a>
</g>
</g>
<!-- Node6&#45;&gt;Node5 -->
<g id="edge5" class="edge">
<title>Node6&#45;&gt;Node5</title>
<path fill="none" stroke="#9a32cd" stroke-dasharray="5,2" d="M299.07,-15.5C328.12,-15.5 361.83,-15.5 389.68,-15.5"/>
<polygon fill="#9a32cd" stroke="#9a32cd" points="299.01,-12 289.01,-15.5 299.01,-19 299.01,-12"/>
<text text-anchor="middle" x="336.5" y="-18.5" font-family="Helvetica,sans-Serif" font-size="10.00"> ptr</text>
</g>
<!-- Node7 -->
<g id="node7" class="node">
<title>Node7</title>
<g id="a_node7"><a xlink:href="classcrypto_1_1Pem.html" target="_top" xlink:title=" ">
<polygon fill="white" stroke="black" points="0,-6 0,-25 75,-25 75,-6 0,-6"/>
<text text-anchor="middle" x="37.5" y="-13" font-family="Helvetica,sans-Serif" font-size="10.00">crypto::Pem</text>
</a>
</g>
</g>
<!-- Node7&#45;&gt;Node6 -->
<g id="edge6" class="edge">
<title>Node7&#45;&gt;Node6</title>
<path fill="none" stroke="#9a32cd" stroke-dasharray="5,2" d="M85.28,-15.5C111.93,-15.5 145.52,-15.5 173.67,-15.5"/>
<polygon fill="#9a32cd" stroke="#9a32cd" points="85.07,-12 75.07,-15.5 85.07,-19 85.07,-12"/>
<text text-anchor="middle" x="114" y="-29.5" font-family="Helvetica,sans-Serif" font-size="10.00"> cert</text>
<text text-anchor="middle" x="114" y="-18.5" font-family="Helvetica,sans-Serif" font-size="10.00">priv_key</text>
</g>
</g>
</svg>
