<?xml version="1.0" encoding="UTF-8" standalone="no"?>
<!DOCTYPE svg PUBLIC "-//W3C//DTD SVG 1.1//EN"
 "http://www.w3.org/Graphics/SVG/1.1/DTD/svg11.dtd">
<!-- Generated by graphviz version 2.43.0 (0)
 -->
<!-- Title: kv::StoreState Pages: 1 -->
<!--zoomable 171 -->
<svg id="main" version="1.1" xmlns="http://www.w3.org/2000/svg" xmlns:xlink="http://www.w3.org/1999/xlink" xml:space="preserve" onload="init(evt)">
<style type="text/css"><![CDATA[
.edge:hover path { stroke: red; }
.edge:hover polygon { stroke: red; fill: red; }
]]></style>
<script type="text/javascript"><![CDATA[
var edges = document.getElementsByTagName('g');
if (edges && edges.length) {
  for (var i=0;i<edges.length;i++) {
    if (edges[i].id.substr(0,4)=='edge') {
      edges[i].setAttribute('class','edge');
    }
  }
}
]]></script>
        <defs>
                <circle id="rim" cx="0" cy="0" r="7"/>
                <circle id="rim2" cx="0" cy="0" r="3.5"/>
                <g id="zoomPlus">
                        <use xlink:href="#rim" fill="#404040">
                                <set attributeName="fill" to="#808080" begin="zoomplus.mouseover" end="zoomplus.mouseout"/>
                        </use>
                        <path d="M-4,0h8M0,-4v8" fill="none" stroke="white" stroke-width="1.5" pointer-events="none"/>
                </g>
                <g id="zoomMin">
                        <use xlink:href="#rim" fill="#404040">
                                <set attributeName="fill" to="#808080" begin="zoomminus.mouseover" end="zoomminus.mouseout"/>
                        </use>
                        <path d="M-4,0h8" fill="none" stroke="white" stroke-width="1.5" pointer-events="none"/>
                </g>
                <g id="dirArrow">
                        <path fill="none" stroke="white" stroke-width="1.5" d="M0,-3.0v7 M-2.5,-0.5L0,-3.0L2.5,-0.5"/>
                </g>
               <g id="resetDef">
                       <use xlink:href="#rim2" fill="#404040">
                               <set attributeName="fill" to="#808080" begin="reset.mouseover" end="reset.mouseout"/>
                       </use>
               </g>
        </defs>

<script type="text/javascript">
var viewWidth = 607;
var viewHeight = 171;
var sectionId = 'dynsection-0';
</script>
<script xlink:href="svgpan.js"/>
<svg id="graph" class="graph">
<g id="viewport">
<title>kv::StoreState</title>
<polygon fill="white" stroke="transparent" points="-4,4 -4,-166.5 603,-166.5 603,4 -4,4"/>
<!-- Node1 -->
<g id="node1" class="node">
<title>Node1</title>
<g id="a_node1"><a xlink:title=" ">
<polygon fill="#bfbfbf" stroke="black" points="514,-88 514,-107 599,-107 599,-88 514,-88"/>
<text text-anchor="middle" x="556.5" y="-95" font-family="Helvetica,sans-Serif" font-size="10.00">kv::StoreState</text>
</a>
</g>
</g>
<!-- Node2 -->
<g id="node2" class="node">
<title>Node2</title>
<g id="a_node2"><a xlink:title=" ">
<polygon fill="white" stroke="black" points="305,-143 305,-162 374,-162 374,-143 305,-143"/>
<text text-anchor="middle" x="339.5" y="-150" font-family="Helvetica,sans-Serif" font-size="10.00">std::mutex</text>
</a>
</g>
</g>
<!-- Node2&#45;&gt;Node1 -->
<g id="edge1" class="edge">
<title>Node2&#45;&gt;Node1</title>
<path fill="none" stroke="#9a32cd" stroke-dasharray="5,2" d="M383.95,-141.39C423.34,-131.31 480.8,-116.61 518.17,-107.05"/>
<polygon fill="#9a32cd" stroke="#9a32cd" points="382.91,-138.04 374.09,-143.91 384.65,-144.82 382.91,-138.04"/>
<text text-anchor="middle" x="462.5" y="-152.5" font-family="Helvetica,sans-Serif" font-size="10.00"> commit_lock</text>
<text text-anchor="middle" x="462.5" y="-141.5" font-family="Helvetica,sans-Serif" font-size="10.00">maps_lock</text>
<text text-anchor="middle" x="462.5" y="-130.5" font-family="Helvetica,sans-Serif" font-size="10.00">version_lock</text>
</g>
<!-- Node3 -->
<g id="node3" class="node">
<title>Node3</title>
<g id="a_node3"><a xlink:title=" ">
<polygon fill="white" stroke="black" points="268,-71.5 268,-123.5 411,-123.5 411,-71.5 268,-71.5"/>
<text text-anchor="start" x="276" y="-111.5" font-family="Helvetica,sans-Serif" font-size="10.00">std::map&lt; std::string,</text>
<text text-anchor="start" x="276" y="-100.5" font-family="Helvetica,sans-Serif" font-size="10.00"> std::pair&lt; kv::Version,</text>
<text text-anchor="start" x="276" y="-89.5" font-family="Helvetica,sans-Serif" font-size="10.00"> std::shared_ptr&lt; untyped</text>
<text text-anchor="middle" x="339.5" y="-78.5" font-family="Helvetica,sans-Serif" font-size="10.00">::Map &gt; &gt; &gt;</text>
</a>
</g>
</g>
<!-- Node3&#45;&gt;Node1 -->
<g id="edge2" class="edge">
<title>Node3&#45;&gt;Node1</title>
<path fill="none" stroke="#9a32cd" stroke-dasharray="5,2" d="M421.31,-97.5C452.86,-97.5 487.68,-97.5 513.95,-97.5"/>
<polygon fill="#9a32cd" stroke="#9a32cd" points="421.2,-94 411.2,-97.5 421.2,-101 421.2,-94"/>
<text text-anchor="middle" x="462.5" y="-100.5" font-family="Helvetica,sans-Serif" font-size="10.00"> maps</text>
</g>
<!-- Node4 -->
<g id="node4" class="node">
<title>Node4</title>
<g id="a_node4"><a xlink:title=" ">
<polygon fill="white" stroke="black" points="141,-88 141,-107 206,-107 206,-88 141,-88"/>
<text text-anchor="middle" x="173.5" y="-95" font-family="Helvetica,sans-Serif" font-size="10.00">std::string</text>
</a>
</g>
</g>
<!-- Node4&#45;&gt;Node3 -->
<g id="edge3" class="edge">
<title>Node4&#45;&gt;Node3</title>
<path fill="none" stroke="#9a32cd" stroke-dasharray="5,2" d="M216.51,-97.5C232.17,-97.5 250.4,-97.5 267.92,-97.5"/>
<polygon fill="#9a32cd" stroke="#9a32cd" points="216.12,-94 206.12,-97.5 216.12,-101 216.12,-94"/>
<text text-anchor="middle" x="237" y="-100.5" font-family="Helvetica,sans-Serif" font-size="10.00"> keys</text>
</g>
<!-- Node5 -->
<g id="node5" class="node">
<title>Node5</title>
<g id="a_node5"><a xlink:title=" ">
<polygon fill="white" stroke="black" points="0,-82.5 0,-112.5 104,-112.5 104,-82.5 0,-82.5"/>
<text text-anchor="start" x="8" y="-100.5" font-family="Helvetica,sans-Serif" font-size="10.00">std::basic_string&lt;</text>
<text text-anchor="middle" x="52" y="-89.5" font-family="Helvetica,sans-Serif" font-size="10.00"> Char &gt;</text>
</a>
</g>
</g>
<!-- Node5&#45;&gt;Node4 -->
<g id="edge4" class="edge">
<title>Node5&#45;&gt;Node4</title>
<path fill="none" stroke="midnightblue" d="M114.1,-97.5C123.41,-97.5 132.68,-97.5 141,-97.5"/>
<polygon fill="midnightblue" stroke="midnightblue" points="114.03,-94 104.03,-97.5 114.03,-101 114.03,-94"/>
</g>
<!-- Node6 -->
<g id="node6" class="node">
<title>Node6</title>
<g id="a_node6"><a xlink:title=" ">
<polygon fill="white" stroke="black" points="272.5,-0.5 272.5,-52.5 406.5,-52.5 406.5,-0.5 272.5,-0.5"/>
<text text-anchor="start" x="280.5" y="-40.5" font-family="Helvetica,sans-Serif" font-size="10.00">std::unordered_map</text>
<text text-anchor="start" x="280.5" y="-29.5" font-family="Helvetica,sans-Serif" font-size="10.00">&lt; Version, std::tuple</text>
<text text-anchor="start" x="280.5" y="-18.5" font-family="Helvetica,sans-Serif" font-size="10.00">&lt; std::unique_ptr&lt; kv</text>
<text text-anchor="middle" x="339.5" y="-7.5" font-family="Helvetica,sans-Serif" font-size="10.00">::PendingTx &gt;, bool &gt; &gt;</text>
</a>
</g>
</g>
<!-- Node6&#45;&gt;Node1 -->
<g id="edge5" class="edge">
<title>Node6&#45;&gt;Node1</title>
<path fill="none" stroke="#9a32cd" stroke-dasharray="5,2" d="M416.31,-51.54C454.42,-64.12 498.37,-78.63 526.52,-87.93"/>
<polygon fill="#9a32cd" stroke="#9a32cd" points="417.35,-48.19 406.76,-48.38 415.16,-54.84 417.35,-48.19"/>
<text text-anchor="middle" x="462.5" y="-80.5" font-family="Helvetica,sans-Serif" font-size="10.00"> pending_txs</text>
</g>
</g>
</svg>
        <g id="navigator" transform="translate(0 0)" fill="#404254">
                <rect fill="#f2f5e9" fill-opacity="0.5" stroke="#606060" stroke-width=".5" x="0" y="0" width="60" height="60"/>
                <use id="zoomplus" xlink:href="#zoomPlus" x="17" y="9" onmousedown="handleZoom(evt,'in')"/>
                <use id="zoomminus" xlink:href="#zoomMin" x="42" y="9" onmousedown="handleZoom(evt,'out')"/>
                <use id="reset" xlink:href="#resetDef" x="30" y="36" onmousedown="handleReset()"/>
                <g id="arrowUp" xlink:href="#dirArrow" transform="translate(30 24)" onmousedown="handlePan(0,-1)">
                  <use xlink:href="#rim" fill="#404040">
                        <set attributeName="fill" to="#808080" begin="arrowUp.mouseover" end="arrowUp.mouseout"/>
                  </use>
                  <path fill="none" stroke="white" stroke-width="1.5" d="M0,-3.0v7 M-2.5,-0.5L0,-3.0L2.5,-0.5"/>
                </g>
                <g id="arrowRight" xlink:href="#dirArrow" transform="rotate(90) translate(36 -43)" onmousedown="handlePan(1,0)">
                  <use xlink:href="#rim" fill="#404040">
                        <set attributeName="fill" to="#808080" begin="arrowRight.mouseover" end="arrowRight.mouseout"/>
                  </use>
                  <path fill="none" stroke="white" stroke-width="1.5" d="M0,-3.0v7 M-2.5,-0.5L0,-3.0L2.5,-0.5"/>
                </g>
                <g id="arrowDown" xlink:href="#dirArrow" transform="rotate(180) translate(-30 -48)" onmousedown="handlePan(0,1)">
                  <use xlink:href="#rim" fill="#404040">
                        <set attributeName="fill" to="#808080" begin="arrowDown.mouseover" end="arrowDown.mouseout"/>
                  </use>
                  <path fill="none" stroke="white" stroke-width="1.5" d="M0,-3.0v7 M-2.5,-0.5L0,-3.0L2.5,-0.5"/>
                </g>
                <g id="arrowLeft" xlink:href="#dirArrow" transform="rotate(270) translate(-36 17)" onmousedown="handlePan(-1,0)">
                  <use xlink:href="#rim" fill="#404040">
                        <set attributeName="fill" to="#808080" begin="arrowLeft.mouseover" end="arrowLeft.mouseout"/>
                  </use>
                  <path fill="none" stroke="white" stroke-width="1.5" d="M0,-3.0v7 M-2.5,-0.5L0,-3.0L2.5,-0.5"/>
                </g>
        </g>
        <svg viewBox="0 0 15 15" width="100%" height="30px" preserveAspectRatio="xMaxYMin meet">
         <g id="arrow_out" transform="scale(0.3 0.3)">
          <a xlink:href="classkv_1_1StoreState__coll__graph_org.svg" target="_base">
           <rect id="button" ry="5" rx="5" y="6" x="6" height="38" width="38"
                fill="#f2f5e9" fill-opacity="0.5" stroke="#606060" stroke-width="1.0"/>
           <path id="arrow"
             d="M 11.500037,31.436501 C 11.940474,20.09759 22.043105,11.32322 32.158766,21.979434 L 37.068811,17.246167 C 37.068811,17.246167 37.088388,32 37.088388,32 L 22.160133,31.978069 C 22.160133,31.978069 26.997745,27.140456 26.997745,27.140456 C 18.528582,18.264221 13.291696,25.230495 11.500037,31.436501 z"
             style="fill:#404040;"/>
          </a>
         </g>
        </svg>
</svg>
