<?xml version="1.0" encoding="UTF-8" standalone="no"?>
<!DOCTYPE svg PUBLIC "-//W3C//DTD SVG 1.1//EN"
 "http://www.w3.org/Graphics/SVG/1.1/DTD/svg11.dtd">
<!-- Generated by graphviz version 2.43.0 (0)
 -->
<!-- Title: ccf::indexing::IndexingStrategies Pages: 1 -->
<svg width="314pt" height="229pt"
 viewBox="0.00 0.00 313.50 229.00" xmlns="http://www.w3.org/2000/svg" xmlns:xlink="http://www.w3.org/1999/xlink">
<g id="graph0" class="graph" transform="scale(1 1) rotate(0) translate(4 225)">
<title>ccf::indexing::IndexingStrategies</title>
<polygon fill="white" stroke="transparent" points="-4,4 -4,-225 309.5,-225 309.5,4 -4,4"/>
<!-- Node1 -->
<g id="node1" class="node">
<title>Node1</title>
<g id="a_node1"><a xlink:title=" ">
<polygon fill="#bfbfbf" stroke="black" points="6.5,-0.5 6.5,-19.5 182.5,-19.5 182.5,-0.5 6.5,-0.5"/>
<text text-anchor="middle" x="94.5" y="-7.5" font-family="Helvetica,sans-Serif" font-size="10.00">ccf::indexing::IndexingStrategies</text>
</a>
</g>
</g>
<!-- Node2 -->
<g id="node2" class="node">
<title>Node2</title>
<g id="a_node2"><a xlink:href="classccf_1_1AbstractNodeSubSystem.html" target="_top" xlink:title=" ">
<polygon fill="white" stroke="black" points="0,-67.5 0,-86.5 157,-86.5 157,-67.5 0,-67.5"/>
<text text-anchor="middle" x="78.5" y="-74.5" font-family="Helvetica,sans-Serif" font-size="10.00">ccf::AbstractNodeSubSystem</text>
</a>
</g>
</g>
<!-- Node2&#45;&gt;Node1 -->
<g id="edge1" class="edge">
<title>Node2&#45;&gt;Node1</title>
<path fill="none" stroke="midnightblue" d="M83.07,-57.41C86.13,-44.99 90.02,-29.22 92.38,-19.63"/>
<polygon fill="midnightblue" stroke="midnightblue" points="79.65,-56.69 80.66,-67.23 86.45,-58.36 79.65,-56.69"/>
</g>
<!-- Node3 -->
<g id="node3" class="node">
<title>Node3</title>
<g id="a_node3"><a xlink:title=" ">
<polygon fill="white" stroke="black" points="175.5,-67.5 175.5,-86.5 305.5,-86.5 305.5,-67.5 175.5,-67.5"/>
<text text-anchor="middle" x="240.5" y="-74.5" font-family="Helvetica,sans-Serif" font-size="10.00">std::set&lt; StrategyPtr &gt;</text>
</a>
</g>
</g>
<!-- Node3&#45;&gt;Node1 -->
<g id="edge2" class="edge">
<title>Node3&#45;&gt;Node1</title>
<path fill="none" stroke="#9a32cd" stroke-dasharray="5,2" d="M211.93,-63.28C183.02,-50.41 139.1,-30.85 113.97,-19.67"/>
<polygon fill="#9a32cd" stroke="#9a32cd" points="210.55,-66.5 221.11,-67.37 213.4,-60.1 210.55,-66.5"/>
<text text-anchor="middle" x="201.5" y="-41" font-family="Helvetica,sans-Serif" font-size="10.00"> strategies</text>
</g>
<!-- Node4 -->
<g id="node4" class="node">
<title>Node4</title>
<g id="a_node4"><a xlink:title=" ">
<polygon fill="white" stroke="black" points="181.5,-134.5 181.5,-153.5 299.5,-153.5 299.5,-134.5 181.5,-134.5"/>
<text text-anchor="middle" x="240.5" y="-141.5" font-family="Helvetica,sans-Serif" font-size="10.00">std::shared_ptr&lt; T &gt;</text>
</a>
</g>
</g>
<!-- Node4&#45;&gt;Node3 -->
<g id="edge3" class="edge">
<title>Node4&#45;&gt;Node3</title>
<path fill="none" stroke="#9a32cd" stroke-dasharray="5,2" d="M240.5,-124.04C240.5,-111.67 240.5,-96.12 240.5,-86.63"/>
<polygon fill="#9a32cd" stroke="#9a32cd" points="237,-124.23 240.5,-134.23 244,-124.23 237,-124.23"/>
<text text-anchor="middle" x="253.5" y="-108" font-family="Helvetica,sans-Serif" font-size="10.00"> keys</text>
</g>
<!-- Node5 -->
<g id="node5" class="node">
<title>Node5</title>
<g id="a_node5"><a xlink:title=" ">
<polygon fill="white" stroke="black" points="226,-201.5 226,-220.5 255,-220.5 255,-201.5 226,-201.5"/>
<text text-anchor="middle" x="240.5" y="-208.5" font-family="Helvetica,sans-Serif" font-size="10.00">T</text>
</a>
</g>
</g>
<!-- Node5&#45;&gt;Node4 -->
<g id="edge4" class="edge">
<title>Node5&#45;&gt;Node4</title>
<path fill="none" stroke="#9a32cd" stroke-dasharray="5,2" d="M240.5,-191.04C240.5,-178.67 240.5,-163.12 240.5,-153.63"/>
<polygon fill="#9a32cd" stroke="#9a32cd" points="237,-191.23 240.5,-201.23 244,-191.23 237,-191.23"/>
<text text-anchor="middle" x="249" y="-175" font-family="Helvetica,sans-Serif" font-size="10.00"> ptr</text>
</g>
</g>
</svg>
