<?xml version="1.0" encoding="UTF-8" standalone="no"?>
<!DOCTYPE svg PUBLIC "-//W3C//DTD SVG 1.1//EN"
 "http://www.w3.org/Graphics/SVG/1.1/DTD/svg11.dtd">
<!-- Generated by graphviz version 2.43.0 (0)
 -->
<!-- Title: src/tls/client.h Pages: 1 -->
<svg width="367pt" height="364pt"
 viewBox="0.00 0.00 367.02 364.00" xmlns="http://www.w3.org/2000/svg" xmlns:xlink="http://www.w3.org/1999/xlink">
<g id="graph0" class="graph" transform="scale(1 1) rotate(0) translate(4 360)">
<title>src/tls/client.h</title>
<polygon fill="white" stroke="transparent" points="-4,4 -4,-360 363.02,-360 363.02,4 -4,4"/>
<!-- Node1 -->
<g id="node1" class="node">
<title>Node1</title>
<g id="a_node1"><a xlink:title=" ">
<polygon fill="#bfbfbf" stroke="black" points="241.35,-336.5 241.35,-355.5 326.35,-355.5 326.35,-336.5 241.35,-336.5"/>
<text text-anchor="middle" x="283.85" y="-343.5" font-family="Helvetica,sans-Serif" font-size="10.00">src/tls/client.h</text>
</a>
</g>
</g>
<!-- Node2 -->
<g id="node2" class="node">
<title>Node2</title>
<g id="a_node2"><a xlink:href="rpc__sessions_8h.html" target="_top" xlink:title=" ">
<polygon fill="white" stroke="black" points="124.85,-280.5 124.85,-299.5 270.85,-299.5 270.85,-280.5 124.85,-280.5"/>
<text text-anchor="middle" x="197.85" y="-287.5" font-family="Helvetica,sans-Serif" font-size="10.00">src/enclave/rpc_sessions.h</text>
</a>
</g>
</g>
<!-- Node1&#45;&gt;Node2 -->
<g id="edge1" class="edge">
<title>Node1&#45;&gt;Node2</title>
<path fill="none" stroke="midnightblue" d="M261.4,-330.9C245.63,-321 225.04,-308.07 211.63,-299.65"/>
<polygon fill="midnightblue" stroke="midnightblue" points="259.7,-333.97 270.03,-336.32 263.43,-328.04 259.7,-333.97"/>
</g>
<!-- Node6 -->
<g id="node6" class="node">
<title>Node6</title>
<g id="a_node6"><a xlink:href="node__state_8h.html" target="_top" xlink:title=" ">
<polygon fill="white" stroke="black" points="135.85,-168.5 135.85,-187.5 259.85,-187.5 259.85,-168.5 135.85,-168.5"/>
<text text-anchor="middle" x="197.85" y="-175.5" font-family="Helvetica,sans-Serif" font-size="10.00">src/node/node_state.h</text>
</a>
</g>
</g>
<!-- Node1&#45;&gt;Node6 -->
<g id="edge12" class="edge">
<title>Node1&#45;&gt;Node6</title>
<path fill="none" stroke="midnightblue" d="M303.48,-329.7C331.6,-305.93 377.19,-259.2 350.85,-224 338.58,-207.6 289.36,-195.12 250.01,-187.51"/>
<polygon fill="midnightblue" stroke="midnightblue" points="300.94,-327.26 295.42,-336.3 305.37,-332.68 300.94,-327.26"/>
</g>
<!-- Node3 -->
<g id="node3" class="node">
<title>Node3</title>
<g id="a_node3"><a xlink:href="enclave_2enclave_8h.html" target="_top" xlink:title=" ">
<polygon fill="white" stroke="black" points="36.85,-56.5 36.85,-75.5 158.85,-75.5 158.85,-56.5 36.85,-56.5"/>
<text text-anchor="middle" x="97.85" y="-63.5" font-family="Helvetica,sans-Serif" font-size="10.00">src/enclave/enclave.h</text>
</a>
</g>
</g>
<!-- Node2&#45;&gt;Node3 -->
<g id="edge2" class="edge">
<title>Node2&#45;&gt;Node3</title>
<path fill="none" stroke="midnightblue" d="M114.71,-278.9C71.86,-271.81 25.88,-260.58 12.85,-244 -31.81,-187.18 55.79,-103.08 87.22,-75.85"/>
<polygon fill="midnightblue" stroke="midnightblue" points="114.23,-282.37 124.66,-280.49 115.33,-275.46 114.23,-282.37"/>
</g>
<!-- Node5 -->
<g id="node5" class="node">
<title>Node5</title>
<g id="a_node5"><a xlink:href="ccf__acme__client_8h.html" target="_top" xlink:title=" ">
<polygon fill="white" stroke="black" points="21.35,-224.5 21.35,-243.5 170.35,-243.5 170.35,-224.5 21.35,-224.5"/>
<text text-anchor="middle" x="95.85" y="-231.5" font-family="Helvetica,sans-Serif" font-size="10.00">src/node/ccf_acme_client.h</text>
</a>
</g>
</g>
<!-- Node2&#45;&gt;Node5 -->
<g id="edge4" class="edge">
<title>Node2&#45;&gt;Node5</title>
<path fill="none" stroke="midnightblue" d="M172.52,-275.59C153.66,-265.61 128.47,-252.27 112.2,-243.65"/>
<polygon fill="midnightblue" stroke="midnightblue" points="170.99,-278.74 181.46,-280.32 174.26,-272.55 170.99,-278.74"/>
</g>
<!-- Node2&#45;&gt;Node6 -->
<g id="edge9" class="edge">
<title>Node2&#45;&gt;Node6</title>
<path fill="none" stroke="midnightblue" d="M197.85,-270.35C197.85,-246.25 197.85,-205.31 197.85,-187.59"/>
<polygon fill="midnightblue" stroke="midnightblue" points="194.35,-270.37 197.85,-280.37 201.35,-270.37 194.35,-270.37"/>
</g>
<!-- Node8 -->
<g id="node8" class="node">
<title>Node8</title>
<g id="a_node8"><a xlink:href="resharing_8h.html" target="_top" xlink:title=" ">
<polygon fill="white" stroke="black" points="225.85,-224.5 225.85,-243.5 341.85,-243.5 341.85,-224.5 225.85,-224.5"/>
<text text-anchor="middle" x="283.85" y="-231.5" font-family="Helvetica,sans-Serif" font-size="10.00">src/node/resharing.h</text>
</a>
</g>
</g>
<!-- Node2&#45;&gt;Node8 -->
<g id="edge10" class="edge">
<title>Node2&#45;&gt;Node8</title>
<path fill="none" stroke="midnightblue" d="M220.31,-274.9C236.07,-265 256.66,-252.07 270.07,-243.65"/>
<polygon fill="midnightblue" stroke="midnightblue" points="218.28,-272.04 211.67,-280.32 222,-277.97 218.28,-272.04"/>
</g>
<!-- Node4 -->
<g id="node4" class="node">
<title>Node4</title>
<g id="a_node4"><a xlink:href="enclave_2main_8cpp.html" target="_top" xlink:title=" ">
<polygon fill="white" stroke="black" points="37.85,-0.5 37.85,-19.5 157.85,-19.5 157.85,-0.5 37.85,-0.5"/>
<text text-anchor="middle" x="97.85" y="-7.5" font-family="Helvetica,sans-Serif" font-size="10.00">src/enclave/main.cpp</text>
</a>
</g>
</g>
<!-- Node3&#45;&gt;Node4 -->
<g id="edge3" class="edge">
<title>Node3&#45;&gt;Node4</title>
<path fill="none" stroke="midnightblue" d="M97.85,-45.8C97.85,-36.91 97.85,-26.78 97.85,-19.75"/>
<polygon fill="midnightblue" stroke="midnightblue" points="94.35,-46.08 97.85,-56.08 101.35,-46.08 94.35,-46.08"/>
</g>
<!-- Node5&#45;&gt;Node6 -->
<g id="edge5" class="edge">
<title>Node5&#45;&gt;Node6</title>
<path fill="none" stroke="midnightblue" d="M121.18,-219.59C140.04,-209.61 165.23,-196.27 181.5,-187.65"/>
<polygon fill="midnightblue" stroke="midnightblue" points="119.44,-216.55 112.24,-224.32 122.71,-222.74 119.44,-216.55"/>
</g>
<!-- Node6&#45;&gt;Node3 -->
<g id="edge6" class="edge">
<title>Node6&#45;&gt;Node3</title>
<path fill="none" stroke="midnightblue" d="M162.1,-164.41C146.2,-157.17 128.49,-146.57 116.85,-132 103.35,-115.1 99.44,-88.91 98.31,-75.52"/>
<polygon fill="midnightblue" stroke="midnightblue" points="161.12,-167.8 171.69,-168.49 163.85,-161.36 161.12,-167.8"/>
</g>
<!-- Node7 -->
<g id="node7" class="node">
<title>Node7</title>
<g id="a_node7"><a xlink:href="gov__effects_8h.html" target="_top" xlink:title=" ">
<polygon fill="white" stroke="black" points="125.85,-112.5 125.85,-131.5 269.85,-131.5 269.85,-112.5 125.85,-112.5"/>
<text text-anchor="middle" x="197.85" y="-119.5" font-family="Helvetica,sans-Serif" font-size="10.00">src/node/rpc/gov_effects.h</text>
</a>
</g>
</g>
<!-- Node6&#45;&gt;Node7 -->
<g id="edge7" class="edge">
<title>Node6&#45;&gt;Node7</title>
<path fill="none" stroke="midnightblue" d="M197.85,-157.8C197.85,-148.91 197.85,-138.78 197.85,-131.75"/>
<polygon fill="midnightblue" stroke="midnightblue" points="194.35,-158.08 197.85,-168.08 201.35,-158.08 194.35,-158.08"/>
</g>
<!-- Node7&#45;&gt;Node3 -->
<g id="edge8" class="edge">
<title>Node7&#45;&gt;Node3</title>
<path fill="none" stroke="midnightblue" d="M172.76,-107.45C154.3,-97.48 129.75,-84.23 113.88,-75.65"/>
<polygon fill="midnightblue" stroke="midnightblue" points="171.32,-110.65 181.78,-112.32 174.65,-104.49 171.32,-110.65"/>
</g>
<!-- Node8&#45;&gt;Node6 -->
<g id="edge11" class="edge">
<title>Node8&#45;&gt;Node6</title>
<path fill="none" stroke="midnightblue" d="M261.4,-218.9C245.63,-209 225.04,-196.07 211.63,-187.65"/>
<polygon fill="midnightblue" stroke="midnightblue" points="259.7,-221.97 270.03,-224.32 263.43,-216.04 259.7,-221.97"/>
</g>
</g>
</svg>
