<?xml version="1.0" encoding="UTF-8" standalone="no"?>
<!DOCTYPE svg PUBLIC "-//W3C//DTD SVG 1.1//EN"
 "http://www.w3.org/Graphics/SVG/1.1/DTD/svg11.dtd">
<!-- Generated by graphviz version 2.43.0 (0)
 -->
<!-- Title: src/http Pages: 1 -->
<svg width="296pt" height="167pt"
 viewBox="0.00 0.00 296.00 167.00" xmlns="http://www.w3.org/2000/svg" xmlns:xlink="http://www.w3.org/1999/xlink">
<g id="graph0" class="graph" transform="scale(1 1) rotate(0) translate(4 163)">
<title>src/http</title>
<polygon fill="white" stroke="transparent" points="-4,4 -4,-163 292,-163 292,4 -4,4"/>
<g id="clust1" class="cluster">
<title>clusterdir_68267d1309a1af8e8297ef4c3efbcdba</title>
<g id="a_clust1"><a xlink:href="dir_68267d1309a1af8e8297ef4c3efbcdba.html" target="_top" xlink:title="src">
<polygon fill="#edf0f7" stroke="#404040" stroke-dasharray="5,2" points="8,-8 8,-151 224,-151 224,-8 8,-8"/>
<text text-anchor="middle" x="116" y="-139" font-family="Helvetica,sans-Serif" font-size="10.00">src</text>
</a>
</g>
</g>
<!-- dir_18ae7af74d885898b85cbb543ae51b63 -->
<g id="node1" class="node">
<title>dir_18ae7af74d885898b85cbb543ae51b63</title>
<g id="a_node1"><a xlink:href="dir_18ae7af74d885898b85cbb543ae51b63.html" target="_top" xlink:title="node">
<polygon fill="#a2b4d6" stroke="red" points="70,-52 16,-52 16,-16 70,-16 70,-52"/>
<text text-anchor="middle" x="43" y="-31.5" font-family="Helvetica,sans-Serif" font-size="10.00">node</text>
</a>
</g>
</g>
<!-- dir_5427940bb9029915fc0c11c1284afde6 -->
<g id="node2" class="node">
<title>dir_5427940bb9029915fc0c11c1284afde6</title>
<g id="a_node2"><a xlink:href="dir_5427940bb9029915fc0c11c1284afde6.html" target="_top" xlink:title="enclave">
<polygon fill="#a2b4d6" stroke="#404040" points="143.5,-52 88.5,-52 88.5,-16 143.5,-16 143.5,-52"/>
<text text-anchor="middle" x="116" y="-31.5" font-family="Helvetica,sans-Serif" font-size="10.00">enclave</text>
</a>
</g>
</g>
<!-- dir_654fcaaa959505712bb2ecafa3e1042f -->
<g id="node3" class="node">
<title>dir_654fcaaa959505712bb2ecafa3e1042f</title>
<g id="a_node3"><a xlink:href="dir_654fcaaa959505712bb2ecafa3e1042f.html" target="_top" xlink:title="tls">
<polygon fill="#a2b4d6" stroke="#404040" points="216,-52 162,-52 162,-16 216,-16 216,-52"/>
<text text-anchor="middle" x="189" y="-31.5" font-family="Helvetica,sans-Serif" font-size="10.00">tls</text>
</a>
</g>
</g>
<!-- dir_2d29d7dff7c7baf1180920f6796c23ae -->
<g id="node4" class="node">
<title>dir_2d29d7dff7c7baf1180920f6796c23ae</title>
<g id="a_node4"><a xlink:href="dir_2d29d7dff7c7baf1180920f6796c23ae.html" target="_top" xlink:title="http">
<polygon fill="#edf0f7" stroke="#404040" stroke-width="2" points="179,-124 125,-124 125,-88 179,-88 179,-124"/>
<text text-anchor="middle" x="152" y="-103.5" font-family="Helvetica,sans-Serif" font-size="10.00">http</text>
</a>
</g>
</g>
<!-- dir_2d29d7dff7c7baf1180920f6796c23ae&#45;&gt;dir_18ae7af74d885898b85cbb543ae51b63 -->
<g id="edge1" class="edge">
<title>dir_2d29d7dff7c7baf1180920f6796c23ae&#45;&gt;dir_18ae7af74d885898b85cbb543ae51b63</title>
<path fill="none" stroke="black" d="M125.34,-87.88C111.22,-78.81 93.69,-67.55 78.44,-57.76"/>
<polygon fill="black" stroke="black" points="80.07,-54.65 69.77,-52.19 76.29,-60.54 80.07,-54.65"/>
<g id="a_edge1&#45;headlabel"><a xlink:href="dir_000019_000032.html" target="_top" xlink:title="2">
<text text-anchor="middle" x="84.63" y="-51.7" font-family="Helvetica,sans-Serif" font-size="10.00">2</text>
</a>
</g>
</g>
<!-- dir_2d29d7dff7c7baf1180920f6796c23ae&#45;&gt;dir_5427940bb9029915fc0c11c1284afde6 -->
<g id="edge2" class="edge">
<title>dir_2d29d7dff7c7baf1180920f6796c23ae&#45;&gt;dir_5427940bb9029915fc0c11c1284afde6</title>
<path fill="none" stroke="black" d="M143.1,-87.7C139,-79.73 134.05,-70.1 129.51,-61.26"/>
<polygon fill="black" stroke="black" points="132.48,-59.4 124.8,-52.1 126.26,-62.6 132.48,-59.4"/>
<g id="a_edge2&#45;headlabel"><a xlink:href="dir_000019_000015.html" target="_top" xlink:title="7">
<text text-anchor="middle" x="136.65" y="-58.79" font-family="Helvetica,sans-Serif" font-size="10.00">7</text>
</a>
</g>
</g>
<!-- dir_2d29d7dff7c7baf1180920f6796c23ae&#45;&gt;dir_654fcaaa959505712bb2ecafa3e1042f -->
<g id="edge3" class="edge">
<title>dir_2d29d7dff7c7baf1180920f6796c23ae&#45;&gt;dir_654fcaaa959505712bb2ecafa3e1042f</title>
<path fill="none" stroke="black" d="M161.15,-87.7C165.4,-79.64 170.56,-69.89 175.27,-60.98"/>
<polygon fill="black" stroke="black" points="178.38,-62.58 179.96,-52.1 172.19,-59.31 178.38,-62.58"/>
<g id="a_edge3&#45;headlabel"><a xlink:href="dir_000019_000046.html" target="_top" xlink:title="1">
<text text-anchor="middle" x="179.21" y="-64.59" font-family="Helvetica,sans-Serif" font-size="10.00">1</text>
</a>
</g>
</g>
<!-- dir_d44c64559bbebec7f509842c48db8b23 -->
<g id="node5" class="node">
<title>dir_d44c64559bbebec7f509842c48db8b23</title>
<g id="a_node5"><a xlink:href="dir_d44c64559bbebec7f509842c48db8b23.html" target="_top" xlink:title="include">
<polygon fill="none" stroke="red" points="288,-52 234,-52 234,-16 288,-16 288,-52"/>
<text text-anchor="middle" x="261" y="-31.5" font-family="Helvetica,sans-Serif" font-size="10.00">include</text>
</a>
</g>
</g>
<!-- dir_2d29d7dff7c7baf1180920f6796c23ae&#45;&gt;dir_d44c64559bbebec7f509842c48db8b23 -->
<g id="edge4" class="edge">
<title>dir_2d29d7dff7c7baf1180920f6796c23ae&#45;&gt;dir_d44c64559bbebec7f509842c48db8b23</title>
<path fill="none" stroke="black" d="M178.66,-87.88C192.78,-78.81 210.31,-67.55 225.56,-57.76"/>
<polygon fill="black" stroke="black" points="227.71,-60.54 234.23,-52.19 223.93,-54.65 227.71,-60.54"/>
<g id="a_edge4&#45;headlabel"><a xlink:href="dir_000019_000021.html" target="_top" xlink:title="25">
<text text-anchor="middle" x="226.22" y="-62.37" font-family="Helvetica,sans-Serif" font-size="10.00">25</text>
</a>
</g>
</g>
</g>
</svg>
