<?xml version="1.0" encoding="UTF-8" standalone="no"?>
<!DOCTYPE svg PUBLIC "-//W3C//DTD SVG 1.1//EN"
 "http://www.w3.org/Graphics/SVG/1.1/DTD/svg11.dtd">
<!-- Generated by graphviz version 2.43.0 (0)
 -->
<!-- Title: samples/apps Pages: 1 -->
<svg width="266pt" height="159pt"
 viewBox="0.00 0.00 266.00 159.00" xmlns="http://www.w3.org/2000/svg" xmlns:xlink="http://www.w3.org/1999/xlink">
<g id="graph0" class="graph" transform="scale(1 1) rotate(0) translate(4 155)">
<title>samples/apps</title>
<polygon fill="white" stroke="transparent" points="-4,4 -4,-155 262,-155 262,4 -4,4"/>
<g id="clust1" class="cluster">
<title>clusterdir_6f9635d4fbfa321d4c00f29df5cd540c</title>
<g id="a_clust1"><a xlink:href="dir_6f9635d4fbfa321d4c00f29df5cd540c.html" target="_top" xlink:title="samples">
<polygon fill="#edf0f7" stroke="#404040" stroke-dasharray="5,2" points="8,-56 8,-143 250,-143 250,-56 8,-56"/>
<text text-anchor="middle" x="129" y="-131" font-family="Helvetica,sans-Serif" font-size="10.00">samples</text>
</a>
</g>
</g>
<g id="clust2" class="cluster">
<title>clusterdir_d1de75ca768829a455e0479b9defe0bf</title>
<g id="a_clust2"><a xlink:href="dir_d1de75ca768829a455e0479b9defe0bf.html" target="_top">
<polygon fill="#edf0f7" stroke="#404040" stroke-width="2" points="16,-64 16,-116 242,-116 242,-64 16,-64"/>
</a>
</g>
</g>
<!-- dir_d1de75ca768829a455e0479b9defe0bf -->
<g id="node1" class="node">
<title>dir_d1de75ca768829a455e0479b9defe0bf</title>
<text text-anchor="middle" x="207" y="-87.5" font-family="Helvetica,sans-Serif" font-size="10.00">apps</text>
</g>
<!-- dir_c77e81b65094ae1cb4ca380a9fe244d9 -->
<g id="node2" class="node">
<title>dir_c77e81b65094ae1cb4ca380a9fe244d9</title>
<g id="a_node2"><a xlink:href="dir_c77e81b65094ae1cb4ca380a9fe244d9.html" target="_top" xlink:title="logging">
<polygon fill="#a2b4d6" stroke="#404040" points="162,-108 108,-108 108,-72 162,-72 162,-108"/>
<text text-anchor="middle" x="135" y="-87.5" font-family="Helvetica,sans-Serif" font-size="10.00">logging</text>
</a>
</g>
</g>
<!-- dir_d44c64559bbebec7f509842c48db8b23 -->
<g id="node4" class="node">
<title>dir_d44c64559bbebec7f509842c48db8b23</title>
<g id="a_node4"><a xlink:href="dir_d44c64559bbebec7f509842c48db8b23.html" target="_top" xlink:title="include">
<polygon fill="none" stroke="red" points="123,-36 69,-36 69,0 123,0 123,-36"/>
<text text-anchor="middle" x="96" y="-15.5" font-family="Helvetica,sans-Serif" font-size="10.00">include</text>
</a>
</g>
</g>
<!-- dir_c77e81b65094ae1cb4ca380a9fe244d9&#45;&gt;dir_d44c64559bbebec7f509842c48db8b23 -->
<g id="edge1" class="edge">
<title>dir_c77e81b65094ae1cb4ca380a9fe244d9&#45;&gt;dir_d44c64559bbebec7f509842c48db8b23</title>
<path fill="none" stroke="black" d="M125.36,-71.7C120.87,-63.64 115.44,-53.89 110.48,-44.98"/>
<polygon fill="black" stroke="black" points="113.45,-43.14 105.53,-36.1 107.34,-46.54 113.45,-43.14"/>
<g id="a_edge1&#45;headlabel"><a xlink:href="dir_000029_000021.html" target="_top" xlink:title="10">
<text text-anchor="middle" x="117.68" y="-42.39" font-family="Helvetica,sans-Serif" font-size="10.00">10</text>
</a>
</g>
</g>
<!-- dir_e70a801a409ac3719a287aa713eb9647 -->
<g id="node3" class="node">
<title>dir_e70a801a409ac3719a287aa713eb9647</title>
<g id="a_node3"><a xlink:href="dir_e70a801a409ac3719a287aa713eb9647.html" target="_top" xlink:title="nobuiltins">
<polygon fill="#a2b4d6" stroke="#404040" points="89.5,-108 24.5,-108 24.5,-72 89.5,-72 89.5,-108"/>
<text text-anchor="middle" x="57" y="-87.5" font-family="Helvetica,sans-Serif" font-size="10.00">nobuiltins</text>
</a>
</g>
</g>
<!-- dir_e70a801a409ac3719a287aa713eb9647&#45;&gt;dir_d44c64559bbebec7f509842c48db8b23 -->
<g id="edge2" class="edge">
<title>dir_e70a801a409ac3719a287aa713eb9647&#45;&gt;dir_d44c64559bbebec7f509842c48db8b23</title>
<path fill="none" stroke="black" d="M66.64,-71.7C71.13,-63.64 76.56,-53.89 81.52,-44.98"/>
<polygon fill="black" stroke="black" points="84.66,-46.54 86.47,-36.1 78.55,-43.14 84.66,-46.54"/>
<g id="a_edge2&#45;headlabel"><a xlink:href="dir_000030_000021.html" target="_top" xlink:title="6">
<text text-anchor="middle" x="85.39" y="-48.57" font-family="Helvetica,sans-Serif" font-size="10.00">6</text>
</a>
</g>
</g>
</g>
</svg>
