<?xml version="1.0" encoding="UTF-8" standalone="no"?>
<!DOCTYPE svg PUBLIC "-//W3C//DTD SVG 1.1//EN"
 "http://www.w3.org/Graphics/SVG/1.1/DTD/svg11.dtd">
<!-- Generated by graphviz version 2.43.0 (0)
 -->
<!-- Title: src/crypto/ecdsa.h Pages: 1 -->
<!--zoomable 375 -->
<svg id="main" version="1.1" xmlns="http://www.w3.org/2000/svg" xmlns:xlink="http://www.w3.org/1999/xlink" xml:space="preserve" onload="init(evt)">
<style type="text/css"><![CDATA[
.edge:hover path { stroke: red; }
.edge:hover polygon { stroke: red; fill: red; }
]]></style>
<script type="text/javascript"><![CDATA[
var edges = document.getElementsByTagName('g');
if (edges && edges.length) {
  for (var i=0;i<edges.length;i++) {
    if (edges[i].id.substr(0,4)=='edge') {
      edges[i].setAttribute('class','edge');
    }
  }
}
]]></script>
        <defs>
                <circle id="rim" cx="0" cy="0" r="7"/>
                <circle id="rim2" cx="0" cy="0" r="3.5"/>
                <g id="zoomPlus">
                        <use xlink:href="#rim" fill="#404040">
                                <set attributeName="fill" to="#808080" begin="zoomplus.mouseover" end="zoomplus.mouseout"/>
                        </use>
                        <path d="M-4,0h8M0,-4v8" fill="none" stroke="white" stroke-width="1.5" pointer-events="none"/>
                </g>
                <g id="zoomMin">
                        <use xlink:href="#rim" fill="#404040">
                                <set attributeName="fill" to="#808080" begin="zoomminus.mouseover" end="zoomminus.mouseout"/>
                        </use>
                        <path d="M-4,0h8" fill="none" stroke="white" stroke-width="1.5" pointer-events="none"/>
                </g>
                <g id="dirArrow">
                        <path fill="none" stroke="white" stroke-width="1.5" d="M0,-3.0v7 M-2.5,-0.5L0,-3.0L2.5,-0.5"/>
                </g>
               <g id="resetDef">
                       <use xlink:href="#rim2" fill="#404040">
                               <set attributeName="fill" to="#808080" begin="reset.mouseover" end="reset.mouseout"/>
                       </use>
               </g>
        </defs>

<script type="text/javascript">
var viewWidth = 1245;
var viewHeight = 375;
var sectionId = 'dynsection-0';
</script>
<script xlink:href="svgpan.js"/>
<svg id="graph" class="graph">
<g id="viewport">
<title>src/crypto/ecdsa.h</title>
<polygon fill="white" stroke="transparent" points="-4,4 -4,-371 1241,-371 1241,4 -4,4"/>
<!-- Node1 -->
<g id="node1" class="node">
<title>Node1</title>
<g id="a_node1"><a xlink:title=" ">
<polygon fill="#bfbfbf" stroke="black" points="508.5,-347.5 508.5,-366.5 613.5,-366.5 613.5,-347.5 508.5,-347.5"/>
<text text-anchor="middle" x="561" y="-354.5" font-family="Helvetica,sans-Serif" font-size="10.00">src/crypto/ecdsa.h</text>
</a>
</g>
</g>
<!-- Node2 -->
<g id="node2" class="node">
<title>Node2</title>
<g id="a_node2"><a xlink:href="openssl__wrappers_8h.html" target="_top" xlink:title=" ">
<polygon fill="white" stroke="black" points="437,-280.5 437,-310.5 565,-310.5 565,-280.5 437,-280.5"/>
<text text-anchor="start" x="445" y="-298.5" font-family="Helvetica,sans-Serif" font-size="10.00">crypto/openssl/openssl</text>
<text text-anchor="middle" x="501" y="-287.5" font-family="Helvetica,sans-Serif" font-size="10.00">_wrappers.h</text>
</a>
</g>
</g>
<!-- Node1&#45;&gt;Node2 -->
<g id="edge1" class="edge">
<title>Node1&#45;&gt;Node2</title>
<path fill="none" stroke="midnightblue" d="M552.4,-347.48C544.58,-339.72 532.71,-327.94 522.34,-317.66"/>
<polygon fill="midnightblue" stroke="midnightblue" points="524.71,-315.08 515.14,-310.52 519.78,-320.05 524.71,-315.08"/>
</g>
<!-- Node7 -->
<g id="node7" class="node">
<title>Node7</title>
<g id="a_node7"><a xlink:title=" ">
<polygon fill="white" stroke="#bfbfbf" points="660.5,-0.5 660.5,-19.5 707.5,-19.5 707.5,-0.5 660.5,-0.5"/>
<text text-anchor="middle" x="684" y="-7.5" font-family="Helvetica,sans-Serif" font-size="10.00">vector</text>
</a>
</g>
</g>
<!-- Node1&#45;&gt;Node7 -->
<g id="edge48" class="edge">
<title>Node1&#45;&gt;Node7</title>
<path fill="none" stroke="midnightblue" d="M508.47,-355.75C369.01,-353.68 0,-338.43 0,-235 0,-235 0,-235 0,-121 0,-56.4 67.78,-73.38 130,-56 228.74,-28.42 545.22,-15.62 649.97,-12.07"/>
<polygon fill="midnightblue" stroke="midnightblue" points="650.4,-15.56 660.28,-11.73 650.17,-8.56 650.4,-15.56"/>
</g>
<!-- Node36 -->
<g id="node36" class="node">
<title>Node36</title>
<g id="a_node36"><a xlink:title=" ">
<polygon fill="white" stroke="#bfbfbf" points="583,-286 583,-305 661,-305 661,-286 583,-286"/>
<text text-anchor="middle" x="622" y="-293" font-family="Helvetica,sans-Serif" font-size="10.00">openssl/bn.h</text>
</a>
</g>
</g>
<!-- Node1&#45;&gt;Node36 -->
<g id="edge46" class="edge">
<title>Node1&#45;&gt;Node36</title>
<path fill="none" stroke="midnightblue" d="M569.74,-347.48C579.16,-338.28 594.36,-323.46 605.95,-312.16"/>
<polygon fill="midnightblue" stroke="midnightblue" points="608.56,-314.5 613.28,-305.01 603.67,-309.49 608.56,-314.5"/>
</g>
<!-- Node37 -->
<g id="node37" class="node">
<title>Node37</title>
<g id="a_node37"><a xlink:title=" ">
<polygon fill="white" stroke="#bfbfbf" points="679.5,-286 679.5,-305 774.5,-305 774.5,-286 679.5,-286"/>
<text text-anchor="middle" x="727" y="-293" font-family="Helvetica,sans-Serif" font-size="10.00">openssl/ecdsa.h</text>
</a>
</g>
</g>
<!-- Node1&#45;&gt;Node37 -->
<g id="edge47" class="edge">
<title>Node1&#45;&gt;Node37</title>
<path fill="none" stroke="midnightblue" d="M584.78,-347.48C613.38,-337.22 661.55,-319.96 693.8,-308.4"/>
<polygon fill="midnightblue" stroke="midnightblue" points="695.03,-311.68 703.26,-305.01 692.67,-305.09 695.03,-311.68"/>
</g>
<!-- Node3 -->
<g id="node3" class="node">
<title>Node3</title>
<g id="a_node3"><a xlink:href="pem_8h.html" target="_top" xlink:title=" ">
<polygon fill="white" stroke="black" points="1092,-224.5 1092,-243.5 1190,-243.5 1190,-224.5 1092,-224.5"/>
<text text-anchor="middle" x="1141" y="-231.5" font-family="Helvetica,sans-Serif" font-size="10.00">ccf/crypto/pem.h</text>
</a>
</g>
</g>
<!-- Node2&#45;&gt;Node3 -->
<g id="edge2" class="edge">
<title>Node2&#45;&gt;Node3</title>
<path fill="none" stroke="midnightblue" d="M565.02,-281.31C568.05,-280.84 571.05,-280.4 574,-280 795.48,-250.29 855.88,-268.85 1081.8,-244.03"/>
<polygon fill="midnightblue" stroke="midnightblue" points="1082.44,-247.49 1091.99,-242.9 1081.66,-240.53 1082.44,-247.49"/>
</g>
<!-- Node15 -->
<g id="node15" class="node">
<title>Node15</title>
<g id="a_node15"><a xlink:title=" ">
<polygon fill="white" stroke="#bfbfbf" points="139.5,-56.5 139.5,-75.5 218.5,-75.5 218.5,-56.5 139.5,-56.5"/>
<text text-anchor="middle" x="179" y="-63.5" font-family="Helvetica,sans-Serif" font-size="10.00">fmt/format.h</text>
</a>
</g>
</g>
<!-- Node2&#45;&gt;Node15 -->
<g id="edge35" class="edge">
<title>Node2&#45;&gt;Node15</title>
<path fill="none" stroke="midnightblue" d="M436.75,-295.13C334.64,-294.75 141.77,-288.03 92,-244 48.04,-205.11 52.75,-158.93 88,-112 99.7,-96.42 118.26,-85.91 135.58,-78.99"/>
<polygon fill="midnightblue" stroke="midnightblue" points="136.85,-82.25 145.02,-75.5 134.42,-75.68 136.85,-82.25"/>
</g>
<!-- Node20 -->
<g id="node20" class="node">
<title>Node20</title>
<g id="a_node20"><a xlink:title=" ">
<polygon fill="white" stroke="#bfbfbf" points="1179,-168.5 1179,-187.5 1237,-187.5 1237,-168.5 1179,-168.5"/>
<text text-anchor="middle" x="1208" y="-175.5" font-family="Helvetica,sans-Serif" font-size="10.00">memory</text>
</a>
</g>
</g>
<!-- Node2&#45;&gt;Node20 -->
<g id="edge36" class="edge">
<title>Node2&#45;&gt;Node20</title>
<path fill="none" stroke="midnightblue" d="M565.01,-281.26C568.04,-280.8 571.05,-280.38 574,-280 643,-271.2 1147.89,-291.18 1199,-244 1211.41,-232.55 1212.47,-212.57 1211.16,-197.77"/>
<polygon fill="midnightblue" stroke="midnightblue" points="1214.61,-197.16 1209.84,-187.7 1207.66,-198.07 1214.61,-197.16"/>
</g>
<!-- Node22 -->
<g id="node22" class="node">
<title>Node22</title>
<g id="a_node22"><a xlink:title=" ">
<polygon fill="white" stroke="#bfbfbf" points="379,-112.5 379,-131.5 429,-131.5 429,-112.5 379,-112.5"/>
<text text-anchor="middle" x="404" y="-119.5" font-family="Helvetica,sans-Serif" font-size="10.00">chrono</text>
</a>
</g>
</g>
<!-- Node2&#45;&gt;Node22 -->
<g id="edge26" class="edge">
<title>Node2&#45;&gt;Node22</title>
<path fill="none" stroke="midnightblue" d="M436.98,-295.37C342.23,-295.13 171.68,-288.35 133,-244 127.16,-237.3 127.93,-231.3 133,-224 140.08,-213.81 297.85,-159.12 369.34,-134.74"/>
<polygon fill="midnightblue" stroke="midnightblue" points="370.49,-138.05 378.83,-131.51 368.24,-131.42 370.49,-138.05"/>
</g>
<!-- Node23 -->
<g id="node23" class="node">
<title>Node23</title>
<g id="a_node23"><a xlink:href="x509__time__fmt_8h.html" target="_top" xlink:title=" ">
<polygon fill="white" stroke="black" points="87,-168.5 87,-187.5 201,-187.5 201,-168.5 87,-168.5"/>
<text text-anchor="middle" x="144" y="-175.5" font-family="Helvetica,sans-Serif" font-size="10.00">ds/x509_time_fmt.h</text>
</a>
</g>
</g>
<!-- Node2&#45;&gt;Node23 -->
<g id="edge27" class="edge">
<title>Node2&#45;&gt;Node23</title>
<path fill="none" stroke="midnightblue" d="M436.63,-290.99C328.95,-284.46 121.87,-268.8 100,-244 85.98,-228.1 105.24,-207.53 122.52,-193.83"/>
<polygon fill="midnightblue" stroke="midnightblue" points="124.78,-196.5 130.68,-187.7 120.58,-190.9 124.78,-196.5"/>
</g>
<!-- Node27 -->
<g id="node27" class="node">
<title>Node27</title>
<g id="a_node27"><a xlink:title=" ">
<polygon fill="white" stroke="#bfbfbf" points="142.5,-224.5 142.5,-243.5 231.5,-243.5 231.5,-224.5 142.5,-224.5"/>
<text text-anchor="middle" x="187" y="-231.5" font-family="Helvetica,sans-Serif" font-size="10.00">openssl/asn1.h</text>
</a>
</g>
</g>
<!-- Node2&#45;&gt;Node27 -->
<g id="edge37" class="edge">
<title>Node2&#45;&gt;Node27</title>
<path fill="none" stroke="midnightblue" d="M436.7,-282.32C379.39,-271.46 296.4,-255.73 242.08,-245.44"/>
<polygon fill="midnightblue" stroke="midnightblue" points="242.43,-241.94 231.95,-243.52 241.13,-248.82 242.43,-241.94"/>
</g>
<!-- Node28 -->
<g id="node28" class="node">
<title>Node28</title>
<g id="a_node28"><a xlink:title=" ">
<polygon fill="white" stroke="#bfbfbf" points="249.5,-224.5 249.5,-243.5 326.5,-243.5 326.5,-224.5 249.5,-224.5"/>
<text text-anchor="middle" x="288" y="-231.5" font-family="Helvetica,sans-Serif" font-size="10.00">openssl/ec.h</text>
</a>
</g>
</g>
<!-- Node2&#45;&gt;Node28 -->
<g id="edge38" class="edge">
<title>Node2&#45;&gt;Node28</title>
<path fill="none" stroke="midnightblue" d="M450.79,-280.47C413.4,-270.03 363.02,-255.96 328.26,-246.25"/>
<polygon fill="midnightblue" stroke="midnightblue" points="329.02,-242.83 318.45,-243.51 327.14,-249.57 329.02,-242.83"/>
</g>
<!-- Node29 -->
<g id="node29" class="node">
<title>Node29</title>
<g id="a_node29"><a xlink:title=" ">
<polygon fill="white" stroke="#bfbfbf" points="344.5,-224.5 344.5,-243.5 443.5,-243.5 443.5,-224.5 344.5,-224.5"/>
<text text-anchor="middle" x="394" y="-231.5" font-family="Helvetica,sans-Serif" font-size="10.00">openssl/engine.h</text>
</a>
</g>
</g>
<!-- Node2&#45;&gt;Node29 -->
<g id="edge39" class="edge">
<title>Node2&#45;&gt;Node29</title>
<path fill="none" stroke="midnightblue" d="M475.64,-280.4C458.33,-270.77 435.52,-258.09 418.42,-248.58"/>
<polygon fill="midnightblue" stroke="midnightblue" points="420.01,-245.46 409.57,-243.66 416.61,-251.58 420.01,-245.46"/>
</g>
<!-- Node30 -->
<g id="node30" class="node">
<title>Node30</title>
<g id="a_node30"><a xlink:title=" ">
<polygon fill="white" stroke="#bfbfbf" points="461.5,-224.5 461.5,-243.5 540.5,-243.5 540.5,-224.5 461.5,-224.5"/>
<text text-anchor="middle" x="501" y="-231.5" font-family="Helvetica,sans-Serif" font-size="10.00">openssl/err.h</text>
</a>
</g>
</g>
<!-- Node2&#45;&gt;Node30 -->
<g id="edge40" class="edge">
<title>Node2&#45;&gt;Node30</title>
<path fill="none" stroke="midnightblue" d="M501,-280.4C501,-272.47 501,-262.46 501,-253.86"/>
<polygon fill="midnightblue" stroke="midnightblue" points="504.5,-253.66 501,-243.66 497.5,-253.66 504.5,-253.66"/>
</g>
<!-- Node31 -->
<g id="node31" class="node">
<title>Node31</title>
<g id="a_node31"><a xlink:title=" ">
<polygon fill="white" stroke="#bfbfbf" points="558,-224.5 558,-243.5 642,-243.5 642,-224.5 558,-224.5"/>
<text text-anchor="middle" x="600" y="-231.5" font-family="Helvetica,sans-Serif" font-size="10.00">openssl/evp.h</text>
</a>
</g>
</g>
<!-- Node2&#45;&gt;Node31 -->
<g id="edge41" class="edge">
<title>Node2&#45;&gt;Node31</title>
<path fill="none" stroke="midnightblue" d="M524.46,-280.4C540.33,-270.86 561.19,-258.32 576.97,-248.84"/>
<polygon fill="midnightblue" stroke="midnightblue" points="578.83,-251.81 585.59,-243.66 575.22,-245.81 578.83,-251.81"/>
</g>
<!-- Node32 -->
<g id="node32" class="node">
<title>Node32</title>
<g id="a_node32"><a xlink:title=" ">
<polygon fill="white" stroke="#bfbfbf" points="660,-224.5 660,-243.5 748,-243.5 748,-224.5 660,-224.5"/>
<text text-anchor="middle" x="704" y="-231.5" font-family="Helvetica,sans-Serif" font-size="10.00">openssl/pem.h</text>
</a>
</g>
</g>
<!-- Node2&#45;&gt;Node32 -->
<g id="edge42" class="edge">
<title>Node2&#45;&gt;Node32</title>
<path fill="none" stroke="midnightblue" d="M548.85,-280.47C584.33,-270.08 632.09,-256.08 665.2,-246.37"/>
<polygon fill="midnightblue" stroke="midnightblue" points="666.37,-249.68 674.98,-243.51 664.4,-242.96 666.37,-249.68"/>
</g>
<!-- Node33 -->
<g id="node33" class="node">
<title>Node33</title>
<g id="a_node33"><a xlink:title=" ">
<polygon fill="white" stroke="#bfbfbf" points="766,-224.5 766,-243.5 846,-243.5 846,-224.5 766,-224.5"/>
<text text-anchor="middle" x="806" y="-231.5" font-family="Helvetica,sans-Serif" font-size="10.00">openssl/ssl.h</text>
</a>
</g>
</g>
<!-- Node2&#45;&gt;Node33 -->
<g id="edge43" class="edge">
<title>Node2&#45;&gt;Node33</title>
<path fill="none" stroke="midnightblue" d="M565.09,-281.75C568.1,-281.16 571.08,-280.57 574,-280 636.64,-267.7 708.83,-253.73 755.83,-244.66"/>
<polygon fill="midnightblue" stroke="midnightblue" points="756.6,-248.08 765.75,-242.75 755.27,-241.21 756.6,-248.08"/>
</g>
<!-- Node34 -->
<g id="node34" class="node">
<title>Node34</title>
<g id="a_node34"><a xlink:title=" ">
<polygon fill="white" stroke="#bfbfbf" points="864,-224.5 864,-243.5 954,-243.5 954,-224.5 864,-224.5"/>
<text text-anchor="middle" x="909" y="-231.5" font-family="Helvetica,sans-Serif" font-size="10.00">openssl/x509.h</text>
</a>
</g>
</g>
<!-- Node2&#45;&gt;Node34 -->
<g id="edge44" class="edge">
<title>Node2&#45;&gt;Node34</title>
<path fill="none" stroke="midnightblue" d="M565.05,-281.52C568.07,-280.99 571.07,-280.48 574,-280 695.11,-260.24 728.74,-262.23 853.96,-244.1"/>
<polygon fill="midnightblue" stroke="midnightblue" points="854.55,-247.55 863.94,-242.64 853.54,-240.62 854.55,-247.55"/>
</g>
<!-- Node35 -->
<g id="node35" class="node">
<title>Node35</title>
<g id="a_node35"><a xlink:title=" ">
<polygon fill="white" stroke="#bfbfbf" points="972,-224.5 972,-243.5 1074,-243.5 1074,-224.5 972,-224.5"/>
<text text-anchor="middle" x="1023" y="-231.5" font-family="Helvetica,sans-Serif" font-size="10.00">openssl/x509v3.h</text>
</a>
</g>
</g>
<!-- Node2&#45;&gt;Node35 -->
<g id="edge45" class="edge">
<title>Node2&#45;&gt;Node35</title>
<path fill="none" stroke="midnightblue" d="M565.03,-281.39C568.06,-280.89 571.06,-280.43 574,-280 742.64,-255.52 788.93,-264.53 962.01,-244.05"/>
<polygon fill="midnightblue" stroke="midnightblue" points="962.45,-247.52 971.96,-242.86 961.62,-240.57 962.45,-247.52"/>
</g>
<!-- Node4 -->
<g id="node4" class="node">
<title>Node4</title>
<g id="a_node4"><a xlink:href="json_8h.html" target="_top" xlink:title=" ">
<polygon fill="white" stroke="black" points="779.5,-168.5 779.5,-187.5 856.5,-187.5 856.5,-168.5 779.5,-168.5"/>
<text text-anchor="middle" x="818" y="-175.5" font-family="Helvetica,sans-Serif" font-size="10.00">ccf/ds/json.h</text>
</a>
</g>
</g>
<!-- Node3&#45;&gt;Node4 -->
<g id="edge3" class="edge">
<title>Node3&#45;&gt;Node4</title>
<path fill="none" stroke="midnightblue" d="M1091.94,-224.8C1031.05,-214.62 927.82,-197.36 866.97,-187.19"/>
<polygon fill="midnightblue" stroke="midnightblue" points="867.29,-183.69 856.85,-185.49 866.13,-190.6 867.29,-183.69"/>
</g>
<!-- Node3&#45;&gt;Node7 -->
<g id="edge25" class="edge">
<title>Node3&#45;&gt;Node7</title>
<path fill="none" stroke="midnightblue" d="M1129.52,-224.49C1086.22,-192.49 932.42,-80.08 877,-56 862.46,-49.68 768.82,-29.14 717.51,-18.13"/>
<polygon fill="midnightblue" stroke="midnightblue" points="718.06,-14.66 707.55,-15.99 716.6,-21.51 718.06,-14.66"/>
</g>
<!-- Node13 -->
<g id="node13" class="node">
<title>Node13</title>
<g id="a_node13"><a xlink:title=" ">
<polygon fill="white" stroke="#bfbfbf" points="1104.5,-0.5 1104.5,-19.5 1177.5,-19.5 1177.5,-0.5 1104.5,-0.5"/>
<text text-anchor="middle" x="1141" y="-7.5" font-family="Helvetica,sans-Serif" font-size="10.00">string_view</text>
</a>
</g>
</g>
<!-- Node3&#45;&gt;Node13 -->
<g id="edge24" class="edge">
<title>Node3&#45;&gt;Node13</title>
<path fill="none" stroke="midnightblue" d="M1141,-224.3C1141,-191.63 1141,-75.87 1141,-29.96"/>
<polygon fill="midnightblue" stroke="midnightblue" points="1144.5,-29.88 1141,-19.88 1137.5,-29.88 1144.5,-29.88"/>
</g>
<!-- Node18 -->
<g id="node18" class="node">
<title>Node18</title>
<g id="a_node18"><a xlink:title=" ">
<polygon fill="white" stroke="#bfbfbf" points="569,-168.5 569,-187.5 619,-187.5 619,-168.5 569,-168.5"/>
<text text-anchor="middle" x="594" y="-175.5" font-family="Helvetica,sans-Serif" font-size="10.00">cstring</text>
</a>
</g>
</g>
<!-- Node3&#45;&gt;Node18 -->
<g id="edge20" class="edge">
<title>Node3&#45;&gt;Node18</title>
<path fill="none" stroke="midnightblue" d="M1091.99,-225.13C1088.95,-224.72 1085.94,-224.34 1083,-224 884.77,-200.81 829.73,-221.41 629.12,-187.88"/>
<polygon fill="midnightblue" stroke="midnightblue" points="629.58,-184.41 619.14,-186.19 628.41,-191.32 629.58,-184.41"/>
</g>
<!-- Node19 -->
<g id="node19" class="node">
<title>Node19</title>
<g id="a_node19"><a xlink:title=" ">
<polygon fill="white" stroke="#bfbfbf" points="637.5,-168.5 637.5,-187.5 702.5,-187.5 702.5,-168.5 637.5,-168.5"/>
<text text-anchor="middle" x="670" y="-175.5" font-family="Helvetica,sans-Serif" font-size="10.00">exception</text>
</a>
</g>
</g>
<!-- Node3&#45;&gt;Node19 -->
<g id="edge21" class="edge">
<title>Node3&#45;&gt;Node19</title>
<path fill="none" stroke="midnightblue" d="M1091.98,-225.19C1088.94,-224.77 1085.93,-224.37 1083,-224 921.85,-203.69 877.43,-213.01 712.92,-187.97"/>
<polygon fill="midnightblue" stroke="midnightblue" points="713.37,-184.5 702.95,-186.43 712.3,-191.42 713.37,-184.5"/>
</g>
<!-- Node3&#45;&gt;Node20 -->
<g id="edge22" class="edge">
<title>Node3&#45;&gt;Node20</title>
<path fill="none" stroke="midnightblue" d="M1151.76,-224.32C1161.77,-216.26 1176.89,-204.08 1188.93,-194.37"/>
<polygon fill="midnightblue" stroke="midnightblue" points="1191.45,-196.83 1197.04,-187.83 1187.06,-191.38 1191.45,-196.83"/>
</g>
<!-- Node21 -->
<g id="node21" class="node">
<title>Node21</title>
<g id="a_node21"><a xlink:title=" ">
<polygon fill="white" stroke="#bfbfbf" points="721,-168.5 721,-187.5 761,-187.5 761,-168.5 721,-168.5"/>
<text text-anchor="middle" x="741" y="-175.5" font-family="Helvetica,sans-Serif" font-size="10.00">span</text>
</a>
</g>
</g>
<!-- Node3&#45;&gt;Node21 -->
<g id="edge23" class="edge">
<title>Node3&#45;&gt;Node21</title>
<path fill="none" stroke="midnightblue" d="M1091.97,-225.25C1088.94,-224.82 1085.93,-224.4 1083,-224 947.48,-205.7 908.82,-216.35 771.23,-187.9"/>
<polygon fill="midnightblue" stroke="midnightblue" points="771.66,-184.41 761.15,-185.78 770.22,-191.26 771.66,-184.41"/>
</g>
<!-- Node5 -->
<g id="node5" class="node">
<title>Node5</title>
<g id="a_node5"><a xlink:href="include_2ccf_2crypto_2base64_8h.html" target="_top" xlink:title=" ">
<polygon fill="white" stroke="black" points="628,-56.5 628,-75.5 740,-75.5 740,-56.5 628,-56.5"/>
<text text-anchor="middle" x="684" y="-63.5" font-family="Helvetica,sans-Serif" font-size="10.00">ccf/crypto/base64.h</text>
</a>
</g>
</g>
<!-- Node4&#45;&gt;Node5 -->
<g id="edge4" class="edge">
<title>Node4&#45;&gt;Node5</title>
<path fill="none" stroke="midnightblue" d="M797.7,-168.37C780.46,-160.45 755.63,-147.59 737,-132 720.33,-118.05 705.08,-98.26 695.26,-84.19"/>
<polygon fill="midnightblue" stroke="midnightblue" points="698.14,-82.2 689.63,-75.89 692.35,-86.13 698.14,-82.2"/>
</g>
<!-- Node8 -->
<g id="node8" class="node">
<title>Node8</title>
<g id="a_node8"><a xlink:href="include_2ccf_2ds_2json__schema_8h.html" target="_top" xlink:title=" ">
<polygon fill="white" stroke="black" points="746.5,-112.5 746.5,-131.5 867.5,-131.5 867.5,-112.5 746.5,-112.5"/>
<text text-anchor="middle" x="807" y="-119.5" font-family="Helvetica,sans-Serif" font-size="10.00">ccf/ds/json_schema.h</text>
</a>
</g>
</g>
<!-- Node4&#45;&gt;Node8 -->
<g id="edge7" class="edge">
<title>Node4&#45;&gt;Node8</title>
<path fill="none" stroke="midnightblue" d="M816.18,-168.08C814.73,-160.93 812.63,-150.64 810.81,-141.69"/>
<polygon fill="midnightblue" stroke="midnightblue" points="814.21,-140.85 808.78,-131.75 807.35,-142.25 814.21,-140.85"/>
</g>
<!-- Node4&#45;&gt;Node15 -->
<g id="edge18" class="edge">
<title>Node4&#45;&gt;Node15</title>
<path fill="none" stroke="midnightblue" d="M786.66,-168.49C735.55,-154.87 630.95,-128.1 541,-112 430.26,-92.18 298.91,-78.2 228.87,-71.5"/>
<polygon fill="midnightblue" stroke="midnightblue" points="228.86,-67.98 218.58,-70.52 228.2,-74.95 228.86,-67.98"/>
</g>
<!-- Node17 -->
<g id="node17" class="node">
<title>Node17</title>
<g id="a_node17"><a xlink:title=" ">
<polygon fill="white" stroke="#bfbfbf" points="476,-112.5 476,-131.5 532,-131.5 532,-112.5 476,-112.5"/>
<text text-anchor="middle" x="504" y="-119.5" font-family="Helvetica,sans-Serif" font-size="10.00">sstream</text>
</a>
</g>
</g>
<!-- Node4&#45;&gt;Node17 -->
<g id="edge19" class="edge">
<title>Node4&#45;&gt;Node17</title>
<path fill="none" stroke="midnightblue" d="M779.5,-169.72C776.29,-169.13 773.09,-168.55 770,-168 689.12,-153.58 594.19,-137.79 542.44,-129.28"/>
<polygon fill="midnightblue" stroke="midnightblue" points="542.81,-125.8 532.37,-127.63 541.67,-132.7 542.81,-125.8"/>
</g>
<!-- Node6 -->
<g id="node6" class="node">
<title>Node6</title>
<g id="a_node6"><a xlink:title=" ">
<polygon fill="white" stroke="#bfbfbf" points="736,-0.5 736,-19.5 780,-19.5 780,-0.5 736,-0.5"/>
<text text-anchor="middle" x="758" y="-7.5" font-family="Helvetica,sans-Serif" font-size="10.00">string</text>
</a>
</g>
</g>
<!-- Node5&#45;&gt;Node6 -->
<g id="edge5" class="edge">
<title>Node5&#45;&gt;Node6</title>
<path fill="none" stroke="midnightblue" d="M695.89,-56.32C707.15,-48.11 724.29,-35.6 737.71,-25.81"/>
<polygon fill="midnightblue" stroke="midnightblue" points="739.88,-28.56 745.89,-19.83 735.75,-22.9 739.88,-28.56"/>
</g>
<!-- Node5&#45;&gt;Node7 -->
<g id="edge6" class="edge">
<title>Node5&#45;&gt;Node7</title>
<path fill="none" stroke="midnightblue" d="M684,-56.08C684,-49.01 684,-38.86 684,-29.99"/>
<polygon fill="midnightblue" stroke="midnightblue" points="687.5,-29.75 684,-19.75 680.5,-29.75 687.5,-29.75"/>
</g>
<!-- Node9 -->
<g id="node9" class="node">
<title>Node9</title>
<g id="a_node9"><a xlink:href="nonstd_8h.html" target="_top" xlink:title=" ">
<polygon fill="white" stroke="black" points="924,-56.5 924,-75.5 1014,-75.5 1014,-56.5 924,-56.5"/>
<text text-anchor="middle" x="969" y="-63.5" font-family="Helvetica,sans-Serif" font-size="10.00">ccf/ds/nonstd.h</text>
</a>
</g>
</g>
<!-- Node8&#45;&gt;Node9 -->
<g id="edge8" class="edge">
<title>Node8&#45;&gt;Node9</title>
<path fill="none" stroke="midnightblue" d="M832.67,-112.44C859.92,-103.36 903.18,-88.94 933.65,-78.78"/>
<polygon fill="midnightblue" stroke="midnightblue" points="935.07,-82 943.45,-75.52 932.86,-75.36 935.07,-82"/>
</g>
<!-- Node8&#45;&gt;Node15 -->
<g id="edge16" class="edge">
<title>Node8&#45;&gt;Node15</title>
<path fill="none" stroke="midnightblue" d="M746.5,-115.8C622.79,-105.16 342.95,-81.1 228.84,-71.29"/>
<polygon fill="midnightblue" stroke="midnightblue" points="228.92,-67.78 218.65,-70.41 228.32,-74.75 228.92,-67.78"/>
</g>
<!-- Node16 -->
<g id="node16" class="node">
<title>Node16</title>
<g id="a_node16"><a xlink:title=" ">
<polygon fill="white" stroke="#bfbfbf" points="758,-56.5 758,-75.5 868,-75.5 868,-56.5 758,-56.5"/>
<text text-anchor="middle" x="813" y="-63.5" font-family="Helvetica,sans-Serif" font-size="10.00">nlohmann/json.hpp</text>
</a>
</g>
</g>
<!-- Node8&#45;&gt;Node16 -->
<g id="edge17" class="edge">
<title>Node8&#45;&gt;Node16</title>
<path fill="none" stroke="midnightblue" d="M807.99,-112.08C808.79,-104.93 809.93,-94.64 810.92,-85.69"/>
<polygon fill="midnightblue" stroke="midnightblue" points="814.4,-86.08 812.03,-75.75 807.44,-85.3 814.4,-86.08"/>
</g>
<!-- Node9&#45;&gt;Node6 -->
<g id="edge12" class="edge">
<title>Node9&#45;&gt;Node6</title>
<path fill="none" stroke="midnightblue" d="M935.57,-56.44C895.67,-46.23 829.44,-29.28 790.13,-19.22"/>
<polygon fill="midnightblue" stroke="midnightblue" points="790.83,-15.79 780.27,-16.7 789.09,-22.57 790.83,-15.79"/>
</g>
<!-- Node9&#45;&gt;Node7 -->
<g id="edge15" class="edge">
<title>Node9&#45;&gt;Node7</title>
<path fill="none" stroke="midnightblue" d="M923.89,-56.93C875.25,-48.14 795.54,-33.54 727,-20 723.96,-19.4 720.79,-18.76 717.63,-18.11"/>
<polygon fill="midnightblue" stroke="midnightblue" points="718.14,-14.65 707.64,-16.05 716.72,-21.5 718.14,-14.65"/>
</g>
<!-- Node10 -->
<g id="node10" class="node">
<title>Node10</title>
<g id="a_node10"><a xlink:title=" ">
<polygon fill="white" stroke="#bfbfbf" points="1022,-0.5 1022,-19.5 1086,-19.5 1086,-0.5 1022,-0.5"/>
<text text-anchor="middle" x="1054" y="-7.5" font-family="Helvetica,sans-Serif" font-size="10.00">algorithm</text>
</a>
</g>
</g>
<!-- Node9&#45;&gt;Node10 -->
<g id="edge9" class="edge">
<title>Node9&#45;&gt;Node10</title>
<path fill="none" stroke="midnightblue" d="M982.66,-56.32C995.92,-47.9 1016.27,-34.97 1031.85,-25.07"/>
<polygon fill="midnightblue" stroke="midnightblue" points="1033.81,-27.97 1040.38,-19.65 1030.06,-22.06 1033.81,-27.97"/>
</g>
<!-- Node11 -->
<g id="node11" class="node">
<title>Node11</title>
<g id="a_node11"><a xlink:title=" ">
<polygon fill="white" stroke="#bfbfbf" points="807,-0.5 807,-19.5 849,-19.5 849,-0.5 807,-0.5"/>
<text text-anchor="middle" x="828" y="-7.5" font-family="Helvetica,sans-Serif" font-size="10.00">array</text>
</a>
</g>
</g>
<!-- Node9&#45;&gt;Node11 -->
<g id="edge10" class="edge">
<title>Node9&#45;&gt;Node11</title>
<path fill="none" stroke="midnightblue" d="M946.66,-56.44C922.97,-47.37 885.39,-32.98 858.88,-22.83"/>
<polygon fill="midnightblue" stroke="midnightblue" points="859.9,-19.47 849.31,-19.16 857.4,-26.01 859.9,-19.47"/>
</g>
<!-- Node12 -->
<g id="node12" class="node">
<title>Node12</title>
<g id="a_node12"><a xlink:title=" ">
<polygon fill="white" stroke="#bfbfbf" points="867.5,-0.5 867.5,-19.5 916.5,-19.5 916.5,-0.5 867.5,-0.5"/>
<text text-anchor="middle" x="892" y="-7.5" font-family="Helvetica,sans-Serif" font-size="10.00">cctype</text>
</a>
</g>
</g>
<!-- Node9&#45;&gt;Node12 -->
<g id="edge11" class="edge">
<title>Node9&#45;&gt;Node12</title>
<path fill="none" stroke="midnightblue" d="M956.63,-56.32C944.84,-48.06 926.87,-35.45 912.86,-25.63"/>
<polygon fill="midnightblue" stroke="midnightblue" points="914.54,-22.53 904.34,-19.65 910.52,-28.26 914.54,-22.53"/>
</g>
<!-- Node9&#45;&gt;Node13 -->
<g id="edge13" class="edge">
<title>Node9&#45;&gt;Node13</title>
<path fill="none" stroke="midnightblue" d="M996.25,-56.44C1025.44,-47.28 1071.92,-32.69 1104.31,-22.52"/>
<polygon fill="midnightblue" stroke="midnightblue" points="1105.38,-25.85 1113.87,-19.52 1103.28,-19.17 1105.38,-25.85"/>
</g>
<!-- Node14 -->
<g id="node14" class="node">
<title>Node14</title>
<g id="a_node14"><a xlink:title=" ">
<polygon fill="white" stroke="#bfbfbf" points="934.5,-0.5 934.5,-19.5 1003.5,-19.5 1003.5,-0.5 934.5,-0.5"/>
<text text-anchor="middle" x="969" y="-7.5" font-family="Helvetica,sans-Serif" font-size="10.00">type_traits</text>
</a>
</g>
</g>
<!-- Node9&#45;&gt;Node14 -->
<g id="edge14" class="edge">
<title>Node9&#45;&gt;Node14</title>
<path fill="none" stroke="midnightblue" d="M969,-56.08C969,-49.01 969,-38.86 969,-29.99"/>
<polygon fill="midnightblue" stroke="midnightblue" points="972.5,-29.75 969,-19.75 965.5,-29.75 972.5,-29.75"/>
</g>
<!-- Node23&#45;&gt;Node7 -->
<g id="edge34" class="edge">
<title>Node23&#45;&gt;Node7</title>
<path fill="none" stroke="midnightblue" d="M194.49,-168.47C232.94,-161.12 286.77,-149.01 332,-132 349.86,-125.28 352.41,-119.39 370,-112 469.35,-70.25 592.33,-35.3 650.5,-19.71"/>
<polygon fill="midnightblue" stroke="midnightblue" points="651.49,-23.07 660.26,-17.12 649.69,-16.31 651.49,-23.07"/>
</g>
<!-- Node23&#45;&gt;Node15 -->
<g id="edge30" class="edge">
<title>Node23&#45;&gt;Node15</title>
<path fill="none" stroke="midnightblue" d="M129.21,-168.38C110.49,-156.32 82.15,-133.46 95,-112 104.15,-96.72 120.46,-86.33 136.29,-79.43"/>
<polygon fill="midnightblue" stroke="midnightblue" points="138.01,-82.51 146.01,-75.56 135.43,-76 138.01,-82.51"/>
</g>
<!-- Node23&#45;&gt;Node17 -->
<g id="edge32" class="edge">
<title>Node23&#45;&gt;Node17</title>
<path fill="none" stroke="midnightblue" d="M201.04,-168.44C275.04,-157.34 402.14,-138.28 465.6,-128.76"/>
<polygon fill="midnightblue" stroke="midnightblue" points="466.22,-132.21 475.59,-127.26 465.18,-125.28 466.22,-132.21"/>
</g>
<!-- Node23&#45;&gt;Node22 -->
<g id="edge28" class="edge">
<title>Node23&#45;&gt;Node22</title>
<path fill="none" stroke="midnightblue" d="M187.68,-168.45C232.31,-159.64 303.59,-145.34 365,-132 366.26,-131.73 367.54,-131.44 368.84,-131.16"/>
<polygon fill="midnightblue" stroke="midnightblue" points="369.86,-134.52 378.85,-128.91 368.32,-127.69 369.86,-134.52"/>
</g>
<!-- Node24 -->
<g id="node24" class="node">
<title>Node24</title>
<g id="a_node24"><a xlink:title=" ">
<polygon fill="white" stroke="#bfbfbf" points="104.5,-112.5 104.5,-131.5 183.5,-131.5 183.5,-112.5 104.5,-112.5"/>
<text text-anchor="middle" x="144" y="-119.5" font-family="Helvetica,sans-Serif" font-size="10.00">fmt/chrono.h</text>
</a>
</g>
</g>
<!-- Node23&#45;&gt;Node24 -->
<g id="edge29" class="edge">
<title>Node23&#45;&gt;Node24</title>
<path fill="none" stroke="midnightblue" d="M144,-168.08C144,-161.01 144,-150.86 144,-141.99"/>
<polygon fill="midnightblue" stroke="midnightblue" points="147.5,-141.75 144,-131.75 140.5,-141.75 147.5,-141.75"/>
</g>
<!-- Node25 -->
<g id="node25" class="node">
<title>Node25</title>
<g id="a_node25"><a xlink:title=" ">
<polygon fill="white" stroke="#bfbfbf" points="201,-112.5 201,-131.5 257,-131.5 257,-112.5 201,-112.5"/>
<text text-anchor="middle" x="229" y="-119.5" font-family="Helvetica,sans-Serif" font-size="10.00">iomanip</text>
</a>
</g>
</g>
<!-- Node23&#45;&gt;Node25 -->
<g id="edge31" class="edge">
<title>Node23&#45;&gt;Node25</title>
<path fill="none" stroke="midnightblue" d="M157.66,-168.32C170.92,-159.9 191.27,-146.97 206.85,-137.07"/>
<polygon fill="midnightblue" stroke="midnightblue" points="208.81,-139.97 215.38,-131.65 205.06,-134.06 208.81,-139.97"/>
</g>
<!-- Node26 -->
<g id="node26" class="node">
<title>Node26</title>
<g id="a_node26"><a xlink:title=" ">
<polygon fill="white" stroke="#bfbfbf" points="275,-112.5 275,-131.5 323,-131.5 323,-112.5 275,-112.5"/>
<text text-anchor="middle" x="299" y="-119.5" font-family="Helvetica,sans-Serif" font-size="10.00">time.h</text>
</a>
</g>
</g>
<!-- Node23&#45;&gt;Node26 -->
<g id="edge33" class="edge">
<title>Node23&#45;&gt;Node26</title>
<path fill="none" stroke="midnightblue" d="M168.56,-168.44C194.6,-159.37 235.91,-144.98 265.05,-134.83"/>
<polygon fill="midnightblue" stroke="midnightblue" points="266.52,-138.02 274.81,-131.43 264.22,-131.41 266.52,-138.02"/>
</g>
</g>
</svg>
        <g id="navigator" transform="translate(0 0)" fill="#404254">
                <rect fill="#f2f5e9" fill-opacity="0.5" stroke="#606060" stroke-width=".5" x="0" y="0" width="60" height="60"/>
                <use id="zoomplus" xlink:href="#zoomPlus" x="17" y="9" onmousedown="handleZoom(evt,'in')"/>
                <use id="zoomminus" xlink:href="#zoomMin" x="42" y="9" onmousedown="handleZoom(evt,'out')"/>
                <use id="reset" xlink:href="#resetDef" x="30" y="36" onmousedown="handleReset()"/>
                <g id="arrowUp" xlink:href="#dirArrow" transform="translate(30 24)" onmousedown="handlePan(0,-1)">
                  <use xlink:href="#rim" fill="#404040">
                        <set attributeName="fill" to="#808080" begin="arrowUp.mouseover" end="arrowUp.mouseout"/>
                  </use>
                  <path fill="none" stroke="white" stroke-width="1.5" d="M0,-3.0v7 M-2.5,-0.5L0,-3.0L2.5,-0.5"/>
                </g>
                <g id="arrowRight" xlink:href="#dirArrow" transform="rotate(90) translate(36 -43)" onmousedown="handlePan(1,0)">
                  <use xlink:href="#rim" fill="#404040">
                        <set attributeName="fill" to="#808080" begin="arrowRight.mouseover" end="arrowRight.mouseout"/>
                  </use>
                  <path fill="none" stroke="white" stroke-width="1.5" d="M0,-3.0v7 M-2.5,-0.5L0,-3.0L2.5,-0.5"/>
                </g>
                <g id="arrowDown" xlink:href="#dirArrow" transform="rotate(180) translate(-30 -48)" onmousedown="handlePan(0,1)">
                  <use xlink:href="#rim" fill="#404040">
                        <set attributeName="fill" to="#808080" begin="arrowDown.mouseover" end="arrowDown.mouseout"/>
                  </use>
                  <path fill="none" stroke="white" stroke-width="1.5" d="M0,-3.0v7 M-2.5,-0.5L0,-3.0L2.5,-0.5"/>
                </g>
                <g id="arrowLeft" xlink:href="#dirArrow" transform="rotate(270) translate(-36 17)" onmousedown="handlePan(-1,0)">
                  <use xlink:href="#rim" fill="#404040">
                        <set attributeName="fill" to="#808080" begin="arrowLeft.mouseover" end="arrowLeft.mouseout"/>
                  </use>
                  <path fill="none" stroke="white" stroke-width="1.5" d="M0,-3.0v7 M-2.5,-0.5L0,-3.0L2.5,-0.5"/>
                </g>
        </g>
        <svg viewBox="0 0 15 15" width="100%" height="30px" preserveAspectRatio="xMaxYMin meet">
         <g id="arrow_out" transform="scale(0.3 0.3)">
          <a xlink:href="ecdsa_8h__incl_org.svg" target="_base">
           <rect id="button" ry="5" rx="5" y="6" x="6" height="38" width="38"
                fill="#f2f5e9" fill-opacity="0.5" stroke="#606060" stroke-width="1.0"/>
           <path id="arrow"
             d="M 11.500037,31.436501 C 11.940474,20.09759 22.043105,11.32322 32.158766,21.979434 L 37.068811,17.246167 C 37.068811,17.246167 37.088388,32 37.088388,32 L 22.160133,31.978069 C 22.160133,31.978069 26.997745,27.140456 26.997745,27.140456 C 18.528582,18.264221 13.291696,25.230495 11.500037,31.436501 z"
             style="fill:#404040;"/>
          </a>
         </g>
        </svg>
</svg>
