<?xml version="1.0" encoding="UTF-8" standalone="no"?>
<!DOCTYPE svg PUBLIC "-//W3C//DTD SVG 1.1//EN"
 "http://www.w3.org/Graphics/SVG/1.1/DTD/svg11.dtd">
<!-- Generated by graphviz version 2.43.0 (0)
 -->
<!-- Title: include/ccf/endpoints/authentication/empty_auth.h Pages: 1 -->
<svg width="1366pt" height="453pt"
 viewBox="0.00 0.00 1366.00 453.00" xmlns="http://www.w3.org/2000/svg" xmlns:xlink="http://www.w3.org/1999/xlink">
<g id="graph0" class="graph" transform="scale(1 1) rotate(0) translate(4 449)">
<title>include/ccf/endpoints/authentication/empty_auth.h</title>
<polygon fill="white" stroke="transparent" points="-4,4 -4,-449 1362,-449 1362,4 -4,4"/>
<!-- Node1 -->
<g id="node1" class="node">
<title>Node1</title>
<g id="a_node1"><a xlink:title=" ">
<polygon fill="#bfbfbf" stroke="black" points="1035.5,-403.5 1035.5,-444.5 1160.5,-444.5 1160.5,-403.5 1035.5,-403.5"/>
<text text-anchor="start" x="1043.5" y="-432.5" font-family="Helvetica,sans-Serif" font-size="10.00">include/ccf/endpoints</text>
<text text-anchor="start" x="1043.5" y="-421.5" font-family="Helvetica,sans-Serif" font-size="10.00">/authentication/empty</text>
<text text-anchor="middle" x="1098" y="-410.5" font-family="Helvetica,sans-Serif" font-size="10.00">_auth.h</text>
</a>
</g>
</g>
<!-- Node2 -->
<g id="node2" class="node">
<title>Node2</title>
<g id="a_node2"><a xlink:href="authentication__types_8h.html" target="_top" xlink:title=" ">
<polygon fill="white" stroke="black" points="1020.5,-336.5 1020.5,-366.5 1175.5,-366.5 1175.5,-336.5 1020.5,-336.5"/>
<text text-anchor="start" x="1028.5" y="-354.5" font-family="Helvetica,sans-Serif" font-size="10.00">ccf/endpoints/authentication</text>
<text text-anchor="middle" x="1098" y="-343.5" font-family="Helvetica,sans-Serif" font-size="10.00">/authentication_types.h</text>
</a>
</g>
</g>
<!-- Node1&#45;&gt;Node2 -->
<g id="edge1" class="edge">
<title>Node1&#45;&gt;Node2</title>
<path fill="none" stroke="midnightblue" d="M1098,-403.36C1098,-395.23 1098,-385.7 1098,-377.11"/>
<polygon fill="midnightblue" stroke="midnightblue" points="1101.5,-376.89 1098,-366.89 1094.5,-376.89 1101.5,-376.89"/>
</g>
<!-- Node3 -->
<g id="node3" class="node">
<title>Node3</title>
<g id="a_node3"><a xlink:href="tx_8h.html" target="_top" xlink:title=" ">
<polygon fill="white" stroke="black" points="789.5,-280.5 789.5,-299.5 842.5,-299.5 842.5,-280.5 789.5,-280.5"/>
<text text-anchor="middle" x="816" y="-287.5" font-family="Helvetica,sans-Serif" font-size="10.00">ccf/tx.h</text>
</a>
</g>
</g>
<!-- Node2&#45;&gt;Node3 -->
<g id="edge2" class="edge">
<title>Node2&#45;&gt;Node3</title>
<path fill="none" stroke="midnightblue" d="M1031.53,-336.47C975.63,-324.68 897.81,-308.26 852.59,-298.72"/>
<polygon fill="midnightblue" stroke="midnightblue" points="853.14,-295.26 842.64,-296.62 851.7,-302.11 853.14,-295.26"/>
</g>
<!-- Node15 -->
<g id="node15" class="node">
<title>Node15</title>
<g id="a_node15"><a xlink:title=" ">
<polygon fill="white" stroke="#bfbfbf" points="73,-56.5 73,-75.5 183,-75.5 183,-56.5 73,-56.5"/>
<text text-anchor="middle" x="128" y="-63.5" font-family="Helvetica,sans-Serif" font-size="10.00">nlohmann/json.hpp</text>
</a>
</g>
</g>
<!-- Node2&#45;&gt;Node15 -->
<g id="edge56" class="edge">
<title>Node2&#45;&gt;Node15</title>
<path fill="none" stroke="midnightblue" d="M1020.25,-350.48C816.53,-349.1 272.68,-336.62 123,-244 91.22,-224.33 79.84,-204.68 87,-168 92.99,-137.32 108.32,-104.17 118.45,-84.52"/>
<polygon fill="midnightblue" stroke="midnightblue" points="121.6,-86.04 123.19,-75.56 115.42,-82.76 121.6,-86.04"/>
</g>
<!-- Node22 -->
<g id="node22" class="node">
<title>Node22</title>
<g id="a_node22"><a xlink:title=" ">
<polygon fill="white" stroke="#bfbfbf" points="902,-0.5 902,-19.5 946,-19.5 946,-0.5 902,-0.5"/>
<text text-anchor="middle" x="924" y="-7.5" font-family="Helvetica,sans-Serif" font-size="10.00">string</text>
</a>
</g>
</g>
<!-- Node2&#45;&gt;Node22 -->
<g id="edge57" class="edge">
<title>Node2&#45;&gt;Node22</title>
<path fill="none" stroke="midnightblue" d="M1175.66,-347.76C1252.27,-340.4 1358,-315.63 1358,-235 1358,-235 1358,-235 1358,-121 1358,-38.13 1056.9,-16.99 956.29,-12.25"/>
<polygon fill="midnightblue" stroke="midnightblue" points="956.27,-8.74 946.12,-11.79 955.95,-15.73 956.27,-8.74"/>
</g>
<!-- Node35 -->
<g id="node35" class="node">
<title>Node35</title>
<g id="a_node35"><a xlink:title=" ">
<polygon fill="white" stroke="#bfbfbf" points="1272,-224.5 1272,-243.5 1330,-243.5 1330,-224.5 1272,-224.5"/>
<text text-anchor="middle" x="1301" y="-231.5" font-family="Helvetica,sans-Serif" font-size="10.00">memory</text>
</a>
</g>
</g>
<!-- Node2&#45;&gt;Node35 -->
<g id="edge55" class="edge">
<title>Node2&#45;&gt;Node35</title>
<path fill="none" stroke="midnightblue" d="M1122.89,-336.34C1162.23,-313.96 1238.25,-270.7 1277.01,-248.65"/>
<polygon fill="midnightblue" stroke="midnightblue" points="1279.06,-251.51 1286.02,-243.52 1275.6,-245.43 1279.06,-251.51"/>
</g>
<!-- Node4 -->
<g id="node4" class="node">
<title>Node4</title>
<g id="a_node4"><a xlink:href="ccf__assert_8h.html" target="_top" xlink:title=" ">
<polygon fill="white" stroke="black" points="770,-224.5 770,-243.5 862,-243.5 862,-224.5 770,-224.5"/>
<text text-anchor="middle" x="816" y="-231.5" font-family="Helvetica,sans-Serif" font-size="10.00">ccf/ccf_assert.h</text>
</a>
</g>
</g>
<!-- Node3&#45;&gt;Node4 -->
<g id="edge3" class="edge">
<title>Node3&#45;&gt;Node4</title>
<path fill="none" stroke="midnightblue" d="M816,-280.08C816,-273.01 816,-262.86 816,-253.99"/>
<polygon fill="midnightblue" stroke="midnightblue" points="819.5,-253.75 816,-243.75 812.5,-253.75 819.5,-253.75"/>
</g>
<!-- Node11 -->
<g id="node11" class="node">
<title>Node11</title>
<g id="a_node11"><a xlink:title=" ">
<polygon fill="white" stroke="#bfbfbf" points="1184,-56.5 1184,-75.5 1222,-75.5 1222,-56.5 1184,-56.5"/>
<text text-anchor="middle" x="1203" y="-63.5" font-family="Helvetica,sans-Serif" font-size="10.00">map</text>
</a>
</g>
</g>
<!-- Node3&#45;&gt;Node11 -->
<g id="edge51" class="edge">
<title>Node3&#45;&gt;Node11</title>
<path fill="none" stroke="midnightblue" d="M842.5,-285.91C910.78,-276.47 1093.85,-241.68 1187,-132 1197.92,-119.14 1201.6,-99.96 1202.74,-85.76"/>
<polygon fill="midnightblue" stroke="midnightblue" points="1206.24,-85.81 1203.2,-75.66 1199.25,-85.5 1206.24,-85.81"/>
</g>
<!-- Node16 -->
<g id="node16" class="node">
<title>Node16</title>
<g id="a_node16"><a xlink:title=" ">
<polygon fill="white" stroke="#bfbfbf" points="515,-112.5 515,-131.5 571,-131.5 571,-112.5 515,-112.5"/>
<text text-anchor="middle" x="543" y="-119.5" font-family="Helvetica,sans-Serif" font-size="10.00">optional</text>
</a>
</g>
</g>
<!-- Node3&#45;&gt;Node16 -->
<g id="edge53" class="edge">
<title>Node3&#45;&gt;Node16</title>
<path fill="none" stroke="midnightblue" d="M791.94,-280.42C770.18,-272.26 737.59,-259.03 711,-244 653.19,-211.32 591.32,-162.78 561.36,-138.3"/>
<polygon fill="midnightblue" stroke="midnightblue" points="563.4,-135.45 553.45,-131.79 558.95,-140.85 563.4,-135.45"/>
</g>
<!-- Node19 -->
<g id="node19" class="node">
<title>Node19</title>
<g id="a_node19"><a xlink:href="sha256__hash_8h.html" target="_top" xlink:title=" ">
<polygon fill="white" stroke="black" points="132,-224.5 132,-243.5 272,-243.5 272,-224.5 132,-224.5"/>
<text text-anchor="middle" x="202" y="-231.5" font-family="Helvetica,sans-Serif" font-size="10.00">ccf/crypto/sha256_hash.h</text>
</a>
</g>
</g>
<!-- Node3&#45;&gt;Node19 -->
<g id="edge20" class="edge">
<title>Node3&#45;&gt;Node19</title>
<path fill="none" stroke="midnightblue" d="M789.22,-286.64C701.68,-278.95 421.63,-254.32 282.29,-242.06"/>
<polygon fill="midnightblue" stroke="midnightblue" points="282.37,-238.56 272.1,-241.17 281.76,-245.53 282.37,-238.56"/>
</g>
<!-- Node3&#45;&gt;Node22 -->
<g id="edge54" class="edge">
<title>Node3&#45;&gt;Node22</title>
<path fill="none" stroke="midnightblue" d="M842.73,-287.41C928.94,-280.63 1196.11,-245.97 1231,-76 1232.79,-67.29 1236.81,-62.73 1231,-56 1195.74,-15.2 1027.84,-10.69 956.35,-10.67"/>
<polygon fill="midnightblue" stroke="midnightblue" points="956.12,-7.17 946.13,-10.69 956.14,-14.17 956.12,-7.17"/>
</g>
<!-- Node31 -->
<g id="node31" class="node">
<title>Node31</title>
<g id="a_node31"><a xlink:href="tx__id_8h.html" target="_top" xlink:title=" ">
<polygon fill="white" stroke="black" points="434.5,-224.5 434.5,-243.5 501.5,-243.5 501.5,-224.5 434.5,-224.5"/>
<text text-anchor="middle" x="468" y="-231.5" font-family="Helvetica,sans-Serif" font-size="10.00">ccf/tx_id.h</text>
</a>
</g>
</g>
<!-- Node3&#45;&gt;Node31 -->
<g id="edge41" class="edge">
<title>Node3&#45;&gt;Node31</title>
<path fill="none" stroke="midnightblue" d="M789.27,-284.85C729.58,-275.59 584.95,-253.15 511.85,-241.8"/>
<polygon fill="midnightblue" stroke="midnightblue" points="512.02,-238.29 501.6,-240.21 510.94,-245.21 512.02,-238.29"/>
</g>
<!-- Node34 -->
<g id="node34" class="node">
<title>Node34</title>
<g id="a_node34"><a xlink:title=" ">
<polygon fill="white" stroke="#bfbfbf" points="720,-224.5 720,-243.5 752,-243.5 752,-224.5 720,-224.5"/>
<text text-anchor="middle" x="736" y="-231.5" font-family="Helvetica,sans-Serif" font-size="10.00">list</text>
</a>
</g>
</g>
<!-- Node3&#45;&gt;Node34 -->
<g id="edge50" class="edge">
<title>Node3&#45;&gt;Node34</title>
<path fill="none" stroke="midnightblue" d="M803.15,-280.32C790.78,-271.98 771.87,-259.21 757.26,-249.35"/>
<polygon fill="midnightblue" stroke="midnightblue" points="759.07,-246.35 748.82,-243.65 755.15,-252.15 759.07,-246.35"/>
</g>
<!-- Node3&#45;&gt;Node35 -->
<g id="edge52" class="edge">
<title>Node3&#45;&gt;Node35</title>
<path fill="none" stroke="midnightblue" d="M842.53,-287.27C911.39,-282.58 1101.37,-268.3 1258,-244 1259.27,-243.8 1260.56,-243.59 1261.87,-243.37"/>
<polygon fill="midnightblue" stroke="midnightblue" points="1262.73,-246.77 1271.93,-241.52 1261.46,-239.89 1262.73,-246.77"/>
</g>
<!-- Node5 -->
<g id="node5" class="node">
<title>Node5</title>
<g id="a_node5"><a xlink:href="logger_8h.html" target="_top" xlink:title=" ">
<polygon fill="white" stroke="black" points="737.5,-168.5 737.5,-187.5 824.5,-187.5 824.5,-168.5 737.5,-168.5"/>
<text text-anchor="middle" x="781" y="-175.5" font-family="Helvetica,sans-Serif" font-size="10.00">ccf/ds/logger.h</text>
</a>
</g>
</g>
<!-- Node4&#45;&gt;Node5 -->
<g id="edge4" class="edge">
<title>Node4&#45;&gt;Node5</title>
<path fill="none" stroke="midnightblue" d="M810.22,-224.08C805.33,-216.53 798.17,-205.49 792.17,-196.23"/>
<polygon fill="midnightblue" stroke="midnightblue" points="795.05,-194.24 786.67,-187.75 789.17,-198.05 795.05,-194.24"/>
</g>
<!-- Node6 -->
<g id="node6" class="node">
<title>Node6</title>
<g id="a_node6"><a xlink:href="enum__formatter_8h.html" target="_top" xlink:title=" ">
<polygon fill="white" stroke="black" points="665,-112.5 665,-131.5 801,-131.5 801,-112.5 665,-112.5"/>
<text text-anchor="middle" x="733" y="-119.5" font-family="Helvetica,sans-Serif" font-size="10.00">ccf/ds/enum_formatter.h</text>
</a>
</g>
</g>
<!-- Node5&#45;&gt;Node6 -->
<g id="edge5" class="edge">
<title>Node5&#45;&gt;Node6</title>
<path fill="none" stroke="midnightblue" d="M773.07,-168.08C766.15,-160.3 755.93,-148.8 747.55,-139.37"/>
<polygon fill="midnightblue" stroke="midnightblue" points="750.04,-136.9 740.78,-131.75 744.81,-141.55 750.04,-136.9"/>
</g>
<!-- Node7 -->
<g id="node7" class="node">
<title>Node7</title>
<g id="a_node7"><a xlink:title=" ">
<polygon fill="white" stroke="#bfbfbf" points="447.5,-56.5 447.5,-75.5 526.5,-75.5 526.5,-56.5 447.5,-56.5"/>
<text text-anchor="middle" x="487" y="-63.5" font-family="Helvetica,sans-Serif" font-size="10.00">fmt/format.h</text>
</a>
</g>
</g>
<!-- Node5&#45;&gt;Node7 -->
<g id="edge14" class="edge">
<title>Node5&#45;&gt;Node7</title>
<path fill="none" stroke="midnightblue" d="M754.89,-168.36C729.42,-159.76 689.7,-145.87 656,-132 636.51,-123.98 632.5,-120 613,-112 583.02,-99.71 548.31,-87.45 522.91,-78.84"/>
<polygon fill="midnightblue" stroke="midnightblue" points="523.92,-75.49 513.33,-75.61 521.69,-82.12 523.92,-75.49"/>
</g>
<!-- Node8 -->
<g id="node8" class="node">
<title>Node8</title>
<g id="a_node8"><a xlink:href="thread__ids_8h.html" target="_top" xlink:title=" ">
<polygon fill="white" stroke="black" points="1070,-112.5 1070,-131.5 1178,-131.5 1178,-112.5 1070,-112.5"/>
<text text-anchor="middle" x="1124" y="-119.5" font-family="Helvetica,sans-Serif" font-size="10.00">ccf/ds/thread_ids.h</text>
</a>
</g>
</g>
<!-- Node5&#45;&gt;Node8 -->
<g id="edge7" class="edge">
<title>Node5&#45;&gt;Node8</title>
<path fill="none" stroke="midnightblue" d="M824.79,-170.11C884.23,-160.75 990.88,-143.96 1059.49,-133.16"/>
<polygon fill="midnightblue" stroke="midnightblue" points="1060.41,-136.55 1069.74,-131.54 1059.32,-129.64 1060.41,-136.55"/>
</g>
<!-- Node13 -->
<g id="node13" class="node">
<title>Node13</title>
<g id="a_node13"><a xlink:title=" ">
<polygon fill="white" stroke="#bfbfbf" points="857.5,-112.5 857.5,-131.5 936.5,-131.5 936.5,-112.5 857.5,-112.5"/>
<text text-anchor="middle" x="897" y="-119.5" font-family="Helvetica,sans-Serif" font-size="10.00">fmt/chrono.h</text>
</a>
</g>
</g>
<!-- Node5&#45;&gt;Node13 -->
<g id="edge13" class="edge">
<title>Node5&#45;&gt;Node13</title>
<path fill="none" stroke="midnightblue" d="M799.38,-168.44C818.22,-159.68 847.73,-145.94 869.38,-135.86"/>
<polygon fill="midnightblue" stroke="midnightblue" points="871.12,-138.91 878.71,-131.52 868.16,-132.56 871.12,-138.91"/>
</g>
<!-- Node14 -->
<g id="node14" class="node">
<title>Node14</title>
<g id="a_node14"><a xlink:title=" ">
<polygon fill="white" stroke="#bfbfbf" points="954,-112.5 954,-131.5 1014,-131.5 1014,-112.5 954,-112.5"/>
<text text-anchor="middle" x="984" y="-119.5" font-family="Helvetica,sans-Serif" font-size="10.00">iostream</text>
</a>
</g>
</g>
<!-- Node5&#45;&gt;Node14 -->
<g id="edge15" class="edge">
<title>Node5&#45;&gt;Node14</title>
<path fill="none" stroke="midnightblue" d="M813.17,-168.44C848.67,-159 905.87,-143.78 944.18,-133.59"/>
<polygon fill="midnightblue" stroke="midnightblue" points="945.21,-136.94 953.97,-130.99 943.41,-130.18 945.21,-136.94"/>
</g>
<!-- Node5&#45;&gt;Node15 -->
<g id="edge16" class="edge">
<title>Node5&#45;&gt;Node15</title>
<path fill="none" stroke="midnightblue" d="M737.42,-168.87C702.82,-161.59 653.69,-149.36 613,-132 597.23,-125.27 596.29,-117.37 580,-112 418.67,-58.77 366.02,-94.64 193.33,-76.07"/>
<polygon fill="midnightblue" stroke="midnightblue" points="193.46,-72.56 183.14,-74.92 192.68,-79.52 193.46,-72.56"/>
</g>
<!-- Node5&#45;&gt;Node16 -->
<g id="edge17" class="edge">
<title>Node5&#45;&gt;Node16</title>
<path fill="none" stroke="midnightblue" d="M743.29,-168.44C698.9,-158.37 625.62,-141.75 581.08,-131.64"/>
<polygon fill="midnightblue" stroke="midnightblue" points="581.75,-128.2 571.22,-129.4 580.2,-135.03 581.75,-128.2"/>
</g>
<!-- Node17 -->
<g id="node17" class="node">
<title>Node17</title>
<g id="a_node17"><a xlink:title=" ">
<polygon fill="white" stroke="#bfbfbf" points="403,-112.5 403,-131.5 459,-131.5 459,-112.5 403,-112.5"/>
<text text-anchor="middle" x="431" y="-119.5" font-family="Helvetica,sans-Serif" font-size="10.00">sstream</text>
</a>
</g>
</g>
<!-- Node5&#45;&gt;Node17 -->
<g id="edge18" class="edge">
<title>Node5&#45;&gt;Node17</title>
<path fill="none" stroke="midnightblue" d="M737.38,-170.27C668.32,-159.62 534.95,-139.04 469.34,-128.92"/>
<polygon fill="midnightblue" stroke="midnightblue" points="469.83,-125.45 459.42,-127.38 468.77,-132.37 469.83,-125.45"/>
</g>
<!-- Node18 -->
<g id="node18" class="node">
<title>Node18</title>
<g id="a_node18"><a xlink:title=" ">
<polygon fill="white" stroke="#bfbfbf" points="589.5,-0.5 589.5,-19.5 658.5,-19.5 658.5,-0.5 589.5,-0.5"/>
<text text-anchor="middle" x="624" y="-7.5" font-family="Helvetica,sans-Serif" font-size="10.00">type_traits</text>
</a>
</g>
</g>
<!-- Node5&#45;&gt;Node18 -->
<g id="edge19" class="edge">
<title>Node5&#45;&gt;Node18</title>
<path fill="none" stroke="midnightblue" d="M790.16,-168.27C802.41,-155.48 821.37,-131.12 810,-112 779.52,-60.77 712.98,-33.91 668.32,-21.1"/>
<polygon fill="midnightblue" stroke="midnightblue" points="669.15,-17.71 658.58,-18.44 667.3,-24.46 669.15,-17.71"/>
</g>
<!-- Node6&#45;&gt;Node7 -->
<g id="edge6" class="edge">
<title>Node6&#45;&gt;Node7</title>
<path fill="none" stroke="midnightblue" d="M694.02,-112.44C651.11,-103.02 582.05,-87.87 535.63,-77.68"/>
<polygon fill="midnightblue" stroke="midnightblue" points="536.31,-74.24 525.8,-75.52 534.81,-81.08 536.31,-74.24"/>
</g>
<!-- Node8&#45;&gt;Node7 -->
<g id="edge8" class="edge">
<title>Node8&#45;&gt;Node7</title>
<path fill="none" stroke="midnightblue" d="M1069.75,-116.11C1054.62,-114.77 1038.17,-113.31 1023,-112 844.1,-96.52 631.54,-78.91 536.83,-71.1"/>
<polygon fill="midnightblue" stroke="midnightblue" points="536.93,-67.59 526.68,-70.26 536.36,-74.57 536.93,-67.59"/>
</g>
<!-- Node9 -->
<g id="node9" class="node">
<title>Node9</title>
<g id="a_node9"><a xlink:title=" ">
<polygon fill="white" stroke="#bfbfbf" points="1018,-56.5 1018,-75.5 1104,-75.5 1104,-56.5 1018,-56.5"/>
<text text-anchor="middle" x="1061" y="-63.5" font-family="Helvetica,sans-Serif" font-size="10.00">fmt/ostream.h</text>
</a>
</g>
</g>
<!-- Node8&#45;&gt;Node9 -->
<g id="edge9" class="edge">
<title>Node8&#45;&gt;Node9</title>
<path fill="none" stroke="midnightblue" d="M1113.88,-112.32C1104.47,-104.26 1090.26,-92.08 1078.93,-82.37"/>
<polygon fill="midnightblue" stroke="midnightblue" points="1081.18,-79.68 1071.31,-75.83 1076.62,-85 1081.18,-79.68"/>
</g>
<!-- Node10 -->
<g id="node10" class="node">
<title>Node10</title>
<g id="a_node10"><a xlink:title=" ">
<polygon fill="white" stroke="#bfbfbf" points="1122,-56.5 1122,-75.5 1166,-75.5 1166,-56.5 1122,-56.5"/>
<text text-anchor="middle" x="1144" y="-63.5" font-family="Helvetica,sans-Serif" font-size="10.00">limits</text>
</a>
</g>
</g>
<!-- Node8&#45;&gt;Node10 -->
<g id="edge10" class="edge">
<title>Node8&#45;&gt;Node10</title>
<path fill="none" stroke="midnightblue" d="M1127.3,-112.08C1129.98,-104.85 1133.85,-94.41 1137.19,-85.4"/>
<polygon fill="midnightblue" stroke="midnightblue" points="1140.57,-86.34 1140.76,-75.75 1134,-83.91 1140.57,-86.34"/>
</g>
<!-- Node8&#45;&gt;Node11 -->
<g id="edge11" class="edge">
<title>Node8&#45;&gt;Node11</title>
<path fill="none" stroke="midnightblue" d="M1136.69,-112.32C1148.9,-103.98 1167.58,-91.21 1182,-81.35"/>
<polygon fill="midnightblue" stroke="midnightblue" points="1184.06,-84.19 1190.34,-75.65 1180.11,-78.41 1184.06,-84.19"/>
</g>
<!-- Node12 -->
<g id="node12" class="node">
<title>Node12</title>
<g id="a_node12"><a xlink:title=" ">
<polygon fill="white" stroke="#bfbfbf" points="952,-56.5 952,-75.5 1000,-75.5 1000,-56.5 952,-56.5"/>
<text text-anchor="middle" x="976" y="-63.5" font-family="Helvetica,sans-Serif" font-size="10.00">thread</text>
</a>
</g>
</g>
<!-- Node8&#45;&gt;Node12 -->
<g id="edge12" class="edge">
<title>Node8&#45;&gt;Node12</title>
<path fill="none" stroke="midnightblue" d="M1100.55,-112.44C1075.87,-103.44 1036.81,-89.19 1009.02,-79.05"/>
<polygon fill="midnightblue" stroke="midnightblue" points="1009.94,-75.66 999.34,-75.52 1007.54,-82.23 1009.94,-75.66"/>
</g>
<!-- Node19&#45;&gt;Node7 -->
<g id="edge40" class="edge">
<title>Node19&#45;&gt;Node7</title>
<path fill="none" stroke="midnightblue" d="M208.2,-224.13C217.88,-210.74 237.7,-185.1 259,-168 315.73,-122.45 396.23,-93.18 444.84,-78.44"/>
<polygon fill="midnightblue" stroke="midnightblue" points="446.12,-81.72 454.71,-75.52 444.13,-75.01 446.12,-81.72"/>
</g>
<!-- Node20 -->
<g id="node20" class="node">
<title>Node20</title>
<g id="a_node20"><a xlink:href="json_8h.html" target="_top" xlink:title=" ">
<polygon fill="white" stroke="black" points="268.5,-168.5 268.5,-187.5 345.5,-187.5 345.5,-168.5 268.5,-168.5"/>
<text text-anchor="middle" x="307" y="-175.5" font-family="Helvetica,sans-Serif" font-size="10.00">ccf/ds/json.h</text>
</a>
</g>
</g>
<!-- Node19&#45;&gt;Node20 -->
<g id="edge21" class="edge">
<title>Node19&#45;&gt;Node20</title>
<path fill="none" stroke="midnightblue" d="M218.87,-224.32C235.71,-215.66 261.81,-202.24 281.24,-192.25"/>
<polygon fill="midnightblue" stroke="midnightblue" points="282.88,-195.34 290.17,-187.65 279.68,-189.12 282.88,-195.34"/>
</g>
<!-- Node27 -->
<g id="node27" class="node">
<title>Node27</title>
<g id="a_node27"><a xlink:title=" ">
<polygon fill="white" stroke="#bfbfbf" points="0,-0.5 0,-19.5 42,-19.5 42,-0.5 0,-0.5"/>
<text text-anchor="middle" x="21" y="-7.5" font-family="Helvetica,sans-Serif" font-size="10.00">array</text>
</a>
</g>
</g>
<!-- Node19&#45;&gt;Node27 -->
<g id="edge38" class="edge">
<title>Node19&#45;&gt;Node27</title>
<path fill="none" stroke="midnightblue" d="M165.42,-224.47C122.96,-212.27 55.64,-185.18 31,-132 15.55,-98.65 16.51,-54.59 18.69,-29.88"/>
<polygon fill="midnightblue" stroke="midnightblue" points="22.19,-30.03 19.76,-19.72 15.23,-29.3 22.19,-30.03"/>
</g>
<!-- Node30 -->
<g id="node30" class="node">
<title>Node30</title>
<g id="a_node30"><a xlink:title=" ">
<polygon fill="white" stroke="#bfbfbf" points="96,-168.5 96,-187.5 136,-187.5 136,-168.5 96,-168.5"/>
<text text-anchor="middle" x="116" y="-175.5" font-family="Helvetica,sans-Serif" font-size="10.00">span</text>
</a>
</g>
</g>
<!-- Node19&#45;&gt;Node30 -->
<g id="edge39" class="edge">
<title>Node19&#45;&gt;Node30</title>
<path fill="none" stroke="midnightblue" d="M188.18,-224.32C174.77,-215.9 154.18,-202.97 138.41,-193.07"/>
<polygon fill="midnightblue" stroke="midnightblue" points="140.11,-190.01 129.78,-187.65 136.39,-195.94 140.11,-190.01"/>
</g>
<!-- Node20&#45;&gt;Node7 -->
<g id="edge36" class="edge">
<title>Node20&#45;&gt;Node7</title>
<path fill="none" stroke="midnightblue" d="M317.26,-168.31C333.08,-155.16 364.68,-129.82 394,-112 414.36,-99.62 438.63,-87.97 457.28,-79.63"/>
<polygon fill="midnightblue" stroke="midnightblue" points="458.72,-82.82 466.46,-75.58 455.9,-76.41 458.72,-82.82"/>
</g>
<!-- Node20&#45;&gt;Node17 -->
<g id="edge37" class="edge">
<title>Node20&#45;&gt;Node17</title>
<path fill="none" stroke="midnightblue" d="M326.65,-168.44C346.96,-159.6 378.9,-145.69 402.1,-135.59"/>
<polygon fill="midnightblue" stroke="midnightblue" points="403.67,-138.72 411.44,-131.52 400.88,-132.3 403.67,-138.72"/>
</g>
<!-- Node21 -->
<g id="node21" class="node">
<title>Node21</title>
<g id="a_node21"><a xlink:href="include_2ccf_2crypto_2base64_8h.html" target="_top" xlink:title=" ">
<polygon fill="white" stroke="black" points="309,-56.5 309,-75.5 421,-75.5 421,-56.5 309,-56.5"/>
<text text-anchor="middle" x="365" y="-63.5" font-family="Helvetica,sans-Serif" font-size="10.00">ccf/crypto/base64.h</text>
</a>
</g>
</g>
<!-- Node20&#45;&gt;Node21 -->
<g id="edge22" class="edge">
<title>Node20&#45;&gt;Node21</title>
<path fill="none" stroke="midnightblue" d="M311.55,-168.37C321.04,-150.38 343.09,-108.55 355.71,-84.63"/>
<polygon fill="midnightblue" stroke="midnightblue" points="358.9,-86.07 360.47,-75.59 352.71,-82.8 358.9,-86.07"/>
</g>
<!-- Node24 -->
<g id="node24" class="node">
<title>Node24</title>
<g id="a_node24"><a xlink:href="include_2ccf_2ds_2json__schema_8h.html" target="_top" xlink:title=" ">
<polygon fill="white" stroke="black" points="149.5,-112.5 149.5,-131.5 270.5,-131.5 270.5,-112.5 149.5,-112.5"/>
<text text-anchor="middle" x="210" y="-119.5" font-family="Helvetica,sans-Serif" font-size="10.00">ccf/ds/json_schema.h</text>
</a>
</g>
</g>
<!-- Node20&#45;&gt;Node24 -->
<g id="edge25" class="edge">
<title>Node20&#45;&gt;Node24</title>
<path fill="none" stroke="midnightblue" d="M291.42,-168.32C276,-159.74 252.19,-146.49 234.29,-136.52"/>
<polygon fill="midnightblue" stroke="midnightblue" points="235.99,-133.46 225.55,-131.65 232.58,-139.58 235.99,-133.46"/>
</g>
<!-- Node21&#45;&gt;Node22 -->
<g id="edge23" class="edge">
<title>Node21&#45;&gt;Node22</title>
<path fill="none" stroke="midnightblue" d="M421.18,-57.9C426.86,-57.23 432.54,-56.59 438,-56 608.58,-37.59 813.35,-20.15 891.52,-13.66"/>
<polygon fill="midnightblue" stroke="midnightblue" points="892.02,-17.14 901.69,-12.82 891.44,-10.16 892.02,-17.14"/>
</g>
<!-- Node23 -->
<g id="node23" class="node">
<title>Node23</title>
<g id="a_node23"><a xlink:title=" ">
<polygon fill="white" stroke="#bfbfbf" points="319.5,-0.5 319.5,-19.5 366.5,-19.5 366.5,-0.5 319.5,-0.5"/>
<text text-anchor="middle" x="343" y="-7.5" font-family="Helvetica,sans-Serif" font-size="10.00">vector</text>
</a>
</g>
</g>
<!-- Node21&#45;&gt;Node23 -->
<g id="edge24" class="edge">
<title>Node21&#45;&gt;Node23</title>
<path fill="none" stroke="midnightblue" d="M361.37,-56.08C358.39,-48.77 354.07,-38.18 350.38,-29.1"/>
<polygon fill="midnightblue" stroke="midnightblue" points="353.58,-27.69 346.57,-19.75 347.1,-30.33 353.58,-27.69"/>
</g>
<!-- Node24&#45;&gt;Node7 -->
<g id="edge34" class="edge">
<title>Node24&#45;&gt;Node7</title>
<path fill="none" stroke="midnightblue" d="M253.89,-112.44C303.8,-102.71 385.12,-86.86 437.32,-76.69"/>
<polygon fill="midnightblue" stroke="midnightblue" points="438.21,-80.08 447.35,-74.73 436.87,-73.21 438.21,-80.08"/>
</g>
<!-- Node24&#45;&gt;Node15 -->
<g id="edge35" class="edge">
<title>Node24&#45;&gt;Node15</title>
<path fill="none" stroke="midnightblue" d="M196.83,-112.32C184.15,-103.98 164.77,-91.21 149.79,-81.35"/>
<polygon fill="midnightblue" stroke="midnightblue" points="151.42,-78.23 141.14,-75.65 147.57,-84.08 151.42,-78.23"/>
</g>
<!-- Node25 -->
<g id="node25" class="node">
<title>Node25</title>
<g id="a_node25"><a xlink:href="nonstd_8h.html" target="_top" xlink:title=" ">
<polygon fill="white" stroke="black" points="201,-56.5 201,-75.5 291,-75.5 291,-56.5 201,-56.5"/>
<text text-anchor="middle" x="246" y="-63.5" font-family="Helvetica,sans-Serif" font-size="10.00">ccf/ds/nonstd.h</text>
</a>
</g>
</g>
<!-- Node24&#45;&gt;Node25 -->
<g id="edge26" class="edge">
<title>Node24&#45;&gt;Node25</title>
<path fill="none" stroke="midnightblue" d="M215.94,-112.08C220.98,-104.53 228.34,-93.49 234.51,-84.23"/>
<polygon fill="midnightblue" stroke="midnightblue" points="237.53,-86.01 240.17,-75.75 231.71,-82.13 237.53,-86.01"/>
</g>
<!-- Node25&#45;&gt;Node18 -->
<g id="edge32" class="edge">
<title>Node25&#45;&gt;Node18</title>
<path fill="none" stroke="midnightblue" d="M291.07,-57.39C294.09,-56.91 297.09,-56.44 300,-56 399.71,-40.77 517.02,-25.01 579.52,-16.79"/>
<polygon fill="midnightblue" stroke="midnightblue" points="579.97,-20.26 589.43,-15.49 579.06,-13.32 579.97,-20.26"/>
</g>
<!-- Node25&#45;&gt;Node22 -->
<g id="edge30" class="edge">
<title>Node25&#45;&gt;Node22</title>
<path fill="none" stroke="midnightblue" d="M291.04,-57.17C294.07,-56.74 297.07,-56.35 300,-56 525.64,-29.12 799.24,-16.12 891.71,-12.27"/>
<polygon fill="midnightblue" stroke="midnightblue" points="891.97,-15.76 901.82,-11.85 891.69,-8.76 891.97,-15.76"/>
</g>
<!-- Node25&#45;&gt;Node23 -->
<g id="edge33" class="edge">
<title>Node25&#45;&gt;Node23</title>
<path fill="none" stroke="midnightblue" d="M261.58,-56.32C277,-47.74 300.81,-34.49 318.71,-24.52"/>
<polygon fill="midnightblue" stroke="midnightblue" points="320.42,-27.58 327.45,-19.65 317.01,-21.46 320.42,-27.58"/>
</g>
<!-- Node26 -->
<g id="node26" class="node">
<title>Node26</title>
<g id="a_node26"><a xlink:title=" ">
<polygon fill="white" stroke="#bfbfbf" points="225,-0.5 225,-19.5 289,-19.5 289,-0.5 225,-0.5"/>
<text text-anchor="middle" x="257" y="-7.5" font-family="Helvetica,sans-Serif" font-size="10.00">algorithm</text>
</a>
</g>
</g>
<!-- Node25&#45;&gt;Node26 -->
<g id="edge27" class="edge">
<title>Node25&#45;&gt;Node26</title>
<path fill="none" stroke="midnightblue" d="M247.82,-56.08C249.27,-48.93 251.37,-38.64 253.19,-29.69"/>
<polygon fill="midnightblue" stroke="midnightblue" points="256.65,-30.25 255.22,-19.75 249.79,-28.85 256.65,-30.25"/>
</g>
<!-- Node25&#45;&gt;Node27 -->
<g id="edge28" class="edge">
<title>Node25&#45;&gt;Node27</title>
<path fill="none" stroke="midnightblue" d="M208.24,-56.42C169.65,-47.59 108.04,-33.27 55,-20 54.09,-19.77 53.17,-19.54 52.24,-19.31"/>
<polygon fill="midnightblue" stroke="midnightblue" points="52.75,-15.82 42.2,-16.71 51,-22.6 52.75,-15.82"/>
</g>
<!-- Node28 -->
<g id="node28" class="node">
<title>Node28</title>
<g id="a_node28"><a xlink:title=" ">
<polygon fill="white" stroke="#bfbfbf" points="157.5,-0.5 157.5,-19.5 206.5,-19.5 206.5,-0.5 157.5,-0.5"/>
<text text-anchor="middle" x="182" y="-7.5" font-family="Helvetica,sans-Serif" font-size="10.00">cctype</text>
</a>
</g>
</g>
<!-- Node25&#45;&gt;Node28 -->
<g id="edge29" class="edge">
<title>Node25&#45;&gt;Node28</title>
<path fill="none" stroke="midnightblue" d="M235.72,-56.32C226.16,-48.26 211.72,-36.08 200.22,-26.37"/>
<polygon fill="midnightblue" stroke="midnightblue" points="202.37,-23.61 192.47,-19.83 197.86,-28.96 202.37,-23.61"/>
</g>
<!-- Node29 -->
<g id="node29" class="node">
<title>Node29</title>
<g id="a_node29"><a xlink:title=" ">
<polygon fill="white" stroke="#bfbfbf" points="64.5,-0.5 64.5,-19.5 137.5,-19.5 137.5,-0.5 64.5,-0.5"/>
<text text-anchor="middle" x="101" y="-7.5" font-family="Helvetica,sans-Serif" font-size="10.00">string_view</text>
</a>
</g>
</g>
<!-- Node25&#45;&gt;Node29 -->
<g id="edge31" class="edge">
<title>Node25&#45;&gt;Node29</title>
<path fill="none" stroke="midnightblue" d="M223.02,-56.44C198.84,-47.44 160.58,-33.19 133.35,-23.05"/>
<polygon fill="midnightblue" stroke="midnightblue" points="134.46,-19.73 123.87,-19.52 132.02,-26.29 134.46,-19.73"/>
</g>
<!-- Node31&#45;&gt;Node7 -->
<g id="edge45" class="edge">
<title>Node31&#45;&gt;Node7</title>
<path fill="none" stroke="midnightblue" d="M477.29,-224.39C485.58,-216.02 497.14,-202.48 502,-188 513.73,-153.02 502.53,-109.58 494.19,-85.42"/>
<polygon fill="midnightblue" stroke="midnightblue" points="497.38,-83.95 490.65,-75.77 490.81,-86.36 497.38,-83.95"/>
</g>
<!-- Node31&#45;&gt;Node15 -->
<g id="edge46" class="edge">
<title>Node31&#45;&gt;Node15</title>
<path fill="none" stroke="midnightblue" d="M434.43,-227.63C358.36,-214.73 176.61,-179.48 140,-132 129.83,-118.8 127.33,-99.67 127.08,-85.58"/>
<polygon fill="midnightblue" stroke="midnightblue" points="130.58,-85.62 127.25,-75.56 123.58,-85.5 130.58,-85.62"/>
</g>
<!-- Node31&#45;&gt;Node16 -->
<g id="edge47" class="edge">
<title>Node31&#45;&gt;Node16</title>
<path fill="none" stroke="midnightblue" d="M489.51,-224.42C504.83,-217.11 524.51,-205.07 535,-188 543.46,-174.23 544.99,-155.7 544.68,-141.95"/>
<polygon fill="midnightblue" stroke="midnightblue" points="548.16,-141.52 544.1,-131.73 541.17,-141.92 548.16,-141.52"/>
</g>
<!-- Node31&#45;&gt;Node20 -->
<g id="edge42" class="edge">
<title>Node31&#45;&gt;Node20</title>
<path fill="none" stroke="midnightblue" d="M442.49,-224.44C415.4,-215.36 372.41,-200.94 342.13,-190.78"/>
<polygon fill="midnightblue" stroke="midnightblue" points="342.99,-187.38 332.39,-187.52 340.76,-194.01 342.99,-187.38"/>
</g>
<!-- Node31&#45;&gt;Node22 -->
<g id="edge48" class="edge">
<title>Node31&#45;&gt;Node22</title>
<path fill="none" stroke="midnightblue" d="M501.68,-232.54C612.15,-230.21 960.02,-216.22 1023,-132 1056.76,-86.85 976.33,-114.29 943,-76 931.79,-63.12 927.19,-43.95 925.3,-29.76"/>
<polygon fill="midnightblue" stroke="midnightblue" points="928.77,-29.26 924.29,-19.66 921.8,-29.96 928.77,-29.26"/>
</g>
<!-- Node31&#45;&gt;Node29 -->
<g id="edge49" class="edge">
<title>Node31&#45;&gt;Node29</title>
<path fill="none" stroke="midnightblue" d="M434.21,-232.6C381.71,-230.85 278.35,-222.81 199,-188 127.61,-156.68 95.94,-147.12 64,-76 56.08,-58.37 69.87,-39.28 82.81,-26.38"/>
<polygon fill="midnightblue" stroke="midnightblue" points="85.21,-28.92 90.15,-19.55 80.44,-23.79 85.21,-28.92"/>
</g>
<!-- Node32 -->
<g id="node32" class="node">
<title>Node32</title>
<g id="a_node32"><a xlink:title=" ">
<polygon fill="white" stroke="#bfbfbf" points="363.5,-168.5 363.5,-187.5 424.5,-187.5 424.5,-168.5 363.5,-168.5"/>
<text text-anchor="middle" x="394" y="-175.5" font-family="Helvetica,sans-Serif" font-size="10.00">charconv</text>
</a>
</g>
</g>
<!-- Node31&#45;&gt;Node32 -->
<g id="edge43" class="edge">
<title>Node31&#45;&gt;Node32</title>
<path fill="none" stroke="midnightblue" d="M456.11,-224.32C444.85,-216.11 427.71,-203.6 414.29,-193.81"/>
<polygon fill="midnightblue" stroke="midnightblue" points="416.25,-190.9 406.11,-187.83 412.12,-196.56 416.25,-190.9"/>
</g>
<!-- Node33 -->
<g id="node33" class="node">
<title>Node33</title>
<g id="a_node33"><a xlink:title=" ">
<polygon fill="white" stroke="#bfbfbf" points="443,-168.5 443,-187.5 493,-187.5 493,-168.5 443,-168.5"/>
<text text-anchor="middle" x="468" y="-175.5" font-family="Helvetica,sans-Serif" font-size="10.00">cstdint</text>
</a>
</g>
</g>
<!-- Node31&#45;&gt;Node33 -->
<g id="edge44" class="edge">
<title>Node31&#45;&gt;Node33</title>
<path fill="none" stroke="midnightblue" d="M468,-224.08C468,-217.01 468,-206.86 468,-197.99"/>
<polygon fill="midnightblue" stroke="midnightblue" points="471.5,-197.75 468,-187.75 464.5,-197.75 471.5,-197.75"/>
</g>
</g>
</svg>
