<?xml version="1.0" encoding="UTF-8" standalone="no"?>
<!DOCTYPE svg PUBLIC "-//W3C//DTD SVG 1.1//EN"
 "http://www.w3.org/Graphics/SVG/1.1/DTD/svg11.dtd">
<!-- Generated by graphviz version 2.43.0 (0)
 -->
<!-- Title: include/ccf/endpoint_metrics.h Pages: 1 -->
<!--zoomable 542 -->
<svg id="main" version="1.1" xmlns="http://www.w3.org/2000/svg" xmlns:xlink="http://www.w3.org/1999/xlink" xml:space="preserve" onload="init(evt)">
<style type="text/css"><![CDATA[
.edge:hover path { stroke: red; }
.edge:hover polygon { stroke: red; fill: red; }
]]></style>
<script type="text/javascript"><![CDATA[
var edges = document.getElementsByTagName('g');
if (edges && edges.length) {
  for (var i=0;i<edges.length;i++) {
    if (edges[i].id.substr(0,4)=='edge') {
      edges[i].setAttribute('class','edge');
    }
  }
}
]]></script>
        <defs>
                <circle id="rim" cx="0" cy="0" r="7"/>
                <circle id="rim2" cx="0" cy="0" r="3.5"/>
                <g id="zoomPlus">
                        <use xlink:href="#rim" fill="#404040">
                                <set attributeName="fill" to="#808080" begin="zoomplus.mouseover" end="zoomplus.mouseout"/>
                        </use>
                        <path d="M-4,0h8M0,-4v8" fill="none" stroke="white" stroke-width="1.5" pointer-events="none"/>
                </g>
                <g id="zoomMin">
                        <use xlink:href="#rim" fill="#404040">
                                <set attributeName="fill" to="#808080" begin="zoomminus.mouseover" end="zoomminus.mouseout"/>
                        </use>
                        <path d="M-4,0h8" fill="none" stroke="white" stroke-width="1.5" pointer-events="none"/>
                </g>
                <g id="dirArrow">
                        <path fill="none" stroke="white" stroke-width="1.5" d="M0,-3.0v7 M-2.5,-0.5L0,-3.0L2.5,-0.5"/>
                </g>
               <g id="resetDef">
                       <use xlink:href="#rim2" fill="#404040">
                               <set attributeName="fill" to="#808080" begin="reset.mouseover" end="reset.mouseout"/>
                       </use>
               </g>
        </defs>

<script type="text/javascript">
var viewWidth = 2487;
var viewHeight = 542;
var sectionId = 'dynsection-1';
</script>
<script xlink:href="svgpan.js"/>
<svg id="graph" class="graph">
<g id="viewport">
<title>include/ccf/endpoint_metrics.h</title>
<polygon fill="white" stroke="transparent" points="-4,4 -4,-538 2483.5,-538 2483.5,4 -4,4"/>
<!-- Node1 -->
<g id="node1" class="node">
<title>Node1</title>
<g id="a_node1"><a xlink:title=" ">
<polygon fill="#bfbfbf" stroke="black" points="1461.13,-503.5 1461.13,-533.5 1576.13,-533.5 1576.13,-503.5 1461.13,-503.5"/>
<text text-anchor="start" x="1469.13" y="-521.5" font-family="Helvetica,sans-Serif" font-size="10.00">include/ccf/endpoint</text>
<text text-anchor="middle" x="1518.63" y="-510.5" font-family="Helvetica,sans-Serif" font-size="10.00">_metrics.h</text>
</a>
</g>
</g>
<!-- Node2 -->
<g id="node2" class="node">
<title>Node2</title>
<g id="a_node2"><a xlink:href="base__endpoint__registry_8h.html" target="_top" xlink:title=" ">
<polygon fill="white" stroke="black" points="1447.13,-436.5 1447.13,-466.5 1590.13,-466.5 1590.13,-436.5 1447.13,-436.5"/>
<text text-anchor="start" x="1455.13" y="-454.5" font-family="Helvetica,sans-Serif" font-size="10.00">include/ccf/base_endpoint</text>
<text text-anchor="middle" x="1518.63" y="-443.5" font-family="Helvetica,sans-Serif" font-size="10.00">_registry.h</text>
</a>
</g>
</g>
<!-- Node1&#45;&gt;Node2 -->
<g id="edge1" class="edge">
<title>Node1&#45;&gt;Node2</title>
<path fill="none" stroke="midnightblue" d="M1518.63,-493.11C1518.63,-484.15 1518.63,-474.32 1518.63,-466.58"/>
<polygon fill="midnightblue" stroke="midnightblue" points="1515.13,-493.4 1518.63,-503.4 1522.13,-493.4 1515.13,-493.4"/>
</g>
<!-- Node3 -->
<g id="node3" class="node">
<title>Node3</title>
<g id="a_node3"><a xlink:href="common__endpoint__registry_8h.html" target="_top" xlink:title=" ">
<polygon fill="white" stroke="black" points="944.13,-369.5 944.13,-399.5 1059.13,-399.5 1059.13,-369.5 944.13,-369.5"/>
<text text-anchor="start" x="952.13" y="-387.5" font-family="Helvetica,sans-Serif" font-size="10.00">include/ccf/common</text>
<text text-anchor="middle" x="1001.63" y="-376.5" font-family="Helvetica,sans-Serif" font-size="10.00">_endpoint_registry.h</text>
</a>
</g>
</g>
<!-- Node2&#45;&gt;Node3 -->
<g id="edge2" class="edge">
<title>Node2&#45;&gt;Node3</title>
<path fill="none" stroke="midnightblue" d="M1437.08,-440.25C1331.88,-427.02 1151.52,-404.34 1059.42,-392.77"/>
<polygon fill="midnightblue" stroke="midnightblue" points="1436.66,-443.72 1447.02,-441.5 1437.53,-436.78 1436.66,-443.72"/>
</g>
<!-- Node6 -->
<g id="node6" class="node">
<title>Node6</title>
<g id="a_node6"><a xlink:href="nobuiltins_8cpp.html" target="_top" xlink:title=" ">
<polygon fill="white" stroke="black" points="696.13,-235.5 696.13,-265.5 831.13,-265.5 831.13,-235.5 696.13,-235.5"/>
<text text-anchor="start" x="704.13" y="-253.5" font-family="Helvetica,sans-Serif" font-size="10.00">samples/apps/nobuiltins</text>
<text text-anchor="middle" x="763.63" y="-242.5" font-family="Helvetica,sans-Serif" font-size="10.00">/nobuiltins.cpp</text>
</a>
</g>
</g>
<!-- Node2&#45;&gt;Node6 -->
<g id="edge35" class="edge">
<title>Node2&#45;&gt;Node6</title>
<path fill="none" stroke="midnightblue" d="M1436.83,-448.68C1298.51,-444.72 1024.68,-432.9 934.63,-400 860.77,-373.02 797.95,-297.56 774,-265.84"/>
<polygon fill="midnightblue" stroke="midnightblue" points="1436.86,-452.18 1446.96,-448.96 1437.06,-445.18 1436.86,-452.18"/>
</g>
<!-- Node27 -->
<g id="node27" class="node">
<title>Node27</title>
<g id="a_node27"><a xlink:href="ccf__global_8h.html" target="_top" xlink:title=" ">
<polygon fill="white" stroke="black" points="1205.13,-369.5 1205.13,-399.5 1316.13,-399.5 1316.13,-369.5 1205.13,-369.5"/>
<text text-anchor="start" x="1213.13" y="-387.5" font-family="Helvetica,sans-Serif" font-size="10.00">src/apps/js_v8/tmpl</text>
<text text-anchor="middle" x="1260.63" y="-376.5" font-family="Helvetica,sans-Serif" font-size="10.00">/ccf_global.h</text>
</a>
</g>
</g>
<!-- Node2&#45;&gt;Node27 -->
<g id="edge36" class="edge">
<title>Node2&#45;&gt;Node27</title>
<path fill="none" stroke="midnightblue" d="M1453.04,-433.98C1410.75,-423.32 1356.36,-409.62 1316.2,-399.5"/>
<polygon fill="midnightblue" stroke="midnightblue" points="1452.42,-437.43 1462.97,-436.48 1454.13,-430.64 1452.42,-437.43"/>
</g>
<!-- Node29 -->
<g id="node29" class="node">
<title>Node29</title>
<g id="a_node29"><a xlink:href="consensus_8h.html" target="_top" xlink:title=" ">
<polygon fill="white" stroke="black" points="1334.13,-369.5 1334.13,-399.5 1445.13,-399.5 1445.13,-369.5 1334.13,-369.5"/>
<text text-anchor="start" x="1342.13" y="-387.5" font-family="Helvetica,sans-Serif" font-size="10.00">src/apps/js_v8/tmpl</text>
<text text-anchor="middle" x="1389.63" y="-376.5" font-family="Helvetica,sans-Serif" font-size="10.00">/consensus.h</text>
</a>
</g>
</g>
<!-- Node2&#45;&gt;Node29 -->
<g id="edge39" class="edge">
<title>Node2&#45;&gt;Node29</title>
<path fill="none" stroke="midnightblue" d="M1481.63,-431.85C1461.23,-421.58 1436.32,-409.03 1417.57,-399.58"/>
<polygon fill="midnightblue" stroke="midnightblue" points="1480.14,-435.02 1490.64,-436.4 1483.29,-428.77 1480.14,-435.02"/>
</g>
<!-- Node31 -->
<g id="node31" class="node">
<title>Node31</title>
<g id="a_node31"><a xlink:href="apps_2js__v8_2tmpl_2request_8h.html" target="_top" xlink:title=" ">
<polygon fill="white" stroke="black" points="1463.13,-369.5 1463.13,-399.5 1574.13,-399.5 1574.13,-369.5 1463.13,-369.5"/>
<text text-anchor="start" x="1471.13" y="-387.5" font-family="Helvetica,sans-Serif" font-size="10.00">src/apps/js_v8/tmpl</text>
<text text-anchor="middle" x="1518.63" y="-376.5" font-family="Helvetica,sans-Serif" font-size="10.00">/request.h</text>
</a>
</g>
</g>
<!-- Node2&#45;&gt;Node31 -->
<g id="edge42" class="edge">
<title>Node2&#45;&gt;Node31</title>
<path fill="none" stroke="midnightblue" d="M1518.63,-426.11C1518.63,-417.15 1518.63,-407.32 1518.63,-399.58"/>
<polygon fill="midnightblue" stroke="midnightblue" points="1515.13,-426.4 1518.63,-436.4 1522.13,-426.4 1515.13,-426.4"/>
</g>
<!-- Node33 -->
<g id="node33" class="node">
<title>Node33</title>
<g id="a_node33"><a xlink:href="request__authn__identity_8cpp.html" target="_top" xlink:title=" ">
<polygon fill="white" stroke="black" points="1685.13,-302.5 1685.13,-332.5 1836.13,-332.5 1836.13,-302.5 1685.13,-302.5"/>
<text text-anchor="start" x="1693.13" y="-320.5" font-family="Helvetica,sans-Serif" font-size="10.00">src/apps/js_v8/tmpl</text>
<text text-anchor="middle" x="1760.63" y="-309.5" font-family="Helvetica,sans-Serif" font-size="10.00">/request_authn_identity.cpp</text>
</a>
</g>
</g>
<!-- Node2&#45;&gt;Node33 -->
<g id="edge45" class="edge">
<title>Node2&#45;&gt;Node33</title>
<path fill="none" stroke="midnightblue" d="M1600.39,-441.14C1655.51,-433.17 1721.69,-419.82 1741.63,-400 1759.56,-382.18 1761.9,-350.93 1761.55,-332.74"/>
<polygon fill="midnightblue" stroke="midnightblue" points="1599.66,-437.71 1590.24,-442.57 1600.63,-444.64 1599.66,-437.71"/>
</g>
<!-- Node34 -->
<g id="node34" class="node">
<title>Node34</title>
<g id="a_node34"><a xlink:href="request__authn__identity_8h.html" target="_top" xlink:title=" ">
<polygon fill="white" stroke="black" points="1592.63,-369.5 1592.63,-399.5 1732.63,-399.5 1732.63,-369.5 1592.63,-369.5"/>
<text text-anchor="start" x="1600.63" y="-387.5" font-family="Helvetica,sans-Serif" font-size="10.00">src/apps/js_v8/tmpl</text>
<text text-anchor="middle" x="1662.63" y="-376.5" font-family="Helvetica,sans-Serif" font-size="10.00">/request_authn_identity.h</text>
</a>
</g>
</g>
<!-- Node2&#45;&gt;Node34 -->
<g id="edge46" class="edge">
<title>Node2&#45;&gt;Node34</title>
<path fill="none" stroke="midnightblue" d="M1559.02,-432.27C1581.96,-421.92 1610.23,-409.15 1631.45,-399.58"/>
<polygon fill="midnightblue" stroke="midnightblue" points="1557.55,-429.09 1549.88,-436.4 1560.43,-435.47 1557.55,-429.09"/>
</g>
<!-- Node35 -->
<g id="node35" class="node">
<title>Node35</title>
<g id="a_node35"><a xlink:href="base__endpoint__registry_8cpp.html" target="_top" xlink:title=" ">
<polygon fill="white" stroke="black" points="1788.63,-369.5 1788.63,-399.5 1914.63,-399.5 1914.63,-369.5 1788.63,-369.5"/>
<text text-anchor="start" x="1796.63" y="-387.5" font-family="Helvetica,sans-Serif" font-size="10.00">src/endpoints/base</text>
<text text-anchor="middle" x="1851.63" y="-376.5" font-family="Helvetica,sans-Serif" font-size="10.00">_endpoint_registry.cpp</text>
</a>
</g>
</g>
<!-- Node2&#45;&gt;Node35 -->
<g id="edge49" class="edge">
<title>Node2&#45;&gt;Node35</title>
<path fill="none" stroke="midnightblue" d="M1600.36,-434.55C1658.43,-423.21 1735.27,-408.21 1788.61,-397.8"/>
<polygon fill="midnightblue" stroke="midnightblue" points="1599.62,-431.12 1590.48,-436.48 1600.96,-438 1599.62,-431.12"/>
</g>
<!-- Node36 -->
<g id="node36" class="node">
<title>Node36</title>
<g id="a_node36"><a xlink:href="wrap_8h.html" target="_top" xlink:title=" ">
<polygon fill="white" stroke="black" points="1903.63,-308 1903.63,-327 1981.63,-327 1981.63,-308 1903.63,-308"/>
<text text-anchor="middle" x="1942.63" y="-315" font-family="Helvetica,sans-Serif" font-size="10.00">src/js/wrap.h</text>
</a>
</g>
</g>
<!-- Node2&#45;&gt;Node36 -->
<g id="edge50" class="edge">
<title>Node2&#45;&gt;Node36</title>
<path fill="none" stroke="midnightblue" d="M1600.47,-450.99C1704.89,-449.86 1877.51,-441.52 1923.63,-400 1944.58,-381.14 1944.69,-344.06 1943.52,-327.21"/>
<polygon fill="midnightblue" stroke="midnightblue" points="1600.25,-447.5 1590.28,-451.08 1600.31,-454.49 1600.25,-447.5"/>
</g>
<!-- Node4 -->
<g id="node4" class="node">
<title>Node4</title>
<g id="a_node4"><a xlink:href="app__interface_8h.html" target="_top" xlink:title=" ">
<polygon fill="white" stroke="black" points="503.63,-308 503.63,-327 651.63,-327 651.63,-308 503.63,-308"/>
<text text-anchor="middle" x="577.63" y="-315" font-family="Helvetica,sans-Serif" font-size="10.00">include/ccf/app_interface.h</text>
</a>
</g>
</g>
<!-- Node3&#45;&gt;Node4 -->
<g id="edge3" class="edge">
<title>Node3&#45;&gt;Node4</title>
<path fill="none" stroke="midnightblue" d="M933.88,-373.11C850.48,-360.33 710.43,-338.86 633.11,-327"/>
<polygon fill="midnightblue" stroke="midnightblue" points="933.59,-376.61 944.01,-374.67 934.65,-369.69 933.59,-376.61"/>
</g>
<!-- Node19 -->
<g id="node19" class="node">
<title>Node19</title>
<g id="a_node19"><a xlink:href="common__endpoint__registry_8cpp.html" target="_top" xlink:title=" ">
<polygon fill="white" stroke="black" points="357.63,-302.5 357.63,-332.5 485.63,-332.5 485.63,-302.5 357.63,-302.5"/>
<text text-anchor="start" x="365.63" y="-320.5" font-family="Helvetica,sans-Serif" font-size="10.00">src/endpoints/common</text>
<text text-anchor="middle" x="421.63" y="-309.5" font-family="Helvetica,sans-Serif" font-size="10.00">_endpoint_registry.cpp</text>
</a>
</g>
</g>
<!-- Node3&#45;&gt;Node19 -->
<g id="edge21" class="edge">
<title>Node3&#45;&gt;Node19</title>
<path fill="none" stroke="midnightblue" d="M933.99,-378.86C836.55,-371.69 651.17,-356.29 494.63,-333 491.69,-332.56 488.69,-332.09 485.67,-331.58"/>
<polygon fill="midnightblue" stroke="midnightblue" points="933.78,-382.35 944,-379.59 934.28,-375.37 933.78,-382.35"/>
</g>
<!-- Node20 -->
<g id="node20" class="node">
<title>Node20</title>
<g id="a_node20"><a xlink:href="acme__challenge__frontend_8h.html" target="_top" xlink:title=" ">
<polygon fill="white" stroke="black" points="848.63,-302.5 848.63,-332.5 988.63,-332.5 988.63,-302.5 848.63,-302.5"/>
<text text-anchor="start" x="856.63" y="-320.5" font-family="Helvetica,sans-Serif" font-size="10.00">src/node/acme_challenge</text>
<text text-anchor="middle" x="918.63" y="-309.5" font-family="Helvetica,sans-Serif" font-size="10.00">_frontend.h</text>
</a>
</g>
</g>
<!-- Node3&#45;&gt;Node20 -->
<g id="edge22" class="edge">
<title>Node3&#45;&gt;Node20</title>
<path fill="none" stroke="midnightblue" d="M975.67,-363.17C962.98,-353.23 948.02,-341.51 936.61,-332.58"/>
<polygon fill="midnightblue" stroke="midnightblue" points="973.59,-365.99 983.62,-369.4 977.91,-360.47 973.59,-365.99"/>
</g>
<!-- Node24 -->
<g id="node24" class="node">
<title>Node24</title>
<g id="a_node24"><a xlink:href="member__frontend_8h.html" target="_top" xlink:title=" ">
<polygon fill="white" stroke="black" points="1639.63,-235.5 1639.63,-265.5 1759.63,-265.5 1759.63,-235.5 1639.63,-235.5"/>
<text text-anchor="start" x="1647.63" y="-253.5" font-family="Helvetica,sans-Serif" font-size="10.00">src/node/rpc/member</text>
<text text-anchor="middle" x="1699.63" y="-242.5" font-family="Helvetica,sans-Serif" font-size="10.00">_frontend.h</text>
</a>
</g>
</g>
<!-- Node3&#45;&gt;Node24 -->
<g id="edge29" class="edge">
<title>Node3&#45;&gt;Node24</title>
<path fill="none" stroke="midnightblue" d="M1064.67,-366.65C1097.43,-357.48 1137.96,-345.48 1173.63,-333 1208.07,-320.96 1214.2,-310.7 1249.63,-302 1414.81,-261.45 1462.47,-291.53 1630.63,-266 1633.54,-265.56 1636.5,-265.07 1639.49,-264.56"/>
<polygon fill="midnightblue" stroke="midnightblue" points="1063.47,-363.35 1054.77,-369.4 1065.34,-370.1 1063.47,-363.35"/>
</g>
<!-- Node25 -->
<g id="node25" class="node">
<title>Node25</title>
<g id="a_node25"><a xlink:href="node__frontend_8h.html" target="_top" xlink:title=" ">
<polygon fill="white" stroke="black" points="1006.63,-308 1006.63,-327 1164.63,-327 1164.63,-308 1006.63,-308"/>
<text text-anchor="middle" x="1085.63" y="-315" font-family="Helvetica,sans-Serif" font-size="10.00">src/node/rpc/node_frontend.h</text>
</a>
</g>
</g>
<!-- Node3&#45;&gt;Node25 -->
<g id="edge31" class="edge">
<title>Node3&#45;&gt;Node25</title>
<path fill="none" stroke="midnightblue" d="M1028.11,-363.01C1043.71,-350.94 1062.62,-336.3 1074.4,-327.19"/>
<polygon fill="midnightblue" stroke="midnightblue" points="1025.63,-360.51 1019.86,-369.4 1029.91,-366.04 1025.63,-360.51"/>
</g>
<!-- Node5 -->
<g id="node5" class="node">
<title>Node5</title>
<g id="a_node5"><a xlink:href="logging_8cpp.html" target="_top" xlink:title=" ">
<polygon fill="white" stroke="black" points="256.13,-235.5 256.13,-265.5 379.13,-265.5 379.13,-235.5 256.13,-235.5"/>
<text text-anchor="start" x="264.13" y="-253.5" font-family="Helvetica,sans-Serif" font-size="10.00">samples/apps/logging</text>
<text text-anchor="middle" x="317.63" y="-242.5" font-family="Helvetica,sans-Serif" font-size="10.00">/logging.cpp</text>
</a>
</g>
</g>
<!-- Node4&#45;&gt;Node5 -->
<g id="edge4" class="edge">
<title>Node4&#45;&gt;Node5</title>
<path fill="none" stroke="midnightblue" d="M533.54,-305.48C489.53,-294.47 421.73,-277.52 373.87,-265.56"/>
<polygon fill="midnightblue" stroke="midnightblue" points="532.82,-308.91 543.37,-307.94 534.52,-302.11 532.82,-308.91"/>
</g>
<!-- Node4&#45;&gt;Node6 -->
<g id="edge5" class="edge">
<title>Node4&#45;&gt;Node6</title>
<path fill="none" stroke="midnightblue" d="M612,-304.49C643.53,-293.47 690.25,-277.14 723.49,-265.53"/>
<polygon fill="midnightblue" stroke="midnightblue" points="610.62,-301.27 602.33,-307.87 612.93,-307.87 610.62,-301.27"/>
</g>
<!-- Node7 -->
<g id="node7" class="node">
<title>Node7</title>
<g id="a_node7"><a xlink:href="js__generic_8cpp.html" target="_top" xlink:title=" ">
<polygon fill="white" stroke="black" points="321.63,-168.5 321.63,-198.5 431.63,-198.5 431.63,-168.5 321.63,-168.5"/>
<text text-anchor="start" x="329.63" y="-186.5" font-family="Helvetica,sans-Serif" font-size="10.00">src/apps/js_generic</text>
<text text-anchor="middle" x="376.63" y="-175.5" font-family="Helvetica,sans-Serif" font-size="10.00">/js_generic.cpp</text>
</a>
</g>
</g>
<!-- Node4&#45;&gt;Node7 -->
<g id="edge6" class="edge">
<title>Node4&#45;&gt;Node7</title>
<path fill="none" stroke="midnightblue" d="M520.29,-306.26C511.7,-304.79 502.94,-303.33 494.63,-302 439.64,-293.21 283.07,-308.11 246.63,-266 219.18,-234.27 274.71,-210.74 321.51,-197.32"/>
<polygon fill="midnightblue" stroke="midnightblue" points="519.82,-309.73 530.27,-307.98 521.01,-302.83 519.82,-309.73"/>
</g>
<!-- Node8 -->
<g id="node8" class="node">
<title>Node8</title>
<g id="a_node8"><a xlink:href="js__generic__base_8cpp.html" target="_top" xlink:title=" ">
<polygon fill="white" stroke="black" points="1503.63,-235.5 1503.63,-265.5 1621.63,-265.5 1621.63,-235.5 1503.63,-235.5"/>
<text text-anchor="start" x="1511.63" y="-253.5" font-family="Helvetica,sans-Serif" font-size="10.00">src/apps/js_generic</text>
<text text-anchor="middle" x="1562.63" y="-242.5" font-family="Helvetica,sans-Serif" font-size="10.00">/js_generic_base.cpp</text>
</a>
</g>
</g>
<!-- Node4&#45;&gt;Node8 -->
<g id="edge7" class="edge">
<title>Node4&#45;&gt;Node8</title>
<path fill="none" stroke="midnightblue" d="M661.94,-311.83C713.3,-308.98 780.25,-305.28 839.63,-302 1130.74,-285.94 1205.64,-304.52 1494.63,-266 1497.5,-265.62 1500.43,-265.18 1503.39,-264.7"/>
<polygon fill="midnightblue" stroke="midnightblue" points="661.68,-308.34 651.88,-312.38 662.06,-315.32 661.68,-308.34"/>
</g>
<!-- Node9 -->
<g id="node9" class="node">
<title>Node9</title>
<g id="a_node9"><a xlink:href="js__generic__base_8h.html" target="_top" xlink:title=" ">
<polygon fill="white" stroke="black" points="397.63,-235.5 397.63,-265.5 507.63,-265.5 507.63,-235.5 397.63,-235.5"/>
<text text-anchor="start" x="405.63" y="-253.5" font-family="Helvetica,sans-Serif" font-size="10.00">src/apps/js_generic</text>
<text text-anchor="middle" x="452.63" y="-242.5" font-family="Helvetica,sans-Serif" font-size="10.00">/js_generic_base.h</text>
</a>
</g>
</g>
<!-- Node4&#45;&gt;Node9 -->
<g id="edge8" class="edge">
<title>Node4&#45;&gt;Node9</title>
<path fill="none" stroke="midnightblue" d="M552.04,-303.19C531.02,-292.26 501.31,-276.81 479.85,-265.65"/>
<polygon fill="midnightblue" stroke="midnightblue" points="550.55,-306.36 561.03,-307.87 553.78,-300.15 550.55,-306.36"/>
</g>
<!-- Node10 -->
<g id="node10" class="node">
<title>Node10</title>
<g id="a_node10"><a xlink:href="js__v8_8cpp.html" target="_top" xlink:title=" ">
<polygon fill="white" stroke="black" points="510.63,-174 510.63,-193 644.63,-193 644.63,-174 510.63,-174"/>
<text text-anchor="middle" x="577.63" y="-181" font-family="Helvetica,sans-Serif" font-size="10.00">src/apps/js_v8/js_v8.cpp</text>
</a>
</g>
</g>
<!-- Node4&#45;&gt;Node10 -->
<g id="edge10" class="edge">
<title>Node4&#45;&gt;Node10</title>
<path fill="none" stroke="midnightblue" d="M567.52,-299.19C562.57,-289.73 557.15,-277.6 554.63,-266 551.71,-252.54 551.71,-248.46 554.63,-235 558.02,-219.37 566.69,-202.78 572.36,-193.04"/>
<polygon fill="midnightblue" stroke="midnightblue" points="564.46,-300.9 572.36,-307.96 570.59,-297.51 564.46,-300.9"/>
</g>
<!-- Node11 -->
<g id="node11" class="node">
<title>Node11</title>
<g id="a_node11"><a xlink:href="js__v8__base_8cpp.html" target="_top" xlink:title=" ">
<polygon fill="white" stroke="black" points="1371.63,-235.5 1371.63,-265.5 1485.63,-265.5 1485.63,-235.5 1371.63,-235.5"/>
<text text-anchor="start" x="1379.63" y="-253.5" font-family="Helvetica,sans-Serif" font-size="10.00">src/apps/js_v8/js_v8</text>
<text text-anchor="middle" x="1428.63" y="-242.5" font-family="Helvetica,sans-Serif" font-size="10.00">_base.cpp</text>
</a>
</g>
</g>
<!-- Node4&#45;&gt;Node11 -->
<g id="edge11" class="edge">
<title>Node4&#45;&gt;Node11</title>
<path fill="none" stroke="midnightblue" d="M661.88,-311.56C829.23,-301.63 1198.24,-279.07 1324.63,-266 1339.86,-264.43 1356.3,-262.32 1371.5,-260.21"/>
<polygon fill="midnightblue" stroke="midnightblue" points="661.66,-308.07 651.88,-312.15 662.07,-315.06 661.66,-308.07"/>
</g>
<!-- Node12 -->
<g id="node12" class="node">
<title>Node12</title>
<g id="a_node12"><a xlink:href="js__v8__base_8h.html" target="_top" xlink:title=" ">
<polygon fill="white" stroke="black" points="563.63,-235.5 563.63,-265.5 677.63,-265.5 677.63,-235.5 563.63,-235.5"/>
<text text-anchor="start" x="571.63" y="-253.5" font-family="Helvetica,sans-Serif" font-size="10.00">src/apps/js_v8/js_v8</text>
<text text-anchor="middle" x="620.63" y="-242.5" font-family="Helvetica,sans-Serif" font-size="10.00">_base.h</text>
</a>
</g>
</g>
<!-- Node4&#45;&gt;Node12 -->
<g id="edge12" class="edge">
<title>Node4&#45;&gt;Node12</title>
<path fill="none" stroke="midnightblue" d="M588.97,-299.35C595.94,-288.82 604.75,-275.5 611.31,-265.59"/>
<polygon fill="midnightblue" stroke="midnightblue" points="586.03,-297.46 583.43,-307.73 591.87,-301.32 586.03,-297.46"/>
</g>
<!-- Node13 -->
<g id="node13" class="node">
<title>Node13</title>
<g id="a_node13"><a xlink:href="tpcc_8cpp.html" target="_top" xlink:title=" ">
<polygon fill="white" stroke="black" points="16.13,-241 16.13,-260 161.13,-260 161.13,-241 16.13,-241"/>
<text text-anchor="middle" x="88.63" y="-248" font-family="Helvetica,sans-Serif" font-size="10.00">src/apps/tpcc/app/tpcc.cpp</text>
</a>
</g>
</g>
<!-- Node4&#45;&gt;Node13 -->
<g id="edge14" class="edge">
<title>Node4&#45;&gt;Node13</title>
<path fill="none" stroke="midnightblue" d="M521.59,-306.23C512.59,-304.72 503.36,-303.25 494.63,-302 353.4,-281.71 316.94,-285.73 175.63,-266 163.05,-264.24 149.47,-262.1 136.88,-260.01"/>
<polygon fill="midnightblue" stroke="midnightblue" points="521.17,-309.71 531.61,-307.95 522.35,-302.81 521.17,-309.71"/>
</g>
<!-- Node14 -->
<g id="node14" class="node">
<title>Node14</title>
<g id="a_node14"><a xlink:href="enclave_2enclave_8h.html" target="_top" xlink:title=" ">
<polygon fill="white" stroke="black" points="1055.63,-56.5 1055.63,-75.5 1177.63,-75.5 1177.63,-56.5 1055.63,-56.5"/>
<text text-anchor="middle" x="1116.63" y="-63.5" font-family="Helvetica,sans-Serif" font-size="10.00">src/enclave/enclave.h</text>
</a>
</g>
</g>
<!-- Node4&#45;&gt;Node14 -->
<g id="edge15" class="edge">
<title>Node4&#45;&gt;Node14</title>
<path fill="none" stroke="midnightblue" d="M523.23,-306.2C513.72,-304.63 503.91,-303.15 494.63,-302 440.68,-295.31 43.64,-305.83 6.63,-266 -2.74,-255.91 -1.46,-246.15 6.63,-235 110.45,-92.05 211.07,-145.02 384.63,-112 512.6,-87.65 903.68,-73.48 1055.49,-68.77"/>
<polygon fill="midnightblue" stroke="midnightblue" points="522.94,-309.7 533.39,-307.93 524.12,-302.8 522.94,-309.7"/>
</g>
<!-- Node16 -->
<g id="node16" class="node">
<title>Node16</title>
<g id="a_node16"><a xlink:href="no__plugins_8cpp.html" target="_top" xlink:title=" ">
<polygon fill="white" stroke="black" points="1197.63,-241 1197.63,-260 1315.63,-260 1315.63,-241 1197.63,-241"/>
<text text-anchor="middle" x="1256.63" y="-248" font-family="Helvetica,sans-Serif" font-size="10.00">src/js/no_plugins.cpp</text>
</a>
</g>
</g>
<!-- Node4&#45;&gt;Node16 -->
<g id="edge17" class="edge">
<title>Node4&#45;&gt;Node16</title>
<path fill="none" stroke="midnightblue" d="M661.73,-312.86C779.73,-306.99 1000.91,-293.24 1187.63,-266 1198.29,-264.44 1209.78,-262.25 1220.26,-260.03"/>
<polygon fill="midnightblue" stroke="midnightblue" points="661.5,-309.36 651.68,-313.35 661.84,-316.35 661.5,-309.36"/>
</g>
<!-- Node18 -->
<g id="node18" class="node">
<title>Node18</title>
<g id="a_node18"><a xlink:href="user__frontend_8h.html" target="_top" xlink:title=" ">
<polygon fill="white" stroke="black" points="394.13,-112.5 394.13,-131.5 549.13,-131.5 549.13,-112.5 394.13,-112.5"/>
<text text-anchor="middle" x="471.63" y="-119.5" font-family="Helvetica,sans-Serif" font-size="10.00">src/node/rpc/user_frontend.h</text>
</a>
</g>
</g>
<!-- Node4&#45;&gt;Node18 -->
<g id="edge19" class="edge">
<title>Node4&#45;&gt;Node18</title>
<path fill="none" stroke="midnightblue" d="M520.3,-306.22C511.71,-304.75 502.94,-303.3 494.63,-302 437.23,-293 273.79,-309.83 235.63,-266 174.37,-195.63 342.9,-149.57 427.05,-131.56"/>
<polygon fill="midnightblue" stroke="midnightblue" points="519.83,-309.69 530.28,-307.93 521.02,-302.79 519.83,-309.69"/>
</g>
<!-- Node9&#45;&gt;Node7 -->
<g id="edge9" class="edge">
<title>Node9&#45;&gt;Node7</title>
<path fill="none" stroke="midnightblue" d="M428.53,-228.88C416.98,-219.01 403.44,-207.43 393.09,-198.58"/>
<polygon fill="midnightblue" stroke="midnightblue" points="426.27,-231.56 436.14,-235.4 430.82,-226.24 426.27,-231.56"/>
</g>
<!-- Node12&#45;&gt;Node10 -->
<g id="edge13" class="edge">
<title>Node12&#45;&gt;Node10</title>
<path fill="none" stroke="midnightblue" d="M605.73,-226.97C598.03,-215.33 589.08,-201.8 583.38,-193.19"/>
<polygon fill="midnightblue" stroke="midnightblue" points="602.87,-228.99 611.3,-235.4 608.7,-225.12 602.87,-228.99"/>
</g>
<!-- Node15 -->
<g id="node15" class="node">
<title>Node15</title>
<g id="a_node15"><a xlink:href="enclave_2main_8cpp.html" target="_top" xlink:title=" ">
<polygon fill="white" stroke="black" points="1056.63,-0.5 1056.63,-19.5 1176.63,-19.5 1176.63,-0.5 1056.63,-0.5"/>
<text text-anchor="middle" x="1116.63" y="-7.5" font-family="Helvetica,sans-Serif" font-size="10.00">src/enclave/main.cpp</text>
</a>
</g>
</g>
<!-- Node14&#45;&gt;Node15 -->
<g id="edge16" class="edge">
<title>Node14&#45;&gt;Node15</title>
<path fill="none" stroke="midnightblue" d="M1116.63,-45.8C1116.63,-36.91 1116.63,-26.78 1116.63,-19.75"/>
<polygon fill="midnightblue" stroke="midnightblue" points="1113.13,-46.08 1116.63,-56.08 1120.13,-46.08 1113.13,-46.08"/>
</g>
<!-- Node17 -->
<g id="node17" class="node">
<title>Node17</title>
<g id="a_node17"><a xlink:href="wrap_8cpp.html" target="_top" xlink:title=" ">
<polygon fill="white" stroke="black" points="1927.13,-174 1927.13,-193 2016.13,-193 2016.13,-174 1927.13,-174"/>
<text text-anchor="middle" x="1971.63" y="-181" font-family="Helvetica,sans-Serif" font-size="10.00">src/js/wrap.cpp</text>
</a>
</g>
</g>
<!-- Node16&#45;&gt;Node17 -->
<g id="edge18" class="edge">
<title>Node16&#45;&gt;Node17</title>
<path fill="none" stroke="midnightblue" d="M1324.83,-239.63C1337.39,-237.96 1350.39,-236.34 1362.63,-235 1573.29,-211.87 1825.98,-194.09 1926.86,-187.39"/>
<polygon fill="midnightblue" stroke="midnightblue" points="1324.33,-236.16 1314.88,-240.96 1325.26,-243.1 1324.33,-236.16"/>
</g>
<!-- Node18&#45;&gt;Node14 -->
<g id="edge20" class="edge">
<title>Node18&#45;&gt;Node14</title>
<path fill="none" stroke="midnightblue" d="M559.57,-113.64C692.29,-102.53 940.46,-81.75 1055.36,-72.13"/>
<polygon fill="midnightblue" stroke="midnightblue" points="559.11,-110.16 549.43,-114.49 559.69,-117.14 559.11,-110.16"/>
</g>
<!-- Node20&#45;&gt;Node14 -->
<g id="edge23" class="edge">
<title>Node20&#45;&gt;Node14</title>
<path fill="none" stroke="midnightblue" d="M895.77,-294.81C881.31,-278.34 867.15,-255.17 877.63,-235 923.69,-146.33 1040.39,-94.64 1091.74,-75.53"/>
<polygon fill="midnightblue" stroke="midnightblue" points="893.4,-297.4 902.79,-302.31 898.52,-292.62 893.4,-297.4"/>
</g>
<!-- Node21 -->
<g id="node21" class="node">
<title>Node21</title>
<g id="a_node21"><a xlink:href="ccf__acme__client_8h.html" target="_top" xlink:title=" ">
<polygon fill="white" stroke="black" points="887.13,-241 887.13,-260 1036.13,-260 1036.13,-241 887.13,-241"/>
<text text-anchor="middle" x="961.63" y="-248" font-family="Helvetica,sans-Serif" font-size="10.00">src/node/ccf_acme_client.h</text>
</a>
</g>
</g>
<!-- Node20&#45;&gt;Node21 -->
<g id="edge24" class="edge">
<title>Node20&#45;&gt;Node21</title>
<path fill="none" stroke="midnightblue" d="M933.53,-293.97C941.24,-282.33 950.19,-268.8 955.88,-260.19"/>
<polygon fill="midnightblue" stroke="midnightblue" points="930.56,-292.12 927.96,-302.4 936.4,-295.99 930.56,-292.12"/>
</g>
<!-- Node22 -->
<g id="node22" class="node">
<title>Node22</title>
<g id="a_node22"><a xlink:href="node__state_8h.html" target="_top" xlink:title=" ">
<polygon fill="white" stroke="black" points="1054.63,-174 1054.63,-193 1178.63,-193 1178.63,-174 1054.63,-174"/>
<text text-anchor="middle" x="1116.63" y="-181" font-family="Helvetica,sans-Serif" font-size="10.00">src/node/node_state.h</text>
</a>
</g>
</g>
<!-- Node21&#45;&gt;Node22 -->
<g id="edge25" class="edge">
<title>Node21&#45;&gt;Node22</title>
<path fill="none" stroke="midnightblue" d="M991.56,-236.95C1022.25,-224.08 1069.17,-204.4 1095.96,-193.17"/>
<polygon fill="midnightblue" stroke="midnightblue" points="990.08,-233.77 982.22,-240.87 992.79,-240.23 990.08,-233.77"/>
</g>
<!-- Node22&#45;&gt;Node14 -->
<g id="edge26" class="edge">
<title>Node22&#45;&gt;Node14</title>
<path fill="none" stroke="midnightblue" d="M1101.82,-165.83C1091.2,-151.8 1079.71,-131.03 1085.63,-112 1090.03,-97.87 1100.58,-84.25 1108.15,-75.77"/>
<polygon fill="midnightblue" stroke="midnightblue" points="1099.14,-168.08 1108.17,-173.62 1104.57,-163.66 1099.14,-168.08"/>
</g>
<!-- Node23 -->
<g id="node23" class="node">
<title>Node23</title>
<g id="a_node23"><a xlink:href="gov__effects_8h.html" target="_top" xlink:title=" ">
<polygon fill="white" stroke="black" points="1094.63,-112.5 1094.63,-131.5 1238.63,-131.5 1238.63,-112.5 1094.63,-112.5"/>
<text text-anchor="middle" x="1166.63" y="-119.5" font-family="Helvetica,sans-Serif" font-size="10.00">src/node/rpc/gov_effects.h</text>
</a>
</g>
</g>
<!-- Node22&#45;&gt;Node23 -->
<g id="edge27" class="edge">
<title>Node22&#45;&gt;Node23</title>
<path fill="none" stroke="midnightblue" d="M1130.36,-166.17C1139.78,-154.95 1151.91,-140.52 1159.48,-131.51"/>
<polygon fill="midnightblue" stroke="midnightblue" points="1127.55,-164.07 1123.8,-173.98 1132.91,-168.57 1127.55,-164.07"/>
</g>
<!-- Node23&#45;&gt;Node14 -->
<g id="edge28" class="edge">
<title>Node23&#45;&gt;Node14</title>
<path fill="none" stroke="midnightblue" d="M1151.56,-104.72C1142.74,-95.2 1131.97,-83.56 1124.74,-75.75"/>
<polygon fill="midnightblue" stroke="midnightblue" points="1149.01,-107.12 1158.38,-112.08 1154.15,-102.37 1149.01,-107.12"/>
</g>
<!-- Node24&#45;&gt;Node14 -->
<g id="edge30" class="edge">
<title>Node24&#45;&gt;Node14</title>
<path fill="none" stroke="midnightblue" d="M1661.06,-231.05C1598.63,-201.88 1471.01,-145.02 1357.63,-112 1297.56,-94.5 1227.01,-82.26 1177.83,-75.01"/>
<polygon fill="midnightblue" stroke="midnightblue" points="1659.6,-234.24 1670.14,-235.32 1662.58,-227.9 1659.6,-234.24"/>
</g>
<!-- Node25&#45;&gt;Node14 -->
<g id="edge32" class="edge">
<title>Node25&#45;&gt;Node14</title>
<path fill="none" stroke="midnightblue" d="M1174.88,-309.23C1234.65,-302.29 1305.73,-289.32 1324.63,-266 1367.52,-213.1 1338.42,-184.1 1247.63,-112 1224,-93.23 1192.05,-82.05 1165.63,-75.53"/>
<polygon fill="midnightblue" stroke="midnightblue" points="1174.18,-305.78 1164.63,-310.37 1174.96,-312.74 1174.18,-305.78"/>
</g>
<!-- Node26 -->
<g id="node26" class="node">
<title>Node26</title>
<g id="a_node26"><a xlink:href="jwt__key__auto__refresh_8h.html" target="_top" xlink:title=" ">
<polygon fill="white" stroke="black" points="1054.13,-235.5 1054.13,-265.5 1179.13,-265.5 1179.13,-235.5 1054.13,-235.5"/>
<text text-anchor="start" x="1062.13" y="-253.5" font-family="Helvetica,sans-Serif" font-size="10.00">src/node/jwt_key_auto</text>
<text text-anchor="middle" x="1116.63" y="-242.5" font-family="Helvetica,sans-Serif" font-size="10.00">_refresh.h</text>
</a>
</g>
</g>
<!-- Node25&#45;&gt;Node26 -->
<g id="edge33" class="edge">
<title>Node25&#45;&gt;Node26</title>
<path fill="none" stroke="midnightblue" d="M1094.27,-298.39C1099.22,-288.02 1105.33,-275.2 1109.91,-265.59"/>
<polygon fill="midnightblue" stroke="midnightblue" points="1090.96,-297.2 1089.81,-307.73 1097.28,-300.21 1090.96,-297.2"/>
</g>
<!-- Node26&#45;&gt;Node22 -->
<g id="edge34" class="edge">
<title>Node26&#45;&gt;Node22</title>
<path fill="none" stroke="midnightblue" d="M1116.63,-225.25C1116.63,-214.02 1116.63,-201.38 1116.63,-193.19"/>
<polygon fill="midnightblue" stroke="midnightblue" points="1113.13,-225.4 1116.63,-235.4 1120.13,-225.4 1113.13,-225.4"/>
</g>
<!-- Node27&#45;&gt;Node11 -->
<g id="edge37" class="edge">
<title>Node27&#45;&gt;Node11</title>
<path fill="none" stroke="midnightblue" d="M1249,-359.68C1242.24,-342.06 1237.24,-318.37 1249.63,-302 1257.23,-291.96 1322.04,-275.4 1371.51,-264"/>
<polygon fill="midnightblue" stroke="midnightblue" points="1245.94,-361.42 1253.07,-369.26 1252.38,-358.69 1245.94,-361.42"/>
</g>
<!-- Node28 -->
<g id="node28" class="node">
<title>Node28</title>
<g id="a_node28"><a xlink:href="ccf__global_8cpp.html" target="_top" xlink:title=" ">
<polygon fill="white" stroke="black" points="1259.13,-302.5 1259.13,-332.5 1370.13,-332.5 1370.13,-302.5 1259.13,-302.5"/>
<text text-anchor="start" x="1267.13" y="-320.5" font-family="Helvetica,sans-Serif" font-size="10.00">src/apps/js_v8/tmpl</text>
<text text-anchor="middle" x="1314.63" y="-309.5" font-family="Helvetica,sans-Serif" font-size="10.00">/ccf_global.cpp</text>
</a>
</g>
</g>
<!-- Node27&#45;&gt;Node28 -->
<g id="edge38" class="edge">
<title>Node27&#45;&gt;Node28</title>
<path fill="none" stroke="midnightblue" d="M1278.95,-361.45C1286.89,-351.9 1295.94,-341 1302.94,-332.58"/>
<polygon fill="midnightblue" stroke="midnightblue" points="1276.05,-359.47 1272.35,-369.4 1281.43,-363.94 1276.05,-359.47"/>
</g>
<!-- Node29&#45;&gt;Node28 -->
<g id="edge40" class="edge">
<title>Node29&#45;&gt;Node28</title>
<path fill="none" stroke="midnightblue" d="M1365.51,-362.6C1354.19,-352.78 1340.99,-341.34 1330.87,-332.58"/>
<polygon fill="midnightblue" stroke="midnightblue" points="1363.51,-365.49 1373.36,-369.4 1368.09,-360.2 1363.51,-365.49"/>
</g>
<!-- Node30 -->
<g id="node30" class="node">
<title>Node30</title>
<g id="a_node30"><a xlink:href="apps_2js__v8_2tmpl_2consensus_8cpp.html" target="_top" xlink:title=" ">
<polygon fill="white" stroke="black" points="1388.13,-302.5 1388.13,-332.5 1499.13,-332.5 1499.13,-302.5 1388.13,-302.5"/>
<text text-anchor="start" x="1396.13" y="-320.5" font-family="Helvetica,sans-Serif" font-size="10.00">src/apps/js_v8/tmpl</text>
<text text-anchor="middle" x="1443.63" y="-309.5" font-family="Helvetica,sans-Serif" font-size="10.00">/consensus.cpp</text>
</a>
</g>
</g>
<!-- Node29&#45;&gt;Node30 -->
<g id="edge41" class="edge">
<title>Node29&#45;&gt;Node30</title>
<path fill="none" stroke="midnightblue" d="M1407.95,-361.45C1415.89,-351.9 1424.94,-341 1431.94,-332.58"/>
<polygon fill="midnightblue" stroke="midnightblue" points="1405.05,-359.47 1401.35,-369.4 1410.43,-363.94 1405.05,-359.47"/>
</g>
<!-- Node31&#45;&gt;Node11 -->
<g id="edge43" class="edge">
<title>Node31&#45;&gt;Node11</title>
<path fill="none" stroke="midnightblue" d="M1520.53,-358.94C1520.68,-341.73 1518.41,-318.88 1507.63,-302 1497.3,-285.81 1479.71,-273.81 1463.74,-265.59"/>
<polygon fill="midnightblue" stroke="midnightblue" points="1517.02,-359.2 1520.14,-369.32 1524.01,-359.45 1517.02,-359.2"/>
</g>
<!-- Node32 -->
<g id="node32" class="node">
<title>Node32</title>
<g id="a_node32"><a xlink:href="request_8cpp.html" target="_top" xlink:title=" ">
<polygon fill="white" stroke="black" points="1556.13,-302.5 1556.13,-332.5 1667.13,-332.5 1667.13,-302.5 1556.13,-302.5"/>
<text text-anchor="start" x="1564.13" y="-320.5" font-family="Helvetica,sans-Serif" font-size="10.00">src/apps/js_v8/tmpl</text>
<text text-anchor="middle" x="1611.63" y="-309.5" font-family="Helvetica,sans-Serif" font-size="10.00">/request.cpp</text>
</a>
</g>
</g>
<!-- Node31&#45;&gt;Node32 -->
<g id="edge44" class="edge">
<title>Node31&#45;&gt;Node32</title>
<path fill="none" stroke="midnightblue" d="M1547.32,-363.45C1561.62,-353.45 1578.58,-341.6 1591.49,-332.58"/>
<polygon fill="midnightblue" stroke="midnightblue" points="1545,-360.8 1538.81,-369.4 1549.01,-366.54 1545,-360.8"/>
</g>
<!-- Node34&#45;&gt;Node32 -->
<g id="edge47" class="edge">
<title>Node34&#45;&gt;Node32</title>
<path fill="none" stroke="midnightblue" d="M1645.33,-361.45C1637.84,-351.9 1629.29,-341 1622.68,-332.58"/>
<polygon fill="midnightblue" stroke="midnightblue" points="1642.64,-363.69 1651.57,-369.4 1648.15,-359.37 1642.64,-363.69"/>
</g>
<!-- Node34&#45;&gt;Node33 -->
<g id="edge48" class="edge">
<title>Node34&#45;&gt;Node33</title>
<path fill="none" stroke="midnightblue" d="M1692.43,-363.73C1707.6,-353.68 1725.68,-341.68 1739.41,-332.58"/>
<polygon fill="midnightblue" stroke="midnightblue" points="1690.3,-360.95 1683.9,-369.4 1694.17,-366.79 1690.3,-360.95"/>
</g>
<!-- Node36&#45;&gt;Node8 -->
<g id="edge51" class="edge">
<title>Node36&#45;&gt;Node8</title>
<path fill="none" stroke="midnightblue" d="M1893.49,-308.85C1818.78,-297.17 1680.08,-275.27 1630.63,-266 1627.79,-265.47 1624.87,-264.91 1621.94,-264.33"/>
<polygon fill="midnightblue" stroke="midnightblue" points="1893.17,-312.34 1903.59,-310.43 1894.25,-305.43 1893.17,-312.34"/>
</g>
<!-- Node36&#45;&gt;Node14 -->
<g id="edge52" class="edge">
<title>Node36&#45;&gt;Node14</title>
<path fill="none" stroke="midnightblue" d="M1991.8,-315.5C2117.06,-312.45 2440.62,-301.21 2472.63,-266 2481.9,-255.81 2481.62,-245.44 2472.63,-235 2386.76,-135.3 1431.16,-82.22 1177.92,-69.85"/>
<polygon fill="midnightblue" stroke="midnightblue" points="1991.63,-312 1981.71,-315.74 1991.79,-319 1991.63,-312"/>
</g>
<!-- Node36&#45;&gt;Node17 -->
<g id="edge62" class="edge">
<title>Node36&#45;&gt;Node17</title>
<path fill="none" stroke="midnightblue" d="M1896.7,-304.55C1877.09,-296.93 1856.11,-284.82 1844.63,-266 1837.46,-254.24 1836.9,-246.4 1844.63,-235 1862.95,-208 1898.23,-195.44 1926.96,-189.59"/>
<polygon fill="midnightblue" stroke="midnightblue" points="1895.58,-307.87 1906.17,-307.94 1897.94,-301.28 1895.58,-307.87"/>
</g>
<!-- Node36&#45;&gt;Node22 -->
<g id="edge63" class="edge">
<title>Node36&#45;&gt;Node22</title>
<path fill="none" stroke="midnightblue" d="M1914.96,-303.58C1893.14,-293.38 1861.94,-278.8 1834.63,-266 1805.29,-252.25 1799.97,-243.28 1768.63,-235 1658.31,-205.86 1319.29,-191.35 1178.71,-186.46"/>
<polygon fill="midnightblue" stroke="midnightblue" points="1913.74,-306.87 1924.28,-307.93 1916.7,-300.53 1913.74,-306.87"/>
</g>
<!-- Node36&#45;&gt;Node24 -->
<g id="edge64" class="edge">
<title>Node36&#45;&gt;Node24</title>
<path fill="none" stroke="midnightblue" d="M1900.91,-305.34C1859.76,-294.33 1796.74,-277.47 1752.19,-265.56"/>
<polygon fill="midnightblue" stroke="midnightblue" points="1900.05,-308.73 1910.61,-307.94 1901.86,-301.97 1900.05,-308.73"/>
</g>
<!-- Node37 -->
<g id="node37" class="node">
<title>Node37</title>
<g id="a_node37"><a xlink:href="js_2consensus_8cpp.html" target="_top" xlink:title=" ">
<polygon fill="white" stroke="black" points="1853.63,-241 1853.63,-260 1969.63,-260 1969.63,-241 1853.63,-241"/>
<text text-anchor="middle" x="1911.63" y="-248" font-family="Helvetica,sans-Serif" font-size="10.00">src/js/consensus.cpp</text>
</a>
</g>
</g>
<!-- Node36&#45;&gt;Node37 -->
<g id="edge53" class="edge">
<title>Node36&#45;&gt;Node37</title>
<path fill="none" stroke="midnightblue" d="M1934.13,-298.66C1928.15,-286.13 1920.41,-269.91 1915.75,-260.13"/>
<polygon fill="midnightblue" stroke="midnightblue" points="1930.99,-300.21 1938.45,-307.73 1937.31,-297.2 1930.99,-300.21"/>
</g>
<!-- Node38 -->
<g id="node38" class="node">
<title>Node38</title>
<g id="a_node38"><a xlink:href="conv_8cpp.html" target="_top" xlink:title=" ">
<polygon fill="white" stroke="black" points="1987.63,-241 1987.63,-260 2075.63,-260 2075.63,-241 1987.63,-241"/>
<text text-anchor="middle" x="2031.63" y="-248" font-family="Helvetica,sans-Serif" font-size="10.00">src/js/conv.cpp</text>
</a>
</g>
</g>
<!-- Node36&#45;&gt;Node38 -->
<g id="edge55" class="edge">
<title>Node36&#45;&gt;Node38</title>
<path fill="none" stroke="midnightblue" d="M1963.08,-301.57C1980.65,-288.74 2005.36,-270.69 2019.82,-260.13"/>
<polygon fill="midnightblue" stroke="midnightblue" points="1960.65,-299.01 1954.64,-307.73 1964.78,-304.66 1960.65,-299.01"/>
</g>
<!-- Node39 -->
<g id="node39" class="node">
<title>Node39</title>
<g id="a_node39"><a xlink:href="js_2crypto_8cpp.html" target="_top" xlink:title=" ">
<polygon fill="white" stroke="black" points="2093.63,-241 2093.63,-260 2189.63,-260 2189.63,-241 2093.63,-241"/>
<text text-anchor="middle" x="2141.63" y="-248" font-family="Helvetica,sans-Serif" font-size="10.00">src/js/crypto.cpp</text>
</a>
</g>
</g>
<!-- Node36&#45;&gt;Node39 -->
<g id="edge57" class="edge">
<title>Node36&#45;&gt;Node39</title>
<path fill="none" stroke="midnightblue" d="M1978.81,-304.68C2018.25,-291.8 2080.41,-271.5 2115.41,-260.06"/>
<polygon fill="midnightblue" stroke="midnightblue" points="1977.48,-301.44 1969.06,-307.87 1979.65,-308.09 1977.48,-301.44"/>
</g>
<!-- Node40 -->
<g id="node40" class="node">
<title>Node40</title>
<g id="a_node40"><a xlink:href="js_2historical_8cpp.html" target="_top" xlink:title=" ">
<polygon fill="white" stroke="black" points="2207.63,-241 2207.63,-260 2317.63,-260 2317.63,-241 2207.63,-241"/>
<text text-anchor="middle" x="2262.63" y="-248" font-family="Helvetica,sans-Serif" font-size="10.00">src/js/historical.cpp</text>
</a>
</g>
</g>
<!-- Node36&#45;&gt;Node40 -->
<g id="edge59" class="edge">
<title>Node36&#45;&gt;Node40</title>
<path fill="none" stroke="midnightblue" d="M1991.61,-307.26C2043.2,-297.43 2126.76,-281.23 2198.63,-266 2207.44,-264.13 2216.9,-262.04 2225.78,-260.03"/>
<polygon fill="midnightblue" stroke="midnightblue" points="1990.91,-303.83 1981.74,-309.14 1992.21,-310.71 1990.91,-303.83"/>
</g>
<!-- Node41 -->
<g id="node41" class="node">
<title>Node41</title>
<g id="a_node41"><a xlink:href="openenclave_8cpp.html" target="_top" xlink:title=" ">
<polygon fill="white" stroke="black" points="2335.63,-241 2335.63,-260 2463.63,-260 2463.63,-241 2335.63,-241"/>
<text text-anchor="middle" x="2399.63" y="-248" font-family="Helvetica,sans-Serif" font-size="10.00">src/js/openenclave.cpp</text>
</a>
</g>
</g>
<!-- Node36&#45;&gt;Node41 -->
<g id="edge61" class="edge">
<title>Node36&#45;&gt;Node41</title>
<path fill="none" stroke="midnightblue" d="M1992.03,-311.05C2065.29,-302.73 2206.96,-285.73 2326.63,-266 2337.21,-264.26 2348.61,-262.12 2359.17,-260.03"/>
<polygon fill="midnightblue" stroke="midnightblue" points="1991.27,-307.61 1981.73,-312.21 1992.06,-314.57 1991.27,-307.61"/>
</g>
<!-- Node37&#45;&gt;Node17 -->
<g id="edge54" class="edge">
<title>Node37&#45;&gt;Node17</title>
<path fill="none" stroke="midnightblue" d="M1926.74,-233.13C1938.47,-220.42 1954.28,-203.3 1963.67,-193.13"/>
<polygon fill="midnightblue" stroke="midnightblue" points="1923.94,-231.01 1919.72,-240.73 1929.08,-235.76 1923.94,-231.01"/>
</g>
<!-- Node38&#45;&gt;Node17 -->
<g id="edge56" class="edge">
<title>Node38&#45;&gt;Node17</title>
<path fill="none" stroke="midnightblue" d="M2016.53,-233.13C2004.79,-220.42 1988.98,-203.3 1979.6,-193.13"/>
<polygon fill="midnightblue" stroke="midnightblue" points="2014.19,-235.76 2023.54,-240.73 2019.33,-231.01 2014.19,-235.76"/>
</g>
<!-- Node39&#45;&gt;Node17 -->
<g id="edge58" class="edge">
<title>Node39&#45;&gt;Node17</title>
<path fill="none" stroke="midnightblue" d="M2109.65,-237.27C2075.91,-224.37 2023.62,-204.38 1994.03,-193.06"/>
<polygon fill="midnightblue" stroke="midnightblue" points="2108.47,-240.57 2119.06,-240.87 2110.97,-234.03 2108.47,-240.57"/>
</g>
<!-- Node40&#45;&gt;Node17 -->
<g id="edge60" class="edge">
<title>Node40&#45;&gt;Node17</title>
<path fill="none" stroke="midnightblue" d="M2215.15,-238.72C2209.58,-237.46 2203.98,-236.2 2198.63,-235 2132.45,-220.14 2055.37,-203.04 2010.2,-193.03"/>
<polygon fill="midnightblue" stroke="midnightblue" points="2214.55,-242.17 2225.07,-240.96 2216.09,-235.35 2214.55,-242.17"/>
</g>
</g>
</svg>
        <g id="navigator" transform="translate(0 0)" fill="#404254">
                <rect fill="#f2f5e9" fill-opacity="0.5" stroke="#606060" stroke-width=".5" x="0" y="0" width="60" height="60"/>
                <use id="zoomplus" xlink:href="#zoomPlus" x="17" y="9" onmousedown="handleZoom(evt,'in')"/>
                <use id="zoomminus" xlink:href="#zoomMin" x="42" y="9" onmousedown="handleZoom(evt,'out')"/>
                <use id="reset" xlink:href="#resetDef" x="30" y="36" onmousedown="handleReset()"/>
                <g id="arrowUp" xlink:href="#dirArrow" transform="translate(30 24)" onmousedown="handlePan(0,-1)">
                  <use xlink:href="#rim" fill="#404040">
                        <set attributeName="fill" to="#808080" begin="arrowUp.mouseover" end="arrowUp.mouseout"/>
                  </use>
                  <path fill="none" stroke="white" stroke-width="1.5" d="M0,-3.0v7 M-2.5,-0.5L0,-3.0L2.5,-0.5"/>
                </g>
                <g id="arrowRight" xlink:href="#dirArrow" transform="rotate(90) translate(36 -43)" onmousedown="handlePan(1,0)">
                  <use xlink:href="#rim" fill="#404040">
                        <set attributeName="fill" to="#808080" begin="arrowRight.mouseover" end="arrowRight.mouseout"/>
                  </use>
                  <path fill="none" stroke="white" stroke-width="1.5" d="M0,-3.0v7 M-2.5,-0.5L0,-3.0L2.5,-0.5"/>
                </g>
                <g id="arrowDown" xlink:href="#dirArrow" transform="rotate(180) translate(-30 -48)" onmousedown="handlePan(0,1)">
                  <use xlink:href="#rim" fill="#404040">
                        <set attributeName="fill" to="#808080" begin="arrowDown.mouseover" end="arrowDown.mouseout"/>
                  </use>
                  <path fill="none" stroke="white" stroke-width="1.5" d="M0,-3.0v7 M-2.5,-0.5L0,-3.0L2.5,-0.5"/>
                </g>
                <g id="arrowLeft" xlink:href="#dirArrow" transform="rotate(270) translate(-36 17)" onmousedown="handlePan(-1,0)">
                  <use xlink:href="#rim" fill="#404040">
                        <set attributeName="fill" to="#808080" begin="arrowLeft.mouseover" end="arrowLeft.mouseout"/>
                  </use>
                  <path fill="none" stroke="white" stroke-width="1.5" d="M0,-3.0v7 M-2.5,-0.5L0,-3.0L2.5,-0.5"/>
                </g>
        </g>
        <svg viewBox="0 0 15 15" width="100%" height="30px" preserveAspectRatio="xMaxYMin meet">
         <g id="arrow_out" transform="scale(0.3 0.3)">
          <a xlink:href="endpoint__metrics_8h__dep__incl_org.svg" target="_base">
           <rect id="button" ry="5" rx="5" y="6" x="6" height="38" width="38"
                fill="#f2f5e9" fill-opacity="0.5" stroke="#606060" stroke-width="1.0"/>
           <path id="arrow"
             d="M 11.500037,31.436501 C 11.940474,20.09759 22.043105,11.32322 32.158766,21.979434 L 37.068811,17.246167 C 37.068811,17.246167 37.088388,32 37.088388,32 L 22.160133,31.978069 C 22.160133,31.978069 26.997745,27.140456 26.997745,27.140456 C 18.528582,18.264221 13.291696,25.230495 11.500037,31.436501 z"
             style="fill:#404040;"/>
          </a>
         </g>
        </svg>
</svg>
