<?xml version="1.0" encoding="UTF-8" standalone="no"?>
<!DOCTYPE svg PUBLIC "-//W3C//DTD SVG 1.1//EN"
 "http://www.w3.org/Graphics/SVG/1.1/DTD/svg11.dtd">
<!-- Generated by graphviz version 2.43.0 (0)
 -->
<!-- Title: include/ccf/entity_id.h Pages: 1 -->
<!--zoomable 330 -->
<svg id="main" version="1.1" xmlns="http://www.w3.org/2000/svg" xmlns:xlink="http://www.w3.org/1999/xlink" xml:space="preserve" onload="init(evt)">
<style type="text/css"><![CDATA[
.edge:hover path { stroke: red; }
.edge:hover polygon { stroke: red; fill: red; }
]]></style>
<script type="text/javascript"><![CDATA[
var edges = document.getElementsByTagName('g');
if (edges && edges.length) {
  for (var i=0;i<edges.length;i++) {
    if (edges[i].id.substr(0,4)=='edge') {
      edges[i].setAttribute('class','edge');
    }
  }
}
]]></script>
        <defs>
                <circle id="rim" cx="0" cy="0" r="7"/>
                <circle id="rim2" cx="0" cy="0" r="3.5"/>
                <g id="zoomPlus">
                        <use xlink:href="#rim" fill="#404040">
                                <set attributeName="fill" to="#808080" begin="zoomplus.mouseover" end="zoomplus.mouseout"/>
                        </use>
                        <path d="M-4,0h8M0,-4v8" fill="none" stroke="white" stroke-width="1.5" pointer-events="none"/>
                </g>
                <g id="zoomMin">
                        <use xlink:href="#rim" fill="#404040">
                                <set attributeName="fill" to="#808080" begin="zoomminus.mouseover" end="zoomminus.mouseout"/>
                        </use>
                        <path d="M-4,0h8" fill="none" stroke="white" stroke-width="1.5" pointer-events="none"/>
                </g>
                <g id="dirArrow">
                        <path fill="none" stroke="white" stroke-width="1.5" d="M0,-3.0v7 M-2.5,-0.5L0,-3.0L2.5,-0.5"/>
                </g>
               <g id="resetDef">
                       <use xlink:href="#rim2" fill="#404040">
                               <set attributeName="fill" to="#808080" begin="reset.mouseover" end="reset.mouseout"/>
                       </use>
               </g>
        </defs>

<script type="text/javascript">
var viewWidth = 805;
var viewHeight = 330;
var sectionId = 'dynsection-0';
</script>
<script xlink:href="svgpan.js"/>
<svg id="graph" class="graph">
<g id="viewport">
<title>include/ccf/entity_id.h</title>
<polygon fill="white" stroke="transparent" points="-4,4 -4,-326 800.5,-326 800.5,4 -4,4"/>
<!-- Node1 -->
<g id="node1" class="node">
<title>Node1</title>
<g id="a_node1"><a xlink:title=" ">
<polygon fill="#bfbfbf" stroke="black" points="238,-302.5 238,-321.5 362,-321.5 362,-302.5 238,-302.5"/>
<text text-anchor="middle" x="300" y="-309.5" font-family="Helvetica,sans-Serif" font-size="10.00">include/ccf/entity_id.h</text>
</a>
</g>
</g>
<!-- Node2 -->
<g id="node2" class="node">
<title>Node2</title>
<g id="a_node2"><a xlink:href="json_8h.html" target="_top" xlink:title=" ">
<polygon fill="white" stroke="black" points="419.5,-174 419.5,-193 496.5,-193 496.5,-174 419.5,-174"/>
<text text-anchor="middle" x="458" y="-181" font-family="Helvetica,sans-Serif" font-size="10.00">ccf/ds/json.h</text>
</a>
</g>
</g>
<!-- Node1&#45;&gt;Node2 -->
<g id="edge1" class="edge">
<title>Node1&#45;&gt;Node2</title>
<path fill="none" stroke="midnightblue" d="M311.41,-302.5C323.36,-293.54 342.64,-278.96 359,-266 387.57,-243.36 420.1,-216.33 439.83,-199.8"/>
<polygon fill="midnightblue" stroke="midnightblue" points="442.29,-202.3 447.7,-193.19 437.79,-196.94 442.29,-202.3"/>
</g>
<!-- Node4 -->
<g id="node4" class="node">
<title>Node4</title>
<g id="a_node4"><a xlink:title=" ">
<polygon fill="white" stroke="#bfbfbf" points="364,-0.5 364,-19.5 408,-19.5 408,-0.5 364,-0.5"/>
<text text-anchor="middle" x="386" y="-7.5" font-family="Helvetica,sans-Serif" font-size="10.00">string</text>
</a>
</g>
</g>
<!-- Node1&#45;&gt;Node4 -->
<g id="edge28" class="edge">
<title>Node1&#45;&gt;Node4</title>
<path fill="none" stroke="midnightblue" d="M268.77,-302.43C221.18,-287.26 136,-250.84 136,-184.5 136,-184.5 136,-184.5 136,-121 136,-91.02 131.85,-76.2 154,-56 218.45,2.78 262.86,-37.29 353.85,-19.66"/>
<polygon fill="midnightblue" stroke="midnightblue" points="354.64,-23.08 363.69,-17.57 353.18,-16.23 354.64,-23.08"/>
</g>
<!-- Node16 -->
<g id="node16" class="node">
<title>Node16</title>
<g id="a_node16"><a xlink:href="blit__serialiser_8h.html" target="_top" xlink:title=" ">
<polygon fill="white" stroke="black" points="250.5,-235.5 250.5,-265.5 349.5,-265.5 349.5,-235.5 250.5,-235.5"/>
<text text-anchor="start" x="258.5" y="-253.5" font-family="Helvetica,sans-Serif" font-size="10.00">ccf/kv/serialisers</text>
<text text-anchor="middle" x="300" y="-242.5" font-family="Helvetica,sans-Serif" font-size="10.00">/blit_serialiser.h</text>
</a>
</g>
</g>
<!-- Node1&#45;&gt;Node16 -->
<g id="edge18" class="edge">
<title>Node1&#45;&gt;Node16</title>
<path fill="none" stroke="midnightblue" d="M300,-302.48C300,-295.47 300,-285.19 300,-275.7"/>
<polygon fill="midnightblue" stroke="midnightblue" points="303.5,-275.52 300,-265.52 296.5,-275.52 303.5,-275.52"/>
</g>
<!-- Node3 -->
<g id="node3" class="node">
<title>Node3</title>
<g id="a_node3"><a xlink:href="include_2ccf_2crypto_2base64_8h.html" target="_top" xlink:title=" ">
<polygon fill="white" stroke="black" points="330,-56.5 330,-75.5 442,-75.5 442,-56.5 330,-56.5"/>
<text text-anchor="middle" x="386" y="-63.5" font-family="Helvetica,sans-Serif" font-size="10.00">ccf/crypto/base64.h</text>
</a>
</g>
</g>
<!-- Node2&#45;&gt;Node3 -->
<g id="edge2" class="edge">
<title>Node2&#45;&gt;Node3</title>
<path fill="none" stroke="midnightblue" d="M447.53,-173.8C436.83,-164.44 420.36,-148.63 410,-132 401.06,-117.64 394.7,-99.44 390.78,-85.96"/>
<polygon fill="midnightblue" stroke="midnightblue" points="394.06,-84.66 388.06,-75.92 387.3,-86.49 394.06,-84.66"/>
</g>
<!-- Node6 -->
<g id="node6" class="node">
<title>Node6</title>
<g id="a_node6"><a xlink:href="include_2ccf_2ds_2json__schema_8h.html" target="_top" xlink:title=" ">
<polygon fill="white" stroke="black" points="538.5,-112.5 538.5,-131.5 659.5,-131.5 659.5,-112.5 538.5,-112.5"/>
<text text-anchor="middle" x="599" y="-119.5" font-family="Helvetica,sans-Serif" font-size="10.00">ccf/ds/json_schema.h</text>
</a>
</g>
</g>
<!-- Node2&#45;&gt;Node6 -->
<g id="edge5" class="edge">
<title>Node2&#45;&gt;Node6</title>
<path fill="none" stroke="midnightblue" d="M478.2,-173.98C502.07,-163.9 542,-147.05 569.37,-135.5"/>
<polygon fill="midnightblue" stroke="midnightblue" points="570.98,-138.62 578.84,-131.51 568.26,-132.17 570.98,-138.62"/>
</g>
<!-- Node13 -->
<g id="node13" class="node">
<title>Node13</title>
<g id="a_node13"><a xlink:title=" ">
<polygon fill="white" stroke="#bfbfbf" points="460.5,-56.5 460.5,-75.5 539.5,-75.5 539.5,-56.5 460.5,-56.5"/>
<text text-anchor="middle" x="500" y="-63.5" font-family="Helvetica,sans-Serif" font-size="10.00">fmt/format.h</text>
</a>
</g>
</g>
<!-- Node2&#45;&gt;Node13 -->
<g id="edge16" class="edge">
<title>Node2&#45;&gt;Node13</title>
<path fill="none" stroke="midnightblue" d="M463.25,-173.85C469.03,-164.01 478.26,-147.33 484,-132 489.68,-116.85 493.91,-98.95 496.59,-85.78"/>
<polygon fill="midnightblue" stroke="midnightblue" points="500.1,-86.09 498.55,-75.61 493.22,-84.77 500.1,-86.09"/>
</g>
<!-- Node15 -->
<g id="node15" class="node">
<title>Node15</title>
<g id="a_node15"><a xlink:title=" ">
<polygon fill="white" stroke="#bfbfbf" points="419,-112.5 419,-131.5 475,-131.5 475,-112.5 419,-112.5"/>
<text text-anchor="middle" x="447" y="-119.5" font-family="Helvetica,sans-Serif" font-size="10.00">sstream</text>
</a>
</g>
</g>
<!-- Node2&#45;&gt;Node15 -->
<g id="edge17" class="edge">
<title>Node2&#45;&gt;Node15</title>
<path fill="none" stroke="midnightblue" d="M456.42,-173.98C454.87,-165.58 452.45,-152.48 450.45,-141.66"/>
<polygon fill="midnightblue" stroke="midnightblue" points="453.83,-140.71 448.57,-131.51 446.95,-141.98 453.83,-140.71"/>
</g>
<!-- Node3&#45;&gt;Node4 -->
<g id="edge3" class="edge">
<title>Node3&#45;&gt;Node4</title>
<path fill="none" stroke="midnightblue" d="M386,-56.08C386,-49.01 386,-38.86 386,-29.99"/>
<polygon fill="midnightblue" stroke="midnightblue" points="389.5,-29.75 386,-19.75 382.5,-29.75 389.5,-29.75"/>
</g>
<!-- Node5 -->
<g id="node5" class="node">
<title>Node5</title>
<g id="a_node5"><a xlink:title=" ">
<polygon fill="white" stroke="#bfbfbf" points="298.5,-0.5 298.5,-19.5 345.5,-19.5 345.5,-0.5 298.5,-0.5"/>
<text text-anchor="middle" x="322" y="-7.5" font-family="Helvetica,sans-Serif" font-size="10.00">vector</text>
</a>
</g>
</g>
<!-- Node3&#45;&gt;Node5 -->
<g id="edge4" class="edge">
<title>Node3&#45;&gt;Node5</title>
<path fill="none" stroke="midnightblue" d="M375.72,-56.32C366.16,-48.26 351.72,-36.08 340.22,-26.37"/>
<polygon fill="midnightblue" stroke="midnightblue" points="342.37,-23.61 332.47,-19.83 337.86,-28.96 342.37,-23.61"/>
</g>
<!-- Node7 -->
<g id="node7" class="node">
<title>Node7</title>
<g id="a_node7"><a xlink:href="nonstd_8h.html" target="_top" xlink:title=" ">
<polygon fill="white" stroke="black" points="558,-56.5 558,-75.5 648,-75.5 648,-56.5 558,-56.5"/>
<text text-anchor="middle" x="603" y="-63.5" font-family="Helvetica,sans-Serif" font-size="10.00">ccf/ds/nonstd.h</text>
</a>
</g>
</g>
<!-- Node6&#45;&gt;Node7 -->
<g id="edge6" class="edge">
<title>Node6&#45;&gt;Node7</title>
<path fill="none" stroke="midnightblue" d="M599.66,-112.08C600.18,-105.01 600.94,-94.86 601.59,-85.99"/>
<polygon fill="midnightblue" stroke="midnightblue" points="605.1,-85.98 602.35,-75.75 598.12,-85.47 605.1,-85.98"/>
</g>
<!-- Node6&#45;&gt;Node13 -->
<g id="edge14" class="edge">
<title>Node6&#45;&gt;Node13</title>
<path fill="none" stroke="midnightblue" d="M583.09,-112.32C567.36,-103.74 543.06,-90.49 524.79,-80.52"/>
<polygon fill="midnightblue" stroke="midnightblue" points="526.32,-77.37 515.87,-75.65 522.97,-83.52 526.32,-77.37"/>
</g>
<!-- Node14 -->
<g id="node14" class="node">
<title>Node14</title>
<g id="a_node14"><a xlink:title=" ">
<polygon fill="white" stroke="#bfbfbf" points="666,-56.5 666,-75.5 776,-75.5 776,-56.5 666,-56.5"/>
<text text-anchor="middle" x="721" y="-63.5" font-family="Helvetica,sans-Serif" font-size="10.00">nlohmann/json.hpp</text>
</a>
</g>
</g>
<!-- Node6&#45;&gt;Node14 -->
<g id="edge15" class="edge">
<title>Node6&#45;&gt;Node14</title>
<path fill="none" stroke="midnightblue" d="M618.33,-112.44C638.32,-103.6 669.74,-89.69 692.56,-79.59"/>
<polygon fill="midnightblue" stroke="midnightblue" points="694.03,-82.76 701.76,-75.52 691.2,-76.36 694.03,-82.76"/>
</g>
<!-- Node7&#45;&gt;Node4 -->
<g id="edge10" class="edge">
<title>Node7&#45;&gt;Node4</title>
<path fill="none" stroke="midnightblue" d="M566.05,-56.42C528.63,-47.64 469.16,-33.41 418,-20 417.9,-19.97 417.8,-19.95 417.7,-19.92"/>
<polygon fill="midnightblue" stroke="midnightblue" points="418.57,-16.53 408.01,-17.3 416.75,-23.29 418.57,-16.53"/>
</g>
<!-- Node7&#45;&gt;Node5 -->
<g id="edge13" class="edge">
<title>Node7&#45;&gt;Node5</title>
<path fill="none" stroke="midnightblue" d="M557.77,-57.28C501.07,-47.52 406.09,-30.9 355.52,-19.92"/>
<polygon fill="midnightblue" stroke="midnightblue" points="356.25,-16.5 345.73,-17.74 354.73,-23.33 356.25,-16.5"/>
</g>
<!-- Node8 -->
<g id="node8" class="node">
<title>Node8</title>
<g id="a_node8"><a xlink:title=" ">
<polygon fill="white" stroke="#bfbfbf" points="514,-0.5 514,-19.5 578,-19.5 578,-0.5 514,-0.5"/>
<text text-anchor="middle" x="546" y="-7.5" font-family="Helvetica,sans-Serif" font-size="10.00">algorithm</text>
</a>
</g>
</g>
<!-- Node7&#45;&gt;Node8 -->
<g id="edge7" class="edge">
<title>Node7&#45;&gt;Node8</title>
<path fill="none" stroke="midnightblue" d="M593.84,-56.32C585.5,-48.42 572.97,-36.55 562.82,-26.94"/>
<polygon fill="midnightblue" stroke="midnightblue" points="564.99,-24.17 555.32,-19.83 560.18,-29.25 564.99,-24.17"/>
</g>
<!-- Node9 -->
<g id="node9" class="node">
<title>Node9</title>
<g id="a_node9"><a xlink:title=" ">
<polygon fill="white" stroke="#bfbfbf" points="596,-0.5 596,-19.5 638,-19.5 638,-0.5 596,-0.5"/>
<text text-anchor="middle" x="617" y="-7.5" font-family="Helvetica,sans-Serif" font-size="10.00">array</text>
</a>
</g>
</g>
<!-- Node7&#45;&gt;Node9 -->
<g id="edge8" class="edge">
<title>Node7&#45;&gt;Node9</title>
<path fill="none" stroke="midnightblue" d="M605.31,-56.08C607.17,-48.93 609.84,-38.64 612.15,-29.69"/>
<polygon fill="midnightblue" stroke="midnightblue" points="615.61,-30.31 614.73,-19.75 608.83,-28.55 615.61,-30.31"/>
</g>
<!-- Node10 -->
<g id="node10" class="node">
<title>Node10</title>
<g id="a_node10"><a xlink:title=" ">
<polygon fill="white" stroke="#bfbfbf" points="656.5,-0.5 656.5,-19.5 705.5,-19.5 705.5,-0.5 656.5,-0.5"/>
<text text-anchor="middle" x="681" y="-7.5" font-family="Helvetica,sans-Serif" font-size="10.00">cctype</text>
</a>
</g>
</g>
<!-- Node7&#45;&gt;Node10 -->
<g id="edge9" class="edge">
<title>Node7&#45;&gt;Node10</title>
<path fill="none" stroke="midnightblue" d="M615.53,-56.32C627.59,-47.98 646.03,-35.21 660.27,-25.35"/>
<polygon fill="midnightblue" stroke="midnightblue" points="662.27,-28.22 668.5,-19.65 658.28,-22.47 662.27,-28.22"/>
</g>
<!-- Node11 -->
<g id="node11" class="node">
<title>Node11</title>
<g id="a_node11"><a xlink:title=" ">
<polygon fill="white" stroke="#bfbfbf" points="723.5,-0.5 723.5,-19.5 796.5,-19.5 796.5,-0.5 723.5,-0.5"/>
<text text-anchor="middle" x="760" y="-7.5" font-family="Helvetica,sans-Serif" font-size="10.00">string_view</text>
</a>
</g>
</g>
<!-- Node7&#45;&gt;Node11 -->
<g id="edge11" class="edge">
<title>Node7&#45;&gt;Node11</title>
<path fill="none" stroke="midnightblue" d="M627.88,-56.44C654.29,-47.36 696.22,-32.94 725.74,-22.78"/>
<polygon fill="midnightblue" stroke="midnightblue" points="726.92,-26.08 735.24,-19.52 724.64,-19.46 726.92,-26.08"/>
</g>
<!-- Node12 -->
<g id="node12" class="node">
<title>Node12</title>
<g id="a_node12"><a xlink:title=" ">
<polygon fill="white" stroke="#bfbfbf" points="426.5,-0.5 426.5,-19.5 495.5,-19.5 495.5,-0.5 426.5,-0.5"/>
<text text-anchor="middle" x="461" y="-7.5" font-family="Helvetica,sans-Serif" font-size="10.00">type_traits</text>
</a>
</g>
</g>
<!-- Node7&#45;&gt;Node12 -->
<g id="edge12" class="edge">
<title>Node7&#45;&gt;Node12</title>
<path fill="none" stroke="midnightblue" d="M580.5,-56.44C556.92,-47.48 519.68,-33.31 493.04,-23.18"/>
<polygon fill="midnightblue" stroke="midnightblue" points="493.99,-19.8 483.4,-19.52 491.5,-26.34 493.99,-19.8"/>
</g>
<!-- Node16&#45;&gt;Node7 -->
<g id="edge19" class="edge">
<title>Node16&#45;&gt;Node7</title>
<path fill="none" stroke="midnightblue" d="M315.6,-235.13C325.85,-225.36 339.29,-211.92 350,-199 379.97,-162.84 371.18,-138.45 410,-112 421.52,-104.15 495.8,-88.21 548.76,-77.56"/>
<polygon fill="midnightblue" stroke="midnightblue" points="549.59,-80.96 558.71,-75.57 548.22,-74.1 549.59,-80.96"/>
</g>
<!-- Node17 -->
<g id="node17" class="node">
<title>Node17</title>
<g id="a_node17"><a xlink:href="serialised__entry_8h.html" target="_top" xlink:title=" ">
<polygon fill="white" stroke="black" points="236.5,-168.5 236.5,-198.5 341.5,-198.5 341.5,-168.5 236.5,-168.5"/>
<text text-anchor="start" x="244.5" y="-186.5" font-family="Helvetica,sans-Serif" font-size="10.00">ccf/kv/serialisers</text>
<text text-anchor="middle" x="289" y="-175.5" font-family="Helvetica,sans-Serif" font-size="10.00">/serialised_entry.h</text>
</a>
</g>
</g>
<!-- Node16&#45;&gt;Node17 -->
<g id="edge20" class="edge">
<title>Node16&#45;&gt;Node17</title>
<path fill="none" stroke="midnightblue" d="M297.61,-235.4C296.29,-227.56 294.6,-217.6 293.07,-208.57"/>
<polygon fill="midnightblue" stroke="midnightblue" points="296.5,-207.85 291.38,-198.58 289.6,-209.02 296.5,-207.85"/>
</g>
<!-- Node18 -->
<g id="node18" class="node">
<title>Node18</title>
<g id="a_node18"><a xlink:href="byte__vector_8h.html" target="_top" xlink:title=" ">
<polygon fill="white" stroke="black" points="205,-112.5 205,-131.5 305,-131.5 305,-112.5 205,-112.5"/>
<text text-anchor="middle" x="255" y="-119.5" font-family="Helvetica,sans-Serif" font-size="10.00">ccf/byte_vector.h</text>
</a>
</g>
</g>
<!-- Node17&#45;&gt;Node18 -->
<g id="edge21" class="edge">
<title>Node17&#45;&gt;Node18</title>
<path fill="none" stroke="midnightblue" d="M280.94,-168.4C276.15,-160.02 270.04,-149.33 264.96,-140.42"/>
<polygon fill="midnightblue" stroke="midnightblue" points="267.95,-138.6 259.95,-131.66 261.87,-142.08 267.95,-138.6"/>
</g>
<!-- Node18&#45;&gt;Node13 -->
<g id="edge26" class="edge">
<title>Node18&#45;&gt;Node13</title>
<path fill="none" stroke="midnightblue" d="M293.82,-112.44C336.56,-103.02 405.33,-87.87 451.57,-77.68"/>
<polygon fill="midnightblue" stroke="midnightblue" points="452.35,-81.09 461.36,-75.52 450.84,-74.25 452.35,-81.09"/>
</g>
<!-- Node19 -->
<g id="node19" class="node">
<title>Node19</title>
<g id="a_node19"><a xlink:href="siphash_8h.html" target="_top" xlink:title=" ">
<polygon fill="white" stroke="black" points="12.5,-56.5 12.5,-75.5 107.5,-75.5 107.5,-56.5 12.5,-56.5"/>
<text text-anchor="middle" x="60" y="-63.5" font-family="Helvetica,sans-Serif" font-size="10.00">ccf/ds/siphash.h</text>
</a>
</g>
</g>
<!-- Node18&#45;&gt;Node19 -->
<g id="edge22" class="edge">
<title>Node18&#45;&gt;Node19</title>
<path fill="none" stroke="midnightblue" d="M224.1,-112.44C190.73,-103.2 137.41,-88.44 100.65,-78.26"/>
<polygon fill="midnightblue" stroke="midnightblue" points="101.33,-74.81 90.75,-75.52 99.46,-81.56 101.33,-74.81"/>
</g>
<!-- Node22 -->
<g id="node22" class="node">
<title>Node22</title>
<g id="a_node22"><a xlink:title=" ">
<polygon fill="white" stroke="#bfbfbf" points="163.5,-56.5 163.5,-75.5 312.5,-75.5 312.5,-56.5 163.5,-56.5"/>
<text text-anchor="middle" x="238" y="-63.5" font-family="Helvetica,sans-Serif" font-size="10.00">small_vector/SmallVector.h</text>
</a>
</g>
</g>
<!-- Node18&#45;&gt;Node22 -->
<g id="edge27" class="edge">
<title>Node18&#45;&gt;Node22</title>
<path fill="none" stroke="midnightblue" d="M252.19,-112.08C249.92,-104.85 246.63,-94.41 243.79,-85.4"/>
<polygon fill="midnightblue" stroke="midnightblue" points="247.1,-84.24 240.75,-75.75 240.42,-86.34 247.1,-84.24"/>
</g>
<!-- Node19&#45;&gt;Node5 -->
<g id="edge25" class="edge">
<title>Node19&#45;&gt;Node5</title>
<path fill="none" stroke="midnightblue" d="M101.51,-56.44C153.27,-45.78 240.72,-27.75 288.45,-17.91"/>
<polygon fill="midnightblue" stroke="midnightblue" points="289.2,-21.33 298.29,-15.89 287.79,-14.48 289.2,-21.33"/>
</g>
<!-- Node20 -->
<g id="node20" class="node">
<title>Node20</title>
<g id="a_node20"><a xlink:title=" ">
<polygon fill="white" stroke="#bfbfbf" points="68.5,-0.5 68.5,-19.5 121.5,-19.5 121.5,-0.5 68.5,-0.5"/>
<text text-anchor="middle" x="95" y="-7.5" font-family="Helvetica,sans-Serif" font-size="10.00">cstddef</text>
</a>
</g>
</g>
<!-- Node19&#45;&gt;Node20 -->
<g id="edge23" class="edge">
<title>Node19&#45;&gt;Node20</title>
<path fill="none" stroke="midnightblue" d="M65.78,-56.08C70.67,-48.53 77.83,-37.49 83.83,-28.23"/>
<polygon fill="midnightblue" stroke="midnightblue" points="86.83,-30.05 89.33,-19.75 80.95,-26.24 86.83,-30.05"/>
</g>
<!-- Node21 -->
<g id="node21" class="node">
<title>Node21</title>
<g id="a_node21"><a xlink:title=" ">
<polygon fill="white" stroke="#bfbfbf" points="0,-0.5 0,-19.5 50,-19.5 50,-0.5 0,-0.5"/>
<text text-anchor="middle" x="25" y="-7.5" font-family="Helvetica,sans-Serif" font-size="10.00">cstdint</text>
</a>
</g>
</g>
<!-- Node19&#45;&gt;Node21 -->
<g id="edge24" class="edge">
<title>Node19&#45;&gt;Node21</title>
<path fill="none" stroke="midnightblue" d="M54.22,-56.08C49.33,-48.53 42.17,-37.49 36.17,-28.23"/>
<polygon fill="midnightblue" stroke="midnightblue" points="39.05,-26.24 30.67,-19.75 33.17,-30.05 39.05,-26.24"/>
</g>
</g>
</svg>
        <g id="navigator" transform="translate(0 0)" fill="#404254">
                <rect fill="#f2f5e9" fill-opacity="0.5" stroke="#606060" stroke-width=".5" x="0" y="0" width="60" height="60"/>
                <use id="zoomplus" xlink:href="#zoomPlus" x="17" y="9" onmousedown="handleZoom(evt,'in')"/>
                <use id="zoomminus" xlink:href="#zoomMin" x="42" y="9" onmousedown="handleZoom(evt,'out')"/>
                <use id="reset" xlink:href="#resetDef" x="30" y="36" onmousedown="handleReset()"/>
                <g id="arrowUp" xlink:href="#dirArrow" transform="translate(30 24)" onmousedown="handlePan(0,-1)">
                  <use xlink:href="#rim" fill="#404040">
                        <set attributeName="fill" to="#808080" begin="arrowUp.mouseover" end="arrowUp.mouseout"/>
                  </use>
                  <path fill="none" stroke="white" stroke-width="1.5" d="M0,-3.0v7 M-2.5,-0.5L0,-3.0L2.5,-0.5"/>
                </g>
                <g id="arrowRight" xlink:href="#dirArrow" transform="rotate(90) translate(36 -43)" onmousedown="handlePan(1,0)">
                  <use xlink:href="#rim" fill="#404040">
                        <set attributeName="fill" to="#808080" begin="arrowRight.mouseover" end="arrowRight.mouseout"/>
                  </use>
                  <path fill="none" stroke="white" stroke-width="1.5" d="M0,-3.0v7 M-2.5,-0.5L0,-3.0L2.5,-0.5"/>
                </g>
                <g id="arrowDown" xlink:href="#dirArrow" transform="rotate(180) translate(-30 -48)" onmousedown="handlePan(0,1)">
                  <use xlink:href="#rim" fill="#404040">
                        <set attributeName="fill" to="#808080" begin="arrowDown.mouseover" end="arrowDown.mouseout"/>
                  </use>
                  <path fill="none" stroke="white" stroke-width="1.5" d="M0,-3.0v7 M-2.5,-0.5L0,-3.0L2.5,-0.5"/>
                </g>
                <g id="arrowLeft" xlink:href="#dirArrow" transform="rotate(270) translate(-36 17)" onmousedown="handlePan(-1,0)">
                  <use xlink:href="#rim" fill="#404040">
                        <set attributeName="fill" to="#808080" begin="arrowLeft.mouseover" end="arrowLeft.mouseout"/>
                  </use>
                  <path fill="none" stroke="white" stroke-width="1.5" d="M0,-3.0v7 M-2.5,-0.5L0,-3.0L2.5,-0.5"/>
                </g>
        </g>
        <svg viewBox="0 0 15 15" width="100%" height="30px" preserveAspectRatio="xMaxYMin meet">
         <g id="arrow_out" transform="scale(0.3 0.3)">
          <a xlink:href="entity__id_8h__incl_org.svg" target="_base">
           <rect id="button" ry="5" rx="5" y="6" x="6" height="38" width="38"
                fill="#f2f5e9" fill-opacity="0.5" stroke="#606060" stroke-width="1.0"/>
           <path id="arrow"
             d="M 11.500037,31.436501 C 11.940474,20.09759 22.043105,11.32322 32.158766,21.979434 L 37.068811,17.246167 C 37.068811,17.246167 37.088388,32 37.088388,32 L 22.160133,31.978069 C 22.160133,31.978069 26.997745,27.140456 26.997745,27.140456 C 18.528582,18.264221 13.291696,25.230495 11.500037,31.436501 z"
             style="fill:#404040;"/>
          </a>
         </g>
        </svg>
</svg>
