<?xml version="1.0" encoding="UTF-8" standalone="no"?>
<!DOCTYPE svg PUBLIC "-//W3C//DTD SVG 1.1//EN"
 "http://www.w3.org/Graphics/SVG/1.1/DTD/svg11.dtd">
<!-- Generated by graphviz version 2.43.0 (0)
 -->
<!-- Title: src/enclave/forwarder_types.h Pages: 1 -->
<svg width="1774pt" height="665pt"
 viewBox="0.00 0.00 1773.50 665.00" xmlns="http://www.w3.org/2000/svg" xmlns:xlink="http://www.w3.org/1999/xlink">
<g id="graph0" class="graph" transform="scale(1 1) rotate(0) translate(4 661)">
<title>src/enclave/forwarder_types.h</title>
<polygon fill="white" stroke="transparent" points="-4,4 -4,-661 1769.5,-661 1769.5,4 -4,4"/>
<!-- Node1 -->
<g id="node1" class="node">
<title>Node1</title>
<g id="a_node1"><a xlink:title=" ">
<polygon fill="#bfbfbf" stroke="black" points="558,-626.5 558,-656.5 680,-656.5 680,-626.5 558,-626.5"/>
<text text-anchor="start" x="566" y="-644.5" font-family="Helvetica,sans-Serif" font-size="10.00">src/enclave/forwarder</text>
<text text-anchor="middle" x="619" y="-633.5" font-family="Helvetica,sans-Serif" font-size="10.00">_types.h</text>
</a>
</g>
</g>
<!-- Node2 -->
<g id="node2" class="node">
<title>Node2</title>
<g id="a_node2"><a xlink:href="rpc__handler_8h.html" target="_top" xlink:title=" ">
<polygon fill="white" stroke="black" points="549,-570.5 549,-589.5 689,-589.5 689,-570.5 549,-570.5"/>
<text text-anchor="middle" x="619" y="-577.5" font-family="Helvetica,sans-Serif" font-size="10.00">src/enclave/rpc_handler.h</text>
</a>
</g>
</g>
<!-- Node1&#45;&gt;Node2 -->
<g id="edge1" class="edge">
<title>Node1&#45;&gt;Node2</title>
<path fill="none" stroke="midnightblue" d="M619,-616.29C619,-606.86 619,-596.65 619,-589.66"/>
<polygon fill="midnightblue" stroke="midnightblue" points="615.5,-616.4 619,-626.4 622.5,-616.4 615.5,-616.4"/>
</g>
<!-- Node23 -->
<g id="node23" class="node">
<title>Node23</title>
<g id="a_node23"><a xlink:href="rpc__sessions_8h.html" target="_top" xlink:title=" ">
<polygon fill="white" stroke="black" points="174,-375 174,-394 320,-394 320,-375 174,-375"/>
<text text-anchor="middle" x="247" y="-382" font-family="Helvetica,sans-Serif" font-size="10.00">src/enclave/rpc_sessions.h</text>
</a>
</g>
</g>
<!-- Node1&#45;&gt;Node23 -->
<g id="edge63" class="edge">
<title>Node1&#45;&gt;Node23</title>
<path fill="none" stroke="midnightblue" d="M547.34,-638.76C444.22,-633.45 250.8,-612.78 109,-534 73,-514 60.32,-505.22 45,-467 22.45,-410.75 107.29,-392.99 173.9,-387.57"/>
<polygon fill="midnightblue" stroke="midnightblue" points="547.48,-642.27 557.64,-639.26 547.82,-635.28 547.48,-642.27"/>
</g>
<!-- Node26 -->
<g id="node26" class="node">
<title>Node26</title>
<g id="a_node26"><a xlink:href="forwarder_8h.html" target="_top" xlink:title=" ">
<polygon fill="white" stroke="black" points="1240,-442 1240,-461 1374,-461 1374,-442 1240,-442"/>
<text text-anchor="middle" x="1307" y="-449" font-family="Helvetica,sans-Serif" font-size="10.00">src/node/rpc/forwarder.h</text>
</a>
</g>
</g>
<!-- Node1&#45;&gt;Node26 -->
<g id="edge64" class="edge">
<title>Node1&#45;&gt;Node26</title>
<path fill="none" stroke="midnightblue" d="M690.15,-635.57C835.34,-624.38 1159.8,-593.34 1252,-534 1279.99,-515.98 1297.25,-478.13 1303.89,-461.11"/>
<polygon fill="midnightblue" stroke="midnightblue" points="689.72,-632.09 680.02,-636.34 690.25,-639.07 689.72,-632.09"/>
</g>
<!-- Node3 -->
<g id="node3" class="node">
<title>Node3</title>
<g id="a_node3"><a xlink:href="raft__types_8h.html" target="_top" xlink:title=" ">
<polygon fill="white" stroke="black" points="559,-503.5 559,-533.5 679,-533.5 679,-503.5 559,-503.5"/>
<text text-anchor="start" x="567" y="-521.5" font-family="Helvetica,sans-Serif" font-size="10.00">src/consensus/aft/raft</text>
<text text-anchor="middle" x="619" y="-510.5" font-family="Helvetica,sans-Serif" font-size="10.00">_types.h</text>
</a>
</g>
</g>
<!-- Node2&#45;&gt;Node3 -->
<g id="edge2" class="edge">
<title>Node2&#45;&gt;Node3</title>
<path fill="none" stroke="midnightblue" d="M619,-560.23C619,-551.59 619,-541.5 619,-533.52"/>
<polygon fill="midnightblue" stroke="midnightblue" points="615.5,-560.48 619,-570.48 622.5,-560.48 615.5,-560.48"/>
</g>
<!-- Node21 -->
<g id="node21" class="node">
<title>Node21</title>
<g id="a_node21"><a xlink:href="rpc__map_8h.html" target="_top" xlink:title=" ">
<polygon fill="white" stroke="black" points="321,-509 321,-528 447,-528 447,-509 321,-509"/>
<text text-anchor="middle" x="384" y="-516" font-family="Helvetica,sans-Serif" font-size="10.00">src/enclave/rpc_map.h</text>
</a>
</g>
</g>
<!-- Node2&#45;&gt;Node21 -->
<g id="edge31" class="edge">
<title>Node2&#45;&gt;Node21</title>
<path fill="none" stroke="midnightblue" d="M575.43,-567.97C529.8,-556.41 459.11,-538.52 417.61,-528.01"/>
<polygon fill="midnightblue" stroke="midnightblue" points="574.78,-571.41 585.33,-570.48 576.5,-564.63 574.78,-571.41"/>
</g>
<!-- Node2&#45;&gt;Node23 -->
<g id="edge55" class="edge">
<title>Node2&#45;&gt;Node23</title>
<path fill="none" stroke="midnightblue" d="M538.51,-575.48C397.41,-567.38 114.83,-541.98 57,-467 21.6,-421.1 106.48,-400.68 173.97,-391.85"/>
<polygon fill="midnightblue" stroke="midnightblue" points="538.65,-578.99 548.83,-576.05 539.04,-572 538.65,-578.99"/>
</g>
<!-- Node27 -->
<g id="node27" class="node">
<title>Node27</title>
<g id="a_node27"><a xlink:href="frontend_8h.html" target="_top" xlink:title=" ">
<polygon fill="white" stroke="black" points="1454.5,-375 1454.5,-394 1583.5,-394 1583.5,-375 1454.5,-375"/>
<text text-anchor="middle" x="1519" y="-382" font-family="Helvetica,sans-Serif" font-size="10.00">src/node/rpc/frontend.h</text>
</a>
</g>
</g>
<!-- Node2&#45;&gt;Node27 -->
<g id="edge62" class="edge">
<title>Node2&#45;&gt;Node27</title>
<path fill="none" stroke="midnightblue" d="M699.32,-577.28C845.72,-573.49 1150.24,-562.37 1252,-534 1360.83,-503.66 1473.4,-421.01 1508.14,-394.09"/>
<polygon fill="midnightblue" stroke="midnightblue" points="698.97,-573.79 689.06,-577.54 699.15,-580.79 698.97,-573.79"/>
</g>
<!-- Node31 -->
<g id="node31" class="node">
<title>Node31</title>
<g id="a_node31"><a xlink:href="node__to__node_8h.html" target="_top" xlink:title=" ">
<polygon fill="white" stroke="black" points="1105,-509 1105,-528 1243,-528 1243,-509 1105,-509"/>
<text text-anchor="middle" x="1174" y="-516" font-family="Helvetica,sans-Serif" font-size="10.00">src/node/node_to_node.h</text>
</a>
</g>
</g>
<!-- Node2&#45;&gt;Node31 -->
<g id="edge56" class="edge">
<title>Node2&#45;&gt;Node31</title>
<path fill="none" stroke="midnightblue" d="M698.97,-570.43C807.98,-558.74 1001.44,-538 1104.64,-526.94"/>
<polygon fill="midnightblue" stroke="midnightblue" points="698.58,-566.95 689.01,-571.49 699.33,-573.91 698.58,-566.95"/>
</g>
<!-- Node4 -->
<g id="node4" class="node">
<title>Node4</title>
<g id="a_node4"><a xlink:href="request__message_8h.html" target="_top" xlink:title=" ">
<polygon fill="white" stroke="black" points="374.5,-436.5 374.5,-466.5 499.5,-466.5 499.5,-436.5 374.5,-436.5"/>
<text text-anchor="start" x="382.5" y="-454.5" font-family="Helvetica,sans-Serif" font-size="10.00">src/consensus/aft/impl</text>
<text text-anchor="middle" x="437" y="-443.5" font-family="Helvetica,sans-Serif" font-size="10.00">/request_message.h</text>
</a>
</g>
</g>
<!-- Node3&#45;&gt;Node4 -->
<g id="edge3" class="edge">
<title>Node3&#45;&gt;Node4</title>
<path fill="none" stroke="midnightblue" d="M569.87,-499.96C540.56,-489.48 503.82,-476.37 476.41,-466.58"/>
<polygon fill="midnightblue" stroke="midnightblue" points="568.91,-503.33 579.51,-503.4 571.27,-496.74 568.91,-503.33"/>
</g>
<!-- Node5 -->
<g id="node5" class="node">
<title>Node5</title>
<g id="a_node5"><a xlink:href="state_8h.html" target="_top" xlink:title=" ">
<polygon fill="white" stroke="black" points="463.5,-369.5 463.5,-399.5 588.5,-399.5 588.5,-369.5 463.5,-369.5"/>
<text text-anchor="start" x="471.5" y="-387.5" font-family="Helvetica,sans-Serif" font-size="10.00">src/consensus/aft/impl</text>
<text text-anchor="middle" x="526" y="-376.5" font-family="Helvetica,sans-Serif" font-size="10.00">/state.h</text>
</a>
</g>
</g>
<!-- Node3&#45;&gt;Node5 -->
<g id="edge4" class="edge">
<title>Node3&#45;&gt;Node5</title>
<path fill="none" stroke="midnightblue" d="M603.28,-495.19C584.03,-467.86 551.99,-422.38 535.88,-399.52"/>
<polygon fill="midnightblue" stroke="midnightblue" points="600.43,-497.21 609.05,-503.37 606.15,-493.18 600.43,-497.21"/>
</g>
<!-- Node6 -->
<g id="node6" class="node">
<title>Node6</title>
<g id="a_node6"><a xlink:href="raft_8h.html" target="_top" xlink:title=" ">
<polygon fill="white" stroke="black" points="692.5,-308 692.5,-327 821.5,-327 821.5,-308 692.5,-308"/>
<text text-anchor="middle" x="757" y="-315" font-family="Helvetica,sans-Serif" font-size="10.00">src/consensus/aft/raft.h</text>
</a>
</g>
</g>
<!-- Node3&#45;&gt;Node6 -->
<g id="edge13" class="edge">
<title>Node3&#45;&gt;Node6</title>
<path fill="none" stroke="midnightblue" d="M689.06,-509.31C715.45,-502.43 742.93,-489.87 759,-467 774.86,-444.42 762.81,-355.82 758.42,-327.36"/>
<polygon fill="midnightblue" stroke="midnightblue" points="687.95,-505.98 679.03,-511.68 689.56,-512.79 687.95,-505.98"/>
</g>
<!-- Node12 -->
<g id="node12" class="node">
<title>Node12</title>
<g id="a_node12"><a xlink:href="node__connections_8h.html" target="_top" xlink:title=" ">
<polygon fill="white" stroke="black" points="594.5,-442 594.5,-461 749.5,-461 749.5,-442 594.5,-442"/>
<text text-anchor="middle" x="672" y="-449" font-family="Helvetica,sans-Serif" font-size="10.00">src/host/node_connections.h</text>
</a>
</g>
</g>
<!-- Node3&#45;&gt;Node12 -->
<g id="edge14" class="edge">
<title>Node3&#45;&gt;Node12</title>
<path fill="none" stroke="midnightblue" d="M637.09,-495.32C646.64,-483.6 657.83,-469.88 664.91,-461.19"/>
<polygon fill="midnightblue" stroke="midnightblue" points="634.11,-493.43 630.5,-503.4 639.53,-497.86 634.11,-493.43"/>
</g>
<!-- Node14 -->
<g id="node14" class="node">
<title>Node14</title>
<g id="a_node14"><a xlink:href="node__client_8h.html" target="_top" xlink:title=" ">
<polygon fill="white" stroke="black" points="806,-442 806,-461 932,-461 932,-442 806,-442"/>
<text text-anchor="middle" x="869" y="-449" font-family="Helvetica,sans-Serif" font-size="10.00">src/node/node_client.h</text>
</a>
</g>
</g>
<!-- Node3&#45;&gt;Node14 -->
<g id="edge16" class="edge">
<title>Node3&#45;&gt;Node14</title>
<path fill="none" stroke="midnightblue" d="M682.81,-500.91C731.77,-488.18 797.36,-471.13 836.2,-461.03"/>
<polygon fill="midnightblue" stroke="midnightblue" points="681.74,-497.57 672.94,-503.48 683.5,-504.35 681.74,-497.57"/>
</g>
<!-- Node20 -->
<g id="node20" class="node">
<title>Node20</title>
<g id="a_node20"><a xlink:href="resharing__tracker_8h.html" target="_top" xlink:title=" ">
<polygon fill="white" stroke="black" points="338.5,-369.5 338.5,-399.5 445.5,-399.5 445.5,-369.5 338.5,-369.5"/>
<text text-anchor="start" x="346.5" y="-387.5" font-family="Helvetica,sans-Serif" font-size="10.00">src/node/resharing</text>
<text text-anchor="middle" x="392" y="-376.5" font-family="Helvetica,sans-Serif" font-size="10.00">_tracker.h</text>
</a>
</g>
</g>
<!-- Node3&#45;&gt;Node20 -->
<g id="edge28" class="edge">
<title>Node3&#45;&gt;Node20</title>
<path fill="none" stroke="midnightblue" d="M594.36,-496.92C572.56,-479.33 539.42,-454.07 508,-436 483.06,-421.65 453.27,-408.77 430.12,-399.6"/>
<polygon fill="midnightblue" stroke="midnightblue" points="592.17,-499.65 602.14,-503.25 596.6,-494.22 592.17,-499.65"/>
</g>
<!-- Node5&#45;&gt;Node6 -->
<g id="edge5" class="edge">
<title>Node5&#45;&gt;Node6</title>
<path fill="none" stroke="midnightblue" d="M585.53,-366.75C630.7,-354.04 690.95,-337.09 726.69,-327.03"/>
<polygon fill="midnightblue" stroke="midnightblue" points="584.52,-363.4 575.84,-369.48 586.41,-370.14 584.52,-363.4"/>
</g>
<!-- Node11 -->
<g id="node11" class="node">
<title>Node11</title>
<g id="a_node11"><a xlink:href="resharing_8h.html" target="_top" xlink:title=" ">
<polygon fill="white" stroke="black" points="460,-308 460,-327 576,-327 576,-308 460,-308"/>
<text text-anchor="middle" x="518" y="-315" font-family="Helvetica,sans-Serif" font-size="10.00">src/node/resharing.h</text>
</a>
</g>
</g>
<!-- Node5&#45;&gt;Node11 -->
<g id="edge11" class="edge">
<title>Node5&#45;&gt;Node11</title>
<path fill="none" stroke="midnightblue" d="M523.02,-359.25C521.63,-348.02 520.08,-335.38 519.07,-327.19"/>
<polygon fill="midnightblue" stroke="midnightblue" points="519.57,-359.9 524.26,-369.4 526.52,-359.04 519.57,-359.9"/>
</g>
<!-- Node7 -->
<g id="node7" class="node">
<title>Node7</title>
<g id="a_node7"><a xlink:href="node__state_8h.html" target="_top" xlink:title=" ">
<polygon fill="white" stroke="black" points="978,-174 978,-193 1102,-193 1102,-174 978,-174"/>
<text text-anchor="middle" x="1040" y="-181" font-family="Helvetica,sans-Serif" font-size="10.00">src/node/node_state.h</text>
</a>
</g>
</g>
<!-- Node6&#45;&gt;Node7 -->
<g id="edge6" class="edge">
<title>Node6&#45;&gt;Node7</title>
<path fill="none" stroke="midnightblue" d="M747.29,-298.77C738.84,-280.64 730.06,-252.71 745,-235 774.19,-200.39 900.31,-189.5 977.89,-186.07"/>
<polygon fill="midnightblue" stroke="midnightblue" points="744.17,-300.35 751.81,-307.7 750.42,-297.2 744.17,-300.35"/>
</g>
<!-- Node8 -->
<g id="node8" class="node">
<title>Node8</title>
<g id="a_node8"><a xlink:href="enclave_2enclave_8h.html" target="_top" xlink:title=" ">
<polygon fill="white" stroke="black" points="1327,-56.5 1327,-75.5 1449,-75.5 1449,-56.5 1327,-56.5"/>
<text text-anchor="middle" x="1388" y="-63.5" font-family="Helvetica,sans-Serif" font-size="10.00">src/enclave/enclave.h</text>
</a>
</g>
</g>
<!-- Node7&#45;&gt;Node8 -->
<g id="edge7" class="edge">
<title>Node7&#45;&gt;Node8</title>
<path fill="none" stroke="midnightblue" d="M1075.59,-170.69C1145.73,-147.41 1300.38,-96.08 1361.96,-75.64"/>
<polygon fill="midnightblue" stroke="midnightblue" points="1074.26,-167.44 1065.87,-173.91 1076.47,-174.08 1074.26,-167.44"/>
</g>
<!-- Node10 -->
<g id="node10" class="node">
<title>Node10</title>
<g id="a_node10"><a xlink:href="gov__effects_8h.html" target="_top" xlink:title=" ">
<polygon fill="white" stroke="black" points="1021,-112.5 1021,-131.5 1165,-131.5 1165,-112.5 1021,-112.5"/>
<text text-anchor="middle" x="1093" y="-119.5" font-family="Helvetica,sans-Serif" font-size="10.00">src/node/rpc/gov_effects.h</text>
</a>
</g>
</g>
<!-- Node7&#45;&gt;Node10 -->
<g id="edge9" class="edge">
<title>Node7&#45;&gt;Node10</title>
<path fill="none" stroke="midnightblue" d="M1054.25,-166.5C1064.29,-155.24 1077.32,-140.6 1085.42,-131.51"/>
<polygon fill="midnightblue" stroke="midnightblue" points="1051.63,-164.18 1047.59,-173.98 1056.86,-168.84 1051.63,-164.18"/>
</g>
<!-- Node9 -->
<g id="node9" class="node">
<title>Node9</title>
<g id="a_node9"><a xlink:href="enclave_2main_8cpp.html" target="_top" xlink:title=" ">
<polygon fill="white" stroke="black" points="1328,-0.5 1328,-19.5 1448,-19.5 1448,-0.5 1328,-0.5"/>
<text text-anchor="middle" x="1388" y="-7.5" font-family="Helvetica,sans-Serif" font-size="10.00">src/enclave/main.cpp</text>
</a>
</g>
</g>
<!-- Node8&#45;&gt;Node9 -->
<g id="edge8" class="edge">
<title>Node8&#45;&gt;Node9</title>
<path fill="none" stroke="midnightblue" d="M1388,-45.8C1388,-36.91 1388,-26.78 1388,-19.75"/>
<polygon fill="midnightblue" stroke="midnightblue" points="1384.5,-46.08 1388,-56.08 1391.5,-46.08 1384.5,-46.08"/>
</g>
<!-- Node10&#45;&gt;Node8 -->
<g id="edge10" class="edge">
<title>Node10&#45;&gt;Node8</title>
<path fill="none" stroke="midnightblue" d="M1149.81,-110.6C1205.56,-100.4 1289.56,-85.02 1341.48,-75.52"/>
<polygon fill="midnightblue" stroke="midnightblue" points="1148.95,-107.2 1139.74,-112.44 1150.21,-114.09 1148.95,-107.2"/>
</g>
<!-- Node11&#45;&gt;Node7 -->
<g id="edge12" class="edge">
<title>Node11&#45;&gt;Node7</title>
<path fill="none" stroke="midnightblue" d="M546.09,-303.78C586.58,-285.92 664.09,-253.53 733,-235 816.33,-212.59 915.21,-198.49 977.78,-191.05"/>
<polygon fill="midnightblue" stroke="midnightblue" points="544.57,-300.63 536.85,-307.89 547.41,-307.02 544.57,-300.63"/>
</g>
<!-- Node13 -->
<g id="node13" class="node">
<title>Node13</title>
<g id="a_node13"><a xlink:href="host_2main_8cpp.html" target="_top" xlink:title=" ">
<polygon fill="white" stroke="black" points="606.5,-375 606.5,-394 709.5,-394 709.5,-375 606.5,-375"/>
<text text-anchor="middle" x="658" y="-382" font-family="Helvetica,sans-Serif" font-size="10.00">src/host/main.cpp</text>
</a>
</g>
</g>
<!-- Node12&#45;&gt;Node13 -->
<g id="edge15" class="edge">
<title>Node12&#45;&gt;Node13</title>
<path fill="none" stroke="midnightblue" d="M668,-431.91C665.32,-419.49 661.92,-403.72 659.86,-394.13"/>
<polygon fill="midnightblue" stroke="midnightblue" points="664.58,-432.69 670.11,-441.73 671.43,-431.22 664.58,-432.69"/>
</g>
<!-- Node14&#45;&gt;Node6 -->
<g id="edge23" class="edge">
<title>Node14&#45;&gt;Node6</title>
<path fill="none" stroke="midnightblue" d="M842.09,-436.88C826.73,-428.03 808.01,-415.31 795,-400 775.7,-377.27 764.04,-343.09 759.37,-327.2"/>
<polygon fill="midnightblue" stroke="midnightblue" points="840.69,-440.1 851.14,-441.87 844.07,-433.97 840.69,-440.1"/>
</g>
<!-- Node15 -->
<g id="node15" class="node">
<title>Node15</title>
<g id="a_node15"><a xlink:href="orc__requests_8h.html" target="_top" xlink:title=" ">
<polygon fill="white" stroke="black" points="988.5,-369.5 988.5,-399.5 1107.5,-399.5 1107.5,-369.5 988.5,-369.5"/>
<text text-anchor="start" x="996.5" y="-387.5" font-family="Helvetica,sans-Serif" font-size="10.00">src/consensus/aft/orc</text>
<text text-anchor="middle" x="1048" y="-376.5" font-family="Helvetica,sans-Serif" font-size="10.00">_requests.h</text>
</a>
</g>
</g>
<!-- Node14&#45;&gt;Node15 -->
<g id="edge17" class="edge">
<title>Node14&#45;&gt;Node15</title>
<path fill="none" stroke="midnightblue" d="M902.47,-438.35C932.81,-427.33 977.52,-411.09 1009.37,-399.53"/>
<polygon fill="midnightblue" stroke="midnightblue" points="900.97,-435.17 892.77,-441.87 903.36,-441.75 900.97,-435.17"/>
</g>
<!-- Node18 -->
<g id="node18" class="node">
<title>Node18</title>
<g id="a_node18"><a xlink:href="http__node__client_8h.html" target="_top" xlink:title=" ">
<polygon fill="white" stroke="black" points="754,-235.5 754,-265.5 864,-265.5 864,-235.5 754,-235.5"/>
<text text-anchor="start" x="762" y="-253.5" font-family="Helvetica,sans-Serif" font-size="10.00">src/node/http_node</text>
<text text-anchor="middle" x="809" y="-242.5" font-family="Helvetica,sans-Serif" font-size="10.00">_client.h</text>
</a>
</g>
</g>
<!-- Node14&#45;&gt;Node18 -->
<g id="edge24" class="edge">
<title>Node14&#45;&gt;Node18</title>
<path fill="none" stroke="midnightblue" d="M942.01,-450.78C1030.3,-448.34 1161.87,-434.14 1117,-369 1087.5,-326.17 944.64,-284.93 864.25,-264.61"/>
<polygon fill="midnightblue" stroke="midnightblue" points="941.92,-447.28 932,-451.02 942.08,-454.28 941.92,-447.28"/>
</g>
<!-- Node19 -->
<g id="node19" class="node">
<title>Node19</title>
<g id="a_node19"><a xlink:href="retired__nodes__cleanup_8h.html" target="_top" xlink:title=" ">
<polygon fill="white" stroke="black" points="804,-369.5 804,-399.5 932,-399.5 932,-369.5 804,-369.5"/>
<text text-anchor="start" x="812" y="-387.5" font-family="Helvetica,sans-Serif" font-size="10.00">src/node/retired_nodes</text>
<text text-anchor="middle" x="868" y="-376.5" font-family="Helvetica,sans-Serif" font-size="10.00">_cleanup.h</text>
</a>
</g>
</g>
<!-- Node14&#45;&gt;Node19 -->
<g id="edge26" class="edge">
<title>Node14&#45;&gt;Node19</title>
<path fill="none" stroke="midnightblue" d="M868.71,-431.41C868.55,-421.22 868.36,-408.9 868.22,-399.59"/>
<polygon fill="midnightblue" stroke="midnightblue" points="865.21,-431.79 868.87,-441.73 872.21,-431.68 865.21,-431.79"/>
</g>
<!-- Node15&#45;&gt;Node6 -->
<g id="edge18" class="edge">
<title>Node15&#45;&gt;Node6</title>
<path fill="none" stroke="midnightblue" d="M978.32,-367.94C920.91,-355.11 841.65,-337.41 795.21,-327.03"/>
<polygon fill="midnightblue" stroke="midnightblue" points="977.89,-371.43 988.41,-370.19 979.41,-364.59 977.89,-371.43"/>
</g>
<!-- Node16 -->
<g id="node16" class="node">
<title>Node16</title>
<g id="a_node16"><a xlink:href="node__frontend_8h.html" target="_top" xlink:title=" ">
<polygon fill="white" stroke="black" points="1240,-308 1240,-327 1398,-327 1398,-308 1240,-308"/>
<text text-anchor="middle" x="1319" y="-315" font-family="Helvetica,sans-Serif" font-size="10.00">src/node/rpc/node_frontend.h</text>
</a>
</g>
</g>
<!-- Node15&#45;&gt;Node16 -->
<g id="edge19" class="edge">
<title>Node15&#45;&gt;Node16</title>
<path fill="none" stroke="midnightblue" d="M1116.5,-367.07C1169.65,-354.32 1241.16,-337.17 1283.44,-327.03"/>
<polygon fill="midnightblue" stroke="midnightblue" points="1115.38,-363.74 1106.47,-369.48 1117.01,-370.55 1115.38,-363.74"/>
</g>
<!-- Node16&#45;&gt;Node8 -->
<g id="edge20" class="edge">
<title>Node16&#45;&gt;Node8</title>
<path fill="none" stroke="midnightblue" d="M1339.95,-301.63C1350.87,-292.64 1363.31,-280.19 1370,-266 1401.64,-198.84 1392.96,-104.9 1389.26,-75.89"/>
<polygon fill="midnightblue" stroke="midnightblue" points="1337.76,-298.89 1332.01,-307.79 1342.05,-304.42 1337.76,-298.89"/>
</g>
<!-- Node17 -->
<g id="node17" class="node">
<title>Node17</title>
<g id="a_node17"><a xlink:href="jwt__key__auto__refresh_8h.html" target="_top" xlink:title=" ">
<polygon fill="white" stroke="black" points="1068.5,-235.5 1068.5,-265.5 1193.5,-265.5 1193.5,-235.5 1068.5,-235.5"/>
<text text-anchor="start" x="1076.5" y="-253.5" font-family="Helvetica,sans-Serif" font-size="10.00">src/node/jwt_key_auto</text>
<text text-anchor="middle" x="1131" y="-242.5" font-family="Helvetica,sans-Serif" font-size="10.00">_refresh.h</text>
</a>
</g>
</g>
<!-- Node16&#45;&gt;Node17 -->
<g id="edge21" class="edge">
<title>Node16&#45;&gt;Node17</title>
<path fill="none" stroke="midnightblue" d="M1284.26,-304.49C1252.39,-293.47 1205.17,-277.14 1171.57,-265.53"/>
<polygon fill="midnightblue" stroke="midnightblue" points="1283.44,-307.91 1294.04,-307.87 1285.73,-301.29 1283.44,-307.91"/>
</g>
<!-- Node17&#45;&gt;Node7 -->
<g id="edge22" class="edge">
<title>Node17&#45;&gt;Node7</title>
<path fill="none" stroke="midnightblue" d="M1102.73,-229.31C1085.64,-217.1 1064.75,-202.18 1051.91,-193.01"/>
<polygon fill="midnightblue" stroke="midnightblue" points="1101.08,-232.43 1111.25,-235.4 1105.15,-226.74 1101.08,-232.43"/>
</g>
<!-- Node18&#45;&gt;Node7 -->
<g id="edge25" class="edge">
<title>Node18&#45;&gt;Node7</title>
<path fill="none" stroke="midnightblue" d="M868.53,-232.75C913.7,-220.04 973.95,-203.09 1009.69,-193.03"/>
<polygon fill="midnightblue" stroke="midnightblue" points="867.52,-229.4 858.84,-235.48 869.41,-236.14 867.52,-229.4"/>
</g>
<!-- Node19&#45;&gt;Node6 -->
<g id="edge27" class="edge">
<title>Node19&#45;&gt;Node6</title>
<path fill="none" stroke="midnightblue" d="M835.22,-364.31C814.08,-351.93 787.62,-336.43 771.53,-327.01"/>
<polygon fill="midnightblue" stroke="midnightblue" points="833.52,-367.36 843.91,-369.4 837.05,-361.32 833.52,-367.36"/>
</g>
<!-- Node20&#45;&gt;Node6 -->
<g id="edge29" class="edge">
<title>Node20&#45;&gt;Node6</title>
<path fill="none" stroke="midnightblue" d="M455.56,-368.75C545.76,-350.93 640,-335.96 698.99,-327.03"/>
<polygon fill="midnightblue" stroke="midnightblue" points="454.85,-365.33 445.72,-370.71 456.21,-372.19 454.85,-365.33"/>
</g>
<!-- Node20&#45;&gt;Node11 -->
<g id="edge30" class="edge">
<title>Node20&#45;&gt;Node11</title>
<path fill="none" stroke="midnightblue" d="M428.24,-364.8C452.4,-352.34 483,-336.56 501.51,-327.01"/>
<polygon fill="midnightblue" stroke="midnightblue" points="426.62,-361.7 419.34,-369.4 429.83,-367.92 426.62,-361.7"/>
</g>
<!-- Node21&#45;&gt;Node8 -->
<g id="edge32" class="edge">
<title>Node21&#45;&gt;Node8</title>
<path fill="none" stroke="midnightblue" d="M310.58,-512.85C227.44,-506.44 98.2,-492.65 57,-467 19.48,-443.64 0,-429.7 0,-385.5 0,-385.5 0,-385.5 0,-182.5 0,-4.61 217.21,-131.73 394,-112 745.73,-72.74 1171.11,-67.5 1326.99,-66.97"/>
<polygon fill="midnightblue" stroke="midnightblue" points="310.5,-516.35 320.73,-513.61 311.02,-509.37 310.5,-516.35"/>
</g>
<!-- Node21&#45;&gt;Node14 -->
<g id="edge42" class="edge">
<title>Node21&#45;&gt;Node14</title>
<path fill="none" stroke="midnightblue" d="M457.51,-507.65C552.52,-494.91 716.36,-472.96 805.96,-460.95"/>
<polygon fill="midnightblue" stroke="midnightblue" points="456.85,-504.2 447.41,-509 457.78,-511.14 456.85,-504.2"/>
</g>
<!-- Node22 -->
<g id="node22" class="node">
<title>Node22</title>
<g id="a_node22"><a xlink:href="http2__endpoint_8h.html" target="_top" xlink:title=" ">
<polygon fill="white" stroke="black" points="66.5,-442 66.5,-461 205.5,-461 205.5,-442 66.5,-442"/>
<text text-anchor="middle" x="136" y="-449" font-family="Helvetica,sans-Serif" font-size="10.00">src/http/http2_endpoint.h</text>
</a>
</g>
</g>
<!-- Node21&#45;&gt;Node22 -->
<g id="edge33" class="edge">
<title>Node21&#45;&gt;Node22</title>
<path fill="none" stroke="midnightblue" d="M341.36,-506.32C292.39,-493.49 213.12,-472.71 168.75,-461.08"/>
<polygon fill="midnightblue" stroke="midnightblue" points="340.76,-509.79 351.32,-508.94 342.54,-503.01 340.76,-509.79"/>
</g>
<!-- Node25 -->
<g id="node25" class="node">
<title>Node25</title>
<g id="a_node25"><a xlink:href="http__endpoint_8h.html" target="_top" xlink:title=" ">
<polygon fill="white" stroke="black" points="223.5,-442 223.5,-461 356.5,-461 356.5,-442 223.5,-442"/>
<text text-anchor="middle" x="290" y="-449" font-family="Helvetica,sans-Serif" font-size="10.00">src/http/http_endpoint.h</text>
</a>
</g>
</g>
<!-- Node21&#45;&gt;Node25 -->
<g id="edge40" class="edge">
<title>Node21&#45;&gt;Node25</title>
<path fill="none" stroke="midnightblue" d="M362.91,-502.92C344.33,-490.07 317.88,-471.78 302.48,-461.13"/>
<polygon fill="midnightblue" stroke="midnightblue" points="361.11,-505.93 371.32,-508.73 365.09,-500.17 361.11,-505.93"/>
</g>
<!-- Node21&#45;&gt;Node26 -->
<g id="edge43" class="edge">
<title>Node21&#45;&gt;Node26</title>
<path fill="none" stroke="midnightblue" d="M457.06,-510.79C485.99,-508.22 519.55,-505.35 550,-503 804.61,-483.39 1107.75,-464.52 1239.88,-456.51"/>
<polygon fill="midnightblue" stroke="midnightblue" points="456.68,-507.31 447.04,-511.69 457.31,-514.28 456.68,-507.31"/>
</g>
<!-- Node22&#45;&gt;Node23 -->
<g id="edge34" class="edge">
<title>Node22&#45;&gt;Node23</title>
<path fill="none" stroke="midnightblue" d="M159.71,-436.62C181.7,-423.74 213.74,-404.98 232.27,-394.13"/>
<polygon fill="midnightblue" stroke="midnightblue" points="157.83,-433.66 150.97,-441.73 161.37,-439.7 157.83,-433.66"/>
</g>
<!-- Node23&#45;&gt;Node7 -->
<g id="edge38" class="edge">
<title>Node23&#45;&gt;Node7</title>
<path fill="none" stroke="midnightblue" d="M267.42,-369.12C297.19,-348.35 351.35,-311.41 373,-302 581.93,-211.19 856.67,-190.53 977.93,-185.86"/>
<polygon fill="midnightblue" stroke="midnightblue" points="265.2,-366.39 259.02,-375 269.22,-372.13 265.2,-366.39"/>
</g>
<!-- Node23&#45;&gt;Node8 -->
<g id="edge35" class="edge">
<title>Node23&#45;&gt;Node8</title>
<path fill="none" stroke="midnightblue" d="M259.81,-366.71C276.89,-342.59 305,-296.11 305,-251.5 305,-251.5 305,-251.5 305,-182.5 305,-78.97 1097.57,-68.05 1326.67,-67.05"/>
<polygon fill="midnightblue" stroke="midnightblue" points="256.96,-364.67 253.88,-374.81 262.61,-368.8 256.96,-364.67"/>
</g>
<!-- Node23&#45;&gt;Node11 -->
<g id="edge39" class="edge">
<title>Node23&#45;&gt;Node11</title>
<path fill="none" stroke="midnightblue" d="M292.59,-372.56C346.02,-359.75 433.43,-338.78 482.21,-327.08"/>
<polygon fill="midnightblue" stroke="midnightblue" points="291.62,-369.2 282.71,-374.94 293.25,-376.01 291.62,-369.2"/>
</g>
<!-- Node24 -->
<g id="node24" class="node">
<title>Node24</title>
<g id="a_node24"><a xlink:href="ccf__acme__client_8h.html" target="_top" xlink:title=" ">
<polygon fill="white" stroke="black" points="1211.5,-241 1211.5,-260 1360.5,-260 1360.5,-241 1211.5,-241"/>
<text text-anchor="middle" x="1286" y="-248" font-family="Helvetica,sans-Serif" font-size="10.00">src/node/ccf_acme_client.h</text>
</a>
</g>
</g>
<!-- Node23&#45;&gt;Node24 -->
<g id="edge36" class="edge">
<title>Node23&#45;&gt;Node24</title>
<path fill="none" stroke="midnightblue" d="M277.65,-371.1C333.49,-348.54 446.52,-302.97 451,-302 777.98,-230.95 870.43,-302.86 1203,-266 1216.09,-264.55 1230.23,-262.33 1243.07,-260.05"/>
<polygon fill="midnightblue" stroke="midnightblue" points="276.2,-367.91 268.24,-374.91 278.83,-374.4 276.2,-367.91"/>
</g>
<!-- Node24&#45;&gt;Node7 -->
<g id="edge37" class="edge">
<title>Node24&#45;&gt;Node7</title>
<path fill="none" stroke="midnightblue" d="M1243.7,-238.32C1195.13,-225.49 1116.49,-204.71 1072.48,-193.08"/>
<polygon fill="midnightblue" stroke="midnightblue" points="1243.02,-241.76 1253.59,-240.94 1244.81,-235 1243.02,-241.76"/>
</g>
<!-- Node25&#45;&gt;Node23 -->
<g id="edge41" class="edge">
<title>Node25&#45;&gt;Node23</title>
<path fill="none" stroke="midnightblue" d="M278.45,-433.03C270.12,-420.45 259.24,-404.01 252.71,-394.13"/>
<polygon fill="midnightblue" stroke="midnightblue" points="275.76,-435.32 284.2,-441.73 281.6,-431.46 275.76,-435.32"/>
</g>
<!-- Node26&#45;&gt;Node8 -->
<g id="edge44" class="edge">
<title>Node26&#45;&gt;Node8</title>
<path fill="none" stroke="midnightblue" d="M1332.55,-437.01C1367.52,-416.48 1426,-373.87 1426,-318.5 1426,-318.5 1426,-318.5 1426,-182.5 1426,-140.7 1403.27,-94.47 1392.97,-75.66"/>
<polygon fill="midnightblue" stroke="midnightblue" points="1330.77,-433.99 1323.8,-441.97 1334.22,-440.08 1330.77,-433.99"/>
</g>
<!-- Node26&#45;&gt;Node27 -->
<g id="edge45" class="edge">
<title>Node26&#45;&gt;Node27</title>
<path fill="none" stroke="midnightblue" d="M1344.74,-438.93C1386.72,-426.06 1453.54,-405.57 1491.07,-394.06"/>
<polygon fill="midnightblue" stroke="midnightblue" points="1343.69,-435.59 1335.15,-441.87 1345.74,-442.28 1343.69,-435.59"/>
</g>
<!-- Node27&#45;&gt;Node7 -->
<g id="edge49" class="edge">
<title>Node27&#45;&gt;Node7</title>
<path fill="none" stroke="midnightblue" d="M1507.5,-366.29C1485.18,-334.43 1432.63,-266.64 1370,-235 1324.28,-211.9 1184.39,-196.63 1102.15,-189.38"/>
<polygon fill="midnightblue" stroke="midnightblue" points="1504.89,-368.67 1513.43,-374.94 1510.66,-364.72 1504.89,-368.67"/>
</g>
<!-- Node27&#45;&gt;Node16 -->
<g id="edge52" class="edge">
<title>Node27&#45;&gt;Node16</title>
<path fill="none" stroke="midnightblue" d="M1482.89,-371.77C1443.27,-358.89 1380.6,-338.52 1345.35,-327.06"/>
<polygon fill="midnightblue" stroke="midnightblue" points="1481.85,-375.11 1492.44,-374.87 1484.01,-368.45 1481.85,-375.11"/>
</g>
<!-- Node28 -->
<g id="node28" class="node">
<title>Node28</title>
<g id="a_node28"><a xlink:href="acme__challenge__frontend_8h.html" target="_top" xlink:title=" ">
<polygon fill="white" stroke="black" points="1492,-302.5 1492,-332.5 1632,-332.5 1632,-302.5 1492,-302.5"/>
<text text-anchor="start" x="1500" y="-320.5" font-family="Helvetica,sans-Serif" font-size="10.00">src/node/acme_challenge</text>
<text text-anchor="middle" x="1562" y="-309.5" font-family="Helvetica,sans-Serif" font-size="10.00">_frontend.h</text>
</a>
</g>
</g>
<!-- Node27&#45;&gt;Node28 -->
<g id="edge46" class="edge">
<title>Node27&#45;&gt;Node28</title>
<path fill="none" stroke="midnightblue" d="M1530.34,-366.35C1537.31,-355.82 1546.12,-342.5 1552.68,-332.59"/>
<polygon fill="midnightblue" stroke="midnightblue" points="1527.4,-364.46 1524.8,-374.73 1533.24,-368.32 1527.4,-364.46"/>
</g>
<!-- Node29 -->
<g id="node29" class="node">
<title>Node29</title>
<g id="a_node29"><a xlink:href="member__frontend_8h.html" target="_top" xlink:title=" ">
<polygon fill="white" stroke="black" points="1545,-168.5 1545,-198.5 1665,-198.5 1665,-168.5 1545,-168.5"/>
<text text-anchor="start" x="1553" y="-186.5" font-family="Helvetica,sans-Serif" font-size="10.00">src/node/rpc/member</text>
<text text-anchor="middle" x="1605" y="-175.5" font-family="Helvetica,sans-Serif" font-size="10.00">_frontend.h</text>
</a>
</g>
</g>
<!-- Node27&#45;&gt;Node29 -->
<g id="edge50" class="edge">
<title>Node27&#45;&gt;Node29</title>
<path fill="none" stroke="midnightblue" d="M1583.44,-372.03C1605.47,-364.69 1627.85,-352.67 1641,-333 1669.6,-290.21 1634.18,-226.99 1615.34,-198.88"/>
<polygon fill="midnightblue" stroke="midnightblue" points="1582.26,-368.73 1573.72,-374.99 1584.3,-375.43 1582.26,-368.73"/>
</g>
<!-- Node30 -->
<g id="node30" class="node">
<title>Node30</title>
<g id="a_node30"><a xlink:href="user__frontend_8h.html" target="_top" xlink:title=" ">
<polygon fill="white" stroke="black" points="1610.5,-112.5 1610.5,-131.5 1765.5,-131.5 1765.5,-112.5 1610.5,-112.5"/>
<text text-anchor="middle" x="1688" y="-119.5" font-family="Helvetica,sans-Serif" font-size="10.00">src/node/rpc/user_frontend.h</text>
</a>
</g>
</g>
<!-- Node27&#45;&gt;Node30 -->
<g id="edge53" class="edge">
<title>Node27&#45;&gt;Node30</title>
<path fill="none" stroke="midnightblue" d="M1593.59,-372.76C1618.24,-365.51 1643.55,-353.35 1660,-333 1710.17,-270.92 1695.4,-163.2 1689.74,-131.81"/>
<polygon fill="midnightblue" stroke="midnightblue" points="1592.56,-369.42 1583.82,-375.4 1594.39,-376.17 1592.56,-369.42"/>
</g>
<!-- Node28&#45;&gt;Node8 -->
<g id="edge47" class="edge">
<title>Node28&#45;&gt;Node8</title>
<path fill="none" stroke="midnightblue" d="M1551.2,-293.23C1532.14,-253.58 1489.83,-171.44 1440,-112 1428.03,-97.73 1411.34,-84.14 1400.13,-75.7"/>
<polygon fill="midnightblue" stroke="midnightblue" points="1548.08,-294.83 1555.53,-302.36 1554.4,-291.83 1548.08,-294.83"/>
</g>
<!-- Node28&#45;&gt;Node24 -->
<g id="edge48" class="edge">
<title>Node28&#45;&gt;Node24</title>
<path fill="none" stroke="midnightblue" d="M1492.57,-300.15C1438.41,-287.39 1365.36,-270.19 1322.21,-260.03"/>
<polygon fill="midnightblue" stroke="midnightblue" points="1491.92,-303.59 1502.45,-302.48 1493.52,-296.78 1491.92,-303.59"/>
</g>
<!-- Node29&#45;&gt;Node8 -->
<g id="edge51" class="edge">
<title>Node29&#45;&gt;Node8</title>
<path fill="none" stroke="midnightblue" d="M1585.48,-160.82C1570.52,-145.34 1548.66,-125.03 1526,-112 1495.42,-94.41 1457.01,-82.6 1428.49,-75.51"/>
<polygon fill="midnightblue" stroke="midnightblue" points="1583.24,-163.54 1592.64,-168.41 1588.33,-158.74 1583.24,-163.54"/>
</g>
<!-- Node30&#45;&gt;Node8 -->
<g id="edge54" class="edge">
<title>Node30&#45;&gt;Node8</title>
<path fill="none" stroke="midnightblue" d="M1630.58,-110.66C1573.88,-100.46 1488.21,-85.04 1435.31,-75.52"/>
<polygon fill="midnightblue" stroke="midnightblue" points="1630,-114.12 1640.46,-112.44 1631.24,-107.23 1630,-114.12"/>
</g>
<!-- Node31&#45;&gt;Node6 -->
<g id="edge57" class="edge">
<title>Node31&#45;&gt;Node6</title>
<path fill="none" stroke="midnightblue" d="M1149.34,-503.9C1111.86,-482.95 1038.74,-440.89 980,-400 961.83,-387.35 960.74,-379.02 941,-369 899.2,-347.78 847.4,-334.59 809.42,-327.04"/>
<polygon fill="midnightblue" stroke="midnightblue" points="1148.05,-507.19 1158.49,-509 1151.46,-501.08 1148.05,-507.19"/>
</g>
<!-- Node31&#45;&gt;Node7 -->
<g id="edge58" class="edge">
<title>Node31&#45;&gt;Node7</title>
<path fill="none" stroke="midnightblue" d="M1177.88,-498.85C1180.74,-482.26 1183.57,-457.38 1180,-436 1174.82,-404.95 1173.15,-396.03 1157,-369 1136.19,-334.17 1122.92,-331.44 1095,-302 1079.64,-285.81 1070.82,-285.52 1060,-266 1046.58,-241.79 1042.07,-208.62 1040.63,-193.13"/>
<polygon fill="midnightblue" stroke="midnightblue" points="1174.41,-498.39 1175.97,-508.87 1181.28,-499.7 1174.41,-498.39"/>
</g>
<!-- Node31&#45;&gt;Node26 -->
<g id="edge61" class="edge">
<title>Node31&#45;&gt;Node26</title>
<path fill="none" stroke="midnightblue" d="M1200.72,-504.44C1227.06,-491.57 1266.57,-472.26 1289.27,-461.17"/>
<polygon fill="midnightblue" stroke="midnightblue" points="1199.11,-501.33 1191.66,-508.87 1202.18,-507.62 1199.11,-501.33"/>
</g>
<!-- Node32 -->
<g id="node32" class="node">
<title>Node32</title>
<g id="a_node32"><a xlink:href="node__to__node__channel__manager_8h.html" target="_top" xlink:title=" ">
<polygon fill="white" stroke="black" points="882.5,-235.5 882.5,-265.5 1011.5,-265.5 1011.5,-235.5 882.5,-235.5"/>
<text text-anchor="start" x="890.5" y="-253.5" font-family="Helvetica,sans-Serif" font-size="10.00">src/node/node_to_node</text>
<text text-anchor="middle" x="947" y="-242.5" font-family="Helvetica,sans-Serif" font-size="10.00">_channel_manager.h</text>
</a>
</g>
</g>
<!-- Node31&#45;&gt;Node32 -->
<g id="edge59" class="edge">
<title>Node31&#45;&gt;Node32</title>
<path fill="none" stroke="midnightblue" d="M1173.04,-498.74C1170.69,-468.87 1162.63,-409.69 1135,-369 1099.33,-316.46 1031.54,-282.83 987.85,-265.57"/>
<polygon fill="midnightblue" stroke="midnightblue" points="1169.56,-499.23 1173.7,-508.98 1176.55,-498.78 1169.56,-499.23"/>
</g>
<!-- Node32&#45;&gt;Node7 -->
<g id="edge60" class="edge">
<title>Node32&#45;&gt;Node7</title>
<path fill="none" stroke="midnightblue" d="M975.41,-229.64C992.96,-217.37 1014.59,-202.26 1027.83,-193.01"/>
<polygon fill="midnightblue" stroke="midnightblue" points="973.37,-226.8 967.18,-235.4 977.38,-232.54 973.37,-226.8"/>
</g>
</g>
</svg>
