<?xml version="1.0" encoding="UTF-8" standalone="no"?>
<!DOCTYPE svg PUBLIC "-//W3C//DTD SVG 1.1//EN"
 "http://www.w3.org/Graphics/SVG/1.1/DTD/svg11.dtd">
<!-- Generated by graphviz version 2.43.0 (0)
 -->
<!-- Title: include/ccf/crypto/hash_provider.h Pages: 1 -->
<!--zoomable 319 -->
<svg id="main" version="1.1" xmlns="http://www.w3.org/2000/svg" xmlns:xlink="http://www.w3.org/1999/xlink" xml:space="preserve" onload="init(evt)">
<style type="text/css"><![CDATA[
.edge:hover path { stroke: red; }
.edge:hover polygon { stroke: red; fill: red; }
]]></style>
<script type="text/javascript"><![CDATA[
var edges = document.getElementsByTagName('g');
if (edges && edges.length) {
  for (var i=0;i<edges.length;i++) {
    if (edges[i].id.substr(0,4)=='edge') {
      edges[i].setAttribute('class','edge');
    }
  }
}
]]></script>
        <defs>
                <circle id="rim" cx="0" cy="0" r="7"/>
                <circle id="rim2" cx="0" cy="0" r="3.5"/>
                <g id="zoomPlus">
                        <use xlink:href="#rim" fill="#404040">
                                <set attributeName="fill" to="#808080" begin="zoomplus.mouseover" end="zoomplus.mouseout"/>
                        </use>
                        <path d="M-4,0h8M0,-4v8" fill="none" stroke="white" stroke-width="1.5" pointer-events="none"/>
                </g>
                <g id="zoomMin">
                        <use xlink:href="#rim" fill="#404040">
                                <set attributeName="fill" to="#808080" begin="zoomminus.mouseover" end="zoomminus.mouseout"/>
                        </use>
                        <path d="M-4,0h8" fill="none" stroke="white" stroke-width="1.5" pointer-events="none"/>
                </g>
                <g id="dirArrow">
                        <path fill="none" stroke="white" stroke-width="1.5" d="M0,-3.0v7 M-2.5,-0.5L0,-3.0L2.5,-0.5"/>
                </g>
               <g id="resetDef">
                       <use xlink:href="#rim2" fill="#404040">
                               <set attributeName="fill" to="#808080" begin="reset.mouseover" end="reset.mouseout"/>
                       </use>
               </g>
        </defs>

<script type="text/javascript">
var viewWidth = 872;
var viewHeight = 319;
var sectionId = 'dynsection-0';
</script>
<script xlink:href="svgpan.js"/>
<svg id="graph" class="graph">
<g id="viewport">
<title>include/ccf/crypto/hash_provider.h</title>
<polygon fill="white" stroke="transparent" points="-4,4 -4,-315 868,-315 868,4 -4,4"/>
<!-- Node1 -->
<g id="node1" class="node">
<title>Node1</title>
<g id="a_node1"><a xlink:title=" ">
<polygon fill="#bfbfbf" stroke="black" points="558.5,-280.5 558.5,-310.5 661.5,-310.5 661.5,-280.5 558.5,-280.5"/>
<text text-anchor="start" x="566.5" y="-298.5" font-family="Helvetica,sans-Serif" font-size="10.00">include/ccf/crypto</text>
<text text-anchor="middle" x="610" y="-287.5" font-family="Helvetica,sans-Serif" font-size="10.00">/hash_provider.h</text>
</a>
</g>
</g>
<!-- Node2 -->
<g id="node2" class="node">
<title>Node2</title>
<g id="a_node2"><a xlink:href="hash__bytes_8h.html" target="_top" xlink:title=" ">
<polygon fill="white" stroke="black" points="0,-168.5 0,-187.5 132,-187.5 132,-168.5 0,-168.5"/>
<text text-anchor="middle" x="66" y="-175.5" font-family="Helvetica,sans-Serif" font-size="10.00">ccf/crypto/hash_bytes.h</text>
</a>
</g>
</g>
<!-- Node1&#45;&gt;Node2 -->
<g id="edge1" class="edge">
<title>Node1&#45;&gt;Node2</title>
<path fill="none" stroke="midnightblue" d="M558.36,-292.55C453.53,-288.01 219.47,-274.66 146,-244 119.8,-233.07 95.36,-210.73 80.55,-195.31"/>
<polygon fill="midnightblue" stroke="midnightblue" points="82.73,-192.52 73.36,-187.58 77.6,-197.29 82.73,-192.52"/>
</g>
<!-- Node3 -->
<g id="node3" class="node">
<title>Node3</title>
<g id="a_node3"><a xlink:title=" ">
<polygon fill="white" stroke="#bfbfbf" points="153.5,-0.5 153.5,-19.5 200.5,-19.5 200.5,-0.5 153.5,-0.5"/>
<text text-anchor="middle" x="177" y="-7.5" font-family="Helvetica,sans-Serif" font-size="10.00">vector</text>
</a>
</g>
</g>
<!-- Node1&#45;&gt;Node3 -->
<g id="edge29" class="edge">
<title>Node1&#45;&gt;Node3</title>
<path fill="none" stroke="midnightblue" d="M558.38,-292.12C440.18,-285.28 160,-260.46 160,-179 160,-179 160,-179 160,-121 160,-88.58 167.3,-51.42 172.33,-29.64"/>
<polygon fill="midnightblue" stroke="midnightblue" points="175.77,-30.31 174.71,-19.77 168.97,-28.67 175.77,-30.31"/>
</g>
<!-- Node4 -->
<g id="node4" class="node">
<title>Node4</title>
<g id="a_node4"><a xlink:href="md__type_8h.html" target="_top" xlink:title=" ">
<polygon fill="white" stroke="black" points="402.5,-224.5 402.5,-243.5 521.5,-243.5 521.5,-224.5 402.5,-224.5"/>
<text text-anchor="middle" x="462" y="-231.5" font-family="Helvetica,sans-Serif" font-size="10.00">ccf/crypto/md_type.h</text>
</a>
</g>
</g>
<!-- Node1&#45;&gt;Node4 -->
<g id="edge3" class="edge">
<title>Node1&#45;&gt;Node4</title>
<path fill="none" stroke="midnightblue" d="M574.93,-280.4C549.98,-270.37 516.79,-257.03 492.86,-247.4"/>
<polygon fill="midnightblue" stroke="midnightblue" points="494.12,-244.14 483.54,-243.66 491.51,-250.64 494.12,-244.14"/>
</g>
<!-- Node11 -->
<g id="node11" class="node">
<title>Node11</title>
<g id="a_node11"><a xlink:title=" ">
<polygon fill="white" stroke="#bfbfbf" points="649,-0.5 649,-19.5 691,-19.5 691,-0.5 649,-0.5"/>
<text text-anchor="middle" x="670" y="-7.5" font-family="Helvetica,sans-Serif" font-size="10.00">array</text>
</a>
</g>
</g>
<!-- Node1&#45;&gt;Node11 -->
<g id="edge26" class="edge">
<title>Node1&#45;&gt;Node11</title>
<path fill="none" stroke="midnightblue" d="M642.88,-280.33C658.89,-271.9 677.19,-259.76 689,-244 707.05,-219.92 708,-209.1 708,-179 708,-179 708,-179 708,-121 708,-86.81 691.4,-49.76 680.14,-28.57"/>
<polygon fill="midnightblue" stroke="midnightblue" points="683.18,-26.83 675.28,-19.77 677.05,-30.22 683.18,-26.83"/>
</g>
<!-- Node18 -->
<g id="node18" class="node">
<title>Node18</title>
<g id="a_node18"><a xlink:href="sha256__hash_8h.html" target="_top" xlink:title=" ">
<polygon fill="white" stroke="black" points="540,-224.5 540,-243.5 680,-243.5 680,-224.5 540,-224.5"/>
<text text-anchor="middle" x="610" y="-231.5" font-family="Helvetica,sans-Serif" font-size="10.00">ccf/crypto/sha256_hash.h</text>
</a>
</g>
</g>
<!-- Node1&#45;&gt;Node18 -->
<g id="edge21" class="edge">
<title>Node1&#45;&gt;Node18</title>
<path fill="none" stroke="midnightblue" d="M610,-280.4C610,-272.47 610,-262.46 610,-253.86"/>
<polygon fill="midnightblue" stroke="midnightblue" points="613.5,-253.66 610,-243.66 606.5,-253.66 613.5,-253.66"/>
</g>
<!-- Node20 -->
<g id="node20" class="node">
<title>Node20</title>
<g id="a_node20"><a xlink:title=" ">
<polygon fill="white" stroke="#bfbfbf" points="736,-224.5 736,-243.5 786,-243.5 786,-224.5 736,-224.5"/>
<text text-anchor="middle" x="761" y="-231.5" font-family="Helvetica,sans-Serif" font-size="10.00">cstdint</text>
</a>
</g>
</g>
<!-- Node1&#45;&gt;Node20 -->
<g id="edge27" class="edge">
<title>Node1&#45;&gt;Node20</title>
<path fill="none" stroke="midnightblue" d="M645.78,-280.4C671.23,-270.37 705.1,-257.03 729.52,-247.4"/>
<polygon fill="midnightblue" stroke="midnightblue" points="731.01,-250.58 739.03,-243.66 728.44,-244.07 731.01,-250.58"/>
</g>
<!-- Node21 -->
<g id="node21" class="node">
<title>Node21</title>
<g id="a_node21"><a xlink:title=" ">
<polygon fill="white" stroke="#bfbfbf" points="804,-224.5 804,-243.5 864,-243.5 864,-224.5 804,-224.5"/>
<text text-anchor="middle" x="834" y="-231.5" font-family="Helvetica,sans-Serif" font-size="10.00">iostream</text>
</a>
</g>
</g>
<!-- Node1&#45;&gt;Node21 -->
<g id="edge28" class="edge">
<title>Node1&#45;&gt;Node21</title>
<path fill="none" stroke="midnightblue" d="M661.67,-280.77C701.94,-270.08 757.05,-255.44 794,-245.62"/>
<polygon fill="midnightblue" stroke="midnightblue" points="795.15,-248.94 803.92,-242.99 793.35,-242.18 795.15,-248.94"/>
</g>
<!-- Node2&#45;&gt;Node3 -->
<g id="edge2" class="edge">
<title>Node2&#45;&gt;Node3</title>
<path fill="none" stroke="midnightblue" d="M71.57,-168.45C84.51,-148.62 117.68,-97.96 146,-56 152.31,-46.64 159.45,-36.27 165.29,-27.84"/>
<polygon fill="midnightblue" stroke="midnightblue" points="168.18,-29.8 171.01,-19.59 162.43,-25.81 168.18,-29.8"/>
</g>
<!-- Node5 -->
<g id="node5" class="node">
<title>Node5</title>
<g id="a_node5"><a xlink:href="json_8h.html" target="_top" xlink:title=" ">
<polygon fill="white" stroke="black" points="423.5,-168.5 423.5,-187.5 500.5,-187.5 500.5,-168.5 423.5,-168.5"/>
<text text-anchor="middle" x="462" y="-175.5" font-family="Helvetica,sans-Serif" font-size="10.00">ccf/ds/json.h</text>
</a>
</g>
</g>
<!-- Node4&#45;&gt;Node5 -->
<g id="edge4" class="edge">
<title>Node4&#45;&gt;Node5</title>
<path fill="none" stroke="midnightblue" d="M462,-224.08C462,-217.01 462,-206.86 462,-197.99"/>
<polygon fill="midnightblue" stroke="midnightblue" points="465.5,-197.75 462,-187.75 458.5,-197.75 465.5,-197.75"/>
</g>
<!-- Node6 -->
<g id="node6" class="node">
<title>Node6</title>
<g id="a_node6"><a xlink:href="include_2ccf_2crypto_2base64_8h.html" target="_top" xlink:title=" ">
<polygon fill="white" stroke="black" points="188,-56.5 188,-75.5 300,-75.5 300,-56.5 188,-56.5"/>
<text text-anchor="middle" x="244" y="-63.5" font-family="Helvetica,sans-Serif" font-size="10.00">ccf/crypto/base64.h</text>
</a>
</g>
</g>
<!-- Node5&#45;&gt;Node6 -->
<g id="edge5" class="edge">
<title>Node5&#45;&gt;Node6</title>
<path fill="none" stroke="midnightblue" d="M423.28,-172.18C389.49,-166.6 340.19,-155.05 303,-132 283.05,-119.63 265.74,-98.62 255.13,-83.84"/>
<polygon fill="midnightblue" stroke="midnightblue" points="257.98,-81.81 249.42,-75.57 252.22,-85.79 257.98,-81.81"/>
</g>
<!-- Node8 -->
<g id="node8" class="node">
<title>Node8</title>
<g id="a_node8"><a xlink:href="include_2ccf_2ds_2json__schema_8h.html" target="_top" xlink:title=" ">
<polygon fill="white" stroke="black" points="312.5,-112.5 312.5,-131.5 433.5,-131.5 433.5,-112.5 312.5,-112.5"/>
<text text-anchor="middle" x="373" y="-119.5" font-family="Helvetica,sans-Serif" font-size="10.00">ccf/ds/json_schema.h</text>
</a>
</g>
</g>
<!-- Node5&#45;&gt;Node8 -->
<g id="edge8" class="edge">
<title>Node5&#45;&gt;Node8</title>
<path fill="none" stroke="midnightblue" d="M447.7,-168.32C433.82,-159.9 412.51,-146.97 396.2,-137.07"/>
<polygon fill="midnightblue" stroke="midnightblue" points="397.63,-133.85 387.26,-131.65 394,-139.83 397.63,-133.85"/>
</g>
<!-- Node15 -->
<g id="node15" class="node">
<title>Node15</title>
<g id="a_node15"><a xlink:title=" ">
<polygon fill="white" stroke="#bfbfbf" points="554.5,-56.5 554.5,-75.5 633.5,-75.5 633.5,-56.5 554.5,-56.5"/>
<text text-anchor="middle" x="594" y="-63.5" font-family="Helvetica,sans-Serif" font-size="10.00">fmt/format.h</text>
</a>
</g>
</g>
<!-- Node5&#45;&gt;Node15 -->
<g id="edge19" class="edge">
<title>Node5&#45;&gt;Node15</title>
<path fill="none" stroke="midnightblue" d="M462.21,-168.26C463,-154.58 466.44,-128 481,-112 497.59,-93.77 522.54,-82.8 544.78,-76.27"/>
<polygon fill="midnightblue" stroke="midnightblue" points="545.71,-79.65 554.44,-73.66 543.88,-72.89 545.71,-79.65"/>
</g>
<!-- Node17 -->
<g id="node17" class="node">
<title>Node17</title>
<g id="a_node17"><a xlink:title=" ">
<polygon fill="white" stroke="#bfbfbf" points="490,-112.5 490,-131.5 546,-131.5 546,-112.5 490,-112.5"/>
<text text-anchor="middle" x="518" y="-119.5" font-family="Helvetica,sans-Serif" font-size="10.00">sstream</text>
</a>
</g>
</g>
<!-- Node5&#45;&gt;Node17 -->
<g id="edge20" class="edge">
<title>Node5&#45;&gt;Node17</title>
<path fill="none" stroke="midnightblue" d="M471,-168.32C479.19,-160.42 491.51,-148.55 501.47,-138.94"/>
<polygon fill="midnightblue" stroke="midnightblue" points="504.07,-141.29 508.84,-131.83 499.21,-136.26 504.07,-141.29"/>
</g>
<!-- Node6&#45;&gt;Node3 -->
<g id="edge7" class="edge">
<title>Node6&#45;&gt;Node3</title>
<path fill="none" stroke="midnightblue" d="M233.24,-56.32C223.23,-48.26 208.11,-36.08 196.07,-26.37"/>
<polygon fill="midnightblue" stroke="midnightblue" points="197.94,-23.38 187.96,-19.83 193.55,-28.83 197.94,-23.38"/>
</g>
<!-- Node7 -->
<g id="node7" class="node">
<title>Node7</title>
<g id="a_node7"><a xlink:title=" ">
<polygon fill="white" stroke="#bfbfbf" points="229,-0.5 229,-19.5 273,-19.5 273,-0.5 229,-0.5"/>
<text text-anchor="middle" x="251" y="-7.5" font-family="Helvetica,sans-Serif" font-size="10.00">string</text>
</a>
</g>
</g>
<!-- Node6&#45;&gt;Node7 -->
<g id="edge6" class="edge">
<title>Node6&#45;&gt;Node7</title>
<path fill="none" stroke="midnightblue" d="M245.16,-56.08C246.08,-48.93 247.42,-38.64 248.58,-29.69"/>
<polygon fill="midnightblue" stroke="midnightblue" points="252.05,-30.12 249.87,-19.75 245.11,-29.22 252.05,-30.12"/>
</g>
<!-- Node9 -->
<g id="node9" class="node">
<title>Node9</title>
<g id="a_node9"><a xlink:href="nonstd_8h.html" target="_top" xlink:title=" ">
<polygon fill="white" stroke="black" points="446,-56.5 446,-75.5 536,-75.5 536,-56.5 446,-56.5"/>
<text text-anchor="middle" x="491" y="-63.5" font-family="Helvetica,sans-Serif" font-size="10.00">ccf/ds/nonstd.h</text>
</a>
</g>
</g>
<!-- Node8&#45;&gt;Node9 -->
<g id="edge9" class="edge">
<title>Node8&#45;&gt;Node9</title>
<path fill="none" stroke="midnightblue" d="M391.7,-112.44C410.94,-103.64 441.15,-89.81 463.2,-79.72"/>
<polygon fill="midnightblue" stroke="midnightblue" points="464.75,-82.86 472.39,-75.52 461.84,-76.5 464.75,-82.86"/>
</g>
<!-- Node8&#45;&gt;Node15 -->
<g id="edge17" class="edge">
<title>Node8&#45;&gt;Node15</title>
<path fill="none" stroke="midnightblue" d="M408.02,-112.44C446.25,-103.1 507.57,-88.12 549.26,-77.93"/>
<polygon fill="midnightblue" stroke="midnightblue" points="550.26,-81.29 559.15,-75.52 548.6,-74.49 550.26,-81.29"/>
</g>
<!-- Node16 -->
<g id="node16" class="node">
<title>Node16</title>
<g id="a_node16"><a xlink:title=" ">
<polygon fill="white" stroke="#bfbfbf" points="318,-56.5 318,-75.5 428,-75.5 428,-56.5 318,-56.5"/>
<text text-anchor="middle" x="373" y="-63.5" font-family="Helvetica,sans-Serif" font-size="10.00">nlohmann/json.hpp</text>
</a>
</g>
</g>
<!-- Node8&#45;&gt;Node16 -->
<g id="edge18" class="edge">
<title>Node8&#45;&gt;Node16</title>
<path fill="none" stroke="midnightblue" d="M373,-112.08C373,-105.01 373,-94.86 373,-85.99"/>
<polygon fill="midnightblue" stroke="midnightblue" points="376.5,-85.75 373,-75.75 369.5,-85.75 376.5,-85.75"/>
</g>
<!-- Node9&#45;&gt;Node3 -->
<g id="edge16" class="edge">
<title>Node9&#45;&gt;Node3</title>
<path fill="none" stroke="midnightblue" d="M445.92,-57.48C442.9,-56.98 439.91,-56.48 437,-56 340.56,-39.96 316.09,-38.02 220,-20 216.95,-19.43 213.78,-18.81 210.61,-18.18"/>
<polygon fill="midnightblue" stroke="midnightblue" points="211.12,-14.71 200.62,-16.13 209.72,-21.57 211.12,-14.71"/>
</g>
<!-- Node9&#45;&gt;Node7 -->
<g id="edge13" class="edge">
<title>Node9&#45;&gt;Node7</title>
<path fill="none" stroke="midnightblue" d="M452.97,-56.44C405.98,-45.87 326.88,-28.07 282.9,-18.18"/>
<polygon fill="midnightblue" stroke="midnightblue" points="283.57,-14.74 273.04,-15.96 282.03,-21.57 283.57,-14.74"/>
</g>
<!-- Node10 -->
<g id="node10" class="node">
<title>Node10</title>
<g id="a_node10"><a xlink:title=" ">
<polygon fill="white" stroke="#bfbfbf" points="555,-0.5 555,-19.5 619,-19.5 619,-0.5 555,-0.5"/>
<text text-anchor="middle" x="587" y="-7.5" font-family="Helvetica,sans-Serif" font-size="10.00">algorithm</text>
</a>
</g>
</g>
<!-- Node9&#45;&gt;Node10 -->
<g id="edge10" class="edge">
<title>Node9&#45;&gt;Node10</title>
<path fill="none" stroke="midnightblue" d="M506.42,-56.32C521.54,-47.82 544.82,-34.73 562.47,-24.8"/>
<polygon fill="midnightblue" stroke="midnightblue" points="564.61,-27.61 571.61,-19.65 561.18,-21.51 564.61,-27.61"/>
</g>
<!-- Node9&#45;&gt;Node11 -->
<g id="edge11" class="edge">
<title>Node9&#45;&gt;Node11</title>
<path fill="none" stroke="midnightblue" d="M519.36,-56.44C551.97,-46.61 605.32,-30.51 639,-20.35"/>
<polygon fill="midnightblue" stroke="midnightblue" points="640.21,-23.64 648.78,-17.4 638.19,-16.94 640.21,-23.64"/>
</g>
<!-- Node12 -->
<g id="node12" class="node">
<title>Node12</title>
<g id="a_node12"><a xlink:title=" ">
<polygon fill="white" stroke="#bfbfbf" points="309.5,-0.5 309.5,-19.5 358.5,-19.5 358.5,-0.5 309.5,-0.5"/>
<text text-anchor="middle" x="334" y="-7.5" font-family="Helvetica,sans-Serif" font-size="10.00">cctype</text>
</a>
</g>
</g>
<!-- Node9&#45;&gt;Node12 -->
<g id="edge12" class="edge">
<title>Node9&#45;&gt;Node12</title>
<path fill="none" stroke="midnightblue" d="M466.12,-56.44C439.63,-47.33 397.54,-32.85 368,-22.69"/>
<polygon fill="midnightblue" stroke="midnightblue" points="369.1,-19.37 358.5,-19.43 366.82,-25.99 369.1,-19.37"/>
</g>
<!-- Node13 -->
<g id="node13" class="node">
<title>Node13</title>
<g id="a_node13"><a xlink:title=" ">
<polygon fill="white" stroke="#bfbfbf" points="376.5,-0.5 376.5,-19.5 449.5,-19.5 449.5,-0.5 376.5,-0.5"/>
<text text-anchor="middle" x="413" y="-7.5" font-family="Helvetica,sans-Serif" font-size="10.00">string_view</text>
</a>
</g>
</g>
<!-- Node9&#45;&gt;Node13 -->
<g id="edge14" class="edge">
<title>Node9&#45;&gt;Node13</title>
<path fill="none" stroke="midnightblue" d="M478.47,-56.32C466.41,-47.98 447.97,-35.21 433.73,-25.35"/>
<polygon fill="midnightblue" stroke="midnightblue" points="435.72,-22.47 425.5,-19.65 431.73,-28.22 435.72,-22.47"/>
</g>
<!-- Node14 -->
<g id="node14" class="node">
<title>Node14</title>
<g id="a_node14"><a xlink:title=" ">
<polygon fill="white" stroke="#bfbfbf" points="467.5,-0.5 467.5,-19.5 536.5,-19.5 536.5,-0.5 467.5,-0.5"/>
<text text-anchor="middle" x="502" y="-7.5" font-family="Helvetica,sans-Serif" font-size="10.00">type_traits</text>
</a>
</g>
</g>
<!-- Node9&#45;&gt;Node14 -->
<g id="edge15" class="edge">
<title>Node9&#45;&gt;Node14</title>
<path fill="none" stroke="midnightblue" d="M492.82,-56.08C494.27,-48.93 496.37,-38.64 498.19,-29.69"/>
<polygon fill="midnightblue" stroke="midnightblue" points="501.65,-30.25 500.22,-19.75 494.79,-28.85 501.65,-30.25"/>
</g>
<!-- Node18&#45;&gt;Node5 -->
<g id="edge22" class="edge">
<title>Node18&#45;&gt;Node5</title>
<path fill="none" stroke="midnightblue" d="M586.55,-224.44C561.87,-215.44 522.81,-201.19 495.02,-191.05"/>
<polygon fill="midnightblue" stroke="midnightblue" points="495.94,-187.66 485.34,-187.52 493.54,-194.23 495.94,-187.66"/>
</g>
<!-- Node18&#45;&gt;Node11 -->
<g id="edge23" class="edge">
<title>Node18&#45;&gt;Node11</title>
<path fill="none" stroke="midnightblue" d="M621.16,-224.33C630.84,-216.11 644.32,-202.84 651,-188 675.06,-134.55 673.9,-63.16 671.68,-29.74"/>
<polygon fill="midnightblue" stroke="midnightblue" points="675.16,-29.29 670.89,-19.59 668.18,-29.84 675.16,-29.29"/>
</g>
<!-- Node18&#45;&gt;Node15 -->
<g id="edge25" class="edge">
<title>Node18&#45;&gt;Node15</title>
<path fill="none" stroke="midnightblue" d="M605.63,-224.31C601.44,-215.44 595.4,-201.14 593,-188 586.48,-152.3 589.22,-109.69 591.68,-85.75"/>
<polygon fill="midnightblue" stroke="midnightblue" points="595.18,-85.93 592.83,-75.6 588.23,-85.15 595.18,-85.93"/>
</g>
<!-- Node19 -->
<g id="node19" class="node">
<title>Node19</title>
<g id="a_node19"><a xlink:title=" ">
<polygon fill="white" stroke="#bfbfbf" points="602,-168.5 602,-187.5 642,-187.5 642,-168.5 602,-168.5"/>
<text text-anchor="middle" x="622" y="-175.5" font-family="Helvetica,sans-Serif" font-size="10.00">span</text>
</a>
</g>
</g>
<!-- Node18&#45;&gt;Node19 -->
<g id="edge24" class="edge">
<title>Node18&#45;&gt;Node19</title>
<path fill="none" stroke="midnightblue" d="M611.98,-224.08C613.57,-216.93 615.86,-206.64 617.85,-197.69"/>
<polygon fill="midnightblue" stroke="midnightblue" points="621.3,-198.27 620.06,-187.75 614.47,-196.75 621.3,-198.27"/>
</g>
</g>
</svg>
        <g id="navigator" transform="translate(0 0)" fill="#404254">
                <rect fill="#f2f5e9" fill-opacity="0.5" stroke="#606060" stroke-width=".5" x="0" y="0" width="60" height="60"/>
                <use id="zoomplus" xlink:href="#zoomPlus" x="17" y="9" onmousedown="handleZoom(evt,'in')"/>
                <use id="zoomminus" xlink:href="#zoomMin" x="42" y="9" onmousedown="handleZoom(evt,'out')"/>
                <use id="reset" xlink:href="#resetDef" x="30" y="36" onmousedown="handleReset()"/>
                <g id="arrowUp" xlink:href="#dirArrow" transform="translate(30 24)" onmousedown="handlePan(0,-1)">
                  <use xlink:href="#rim" fill="#404040">
                        <set attributeName="fill" to="#808080" begin="arrowUp.mouseover" end="arrowUp.mouseout"/>
                  </use>
                  <path fill="none" stroke="white" stroke-width="1.5" d="M0,-3.0v7 M-2.5,-0.5L0,-3.0L2.5,-0.5"/>
                </g>
                <g id="arrowRight" xlink:href="#dirArrow" transform="rotate(90) translate(36 -43)" onmousedown="handlePan(1,0)">
                  <use xlink:href="#rim" fill="#404040">
                        <set attributeName="fill" to="#808080" begin="arrowRight.mouseover" end="arrowRight.mouseout"/>
                  </use>
                  <path fill="none" stroke="white" stroke-width="1.5" d="M0,-3.0v7 M-2.5,-0.5L0,-3.0L2.5,-0.5"/>
                </g>
                <g id="arrowDown" xlink:href="#dirArrow" transform="rotate(180) translate(-30 -48)" onmousedown="handlePan(0,1)">
                  <use xlink:href="#rim" fill="#404040">
                        <set attributeName="fill" to="#808080" begin="arrowDown.mouseover" end="arrowDown.mouseout"/>
                  </use>
                  <path fill="none" stroke="white" stroke-width="1.5" d="M0,-3.0v7 M-2.5,-0.5L0,-3.0L2.5,-0.5"/>
                </g>
                <g id="arrowLeft" xlink:href="#dirArrow" transform="rotate(270) translate(-36 17)" onmousedown="handlePan(-1,0)">
                  <use xlink:href="#rim" fill="#404040">
                        <set attributeName="fill" to="#808080" begin="arrowLeft.mouseover" end="arrowLeft.mouseout"/>
                  </use>
                  <path fill="none" stroke="white" stroke-width="1.5" d="M0,-3.0v7 M-2.5,-0.5L0,-3.0L2.5,-0.5"/>
                </g>
        </g>
        <svg viewBox="0 0 15 15" width="100%" height="30px" preserveAspectRatio="xMaxYMin meet">
         <g id="arrow_out" transform="scale(0.3 0.3)">
          <a xlink:href="hash__provider_8h__incl_org.svg" target="_base">
           <rect id="button" ry="5" rx="5" y="6" x="6" height="38" width="38"
                fill="#f2f5e9" fill-opacity="0.5" stroke="#606060" stroke-width="1.0"/>
           <path id="arrow"
             d="M 11.500037,31.436501 C 11.940474,20.09759 22.043105,11.32322 32.158766,21.979434 L 37.068811,17.246167 C 37.068811,17.246167 37.088388,32 37.088388,32 L 22.160133,31.978069 C 22.160133,31.978069 26.997745,27.140456 26.997745,27.140456 C 18.528582,18.264221 13.291696,25.230495 11.500037,31.436501 z"
             style="fill:#404040;"/>
          </a>
         </g>
        </svg>
</svg>
