<?xml version="1.0" encoding="UTF-8" standalone="no"?>
<!DOCTYPE svg PUBLIC "-//W3C//DTD SVG 1.1//EN"
 "http://www.w3.org/Graphics/SVG/1.1/DTD/svg11.dtd">
<!-- Generated by graphviz version 2.43.0 (0)
 -->
<!-- Title: src/http/http_rpc_context.h Pages: 1 -->
<!--zoomable 509 -->
<svg id="main" version="1.1" xmlns="http://www.w3.org/2000/svg" xmlns:xlink="http://www.w3.org/1999/xlink" xml:space="preserve" onload="init(evt)">
<style type="text/css"><![CDATA[
.edge:hover path { stroke: red; }
.edge:hover polygon { stroke: red; fill: red; }
]]></style>
<script type="text/javascript"><![CDATA[
var edges = document.getElementsByTagName('g');
if (edges && edges.length) {
  for (var i=0;i<edges.length;i++) {
    if (edges[i].id.substr(0,4)=='edge') {
      edges[i].setAttribute('class','edge');
    }
  }
}
]]></script>
        <defs>
                <circle id="rim" cx="0" cy="0" r="7"/>
                <circle id="rim2" cx="0" cy="0" r="3.5"/>
                <g id="zoomPlus">
                        <use xlink:href="#rim" fill="#404040">
                                <set attributeName="fill" to="#808080" begin="zoomplus.mouseover" end="zoomplus.mouseout"/>
                        </use>
                        <path d="M-4,0h8M0,-4v8" fill="none" stroke="white" stroke-width="1.5" pointer-events="none"/>
                </g>
                <g id="zoomMin">
                        <use xlink:href="#rim" fill="#404040">
                                <set attributeName="fill" to="#808080" begin="zoomminus.mouseover" end="zoomminus.mouseout"/>
                        </use>
                        <path d="M-4,0h8" fill="none" stroke="white" stroke-width="1.5" pointer-events="none"/>
                </g>
                <g id="dirArrow">
                        <path fill="none" stroke="white" stroke-width="1.5" d="M0,-3.0v7 M-2.5,-0.5L0,-3.0L2.5,-0.5"/>
                </g>
               <g id="resetDef">
                       <use xlink:href="#rim2" fill="#404040">
                               <set attributeName="fill" to="#808080" begin="reset.mouseover" end="reset.mouseout"/>
                       </use>
               </g>
        </defs>

<script type="text/javascript">
var viewWidth = 894;
var viewHeight = 509;
var sectionId = 'dynsection-1';
</script>
<script xlink:href="svgpan.js"/>
<svg id="graph" class="graph">
<g id="viewport">
<title>src/http/http_rpc_context.h</title>
<polygon fill="white" stroke="transparent" points="-4,4 -4,-505 889.5,-505 889.5,4 -4,4"/>
<!-- Node1 -->
<g id="node1" class="node">
<title>Node1</title>
<g id="a_node1"><a xlink:title=" ">
<polygon fill="#bfbfbf" stroke="black" points="207,-481.5 207,-500.5 354,-500.5 354,-481.5 207,-481.5"/>
<text text-anchor="middle" x="280.5" y="-488.5" font-family="Helvetica,sans-Serif" font-size="10.00">src/http/http_rpc_context.h</text>
</a>
</g>
</g>
<!-- Node2 -->
<g id="node2" class="node">
<title>Node2</title>
<g id="a_node2"><a xlink:href="http2_8h.html" target="_top" xlink:title=" ">
<polygon fill="white" stroke="black" points="161,-425.5 161,-444.5 252,-444.5 252,-425.5 161,-425.5"/>
<text text-anchor="middle" x="206.5" y="-432.5" font-family="Helvetica,sans-Serif" font-size="10.00">src/http/http2.h</text>
</a>
</g>
</g>
<!-- Node1&#45;&gt;Node2 -->
<g id="edge1" class="edge">
<title>Node1&#45;&gt;Node2</title>
<path fill="none" stroke="midnightblue" d="M260.47,-475.38C247.09,-465.62 229.94,-453.11 218.61,-444.83"/>
<polygon fill="midnightblue" stroke="midnightblue" points="258.47,-478.26 268.61,-481.32 262.6,-472.6 258.47,-478.26"/>
</g>
<!-- Node3 -->
<g id="node3" class="node">
<title>Node3</title>
<g id="a_node3"><a xlink:href="http2__endpoint_8h.html" target="_top" xlink:title=" ">
<polygon fill="white" stroke="black" points="151,-369.5 151,-388.5 290,-388.5 290,-369.5 151,-369.5"/>
<text text-anchor="middle" x="220.5" y="-376.5" font-family="Helvetica,sans-Serif" font-size="10.00">src/http/http2_endpoint.h</text>
</a>
</g>
</g>
<!-- Node1&#45;&gt;Node3 -->
<g id="edge14" class="edge">
<title>Node1&#45;&gt;Node3</title>
<path fill="none" stroke="midnightblue" d="M277.33,-471.08C274.53,-457.61 269.59,-439.42 261.5,-425 253.43,-410.62 239.97,-397.06 230.69,-388.65"/>
<polygon fill="midnightblue" stroke="midnightblue" points="273.93,-471.91 279.21,-481.09 280.81,-470.62 273.93,-471.91"/>
</g>
<!-- Node11 -->
<g id="node11" class="node">
<title>Node11</title>
<g id="a_node11"><a xlink:href="http__endpoint_8h.html" target="_top" xlink:title=" ">
<polygon fill="white" stroke="black" points="0,-369.5 0,-388.5 133,-388.5 133,-369.5 0,-369.5"/>
<text text-anchor="middle" x="66.5" y="-376.5" font-family="Helvetica,sans-Serif" font-size="10.00">src/http/http_endpoint.h</text>
</a>
</g>
</g>
<!-- Node1&#45;&gt;Node11 -->
<g id="edge15" class="edge">
<title>Node1&#45;&gt;Node11</title>
<path fill="none" stroke="midnightblue" d="M237.73,-478.59C212.17,-470.9 179.53,-459.51 152.5,-445 122.16,-428.71 91.01,-402.26 75.88,-388.67"/>
<polygon fill="midnightblue" stroke="midnightblue" points="236.93,-482 247.51,-481.46 238.9,-475.28 236.93,-482"/>
</g>
<!-- Node12 -->
<g id="node12" class="node">
<title>Node12</title>
<g id="a_node12"><a xlink:href="jwt__key__auto__refresh_8h.html" target="_top" xlink:title=" ">
<polygon fill="white" stroke="black" points="385,-235.5 385,-265.5 510,-265.5 510,-235.5 385,-235.5"/>
<text text-anchor="start" x="393" y="-253.5" font-family="Helvetica,sans-Serif" font-size="10.00">src/node/jwt_key_auto</text>
<text text-anchor="middle" x="447.5" y="-242.5" font-family="Helvetica,sans-Serif" font-size="10.00">_refresh.h</text>
</a>
</g>
</g>
<!-- Node1&#45;&gt;Node12 -->
<g id="edge17" class="edge">
<title>Node1&#45;&gt;Node12</title>
<path fill="none" stroke="midnightblue" d="M286.36,-471.66C298.47,-435.89 329.08,-355.62 375.5,-302 388.29,-287.22 406.29,-274.6 421.09,-265.67"/>
<polygon fill="midnightblue" stroke="midnightblue" points="283,-470.66 283.2,-481.26 289.65,-472.86 283,-470.66"/>
</g>
<!-- Node13 -->
<g id="node13" class="node">
<title>Node13</title>
<g id="a_node13"><a xlink:href="forwarder_8h.html" target="_top" xlink:title=" ">
<polygon fill="white" stroke="black" points="563.5,-425.5 563.5,-444.5 697.5,-444.5 697.5,-425.5 563.5,-425.5"/>
<text text-anchor="middle" x="630.5" y="-432.5" font-family="Helvetica,sans-Serif" font-size="10.00">src/node/rpc/forwarder.h</text>
</a>
</g>
</g>
<!-- Node1&#45;&gt;Node13 -->
<g id="edge19" class="edge">
<title>Node1&#45;&gt;Node13</title>
<path fill="none" stroke="midnightblue" d="M345.86,-479.92C411.98,-469.71 513.07,-454.12 575.3,-444.52"/>
<polygon fill="midnightblue" stroke="midnightblue" points="345.31,-476.46 335.96,-481.44 346.38,-483.38 345.31,-476.46"/>
</g>
<!-- Node2&#45;&gt;Node3 -->
<g id="edge2" class="edge">
<title>Node2&#45;&gt;Node3</title>
<path fill="none" stroke="midnightblue" d="M211.32,-415.4C213.67,-406.36 216.37,-395.94 218.23,-388.75"/>
<polygon fill="midnightblue" stroke="midnightblue" points="207.93,-414.52 208.81,-425.08 214.71,-416.28 207.93,-414.52"/>
</g>
<!-- Node4 -->
<g id="node4" class="node">
<title>Node4</title>
<g id="a_node4"><a xlink:href="rpc__sessions_8h.html" target="_top" xlink:title=" ">
<polygon fill="white" stroke="black" points="12.5,-308 12.5,-327 158.5,-327 158.5,-308 12.5,-308"/>
<text text-anchor="middle" x="85.5" y="-315" font-family="Helvetica,sans-Serif" font-size="10.00">src/enclave/rpc_sessions.h</text>
</a>
</g>
</g>
<!-- Node3&#45;&gt;Node4 -->
<g id="edge3" class="edge">
<title>Node3&#45;&gt;Node4</title>
<path fill="none" stroke="midnightblue" d="M191.75,-365.33C165.54,-353.78 127.55,-337.03 104.81,-327.01"/>
<polygon fill="midnightblue" stroke="midnightblue" points="190.6,-368.64 201.16,-369.48 193.42,-362.24 190.6,-368.64"/>
</g>
<!-- Node5 -->
<g id="node5" class="node">
<title>Node5</title>
<g id="a_node5"><a xlink:href="enclave_2enclave_8h.html" target="_top" xlink:title=" ">
<polygon fill="white" stroke="black" points="505.5,-56.5 505.5,-75.5 627.5,-75.5 627.5,-56.5 505.5,-56.5"/>
<text text-anchor="middle" x="566.5" y="-63.5" font-family="Helvetica,sans-Serif" font-size="10.00">src/enclave/enclave.h</text>
</a>
</g>
</g>
<!-- Node4&#45;&gt;Node5 -->
<g id="edge4" class="edge">
<title>Node4&#45;&gt;Node5</title>
<path fill="none" stroke="midnightblue" d="M62.96,-302.16C40.38,-285.95 11.16,-258.74 27.5,-235 83.5,-153.66 385.28,-96.28 511.23,-75.54"/>
<polygon fill="midnightblue" stroke="midnightblue" points="61.25,-305.23 71.48,-308 65.21,-299.46 61.25,-305.23"/>
</g>
<!-- Node7 -->
<g id="node7" class="node">
<title>Node7</title>
<g id="a_node7"><a xlink:href="ccf__acme__client_8h.html" target="_top" xlink:title=" ">
<polygon fill="white" stroke="black" points="180,-241 180,-260 329,-260 329,-241 180,-241"/>
<text text-anchor="middle" x="254.5" y="-248" font-family="Helvetica,sans-Serif" font-size="10.00">src/node/ccf_acme_client.h</text>
</a>
</g>
</g>
<!-- Node4&#45;&gt;Node7 -->
<g id="edge6" class="edge">
<title>Node4&#45;&gt;Node7</title>
<path fill="none" stroke="midnightblue" d="M117.3,-304.27C150.84,-291.37 202.82,-271.38 232.23,-260.06"/>
<polygon fill="midnightblue" stroke="midnightblue" points="116.02,-301.01 107.94,-307.87 118.53,-307.55 116.02,-301.01"/>
</g>
<!-- Node8 -->
<g id="node8" class="node">
<title>Node8</title>
<g id="a_node8"><a xlink:href="node__state_8h.html" target="_top" xlink:title=" ">
<polygon fill="white" stroke="black" points="285.5,-174 285.5,-193 409.5,-193 409.5,-174 285.5,-174"/>
<text text-anchor="middle" x="347.5" y="-181" font-family="Helvetica,sans-Serif" font-size="10.00">src/node/node_state.h</text>
</a>
</g>
</g>
<!-- Node4&#45;&gt;Node8 -->
<g id="edge11" class="edge">
<title>Node4&#45;&gt;Node8</title>
<path fill="none" stroke="midnightblue" d="M65.37,-301.41C44.93,-284.28 18.64,-256 36.5,-235 67.78,-198.23 203.76,-188.16 285.2,-185.45"/>
<polygon fill="midnightblue" stroke="midnightblue" points="63.36,-304.29 73.36,-307.81 67.74,-298.82 63.36,-304.29"/>
</g>
<!-- Node10 -->
<g id="node10" class="node">
<title>Node10</title>
<g id="a_node10"><a xlink:href="resharing_8h.html" target="_top" xlink:title=" ">
<polygon fill="white" stroke="black" points="45.5,-241 45.5,-260 161.5,-260 161.5,-241 45.5,-241"/>
<text text-anchor="middle" x="103.5" y="-248" font-family="Helvetica,sans-Serif" font-size="10.00">src/node/resharing.h</text>
</a>
</g>
</g>
<!-- Node4&#45;&gt;Node10 -->
<g id="edge12" class="edge">
<title>Node4&#45;&gt;Node10</title>
<path fill="none" stroke="midnightblue" d="M90.65,-297.91C94.09,-285.49 98.46,-269.72 101.11,-260.13"/>
<polygon fill="midnightblue" stroke="midnightblue" points="87.22,-297.16 87.93,-307.73 93.97,-299.03 87.22,-297.16"/>
</g>
<!-- Node6 -->
<g id="node6" class="node">
<title>Node6</title>
<g id="a_node6"><a xlink:href="enclave_2main_8cpp.html" target="_top" xlink:title=" ">
<polygon fill="white" stroke="black" points="506.5,-0.5 506.5,-19.5 626.5,-19.5 626.5,-0.5 506.5,-0.5"/>
<text text-anchor="middle" x="566.5" y="-7.5" font-family="Helvetica,sans-Serif" font-size="10.00">src/enclave/main.cpp</text>
</a>
</g>
</g>
<!-- Node5&#45;&gt;Node6 -->
<g id="edge5" class="edge">
<title>Node5&#45;&gt;Node6</title>
<path fill="none" stroke="midnightblue" d="M566.5,-45.8C566.5,-36.91 566.5,-26.78 566.5,-19.75"/>
<polygon fill="midnightblue" stroke="midnightblue" points="563,-46.08 566.5,-56.08 570,-46.08 563,-46.08"/>
</g>
<!-- Node7&#45;&gt;Node8 -->
<g id="edge7" class="edge">
<title>Node7&#45;&gt;Node8</title>
<path fill="none" stroke="midnightblue" d="M275.36,-234.92C293.75,-222.07 319.91,-203.78 335.16,-193.13"/>
<polygon fill="midnightblue" stroke="midnightblue" points="273.23,-232.14 267.04,-240.73 277.24,-237.87 273.23,-232.14"/>
</g>
<!-- Node8&#45;&gt;Node5 -->
<g id="edge8" class="edge">
<title>Node8&#45;&gt;Node5</title>
<path fill="none" stroke="midnightblue" d="M347.49,-163.42C348.54,-147.48 352.66,-125.27 366.5,-112 386.22,-93.09 454.19,-80.68 505.47,-73.77"/>
<polygon fill="midnightblue" stroke="midnightblue" points="343.98,-163.61 347.17,-173.71 350.98,-163.82 343.98,-163.61"/>
</g>
<!-- Node9 -->
<g id="node9" class="node">
<title>Node9</title>
<g id="a_node9"><a xlink:href="gov__effects_8h.html" target="_top" xlink:title=" ">
<polygon fill="white" stroke="black" points="375.5,-112.5 375.5,-131.5 519.5,-131.5 519.5,-112.5 375.5,-112.5"/>
<text text-anchor="middle" x="447.5" y="-119.5" font-family="Helvetica,sans-Serif" font-size="10.00">src/node/rpc/gov_effects.h</text>
</a>
</g>
</g>
<!-- Node8&#45;&gt;Node9 -->
<g id="edge9" class="edge">
<title>Node8&#45;&gt;Node9</title>
<path fill="none" stroke="midnightblue" d="M370.62,-168.74C389.94,-157.25 416.87,-141.22 433.2,-131.51"/>
<polygon fill="midnightblue" stroke="midnightblue" points="368.63,-165.85 361.83,-173.98 372.21,-171.87 368.63,-165.85"/>
</g>
<!-- Node9&#45;&gt;Node5 -->
<g id="edge10" class="edge">
<title>Node9&#45;&gt;Node5</title>
<path fill="none" stroke="midnightblue" d="M475.64,-108.23C497.9,-98.13 528.36,-84.31 547.73,-75.52"/>
<polygon fill="midnightblue" stroke="midnightblue" points="474.02,-105.12 466.36,-112.44 476.91,-111.5 474.02,-105.12"/>
</g>
<!-- Node10&#45;&gt;Node8 -->
<g id="edge13" class="edge">
<title>Node10&#45;&gt;Node8</title>
<path fill="none" stroke="midnightblue" d="M145.46,-238.32C193.63,-225.49 271.63,-204.71 315.28,-193.08"/>
<polygon fill="midnightblue" stroke="midnightblue" points="144.41,-234.98 135.65,-240.94 146.21,-241.74 144.41,-234.98"/>
</g>
<!-- Node11&#45;&gt;Node4 -->
<g id="edge16" class="edge">
<title>Node11&#45;&gt;Node4</title>
<path fill="none" stroke="midnightblue" d="M72.36,-359.66C75.83,-348.77 80.08,-335.49 82.78,-327.01"/>
<polygon fill="midnightblue" stroke="midnightblue" points="68.93,-358.88 69.22,-369.48 75.6,-361.01 68.93,-358.88"/>
</g>
<!-- Node12&#45;&gt;Node8 -->
<g id="edge18" class="edge">
<title>Node12&#45;&gt;Node8</title>
<path fill="none" stroke="midnightblue" d="M417.2,-229.81C398.29,-217.51 374.89,-202.3 360.59,-193.01"/>
<polygon fill="midnightblue" stroke="midnightblue" points="415.51,-232.88 425.8,-235.4 419.32,-227.01 415.51,-232.88"/>
</g>
<!-- Node13&#45;&gt;Node5 -->
<g id="edge20" class="edge">
<title>Node13&#45;&gt;Node5</title>
<path fill="none" stroke="midnightblue" d="M708.22,-430.58C783.23,-422.61 885.5,-397.29 885.5,-318.5 885.5,-318.5 885.5,-318.5 885.5,-182.5 885.5,-132.73 843.61,-133.03 798.5,-112 744.02,-86.6 675.92,-75.53 627.63,-70.71"/>
<polygon fill="midnightblue" stroke="midnightblue" points="707.44,-427.14 697.83,-431.6 708.12,-434.11 707.44,-427.14"/>
</g>
<!-- Node14 -->
<g id="node14" class="node">
<title>Node14</title>
<g id="a_node14"><a xlink:href="frontend_8h.html" target="_top" xlink:title=" ">
<polygon fill="white" stroke="black" points="566,-369.5 566,-388.5 695,-388.5 695,-369.5 566,-369.5"/>
<text text-anchor="middle" x="630.5" y="-376.5" font-family="Helvetica,sans-Serif" font-size="10.00">src/node/rpc/frontend.h</text>
</a>
</g>
</g>
<!-- Node13&#45;&gt;Node14 -->
<g id="edge21" class="edge">
<title>Node13&#45;&gt;Node14</title>
<path fill="none" stroke="midnightblue" d="M630.5,-414.8C630.5,-405.91 630.5,-395.78 630.5,-388.75"/>
<polygon fill="midnightblue" stroke="midnightblue" points="627,-415.08 630.5,-425.08 634,-415.08 627,-415.08"/>
</g>
<!-- Node14&#45;&gt;Node8 -->
<g id="edge25" class="edge">
<title>Node14&#45;&gt;Node8</title>
<path fill="none" stroke="midnightblue" d="M555.47,-374.04C489.57,-368.95 400.42,-357.63 375.5,-333 336.13,-294.09 342.64,-218.44 346.14,-193.05"/>
<polygon fill="midnightblue" stroke="midnightblue" points="555.6,-377.56 565.83,-374.8 556.12,-370.58 555.6,-377.56"/>
</g>
<!-- Node15 -->
<g id="node15" class="node">
<title>Node15</title>
<g id="a_node15"><a xlink:href="acme__challenge__frontend_8h.html" target="_top" xlink:title=" ">
<polygon fill="white" stroke="black" points="560.5,-302.5 560.5,-332.5 700.5,-332.5 700.5,-302.5 560.5,-302.5"/>
<text text-anchor="start" x="568.5" y="-320.5" font-family="Helvetica,sans-Serif" font-size="10.00">src/node/acme_challenge</text>
<text text-anchor="middle" x="630.5" y="-309.5" font-family="Helvetica,sans-Serif" font-size="10.00">_frontend.h</text>
</a>
</g>
</g>
<!-- Node14&#45;&gt;Node15 -->
<g id="edge22" class="edge">
<title>Node14&#45;&gt;Node15</title>
<path fill="none" stroke="midnightblue" d="M630.5,-359.23C630.5,-350.59 630.5,-340.5 630.5,-332.52"/>
<polygon fill="midnightblue" stroke="midnightblue" points="627,-359.48 630.5,-369.48 634,-359.48 627,-359.48"/>
</g>
<!-- Node16 -->
<g id="node16" class="node">
<title>Node16</title>
<g id="a_node16"><a xlink:href="member__frontend_8h.html" target="_top" xlink:title=" ">
<polygon fill="white" stroke="black" points="737.5,-168.5 737.5,-198.5 857.5,-198.5 857.5,-168.5 737.5,-168.5"/>
<text text-anchor="start" x="745.5" y="-186.5" font-family="Helvetica,sans-Serif" font-size="10.00">src/node/rpc/member</text>
<text text-anchor="middle" x="797.5" y="-175.5" font-family="Helvetica,sans-Serif" font-size="10.00">_frontend.h</text>
</a>
</g>
</g>
<!-- Node14&#45;&gt;Node16 -->
<g id="edge26" class="edge">
<title>Node14&#45;&gt;Node16</title>
<path fill="none" stroke="midnightblue" d="M683.74,-366.52C704.35,-359.75 726.73,-349.21 742.5,-333 780.08,-294.38 792.35,-227.85 796.05,-198.78"/>
<polygon fill="midnightblue" stroke="midnightblue" points="682.66,-363.19 674.12,-369.46 684.7,-369.88 682.66,-363.19"/>
</g>
<!-- Node17 -->
<g id="node17" class="node">
<title>Node17</title>
<g id="a_node17"><a xlink:href="node__frontend_8h.html" target="_top" xlink:title=" ">
<polygon fill="white" stroke="black" points="384.5,-308 384.5,-327 542.5,-327 542.5,-308 384.5,-308"/>
<text text-anchor="middle" x="463.5" y="-315" font-family="Helvetica,sans-Serif" font-size="10.00">src/node/rpc/node_frontend.h</text>
</a>
</g>
</g>
<!-- Node14&#45;&gt;Node17 -->
<g id="edge28" class="edge">
<title>Node14&#45;&gt;Node17</title>
<path fill="none" stroke="midnightblue" d="M597.05,-366.08C564.59,-354.52 516.13,-337.25 487.38,-327.01"/>
<polygon fill="midnightblue" stroke="midnightblue" points="595.98,-369.42 606.57,-369.48 598.33,-362.82 595.98,-369.42"/>
</g>
<!-- Node18 -->
<g id="node18" class="node">
<title>Node18</title>
<g id="a_node18"><a xlink:href="user__frontend_8h.html" target="_top" xlink:title=" ">
<polygon fill="white" stroke="black" points="614,-112.5 614,-131.5 769,-131.5 769,-112.5 614,-112.5"/>
<text text-anchor="middle" x="691.5" y="-119.5" font-family="Helvetica,sans-Serif" font-size="10.00">src/node/rpc/user_frontend.h</text>
</a>
</g>
</g>
<!-- Node14&#45;&gt;Node18 -->
<g id="edge31" class="edge">
<title>Node14&#45;&gt;Node18</title>
<path fill="none" stroke="midnightblue" d="M669.71,-365.46C684.92,-358.46 700.76,-348.03 709.5,-333 749.22,-264.67 709.1,-162.14 695.59,-131.77"/>
<polygon fill="midnightblue" stroke="midnightblue" points="668.24,-362.28 660.38,-369.39 670.96,-368.73 668.24,-362.28"/>
</g>
<!-- Node15&#45;&gt;Node5 -->
<g id="edge23" class="edge">
<title>Node15&#45;&gt;Node5</title>
<path fill="none" stroke="midnightblue" d="M624.31,-292.36C610.51,-238.56 577.74,-110.81 568.79,-75.93"/>
<polygon fill="midnightblue" stroke="midnightblue" points="621,-293.55 626.88,-302.37 627.78,-291.81 621,-293.55"/>
</g>
<!-- Node15&#45;&gt;Node7 -->
<g id="edge24" class="edge">
<title>Node15&#45;&gt;Node7</title>
<path fill="none" stroke="midnightblue" d="M550.27,-301.79C458.35,-285.59 362.92,-269.54 305.78,-260.01"/>
<polygon fill="midnightblue" stroke="midnightblue" points="549.84,-305.27 560.3,-303.57 551.06,-298.38 549.84,-305.27"/>
</g>
<!-- Node16&#45;&gt;Node5 -->
<g id="edge27" class="edge">
<title>Node16&#45;&gt;Node5</title>
<path fill="none" stroke="midnightblue" d="M797.11,-158.09C795.54,-142.78 790.94,-123.79 778.5,-112 757.09,-91.72 682.42,-79.4 627.73,-72.9"/>
<polygon fill="midnightblue" stroke="midnightblue" points="793.64,-158.68 797.79,-168.43 800.63,-158.22 793.64,-158.68"/>
</g>
<!-- Node17&#45;&gt;Node5 -->
<g id="edge29" class="edge">
<title>Node17&#45;&gt;Node5</title>
<path fill="none" stroke="midnightblue" d="M485.34,-301.88C497.15,-292.88 511.02,-280.32 519.5,-266 558.38,-200.32 565.1,-104.6 566.26,-75.62"/>
<polygon fill="midnightblue" stroke="midnightblue" points="483.24,-299.08 477.2,-307.79 487.35,-304.75 483.24,-299.08"/>
</g>
<!-- Node17&#45;&gt;Node12 -->
<g id="edge30" class="edge">
<title>Node17&#45;&gt;Node12</title>
<path fill="none" stroke="midnightblue" d="M458.88,-297.74C456.36,-287.49 453.28,-275 450.97,-265.59"/>
<polygon fill="midnightblue" stroke="midnightblue" points="455.55,-298.86 461.34,-307.73 462.35,-297.19 455.55,-298.86"/>
</g>
<!-- Node18&#45;&gt;Node5 -->
<g id="edge32" class="edge">
<title>Node18&#45;&gt;Node5</title>
<path fill="none" stroke="midnightblue" d="M662.26,-108.37C638.85,-98.26 606.66,-84.35 586.21,-75.52"/>
<polygon fill="midnightblue" stroke="midnightblue" points="661.13,-111.69 671.69,-112.44 663.9,-105.26 661.13,-111.69"/>
</g>
</g>
</svg>
        <g id="navigator" transform="translate(0 0)" fill="#404254">
                <rect fill="#f2f5e9" fill-opacity="0.5" stroke="#606060" stroke-width=".5" x="0" y="0" width="60" height="60"/>
                <use id="zoomplus" xlink:href="#zoomPlus" x="17" y="9" onmousedown="handleZoom(evt,'in')"/>
                <use id="zoomminus" xlink:href="#zoomMin" x="42" y="9" onmousedown="handleZoom(evt,'out')"/>
                <use id="reset" xlink:href="#resetDef" x="30" y="36" onmousedown="handleReset()"/>
                <g id="arrowUp" xlink:href="#dirArrow" transform="translate(30 24)" onmousedown="handlePan(0,-1)">
                  <use xlink:href="#rim" fill="#404040">
                        <set attributeName="fill" to="#808080" begin="arrowUp.mouseover" end="arrowUp.mouseout"/>
                  </use>
                  <path fill="none" stroke="white" stroke-width="1.5" d="M0,-3.0v7 M-2.5,-0.5L0,-3.0L2.5,-0.5"/>
                </g>
                <g id="arrowRight" xlink:href="#dirArrow" transform="rotate(90) translate(36 -43)" onmousedown="handlePan(1,0)">
                  <use xlink:href="#rim" fill="#404040">
                        <set attributeName="fill" to="#808080" begin="arrowRight.mouseover" end="arrowRight.mouseout"/>
                  </use>
                  <path fill="none" stroke="white" stroke-width="1.5" d="M0,-3.0v7 M-2.5,-0.5L0,-3.0L2.5,-0.5"/>
                </g>
                <g id="arrowDown" xlink:href="#dirArrow" transform="rotate(180) translate(-30 -48)" onmousedown="handlePan(0,1)">
                  <use xlink:href="#rim" fill="#404040">
                        <set attributeName="fill" to="#808080" begin="arrowDown.mouseover" end="arrowDown.mouseout"/>
                  </use>
                  <path fill="none" stroke="white" stroke-width="1.5" d="M0,-3.0v7 M-2.5,-0.5L0,-3.0L2.5,-0.5"/>
                </g>
                <g id="arrowLeft" xlink:href="#dirArrow" transform="rotate(270) translate(-36 17)" onmousedown="handlePan(-1,0)">
                  <use xlink:href="#rim" fill="#404040">
                        <set attributeName="fill" to="#808080" begin="arrowLeft.mouseover" end="arrowLeft.mouseout"/>
                  </use>
                  <path fill="none" stroke="white" stroke-width="1.5" d="M0,-3.0v7 M-2.5,-0.5L0,-3.0L2.5,-0.5"/>
                </g>
        </g>
        <svg viewBox="0 0 15 15" width="100%" height="30px" preserveAspectRatio="xMaxYMin meet">
         <g id="arrow_out" transform="scale(0.3 0.3)">
          <a xlink:href="http__rpc__context_8h__dep__incl_org.svg" target="_base">
           <rect id="button" ry="5" rx="5" y="6" x="6" height="38" width="38"
                fill="#f2f5e9" fill-opacity="0.5" stroke="#606060" stroke-width="1.0"/>
           <path id="arrow"
             d="M 11.500037,31.436501 C 11.940474,20.09759 22.043105,11.32322 32.158766,21.979434 L 37.068811,17.246167 C 37.068811,17.246167 37.088388,32 37.088388,32 L 22.160133,31.978069 C 22.160133,31.978069 26.997745,27.140456 26.997745,27.140456 C 18.528582,18.264221 13.291696,25.230495 11.500037,31.436501 z"
             style="fill:#404040;"/>
          </a>
         </g>
        </svg>
</svg>
