<?xml version="1.0" encoding="UTF-8" standalone="no"?>
<!DOCTYPE svg PUBLIC "-//W3C//DTD SVG 1.1//EN"
 "http://www.w3.org/Graphics/SVG/1.1/DTD/svg11.dtd">
<!-- Generated by graphviz version 2.43.0 (0)
 -->
<!-- Title: src/http/http_builder.h Pages: 1 -->
<svg width="1557pt" height="755pt"
 viewBox="0.00 0.00 1556.50 755.00" xmlns="http://www.w3.org/2000/svg" xmlns:xlink="http://www.w3.org/1999/xlink">
<g id="graph0" class="graph" transform="scale(1 1) rotate(0) translate(4 751)">
<title>src/http/http_builder.h</title>
<polygon fill="white" stroke="transparent" points="-4,4 -4,-751 1552.5,-751 1552.5,4 -4,4"/>
<!-- Node1 -->
<g id="node1" class="node">
<title>Node1</title>
<g id="a_node1"><a xlink:title=" ">
<polygon fill="#bfbfbf" stroke="black" points="1014.5,-727.5 1014.5,-746.5 1137.5,-746.5 1137.5,-727.5 1014.5,-727.5"/>
<text text-anchor="middle" x="1076" y="-734.5" font-family="Helvetica,sans-Serif" font-size="10.00">src/http/http_builder.h</text>
</a>
</g>
</g>
<!-- Node2 -->
<g id="node2" class="node">
<title>Node2</title>
<g id="a_node2"><a xlink:href="rpc__tls__client_8h.html" target="_top" xlink:title=" ">
<polygon fill="white" stroke="black" points="655.5,-492.5 655.5,-522.5 756.5,-522.5 756.5,-492.5 655.5,-492.5"/>
<text text-anchor="start" x="663.5" y="-510.5" font-family="Helvetica,sans-Serif" font-size="10.00">src/clients/rpc_tls</text>
<text text-anchor="middle" x="706" y="-499.5" font-family="Helvetica,sans-Serif" font-size="10.00">_client.h</text>
</a>
</g>
</g>
<!-- Node1&#45;&gt;Node2 -->
<g id="edge1" class="edge">
<title>Node1&#45;&gt;Node2</title>
<path fill="none" stroke="midnightblue" d="M1003.91,-733.77C925.15,-729.9 805.59,-719.41 771,-691 717.98,-647.45 708.18,-557.42 706.39,-522.64"/>
<polygon fill="midnightblue" stroke="midnightblue" points="1004.1,-737.28 1014.25,-734.25 1004.43,-730.29 1004.1,-737.28"/>
</g>
<!-- Node7 -->
<g id="node7" class="node">
<title>Node7</title>
<g id="a_node7"><a xlink:href="client__endpoint_8h.html" target="_top" xlink:title=" ">
<polygon fill="white" stroke="black" points="1267,-492.5 1267,-522.5 1369,-522.5 1369,-492.5 1267,-492.5"/>
<text text-anchor="start" x="1275" y="-510.5" font-family="Helvetica,sans-Serif" font-size="10.00">src/enclave/client</text>
<text text-anchor="middle" x="1318" y="-499.5" font-family="Helvetica,sans-Serif" font-size="10.00">_endpoint.h</text>
</a>
</g>
</g>
<!-- Node1&#45;&gt;Node7 -->
<g id="edge7" class="edge">
<title>Node1&#45;&gt;Node7</title>
<path fill="none" stroke="midnightblue" d="M1092.61,-720.39C1137.38,-678.29 1260.1,-562.93 1302.98,-522.62"/>
<polygon fill="midnightblue" stroke="midnightblue" points="1090.08,-717.96 1085.19,-727.36 1094.87,-723.06 1090.08,-717.96"/>
</g>
<!-- Node17 -->
<g id="node17" class="node">
<title>Node17</title>
<g id="a_node17"><a xlink:href="http2__types_8h.html" target="_top" xlink:title=" ">
<polygon fill="white" stroke="black" points="1425.5,-615.5 1425.5,-634.5 1548.5,-634.5 1548.5,-615.5 1425.5,-615.5"/>
<text text-anchor="middle" x="1487" y="-622.5" font-family="Helvetica,sans-Serif" font-size="10.00">src/http/http2_types.h</text>
</a>
</g>
</g>
<!-- Node1&#45;&gt;Node17 -->
<g id="edge22" class="edge">
<title>Node1&#45;&gt;Node17</title>
<path fill="none" stroke="midnightblue" d="M1147.78,-732.47C1235.72,-727.18 1378.84,-715.1 1426,-691 1451.91,-677.76 1472.66,-648.91 1481.86,-634.52"/>
<polygon fill="midnightblue" stroke="midnightblue" points="1147.38,-728.99 1137.61,-733.07 1147.79,-735.98 1147.38,-728.99"/>
</g>
<!-- Node19 -->
<g id="node19" class="node">
<title>Node19</title>
<g id="a_node19"><a xlink:href="http__parser_8h.html" target="_top" xlink:title=" ">
<polygon fill="white" stroke="black" points="1016,-615.5 1016,-634.5 1136,-634.5 1136,-615.5 1016,-615.5"/>
<text text-anchor="middle" x="1076" y="-622.5" font-family="Helvetica,sans-Serif" font-size="10.00">src/http/http_parser.h</text>
</a>
</g>
</g>
<!-- Node1&#45;&gt;Node19 -->
<g id="edge25" class="edge">
<title>Node1&#45;&gt;Node19</title>
<path fill="none" stroke="midnightblue" d="M1076,-717.35C1076,-693.25 1076,-652.31 1076,-634.59"/>
<polygon fill="midnightblue" stroke="midnightblue" points="1072.5,-717.37 1076,-727.37 1079.5,-717.37 1072.5,-717.37"/>
</g>
<!-- Node26 -->
<g id="node26" class="node">
<title>Node26</title>
<g id="a_node26"><a xlink:href="jwt__key__auto__refresh_8h.html" target="_top" xlink:title=" ">
<polygon fill="white" stroke="black" points="748.5,-235.5 748.5,-265.5 873.5,-265.5 873.5,-235.5 748.5,-235.5"/>
<text text-anchor="start" x="756.5" y="-253.5" font-family="Helvetica,sans-Serif" font-size="10.00">src/node/jwt_key_auto</text>
<text text-anchor="middle" x="811" y="-242.5" font-family="Helvetica,sans-Serif" font-size="10.00">_refresh.h</text>
</a>
</g>
</g>
<!-- Node1&#45;&gt;Node26 -->
<g id="edge60" class="edge">
<title>Node1&#45;&gt;Node26</title>
<path fill="none" stroke="midnightblue" d="M1004.1,-734.25C929.31,-728.14 823,-705.48 823,-626 823,-626 823,-626 823,-568 823,-445.75 952.61,-408.73 893,-302 883.71,-285.36 866.43,-273.53 850.12,-265.52"/>
<polygon fill="midnightblue" stroke="midnightblue" points="1004.2,-737.76 1014.43,-735 1004.71,-730.78 1004.2,-737.76"/>
</g>
<!-- Node33 -->
<g id="node33" class="node">
<title>Node33</title>
<g id="a_node33"><a xlink:href="http__proc_8h.html" target="_top" xlink:title=" ">
<polygon fill="white" stroke="black" points="1305.5,-671.5 1305.5,-690.5 1416.5,-690.5 1416.5,-671.5 1305.5,-671.5"/>
<text text-anchor="middle" x="1361" y="-678.5" font-family="Helvetica,sans-Serif" font-size="10.00">src/http/http_proc.h</text>
</a>
</g>
</g>
<!-- Node1&#45;&gt;Node33 -->
<g id="edge57" class="edge">
<title>Node1&#45;&gt;Node33</title>
<path fill="none" stroke="midnightblue" d="M1131.22,-725.54C1185.08,-715.33 1266,-700 1316.05,-690.52"/>
<polygon fill="midnightblue" stroke="midnightblue" points="1130.33,-722.14 1121.16,-727.44 1131.64,-729.02 1130.33,-722.14"/>
</g>
<!-- Node34 -->
<g id="node34" class="node">
<title>Node34</title>
<g id="a_node34"><a xlink:href="node__client_8h.html" target="_top" xlink:title=" ">
<polygon fill="white" stroke="black" points="722,-436.5 722,-455.5 848,-455.5 848,-436.5 722,-436.5"/>
<text text-anchor="middle" x="785" y="-443.5" font-family="Helvetica,sans-Serif" font-size="10.00">src/node/node_client.h</text>
</a>
</g>
</g>
<!-- Node1&#45;&gt;Node34 -->
<g id="edge61" class="edge">
<title>Node1&#45;&gt;Node34</title>
<path fill="none" stroke="midnightblue" d="M1004.09,-731.91C935.34,-726.62 838,-715.04 809,-691 785.29,-671.35 785,-656.8 785,-626 785,-626 785,-626 785,-568 785,-525.78 785,-475.26 785,-455.51"/>
<polygon fill="midnightblue" stroke="midnightblue" points="1004.2,-735.43 1014.43,-732.68 1004.72,-728.45 1004.2,-735.43"/>
</g>
<!-- Node3 -->
<g id="node3" class="node">
<title>Node3</title>
<g id="a_node3"><a xlink:href="perf__client_8h.html" target="_top" xlink:title=" ">
<polygon fill="white" stroke="black" points="203.5,-369.5 203.5,-399.5 314.5,-399.5 314.5,-369.5 203.5,-369.5"/>
<text text-anchor="start" x="211.5" y="-387.5" font-family="Helvetica,sans-Serif" font-size="10.00">src/clients/perf/perf</text>
<text text-anchor="middle" x="259" y="-376.5" font-family="Helvetica,sans-Serif" font-size="10.00">_client.h</text>
</a>
</g>
</g>
<!-- Node2&#45;&gt;Node3 -->
<g id="edge2" class="edge">
<title>Node2&#45;&gt;Node3</title>
<path fill="none" stroke="midnightblue" d="M645.27,-490.06C556.8,-466.11 393.98,-422.04 310.83,-399.53"/>
<polygon fill="midnightblue" stroke="midnightblue" points="644.59,-493.5 655.16,-492.74 646.42,-486.75 644.59,-493.5"/>
</g>
<!-- Node6 -->
<g id="node6" class="node">
<title>Node6</title>
<g id="a_node6"><a xlink:href="timing_8h.html" target="_top" xlink:title=" ">
<polygon fill="white" stroke="black" points="559,-436.5 559,-455.5 691,-455.5 691,-436.5 559,-436.5"/>
<text text-anchor="middle" x="625" y="-443.5" font-family="Helvetica,sans-Serif" font-size="10.00">src/clients/perf/timing.h</text>
</a>
</g>
</g>
<!-- Node2&#45;&gt;Node6 -->
<g id="edge5" class="edge">
<title>Node2&#45;&gt;Node6</title>
<path fill="none" stroke="midnightblue" d="M678.35,-486.19C664.17,-475.77 647.64,-463.63 636.79,-455.66"/>
<polygon fill="midnightblue" stroke="midnightblue" points="676.67,-489.3 686.8,-492.4 680.82,-483.66 676.67,-489.3"/>
</g>
<!-- Node4 -->
<g id="node4" class="node">
<title>Node4</title>
<g id="a_node4"><a xlink:href="tpcc__client_8cpp.html" target="_top" xlink:title=" ">
<polygon fill="white" stroke="black" points="0,-302.5 0,-332.5 116,-332.5 116,-302.5 0,-302.5"/>
<text text-anchor="start" x="8" y="-320.5" font-family="Helvetica,sans-Serif" font-size="10.00">src/apps/tpcc/clients</text>
<text text-anchor="middle" x="58" y="-309.5" font-family="Helvetica,sans-Serif" font-size="10.00">/tpcc_client.cpp</text>
</a>
</g>
</g>
<!-- Node3&#45;&gt;Node4 -->
<g id="edge3" class="edge">
<title>Node3&#45;&gt;Node4</title>
<path fill="none" stroke="midnightblue" d="M205.59,-366.23C173.07,-355.71 132.06,-342.45 101.53,-332.58"/>
<polygon fill="midnightblue" stroke="midnightblue" points="204.79,-369.65 215.39,-369.4 206.95,-362.99 204.79,-369.65"/>
</g>
<!-- Node5 -->
<g id="node5" class="node">
<title>Node5</title>
<g id="a_node5"><a xlink:href="scenario__perf__client_8cpp.html" target="_top" xlink:title=" ">
<polygon fill="white" stroke="black" points="134.5,-302.5 134.5,-332.5 267.5,-332.5 267.5,-302.5 134.5,-302.5"/>
<text text-anchor="start" x="142.5" y="-320.5" font-family="Helvetica,sans-Serif" font-size="10.00">src/clients/perf/scenario</text>
<text text-anchor="middle" x="201" y="-309.5" font-family="Helvetica,sans-Serif" font-size="10.00">_perf_client.cpp</text>
</a>
</g>
</g>
<!-- Node3&#45;&gt;Node5 -->
<g id="edge4" class="edge">
<title>Node3&#45;&gt;Node5</title>
<path fill="none" stroke="midnightblue" d="M239.58,-361.74C231,-352.12 221.16,-341.09 213.56,-332.58"/>
<polygon fill="midnightblue" stroke="midnightblue" points="237.15,-364.26 246.41,-369.4 242.37,-359.6 237.15,-364.26"/>
</g>
<!-- Node6&#45;&gt;Node3 -->
<g id="edge6" class="edge">
<title>Node6&#45;&gt;Node3</title>
<path fill="none" stroke="midnightblue" d="M562.6,-434.86C492.99,-423.54 381.39,-405.4 314.64,-394.55"/>
<polygon fill="midnightblue" stroke="midnightblue" points="562.13,-438.33 572.56,-436.48 563.25,-431.42 562.13,-438.33"/>
</g>
<!-- Node8 -->
<g id="node8" class="node">
<title>Node8</title>
<g id="a_node8"><a xlink:href="http2__endpoint_8h.html" target="_top" xlink:title=" ">
<polygon fill="white" stroke="black" points="1311.5,-375 1311.5,-394 1450.5,-394 1450.5,-375 1311.5,-375"/>
<text text-anchor="middle" x="1381" y="-382" font-family="Helvetica,sans-Serif" font-size="10.00">src/http/http2_endpoint.h</text>
</a>
</g>
</g>
<!-- Node7&#45;&gt;Node8 -->
<g id="edge8" class="edge">
<title>Node7&#45;&gt;Node8</title>
<path fill="none" stroke="midnightblue" d="M1343.55,-485.66C1352.24,-477.31 1361.21,-467.04 1367,-456 1377.67,-435.67 1380.23,-408.14 1380.83,-394.27"/>
<polygon fill="midnightblue" stroke="midnightblue" points="1341.11,-483.16 1336.08,-492.48 1345.83,-488.33 1341.11,-483.16"/>
</g>
<!-- Node16 -->
<g id="node16" class="node">
<title>Node16</title>
<g id="a_node16"><a xlink:href="http__endpoint_8h.html" target="_top" xlink:title=" ">
<polygon fill="white" stroke="black" points="1224.5,-436.5 1224.5,-455.5 1357.5,-455.5 1357.5,-436.5 1224.5,-436.5"/>
<text text-anchor="middle" x="1291" y="-443.5" font-family="Helvetica,sans-Serif" font-size="10.00">src/http/http_endpoint.h</text>
</a>
</g>
</g>
<!-- Node7&#45;&gt;Node16 -->
<g id="edge20" class="edge">
<title>Node7&#45;&gt;Node16</title>
<path fill="none" stroke="midnightblue" d="M1307.43,-483.2C1303.03,-473.52 1298.21,-462.88 1294.93,-455.66"/>
<polygon fill="midnightblue" stroke="midnightblue" points="1304.28,-484.74 1311.6,-492.4 1310.66,-481.85 1304.28,-484.74"/>
</g>
<!-- Node9 -->
<g id="node9" class="node">
<title>Node9</title>
<g id="a_node9"><a xlink:href="rpc__sessions_8h.html" target="_top" xlink:title=" ">
<polygon fill="white" stroke="black" points="1093,-308 1093,-327 1239,-327 1239,-308 1093,-308"/>
<text text-anchor="middle" x="1166" y="-315" font-family="Helvetica,sans-Serif" font-size="10.00">src/enclave/rpc_sessions.h</text>
</a>
</g>
</g>
<!-- Node8&#45;&gt;Node9 -->
<g id="edge9" class="edge">
<title>Node8&#45;&gt;Node9</title>
<path fill="none" stroke="midnightblue" d="M1342.73,-371.93C1300.16,-359.06 1232.39,-338.57 1194.33,-327.06"/>
<polygon fill="midnightblue" stroke="midnightblue" points="1341.86,-375.32 1352.45,-374.87 1343.89,-368.62 1341.86,-375.32"/>
</g>
<!-- Node10 -->
<g id="node10" class="node">
<title>Node10</title>
<g id="a_node10"><a xlink:href="enclave_2enclave_8h.html" target="_top" xlink:title=" ">
<polygon fill="white" stroke="black" points="503,-56.5 503,-75.5 625,-75.5 625,-56.5 503,-56.5"/>
<text text-anchor="middle" x="564" y="-63.5" font-family="Helvetica,sans-Serif" font-size="10.00">src/enclave/enclave.h</text>
</a>
</g>
</g>
<!-- Node9&#45;&gt;Node10 -->
<g id="edge10" class="edge">
<title>Node9&#45;&gt;Node10</title>
<path fill="none" stroke="midnightblue" d="M1187.72,-301.92C1209.8,-285.29 1238.47,-257.5 1221,-235 1147.35,-140.15 773.88,-89.79 625.19,-73.24"/>
<polygon fill="midnightblue" stroke="midnightblue" points="1185.47,-299.23 1179.4,-307.91 1189.56,-304.91 1185.47,-299.23"/>
</g>
<!-- Node12 -->
<g id="node12" class="node">
<title>Node12</title>
<g id="a_node12"><a xlink:href="ccf__acme__client_8h.html" target="_top" xlink:title=" ">
<polygon fill="white" stroke="black" points="891.5,-241 891.5,-260 1040.5,-260 1040.5,-241 891.5,-241"/>
<text text-anchor="middle" x="966" y="-248" font-family="Helvetica,sans-Serif" font-size="10.00">src/node/ccf_acme_client.h</text>
</a>
</g>
</g>
<!-- Node9&#45;&gt;Node12 -->
<g id="edge12" class="edge">
<title>Node9&#45;&gt;Node12</title>
<path fill="none" stroke="midnightblue" d="M1129.89,-304.77C1090.27,-291.89 1027.6,-271.52 992.35,-260.06"/>
<polygon fill="midnightblue" stroke="midnightblue" points="1128.85,-308.11 1139.44,-307.87 1131.01,-301.45 1128.85,-308.11"/>
</g>
<!-- Node13 -->
<g id="node13" class="node">
<title>Node13</title>
<g id="a_node13"><a xlink:href="node__state_8h.html" target="_top" xlink:title=" ">
<polygon fill="white" stroke="black" points="652,-174 652,-193 776,-193 776,-174 652,-174"/>
<text text-anchor="middle" x="714" y="-181" font-family="Helvetica,sans-Serif" font-size="10.00">src/node/node_state.h</text>
</a>
</g>
</g>
<!-- Node9&#45;&gt;Node13 -->
<g id="edge17" class="edge">
<title>Node9&#45;&gt;Node13</title>
<path fill="none" stroke="midnightblue" d="M1142.69,-302.58C1126.71,-292.8 1105.19,-279.16 1087,-266 1069.34,-253.22 1068.93,-243.83 1049,-235 959.73,-195.46 845.37,-185.96 776,-184.17"/>
<polygon fill="midnightblue" stroke="midnightblue" points="1141.03,-305.67 1151.4,-307.86 1144.66,-299.68 1141.03,-305.67"/>
</g>
<!-- Node15 -->
<g id="node15" class="node">
<title>Node15</title>
<g id="a_node15"><a xlink:href="resharing_8h.html" target="_top" xlink:title=" ">
<polygon fill="white" stroke="black" points="1096,-241 1096,-260 1212,-260 1212,-241 1096,-241"/>
<text text-anchor="middle" x="1154" y="-248" font-family="Helvetica,sans-Serif" font-size="10.00">src/node/resharing.h</text>
</a>
</g>
</g>
<!-- Node9&#45;&gt;Node15 -->
<g id="edge18" class="edge">
<title>Node9&#45;&gt;Node15</title>
<path fill="none" stroke="midnightblue" d="M1162.5,-297.54C1160.22,-285.17 1157.35,-269.62 1155.59,-260.13"/>
<polygon fill="midnightblue" stroke="midnightblue" points="1159.12,-298.54 1164.38,-307.73 1166.01,-297.26 1159.12,-298.54"/>
</g>
<!-- Node11 -->
<g id="node11" class="node">
<title>Node11</title>
<g id="a_node11"><a xlink:href="enclave_2main_8cpp.html" target="_top" xlink:title=" ">
<polygon fill="white" stroke="black" points="504,-0.5 504,-19.5 624,-19.5 624,-0.5 504,-0.5"/>
<text text-anchor="middle" x="564" y="-7.5" font-family="Helvetica,sans-Serif" font-size="10.00">src/enclave/main.cpp</text>
</a>
</g>
</g>
<!-- Node10&#45;&gt;Node11 -->
<g id="edge11" class="edge">
<title>Node10&#45;&gt;Node11</title>
<path fill="none" stroke="midnightblue" d="M564,-45.8C564,-36.91 564,-26.78 564,-19.75"/>
<polygon fill="midnightblue" stroke="midnightblue" points="560.5,-46.08 564,-56.08 567.5,-46.08 560.5,-46.08"/>
</g>
<!-- Node12&#45;&gt;Node13 -->
<g id="edge13" class="edge">
<title>Node12&#45;&gt;Node13</title>
<path fill="none" stroke="midnightblue" d="M922.98,-238.4C873.25,-225.58 792.45,-204.74 747.28,-193.08"/>
<polygon fill="midnightblue" stroke="midnightblue" points="922.24,-241.83 932.8,-240.94 923.99,-235.05 922.24,-241.83"/>
</g>
<!-- Node13&#45;&gt;Node10 -->
<g id="edge14" class="edge">
<title>Node13&#45;&gt;Node10</title>
<path fill="none" stroke="midnightblue" d="M713.64,-163.79C712.35,-148.08 708.09,-126.01 695,-112 676.86,-92.59 649.97,-81.55 625.27,-75.27"/>
<polygon fill="midnightblue" stroke="midnightblue" points="710.15,-164.09 714.13,-173.91 717.14,-163.75 710.15,-164.09"/>
</g>
<!-- Node14 -->
<g id="node14" class="node">
<title>Node14</title>
<g id="a_node14"><a xlink:href="gov__effects_8h.html" target="_top" xlink:title=" ">
<polygon fill="white" stroke="black" points="542,-112.5 542,-131.5 686,-131.5 686,-112.5 542,-112.5"/>
<text text-anchor="middle" x="614" y="-119.5" font-family="Helvetica,sans-Serif" font-size="10.00">src/node/rpc/gov_effects.h</text>
</a>
</g>
</g>
<!-- Node13&#45;&gt;Node14 -->
<g id="edge15" class="edge">
<title>Node13&#45;&gt;Node14</title>
<path fill="none" stroke="midnightblue" d="M690.88,-168.74C671.56,-157.25 644.63,-141.22 628.3,-131.51"/>
<polygon fill="midnightblue" stroke="midnightblue" points="689.29,-171.87 699.67,-173.98 692.87,-165.85 689.29,-171.87"/>
</g>
<!-- Node14&#45;&gt;Node10 -->
<g id="edge16" class="edge">
<title>Node14&#45;&gt;Node10</title>
<path fill="none" stroke="midnightblue" d="M598.92,-104.72C590.11,-95.2 579.33,-83.56 572.1,-75.75"/>
<polygon fill="midnightblue" stroke="midnightblue" points="596.38,-107.12 605.74,-112.08 601.52,-102.37 596.38,-107.12"/>
</g>
<!-- Node15&#45;&gt;Node13 -->
<g id="edge19" class="edge">
<title>Node15&#45;&gt;Node13</title>
<path fill="none" stroke="midnightblue" d="M1103.87,-238.99C1096.55,-237.57 1089.09,-236.2 1082,-235 974.86,-216.88 849.33,-200.73 776.04,-191.81"/>
<polygon fill="midnightblue" stroke="midnightblue" points="1103.23,-242.43 1113.72,-240.93 1104.58,-235.56 1103.23,-242.43"/>
</g>
<!-- Node16&#45;&gt;Node9 -->
<g id="edge21" class="edge">
<title>Node16&#45;&gt;Node9</title>
<path fill="none" stroke="midnightblue" d="M1275.36,-429.17C1248.74,-402.24 1195.5,-348.35 1174.65,-327.26"/>
<polygon fill="midnightblue" stroke="midnightblue" points="1272.89,-431.65 1282.41,-436.31 1277.87,-426.73 1272.89,-431.65"/>
</g>
<!-- Node18 -->
<g id="node18" class="node">
<title>Node18</title>
<g id="a_node18"><a xlink:href="http2_8h.html" target="_top" xlink:title=" ">
<polygon fill="white" stroke="black" points="1414.5,-436.5 1414.5,-455.5 1505.5,-455.5 1505.5,-436.5 1414.5,-436.5"/>
<text text-anchor="middle" x="1460" y="-443.5" font-family="Helvetica,sans-Serif" font-size="10.00">src/http/http2.h</text>
</a>
</g>
</g>
<!-- Node17&#45;&gt;Node18 -->
<g id="edge23" class="edge">
<title>Node17&#45;&gt;Node18</title>
<path fill="none" stroke="midnightblue" d="M1484.16,-605.35C1478.4,-567.6 1465.55,-483.36 1461.35,-455.87"/>
<polygon fill="midnightblue" stroke="midnightblue" points="1480.73,-606.11 1485.7,-615.46 1487.65,-605.05 1480.73,-606.11"/>
</g>
<!-- Node18&#45;&gt;Node8 -->
<g id="edge24" class="edge">
<title>Node18&#45;&gt;Node8</title>
<path fill="none" stroke="midnightblue" d="M1440.47,-430.29C1425.32,-418.88 1404.84,-403.46 1392.3,-394.01"/>
<polygon fill="midnightblue" stroke="midnightblue" points="1438.59,-433.25 1448.68,-436.48 1442.8,-427.66 1438.59,-433.25"/>
</g>
<!-- Node19&#45;&gt;Node2 -->
<g id="edge26" class="edge">
<title>Node19&#45;&gt;Node2</title>
<path fill="none" stroke="midnightblue" d="M1019.53,-613.52C980.02,-605.58 926.25,-593.58 880,-579 828.55,-562.78 770.9,-538.07 736.57,-522.62"/>
<polygon fill="midnightblue" stroke="midnightblue" points="1019.02,-616.99 1029.51,-615.5 1020.38,-610.12 1019.02,-616.99"/>
</g>
<!-- Node19&#45;&gt;Node16 -->
<g id="edge27" class="edge">
<title>Node19&#45;&gt;Node16</title>
<path fill="none" stroke="midnightblue" d="M1107.78,-611.38C1125.75,-603.47 1148.12,-592.26 1166,-579 1218.22,-540.27 1267.34,-478.4 1284.53,-455.71"/>
<polygon fill="midnightblue" stroke="midnightblue" points="1106.13,-608.28 1098.31,-615.43 1108.88,-614.72 1106.13,-608.28"/>
</g>
<!-- Node20 -->
<g id="node20" class="node">
<title>Node20</title>
<g id="a_node20"><a xlink:href="http__jwt_8h.html" target="_top" xlink:title=" ">
<polygon fill="white" stroke="black" points="507.5,-559.5 507.5,-578.5 612.5,-578.5 612.5,-559.5 507.5,-559.5"/>
<text text-anchor="middle" x="560" y="-566.5" font-family="Helvetica,sans-Serif" font-size="10.00">src/http/http_jwt.h</text>
</a>
</g>
</g>
<!-- Node19&#45;&gt;Node20 -->
<g id="edge28" class="edge">
<title>Node19&#45;&gt;Node20</title>
<path fill="none" stroke="midnightblue" d="M1005.64,-616.64C900.91,-605.68 706.32,-585.31 612.83,-575.53"/>
<polygon fill="midnightblue" stroke="midnightblue" points="1005.49,-620.14 1015.8,-617.7 1006.22,-613.18 1005.49,-620.14"/>
</g>
<!-- Node28 -->
<g id="node28" class="node">
<title>Node28</title>
<g id="a_node28"><a xlink:href="http__rpc__context_8h.html" target="_top" xlink:title=" ">
<polygon fill="white" stroke="black" points="1063.5,-498 1063.5,-517 1210.5,-517 1210.5,-498 1063.5,-498"/>
<text text-anchor="middle" x="1137" y="-505" font-family="Helvetica,sans-Serif" font-size="10.00">src/http/http_rpc_context.h</text>
</a>
</g>
</g>
<!-- Node19&#45;&gt;Node28 -->
<g id="edge43" class="edge">
<title>Node19&#45;&gt;Node28</title>
<path fill="none" stroke="midnightblue" d="M1111.45,-611.2C1125.78,-604.06 1140.84,-593.61 1149,-579 1160.14,-559.05 1149.06,-531.36 1141.96,-517.36"/>
<polygon fill="midnightblue" stroke="midnightblue" points="1109.85,-608.08 1102.21,-615.41 1112.76,-614.44 1109.85,-608.08"/>
</g>
<!-- Node30 -->
<g id="node30" class="node">
<title>Node30</title>
<g id="a_node30"><a xlink:href="http__sig_8h.html" target="_top" xlink:title=" ">
<polygon fill="white" stroke="black" points="889,-559.5 889,-578.5 993,-578.5 993,-559.5 889,-559.5"/>
<text text-anchor="middle" x="941" y="-566.5" font-family="Helvetica,sans-Serif" font-size="10.00">src/http/http_sig.h</text>
</a>
</g>
</g>
<!-- Node19&#45;&gt;Node30 -->
<g id="edge51" class="edge">
<title>Node19&#45;&gt;Node30</title>
<path fill="none" stroke="midnightblue" d="M1045.09,-611.64C1019.76,-601.5 984.57,-587.43 962.29,-578.52"/>
<polygon fill="midnightblue" stroke="midnightblue" points="1044.02,-614.98 1054.61,-615.44 1046.62,-608.48 1044.02,-614.98"/>
</g>
<!-- Node32 -->
<g id="node32" class="node">
<title>Node32</title>
<g id="a_node32"><a xlink:href="acme__client_8h.html" target="_top" xlink:title=" ">
<polygon fill="white" stroke="black" points="1011.5,-559.5 1011.5,-578.5 1140.5,-578.5 1140.5,-559.5 1011.5,-559.5"/>
<text text-anchor="middle" x="1076" y="-566.5" font-family="Helvetica,sans-Serif" font-size="10.00">src/node/acme_client.h</text>
</a>
</g>
</g>
<!-- Node19&#45;&gt;Node32 -->
<g id="edge55" class="edge">
<title>Node19&#45;&gt;Node32</title>
<path fill="none" stroke="midnightblue" d="M1076,-604.8C1076,-595.91 1076,-585.78 1076,-578.75"/>
<polygon fill="midnightblue" stroke="midnightblue" points="1072.5,-605.08 1076,-615.08 1079.5,-605.08 1072.5,-605.08"/>
</g>
<!-- Node21 -->
<g id="node21" class="node">
<title>Node21</title>
<g id="a_node21"><a xlink:href="jwt__auth_8cpp.html" target="_top" xlink:title=" ">
<polygon fill="white" stroke="black" points="482.5,-492.5 482.5,-522.5 637.5,-522.5 637.5,-492.5 482.5,-492.5"/>
<text text-anchor="start" x="490.5" y="-510.5" font-family="Helvetica,sans-Serif" font-size="10.00">src/endpoints/authentication</text>
<text text-anchor="middle" x="560" y="-499.5" font-family="Helvetica,sans-Serif" font-size="10.00">/jwt_auth.cpp</text>
</a>
</g>
</g>
<!-- Node20&#45;&gt;Node21 -->
<g id="edge29" class="edge">
<title>Node20&#45;&gt;Node21</title>
<path fill="none" stroke="midnightblue" d="M560,-549.23C560,-540.59 560,-530.5 560,-522.52"/>
<polygon fill="midnightblue" stroke="midnightblue" points="556.5,-549.48 560,-559.48 563.5,-549.48 556.5,-549.48"/>
</g>
<!-- Node22 -->
<g id="node22" class="node">
<title>Node22</title>
<g id="a_node22"><a xlink:href="frontend_8h.html" target="_top" xlink:title=" ">
<polygon fill="white" stroke="black" points="389.5,-375 389.5,-394 518.5,-394 518.5,-375 389.5,-375"/>
<text text-anchor="middle" x="454" y="-382" font-family="Helvetica,sans-Serif" font-size="10.00">src/node/rpc/frontend.h</text>
</a>
</g>
</g>
<!-- Node20&#45;&gt;Node22 -->
<g id="edge30" class="edge">
<title>Node20&#45;&gt;Node22</title>
<path fill="none" stroke="midnightblue" d="M518.08,-555.75C501.49,-548.8 483.83,-538.32 473,-523 444.2,-482.27 449.55,-417.51 452.66,-394.21"/>
<polygon fill="midnightblue" stroke="midnightblue" points="517.07,-559.12 527.66,-559.46 519.59,-552.59 517.07,-559.12"/>
</g>
<!-- Node22&#45;&gt;Node13 -->
<g id="edge34" class="edge">
<title>Node22&#45;&gt;Node13</title>
<path fill="none" stroke="midnightblue" d="M427.13,-369.63C413.61,-361.07 398.54,-348.71 391,-333 385.04,-320.58 383.1,-313.29 391,-302 449.96,-217.81 575.81,-193.72 651.84,-186.97"/>
<polygon fill="midnightblue" stroke="midnightblue" points="425.73,-372.87 436.12,-374.94 429.29,-366.84 425.73,-372.87"/>
</g>
<!-- Node23 -->
<g id="node23" class="node">
<title>Node23</title>
<g id="a_node23"><a xlink:href="acme__challenge__frontend_8h.html" target="_top" xlink:title=" ">
<polygon fill="white" stroke="black" points="576,-302.5 576,-332.5 716,-332.5 716,-302.5 576,-302.5"/>
<text text-anchor="start" x="584" y="-320.5" font-family="Helvetica,sans-Serif" font-size="10.00">src/node/acme_challenge</text>
<text text-anchor="middle" x="646" y="-309.5" font-family="Helvetica,sans-Serif" font-size="10.00">_frontend.h</text>
</a>
</g>
</g>
<!-- Node22&#45;&gt;Node23 -->
<g id="edge31" class="edge">
<title>Node22&#45;&gt;Node23</title>
<path fill="none" stroke="midnightblue" d="M489.05,-371.63C521.61,-360.61 570.11,-344.19 604.56,-332.53"/>
<polygon fill="midnightblue" stroke="midnightblue" points="487.85,-368.35 479.5,-374.87 490.09,-374.98 487.85,-368.35"/>
</g>
<!-- Node24 -->
<g id="node24" class="node">
<title>Node24</title>
<g id="a_node24"><a xlink:href="member__frontend_8h.html" target="_top" xlink:title=" ">
<polygon fill="white" stroke="black" points="186,-168.5 186,-198.5 306,-198.5 306,-168.5 186,-168.5"/>
<text text-anchor="start" x="194" y="-186.5" font-family="Helvetica,sans-Serif" font-size="10.00">src/node/rpc/member</text>
<text text-anchor="middle" x="246" y="-175.5" font-family="Helvetica,sans-Serif" font-size="10.00">_frontend.h</text>
</a>
</g>
</g>
<!-- Node22&#45;&gt;Node24 -->
<g id="edge35" class="edge">
<title>Node22&#45;&gt;Node24</title>
<path fill="none" stroke="midnightblue" d="M397.81,-372.34C371.68,-364.82 341.68,-352.58 320,-333 278.1,-295.16 256.98,-228.22 249.38,-198.91"/>
<polygon fill="midnightblue" stroke="midnightblue" points="397.03,-375.76 407.6,-374.99 398.87,-369 397.03,-375.76"/>
</g>
<!-- Node25 -->
<g id="node25" class="node">
<title>Node25</title>
<g id="a_node25"><a xlink:href="node__frontend_8h.html" target="_top" xlink:title=" ">
<polygon fill="white" stroke="black" points="400,-308 400,-327 558,-327 558,-308 400,-308"/>
<text text-anchor="middle" x="479" y="-315" font-family="Helvetica,sans-Serif" font-size="10.00">src/node/rpc/node_frontend.h</text>
</a>
</g>
</g>
<!-- Node22&#45;&gt;Node25 -->
<g id="edge37" class="edge">
<title>Node22&#45;&gt;Node25</title>
<path fill="none" stroke="midnightblue" d="M461,-365.29C465.8,-352.81 471.96,-336.81 475.68,-327.13"/>
<polygon fill="midnightblue" stroke="midnightblue" points="457.69,-364.14 457.37,-374.73 464.23,-366.66 457.69,-364.14"/>
</g>
<!-- Node27 -->
<g id="node27" class="node">
<title>Node27</title>
<g id="a_node27"><a xlink:href="user__frontend_8h.html" target="_top" xlink:title=" ">
<polygon fill="white" stroke="black" points="289.5,-112.5 289.5,-131.5 444.5,-131.5 444.5,-112.5 289.5,-112.5"/>
<text text-anchor="middle" x="367" y="-119.5" font-family="Helvetica,sans-Serif" font-size="10.00">src/node/rpc/user_frontend.h</text>
</a>
</g>
</g>
<!-- Node22&#45;&gt;Node27 -->
<g id="edge41" class="edge">
<title>Node22&#45;&gt;Node27</title>
<path fill="none" stroke="midnightblue" d="M423.83,-370.25C408.57,-361.88 391.35,-349.5 382,-333 343.1,-264.3 359.16,-162.03 365.13,-131.75"/>
<polygon fill="midnightblue" stroke="midnightblue" points="422.5,-373.5 432.99,-374.95 425.69,-367.27 422.5,-373.5"/>
</g>
<!-- Node23&#45;&gt;Node10 -->
<g id="edge32" class="edge">
<title>Node23&#45;&gt;Node10</title>
<path fill="none" stroke="midnightblue" d="M625.09,-294.85C617.35,-286.24 608.8,-276.02 602,-266 564.39,-210.57 548.78,-197.1 533,-132 530.91,-123.36 530.36,-120.49 533,-112 537.4,-97.87 547.95,-84.25 555.52,-75.77"/>
<polygon fill="midnightblue" stroke="midnightblue" points="622.56,-297.26 631.91,-302.24 627.71,-292.52 622.56,-297.26"/>
</g>
<!-- Node23&#45;&gt;Node12 -->
<g id="edge33" class="edge">
<title>Node23&#45;&gt;Node12</title>
<path fill="none" stroke="midnightblue" d="M724.94,-300.47C787.88,-287.68 873.57,-270.27 924.01,-260.03"/>
<polygon fill="midnightblue" stroke="midnightblue" points="724.14,-297.06 715.04,-302.48 725.54,-303.92 724.14,-297.06"/>
</g>
<!-- Node24&#45;&gt;Node10 -->
<g id="edge36" class="edge">
<title>Node24&#45;&gt;Node10</title>
<path fill="none" stroke="midnightblue" d="M251.49,-158.27C256.33,-142.61 265.03,-123.13 280,-112 314.35,-86.46 430.14,-74.94 502.83,-70.12"/>
<polygon fill="midnightblue" stroke="midnightblue" points="248,-157.78 248.73,-168.35 254.75,-159.64 248,-157.78"/>
</g>
<!-- Node25&#45;&gt;Node10 -->
<g id="edge38" class="edge">
<title>Node25&#45;&gt;Node10</title>
<path fill="none" stroke="midnightblue" d="M480.75,-297.52C484.78,-260.26 496.88,-175.62 528,-112 534.86,-97.98 546.73,-84.34 554.95,-75.82"/>
<polygon fill="midnightblue" stroke="midnightblue" points="477.23,-297.57 479.71,-307.87 484.2,-298.27 477.23,-297.57"/>
</g>
<!-- Node25&#45;&gt;Node26 -->
<g id="edge39" class="edge">
<title>Node25&#45;&gt;Node26</title>
<path fill="none" stroke="midnightblue" d="M533.77,-305.98C586.4,-295.83 668.17,-280.01 739,-266 742,-265.41 745.07,-264.8 748.18,-264.18"/>
<polygon fill="midnightblue" stroke="midnightblue" points="532.8,-302.6 523.64,-307.93 534.13,-309.47 532.8,-302.6"/>
</g>
<!-- Node26&#45;&gt;Node13 -->
<g id="edge40" class="edge">
<title>Node26&#45;&gt;Node13</title>
<path fill="none" stroke="midnightblue" d="M781.36,-229.64C763.06,-217.37 740.51,-202.26 726.7,-193.01"/>
<polygon fill="midnightblue" stroke="midnightblue" points="779.7,-232.74 789.95,-235.4 783.59,-226.92 779.7,-232.74"/>
</g>
<!-- Node27&#45;&gt;Node10 -->
<g id="edge42" class="edge">
<title>Node27&#45;&gt;Node10</title>
<path fill="none" stroke="midnightblue" d="M408.23,-109.7C445.41,-99.51 499.27,-84.74 532.93,-75.52"/>
<polygon fill="midnightblue" stroke="midnightblue" points="406.93,-106.42 398.22,-112.44 408.78,-113.18 406.93,-106.42"/>
</g>
<!-- Node28&#45;&gt;Node8 -->
<g id="edge45" class="edge">
<title>Node28&#45;&gt;Node8</title>
<path fill="none" stroke="midnightblue" d="M1150.93,-490.29C1165.44,-474.36 1189.57,-450.4 1215,-436 1252.36,-414.85 1299.56,-401.6 1334.07,-394.01"/>
<polygon fill="midnightblue" stroke="midnightblue" points="1148.29,-488 1144.27,-497.8 1153.52,-492.65 1148.29,-488"/>
</g>
<!-- Node28&#45;&gt;Node16 -->
<g id="edge46" class="edge">
<title>Node28&#45;&gt;Node16</title>
<path fill="none" stroke="midnightblue" d="M1168.62,-494.28C1198.55,-482.72 1242.69,-465.66 1268.98,-455.51"/>
<polygon fill="midnightblue" stroke="midnightblue" points="1167.13,-491.11 1159.06,-497.98 1169.65,-497.64 1167.13,-491.11"/>
</g>
<!-- Node28&#45;&gt;Node18 -->
<g id="edge44" class="edge">
<title>Node28&#45;&gt;Node18</title>
<path fill="none" stroke="midnightblue" d="M1193.39,-496.11C1256.14,-484.55 1356.29,-466.1 1414.33,-455.41"/>
<polygon fill="midnightblue" stroke="midnightblue" points="1192.48,-492.72 1183.28,-497.98 1193.75,-499.61 1192.48,-492.72"/>
</g>
<!-- Node28&#45;&gt;Node26 -->
<g id="edge47" class="edge">
<title>Node28&#45;&gt;Node26</title>
<path fill="none" stroke="midnightblue" d="M1094.28,-494.72C1071.57,-486.74 1044.42,-474.27 1025,-456 968.68,-403 1001.9,-353.27 944,-302 924.21,-284.48 897.73,-272.78 873.61,-265.1"/>
<polygon fill="midnightblue" stroke="midnightblue" points="1093.44,-498.13 1104.04,-497.97 1095.66,-491.48 1093.44,-498.13"/>
</g>
<!-- Node29 -->
<g id="node29" class="node">
<title>Node29</title>
<g id="a_node29"><a xlink:href="forwarder_8h.html" target="_top" xlink:title=" ">
<polygon fill="white" stroke="black" points="1034,-436.5 1034,-455.5 1168,-455.5 1168,-436.5 1034,-436.5"/>
<text text-anchor="middle" x="1101" y="-443.5" font-family="Helvetica,sans-Serif" font-size="10.00">src/node/rpc/forwarder.h</text>
</a>
</g>
</g>
<!-- Node28&#45;&gt;Node29 -->
<g id="edge48" class="edge">
<title>Node28&#45;&gt;Node29</title>
<path fill="none" stroke="midnightblue" d="M1126.52,-489.17C1119.82,-478.11 1111.44,-464.25 1106.15,-455.51"/>
<polygon fill="midnightblue" stroke="midnightblue" points="1123.67,-491.23 1131.84,-497.98 1129.66,-487.61 1123.67,-491.23"/>
</g>
<!-- Node29&#45;&gt;Node10 -->
<g id="edge49" class="edge">
<title>Node29&#45;&gt;Node10</title>
<path fill="none" stroke="midnightblue" d="M1147.47,-433.51C1199.91,-417.44 1278,-382.73 1278,-318.5 1278,-318.5 1278,-318.5 1278,-182.5 1278,-116.62 798.11,-81.13 625.18,-70.48"/>
<polygon fill="midnightblue" stroke="midnightblue" points="1146.28,-430.21 1137.67,-436.39 1148.26,-436.93 1146.28,-430.21"/>
</g>
<!-- Node29&#45;&gt;Node22 -->
<g id="edge50" class="edge">
<title>Node29&#45;&gt;Node22</title>
<path fill="none" stroke="midnightblue" d="M1023.96,-440.32C917.44,-433.49 719.26,-419.44 551,-400 536.54,-398.33 520.92,-396.16 506.52,-394"/>
<polygon fill="midnightblue" stroke="midnightblue" points="1023.77,-443.82 1033.97,-440.96 1024.22,-436.83 1023.77,-443.82"/>
</g>
<!-- Node30&#45;&gt;Node2 -->
<g id="edge52" class="edge">
<title>Node30&#45;&gt;Node2</title>
<path fill="none" stroke="midnightblue" d="M897.4,-556.96C857.62,-546.89 798.83,-532 756.91,-521.39"/>
<polygon fill="midnightblue" stroke="midnightblue" points="896.78,-560.41 907.33,-559.48 898.5,-553.63 896.78,-560.41"/>
</g>
<!-- Node30&#45;&gt;Node28 -->
<g id="edge54" class="edge">
<title>Node30&#45;&gt;Node28</title>
<path fill="none" stroke="midnightblue" d="M978.79,-556.53C1016.88,-544.96 1074.79,-527.38 1108.97,-517.01"/>
<polygon fill="midnightblue" stroke="midnightblue" points="977.63,-553.22 969.08,-559.48 979.67,-559.92 977.63,-553.22"/>
</g>
<!-- Node31 -->
<g id="node31" class="node">
<title>Node31</title>
<g id="a_node31"><a xlink:href="sig__auth_8cpp.html" target="_top" xlink:title=" ">
<polygon fill="white" stroke="black" points="851.5,-492.5 851.5,-522.5 1006.5,-522.5 1006.5,-492.5 851.5,-492.5"/>
<text text-anchor="start" x="859.5" y="-510.5" font-family="Helvetica,sans-Serif" font-size="10.00">src/endpoints/authentication</text>
<text text-anchor="middle" x="929" y="-499.5" font-family="Helvetica,sans-Serif" font-size="10.00">/sig_auth.cpp</text>
</a>
</g>
</g>
<!-- Node30&#45;&gt;Node31 -->
<g id="edge53" class="edge">
<title>Node30&#45;&gt;Node31</title>
<path fill="none" stroke="midnightblue" d="M937.27,-549.53C935.52,-540.81 933.45,-530.59 931.83,-522.52"/>
<polygon fill="midnightblue" stroke="midnightblue" points="933.87,-550.36 939.28,-559.48 940.73,-548.98 933.87,-550.36"/>
</g>
<!-- Node32&#45;&gt;Node12 -->
<g id="edge56" class="edge">
<title>Node32&#45;&gt;Node12</title>
<path fill="none" stroke="midnightblue" d="M1062.65,-551.45C1046.45,-530.5 1019.52,-492.71 1005,-456 976.55,-384.08 968.41,-289.5 966.51,-260.4"/>
<polygon fill="midnightblue" stroke="midnightblue" points="1059.93,-553.65 1068.86,-559.34 1065.43,-549.32 1059.93,-553.65"/>
</g>
<!-- Node33&#45;&gt;Node18 -->
<g id="edge58" class="edge">
<title>Node33&#45;&gt;Node18</title>
<path fill="none" stroke="midnightblue" d="M1368.67,-661.95C1388.62,-615 1441.6,-490.29 1456.22,-455.9"/>
<polygon fill="midnightblue" stroke="midnightblue" points="1365.33,-660.86 1364.64,-671.43 1371.77,-663.6 1365.33,-660.86"/>
</g>
<!-- Node33&#45;&gt;Node19 -->
<g id="edge59" class="edge">
<title>Node33&#45;&gt;Node19</title>
<path fill="none" stroke="midnightblue" d="M1305.78,-669.54C1251.92,-659.33 1171,-644 1120.95,-634.52"/>
<polygon fill="midnightblue" stroke="midnightblue" points="1305.36,-673.02 1315.84,-671.44 1306.67,-666.14 1305.36,-673.02"/>
</g>
<!-- Node35 -->
<g id="node35" class="node">
<title>Node35</title>
<g id="a_node35"><a xlink:href="orc__requests_8h.html" target="_top" xlink:title=" ">
<polygon fill="white" stroke="black" points="560.5,-369.5 560.5,-399.5 679.5,-399.5 679.5,-369.5 560.5,-369.5"/>
<text text-anchor="start" x="568.5" y="-387.5" font-family="Helvetica,sans-Serif" font-size="10.00">src/consensus/aft/orc</text>
<text text-anchor="middle" x="620" y="-376.5" font-family="Helvetica,sans-Serif" font-size="10.00">_requests.h</text>
</a>
</g>
</g>
<!-- Node34&#45;&gt;Node35 -->
<g id="edge62" class="edge">
<title>Node34&#45;&gt;Node35</title>
<path fill="none" stroke="midnightblue" d="M751.65,-432.98C724.83,-423.3 687.09,-409.69 658.89,-399.52"/>
<polygon fill="midnightblue" stroke="midnightblue" points="750.77,-436.38 761.36,-436.48 753.14,-429.79 750.77,-436.38"/>
</g>
<!-- Node36 -->
<g id="node36" class="node">
<title>Node36</title>
<g id="a_node36"><a xlink:href="raft_8h.html" target="_top" xlink:title=" ">
<polygon fill="white" stroke="black" points="734.5,-308 734.5,-327 863.5,-327 863.5,-308 734.5,-308"/>
<text text-anchor="middle" x="799" y="-315" font-family="Helvetica,sans-Serif" font-size="10.00">src/consensus/aft/raft.h</text>
</a>
</g>
</g>
<!-- Node34&#45;&gt;Node36 -->
<g id="edge66" class="edge">
<title>Node34&#45;&gt;Node36</title>
<path fill="none" stroke="midnightblue" d="M808.25,-430.68C818.48,-422.99 829.43,-412.5 835,-400 846.83,-373.44 821.87,-341.93 807.77,-327.07"/>
<polygon fill="midnightblue" stroke="midnightblue" points="806.15,-427.88 799.95,-436.47 810.16,-433.62 806.15,-427.88"/>
</g>
<!-- Node37 -->
<g id="node37" class="node">
<title>Node37</title>
<g id="a_node37"><a xlink:href="http__node__client_8h.html" target="_top" xlink:title=" ">
<polygon fill="white" stroke="black" points="620,-235.5 620,-265.5 730,-265.5 730,-235.5 620,-235.5"/>
<text text-anchor="start" x="628" y="-253.5" font-family="Helvetica,sans-Serif" font-size="10.00">src/node/http_node</text>
<text text-anchor="middle" x="675" y="-242.5" font-family="Helvetica,sans-Serif" font-size="10.00">_client.h</text>
</a>
</g>
</g>
<!-- Node34&#45;&gt;Node37 -->
<g id="edge67" class="edge">
<title>Node34&#45;&gt;Node37</title>
<path fill="none" stroke="midnightblue" d="M813.27,-431.38C826.4,-423.78 841.23,-413.18 851,-400 877.53,-364.22 899.31,-337.19 872,-302 869.75,-299.11 787.59,-278.73 730.09,-264.76"/>
<polygon fill="midnightblue" stroke="midnightblue" points="811.21,-428.52 804.1,-436.38 814.56,-434.67 811.21,-428.52"/>
</g>
<!-- Node38 -->
<g id="node38" class="node">
<title>Node38</title>
<g id="a_node38"><a xlink:href="retired__nodes__cleanup_8h.html" target="_top" xlink:title=" ">
<polygon fill="white" stroke="black" points="698,-369.5 698,-399.5 826,-399.5 826,-369.5 698,-369.5"/>
<text text-anchor="start" x="706" y="-387.5" font-family="Helvetica,sans-Serif" font-size="10.00">src/node/retired_nodes</text>
<text text-anchor="middle" x="762" y="-376.5" font-family="Helvetica,sans-Serif" font-size="10.00">_cleanup.h</text>
</a>
</g>
</g>
<!-- Node34&#45;&gt;Node38 -->
<g id="edge69" class="edge">
<title>Node34&#45;&gt;Node38</title>
<path fill="none" stroke="midnightblue" d="M778.08,-427.1C774.67,-418.27 770.61,-407.77 767.42,-399.52"/>
<polygon fill="midnightblue" stroke="midnightblue" points="774.83,-428.41 781.7,-436.48 781.36,-425.89 774.83,-428.41"/>
</g>
<!-- Node35&#45;&gt;Node25 -->
<g id="edge65" class="edge">
<title>Node35&#45;&gt;Node25</title>
<path fill="none" stroke="midnightblue" d="M580.15,-365.13C553.02,-352.62 518.35,-336.64 497.45,-327.01"/>
<polygon fill="midnightblue" stroke="midnightblue" points="578.86,-368.39 589.41,-369.4 581.79,-362.03 578.86,-368.39"/>
</g>
<!-- Node35&#45;&gt;Node36 -->
<g id="edge63" class="edge">
<title>Node35&#45;&gt;Node36</title>
<path fill="none" stroke="midnightblue" d="M668.34,-365.95C703.11,-353.32 748.47,-336.85 775.57,-327.01"/>
<polygon fill="midnightblue" stroke="midnightblue" points="667.05,-362.69 658.84,-369.4 669.43,-369.27 667.05,-362.69"/>
</g>
<!-- Node36&#45;&gt;Node13 -->
<g id="edge64" class="edge">
<title>Node36&#45;&gt;Node13</title>
<path fill="none" stroke="midnightblue" d="M746.81,-305.87C694.16,-294.61 619.43,-276.99 611,-266 602.62,-255.07 603.71,-246.69 611,-235 624.8,-212.86 651.45,-200.16 674.18,-193.03"/>
<polygon fill="midnightblue" stroke="midnightblue" points="746.19,-309.31 756.7,-307.96 747.64,-302.47 746.19,-309.31"/>
</g>
<!-- Node37&#45;&gt;Node13 -->
<g id="edge68" class="edge">
<title>Node37&#45;&gt;Node13</title>
<path fill="none" stroke="midnightblue" d="M688.72,-226.63C695.66,-215.07 703.67,-201.71 708.78,-193.19"/>
<polygon fill="midnightblue" stroke="midnightblue" points="685.61,-225.02 683.46,-235.4 691.61,-228.62 685.61,-225.02"/>
</g>
<!-- Node38&#45;&gt;Node36 -->
<g id="edge70" class="edge">
<title>Node38&#45;&gt;Node36</title>
<path fill="none" stroke="midnightblue" d="M775.02,-360.63C781.6,-349.07 789.2,-335.71 794.05,-327.19"/>
<polygon fill="midnightblue" stroke="midnightblue" points="771.93,-358.97 770.03,-369.4 778.02,-362.44 771.93,-358.97"/>
</g>
</g>
</svg>
