<?xml version="1.0" encoding="UTF-8" standalone="no"?>
<!DOCTYPE svg PUBLIC "-//W3C//DTD SVG 1.1//EN"
 "http://www.w3.org/Graphics/SVG/1.1/DTD/svg11.dtd">
<!-- Generated by graphviz version 2.43.0 (0)
 -->
<!-- Title: include/ccf/crypto/rsa_key_pair.h Pages: 1 -->
<!--zoomable 498 -->
<svg id="main" version="1.1" xmlns="http://www.w3.org/2000/svg" xmlns:xlink="http://www.w3.org/1999/xlink" xml:space="preserve" onload="init(evt)">
<style type="text/css"><![CDATA[
.edge:hover path { stroke: red; }
.edge:hover polygon { stroke: red; fill: red; }
]]></style>
<script type="text/javascript"><![CDATA[
var edges = document.getElementsByTagName('g');
if (edges && edges.length) {
  for (var i=0;i<edges.length;i++) {
    if (edges[i].id.substr(0,4)=='edge') {
      edges[i].setAttribute('class','edge');
    }
  }
}
]]></script>
        <defs>
                <circle id="rim" cx="0" cy="0" r="7"/>
                <circle id="rim2" cx="0" cy="0" r="3.5"/>
                <g id="zoomPlus">
                        <use xlink:href="#rim" fill="#404040">
                                <set attributeName="fill" to="#808080" begin="zoomplus.mouseover" end="zoomplus.mouseout"/>
                        </use>
                        <path d="M-4,0h8M0,-4v8" fill="none" stroke="white" stroke-width="1.5" pointer-events="none"/>
                </g>
                <g id="zoomMin">
                        <use xlink:href="#rim" fill="#404040">
                                <set attributeName="fill" to="#808080" begin="zoomminus.mouseover" end="zoomminus.mouseout"/>
                        </use>
                        <path d="M-4,0h8" fill="none" stroke="white" stroke-width="1.5" pointer-events="none"/>
                </g>
                <g id="dirArrow">
                        <path fill="none" stroke="white" stroke-width="1.5" d="M0,-3.0v7 M-2.5,-0.5L0,-3.0L2.5,-0.5"/>
                </g>
               <g id="resetDef">
                       <use xlink:href="#rim2" fill="#404040">
                               <set attributeName="fill" to="#808080" begin="reset.mouseover" end="reset.mouseout"/>
                       </use>
               </g>
        </defs>

<script type="text/javascript">
var viewWidth = 1496;
var viewHeight = 498;
var sectionId = 'dynsection-0';
</script>
<script xlink:href="svgpan.js"/>
<svg id="graph" class="graph">
<g id="viewport">
<title>include/ccf/crypto/rsa_key_pair.h</title>
<polygon fill="white" stroke="transparent" points="-4,4 -4,-494 1491.5,-494 1491.5,4 -4,4"/>
<!-- Node1 -->
<g id="node1" class="node">
<title>Node1</title>
<g id="a_node1"><a xlink:title=" ">
<polygon fill="#bfbfbf" stroke="black" points="1148,-459.5 1148,-489.5 1251,-489.5 1251,-459.5 1148,-459.5"/>
<text text-anchor="start" x="1156" y="-477.5" font-family="Helvetica,sans-Serif" font-size="10.00">include/ccf/crypto</text>
<text text-anchor="middle" x="1199.5" y="-466.5" font-family="Helvetica,sans-Serif" font-size="10.00">/rsa_key_pair.h</text>
</a>
</g>
</g>
<!-- Node2 -->
<g id="node2" class="node">
<title>Node2</title>
<g id="a_node2"><a xlink:href="include_2ccf_2crypto_2key__pair_8h.html" target="_top" xlink:title=" ">
<polygon fill="white" stroke="black" points="1011,-403.5 1011,-422.5 1128,-422.5 1128,-403.5 1011,-403.5"/>
<text text-anchor="middle" x="1069.5" y="-410.5" font-family="Helvetica,sans-Serif" font-size="10.00">ccf/crypto/key_pair.h</text>
</a>
</g>
</g>
<!-- Node1&#45;&gt;Node2 -->
<g id="edge1" class="edge">
<title>Node1&#45;&gt;Node2</title>
<path fill="none" stroke="midnightblue" d="M1168.69,-459.4C1147.17,-449.55 1118.66,-436.5 1097.73,-426.92"/>
<polygon fill="midnightblue" stroke="midnightblue" points="1098.97,-423.64 1088.42,-422.66 1096.05,-430 1098.97,-423.64"/>
</g>
<!-- Node7 -->
<g id="node7" class="node">
<title>Node7</title>
<g id="a_node7"><a xlink:title=" ">
<polygon fill="white" stroke="#bfbfbf" points="621.5,-0.5 621.5,-19.5 665.5,-19.5 665.5,-0.5 621.5,-0.5"/>
<text text-anchor="middle" x="643.5" y="-7.5" font-family="Helvetica,sans-Serif" font-size="10.00">string</text>
</a>
</g>
</g>
<!-- Node1&#45;&gt;Node7 -->
<g id="edge63" class="edge">
<title>Node1&#45;&gt;Node7</title>
<path fill="none" stroke="midnightblue" d="M1147.66,-473.26C931.04,-471.59 109.5,-458.29 109.5,-352.5 109.5,-352.5 109.5,-352.5 109.5,-233 109.5,-136.18 152.93,-104.89 236.5,-56 299.98,-18.87 526.7,-12.36 611.33,-11.23"/>
<polygon fill="midnightblue" stroke="midnightblue" points="611.43,-14.73 621.39,-11.12 611.35,-7.73 611.43,-14.73"/>
</g>
<!-- Node8 -->
<g id="node8" class="node">
<title>Node8</title>
<g id="a_node8"><a xlink:title=" ">
<polygon fill="white" stroke="#bfbfbf" points="1249,-0.5 1249,-19.5 1296,-19.5 1296,-0.5 1249,-0.5"/>
<text text-anchor="middle" x="1272.5" y="-7.5" font-family="Helvetica,sans-Serif" font-size="10.00">vector</text>
</a>
</g>
</g>
<!-- Node1&#45;&gt;Node8 -->
<g id="edge64" class="edge">
<title>Node1&#45;&gt;Node8</title>
<path fill="none" stroke="midnightblue" d="M1251.32,-473.96C1334.24,-471.69 1487.5,-453.78 1487.5,-352.5 1487.5,-352.5 1487.5,-352.5 1487.5,-121 1487.5,-40.71 1367.19,-18.99 1306.57,-13.14"/>
<polygon fill="midnightblue" stroke="midnightblue" points="1306.6,-9.63 1296.33,-12.25 1305.99,-16.6 1306.6,-9.63"/>
</g>
<!-- Node21 -->
<g id="node21" class="node">
<title>Node21</title>
<g id="a_node21"><a xlink:href="pem_8h.html" target="_top" xlink:title=" ">
<polygon fill="white" stroke="black" points="890.5,-280.5 890.5,-299.5 988.5,-299.5 988.5,-280.5 890.5,-280.5"/>
<text text-anchor="middle" x="939.5" y="-287.5" font-family="Helvetica,sans-Serif" font-size="10.00">ccf/crypto/pem.h</text>
</a>
</g>
</g>
<!-- Node1&#45;&gt;Node21 -->
<g id="edge54" class="edge">
<title>Node1&#45;&gt;Node21</title>
<path fill="none" stroke="midnightblue" d="M1147.95,-467.45C1106.62,-460.96 1048.18,-448.01 1002.5,-423 970.5,-405.48 957.69,-400.16 942.5,-367 934.27,-349.03 934.64,-326.1 936.36,-310.14"/>
<polygon fill="midnightblue" stroke="midnightblue" points="939.87,-310.31 937.76,-299.93 932.94,-309.37 939.87,-310.31"/>
</g>
<!-- Node29 -->
<g id="node29" class="node">
<title>Node29</title>
<g id="a_node29"><a xlink:title=" ">
<polygon fill="white" stroke="#bfbfbf" points="1174.5,-280.5 1174.5,-299.5 1224.5,-299.5 1224.5,-280.5 1174.5,-280.5"/>
<text text-anchor="middle" x="1199.5" y="-287.5" font-family="Helvetica,sans-Serif" font-size="10.00">cstdint</text>
</a>
</g>
</g>
<!-- Node1&#45;&gt;Node29 -->
<g id="edge61" class="edge">
<title>Node1&#45;&gt;Node29</title>
<path fill="none" stroke="midnightblue" d="M1199.5,-459.48C1199.5,-427.1 1199.5,-347.04 1199.5,-310.16"/>
<polygon fill="midnightblue" stroke="midnightblue" points="1203,-309.82 1199.5,-299.82 1196,-309.82 1203,-309.82"/>
</g>
<!-- Node30 -->
<g id="node30" class="node">
<title>Node30</title>
<g id="a_node30"><a xlink:title=" ">
<polygon fill="white" stroke="#bfbfbf" points="1327.5,-280.5 1327.5,-299.5 1383.5,-299.5 1383.5,-280.5 1327.5,-280.5"/>
<text text-anchor="middle" x="1355.5" y="-287.5" font-family="Helvetica,sans-Serif" font-size="10.00">optional</text>
</a>
</g>
</g>
<!-- Node1&#45;&gt;Node30 -->
<g id="edge62" class="edge">
<title>Node1&#45;&gt;Node30</title>
<path fill="none" stroke="midnightblue" d="M1246.45,-459.36C1288.16,-444.02 1346.58,-415.05 1373.5,-367 1383.82,-348.58 1374.93,-324.46 1366.38,-308.38"/>
<polygon fill="midnightblue" stroke="midnightblue" points="1369.3,-306.44 1361.27,-299.53 1363.24,-309.94 1369.3,-306.44"/>
</g>
<!-- Node31 -->
<g id="node31" class="node">
<title>Node31</title>
<g id="a_node31"><a xlink:href="include_2ccf_2crypto_2rsa__public__key_8h.html" target="_top" xlink:title=" ">
<polygon fill="white" stroke="black" points="1228,-336.5 1228,-366.5 1345,-366.5 1345,-336.5 1228,-336.5"/>
<text text-anchor="start" x="1236" y="-354.5" font-family="Helvetica,sans-Serif" font-size="10.00">ccf/crypto/rsa_public</text>
<text text-anchor="middle" x="1286.5" y="-343.5" font-family="Helvetica,sans-Serif" font-size="10.00">_key.h</text>
</a>
</g>
</g>
<!-- Node1&#45;&gt;Node31 -->
<g id="edge55" class="edge">
<title>Node1&#45;&gt;Node31</title>
<path fill="none" stroke="midnightblue" d="M1209.82,-459.14C1224.73,-438.4 1252.45,-399.85 1270.16,-375.22"/>
<polygon fill="midnightblue" stroke="midnightblue" points="1273.2,-377 1276.19,-366.84 1267.51,-372.91 1273.2,-377"/>
</g>
<!-- Node3 -->
<g id="node3" class="node">
<title>Node3</title>
<g id="a_node3"><a xlink:href="curve_8h.html" target="_top" xlink:title=" ">
<polygon fill="white" stroke="black" points="367.5,-280.5 367.5,-299.5 471.5,-299.5 471.5,-280.5 367.5,-280.5"/>
<text text-anchor="middle" x="419.5" y="-287.5" font-family="Helvetica,sans-Serif" font-size="10.00">ccf/crypto/curve.h</text>
</a>
</g>
</g>
<!-- Node2&#45;&gt;Node3 -->
<g id="edge2" class="edge">
<title>Node2&#45;&gt;Node3</title>
<path fill="none" stroke="midnightblue" d="M1018.34,-403.42C966.05,-394.58 882.54,-380.26 810.5,-367 689.2,-344.68 547.12,-316.57 472.1,-301.57"/>
<polygon fill="midnightblue" stroke="midnightblue" points="472.47,-298.07 461.97,-299.54 471.09,-304.94 472.47,-298.07"/>
</g>
<!-- Node2&#45;&gt;Node7 -->
<g id="edge52" class="edge">
<title>Node2&#45;&gt;Node7</title>
<path fill="none" stroke="midnightblue" d="M1044,-403.47C1027.51,-396.48 1007.36,-384.79 997.5,-367 990.82,-354.95 995.99,-349.7 997.5,-336 1005.32,-264.94 1032.5,-250.49 1032.5,-179 1032.5,-179 1032.5,-179 1032.5,-121 1032.5,-47.08 769.09,-20.33 675.79,-13.17"/>
<polygon fill="midnightblue" stroke="midnightblue" points="675.76,-9.66 665.53,-12.41 675.24,-16.64 675.76,-9.66"/>
</g>
<!-- Node2&#45;&gt;Node8 -->
<g id="edge53" class="edge">
<title>Node2&#45;&gt;Node8</title>
<path fill="none" stroke="midnightblue" d="M1128.21,-409.67C1205.31,-405.55 1335.37,-394.63 1373.5,-367 1404.08,-344.84 1411.5,-328.76 1411.5,-291 1411.5,-291 1411.5,-291 1411.5,-121 1411.5,-67.27 1346.84,-35.66 1305.72,-20.99"/>
<polygon fill="midnightblue" stroke="midnightblue" points="1306.67,-17.62 1296.08,-17.71 1304.42,-24.25 1306.67,-17.62"/>
</g>
<!-- Node2&#45;&gt;Node21 -->
<g id="edge27" class="edge">
<title>Node2&#45;&gt;Node21</title>
<path fill="none" stroke="midnightblue" d="M1028.63,-403.47C1006.59,-396.92 980.51,-385.72 963.5,-367 949.13,-351.19 943.37,-326.81 941.05,-309.95"/>
<polygon fill="midnightblue" stroke="midnightblue" points="944.5,-309.23 939.94,-299.67 937.54,-309.99 944.5,-309.23"/>
</g>
<!-- Node26 -->
<g id="node26" class="node">
<title>Node26</title>
<g id="a_node26"><a xlink:href="include_2ccf_2crypto_2public__key_8h.html" target="_top" xlink:title=" ">
<polygon fill="white" stroke="black" points="1006,-342 1006,-361 1133,-361 1133,-342 1006,-342"/>
<text text-anchor="middle" x="1069.5" y="-349" font-family="Helvetica,sans-Serif" font-size="10.00">ccf/crypto/public_key.h</text>
</a>
</g>
</g>
<!-- Node2&#45;&gt;Node26 -->
<g id="edge35" class="edge">
<title>Node2&#45;&gt;Node26</title>
<path fill="none" stroke="midnightblue" d="M1069.5,-403.48C1069.5,-395.08 1069.5,-381.98 1069.5,-371.16"/>
<polygon fill="midnightblue" stroke="midnightblue" points="1073,-371.01 1069.5,-361.01 1066,-371.01 1073,-371.01"/>
</g>
<!-- Node28 -->
<g id="node28" class="node">
<title>Node28</title>
<g id="a_node28"><a xlink:href="san_8h.html" target="_top" xlink:title=" ">
<polygon fill="white" stroke="black" points="510.5,-224.5 510.5,-243.5 604.5,-243.5 604.5,-224.5 510.5,-224.5"/>
<text text-anchor="middle" x="557.5" y="-231.5" font-family="Helvetica,sans-Serif" font-size="10.00">ccf/crypto/san.h</text>
</a>
</g>
</g>
<!-- Node2&#45;&gt;Node28 -->
<g id="edge49" class="edge">
<title>Node2&#45;&gt;Node28</title>
<path fill="none" stroke="midnightblue" d="M1044.81,-403.46C961.17,-374.55 688.46,-280.27 591.83,-246.87"/>
<polygon fill="midnightblue" stroke="midnightblue" points="592.84,-243.51 582.25,-243.55 590.55,-250.13 592.84,-243.51"/>
</g>
<!-- Node2&#45;&gt;Node29 -->
<g id="edge50" class="edge">
<title>Node2&#45;&gt;Node29</title>
<path fill="none" stroke="midnightblue" d="M1087.27,-403.47C1102.89,-395.43 1125.68,-382.36 1142.5,-367 1161.64,-349.53 1178.76,-324.86 1189.13,-308.43"/>
<polygon fill="midnightblue" stroke="midnightblue" points="1192.17,-310.17 1194.42,-299.81 1186.2,-306.5 1192.17,-310.17"/>
</g>
<!-- Node2&#45;&gt;Node30 -->
<g id="edge51" class="edge">
<title>Node2&#45;&gt;Node30</title>
<path fill="none" stroke="midnightblue" d="M1128.1,-411.3C1202.81,-409.02 1325.77,-400.18 1354.5,-367 1367.96,-351.45 1365.4,-326.67 1361.34,-309.65"/>
<polygon fill="midnightblue" stroke="midnightblue" points="1364.65,-308.48 1358.61,-299.77 1357.9,-310.34 1364.65,-308.48"/>
</g>
<!-- Node4 -->
<g id="node4" class="node">
<title>Node4</title>
<g id="a_node4"><a xlink:href="md__type_8h.html" target="_top" xlink:title=" ">
<polygon fill="white" stroke="black" points="297,-224.5 297,-243.5 416,-243.5 416,-224.5 297,-224.5"/>
<text text-anchor="middle" x="356.5" y="-231.5" font-family="Helvetica,sans-Serif" font-size="10.00">ccf/crypto/md_type.h</text>
</a>
</g>
</g>
<!-- Node3&#45;&gt;Node4 -->
<g id="edge3" class="edge">
<title>Node3&#45;&gt;Node4</title>
<path fill="none" stroke="midnightblue" d="M409.38,-280.32C399.97,-272.26 385.76,-260.08 374.43,-250.37"/>
<polygon fill="midnightblue" stroke="midnightblue" points="376.68,-247.68 366.81,-243.83 372.12,-253 376.68,-247.68"/>
</g>
<!-- Node5 -->
<g id="node5" class="node">
<title>Node5</title>
<g id="a_node5"><a xlink:href="json_8h.html" target="_top" xlink:title=" ">
<polygon fill="white" stroke="black" points="443,-168.5 443,-187.5 520,-187.5 520,-168.5 443,-168.5"/>
<text text-anchor="middle" x="481.5" y="-175.5" font-family="Helvetica,sans-Serif" font-size="10.00">ccf/ds/json.h</text>
</a>
</g>
</g>
<!-- Node3&#45;&gt;Node5 -->
<g id="edge23" class="edge">
<title>Node3&#45;&gt;Node5</title>
<path fill="none" stroke="midnightblue" d="M424.37,-280.37C434.55,-262.3 458.29,-220.18 471.74,-196.31"/>
<polygon fill="midnightblue" stroke="midnightblue" points="474.8,-198.02 476.66,-187.59 468.7,-194.58 474.8,-198.02"/>
</g>
<!-- Node3&#45;&gt;Node7 -->
<g id="edge26" class="edge">
<title>Node3&#45;&gt;Node7</title>
<path fill="none" stroke="midnightblue" d="M471.62,-283.59C522.45,-277.18 594.75,-264.68 613.5,-244 668.83,-182.98 655.53,-73.23 647.45,-29.61"/>
<polygon fill="midnightblue" stroke="midnightblue" points="650.84,-28.71 645.46,-19.58 643.97,-30.07 650.84,-28.71"/>
</g>
<!-- Node16 -->
<g id="node16" class="node">
<title>Node16</title>
<g id="a_node16"><a xlink:title=" ">
<polygon fill="white" stroke="#bfbfbf" points="374,-56.5 374,-75.5 453,-75.5 453,-56.5 374,-56.5"/>
<text text-anchor="middle" x="413.5" y="-63.5" font-family="Helvetica,sans-Serif" font-size="10.00">fmt/format.h</text>
</a>
</g>
</g>
<!-- Node3&#45;&gt;Node16 -->
<g id="edge24" class="edge">
<title>Node3&#45;&gt;Node16</title>
<path fill="none" stroke="midnightblue" d="M367.49,-283.66C310.32,-276.91 223.05,-263.73 196.5,-244 173.84,-227.16 173.37,-215.39 166.5,-188 146.72,-109.2 267.91,-168.48 340.5,-132 364.29,-120.04 386.35,-98.32 399.86,-83.29"/>
<polygon fill="midnightblue" stroke="midnightblue" points="402.51,-85.58 406.44,-75.74 397.23,-80.98 402.51,-85.58"/>
</g>
<!-- Node19 -->
<g id="node19" class="node">
<title>Node19</title>
<g id="a_node19"><a xlink:href="enum__formatter_8h.html" target="_top" xlink:title=" ">
<polygon fill="white" stroke="black" points="175.5,-168.5 175.5,-187.5 311.5,-187.5 311.5,-168.5 175.5,-168.5"/>
<text text-anchor="middle" x="243.5" y="-175.5" font-family="Helvetica,sans-Serif" font-size="10.00">ccf/ds/enum_formatter.h</text>
</a>
</g>
</g>
<!-- Node3&#45;&gt;Node19 -->
<g id="edge21" class="edge">
<title>Node3&#45;&gt;Node19</title>
<path fill="none" stroke="midnightblue" d="M367.4,-285.47C310.47,-280.4 224.64,-268.79 204.5,-244 191.71,-228.26 208.46,-207.91 223.81,-194.21"/>
<polygon fill="midnightblue" stroke="midnightblue" points="226.15,-196.82 231.55,-187.71 221.64,-191.46 226.15,-196.82"/>
</g>
<!-- Node20 -->
<g id="node20" class="node">
<title>Node20</title>
<g id="a_node20"><a xlink:title=" ">
<polygon fill="white" stroke="#bfbfbf" points="214,-224.5 214,-243.5 279,-243.5 279,-224.5 214,-224.5"/>
<text text-anchor="middle" x="246.5" y="-231.5" font-family="Helvetica,sans-Serif" font-size="10.00">stdexcept</text>
</a>
</g>
</g>
<!-- Node3&#45;&gt;Node20 -->
<g id="edge25" class="edge">
<title>Node3&#45;&gt;Node20</title>
<path fill="none" stroke="midnightblue" d="M392.09,-280.44C362.73,-271.28 315.98,-256.69 283.4,-246.52"/>
<polygon fill="midnightblue" stroke="midnightblue" points="284.37,-243.16 273.78,-243.52 282.29,-249.84 284.37,-243.16"/>
</g>
<!-- Node4&#45;&gt;Node5 -->
<g id="edge4" class="edge">
<title>Node4&#45;&gt;Node5</title>
<path fill="none" stroke="midnightblue" d="M376.31,-224.44C396.79,-215.6 428.98,-201.69 452.36,-191.59"/>
<polygon fill="midnightblue" stroke="midnightblue" points="453.99,-194.7 461.79,-187.52 451.22,-188.27 453.99,-194.7"/>
</g>
<!-- Node6 -->
<g id="node6" class="node">
<title>Node6</title>
<g id="a_node6"><a xlink:href="include_2ccf_2crypto_2base64_8h.html" target="_top" xlink:title=" ">
<polygon fill="white" stroke="black" points="484.5,-56.5 484.5,-75.5 596.5,-75.5 596.5,-56.5 484.5,-56.5"/>
<text text-anchor="middle" x="540.5" y="-63.5" font-family="Helvetica,sans-Serif" font-size="10.00">ccf/crypto/base64.h</text>
</a>
</g>
</g>
<!-- Node5&#45;&gt;Node6 -->
<g id="edge5" class="edge">
<title>Node5&#45;&gt;Node6</title>
<path fill="none" stroke="midnightblue" d="M492.73,-168.21C502.56,-159.91 516.49,-146.59 524.5,-132 532.45,-117.51 536.51,-99.07 538.54,-85.53"/>
<polygon fill="midnightblue" stroke="midnightblue" points="542.02,-85.87 539.81,-75.51 535.08,-84.98 542.02,-85.87"/>
</g>
<!-- Node9 -->
<g id="node9" class="node">
<title>Node9</title>
<g id="a_node9"><a xlink:href="include_2ccf_2ds_2json__schema_8h.html" target="_top" xlink:title=" ">
<polygon fill="white" stroke="black" points="211,-112.5 211,-131.5 332,-131.5 332,-112.5 211,-112.5"/>
<text text-anchor="middle" x="271.5" y="-119.5" font-family="Helvetica,sans-Serif" font-size="10.00">ccf/ds/json_schema.h</text>
</a>
</g>
</g>
<!-- Node5&#45;&gt;Node9 -->
<g id="edge8" class="edge">
<title>Node5&#45;&gt;Node9</title>
<path fill="none" stroke="midnightblue" d="M448.22,-168.44C412.05,-159.14 354.12,-144.25 314.52,-134.06"/>
<polygon fill="midnightblue" stroke="midnightblue" points="315.18,-130.62 304.62,-131.52 313.43,-137.4 315.18,-130.62"/>
</g>
<!-- Node5&#45;&gt;Node16 -->
<g id="edge19" class="edge">
<title>Node5&#45;&gt;Node16</title>
<path fill="none" stroke="midnightblue" d="M486.13,-168.36C492.45,-155.26 501.89,-129.99 491.5,-112 482.82,-96.98 467.01,-86.52 451.88,-79.5"/>
<polygon fill="midnightblue" stroke="midnightblue" points="453.19,-76.25 442.62,-75.56 450.45,-82.69 453.19,-76.25"/>
</g>
<!-- Node18 -->
<g id="node18" class="node">
<title>Node18</title>
<g id="a_node18"><a xlink:title=" ">
<polygon fill="white" stroke="#bfbfbf" points="426.5,-112.5 426.5,-131.5 482.5,-131.5 482.5,-112.5 426.5,-112.5"/>
<text text-anchor="middle" x="454.5" y="-119.5" font-family="Helvetica,sans-Serif" font-size="10.00">sstream</text>
</a>
</g>
</g>
<!-- Node5&#45;&gt;Node18 -->
<g id="edge20" class="edge">
<title>Node5&#45;&gt;Node18</title>
<path fill="none" stroke="midnightblue" d="M477.04,-168.08C473.35,-160.69 467.98,-149.95 463.41,-140.81"/>
<polygon fill="midnightblue" stroke="midnightblue" points="466.48,-139.13 458.88,-131.75 460.22,-142.26 466.48,-139.13"/>
</g>
<!-- Node6&#45;&gt;Node7 -->
<g id="edge6" class="edge">
<title>Node6&#45;&gt;Node7</title>
<path fill="none" stroke="midnightblue" d="M557.05,-56.32C573.49,-47.7 598.93,-34.36 617.97,-24.39"/>
<polygon fill="midnightblue" stroke="midnightblue" points="619.76,-27.4 626.99,-19.65 616.51,-21.2 619.76,-27.4"/>
</g>
<!-- Node6&#45;&gt;Node8 -->
<g id="edge7" class="edge">
<title>Node6&#45;&gt;Node8</title>
<path fill="none" stroke="midnightblue" d="M596.72,-60.85C741.35,-50.18 1123.04,-22.03 1238.76,-13.49"/>
<polygon fill="midnightblue" stroke="midnightblue" points="1239.09,-16.97 1248.81,-12.75 1238.58,-9.99 1239.09,-16.97"/>
</g>
<!-- Node10 -->
<g id="node10" class="node">
<title>Node10</title>
<g id="a_node10"><a xlink:href="nonstd_8h.html" target="_top" xlink:title=" ">
<polygon fill="white" stroke="black" points="99.5,-56.5 99.5,-75.5 189.5,-75.5 189.5,-56.5 99.5,-56.5"/>
<text text-anchor="middle" x="144.5" y="-63.5" font-family="Helvetica,sans-Serif" font-size="10.00">ccf/ds/nonstd.h</text>
</a>
</g>
</g>
<!-- Node9&#45;&gt;Node10 -->
<g id="edge9" class="edge">
<title>Node9&#45;&gt;Node10</title>
<path fill="none" stroke="midnightblue" d="M251.38,-112.44C230.48,-103.56 197.57,-89.56 173.78,-79.45"/>
<polygon fill="midnightblue" stroke="midnightblue" points="175.1,-76.21 164.53,-75.52 172.36,-82.65 175.1,-76.21"/>
</g>
<!-- Node9&#45;&gt;Node16 -->
<g id="edge17" class="edge">
<title>Node9&#45;&gt;Node16</title>
<path fill="none" stroke="midnightblue" d="M294,-112.44C317.58,-103.48 354.82,-89.31 381.46,-79.18"/>
<polygon fill="midnightblue" stroke="midnightblue" points="383,-82.34 391.1,-75.52 380.51,-75.8 383,-82.34"/>
</g>
<!-- Node17 -->
<g id="node17" class="node">
<title>Node17</title>
<g id="a_node17"><a xlink:title=" ">
<polygon fill="white" stroke="#bfbfbf" points="245.5,-56.5 245.5,-75.5 355.5,-75.5 355.5,-56.5 245.5,-56.5"/>
<text text-anchor="middle" x="300.5" y="-63.5" font-family="Helvetica,sans-Serif" font-size="10.00">nlohmann/json.hpp</text>
</a>
</g>
</g>
<!-- Node9&#45;&gt;Node17 -->
<g id="edge18" class="edge">
<title>Node9&#45;&gt;Node17</title>
<path fill="none" stroke="midnightblue" d="M276.29,-112.08C280.26,-104.69 286.03,-93.95 290.93,-84.81"/>
<polygon fill="midnightblue" stroke="midnightblue" points="294.15,-86.22 295.8,-75.75 287.99,-82.91 294.15,-86.22"/>
</g>
<!-- Node10&#45;&gt;Node7 -->
<g id="edge13" class="edge">
<title>Node10&#45;&gt;Node7</title>
<path fill="none" stroke="midnightblue" d="M189.57,-57.89C194.27,-57.22 198.98,-56.58 203.5,-56 355.65,-36.63 538.24,-20.09 611.14,-13.76"/>
<polygon fill="midnightblue" stroke="midnightblue" points="611.82,-17.21 621.48,-12.86 611.22,-10.24 611.82,-17.21"/>
</g>
<!-- Node10&#45;&gt;Node8 -->
<g id="edge16" class="edge">
<title>Node10&#45;&gt;Node8</title>
<path fill="none" stroke="midnightblue" d="M189.85,-60.07C204.7,-58.59 221.29,-57.07 236.5,-56 629.95,-28.23 1108.75,-15.03 1238.64,-11.8"/>
<polygon fill="midnightblue" stroke="midnightblue" points="1238.85,-15.3 1248.76,-11.56 1238.67,-8.3 1238.85,-15.3"/>
</g>
<!-- Node11 -->
<g id="node11" class="node">
<title>Node11</title>
<g id="a_node11"><a xlink:title=" ">
<polygon fill="white" stroke="#bfbfbf" points="306.5,-0.5 306.5,-19.5 370.5,-19.5 370.5,-0.5 306.5,-0.5"/>
<text text-anchor="middle" x="338.5" y="-7.5" font-family="Helvetica,sans-Serif" font-size="10.00">algorithm</text>
</a>
</g>
</g>
<!-- Node10&#45;&gt;Node11 -->
<g id="edge10" class="edge">
<title>Node10&#45;&gt;Node11</title>
<path fill="none" stroke="midnightblue" d="M175.24,-56.44C208.44,-47.2 261.49,-32.44 298.06,-22.26"/>
<polygon fill="midnightblue" stroke="midnightblue" points="299.21,-25.57 307.9,-19.52 297.33,-18.83 299.21,-25.57"/>
</g>
<!-- Node12 -->
<g id="node12" class="node">
<title>Node12</title>
<g id="a_node12"><a xlink:title=" ">
<polygon fill="white" stroke="#bfbfbf" points="91.5,-0.5 91.5,-19.5 133.5,-19.5 133.5,-0.5 91.5,-0.5"/>
<text text-anchor="middle" x="112.5" y="-7.5" font-family="Helvetica,sans-Serif" font-size="10.00">array</text>
</a>
</g>
</g>
<!-- Node10&#45;&gt;Node12 -->
<g id="edge11" class="edge">
<title>Node10&#45;&gt;Node12</title>
<path fill="none" stroke="midnightblue" d="M139.22,-56.08C134.79,-48.61 128.34,-37.72 122.88,-28.52"/>
<polygon fill="midnightblue" stroke="midnightblue" points="125.79,-26.57 117.69,-19.75 119.77,-30.14 125.79,-26.57"/>
</g>
<!-- Node13 -->
<g id="node13" class="node">
<title>Node13</title>
<g id="a_node13"><a xlink:title=" ">
<polygon fill="white" stroke="#bfbfbf" points="152,-0.5 152,-19.5 201,-19.5 201,-0.5 152,-0.5"/>
<text text-anchor="middle" x="176.5" y="-7.5" font-family="Helvetica,sans-Serif" font-size="10.00">cctype</text>
</a>
</g>
</g>
<!-- Node10&#45;&gt;Node13 -->
<g id="edge12" class="edge">
<title>Node10&#45;&gt;Node13</title>
<path fill="none" stroke="midnightblue" d="M149.78,-56.08C154.21,-48.61 160.66,-37.72 166.12,-28.52"/>
<polygon fill="midnightblue" stroke="midnightblue" points="169.23,-30.14 171.31,-19.75 163.21,-26.57 169.23,-30.14"/>
</g>
<!-- Node14 -->
<g id="node14" class="node">
<title>Node14</title>
<g id="a_node14"><a xlink:title=" ">
<polygon fill="white" stroke="#bfbfbf" points="0,-0.5 0,-19.5 73,-19.5 73,-0.5 0,-0.5"/>
<text text-anchor="middle" x="36.5" y="-7.5" font-family="Helvetica,sans-Serif" font-size="10.00">string_view</text>
</a>
</g>
</g>
<!-- Node10&#45;&gt;Node14 -->
<g id="edge14" class="edge">
<title>Node10&#45;&gt;Node14</title>
<path fill="none" stroke="midnightblue" d="M127.15,-56.32C109.83,-47.66 82.98,-34.24 63,-24.25"/>
<polygon fill="midnightblue" stroke="midnightblue" points="64.32,-21 53.81,-19.65 61.19,-27.26 64.32,-21"/>
</g>
<!-- Node15 -->
<g id="node15" class="node">
<title>Node15</title>
<g id="a_node15"><a xlink:title=" ">
<polygon fill="white" stroke="#bfbfbf" points="219,-0.5 219,-19.5 288,-19.5 288,-0.5 219,-0.5"/>
<text text-anchor="middle" x="253.5" y="-7.5" font-family="Helvetica,sans-Serif" font-size="10.00">type_traits</text>
</a>
</g>
</g>
<!-- Node10&#45;&gt;Node15 -->
<g id="edge15" class="edge">
<title>Node10&#45;&gt;Node15</title>
<path fill="none" stroke="midnightblue" d="M162.01,-56.32C179.57,-47.62 206.83,-34.12 227.03,-24.11"/>
<polygon fill="midnightblue" stroke="midnightblue" points="228.62,-27.23 236.03,-19.65 225.52,-20.96 228.62,-27.23"/>
</g>
<!-- Node19&#45;&gt;Node16 -->
<g id="edge22" class="edge">
<title>Node19&#45;&gt;Node16</title>
<path fill="none" stroke="midnightblue" d="M293.27,-168.49C319.61,-162 351.23,-150.84 374.5,-132 389.64,-119.74 400.32,-99.92 406.62,-85.38"/>
<polygon fill="midnightblue" stroke="midnightblue" points="409.95,-86.5 410.45,-75.92 403.46,-83.88 409.95,-86.5"/>
</g>
<!-- Node21&#45;&gt;Node5 -->
<g id="edge28" class="edge">
<title>Node21&#45;&gt;Node5</title>
<path fill="none" stroke="midnightblue" d="M890.26,-281.99C839.56,-274.35 758.46,-260.91 689.5,-244 627.04,-228.68 555.82,-205.05 515.01,-190.9"/>
<polygon fill="midnightblue" stroke="midnightblue" points="516.16,-187.59 505.56,-187.6 513.85,-194.2 516.16,-187.59"/>
</g>
<!-- Node21&#45;&gt;Node8 -->
<g id="edge34" class="edge">
<title>Node21&#45;&gt;Node8</title>
<path fill="none" stroke="midnightblue" d="M949.83,-280.38C997.13,-240.89 1193.28,-77.13 1254.3,-26.19"/>
<polygon fill="midnightblue" stroke="midnightblue" points="1256.86,-28.62 1262.29,-19.52 1252.37,-23.25 1256.86,-28.62"/>
</g>
<!-- Node21&#45;&gt;Node14 -->
<g id="edge33" class="edge">
<title>Node21&#45;&gt;Node14</title>
<path fill="none" stroke="midnightblue" d="M890.21,-286.43C808.77,-281.63 641.2,-269.4 501.5,-244 467.14,-237.75 459.75,-230.86 425.5,-224 311.55,-201.17 266.32,-247.52 166.5,-188 102.12,-149.61 59.96,-65.8 43.85,-28.97"/>
<polygon fill="midnightblue" stroke="midnightblue" points="46.97,-27.37 39.85,-19.52 40.53,-30.1 46.97,-27.37"/>
</g>
<!-- Node22 -->
<g id="node22" class="node">
<title>Node22</title>
<g id="a_node22"><a xlink:title=" ">
<polygon fill="white" stroke="#bfbfbf" points="698.5,-224.5 698.5,-243.5 748.5,-243.5 748.5,-224.5 698.5,-224.5"/>
<text text-anchor="middle" x="723.5" y="-231.5" font-family="Helvetica,sans-Serif" font-size="10.00">cstring</text>
</a>
</g>
</g>
<!-- Node21&#45;&gt;Node22 -->
<g id="edge29" class="edge">
<title>Node21&#45;&gt;Node22</title>
<path fill="none" stroke="midnightblue" d="M904.78,-280.46C868.33,-271.46 809.36,-256.86 758.5,-244 758.4,-243.98 758.3,-243.95 758.2,-243.92"/>
<polygon fill="midnightblue" stroke="midnightblue" points="759.28,-240.59 748.73,-241.51 757.56,-247.37 759.28,-240.59"/>
</g>
<!-- Node23 -->
<g id="node23" class="node">
<title>Node23</title>
<g id="a_node23"><a xlink:title=" ">
<polygon fill="white" stroke="#bfbfbf" points="767,-224.5 767,-243.5 832,-243.5 832,-224.5 767,-224.5"/>
<text text-anchor="middle" x="799.5" y="-231.5" font-family="Helvetica,sans-Serif" font-size="10.00">exception</text>
</a>
</g>
</g>
<!-- Node21&#45;&gt;Node23 -->
<g id="edge30" class="edge">
<title>Node21&#45;&gt;Node23</title>
<path fill="none" stroke="midnightblue" d="M917.32,-280.44C894.07,-271.48 857.35,-257.31 831.08,-247.18"/>
<polygon fill="midnightblue" stroke="midnightblue" points="832.17,-243.85 821.58,-243.52 829.65,-250.38 832.17,-243.85"/>
</g>
<!-- Node24 -->
<g id="node24" class="node">
<title>Node24</title>
<g id="a_node24"><a xlink:title=" ">
<polygon fill="white" stroke="#bfbfbf" points="850.5,-224.5 850.5,-243.5 908.5,-243.5 908.5,-224.5 850.5,-224.5"/>
<text text-anchor="middle" x="879.5" y="-231.5" font-family="Helvetica,sans-Serif" font-size="10.00">memory</text>
</a>
</g>
</g>
<!-- Node21&#45;&gt;Node24 -->
<g id="edge31" class="edge">
<title>Node21&#45;&gt;Node24</title>
<path fill="none" stroke="midnightblue" d="M929.86,-280.32C920.99,-272.34 907.63,-260.31 896.89,-250.65"/>
<polygon fill="midnightblue" stroke="midnightblue" points="899.09,-247.92 889.32,-243.83 894.41,-253.13 899.09,-247.92"/>
</g>
<!-- Node25 -->
<g id="node25" class="node">
<title>Node25</title>
<g id="a_node25"><a xlink:title=" ">
<polygon fill="white" stroke="#bfbfbf" points="926.5,-224.5 926.5,-243.5 966.5,-243.5 966.5,-224.5 926.5,-224.5"/>
<text text-anchor="middle" x="946.5" y="-231.5" font-family="Helvetica,sans-Serif" font-size="10.00">span</text>
</a>
</g>
</g>
<!-- Node21&#45;&gt;Node25 -->
<g id="edge32" class="edge">
<title>Node21&#45;&gt;Node25</title>
<path fill="none" stroke="midnightblue" d="M940.66,-280.08C941.58,-272.93 942.92,-262.64 944.08,-253.69"/>
<polygon fill="midnightblue" stroke="midnightblue" points="947.55,-254.12 945.37,-243.75 940.61,-253.22 947.55,-254.12"/>
</g>
<!-- Node26&#45;&gt;Node3 -->
<g id="edge36" class="edge">
<title>Node26&#45;&gt;Node3</title>
<path fill="none" stroke="midnightblue" d="M1005.99,-344.69C881.24,-333.27 605.59,-308.03 481.81,-296.7"/>
<polygon fill="midnightblue" stroke="midnightblue" points="482.02,-293.21 471.74,-295.78 481.38,-300.18 482.02,-293.21"/>
</g>
<!-- Node26&#45;&gt;Node7 -->
<g id="edge47" class="edge">
<title>Node26&#45;&gt;Node7</title>
<path fill="none" stroke="midnightblue" d="M1069.63,-341.81C1069.9,-322.56 1070.5,-274.91 1070.5,-235 1070.5,-235 1070.5,-235 1070.5,-121 1070.5,-90.2 1070.75,-74.98 1046.5,-56 989.08,-11.06 760.73,-9.38 675.66,-10.38"/>
<polygon fill="midnightblue" stroke="midnightblue" points="675.51,-6.88 665.56,-10.52 675.6,-13.88 675.51,-6.88"/>
</g>
<!-- Node26&#45;&gt;Node8 -->
<g id="edge48" class="edge">
<title>Node26&#45;&gt;Node8</title>
<path fill="none" stroke="midnightblue" d="M1081.23,-341.79C1124.37,-309.68 1272.01,-199.25 1277.5,-188 1303.17,-135.37 1287.87,-63.08 1278.36,-29.51"/>
<polygon fill="midnightblue" stroke="midnightblue" points="1281.64,-28.27 1275.42,-19.7 1274.94,-30.28 1281.64,-28.27"/>
</g>
<!-- Node26&#45;&gt;Node21 -->
<g id="edge39" class="edge">
<title>Node26&#45;&gt;Node21</title>
<path fill="none" stroke="midnightblue" d="M1050.87,-341.98C1029.06,-331.99 992.7,-315.35 967.48,-303.81"/>
<polygon fill="midnightblue" stroke="midnightblue" points="968.64,-300.49 958.09,-299.51 965.73,-306.85 968.64,-300.49"/>
</g>
<!-- Node27 -->
<g id="node27" class="node">
<title>Node27</title>
<g id="a_node27"><a xlink:href="hash__bytes_8h.html" target="_top" xlink:title=" ">
<polygon fill="white" stroke="black" points="1136.5,-168.5 1136.5,-187.5 1268.5,-187.5 1268.5,-168.5 1136.5,-168.5"/>
<text text-anchor="middle" x="1202.5" y="-175.5" font-family="Helvetica,sans-Serif" font-size="10.00">ccf/crypto/hash_bytes.h</text>
</a>
</g>
</g>
<!-- Node26&#45;&gt;Node27 -->
<g id="edge37" class="edge">
<title>Node26&#45;&gt;Node27</title>
<path fill="none" stroke="midnightblue" d="M1076.28,-341.76C1097.36,-314.58 1162.01,-231.21 1189.7,-195.51"/>
<polygon fill="midnightblue" stroke="midnightblue" points="1192.53,-197.57 1195.89,-187.52 1187,-193.28 1192.53,-197.57"/>
</g>
<!-- Node26&#45;&gt;Node28 -->
<g id="edge40" class="edge">
<title>Node26&#45;&gt;Node28</title>
<path fill="none" stroke="midnightblue" d="M1030,-341.99C991.53,-333.21 931.68,-318.25 881.5,-300 861.69,-292.79 858.65,-286.17 838.5,-280 833.16,-278.37 695.25,-256.6 614.66,-243.95"/>
<polygon fill="midnightblue" stroke="midnightblue" points="615.07,-240.47 604.64,-242.38 613.98,-247.39 615.07,-240.47"/>
</g>
<!-- Node26&#45;&gt;Node29 -->
<g id="edge45" class="edge">
<title>Node26&#45;&gt;Node29</title>
<path fill="none" stroke="midnightblue" d="M1088.13,-341.98C1109.94,-331.99 1146.3,-315.35 1171.52,-303.81"/>
<polygon fill="midnightblue" stroke="midnightblue" points="1173.27,-306.85 1180.91,-299.51 1170.36,-300.49 1173.27,-306.85"/>
</g>
<!-- Node26&#45;&gt;Node30 -->
<g id="edge46" class="edge">
<title>Node26&#45;&gt;Node30</title>
<path fill="none" stroke="midnightblue" d="M1110.48,-341.98C1165.76,-330.47 1263.5,-310.14 1317.31,-298.95"/>
<polygon fill="midnightblue" stroke="midnightblue" points="1318.07,-302.36 1327.14,-296.9 1316.64,-295.51 1318.07,-302.36"/>
</g>
<!-- Node27&#45;&gt;Node8 -->
<g id="edge38" class="edge">
<title>Node27&#45;&gt;Node8</title>
<path fill="none" stroke="midnightblue" d="M1206.26,-168.08C1217.33,-141.83 1249.92,-64.55 1264.86,-29.12"/>
<polygon fill="midnightblue" stroke="midnightblue" points="1268.23,-30.14 1268.89,-19.57 1261.78,-27.42 1268.23,-30.14"/>
</g>
<!-- Node28&#45;&gt;Node5 -->
<g id="edge41" class="edge">
<title>Node28&#45;&gt;Node5</title>
<path fill="none" stroke="midnightblue" d="M545.29,-224.32C533.72,-216.11 516.12,-203.6 502.34,-193.81"/>
<polygon fill="midnightblue" stroke="midnightblue" points="504.11,-190.77 493.93,-187.83 500.06,-196.48 504.11,-190.77"/>
</g>
<!-- Node28&#45;&gt;Node7 -->
<g id="edge44" class="edge">
<title>Node28&#45;&gt;Node7</title>
<path fill="none" stroke="midnightblue" d="M560.87,-224.3C573.58,-191.49 618.75,-74.88 636.38,-29.38"/>
<polygon fill="midnightblue" stroke="midnightblue" points="639.71,-30.47 640.06,-19.88 633.18,-27.94 639.71,-30.47"/>
</g>
<!-- Node28&#45;&gt;Node10 -->
<g id="edge42" class="edge">
<title>Node28&#45;&gt;Node10</title>
<path fill="none" stroke="midnightblue" d="M526.62,-224.49C441.39,-200.96 208.59,-136.48 201.5,-132 182.14,-119.76 165.61,-99.02 155.41,-84.26"/>
<polygon fill="midnightblue" stroke="midnightblue" points="158.1,-81.98 149.66,-75.58 152.26,-85.85 158.1,-81.98"/>
</g>
<!-- Node28&#45;&gt;Node16 -->
<g id="edge43" class="edge">
<title>Node28&#45;&gt;Node16</title>
<path fill="none" stroke="midnightblue" d="M556.1,-224.22C552.2,-202.51 539.38,-145.67 507.5,-112 493.16,-96.85 472.67,-86.22 454.48,-79.11"/>
<polygon fill="midnightblue" stroke="midnightblue" points="455.54,-75.77 444.95,-75.62 453.13,-82.35 455.54,-75.77"/>
</g>
<!-- Node31&#45;&gt;Node7 -->
<g id="edge59" class="edge">
<title>Node31&#45;&gt;Node7</title>
<path fill="none" stroke="midnightblue" d="M1277.15,-336.3C1267.15,-321.56 1250.41,-298.15 1233.5,-280 1190.96,-234.37 1164.66,-238.1 1127.5,-188 1089.22,-136.39 1120.5,-93.75 1068.5,-56 1005.96,-10.6 763.79,-9.29 675.74,-10.38"/>
<polygon fill="midnightblue" stroke="midnightblue" points="675.5,-6.88 665.55,-10.52 675.6,-13.88 675.5,-6.88"/>
</g>
<!-- Node31&#45;&gt;Node8 -->
<g id="edge60" class="edge">
<title>Node31&#45;&gt;Node8</title>
<path fill="none" stroke="midnightblue" d="M1291.69,-336.44C1306.88,-293.07 1347.86,-158.13 1310.5,-56 1306.44,-44.91 1298.31,-34.67 1290.61,-26.76"/>
<polygon fill="midnightblue" stroke="midnightblue" points="1292.86,-24.07 1283.21,-19.7 1288.03,-29.14 1292.86,-24.07"/>
</g>
<!-- Node31&#45;&gt;Node21 -->
<g id="edge56" class="edge">
<title>Node31&#45;&gt;Node21</title>
<path fill="none" stroke="midnightblue" d="M1227.64,-340.41C1163.76,-329.45 1062.37,-312.07 998.46,-301.11"/>
<polygon fill="midnightblue" stroke="midnightblue" points="998.99,-297.65 988.54,-299.41 997.8,-304.55 998.99,-297.65"/>
</g>
<!-- Node31&#45;&gt;Node29 -->
<g id="edge57" class="edge">
<title>Node31&#45;&gt;Node29</title>
<path fill="none" stroke="midnightblue" d="M1265.88,-336.4C1252.2,-327.04 1234.29,-314.79 1220.52,-305.38"/>
<polygon fill="midnightblue" stroke="midnightblue" points="1222.39,-302.41 1212.16,-299.66 1218.44,-308.19 1222.39,-302.41"/>
</g>
<!-- Node31&#45;&gt;Node30 -->
<g id="edge58" class="edge">
<title>Node31&#45;&gt;Node30</title>
<path fill="none" stroke="midnightblue" d="M1302.85,-336.4C1313.4,-327.31 1327.1,-315.49 1337.88,-306.19"/>
<polygon fill="midnightblue" stroke="midnightblue" points="1340.17,-308.84 1345.46,-299.66 1335.6,-303.54 1340.17,-308.84"/>
</g>
</g>
</svg>
        <g id="navigator" transform="translate(0 0)" fill="#404254">
                <rect fill="#f2f5e9" fill-opacity="0.5" stroke="#606060" stroke-width=".5" x="0" y="0" width="60" height="60"/>
                <use id="zoomplus" xlink:href="#zoomPlus" x="17" y="9" onmousedown="handleZoom(evt,'in')"/>
                <use id="zoomminus" xlink:href="#zoomMin" x="42" y="9" onmousedown="handleZoom(evt,'out')"/>
                <use id="reset" xlink:href="#resetDef" x="30" y="36" onmousedown="handleReset()"/>
                <g id="arrowUp" xlink:href="#dirArrow" transform="translate(30 24)" onmousedown="handlePan(0,-1)">
                  <use xlink:href="#rim" fill="#404040">
                        <set attributeName="fill" to="#808080" begin="arrowUp.mouseover" end="arrowUp.mouseout"/>
                  </use>
                  <path fill="none" stroke="white" stroke-width="1.5" d="M0,-3.0v7 M-2.5,-0.5L0,-3.0L2.5,-0.5"/>
                </g>
                <g id="arrowRight" xlink:href="#dirArrow" transform="rotate(90) translate(36 -43)" onmousedown="handlePan(1,0)">
                  <use xlink:href="#rim" fill="#404040">
                        <set attributeName="fill" to="#808080" begin="arrowRight.mouseover" end="arrowRight.mouseout"/>
                  </use>
                  <path fill="none" stroke="white" stroke-width="1.5" d="M0,-3.0v7 M-2.5,-0.5L0,-3.0L2.5,-0.5"/>
                </g>
                <g id="arrowDown" xlink:href="#dirArrow" transform="rotate(180) translate(-30 -48)" onmousedown="handlePan(0,1)">
                  <use xlink:href="#rim" fill="#404040">
                        <set attributeName="fill" to="#808080" begin="arrowDown.mouseover" end="arrowDown.mouseout"/>
                  </use>
                  <path fill="none" stroke="white" stroke-width="1.5" d="M0,-3.0v7 M-2.5,-0.5L0,-3.0L2.5,-0.5"/>
                </g>
                <g id="arrowLeft" xlink:href="#dirArrow" transform="rotate(270) translate(-36 17)" onmousedown="handlePan(-1,0)">
                  <use xlink:href="#rim" fill="#404040">
                        <set attributeName="fill" to="#808080" begin="arrowLeft.mouseover" end="arrowLeft.mouseout"/>
                  </use>
                  <path fill="none" stroke="white" stroke-width="1.5" d="M0,-3.0v7 M-2.5,-0.5L0,-3.0L2.5,-0.5"/>
                </g>
        </g>
        <svg viewBox="0 0 15 15" width="100%" height="30px" preserveAspectRatio="xMaxYMin meet">
         <g id="arrow_out" transform="scale(0.3 0.3)">
          <a xlink:href="include_2ccf_2crypto_2rsa__key__pair_8h__incl_org.svg" target="_base">
           <rect id="button" ry="5" rx="5" y="6" x="6" height="38" width="38"
                fill="#f2f5e9" fill-opacity="0.5" stroke="#606060" stroke-width="1.0"/>
           <path id="arrow"
             d="M 11.500037,31.436501 C 11.940474,20.09759 22.043105,11.32322 32.158766,21.979434 L 37.068811,17.246167 C 37.068811,17.246167 37.088388,32 37.088388,32 L 22.160133,31.978069 C 22.160133,31.978069 26.997745,27.140456 26.997745,27.140456 C 18.528582,18.264221 13.291696,25.230495 11.500037,31.436501 z"
             style="fill:#404040;"/>
          </a>
         </g>
        </svg>
</svg>
