<?xml version="1.0" encoding="UTF-8" standalone="no"?>
<!DOCTYPE svg PUBLIC "-//W3C//DTD SVG 1.1//EN"
 "http://www.w3.org/Graphics/SVG/1.1/DTD/svg11.dtd">
<!-- Generated by graphviz version 2.43.0 (0)
 -->
<!-- Title: include/ccf/crypto/rsa_public_key.h Pages: 1 -->
<svg width="1487pt" height="475pt"
 viewBox="0.00 0.00 1486.50 475.00" xmlns="http://www.w3.org/2000/svg" xmlns:xlink="http://www.w3.org/1999/xlink">
<g id="graph0" class="graph" transform="scale(1 1) rotate(0) translate(4 471)">
<title>include/ccf/crypto/rsa_public_key.h</title>
<polygon fill="white" stroke="transparent" points="-4,4 -4,-471 1482.5,-471 1482.5,4 -4,4"/>
<!-- Node1 -->
<g id="node1" class="node">
<title>Node1</title>
<g id="a_node1"><a xlink:title=" ">
<polygon fill="#bfbfbf" stroke="black" points="984.5,-436.5 984.5,-466.5 1087.5,-466.5 1087.5,-436.5 984.5,-436.5"/>
<text text-anchor="start" x="992.5" y="-454.5" font-family="Helvetica,sans-Serif" font-size="10.00">include/ccf/crypto</text>
<text text-anchor="middle" x="1036" y="-443.5" font-family="Helvetica,sans-Serif" font-size="10.00">/rsa_public_key.h</text>
</a>
</g>
</g>
<!-- Node2 -->
<g id="node2" class="node">
<title>Node2</title>
<g id="a_node2"><a xlink:href="include_2ccf_2crypto_2rsa__key__pair_8h.html" target="_top" xlink:title=" ">
<polygon fill="white" stroke="black" points="596.5,-369.5 596.5,-399.5 699.5,-399.5 699.5,-369.5 596.5,-369.5"/>
<text text-anchor="start" x="604.5" y="-387.5" font-family="Helvetica,sans-Serif" font-size="10.00">include/ccf/crypto</text>
<text text-anchor="middle" x="648" y="-376.5" font-family="Helvetica,sans-Serif" font-size="10.00">/rsa_key_pair.h</text>
</a>
</g>
</g>
<!-- Node1&#45;&gt;Node2 -->
<g id="edge1" class="edge">
<title>Node1&#45;&gt;Node2</title>
<path fill="none" stroke="midnightblue" d="M974.58,-440.21C898.68,-427.49 770.87,-406.08 699.74,-394.17"/>
<polygon fill="midnightblue" stroke="midnightblue" points="974.04,-443.67 984.48,-441.87 975.19,-436.76 974.04,-443.67"/>
</g>
<!-- Node16 -->
<g id="node16" class="node">
<title>Node16</title>
<g id="a_node16"><a xlink:href="src_2crypto_2openssl_2rsa__key__pair_8h.html" target="_top" xlink:title=" ">
<polygon fill="white" stroke="black" points="1064.5,-302.5 1064.5,-332.5 1169.5,-332.5 1169.5,-302.5 1064.5,-302.5"/>
<text text-anchor="start" x="1072.5" y="-320.5" font-family="Helvetica,sans-Serif" font-size="10.00">src/crypto/openssl</text>
<text text-anchor="middle" x="1117" y="-309.5" font-family="Helvetica,sans-Serif" font-size="10.00">/rsa_key_pair.h</text>
</a>
</g>
</g>
<!-- Node1&#45;&gt;Node16 -->
<g id="edge32" class="edge">
<title>Node1&#45;&gt;Node16</title>
<path fill="none" stroke="midnightblue" d="M1067.9,-430.32C1078.57,-422.11 1089.62,-411.77 1097,-400 1110.23,-378.89 1114.71,-349.62 1116.23,-332.51"/>
<polygon fill="midnightblue" stroke="midnightblue" points="1065.52,-427.72 1059.49,-436.43 1069.64,-433.38 1065.52,-427.72"/>
</g>
<!-- Node24 -->
<g id="node24" class="node">
<title>Node24</title>
<g id="a_node24"><a xlink:href="src_2crypto_2openssl_2rsa__public__key_8h.html" target="_top" xlink:title=" ">
<polygon fill="white" stroke="black" points="983.5,-369.5 983.5,-399.5 1088.5,-399.5 1088.5,-369.5 983.5,-369.5"/>
<text text-anchor="start" x="991.5" y="-387.5" font-family="Helvetica,sans-Serif" font-size="10.00">src/crypto/openssl</text>
<text text-anchor="middle" x="1036" y="-376.5" font-family="Helvetica,sans-Serif" font-size="10.00">/rsa_public_key.h</text>
</a>
</g>
</g>
<!-- Node1&#45;&gt;Node24 -->
<g id="edge33" class="edge">
<title>Node1&#45;&gt;Node24</title>
<path fill="none" stroke="midnightblue" d="M1036,-426.11C1036,-417.15 1036,-407.32 1036,-399.58"/>
<polygon fill="midnightblue" stroke="midnightblue" points="1032.5,-426.4 1036,-436.4 1039.5,-426.4 1032.5,-426.4"/>
</g>
<!-- Node3 -->
<g id="node3" class="node">
<title>Node3</title>
<g id="a_node3"><a xlink:href="key__wrap_8h.html" target="_top" xlink:title=" ">
<polygon fill="white" stroke="black" points="365.5,-302.5 365.5,-332.5 468.5,-332.5 468.5,-302.5 365.5,-302.5"/>
<text text-anchor="start" x="373.5" y="-320.5" font-family="Helvetica,sans-Serif" font-size="10.00">include/ccf/crypto</text>
<text text-anchor="middle" x="417" y="-309.5" font-family="Helvetica,sans-Serif" font-size="10.00">/key_wrap.h</text>
</a>
</g>
</g>
<!-- Node2&#45;&gt;Node3 -->
<g id="edge2" class="edge">
<title>Node2&#45;&gt;Node3</title>
<path fill="none" stroke="midnightblue" d="M588.35,-366.71C550.76,-356.14 502.77,-342.63 467.15,-332.61"/>
<polygon fill="midnightblue" stroke="midnightblue" points="587.59,-370.14 598.16,-369.48 589.48,-363.4 587.59,-370.14"/>
</g>
<!-- Node4 -->
<g id="node4" class="node">
<title>Node4</title>
<g id="a_node4"><a xlink:href="js__generic__base_8cpp.html" target="_top" xlink:title=" ">
<polygon fill="white" stroke="black" points="438,-235.5 438,-265.5 556,-265.5 556,-235.5 438,-235.5"/>
<text text-anchor="start" x="446" y="-253.5" font-family="Helvetica,sans-Serif" font-size="10.00">src/apps/js_generic</text>
<text text-anchor="middle" x="497" y="-242.5" font-family="Helvetica,sans-Serif" font-size="10.00">/js_generic_base.cpp</text>
</a>
</g>
</g>
<!-- Node2&#45;&gt;Node4 -->
<g id="edge15" class="edge">
<title>Node2&#45;&gt;Node4</title>
<path fill="none" stroke="midnightblue" d="M586.32,-373.05C561.21,-365.8 533.94,-353.57 516,-333 499.48,-314.06 496.61,-283.5 496.49,-265.67"/>
<polygon fill="midnightblue" stroke="midnightblue" points="585.61,-376.48 596.17,-375.68 587.42,-369.72 585.61,-376.48"/>
</g>
<!-- Node5 -->
<g id="node5" class="node">
<title>Node5</title>
<g id="a_node5"><a xlink:href="js__v8__base_8cpp.html" target="_top" xlink:title=" ">
<polygon fill="white" stroke="black" points="574,-235.5 574,-265.5 688,-265.5 688,-235.5 574,-235.5"/>
<text text-anchor="start" x="582" y="-253.5" font-family="Helvetica,sans-Serif" font-size="10.00">src/apps/js_v8/js_v8</text>
<text text-anchor="middle" x="631" y="-242.5" font-family="Helvetica,sans-Serif" font-size="10.00">_base.cpp</text>
</a>
</g>
</g>
<!-- Node2&#45;&gt;Node5 -->
<g id="edge16" class="edge">
<title>Node2&#45;&gt;Node5</title>
<path fill="none" stroke="midnightblue" d="M709.5,-370.79C756.17,-358.19 808.47,-335.84 784,-302 777.79,-293.41 725.35,-277.3 683.57,-265.58"/>
<polygon fill="midnightblue" stroke="midnightblue" points="708.47,-367.44 699.66,-373.33 710.22,-374.22 708.47,-367.44"/>
</g>
<!-- Node6 -->
<g id="node6" class="node">
<title>Node6</title>
<g id="a_node6"><a xlink:href="ccf__global_8cpp.html" target="_top" xlink:title=" ">
<polygon fill="white" stroke="black" points="706.5,-235.5 706.5,-265.5 817.5,-265.5 817.5,-235.5 706.5,-235.5"/>
<text text-anchor="start" x="714.5" y="-253.5" font-family="Helvetica,sans-Serif" font-size="10.00">src/apps/js_v8/tmpl</text>
<text text-anchor="middle" x="762" y="-242.5" font-family="Helvetica,sans-Serif" font-size="10.00">/ccf_global.cpp</text>
</a>
</g>
</g>
<!-- Node2&#45;&gt;Node6 -->
<g id="edge17" class="edge">
<title>Node2&#45;&gt;Node6</title>
<path fill="none" stroke="midnightblue" d="M709.68,-380.04C742.77,-374.66 780.98,-362.01 802,-333 817.72,-311.3 794.92,-282.48 777.83,-265.57"/>
<polygon fill="midnightblue" stroke="midnightblue" points="708.99,-376.6 699.59,-381.49 709.99,-383.53 708.99,-376.6"/>
</g>
<!-- Node7 -->
<g id="node7" class="node">
<title>Node7</title>
<g id="a_node7"><a xlink:href="key__wrap_8cpp.html" target="_top" xlink:title=" ">
<polygon fill="white" stroke="black" points="0,-241 0,-260 134,-260 134,-241 0,-241"/>
<text text-anchor="middle" x="67" y="-248" font-family="Helvetica,sans-Serif" font-size="10.00">src/crypto/key_wrap.cpp</text>
</a>
</g>
</g>
<!-- Node2&#45;&gt;Node7 -->
<g id="edge19" class="edge">
<title>Node2&#45;&gt;Node7</title>
<path fill="none" stroke="midnightblue" d="M586.03,-379.9C510.58,-374.45 379.74,-361.53 271,-333 199.25,-314.17 118.77,-276.91 84.24,-260.09"/>
<polygon fill="midnightblue" stroke="midnightblue" points="586.08,-383.41 596.3,-380.62 586.57,-376.43 586.08,-383.41"/>
</g>
<!-- Node8 -->
<g id="node8" class="node">
<title>Node8</title>
<g id="a_node8"><a xlink:href="js_2crypto_8cpp.html" target="_top" xlink:title=" ">
<polygon fill="white" stroke="black" points="152,-241 152,-260 248,-260 248,-241 152,-241"/>
<text text-anchor="middle" x="200" y="-248" font-family="Helvetica,sans-Serif" font-size="10.00">src/js/crypto.cpp</text>
</a>
</g>
</g>
<!-- Node2&#45;&gt;Node8 -->
<g id="edge26" class="edge">
<title>Node2&#45;&gt;Node8</title>
<path fill="none" stroke="midnightblue" d="M586.04,-380.17C522.22,-375.2 420.68,-362.95 338,-333 286.98,-314.52 233.62,-276.91 211.08,-260.03"/>
<polygon fill="midnightblue" stroke="midnightblue" points="586.1,-383.69 596.34,-380.94 586.62,-376.71 586.1,-383.69"/>
</g>
<!-- Node10 -->
<g id="node10" class="node">
<title>Node10</title>
<g id="a_node10"><a xlink:href="secret__broadcast_8h.html" target="_top" xlink:title=" ">
<polygon fill="white" stroke="black" points="266.5,-241 266.5,-260 419.5,-260 419.5,-241 266.5,-241"/>
<text text-anchor="middle" x="343" y="-248" font-family="Helvetica,sans-Serif" font-size="10.00">src/node/secret_broadcast.h</text>
</a>
</g>
</g>
<!-- Node2&#45;&gt;Node10 -->
<g id="edge27" class="edge">
<title>Node2&#45;&gt;Node10</title>
<path fill="none" stroke="midnightblue" d="M585.82,-381.01C509.77,-376.61 387.28,-364.69 356,-333 336.47,-313.22 339.08,-276.61 341.48,-260.04"/>
<polygon fill="midnightblue" stroke="midnightblue" points="586.05,-384.53 596.23,-381.59 586.44,-377.54 586.05,-384.53"/>
</g>
<!-- Node15 -->
<g id="node15" class="node">
<title>Node15</title>
<g id="a_node15"><a xlink:href="apps_2js__v8_2tmpl_2crypto_8cpp.html" target="_top" xlink:title=" ">
<polygon fill="white" stroke="black" points="525.5,-302.5 525.5,-332.5 636.5,-332.5 636.5,-302.5 525.5,-302.5"/>
<text text-anchor="start" x="533.5" y="-320.5" font-family="Helvetica,sans-Serif" font-size="10.00">src/apps/js_v8/tmpl</text>
<text text-anchor="middle" x="581" y="-309.5" font-family="Helvetica,sans-Serif" font-size="10.00">/crypto.cpp</text>
</a>
</g>
</g>
<!-- Node2&#45;&gt;Node15 -->
<g id="edge18" class="edge">
<title>Node2&#45;&gt;Node15</title>
<path fill="none" stroke="midnightblue" d="M626.16,-362.31C616.11,-352.56 604.46,-341.26 595.51,-332.58"/>
<polygon fill="midnightblue" stroke="midnightblue" points="623.85,-364.94 633.46,-369.4 628.72,-359.92 623.85,-364.94"/>
</g>
<!-- Node2&#45;&gt;Node16 -->
<g id="edge20" class="edge">
<title>Node2&#45;&gt;Node16</title>
<path fill="none" stroke="midnightblue" d="M709.63,-374.96C802.56,-362.08 976.95,-337.91 1064.31,-325.8"/>
<polygon fill="midnightblue" stroke="midnightblue" points="708.96,-371.52 699.53,-376.36 709.92,-378.45 708.96,-371.52"/>
</g>
<!-- Node21 -->
<g id="node21" class="node">
<title>Node21</title>
<g id="a_node21"><a xlink:href="symmetric__key_8cpp.html" target="_top" xlink:title=" ">
<polygon fill="white" stroke="black" points="655,-302.5 655,-332.5 775,-332.5 775,-302.5 655,-302.5"/>
<text text-anchor="start" x="663" y="-320.5" font-family="Helvetica,sans-Serif" font-size="10.00">src/crypto/symmetric</text>
<text text-anchor="middle" x="715" y="-309.5" font-family="Helvetica,sans-Serif" font-size="10.00">_key.cpp</text>
</a>
</g>
</g>
<!-- Node2&#45;&gt;Node21 -->
<g id="edge25" class="edge">
<title>Node2&#45;&gt;Node21</title>
<path fill="none" stroke="midnightblue" d="M669.84,-362.31C679.89,-352.56 691.54,-341.26 700.49,-332.58"/>
<polygon fill="midnightblue" stroke="midnightblue" points="667.28,-359.92 662.54,-369.4 672.15,-364.94 667.28,-359.92"/>
</g>
<!-- Node22 -->
<g id="node22" class="node">
<title>Node22</title>
<g id="a_node22"><a xlink:href="share__manager_8h.html" target="_top" xlink:title=" ">
<polygon fill="white" stroke="black" points="835.5,-241 835.5,-260 980.5,-260 980.5,-241 835.5,-241"/>
<text text-anchor="middle" x="908" y="-248" font-family="Helvetica,sans-Serif" font-size="10.00">src/node/share_manager.h</text>
</a>
</g>
</g>
<!-- Node2&#45;&gt;Node22 -->
<g id="edge28" class="edge">
<title>Node2&#45;&gt;Node22</title>
<path fill="none" stroke="midnightblue" d="M709.99,-372.33C743.71,-364.53 785.29,-352.04 819,-333 854.39,-313.01 887.25,-276.51 901.09,-260.01"/>
<polygon fill="midnightblue" stroke="midnightblue" points="708.8,-369.01 699.8,-374.6 710.32,-375.84 708.8,-369.01"/>
</g>
<!-- Node3&#45;&gt;Node4 -->
<g id="edge3" class="edge">
<title>Node3&#45;&gt;Node4</title>
<path fill="none" stroke="midnightblue" d="M442.37,-295.88C454.53,-286.01 468.78,-274.43 479.68,-265.58"/>
<polygon fill="midnightblue" stroke="midnightblue" points="439.91,-293.37 434.36,-302.4 444.33,-298.81 439.91,-293.37"/>
</g>
<!-- Node3&#45;&gt;Node5 -->
<g id="edge4" class="edge">
<title>Node3&#45;&gt;Node5</title>
<path fill="none" stroke="midnightblue" d="M473.15,-299.44C507.84,-288.91 551.82,-275.55 584.54,-265.61"/>
<polygon fill="midnightblue" stroke="midnightblue" points="471.72,-296.22 463.17,-302.48 473.76,-302.92 471.72,-296.22"/>
</g>
<!-- Node3&#45;&gt;Node6 -->
<g id="edge5" class="edge">
<title>Node3&#45;&gt;Node6</title>
<path fill="none" stroke="midnightblue" d="M478.63,-306.13C535.46,-296.4 622.09,-281.1 697,-266 700.06,-265.38 703.2,-264.73 706.36,-264.07"/>
<polygon fill="midnightblue" stroke="midnightblue" points="477.99,-302.69 468.73,-307.83 479.17,-309.59 477.99,-302.69"/>
</g>
<!-- Node3&#45;&gt;Node7 -->
<g id="edge6" class="edge">
<title>Node3&#45;&gt;Node7</title>
<path fill="none" stroke="midnightblue" d="M355.44,-305.27C299.89,-295.11 215.95,-279.68 143,-266 132.83,-264.09 121.91,-262.02 111.6,-260.06"/>
<polygon fill="midnightblue" stroke="midnightblue" points="355.01,-308.75 365.47,-307.1 356.26,-301.86 355.01,-308.75"/>
</g>
<!-- Node3&#45;&gt;Node8 -->
<g id="edge7" class="edge">
<title>Node3&#45;&gt;Node8</title>
<path fill="none" stroke="midnightblue" d="M360.55,-299.59C318.17,-286.9 261.9,-270.04 228.47,-260.03"/>
<polygon fill="midnightblue" stroke="midnightblue" points="359.6,-302.96 370.18,-302.48 361.61,-296.25 359.6,-302.96"/>
</g>
<!-- Node3&#45;&gt;Node10 -->
<g id="edge9" class="edge">
<title>Node3&#45;&gt;Node10</title>
<path fill="none" stroke="midnightblue" d="M393.29,-295.67C379.63,-283.67 363.17,-269.22 352.9,-260.19"/>
<polygon fill="midnightblue" stroke="midnightblue" points="391.12,-298.43 400.94,-302.4 395.74,-293.17 391.12,-298.43"/>
</g>
<!-- Node9 -->
<g id="node9" class="node">
<title>Node9</title>
<g id="a_node9"><a xlink:href="wrap_8cpp.html" target="_top" xlink:title=" ">
<polygon fill="white" stroke="black" points="155.5,-179.5 155.5,-198.5 244.5,-198.5 244.5,-179.5 155.5,-179.5"/>
<text text-anchor="middle" x="200" y="-186.5" font-family="Helvetica,sans-Serif" font-size="10.00">src/js/wrap.cpp</text>
</a>
</g>
</g>
<!-- Node8&#45;&gt;Node9 -->
<g id="edge8" class="edge">
<title>Node8&#45;&gt;Node9</title>
<path fill="none" stroke="midnightblue" d="M200,-230.82C200,-220 200,-206.9 200,-198.51"/>
<polygon fill="midnightblue" stroke="midnightblue" points="196.5,-230.98 200,-240.98 203.5,-230.98 196.5,-230.98"/>
</g>
<!-- Node11 -->
<g id="node11" class="node">
<title>Node11</title>
<g id="a_node11"><a xlink:href="node__state_8h.html" target="_top" xlink:title=" ">
<polygon fill="white" stroke="black" points="707,-179.5 707,-198.5 831,-198.5 831,-179.5 707,-179.5"/>
<text text-anchor="middle" x="769" y="-186.5" font-family="Helvetica,sans-Serif" font-size="10.00">src/node/node_state.h</text>
</a>
</g>
</g>
<!-- Node10&#45;&gt;Node11 -->
<g id="edge10" class="edge">
<title>Node10&#45;&gt;Node11</title>
<path fill="none" stroke="midnightblue" d="M401.48,-239.35C410.68,-237.84 420.09,-236.34 429,-235 525.86,-220.43 638.63,-206 706.86,-197.55"/>
<polygon fill="midnightblue" stroke="midnightblue" points="400.91,-235.9 391.62,-240.99 402.06,-242.81 400.91,-235.9"/>
</g>
<!-- Node12 -->
<g id="node12" class="node">
<title>Node12</title>
<g id="a_node12"><a xlink:href="enclave_2enclave_8h.html" target="_top" xlink:title=" ">
<polygon fill="white" stroke="black" points="759,-56.5 759,-75.5 881,-75.5 881,-56.5 759,-56.5"/>
<text text-anchor="middle" x="820" y="-63.5" font-family="Helvetica,sans-Serif" font-size="10.00">src/enclave/enclave.h</text>
</a>
</g>
</g>
<!-- Node11&#45;&gt;Node12 -->
<g id="edge11" class="edge">
<title>Node11&#45;&gt;Node12</title>
<path fill="none" stroke="midnightblue" d="M783.06,-171.41C789.34,-163.29 796.35,-153.1 801,-143 811.58,-120.02 816.82,-90.31 818.89,-75.79"/>
<polygon fill="midnightblue" stroke="midnightblue" points="780.25,-169.33 776.69,-179.31 785.7,-173.73 780.25,-169.33"/>
</g>
<!-- Node14 -->
<g id="node14" class="node">
<title>Node14</title>
<g id="a_node14"><a xlink:href="gov__effects_8h.html" target="_top" xlink:title=" ">
<polygon fill="white" stroke="black" points="648,-118 648,-137 792,-137 792,-118 648,-118"/>
<text text-anchor="middle" x="720" y="-125" font-family="Helvetica,sans-Serif" font-size="10.00">src/node/rpc/gov_effects.h</text>
</a>
</g>
</g>
<!-- Node11&#45;&gt;Node14 -->
<g id="edge13" class="edge">
<title>Node11&#45;&gt;Node14</title>
<path fill="none" stroke="midnightblue" d="M755.55,-171.67C746.31,-160.45 734.43,-146.02 727.01,-137.01"/>
<polygon fill="midnightblue" stroke="midnightblue" points="752.92,-173.98 761.98,-179.48 758.32,-169.53 752.92,-173.98"/>
</g>
<!-- Node13 -->
<g id="node13" class="node">
<title>Node13</title>
<g id="a_node13"><a xlink:href="enclave_2main_8cpp.html" target="_top" xlink:title=" ">
<polygon fill="white" stroke="black" points="760,-0.5 760,-19.5 880,-19.5 880,-0.5 760,-0.5"/>
<text text-anchor="middle" x="820" y="-7.5" font-family="Helvetica,sans-Serif" font-size="10.00">src/enclave/main.cpp</text>
</a>
</g>
</g>
<!-- Node12&#45;&gt;Node13 -->
<g id="edge12" class="edge">
<title>Node12&#45;&gt;Node13</title>
<path fill="none" stroke="midnightblue" d="M820,-45.8C820,-36.91 820,-26.78 820,-19.75"/>
<polygon fill="midnightblue" stroke="midnightblue" points="816.5,-46.08 820,-56.08 823.5,-46.08 816.5,-46.08"/>
</g>
<!-- Node14&#45;&gt;Node12 -->
<g id="edge14" class="edge">
<title>Node14&#45;&gt;Node12</title>
<path fill="none" stroke="midnightblue" d="M743.12,-112.74C762.44,-101.25 789.37,-85.22 805.7,-75.51"/>
<polygon fill="midnightblue" stroke="midnightblue" points="741.13,-109.85 734.33,-117.98 744.71,-115.87 741.13,-109.85"/>
</g>
<!-- Node17 -->
<g id="node17" class="node">
<title>Node17</title>
<g id="a_node17"><a xlink:href="openssl_2rsa__key__pair_8cpp.html" target="_top" xlink:title=" ">
<polygon fill="white" stroke="black" points="1373.5,-235.5 1373.5,-265.5 1478.5,-265.5 1478.5,-235.5 1373.5,-235.5"/>
<text text-anchor="start" x="1381.5" y="-253.5" font-family="Helvetica,sans-Serif" font-size="10.00">src/crypto/openssl</text>
<text text-anchor="middle" x="1426" y="-242.5" font-family="Helvetica,sans-Serif" font-size="10.00">/rsa_key_pair.cpp</text>
</a>
</g>
</g>
<!-- Node16&#45;&gt;Node17 -->
<g id="edge21" class="edge">
<title>Node16&#45;&gt;Node17</title>
<path fill="none" stroke="midnightblue" d="M1179.89,-304.28C1230.09,-294.38 1302.18,-279.86 1365,-266 1367.76,-265.39 1370.6,-264.75 1373.45,-264.11"/>
<polygon fill="midnightblue" stroke="midnightblue" points="1178.97,-300.89 1169.84,-306.26 1180.33,-307.76 1178.97,-300.89"/>
</g>
<!-- Node18 -->
<g id="node18" class="node">
<title>Node18</title>
<g id="a_node18"><a xlink:href="rsa__public__key_8cpp.html" target="_top" xlink:title=" ">
<polygon fill="white" stroke="black" points="999,-235.5 999,-265.5 1109,-265.5 1109,-235.5 999,-235.5"/>
<text text-anchor="start" x="1007" y="-253.5" font-family="Helvetica,sans-Serif" font-size="10.00">src/crypto/openssl</text>
<text text-anchor="middle" x="1054" y="-242.5" font-family="Helvetica,sans-Serif" font-size="10.00">/rsa_public_key.cpp</text>
</a>
</g>
</g>
<!-- Node16&#45;&gt;Node18 -->
<g id="edge22" class="edge">
<title>Node16&#45;&gt;Node18</title>
<path fill="none" stroke="midnightblue" d="M1096.19,-295.02C1086.8,-285.34 1075.98,-274.17 1067.64,-265.58"/>
<polygon fill="midnightblue" stroke="midnightblue" points="1093.86,-297.65 1103.33,-302.4 1098.88,-292.78 1093.86,-297.65"/>
</g>
<!-- Node19 -->
<g id="node19" class="node">
<title>Node19</title>
<g id="a_node19"><a xlink:href="openssl_2verifier_8cpp.html" target="_top" xlink:title=" ">
<polygon fill="white" stroke="black" points="1127.5,-235.5 1127.5,-265.5 1232.5,-265.5 1232.5,-235.5 1127.5,-235.5"/>
<text text-anchor="start" x="1135.5" y="-253.5" font-family="Helvetica,sans-Serif" font-size="10.00">src/crypto/openssl</text>
<text text-anchor="middle" x="1180" y="-242.5" font-family="Helvetica,sans-Serif" font-size="10.00">/verifier.cpp</text>
</a>
</g>
</g>
<!-- Node16&#45;&gt;Node19 -->
<g id="edge23" class="edge">
<title>Node16&#45;&gt;Node19</title>
<path fill="none" stroke="midnightblue" d="M1137.81,-295.02C1147.2,-285.34 1158.02,-274.17 1166.36,-265.58"/>
<polygon fill="midnightblue" stroke="midnightblue" points="1135.12,-292.78 1130.67,-302.4 1140.14,-297.65 1135.12,-292.78"/>
</g>
<!-- Node20 -->
<g id="node20" class="node">
<title>Node20</title>
<g id="a_node20"><a xlink:href="rsa__key__pair_8cpp.html" target="_top" xlink:title=" ">
<polygon fill="white" stroke="black" points="1250.5,-235.5 1250.5,-265.5 1355.5,-265.5 1355.5,-235.5 1250.5,-235.5"/>
<text text-anchor="start" x="1258.5" y="-253.5" font-family="Helvetica,sans-Serif" font-size="10.00">src/crypto/rsa_key</text>
<text text-anchor="middle" x="1303" y="-242.5" font-family="Helvetica,sans-Serif" font-size="10.00">_pair.cpp</text>
</a>
</g>
</g>
<!-- Node16&#45;&gt;Node20 -->
<g id="edge24" class="edge">
<title>Node16&#45;&gt;Node20</title>
<path fill="none" stroke="midnightblue" d="M1166.81,-299.09C1196.84,-288.6 1234.59,-275.41 1262.72,-265.58"/>
<polygon fill="midnightblue" stroke="midnightblue" points="1165.64,-295.79 1157.36,-302.4 1167.95,-302.4 1165.64,-295.79"/>
</g>
<!-- Node22&#45;&gt;Node11 -->
<g id="edge29" class="edge">
<title>Node22&#45;&gt;Node11</title>
<path fill="none" stroke="midnightblue" d="M878.75,-236.98C851.75,-225.42 812.4,-208.58 788.88,-198.51"/>
<polygon fill="midnightblue" stroke="midnightblue" points="877.51,-240.26 888.08,-240.98 880.27,-233.82 877.51,-240.26"/>
</g>
<!-- Node23 -->
<g id="node23" class="node">
<title>Node23</title>
<g id="a_node23"><a xlink:href="member__frontend_8h.html" target="_top" xlink:title=" ">
<polygon fill="white" stroke="black" points="848,-112.5 848,-142.5 968,-142.5 968,-112.5 848,-112.5"/>
<text text-anchor="start" x="856" y="-130.5" font-family="Helvetica,sans-Serif" font-size="10.00">src/node/rpc/member</text>
<text text-anchor="middle" x="908" y="-119.5" font-family="Helvetica,sans-Serif" font-size="10.00">_frontend.h</text>
</a>
</g>
</g>
<!-- Node22&#45;&gt;Node23 -->
<g id="edge30" class="edge">
<title>Node22&#45;&gt;Node23</title>
<path fill="none" stroke="midnightblue" d="M908,-230.68C908,-206.3 908,-164.32 908,-142.54"/>
<polygon fill="midnightblue" stroke="midnightblue" points="904.5,-230.8 908,-240.8 911.5,-230.8 904.5,-230.8"/>
</g>
<!-- Node23&#45;&gt;Node12 -->
<g id="edge31" class="edge">
<title>Node23&#45;&gt;Node12</title>
<path fill="none" stroke="midnightblue" d="M878.83,-106.78C863.23,-96.23 844.82,-83.78 832.8,-75.66"/>
<polygon fill="midnightblue" stroke="midnightblue" points="876.9,-109.7 887.15,-112.4 880.82,-103.9 876.9,-109.7"/>
</g>
<!-- Node24&#45;&gt;Node16 -->
<g id="edge34" class="edge">
<title>Node24&#45;&gt;Node16</title>
<path fill="none" stroke="midnightblue" d="M1061.69,-362.88C1074,-353.01 1088.43,-341.43 1099.46,-332.58"/>
<polygon fill="midnightblue" stroke="midnightblue" points="1059.18,-360.41 1053.58,-369.4 1063.57,-365.87 1059.18,-360.41"/>
</g>
</g>
</svg>
