<?xml version="1.0" encoding="UTF-8" standalone="no"?>
<!DOCTYPE svg PUBLIC "-//W3C//DTD SVG 1.1//EN"
 "http://www.w3.org/Graphics/SVG/1.1/DTD/svg11.dtd">
<!-- Generated by graphviz version 2.43.0 (0)
 -->
<!-- Title: include/ccf/crypto/public_key.h Pages: 1 -->
<!--zoomable 375 -->
<svg id="main" version="1.1" xmlns="http://www.w3.org/2000/svg" xmlns:xlink="http://www.w3.org/1999/xlink" xml:space="preserve" onload="init(evt)">
<style type="text/css"><![CDATA[
.edge:hover path { stroke: red; }
.edge:hover polygon { stroke: red; fill: red; }
]]></style>
<script type="text/javascript"><![CDATA[
var edges = document.getElementsByTagName('g');
if (edges && edges.length) {
  for (var i=0;i<edges.length;i++) {
    if (edges[i].id.substr(0,4)=='edge') {
      edges[i].setAttribute('class','edge');
    }
  }
}
]]></script>
        <defs>
                <circle id="rim" cx="0" cy="0" r="7"/>
                <circle id="rim2" cx="0" cy="0" r="3.5"/>
                <g id="zoomPlus">
                        <use xlink:href="#rim" fill="#404040">
                                <set attributeName="fill" to="#808080" begin="zoomplus.mouseover" end="zoomplus.mouseout"/>
                        </use>
                        <path d="M-4,0h8M0,-4v8" fill="none" stroke="white" stroke-width="1.5" pointer-events="none"/>
                </g>
                <g id="zoomMin">
                        <use xlink:href="#rim" fill="#404040">
                                <set attributeName="fill" to="#808080" begin="zoomminus.mouseover" end="zoomminus.mouseout"/>
                        </use>
                        <path d="M-4,0h8" fill="none" stroke="white" stroke-width="1.5" pointer-events="none"/>
                </g>
                <g id="dirArrow">
                        <path fill="none" stroke="white" stroke-width="1.5" d="M0,-3.0v7 M-2.5,-0.5L0,-3.0L2.5,-0.5"/>
                </g>
               <g id="resetDef">
                       <use xlink:href="#rim2" fill="#404040">
                               <set attributeName="fill" to="#808080" begin="reset.mouseover" end="reset.mouseout"/>
                       </use>
               </g>
        </defs>

<script type="text/javascript">
var viewWidth = 1236;
var viewHeight = 375;
var sectionId = 'dynsection-0';
</script>
<script xlink:href="svgpan.js"/>
<svg id="graph" class="graph">
<g id="viewport">
<title>include/ccf/crypto/public_key.h</title>
<polygon fill="white" stroke="transparent" points="-4,4 -4,-371 1232,-371 1232,4 -4,4"/>
<!-- Node1 -->
<g id="node1" class="node">
<title>Node1</title>
<g id="a_node1"><a xlink:title=" ">
<polygon fill="#bfbfbf" stroke="black" points="919.5,-336.5 919.5,-366.5 1022.5,-366.5 1022.5,-336.5 919.5,-336.5"/>
<text text-anchor="start" x="927.5" y="-354.5" font-family="Helvetica,sans-Serif" font-size="10.00">include/ccf/crypto</text>
<text text-anchor="middle" x="971" y="-343.5" font-family="Helvetica,sans-Serif" font-size="10.00">/public_key.h</text>
</a>
</g>
</g>
<!-- Node2 -->
<g id="node2" class="node">
<title>Node2</title>
<g id="a_node2"><a xlink:href="curve_8h.html" target="_top" xlink:title=" ">
<polygon fill="white" stroke="black" points="436,-280.5 436,-299.5 540,-299.5 540,-280.5 436,-280.5"/>
<text text-anchor="middle" x="488" y="-287.5" font-family="Helvetica,sans-Serif" font-size="10.00">ccf/crypto/curve.h</text>
</a>
</g>
</g>
<!-- Node1&#45;&gt;Node2 -->
<g id="edge1" class="edge">
<title>Node1&#45;&gt;Node2</title>
<path fill="none" stroke="midnightblue" d="M919.31,-344.13C829.85,-333.11 646.51,-310.53 550.22,-298.66"/>
<polygon fill="midnightblue" stroke="midnightblue" points="550.4,-295.16 540.05,-297.41 549.54,-302.11 550.4,-295.16"/>
</g>
<!-- Node6 -->
<g id="node6" class="node">
<title>Node6</title>
<g id="a_node6"><a xlink:title=" ">
<polygon fill="white" stroke="#bfbfbf" points="54,-0.5 54,-19.5 98,-19.5 98,-0.5 54,-0.5"/>
<text text-anchor="middle" x="76" y="-7.5" font-family="Helvetica,sans-Serif" font-size="10.00">string</text>
</a>
</g>
</g>
<!-- Node1&#45;&gt;Node6 -->
<g id="edge43" class="edge">
<title>Node1&#45;&gt;Node6</title>
<path fill="none" stroke="midnightblue" d="M919.48,-349.84C718.74,-346.6 0,-328.48 0,-235 0,-235 0,-235 0,-121 0,-81.28 33.96,-45.5 56.48,-26.15"/>
<polygon fill="midnightblue" stroke="midnightblue" points="58.98,-28.63 64.46,-19.57 54.52,-23.24 58.98,-28.63"/>
</g>
<!-- Node7 -->
<g id="node7" class="node">
<title>Node7</title>
<g id="a_node7"><a xlink:title=" ">
<polygon fill="white" stroke="#bfbfbf" points="864.5,-0.5 864.5,-19.5 911.5,-19.5 911.5,-0.5 864.5,-0.5"/>
<text text-anchor="middle" x="888" y="-7.5" font-family="Helvetica,sans-Serif" font-size="10.00">vector</text>
</a>
</g>
</g>
<!-- Node1&#45;&gt;Node7 -->
<g id="edge44" class="edge">
<title>Node1&#45;&gt;Node7</title>
<path fill="none" stroke="midnightblue" d="M997.5,-336.41C1028.6,-317.73 1076,-281.61 1076,-235 1076,-235 1076,-235 1076,-121 1076,-50.45 976.15,-24.31 921.99,-15.32"/>
<polygon fill="midnightblue" stroke="midnightblue" points="922.23,-11.81 911.81,-13.74 921.16,-18.73 922.23,-11.81"/>
</g>
<!-- Node20 -->
<g id="node20" class="node">
<title>Node20</title>
<g id="a_node20"><a xlink:href="hash__bytes_8h.html" target="_top" xlink:title=" ">
<polygon fill="white" stroke="black" points="916,-112.5 916,-131.5 1048,-131.5 1048,-112.5 916,-112.5"/>
<text text-anchor="middle" x="982" y="-119.5" font-family="Helvetica,sans-Serif" font-size="10.00">ccf/crypto/hash_bytes.h</text>
</a>
</g>
</g>
<!-- Node1&#45;&gt;Node20 -->
<g id="edge26" class="edge">
<title>Node1&#45;&gt;Node20</title>
<path fill="none" stroke="midnightblue" d="M973.39,-336.32C978.29,-305.67 988.79,-230.88 986,-168 985.62,-159.37 984.82,-149.84 984.04,-141.78"/>
<polygon fill="midnightblue" stroke="midnightblue" points="987.5,-141.2 982.99,-131.61 980.54,-141.92 987.5,-141.2"/>
</g>
<!-- Node21 -->
<g id="node21" class="node">
<title>Node21</title>
<g id="a_node21"><a xlink:href="pem_8h.html" target="_top" xlink:title=" ">
<polygon fill="white" stroke="black" points="768,-224.5 768,-243.5 866,-243.5 866,-224.5 768,-224.5"/>
<text text-anchor="middle" x="817" y="-231.5" font-family="Helvetica,sans-Serif" font-size="10.00">ccf/crypto/pem.h</text>
</a>
</g>
</g>
<!-- Node1&#45;&gt;Node21 -->
<g id="edge28" class="edge">
<title>Node1&#45;&gt;Node21</title>
<path fill="none" stroke="midnightblue" d="M952.12,-336.34C922.86,-314.39 866.83,-272.37 836.94,-249.95"/>
<polygon fill="midnightblue" stroke="midnightblue" points="838.66,-246.87 828.56,-243.67 834.46,-252.47 838.66,-246.87"/>
</g>
<!-- Node26 -->
<g id="node26" class="node">
<title>Node26</title>
<g id="a_node26"><a xlink:href="san_8h.html" target="_top" xlink:title=" ">
<polygon fill="white" stroke="black" points="190,-224.5 190,-243.5 284,-243.5 284,-224.5 190,-224.5"/>
<text text-anchor="middle" x="237" y="-231.5" font-family="Helvetica,sans-Serif" font-size="10.00">ccf/crypto/san.h</text>
</a>
</g>
</g>
<!-- Node1&#45;&gt;Node26 -->
<g id="edge36" class="edge">
<title>Node1&#45;&gt;Node26</title>
<path fill="none" stroke="midnightblue" d="M919.39,-349.76C822.04,-347.49 605.07,-338.16 427,-300 368.58,-287.48 303.22,-262.59 266.4,-247.51"/>
<polygon fill="midnightblue" stroke="midnightblue" points="267.38,-244.12 256.8,-243.53 264.7,-250.59 267.38,-244.12"/>
</g>
<!-- Node27 -->
<g id="node27" class="node">
<title>Node27</title>
<g id="a_node27"><a xlink:title=" ">
<polygon fill="white" stroke="#bfbfbf" points="1104,-280.5 1104,-299.5 1154,-299.5 1154,-280.5 1104,-280.5"/>
<text text-anchor="middle" x="1129" y="-287.5" font-family="Helvetica,sans-Serif" font-size="10.00">cstdint</text>
</a>
</g>
</g>
<!-- Node1&#45;&gt;Node27 -->
<g id="edge41" class="edge">
<title>Node1&#45;&gt;Node27</title>
<path fill="none" stroke="midnightblue" d="M1008.44,-336.4C1035.19,-326.33 1070.82,-312.91 1096.4,-303.28"/>
<polygon fill="midnightblue" stroke="midnightblue" points="1097.88,-306.46 1106.01,-299.66 1095.42,-299.91 1097.88,-306.46"/>
</g>
<!-- Node28 -->
<g id="node28" class="node">
<title>Node28</title>
<g id="a_node28"><a xlink:title=" ">
<polygon fill="white" stroke="#bfbfbf" points="1172,-280.5 1172,-299.5 1228,-299.5 1228,-280.5 1172,-280.5"/>
<text text-anchor="middle" x="1200" y="-287.5" font-family="Helvetica,sans-Serif" font-size="10.00">optional</text>
</a>
</g>
</g>
<!-- Node1&#45;&gt;Node28 -->
<g id="edge42" class="edge">
<title>Node1&#45;&gt;Node28</title>
<path fill="none" stroke="midnightblue" d="M1022.68,-337.07C1065.06,-326.06 1124.08,-310.73 1162.16,-300.83"/>
<polygon fill="midnightblue" stroke="midnightblue" points="1163.05,-304.22 1171.84,-298.32 1161.29,-297.44 1163.05,-304.22"/>
</g>
<!-- Node3 -->
<g id="node3" class="node">
<title>Node3</title>
<g id="a_node3"><a xlink:href="md__type_8h.html" target="_top" xlink:title=" ">
<polygon fill="white" stroke="black" points="340.5,-224.5 340.5,-243.5 459.5,-243.5 459.5,-224.5 340.5,-224.5"/>
<text text-anchor="middle" x="400" y="-231.5" font-family="Helvetica,sans-Serif" font-size="10.00">ccf/crypto/md_type.h</text>
</a>
</g>
</g>
<!-- Node2&#45;&gt;Node3 -->
<g id="edge2" class="edge">
<title>Node2&#45;&gt;Node3</title>
<path fill="none" stroke="midnightblue" d="M473.86,-280.32C460.13,-271.9 439.06,-258.97 422.94,-249.07"/>
<polygon fill="midnightblue" stroke="midnightblue" points="424.46,-245.9 414.1,-243.65 420.8,-251.87 424.46,-245.9"/>
</g>
<!-- Node4 -->
<g id="node4" class="node">
<title>Node4</title>
<g id="a_node4"><a xlink:href="json_8h.html" target="_top" xlink:title=" ">
<polygon fill="white" stroke="black" points="361.5,-168.5 361.5,-187.5 438.5,-187.5 438.5,-168.5 361.5,-168.5"/>
<text text-anchor="middle" x="400" y="-175.5" font-family="Helvetica,sans-Serif" font-size="10.00">ccf/ds/json.h</text>
</a>
</g>
</g>
<!-- Node2&#45;&gt;Node4 -->
<g id="edge22" class="edge">
<title>Node2&#45;&gt;Node4</title>
<path fill="none" stroke="midnightblue" d="M435.64,-280.78C395.4,-273.27 344.62,-260.78 332,-244 316.76,-223.75 344.98,-204.17 369.58,-191.88"/>
<polygon fill="midnightblue" stroke="midnightblue" points="371.19,-194.99 378.72,-187.54 368.19,-188.67 371.19,-194.99"/>
</g>
<!-- Node2&#45;&gt;Node6 -->
<g id="edge25" class="edge">
<title>Node2&#45;&gt;Node6</title>
<path fill="none" stroke="midnightblue" d="M435.94,-287.2C317.49,-281.7 38,-260.13 38,-179 38,-179 38,-179 38,-121 38,-86.81 54.6,-49.76 65.86,-28.57"/>
<polygon fill="midnightblue" stroke="midnightblue" points="68.95,-30.22 70.72,-19.77 62.82,-26.83 68.95,-30.22"/>
</g>
<!-- Node15 -->
<g id="node15" class="node">
<title>Node15</title>
<g id="a_node15"><a xlink:title=" ">
<polygon fill="white" stroke="#bfbfbf" points="470.5,-56.5 470.5,-75.5 549.5,-75.5 549.5,-56.5 470.5,-56.5"/>
<text text-anchor="middle" x="510" y="-63.5" font-family="Helvetica,sans-Serif" font-size="10.00">fmt/format.h</text>
</a>
</g>
</g>
<!-- Node2&#45;&gt;Node15 -->
<g id="edge23" class="edge">
<title>Node2&#45;&gt;Node15</title>
<path fill="none" stroke="midnightblue" d="M488.86,-280.3C492.1,-247.63 503.57,-131.87 508.12,-85.96"/>
<polygon fill="midnightblue" stroke="midnightblue" points="511.62,-86.18 509.12,-75.88 504.65,-85.49 511.62,-86.18"/>
</g>
<!-- Node18 -->
<g id="node18" class="node">
<title>Node18</title>
<g id="a_node18"><a xlink:href="enum__formatter_8h.html" target="_top" xlink:title=" ">
<polygon fill="white" stroke="black" points="516,-112.5 516,-131.5 652,-131.5 652,-112.5 516,-112.5"/>
<text text-anchor="middle" x="584" y="-119.5" font-family="Helvetica,sans-Serif" font-size="10.00">ccf/ds/enum_formatter.h</text>
</a>
</g>
</g>
<!-- Node2&#45;&gt;Node18 -->
<g id="edge20" class="edge">
<title>Node2&#45;&gt;Node18</title>
<path fill="none" stroke="midnightblue" d="M535.33,-280.42C556.1,-274.05 578.55,-263.02 591,-244 611.57,-212.57 600.05,-166.14 591.19,-140.91"/>
<polygon fill="midnightblue" stroke="midnightblue" points="594.45,-139.64 587.66,-131.5 587.9,-142.1 594.45,-139.64"/>
</g>
<!-- Node19 -->
<g id="node19" class="node">
<title>Node19</title>
<g id="a_node19"><a xlink:title=" ">
<polygon fill="white" stroke="#bfbfbf" points="516.5,-224.5 516.5,-243.5 581.5,-243.5 581.5,-224.5 516.5,-224.5"/>
<text text-anchor="middle" x="549" y="-231.5" font-family="Helvetica,sans-Serif" font-size="10.00">stdexcept</text>
</a>
</g>
</g>
<!-- Node2&#45;&gt;Node19 -->
<g id="edge24" class="edge">
<title>Node2&#45;&gt;Node19</title>
<path fill="none" stroke="midnightblue" d="M497.8,-280.32C506.82,-272.34 520.41,-260.31 531.32,-250.65"/>
<polygon fill="midnightblue" stroke="midnightblue" points="533.85,-253.08 539.02,-243.83 529.21,-247.84 533.85,-253.08"/>
</g>
<!-- Node3&#45;&gt;Node4 -->
<g id="edge3" class="edge">
<title>Node3&#45;&gt;Node4</title>
<path fill="none" stroke="midnightblue" d="M400,-224.08C400,-217.01 400,-206.86 400,-197.99"/>
<polygon fill="midnightblue" stroke="midnightblue" points="403.5,-197.75 400,-187.75 396.5,-197.75 403.5,-197.75"/>
</g>
<!-- Node5 -->
<g id="node5" class="node">
<title>Node5</title>
<g id="a_node5"><a xlink:href="include_2ccf_2crypto_2base64_8h.html" target="_top" xlink:title=" ">
<polygon fill="white" stroke="black" points="104,-56.5 104,-75.5 216,-75.5 216,-56.5 104,-56.5"/>
<text text-anchor="middle" x="160" y="-63.5" font-family="Helvetica,sans-Serif" font-size="10.00">ccf/crypto/base64.h</text>
</a>
</g>
</g>
<!-- Node4&#45;&gt;Node5 -->
<g id="edge4" class="edge">
<title>Node4&#45;&gt;Node5</title>
<path fill="none" stroke="midnightblue" d="M361.14,-173.78C305.28,-168.39 206.12,-155.71 180,-132 167.04,-120.24 162.38,-100.31 160.76,-85.61"/>
<polygon fill="midnightblue" stroke="midnightblue" points="164.25,-85.33 160.02,-75.61 157.27,-85.84 164.25,-85.33"/>
</g>
<!-- Node8 -->
<g id="node8" class="node">
<title>Node8</title>
<g id="a_node8"><a xlink:href="include_2ccf_2ds_2json__schema_8h.html" target="_top" xlink:title=" ">
<polygon fill="white" stroke="black" points="188.5,-112.5 188.5,-131.5 309.5,-131.5 309.5,-112.5 188.5,-112.5"/>
<text text-anchor="middle" x="249" y="-119.5" font-family="Helvetica,sans-Serif" font-size="10.00">ccf/ds/json_schema.h</text>
</a>
</g>
</g>
<!-- Node4&#45;&gt;Node8 -->
<g id="edge7" class="edge">
<title>Node4&#45;&gt;Node8</title>
<path fill="none" stroke="midnightblue" d="M376.07,-168.44C350.78,-159.4 310.7,-145.06 282.32,-134.92"/>
<polygon fill="midnightblue" stroke="midnightblue" points="283.41,-131.59 272.81,-131.52 281.05,-138.18 283.41,-131.59"/>
</g>
<!-- Node4&#45;&gt;Node15 -->
<g id="edge18" class="edge">
<title>Node4&#45;&gt;Node15</title>
<path fill="none" stroke="midnightblue" d="M408.63,-168.37C427.11,-149.89 470.71,-106.29 494.26,-82.74"/>
<polygon fill="midnightblue" stroke="midnightblue" points="496.81,-85.14 501.41,-75.59 491.86,-80.19 496.81,-85.14"/>
</g>
<!-- Node17 -->
<g id="node17" class="node">
<title>Node17</title>
<g id="a_node17"><a xlink:title=" ">
<polygon fill="white" stroke="#bfbfbf" points="366,-112.5 366,-131.5 422,-131.5 422,-112.5 366,-112.5"/>
<text text-anchor="middle" x="394" y="-119.5" font-family="Helvetica,sans-Serif" font-size="10.00">sstream</text>
</a>
</g>
</g>
<!-- Node4&#45;&gt;Node17 -->
<g id="edge19" class="edge">
<title>Node4&#45;&gt;Node17</title>
<path fill="none" stroke="midnightblue" d="M399.01,-168.08C398.21,-160.93 397.07,-150.64 396.08,-141.69"/>
<polygon fill="midnightblue" stroke="midnightblue" points="399.56,-141.3 394.97,-131.75 392.6,-142.08 399.56,-141.3"/>
</g>
<!-- Node5&#45;&gt;Node6 -->
<g id="edge5" class="edge">
<title>Node5&#45;&gt;Node6</title>
<path fill="none" stroke="midnightblue" d="M146.5,-56.32C133.4,-47.9 113.29,-34.97 97.89,-25.07"/>
<polygon fill="midnightblue" stroke="midnightblue" points="99.77,-22.12 89.46,-19.65 95.98,-28.01 99.77,-22.12"/>
</g>
<!-- Node5&#45;&gt;Node7 -->
<g id="edge6" class="edge">
<title>Node5&#45;&gt;Node7</title>
<path fill="none" stroke="midnightblue" d="M216.34,-56.95C219.27,-56.61 222.17,-56.29 225,-56 465.59,-31.21 756.75,-16.84 854.32,-12.45"/>
<polygon fill="midnightblue" stroke="midnightblue" points="854.63,-15.94 864.46,-12 854.31,-8.95 854.63,-15.94"/>
</g>
<!-- Node9 -->
<g id="node9" class="node">
<title>Node9</title>
<g id="a_node9"><a xlink:href="nonstd_8h.html" target="_top" xlink:title=" ">
<polygon fill="white" stroke="black" points="234,-56.5 234,-75.5 324,-75.5 324,-56.5 234,-56.5"/>
<text text-anchor="middle" x="279" y="-63.5" font-family="Helvetica,sans-Serif" font-size="10.00">ccf/ds/nonstd.h</text>
</a>
</g>
</g>
<!-- Node8&#45;&gt;Node9 -->
<g id="edge8" class="edge">
<title>Node8&#45;&gt;Node9</title>
<path fill="none" stroke="midnightblue" d="M253.95,-112.08C258.1,-104.61 264.15,-93.72 269.27,-84.52"/>
<polygon fill="midnightblue" stroke="midnightblue" points="272.34,-86.19 274.14,-75.75 266.22,-82.79 272.34,-86.19"/>
</g>
<!-- Node8&#45;&gt;Node15 -->
<g id="edge16" class="edge">
<title>Node8&#45;&gt;Node15</title>
<path fill="none" stroke="midnightblue" d="M290.36,-112.44C336.48,-102.9 411.07,-87.47 460.32,-77.28"/>
<polygon fill="midnightblue" stroke="midnightblue" points="461.04,-80.7 470.12,-75.25 459.62,-73.85 461.04,-80.7"/>
</g>
<!-- Node16 -->
<g id="node16" class="node">
<title>Node16</title>
<g id="a_node16"><a xlink:title=" ">
<polygon fill="white" stroke="#bfbfbf" points="342,-56.5 342,-75.5 452,-75.5 452,-56.5 342,-56.5"/>
<text text-anchor="middle" x="397" y="-63.5" font-family="Helvetica,sans-Serif" font-size="10.00">nlohmann/json.hpp</text>
</a>
</g>
</g>
<!-- Node8&#45;&gt;Node16 -->
<g id="edge17" class="edge">
<title>Node8&#45;&gt;Node16</title>
<path fill="none" stroke="midnightblue" d="M272.45,-112.44C297.13,-103.44 336.19,-89.19 363.98,-79.05"/>
<polygon fill="midnightblue" stroke="midnightblue" points="365.46,-82.23 373.66,-75.52 363.06,-75.66 365.46,-82.23"/>
</g>
<!-- Node9&#45;&gt;Node6 -->
<g id="edge12" class="edge">
<title>Node9&#45;&gt;Node6</title>
<path fill="none" stroke="midnightblue" d="M246.83,-56.44C208.82,-46.33 145.95,-29.61 108.01,-19.51"/>
<polygon fill="midnightblue" stroke="midnightblue" points="108.57,-16.04 98.01,-16.85 106.77,-22.81 108.57,-16.04"/>
</g>
<!-- Node9&#45;&gt;Node7 -->
<g id="edge15" class="edge">
<title>Node9&#45;&gt;Node7</title>
<path fill="none" stroke="midnightblue" d="M324.04,-57.2C327.07,-56.77 330.08,-56.36 333,-56 529.86,-31.66 767.7,-17.43 854.36,-12.74"/>
<polygon fill="midnightblue" stroke="midnightblue" points="854.6,-16.23 864.4,-12.2 854.22,-9.24 854.6,-16.23"/>
</g>
<!-- Node10 -->
<g id="node10" class="node">
<title>Node10</title>
<g id="a_node10"><a xlink:title=" ">
<polygon fill="white" stroke="#bfbfbf" points="370,-0.5 370,-19.5 434,-19.5 434,-0.5 370,-0.5"/>
<text text-anchor="middle" x="402" y="-7.5" font-family="Helvetica,sans-Serif" font-size="10.00">algorithm</text>
</a>
</g>
</g>
<!-- Node9&#45;&gt;Node10 -->
<g id="edge9" class="edge">
<title>Node9&#45;&gt;Node10</title>
<path fill="none" stroke="midnightblue" d="M298.49,-56.44C318.64,-47.6 350.32,-33.69 373.33,-23.59"/>
<polygon fill="midnightblue" stroke="midnightblue" points="374.85,-26.74 382.6,-19.52 372.04,-20.33 374.85,-26.74"/>
</g>
<!-- Node11 -->
<g id="node11" class="node">
<title>Node11</title>
<g id="a_node11"><a xlink:title=" ">
<polygon fill="white" stroke="#bfbfbf" points="155,-0.5 155,-19.5 197,-19.5 197,-0.5 155,-0.5"/>
<text text-anchor="middle" x="176" y="-7.5" font-family="Helvetica,sans-Serif" font-size="10.00">array</text>
</a>
</g>
</g>
<!-- Node9&#45;&gt;Node11 -->
<g id="edge10" class="edge">
<title>Node9&#45;&gt;Node11</title>
<path fill="none" stroke="midnightblue" d="M262.45,-56.32C246.01,-47.7 220.57,-34.36 201.53,-24.39"/>
<polygon fill="midnightblue" stroke="midnightblue" points="202.99,-21.2 192.51,-19.65 199.74,-27.4 202.99,-21.2"/>
</g>
<!-- Node12 -->
<g id="node12" class="node">
<title>Node12</title>
<g id="a_node12"><a xlink:title=" ">
<polygon fill="white" stroke="#bfbfbf" points="215.5,-0.5 215.5,-19.5 264.5,-19.5 264.5,-0.5 215.5,-0.5"/>
<text text-anchor="middle" x="240" y="-7.5" font-family="Helvetica,sans-Serif" font-size="10.00">cctype</text>
</a>
</g>
</g>
<!-- Node9&#45;&gt;Node12 -->
<g id="edge11" class="edge">
<title>Node9&#45;&gt;Node12</title>
<path fill="none" stroke="midnightblue" d="M272.56,-56.08C267.05,-48.46 258.97,-37.26 252.24,-27.94"/>
<polygon fill="midnightblue" stroke="midnightblue" points="255.01,-25.81 246.32,-19.75 249.34,-29.91 255.01,-25.81"/>
</g>
<!-- Node13 -->
<g id="node13" class="node">
<title>Node13</title>
<g id="a_node13"><a xlink:title=" ">
<polygon fill="white" stroke="#bfbfbf" points="529.5,-0.5 529.5,-19.5 602.5,-19.5 602.5,-0.5 529.5,-0.5"/>
<text text-anchor="middle" x="566" y="-7.5" font-family="Helvetica,sans-Serif" font-size="10.00">string_view</text>
</a>
</g>
</g>
<!-- Node9&#45;&gt;Node13 -->
<g id="edge13" class="edge">
<title>Node9&#45;&gt;Node13</title>
<path fill="none" stroke="midnightblue" d="M324.16,-56.5C377.4,-46.49 465.44,-29.92 519.33,-19.78"/>
<polygon fill="midnightblue" stroke="midnightblue" points="520.12,-23.19 529.3,-17.91 518.83,-16.31 520.12,-23.19"/>
</g>
<!-- Node14 -->
<g id="node14" class="node">
<title>Node14</title>
<g id="a_node14"><a xlink:title=" ">
<polygon fill="white" stroke="#bfbfbf" points="282.5,-0.5 282.5,-19.5 351.5,-19.5 351.5,-0.5 282.5,-0.5"/>
<text text-anchor="middle" x="317" y="-7.5" font-family="Helvetica,sans-Serif" font-size="10.00">type_traits</text>
</a>
</g>
</g>
<!-- Node9&#45;&gt;Node14 -->
<g id="edge14" class="edge">
<title>Node9&#45;&gt;Node14</title>
<path fill="none" stroke="midnightblue" d="M285.27,-56.08C290.64,-48.46 298.52,-37.26 305.08,-27.94"/>
<polygon fill="midnightblue" stroke="midnightblue" points="307.95,-29.94 310.84,-19.75 302.22,-25.91 307.95,-29.94"/>
</g>
<!-- Node18&#45;&gt;Node15 -->
<g id="edge21" class="edge">
<title>Node18&#45;&gt;Node15</title>
<path fill="none" stroke="midnightblue" d="M572.11,-112.32C560.85,-104.11 543.71,-91.6 530.29,-81.81"/>
<polygon fill="midnightblue" stroke="midnightblue" points="532.25,-78.9 522.11,-75.83 528.12,-84.56 532.25,-78.9"/>
</g>
<!-- Node20&#45;&gt;Node7 -->
<g id="edge27" class="edge">
<title>Node20&#45;&gt;Node7</title>
<path fill="none" stroke="midnightblue" d="M974.62,-112.37C958.97,-94.05 922.22,-51.05 901.98,-27.36"/>
<polygon fill="midnightblue" stroke="midnightblue" points="904.5,-24.92 895.34,-19.59 899.18,-29.47 904.5,-24.92"/>
</g>
<!-- Node21&#45;&gt;Node4 -->
<g id="edge29" class="edge">
<title>Node21&#45;&gt;Node4</title>
<path fill="none" stroke="midnightblue" d="M767.94,-226.65C687.68,-216.25 529.26,-195.74 449.03,-185.35"/>
<polygon fill="midnightblue" stroke="midnightblue" points="449.07,-181.83 438.71,-184.01 448.18,-188.77 449.07,-181.83"/>
</g>
<!-- Node21&#45;&gt;Node7 -->
<g id="edge35" class="edge">
<title>Node21&#45;&gt;Node7</title>
<path fill="none" stroke="midnightblue" d="M866.25,-230.58C896.59,-226.24 933.34,-215.22 953,-188 977.02,-154.75 908.83,-135.11 907,-132 888.12,-99.87 886.19,-55.03 886.84,-29.93"/>
<polygon fill="midnightblue" stroke="midnightblue" points="890.35,-29.77 887.29,-19.63 883.36,-29.46 890.35,-29.77"/>
</g>
<!-- Node21&#45;&gt;Node13 -->
<g id="edge34" class="edge">
<title>Node21&#45;&gt;Node13</title>
<path fill="none" stroke="midnightblue" d="M767.96,-231.98C734.14,-228.45 691.08,-217.83 667,-188 645.72,-161.63 674.72,-142.98 661,-112 644.67,-75.11 609.01,-43.24 586.32,-25.62"/>
<polygon fill="midnightblue" stroke="midnightblue" points="588.42,-22.82 578.33,-19.58 584.2,-28.4 588.42,-22.82"/>
</g>
<!-- Node22 -->
<g id="node22" class="node">
<title>Node22</title>
<g id="a_node22"><a xlink:title=" ">
<polygon fill="white" stroke="#bfbfbf" points="676,-168.5 676,-187.5 726,-187.5 726,-168.5 676,-168.5"/>
<text text-anchor="middle" x="701" y="-175.5" font-family="Helvetica,sans-Serif" font-size="10.00">cstring</text>
</a>
</g>
</g>
<!-- Node21&#45;&gt;Node22 -->
<g id="edge30" class="edge">
<title>Node21&#45;&gt;Node22</title>
<path fill="none" stroke="midnightblue" d="M798.62,-224.44C779.78,-215.68 750.27,-201.94 728.62,-191.86"/>
<polygon fill="midnightblue" stroke="midnightblue" points="729.84,-188.56 719.29,-187.52 726.88,-194.91 729.84,-188.56"/>
</g>
<!-- Node23 -->
<g id="node23" class="node">
<title>Node23</title>
<g id="a_node23"><a xlink:title=" ">
<polygon fill="white" stroke="#bfbfbf" points="744.5,-168.5 744.5,-187.5 809.5,-187.5 809.5,-168.5 744.5,-168.5"/>
<text text-anchor="middle" x="777" y="-175.5" font-family="Helvetica,sans-Serif" font-size="10.00">exception</text>
</a>
</g>
</g>
<!-- Node21&#45;&gt;Node23 -->
<g id="edge31" class="edge">
<title>Node21&#45;&gt;Node23</title>
<path fill="none" stroke="midnightblue" d="M810.39,-224.08C804.74,-216.46 796.46,-205.26 789.55,-195.94"/>
<polygon fill="midnightblue" stroke="midnightblue" points="792.25,-193.7 783.48,-187.75 786.62,-197.87 792.25,-193.7"/>
</g>
<!-- Node24 -->
<g id="node24" class="node">
<title>Node24</title>
<g id="a_node24"><a xlink:title=" ">
<polygon fill="white" stroke="#bfbfbf" points="828,-168.5 828,-187.5 886,-187.5 886,-168.5 828,-168.5"/>
<text text-anchor="middle" x="857" y="-175.5" font-family="Helvetica,sans-Serif" font-size="10.00">memory</text>
</a>
</g>
</g>
<!-- Node21&#45;&gt;Node24 -->
<g id="edge32" class="edge">
<title>Node21&#45;&gt;Node24</title>
<path fill="none" stroke="midnightblue" d="M823.61,-224.08C829.26,-216.46 837.54,-205.26 844.45,-195.94"/>
<polygon fill="midnightblue" stroke="midnightblue" points="847.38,-197.87 850.52,-187.75 841.75,-193.7 847.38,-197.87"/>
</g>
<!-- Node25 -->
<g id="node25" class="node">
<title>Node25</title>
<g id="a_node25"><a xlink:title=" ">
<polygon fill="white" stroke="#bfbfbf" points="904,-168.5 904,-187.5 944,-187.5 944,-168.5 904,-168.5"/>
<text text-anchor="middle" x="924" y="-175.5" font-family="Helvetica,sans-Serif" font-size="10.00">span</text>
</a>
</g>
</g>
<!-- Node21&#45;&gt;Node25 -->
<g id="edge33" class="edge">
<title>Node21&#45;&gt;Node25</title>
<path fill="none" stroke="midnightblue" d="M834.19,-224.32C851.35,-215.66 877.95,-202.24 897.75,-192.25"/>
<polygon fill="midnightblue" stroke="midnightblue" points="899.5,-195.28 906.85,-187.65 896.35,-189.04 899.5,-195.28"/>
</g>
<!-- Node26&#45;&gt;Node4 -->
<g id="edge37" class="edge">
<title>Node26&#45;&gt;Node4</title>
<path fill="none" stroke="midnightblue" d="M262.83,-224.44C290.25,-215.36 333.78,-200.94 364.43,-190.78"/>
<polygon fill="midnightblue" stroke="midnightblue" points="365.9,-193.98 374.29,-187.52 363.7,-187.34 365.9,-193.98"/>
</g>
<!-- Node26&#45;&gt;Node6 -->
<g id="edge40" class="edge">
<title>Node26&#45;&gt;Node6</title>
<path fill="none" stroke="midnightblue" d="M223.49,-224.31C210.93,-215.89 192.11,-202.31 178,-188 134.49,-143.89 122.57,-131.49 95,-76 87.64,-61.19 82.64,-43.04 79.62,-29.68"/>
<polygon fill="midnightblue" stroke="midnightblue" points="83.02,-28.84 77.54,-19.77 76.17,-30.28 83.02,-28.84"/>
</g>
<!-- Node26&#45;&gt;Node9 -->
<g id="edge38" class="edge">
<title>Node26&#45;&gt;Node9</title>
<path fill="none" stroke="midnightblue" d="M227.07,-224.38C204.78,-203.97 154.61,-151.44 180,-112 190.31,-95.99 207.85,-85.62 225.33,-78.92"/>
<polygon fill="midnightblue" stroke="midnightblue" points="226.7,-82.15 234.99,-75.56 224.4,-75.54 226.7,-82.15"/>
</g>
<!-- Node26&#45;&gt;Node15 -->
<g id="edge39" class="edge">
<title>Node26&#45;&gt;Node15</title>
<path fill="none" stroke="midnightblue" d="M243.19,-224.21C259.3,-201.97 304.91,-143.07 357,-112 375.01,-101.26 425.27,-87.48 463.31,-78.01"/>
<polygon fill="midnightblue" stroke="midnightblue" points="464.31,-81.37 473.18,-75.58 462.64,-74.57 464.31,-81.37"/>
</g>
</g>
</svg>
        <g id="navigator" transform="translate(0 0)" fill="#404254">
                <rect fill="#f2f5e9" fill-opacity="0.5" stroke="#606060" stroke-width=".5" x="0" y="0" width="60" height="60"/>
                <use id="zoomplus" xlink:href="#zoomPlus" x="17" y="9" onmousedown="handleZoom(evt,'in')"/>
                <use id="zoomminus" xlink:href="#zoomMin" x="42" y="9" onmousedown="handleZoom(evt,'out')"/>
                <use id="reset" xlink:href="#resetDef" x="30" y="36" onmousedown="handleReset()"/>
                <g id="arrowUp" xlink:href="#dirArrow" transform="translate(30 24)" onmousedown="handlePan(0,-1)">
                  <use xlink:href="#rim" fill="#404040">
                        <set attributeName="fill" to="#808080" begin="arrowUp.mouseover" end="arrowUp.mouseout"/>
                  </use>
                  <path fill="none" stroke="white" stroke-width="1.5" d="M0,-3.0v7 M-2.5,-0.5L0,-3.0L2.5,-0.5"/>
                </g>
                <g id="arrowRight" xlink:href="#dirArrow" transform="rotate(90) translate(36 -43)" onmousedown="handlePan(1,0)">
                  <use xlink:href="#rim" fill="#404040">
                        <set attributeName="fill" to="#808080" begin="arrowRight.mouseover" end="arrowRight.mouseout"/>
                  </use>
                  <path fill="none" stroke="white" stroke-width="1.5" d="M0,-3.0v7 M-2.5,-0.5L0,-3.0L2.5,-0.5"/>
                </g>
                <g id="arrowDown" xlink:href="#dirArrow" transform="rotate(180) translate(-30 -48)" onmousedown="handlePan(0,1)">
                  <use xlink:href="#rim" fill="#404040">
                        <set attributeName="fill" to="#808080" begin="arrowDown.mouseover" end="arrowDown.mouseout"/>
                  </use>
                  <path fill="none" stroke="white" stroke-width="1.5" d="M0,-3.0v7 M-2.5,-0.5L0,-3.0L2.5,-0.5"/>
                </g>
                <g id="arrowLeft" xlink:href="#dirArrow" transform="rotate(270) translate(-36 17)" onmousedown="handlePan(-1,0)">
                  <use xlink:href="#rim" fill="#404040">
                        <set attributeName="fill" to="#808080" begin="arrowLeft.mouseover" end="arrowLeft.mouseout"/>
                  </use>
                  <path fill="none" stroke="white" stroke-width="1.5" d="M0,-3.0v7 M-2.5,-0.5L0,-3.0L2.5,-0.5"/>
                </g>
        </g>
        <svg viewBox="0 0 15 15" width="100%" height="30px" preserveAspectRatio="xMaxYMin meet">
         <g id="arrow_out" transform="scale(0.3 0.3)">
          <a xlink:href="include_2ccf_2crypto_2public__key_8h__incl_org.svg" target="_base">
           <rect id="button" ry="5" rx="5" y="6" x="6" height="38" width="38"
                fill="#f2f5e9" fill-opacity="0.5" stroke="#606060" stroke-width="1.0"/>
           <path id="arrow"
             d="M 11.500037,31.436501 C 11.940474,20.09759 22.043105,11.32322 32.158766,21.979434 L 37.068811,17.246167 C 37.068811,17.246167 37.088388,32 37.088388,32 L 22.160133,31.978069 C 22.160133,31.978069 26.997745,27.140456 26.997745,27.140456 C 18.528582,18.264221 13.291696,25.230495 11.500037,31.436501 z"
             style="fill:#404040;"/>
          </a>
         </g>
        </svg>
</svg>
