<?xml version="1.0" encoding="UTF-8" standalone="no"?>
<!DOCTYPE svg PUBLIC "-//W3C//DTD SVG 1.1//EN"
 "http://www.w3.org/Graphics/SVG/1.1/DTD/svg11.dtd">
<!-- Generated by graphviz version 2.43.0 (0)
 -->
<!-- Title: Graphical Class Hierarchy Pages: 1 -->
<svg width="591pt" height="356pt"
 viewBox="0.00 0.00 591.00 356.00" xmlns="http://www.w3.org/2000/svg" xmlns:xlink="http://www.w3.org/1999/xlink">
<g id="graph0" class="graph" transform="scale(1 1) rotate(0) translate(4 352)">
<title>Graphical Class Hierarchy</title>
<polygon fill="white" stroke="transparent" points="-4,4 -4,-352 587,-352 587,4 -4,4"/>
<!-- Node0 -->
<g id="node1" class="node">
<title>Node0</title>
<g id="a_node1"><a xlink:href="classccf_1_1AbstractNodeSubSystem.html" target="_top" xlink:title=" ">
<polygon fill="white" stroke="black" points="0,-186.5 0,-205.5 157,-205.5 157,-186.5 0,-186.5"/>
<text text-anchor="middle" x="78.5" y="-193.5" font-family="Helvetica,sans-Serif" font-size="10.00">ccf::AbstractNodeSubSystem</text>
</a>
</g>
</g>
<!-- Node1 -->
<g id="node2" class="node">
<title>Node1</title>
<g id="a_node2"><a xlink:href="classccf_1_1AbstractGovernanceEffects.html" target="_top" xlink:title=" ">
<polygon fill="white" stroke="black" points="199.5,-328.5 199.5,-347.5 367.5,-347.5 367.5,-328.5 199.5,-328.5"/>
<text text-anchor="middle" x="283.5" y="-335.5" font-family="Helvetica,sans-Serif" font-size="10.00">ccf::AbstractGovernanceEffects</text>
</a>
</g>
</g>
<!-- Node0&#45;&gt;Node1 -->
<g id="edge1" class="edge">
<title>Node0&#45;&gt;Node1</title>
<path fill="none" stroke="midnightblue" d="M90.8,-214.12C108.86,-241.44 146.92,-292.77 193,-319 199.76,-322.85 207.22,-325.92 214.85,-328.37"/>
<polygon fill="midnightblue" stroke="midnightblue" points="93.63,-212.04 85.27,-205.53 87.75,-215.84 93.63,-212.04"/>
</g>
<!-- Node3 -->
<g id="node4" class="node">
<title>Node3</title>
<g id="a_node4"><a xlink:href="classccf_1_1AbstractHostProcesses.html" target="_top" xlink:title=" ">
<polygon fill="white" stroke="black" points="209.5,-290.5 209.5,-309.5 357.5,-309.5 357.5,-290.5 209.5,-290.5"/>
<text text-anchor="middle" x="283.5" y="-297.5" font-family="Helvetica,sans-Serif" font-size="10.00">ccf::AbstractHostProcesses</text>
</a>
</g>
</g>
<!-- Node0&#45;&gt;Node3 -->
<g id="edge3" class="edge">
<title>Node0&#45;&gt;Node3</title>
<path fill="none" stroke="midnightblue" d="M96.6,-212.65C117.56,-232.08 155,-263.76 193,-281 201.53,-284.87 210.89,-287.97 220.23,-290.44"/>
<polygon fill="midnightblue" stroke="midnightblue" points="98.84,-209.94 89.16,-205.62 94.03,-215.03 98.84,-209.94"/>
</g>
<!-- Node5 -->
<g id="node6" class="node">
<title>Node5</title>
<g id="a_node6"><a xlink:href="classccf_1_1AbstractNodeOperation.html" target="_top" xlink:title=" ">
<polygon fill="white" stroke="black" points="208.5,-252.5 208.5,-271.5 358.5,-271.5 358.5,-252.5 208.5,-252.5"/>
<text text-anchor="middle" x="283.5" y="-259.5" font-family="Helvetica,sans-Serif" font-size="10.00">ccf::AbstractNodeOperation</text>
</a>
</g>
</g>
<!-- Node0&#45;&gt;Node5 -->
<g id="edge5" class="edge">
<title>Node0&#45;&gt;Node5</title>
<path fill="none" stroke="midnightblue" d="M108.95,-209.95C131.54,-220.22 163.72,-233.91 193,-243 204.68,-246.62 217.43,-249.79 229.55,-252.44"/>
<polygon fill="midnightblue" stroke="midnightblue" points="110.14,-206.64 99.59,-205.64 107.21,-213 110.14,-206.64"/>
</g>
<!-- Node7 -->
<g id="node8" class="node">
<title>Node7</title>
<g id="a_node8"><a xlink:href="classccf_1_1NetworkIdentitySubsystemInterface.html" target="_top" xlink:title=" ">
<polygon fill="white" stroke="black" points="199,-203 199,-233 368,-233 368,-203 199,-203"/>
<text text-anchor="start" x="207" y="-221" font-family="Helvetica,sans-Serif" font-size="10.00">ccf::NetworkIdentitySubsystem</text>
<text text-anchor="middle" x="283.5" y="-210" font-family="Helvetica,sans-Serif" font-size="10.00">Interface</text>
</a>
</g>
</g>
<!-- Node0&#45;&gt;Node7 -->
<g id="edge7" class="edge">
<title>Node0&#45;&gt;Node7</title>
<path fill="none" stroke="midnightblue" d="M167.13,-205.5C177.65,-206.64 188.38,-207.8 198.85,-208.93"/>
<polygon fill="midnightblue" stroke="midnightblue" points="167.43,-202.01 157.11,-204.41 166.68,-208.97 167.43,-202.01"/>
</g>
<!-- Node9 -->
<g id="node10" class="node">
<title>Node9</title>
<g id="a_node10"><a xlink:href="classccf_1_1NodeConfigurationSubsystem.html" target="_top" xlink:title=" ">
<polygon fill="white" stroke="black" points="193,-164.5 193,-183.5 374,-183.5 374,-164.5 193,-164.5"/>
<text text-anchor="middle" x="283.5" y="-171.5" font-family="Helvetica,sans-Serif" font-size="10.00">ccf::NodeConfigurationSubsystem</text>
</a>
</g>
</g>
<!-- Node0&#45;&gt;Node9 -->
<g id="edge9" class="edge">
<title>Node0&#45;&gt;Node9</title>
<path fill="none" stroke="midnightblue" d="M167.31,-186.48C176.41,-185.5 185.66,-184.49 194.76,-183.51"/>
<polygon fill="midnightblue" stroke="midnightblue" points="166.68,-183.03 157.11,-187.59 167.43,-189.99 166.68,-183.03"/>
</g>
<!-- Node10 -->
<g id="node11" class="node">
<title>Node10</title>
<g id="a_node11"><a xlink:href="classccf_1_1historical_1_1AbstractStateCache.html" target="_top" xlink:title=" ">
<polygon fill="white" stroke="black" points="219.5,-115 219.5,-145 347.5,-145 347.5,-115 219.5,-115"/>
<text text-anchor="start" x="227.5" y="-133" font-family="Helvetica,sans-Serif" font-size="10.00">ccf::historical::Abstract</text>
<text text-anchor="middle" x="283.5" y="-122" font-family="Helvetica,sans-Serif" font-size="10.00">StateCache</text>
</a>
</g>
</g>
<!-- Node0&#45;&gt;Node10 -->
<g id="edge10" class="edge">
<title>Node0&#45;&gt;Node10</title>
<path fill="none" stroke="midnightblue" d="M113.97,-182.79C136.35,-174.41 166.23,-163.56 193,-155 203.6,-151.61 214.99,-148.23 225.97,-145.1"/>
<polygon fill="midnightblue" stroke="midnightblue" points="112.68,-179.54 104.56,-186.34 115.15,-186.09 112.68,-179.54"/>
</g>
<!-- Node13 -->
<g id="node13" class="node">
<title>Node13</title>
<g id="a_node13"><a xlink:href="classccf_1_1indexing_1_1AbstractLFSAccess.html" target="_top" xlink:title=" ">
<polygon fill="white" stroke="black" points="195.5,-38.5 195.5,-57.5 371.5,-57.5 371.5,-38.5 195.5,-38.5"/>
<text text-anchor="middle" x="283.5" y="-45.5" font-family="Helvetica,sans-Serif" font-size="10.00">ccf::indexing::AbstractLFSAccess</text>
</a>
</g>
</g>
<!-- Node0&#45;&gt;Node13 -->
<g id="edge12" class="edge">
<title>Node0&#45;&gt;Node13</title>
<path fill="none" stroke="midnightblue" d="M90.09,-177.79C107.64,-149.34 145.57,-94.74 193,-67 199.58,-63.15 206.84,-60.08 214.29,-57.62"/>
<polygon fill="midnightblue" stroke="midnightblue" points="87.09,-175.98 84.93,-186.36 93.09,-179.59 87.09,-175.98"/>
</g>
<!-- Node15 -->
<g id="node15" class="node">
<title>Node15</title>
<g id="a_node15"><a xlink:href="classccf_1_1indexing_1_1IndexingStrategies.html" target="_top" xlink:title=" ">
<polygon fill="white" stroke="black" points="195.5,-0.5 195.5,-19.5 371.5,-19.5 371.5,-0.5 195.5,-0.5"/>
<text text-anchor="middle" x="283.5" y="-7.5" font-family="Helvetica,sans-Serif" font-size="10.00">ccf::indexing::IndexingStrategies</text>
</a>
</g>
</g>
<!-- Node0&#45;&gt;Node15 -->
<g id="edge14" class="edge">
<title>Node0&#45;&gt;Node15</title>
<path fill="none" stroke="midnightblue" d="M86.94,-176.51C101.51,-141.09 137.36,-66.38 193,-29 198.67,-25.19 204.96,-22.13 211.5,-19.66"/>
<polygon fill="midnightblue" stroke="midnightblue" points="83.54,-175.57 83.1,-186.16 90.05,-178.16 83.54,-175.57"/>
</g>
<!-- Node2 -->
<g id="node3" class="node">
<title>Node2</title>
<g id="a_node3"><a xlink:href="classccf_1_1GovernanceEffects.html" target="_top" xlink:title=" ">
<polygon fill="white" stroke="black" points="432.5,-328.5 432.5,-347.5 560.5,-347.5 560.5,-328.5 432.5,-328.5"/>
<text text-anchor="middle" x="496.5" y="-335.5" font-family="Helvetica,sans-Serif" font-size="10.00">ccf::GovernanceEffects</text>
</a>
</g>
</g>
<!-- Node1&#45;&gt;Node2 -->
<g id="edge2" class="edge">
<title>Node1&#45;&gt;Node2</title>
<path fill="none" stroke="midnightblue" d="M377.78,-338C396.24,-338 415.21,-338 432.38,-338"/>
<polygon fill="midnightblue" stroke="midnightblue" points="377.59,-334.5 367.59,-338 377.59,-341.5 377.59,-334.5"/>
</g>
<!-- Node4 -->
<g id="node5" class="node">
<title>Node4</title>
<g id="a_node5"><a xlink:href="classccf_1_1HostProcesses.html" target="_top" xlink:title=" ">
<polygon fill="white" stroke="black" points="443,-290.5 443,-309.5 550,-309.5 550,-290.5 443,-290.5"/>
<text text-anchor="middle" x="496.5" y="-297.5" font-family="Helvetica,sans-Serif" font-size="10.00">ccf::HostProcesses</text>
</a>
</g>
</g>
<!-- Node3&#45;&gt;Node4 -->
<g id="edge4" class="edge">
<title>Node3&#45;&gt;Node4</title>
<path fill="none" stroke="midnightblue" d="M368,-300C393.18,-300 420.11,-300 442.71,-300"/>
<polygon fill="midnightblue" stroke="midnightblue" points="367.71,-296.5 357.71,-300 367.71,-303.5 367.71,-296.5"/>
</g>
<!-- Node6 -->
<g id="node7" class="node">
<title>Node6</title>
<g id="a_node7"><a xlink:href="classccf_1_1NodeOperation.html" target="_top" xlink:title=" ">
<polygon fill="white" stroke="black" points="441.5,-252.5 441.5,-271.5 551.5,-271.5 551.5,-252.5 441.5,-252.5"/>
<text text-anchor="middle" x="496.5" y="-259.5" font-family="Helvetica,sans-Serif" font-size="10.00">ccf::NodeOperation</text>
</a>
</g>
</g>
<!-- Node5&#45;&gt;Node6 -->
<g id="edge6" class="edge">
<title>Node5&#45;&gt;Node6</title>
<path fill="none" stroke="midnightblue" d="M368.92,-262C393.27,-262 419.18,-262 441.18,-262"/>
<polygon fill="midnightblue" stroke="midnightblue" points="368.59,-258.5 358.59,-262 368.59,-265.5 368.59,-258.5"/>
</g>
<!-- Node8 -->
<g id="node9" class="node">
<title>Node8</title>
<g id="a_node9"><a xlink:href="classccf_1_1NetworkIdentitySubsystem.html" target="_top" xlink:title=" ">
<polygon fill="white" stroke="black" points="412,-208.5 412,-227.5 581,-227.5 581,-208.5 412,-208.5"/>
<text text-anchor="middle" x="496.5" y="-215.5" font-family="Helvetica,sans-Serif" font-size="10.00">ccf::NetworkIdentitySubsystem</text>
</a>
</g>
</g>
<!-- Node7&#45;&gt;Node8 -->
<g id="edge8" class="edge">
<title>Node7&#45;&gt;Node8</title>
<path fill="none" stroke="midnightblue" d="M378.39,-218C389.55,-218 400.9,-218 411.91,-218"/>
<polygon fill="midnightblue" stroke="midnightblue" points="378.2,-214.5 368.2,-218 378.2,-221.5 378.2,-214.5"/>
</g>
<!-- Node11 -->
<g id="node12" class="node">
<title>Node11</title>
<g id="a_node12"><a xlink:href="classccf_1_1historical_1_1StateCache.html" target="_top" xlink:title=" ">
<polygon fill="white" stroke="black" points="425,-98.5 425,-117.5 568,-117.5 568,-98.5 425,-98.5"/>
<text text-anchor="middle" x="496.5" y="-105.5" font-family="Helvetica,sans-Serif" font-size="10.00">ccf::historical::StateCache</text>
</a>
</g>
</g>
<!-- Node10&#45;&gt;Node11 -->
<g id="edge11" class="edge">
<title>Node10&#45;&gt;Node11</title>
<path fill="none" stroke="midnightblue" d="M357.67,-122.37C379.38,-120.11 403.12,-117.63 424.68,-115.38"/>
<polygon fill="midnightblue" stroke="midnightblue" points="357.1,-118.91 347.52,-123.43 357.83,-125.87 357.1,-118.91"/>
</g>
<!-- Node14 -->
<g id="node14" class="node">
<title>Node14</title>
<g id="a_node14"><a xlink:href="classccf_1_1indexing_1_1EnclaveLFSAccess.html" target="_top" xlink:title=" ">
<polygon fill="white" stroke="black" points="410,-38.5 410,-57.5 583,-57.5 583,-38.5 410,-38.5"/>
<text text-anchor="middle" x="496.5" y="-45.5" font-family="Helvetica,sans-Serif" font-size="10.00">ccf::indexing::EnclaveLFSAccess</text>
</a>
</g>
</g>
<!-- Node13&#45;&gt;Node14 -->
<g id="edge13" class="edge">
<title>Node13&#45;&gt;Node14</title>
<path fill="none" stroke="midnightblue" d="M381.64,-48C391,-48 400.44,-48 409.68,-48"/>
<polygon fill="midnightblue" stroke="midnightblue" points="381.54,-44.5 371.54,-48 381.54,-51.5 381.54,-44.5"/>
</g>
<!-- Node16 -->
<g id="node16" class="node">
<title>Node16</title>
<g id="a_node16"><a xlink:href="classccf_1_1indexing_1_1Indexer.html" target="_top" xlink:title=" ">
<polygon fill="white" stroke="black" points="436.5,-0.5 436.5,-19.5 556.5,-19.5 556.5,-0.5 436.5,-0.5"/>
<text text-anchor="middle" x="496.5" y="-7.5" font-family="Helvetica,sans-Serif" font-size="10.00">ccf::indexing::Indexer</text>
</a>
</g>
</g>
<!-- Node15&#45;&gt;Node16 -->
<g id="edge15" class="edge">
<title>Node15&#45;&gt;Node16</title>
<path fill="none" stroke="midnightblue" d="M381.56,-10C400.24,-10 419.28,-10 436.3,-10"/>
<polygon fill="midnightblue" stroke="midnightblue" points="381.54,-6.5 371.54,-10 381.54,-13.5 381.54,-6.5"/>
</g>
<!-- Node12 -->
<g id="node17" class="node">
<title>Node12</title>
<g id="a_node17"><a xlink:href="classccf_1_1historical_1_1StateCacheImpl.html" target="_top" xlink:title=" ">
<polygon fill="white" stroke="black" points="201.5,-76.5 201.5,-95.5 365.5,-95.5 365.5,-76.5 201.5,-76.5"/>
<text text-anchor="middle" x="283.5" y="-83.5" font-family="Helvetica,sans-Serif" font-size="10.00">ccf::historical::StateCacheImpl</text>
</a>
</g>
</g>
<!-- Node12&#45;&gt;Node11 -->
<g id="edge16" class="edge">
<title>Node12&#45;&gt;Node11</title>
<path fill="none" stroke="midnightblue" d="M375.92,-95.53C392.34,-97.24 409.21,-99 424.92,-100.64"/>
<polygon fill="midnightblue" stroke="midnightblue" points="376.09,-92.03 365.78,-94.47 375.36,-98.99 376.09,-92.03"/>
</g>
</g>
</svg>
