<?xml version="1.0" encoding="UTF-8" standalone="no"?>
<!DOCTYPE svg PUBLIC "-//W3C//DTD SVG 1.1//EN"
 "http://www.w3.org/Graphics/SVG/1.1/DTD/svg11.dtd">
<!-- Generated by graphviz version 2.43.0 (0)
 -->
<!-- Title: src/host/load_monitor.h Pages: 1 -->
<!--zoomable 364 -->
<svg id="main" version="1.1" xmlns="http://www.w3.org/2000/svg" xmlns:xlink="http://www.w3.org/1999/xlink" xml:space="preserve" onload="init(evt)">
<style type="text/css"><![CDATA[
.edge:hover path { stroke: red; }
.edge:hover polygon { stroke: red; fill: red; }
]]></style>
<script type="text/javascript"><![CDATA[
var edges = document.getElementsByTagName('g');
if (edges && edges.length) {
  for (var i=0;i<edges.length;i++) {
    if (edges[i].id.substr(0,4)=='edge') {
      edges[i].setAttribute('class','edge');
    }
  }
}
]]></script>
        <defs>
                <circle id="rim" cx="0" cy="0" r="7"/>
                <circle id="rim2" cx="0" cy="0" r="3.5"/>
                <g id="zoomPlus">
                        <use xlink:href="#rim" fill="#404040">
                                <set attributeName="fill" to="#808080" begin="zoomplus.mouseover" end="zoomplus.mouseout"/>
                        </use>
                        <path d="M-4,0h8M0,-4v8" fill="none" stroke="white" stroke-width="1.5" pointer-events="none"/>
                </g>
                <g id="zoomMin">
                        <use xlink:href="#rim" fill="#404040">
                                <set attributeName="fill" to="#808080" begin="zoomminus.mouseover" end="zoomminus.mouseout"/>
                        </use>
                        <path d="M-4,0h8" fill="none" stroke="white" stroke-width="1.5" pointer-events="none"/>
                </g>
                <g id="dirArrow">
                        <path fill="none" stroke="white" stroke-width="1.5" d="M0,-3.0v7 M-2.5,-0.5L0,-3.0L2.5,-0.5"/>
                </g>
               <g id="resetDef">
                       <use xlink:href="#rim2" fill="#404040">
                               <set attributeName="fill" to="#808080" begin="reset.mouseover" end="reset.mouseout"/>
                       </use>
               </g>
        </defs>

<script type="text/javascript">
var viewWidth = 1465;
var viewHeight = 364;
var sectionId = 'dynsection-0';
</script>
<script xlink:href="svgpan.js"/>
<svg id="graph" class="graph">
<g id="viewport">
<title>src/host/load_monitor.h</title>
<polygon fill="white" stroke="transparent" points="-4,4 -4,-360 1461.09,-360 1461.09,4 -4,4"/>
<!-- Node1 -->
<g id="node1" class="node">
<title>Node1</title>
<g id="a_node1"><a xlink:title=" ">
<polygon fill="#bfbfbf" stroke="black" points="909.59,-336.5 909.59,-355.5 1040.59,-355.5 1040.59,-336.5 909.59,-336.5"/>
<text text-anchor="middle" x="975.09" y="-343.5" font-family="Helvetica,sans-Serif" font-size="10.00">src/host/load_monitor.h</text>
</a>
</g>
</g>
<!-- Node2 -->
<g id="node2" class="node">
<title>Node2</title>
<g id="a_node2"><a xlink:href="messaging_8h.html" target="_top" xlink:title=" ">
<polygon fill="white" stroke="black" points="557.59,-280.5 557.59,-299.5 650.59,-299.5 650.59,-280.5 557.59,-280.5"/>
<text text-anchor="middle" x="604.09" y="-287.5" font-family="Helvetica,sans-Serif" font-size="10.00">ds/messaging.h</text>
</a>
</g>
</g>
<!-- Node1&#45;&gt;Node2 -->
<g id="edge1" class="edge">
<title>Node1&#45;&gt;Node2</title>
<path fill="none" stroke="midnightblue" d="M916.31,-336.44C846.34,-326.26 730.31,-309.37 661.13,-299.3"/>
<polygon fill="midnightblue" stroke="midnightblue" points="661.26,-295.78 650.86,-297.81 660.25,-302.71 661.26,-295.78"/>
</g>
<!-- Node41 -->
<g id="node41" class="node">
<title>Node41</title>
<g id="a_node41"><a xlink:href="timer_8h.html" target="_top" xlink:title=" ">
<polygon fill="white" stroke="black" points="1337.59,-280.5 1337.59,-299.5 1388.59,-299.5 1388.59,-280.5 1337.59,-280.5"/>
<text text-anchor="middle" x="1363.09" y="-287.5" font-family="Helvetica,sans-Serif" font-size="10.00">timer.h</text>
</a>
</g>
</g>
<!-- Node1&#45;&gt;Node41 -->
<g id="edge62" class="edge">
<title>Node1&#45;&gt;Node41</title>
<path fill="none" stroke="midnightblue" d="M1036.57,-336.44C1118.52,-325.04 1260.88,-305.22 1327.19,-296"/>
<polygon fill="midnightblue" stroke="midnightblue" points="1327.74,-299.45 1337.16,-294.61 1326.77,-292.52 1327.74,-299.45"/>
</g>
<!-- Node3 -->
<g id="node3" class="node">
<title>Node3</title>
<g id="a_node3"><a xlink:href="logger_8h.html" target="_top" xlink:title=" ">
<polygon fill="white" stroke="black" points="560.59,-224.5 560.59,-243.5 647.59,-243.5 647.59,-224.5 560.59,-224.5"/>
<text text-anchor="middle" x="604.09" y="-231.5" font-family="Helvetica,sans-Serif" font-size="10.00">ccf/ds/logger.h</text>
</a>
</g>
</g>
<!-- Node2&#45;&gt;Node3 -->
<g id="edge2" class="edge">
<title>Node2&#45;&gt;Node3</title>
<path fill="none" stroke="midnightblue" d="M604.09,-280.08C604.09,-273.01 604.09,-262.86 604.09,-253.99"/>
<polygon fill="midnightblue" stroke="midnightblue" points="607.59,-253.75 604.09,-243.75 600.59,-253.75 607.59,-253.75"/>
</g>
<!-- Node9 -->
<g id="node9" class="node">
<title>Node9</title>
<g id="a_node9"><a xlink:title=" ">
<polygon fill="white" stroke="#bfbfbf" points="150.09,-112.5 150.09,-131.5 188.09,-131.5 188.09,-112.5 150.09,-112.5"/>
<text text-anchor="middle" x="169.09" y="-119.5" font-family="Helvetica,sans-Serif" font-size="10.00">map</text>
</a>
</g>
</g>
<!-- Node2&#45;&gt;Node9 -->
<g id="edge60" class="edge">
<title>Node2&#45;&gt;Node9</title>
<path fill="none" stroke="midnightblue" d="M557.2,-286.46C446.84,-279.39 175.86,-255.4 121.09,-188 107.41,-171.16 127.79,-150.94 146.06,-137.57"/>
<polygon fill="midnightblue" stroke="midnightblue" points="148.46,-140.16 154.7,-131.6 144.49,-134.4 148.46,-140.16"/>
</g>
<!-- Node17 -->
<g id="node17" class="node">
<title>Node17</title>
<g id="a_node17"><a xlink:href="ring__buffer_8h.html" target="_top" xlink:title=" ">
<polygon fill="white" stroke="black" points="1157.59,-224.5 1157.59,-243.5 1234.59,-243.5 1234.59,-224.5 1157.59,-224.5"/>
<text text-anchor="middle" x="1196.09" y="-231.5" font-family="Helvetica,sans-Serif" font-size="10.00">ring_buffer.h</text>
</a>
</g>
</g>
<!-- Node2&#45;&gt;Node17 -->
<g id="edge18" class="edge">
<title>Node2&#45;&gt;Node17</title>
<path fill="none" stroke="midnightblue" d="M650.74,-286.44C744.34,-281.02 961.66,-266.94 1143.09,-244 1144.4,-243.84 1145.71,-243.66 1147.04,-243.48"/>
<polygon fill="midnightblue" stroke="midnightblue" points="1147.98,-246.88 1157.36,-241.97 1146.96,-239.96 1147.98,-246.88"/>
</g>
<!-- Node35 -->
<g id="node35" class="node">
<title>Node35</title>
<g id="a_node35"><a xlink:title=" ">
<polygon fill="white" stroke="#bfbfbf" points="345.59,-0.5 345.59,-19.5 410.59,-19.5 410.59,-0.5 345.59,-0.5"/>
<text text-anchor="middle" x="378.09" y="-7.5" font-family="Helvetica,sans-Serif" font-size="10.00">stdexcept</text>
</a>
</g>
</g>
<!-- Node2&#45;&gt;Node35 -->
<g id="edge61" class="edge">
<title>Node2&#45;&gt;Node35</title>
<path fill="none" stroke="midnightblue" d="M557.38,-288.41C426.23,-286.33 61.45,-277.56 20.09,-244 -3.28,-225.04 1.09,-209.1 1.09,-179 1.09,-179 1.09,-179 1.09,-121 1.09,-103.76 236.61,-45.05 335.34,-21.2"/>
<polygon fill="midnightblue" stroke="midnightblue" points="336.39,-24.55 345.3,-18.8 334.75,-17.74 336.39,-24.55"/>
</g>
<!-- Node38 -->
<g id="node38" class="node">
<title>Node38</title>
<g id="a_node38"><a xlink:title=" ">
<polygon fill="white" stroke="#bfbfbf" points="1071.09,-112.5 1071.09,-131.5 1121.09,-131.5 1121.09,-112.5 1071.09,-112.5"/>
<text text-anchor="middle" x="1096.09" y="-119.5" font-family="Helvetica,sans-Serif" font-size="10.00">atomic</text>
</a>
</g>
</g>
<!-- Node2&#45;&gt;Node38 -->
<g id="edge58" class="edge">
<title>Node2&#45;&gt;Node38</title>
<path fill="none" stroke="midnightblue" d="M650.87,-280.64C723.72,-266.71 867.89,-235.52 983.09,-188 1016.96,-174.03 1053.18,-151.74 1075.23,-137.23"/>
<polygon fill="midnightblue" stroke="midnightblue" points="1077.39,-140 1083.77,-131.54 1073.51,-134.18 1077.39,-140"/>
</g>
<!-- Node40 -->
<g id="node40" class="node">
<title>Node40</title>
<g id="a_node40"><a xlink:title=" ">
<polygon fill="white" stroke="#bfbfbf" points="29.59,-224.5 29.59,-243.5 136.59,-243.5 136.59,-224.5 29.59,-224.5"/>
<text text-anchor="middle" x="83.09" y="-231.5" font-family="Helvetica,sans-Serif" font-size="10.00">condition_variable</text>
</a>
</g>
</g>
<!-- Node2&#45;&gt;Node40 -->
<g id="edge59" class="edge">
<title>Node2&#45;&gt;Node40</title>
<path fill="none" stroke="midnightblue" d="M557.41,-284.87C475.21,-277.48 299.28,-261.16 151.09,-244 149.8,-243.85 148.48,-243.7 147.16,-243.54"/>
<polygon fill="midnightblue" stroke="midnightblue" points="147.25,-240.02 136.89,-242.29 146.4,-246.97 147.25,-240.02"/>
</g>
<!-- Node4 -->
<g id="node4" class="node">
<title>Node4</title>
<g id="a_node4"><a xlink:href="enum__formatter_8h.html" target="_top" xlink:title=" ">
<polygon fill="white" stroke="black" points="536.09,-168.5 536.09,-187.5 672.09,-187.5 672.09,-168.5 536.09,-168.5"/>
<text text-anchor="middle" x="604.09" y="-175.5" font-family="Helvetica,sans-Serif" font-size="10.00">ccf/ds/enum_formatter.h</text>
</a>
</g>
</g>
<!-- Node3&#45;&gt;Node4 -->
<g id="edge3" class="edge">
<title>Node3&#45;&gt;Node4</title>
<path fill="none" stroke="midnightblue" d="M604.09,-224.08C604.09,-217.01 604.09,-206.86 604.09,-197.99"/>
<polygon fill="midnightblue" stroke="midnightblue" points="607.59,-197.75 604.09,-187.75 600.59,-197.75 607.59,-197.75"/>
</g>
<!-- Node5 -->
<g id="node5" class="node">
<title>Node5</title>
<g id="a_node5"><a xlink:title=" ">
<polygon fill="white" stroke="#bfbfbf" points="464.59,-112.5 464.59,-131.5 543.59,-131.5 543.59,-112.5 464.59,-112.5"/>
<text text-anchor="middle" x="504.09" y="-119.5" font-family="Helvetica,sans-Serif" font-size="10.00">fmt/format.h</text>
</a>
</g>
</g>
<!-- Node3&#45;&gt;Node5 -->
<g id="edge12" class="edge">
<title>Node3&#45;&gt;Node5</title>
<path fill="none" stroke="midnightblue" d="M628.99,-224.47C657.98,-213.18 699.67,-191.89 681.09,-168 673.15,-157.78 603.36,-142.3 553.83,-132.42"/>
<polygon fill="midnightblue" stroke="midnightblue" points="554.4,-128.96 543.91,-130.46 553.04,-135.83 554.4,-128.96"/>
</g>
<!-- Node6 -->
<g id="node6" class="node">
<title>Node6</title>
<g id="a_node6"><a xlink:href="thread__ids_8h.html" target="_top" xlink:title=" ">
<polygon fill="white" stroke="black" points="336.09,-168.5 336.09,-187.5 444.09,-187.5 444.09,-168.5 336.09,-168.5"/>
<text text-anchor="middle" x="390.09" y="-175.5" font-family="Helvetica,sans-Serif" font-size="10.00">ccf/ds/thread_ids.h</text>
</a>
</g>
</g>
<!-- Node3&#45;&gt;Node6 -->
<g id="edge5" class="edge">
<title>Node3&#45;&gt;Node6</title>
<path fill="none" stroke="midnightblue" d="M570.18,-224.44C533.24,-215.12 474.04,-200.18 433.67,-190"/>
<polygon fill="midnightblue" stroke="midnightblue" points="434.4,-186.57 423.84,-187.52 432.68,-193.36 434.4,-186.57"/>
</g>
<!-- Node11 -->
<g id="node11" class="node">
<title>Node11</title>
<g id="a_node11"><a xlink:title=" ">
<polygon fill="white" stroke="#bfbfbf" points="766.59,-168.5 766.59,-187.5 845.59,-187.5 845.59,-168.5 766.59,-168.5"/>
<text text-anchor="middle" x="806.09" y="-175.5" font-family="Helvetica,sans-Serif" font-size="10.00">fmt/chrono.h</text>
</a>
</g>
</g>
<!-- Node3&#45;&gt;Node11 -->
<g id="edge11" class="edge">
<title>Node3&#45;&gt;Node11</title>
<path fill="none" stroke="midnightblue" d="M636.1,-224.44C670.82,-215.16 726.38,-200.31 764.47,-190.13"/>
<polygon fill="midnightblue" stroke="midnightblue" points="765.48,-193.48 774.24,-187.52 763.67,-186.72 765.48,-193.48"/>
</g>
<!-- Node12 -->
<g id="node12" class="node">
<title>Node12</title>
<g id="a_node12"><a xlink:title=" ">
<polygon fill="white" stroke="#bfbfbf" points="130.09,-168.5 130.09,-187.5 190.09,-187.5 190.09,-168.5 130.09,-168.5"/>
<text text-anchor="middle" x="160.09" y="-175.5" font-family="Helvetica,sans-Serif" font-size="10.00">iostream</text>
</a>
</g>
</g>
<!-- Node3&#45;&gt;Node12 -->
<g id="edge13" class="edge">
<title>Node3&#45;&gt;Node12</title>
<path fill="none" stroke="midnightblue" d="M560.41,-229.82C487.73,-224.17 337.26,-210.91 200.5,-188.06"/>
<polygon fill="midnightblue" stroke="midnightblue" points="200.7,-184.54 190.26,-186.33 199.53,-191.45 200.7,-184.54"/>
</g>
<!-- Node13 -->
<g id="node13" class="node">
<title>Node13</title>
<g id="a_node13"><a xlink:title=" ">
<polygon fill="white" stroke="#bfbfbf" points="208.09,-168.5 208.09,-187.5 318.09,-187.5 318.09,-168.5 208.09,-168.5"/>
<text text-anchor="middle" x="263.09" y="-175.5" font-family="Helvetica,sans-Serif" font-size="10.00">nlohmann/json.hpp</text>
</a>
</g>
</g>
<!-- Node3&#45;&gt;Node13 -->
<g id="edge14" class="edge">
<title>Node3&#45;&gt;Node13</title>
<path fill="none" stroke="midnightblue" d="M560.56,-226.11C501.47,-216.75 395.44,-199.96 327.23,-189.16"/>
<polygon fill="midnightblue" stroke="midnightblue" points="327.46,-185.65 317.03,-187.54 326.36,-192.56 327.46,-185.65"/>
</g>
<!-- Node14 -->
<g id="node14" class="node">
<title>Node14</title>
<g id="a_node14"><a xlink:title=" ">
<polygon fill="white" stroke="#bfbfbf" points="561.09,-112.5 561.09,-131.5 617.09,-131.5 617.09,-112.5 561.09,-112.5"/>
<text text-anchor="middle" x="589.09" y="-119.5" font-family="Helvetica,sans-Serif" font-size="10.00">optional</text>
</a>
</g>
</g>
<!-- Node3&#45;&gt;Node14 -->
<g id="edge15" class="edge">
<title>Node3&#45;&gt;Node14</title>
<path fill="none" stroke="midnightblue" d="M647.87,-224.59C686.73,-215.06 734.44,-196.95 714.09,-168 708.83,-160.51 661.98,-144.99 627.18,-134.29"/>
<polygon fill="midnightblue" stroke="midnightblue" points="627.86,-130.84 617.27,-131.28 625.82,-137.54 627.86,-130.84"/>
</g>
<!-- Node15 -->
<g id="node15" class="node">
<title>Node15</title>
<g id="a_node15"><a xlink:title=" ">
<polygon fill="white" stroke="#bfbfbf" points="462.09,-168.5 462.09,-187.5 518.09,-187.5 518.09,-168.5 462.09,-168.5"/>
<text text-anchor="middle" x="490.09" y="-175.5" font-family="Helvetica,sans-Serif" font-size="10.00">sstream</text>
</a>
</g>
</g>
<!-- Node3&#45;&gt;Node15 -->
<g id="edge16" class="edge">
<title>Node3&#45;&gt;Node15</title>
<path fill="none" stroke="midnightblue" d="M586.03,-224.44C567.52,-215.68 538.51,-201.94 517.24,-191.86"/>
<polygon fill="midnightblue" stroke="midnightblue" points="518.61,-188.63 508.07,-187.52 515.61,-194.96 518.61,-188.63"/>
</g>
<!-- Node16 -->
<g id="node16" class="node">
<title>Node16</title>
<g id="a_node16"><a xlink:title=" ">
<polygon fill="white" stroke="#bfbfbf" points="1105.59,-0.5 1105.59,-19.5 1174.59,-19.5 1174.59,-0.5 1105.59,-0.5"/>
<text text-anchor="middle" x="1140.09" y="-7.5" font-family="Helvetica,sans-Serif" font-size="10.00">type_traits</text>
</a>
</g>
</g>
<!-- Node3&#45;&gt;Node16 -->
<g id="edge17" class="edge">
<title>Node3&#45;&gt;Node16</title>
<path fill="none" stroke="midnightblue" d="M647.62,-231.3C718.75,-227.76 863.89,-217.31 983.09,-188 1050.98,-171.31 1076.38,-176.75 1130.09,-132 1158.52,-108.32 1173.07,-91.9 1164.09,-56 1161.65,-46.25 1156.66,-36.29 1151.85,-28.23"/>
<polygon fill="midnightblue" stroke="midnightblue" points="1154.78,-26.32 1146.46,-19.77 1148.88,-30.08 1154.78,-26.32"/>
</g>
<!-- Node4&#45;&gt;Node5 -->
<g id="edge4" class="edge">
<title>Node4&#45;&gt;Node5</title>
<path fill="none" stroke="midnightblue" d="M588.03,-168.32C572.14,-159.74 547.59,-146.49 529.13,-136.52"/>
<polygon fill="midnightblue" stroke="midnightblue" points="530.58,-133.33 520.12,-131.65 527.26,-139.49 530.58,-133.33"/>
</g>
<!-- Node6&#45;&gt;Node5 -->
<g id="edge6" class="edge">
<title>Node6&#45;&gt;Node5</title>
<path fill="none" stroke="midnightblue" d="M408.16,-168.44C426.67,-159.68 455.67,-145.94 476.95,-135.86"/>
<polygon fill="midnightblue" stroke="midnightblue" points="478.57,-138.96 486.11,-131.52 475.58,-132.63 478.57,-138.96"/>
</g>
<!-- Node7 -->
<g id="node7" class="node">
<title>Node7</title>
<g id="a_node7"><a xlink:title=" ">
<polygon fill="white" stroke="#bfbfbf" points="232.09,-112.5 232.09,-131.5 318.09,-131.5 318.09,-112.5 232.09,-112.5"/>
<text text-anchor="middle" x="275.09" y="-119.5" font-family="Helvetica,sans-Serif" font-size="10.00">fmt/ostream.h</text>
</a>
</g>
</g>
<!-- Node6&#45;&gt;Node7 -->
<g id="edge7" class="edge">
<title>Node6&#45;&gt;Node7</title>
<path fill="none" stroke="midnightblue" d="M371.87,-168.44C353.2,-159.68 323.94,-145.94 302.48,-135.86"/>
<polygon fill="midnightblue" stroke="midnightblue" points="303.77,-132.6 293.23,-131.52 300.79,-138.93 303.77,-132.6"/>
</g>
<!-- Node8 -->
<g id="node8" class="node">
<title>Node8</title>
<g id="a_node8"><a xlink:title=" ">
<polygon fill="white" stroke="#bfbfbf" points="336.09,-112.5 336.09,-131.5 380.09,-131.5 380.09,-112.5 336.09,-112.5"/>
<text text-anchor="middle" x="358.09" y="-119.5" font-family="Helvetica,sans-Serif" font-size="10.00">limits</text>
</a>
</g>
</g>
<!-- Node6&#45;&gt;Node8 -->
<g id="edge8" class="edge">
<title>Node6&#45;&gt;Node8</title>
<path fill="none" stroke="midnightblue" d="M384.81,-168.08C380.38,-160.61 373.93,-149.72 368.48,-140.52"/>
<polygon fill="midnightblue" stroke="midnightblue" points="371.39,-138.57 363.28,-131.75 365.37,-142.14 371.39,-138.57"/>
</g>
<!-- Node6&#45;&gt;Node9 -->
<g id="edge9" class="edge">
<title>Node6&#45;&gt;Node9</title>
<path fill="none" stroke="midnightblue" d="M355.07,-168.44C311.63,-157.83 238.38,-139.93 197.98,-130.06"/>
<polygon fill="midnightblue" stroke="midnightblue" points="198.77,-126.65 188.23,-127.67 197.11,-133.45 198.77,-126.65"/>
</g>
<!-- Node10 -->
<g id="node10" class="node">
<title>Node10</title>
<g id="a_node10"><a xlink:title=" ">
<polygon fill="white" stroke="#bfbfbf" points="398.09,-112.5 398.09,-131.5 446.09,-131.5 446.09,-112.5 398.09,-112.5"/>
<text text-anchor="middle" x="422.09" y="-119.5" font-family="Helvetica,sans-Serif" font-size="10.00">thread</text>
</a>
</g>
</g>
<!-- Node6&#45;&gt;Node10 -->
<g id="edge10" class="edge">
<title>Node6&#45;&gt;Node10</title>
<path fill="none" stroke="midnightblue" d="M395.38,-168.08C399.8,-160.61 406.26,-149.72 411.71,-140.52"/>
<polygon fill="midnightblue" stroke="midnightblue" points="414.82,-142.14 416.91,-131.75 408.8,-138.57 414.82,-142.14"/>
</g>
<!-- Node18 -->
<g id="node18" class="node">
<title>Node18</title>
<g id="a_node18"><a xlink:href="ccf__memcpy_8h.html" target="_top" xlink:title=" ">
<polygon fill="white" stroke="black" points="1211.09,-56.5 1211.09,-75.5 1297.09,-75.5 1297.09,-56.5 1211.09,-56.5"/>
<text text-anchor="middle" x="1254.09" y="-63.5" font-family="Helvetica,sans-Serif" font-size="10.00">ccf_memcpy.h</text>
</a>
</g>
</g>
<!-- Node17&#45;&gt;Node18 -->
<g id="edge19" class="edge">
<title>Node17&#45;&gt;Node18</title>
<path fill="none" stroke="midnightblue" d="M1205.9,-224.39C1214.76,-216.02 1227.41,-202.48 1234.09,-188 1249.66,-154.29 1253.3,-110.36 1254.04,-85.78"/>
<polygon fill="midnightblue" stroke="midnightblue" points="1257.54,-85.72 1254.21,-75.67 1250.54,-85.61 1257.54,-85.72"/>
</g>
<!-- Node19 -->
<g id="node19" class="node">
<title>Node19</title>
<g id="a_node19"><a xlink:title=" ">
<polygon fill="white" stroke="#bfbfbf" points="1229.09,-0.5 1229.09,-19.5 1279.09,-19.5 1279.09,-0.5 1229.09,-0.5"/>
<text text-anchor="middle" x="1254.09" y="-7.5" font-family="Helvetica,sans-Serif" font-size="10.00">cstring</text>
</a>
</g>
</g>
<!-- Node17&#45;&gt;Node19 -->
<g id="edge56" class="edge">
<title>Node17&#45;&gt;Node19</title>
<path fill="none" stroke="midnightblue" d="M1209.99,-224.42C1222.3,-216.27 1240.14,-203.04 1252.09,-188 1286.48,-144.74 1293.78,-129.87 1306.09,-76 1308.07,-67.33 1309.79,-64.08 1306.09,-56 1300.32,-43.36 1289.04,-32.91 1278.46,-25.27"/>
<polygon fill="midnightblue" stroke="midnightblue" points="1280.13,-22.18 1269.88,-19.53 1276.24,-28 1280.13,-22.18"/>
</g>
<!-- Node20 -->
<g id="node20" class="node">
<title>Node20</title>
<g id="a_node20"><a xlink:href="ring__buffer__types_8h.html" target="_top" xlink:title=" ">
<polygon fill="white" stroke="black" points="864.09,-168.5 864.09,-187.5 974.09,-187.5 974.09,-168.5 864.09,-168.5"/>
<text text-anchor="middle" x="919.09" y="-175.5" font-family="Helvetica,sans-Serif" font-size="10.00">ring_buffer_types.h</text>
</a>
</g>
</g>
<!-- Node17&#45;&gt;Node20 -->
<g id="edge21" class="edge">
<title>Node17&#45;&gt;Node20</title>
<path fill="none" stroke="midnightblue" d="M1157.58,-225.49C1109.54,-216.13 1027.13,-200.06 972.88,-189.48"/>
<polygon fill="midnightblue" stroke="midnightblue" points="973.24,-185.99 962.76,-187.51 971.9,-192.86 973.24,-185.99"/>
</g>
<!-- Node39 -->
<g id="node39" class="node">
<title>Node39</title>
<g id="a_node39"><a xlink:title=" ">
<polygon fill="white" stroke="#bfbfbf" points="1160.59,-168.5 1160.59,-187.5 1225.59,-187.5 1225.59,-168.5 1160.59,-168.5"/>
<text text-anchor="middle" x="1193.09" y="-175.5" font-family="Helvetica,sans-Serif" font-size="10.00">functional</text>
</a>
</g>
</g>
<!-- Node17&#45;&gt;Node39 -->
<g id="edge57" class="edge">
<title>Node17&#45;&gt;Node39</title>
<path fill="none" stroke="midnightblue" d="M1195.6,-224.08C1195.2,-217.01 1194.64,-206.86 1194.15,-197.99"/>
<polygon fill="midnightblue" stroke="midnightblue" points="1197.63,-197.54 1193.58,-187.75 1190.64,-197.93 1197.63,-197.54"/>
</g>
<!-- Node18&#45;&gt;Node19 -->
<g id="edge20" class="edge">
<title>Node18&#45;&gt;Node19</title>
<path fill="none" stroke="midnightblue" d="M1254.09,-56.08C1254.09,-49.01 1254.09,-38.86 1254.09,-29.99"/>
<polygon fill="midnightblue" stroke="midnightblue" points="1257.59,-29.75 1254.09,-19.75 1250.59,-29.75 1257.59,-29.75"/>
</g>
<!-- Node20&#45;&gt;Node5 -->
<g id="edge52" class="edge">
<title>Node20&#45;&gt;Node5</title>
<path fill="none" stroke="midnightblue" d="M863.78,-169.27C860.51,-168.83 857.26,-168.41 854.09,-168 723.3,-151.15 687.44,-152.39 553.83,-132.18"/>
<polygon fill="midnightblue" stroke="midnightblue" points="554.02,-128.67 543.61,-130.63 552.97,-135.59 554.02,-128.67"/>
</g>
<!-- Node20&#45;&gt;Node14 -->
<g id="edge53" class="edge">
<title>Node20&#45;&gt;Node14</title>
<path fill="none" stroke="midnightblue" d="M863.85,-169.1C796.21,-159.33 684.53,-142.86 627.34,-132.08"/>
<polygon fill="midnightblue" stroke="midnightblue" points="627.8,-128.6 617.32,-130.13 626.47,-135.47 627.8,-128.6"/>
</g>
<!-- Node21 -->
<g id="node21" class="node">
<title>Node21</title>
<g id="a_node21"><a xlink:href="include_2ccf_2ds_2hash_8h.html" target="_top" xlink:title=" ">
<polygon fill="white" stroke="black" points="635.09,-112.5 635.09,-131.5 715.09,-131.5 715.09,-112.5 635.09,-112.5"/>
<text text-anchor="middle" x="675.09" y="-119.5" font-family="Helvetica,sans-Serif" font-size="10.00">ccf/ds/hash.h</text>
</a>
</g>
</g>
<!-- Node20&#45;&gt;Node21 -->
<g id="edge22" class="edge">
<title>Node20&#45;&gt;Node21</title>
<path fill="none" stroke="midnightblue" d="M880.43,-168.44C837.95,-159.04 769.66,-143.93 723.62,-133.74"/>
<polygon fill="midnightblue" stroke="midnightblue" points="724.09,-130.26 713.57,-131.52 722.58,-137.09 724.09,-130.26"/>
</g>
<!-- Node25 -->
<g id="node25" class="node">
<title>Node25</title>
<g id="a_node25"><a xlink:title=" ">
<polygon fill="white" stroke="#bfbfbf" points="652.59,-0.5 652.59,-19.5 699.59,-19.5 699.59,-0.5 652.59,-0.5"/>
<text text-anchor="middle" x="676.09" y="-7.5" font-family="Helvetica,sans-Serif" font-size="10.00">vector</text>
</a>
</g>
</g>
<!-- Node20&#45;&gt;Node25 -->
<g id="edge55" class="edge">
<title>Node20&#45;&gt;Node25</title>
<path fill="none" stroke="midnightblue" d="M870.75,-168.48C818.86,-156.76 737.77,-130.58 692.09,-76 681.26,-63.06 677.57,-43.89 676.4,-29.72"/>
<polygon fill="midnightblue" stroke="midnightblue" points="679.9,-29.46 675.92,-19.64 672.9,-29.8 679.9,-29.46"/>
</g>
<!-- Node28 -->
<g id="node28" class="node">
<title>Node28</title>
<g id="a_node28"><a xlink:href="nonstd_8h.html" target="_top" xlink:title=" ">
<polygon fill="white" stroke="black" points="891.09,-56.5 891.09,-75.5 981.09,-75.5 981.09,-56.5 891.09,-56.5"/>
<text text-anchor="middle" x="936.09" y="-63.5" font-family="Helvetica,sans-Serif" font-size="10.00">ccf/ds/nonstd.h</text>
</a>
</g>
</g>
<!-- Node20&#45;&gt;Node28 -->
<g id="edge31" class="edge">
<title>Node20&#45;&gt;Node28</title>
<path fill="none" stroke="midnightblue" d="M920.43,-168.37C923.17,-150.62 929.5,-109.67 933.22,-85.6"/>
<polygon fill="midnightblue" stroke="midnightblue" points="936.7,-86.01 934.77,-75.59 929.78,-84.94 936.7,-86.01"/>
</g>
<!-- Node31 -->
<g id="node31" class="node">
<title>Node31</title>
<g id="a_node31"><a xlink:title=" ">
<polygon fill="white" stroke="#bfbfbf" points="742.09,-0.5 742.09,-19.5 786.09,-19.5 786.09,-0.5 742.09,-0.5"/>
<text text-anchor="middle" x="764.09" y="-7.5" font-family="Helvetica,sans-Serif" font-size="10.00">string</text>
</a>
</g>
</g>
<!-- Node20&#45;&gt;Node31 -->
<g id="edge54" class="edge">
<title>Node20&#45;&gt;Node31</title>
<path fill="none" stroke="midnightblue" d="M910.76,-168.08C885.73,-141.27 810.96,-61.19 778.93,-26.89"/>
<polygon fill="midnightblue" stroke="midnightblue" points="781.48,-24.49 772.09,-19.57 776.36,-29.27 781.48,-24.49"/>
</g>
<!-- Node33 -->
<g id="node33" class="node">
<title>Node33</title>
<g id="a_node33"><a xlink:href="serializer_8h.html" target="_top" xlink:title=" ">
<polygon fill="white" stroke="black" points="947.09,-112.5 947.09,-131.5 1017.09,-131.5 1017.09,-112.5 947.09,-112.5"/>
<text text-anchor="middle" x="982.09" y="-119.5" font-family="Helvetica,sans-Serif" font-size="10.00">serializer.h</text>
</a>
</g>
</g>
<!-- Node20&#45;&gt;Node33 -->
<g id="edge39" class="edge">
<title>Node20&#45;&gt;Node33</title>
<path fill="none" stroke="midnightblue" d="M929.21,-168.32C938.62,-160.26 952.84,-148.08 964.16,-138.37"/>
<polygon fill="midnightblue" stroke="midnightblue" points="966.47,-141 971.79,-131.83 961.92,-135.68 966.47,-141"/>
</g>
<!-- Node20&#45;&gt;Node38 -->
<g id="edge51" class="edge">
<title>Node20&#45;&gt;Node38</title>
<path fill="none" stroke="midnightblue" d="M947.14,-168.44C978.06,-159.01 1027.83,-143.82 1061.24,-133.63"/>
<polygon fill="midnightblue" stroke="midnightblue" points="1062.5,-136.91 1071.04,-130.64 1060.45,-130.21 1062.5,-136.91"/>
</g>
<!-- Node22 -->
<g id="node22" class="node">
<title>Node22</title>
<g id="a_node22"><a xlink:href="siphash_8h.html" target="_top" xlink:title=" ">
<polygon fill="white" stroke="black" points="291.59,-56.5 291.59,-75.5 386.59,-75.5 386.59,-56.5 291.59,-56.5"/>
<text text-anchor="middle" x="339.09" y="-63.5" font-family="Helvetica,sans-Serif" font-size="10.00">ccf/ds/siphash.h</text>
</a>
</g>
</g>
<!-- Node21&#45;&gt;Node22 -->
<g id="edge23" class="edge">
<title>Node21&#45;&gt;Node22</title>
<path fill="none" stroke="midnightblue" d="M635,-113.55C631.99,-113.01 628.99,-112.49 626.09,-112 546.71,-98.49 454.71,-84.33 396.71,-75.58"/>
<polygon fill="midnightblue" stroke="midnightblue" points="397.05,-72.09 386.64,-74.07 396,-79.02 397.05,-72.09"/>
</g>
<!-- Node24 -->
<g id="node24" class="node">
<title>Node24</title>
<g id="a_node24"><a xlink:title=" ">
<polygon fill="white" stroke="#bfbfbf" points="429.09,-0.5 429.09,-19.5 479.09,-19.5 479.09,-0.5 429.09,-0.5"/>
<text text-anchor="middle" x="454.09" y="-7.5" font-family="Helvetica,sans-Serif" font-size="10.00">cstdint</text>
</a>
</g>
</g>
<!-- Node21&#45;&gt;Node24 -->
<g id="edge28" class="edge">
<title>Node21&#45;&gt;Node24</title>
<path fill="none" stroke="midnightblue" d="M634.92,-113.08C574.27,-101.03 466.04,-79.17 463.09,-76 451.82,-63.89 450.44,-44.61 451.36,-30.19"/>
<polygon fill="midnightblue" stroke="midnightblue" points="454.87,-30.2 452.44,-19.89 447.91,-29.47 454.87,-30.2"/>
</g>
<!-- Node21&#45;&gt;Node25 -->
<g id="edge30" class="edge">
<title>Node21&#45;&gt;Node25</title>
<path fill="none" stroke="midnightblue" d="M634.63,-113.41C576.63,-102.35 476.25,-82.41 471.09,-76 465.53,-69.07 465.52,-62.93 471.09,-56 492.19,-29.77 589.63,-17.96 642.21,-13.42"/>
<polygon fill="midnightblue" stroke="midnightblue" points="642.72,-16.89 652.4,-12.58 642.15,-9.91 642.72,-16.89"/>
</g>
<!-- Node26 -->
<g id="node26" class="node">
<title>Node26</title>
<g id="a_node26"><a xlink:title=" ">
<polygon fill="white" stroke="#bfbfbf" points="804.09,-0.5 804.09,-19.5 846.09,-19.5 846.09,-0.5 804.09,-0.5"/>
<text text-anchor="middle" x="825.09" y="-7.5" font-family="Helvetica,sans-Serif" font-size="10.00">array</text>
</a>
</g>
</g>
<!-- Node21&#45;&gt;Node26 -->
<g id="edge27" class="edge">
<title>Node21&#45;&gt;Node26</title>
<path fill="none" stroke="midnightblue" d="M715.15,-116.74C743.85,-111.65 781.45,-100.48 805.09,-76 817,-63.67 821.84,-44.42 823.79,-30.06"/>
<polygon fill="midnightblue" stroke="midnightblue" points="827.3,-30.12 824.82,-19.82 820.34,-29.42 827.3,-30.12"/>
</g>
<!-- Node27 -->
<g id="node27" class="node">
<title>Node27</title>
<g id="a_node27"><a xlink:title=" ">
<polygon fill="white" stroke="#bfbfbf" points="480.59,-56.5 480.59,-75.5 629.59,-75.5 629.59,-56.5 480.59,-56.5"/>
<text text-anchor="middle" x="555.09" y="-63.5" font-family="Helvetica,sans-Serif" font-size="10.00">small_vector/SmallVector.h</text>
</a>
</g>
</g>
<!-- Node21&#45;&gt;Node27 -->
<g id="edge29" class="edge">
<title>Node21&#45;&gt;Node27</title>
<path fill="none" stroke="midnightblue" d="M656.08,-112.44C636.51,-103.64 605.79,-89.81 583.36,-79.72"/>
<polygon fill="midnightblue" stroke="midnightblue" points="584.57,-76.43 574.02,-75.52 581.7,-82.81 584.57,-76.43"/>
</g>
<!-- Node23 -->
<g id="node23" class="node">
<title>Node23</title>
<g id="a_node23"><a xlink:title=" ">
<polygon fill="white" stroke="#bfbfbf" points="274.59,-0.5 274.59,-19.5 327.59,-19.5 327.59,-0.5 274.59,-0.5"/>
<text text-anchor="middle" x="301.09" y="-7.5" font-family="Helvetica,sans-Serif" font-size="10.00">cstddef</text>
</a>
</g>
</g>
<!-- Node22&#45;&gt;Node23 -->
<g id="edge24" class="edge">
<title>Node22&#45;&gt;Node23</title>
<path fill="none" stroke="midnightblue" d="M332.82,-56.08C327.45,-48.46 319.58,-37.26 313.01,-27.94"/>
<polygon fill="midnightblue" stroke="midnightblue" points="315.87,-25.91 307.25,-19.75 310.14,-29.94 315.87,-25.91"/>
</g>
<!-- Node22&#45;&gt;Node24 -->
<g id="edge25" class="edge">
<title>Node22&#45;&gt;Node24</title>
<path fill="none" stroke="midnightblue" d="M357.32,-56.44C375.99,-47.68 405.25,-33.94 426.71,-23.86"/>
<polygon fill="midnightblue" stroke="midnightblue" points="428.39,-26.93 435.96,-19.52 425.42,-20.6 428.39,-26.93"/>
</g>
<!-- Node22&#45;&gt;Node25 -->
<g id="edge26" class="edge">
<title>Node22&#45;&gt;Node25</title>
<path fill="none" stroke="midnightblue" d="M386.66,-57.38C455.64,-46.33 581.76,-26.12 642.13,-16.44"/>
<polygon fill="midnightblue" stroke="midnightblue" points="642.95,-19.86 652.27,-14.82 641.84,-12.94 642.95,-19.86"/>
</g>
<!-- Node28&#45;&gt;Node16 -->
<g id="edge37" class="edge">
<title>Node28&#45;&gt;Node16</title>
<path fill="none" stroke="midnightblue" d="M968.42,-56.44C1003.48,-47.16 1059.59,-32.31 1098.06,-22.13"/>
<polygon fill="midnightblue" stroke="midnightblue" points="1099.15,-25.46 1107.92,-19.52 1097.36,-18.69 1099.15,-25.46"/>
</g>
<!-- Node28&#45;&gt;Node25 -->
<g id="edge38" class="edge">
<title>Node28&#45;&gt;Node25</title>
<path fill="none" stroke="midnightblue" d="M894.9,-56.44C843.64,-45.8 757.12,-27.83 709.68,-17.98"/>
<polygon fill="midnightblue" stroke="midnightblue" points="710.13,-14.49 699.63,-15.89 708.7,-21.35 710.13,-14.49"/>
</g>
<!-- Node28&#45;&gt;Node26 -->
<g id="edge33" class="edge">
<title>Node28&#45;&gt;Node26</title>
<path fill="none" stroke="midnightblue" d="M918.26,-56.32C900.38,-47.62 872.62,-34.12 852.05,-24.11"/>
<polygon fill="midnightblue" stroke="midnightblue" points="853.41,-20.88 842.88,-19.65 850.34,-27.18 853.41,-20.88"/>
</g>
<!-- Node29 -->
<g id="node29" class="node">
<title>Node29</title>
<g id="a_node29"><a xlink:title=" ">
<polygon fill="white" stroke="#bfbfbf" points="1023.09,-0.5 1023.09,-19.5 1087.09,-19.5 1087.09,-0.5 1023.09,-0.5"/>
<text text-anchor="middle" x="1055.09" y="-7.5" font-family="Helvetica,sans-Serif" font-size="10.00">algorithm</text>
</a>
</g>
</g>
<!-- Node28&#45;&gt;Node29 -->
<g id="edge32" class="edge">
<title>Node28&#45;&gt;Node29</title>
<path fill="none" stroke="midnightblue" d="M954.95,-56.44C974.36,-47.64 1004.82,-33.81 1027.06,-23.72"/>
<polygon fill="midnightblue" stroke="midnightblue" points="1028.67,-26.84 1036.33,-19.52 1025.77,-20.46 1028.67,-26.84"/>
</g>
<!-- Node30 -->
<g id="node30" class="node">
<title>Node30</title>
<g id="a_node30"><a xlink:title=" ">
<polygon fill="white" stroke="#bfbfbf" points="864.59,-0.5 864.59,-19.5 913.59,-19.5 913.59,-0.5 864.59,-0.5"/>
<text text-anchor="middle" x="889.09" y="-7.5" font-family="Helvetica,sans-Serif" font-size="10.00">cctype</text>
</a>
</g>
</g>
<!-- Node28&#45;&gt;Node30 -->
<g id="edge34" class="edge">
<title>Node28&#45;&gt;Node30</title>
<path fill="none" stroke="midnightblue" d="M928.33,-56.08C921.56,-48.3 911.55,-36.8 903.34,-27.37"/>
<polygon fill="midnightblue" stroke="midnightblue" points="905.91,-25 896.71,-19.75 900.63,-29.59 905.91,-25"/>
</g>
<!-- Node28&#45;&gt;Node31 -->
<g id="edge35" class="edge">
<title>Node28&#45;&gt;Node31</title>
<path fill="none" stroke="midnightblue" d="M908.84,-56.44C878.24,-46.84 828.63,-31.26 796.18,-21.07"/>
<polygon fill="midnightblue" stroke="midnightblue" points="796.89,-17.63 786.3,-17.97 794.79,-24.31 796.89,-17.63"/>
</g>
<!-- Node32 -->
<g id="node32" class="node">
<title>Node32</title>
<g id="a_node32"><a xlink:title=" ">
<polygon fill="white" stroke="#bfbfbf" points="931.59,-0.5 931.59,-19.5 1004.59,-19.5 1004.59,-0.5 931.59,-0.5"/>
<text text-anchor="middle" x="968.09" y="-7.5" font-family="Helvetica,sans-Serif" font-size="10.00">string_view</text>
</a>
</g>
</g>
<!-- Node28&#45;&gt;Node32 -->
<g id="edge36" class="edge">
<title>Node28&#45;&gt;Node32</title>
<path fill="none" stroke="midnightblue" d="M941.38,-56.08C945.8,-48.61 952.26,-37.72 957.71,-28.52"/>
<polygon fill="midnightblue" stroke="midnightblue" points="960.82,-30.14 962.91,-19.75 954.8,-26.57 960.82,-30.14"/>
</g>
<!-- Node33&#45;&gt;Node16 -->
<g id="edge49" class="edge">
<title>Node33&#45;&gt;Node16</title>
<path fill="none" stroke="midnightblue" d="M986.23,-112.21C993.1,-98.45 1008.13,-71.77 1028.09,-56 1047.84,-40.4 1073.71,-29.53 1095.62,-22.39"/>
<polygon fill="midnightblue" stroke="midnightblue" points="1096.85,-25.67 1105.36,-19.37 1094.77,-18.99 1096.85,-25.67"/>
</g>
<!-- Node33&#45;&gt;Node25 -->
<g id="edge50" class="edge">
<title>Node33&#45;&gt;Node25</title>
<path fill="none" stroke="midnightblue" d="M946.96,-118.77C883.14,-114.14 751.32,-101.69 714.09,-76 697.99,-64.89 687.73,-44.55 681.98,-29.57"/>
<polygon fill="midnightblue" stroke="midnightblue" points="685.18,-28.11 678.57,-19.82 678.57,-30.42 685.18,-28.11"/>
</g>
<!-- Node33&#45;&gt;Node28 -->
<g id="edge40" class="edge">
<title>Node33&#45;&gt;Node28</title>
<path fill="none" stroke="midnightblue" d="M974.5,-112.08C967.87,-104.3 958.07,-92.8 950.03,-83.37"/>
<polygon fill="midnightblue" stroke="midnightblue" points="952.7,-81.09 943.55,-75.75 947.37,-85.63 952.7,-81.09"/>
</g>
<!-- Node34 -->
<g id="node34" class="node">
<title>Node34</title>
<g id="a_node34"><a xlink:href="serialized_8h.html" target="_top" xlink:title=" ">
<polygon fill="white" stroke="black" points="723.59,-56.5 723.59,-75.5 796.59,-75.5 796.59,-56.5 723.59,-56.5"/>
<text text-anchor="middle" x="760.09" y="-63.5" font-family="Helvetica,sans-Serif" font-size="10.00">serialized.h</text>
</a>
</g>
</g>
<!-- Node33&#45;&gt;Node34 -->
<g id="edge41" class="edge">
<title>Node33&#45;&gt;Node34</title>
<path fill="none" stroke="midnightblue" d="M946.92,-112.44C908.51,-103.1 846.92,-88.12 805.04,-77.93"/>
<polygon fill="midnightblue" stroke="midnightblue" points="805.65,-74.48 795.1,-75.52 803.99,-81.28 805.65,-74.48"/>
</g>
<!-- Node36 -->
<g id="node36" class="node">
<title>Node36</title>
<g id="a_node36"><a xlink:title=" ">
<polygon fill="white" stroke="#bfbfbf" points="1097.09,-56.5 1097.09,-75.5 1155.09,-75.5 1155.09,-56.5 1097.09,-56.5"/>
<text text-anchor="middle" x="1126.09" y="-63.5" font-family="Helvetica,sans-Serif" font-size="10.00">memory</text>
</a>
</g>
</g>
<!-- Node33&#45;&gt;Node36 -->
<g id="edge47" class="edge">
<title>Node33&#45;&gt;Node36</title>
<path fill="none" stroke="midnightblue" d="M1004.91,-112.44C1028.92,-103.44 1066.92,-89.19 1093.96,-79.05"/>
<polygon fill="midnightblue" stroke="midnightblue" points="1095.25,-82.3 1103.38,-75.52 1092.79,-75.75 1095.25,-82.3"/>
</g>
<!-- Node37 -->
<g id="node37" class="node">
<title>Node37</title>
<g id="a_node37"><a xlink:title=" ">
<polygon fill="white" stroke="#bfbfbf" points="1037.59,-56.5 1037.59,-75.5 1078.59,-75.5 1078.59,-56.5 1037.59,-56.5"/>
<text text-anchor="middle" x="1058.09" y="-63.5" font-family="Helvetica,sans-Serif" font-size="10.00">tuple</text>
</a>
</g>
</g>
<!-- Node33&#45;&gt;Node37 -->
<g id="edge48" class="edge">
<title>Node33&#45;&gt;Node37</title>
<path fill="none" stroke="midnightblue" d="M994.3,-112.32C1005.87,-104.11 1023.47,-91.6 1037.25,-81.81"/>
<polygon fill="midnightblue" stroke="midnightblue" points="1039.54,-84.48 1045.66,-75.83 1035.48,-78.77 1039.54,-84.48"/>
</g>
<!-- Node34&#45;&gt;Node19 -->
<g id="edge43" class="edge">
<title>Node34&#45;&gt;Node19</title>
<path fill="none" stroke="midnightblue" d="M796.62,-61.36C869.93,-54.01 1040.23,-36.65 1183.09,-20 1194.72,-18.65 1207.39,-17.07 1218.78,-15.62"/>
<polygon fill="midnightblue" stroke="midnightblue" points="1219.33,-19.08 1228.81,-14.33 1218.44,-12.13 1219.33,-19.08"/>
</g>
<!-- Node34&#45;&gt;Node24 -->
<g id="edge42" class="edge">
<title>Node34&#45;&gt;Node24</title>
<path fill="none" stroke="midnightblue" d="M723.49,-58.54C664.07,-48.06 547.44,-27.47 489.08,-17.17"/>
<polygon fill="midnightblue" stroke="midnightblue" points="489.68,-13.73 479.23,-15.44 488.47,-20.62 489.68,-13.73"/>
</g>
<!-- Node34&#45;&gt;Node25 -->
<g id="edge46" class="edge">
<title>Node34&#45;&gt;Node25</title>
<path fill="none" stroke="midnightblue" d="M746.6,-56.32C733.49,-47.9 713.38,-34.97 697.99,-25.07"/>
<polygon fill="midnightblue" stroke="midnightblue" points="699.86,-22.12 689.56,-19.65 696.07,-28.01 699.86,-22.12"/>
</g>
<!-- Node34&#45;&gt;Node31 -->
<g id="edge45" class="edge">
<title>Node34&#45;&gt;Node31</title>
<path fill="none" stroke="midnightblue" d="M760.75,-56.08C761.28,-49.01 762.03,-38.86 762.69,-29.99"/>
<polygon fill="midnightblue" stroke="midnightblue" points="766.2,-29.98 763.44,-19.75 759.22,-29.47 766.2,-29.98"/>
</g>
<!-- Node34&#45;&gt;Node35 -->
<g id="edge44" class="edge">
<title>Node34&#45;&gt;Node35</title>
<path fill="none" stroke="midnightblue" d="M723.47,-61.12C662.77,-54.48 537.32,-39.87 420.77,-19.99"/>
<polygon fill="midnightblue" stroke="midnightblue" points="421.05,-16.48 410.6,-18.23 419.86,-23.38 421.05,-16.48"/>
</g>
<!-- Node42 -->
<g id="node42" class="node">
<title>Node42</title>
<g id="a_node42"><a xlink:href="proxy_8h.html" target="_top" xlink:title=" ">
<polygon fill="white" stroke="black" points="1337.09,-224.5 1337.09,-243.5 1389.09,-243.5 1389.09,-224.5 1337.09,-224.5"/>
<text text-anchor="middle" x="1363.09" y="-231.5" font-family="Helvetica,sans-Serif" font-size="10.00">proxy.h</text>
</a>
</g>
</g>
<!-- Node41&#45;&gt;Node42 -->
<g id="edge63" class="edge">
<title>Node41&#45;&gt;Node42</title>
<path fill="none" stroke="midnightblue" d="M1363.09,-280.08C1363.09,-273.01 1363.09,-262.86 1363.09,-253.99"/>
<polygon fill="midnightblue" stroke="midnightblue" points="1366.59,-253.75 1363.09,-243.75 1359.59,-253.75 1366.59,-253.75"/>
</g>
<!-- Node44 -->
<g id="node44" class="node">
<title>Node44</title>
<g id="a_node44"><a xlink:title=" ">
<polygon fill="white" stroke="#bfbfbf" points="1407.09,-224.5 1407.09,-243.5 1457.09,-243.5 1457.09,-224.5 1407.09,-224.5"/>
<text text-anchor="middle" x="1432.09" y="-231.5" font-family="Helvetica,sans-Serif" font-size="10.00">chrono</text>
</a>
</g>
</g>
<!-- Node41&#45;&gt;Node44 -->
<g id="edge66" class="edge">
<title>Node41&#45;&gt;Node44</title>
<path fill="none" stroke="midnightblue" d="M1374.18,-280.32C1384.58,-272.18 1400.35,-259.84 1412.81,-250.09"/>
<polygon fill="midnightblue" stroke="midnightblue" points="1415.09,-252.75 1420.81,-243.83 1410.77,-247.24 1415.09,-252.75"/>
</g>
<!-- Node42&#45;&gt;Node36 -->
<g id="edge64" class="edge">
<title>Node42&#45;&gt;Node36</title>
<path fill="none" stroke="midnightblue" d="M1350.68,-224.31C1312.21,-197.36 1194.64,-115.01 1146.73,-81.46"/>
<polygon fill="midnightblue" stroke="midnightblue" points="1148.58,-78.48 1138.38,-75.61 1144.56,-84.21 1148.58,-78.48"/>
</g>
<!-- Node43 -->
<g id="node43" class="node">
<title>Node43</title>
<g id="a_node43"><a xlink:title=" ">
<polygon fill="white" stroke="#bfbfbf" points="1391.59,-168.5 1391.59,-187.5 1428.59,-187.5 1428.59,-168.5 1391.59,-168.5"/>
<text text-anchor="middle" x="1410.09" y="-175.5" font-family="Helvetica,sans-Serif" font-size="10.00">uv.h</text>
</a>
</g>
</g>
<!-- Node42&#45;&gt;Node43 -->
<g id="edge65" class="edge">
<title>Node42&#45;&gt;Node43</title>
<path fill="none" stroke="midnightblue" d="M1370.85,-224.08C1377.63,-216.3 1387.64,-204.8 1395.85,-195.37"/>
<polygon fill="midnightblue" stroke="midnightblue" points="1398.55,-197.59 1402.48,-187.75 1393.27,-193 1398.55,-197.59"/>
</g>
</g>
</svg>
        <g id="navigator" transform="translate(0 0)" fill="#404254">
                <rect fill="#f2f5e9" fill-opacity="0.5" stroke="#606060" stroke-width=".5" x="0" y="0" width="60" height="60"/>
                <use id="zoomplus" xlink:href="#zoomPlus" x="17" y="9" onmousedown="handleZoom(evt,'in')"/>
                <use id="zoomminus" xlink:href="#zoomMin" x="42" y="9" onmousedown="handleZoom(evt,'out')"/>
                <use id="reset" xlink:href="#resetDef" x="30" y="36" onmousedown="handleReset()"/>
                <g id="arrowUp" xlink:href="#dirArrow" transform="translate(30 24)" onmousedown="handlePan(0,-1)">
                  <use xlink:href="#rim" fill="#404040">
                        <set attributeName="fill" to="#808080" begin="arrowUp.mouseover" end="arrowUp.mouseout"/>
                  </use>
                  <path fill="none" stroke="white" stroke-width="1.5" d="M0,-3.0v7 M-2.5,-0.5L0,-3.0L2.5,-0.5"/>
                </g>
                <g id="arrowRight" xlink:href="#dirArrow" transform="rotate(90) translate(36 -43)" onmousedown="handlePan(1,0)">
                  <use xlink:href="#rim" fill="#404040">
                        <set attributeName="fill" to="#808080" begin="arrowRight.mouseover" end="arrowRight.mouseout"/>
                  </use>
                  <path fill="none" stroke="white" stroke-width="1.5" d="M0,-3.0v7 M-2.5,-0.5L0,-3.0L2.5,-0.5"/>
                </g>
                <g id="arrowDown" xlink:href="#dirArrow" transform="rotate(180) translate(-30 -48)" onmousedown="handlePan(0,1)">
                  <use xlink:href="#rim" fill="#404040">
                        <set attributeName="fill" to="#808080" begin="arrowDown.mouseover" end="arrowDown.mouseout"/>
                  </use>
                  <path fill="none" stroke="white" stroke-width="1.5" d="M0,-3.0v7 M-2.5,-0.5L0,-3.0L2.5,-0.5"/>
                </g>
                <g id="arrowLeft" xlink:href="#dirArrow" transform="rotate(270) translate(-36 17)" onmousedown="handlePan(-1,0)">
                  <use xlink:href="#rim" fill="#404040">
                        <set attributeName="fill" to="#808080" begin="arrowLeft.mouseover" end="arrowLeft.mouseout"/>
                  </use>
                  <path fill="none" stroke="white" stroke-width="1.5" d="M0,-3.0v7 M-2.5,-0.5L0,-3.0L2.5,-0.5"/>
                </g>
        </g>
        <svg viewBox="0 0 15 15" width="100%" height="30px" preserveAspectRatio="xMaxYMin meet">
         <g id="arrow_out" transform="scale(0.3 0.3)">
          <a xlink:href="load__monitor_8h__incl_org.svg" target="_base">
           <rect id="button" ry="5" rx="5" y="6" x="6" height="38" width="38"
                fill="#f2f5e9" fill-opacity="0.5" stroke="#606060" stroke-width="1.0"/>
           <path id="arrow"
             d="M 11.500037,31.436501 C 11.940474,20.09759 22.043105,11.32322 32.158766,21.979434 L 37.068811,17.246167 C 37.068811,17.246167 37.088388,32 37.088388,32 L 22.160133,31.978069 C 22.160133,31.978069 26.997745,27.140456 26.997745,27.140456 C 18.528582,18.264221 13.291696,25.230495 11.500037,31.436501 z"
             style="fill:#404040;"/>
          </a>
         </g>
        </svg>
</svg>
