<?xml version="1.0" encoding="UTF-8" standalone="no"?>
<!DOCTYPE svg PUBLIC "-//W3C//DTD SVG 1.1//EN"
 "http://www.w3.org/Graphics/SVG/1.1/DTD/svg11.dtd">
<!-- Generated by graphviz version 2.43.0 (0)
 -->
<!-- Title: src/node/node_types.h Pages: 1 -->
<!--zoomable 576 -->
<svg id="main" version="1.1" xmlns="http://www.w3.org/2000/svg" xmlns:xlink="http://www.w3.org/1999/xlink" xml:space="preserve" onload="init(evt)">
<style type="text/css"><![CDATA[
.edge:hover path { stroke: red; }
.edge:hover polygon { stroke: red; fill: red; }
]]></style>
<script type="text/javascript"><![CDATA[
var edges = document.getElementsByTagName('g');
if (edges && edges.length) {
  for (var i=0;i<edges.length;i++) {
    if (edges[i].id.substr(0,4)=='edge') {
      edges[i].setAttribute('class','edge');
    }
  }
}
]]></script>
        <defs>
                <circle id="rim" cx="0" cy="0" r="7"/>
                <circle id="rim2" cx="0" cy="0" r="3.5"/>
                <g id="zoomPlus">
                        <use xlink:href="#rim" fill="#404040">
                                <set attributeName="fill" to="#808080" begin="zoomplus.mouseover" end="zoomplus.mouseout"/>
                        </use>
                        <path d="M-4,0h8M0,-4v8" fill="none" stroke="white" stroke-width="1.5" pointer-events="none"/>
                </g>
                <g id="zoomMin">
                        <use xlink:href="#rim" fill="#404040">
                                <set attributeName="fill" to="#808080" begin="zoomminus.mouseover" end="zoomminus.mouseout"/>
                        </use>
                        <path d="M-4,0h8" fill="none" stroke="white" stroke-width="1.5" pointer-events="none"/>
                </g>
                <g id="dirArrow">
                        <path fill="none" stroke="white" stroke-width="1.5" d="M0,-3.0v7 M-2.5,-0.5L0,-3.0L2.5,-0.5"/>
                </g>
               <g id="resetDef">
                       <use xlink:href="#rim2" fill="#404040">
                               <set attributeName="fill" to="#808080" begin="reset.mouseover" end="reset.mouseout"/>
                       </use>
               </g>
        </defs>

<script type="text/javascript">
var viewWidth = 712;
var viewHeight = 576;
var sectionId = 'dynsection-1';
</script>
<script xlink:href="svgpan.js"/>
<svg id="graph" class="graph">
<g id="viewport">
<title>src/node/node_types.h</title>
<polygon fill="white" stroke="transparent" points="-4,4 -4,-572 708.32,-572 708.32,4 -4,4"/>
<!-- Node1 -->
<g id="node1" class="node">
<title>Node1</title>
<g id="a_node1"><a xlink:title=" ">
<polygon fill="#bfbfbf" stroke="black" points="208.35,-548.5 208.35,-567.5 334.35,-567.5 334.35,-548.5 208.35,-548.5"/>
<text text-anchor="middle" x="271.35" y="-555.5" font-family="Helvetica,sans-Serif" font-size="10.00">src/node/node_types.h</text>
</a>
</g>
</g>
<!-- Node2 -->
<g id="node2" class="node">
<title>Node2</title>
<g id="a_node2"><a xlink:href="raft_8h.html" target="_top" xlink:title=" ">
<polygon fill="white" stroke="black" points="367.85,-431 367.85,-450 496.85,-450 496.85,-431 367.85,-431"/>
<text text-anchor="middle" x="432.35" y="-438" font-family="Helvetica,sans-Serif" font-size="10.00">src/consensus/aft/raft.h</text>
</a>
</g>
</g>
<!-- Node1&#45;&gt;Node2 -->
<g id="edge1" class="edge">
<title>Node1&#45;&gt;Node2</title>
<path fill="none" stroke="midnightblue" d="M297.36,-543.54C312.88,-535.13 332.74,-523.71 349.35,-512 377.79,-491.97 408.23,-464.31 423.1,-450.34"/>
<polygon fill="midnightblue" stroke="midnightblue" points="295.5,-540.56 288.32,-548.36 298.8,-546.74 295.5,-540.56"/>
</g>
<!-- Node4 -->
<g id="node4" class="node">
<title>Node4</title>
<g id="a_node4"><a xlink:href="enclave_2enclave_8h.html" target="_top" xlink:title=" ">
<polygon fill="white" stroke="black" points="302.35,-56.5 302.35,-75.5 424.35,-75.5 424.35,-56.5 302.35,-56.5"/>
<text text-anchor="middle" x="363.35" y="-63.5" font-family="Helvetica,sans-Serif" font-size="10.00">src/enclave/enclave.h</text>
</a>
</g>
</g>
<!-- Node1&#45;&gt;Node4 -->
<g id="edge7" class="edge">
<title>Node1&#45;&gt;Node4</title>
<path fill="none" stroke="midnightblue" d="M197.99,-549.65C139.77,-542.58 64.18,-530.26 39.35,-512 10.68,-490.91 1.35,-477.1 1.35,-441.5 1.35,-441.5 1.35,-441.5 1.35,-182.5 1.35,-150.05 -4.06,-133.37 20.35,-112 61.14,-76.3 214.93,-68.57 302.09,-67.12"/>
<polygon fill="midnightblue" stroke="midnightblue" points="197.93,-553.17 208.27,-550.87 198.75,-546.22 197.93,-553.17"/>
</g>
<!-- Node7 -->
<g id="node7" class="node">
<title>Node7</title>
<g id="a_node7"><a xlink:href="node__connections_8h.html" target="_top" xlink:title=" ">
<polygon fill="white" stroke="black" points="466.85,-492.5 466.85,-511.5 621.85,-511.5 621.85,-492.5 466.85,-492.5"/>
<text text-anchor="middle" x="544.35" y="-499.5" font-family="Helvetica,sans-Serif" font-size="10.00">src/host/node_connections.h</text>
</a>
</g>
</g>
<!-- Node1&#45;&gt;Node7 -->
<g id="edge8" class="edge">
<title>Node1&#45;&gt;Node7</title>
<path fill="none" stroke="midnightblue" d="M324.57,-546.47C376.17,-536.27 453.46,-520.98 501.3,-511.52"/>
<polygon fill="midnightblue" stroke="midnightblue" points="323.74,-543.07 314.61,-548.44 325.1,-549.94 323.74,-543.07"/>
</g>
<!-- Node9 -->
<g id="node9" class="node">
<title>Node9</title>
<g id="a_node9"><a xlink:href="channels_8h.html" target="_top" xlink:title=" ">
<polygon fill="white" stroke="black" points="48.85,-492.5 48.85,-511.5 161.85,-511.5 161.85,-492.5 48.85,-492.5"/>
<text text-anchor="middle" x="105.35" y="-499.5" font-family="Helvetica,sans-Serif" font-size="10.00">src/node/channels.h</text>
</a>
</g>
</g>
<!-- Node1&#45;&gt;Node9 -->
<g id="edge10" class="edge">
<title>Node1&#45;&gt;Node9</title>
<path fill="none" stroke="midnightblue" d="M235.4,-545.3C204.12,-535.13 159.53,-520.62 131.53,-511.52"/>
<polygon fill="midnightblue" stroke="midnightblue" points="234.46,-548.68 245.05,-548.44 236.62,-542.02 234.46,-548.68"/>
</g>
<!-- Node11 -->
<g id="node11" class="node">
<title>Node11</title>
<g id="a_node11"><a xlink:href="node__to__node_8h.html" target="_top" xlink:title=" ">
<polygon fill="white" stroke="black" points="202.35,-492.5 202.35,-511.5 340.35,-511.5 340.35,-492.5 202.35,-492.5"/>
<text text-anchor="middle" x="271.35" y="-499.5" font-family="Helvetica,sans-Serif" font-size="10.00">src/node/node_to_node.h</text>
</a>
</g>
</g>
<!-- Node1&#45;&gt;Node11 -->
<g id="edge13" class="edge">
<title>Node1&#45;&gt;Node11</title>
<path fill="none" stroke="midnightblue" d="M271.35,-537.8C271.35,-528.91 271.35,-518.78 271.35,-511.75"/>
<polygon fill="midnightblue" stroke="midnightblue" points="267.85,-538.08 271.35,-548.08 274.85,-538.08 267.85,-538.08"/>
</g>
<!-- Node3 -->
<g id="node3" class="node">
<title>Node3</title>
<g id="a_node3"><a xlink:href="node__state_8h.html" target="_top" xlink:title=" ">
<polygon fill="white" stroke="black" points="204.35,-174 204.35,-193 328.35,-193 328.35,-174 204.35,-174"/>
<text text-anchor="middle" x="266.35" y="-181" font-family="Helvetica,sans-Serif" font-size="10.00">src/node/node_state.h</text>
</a>
</g>
</g>
<!-- Node2&#45;&gt;Node3 -->
<g id="edge2" class="edge">
<title>Node2&#45;&gt;Node3</title>
<path fill="none" stroke="midnightblue" d="M469.1,-427.42C508.42,-412.29 568.73,-382.2 595.35,-333 609.61,-306.65 576.9,-236.36 575.35,-235 539.59,-203.54 407.98,-191.49 328.52,-187.01"/>
<polygon fill="midnightblue" stroke="midnightblue" points="467.75,-424.19 459.59,-430.95 470.18,-430.75 467.75,-424.19"/>
</g>
<!-- Node3&#45;&gt;Node4 -->
<g id="edge3" class="edge">
<title>Node3&#45;&gt;Node4</title>
<path fill="none" stroke="midnightblue" d="M249.01,-166.31C235.21,-151.44 220.1,-129.17 232.35,-112 248.35,-89.59 276.25,-78.22 302.19,-72.51"/>
<polygon fill="midnightblue" stroke="midnightblue" points="246.83,-169.09 256.35,-173.74 251.8,-164.17 246.83,-169.09"/>
</g>
<!-- Node6 -->
<g id="node6" class="node">
<title>Node6</title>
<g id="a_node6"><a xlink:href="gov__effects_8h.html" target="_top" xlink:title=" ">
<polygon fill="white" stroke="black" points="241.35,-112.5 241.35,-131.5 385.35,-131.5 385.35,-112.5 241.35,-112.5"/>
<text text-anchor="middle" x="313.35" y="-119.5" font-family="Helvetica,sans-Serif" font-size="10.00">src/node/rpc/gov_effects.h</text>
</a>
</g>
</g>
<!-- Node3&#45;&gt;Node6 -->
<g id="edge5" class="edge">
<title>Node3&#45;&gt;Node6</title>
<path fill="none" stroke="midnightblue" d="M279.52,-165.84C288.34,-154.67 299.59,-140.43 306.63,-131.51"/>
<polygon fill="midnightblue" stroke="midnightblue" points="276.54,-163.96 273.09,-173.98 282.03,-168.3 276.54,-163.96"/>
</g>
<!-- Node5 -->
<g id="node5" class="node">
<title>Node5</title>
<g id="a_node5"><a xlink:href="enclave_2main_8cpp.html" target="_top" xlink:title=" ">
<polygon fill="white" stroke="black" points="303.35,-0.5 303.35,-19.5 423.35,-19.5 423.35,-0.5 303.35,-0.5"/>
<text text-anchor="middle" x="363.35" y="-7.5" font-family="Helvetica,sans-Serif" font-size="10.00">src/enclave/main.cpp</text>
</a>
</g>
</g>
<!-- Node4&#45;&gt;Node5 -->
<g id="edge4" class="edge">
<title>Node4&#45;&gt;Node5</title>
<path fill="none" stroke="midnightblue" d="M363.35,-45.8C363.35,-36.91 363.35,-26.78 363.35,-19.75"/>
<polygon fill="midnightblue" stroke="midnightblue" points="359.85,-46.08 363.35,-56.08 366.85,-46.08 359.85,-46.08"/>
</g>
<!-- Node6&#45;&gt;Node4 -->
<g id="edge6" class="edge">
<title>Node6&#45;&gt;Node4</title>
<path fill="none" stroke="midnightblue" d="M328.43,-104.72C337.24,-95.2 348.02,-83.56 355.25,-75.75"/>
<polygon fill="midnightblue" stroke="midnightblue" points="325.84,-102.37 321.61,-112.08 330.97,-107.12 325.84,-102.37"/>
</g>
<!-- Node8 -->
<g id="node8" class="node">
<title>Node8</title>
<g id="a_node8"><a xlink:href="host_2main_8cpp.html" target="_top" xlink:title=" ">
<polygon fill="white" stroke="black" points="514.85,-431 514.85,-450 617.85,-450 617.85,-431 514.85,-431"/>
<text text-anchor="middle" x="566.35" y="-438" font-family="Helvetica,sans-Serif" font-size="10.00">src/host/main.cpp</text>
</a>
</g>
</g>
<!-- Node7&#45;&gt;Node8 -->
<g id="edge9" class="edge">
<title>Node7&#45;&gt;Node8</title>
<path fill="none" stroke="midnightblue" d="M551.01,-483C555.06,-472.05 560.04,-458.57 563.21,-450.01"/>
<polygon fill="midnightblue" stroke="midnightblue" points="547.69,-481.88 547.51,-492.48 554.26,-484.31 547.69,-481.88"/>
</g>
<!-- Node10 -->
<g id="node10" class="node">
<title>Node10</title>
<g id="a_node10"><a xlink:href="node__to__node__channel__manager_8h.html" target="_top" xlink:title=" ">
<polygon fill="white" stroke="black" points="29.85,-425.5 29.85,-455.5 158.85,-455.5 158.85,-425.5 29.85,-425.5"/>
<text text-anchor="start" x="37.85" y="-443.5" font-family="Helvetica,sans-Serif" font-size="10.00">src/node/node_to_node</text>
<text text-anchor="middle" x="94.35" y="-432.5" font-family="Helvetica,sans-Serif" font-size="10.00">_channel_manager.h</text>
</a>
</g>
</g>
<!-- Node9&#45;&gt;Node10 -->
<g id="edge11" class="edge">
<title>Node9&#45;&gt;Node10</title>
<path fill="none" stroke="midnightblue" d="M101.94,-482.53C100.33,-473.81 98.44,-463.59 96.95,-455.52"/>
<polygon fill="midnightblue" stroke="midnightblue" points="98.52,-483.28 103.78,-492.48 105.4,-482.01 98.52,-483.28"/>
</g>
<!-- Node10&#45;&gt;Node3 -->
<g id="edge12" class="edge">
<title>Node10&#45;&gt;Node3</title>
<path fill="none" stroke="midnightblue" d="M95.42,-415.43C98.48,-373.79 110.35,-287.74 156.35,-235 175.28,-213.31 205.45,-200.37 229.41,-193.03"/>
<polygon fill="midnightblue" stroke="midnightblue" points="91.92,-415.27 94.79,-425.47 98.91,-415.71 91.92,-415.27"/>
</g>
<!-- Node11&#45;&gt;Node2 -->
<g id="edge14" class="edge">
<title>Node11&#45;&gt;Node2</title>
<path fill="none" stroke="midnightblue" d="M304.01,-488.93C335.3,-477.37 381.73,-460.21 409.33,-450.01"/>
<polygon fill="midnightblue" stroke="midnightblue" points="302.59,-485.73 294.42,-492.48 305.02,-492.29 302.59,-485.73"/>
</g>
<!-- Node11&#45;&gt;Node3 -->
<g id="edge15" class="edge">
<title>Node11&#45;&gt;Node3</title>
<path fill="none" stroke="midnightblue" d="M240.34,-487.67C227.36,-480.35 213.63,-469.89 206.35,-456 195.73,-435.71 164.88,-363.99 220.35,-235 227.85,-217.57 243.95,-202.2 254.96,-193.12"/>
<polygon fill="midnightblue" stroke="midnightblue" points="239.06,-490.95 249.55,-492.45 242.28,-484.73 239.06,-490.95"/>
</g>
<!-- Node11&#45;&gt;Node10 -->
<g id="edge16" class="edge">
<title>Node11&#45;&gt;Node10</title>
<path fill="none" stroke="midnightblue" d="M236.34,-489.23C207.52,-479.54 166.59,-465.78 136.07,-455.52"/>
<polygon fill="midnightblue" stroke="midnightblue" points="235.4,-492.61 245.99,-492.48 237.63,-485.97 235.4,-492.61"/>
</g>
<!-- Node12 -->
<g id="node12" class="node">
<title>Node12</title>
<g id="a_node12"><a xlink:href="forwarder_8h.html" target="_top" xlink:title=" ">
<polygon fill="white" stroke="black" points="215.35,-431 215.35,-450 349.35,-450 349.35,-431 215.35,-431"/>
<text text-anchor="middle" x="282.35" y="-438" font-family="Helvetica,sans-Serif" font-size="10.00">src/node/rpc/forwarder.h</text>
</a>
</g>
</g>
<!-- Node11&#45;&gt;Node12 -->
<g id="edge17" class="edge">
<title>Node11&#45;&gt;Node12</title>
<path fill="none" stroke="midnightblue" d="M274.81,-482.32C276.81,-471.5 279.23,-458.4 280.78,-450.01"/>
<polygon fill="midnightblue" stroke="midnightblue" points="271.31,-482.01 272.93,-492.48 278.19,-483.28 271.31,-482.01"/>
</g>
<!-- Node12&#45;&gt;Node4 -->
<g id="edge18" class="edge">
<title>Node12&#45;&gt;Node4</title>
<path fill="none" stroke="midnightblue" d="M330.61,-428.66C412.39,-409.59 573.77,-368.66 619.35,-333 674.35,-289.98 682.42,-266.21 701.35,-199 718.83,-136.97 646.43,-132.57 585.35,-112 532.43,-94.18 469.92,-82.28 424.73,-75.22"/>
<polygon fill="midnightblue" stroke="midnightblue" points="329.76,-425.27 320.81,-430.93 331.34,-432.09 329.76,-425.27"/>
</g>
<!-- Node13 -->
<g id="node13" class="node">
<title>Node13</title>
<g id="a_node13"><a xlink:href="frontend_8h.html" target="_top" xlink:title=" ">
<polygon fill="white" stroke="black" points="244.85,-369.5 244.85,-388.5 373.85,-388.5 373.85,-369.5 244.85,-369.5"/>
<text text-anchor="middle" x="309.35" y="-376.5" font-family="Helvetica,sans-Serif" font-size="10.00">src/node/rpc/frontend.h</text>
</a>
</g>
</g>
<!-- Node12&#45;&gt;Node13 -->
<g id="edge19" class="edge">
<title>Node12&#45;&gt;Node13</title>
<path fill="none" stroke="midnightblue" d="M290.37,-421.83C295.37,-410.83 301.57,-397.16 305.49,-388.51"/>
<polygon fill="midnightblue" stroke="midnightblue" points="287.17,-420.42 286.22,-430.98 293.54,-423.32 287.17,-420.42"/>
</g>
<!-- Node13&#45;&gt;Node3 -->
<g id="edge24" class="edge">
<title>Node13&#45;&gt;Node3</title>
<path fill="none" stroke="midnightblue" d="M290.23,-362.81C280.76,-354.65 269.63,-344.02 261.35,-333 241.32,-306.29 235.12,-298.48 227.35,-266 224.15,-252.6 222.91,-248.04 227.35,-235 233.15,-218.02 247.23,-202.3 256.79,-193.06"/>
<polygon fill="midnightblue" stroke="midnightblue" points="288.08,-365.57 298,-369.29 292.56,-360.2 288.08,-365.57"/>
</g>
<!-- Node14 -->
<g id="node14" class="node">
<title>Node14</title>
<g id="a_node14"><a xlink:href="acme__challenge__frontend_8h.html" target="_top" xlink:title=" ">
<polygon fill="white" stroke="black" points="270.35,-302.5 270.35,-332.5 410.35,-332.5 410.35,-302.5 270.35,-302.5"/>
<text text-anchor="start" x="278.35" y="-320.5" font-family="Helvetica,sans-Serif" font-size="10.00">src/node/acme_challenge</text>
<text text-anchor="middle" x="340.35" y="-309.5" font-family="Helvetica,sans-Serif" font-size="10.00">_frontend.h</text>
</a>
</g>
</g>
<!-- Node13&#45;&gt;Node14 -->
<g id="edge20" class="edge">
<title>Node13&#45;&gt;Node14</title>
<path fill="none" stroke="midnightblue" d="M318.53,-360.39C323.16,-351.5 328.71,-340.86 333.05,-332.52"/>
<polygon fill="midnightblue" stroke="midnightblue" points="315.31,-358.99 313.8,-369.48 321.52,-362.22 315.31,-358.99"/>
</g>
<!-- Node16 -->
<g id="node16" class="node">
<title>Node16</title>
<g id="a_node16"><a xlink:href="member__frontend_8h.html" target="_top" xlink:title=" ">
<polygon fill="white" stroke="black" points="572.35,-168.5 572.35,-198.5 692.35,-198.5 692.35,-168.5 572.35,-168.5"/>
<text text-anchor="start" x="580.35" y="-186.5" font-family="Helvetica,sans-Serif" font-size="10.00">src/node/rpc/member</text>
<text text-anchor="middle" x="632.35" y="-175.5" font-family="Helvetica,sans-Serif" font-size="10.00">_frontend.h</text>
</a>
</g>
</g>
<!-- Node13&#45;&gt;Node16 -->
<g id="edge25" class="edge">
<title>Node13&#45;&gt;Node16</title>
<path fill="none" stroke="midnightblue" d="M384.4,-375.38C458.61,-371.23 565.3,-360.51 595.35,-333 633.96,-297.65 635.06,-228.77 633.52,-198.9"/>
<polygon fill="midnightblue" stroke="midnightblue" points="383.96,-371.9 374.16,-375.93 384.33,-378.89 383.96,-371.9"/>
</g>
<!-- Node17 -->
<g id="node17" class="node">
<title>Node17</title>
<g id="a_node17"><a xlink:href="node__frontend_8h.html" target="_top" xlink:title=" ">
<polygon fill="white" stroke="black" points="428.35,-308 428.35,-327 586.35,-327 586.35,-308 428.35,-308"/>
<text text-anchor="middle" x="507.35" y="-315" font-family="Helvetica,sans-Serif" font-size="10.00">src/node/rpc/node_frontend.h</text>
</a>
</g>
</g>
<!-- Node13&#45;&gt;Node17 -->
<g id="edge27" class="edge">
<title>Node13&#45;&gt;Node17</title>
<path fill="none" stroke="midnightblue" d="M347.53,-366.53C386.01,-354.96 444.51,-337.38 479.04,-327.01"/>
<polygon fill="midnightblue" stroke="midnightblue" points="346.29,-363.25 337.72,-369.48 348.31,-369.95 346.29,-363.25"/>
</g>
<!-- Node19 -->
<g id="node19" class="node">
<title>Node19</title>
<g id="a_node19"><a xlink:href="user__frontend_8h.html" target="_top" xlink:title=" ">
<polygon fill="white" stroke="black" points="29.85,-112.5 29.85,-131.5 184.85,-131.5 184.85,-112.5 29.85,-112.5"/>
<text text-anchor="middle" x="107.35" y="-119.5" font-family="Helvetica,sans-Serif" font-size="10.00">src/node/rpc/user_frontend.h</text>
</a>
</g>
</g>
<!-- Node13&#45;&gt;Node19 -->
<g id="edge31" class="edge">
<title>Node13&#45;&gt;Node19</title>
<path fill="none" stroke="midnightblue" d="M280.8,-364.78C266.05,-356.98 248.44,-346.08 235.35,-333 169.81,-267.52 123.41,-162.16 110.8,-131.58"/>
<polygon fill="midnightblue" stroke="midnightblue" points="279.5,-368.04 290.01,-369.44 282.67,-361.8 279.5,-368.04"/>
</g>
<!-- Node14&#45;&gt;Node4 -->
<g id="edge21" class="edge">
<title>Node14&#45;&gt;Node4</title>
<path fill="none" stroke="midnightblue" d="M370.6,-296.02C380.03,-287.9 389.28,-277.68 394.35,-266 421.6,-203.21 414.69,-177.35 394.35,-112 389.96,-97.87 379.41,-84.25 371.84,-75.77"/>
<polygon fill="midnightblue" stroke="midnightblue" points="368.33,-293.36 362.73,-302.35 372.72,-298.81 368.33,-293.36"/>
</g>
<!-- Node15 -->
<g id="node15" class="node">
<title>Node15</title>
<g id="a_node15"><a xlink:href="ccf__acme__client_8h.html" target="_top" xlink:title=" ">
<polygon fill="white" stroke="black" points="235.85,-241 235.85,-260 384.85,-260 384.85,-241 235.85,-241"/>
<text text-anchor="middle" x="310.35" y="-248" font-family="Helvetica,sans-Serif" font-size="10.00">src/node/ccf_acme_client.h</text>
</a>
</g>
</g>
<!-- Node14&#45;&gt;Node15 -->
<g id="edge22" class="edge">
<title>Node14&#45;&gt;Node15</title>
<path fill="none" stroke="midnightblue" d="M329.64,-293.29C324.34,-281.8 318.26,-268.63 314.37,-260.19"/>
<polygon fill="midnightblue" stroke="midnightblue" points="326.48,-294.78 333.85,-302.4 332.83,-291.85 326.48,-294.78"/>
</g>
<!-- Node15&#45;&gt;Node3 -->
<g id="edge23" class="edge">
<title>Node15&#45;&gt;Node3</title>
<path fill="none" stroke="midnightblue" d="M298.78,-232.4C290.23,-219.77 278.95,-203.1 272.19,-193.13"/>
<polygon fill="midnightblue" stroke="midnightblue" points="295.92,-234.41 304.42,-240.73 301.71,-230.49 295.92,-234.41"/>
</g>
<!-- Node16&#45;&gt;Node4 -->
<g id="edge26" class="edge">
<title>Node16&#45;&gt;Node4</title>
<path fill="none" stroke="midnightblue" d="M614.91,-160.47C601.19,-144.64 580.71,-124.04 558.35,-112 516.9,-89.68 464.7,-78.38 424.74,-72.69"/>
<polygon fill="midnightblue" stroke="midnightblue" points="612.33,-162.84 621.44,-168.25 617.68,-158.34 612.33,-162.84"/>
</g>
<!-- Node17&#45;&gt;Node4 -->
<g id="edge28" class="edge">
<title>Node17&#45;&gt;Node4</title>
<path fill="none" stroke="midnightblue" d="M536.46,-303.03C550.99,-294.62 567.17,-282.27 575.35,-266 581.55,-253.69 581.35,-247.4 575.35,-235 534.58,-150.65 428.61,-95.74 383.82,-75.61"/>
<polygon fill="midnightblue" stroke="midnightblue" points="534.4,-300.17 527.25,-307.99 537.72,-306.33 534.4,-300.17"/>
</g>
<!-- Node18 -->
<g id="node18" class="node">
<title>Node18</title>
<g id="a_node18"><a xlink:href="jwt__key__auto__refresh_8h.html" target="_top" xlink:title=" ">
<polygon fill="white" stroke="black" points="440.85,-235.5 440.85,-265.5 565.85,-265.5 565.85,-235.5 440.85,-235.5"/>
<text text-anchor="start" x="448.85" y="-253.5" font-family="Helvetica,sans-Serif" font-size="10.00">src/node/jwt_key_auto</text>
<text text-anchor="middle" x="503.35" y="-242.5" font-family="Helvetica,sans-Serif" font-size="10.00">_refresh.h</text>
</a>
</g>
</g>
<!-- Node17&#45;&gt;Node18 -->
<g id="edge29" class="edge">
<title>Node17&#45;&gt;Node18</title>
<path fill="none" stroke="midnightblue" d="M506.2,-297.74C505.57,-287.49 504.8,-275 504.22,-265.59"/>
<polygon fill="midnightblue" stroke="midnightblue" points="502.71,-297.97 506.82,-307.73 509.69,-297.54 502.71,-297.97"/>
</g>
<!-- Node18&#45;&gt;Node3 -->
<g id="edge30" class="edge">
<title>Node18&#45;&gt;Node3</title>
<path fill="none" stroke="midnightblue" d="M442.57,-232.83C396.19,-220.11 334.2,-203.11 297.45,-193.03"/>
<polygon fill="midnightblue" stroke="midnightblue" points="441.65,-236.21 452.22,-235.48 443.5,-229.46 441.65,-236.21"/>
</g>
<!-- Node19&#45;&gt;Node4 -->
<g id="edge32" class="edge">
<title>Node19&#45;&gt;Node4</title>
<path fill="none" stroke="midnightblue" d="M157.86,-110.35C206.24,-100.14 278.31,-84.94 322.98,-75.52"/>
<polygon fill="midnightblue" stroke="midnightblue" points="156.98,-106.95 147.92,-112.44 158.43,-113.8 156.98,-106.95"/>
</g>
</g>
</svg>
        <g id="navigator" transform="translate(0 0)" fill="#404254">
                <rect fill="#f2f5e9" fill-opacity="0.5" stroke="#606060" stroke-width=".5" x="0" y="0" width="60" height="60"/>
                <use id="zoomplus" xlink:href="#zoomPlus" x="17" y="9" onmousedown="handleZoom(evt,'in')"/>
                <use id="zoomminus" xlink:href="#zoomMin" x="42" y="9" onmousedown="handleZoom(evt,'out')"/>
                <use id="reset" xlink:href="#resetDef" x="30" y="36" onmousedown="handleReset()"/>
                <g id="arrowUp" xlink:href="#dirArrow" transform="translate(30 24)" onmousedown="handlePan(0,-1)">
                  <use xlink:href="#rim" fill="#404040">
                        <set attributeName="fill" to="#808080" begin="arrowUp.mouseover" end="arrowUp.mouseout"/>
                  </use>
                  <path fill="none" stroke="white" stroke-width="1.5" d="M0,-3.0v7 M-2.5,-0.5L0,-3.0L2.5,-0.5"/>
                </g>
                <g id="arrowRight" xlink:href="#dirArrow" transform="rotate(90) translate(36 -43)" onmousedown="handlePan(1,0)">
                  <use xlink:href="#rim" fill="#404040">
                        <set attributeName="fill" to="#808080" begin="arrowRight.mouseover" end="arrowRight.mouseout"/>
                  </use>
                  <path fill="none" stroke="white" stroke-width="1.5" d="M0,-3.0v7 M-2.5,-0.5L0,-3.0L2.5,-0.5"/>
                </g>
                <g id="arrowDown" xlink:href="#dirArrow" transform="rotate(180) translate(-30 -48)" onmousedown="handlePan(0,1)">
                  <use xlink:href="#rim" fill="#404040">
                        <set attributeName="fill" to="#808080" begin="arrowDown.mouseover" end="arrowDown.mouseout"/>
                  </use>
                  <path fill="none" stroke="white" stroke-width="1.5" d="M0,-3.0v7 M-2.5,-0.5L0,-3.0L2.5,-0.5"/>
                </g>
                <g id="arrowLeft" xlink:href="#dirArrow" transform="rotate(270) translate(-36 17)" onmousedown="handlePan(-1,0)">
                  <use xlink:href="#rim" fill="#404040">
                        <set attributeName="fill" to="#808080" begin="arrowLeft.mouseover" end="arrowLeft.mouseout"/>
                  </use>
                  <path fill="none" stroke="white" stroke-width="1.5" d="M0,-3.0v7 M-2.5,-0.5L0,-3.0L2.5,-0.5"/>
                </g>
        </g>
        <svg viewBox="0 0 15 15" width="100%" height="30px" preserveAspectRatio="xMaxYMin meet">
         <g id="arrow_out" transform="scale(0.3 0.3)">
          <a xlink:href="node__types_8h__dep__incl_org.svg" target="_base">
           <rect id="button" ry="5" rx="5" y="6" x="6" height="38" width="38"
                fill="#f2f5e9" fill-opacity="0.5" stroke="#606060" stroke-width="1.0"/>
           <path id="arrow"
             d="M 11.500037,31.436501 C 11.940474,20.09759 22.043105,11.32322 32.158766,21.979434 L 37.068811,17.246167 C 37.068811,17.246167 37.088388,32 37.088388,32 L 22.160133,31.978069 C 22.160133,31.978069 26.997745,27.140456 26.997745,27.140456 C 18.528582,18.264221 13.291696,25.230495 11.500037,31.436501 z"
             style="fill:#404040;"/>
          </a>
         </g>
        </svg>
</svg>
