<?xml version="1.0" encoding="UTF-8" standalone="no"?>
<!DOCTYPE svg PUBLIC "-//W3C//DTD SVG 1.1//EN"
 "http://www.w3.org/Graphics/SVG/1.1/DTD/svg11.dtd">
<!-- Generated by graphviz version 2.43.0 (0)
 -->
<!-- Title: include/ccf/node_startup_state.h Pages: 1 -->
<svg width="2099pt" height="676pt"
 viewBox="0.00 0.00 2099.00 676.00" xmlns="http://www.w3.org/2000/svg" xmlns:xlink="http://www.w3.org/1999/xlink">
<g id="graph0" class="graph" transform="scale(1 1) rotate(0) translate(4 672)">
<title>include/ccf/node_startup_state.h</title>
<polygon fill="white" stroke="transparent" points="-4,4 -4,-672 2095,-672 2095,4 -4,4"/>
<!-- Node1 -->
<g id="node1" class="node">
<title>Node1</title>
<g id="a_node1"><a xlink:title=" ">
<polygon fill="#bfbfbf" stroke="black" points="628,-637.5 628,-667.5 764,-667.5 764,-637.5 628,-637.5"/>
<text text-anchor="start" x="636" y="-655.5" font-family="Helvetica,sans-Serif" font-size="10.00">include/ccf/node_startup</text>
<text text-anchor="middle" x="696" y="-644.5" font-family="Helvetica,sans-Serif" font-size="10.00">_state.h</text>
</a>
</g>
</g>
<!-- Node2 -->
<g id="node2" class="node">
<title>Node2</title>
<g id="a_node2"><a xlink:href="node__call__types_8h.html" target="_top" xlink:title=" ">
<polygon fill="white" stroke="black" points="478.5,-570.5 478.5,-600.5 603.5,-600.5 603.5,-570.5 478.5,-570.5"/>
<text text-anchor="start" x="486.5" y="-588.5" font-family="Helvetica,sans-Serif" font-size="10.00">src/node/rpc/node_call</text>
<text text-anchor="middle" x="541" y="-577.5" font-family="Helvetica,sans-Serif" font-size="10.00">_types.h</text>
</a>
</g>
</g>
<!-- Node1&#45;&gt;Node2 -->
<g id="edge1" class="edge">
<title>Node1&#45;&gt;Node2</title>
<path fill="none" stroke="midnightblue" d="M652.85,-633.41C628.11,-623.03 597.5,-610.2 574.57,-600.58"/>
<polygon fill="midnightblue" stroke="midnightblue" points="651.79,-636.76 662.37,-637.4 654.5,-630.3 651.79,-636.76"/>
</g>
<!-- Node15 -->
<g id="node15" class="node">
<title>Node15</title>
<g id="a_node15"><a xlink:href="node__interface_8h.html" target="_top" xlink:title=" ">
<polygon fill="white" stroke="black" points="721.5,-514.5 721.5,-533.5 882.5,-533.5 882.5,-514.5 721.5,-514.5"/>
<text text-anchor="middle" x="802" y="-521.5" font-family="Helvetica,sans-Serif" font-size="10.00">src/node/rpc/node_interface.h</text>
</a>
</g>
</g>
<!-- Node1&#45;&gt;Node15 -->
<g id="edge22" class="edge">
<title>Node1&#45;&gt;Node15</title>
<path fill="none" stroke="midnightblue" d="M696.76,-627.26C698.45,-609.72 703.2,-586.33 716,-570 730.14,-551.96 753.52,-540.39 772.34,-533.5"/>
<polygon fill="midnightblue" stroke="midnightblue" points="693.26,-627.08 696.05,-637.3 700.25,-627.57 693.26,-627.08"/>
</g>
<!-- Node33 -->
<g id="node33" class="node">
<title>Node33</title>
<g id="a_node33"><a xlink:href="node__operation__interface_8h.html" target="_top" xlink:title=" ">
<polygon fill="white" stroke="black" points="724.5,-570.5 724.5,-600.5 879.5,-600.5 879.5,-570.5 724.5,-570.5"/>
<text text-anchor="start" x="732.5" y="-588.5" font-family="Helvetica,sans-Serif" font-size="10.00">src/node/rpc/node_operation</text>
<text text-anchor="middle" x="802" y="-577.5" font-family="Helvetica,sans-Serif" font-size="10.00">_interface.h</text>
</a>
</g>
</g>
<!-- Node1&#45;&gt;Node33 -->
<g id="edge61" class="edge">
<title>Node1&#45;&gt;Node33</title>
<path fill="none" stroke="midnightblue" d="M727.78,-632.02C744.27,-621.9 764.05,-609.77 779.04,-600.58"/>
<polygon fill="midnightblue" stroke="midnightblue" points="725.7,-629.18 719,-637.4 729.35,-635.15 725.7,-629.18"/>
</g>
<!-- Node3 -->
<g id="node3" class="node">
<title>Node3</title>
<g id="a_node3"><a xlink:href="call__types_8h.html" target="_top" xlink:title=" ">
<polygon fill="white" stroke="black" points="265.5,-453 265.5,-472 402.5,-472 402.5,-453 265.5,-453"/>
<text text-anchor="middle" x="334" y="-460" font-family="Helvetica,sans-Serif" font-size="10.00">src/node/rpc/call_types.h</text>
</a>
</g>
</g>
<!-- Node2&#45;&gt;Node3 -->
<g id="edge2" class="edge">
<title>Node2&#45;&gt;Node3</title>
<path fill="none" stroke="midnightblue" d="M508.21,-565.33C462.56,-538.65 381.74,-491.41 348.7,-472.09"/>
<polygon fill="midnightblue" stroke="midnightblue" points="506.45,-568.36 516.85,-570.38 509.98,-562.31 506.45,-568.36"/>
</g>
<!-- Node4 -->
<g id="node4" class="node">
<title>Node4</title>
<g id="a_node4"><a xlink:href="common__endpoint__registry_8cpp.html" target="_top" xlink:title=" ">
<polygon fill="white" stroke="black" points="0,-313.5 0,-343.5 128,-343.5 128,-313.5 0,-313.5"/>
<text text-anchor="start" x="8" y="-331.5" font-family="Helvetica,sans-Serif" font-size="10.00">src/endpoints/common</text>
<text text-anchor="middle" x="64" y="-320.5" font-family="Helvetica,sans-Serif" font-size="10.00">_endpoint_registry.cpp</text>
</a>
</g>
</g>
<!-- Node3&#45;&gt;Node4 -->
<g id="edge3" class="edge">
<title>Node3&#45;&gt;Node4</title>
<path fill="none" stroke="midnightblue" d="M301.82,-449.14C277.2,-439.43 242.57,-425.21 213,-411 167.82,-389.29 116.94,-360.47 87.85,-343.56"/>
<polygon fill="midnightblue" stroke="midnightblue" points="300.8,-452.5 311.39,-452.89 303.35,-445.98 300.8,-452.5"/>
</g>
<!-- Node5 -->
<g id="node5" class="node">
<title>Node5</title>
<g id="a_node5"><a xlink:href="wrap_8cpp.html" target="_top" xlink:title=" ">
<polygon fill="white" stroke="black" points="1279.5,-319 1279.5,-338 1368.5,-338 1368.5,-319 1279.5,-319"/>
<text text-anchor="middle" x="1324" y="-326" font-family="Helvetica,sans-Serif" font-size="10.00">src/js/wrap.cpp</text>
</a>
</g>
</g>
<!-- Node3&#45;&gt;Node5 -->
<g id="edge4" class="edge">
<title>Node3&#45;&gt;Node5</title>
<path fill="none" stroke="midnightblue" d="M394.46,-451.2C451.05,-441.41 537.9,-425.99 613,-411 676.35,-398.36 691.14,-389.76 755,-380 948.86,-350.36 1182.74,-336.38 1279.14,-331.55"/>
<polygon fill="midnightblue" stroke="midnightblue" points="393.51,-447.81 384.25,-452.96 394.7,-454.71 393.51,-447.81"/>
</g>
<!-- Node6 -->
<g id="node6" class="node">
<title>Node6</title>
<g id="a_node6"><a xlink:href="resharing_8h.html" target="_top" xlink:title=" ">
<polygon fill="white" stroke="black" points="146,-319 146,-338 262,-338 262,-319 146,-319"/>
<text text-anchor="middle" x="204" y="-326" font-family="Helvetica,sans-Serif" font-size="10.00">src/node/resharing.h</text>
</a>
</g>
</g>
<!-- Node3&#45;&gt;Node6 -->
<g id="edge5" class="edge">
<title>Node3&#45;&gt;Node6</title>
<path fill="none" stroke="midnightblue" d="M294.61,-449.49C274.13,-441.48 250.09,-429.05 234,-411 214.74,-389.39 207.49,-354.35 205.08,-338.18"/>
<polygon fill="midnightblue" stroke="midnightblue" points="293.43,-452.78 304.03,-452.97 295.86,-446.22 293.43,-452.78"/>
</g>
<!-- Node11 -->
<g id="node11" class="node">
<title>Node11</title>
<g id="a_node11"><a xlink:href="member__frontend_8h.html" target="_top" xlink:title=" ">
<polygon fill="white" stroke="black" points="748,-313.5 748,-343.5 868,-343.5 868,-313.5 748,-313.5"/>
<text text-anchor="start" x="756" y="-331.5" font-family="Helvetica,sans-Serif" font-size="10.00">src/node/rpc/member</text>
<text text-anchor="middle" x="808" y="-320.5" font-family="Helvetica,sans-Serif" font-size="10.00">_frontend.h</text>
</a>
</g>
</g>
<!-- Node3&#45;&gt;Node11 -->
<g id="edge11" class="edge">
<title>Node3&#45;&gt;Node11</title>
<path fill="none" stroke="midnightblue" d="M390.37,-451C436,-441.97 501.7,-427.77 558,-411 595.74,-399.76 603.69,-392.59 641,-380 680.17,-366.78 725.05,-353.3 758.41,-343.59"/>
<polygon fill="midnightblue" stroke="midnightblue" points="389.52,-447.6 380.38,-452.96 390.86,-454.47 389.52,-447.6"/>
</g>
<!-- Node12 -->
<g id="node12" class="node">
<title>Node12</title>
<g id="a_node12"><a xlink:href="serialization_8h.html" target="_top" xlink:title=" ">
<polygon fill="white" stroke="black" points="243,-386 243,-405 391,-405 391,-386 243,-386"/>
<text text-anchor="middle" x="317" y="-393" font-family="Helvetica,sans-Serif" font-size="10.00">src/node/rpc/serialization.h</text>
</a>
</g>
</g>
<!-- Node3&#45;&gt;Node12 -->
<g id="edge13" class="edge">
<title>Node3&#45;&gt;Node12</title>
<path fill="none" stroke="midnightblue" d="M329.14,-442.91C325.89,-430.49 321.76,-414.72 319.26,-405.13"/>
<polygon fill="midnightblue" stroke="midnightblue" points="325.79,-443.94 331.71,-452.73 332.56,-442.17 325.79,-443.94"/>
</g>
<!-- Node7 -->
<g id="node7" class="node">
<title>Node7</title>
<g id="a_node7"><a xlink:href="node__state_8h.html" target="_top" xlink:title=" ">
<polygon fill="white" stroke="black" points="487,-185 487,-204 611,-204 611,-185 487,-185"/>
<text text-anchor="middle" x="549" y="-192" font-family="Helvetica,sans-Serif" font-size="10.00">src/node/node_state.h</text>
</a>
</g>
</g>
<!-- Node6&#45;&gt;Node7 -->
<g id="edge6" class="edge">
<title>Node6&#45;&gt;Node7</title>
<path fill="none" stroke="midnightblue" d="M198.89,-309C195.04,-290.63 192.72,-262.85 208,-246 244.28,-205.98 398.92,-197.29 486.98,-195.64"/>
<polygon fill="midnightblue" stroke="midnightblue" points="195.51,-309.91 201.27,-318.8 202.31,-308.26 195.51,-309.91"/>
</g>
<!-- Node8 -->
<g id="node8" class="node">
<title>Node8</title>
<g id="a_node8"><a xlink:href="enclave_2enclave_8h.html" target="_top" xlink:title=" ">
<polygon fill="white" stroke="black" points="797,-56.5 797,-75.5 919,-75.5 919,-56.5 797,-56.5"/>
<text text-anchor="middle" x="858" y="-63.5" font-family="Helvetica,sans-Serif" font-size="10.00">src/enclave/enclave.h</text>
</a>
</g>
</g>
<!-- Node7&#45;&gt;Node8 -->
<g id="edge7" class="edge">
<title>Node7&#45;&gt;Node8</title>
<path fill="none" stroke="midnightblue" d="M583.6,-181.43C611.44,-171.55 651.47,-156.98 686,-143 742.59,-120.09 808.28,-90.1 839.58,-75.6"/>
<polygon fill="midnightblue" stroke="midnightblue" points="582.19,-178.21 573.93,-184.84 584.52,-184.81 582.19,-178.21"/>
</g>
<!-- Node10 -->
<g id="node10" class="node">
<title>Node10</title>
<g id="a_node10"><a xlink:href="gov__effects_8h.html" target="_top" xlink:title=" ">
<polygon fill="white" stroke="black" points="533,-118 533,-137 677,-137 677,-118 533,-118"/>
<text text-anchor="middle" x="605" y="-125" font-family="Helvetica,sans-Serif" font-size="10.00">src/node/rpc/gov_effects.h</text>
</a>
</g>
</g>
<!-- Node7&#45;&gt;Node10 -->
<g id="edge9" class="edge">
<title>Node7&#45;&gt;Node10</title>
<path fill="none" stroke="midnightblue" d="M563.1,-177.13C574.05,-164.42 588.8,-147.3 597.57,-137.13"/>
<polygon fill="midnightblue" stroke="midnightblue" points="560.43,-174.87 556.55,-184.73 565.73,-179.44 560.43,-174.87"/>
</g>
<!-- Node9 -->
<g id="node9" class="node">
<title>Node9</title>
<g id="a_node9"><a xlink:href="enclave_2main_8cpp.html" target="_top" xlink:title=" ">
<polygon fill="white" stroke="black" points="798,-0.5 798,-19.5 918,-19.5 918,-0.5 798,-0.5"/>
<text text-anchor="middle" x="858" y="-7.5" font-family="Helvetica,sans-Serif" font-size="10.00">src/enclave/main.cpp</text>
</a>
</g>
</g>
<!-- Node8&#45;&gt;Node9 -->
<g id="edge8" class="edge">
<title>Node8&#45;&gt;Node9</title>
<path fill="none" stroke="midnightblue" d="M858,-45.8C858,-36.91 858,-26.78 858,-19.75"/>
<polygon fill="midnightblue" stroke="midnightblue" points="854.5,-46.08 858,-56.08 861.5,-46.08 854.5,-46.08"/>
</g>
<!-- Node10&#45;&gt;Node8 -->
<g id="edge10" class="edge">
<title>Node10&#45;&gt;Node8</title>
<path fill="none" stroke="midnightblue" d="M651.29,-115.61C700.39,-104.07 776.95,-86.06 821.82,-75.51"/>
<polygon fill="midnightblue" stroke="midnightblue" points="650.18,-112.28 641.25,-117.98 651.78,-119.09 650.18,-112.28"/>
</g>
<!-- Node11&#45;&gt;Node8 -->
<g id="edge12" class="edge">
<title>Node11&#45;&gt;Node8</title>
<path fill="none" stroke="midnightblue" d="M822.17,-304.31C826.65,-295.97 831.17,-286.32 834,-277 856.91,-201.5 858.27,-104.7 858.11,-75.62"/>
<polygon fill="midnightblue" stroke="midnightblue" points="819.09,-302.65 817.22,-313.07 825.18,-306.09 819.09,-302.65"/>
</g>
<!-- Node12&#45;&gt;Node4 -->
<g id="edge14" class="edge">
<title>Node12&#45;&gt;Node4</title>
<path fill="none" stroke="midnightblue" d="M273.83,-383.41C230.99,-372.4 165.2,-355.5 118.72,-343.56"/>
<polygon fill="midnightblue" stroke="midnightblue" points="273.11,-386.84 283.66,-385.94 274.85,-380.06 273.11,-386.84"/>
</g>
<!-- Node12&#45;&gt;Node6 -->
<g id="edge16" class="edge">
<title>Node12&#45;&gt;Node6</title>
<path fill="none" stroke="midnightblue" d="M292.86,-380.62C270.47,-367.74 237.86,-348.98 219,-338.13"/>
<polygon fill="midnightblue" stroke="midnightblue" points="291.35,-383.78 301.76,-385.73 294.84,-377.71 291.35,-383.78"/>
</g>
<!-- Node12&#45;&gt;Node7 -->
<g id="edge15" class="edge">
<title>Node12&#45;&gt;Node7</title>
<path fill="none" stroke="midnightblue" d="M307.97,-376.35C299.28,-359.46 285.37,-333.82 271,-313 259.17,-295.86 248.09,-296.58 241,-277 236.31,-264.05 232.08,-256.5 241,-246 271.91,-209.61 406.25,-199.39 486.95,-196.55"/>
<polygon fill="midnightblue" stroke="midnightblue" points="305.02,-378.28 312.66,-385.62 311.27,-375.12 305.02,-378.28"/>
</g>
<!-- Node12&#45;&gt;Node11 -->
<g id="edge17" class="edge">
<title>Node12&#45;&gt;Node11</title>
<path fill="none" stroke="midnightblue" d="M379.57,-384.46C390.05,-382.89 400.83,-381.34 411,-380 556.39,-360.82 594.18,-367.11 739,-344 741.9,-343.54 744.86,-343.03 747.85,-342.5"/>
<polygon fill="midnightblue" stroke="midnightblue" points="379,-381 369.64,-385.96 380.05,-387.92 379,-381"/>
</g>
<!-- Node13 -->
<g id="node13" class="node">
<title>Node13</title>
<g id="a_node13"><a xlink:href="node__frontend_8h.html" target="_top" xlink:title=" ">
<polygon fill="white" stroke="black" points="572,-319 572,-338 730,-338 730,-319 572,-319"/>
<text text-anchor="middle" x="651" y="-326" font-family="Helvetica,sans-Serif" font-size="10.00">src/node/rpc/node_frontend.h</text>
</a>
</g>
</g>
<!-- Node12&#45;&gt;Node13 -->
<g id="edge18" class="edge">
<title>Node12&#45;&gt;Node13</title>
<path fill="none" stroke="midnightblue" d="M371.17,-383.96C436.91,-371.16 546.47,-349.84 607.16,-338.03"/>
<polygon fill="midnightblue" stroke="midnightblue" points="370.16,-380.59 361.01,-385.94 371.49,-387.46 370.16,-380.59"/>
</g>
<!-- Node13&#45;&gt;Node8 -->
<g id="edge19" class="edge">
<title>Node13&#45;&gt;Node8</title>
<path fill="none" stroke="midnightblue" d="M723.61,-316.4C749.49,-309.11 776.92,-297.02 796,-277 825.11,-246.45 850.36,-110.96 856.55,-75.51"/>
<polygon fill="midnightblue" stroke="midnightblue" points="722.58,-313.05 713.79,-318.97 724.35,-319.83 722.58,-313.05"/>
</g>
<!-- Node14 -->
<g id="node14" class="node">
<title>Node14</title>
<g id="a_node14"><a xlink:href="jwt__key__auto__refresh_8h.html" target="_top" xlink:title=" ">
<polygon fill="white" stroke="black" points="628.5,-246.5 628.5,-276.5 753.5,-276.5 753.5,-246.5 628.5,-246.5"/>
<text text-anchor="start" x="636.5" y="-264.5" font-family="Helvetica,sans-Serif" font-size="10.00">src/node/jwt_key_auto</text>
<text text-anchor="middle" x="691" y="-253.5" font-family="Helvetica,sans-Serif" font-size="10.00">_refresh.h</text>
</a>
</g>
</g>
<!-- Node13&#45;&gt;Node14 -->
<g id="edge20" class="edge">
<title>Node13&#45;&gt;Node14</title>
<path fill="none" stroke="midnightblue" d="M661.75,-310.03C668.2,-299.56 676.29,-286.4 682.33,-276.59"/>
<polygon fill="midnightblue" stroke="midnightblue" points="658.65,-308.38 656.39,-318.73 664.62,-312.05 658.65,-308.38"/>
</g>
<!-- Node14&#45;&gt;Node7 -->
<g id="edge21" class="edge">
<title>Node14&#45;&gt;Node7</title>
<path fill="none" stroke="midnightblue" d="M650.87,-242.13C623.54,-229.62 588.63,-213.64 567.58,-204.01"/>
<polygon fill="midnightblue" stroke="midnightblue" points="649.64,-245.42 660.19,-246.4 652.55,-239.05 649.64,-245.42"/>
</g>
<!-- Node15&#45;&gt;Node5 -->
<g id="edge23" class="edge">
<title>Node15&#45;&gt;Node5</title>
<path fill="none" stroke="midnightblue" d="M804.14,-504.44C808.83,-473.11 823.08,-410.18 864,-380 929.14,-331.95 1176.72,-328.26 1279.19,-328.86"/>
<polygon fill="midnightblue" stroke="midnightblue" points="800.66,-504.07 802.81,-514.44 807.6,-504.99 800.66,-504.07"/>
</g>
<!-- Node15&#45;&gt;Node11 -->
<g id="edge54" class="edge">
<title>Node15&#45;&gt;Node11</title>
<path fill="none" stroke="midnightblue" d="M779.83,-508.16C770.28,-500.42 760.15,-490.05 755,-478 737.9,-437.94 737.85,-420.04 755,-380 761.41,-365.05 774.66,-352.42 786.3,-343.53"/>
<polygon fill="midnightblue" stroke="midnightblue" points="777.83,-511.04 787.92,-514.26 782.04,-505.45 777.83,-511.04"/>
</g>
<!-- Node15&#45;&gt;Node13 -->
<g id="edge58" class="edge">
<title>Node15&#45;&gt;Node13</title>
<path fill="none" stroke="midnightblue" d="M778.41,-509.13C766.01,-501.09 751.13,-490.16 740,-478 697.78,-431.89 665.41,-362.68 654.76,-338.34"/>
<polygon fill="midnightblue" stroke="midnightblue" points="776.57,-512.11 786.9,-514.46 780.29,-506.18 776.57,-512.11"/>
</g>
<!-- Node16 -->
<g id="node16" class="node">
<title>Node16</title>
<g id="a_node16"><a xlink:href="wrap_8h.html" target="_top" xlink:title=" ">
<polygon fill="white" stroke="black" points="1164,-453 1164,-472 1242,-472 1242,-453 1164,-453"/>
<text text-anchor="middle" x="1203" y="-460" font-family="Helvetica,sans-Serif" font-size="10.00">src/js/wrap.h</text>
</a>
</g>
</g>
<!-- Node15&#45;&gt;Node16 -->
<g id="edge24" class="edge">
<title>Node15&#45;&gt;Node16</title>
<path fill="none" stroke="midnightblue" d="M869.45,-512.99C953.82,-500.47 1095.48,-479.45 1163.8,-469.32"/>
<polygon fill="midnightblue" stroke="midnightblue" points="868.83,-509.55 859.45,-514.48 869.86,-516.47 868.83,-509.55"/>
</g>
<!-- Node23 -->
<g id="node23" class="node">
<title>Node23</title>
<g id="a_node23"><a xlink:href="historical__queries_8h.html" target="_top" xlink:title=" ">
<polygon fill="white" stroke="black" points="1846,-179.5 1846,-209.5 1952,-209.5 1952,-179.5 1846,-179.5"/>
<text text-anchor="start" x="1854" y="-197.5" font-family="Helvetica,sans-Serif" font-size="10.00">src/node/historical</text>
<text text-anchor="middle" x="1899" y="-186.5" font-family="Helvetica,sans-Serif" font-size="10.00">_queries.h</text>
</a>
</g>
</g>
<!-- Node15&#45;&gt;Node23 -->
<g id="edge39" class="edge">
<title>Node15&#45;&gt;Node23</title>
<path fill="none" stroke="midnightblue" d="M892.74,-521.34C1139.12,-516.53 1804.96,-501.42 1846,-478 1883.53,-456.58 1899,-439.71 1899,-396.5 1899,-396.5 1899,-396.5 1899,-327.5 1899,-284.65 1899,-233.97 1899,-209.76"/>
<polygon fill="midnightblue" stroke="midnightblue" points="892.67,-517.84 882.74,-521.53 892.8,-524.84 892.67,-517.84"/>
</g>
<!-- Node25 -->
<g id="node25" class="node">
<title>Node25</title>
<g id="a_node25"><a xlink:href="node__configuration__subsystem_8h.html" target="_top" xlink:title=" ">
<polygon fill="white" stroke="black" points="430,-447.5 430,-477.5 584,-477.5 584,-447.5 430,-447.5"/>
<text text-anchor="start" x="438" y="-465.5" font-family="Helvetica,sans-Serif" font-size="10.00">src/node/node_configuration</text>
<text text-anchor="middle" x="507" y="-454.5" font-family="Helvetica,sans-Serif" font-size="10.00">_subsystem.h</text>
</a>
</g>
</g>
<!-- Node15&#45;&gt;Node25 -->
<g id="edge43" class="edge">
<title>Node15&#45;&gt;Node25</title>
<path fill="none" stroke="midnightblue" d="M749.82,-512.48C701.6,-502.75 629.61,-488.23 576.53,-477.52"/>
<polygon fill="midnightblue" stroke="midnightblue" points="749.24,-515.93 759.73,-514.48 750.62,-509.07 749.24,-515.93"/>
</g>
<!-- Node30 -->
<g id="node30" class="node">
<title>Node30</title>
<g id="a_node30"><a xlink:href="network__identity__subsystem_8h.html" target="_top" xlink:title=" ">
<polygon fill="white" stroke="black" points="1709.5,-447.5 1709.5,-477.5 1836.5,-477.5 1836.5,-447.5 1709.5,-447.5"/>
<text text-anchor="start" x="1717.5" y="-465.5" font-family="Helvetica,sans-Serif" font-size="10.00">src/node/rpc/network</text>
<text text-anchor="middle" x="1773" y="-454.5" font-family="Helvetica,sans-Serif" font-size="10.00">_identity_subsystem.h</text>
</a>
</g>
</g>
<!-- Node15&#45;&gt;Node30 -->
<g id="edge55" class="edge">
<title>Node15&#45;&gt;Node30</title>
<path fill="none" stroke="midnightblue" d="M892.91,-517.43C1087.78,-505.49 1541.61,-477.68 1709.27,-467.41"/>
<polygon fill="midnightblue" stroke="midnightblue" points="892.47,-513.95 882.7,-518.05 892.9,-520.94 892.47,-513.95"/>
</g>
<!-- Node32 -->
<g id="node32" class="node">
<title>Node32</title>
<g id="a_node32"><a xlink:href="node__operation_8h.html" target="_top" xlink:title=" ">
<polygon fill="white" stroke="black" points="1927,-453 1927,-472 2091,-472 2091,-453 1927,-453"/>
<text text-anchor="middle" x="2009" y="-460" font-family="Helvetica,sans-Serif" font-size="10.00">src/node/rpc/node_operation.h</text>
</a>
</g>
</g>
<!-- Node15&#45;&gt;Node32 -->
<g id="edge59" class="edge">
<title>Node15&#45;&gt;Node32</title>
<path fill="none" stroke="midnightblue" d="M892.93,-522.68C1082.85,-521.27 1535.38,-514.06 1913,-478 1928.1,-476.56 1944.45,-474.34 1959.3,-472.06"/>
<polygon fill="midnightblue" stroke="midnightblue" points="892.69,-519.18 882.71,-522.75 892.74,-526.18 892.69,-519.18"/>
</g>
<!-- Node16&#45;&gt;Node5 -->
<g id="edge36" class="edge">
<title>Node16&#45;&gt;Node5</title>
<path fill="none" stroke="midnightblue" d="M1252.49,-454.81C1301.51,-447.04 1371.59,-432.49 1388,-411 1408.53,-384.12 1364.39,-352.77 1339.49,-338.01"/>
<polygon fill="midnightblue" stroke="midnightblue" points="1251.73,-451.38 1242.37,-456.36 1252.79,-458.3 1251.73,-451.38"/>
</g>
<!-- Node16&#45;&gt;Node7 -->
<g id="edge37" class="edge">
<title>Node16&#45;&gt;Node7</title>
<path fill="none" stroke="midnightblue" d="M1153.84,-461.69C1069.04,-460.86 900.83,-453.72 864,-411 835.31,-377.72 898.82,-351.14 877,-313 824.5,-221.25 690.84,-200.01 611.28,-195.77"/>
<polygon fill="midnightblue" stroke="midnightblue" points="1153.97,-465.19 1163.99,-461.77 1154.02,-458.19 1153.97,-465.19"/>
</g>
<!-- Node16&#45;&gt;Node8 -->
<g id="edge26" class="edge">
<title>Node16&#45;&gt;Node8</title>
<path fill="none" stroke="midnightblue" d="M1252.12,-459.32C1364.98,-453.86 1635.45,-438.08 1666,-411 1693.83,-386.33 1685,-366.69 1685,-329.5 1685,-329.5 1685,-329.5 1685,-193.5 1685,-116.02 1110.47,-79.82 919.15,-69.91"/>
<polygon fill="midnightblue" stroke="midnightblue" points="1251.85,-455.83 1242.03,-459.8 1252.18,-462.82 1251.85,-455.83"/>
</g>
<!-- Node16&#45;&gt;Node11 -->
<g id="edge38" class="edge">
<title>Node16&#45;&gt;Node11</title>
<path fill="none" stroke="midnightblue" d="M1153.59,-461.3C1063.68,-459.92 878.21,-452.02 831,-411 811.58,-394.13 807.96,-362.24 807.62,-343.75"/>
<polygon fill="midnightblue" stroke="midnightblue" points="1153.76,-464.8 1163.81,-461.44 1153.86,-457.8 1153.76,-464.8"/>
</g>
<!-- Node17 -->
<g id="node17" class="node">
<title>Node17</title>
<g id="a_node17"><a xlink:href="js__generic__base_8cpp.html" target="_top" xlink:title=" ">
<polygon fill="white" stroke="black" points="873,-380.5 873,-410.5 991,-410.5 991,-380.5 873,-380.5"/>
<text text-anchor="start" x="881" y="-398.5" font-family="Helvetica,sans-Serif" font-size="10.00">src/apps/js_generic</text>
<text text-anchor="middle" x="932" y="-387.5" font-family="Helvetica,sans-Serif" font-size="10.00">/js_generic_base.cpp</text>
</a>
</g>
</g>
<!-- Node16&#45;&gt;Node17 -->
<g id="edge25" class="edge">
<title>Node16&#45;&gt;Node17</title>
<path fill="none" stroke="midnightblue" d="M1157.33,-450.55C1111.47,-439.55 1040.61,-422.55 990.62,-410.56"/>
<polygon fill="midnightblue" stroke="midnightblue" points="1156.75,-454.01 1167.29,-452.94 1158.38,-447.2 1156.75,-454.01"/>
</g>
<!-- Node18 -->
<g id="node18" class="node">
<title>Node18</title>
<g id="a_node18"><a xlink:href="js_2consensus_8cpp.html" target="_top" xlink:title=" ">
<polygon fill="white" stroke="black" points="1435,-386 1435,-405 1551,-405 1551,-386 1435,-386"/>
<text text-anchor="middle" x="1493" y="-393" font-family="Helvetica,sans-Serif" font-size="10.00">src/js/consensus.cpp</text>
</a>
</g>
</g>
<!-- Node16&#45;&gt;Node18 -->
<g id="edge27" class="edge">
<title>Node16&#45;&gt;Node18</title>
<path fill="none" stroke="midnightblue" d="M1251.08,-450.72C1308.18,-437.92 1402.28,-416.83 1454.7,-405.08"/>
<polygon fill="midnightblue" stroke="midnightblue" points="1250.2,-447.33 1241.21,-452.94 1251.73,-454.16 1250.2,-447.33"/>
</g>
<!-- Node19 -->
<g id="node19" class="node">
<title>Node19</title>
<g id="a_node19"><a xlink:href="conv_8cpp.html" target="_top" xlink:title=" ">
<polygon fill="white" stroke="black" points="1569,-386 1569,-405 1657,-405 1657,-386 1569,-386"/>
<text text-anchor="middle" x="1613" y="-393" font-family="Helvetica,sans-Serif" font-size="10.00">src/js/conv.cpp</text>
</a>
</g>
</g>
<!-- Node16&#45;&gt;Node19 -->
<g id="edge29" class="edge">
<title>Node16&#45;&gt;Node19</title>
<path fill="none" stroke="midnightblue" d="M1252.27,-456.53C1321.45,-449.09 1451.11,-433.5 1560,-411 1567.94,-409.36 1576.45,-407.21 1584.28,-405.07"/>
<polygon fill="midnightblue" stroke="midnightblue" points="1251.68,-453.07 1242.11,-457.61 1252.42,-460.03 1251.68,-453.07"/>
</g>
<!-- Node20 -->
<g id="node20" class="node">
<title>Node20</title>
<g id="a_node20"><a xlink:href="js_2crypto_8cpp.html" target="_top" xlink:title=" ">
<polygon fill="white" stroke="black" points="1155,-386 1155,-405 1251,-405 1251,-386 1155,-386"/>
<text text-anchor="middle" x="1203" y="-393" font-family="Helvetica,sans-Serif" font-size="10.00">src/js/crypto.cpp</text>
</a>
</g>
</g>
<!-- Node16&#45;&gt;Node20 -->
<g id="edge31" class="edge">
<title>Node16&#45;&gt;Node20</title>
<path fill="none" stroke="midnightblue" d="M1203,-442.54C1203,-430.17 1203,-414.62 1203,-405.13"/>
<polygon fill="midnightblue" stroke="midnightblue" points="1199.5,-442.73 1203,-452.73 1206.5,-442.73 1199.5,-442.73"/>
</g>
<!-- Node21 -->
<g id="node21" class="node">
<title>Node21</title>
<g id="a_node21"><a xlink:href="js_2historical_8cpp.html" target="_top" xlink:title=" ">
<polygon fill="white" stroke="black" points="1269,-386 1269,-405 1379,-405 1379,-386 1269,-386"/>
<text text-anchor="middle" x="1324" y="-393" font-family="Helvetica,sans-Serif" font-size="10.00">src/js/historical.cpp</text>
</a>
</g>
</g>
<!-- Node16&#45;&gt;Node21 -->
<g id="edge33" class="edge">
<title>Node16&#45;&gt;Node21</title>
<path fill="none" stroke="midnightblue" d="M1228.21,-447.96C1252.2,-435.07 1287.56,-416.07 1307.94,-405.13"/>
<polygon fill="midnightblue" stroke="midnightblue" points="1226.47,-444.92 1219.32,-452.73 1229.78,-451.08 1226.47,-444.92"/>
</g>
<!-- Node22 -->
<g id="node22" class="node">
<title>Node22</title>
<g id="a_node22"><a xlink:href="openenclave_8cpp.html" target="_top" xlink:title=" ">
<polygon fill="white" stroke="black" points="1009,-386 1009,-405 1137,-405 1137,-386 1009,-386"/>
<text text-anchor="middle" x="1073" y="-393" font-family="Helvetica,sans-Serif" font-size="10.00">src/js/openenclave.cpp</text>
</a>
</g>
</g>
<!-- Node16&#45;&gt;Node22 -->
<g id="edge35" class="edge">
<title>Node16&#45;&gt;Node22</title>
<path fill="none" stroke="midnightblue" d="M1176.55,-448.27C1150.8,-435.4 1112.42,-416.21 1090.33,-405.17"/>
<polygon fill="midnightblue" stroke="midnightblue" points="1175.23,-451.53 1185.74,-452.87 1178.36,-445.27 1175.23,-451.53"/>
</g>
<!-- Node18&#45;&gt;Node5 -->
<g id="edge28" class="edge">
<title>Node18&#45;&gt;Node5</title>
<path fill="none" stroke="midnightblue" d="M1461.2,-382.27C1427.66,-369.37 1375.68,-349.38 1346.27,-338.06"/>
<polygon fill="midnightblue" stroke="midnightblue" points="1459.97,-385.55 1470.56,-385.87 1462.48,-379.01 1459.97,-385.55"/>
</g>
<!-- Node19&#45;&gt;Node5 -->
<g id="edge30" class="edge">
<title>Node19&#45;&gt;Node5</title>
<path fill="none" stroke="midnightblue" d="M1573.36,-383.4C1568.87,-382.21 1564.34,-381.06 1560,-380 1493.24,-363.74 1415.16,-347.59 1367.66,-338.08"/>
<polygon fill="midnightblue" stroke="midnightblue" points="1572.52,-386.79 1583.09,-386 1574.33,-380.03 1572.52,-386.79"/>
</g>
<!-- Node20&#45;&gt;Node5 -->
<g id="edge32" class="edge">
<title>Node20&#45;&gt;Node5</title>
<path fill="none" stroke="midnightblue" d="M1228.21,-380.96C1252.2,-368.07 1287.56,-349.07 1307.94,-338.13"/>
<polygon fill="midnightblue" stroke="midnightblue" points="1226.47,-377.92 1219.32,-385.73 1229.78,-384.08 1226.47,-377.92"/>
</g>
<!-- Node21&#45;&gt;Node5 -->
<g id="edge34" class="edge">
<title>Node21&#45;&gt;Node5</title>
<path fill="none" stroke="midnightblue" d="M1324,-375.54C1324,-363.17 1324,-347.62 1324,-338.13"/>
<polygon fill="midnightblue" stroke="midnightblue" points="1320.5,-375.73 1324,-385.73 1327.5,-375.73 1320.5,-375.73"/>
</g>
<!-- Node23&#45;&gt;Node8 -->
<g id="edge40" class="edge">
<title>Node23&#45;&gt;Node8</title>
<path fill="none" stroke="midnightblue" d="M1877.35,-172.2C1854.56,-150.34 1819.72,-118.6 1803,-112 1721.21,-79.74 1115.11,-69.96 919.02,-67.63"/>
<polygon fill="midnightblue" stroke="midnightblue" points="1874.95,-174.75 1884.57,-179.19 1879.82,-169.72 1874.95,-174.75"/>
</g>
<!-- Node24 -->
<g id="node24" class="node">
<title>Node24</title>
<g id="a_node24"><a xlink:href="historical__transaction__fetcher_8h.html" target="_top" xlink:title=" ">
<polygon fill="white" stroke="black" points="1855.5,-112.5 1855.5,-142.5 1980.5,-142.5 1980.5,-112.5 1855.5,-112.5"/>
<text text-anchor="start" x="1863.5" y="-130.5" font-family="Helvetica,sans-Serif" font-size="10.00">src/indexing/historical</text>
<text text-anchor="middle" x="1918" y="-119.5" font-family="Helvetica,sans-Serif" font-size="10.00">_transaction_fetcher.h</text>
</a>
</g>
</g>
<!-- Node23&#45;&gt;Node24 -->
<g id="edge41" class="edge">
<title>Node23&#45;&gt;Node24</title>
<path fill="none" stroke="midnightblue" d="M1905.96,-169.7C1908.62,-160.59 1911.57,-150.49 1913.89,-142.58"/>
<polygon fill="midnightblue" stroke="midnightblue" points="1902.57,-168.82 1903.12,-179.4 1909.29,-170.78 1902.57,-168.82"/>
</g>
<!-- Node24&#45;&gt;Node8 -->
<g id="edge42" class="edge">
<title>Node24&#45;&gt;Node8</title>
<path fill="none" stroke="midnightblue" d="M1845.47,-112.55C1843.97,-112.36 1842.48,-112.17 1841,-112 1493.98,-71.59 1074.1,-67.02 919.21,-66.82"/>
<polygon fill="midnightblue" stroke="midnightblue" points="1845.11,-116.03 1855.5,-113.97 1846.09,-109.1 1845.11,-116.03"/>
</g>
<!-- Node26 -->
<g id="node26" class="node">
<title>Node26</title>
<g id="a_node26"><a xlink:href="frontend_8h.html" target="_top" xlink:title=" ">
<polygon fill="white" stroke="black" points="419.5,-386 419.5,-405 548.5,-405 548.5,-386 419.5,-386"/>
<text text-anchor="middle" x="484" y="-393" font-family="Helvetica,sans-Serif" font-size="10.00">src/node/rpc/frontend.h</text>
</a>
</g>
</g>
<!-- Node25&#45;&gt;Node26 -->
<g id="edge44" class="edge">
<title>Node25&#45;&gt;Node26</title>
<path fill="none" stroke="midnightblue" d="M498.66,-437.94C494.63,-426.54 490.03,-413.55 487.08,-405.19"/>
<polygon fill="midnightblue" stroke="midnightblue" points="495.37,-439.14 502.01,-447.4 501.97,-436.8 495.37,-439.14"/>
</g>
<!-- Node26&#45;&gt;Node7 -->
<g id="edge49" class="edge">
<title>Node26&#45;&gt;Node7</title>
<path fill="none" stroke="midnightblue" d="M449.24,-381.64C432.69,-373.54 414.48,-361.31 405,-344 398.38,-331.92 400.79,-326.12 405,-313 416.2,-278.12 425.38,-270.06 453,-246 474.87,-226.95 505.16,-212.54 525.84,-204.09"/>
<polygon fill="midnightblue" stroke="midnightblue" points="448.16,-384.99 458.72,-385.93 451.05,-378.61 448.16,-384.99"/>
</g>
<!-- Node26&#45;&gt;Node11 -->
<g id="edge50" class="edge">
<title>Node26&#45;&gt;Node11</title>
<path fill="none" stroke="midnightblue" d="M537.73,-384.05C589.36,-373.96 669.56,-358.17 739,-344 741.88,-343.41 744.82,-342.81 747.8,-342.19"/>
<polygon fill="midnightblue" stroke="midnightblue" points="536.94,-380.63 527.8,-385.99 538.28,-387.51 536.94,-380.63"/>
</g>
<!-- Node26&#45;&gt;Node13 -->
<g id="edge51" class="edge">
<title>Node26&#45;&gt;Node13</title>
<path fill="none" stroke="midnightblue" d="M515.85,-382.1C549.01,-369.2 600.06,-349.33 629,-338.06"/>
<polygon fill="midnightblue" stroke="midnightblue" points="514.23,-378.98 506.18,-385.87 516.76,-385.5 514.23,-378.98"/>
</g>
<!-- Node27 -->
<g id="node27" class="node">
<title>Node27</title>
<g id="a_node27"><a xlink:href="acme__challenge__frontend_8h.html" target="_top" xlink:title=" ">
<polygon fill="white" stroke="black" points="414,-313.5 414,-343.5 554,-343.5 554,-313.5 414,-313.5"/>
<text text-anchor="start" x="422" y="-331.5" font-family="Helvetica,sans-Serif" font-size="10.00">src/node/acme_challenge</text>
<text text-anchor="middle" x="484" y="-320.5" font-family="Helvetica,sans-Serif" font-size="10.00">_frontend.h</text>
</a>
</g>
</g>
<!-- Node26&#45;&gt;Node27 -->
<g id="edge45" class="edge">
<title>Node26&#45;&gt;Node27</title>
<path fill="none" stroke="midnightblue" d="M484,-375.41C484,-365.22 484,-352.9 484,-343.59"/>
<polygon fill="midnightblue" stroke="midnightblue" points="480.5,-375.73 484,-385.73 487.5,-375.73 480.5,-375.73"/>
</g>
<!-- Node29 -->
<g id="node29" class="node">
<title>Node29</title>
<g id="a_node29"><a xlink:href="user__frontend_8h.html" target="_top" xlink:title=" ">
<polygon fill="white" stroke="black" points="250.5,-252 250.5,-271 405.5,-271 405.5,-252 250.5,-252"/>
<text text-anchor="middle" x="328" y="-259" font-family="Helvetica,sans-Serif" font-size="10.00">src/node/rpc/user_frontend.h</text>
</a>
</g>
</g>
<!-- Node26&#45;&gt;Node29 -->
<g id="edge52" class="edge">
<title>Node26&#45;&gt;Node29</title>
<path fill="none" stroke="midnightblue" d="M441.6,-382.72C418.86,-374.72 391.58,-362.23 372,-344 349.4,-322.96 335.95,-287.64 330.64,-271.29"/>
<polygon fill="midnightblue" stroke="midnightblue" points="440.76,-386.13 451.35,-385.98 442.98,-379.49 440.76,-386.13"/>
</g>
<!-- Node27&#45;&gt;Node8 -->
<g id="edge46" class="edge">
<title>Node27&#45;&gt;Node8</title>
<path fill="none" stroke="midnightblue" d="M564.3,-312.92C654.71,-299.24 694.27,-330.57 763,-277 771.84,-270.11 837.94,-114.5 854.33,-75.7"/>
<polygon fill="midnightblue" stroke="midnightblue" points="563.5,-309.51 554.21,-314.6 564.65,-316.41 563.5,-309.51"/>
</g>
<!-- Node28 -->
<g id="node28" class="node">
<title>Node28</title>
<g id="a_node28"><a xlink:href="ccf__acme__client_8h.html" target="_top" xlink:title=" ">
<polygon fill="white" stroke="black" points="461.5,-252 461.5,-271 610.5,-271 610.5,-252 461.5,-252"/>
<text text-anchor="middle" x="536" y="-259" font-family="Helvetica,sans-Serif" font-size="10.00">src/node/ccf_acme_client.h</text>
</a>
</g>
</g>
<!-- Node27&#45;&gt;Node28 -->
<g id="edge47" class="edge">
<title>Node27&#45;&gt;Node28</title>
<path fill="none" stroke="midnightblue" d="M501.75,-305.32C511.12,-293.6 522.09,-279.88 529.04,-271.19"/>
<polygon fill="midnightblue" stroke="midnightblue" points="498.8,-303.4 495.28,-313.4 504.26,-307.77 498.8,-303.4"/>
</g>
<!-- Node28&#45;&gt;Node7 -->
<g id="edge48" class="edge">
<title>Node28&#45;&gt;Node7</title>
<path fill="none" stroke="midnightblue" d="M539.72,-241.91C542.2,-229.49 545.36,-213.72 547.27,-204.13"/>
<polygon fill="midnightblue" stroke="midnightblue" points="536.28,-241.24 537.75,-251.73 543.15,-242.61 536.28,-241.24"/>
</g>
<!-- Node29&#45;&gt;Node8 -->
<g id="edge53" class="edge">
<title>Node29&#45;&gt;Node8</title>
<path fill="none" stroke="midnightblue" d="M343.16,-244.44C373.9,-213.01 447.19,-143.68 524,-112 572.07,-92.17 714.41,-78.19 796.93,-71.49"/>
<polygon fill="midnightblue" stroke="midnightblue" points="340.38,-242.28 335.96,-251.91 345.42,-247.13 340.38,-242.28"/>
</g>
<!-- Node30&#45;&gt;Node8 -->
<g id="edge56" class="edge">
<title>Node30&#45;&gt;Node8</title>
<path fill="none" stroke="midnightblue" d="M1812.41,-442.01C1824.1,-434.11 1835.51,-423.78 1842,-411 1848.23,-398.71 1846.19,-393.12 1842,-380 1808.64,-275.56 1785.61,-246.22 1699,-179 1633.53,-128.19 1605.92,-129.88 1525,-112 1410.54,-86.71 1061.42,-73.31 919.23,-68.79"/>
<polygon fill="midnightblue" stroke="midnightblue" points="1810.52,-439.06 1803.91,-447.34 1814.24,-444.99 1810.52,-439.06"/>
</g>
<!-- Node31 -->
<g id="node31" class="node">
<title>Node31</title>
<g id="a_node31"><a xlink:href="historical__queries__adapter_8cpp.html" target="_top" xlink:title=" ">
<polygon fill="white" stroke="black" points="1713,-380.5 1713,-410.5 1833,-410.5 1833,-380.5 1713,-380.5"/>
<text text-anchor="start" x="1721" y="-398.5" font-family="Helvetica,sans-Serif" font-size="10.00">src/node/historical</text>
<text text-anchor="middle" x="1773" y="-387.5" font-family="Helvetica,sans-Serif" font-size="10.00">_queries_adapter.cpp</text>
</a>
</g>
</g>
<!-- Node30&#45;&gt;Node31 -->
<g id="edge57" class="edge">
<title>Node30&#45;&gt;Node31</title>
<path fill="none" stroke="midnightblue" d="M1773,-437.11C1773,-428.15 1773,-418.32 1773,-410.58"/>
<polygon fill="midnightblue" stroke="midnightblue" points="1769.5,-437.4 1773,-447.4 1776.5,-437.4 1769.5,-437.4"/>
</g>
<!-- Node32&#45;&gt;Node8 -->
<g id="edge60" class="edge">
<title>Node32&#45;&gt;Node8</title>
<path fill="none" stroke="midnightblue" d="M2009,-442.72C2009,-417.12 2009,-369.84 2009,-329.5 2009,-329.5 2009,-329.5 2009,-193.5 2009,-156.31 2018.67,-135.7 1990,-112 1948.48,-77.68 1148.66,-69.14 919.11,-67.4"/>
<polygon fill="midnightblue" stroke="midnightblue" points="2005.5,-442.85 2009,-452.85 2012.5,-442.85 2005.5,-442.85"/>
</g>
<!-- Node33&#45;&gt;Node11 -->
<g id="edge62" class="edge">
<title>Node33&#45;&gt;Node11</title>
<path fill="none" stroke="midnightblue" d="M748.52,-565.82C734.5,-558.21 721.07,-547.85 713,-534 708.53,-526.32 712.12,-522.84 713,-514 719.03,-453.55 707.45,-431.3 740,-380 749.77,-364.6 766.03,-352.27 780.2,-343.65"/>
<polygon fill="midnightblue" stroke="midnightblue" points="747.26,-569.1 757.77,-570.44 750.39,-562.84 747.26,-569.1"/>
</g>
<!-- Node33&#45;&gt;Node15 -->
<g id="edge63" class="edge">
<title>Node33&#45;&gt;Node15</title>
<path fill="none" stroke="midnightblue" d="M802,-560.29C802,-550.86 802,-540.65 802,-533.66"/>
<polygon fill="midnightblue" stroke="midnightblue" points="798.5,-560.4 802,-570.4 805.5,-560.4 798.5,-560.4"/>
</g>
<!-- Node33&#45;&gt;Node32 -->
<g id="edge64" class="edge">
<title>Node33&#45;&gt;Node32</title>
<path fill="none" stroke="midnightblue" d="M889.71,-577.72C1077.64,-562.84 1532.97,-524.88 1913,-478 1926.97,-476.28 1942.04,-474.14 1956,-472.03"/>
<polygon fill="midnightblue" stroke="midnightblue" points="889.3,-574.24 879.61,-578.52 889.85,-581.22 889.3,-574.24"/>
</g>
</g>
</svg>
