<?xml version="1.0" encoding="UTF-8" standalone="no"?>
<!DOCTYPE svg PUBLIC "-//W3C//DTD SVG 1.1//EN"
 "http://www.w3.org/Graphics/SVG/1.1/DTD/svg11.dtd">
<!-- Generated by graphviz version 2.43.0 (0)
 -->
<!-- Title: src/service/tables/previous_service_identity.h Pages: 1 -->
<svg width="552pt" height="453pt"
 viewBox="0.00 0.00 552.00 453.00" xmlns="http://www.w3.org/2000/svg" xmlns:xlink="http://www.w3.org/1999/xlink">
<g id="graph0" class="graph" transform="scale(1 1) rotate(0) translate(4 449)">
<title>src/service/tables/previous_service_identity.h</title>
<polygon fill="white" stroke="transparent" points="-4,4 -4,-449 548,-449 548,4 -4,4"/>
<!-- Node1 -->
<g id="node1" class="node">
<title>Node1</title>
<g id="a_node1"><a xlink:title=" ">
<polygon fill="#bfbfbf" stroke="black" points="89,-414.5 89,-444.5 241,-444.5 241,-414.5 89,-414.5"/>
<text text-anchor="start" x="97" y="-432.5" font-family="Helvetica,sans-Serif" font-size="10.00">src/service/tables</text>
<text text-anchor="middle" x="165" y="-421.5" font-family="Helvetica,sans-Serif" font-size="10.00">/previous_service_identity.h</text>
</a>
</g>
</g>
<!-- Node2 -->
<g id="node2" class="node">
<title>Node2</title>
<g id="a_node2"><a xlink:href="node__frontend_8h.html" target="_top" xlink:title=" ">
<polygon fill="white" stroke="black" points="0,-291.5 0,-310.5 158,-310.5 158,-291.5 0,-291.5"/>
<text text-anchor="middle" x="79" y="-298.5" font-family="Helvetica,sans-Serif" font-size="10.00">src/node/rpc/node_frontend.h</text>
</a>
</g>
</g>
<!-- Node1&#45;&gt;Node2 -->
<g id="edge1" class="edge">
<title>Node1&#45;&gt;Node2</title>
<path fill="none" stroke="midnightblue" d="M149.71,-406C130.43,-377.65 98.23,-330.28 84.97,-310.79"/>
<polygon fill="midnightblue" stroke="midnightblue" points="146.95,-408.18 155.47,-414.48 152.74,-404.24 146.95,-408.18"/>
</g>
<!-- Node8 -->
<g id="node8" class="node">
<title>Node8</title>
<g id="a_node8"><a xlink:href="genesis__gen_8h.html" target="_top" xlink:title=" ">
<polygon fill="white" stroke="black" points="164,-347.5 164,-377.5 274,-377.5 274,-347.5 164,-347.5"/>
<text text-anchor="start" x="172" y="-365.5" font-family="Helvetica,sans-Serif" font-size="10.00">src/service/genesis</text>
<text text-anchor="middle" x="219" y="-354.5" font-family="Helvetica,sans-Serif" font-size="10.00">_gen.h</text>
</a>
</g>
</g>
<!-- Node1&#45;&gt;Node8 -->
<g id="edge9" class="edge">
<title>Node1&#45;&gt;Node8</title>
<path fill="none" stroke="midnightblue" d="M183.32,-406.45C191.25,-396.9 200.3,-386 207.31,-377.58"/>
<polygon fill="midnightblue" stroke="midnightblue" points="180.42,-404.47 176.72,-414.4 185.8,-408.94 180.42,-404.47"/>
</g>
<!-- Node3 -->
<g id="node3" class="node">
<title>Node3</title>
<g id="a_node3"><a xlink:href="enclave_2enclave_8h.html" target="_top" xlink:title=" ">
<polygon fill="white" stroke="black" points="149,-56.5 149,-75.5 271,-75.5 271,-56.5 149,-56.5"/>
<text text-anchor="middle" x="210" y="-63.5" font-family="Helvetica,sans-Serif" font-size="10.00">src/enclave/enclave.h</text>
</a>
</g>
</g>
<!-- Node2&#45;&gt;Node3 -->
<g id="edge2" class="edge">
<title>Node2&#45;&gt;Node3</title>
<path fill="none" stroke="midnightblue" d="M52.68,-286.05C41.34,-278.51 29.25,-268.05 23,-255 17.05,-242.58 17.18,-236.49 23,-224 58.64,-147.54 151.87,-95.08 191.62,-75.51"/>
<polygon fill="midnightblue" stroke="midnightblue" points="51.15,-289.21 61.5,-291.46 54.81,-283.25 51.15,-289.21"/>
</g>
<!-- Node5 -->
<g id="node5" class="node">
<title>Node5</title>
<g id="a_node5"><a xlink:href="jwt__key__auto__refresh_8h.html" target="_top" xlink:title=" ">
<polygon fill="white" stroke="black" points="32.5,-224.5 32.5,-254.5 157.5,-254.5 157.5,-224.5 32.5,-224.5"/>
<text text-anchor="start" x="40.5" y="-242.5" font-family="Helvetica,sans-Serif" font-size="10.00">src/node/jwt_key_auto</text>
<text text-anchor="middle" x="95" y="-231.5" font-family="Helvetica,sans-Serif" font-size="10.00">_refresh.h</text>
</a>
</g>
</g>
<!-- Node2&#45;&gt;Node5 -->
<g id="edge4" class="edge">
<title>Node2&#45;&gt;Node5</title>
<path fill="none" stroke="midnightblue" d="M83.89,-281.82C86.25,-273.04 89.04,-262.68 91.23,-254.52"/>
<polygon fill="midnightblue" stroke="midnightblue" points="80.51,-280.91 81.29,-291.48 87.27,-282.73 80.51,-280.91"/>
</g>
<!-- Node4 -->
<g id="node4" class="node">
<title>Node4</title>
<g id="a_node4"><a xlink:href="enclave_2main_8cpp.html" target="_top" xlink:title=" ">
<polygon fill="white" stroke="black" points="150,-0.5 150,-19.5 270,-19.5 270,-0.5 150,-0.5"/>
<text text-anchor="middle" x="210" y="-7.5" font-family="Helvetica,sans-Serif" font-size="10.00">src/enclave/main.cpp</text>
</a>
</g>
</g>
<!-- Node3&#45;&gt;Node4 -->
<g id="edge3" class="edge">
<title>Node3&#45;&gt;Node4</title>
<path fill="none" stroke="midnightblue" d="M210,-45.8C210,-36.91 210,-26.78 210,-19.75"/>
<polygon fill="midnightblue" stroke="midnightblue" points="206.5,-46.08 210,-56.08 213.5,-46.08 206.5,-46.08"/>
</g>
<!-- Node6 -->
<g id="node6" class="node">
<title>Node6</title>
<g id="a_node6"><a xlink:href="node__state_8h.html" target="_top" xlink:title=" ">
<polygon fill="white" stroke="black" points="149,-168.5 149,-187.5 273,-187.5 273,-168.5 149,-168.5"/>
<text text-anchor="middle" x="211" y="-175.5" font-family="Helvetica,sans-Serif" font-size="10.00">src/node/node_state.h</text>
</a>
</g>
</g>
<!-- Node5&#45;&gt;Node6 -->
<g id="edge5" class="edge">
<title>Node5&#45;&gt;Node6</title>
<path fill="none" stroke="midnightblue" d="M131.47,-219.8C152.43,-209.04 177.77,-196.05 194.12,-187.66"/>
<polygon fill="midnightblue" stroke="midnightblue" points="129.79,-216.72 122.49,-224.4 132.99,-222.95 129.79,-216.72"/>
</g>
<!-- Node6&#45;&gt;Node3 -->
<g id="edge6" class="edge">
<title>Node6&#45;&gt;Node3</title>
<path fill="none" stroke="midnightblue" d="M195.55,-160.55C189.1,-152.57 182.34,-142.46 179,-132 172.23,-110.8 189.86,-87.66 201.23,-75.52"/>
<polygon fill="midnightblue" stroke="midnightblue" points="193.06,-163.02 202.25,-168.29 198.35,-158.44 193.06,-163.02"/>
</g>
<!-- Node7 -->
<g id="node7" class="node">
<title>Node7</title>
<g id="a_node7"><a xlink:href="gov__effects_8h.html" target="_top" xlink:title=" ">
<polygon fill="white" stroke="black" points="188,-112.5 188,-131.5 332,-131.5 332,-112.5 188,-112.5"/>
<text text-anchor="middle" x="260" y="-119.5" font-family="Helvetica,sans-Serif" font-size="10.00">src/node/rpc/gov_effects.h</text>
</a>
</g>
</g>
<!-- Node6&#45;&gt;Node7 -->
<g id="edge7" class="edge">
<title>Node6&#45;&gt;Node7</title>
<path fill="none" stroke="midnightblue" d="M226.03,-160.43C234.62,-150.97 245.04,-139.48 252.06,-131.75"/>
<polygon fill="midnightblue" stroke="midnightblue" points="223.22,-158.33 219.09,-168.08 228.4,-163.03 223.22,-158.33"/>
</g>
<!-- Node7&#45;&gt;Node3 -->
<g id="edge8" class="edge">
<title>Node7&#45;&gt;Node3</title>
<path fill="none" stroke="midnightblue" d="M244.92,-104.72C236.11,-95.2 225.33,-83.56 218.1,-75.75"/>
<polygon fill="midnightblue" stroke="midnightblue" points="242.38,-107.12 251.74,-112.08 247.52,-102.37 242.38,-107.12"/>
</g>
<!-- Node8&#45;&gt;Node2 -->
<g id="edge13" class="edge">
<title>Node8&#45;&gt;Node2</title>
<path fill="none" stroke="midnightblue" d="M176.35,-343.37C150.79,-332.51 119.46,-319.2 99.37,-310.66"/>
<polygon fill="midnightblue" stroke="midnightblue" points="175.25,-346.71 185.82,-347.4 177.99,-340.27 175.25,-346.71"/>
</g>
<!-- Node8&#45;&gt;Node6 -->
<g id="edge10" class="edge">
<title>Node8&#45;&gt;Node6</title>
<path fill="none" stroke="midnightblue" d="M214.12,-337.62C209.1,-310.23 202.35,-263.95 205,-224 205.85,-211.26 208.02,-196.62 209.51,-187.59"/>
<polygon fill="midnightblue" stroke="midnightblue" points="210.69,-338.31 216.01,-347.47 217.57,-336.99 210.69,-338.31"/>
</g>
<!-- Node9 -->
<g id="node9" class="node">
<title>Node9</title>
<g id="a_node9"><a xlink:href="member__frontend_8h.html" target="_top" xlink:title=" ">
<polygon fill="white" stroke="black" points="424,-224.5 424,-254.5 544,-254.5 544,-224.5 424,-224.5"/>
<text text-anchor="start" x="432" y="-242.5" font-family="Helvetica,sans-Serif" font-size="10.00">src/node/rpc/member</text>
<text text-anchor="middle" x="484" y="-231.5" font-family="Helvetica,sans-Serif" font-size="10.00">_frontend.h</text>
</a>
</g>
</g>
<!-- Node8&#45;&gt;Node9 -->
<g id="edge11" class="edge">
<title>Node8&#45;&gt;Node9</title>
<path fill="none" stroke="midnightblue" d="M284.21,-355.81C348.05,-348.93 439.34,-335.14 465,-311 480.51,-296.41 483.85,-270.6 484.31,-254.59"/>
<polygon fill="midnightblue" stroke="midnightblue" points="283.8,-352.34 274.21,-356.86 284.52,-359.3 283.8,-352.34"/>
</g>
<!-- Node10 -->
<g id="node10" class="node">
<title>Node10</title>
<g id="a_node10"><a xlink:href="secret__broadcast_8h.html" target="_top" xlink:title=" ">
<polygon fill="white" stroke="black" points="214.5,-230 214.5,-249 367.5,-249 367.5,-230 214.5,-230"/>
<text text-anchor="middle" x="291" y="-237" font-family="Helvetica,sans-Serif" font-size="10.00">src/node/secret_broadcast.h</text>
</a>
</g>
</g>
<!-- Node8&#45;&gt;Node10 -->
<g id="edge14" class="edge">
<title>Node8&#45;&gt;Node10</title>
<path fill="none" stroke="midnightblue" d="M232.82,-338.28C249,-311.08 274.99,-267.4 285.91,-249.05"/>
<polygon fill="midnightblue" stroke="midnightblue" points="229.65,-336.76 227.54,-347.14 235.66,-340.34 229.65,-336.76"/>
</g>
<!-- Node11 -->
<g id="node11" class="node">
<title>Node11</title>
<g id="a_node11"><a xlink:href="share__manager_8h.html" target="_top" xlink:title=" ">
<polygon fill="white" stroke="black" points="310.5,-291.5 310.5,-310.5 455.5,-310.5 455.5,-291.5 310.5,-291.5"/>
<text text-anchor="middle" x="383" y="-298.5" font-family="Helvetica,sans-Serif" font-size="10.00">src/node/share_manager.h</text>
</a>
</g>
</g>
<!-- Node8&#45;&gt;Node11 -->
<g id="edge16" class="edge">
<title>Node8&#45;&gt;Node11</title>
<path fill="none" stroke="midnightblue" d="M267.39,-343.94C297.61,-332.98 335.18,-319.35 359.14,-310.66"/>
<polygon fill="midnightblue" stroke="midnightblue" points="266.07,-340.7 257.87,-347.4 268.46,-347.28 266.07,-340.7"/>
</g>
<!-- Node9&#45;&gt;Node3 -->
<g id="edge12" class="edge">
<title>Node9&#45;&gt;Node3</title>
<path fill="none" stroke="midnightblue" d="M464.65,-216.74C438.9,-188.95 390.79,-141.01 341,-112 311.39,-94.75 274.16,-82.76 246.96,-75.52"/>
<polygon fill="midnightblue" stroke="midnightblue" points="462.27,-219.32 471.6,-224.34 467.44,-214.6 462.27,-219.32"/>
</g>
<!-- Node10&#45;&gt;Node6 -->
<g id="edge15" class="edge">
<title>Node10&#45;&gt;Node6</title>
<path fill="none" stroke="midnightblue" d="M271.23,-223.79C255.88,-212.38 235.14,-196.96 222.44,-187.51"/>
<polygon fill="midnightblue" stroke="midnightblue" points="269.43,-226.82 279.54,-229.98 273.6,-221.2 269.43,-226.82"/>
</g>
<!-- Node11&#45;&gt;Node6 -->
<g id="edge17" class="edge">
<title>Node11&#45;&gt;Node6</title>
<path fill="none" stroke="midnightblue" d="M387.08,-281.01C389.54,-264.12 390.04,-239.73 377,-224 363.13,-207.28 311.4,-195.03 269.33,-187.57"/>
<polygon fill="midnightblue" stroke="midnightblue" points="383.55,-280.85 385.21,-291.31 390.44,-282.1 383.55,-280.85"/>
</g>
<!-- Node11&#45;&gt;Node9 -->
<g id="edge18" class="edge">
<title>Node11&#45;&gt;Node9</title>
<path fill="none" stroke="midnightblue" d="M406.3,-286.28C422.46,-276.75 443.92,-264.11 460.2,-254.52"/>
<polygon fill="midnightblue" stroke="midnightblue" points="404.31,-283.38 397.47,-291.48 407.86,-289.41 404.31,-283.38"/>
</g>
</g>
</svg>
