<?xml version="1.0" encoding="UTF-8" standalone="no"?>
<!DOCTYPE svg PUBLIC "-//W3C//DTD SVG 1.1//EN"
 "http://www.w3.org/Graphics/SVG/1.1/DTD/svg11.dtd">
<!-- Generated by graphviz version 2.43.0 (0)
 -->
<!-- Title: src/host/proxy.h Pages: 1 -->
<!--zoomable 274 -->
<svg id="main" version="1.1" xmlns="http://www.w3.org/2000/svg" xmlns:xlink="http://www.w3.org/1999/xlink" xml:space="preserve" onload="init(evt)">
<style type="text/css"><![CDATA[
.edge:hover path { stroke: red; }
.edge:hover polygon { stroke: red; fill: red; }
]]></style>
<script type="text/javascript"><![CDATA[
var edges = document.getElementsByTagName('g');
if (edges && edges.length) {
  for (var i=0;i<edges.length;i++) {
    if (edges[i].id.substr(0,4)=='edge') {
      edges[i].setAttribute('class','edge');
    }
  }
}
]]></script>
        <defs>
                <circle id="rim" cx="0" cy="0" r="7"/>
                <circle id="rim2" cx="0" cy="0" r="3.5"/>
                <g id="zoomPlus">
                        <use xlink:href="#rim" fill="#404040">
                                <set attributeName="fill" to="#808080" begin="zoomplus.mouseover" end="zoomplus.mouseout"/>
                        </use>
                        <path d="M-4,0h8M0,-4v8" fill="none" stroke="white" stroke-width="1.5" pointer-events="none"/>
                </g>
                <g id="zoomMin">
                        <use xlink:href="#rim" fill="#404040">
                                <set attributeName="fill" to="#808080" begin="zoomminus.mouseover" end="zoomminus.mouseout"/>
                        </use>
                        <path d="M-4,0h8" fill="none" stroke="white" stroke-width="1.5" pointer-events="none"/>
                </g>
                <g id="dirArrow">
                        <path fill="none" stroke="white" stroke-width="1.5" d="M0,-3.0v7 M-2.5,-0.5L0,-3.0L2.5,-0.5"/>
                </g>
               <g id="resetDef">
                       <use xlink:href="#rim2" fill="#404040">
                               <set attributeName="fill" to="#808080" begin="reset.mouseover" end="reset.mouseout"/>
                       </use>
               </g>
        </defs>

<script type="text/javascript">
var viewWidth = 1037;
var viewHeight = 274;
var sectionId = 'dynsection-1';
</script>
<script xlink:href="svgpan.js"/>
<svg id="graph" class="graph">
<g id="viewport">
<title>src/host/proxy.h</title>
<polygon fill="white" stroke="transparent" points="-4,4 -4,-270 1032.5,-270 1032.5,4 -4,4"/>
<!-- Node1 -->
<g id="node1" class="node">
<title>Node1</title>
<g id="a_node1"><a xlink:title=" ">
<polygon fill="#bfbfbf" stroke="black" points="301.5,-246.5 301.5,-265.5 394.5,-265.5 394.5,-246.5 301.5,-246.5"/>
<text text-anchor="middle" x="348" y="-253.5" font-family="Helvetica,sans-Serif" font-size="10.00">src/host/proxy.h</text>
</a>
</g>
</g>
<!-- Node2 -->
<g id="node2" class="node">
<title>Node2</title>
<g id="a_node2"><a xlink:href="after__io_8h.html" target="_top" xlink:title=" ">
<polygon fill="white" stroke="black" points="17,-190.5 17,-209.5 121,-209.5 121,-190.5 17,-190.5"/>
<text text-anchor="middle" x="69" y="-197.5" font-family="Helvetica,sans-Serif" font-size="10.00">src/host/after_io.h</text>
</a>
</g>
</g>
<!-- Node1&#45;&gt;Node2 -->
<g id="edge1" class="edge">
<title>Node1&#45;&gt;Node2</title>
<path fill="none" stroke="midnightblue" d="M293.94,-244.54C241.21,-234.33 162,-219 113,-209.52"/>
<polygon fill="midnightblue" stroke="midnightblue" points="293.31,-247.98 303.79,-246.44 294.64,-241.11 293.31,-247.98"/>
</g>
<!-- Node3 -->
<g id="node3" class="node">
<title>Node3</title>
<g id="a_node3"><a xlink:href="before__io_8h.html" target="_top" xlink:title=" ">
<polygon fill="white" stroke="black" points="291.5,-190.5 291.5,-209.5 404.5,-209.5 404.5,-190.5 291.5,-190.5"/>
<text text-anchor="middle" x="348" y="-197.5" font-family="Helvetica,sans-Serif" font-size="10.00">src/host/before_io.h</text>
</a>
</g>
</g>
<!-- Node1&#45;&gt;Node3 -->
<g id="edge2" class="edge">
<title>Node1&#45;&gt;Node3</title>
<path fill="none" stroke="midnightblue" d="M348,-235.8C348,-226.91 348,-216.78 348,-209.75"/>
<polygon fill="midnightblue" stroke="midnightblue" points="344.5,-236.08 348,-246.08 351.5,-236.08 344.5,-236.08"/>
</g>
<!-- Node4 -->
<g id="node4" class="node">
<title>Node4</title>
<g id="a_node4"><a xlink:href="tcp_8h.html" target="_top" xlink:title=" ">
<polygon fill="white" stroke="black" points="368,-129 368,-148 450,-148 450,-129 368,-129"/>
<text text-anchor="middle" x="409" y="-136" font-family="Helvetica,sans-Serif" font-size="10.00">src/host/tcp.h</text>
</a>
</g>
</g>
<!-- Node1&#45;&gt;Node4 -->
<g id="edge15" class="edge">
<title>Node1&#45;&gt;Node4</title>
<path fill="none" stroke="midnightblue" d="M405.02,-249.47C455.68,-243.24 524.24,-231.12 541,-210 569.02,-174.69 498.43,-154.86 450.02,-145.75"/>
<polygon fill="midnightblue" stroke="midnightblue" points="404.35,-246.03 394.83,-250.68 405.17,-252.98 404.35,-246.03"/>
</g>
<!-- Node8 -->
<g id="node8" class="node">
<title>Node8</title>
<g id="a_node8"><a xlink:href="udp_8h.html" target="_top" xlink:title=" ">
<polygon fill="white" stroke="black" points="264.5,-129 264.5,-148 349.5,-148 349.5,-129 264.5,-129"/>
<text text-anchor="middle" x="307" y="-136" font-family="Helvetica,sans-Serif" font-size="10.00">src/host/udp.h</text>
</a>
</g>
</g>
<!-- Node1&#45;&gt;Node8 -->
<g id="edge26" class="edge">
<title>Node1&#45;&gt;Node8</title>
<path fill="none" stroke="midnightblue" d="M316.62,-241.83C303.42,-234.53 289.42,-224.05 282,-210 270.83,-188.87 288.63,-161.7 299.53,-148.08"/>
<polygon fill="midnightblue" stroke="midnightblue" points="315.04,-244.96 325.54,-246.38 318.22,-238.72 315.04,-244.96"/>
</g>
<!-- Node9 -->
<g id="node9" class="node">
<title>Node9</title>
<g id="a_node9"><a xlink:href="every__io_8h.html" target="_top" xlink:title=" ">
<polygon fill="white" stroke="black" points="422.5,-190.5 422.5,-209.5 531.5,-209.5 531.5,-190.5 422.5,-190.5"/>
<text text-anchor="middle" x="477" y="-197.5" font-family="Helvetica,sans-Serif" font-size="10.00">src/host/every_io.h</text>
</a>
</g>
</g>
<!-- Node1&#45;&gt;Node9 -->
<g id="edge10" class="edge">
<title>Node1&#45;&gt;Node9</title>
<path fill="none" stroke="midnightblue" d="M377.85,-242.5C402.04,-232.38 435.46,-218.39 456.66,-209.52"/>
<polygon fill="midnightblue" stroke="midnightblue" points="376.31,-239.35 368.44,-246.44 379.02,-245.81 376.31,-239.35"/>
</g>
<!-- Node10 -->
<g id="node10" class="node">
<title>Node10</title>
<g id="a_node10"><a xlink:href="signal_8h.html" target="_top" xlink:title=" ">
<polygon fill="white" stroke="black" points="139,-190.5 139,-209.5 235,-209.5 235,-190.5 139,-190.5"/>
<text text-anchor="middle" x="187" y="-197.5" font-family="Helvetica,sans-Serif" font-size="10.00">src/host/signal.h</text>
</a>
</g>
</g>
<!-- Node1&#45;&gt;Node10 -->
<g id="edge11" class="edge">
<title>Node1&#45;&gt;Node10</title>
<path fill="none" stroke="midnightblue" d="M312.74,-243.17C282.42,-233 239.43,-218.59 212.39,-209.52"/>
<polygon fill="midnightblue" stroke="midnightblue" points="311.9,-246.58 322.49,-246.44 314.12,-239.95 311.9,-246.58"/>
</g>
<!-- Node13 -->
<g id="node13" class="node">
<title>Node13</title>
<g id="a_node13"><a xlink:href="timer_8h.html" target="_top" xlink:title=" ">
<polygon fill="white" stroke="black" points="636,-129 636,-148 728,-148 728,-129 636,-129"/>
<text text-anchor="middle" x="682" y="-136" font-family="Helvetica,sans-Serif" font-size="10.00">src/host/timer.h</text>
</a>
</g>
</g>
<!-- Node1&#45;&gt;Node13 -->
<g id="edge16" class="edge">
<title>Node1&#45;&gt;Node13</title>
<path fill="none" stroke="midnightblue" d="M404.64,-247.67C447.69,-240.96 507.84,-229.11 558,-210 601.74,-193.34 648.48,-162.85 669.95,-148.04"/>
<polygon fill="midnightblue" stroke="midnightblue" points="404,-244.23 394.63,-249.18 405.04,-251.15 404,-244.23"/>
</g>
<!-- Node3&#45;&gt;Node4 -->
<g id="edge3" class="edge">
<title>Node3&#45;&gt;Node4</title>
<path fill="none" stroke="midnightblue" d="M364.07,-183.32C375.66,-172.02 390.86,-157.19 400.28,-148.01"/>
<polygon fill="midnightblue" stroke="midnightblue" points="361.45,-180.99 356.74,-190.48 366.34,-186 361.45,-180.99"/>
</g>
<!-- Node3&#45;&gt;Node8 -->
<g id="edge8" class="edge">
<title>Node3&#45;&gt;Node8</title>
<path fill="none" stroke="midnightblue" d="M336.29,-182.01C328.63,-170.89 318.95,-156.84 312.86,-148.01"/>
<polygon fill="midnightblue" stroke="midnightblue" points="333.57,-184.23 342.13,-190.48 339.33,-180.25 333.57,-184.23"/>
</g>
<!-- Node5 -->
<g id="node5" class="node">
<title>Node5</title>
<g id="a_node5"><a xlink:href="node__connections_8h.html" target="_top" xlink:title=" ">
<polygon fill="white" stroke="black" points="331.5,-62 331.5,-81 486.5,-81 486.5,-62 331.5,-62"/>
<text text-anchor="middle" x="409" y="-69" font-family="Helvetica,sans-Serif" font-size="10.00">src/host/node_connections.h</text>
</a>
</g>
</g>
<!-- Node4&#45;&gt;Node5 -->
<g id="edge4" class="edge">
<title>Node4&#45;&gt;Node5</title>
<path fill="none" stroke="midnightblue" d="M409,-118.54C409,-106.17 409,-90.62 409,-81.13"/>
<polygon fill="midnightblue" stroke="midnightblue" points="405.5,-118.73 409,-128.73 412.5,-118.73 405.5,-118.73"/>
</g>
<!-- Node7 -->
<g id="node7" class="node">
<title>Node7</title>
<g id="a_node7"><a xlink:href="rpc__connections_8h.html" target="_top" xlink:title=" ">
<polygon fill="white" stroke="black" points="167,-62 167,-81 313,-81 313,-62 167,-62"/>
<text text-anchor="middle" x="240" y="-69" font-family="Helvetica,sans-Serif" font-size="10.00">src/host/rpc_connections.h</text>
</a>
</g>
</g>
<!-- Node4&#45;&gt;Node7 -->
<g id="edge6" class="edge">
<title>Node4&#45;&gt;Node7</title>
<path fill="none" stroke="midnightblue" d="M377.2,-125.27C343.66,-112.37 291.68,-92.38 262.27,-81.06"/>
<polygon fill="midnightblue" stroke="midnightblue" points="375.97,-128.55 386.56,-128.87 378.48,-122.01 375.97,-128.55"/>
</g>
<!-- Node6 -->
<g id="node6" class="node">
<title>Node6</title>
<g id="a_node6"><a xlink:href="host_2main_8cpp.html" target="_top" xlink:title=" ">
<polygon fill="white" stroke="black" points="518.5,-0.5 518.5,-19.5 621.5,-19.5 621.5,-0.5 518.5,-0.5"/>
<text text-anchor="middle" x="570" y="-7.5" font-family="Helvetica,sans-Serif" font-size="10.00">src/host/main.cpp</text>
</a>
</g>
</g>
<!-- Node5&#45;&gt;Node6 -->
<g id="edge5" class="edge">
<title>Node5&#45;&gt;Node6</title>
<path fill="none" stroke="midnightblue" d="M441.65,-58.43C472.94,-46.87 519.38,-29.71 546.98,-19.51"/>
<polygon fill="midnightblue" stroke="midnightblue" points="440.23,-55.23 432.07,-61.98 442.66,-61.79 440.23,-55.23"/>
</g>
<!-- Node7&#45;&gt;Node6 -->
<g id="edge7" class="edge">
<title>Node7&#45;&gt;Node6</title>
<path fill="none" stroke="midnightblue" d="M297.19,-60.19C361.07,-48.67 463.3,-30.24 522.81,-19.51"/>
<polygon fill="midnightblue" stroke="midnightblue" points="296.5,-56.76 287.28,-61.98 297.74,-63.65 296.5,-56.76"/>
</g>
<!-- Node8&#45;&gt;Node7 -->
<g id="edge9" class="edge">
<title>Node8&#45;&gt;Node7</title>
<path fill="none" stroke="midnightblue" d="M290.5,-121.5C277.36,-108.75 259.48,-91.39 248.89,-81.13"/>
<polygon fill="midnightblue" stroke="midnightblue" points="288.35,-124.28 297.96,-128.73 293.22,-119.26 288.35,-124.28"/>
</g>
<!-- Node11 -->
<g id="node11" class="node">
<title>Node11</title>
<g id="a_node11"><a xlink:href="v8__oe__stubs_8cpp.html" target="_top" xlink:title=" ">
<polygon fill="white" stroke="black" points="128,-123.5 128,-153.5 246,-153.5 246,-123.5 128,-123.5"/>
<text text-anchor="start" x="136" y="-141.5" font-family="Helvetica,sans-Serif" font-size="10.00">src/apps/js_v8/v8_oe</text>
<text text-anchor="middle" x="187" y="-130.5" font-family="Helvetica,sans-Serif" font-size="10.00">_stubs.cpp</text>
</a>
</g>
</g>
<!-- Node10&#45;&gt;Node11 -->
<g id="edge12" class="edge">
<title>Node10&#45;&gt;Node11</title>
<path fill="none" stroke="midnightblue" d="M187,-180.23C187,-171.59 187,-161.5 187,-153.52"/>
<polygon fill="midnightblue" stroke="midnightblue" points="183.5,-180.48 187,-190.48 190.5,-180.48 183.5,-180.48"/>
</g>
<!-- Node12 -->
<g id="node12" class="node">
<title>Node12</title>
<g id="a_node12"><a xlink:href="sig__term_8h.html" target="_top" xlink:title=" ">
<polygon fill="white" stroke="black" points="0,-129 0,-148 110,-148 110,-129 0,-129"/>
<text text-anchor="middle" x="55" y="-136" font-family="Helvetica,sans-Serif" font-size="10.00">src/host/sig_term.h</text>
</a>
</g>
</g>
<!-- Node10&#45;&gt;Node12 -->
<g id="edge13" class="edge">
<title>Node10&#45;&gt;Node12</title>
<path fill="none" stroke="midnightblue" d="M158.89,-186.33C133.26,-174.78 96.11,-158.03 73.88,-148.01"/>
<polygon fill="midnightblue" stroke="midnightblue" points="157.53,-189.56 168.09,-190.48 160.41,-183.17 157.53,-189.56"/>
</g>
<!-- Node12&#45;&gt;Node6 -->
<g id="edge14" class="edge">
<title>Node12&#45;&gt;Node6</title>
<path fill="none" stroke="midnightblue" d="M69.43,-121.57C87.89,-102.37 121.82,-70.84 158,-56 222.08,-29.73 422.75,-17.52 518.36,-13.08"/>
<polygon fill="midnightblue" stroke="midnightblue" points="66.79,-119.27 62.51,-128.96 71.9,-124.06 66.79,-119.27"/>
</g>
<!-- Node13&#45;&gt;Node5 -->
<g id="edge21" class="edge">
<title>Node13&#45;&gt;Node5</title>
<path fill="none" stroke="midnightblue" d="M636.07,-126.56C582.25,-113.75 494.2,-92.78 445.05,-81.08"/>
<polygon fill="midnightblue" stroke="midnightblue" points="635.49,-130.02 646.03,-128.94 637.11,-123.21 635.49,-130.02"/>
</g>
<!-- Node14 -->
<g id="node14" class="node">
<title>Node14</title>
<g id="a_node14"><a xlink:href="handle__ring__buffer_8h.html" target="_top" xlink:title=" ">
<polygon fill="white" stroke="black" points="653.5,-56.5 653.5,-86.5 768.5,-86.5 768.5,-56.5 653.5,-56.5"/>
<text text-anchor="start" x="661.5" y="-74.5" font-family="Helvetica,sans-Serif" font-size="10.00">src/host/handle_ring</text>
<text text-anchor="middle" x="711" y="-63.5" font-family="Helvetica,sans-Serif" font-size="10.00">_buffer.h</text>
</a>
</g>
</g>
<!-- Node13&#45;&gt;Node14 -->
<g id="edge17" class="edge">
<title>Node13&#45;&gt;Node14</title>
<path fill="none" stroke="midnightblue" d="M690.08,-119.39C694.71,-109.02 700.43,-96.2 704.71,-86.59"/>
<polygon fill="midnightblue" stroke="midnightblue" points="686.79,-118.18 685.91,-128.73 693.18,-121.03 686.79,-118.18"/>
</g>
<!-- Node15 -->
<g id="node15" class="node">
<title>Node15</title>
<g id="a_node15"><a xlink:href="load__monitor_8h.html" target="_top" xlink:title=" ">
<polygon fill="white" stroke="black" points="786.5,-62 786.5,-81 917.5,-81 917.5,-62 786.5,-62"/>
<text text-anchor="middle" x="852" y="-69" font-family="Helvetica,sans-Serif" font-size="10.00">src/host/load_monitor.h</text>
</a>
</g>
</g>
<!-- Node13&#45;&gt;Node15 -->
<g id="edge19" class="edge">
<title>Node13&#45;&gt;Node15</title>
<path fill="none" stroke="midnightblue" d="M713.98,-125.27C747.72,-112.37 800.02,-92.38 829.6,-81.06"/>
<polygon fill="midnightblue" stroke="midnightblue" points="712.67,-122.03 704.57,-128.87 715.17,-128.57 712.67,-122.03"/>
</g>
<!-- Node16 -->
<g id="node16" class="node">
<title>Node16</title>
<g id="a_node16"><a xlink:href="ticker_8h.html" target="_top" xlink:title=" ">
<polygon fill="white" stroke="black" points="935.5,-62 935.5,-81 1028.5,-81 1028.5,-62 935.5,-62"/>
<text text-anchor="middle" x="982" y="-69" font-family="Helvetica,sans-Serif" font-size="10.00">src/host/ticker.h</text>
</a>
</g>
</g>
<!-- Node13&#45;&gt;Node16 -->
<g id="edge22" class="edge">
<title>Node13&#45;&gt;Node16</title>
<path fill="none" stroke="midnightblue" d="M737.23,-127.01C787.01,-117.34 862.13,-102.22 927,-87 934.79,-85.17 943.15,-83.05 950.95,-81"/>
<polygon fill="midnightblue" stroke="midnightblue" points="736.47,-123.59 727.32,-128.93 737.8,-130.46 736.47,-123.59"/>
</g>
<!-- Node17 -->
<g id="node17" class="node">
<title>Node17</title>
<g id="a_node17"><a xlink:href="time__updater_8h.html" target="_top" xlink:title=" ">
<polygon fill="white" stroke="black" points="504.5,-62 504.5,-81 635.5,-81 635.5,-62 504.5,-62"/>
<text text-anchor="middle" x="570" y="-69" font-family="Helvetica,sans-Serif" font-size="10.00">src/host/time_updater.h</text>
</a>
</g>
</g>
<!-- Node13&#45;&gt;Node17 -->
<g id="edge24" class="edge">
<title>Node13&#45;&gt;Node17</title>
<path fill="none" stroke="midnightblue" d="M658.08,-123.62C635.89,-110.74 603.56,-91.98 584.87,-81.13"/>
<polygon fill="midnightblue" stroke="midnightblue" points="656.49,-126.74 666.9,-128.73 660,-120.69 656.49,-126.74"/>
</g>
<!-- Node14&#45;&gt;Node6 -->
<g id="edge18" class="edge">
<title>Node14&#45;&gt;Node6</title>
<path fill="none" stroke="midnightblue" d="M668.04,-52.37C642.3,-41.51 610.75,-28.2 590.52,-19.66"/>
<polygon fill="midnightblue" stroke="midnightblue" points="667.01,-55.74 677.58,-56.4 669.73,-49.29 667.01,-55.74"/>
</g>
<!-- Node15&#45;&gt;Node6 -->
<g id="edge20" class="edge">
<title>Node15&#45;&gt;Node6</title>
<path fill="none" stroke="midnightblue" d="M801.77,-59.9C747.1,-48.37 660.76,-30.15 610.33,-19.51"/>
<polygon fill="midnightblue" stroke="midnightblue" points="801.09,-63.34 811.6,-61.98 802.53,-56.49 801.09,-63.34"/>
</g>
<!-- Node16&#45;&gt;Node6 -->
<g id="edge23" class="edge">
<title>Node16&#45;&gt;Node6</title>
<path fill="none" stroke="midnightblue" d="M942.61,-59.44C937.39,-58.17 932.08,-56.99 927,-56 819.37,-35.12 691.53,-21.72 621.77,-15.36"/>
<polygon fill="midnightblue" stroke="midnightblue" points="941.93,-62.88 952.48,-61.95 943.65,-56.1 941.93,-62.88"/>
</g>
<!-- Node17&#45;&gt;Node6 -->
<g id="edge25" class="edge">
<title>Node17&#45;&gt;Node6</title>
<path fill="none" stroke="midnightblue" d="M570,-51.82C570,-41 570,-27.9 570,-19.51"/>
<polygon fill="midnightblue" stroke="midnightblue" points="566.5,-51.98 570,-61.98 573.5,-51.98 566.5,-51.98"/>
</g>
</g>
</svg>
        <g id="navigator" transform="translate(0 0)" fill="#404254">
                <rect fill="#f2f5e9" fill-opacity="0.5" stroke="#606060" stroke-width=".5" x="0" y="0" width="60" height="60"/>
                <use id="zoomplus" xlink:href="#zoomPlus" x="17" y="9" onmousedown="handleZoom(evt,'in')"/>
                <use id="zoomminus" xlink:href="#zoomMin" x="42" y="9" onmousedown="handleZoom(evt,'out')"/>
                <use id="reset" xlink:href="#resetDef" x="30" y="36" onmousedown="handleReset()"/>
                <g id="arrowUp" xlink:href="#dirArrow" transform="translate(30 24)" onmousedown="handlePan(0,-1)">
                  <use xlink:href="#rim" fill="#404040">
                        <set attributeName="fill" to="#808080" begin="arrowUp.mouseover" end="arrowUp.mouseout"/>
                  </use>
                  <path fill="none" stroke="white" stroke-width="1.5" d="M0,-3.0v7 M-2.5,-0.5L0,-3.0L2.5,-0.5"/>
                </g>
                <g id="arrowRight" xlink:href="#dirArrow" transform="rotate(90) translate(36 -43)" onmousedown="handlePan(1,0)">
                  <use xlink:href="#rim" fill="#404040">
                        <set attributeName="fill" to="#808080" begin="arrowRight.mouseover" end="arrowRight.mouseout"/>
                  </use>
                  <path fill="none" stroke="white" stroke-width="1.5" d="M0,-3.0v7 M-2.5,-0.5L0,-3.0L2.5,-0.5"/>
                </g>
                <g id="arrowDown" xlink:href="#dirArrow" transform="rotate(180) translate(-30 -48)" onmousedown="handlePan(0,1)">
                  <use xlink:href="#rim" fill="#404040">
                        <set attributeName="fill" to="#808080" begin="arrowDown.mouseover" end="arrowDown.mouseout"/>
                  </use>
                  <path fill="none" stroke="white" stroke-width="1.5" d="M0,-3.0v7 M-2.5,-0.5L0,-3.0L2.5,-0.5"/>
                </g>
                <g id="arrowLeft" xlink:href="#dirArrow" transform="rotate(270) translate(-36 17)" onmousedown="handlePan(-1,0)">
                  <use xlink:href="#rim" fill="#404040">
                        <set attributeName="fill" to="#808080" begin="arrowLeft.mouseover" end="arrowLeft.mouseout"/>
                  </use>
                  <path fill="none" stroke="white" stroke-width="1.5" d="M0,-3.0v7 M-2.5,-0.5L0,-3.0L2.5,-0.5"/>
                </g>
        </g>
        <svg viewBox="0 0 15 15" width="100%" height="30px" preserveAspectRatio="xMaxYMin meet">
         <g id="arrow_out" transform="scale(0.3 0.3)">
          <a xlink:href="proxy_8h__dep__incl_org.svg" target="_base">
           <rect id="button" ry="5" rx="5" y="6" x="6" height="38" width="38"
                fill="#f2f5e9" fill-opacity="0.5" stroke="#606060" stroke-width="1.0"/>
           <path id="arrow"
             d="M 11.500037,31.436501 C 11.940474,20.09759 22.043105,11.32322 32.158766,21.979434 L 37.068811,17.246167 C 37.068811,17.246167 37.088388,32 37.088388,32 L 22.160133,31.978069 C 22.160133,31.978069 26.997745,27.140456 26.997745,27.140456 C 18.528582,18.264221 13.291696,25.230495 11.500037,31.436501 z"
             style="fill:#404040;"/>
          </a>
         </g>
        </svg>
</svg>
