<?xml version="1.0" encoding="UTF-8" standalone="no"?>
<!DOCTYPE svg PUBLIC "-//W3C//DTD SVG 1.1//EN"
 "http://www.w3.org/Graphics/SVG/1.1/DTD/svg11.dtd">
<!-- Generated by graphviz version 2.43.0 (0)
 -->
<!-- Title: src/enclave/rpc_map.h Pages: 1 -->
<svg width="1060pt" height="520pt"
 viewBox="0.00 0.00 1060.26 520.00" xmlns="http://www.w3.org/2000/svg" xmlns:xlink="http://www.w3.org/1999/xlink">
<g id="graph0" class="graph" transform="scale(1 1) rotate(0) translate(4 516)">
<title>src/enclave/rpc_map.h</title>
<polygon fill="white" stroke="transparent" points="-4,4 -4,-516 1056.26,-516 1056.26,4 -4,4"/>
<!-- Node1 -->
<g id="node1" class="node">
<title>Node1</title>
<g id="a_node1"><a xlink:title=" ">
<polygon fill="#bfbfbf" stroke="black" points="236,-492.5 236,-511.5 362,-511.5 362,-492.5 236,-492.5"/>
<text text-anchor="middle" x="299" y="-499.5" font-family="Helvetica,sans-Serif" font-size="10.00">src/enclave/rpc_map.h</text>
</a>
</g>
</g>
<!-- Node2 -->
<g id="node2" class="node">
<title>Node2</title>
<g id="a_node2"><a xlink:href="enclave_2enclave_8h.html" target="_top" xlink:title=" ">
<polygon fill="white" stroke="black" points="702,-56.5 702,-75.5 824,-75.5 824,-56.5 702,-56.5"/>
<text text-anchor="middle" x="763" y="-63.5" font-family="Helvetica,sans-Serif" font-size="10.00">src/enclave/enclave.h</text>
</a>
</g>
</g>
<!-- Node1&#45;&gt;Node2 -->
<g id="edge1" class="edge">
<title>Node1&#45;&gt;Node2</title>
<path fill="none" stroke="midnightblue" d="M225.81,-498.47C177.81,-494.11 115.07,-483.1 66,-456 28.43,-435.25 0,-428.42 0,-385.5 0,-385.5 0,-385.5 0,-182.5 0,-111.66 520.79,-79.04 701.85,-69.84"/>
<polygon fill="midnightblue" stroke="midnightblue" points="225.57,-501.96 235.83,-499.3 226.15,-494.98 225.57,-501.96"/>
</g>
<!-- Node4 -->
<g id="node4" class="node">
<title>Node4</title>
<g id="a_node4"><a xlink:href="http2__endpoint_8h.html" target="_top" xlink:title=" ">
<polygon fill="white" stroke="black" points="75.5,-436.5 75.5,-455.5 214.5,-455.5 214.5,-436.5 75.5,-436.5"/>
<text text-anchor="middle" x="145" y="-443.5" font-family="Helvetica,sans-Serif" font-size="10.00">src/http/http2_endpoint.h</text>
</a>
</g>
</g>
<!-- Node1&#45;&gt;Node4 -->
<g id="edge3" class="edge">
<title>Node1&#45;&gt;Node4</title>
<path fill="none" stroke="midnightblue" d="M264.89,-489.04C235.91,-478.88 195.04,-464.55 169.29,-455.52"/>
<polygon fill="midnightblue" stroke="midnightblue" points="264,-492.44 274.6,-492.44 266.32,-485.83 264,-492.44"/>
</g>
<!-- Node10 -->
<g id="node10" class="node">
<title>Node10</title>
<g id="a_node10"><a xlink:href="http__endpoint_8h.html" target="_top" xlink:title=" ">
<polygon fill="white" stroke="black" points="232.5,-436.5 232.5,-455.5 365.5,-455.5 365.5,-436.5 232.5,-436.5"/>
<text text-anchor="middle" x="299" y="-443.5" font-family="Helvetica,sans-Serif" font-size="10.00">src/http/http_endpoint.h</text>
</a>
</g>
</g>
<!-- Node1&#45;&gt;Node10 -->
<g id="edge14" class="edge">
<title>Node1&#45;&gt;Node10</title>
<path fill="none" stroke="midnightblue" d="M299,-481.8C299,-472.91 299,-462.78 299,-455.75"/>
<polygon fill="midnightblue" stroke="midnightblue" points="295.5,-482.08 299,-492.08 302.5,-482.08 295.5,-482.08"/>
</g>
<!-- Node11 -->
<g id="node11" class="node">
<title>Node11</title>
<g id="a_node11"><a xlink:href="node__client_8h.html" target="_top" xlink:title=" ">
<polygon fill="white" stroke="black" points="384,-436.5 384,-455.5 510,-455.5 510,-436.5 384,-436.5"/>
<text text-anchor="middle" x="447" y="-443.5" font-family="Helvetica,sans-Serif" font-size="10.00">src/node/node_client.h</text>
</a>
</g>
</g>
<!-- Node1&#45;&gt;Node11 -->
<g id="edge16" class="edge">
<title>Node1&#45;&gt;Node11</title>
<path fill="none" stroke="midnightblue" d="M332.15,-488.91C359.97,-478.75 399.02,-464.51 423.66,-455.52"/>
<polygon fill="midnightblue" stroke="midnightblue" points="330.65,-485.73 322.45,-492.44 333.04,-492.3 330.65,-485.73"/>
</g>
<!-- Node18 -->
<g id="node18" class="node">
<title>Node18</title>
<g id="a_node18"><a xlink:href="forwarder_8h.html" target="_top" xlink:title=" ">
<polygon fill="white" stroke="black" points="756,-436.5 756,-455.5 890,-455.5 890,-436.5 756,-436.5"/>
<text text-anchor="middle" x="823" y="-443.5" font-family="Helvetica,sans-Serif" font-size="10.00">src/node/rpc/forwarder.h</text>
</a>
</g>
</g>
<!-- Node1&#45;&gt;Node18 -->
<g id="edge29" class="edge">
<title>Node1&#45;&gt;Node18</title>
<path fill="none" stroke="midnightblue" d="M372.42,-493.43C474.37,-482.93 657.35,-464.07 755.85,-453.92"/>
<polygon fill="midnightblue" stroke="midnightblue" points="371.8,-489.98 362.21,-494.49 372.51,-496.94 371.8,-489.98"/>
</g>
<!-- Node3 -->
<g id="node3" class="node">
<title>Node3</title>
<g id="a_node3"><a xlink:href="enclave_2main_8cpp.html" target="_top" xlink:title=" ">
<polygon fill="white" stroke="black" points="703,-0.5 703,-19.5 823,-19.5 823,-0.5 703,-0.5"/>
<text text-anchor="middle" x="763" y="-7.5" font-family="Helvetica,sans-Serif" font-size="10.00">src/enclave/main.cpp</text>
</a>
</g>
</g>
<!-- Node2&#45;&gt;Node3 -->
<g id="edge2" class="edge">
<title>Node2&#45;&gt;Node3</title>
<path fill="none" stroke="midnightblue" d="M763,-45.8C763,-36.91 763,-26.78 763,-19.75"/>
<polygon fill="midnightblue" stroke="midnightblue" points="759.5,-46.08 763,-56.08 766.5,-46.08 759.5,-46.08"/>
</g>
<!-- Node5 -->
<g id="node5" class="node">
<title>Node5</title>
<g id="a_node5"><a xlink:href="rpc__sessions_8h.html" target="_top" xlink:title=" ">
<polygon fill="white" stroke="black" points="105,-308 105,-327 251,-327 251,-308 105,-308"/>
<text text-anchor="middle" x="178" y="-315" font-family="Helvetica,sans-Serif" font-size="10.00">src/enclave/rpc_sessions.h</text>
</a>
</g>
</g>
<!-- Node4&#45;&gt;Node5 -->
<g id="edge4" class="edge">
<title>Node4&#45;&gt;Node5</title>
<path fill="none" stroke="midnightblue" d="M149.88,-426.31C157.11,-398.58 170.4,-347.63 175.72,-327.26"/>
<polygon fill="midnightblue" stroke="midnightblue" points="146.41,-425.75 147.27,-436.31 153.18,-427.51 146.41,-425.75"/>
</g>
<!-- Node5&#45;&gt;Node2 -->
<g id="edge5" class="edge">
<title>Node5&#45;&gt;Node2</title>
<path fill="none" stroke="midnightblue" d="M132,-305.15C88.14,-292.07 32.17,-268.03 57,-235 135.02,-131.2 545.11,-85.64 701.93,-71.83"/>
<polygon fill="midnightblue" stroke="midnightblue" points="131.13,-308.54 141.71,-307.93 133.06,-301.81 131.13,-308.54"/>
</g>
<!-- Node6 -->
<g id="node6" class="node">
<title>Node6</title>
<g id="a_node6"><a xlink:href="ccf__acme__client_8h.html" target="_top" xlink:title=" ">
<polygon fill="white" stroke="black" points="237.5,-241 237.5,-260 386.5,-260 386.5,-241 237.5,-241"/>
<text text-anchor="middle" x="312" y="-248" font-family="Helvetica,sans-Serif" font-size="10.00">src/node/ccf_acme_client.h</text>
</a>
</g>
</g>
<!-- Node5&#45;&gt;Node6 -->
<g id="edge6" class="edge">
<title>Node5&#45;&gt;Node6</title>
<path fill="none" stroke="midnightblue" d="M204.92,-303.44C231.46,-290.57 271.27,-271.26 294.13,-260.17"/>
<polygon fill="midnightblue" stroke="midnightblue" points="203.26,-300.35 195.79,-307.87 206.32,-306.65 203.26,-300.35"/>
</g>
<!-- Node7 -->
<g id="node7" class="node">
<title>Node7</title>
<g id="a_node7"><a xlink:href="node__state_8h.html" target="_top" xlink:title=" ">
<polygon fill="white" stroke="black" points="481,-174 481,-193 605,-193 605,-174 481,-174"/>
<text text-anchor="middle" x="543" y="-181" font-family="Helvetica,sans-Serif" font-size="10.00">src/node/node_state.h</text>
</a>
</g>
</g>
<!-- Node5&#45;&gt;Node7 -->
<g id="edge11" class="edge">
<title>Node5&#45;&gt;Node7</title>
<path fill="none" stroke="midnightblue" d="M184.22,-298.27C191.71,-279.24 206.22,-250.11 229,-235 269.26,-208.3 401.21,-194.5 480.68,-188.45"/>
<polygon fill="midnightblue" stroke="midnightblue" points="180.85,-297.29 180.69,-307.89 187.42,-299.71 180.85,-297.29"/>
</g>
<!-- Node9 -->
<g id="node9" class="node">
<title>Node9</title>
<g id="a_node9"><a xlink:href="resharing_8h.html" target="_top" xlink:title=" ">
<polygon fill="white" stroke="black" points="66,-241 66,-260 182,-260 182,-241 66,-241"/>
<text text-anchor="middle" x="124" y="-248" font-family="Helvetica,sans-Serif" font-size="10.00">src/node/resharing.h</text>
</a>
</g>
</g>
<!-- Node5&#45;&gt;Node9 -->
<g id="edge12" class="edge">
<title>Node5&#45;&gt;Node9</title>
<path fill="none" stroke="midnightblue" d="M164.1,-299.77C153.57,-287.1 139.54,-270.2 131.17,-260.13"/>
<polygon fill="midnightblue" stroke="midnightblue" points="161.63,-302.28 170.72,-307.73 167.02,-297.81 161.63,-302.28"/>
</g>
<!-- Node6&#45;&gt;Node7 -->
<g id="edge7" class="edge">
<title>Node6&#45;&gt;Node7</title>
<path fill="none" stroke="midnightblue" d="M352.55,-238.09C398.24,-225.23 471.5,-204.62 512.57,-193.06"/>
<polygon fill="midnightblue" stroke="midnightblue" points="351.35,-234.79 342.68,-240.87 353.25,-241.53 351.35,-234.79"/>
</g>
<!-- Node7&#45;&gt;Node2 -->
<g id="edge8" class="edge">
<title>Node7&#45;&gt;Node2</title>
<path fill="none" stroke="midnightblue" d="M569.64,-169.51C590.09,-159.46 618.95,-145.1 644,-132 681.55,-112.37 725.13,-88.21 747.69,-75.59"/>
<polygon fill="midnightblue" stroke="midnightblue" points="568.05,-166.39 560.61,-173.93 571.13,-172.67 568.05,-166.39"/>
</g>
<!-- Node8 -->
<g id="node8" class="node">
<title>Node8</title>
<g id="a_node8"><a xlink:href="gov__effects_8h.html" target="_top" xlink:title=" ">
<polygon fill="white" stroke="black" points="491,-112.5 491,-131.5 635,-131.5 635,-112.5 491,-112.5"/>
<text text-anchor="middle" x="563" y="-119.5" font-family="Helvetica,sans-Serif" font-size="10.00">src/node/rpc/gov_effects.h</text>
</a>
</g>
</g>
<!-- Node7&#45;&gt;Node8 -->
<g id="edge9" class="edge">
<title>Node7&#45;&gt;Node8</title>
<path fill="none" stroke="midnightblue" d="M549.17,-164.16C552.82,-153.27 557.29,-139.99 560.14,-131.51"/>
<polygon fill="midnightblue" stroke="midnightblue" points="545.73,-163.38 545.87,-173.98 552.37,-165.61 545.73,-163.38"/>
</g>
<!-- Node8&#45;&gt;Node2 -->
<g id="edge10" class="edge">
<title>Node8&#45;&gt;Node2</title>
<path fill="none" stroke="midnightblue" d="M604.37,-109.83C642.14,-99.63 697.14,-84.78 731.46,-75.52"/>
<polygon fill="midnightblue" stroke="midnightblue" points="603.43,-106.46 594.69,-112.44 605.26,-113.22 603.43,-106.46"/>
</g>
<!-- Node9&#45;&gt;Node7 -->
<g id="edge13" class="edge">
<title>Node9&#45;&gt;Node7</title>
<path fill="none" stroke="midnightblue" d="M174.14,-239.04C181.46,-237.62 188.92,-236.23 196,-235 295.27,-217.79 411.21,-201.73 480.78,-192.52"/>
<polygon fill="midnightblue" stroke="midnightblue" points="173.42,-235.61 164.29,-240.98 174.78,-242.48 173.42,-235.61"/>
</g>
<!-- Node10&#45;&gt;Node5 -->
<g id="edge15" class="edge">
<title>Node10&#45;&gt;Node5</title>
<path fill="none" stroke="midnightblue" d="M283.53,-428.83C257.66,-401.78 206.47,-348.26 186.38,-327.26"/>
<polygon fill="midnightblue" stroke="midnightblue" points="281.24,-431.5 290.68,-436.31 286.3,-426.66 281.24,-431.5"/>
</g>
<!-- Node12 -->
<g id="node12" class="node">
<title>Node12</title>
<g id="a_node12"><a xlink:href="orc__requests_8h.html" target="_top" xlink:title=" ">
<polygon fill="white" stroke="black" points="558.5,-369.5 558.5,-399.5 677.5,-399.5 677.5,-369.5 558.5,-369.5"/>
<text text-anchor="start" x="566.5" y="-387.5" font-family="Helvetica,sans-Serif" font-size="10.00">src/consensus/aft/orc</text>
<text text-anchor="middle" x="618" y="-376.5" font-family="Helvetica,sans-Serif" font-size="10.00">_requests.h</text>
</a>
</g>
</g>
<!-- Node11&#45;&gt;Node12 -->
<g id="edge17" class="edge">
<title>Node11&#45;&gt;Node12</title>
<path fill="none" stroke="midnightblue" d="M481.19,-433.1C509.02,-423.42 548.34,-409.74 577.7,-399.52"/>
<polygon fill="midnightblue" stroke="midnightblue" points="479.79,-429.88 471.5,-436.48 482.09,-436.49 479.79,-429.88"/>
</g>
<!-- Node13 -->
<g id="node13" class="node">
<title>Node13</title>
<g id="a_node13"><a xlink:href="raft_8h.html" target="_top" xlink:title=" ">
<polygon fill="white" stroke="black" points="391.5,-308 391.5,-327 520.5,-327 520.5,-308 391.5,-308"/>
<text text-anchor="middle" x="456" y="-315" font-family="Helvetica,sans-Serif" font-size="10.00">src/consensus/aft/raft.h</text>
</a>
</g>
</g>
<!-- Node11&#45;&gt;Node13 -->
<g id="edge24" class="edge">
<title>Node11&#45;&gt;Node13</title>
<path fill="none" stroke="midnightblue" d="M477.55,-431.56C490.33,-424.22 503.85,-413.77 511,-400 517.35,-387.77 516.54,-381.61 511,-369 502.86,-350.49 484.22,-335.78 470.9,-327.12"/>
<polygon fill="midnightblue" stroke="midnightblue" points="475.68,-428.59 468.48,-436.36 478.96,-434.77 475.68,-428.59"/>
</g>
<!-- Node16 -->
<g id="node16" class="node">
<title>Node16</title>
<g id="a_node16"><a xlink:href="http__node__client_8h.html" target="_top" xlink:title=" ">
<polygon fill="white" stroke="black" points="405,-235.5 405,-265.5 515,-265.5 515,-235.5 405,-235.5"/>
<text text-anchor="start" x="413" y="-253.5" font-family="Helvetica,sans-Serif" font-size="10.00">src/node/http_node</text>
<text text-anchor="middle" x="460" y="-242.5" font-family="Helvetica,sans-Serif" font-size="10.00">_client.h</text>
</a>
</g>
</g>
<!-- Node11&#45;&gt;Node16 -->
<g id="edge25" class="edge">
<title>Node11&#45;&gt;Node16</title>
<path fill="none" stroke="midnightblue" d="M405.63,-432.5C390.07,-425.55 373.97,-415.16 365,-400 357.98,-388.14 363.2,-382.66 365,-369 369.03,-338.43 364.92,-326.98 383,-302 394.43,-286.2 412.46,-273.99 428.19,-265.54"/>
<polygon fill="midnightblue" stroke="midnightblue" points="404.61,-435.86 415.19,-436.38 407.25,-429.37 404.61,-435.86"/>
</g>
<!-- Node17 -->
<g id="node17" class="node">
<title>Node17</title>
<g id="a_node17"><a xlink:href="retired__nodes__cleanup_8h.html" target="_top" xlink:title=" ">
<polygon fill="white" stroke="black" points="374,-369.5 374,-399.5 502,-399.5 502,-369.5 374,-369.5"/>
<text text-anchor="start" x="382" y="-387.5" font-family="Helvetica,sans-Serif" font-size="10.00">src/node/retired_nodes</text>
<text text-anchor="middle" x="438" y="-376.5" font-family="Helvetica,sans-Serif" font-size="10.00">_cleanup.h</text>
</a>
</g>
</g>
<!-- Node11&#45;&gt;Node17 -->
<g id="edge27" class="edge">
<title>Node11&#45;&gt;Node17</title>
<path fill="none" stroke="midnightblue" d="M444.21,-426.53C442.89,-417.81 441.34,-407.59 440.12,-399.52"/>
<polygon fill="midnightblue" stroke="midnightblue" points="440.75,-427.11 445.71,-436.48 447.68,-426.06 440.75,-427.11"/>
</g>
<!-- Node12&#45;&gt;Node13 -->
<g id="edge18" class="edge">
<title>Node12&#45;&gt;Node13</title>
<path fill="none" stroke="midnightblue" d="M573.44,-365.62C542.08,-353.04 501.52,-336.77 477.2,-327.01"/>
<polygon fill="midnightblue" stroke="midnightblue" points="572.26,-368.92 582.85,-369.4 574.87,-362.42 572.26,-368.92"/>
</g>
<!-- Node14 -->
<g id="node14" class="node">
<title>Node14</title>
<g id="a_node14"><a xlink:href="node__frontend_8h.html" target="_top" xlink:title=" ">
<polygon fill="white" stroke="black" points="539,-308 539,-327 697,-327 697,-308 539,-308"/>
<text text-anchor="middle" x="618" y="-315" font-family="Helvetica,sans-Serif" font-size="10.00">src/node/rpc/node_frontend.h</text>
</a>
</g>
</g>
<!-- Node12&#45;&gt;Node14 -->
<g id="edge20" class="edge">
<title>Node12&#45;&gt;Node14</title>
<path fill="none" stroke="midnightblue" d="M618,-359.25C618,-348.02 618,-335.38 618,-327.19"/>
<polygon fill="midnightblue" stroke="midnightblue" points="614.5,-359.4 618,-369.4 621.5,-359.4 614.5,-359.4"/>
</g>
<!-- Node13&#45;&gt;Node7 -->
<g id="edge19" class="edge">
<title>Node13&#45;&gt;Node7</title>
<path fill="none" stroke="midnightblue" d="M482.82,-302.71C497.12,-294.03 513.81,-281.53 524,-266 539.22,-242.8 542.31,-208.85 542.89,-193.11"/>
<polygon fill="midnightblue" stroke="midnightblue" points="480.8,-299.84 473.87,-307.86 484.28,-305.91 480.8,-299.84"/>
</g>
<!-- Node14&#45;&gt;Node2 -->
<g id="edge21" class="edge">
<title>Node14&#45;&gt;Node2</title>
<path fill="none" stroke="midnightblue" d="M652.8,-304.02C671.06,-295.82 692.4,-283.36 706,-266 753.86,-204.89 761.54,-105.23 762.77,-75.58"/>
<polygon fill="midnightblue" stroke="midnightblue" points="651.43,-300.79 643.59,-307.92 654.17,-307.24 651.43,-300.79"/>
</g>
<!-- Node15 -->
<g id="node15" class="node">
<title>Node15</title>
<g id="a_node15"><a xlink:href="jwt__key__auto__refresh_8h.html" target="_top" xlink:title=" ">
<polygon fill="white" stroke="black" points="571.5,-235.5 571.5,-265.5 696.5,-265.5 696.5,-235.5 571.5,-235.5"/>
<text text-anchor="start" x="579.5" y="-253.5" font-family="Helvetica,sans-Serif" font-size="10.00">src/node/jwt_key_auto</text>
<text text-anchor="middle" x="634" y="-242.5" font-family="Helvetica,sans-Serif" font-size="10.00">_refresh.h</text>
</a>
</g>
</g>
<!-- Node14&#45;&gt;Node15 -->
<g id="edge22" class="edge">
<title>Node14&#45;&gt;Node15</title>
<path fill="none" stroke="midnightblue" d="M622.62,-297.74C625.14,-287.49 628.22,-275 630.53,-265.59"/>
<polygon fill="midnightblue" stroke="midnightblue" points="619.15,-297.19 620.16,-307.73 625.95,-298.86 619.15,-297.19"/>
</g>
<!-- Node15&#45;&gt;Node7 -->
<g id="edge23" class="edge">
<title>Node15&#45;&gt;Node7</title>
<path fill="none" stroke="midnightblue" d="M605.73,-229.31C588.64,-217.1 567.75,-202.18 554.91,-193.01"/>
<polygon fill="midnightblue" stroke="midnightblue" points="604.08,-232.43 614.25,-235.4 608.15,-226.74 604.08,-232.43"/>
</g>
<!-- Node16&#45;&gt;Node7 -->
<g id="edge26" class="edge">
<title>Node16&#45;&gt;Node7</title>
<path fill="none" stroke="midnightblue" d="M486.17,-229.01C501.58,-216.94 520.26,-202.3 531.9,-193.19"/>
<polygon fill="midnightblue" stroke="midnightblue" points="483.72,-226.47 478.01,-235.4 488.04,-231.99 483.72,-226.47"/>
</g>
<!-- Node17&#45;&gt;Node13 -->
<g id="edge28" class="edge">
<title>Node17&#45;&gt;Node13</title>
<path fill="none" stroke="midnightblue" d="M444.62,-359.6C447.75,-348.28 451.3,-335.46 453.59,-327.19"/>
<polygon fill="midnightblue" stroke="midnightblue" points="441.2,-358.82 441.91,-369.4 447.95,-360.69 441.2,-358.82"/>
</g>
<!-- Node18&#45;&gt;Node2 -->
<g id="edge30" class="edge">
<title>Node18&#45;&gt;Node2</title>
<path fill="none" stroke="midnightblue" d="M900.2,-434.5C966.34,-420.64 1051,-389.11 1051,-318.5 1051,-318.5 1051,-318.5 1051,-182.5 1051,-150.05 1056.04,-133.8 1032,-112 1002.28,-85.04 893.99,-74.05 824.2,-69.71"/>
<polygon fill="midnightblue" stroke="midnightblue" points="899.3,-431.11 890.17,-436.49 900.67,-437.97 899.3,-431.11"/>
</g>
<!-- Node19 -->
<g id="node19" class="node">
<title>Node19</title>
<g id="a_node19"><a xlink:href="frontend_8h.html" target="_top" xlink:title=" ">
<polygon fill="white" stroke="black" points="758.5,-375 758.5,-394 887.5,-394 887.5,-375 758.5,-375"/>
<text text-anchor="middle" x="823" y="-382" font-family="Helvetica,sans-Serif" font-size="10.00">src/node/rpc/frontend.h</text>
</a>
</g>
</g>
<!-- Node18&#45;&gt;Node19 -->
<g id="edge31" class="edge">
<title>Node18&#45;&gt;Node19</title>
<path fill="none" stroke="midnightblue" d="M823,-426.32C823,-415.5 823,-402.4 823,-394.01"/>
<polygon fill="midnightblue" stroke="midnightblue" points="819.5,-426.48 823,-436.48 826.5,-426.48 819.5,-426.48"/>
</g>
<!-- Node19&#45;&gt;Node7 -->
<g id="edge35" class="edge">
<title>Node19&#45;&gt;Node7</title>
<path fill="none" stroke="midnightblue" d="M793.36,-370.32C776.92,-361.73 757.19,-349.11 744,-333 714.41,-296.85 740.16,-266.87 706,-235 678.7,-209.54 638.79,-196.91 605.29,-190.64"/>
<polygon fill="midnightblue" stroke="midnightblue" points="792.07,-373.59 802.59,-374.91 795.19,-367.32 792.07,-373.59"/>
</g>
<!-- Node19&#45;&gt;Node14 -->
<g id="edge38" class="edge">
<title>Node19&#45;&gt;Node14</title>
<path fill="none" stroke="midnightblue" d="M785.99,-371.77C745.37,-358.89 681.14,-338.52 645.01,-327.06"/>
<polygon fill="midnightblue" stroke="midnightblue" points="785.19,-375.18 795.78,-374.87 787.3,-368.51 785.19,-375.18"/>
</g>
<!-- Node20 -->
<g id="node20" class="node">
<title>Node20</title>
<g id="a_node20"><a xlink:href="acme__challenge__frontend_8h.html" target="_top" xlink:title=" ">
<polygon fill="white" stroke="black" points="753,-302.5 753,-332.5 893,-332.5 893,-302.5 753,-302.5"/>
<text text-anchor="start" x="761" y="-320.5" font-family="Helvetica,sans-Serif" font-size="10.00">src/node/acme_challenge</text>
<text text-anchor="middle" x="823" y="-309.5" font-family="Helvetica,sans-Serif" font-size="10.00">_frontend.h</text>
</a>
</g>
</g>
<!-- Node19&#45;&gt;Node20 -->
<g id="edge32" class="edge">
<title>Node19&#45;&gt;Node20</title>
<path fill="none" stroke="midnightblue" d="M823,-364.41C823,-354.22 823,-341.9 823,-332.59"/>
<polygon fill="midnightblue" stroke="midnightblue" points="819.5,-364.73 823,-374.73 826.5,-364.73 819.5,-364.73"/>
</g>
<!-- Node21 -->
<g id="node21" class="node">
<title>Node21</title>
<g id="a_node21"><a xlink:href="member__frontend_8h.html" target="_top" xlink:title=" ">
<polygon fill="white" stroke="black" points="829,-168.5 829,-198.5 949,-198.5 949,-168.5 829,-168.5"/>
<text text-anchor="start" x="837" y="-186.5" font-family="Helvetica,sans-Serif" font-size="10.00">src/node/rpc/member</text>
<text text-anchor="middle" x="889" y="-175.5" font-family="Helvetica,sans-Serif" font-size="10.00">_frontend.h</text>
</a>
</g>
</g>
<!-- Node19&#45;&gt;Node21 -->
<g id="edge36" class="edge">
<title>Node19&#45;&gt;Node21</title>
<path fill="none" stroke="midnightblue" d="M857.76,-370.64C874.31,-362.54 892.52,-350.31 902,-333 926.12,-288.96 906.22,-226.39 895.16,-198.66"/>
<polygon fill="midnightblue" stroke="midnightblue" points="855.95,-367.61 848.28,-374.93 858.84,-373.99 855.95,-367.61"/>
</g>
<!-- Node22 -->
<g id="node22" class="node">
<title>Node22</title>
<g id="a_node22"><a xlink:href="user__frontend_8h.html" target="_top" xlink:title=" ">
<polygon fill="white" stroke="black" points="867.5,-112.5 867.5,-131.5 1022.5,-131.5 1022.5,-112.5 867.5,-112.5"/>
<text text-anchor="middle" x="945" y="-119.5" font-family="Helvetica,sans-Serif" font-size="10.00">src/node/rpc/user_frontend.h</text>
</a>
</g>
</g>
<!-- Node19&#45;&gt;Node22 -->
<g id="edge39" class="edge">
<title>Node19&#45;&gt;Node22</title>
<path fill="none" stroke="midnightblue" d="M862.45,-371.41C882.32,-363.45 905.26,-351.09 920,-333 967.53,-274.65 968.55,-242.51 958,-168 956.18,-155.12 951.55,-140.76 948.34,-131.8"/>
<polygon fill="midnightblue" stroke="midnightblue" points="861.12,-368.17 852.99,-374.97 863.58,-374.72 861.12,-368.17"/>
</g>
<!-- Node20&#45;&gt;Node2 -->
<g id="edge33" class="edge">
<title>Node20&#45;&gt;Node2</title>
<path fill="none" stroke="midnightblue" d="M818.1,-291.75C810.31,-253.14 794.21,-176.31 777,-112 773.57,-99.2 768.88,-84.58 765.89,-75.57"/>
<polygon fill="midnightblue" stroke="midnightblue" points="814.76,-292.9 820.16,-302.02 821.63,-291.53 814.76,-292.9"/>
</g>
<!-- Node20&#45;&gt;Node6 -->
<g id="edge34" class="edge">
<title>Node20&#45;&gt;Node6</title>
<path fill="none" stroke="midnightblue" d="M742.58,-306.45C730.33,-304.94 717.83,-303.42 706,-302 568.28,-285.47 533.28,-285.8 396,-266 383.84,-264.25 370.74,-262.11 358.58,-260.01"/>
<polygon fill="midnightblue" stroke="midnightblue" points="742.44,-309.96 752.79,-307.71 743.29,-303.01 742.44,-309.96"/>
</g>
<!-- Node21&#45;&gt;Node2 -->
<g id="edge37" class="edge">
<title>Node21&#45;&gt;Node2</title>
<path fill="none" stroke="midnightblue" d="M866.92,-160.93C852.34,-146.83 832.73,-128.1 815,-112 800.86,-99.16 784.08,-84.79 773.49,-75.82"/>
<polygon fill="midnightblue" stroke="midnightblue" points="864.84,-163.79 874.45,-168.25 869.71,-158.77 864.84,-163.79"/>
</g>
<!-- Node22&#45;&gt;Node2 -->
<g id="edge40" class="edge">
<title>Node22&#45;&gt;Node2</title>
<path fill="none" stroke="midnightblue" d="M906.47,-109.57C872.14,-99.38 822.67,-84.7 791.7,-75.52"/>
<polygon fill="midnightblue" stroke="midnightblue" points="905.58,-112.95 916.16,-112.44 907.57,-106.24 905.58,-112.95"/>
</g>
</g>
</svg>
