<?xml version="1.0" encoding="UTF-8" standalone="no"?>
<!DOCTYPE svg PUBLIC "-//W3C//DTD SVG 1.1//EN"
 "http://www.w3.org/Graphics/SVG/1.1/DTD/svg11.dtd">
<!-- Generated by graphviz version 2.43.0 (0)
 -->
<!-- Title: src/node/rpc/rpc_exception.h Pages: 1 -->
<svg width="697pt" height="308pt"
 viewBox="0.00 0.00 696.50 308.00" xmlns="http://www.w3.org/2000/svg" xmlns:xlink="http://www.w3.org/1999/xlink">
<g id="graph0" class="graph" transform="scale(1 1) rotate(0) translate(4 304)">
<title>src/node/rpc/rpc_exception.h</title>
<polygon fill="white" stroke="transparent" points="-4,4 -4,-304 692.5,-304 692.5,4 -4,4"/>
<!-- Node1 -->
<g id="node1" class="node">
<title>Node1</title>
<g id="a_node1"><a xlink:title=" ">
<polygon fill="#bfbfbf" stroke="black" points="517,-280.5 517,-299.5 673,-299.5 673,-280.5 517,-280.5"/>
<text text-anchor="middle" x="595" y="-287.5" font-family="Helvetica,sans-Serif" font-size="10.00">src/node/rpc/rpc_exception.h</text>
</a>
</g>
</g>
<!-- Node2 -->
<g id="node2" class="node">
<title>Node2</title>
<g id="a_node2"><a xlink:href="odata__error_8h.html" target="_top" xlink:title=" ">
<polygon fill="white" stroke="black" points="469,-224.5 469,-243.5 567,-243.5 567,-224.5 469,-224.5"/>
<text text-anchor="middle" x="518" y="-231.5" font-family="Helvetica,sans-Serif" font-size="10.00">ccf/odata_error.h</text>
</a>
</g>
</g>
<!-- Node1&#45;&gt;Node2 -->
<g id="edge1" class="edge">
<title>Node1&#45;&gt;Node2</title>
<path fill="none" stroke="midnightblue" d="M582.63,-280.32C570.84,-272.06 552.87,-259.45 538.86,-249.63"/>
<polygon fill="midnightblue" stroke="midnightblue" points="540.54,-246.53 530.34,-243.65 536.52,-252.26 540.54,-246.53"/>
</g>
<!-- Node5 -->
<g id="node5" class="node">
<title>Node5</title>
<g id="a_node5"><a xlink:title=" ">
<polygon fill="white" stroke="#bfbfbf" points="489,-0.5 489,-19.5 533,-19.5 533,-0.5 489,-0.5"/>
<text text-anchor="middle" x="511" y="-7.5" font-family="Helvetica,sans-Serif" font-size="10.00">string</text>
</a>
</g>
</g>
<!-- Node1&#45;&gt;Node5 -->
<g id="edge21" class="edge">
<title>Node1&#45;&gt;Node5</title>
<path fill="none" stroke="midnightblue" d="M595,-280.44C595,-261.94 595,-216.81 595,-179 595,-179 595,-179 595,-121 595,-90.9 593.61,-80.41 576,-56 566.5,-42.83 551.9,-32.23 538.95,-24.62"/>
<polygon fill="midnightblue" stroke="midnightblue" points="540.34,-21.4 529.9,-19.63 536.96,-27.53 540.34,-21.4"/>
</g>
<!-- Node18 -->
<g id="node18" class="node">
<title>Node18</title>
<g id="a_node18"><a xlink:title=" ">
<polygon fill="white" stroke="#bfbfbf" points="623.5,-224.5 623.5,-243.5 688.5,-243.5 688.5,-224.5 623.5,-224.5"/>
<text text-anchor="middle" x="656" y="-231.5" font-family="Helvetica,sans-Serif" font-size="10.00">exception</text>
</a>
</g>
</g>
<!-- Node1&#45;&gt;Node18 -->
<g id="edge20" class="edge">
<title>Node1&#45;&gt;Node18</title>
<path fill="none" stroke="midnightblue" d="M604.8,-280.32C613.82,-272.34 627.41,-260.31 638.32,-250.65"/>
<polygon fill="midnightblue" stroke="midnightblue" points="640.85,-253.08 646.02,-243.83 636.21,-247.84 640.85,-253.08"/>
</g>
<!-- Node3 -->
<g id="node3" class="node">
<title>Node3</title>
<g id="a_node3"><a xlink:href="json_8h.html" target="_top" xlink:title=" ">
<polygon fill="white" stroke="black" points="373.5,-168.5 373.5,-187.5 450.5,-187.5 450.5,-168.5 373.5,-168.5"/>
<text text-anchor="middle" x="412" y="-175.5" font-family="Helvetica,sans-Serif" font-size="10.00">ccf/ds/json.h</text>
</a>
</g>
</g>
<!-- Node2&#45;&gt;Node3 -->
<g id="edge2" class="edge">
<title>Node2&#45;&gt;Node3</title>
<path fill="none" stroke="midnightblue" d="M500.97,-224.32C483.97,-215.66 457.62,-202.24 438.01,-192.25"/>
<polygon fill="midnightblue" stroke="midnightblue" points="439.49,-189.08 428.99,-187.65 436.31,-195.31 439.49,-189.08"/>
</g>
<!-- Node17 -->
<g id="node17" class="node">
<title>Node17</title>
<g id="a_node17"><a xlink:href="http__status_8h.html" target="_top" xlink:title=" ">
<polygon fill="white" stroke="black" points="469,-168.5 469,-187.5 567,-187.5 567,-168.5 469,-168.5"/>
<text text-anchor="middle" x="518" y="-175.5" font-family="Helvetica,sans-Serif" font-size="10.00">ccf/http_status.h</text>
</a>
</g>
</g>
<!-- Node2&#45;&gt;Node17 -->
<g id="edge19" class="edge">
<title>Node2&#45;&gt;Node17</title>
<path fill="none" stroke="midnightblue" d="M518,-224.08C518,-217.01 518,-206.86 518,-197.99"/>
<polygon fill="midnightblue" stroke="midnightblue" points="521.5,-197.75 518,-187.75 514.5,-197.75 521.5,-197.75"/>
</g>
<!-- Node4 -->
<g id="node4" class="node">
<title>Node4</title>
<g id="a_node4"><a xlink:href="include_2ccf_2crypto_2base64_8h.html" target="_top" xlink:title=" ">
<polygon fill="white" stroke="black" points="455,-56.5 455,-75.5 567,-75.5 567,-56.5 455,-56.5"/>
<text text-anchor="middle" x="511" y="-63.5" font-family="Helvetica,sans-Serif" font-size="10.00">ccf/crypto/base64.h</text>
</a>
</g>
</g>
<!-- Node3&#45;&gt;Node4 -->
<g id="edge3" class="edge">
<title>Node3&#45;&gt;Node4</title>
<path fill="none" stroke="midnightblue" d="M437.08,-168.43C454.53,-161.25 477.08,-149.36 491,-132 501.72,-118.63 506.72,-99.51 509.03,-85.48"/>
<polygon fill="midnightblue" stroke="midnightblue" points="512.51,-85.89 510.37,-75.51 505.57,-84.95 512.51,-85.89"/>
</g>
<!-- Node7 -->
<g id="node7" class="node">
<title>Node7</title>
<g id="a_node7"><a xlink:href="include_2ccf_2ds_2json__schema_8h.html" target="_top" xlink:title=" ">
<polygon fill="white" stroke="black" points="236.5,-112.5 236.5,-131.5 357.5,-131.5 357.5,-112.5 236.5,-112.5"/>
<text text-anchor="middle" x="297" y="-119.5" font-family="Helvetica,sans-Serif" font-size="10.00">ccf/ds/json_schema.h</text>
</a>
</g>
</g>
<!-- Node3&#45;&gt;Node7 -->
<g id="edge6" class="edge">
<title>Node3&#45;&gt;Node7</title>
<path fill="none" stroke="midnightblue" d="M393.78,-168.44C375.1,-159.68 345.84,-145.94 324.38,-135.86"/>
<polygon fill="midnightblue" stroke="midnightblue" points="325.68,-132.6 315.14,-131.52 322.7,-138.93 325.68,-132.6"/>
</g>
<!-- Node14 -->
<g id="node14" class="node">
<title>Node14</title>
<g id="a_node14"><a xlink:title=" ">
<polygon fill="white" stroke="#bfbfbf" points="358.5,-56.5 358.5,-75.5 437.5,-75.5 437.5,-56.5 358.5,-56.5"/>
<text text-anchor="middle" x="398" y="-63.5" font-family="Helvetica,sans-Serif" font-size="10.00">fmt/format.h</text>
</a>
</g>
</g>
<!-- Node3&#45;&gt;Node14 -->
<g id="edge17" class="edge">
<title>Node3&#45;&gt;Node14</title>
<path fill="none" stroke="midnightblue" d="M410.9,-168.37C408.64,-150.62 403.43,-109.67 400.37,-85.6"/>
<polygon fill="midnightblue" stroke="midnightblue" points="403.83,-85.07 399.09,-75.59 396.88,-85.95 403.83,-85.07"/>
</g>
<!-- Node16 -->
<g id="node16" class="node">
<title>Node16</title>
<g id="a_node16"><a xlink:title=" ">
<polygon fill="white" stroke="#bfbfbf" points="426,-112.5 426,-131.5 482,-131.5 482,-112.5 426,-112.5"/>
<text text-anchor="middle" x="454" y="-119.5" font-family="Helvetica,sans-Serif" font-size="10.00">sstream</text>
</a>
</g>
</g>
<!-- Node3&#45;&gt;Node16 -->
<g id="edge18" class="edge">
<title>Node3&#45;&gt;Node16</title>
<path fill="none" stroke="midnightblue" d="M418.94,-168.08C424.93,-160.38 433.75,-149.03 441.05,-139.65"/>
<polygon fill="midnightblue" stroke="midnightblue" points="443.82,-141.79 447.19,-131.75 438.29,-137.5 443.82,-141.79"/>
</g>
<!-- Node4&#45;&gt;Node5 -->
<g id="edge4" class="edge">
<title>Node4&#45;&gt;Node5</title>
<path fill="none" stroke="midnightblue" d="M511,-56.08C511,-49.01 511,-38.86 511,-29.99"/>
<polygon fill="midnightblue" stroke="midnightblue" points="514.5,-29.75 511,-19.75 507.5,-29.75 514.5,-29.75"/>
</g>
<!-- Node6 -->
<g id="node6" class="node">
<title>Node6</title>
<g id="a_node6"><a xlink:title=" ">
<polygon fill="white" stroke="#bfbfbf" points="405.5,-0.5 405.5,-19.5 452.5,-19.5 452.5,-0.5 405.5,-0.5"/>
<text text-anchor="middle" x="429" y="-7.5" font-family="Helvetica,sans-Serif" font-size="10.00">vector</text>
</a>
</g>
</g>
<!-- Node4&#45;&gt;Node6 -->
<g id="edge5" class="edge">
<title>Node4&#45;&gt;Node6</title>
<path fill="none" stroke="midnightblue" d="M497.83,-56.32C485.15,-47.98 465.77,-35.21 450.79,-25.35"/>
<polygon fill="midnightblue" stroke="midnightblue" points="452.42,-22.23 442.14,-19.65 448.57,-28.08 452.42,-22.23"/>
</g>
<!-- Node8 -->
<g id="node8" class="node">
<title>Node8</title>
<g id="a_node8"><a xlink:href="nonstd_8h.html" target="_top" xlink:title=" ">
<polygon fill="white" stroke="black" points="122,-56.5 122,-75.5 212,-75.5 212,-56.5 122,-56.5"/>
<text text-anchor="middle" x="167" y="-63.5" font-family="Helvetica,sans-Serif" font-size="10.00">ccf/ds/nonstd.h</text>
</a>
</g>
</g>
<!-- Node7&#45;&gt;Node8 -->
<g id="edge7" class="edge">
<title>Node7&#45;&gt;Node8</title>
<path fill="none" stroke="midnightblue" d="M276.4,-112.44C255.01,-103.56 221.32,-89.56 196.98,-79.45"/>
<polygon fill="midnightblue" stroke="midnightblue" points="198.08,-76.12 187.5,-75.52 195.39,-82.58 198.08,-76.12"/>
</g>
<!-- Node7&#45;&gt;Node14 -->
<g id="edge15" class="edge">
<title>Node7&#45;&gt;Node14</title>
<path fill="none" stroke="midnightblue" d="M313.23,-112.32C329.35,-103.7 354.3,-90.36 372.96,-80.39"/>
<polygon fill="midnightblue" stroke="midnightblue" points="374.64,-83.46 381.81,-75.65 371.34,-77.28 374.64,-83.46"/>
</g>
<!-- Node15 -->
<g id="node15" class="node">
<title>Node15</title>
<g id="a_node15"><a xlink:title=" ">
<polygon fill="white" stroke="#bfbfbf" points="230,-56.5 230,-75.5 340,-75.5 340,-56.5 230,-56.5"/>
<text text-anchor="middle" x="285" y="-63.5" font-family="Helvetica,sans-Serif" font-size="10.00">nlohmann/json.hpp</text>
</a>
</g>
</g>
<!-- Node7&#45;&gt;Node15 -->
<g id="edge16" class="edge">
<title>Node7&#45;&gt;Node15</title>
<path fill="none" stroke="midnightblue" d="M295.02,-112.08C293.43,-104.93 291.14,-94.64 289.15,-85.69"/>
<polygon fill="midnightblue" stroke="midnightblue" points="292.53,-84.75 286.94,-75.75 285.7,-86.27 292.53,-84.75"/>
</g>
<!-- Node8&#45;&gt;Node5 -->
<g id="edge11" class="edge">
<title>Node8&#45;&gt;Node5</title>
<path fill="none" stroke="midnightblue" d="M212.07,-57.43C215.09,-56.94 218.09,-56.46 221,-56 327.97,-39.1 355.17,-37.78 462,-20 467.3,-19.12 472.92,-18.13 478.38,-17.15"/>
<polygon fill="midnightblue" stroke="midnightblue" points="479.38,-20.52 488.59,-15.28 478.12,-13.64 479.38,-20.52"/>
</g>
<!-- Node8&#45;&gt;Node6 -->
<g id="edge14" class="edge">
<title>Node8&#45;&gt;Node6</title>
<path fill="none" stroke="midnightblue" d="M208.51,-56.44C260.27,-45.78 347.72,-27.75 395.45,-17.91"/>
<polygon fill="midnightblue" stroke="midnightblue" points="396.2,-21.33 405.29,-15.89 394.79,-14.48 396.2,-21.33"/>
</g>
<!-- Node9 -->
<g id="node9" class="node">
<title>Node9</title>
<g id="a_node9"><a xlink:title=" ">
<polygon fill="white" stroke="#bfbfbf" points="0,-0.5 0,-19.5 64,-19.5 64,-0.5 0,-0.5"/>
<text text-anchor="middle" x="32" y="-7.5" font-family="Helvetica,sans-Serif" font-size="10.00">algorithm</text>
</a>
</g>
</g>
<!-- Node8&#45;&gt;Node9 -->
<g id="edge8" class="edge">
<title>Node8&#45;&gt;Node9</title>
<path fill="none" stroke="midnightblue" d="M145.61,-56.44C123.29,-47.52 88.1,-33.44 62.79,-23.32"/>
<polygon fill="midnightblue" stroke="midnightblue" points="63.88,-19.98 53.29,-19.52 61.28,-26.48 63.88,-19.98"/>
</g>
<!-- Node10 -->
<g id="node10" class="node">
<title>Node10</title>
<g id="a_node10"><a xlink:title=" ">
<polygon fill="white" stroke="#bfbfbf" points="82,-0.5 82,-19.5 124,-19.5 124,-0.5 82,-0.5"/>
<text text-anchor="middle" x="103" y="-7.5" font-family="Helvetica,sans-Serif" font-size="10.00">array</text>
</a>
</g>
</g>
<!-- Node8&#45;&gt;Node10 -->
<g id="edge9" class="edge">
<title>Node8&#45;&gt;Node10</title>
<path fill="none" stroke="midnightblue" d="M156.72,-56.32C147.16,-48.26 132.72,-36.08 121.22,-26.37"/>
<polygon fill="midnightblue" stroke="midnightblue" points="123.37,-23.61 113.47,-19.83 118.86,-28.96 123.37,-23.61"/>
</g>
<!-- Node11 -->
<g id="node11" class="node">
<title>Node11</title>
<g id="a_node11"><a xlink:title=" ">
<polygon fill="white" stroke="#bfbfbf" points="142.5,-0.5 142.5,-19.5 191.5,-19.5 191.5,-0.5 142.5,-0.5"/>
<text text-anchor="middle" x="167" y="-7.5" font-family="Helvetica,sans-Serif" font-size="10.00">cctype</text>
</a>
</g>
</g>
<!-- Node8&#45;&gt;Node11 -->
<g id="edge10" class="edge">
<title>Node8&#45;&gt;Node11</title>
<path fill="none" stroke="midnightblue" d="M167,-56.08C167,-49.01 167,-38.86 167,-29.99"/>
<polygon fill="midnightblue" stroke="midnightblue" points="170.5,-29.75 167,-19.75 163.5,-29.75 170.5,-29.75"/>
</g>
<!-- Node12 -->
<g id="node12" class="node">
<title>Node12</title>
<g id="a_node12"><a xlink:title=" ">
<polygon fill="white" stroke="#bfbfbf" points="209.5,-0.5 209.5,-19.5 282.5,-19.5 282.5,-0.5 209.5,-0.5"/>
<text text-anchor="middle" x="246" y="-7.5" font-family="Helvetica,sans-Serif" font-size="10.00">string_view</text>
</a>
</g>
</g>
<!-- Node8&#45;&gt;Node12 -->
<g id="edge12" class="edge">
<title>Node8&#45;&gt;Node12</title>
<path fill="none" stroke="midnightblue" d="M179.69,-56.32C191.9,-47.98 210.58,-35.21 225,-25.35"/>
<polygon fill="midnightblue" stroke="midnightblue" points="227.06,-28.19 233.34,-19.65 223.11,-22.41 227.06,-28.19"/>
</g>
<!-- Node13 -->
<g id="node13" class="node">
<title>Node13</title>
<g id="a_node13"><a xlink:title=" ">
<polygon fill="white" stroke="#bfbfbf" points="300.5,-0.5 300.5,-19.5 369.5,-19.5 369.5,-0.5 300.5,-0.5"/>
<text text-anchor="middle" x="335" y="-7.5" font-family="Helvetica,sans-Serif" font-size="10.00">type_traits</text>
</a>
</g>
</g>
<!-- Node8&#45;&gt;Node13 -->
<g id="edge13" class="edge">
<title>Node8&#45;&gt;Node13</title>
<path fill="none" stroke="midnightblue" d="M193.62,-56.44C222.01,-47.32 267.14,-32.81 298.75,-22.65"/>
<polygon fill="midnightblue" stroke="midnightblue" points="300.06,-25.91 308.5,-19.52 297.91,-19.24 300.06,-25.91"/>
</g>
</g>
</svg>
