<?xml version="1.0" encoding="UTF-8" standalone="no"?>
<!DOCTYPE svg PUBLIC "-//W3C//DTD SVG 1.1//EN"
 "http://www.w3.org/Graphics/SVG/1.1/DTD/svg11.dtd">
<!-- Generated by graphviz version 2.43.0 (0)
 -->
<!-- Title: include/ccf/service/tables/service.h Pages: 1 -->
<!--zoomable 598 -->
<svg id="main" version="1.1" xmlns="http://www.w3.org/2000/svg" xmlns:xlink="http://www.w3.org/1999/xlink" xml:space="preserve" onload="init(evt)">
<style type="text/css"><![CDATA[
.edge:hover path { stroke: red; }
.edge:hover polygon { stroke: red; fill: red; }
]]></style>
<script type="text/javascript"><![CDATA[
var edges = document.getElementsByTagName('g');
if (edges && edges.length) {
  for (var i=0;i<edges.length;i++) {
    if (edges[i].id.substr(0,4)=='edge') {
      edges[i].setAttribute('class','edge');
    }
  }
}
]]></script>
        <defs>
                <circle id="rim" cx="0" cy="0" r="7"/>
                <circle id="rim2" cx="0" cy="0" r="3.5"/>
                <g id="zoomPlus">
                        <use xlink:href="#rim" fill="#404040">
                                <set attributeName="fill" to="#808080" begin="zoomplus.mouseover" end="zoomplus.mouseout"/>
                        </use>
                        <path d="M-4,0h8M0,-4v8" fill="none" stroke="white" stroke-width="1.5" pointer-events="none"/>
                </g>
                <g id="zoomMin">
                        <use xlink:href="#rim" fill="#404040">
                                <set attributeName="fill" to="#808080" begin="zoomminus.mouseover" end="zoomminus.mouseout"/>
                        </use>
                        <path d="M-4,0h8" fill="none" stroke="white" stroke-width="1.5" pointer-events="none"/>
                </g>
                <g id="dirArrow">
                        <path fill="none" stroke="white" stroke-width="1.5" d="M0,-3.0v7 M-2.5,-0.5L0,-3.0L2.5,-0.5"/>
                </g>
               <g id="resetDef">
                       <use xlink:href="#rim2" fill="#404040">
                               <set attributeName="fill" to="#808080" begin="reset.mouseover" end="reset.mouseout"/>
                       </use>
               </g>
        </defs>

<script type="text/javascript">
var viewWidth = 2492;
var viewHeight = 598;
var sectionId = 'dynsection-1';
</script>
<script xlink:href="svgpan.js"/>
<svg id="graph" class="graph">
<g id="viewport">
<title>include/ccf/service/tables/service.h</title>
<polygon fill="white" stroke="transparent" points="-4,4 -4,-594 2488.03,-594 2488.03,4 -4,4"/>
<!-- Node1 -->
<g id="node1" class="node">
<title>Node1</title>
<g id="a_node1"><a xlink:title=" ">
<polygon fill="#bfbfbf" stroke="black" points="1368,-559.5 1368,-589.5 1475,-589.5 1475,-559.5 1368,-559.5"/>
<text text-anchor="start" x="1376" y="-577.5" font-family="Helvetica,sans-Serif" font-size="10.00">include/ccf/service</text>
<text text-anchor="middle" x="1421.5" y="-566.5" font-family="Helvetica,sans-Serif" font-size="10.00">/tables/service.h</text>
</a>
</g>
</g>
<!-- Node2 -->
<g id="node2" class="node">
<title>Node2</title>
<g id="a_node2"><a xlink:href="historical__queries__adapter_8cpp.html" target="_top" xlink:title=" ">
<polygon fill="white" stroke="black" points="1189.5,-492.5 1189.5,-522.5 1309.5,-522.5 1309.5,-492.5 1189.5,-492.5"/>
<text text-anchor="start" x="1197.5" y="-510.5" font-family="Helvetica,sans-Serif" font-size="10.00">src/node/historical</text>
<text text-anchor="middle" x="1249.5" y="-499.5" font-family="Helvetica,sans-Serif" font-size="10.00">_queries_adapter.cpp</text>
</a>
</g>
</g>
<!-- Node1&#45;&gt;Node2 -->
<g id="edge1" class="edge">
<title>Node1&#45;&gt;Node2</title>
<path fill="none" stroke="midnightblue" d="M1374.71,-555.82C1347.07,-545.37 1312.54,-532.32 1286.75,-522.58"/>
<polygon fill="midnightblue" stroke="midnightblue" points="1373.59,-559.13 1384.18,-559.4 1376.06,-552.59 1373.59,-559.13"/>
</g>
<!-- Node3 -->
<g id="node3" class="node">
<title>Node3</title>
<g id="a_node3"><a xlink:href="node__state_8h.html" target="_top" xlink:title=" ">
<polygon fill="white" stroke="black" points="1514.5,-168.5 1514.5,-187.5 1638.5,-187.5 1638.5,-168.5 1514.5,-168.5"/>
<text text-anchor="middle" x="1576.5" y="-175.5" font-family="Helvetica,sans-Serif" font-size="10.00">src/node/node_state.h</text>
</a>
</g>
</g>
<!-- Node1&#45;&gt;Node3 -->
<g id="edge2" class="edge">
<title>Node1&#45;&gt;Node3</title>
<path fill="none" stroke="midnightblue" d="M1485.43,-574.4C1653.61,-575.08 2095.5,-565.08 2095.5,-441.5 2095.5,-441.5 2095.5,-441.5 2095.5,-305.5 2095.5,-264.12 2085.1,-246.69 2050.5,-224 2016.8,-201.9 1759.42,-187.36 1638.67,-181.68"/>
<polygon fill="midnightblue" stroke="midnightblue" points="1485.25,-570.9 1475.23,-574.35 1485.21,-577.9 1485.25,-570.9"/>
</g>
<!-- Node7 -->
<g id="node7" class="node">
<title>Node7</title>
<g id="a_node7"><a xlink:href="frontend_8h.html" target="_top" xlink:title=" ">
<polygon fill="white" stroke="black" points="1005,-364 1005,-383 1134,-383 1134,-364 1005,-364"/>
<text text-anchor="middle" x="1069.5" y="-371" font-family="Helvetica,sans-Serif" font-size="10.00">src/node/rpc/frontend.h</text>
</a>
</g>
</g>
<!-- Node1&#45;&gt;Node7 -->
<g id="edge7" class="edge">
<title>Node1&#45;&gt;Node7</title>
<path fill="none" stroke="midnightblue" d="M1398.22,-552.53C1378.05,-535.01 1347.62,-510.06 1318.5,-492 1239.49,-443 1136.8,-400.63 1092.03,-383.1"/>
<polygon fill="midnightblue" stroke="midnightblue" points="1396.11,-555.34 1405.93,-559.31 1400.73,-550.08 1396.11,-555.34"/>
</g>
<!-- Node14 -->
<g id="node14" class="node">
<title>Node14</title>
<g id="a_node14"><a xlink:href="node__call__types_8h.html" target="_top" xlink:title=" ">
<polygon fill="white" stroke="black" points="2129,-492.5 2129,-522.5 2254,-522.5 2254,-492.5 2129,-492.5"/>
<text text-anchor="start" x="2137" y="-510.5" font-family="Helvetica,sans-Serif" font-size="10.00">src/node/rpc/node_call</text>
<text text-anchor="middle" x="2191.5" y="-499.5" font-family="Helvetica,sans-Serif" font-size="10.00">_types.h</text>
</a>
</g>
</g>
<!-- Node1&#45;&gt;Node14 -->
<g id="edge21" class="edge">
<title>Node1&#45;&gt;Node14</title>
<path fill="none" stroke="midnightblue" d="M1485.47,-570.98C1607.29,-565.7 1880.85,-551.53 2109.5,-523 2115.81,-522.21 2122.38,-521.27 2128.92,-520.24"/>
<polygon fill="midnightblue" stroke="midnightblue" points="1485.05,-567.5 1475.21,-571.42 1485.35,-574.49 1485.05,-567.5"/>
</g>
<!-- Node20 -->
<g id="node20" class="node">
<title>Node20</title>
<g id="a_node20"><a xlink:href="network__tables_8h.html" target="_top" xlink:title=" ">
<polygon fill="white" stroke="black" points="1365.5,-425.5 1365.5,-455.5 1477.5,-455.5 1477.5,-425.5 1365.5,-425.5"/>
<text text-anchor="start" x="1373.5" y="-443.5" font-family="Helvetica,sans-Serif" font-size="10.00">src/service/network</text>
<text text-anchor="middle" x="1421.5" y="-432.5" font-family="Helvetica,sans-Serif" font-size="10.00">_tables.h</text>
</a>
</g>
</g>
<!-- Node1&#45;&gt;Node20 -->
<g id="edge34" class="edge">
<title>Node1&#45;&gt;Node20</title>
<path fill="none" stroke="midnightblue" d="M1421.5,-549.02C1421.5,-521.51 1421.5,-477.79 1421.5,-455.52"/>
<polygon fill="midnightblue" stroke="midnightblue" points="1418,-549.37 1421.5,-559.37 1425,-549.37 1418,-549.37"/>
</g>
<!-- Node4 -->
<g id="node4" class="node">
<title>Node4</title>
<g id="a_node4"><a xlink:href="enclave_2enclave_8h.html" target="_top" xlink:title=" ">
<polygon fill="white" stroke="black" points="779.5,-56.5 779.5,-75.5 901.5,-75.5 901.5,-56.5 779.5,-56.5"/>
<text text-anchor="middle" x="840.5" y="-63.5" font-family="Helvetica,sans-Serif" font-size="10.00">src/enclave/enclave.h</text>
</a>
</g>
</g>
<!-- Node3&#45;&gt;Node4 -->
<g id="edge3" class="edge">
<title>Node3&#45;&gt;Node4</title>
<path fill="none" stroke="midnightblue" d="M1551.59,-163.24C1518.46,-145.06 1462.87,-114.96 1452.5,-112 1350.25,-82.81 1035.33,-71.78 901.59,-68.34"/>
<polygon fill="midnightblue" stroke="midnightblue" points="1550.23,-166.49 1560.67,-168.24 1553.6,-160.35 1550.23,-166.49"/>
</g>
<!-- Node6 -->
<g id="node6" class="node">
<title>Node6</title>
<g id="a_node6"><a xlink:href="gov__effects_8h.html" target="_top" xlink:title=" ">
<polygon fill="white" stroke="black" points="1504.5,-112.5 1504.5,-131.5 1648.5,-131.5 1648.5,-112.5 1504.5,-112.5"/>
<text text-anchor="middle" x="1576.5" y="-119.5" font-family="Helvetica,sans-Serif" font-size="10.00">src/node/rpc/gov_effects.h</text>
</a>
</g>
</g>
<!-- Node3&#45;&gt;Node6 -->
<g id="edge5" class="edge">
<title>Node3&#45;&gt;Node6</title>
<path fill="none" stroke="midnightblue" d="M1576.5,-157.8C1576.5,-148.91 1576.5,-138.78 1576.5,-131.75"/>
<polygon fill="midnightblue" stroke="midnightblue" points="1573,-158.08 1576.5,-168.08 1580,-158.08 1573,-158.08"/>
</g>
<!-- Node5 -->
<g id="node5" class="node">
<title>Node5</title>
<g id="a_node5"><a xlink:href="enclave_2main_8cpp.html" target="_top" xlink:title=" ">
<polygon fill="white" stroke="black" points="780.5,-0.5 780.5,-19.5 900.5,-19.5 900.5,-0.5 780.5,-0.5"/>
<text text-anchor="middle" x="840.5" y="-7.5" font-family="Helvetica,sans-Serif" font-size="10.00">src/enclave/main.cpp</text>
</a>
</g>
</g>
<!-- Node4&#45;&gt;Node5 -->
<g id="edge4" class="edge">
<title>Node4&#45;&gt;Node5</title>
<path fill="none" stroke="midnightblue" d="M840.5,-45.8C840.5,-36.91 840.5,-26.78 840.5,-19.75"/>
<polygon fill="midnightblue" stroke="midnightblue" points="837,-46.08 840.5,-56.08 844,-46.08 837,-46.08"/>
</g>
<!-- Node6&#45;&gt;Node4 -->
<g id="edge6" class="edge">
<title>Node6&#45;&gt;Node4</title>
<path fill="none" stroke="midnightblue" d="M1493.89,-112.3C1492.75,-112.2 1491.62,-112.1 1490.5,-112 1274.41,-93.22 1017.36,-77.33 901.94,-70.53"/>
<polygon fill="midnightblue" stroke="midnightblue" points="1493.98,-115.82 1504.26,-113.25 1494.62,-108.85 1493.98,-115.82"/>
</g>
<!-- Node7&#45;&gt;Node3 -->
<g id="edge12" class="edge">
<title>Node7&#45;&gt;Node3</title>
<path fill="none" stroke="midnightblue" d="M1094.12,-359.01C1157.76,-324.24 1324.59,-233.55 1351.5,-224 1404.81,-205.08 1468.21,-193.3 1514.1,-186.57"/>
<polygon fill="midnightblue" stroke="midnightblue" points="1092.26,-356.04 1085.17,-363.91 1095.62,-362.18 1092.26,-356.04"/>
</g>
<!-- Node8 -->
<g id="node8" class="node">
<title>Node8</title>
<g id="a_node8"><a xlink:href="acme__challenge__frontend_8h.html" target="_top" xlink:title=" ">
<polygon fill="white" stroke="black" points="712.5,-291.5 712.5,-321.5 852.5,-321.5 852.5,-291.5 712.5,-291.5"/>
<text text-anchor="start" x="720.5" y="-309.5" font-family="Helvetica,sans-Serif" font-size="10.00">src/node/acme_challenge</text>
<text text-anchor="middle" x="782.5" y="-298.5" font-family="Helvetica,sans-Serif" font-size="10.00">_frontend.h</text>
</a>
</g>
</g>
<!-- Node7&#45;&gt;Node8 -->
<g id="edge8" class="edge">
<title>Node7&#45;&gt;Node8</title>
<path fill="none" stroke="midnightblue" d="M1021.75,-361.69C973.2,-350.69 897.74,-333.6 844.58,-321.56"/>
<polygon fill="midnightblue" stroke="midnightblue" points="1021.16,-365.14 1031.68,-363.94 1022.7,-358.31 1021.16,-365.14"/>
</g>
<!-- Node10 -->
<g id="node10" class="node">
<title>Node10</title>
<g id="a_node10"><a xlink:href="member__frontend_8h.html" target="_top" xlink:title=" ">
<polygon fill="white" stroke="black" points="1921.5,-224.5 1921.5,-254.5 2041.5,-254.5 2041.5,-224.5 1921.5,-224.5"/>
<text text-anchor="start" x="1929.5" y="-242.5" font-family="Helvetica,sans-Serif" font-size="10.00">src/node/rpc/member</text>
<text text-anchor="middle" x="1981.5" y="-231.5" font-family="Helvetica,sans-Serif" font-size="10.00">_frontend.h</text>
</a>
</g>
</g>
<!-- Node7&#45;&gt;Node10 -->
<g id="edge13" class="edge">
<title>Node7&#45;&gt;Node10</title>
<path fill="none" stroke="midnightblue" d="M1119.51,-362.02C1127.19,-360.57 1135.05,-359.18 1142.5,-358 1278.2,-336.6 1322.66,-374.76 1449.5,-322 1469.94,-313.5 1467.99,-299.35 1488.5,-291 1565.59,-259.6 1807.8,-246.81 1921.48,-242.44"/>
<polygon fill="midnightblue" stroke="midnightblue" points="1118.71,-358.61 1109.56,-363.95 1120.04,-365.48 1118.71,-358.61"/>
</g>
<!-- Node11 -->
<g id="node11" class="node">
<title>Node11</title>
<g id="a_node11"><a xlink:href="node__frontend_8h.html" target="_top" xlink:title=" ">
<polygon fill="white" stroke="black" points="1497.5,-297 1497.5,-316 1655.5,-316 1655.5,-297 1497.5,-297"/>
<text text-anchor="middle" x="1576.5" y="-304" font-family="Helvetica,sans-Serif" font-size="10.00">src/node/rpc/node_frontend.h</text>
</a>
</g>
</g>
<!-- Node7&#45;&gt;Node11 -->
<g id="edge15" class="edge">
<title>Node7&#45;&gt;Node11</title>
<path fill="none" stroke="midnightblue" d="M1119.22,-362C1127,-360.54 1134.95,-359.15 1142.5,-358 1293.17,-335.13 1332.39,-341.74 1483.5,-322 1496.95,-320.24 1511.45,-318.1 1524.91,-316.01"/>
<polygon fill="midnightblue" stroke="midnightblue" points="1118.32,-358.61 1109.17,-363.94 1119.65,-365.48 1118.32,-358.61"/>
</g>
<!-- Node13 -->
<g id="node13" class="node">
<title>Node13</title>
<g id="a_node13"><a xlink:href="user__frontend_8h.html" target="_top" xlink:title=" ">
<polygon fill="white" stroke="black" points="0,-297 0,-316 155,-316 155,-297 0,-297"/>
<text text-anchor="middle" x="77.5" y="-304" font-family="Helvetica,sans-Serif" font-size="10.00">src/node/rpc/user_frontend.h</text>
</a>
</g>
</g>
<!-- Node7&#45;&gt;Node13 -->
<g id="edge19" class="edge">
<title>Node7&#45;&gt;Node13</title>
<path fill="none" stroke="midnightblue" d="M994.61,-370.84C840.02,-366.84 474.5,-354.51 169.5,-322 155.19,-320.47 139.71,-318.26 125.6,-316.01"/>
<polygon fill="midnightblue" stroke="midnightblue" points="994.85,-374.34 1004.93,-371.1 995.02,-367.34 994.85,-374.34"/>
</g>
<!-- Node8&#45;&gt;Node4 -->
<g id="edge9" class="edge">
<title>Node8&#45;&gt;Node4</title>
<path fill="none" stroke="midnightblue" d="M702.11,-304.04C556.18,-300.54 259.78,-289.26 228.5,-255 185.65,-208.06 185.24,-158.56 228.5,-112 265.46,-72.22 631.7,-67.26 779.31,-66.89"/>
<polygon fill="midnightblue" stroke="midnightblue" points="702.28,-307.54 712.36,-304.27 702.44,-300.54 702.28,-307.54"/>
</g>
<!-- Node9 -->
<g id="node9" class="node">
<title>Node9</title>
<g id="a_node9"><a xlink:href="ccf__acme__client_8h.html" target="_top" xlink:title=" ">
<polygon fill="white" stroke="black" points="1072,-230 1072,-249 1221,-249 1221,-230 1072,-230"/>
<text text-anchor="middle" x="1146.5" y="-237" font-family="Helvetica,sans-Serif" font-size="10.00">src/node/ccf_acme_client.h</text>
</a>
</g>
</g>
<!-- Node8&#45;&gt;Node9 -->
<g id="edge10" class="edge">
<title>Node8&#45;&gt;Node9</title>
<path fill="none" stroke="midnightblue" d="M862.67,-290.79C951.39,-274.82 1043.12,-258.64 1097.82,-249.03"/>
<polygon fill="midnightblue" stroke="midnightblue" points="861.93,-287.37 852.71,-292.59 863.17,-294.26 861.93,-287.37"/>
</g>
<!-- Node9&#45;&gt;Node3 -->
<g id="edge11" class="edge">
<title>Node9&#45;&gt;Node3</title>
<path fill="none" stroke="midnightblue" d="M1206.7,-228.31C1216,-226.82 1225.5,-225.33 1234.5,-224 1332.1,-209.54 1445.72,-195.06 1514.32,-186.57"/>
<polygon fill="midnightblue" stroke="midnightblue" points="1206.02,-224.88 1196.72,-229.94 1207.15,-231.79 1206.02,-224.88"/>
</g>
<!-- Node10&#45;&gt;Node4 -->
<g id="edge14" class="edge">
<title>Node10&#45;&gt;Node4</title>
<path fill="none" stroke="midnightblue" d="M1945.03,-219.81C1886.27,-190.75 1766.23,-135.59 1657.5,-112 1513.38,-80.74 1065.63,-70.58 901.56,-67.86"/>
<polygon fill="midnightblue" stroke="midnightblue" points="1943.75,-223.09 1954.26,-224.42 1946.87,-216.82 1943.75,-223.09"/>
</g>
<!-- Node11&#45;&gt;Node4 -->
<g id="edge16" class="edge">
<title>Node11&#45;&gt;Node4</title>
<path fill="none" stroke="midnightblue" d="M1540.09,-293.7C1411.28,-251.96 978.94,-111.86 867.09,-75.62"/>
<polygon fill="midnightblue" stroke="midnightblue" points="1539.28,-297.12 1549.87,-296.87 1541.44,-290.46 1539.28,-297.12"/>
</g>
<!-- Node12 -->
<g id="node12" class="node">
<title>Node12</title>
<g id="a_node12"><a xlink:href="jwt__key__auto__refresh_8h.html" target="_top" xlink:title=" ">
<polygon fill="white" stroke="black" points="1514,-224.5 1514,-254.5 1639,-254.5 1639,-224.5 1514,-224.5"/>
<text text-anchor="start" x="1522" y="-242.5" font-family="Helvetica,sans-Serif" font-size="10.00">src/node/jwt_key_auto</text>
<text text-anchor="middle" x="1576.5" y="-231.5" font-family="Helvetica,sans-Serif" font-size="10.00">_refresh.h</text>
</a>
</g>
</g>
<!-- Node11&#45;&gt;Node12 -->
<g id="edge17" class="edge">
<title>Node11&#45;&gt;Node12</title>
<path fill="none" stroke="midnightblue" d="M1576.5,-286.41C1576.5,-276.22 1576.5,-263.9 1576.5,-254.59"/>
<polygon fill="midnightblue" stroke="midnightblue" points="1573,-286.73 1576.5,-296.73 1580,-286.73 1573,-286.73"/>
</g>
<!-- Node12&#45;&gt;Node3 -->
<g id="edge18" class="edge">
<title>Node12&#45;&gt;Node3</title>
<path fill="none" stroke="midnightblue" d="M1576.5,-214.29C1576.5,-204.86 1576.5,-194.65 1576.5,-187.66"/>
<polygon fill="midnightblue" stroke="midnightblue" points="1573,-214.4 1576.5,-224.4 1580,-214.4 1573,-214.4"/>
</g>
<!-- Node13&#45;&gt;Node4 -->
<g id="edge20" class="edge">
<title>Node13&#45;&gt;Node4</title>
<path fill="none" stroke="midnightblue" d="M78.47,-286.4C81.64,-246.42 95.14,-154.1 152.5,-112 202.38,-75.39 620.44,-68.56 779.44,-67.29"/>
<polygon fill="midnightblue" stroke="midnightblue" points="74.96,-286.41 77.8,-296.62 81.95,-286.87 74.96,-286.41"/>
</g>
<!-- Node15 -->
<g id="node15" class="node">
<title>Node15</title>
<g id="a_node15"><a xlink:href="call__types_8h.html" target="_top" xlink:title=" ">
<polygon fill="white" stroke="black" points="2180,-431 2180,-450 2317,-450 2317,-431 2180,-431"/>
<text text-anchor="middle" x="2248.5" y="-438" font-family="Helvetica,sans-Serif" font-size="10.00">src/node/rpc/call_types.h</text>
</a>
</g>
</g>
<!-- Node14&#45;&gt;Node15 -->
<g id="edge22" class="edge">
<title>Node14&#45;&gt;Node15</title>
<path fill="none" stroke="midnightblue" d="M2210.65,-484.66C2221,-472.86 2233.18,-458.97 2240.88,-450.19"/>
<polygon fill="midnightblue" stroke="midnightblue" points="2207.83,-482.57 2203.87,-492.4 2213.09,-487.18 2207.83,-482.57"/>
</g>
<!-- Node15&#45;&gt;Node10 -->
<g id="edge27" class="edge">
<title>Node15&#45;&gt;Node10</title>
<path fill="none" stroke="midnightblue" d="M2295.54,-428.39C2376.92,-407.1 2529.85,-356.79 2470.5,-291 2442.24,-259.67 2165.85,-246.61 2041.54,-242.29"/>
<polygon fill="midnightblue" stroke="midnightblue" points="2294.33,-425.08 2285.51,-430.96 2296.07,-431.86 2294.33,-425.08"/>
</g>
<!-- Node16 -->
<g id="node16" class="node">
<title>Node16</title>
<g id="a_node16"><a xlink:href="common__endpoint__registry_8cpp.html" target="_top" xlink:title=" ">
<polygon fill="white" stroke="black" points="2333.5,-291.5 2333.5,-321.5 2461.5,-321.5 2461.5,-291.5 2333.5,-291.5"/>
<text text-anchor="start" x="2341.5" y="-309.5" font-family="Helvetica,sans-Serif" font-size="10.00">src/endpoints/common</text>
<text text-anchor="middle" x="2397.5" y="-298.5" font-family="Helvetica,sans-Serif" font-size="10.00">_endpoint_registry.cpp</text>
</a>
</g>
</g>
<!-- Node15&#45;&gt;Node16 -->
<g id="edge23" class="edge">
<title>Node15&#45;&gt;Node16</title>
<path fill="none" stroke="midnightblue" d="M2266,-423.99C2295.15,-398.18 2353.18,-346.76 2381.38,-321.78"/>
<polygon fill="midnightblue" stroke="midnightblue" points="2263.44,-421.59 2258.28,-430.84 2268.08,-426.83 2263.44,-421.59"/>
</g>
<!-- Node17 -->
<g id="node17" class="node">
<title>Node17</title>
<g id="a_node17"><a xlink:href="wrap_8cpp.html" target="_top" xlink:title=" ">
<polygon fill="white" stroke="black" points="575,-168.5 575,-187.5 664,-187.5 664,-168.5 575,-168.5"/>
<text text-anchor="middle" x="619.5" y="-175.5" font-family="Helvetica,sans-Serif" font-size="10.00">src/js/wrap.cpp</text>
</a>
</g>
</g>
<!-- Node15&#45;&gt;Node17 -->
<g id="edge24" class="edge">
<title>Node15&#45;&gt;Node17</title>
<path fill="none" stroke="midnightblue" d="M2169.48,-439.01C1962.17,-437.18 1413.76,-428.61 1342.5,-389 1264.81,-345.81 1306.37,-268.62 1229.5,-224 1181,-195.85 797.16,-183.52 664.46,-180.06"/>
<polygon fill="midnightblue" stroke="midnightblue" points="2169.65,-442.51 2179.68,-439.1 2169.71,-435.51 2169.65,-442.51"/>
</g>
<!-- Node18 -->
<g id="node18" class="node">
<title>Node18</title>
<g id="a_node18"><a xlink:href="resharing_8h.html" target="_top" xlink:title=" ">
<polygon fill="white" stroke="black" points="2199.5,-297 2199.5,-316 2315.5,-316 2315.5,-297 2199.5,-297"/>
<text text-anchor="middle" x="2257.5" y="-304" font-family="Helvetica,sans-Serif" font-size="10.00">src/node/resharing.h</text>
</a>
</g>
</g>
<!-- Node15&#45;&gt;Node18 -->
<g id="edge25" class="edge">
<title>Node15&#45;&gt;Node18</title>
<path fill="none" stroke="midnightblue" d="M2262.34,-422.99C2269.26,-413.65 2276.91,-401.39 2280.5,-389 2288.2,-362.46 2272.19,-330.94 2263.14,-316.08"/>
<polygon fill="midnightblue" stroke="midnightblue" points="2259.51,-420.93 2256.09,-430.96 2265.02,-425.25 2259.51,-420.93"/>
</g>
<!-- Node19 -->
<g id="node19" class="node">
<title>Node19</title>
<g id="a_node19"><a xlink:href="serialization_8h.html" target="_top" xlink:title=" ">
<polygon fill="white" stroke="black" points="2123.5,-364 2123.5,-383 2271.5,-383 2271.5,-364 2123.5,-364"/>
<text text-anchor="middle" x="2197.5" y="-371" font-family="Helvetica,sans-Serif" font-size="10.00">src/node/rpc/serialization.h</text>
</a>
</g>
</g>
<!-- Node15&#45;&gt;Node19 -->
<g id="edge28" class="edge">
<title>Node15&#45;&gt;Node19</title>
<path fill="none" stroke="midnightblue" d="M2235.37,-422.77C2225.43,-410.1 2212.17,-393.2 2204.27,-383.13"/>
<polygon fill="midnightblue" stroke="midnightblue" points="2232.7,-425.03 2241.62,-430.73 2238.2,-420.71 2232.7,-425.03"/>
</g>
<!-- Node18&#45;&gt;Node3 -->
<g id="edge26" class="edge">
<title>Node18&#45;&gt;Node3</title>
<path fill="none" stroke="midnightblue" d="M2247.83,-288.11C2235.96,-268.67 2213.86,-238.07 2185.5,-224 2137.39,-200.13 1783.91,-185.86 1638.61,-180.94"/>
<polygon fill="midnightblue" stroke="midnightblue" points="2244.88,-290.01 2252.95,-296.88 2250.93,-286.48 2244.88,-290.01"/>
</g>
<!-- Node19&#45;&gt;Node3 -->
<g id="edge30" class="edge">
<title>Node19&#45;&gt;Node3</title>
<path fill="none" stroke="midnightblue" d="M2192.53,-353.82C2182.75,-321.14 2157.65,-254.19 2109.5,-224 2070.41,-199.49 1770.75,-185.91 1638.68,-181.07"/>
<polygon fill="midnightblue" stroke="midnightblue" points="2189.28,-355.17 2195.37,-363.84 2196.01,-353.26 2189.28,-355.17"/>
</g>
<!-- Node19&#45;&gt;Node10 -->
<g id="edge32" class="edge">
<title>Node19&#45;&gt;Node10</title>
<path fill="none" stroke="midnightblue" d="M2174.76,-358.6C2133.36,-333.3 2046.14,-280 2004.53,-254.57"/>
<polygon fill="midnightblue" stroke="midnightblue" points="2172.97,-361.61 2183.33,-363.84 2176.62,-355.64 2172.97,-361.61"/>
</g>
<!-- Node19&#45;&gt;Node11 -->
<g id="edge33" class="edge">
<title>Node19&#45;&gt;Node11</title>
<path fill="none" stroke="midnightblue" d="M2112.92,-366.29C2007.63,-358.15 1822.4,-342.46 1664.5,-322 1651.45,-320.31 1637.36,-318.14 1624.37,-316"/>
<polygon fill="midnightblue" stroke="midnightblue" points="2112.93,-369.8 2123.17,-367.08 2113.46,-362.83 2112.93,-369.8"/>
</g>
<!-- Node19&#45;&gt;Node16 -->
<g id="edge29" class="edge">
<title>Node19&#45;&gt;Node16</title>
<path fill="none" stroke="midnightblue" d="M2233.58,-360.77C2267.49,-349.75 2318.29,-333.24 2354.34,-321.53"/>
<polygon fill="midnightblue" stroke="midnightblue" points="2232.49,-357.45 2224.06,-363.87 2234.65,-364.11 2232.49,-357.45"/>
</g>
<!-- Node19&#45;&gt;Node18 -->
<g id="edge31" class="edge">
<title>Node19&#45;&gt;Node18</title>
<path fill="none" stroke="midnightblue" d="M2212.61,-356.13C2224.34,-343.42 2240.15,-326.3 2249.54,-316.13"/>
<polygon fill="midnightblue" stroke="midnightblue" points="2209.8,-354.01 2205.59,-363.73 2214.95,-358.76 2209.8,-354.01"/>
</g>
<!-- Node20&#45;&gt;Node9 -->
<g id="edge36" class="edge">
<title>Node20&#45;&gt;Node9</title>
<path fill="none" stroke="midnightblue" d="M1355.43,-436.41C1241.74,-430.42 1018.97,-415.41 995.5,-389 945.44,-332.65 1072.38,-271.32 1124.95,-249.12"/>
<polygon fill="midnightblue" stroke="midnightblue" points="1355.25,-439.91 1365.42,-436.93 1355.61,-432.92 1355.25,-439.91"/>
</g>
<!-- Node21 -->
<g id="node21" class="node">
<title>Node21</title>
<g id="a_node21"><a xlink:href="kv__module__loader_8cpp.html" target="_top" xlink:title=" ">
<polygon fill="white" stroke="black" points="1152,-358.5 1152,-388.5 1295,-388.5 1295,-358.5 1152,-358.5"/>
<text text-anchor="start" x="1160" y="-376.5" font-family="Helvetica,sans-Serif" font-size="10.00">src/apps/js_v8/kv_module</text>
<text text-anchor="middle" x="1223.5" y="-365.5" font-family="Helvetica,sans-Serif" font-size="10.00">_loader.cpp</text>
</a>
</g>
</g>
<!-- Node20&#45;&gt;Node21 -->
<g id="edge35" class="edge">
<title>Node20&#45;&gt;Node21</title>
<path fill="none" stroke="midnightblue" d="M1368.89,-422.23C1336.86,-411.71 1296.46,-398.45 1266.38,-388.58"/>
<polygon fill="midnightblue" stroke="midnightblue" points="1367.94,-425.6 1378.54,-425.4 1370.13,-418.95 1367.94,-425.6"/>
</g>
<!-- Node22 -->
<g id="node22" class="node">
<title>Node22</title>
<g id="a_node22"><a xlink:href="network__state_8h.html" target="_top" xlink:title=" ">
<polygon fill="white" stroke="black" points="1351.5,-364 1351.5,-383 1491.5,-383 1491.5,-364 1351.5,-364"/>
<text text-anchor="middle" x="1421.5" y="-371" font-family="Helvetica,sans-Serif" font-size="10.00">src/node/network_state.h</text>
</a>
</g>
</g>
<!-- Node20&#45;&gt;Node22 -->
<g id="edge37" class="edge">
<title>Node20&#45;&gt;Node22</title>
<path fill="none" stroke="midnightblue" d="M1421.5,-415.25C1421.5,-404.02 1421.5,-391.38 1421.5,-383.19"/>
<polygon fill="midnightblue" stroke="midnightblue" points="1418,-415.4 1421.5,-425.4 1425,-415.4 1418,-415.4"/>
</g>
<!-- Node33 -->
<g id="node33" class="node">
<title>Node33</title>
<g id="a_node33"><a xlink:href="genesis__gen_8h.html" target="_top" xlink:title=" ">
<polygon fill="white" stroke="black" points="1747.5,-358.5 1747.5,-388.5 1857.5,-388.5 1857.5,-358.5 1747.5,-358.5"/>
<text text-anchor="start" x="1755.5" y="-376.5" font-family="Helvetica,sans-Serif" font-size="10.00">src/service/genesis</text>
<text text-anchor="middle" x="1802.5" y="-365.5" font-family="Helvetica,sans-Serif" font-size="10.00">_gen.h</text>
</a>
</g>
</g>
<!-- Node20&#45;&gt;Node33 -->
<g id="edge65" class="edge">
<title>Node20&#45;&gt;Node33</title>
<path fill="none" stroke="midnightblue" d="M1487.79,-428.19C1561.3,-415.65 1678.57,-395.64 1747.29,-383.92"/>
<polygon fill="midnightblue" stroke="midnightblue" points="1486.99,-424.78 1477.72,-429.91 1488.16,-431.68 1486.99,-424.78"/>
</g>
<!-- Node22&#45;&gt;Node3 -->
<g id="edge55" class="edge">
<title>Node22&#45;&gt;Node3</title>
<path fill="none" stroke="midnightblue" d="M1360.95,-360.85C1339.39,-353.48 1317.31,-341.48 1304.5,-322 1296.93,-310.49 1296.99,-302.55 1304.5,-291 1331.85,-248.94 1477.47,-205.46 1543.68,-187.52"/>
<polygon fill="midnightblue" stroke="midnightblue" points="1360.19,-364.28 1370.78,-363.93 1362.28,-357.6 1360.19,-364.28"/>
</g>
<!-- Node22&#45;&gt;Node4 -->
<g id="edge38" class="edge">
<title>Node22&#45;&gt;Node4</title>
<path fill="none" stroke="midnightblue" d="M1348.11,-362.76C1333.35,-361.01 1317.95,-359.32 1303.5,-358 1181.25,-346.83 291.57,-340.51 203.5,-255 157.85,-210.67 160.45,-151.29 210.5,-112 254.57,-77.4 629.8,-69.37 779.35,-67.53"/>
<polygon fill="midnightblue" stroke="midnightblue" points="1347.85,-366.26 1358.2,-363.98 1348.69,-359.31 1347.85,-366.26"/>
</g>
<!-- Node22&#45;&gt;Node8 -->
<g id="edge54" class="edge">
<title>Node22&#45;&gt;Node8</title>
<path fill="none" stroke="midnightblue" d="M1345.88,-362.74C1331.8,-361.06 1317.21,-359.4 1303.5,-358 1107.42,-337.98 1056.9,-347.82 861.5,-322 858.6,-321.62 855.64,-321.2 852.65,-320.75"/>
<polygon fill="midnightblue" stroke="midnightblue" points="1345.67,-366.24 1356.02,-363.97 1346.51,-359.29 1345.67,-366.24"/>
</g>
<!-- Node22&#45;&gt;Node11 -->
<g id="edge56" class="edge">
<title>Node22&#45;&gt;Node11</title>
<path fill="none" stroke="midnightblue" d="M1451.43,-359.95C1482.12,-347.08 1529.04,-327.4 1555.83,-316.17"/>
<polygon fill="midnightblue" stroke="midnightblue" points="1449.95,-356.77 1442.08,-363.87 1452.66,-363.23 1449.95,-356.77"/>
</g>
<!-- Node22&#45;&gt;Node13 -->
<g id="edge57" class="edge">
<title>Node22&#45;&gt;Node13</title>
<path fill="none" stroke="midnightblue" d="M1350.88,-362.76C1335.3,-360.91 1318.86,-359.19 1303.5,-358 800.74,-319.21 671.53,-369.34 169.5,-322 154.69,-320.6 138.64,-318.34 124.16,-316.01"/>
<polygon fill="midnightblue" stroke="midnightblue" points="1350.62,-366.26 1360.97,-363.99 1351.47,-359.31 1350.62,-366.26"/>
</g>
<!-- Node23 -->
<g id="node23" class="node">
<title>Node23</title>
<g id="a_node23"><a xlink:href="wrap_8h.html" target="_top" xlink:title=" ">
<polygon fill="white" stroke="black" points="870.5,-297 870.5,-316 948.5,-316 948.5,-297 870.5,-297"/>
<text text-anchor="middle" x="909.5" y="-304" font-family="Helvetica,sans-Serif" font-size="10.00">src/js/wrap.h</text>
</a>
</g>
</g>
<!-- Node22&#45;&gt;Node23 -->
<g id="edge39" class="edge">
<title>Node22&#45;&gt;Node23</title>
<path fill="none" stroke="midnightblue" d="M1344.18,-362.68C1233.31,-348.61 1033.23,-323.21 948.79,-312.49"/>
<polygon fill="midnightblue" stroke="midnightblue" points="1343.94,-366.18 1354.3,-363.97 1344.82,-359.24 1343.94,-366.18"/>
</g>
<!-- Node30 -->
<g id="node30" class="node">
<title>Node30</title>
<g id="a_node30"><a xlink:href="secret__broadcast_8h.html" target="_top" xlink:title=" ">
<polygon fill="white" stroke="black" points="1674,-297 1674,-316 1827,-316 1827,-297 1674,-297"/>
<text text-anchor="middle" x="1750.5" y="-304" font-family="Helvetica,sans-Serif" font-size="10.00">src/node/secret_broadcast.h</text>
</a>
</g>
</g>
<!-- Node22&#45;&gt;Node30 -->
<g id="edge58" class="edge">
<title>Node22&#45;&gt;Node30</title>
<path fill="none" stroke="midnightblue" d="M1474.86,-361.96C1539.61,-349.16 1647.53,-327.84 1707.32,-316.03"/>
<polygon fill="midnightblue" stroke="midnightblue" points="1473.98,-358.56 1464.85,-363.94 1475.34,-365.43 1473.98,-358.56"/>
</g>
<!-- Node31 -->
<g id="node31" class="node">
<title>Node31</title>
<g id="a_node31"><a xlink:href="share__manager_8h.html" target="_top" xlink:title=" ">
<polygon fill="white" stroke="black" points="1884,-297 1884,-316 2029,-316 2029,-297 1884,-297"/>
<text text-anchor="middle" x="1956.5" y="-304" font-family="Helvetica,sans-Serif" font-size="10.00">src/node/share_manager.h</text>
</a>
</g>
</g>
<!-- Node22&#45;&gt;Node31 -->
<g id="edge60" class="edge">
<title>Node22&#45;&gt;Node31</title>
<path fill="none" stroke="midnightblue" d="M1501.89,-362.73C1606.32,-350.05 1786.97,-328.1 1886.2,-316.04"/>
<polygon fill="midnightblue" stroke="midnightblue" points="1501.22,-359.29 1491.72,-363.97 1502.07,-366.24 1501.22,-359.29"/>
</g>
<!-- Node32 -->
<g id="node32" class="node">
<title>Node32</title>
<g id="a_node32"><a xlink:href="snapshotter_8h.html" target="_top" xlink:title=" ">
<polygon fill="white" stroke="black" points="1314,-297 1314,-316 1441,-316 1441,-297 1314,-297"/>
<text text-anchor="middle" x="1377.5" y="-304" font-family="Helvetica,sans-Serif" font-size="10.00">src/node/snapshotter.h</text>
</a>
</g>
</g>
<!-- Node22&#45;&gt;Node32 -->
<g id="edge63" class="edge">
<title>Node22&#45;&gt;Node32</title>
<path fill="none" stroke="midnightblue" d="M1409.93,-355.4C1401.38,-342.77 1390.09,-326.1 1383.34,-316.13"/>
<polygon fill="midnightblue" stroke="midnightblue" points="1407.06,-357.41 1415.57,-363.73 1412.86,-353.49 1407.06,-357.41"/>
</g>
<!-- Node23&#45;&gt;Node3 -->
<g id="edge52" class="edge">
<title>Node23&#45;&gt;Node3</title>
<path fill="none" stroke="midnightblue" d="M959.09,-300.92C1022.57,-294.32 1135.56,-280.09 1229.5,-255 1266.74,-245.05 1273.31,-234.15 1310.5,-224 1379.18,-205.25 1460.08,-192.9 1514.47,-185.96"/>
<polygon fill="midnightblue" stroke="midnightblue" points="958.56,-297.46 948.96,-301.95 959.27,-304.42 958.56,-297.46"/>
</g>
<!-- Node23&#45;&gt;Node4 -->
<g id="edge41" class="edge">
<title>Node23&#45;&gt;Node4</title>
<path fill="none" stroke="midnightblue" d="M875.13,-294.07C870.59,-292.87 865.96,-291.8 861.5,-291 795.75,-279.26 307.29,-303.62 261.5,-255 108.52,-92.57 601.67,-70.19 779.26,-67.33"/>
<polygon fill="midnightblue" stroke="midnightblue" points="874.28,-297.46 884.86,-296.85 876.21,-290.74 874.28,-297.46"/>
</g>
<!-- Node23&#45;&gt;Node10 -->
<g id="edge53" class="edge">
<title>Node23&#45;&gt;Node10</title>
<path fill="none" stroke="midnightblue" d="M958.84,-302.51C1134.52,-291.86 1729.34,-255.79 1921.26,-244.15"/>
<polygon fill="midnightblue" stroke="midnightblue" points="958.37,-299.03 948.6,-303.13 958.8,-306.02 958.37,-299.03"/>
</g>
<!-- Node23&#45;&gt;Node17 -->
<g id="edge51" class="edge">
<title>Node23&#45;&gt;Node17</title>
<path fill="none" stroke="midnightblue" d="M951.49,-293.99C994.96,-280.08 1052.97,-254.69 1025.5,-224 1001.7,-197.42 764.41,-184.82 664,-180.65"/>
<polygon fill="midnightblue" stroke="midnightblue" points="950.44,-290.65 941.91,-296.94 952.5,-297.34 950.44,-290.65"/>
</g>
<!-- Node24 -->
<g id="node24" class="node">
<title>Node24</title>
<g id="a_node24"><a xlink:href="js__generic__base_8cpp.html" target="_top" xlink:title=" ">
<polygon fill="white" stroke="black" points="752.5,-224.5 752.5,-254.5 870.5,-254.5 870.5,-224.5 752.5,-224.5"/>
<text text-anchor="start" x="760.5" y="-242.5" font-family="Helvetica,sans-Serif" font-size="10.00">src/apps/js_generic</text>
<text text-anchor="middle" x="811.5" y="-231.5" font-family="Helvetica,sans-Serif" font-size="10.00">/js_generic_base.cpp</text>
</a>
</g>
</g>
<!-- Node23&#45;&gt;Node24 -->
<g id="edge40" class="edge">
<title>Node23&#45;&gt;Node24</title>
<path fill="none" stroke="midnightblue" d="M887.87,-291.15C871.47,-280.27 849.05,-265.4 832.74,-254.59"/>
<polygon fill="midnightblue" stroke="midnightblue" points="886.02,-294.12 896.28,-296.73 889.88,-288.29 886.02,-294.12"/>
</g>
<!-- Node25 -->
<g id="node25" class="node">
<title>Node25</title>
<g id="a_node25"><a xlink:href="js_2consensus_8cpp.html" target="_top" xlink:title=" ">
<polygon fill="white" stroke="black" points="270.5,-230 270.5,-249 386.5,-249 386.5,-230 270.5,-230"/>
<text text-anchor="middle" x="328.5" y="-237" font-family="Helvetica,sans-Serif" font-size="10.00">src/js/consensus.cpp</text>
</a>
</g>
</g>
<!-- Node23&#45;&gt;Node25 -->
<g id="edge42" class="edge">
<title>Node23&#45;&gt;Node25</title>
<path fill="none" stroke="midnightblue" d="M875.12,-294.14C870.58,-292.93 865.95,-291.83 861.5,-291 657.33,-252.74 601.04,-285.04 395.5,-255 385.02,-253.47 373.73,-251.25 363.46,-249.01"/>
<polygon fill="midnightblue" stroke="midnightblue" points="874.26,-297.54 884.84,-296.94 876.2,-290.81 874.26,-297.54"/>
</g>
<!-- Node26 -->
<g id="node26" class="node">
<title>Node26</title>
<g id="a_node26"><a xlink:href="conv_8cpp.html" target="_top" xlink:title=" ">
<polygon fill="white" stroke="black" points="404.5,-230 404.5,-249 492.5,-249 492.5,-230 404.5,-230"/>
<text text-anchor="middle" x="448.5" y="-237" font-family="Helvetica,sans-Serif" font-size="10.00">src/js/conv.cpp</text>
</a>
</g>
</g>
<!-- Node23&#45;&gt;Node26 -->
<g id="edge44" class="edge">
<title>Node23&#45;&gt;Node26</title>
<path fill="none" stroke="midnightblue" d="M874.44,-294.06C870.11,-292.9 865.73,-291.84 861.5,-291 703.8,-259.6 659.6,-284.32 501.5,-255 493.25,-253.47 484.4,-251.28 476.35,-249.06"/>
<polygon fill="midnightblue" stroke="midnightblue" points="873.75,-297.5 884.32,-296.89 875.68,-290.77 873.75,-297.5"/>
</g>
<!-- Node27 -->
<g id="node27" class="node">
<title>Node27</title>
<g id="a_node27"><a xlink:href="js_2crypto_8cpp.html" target="_top" xlink:title=" ">
<polygon fill="white" stroke="black" points="510.5,-230 510.5,-249 606.5,-249 606.5,-230 510.5,-230"/>
<text text-anchor="middle" x="558.5" y="-237" font-family="Helvetica,sans-Serif" font-size="10.00">src/js/crypto.cpp</text>
</a>
</g>
</g>
<!-- Node23&#45;&gt;Node27 -->
<g id="edge46" class="edge">
<title>Node23&#45;&gt;Node27</title>
<path fill="none" stroke="midnightblue" d="M874.11,-294.17C869.88,-293 865.61,-291.92 861.5,-291 753.65,-266.96 723.86,-276.65 615.5,-255 607.09,-253.32 598.06,-251.18 589.73,-249.07"/>
<polygon fill="midnightblue" stroke="midnightblue" points="873.2,-297.55 883.78,-296.96 875.15,-290.82 873.2,-297.55"/>
</g>
<!-- Node28 -->
<g id="node28" class="node">
<title>Node28</title>
<g id="a_node28"><a xlink:href="js_2historical_8cpp.html" target="_top" xlink:title=" ">
<polygon fill="white" stroke="black" points="624.5,-230 624.5,-249 734.5,-249 734.5,-230 624.5,-230"/>
<text text-anchor="middle" x="679.5" y="-237" font-family="Helvetica,sans-Serif" font-size="10.00">src/js/historical.cpp</text>
</a>
</g>
</g>
<!-- Node23&#45;&gt;Node28 -->
<g id="edge48" class="edge">
<title>Node23&#45;&gt;Node28</title>
<path fill="none" stroke="midnightblue" d="M871.85,-294.04C868.35,-293 864.86,-291.97 861.5,-291 808.9,-275.76 747.48,-258.91 711.13,-249.04"/>
<polygon fill="midnightblue" stroke="midnightblue" points="871.03,-297.45 881.61,-296.96 873.03,-290.74 871.03,-297.45"/>
</g>
<!-- Node29 -->
<g id="node29" class="node">
<title>Node29</title>
<g id="a_node29"><a xlink:href="openenclave_8cpp.html" target="_top" xlink:title=" ">
<polygon fill="white" stroke="black" points="888.5,-230 888.5,-249 1016.5,-249 1016.5,-230 888.5,-230"/>
<text text-anchor="middle" x="952.5" y="-237" font-family="Helvetica,sans-Serif" font-size="10.00">src/js/openenclave.cpp</text>
</a>
</g>
</g>
<!-- Node23&#45;&gt;Node29 -->
<g id="edge50" class="edge">
<title>Node23&#45;&gt;Node29</title>
<path fill="none" stroke="midnightblue" d="M921.05,-288.03C929.38,-275.45 940.26,-259.01 946.79,-249.13"/>
<polygon fill="midnightblue" stroke="midnightblue" points="917.9,-286.46 915.3,-296.73 923.74,-290.32 917.9,-286.46"/>
</g>
<!-- Node25&#45;&gt;Node17 -->
<g id="edge43" class="edge">
<title>Node25&#45;&gt;Node17</title>
<path fill="none" stroke="midnightblue" d="M377.53,-227.8C383.58,-226.51 389.68,-225.21 395.5,-224 458.21,-210.92 530.95,-196.43 576.1,-187.52"/>
<polygon fill="midnightblue" stroke="midnightblue" points="376.49,-224.44 367.45,-229.97 377.96,-231.29 376.49,-224.44"/>
</g>
<!-- Node26&#45;&gt;Node17 -->
<g id="edge45" class="edge">
<title>Node26&#45;&gt;Node17</title>
<path fill="none" stroke="midnightblue" d="M482.75,-226.58C515.99,-215.02 565.61,-197.75 595.05,-187.51"/>
<polygon fill="midnightblue" stroke="midnightblue" points="481.29,-223.38 473,-229.98 483.59,-229.99 481.29,-223.38"/>
</g>
<!-- Node27&#45;&gt;Node17 -->
<g id="edge47" class="edge">
<title>Node27&#45;&gt;Node17</title>
<path fill="none" stroke="midnightblue" d="M574.57,-222.82C586.16,-211.52 601.36,-196.69 610.78,-187.51"/>
<polygon fill="midnightblue" stroke="midnightblue" points="571.95,-220.49 567.24,-229.98 576.84,-225.5 571.95,-220.49"/>
</g>
<!-- Node28&#45;&gt;Node17 -->
<g id="edge49" class="edge">
<title>Node28&#45;&gt;Node17</title>
<path fill="none" stroke="midnightblue" d="M663.69,-222.82C652.29,-211.52 637.34,-196.69 628.08,-187.51"/>
<polygon fill="midnightblue" stroke="midnightblue" points="661.34,-225.42 670.9,-229.98 666.27,-220.45 661.34,-225.42"/>
</g>
<!-- Node30&#45;&gt;Node3 -->
<g id="edge59" class="edge">
<title>Node30&#45;&gt;Node3</title>
<path fill="none" stroke="midnightblue" d="M1732.48,-290.3C1712.26,-273.46 1678.25,-245.82 1647.5,-224 1628.46,-210.49 1605.48,-196.29 1590.93,-187.54"/>
<polygon fill="midnightblue" stroke="midnightblue" points="1730.33,-293.07 1740.25,-296.8 1734.83,-287.7 1730.33,-293.07"/>
</g>
<!-- Node31&#45;&gt;Node3 -->
<g id="edge61" class="edge">
<title>Node31&#45;&gt;Node3</title>
<path fill="none" stroke="midnightblue" d="M1941.58,-289.42C1921.39,-268.04 1886,-232.03 1869.5,-224 1829.87,-204.73 1712.15,-191.1 1638.54,-184.19"/>
<polygon fill="midnightblue" stroke="midnightblue" points="1939.11,-291.9 1948.5,-296.81 1944.22,-287.12 1939.11,-291.9"/>
</g>
<!-- Node31&#45;&gt;Node10 -->
<g id="edge62" class="edge">
<title>Node31&#45;&gt;Node10</title>
<path fill="none" stroke="midnightblue" d="M1963.47,-287.39C1967.45,-277.02 1972.38,-264.2 1976.08,-254.59"/>
<polygon fill="midnightblue" stroke="midnightblue" points="1960.19,-286.14 1959.87,-296.73 1966.73,-288.66 1960.19,-286.14"/>
</g>
<!-- Node32&#45;&gt;Node3 -->
<g id="edge64" class="edge">
<title>Node32&#45;&gt;Node3</title>
<path fill="none" stroke="midnightblue" d="M1399.28,-291.41C1424.53,-275.1 1467.44,-247.47 1504.5,-224 1524.67,-211.22 1548.15,-196.6 1562.67,-187.58"/>
<polygon fill="midnightblue" stroke="midnightblue" points="1397.31,-288.51 1390.81,-296.88 1401.11,-294.39 1397.31,-288.51"/>
</g>
<!-- Node33&#45;&gt;Node3 -->
<g id="edge66" class="edge">
<title>Node33&#45;&gt;Node3</title>
<path fill="none" stroke="midnightblue" d="M1822.71,-350.69C1835.97,-333.63 1848.78,-309.73 1836.5,-291 1792.92,-224.51 1700.61,-197.33 1638.55,-186.33"/>
<polygon fill="midnightblue" stroke="midnightblue" points="1819.95,-348.53 1816.27,-358.47 1825.34,-353 1819.95,-348.53"/>
</g>
<!-- Node33&#45;&gt;Node10 -->
<g id="edge67" class="edge">
<title>Node33&#45;&gt;Node10</title>
<path fill="none" stroke="midnightblue" d="M1867.9,-367.56C1930.15,-361.33 2017.38,-348.12 2038.5,-322 2056.74,-299.44 2026.49,-271.39 2003.54,-254.77"/>
<polygon fill="midnightblue" stroke="midnightblue" points="1867.37,-364.09 1857.75,-368.53 1868.04,-371.06 1867.37,-364.09"/>
</g>
<!-- Node33&#45;&gt;Node11 -->
<g id="edge68" class="edge">
<title>Node33&#45;&gt;Node11</title>
<path fill="none" stroke="midnightblue" d="M1743.99,-355.67C1699.82,-342.97 1641.05,-326.06 1606.15,-316.03"/>
<polygon fill="midnightblue" stroke="midnightblue" points="1743.16,-359.08 1753.74,-358.48 1745.1,-352.35 1743.16,-359.08"/>
</g>
<!-- Node33&#45;&gt;Node30 -->
<g id="edge69" class="edge">
<title>Node33&#45;&gt;Node30</title>
<path fill="none" stroke="midnightblue" d="M1784.75,-350.32C1775.38,-338.6 1764.41,-324.88 1757.46,-316.19"/>
<polygon fill="midnightblue" stroke="midnightblue" points="1782.24,-352.77 1791.22,-358.4 1787.7,-348.4 1782.24,-352.77"/>
</g>
<!-- Node33&#45;&gt;Node31 -->
<g id="edge70" class="edge">
<title>Node33&#45;&gt;Node31</title>
<path fill="none" stroke="midnightblue" d="M1845.24,-354.46C1875,-341.9 1913.32,-325.72 1936.34,-316.01"/>
<polygon fill="midnightblue" stroke="midnightblue" points="1843.77,-351.28 1835.92,-358.4 1846.49,-357.73 1843.77,-351.28"/>
</g>
</g>
</svg>
        <g id="navigator" transform="translate(0 0)" fill="#404254">
                <rect fill="#f2f5e9" fill-opacity="0.5" stroke="#606060" stroke-width=".5" x="0" y="0" width="60" height="60"/>
                <use id="zoomplus" xlink:href="#zoomPlus" x="17" y="9" onmousedown="handleZoom(evt,'in')"/>
                <use id="zoomminus" xlink:href="#zoomMin" x="42" y="9" onmousedown="handleZoom(evt,'out')"/>
                <use id="reset" xlink:href="#resetDef" x="30" y="36" onmousedown="handleReset()"/>
                <g id="arrowUp" xlink:href="#dirArrow" transform="translate(30 24)" onmousedown="handlePan(0,-1)">
                  <use xlink:href="#rim" fill="#404040">
                        <set attributeName="fill" to="#808080" begin="arrowUp.mouseover" end="arrowUp.mouseout"/>
                  </use>
                  <path fill="none" stroke="white" stroke-width="1.5" d="M0,-3.0v7 M-2.5,-0.5L0,-3.0L2.5,-0.5"/>
                </g>
                <g id="arrowRight" xlink:href="#dirArrow" transform="rotate(90) translate(36 -43)" onmousedown="handlePan(1,0)">
                  <use xlink:href="#rim" fill="#404040">
                        <set attributeName="fill" to="#808080" begin="arrowRight.mouseover" end="arrowRight.mouseout"/>
                  </use>
                  <path fill="none" stroke="white" stroke-width="1.5" d="M0,-3.0v7 M-2.5,-0.5L0,-3.0L2.5,-0.5"/>
                </g>
                <g id="arrowDown" xlink:href="#dirArrow" transform="rotate(180) translate(-30 -48)" onmousedown="handlePan(0,1)">
                  <use xlink:href="#rim" fill="#404040">
                        <set attributeName="fill" to="#808080" begin="arrowDown.mouseover" end="arrowDown.mouseout"/>
                  </use>
                  <path fill="none" stroke="white" stroke-width="1.5" d="M0,-3.0v7 M-2.5,-0.5L0,-3.0L2.5,-0.5"/>
                </g>
                <g id="arrowLeft" xlink:href="#dirArrow" transform="rotate(270) translate(-36 17)" onmousedown="handlePan(-1,0)">
                  <use xlink:href="#rim" fill="#404040">
                        <set attributeName="fill" to="#808080" begin="arrowLeft.mouseover" end="arrowLeft.mouseout"/>
                  </use>
                  <path fill="none" stroke="white" stroke-width="1.5" d="M0,-3.0v7 M-2.5,-0.5L0,-3.0L2.5,-0.5"/>
                </g>
        </g>
        <svg viewBox="0 0 15 15" width="100%" height="30px" preserveAspectRatio="xMaxYMin meet">
         <g id="arrow_out" transform="scale(0.3 0.3)">
          <a xlink:href="service_8h__dep__incl_org.svg" target="_base">
           <rect id="button" ry="5" rx="5" y="6" x="6" height="38" width="38"
                fill="#f2f5e9" fill-opacity="0.5" stroke="#606060" stroke-width="1.0"/>
           <path id="arrow"
             d="M 11.500037,31.436501 C 11.940474,20.09759 22.043105,11.32322 32.158766,21.979434 L 37.068811,17.246167 C 37.068811,17.246167 37.088388,32 37.088388,32 L 22.160133,31.978069 C 22.160133,31.978069 26.997745,27.140456 26.997745,27.140456 C 18.528582,18.264221 13.291696,25.230495 11.500037,31.436501 z"
             style="fill:#404040;"/>
          </a>
         </g>
        </svg>
</svg>
