<?xml version="1.0" encoding="UTF-8" standalone="no"?>
<!DOCTYPE svg PUBLIC "-//W3C//DTD SVG 1.1//EN"
 "http://www.w3.org/Graphics/SVG/1.1/DTD/svg11.dtd">
<!-- Generated by graphviz version 2.43.0 (0)
 -->
<!-- Title: include/ccf/crypto/sha256.h Pages: 1 -->
<svg width="561pt" height="397pt"
 viewBox="0.00 0.00 561.00 397.00" xmlns="http://www.w3.org/2000/svg" xmlns:xlink="http://www.w3.org/1999/xlink">
<g id="graph0" class="graph" transform="scale(1 1) rotate(0) translate(4 393)">
<title>include/ccf/crypto/sha256.h</title>
<polygon fill="white" stroke="transparent" points="-4,4 -4,-393 557,-393 557,4 -4,4"/>
<!-- Node1 -->
<g id="node1" class="node">
<title>Node1</title>
<g id="a_node1"><a xlink:title=" ">
<polygon fill="#bfbfbf" stroke="black" points="217,-358.5 217,-388.5 320,-388.5 320,-358.5 217,-358.5"/>
<text text-anchor="start" x="225" y="-376.5" font-family="Helvetica,sans-Serif" font-size="10.00">include/ccf/crypto</text>
<text text-anchor="middle" x="268.5" y="-365.5" font-family="Helvetica,sans-Serif" font-size="10.00">/sha256.h</text>
</a>
</g>
</g>
<!-- Node2 -->
<g id="node2" class="node">
<title>Node2</title>
<g id="a_node2"><a xlink:href="ccf__global_8cpp.html" target="_top" xlink:title=" ">
<polygon fill="white" stroke="black" points="0,-291.5 0,-321.5 111,-321.5 111,-291.5 0,-291.5"/>
<text text-anchor="start" x="8" y="-309.5" font-family="Helvetica,sans-Serif" font-size="10.00">src/apps/js_v8/tmpl</text>
<text text-anchor="middle" x="55.5" y="-298.5" font-family="Helvetica,sans-Serif" font-size="10.00">/ccf_global.cpp</text>
</a>
</g>
</g>
<!-- Node1&#45;&gt;Node2 -->
<g id="edge1" class="edge">
<title>Node1&#45;&gt;Node2</title>
<path fill="none" stroke="midnightblue" d="M212.61,-355.44C178.08,-344.91 134.31,-331.55 101.74,-321.61"/>
<polygon fill="midnightblue" stroke="midnightblue" points="211.96,-358.9 222.54,-358.48 214,-352.21 211.96,-358.9"/>
</g>
<!-- Node3 -->
<g id="node3" class="node">
<title>Node3</title>
<g id="a_node3"><a xlink:href="hash_8cpp.html" target="_top" xlink:title=" ">
<polygon fill="white" stroke="black" points="129,-297 129,-316 240,-316 240,-297 129,-297"/>
<text text-anchor="middle" x="184.5" y="-304" font-family="Helvetica,sans-Serif" font-size="10.00">src/crypto/hash.cpp</text>
</a>
</g>
</g>
<!-- Node1&#45;&gt;Node3 -->
<g id="edge2" class="edge">
<title>Node1&#45;&gt;Node3</title>
<path fill="none" stroke="midnightblue" d="M242.02,-352.01C226.42,-339.94 207.51,-325.3 195.74,-316.19"/>
<polygon fill="midnightblue" stroke="midnightblue" points="240.22,-355.04 250.27,-358.4 244.51,-349.51 240.22,-355.04"/>
</g>
<!-- Node4 -->
<g id="node4" class="node">
<title>Node4</title>
<g id="a_node4"><a xlink:href="enclave__lfs__access_8h.html" target="_top" xlink:title=" ">
<polygon fill="white" stroke="black" points="245,-168.5 245,-198.5 362,-198.5 362,-168.5 245,-168.5"/>
<text text-anchor="start" x="253" y="-186.5" font-family="Helvetica,sans-Serif" font-size="10.00">src/indexing/enclave</text>
<text text-anchor="middle" x="303.5" y="-175.5" font-family="Helvetica,sans-Serif" font-size="10.00">_lfs_access.h</text>
</a>
</g>
</g>
<!-- Node1&#45;&gt;Node4 -->
<g id="edge3" class="edge">
<title>Node1&#45;&gt;Node4</title>
<path fill="none" stroke="midnightblue" d="M270.62,-347.99C273.31,-320.31 278.68,-274.05 287.5,-235 290.3,-222.62 294.73,-208.91 298.22,-198.91"/>
<polygon fill="midnightblue" stroke="midnightblue" points="267.1,-348.02 269.66,-358.3 274.07,-348.67 267.1,-348.02"/>
</g>
<!-- Node7 -->
<g id="node7" class="node">
<title>Node7</title>
<g id="a_node7"><a xlink:href="js_2crypto_8cpp.html" target="_top" xlink:title=" ">
<polygon fill="white" stroke="black" points="296.5,-297 296.5,-316 392.5,-316 392.5,-297 296.5,-297"/>
<text text-anchor="middle" x="344.5" y="-304" font-family="Helvetica,sans-Serif" font-size="10.00">src/js/crypto.cpp</text>
</a>
</g>
</g>
<!-- Node1&#45;&gt;Node7 -->
<g id="edge6" class="edge">
<title>Node1&#45;&gt;Node7</title>
<path fill="none" stroke="midnightblue" d="M292.85,-351.67C306.89,-339.67 323.78,-325.22 334.33,-316.19"/>
<polygon fill="midnightblue" stroke="midnightblue" points="290.32,-349.24 284.99,-358.4 294.87,-354.56 290.32,-349.24"/>
</g>
<!-- Node9 -->
<g id="node9" class="node">
<title>Node9</title>
<g id="a_node9"><a xlink:href="acme__client_8h.html" target="_top" xlink:title=" ">
<polygon fill="white" stroke="black" points="412,-297 412,-316 541,-316 541,-297 412,-297"/>
<text text-anchor="middle" x="476.5" y="-304" font-family="Helvetica,sans-Serif" font-size="10.00">src/node/acme_client.h</text>
</a>
</g>
</g>
<!-- Node1&#45;&gt;Node9 -->
<g id="edge8" class="edge">
<title>Node1&#45;&gt;Node9</title>
<path fill="none" stroke="midnightblue" d="M323.12,-355.43C363.69,-342.75 417.3,-326 449.21,-316.03"/>
<polygon fill="midnightblue" stroke="midnightblue" points="321.88,-352.15 313.38,-358.48 323.97,-358.83 321.88,-352.15"/>
</g>
<!-- Node5 -->
<g id="node5" class="node">
<title>Node5</title>
<g id="a_node5"><a xlink:href="enclave_2enclave_8h.html" target="_top" xlink:title=" ">
<polygon fill="white" stroke="black" points="299.5,-56.5 299.5,-75.5 421.5,-75.5 421.5,-56.5 299.5,-56.5"/>
<text text-anchor="middle" x="360.5" y="-63.5" font-family="Helvetica,sans-Serif" font-size="10.00">src/enclave/enclave.h</text>
</a>
</g>
</g>
<!-- Node4&#45;&gt;Node5 -->
<g id="edge4" class="edge">
<title>Node4&#45;&gt;Node5</title>
<path fill="none" stroke="midnightblue" d="M314.98,-159.24C327.7,-133.47 347.56,-93.22 356.22,-75.67"/>
<polygon fill="midnightblue" stroke="midnightblue" points="311.78,-157.82 310.49,-168.34 318.05,-160.92 311.78,-157.82"/>
</g>
<!-- Node6 -->
<g id="node6" class="node">
<title>Node6</title>
<g id="a_node6"><a xlink:href="enclave_2main_8cpp.html" target="_top" xlink:title=" ">
<polygon fill="white" stroke="black" points="300.5,-0.5 300.5,-19.5 420.5,-19.5 420.5,-0.5 300.5,-0.5"/>
<text text-anchor="middle" x="360.5" y="-7.5" font-family="Helvetica,sans-Serif" font-size="10.00">src/enclave/main.cpp</text>
</a>
</g>
</g>
<!-- Node5&#45;&gt;Node6 -->
<g id="edge5" class="edge">
<title>Node5&#45;&gt;Node6</title>
<path fill="none" stroke="midnightblue" d="M360.5,-45.8C360.5,-36.91 360.5,-26.78 360.5,-19.75"/>
<polygon fill="midnightblue" stroke="midnightblue" points="357,-46.08 360.5,-56.08 364,-46.08 357,-46.08"/>
</g>
<!-- Node8 -->
<g id="node8" class="node">
<title>Node8</title>
<g id="a_node8"><a xlink:href="wrap_8cpp.html" target="_top" xlink:title=" ">
<polygon fill="white" stroke="black" points="297,-235.5 297,-254.5 386,-254.5 386,-235.5 297,-235.5"/>
<text text-anchor="middle" x="341.5" y="-242.5" font-family="Helvetica,sans-Serif" font-size="10.00">src/js/wrap.cpp</text>
</a>
</g>
</g>
<!-- Node7&#45;&gt;Node8 -->
<g id="edge7" class="edge">
<title>Node7&#45;&gt;Node8</title>
<path fill="none" stroke="midnightblue" d="M343.56,-286.82C343.01,-276 342.35,-262.9 341.93,-254.51"/>
<polygon fill="midnightblue" stroke="midnightblue" points="340.07,-287.16 344.07,-296.98 347.06,-286.81 340.07,-287.16"/>
</g>
<!-- Node10 -->
<g id="node10" class="node">
<title>Node10</title>
<g id="a_node10"><a xlink:href="ccf__acme__client_8h.html" target="_top" xlink:title=" ">
<polygon fill="white" stroke="black" points="404,-235.5 404,-254.5 553,-254.5 553,-235.5 404,-235.5"/>
<text text-anchor="middle" x="478.5" y="-242.5" font-family="Helvetica,sans-Serif" font-size="10.00">src/node/ccf_acme_client.h</text>
</a>
</g>
</g>
<!-- Node9&#45;&gt;Node10 -->
<g id="edge9" class="edge">
<title>Node9&#45;&gt;Node10</title>
<path fill="none" stroke="midnightblue" d="M477.13,-286.82C477.49,-276 477.93,-262.9 478.21,-254.51"/>
<polygon fill="midnightblue" stroke="midnightblue" points="473.62,-286.86 476.79,-296.98 480.62,-287.1 473.62,-286.86"/>
</g>
<!-- Node11 -->
<g id="node11" class="node">
<title>Node11</title>
<g id="a_node11"><a xlink:href="node__state_8h.html" target="_top" xlink:title=" ">
<polygon fill="white" stroke="black" points="398.5,-174 398.5,-193 522.5,-193 522.5,-174 398.5,-174"/>
<text text-anchor="middle" x="460.5" y="-181" font-family="Helvetica,sans-Serif" font-size="10.00">src/node/node_state.h</text>
</a>
</g>
</g>
<!-- Node10&#45;&gt;Node11 -->
<g id="edge10" class="edge">
<title>Node10&#45;&gt;Node11</title>
<path fill="none" stroke="midnightblue" d="M472.95,-225.66C469.66,-214.77 465.64,-201.49 463.07,-193.01"/>
<polygon fill="midnightblue" stroke="midnightblue" points="469.68,-226.92 475.92,-235.48 476.38,-224.89 469.68,-226.92"/>
</g>
<!-- Node11&#45;&gt;Node5 -->
<g id="edge11" class="edge">
<title>Node11&#45;&gt;Node5</title>
<path fill="none" stroke="midnightblue" d="M428.57,-169.41C411.75,-161.01 392.06,-148.56 379.5,-132 366.57,-114.95 362.42,-89.29 361.1,-75.88"/>
<polygon fill="midnightblue" stroke="midnightblue" points="427.53,-172.79 438.06,-173.88 430.51,-166.45 427.53,-172.79"/>
</g>
<!-- Node12 -->
<g id="node12" class="node">
<title>Node12</title>
<g id="a_node12"><a xlink:href="gov__effects_8h.html" target="_top" xlink:title=" ">
<polygon fill="white" stroke="black" points="388.5,-112.5 388.5,-131.5 532.5,-131.5 532.5,-112.5 388.5,-112.5"/>
<text text-anchor="middle" x="460.5" y="-119.5" font-family="Helvetica,sans-Serif" font-size="10.00">src/node/rpc/gov_effects.h</text>
</a>
</g>
</g>
<!-- Node11&#45;&gt;Node12 -->
<g id="edge12" class="edge">
<title>Node11&#45;&gt;Node12</title>
<path fill="none" stroke="midnightblue" d="M460.5,-163.82C460.5,-153 460.5,-139.9 460.5,-131.51"/>
<polygon fill="midnightblue" stroke="midnightblue" points="457,-163.98 460.5,-173.98 464,-163.98 457,-163.98"/>
</g>
<!-- Node12&#45;&gt;Node5 -->
<g id="edge13" class="edge">
<title>Node12&#45;&gt;Node5</title>
<path fill="none" stroke="midnightblue" d="M435.41,-107.45C416.95,-97.48 392.4,-84.23 376.53,-75.65"/>
<polygon fill="midnightblue" stroke="midnightblue" points="433.97,-110.65 444.43,-112.32 437.3,-104.49 433.97,-110.65"/>
</g>
</g>
</svg>
