<?xml version="1.0" encoding="UTF-8" standalone="no"?>
<!DOCTYPE svg PUBLIC "-//W3C//DTD SVG 1.1//EN"
 "http://www.w3.org/Graphics/SVG/1.1/DTD/svg11.dtd">
<!-- Generated by graphviz version 2.43.0 (0)
 -->
<!-- Title: src/enclave/endpoint.h Pages: 1 -->
<svg width="1286pt" height="811pt"
 viewBox="0.00 0.00 1285.50 811.00" xmlns="http://www.w3.org/2000/svg" xmlns:xlink="http://www.w3.org/1999/xlink">
<g id="graph0" class="graph" transform="scale(1 1) rotate(0) translate(4 807)">
<title>src/enclave/endpoint.h</title>
<polygon fill="white" stroke="transparent" points="-4,4 -4,-807 1281.5,-807 1281.5,4 -4,4"/>
<!-- Node1 -->
<g id="node1" class="node">
<title>Node1</title>
<g id="a_node1"><a xlink:title=" ">
<polygon fill="#bfbfbf" stroke="black" points="98.5,-783.5 98.5,-802.5 225.5,-802.5 225.5,-783.5 98.5,-783.5"/>
<text text-anchor="middle" x="162" y="-790.5" font-family="Helvetica,sans-Serif" font-size="10.00">src/enclave/endpoint.h</text>
</a>
</g>
</g>
<!-- Node2 -->
<g id="node2" class="node">
<title>Node2</title>
<g id="a_node2"><a xlink:href="tls__endpoint_8h.html" target="_top" xlink:title=" ">
<polygon fill="white" stroke="black" points="248,-727.5 248,-746.5 392,-746.5 392,-727.5 248,-727.5"/>
<text text-anchor="middle" x="320" y="-734.5" font-family="Helvetica,sans-Serif" font-size="10.00">src/enclave/tls_endpoint.h</text>
</a>
</g>
</g>
<!-- Node1&#45;&gt;Node2 -->
<g id="edge1" class="edge">
<title>Node1&#45;&gt;Node2</title>
<path fill="none" stroke="midnightblue" d="M196.61,-780.17C226.36,-770 268.55,-755.59 295.08,-746.52"/>
<polygon fill="midnightblue" stroke="midnightblue" points="195.37,-776.9 187.04,-783.44 197.63,-783.52 195.37,-776.9"/>
</g>
<!-- Node26 -->
<g id="node26" class="node">
<title>Node26</title>
<g id="a_node26"><a xlink:href="http2_8h.html" target="_top" xlink:title=" ">
<polygon fill="white" stroke="black" points="95.5,-436.5 95.5,-455.5 186.5,-455.5 186.5,-436.5 95.5,-436.5"/>
<text text-anchor="middle" x="141" y="-443.5" font-family="Helvetica,sans-Serif" font-size="10.00">src/http/http2.h</text>
</a>
</g>
</g>
<!-- Node1&#45;&gt;Node26 -->
<g id="edge55" class="edge">
<title>Node1&#45;&gt;Node26</title>
<path fill="none" stroke="midnightblue" d="M162,-773.25C162,-751.36 162,-714.05 162,-682 162,-682 162,-682 162,-568 162,-525.36 149.18,-475.49 143.58,-455.72"/>
<polygon fill="midnightblue" stroke="midnightblue" points="158.5,-773.44 162,-783.44 165.5,-773.44 158.5,-773.44"/>
</g>
<!-- Node33 -->
<g id="node33" class="node">
<title>Node33</title>
<g id="a_node33"><a xlink:href="quic__endpoint_8h.html" target="_top" xlink:title=" ">
<polygon fill="white" stroke="black" points="0,-671.5 0,-690.5 134,-690.5 134,-671.5 0,-671.5"/>
<text text-anchor="middle" x="67" y="-678.5" font-family="Helvetica,sans-Serif" font-size="10.00">src/quic/quic_endpoint.h</text>
</a>
</g>
</g>
<!-- Node1&#45;&gt;Node33 -->
<g id="edge56" class="edge">
<title>Node1&#45;&gt;Node33</title>
<path fill="none" stroke="midnightblue" d="M147.82,-775.59C127.34,-751.87 90.21,-708.87 74.42,-690.59"/>
<polygon fill="midnightblue" stroke="midnightblue" points="145.36,-778.09 154.55,-783.37 150.66,-773.51 145.36,-778.09"/>
</g>
<!-- Node3 -->
<g id="node3" class="node">
<title>Node3</title>
<g id="a_node3"><a xlink:href="http__parser_8h.html" target="_top" xlink:title=" ">
<polygon fill="white" stroke="black" points="382,-615.5 382,-634.5 502,-634.5 502,-615.5 382,-615.5"/>
<text text-anchor="middle" x="442" y="-622.5" font-family="Helvetica,sans-Serif" font-size="10.00">src/http/http_parser.h</text>
</a>
</g>
</g>
<!-- Node2&#45;&gt;Node3 -->
<g id="edge2" class="edge">
<title>Node2&#45;&gt;Node3</title>
<path fill="none" stroke="midnightblue" d="M342.76,-721.84C355.43,-713.52 371.18,-702.41 384,-691 404.56,-672.69 425.2,-647.56 435.42,-634.57"/>
<polygon fill="midnightblue" stroke="midnightblue" points="340.68,-719.02 334.17,-727.38 344.47,-724.91 340.68,-719.02"/>
</g>
<!-- Node32 -->
<g id="node32" class="node">
<title>Node32</title>
<g id="a_node32"><a xlink:href="http__proc_8h.html" target="_top" xlink:title=" ">
<polygon fill="white" stroke="black" points="264.5,-671.5 264.5,-690.5 375.5,-690.5 375.5,-671.5 264.5,-671.5"/>
<text text-anchor="middle" x="320" y="-678.5" font-family="Helvetica,sans-Serif" font-size="10.00">src/http/http_proc.h</text>
</a>
</g>
</g>
<!-- Node2&#45;&gt;Node32 -->
<g id="edge52" class="edge">
<title>Node2&#45;&gt;Node32</title>
<path fill="none" stroke="midnightblue" d="M320,-716.8C320,-707.91 320,-697.78 320,-690.75"/>
<polygon fill="midnightblue" stroke="midnightblue" points="316.5,-717.08 320,-727.08 323.5,-717.08 316.5,-717.08"/>
</g>
<!-- Node4 -->
<g id="node4" class="node">
<title>Node4</title>
<g id="a_node4"><a xlink:href="rpc__tls__client_8h.html" target="_top" xlink:title=" ">
<polygon fill="white" stroke="black" points="634.5,-492.5 634.5,-522.5 735.5,-522.5 735.5,-492.5 634.5,-492.5"/>
<text text-anchor="start" x="642.5" y="-510.5" font-family="Helvetica,sans-Serif" font-size="10.00">src/clients/rpc_tls</text>
<text text-anchor="middle" x="685" y="-499.5" font-family="Helvetica,sans-Serif" font-size="10.00">_client.h</text>
</a>
</g>
</g>
<!-- Node3&#45;&gt;Node4 -->
<g id="edge3" class="edge">
<title>Node3&#45;&gt;Node4</title>
<path fill="none" stroke="midnightblue" d="M491.01,-613C519.84,-605.52 556.51,-594.19 587,-579 618.14,-563.48 650.1,-538.45 668.73,-522.76"/>
<polygon fill="midnightblue" stroke="midnightblue" points="490,-609.65 481.16,-615.49 491.71,-616.44 490,-609.65"/>
</g>
<!-- Node9 -->
<g id="node9" class="node">
<title>Node9</title>
<g id="a_node9"><a xlink:href="http__endpoint_8h.html" target="_top" xlink:title=" ">
<polygon fill="white" stroke="black" points="204.5,-436.5 204.5,-455.5 337.5,-455.5 337.5,-436.5 204.5,-436.5"/>
<text text-anchor="middle" x="271" y="-443.5" font-family="Helvetica,sans-Serif" font-size="10.00">src/http/http_endpoint.h</text>
</a>
</g>
</g>
<!-- Node3&#45;&gt;Node9 -->
<g id="edge9" class="edge">
<title>Node3&#45;&gt;Node9</title>
<path fill="none" stroke="midnightblue" d="M408.81,-611.49C372.98,-596.2 317.02,-566.85 287,-523 272.68,-502.08 270.76,-470.9 270.76,-455.81"/>
<polygon fill="midnightblue" stroke="midnightblue" points="407.76,-614.84 418.34,-615.42 410.43,-608.37 407.76,-614.84"/>
</g>
<!-- Node17 -->
<g id="node17" class="node">
<title>Node17</title>
<g id="a_node17"><a xlink:href="http__jwt_8h.html" target="_top" xlink:title=" ">
<polygon fill="white" stroke="black" points="835.5,-559.5 835.5,-578.5 940.5,-578.5 940.5,-559.5 835.5,-559.5"/>
<text text-anchor="middle" x="888" y="-566.5" font-family="Helvetica,sans-Serif" font-size="10.00">src/http/http_jwt.h</text>
</a>
</g>
</g>
<!-- Node3&#45;&gt;Node17 -->
<g id="edge21" class="edge">
<title>Node3&#45;&gt;Node17</title>
<path fill="none" stroke="midnightblue" d="M512.6,-615.74C588.18,-606.85 711.6,-592.21 818,-579 823.59,-578.31 829.44,-577.57 835.26,-576.83"/>
<polygon fill="midnightblue" stroke="midnightblue" points="511.78,-612.31 502.26,-616.95 512.6,-619.26 511.78,-612.31"/>
</g>
<!-- Node25 -->
<g id="node25" class="node">
<title>Node25</title>
<g id="a_node25"><a xlink:href="http__rpc__context_8h.html" target="_top" xlink:title=" ">
<polygon fill="white" stroke="black" points="296.5,-498 296.5,-517 443.5,-517 443.5,-498 296.5,-498"/>
<text text-anchor="middle" x="370" y="-505" font-family="Helvetica,sans-Serif" font-size="10.00">src/http/http_rpc_context.h</text>
</a>
</g>
</g>
<!-- Node3&#45;&gt;Node25 -->
<g id="edge36" class="edge">
<title>Node3&#45;&gt;Node25</title>
<path fill="none" stroke="midnightblue" d="M431.1,-606.51C415.48,-581.46 387.31,-536.27 375.47,-517.28"/>
<polygon fill="midnightblue" stroke="midnightblue" points="428.33,-608.68 436.59,-615.32 434.27,-604.98 428.33,-608.68"/>
</g>
<!-- Node29 -->
<g id="node29" class="node">
<title>Node29</title>
<g id="a_node29"><a xlink:href="http__sig_8h.html" target="_top" xlink:title=" ">
<polygon fill="white" stroke="black" points="474,-559.5 474,-578.5 578,-578.5 578,-559.5 474,-559.5"/>
<text text-anchor="middle" x="526" y="-566.5" font-family="Helvetica,sans-Serif" font-size="10.00">src/http/http_sig.h</text>
</a>
</g>
</g>
<!-- Node3&#45;&gt;Node29 -->
<g id="edge46" class="edge">
<title>Node3&#45;&gt;Node29</title>
<path fill="none" stroke="midnightblue" d="M463.93,-609.9C479.34,-600 499.45,-587.07 512.54,-578.65"/>
<polygon fill="midnightblue" stroke="midnightblue" points="462.02,-606.97 455.5,-615.32 465.8,-612.86 462.02,-606.97"/>
</g>
<!-- Node31 -->
<g id="node31" class="node">
<title>Node31</title>
<g id="a_node31"><a xlink:href="acme__client_8h.html" target="_top" xlink:title=" ">
<polygon fill="white" stroke="black" points="679.5,-559.5 679.5,-578.5 808.5,-578.5 808.5,-559.5 679.5,-559.5"/>
<text text-anchor="middle" x="744" y="-566.5" font-family="Helvetica,sans-Serif" font-size="10.00">src/node/acme_client.h</text>
</a>
</g>
</g>
<!-- Node3&#45;&gt;Node31 -->
<g id="edge50" class="edge">
<title>Node3&#45;&gt;Node31</title>
<path fill="none" stroke="midnightblue" d="M499.8,-613.66C556.88,-603.46 643.12,-588.04 696.37,-578.52"/>
<polygon fill="midnightblue" stroke="midnightblue" points="499.08,-610.24 489.85,-615.44 500.31,-617.13 499.08,-610.24"/>
</g>
<!-- Node5 -->
<g id="node5" class="node">
<title>Node5</title>
<g id="a_node5"><a xlink:href="perf__client_8h.html" target="_top" xlink:title=" ">
<polygon fill="white" stroke="black" points="584.5,-369.5 584.5,-399.5 695.5,-399.5 695.5,-369.5 584.5,-369.5"/>
<text text-anchor="start" x="592.5" y="-387.5" font-family="Helvetica,sans-Serif" font-size="10.00">src/clients/perf/perf</text>
<text text-anchor="middle" x="640" y="-376.5" font-family="Helvetica,sans-Serif" font-size="10.00">_client.h</text>
</a>
</g>
</g>
<!-- Node4&#45;&gt;Node5 -->
<g id="edge4" class="edge">
<title>Node4&#45;&gt;Node5</title>
<path fill="none" stroke="midnightblue" d="M643.61,-487.16C631.52,-479.3 619.75,-468.97 613,-456 603.26,-437.28 616.45,-414.22 627.58,-399.69"/>
<polygon fill="midnightblue" stroke="midnightblue" points="642.04,-490.29 652.41,-492.44 645.64,-484.29 642.04,-490.29"/>
</g>
<!-- Node8 -->
<g id="node8" class="node">
<title>Node8</title>
<g id="a_node8"><a xlink:href="timing_8h.html" target="_top" xlink:title=" ">
<polygon fill="white" stroke="black" points="622,-436.5 622,-455.5 754,-455.5 754,-436.5 622,-436.5"/>
<text text-anchor="middle" x="688" y="-443.5" font-family="Helvetica,sans-Serif" font-size="10.00">src/clients/perf/timing.h</text>
</a>
</g>
</g>
<!-- Node4&#45;&gt;Node8 -->
<g id="edge7" class="edge">
<title>Node4&#45;&gt;Node8</title>
<path fill="none" stroke="midnightblue" d="M686.22,-482.29C686.7,-472.86 687.21,-462.65 687.56,-455.66"/>
<polygon fill="midnightblue" stroke="midnightblue" points="682.72,-482.24 685.71,-492.4 689.71,-482.59 682.72,-482.24"/>
</g>
<!-- Node6 -->
<g id="node6" class="node">
<title>Node6</title>
<g id="a_node6"><a xlink:href="tpcc__client_8cpp.html" target="_top" xlink:title=" ">
<polygon fill="white" stroke="black" points="612,-302.5 612,-332.5 728,-332.5 728,-302.5 612,-302.5"/>
<text text-anchor="start" x="620" y="-320.5" font-family="Helvetica,sans-Serif" font-size="10.00">src/apps/tpcc/clients</text>
<text text-anchor="middle" x="670" y="-309.5" font-family="Helvetica,sans-Serif" font-size="10.00">/tpcc_client.cpp</text>
</a>
</g>
</g>
<!-- Node5&#45;&gt;Node6 -->
<g id="edge5" class="edge">
<title>Node5&#45;&gt;Node6</title>
<path fill="none" stroke="midnightblue" d="M650.72,-360.28C654.99,-351.02 659.77,-340.66 663.5,-332.58"/>
<polygon fill="midnightblue" stroke="midnightblue" points="647.52,-358.85 646.51,-369.4 653.88,-361.78 647.52,-358.85"/>
</g>
<!-- Node7 -->
<g id="node7" class="node">
<title>Node7</title>
<g id="a_node7"><a xlink:href="scenario__perf__client_8cpp.html" target="_top" xlink:title=" ">
<polygon fill="white" stroke="black" points="460.5,-302.5 460.5,-332.5 593.5,-332.5 593.5,-302.5 460.5,-302.5"/>
<text text-anchor="start" x="468.5" y="-320.5" font-family="Helvetica,sans-Serif" font-size="10.00">src/clients/perf/scenario</text>
<text text-anchor="middle" x="527" y="-309.5" font-family="Helvetica,sans-Serif" font-size="10.00">_perf_client.cpp</text>
</a>
</g>
</g>
<!-- Node5&#45;&gt;Node7 -->
<g id="edge6" class="edge">
<title>Node5&#45;&gt;Node7</title>
<path fill="none" stroke="midnightblue" d="M606.61,-364.3C588.93,-354.12 567.6,-341.85 551.47,-332.58"/>
<polygon fill="midnightblue" stroke="midnightblue" points="605.07,-367.44 615.48,-369.4 608.56,-361.38 605.07,-367.44"/>
</g>
<!-- Node8&#45;&gt;Node5 -->
<g id="edge8" class="edge">
<title>Node8&#45;&gt;Node5</title>
<path fill="none" stroke="midnightblue" d="M674.71,-428.53C667.36,-419.42 658.32,-408.21 651.31,-399.52"/>
<polygon fill="midnightblue" stroke="midnightblue" points="672.12,-430.89 681.12,-436.48 677.57,-426.49 672.12,-430.89"/>
</g>
<!-- Node10 -->
<g id="node10" class="node">
<title>Node10</title>
<g id="a_node10"><a xlink:href="rpc__sessions_8h.html" target="_top" xlink:title=" ">
<polygon fill="white" stroke="black" points="248,-308 248,-327 394,-327 394,-308 248,-308"/>
<text text-anchor="middle" x="321" y="-315" font-family="Helvetica,sans-Serif" font-size="10.00">src/enclave/rpc_sessions.h</text>
</a>
</g>
</g>
<!-- Node9&#45;&gt;Node10 -->
<g id="edge10" class="edge">
<title>Node9&#45;&gt;Node10</title>
<path fill="none" stroke="midnightblue" d="M254.65,-428.54C241.13,-412.84 225.83,-388.75 237,-369 248.9,-347.97 273.44,-334.73 292.94,-327.11"/>
<polygon fill="midnightblue" stroke="midnightblue" points="252.45,-431.32 261.79,-436.31 257.6,-426.58 252.45,-431.32"/>
</g>
<!-- Node11 -->
<g id="node11" class="node">
<title>Node11</title>
<g id="a_node11"><a xlink:href="enclave_2enclave_8h.html" target="_top" xlink:title=" ">
<polygon fill="white" stroke="black" points="800,-56.5 800,-75.5 922,-75.5 922,-56.5 800,-56.5"/>
<text text-anchor="middle" x="861" y="-63.5" font-family="Helvetica,sans-Serif" font-size="10.00">src/enclave/enclave.h</text>
</a>
</g>
</g>
<!-- Node10&#45;&gt;Node11 -->
<g id="edge11" class="edge">
<title>Node10&#45;&gt;Node11</title>
<path fill="none" stroke="midnightblue" d="M315.21,-298.26C310.76,-280.51 307.3,-253.57 320,-235 405.07,-110.6 491.34,-154.27 636,-112 692.4,-95.52 758.5,-83.09 804.4,-75.52"/>
<polygon fill="midnightblue" stroke="midnightblue" points="311.87,-299.31 317.97,-307.97 318.6,-297.39 311.87,-299.31"/>
</g>
<!-- Node13 -->
<g id="node13" class="node">
<title>Node13</title>
<g id="a_node13"><a xlink:href="ccf__acme__client_8h.html" target="_top" xlink:title=" ">
<polygon fill="white" stroke="black" points="483.5,-241 483.5,-260 632.5,-260 632.5,-241 483.5,-241"/>
<text text-anchor="middle" x="558" y="-248" font-family="Helvetica,sans-Serif" font-size="10.00">src/node/ccf_acme_client.h</text>
</a>
</g>
</g>
<!-- Node10&#45;&gt;Node13 -->
<g id="edge13" class="edge">
<title>Node10&#45;&gt;Node13</title>
<path fill="none" stroke="midnightblue" d="M362.3,-305.17C409.17,-292.32 484.56,-271.64 526.78,-260.06"/>
<polygon fill="midnightblue" stroke="midnightblue" points="361.19,-301.85 352.47,-307.87 363.04,-308.6 361.19,-301.85"/>
</g>
<!-- Node14 -->
<g id="node14" class="node">
<title>Node14</title>
<g id="a_node14"><a xlink:href="node__state_8h.html" target="_top" xlink:title=" ">
<polygon fill="white" stroke="black" points="651,-174 651,-193 775,-193 775,-174 651,-174"/>
<text text-anchor="middle" x="713" y="-181" font-family="Helvetica,sans-Serif" font-size="10.00">src/node/node_state.h</text>
</a>
</g>
</g>
<!-- Node10&#45;&gt;Node14 -->
<g id="edge18" class="edge">
<title>Node10&#45;&gt;Node14</title>
<path fill="none" stroke="midnightblue" d="M319.76,-297.81C319.63,-279.06 322.65,-250.78 340,-235 384.35,-194.65 556.77,-186.2 650.87,-184.65"/>
<polygon fill="midnightblue" stroke="midnightblue" points="316.26,-297.95 320.13,-307.81 323.26,-297.69 316.26,-297.95"/>
</g>
<!-- Node16 -->
<g id="node16" class="node">
<title>Node16</title>
<g id="a_node16"><a xlink:href="resharing_8h.html" target="_top" xlink:title=" ">
<polygon fill="white" stroke="black" points="349,-241 349,-260 465,-260 465,-241 349,-241"/>
<text text-anchor="middle" x="407" y="-248" font-family="Helvetica,sans-Serif" font-size="10.00">src/node/resharing.h</text>
</a>
</g>
</g>
<!-- Node10&#45;&gt;Node16 -->
<g id="edge19" class="edge">
<title>Node10&#45;&gt;Node16</title>
<path fill="none" stroke="midnightblue" d="M340.76,-301.57C357.73,-288.74 381.62,-270.69 395.59,-260.13"/>
<polygon fill="midnightblue" stroke="midnightblue" points="338.47,-298.91 332.6,-307.73 342.69,-304.5 338.47,-298.91"/>
</g>
<!-- Node12 -->
<g id="node12" class="node">
<title>Node12</title>
<g id="a_node12"><a xlink:href="enclave_2main_8cpp.html" target="_top" xlink:title=" ">
<polygon fill="white" stroke="black" points="801,-0.5 801,-19.5 921,-19.5 921,-0.5 801,-0.5"/>
<text text-anchor="middle" x="861" y="-7.5" font-family="Helvetica,sans-Serif" font-size="10.00">src/enclave/main.cpp</text>
</a>
</g>
</g>
<!-- Node11&#45;&gt;Node12 -->
<g id="edge12" class="edge">
<title>Node11&#45;&gt;Node12</title>
<path fill="none" stroke="midnightblue" d="M861,-45.8C861,-36.91 861,-26.78 861,-19.75"/>
<polygon fill="midnightblue" stroke="midnightblue" points="857.5,-46.08 861,-56.08 864.5,-46.08 857.5,-46.08"/>
</g>
<!-- Node13&#45;&gt;Node14 -->
<g id="edge14" class="edge">
<title>Node13&#45;&gt;Node14</title>
<path fill="none" stroke="midnightblue" d="M587.93,-236.95C618.62,-224.08 665.54,-204.4 692.33,-193.17"/>
<polygon fill="midnightblue" stroke="midnightblue" points="586.45,-233.77 578.58,-240.87 589.16,-240.23 586.45,-233.77"/>
</g>
<!-- Node14&#45;&gt;Node11 -->
<g id="edge15" class="edge">
<title>Node14&#45;&gt;Node11</title>
<path fill="none" stroke="midnightblue" d="M739.51,-169.12C756.89,-159.79 779.7,-146.45 798,-132 820.44,-114.27 842.82,-88.9 853.88,-75.71"/>
<polygon fill="midnightblue" stroke="midnightblue" points="737.69,-166.12 730.47,-173.88 740.95,-172.32 737.69,-166.12"/>
</g>
<!-- Node15 -->
<g id="node15" class="node">
<title>Node15</title>
<g id="a_node15"><a xlink:href="gov__effects_8h.html" target="_top" xlink:title=" ">
<polygon fill="white" stroke="black" points="645,-112.5 645,-131.5 789,-131.5 789,-112.5 645,-112.5"/>
<text text-anchor="middle" x="717" y="-119.5" font-family="Helvetica,sans-Serif" font-size="10.00">src/node/rpc/gov_effects.h</text>
</a>
</g>
</g>
<!-- Node14&#45;&gt;Node15 -->
<g id="edge16" class="edge">
<title>Node14&#45;&gt;Node15</title>
<path fill="none" stroke="midnightblue" d="M714.26,-163.82C714.98,-153 715.86,-139.9 716.43,-131.51"/>
<polygon fill="midnightblue" stroke="midnightblue" points="710.75,-163.76 713.57,-173.98 717.74,-164.23 710.75,-163.76"/>
</g>
<!-- Node15&#45;&gt;Node11 -->
<g id="edge17" class="edge">
<title>Node15&#45;&gt;Node11</title>
<path fill="none" stroke="midnightblue" d="M749.25,-108.91C776.32,-98.75 814.32,-84.51 838.29,-75.52"/>
<polygon fill="midnightblue" stroke="midnightblue" points="747.95,-105.66 739.82,-112.44 750.41,-112.21 747.95,-105.66"/>
</g>
<!-- Node16&#45;&gt;Node14 -->
<g id="edge20" class="edge">
<title>Node16&#45;&gt;Node14</title>
<path fill="none" stroke="midnightblue" d="M457.01,-238.83C463.07,-237.54 469.18,-236.24 475,-235 544.41,-220.24 625.22,-203.1 672.57,-193.07"/>
<polygon fill="midnightblue" stroke="midnightblue" points="455.96,-235.47 446.91,-240.98 457.42,-242.32 455.96,-235.47"/>
</g>
<!-- Node18 -->
<g id="node18" class="node">
<title>Node18</title>
<g id="a_node18"><a xlink:href="jwt__auth_8cpp.html" target="_top" xlink:title=" ">
<polygon fill="white" stroke="black" points="810.5,-492.5 810.5,-522.5 965.5,-522.5 965.5,-492.5 810.5,-492.5"/>
<text text-anchor="start" x="818.5" y="-510.5" font-family="Helvetica,sans-Serif" font-size="10.00">src/endpoints/authentication</text>
<text text-anchor="middle" x="888" y="-499.5" font-family="Helvetica,sans-Serif" font-size="10.00">/jwt_auth.cpp</text>
</a>
</g>
</g>
<!-- Node17&#45;&gt;Node18 -->
<g id="edge22" class="edge">
<title>Node17&#45;&gt;Node18</title>
<path fill="none" stroke="midnightblue" d="M888,-549.23C888,-540.59 888,-530.5 888,-522.52"/>
<polygon fill="midnightblue" stroke="midnightblue" points="884.5,-549.48 888,-559.48 891.5,-549.48 884.5,-549.48"/>
</g>
<!-- Node19 -->
<g id="node19" class="node">
<title>Node19</title>
<g id="a_node19"><a xlink:href="frontend_8h.html" target="_top" xlink:title=" ">
<polygon fill="white" stroke="black" points="929.5,-375 929.5,-394 1058.5,-394 1058.5,-375 929.5,-375"/>
<text text-anchor="middle" x="994" y="-382" font-family="Helvetica,sans-Serif" font-size="10.00">src/node/rpc/frontend.h</text>
</a>
</g>
</g>
<!-- Node17&#45;&gt;Node19 -->
<g id="edge23" class="edge">
<title>Node17&#45;&gt;Node19</title>
<path fill="none" stroke="midnightblue" d="M929.92,-555.75C946.51,-548.8 964.17,-538.32 975,-523 1003.8,-482.27 998.45,-417.51 995.34,-394.21"/>
<polygon fill="midnightblue" stroke="midnightblue" points="928.41,-552.59 920.34,-559.46 930.93,-559.12 928.41,-552.59"/>
</g>
<!-- Node19&#45;&gt;Node14 -->
<g id="edge27" class="edge">
<title>Node19&#45;&gt;Node14</title>
<path fill="none" stroke="midnightblue" d="M919.23,-377.87C884.54,-371.64 845.09,-358.89 818,-333 784.77,-301.25 812.52,-271.81 785,-235 770.83,-216.05 747.42,-201.53 731.16,-193.03"/>
<polygon fill="midnightblue" stroke="midnightblue" points="918.91,-381.36 929.35,-379.53 920.05,-374.45 918.91,-381.36"/>
</g>
<!-- Node20 -->
<g id="node20" class="node">
<title>Node20</title>
<g id="a_node20"><a xlink:href="acme__challenge__frontend_8h.html" target="_top" xlink:title=" ">
<polygon fill="white" stroke="black" points="827,-302.5 827,-332.5 967,-332.5 967,-302.5 827,-302.5"/>
<text text-anchor="start" x="835" y="-320.5" font-family="Helvetica,sans-Serif" font-size="10.00">src/node/acme_challenge</text>
<text text-anchor="middle" x="897" y="-309.5" font-family="Helvetica,sans-Serif" font-size="10.00">_frontend.h</text>
</a>
</g>
</g>
<!-- Node19&#45;&gt;Node20 -->
<g id="edge24" class="edge">
<title>Node19&#45;&gt;Node20</title>
<path fill="none" stroke="midnightblue" d="M972.59,-369.15C956.36,-358.27 934.16,-343.4 918.03,-332.59"/>
<polygon fill="midnightblue" stroke="midnightblue" points="970.66,-372.07 980.92,-374.73 974.56,-366.26 970.66,-372.07"/>
</g>
<!-- Node21 -->
<g id="node21" class="node">
<title>Node21</title>
<g id="a_node21"><a xlink:href="member__frontend_8h.html" target="_top" xlink:title=" ">
<polygon fill="white" stroke="black" points="1052,-168.5 1052,-198.5 1172,-198.5 1172,-168.5 1052,-168.5"/>
<text text-anchor="start" x="1060" y="-186.5" font-family="Helvetica,sans-Serif" font-size="10.00">src/node/rpc/member</text>
<text text-anchor="middle" x="1112" y="-175.5" font-family="Helvetica,sans-Serif" font-size="10.00">_frontend.h</text>
</a>
</g>
</g>
<!-- Node19&#45;&gt;Node21 -->
<g id="edge28" class="edge">
<title>Node19&#45;&gt;Node21</title>
<path fill="none" stroke="midnightblue" d="M1068.66,-378.47C1099.63,-372.26 1132.77,-359.34 1152,-333 1182.7,-290.95 1143.42,-226.8 1122.96,-198.61"/>
<polygon fill="midnightblue" stroke="midnightblue" points="1067.92,-375.05 1058.7,-380.26 1069.16,-381.94 1067.92,-375.05"/>
</g>
<!-- Node22 -->
<g id="node22" class="node">
<title>Node22</title>
<g id="a_node22"><a xlink:href="node__frontend_8h.html" target="_top" xlink:title=" ">
<polygon fill="white" stroke="black" points="985,-308 985,-327 1143,-327 1143,-308 985,-308"/>
<text text-anchor="middle" x="1064" y="-315" font-family="Helvetica,sans-Serif" font-size="10.00">src/node/rpc/node_frontend.h</text>
</a>
</g>
</g>
<!-- Node19&#45;&gt;Node22 -->
<g id="edge30" class="edge">
<title>Node19&#45;&gt;Node22</title>
<path fill="none" stroke="midnightblue" d="M1010.85,-367.86C1024.61,-355.08 1043.55,-337.49 1054.71,-327.13"/>
<polygon fill="midnightblue" stroke="midnightblue" points="1008.39,-365.36 1003.44,-374.73 1013.15,-370.49 1008.39,-365.36"/>
</g>
<!-- Node24 -->
<g id="node24" class="node">
<title>Node24</title>
<g id="a_node24"><a xlink:href="user__frontend_8h.html" target="_top" xlink:title=" ">
<polygon fill="white" stroke="black" points="1122.5,-112.5 1122.5,-131.5 1277.5,-131.5 1277.5,-112.5 1122.5,-112.5"/>
<text text-anchor="middle" x="1200" y="-119.5" font-family="Helvetica,sans-Serif" font-size="10.00">src/node/rpc/user_frontend.h</text>
</a>
</g>
</g>
<!-- Node19&#45;&gt;Node24 -->
<g id="edge34" class="edge">
<title>Node19&#45;&gt;Node24</title>
<path fill="none" stroke="midnightblue" d="M1068.91,-380.49C1104.95,-375 1145.72,-362.11 1171,-333 1223.61,-272.42 1207.65,-162.73 1201.75,-131.5"/>
<polygon fill="midnightblue" stroke="midnightblue" points="1068.33,-377.04 1058.89,-381.85 1069.27,-383.97 1068.33,-377.04"/>
</g>
<!-- Node20&#45;&gt;Node11 -->
<g id="edge25" class="edge">
<title>Node20&#45;&gt;Node11</title>
<path fill="none" stroke="midnightblue" d="M893.52,-292.36C885.75,-238.56 867.32,-110.81 862.29,-75.93"/>
<polygon fill="midnightblue" stroke="midnightblue" points="890.07,-292.97 894.96,-302.37 897,-291.97 890.07,-292.97"/>
</g>
<!-- Node20&#45;&gt;Node13 -->
<g id="edge26" class="edge">
<title>Node20&#45;&gt;Node13</title>
<path fill="none" stroke="midnightblue" d="M816.68,-301.1C749.84,-288.28 657.15,-270.51 602.78,-260.09"/>
<polygon fill="midnightblue" stroke="midnightblue" points="816.28,-304.59 826.76,-303.03 817.6,-297.71 816.28,-304.59"/>
</g>
<!-- Node21&#45;&gt;Node11 -->
<g id="edge29" class="edge">
<title>Node21&#45;&gt;Node11</title>
<path fill="none" stroke="midnightblue" d="M1089.47,-161.57C1071.56,-145.95 1045.25,-125.11 1019,-112 983.53,-94.29 940,-82.55 907.61,-75.51"/>
<polygon fill="midnightblue" stroke="midnightblue" points="1087.27,-164.31 1097.07,-168.34 1091.93,-159.08 1087.27,-164.31"/>
</g>
<!-- Node22&#45;&gt;Node11 -->
<g id="edge31" class="edge">
<title>Node22&#45;&gt;Node11</title>
<path fill="none" stroke="midnightblue" d="M1050.58,-300C1011.27,-251.69 897.31,-111.62 867.96,-75.55"/>
<polygon fill="midnightblue" stroke="midnightblue" points="1047.99,-302.36 1057.01,-307.91 1053.42,-297.95 1047.99,-302.36"/>
</g>
<!-- Node23 -->
<g id="node23" class="node">
<title>Node23</title>
<g id="a_node23"><a xlink:href="jwt__key__auto__refresh_8h.html" target="_top" xlink:title=" ">
<polygon fill="white" stroke="black" points="650.5,-235.5 650.5,-265.5 775.5,-265.5 775.5,-235.5 650.5,-235.5"/>
<text text-anchor="start" x="658.5" y="-253.5" font-family="Helvetica,sans-Serif" font-size="10.00">src/node/jwt_key_auto</text>
<text text-anchor="middle" x="713" y="-242.5" font-family="Helvetica,sans-Serif" font-size="10.00">_refresh.h</text>
</a>
</g>
</g>
<!-- Node22&#45;&gt;Node23 -->
<g id="edge32" class="edge">
<title>Node22&#45;&gt;Node23</title>
<path fill="none" stroke="midnightblue" d="M1007.54,-306.04C944.13,-294.3 841.5,-275.3 775.66,-263.1"/>
<polygon fill="midnightblue" stroke="midnightblue" points="1007.28,-309.56 1017.75,-307.94 1008.56,-302.67 1007.28,-309.56"/>
</g>
<!-- Node23&#45;&gt;Node14 -->
<g id="edge33" class="edge">
<title>Node23&#45;&gt;Node14</title>
<path fill="none" stroke="midnightblue" d="M713,-225.25C713,-214.02 713,-201.38 713,-193.19"/>
<polygon fill="midnightblue" stroke="midnightblue" points="709.5,-225.4 713,-235.4 716.5,-225.4 709.5,-225.4"/>
</g>
<!-- Node24&#45;&gt;Node11 -->
<g id="edge35" class="edge">
<title>Node24&#45;&gt;Node11</title>
<path fill="none" stroke="midnightblue" d="M1136.3,-110.85C1072.25,-100.65 974.61,-85.1 914.46,-75.52"/>
<polygon fill="midnightblue" stroke="midnightblue" points="1135.86,-114.33 1146.28,-112.44 1136.96,-107.41 1135.86,-114.33"/>
</g>
<!-- Node25&#45;&gt;Node9 -->
<g id="edge41" class="edge">
<title>Node25&#45;&gt;Node9</title>
<path fill="none" stroke="midnightblue" d="M347.11,-492.74C327.99,-481.25 301.32,-465.22 285.16,-455.51"/>
<polygon fill="midnightblue" stroke="midnightblue" points="345.44,-495.82 355.82,-497.98 349.05,-489.82 345.44,-495.82"/>
</g>
<!-- Node25&#45;&gt;Node23 -->
<g id="edge42" class="edge">
<title>Node25&#45;&gt;Node23</title>
<path fill="none" stroke="midnightblue" d="M375.01,-487.79C387.63,-442.12 421.84,-326.81 452,-302 518.38,-247.4 557.67,-282.6 642,-266 644.72,-265.47 647.49,-264.92 650.29,-264.36"/>
<polygon fill="midnightblue" stroke="midnightblue" points="371.6,-487.02 372.35,-497.58 378.35,-488.85 371.6,-487.02"/>
</g>
<!-- Node25&#45;&gt;Node26 -->
<g id="edge37" class="edge">
<title>Node25&#45;&gt;Node26</title>
<path fill="none" stroke="midnightblue" d="M327.26,-495.4C282.79,-483.84 214.11,-466 173.75,-455.51"/>
<polygon fill="midnightblue" stroke="midnightblue" points="326.63,-498.85 337.19,-497.98 328.39,-492.07 326.63,-498.85"/>
</g>
<!-- Node27 -->
<g id="node27" class="node">
<title>Node27</title>
<g id="a_node27"><a xlink:href="http2__endpoint_8h.html" target="_top" xlink:title=" ">
<polygon fill="white" stroke="black" points="246.5,-375 246.5,-394 385.5,-394 385.5,-375 246.5,-375"/>
<text text-anchor="middle" x="316" y="-382" font-family="Helvetica,sans-Serif" font-size="10.00">src/http/http2_endpoint.h</text>
</a>
</g>
</g>
<!-- Node25&#45;&gt;Node27 -->
<g id="edge40" class="edge">
<title>Node25&#45;&gt;Node27</title>
<path fill="none" stroke="midnightblue" d="M365.2,-487.8C361.17,-473.32 354.83,-452.95 347,-436 339.84,-420.5 328.93,-403.87 322.14,-394.09"/>
<polygon fill="midnightblue" stroke="midnightblue" points="361.84,-488.81 367.81,-497.56 368.61,-487 361.84,-488.81"/>
</g>
<!-- Node28 -->
<g id="node28" class="node">
<title>Node28</title>
<g id="a_node28"><a xlink:href="forwarder_8h.html" target="_top" xlink:title=" ">
<polygon fill="white" stroke="black" points="432,-436.5 432,-455.5 566,-455.5 566,-436.5 432,-436.5"/>
<text text-anchor="middle" x="499" y="-443.5" font-family="Helvetica,sans-Serif" font-size="10.00">src/node/rpc/forwarder.h</text>
</a>
</g>
</g>
<!-- Node25&#45;&gt;Node28 -->
<g id="edge43" class="edge">
<title>Node25&#45;&gt;Node28</title>
<path fill="none" stroke="midnightblue" d="M397.81,-493.67C422.84,-482.13 458.92,-465.49 480.55,-455.51"/>
<polygon fill="midnightblue" stroke="midnightblue" points="396.1,-490.61 388.48,-497.98 399.03,-496.96 396.1,-490.61"/>
</g>
<!-- Node26&#45;&gt;Node27 -->
<g id="edge38" class="edge">
<title>Node26&#45;&gt;Node27</title>
<path fill="none" stroke="midnightblue" d="M175.61,-433.23C209.63,-421.67 260.72,-404.3 290.97,-394.01"/>
<polygon fill="midnightblue" stroke="midnightblue" points="174.41,-429.94 166.07,-436.48 176.67,-436.57 174.41,-429.94"/>
</g>
<!-- Node27&#45;&gt;Node10 -->
<g id="edge39" class="edge">
<title>Node27&#45;&gt;Node10</title>
<path fill="none" stroke="midnightblue" d="M317.46,-364.54C318.41,-352.17 319.61,-336.62 320.34,-327.13"/>
<polygon fill="midnightblue" stroke="midnightblue" points="313.95,-364.49 316.67,-374.73 320.93,-365.03 313.95,-364.49"/>
</g>
<!-- Node28&#45;&gt;Node11 -->
<g id="edge44" class="edge">
<title>Node28&#45;&gt;Node11</title>
<path fill="none" stroke="midnightblue" d="M482.43,-429.54C462.97,-412.22 429.01,-384.56 395,-369 330.29,-339.41 289.37,-383.26 239,-333 212.67,-306.73 220,-288.69 220,-251.5 220,-251.5 220,-251.5 220,-182.5 220,-123.95 639.61,-84.53 799.83,-71.62"/>
<polygon fill="midnightblue" stroke="midnightblue" points="480.31,-432.34 490.07,-436.47 485.02,-427.16 480.31,-432.34"/>
</g>
<!-- Node28&#45;&gt;Node19 -->
<g id="edge45" class="edge">
<title>Node28&#45;&gt;Node19</title>
<path fill="none" stroke="midnightblue" d="M576.06,-435.74C673.14,-424.07 838.24,-404.22 929.16,-393.29"/>
<polygon fill="midnightblue" stroke="midnightblue" points="575.53,-432.28 566.02,-436.94 576.36,-439.23 575.53,-432.28"/>
</g>
<!-- Node29&#45;&gt;Node4 -->
<g id="edge47" class="edge">
<title>Node29&#45;&gt;Node4</title>
<path fill="none" stroke="midnightblue" d="M558.47,-555.85C584.3,-546.18 620.47,-532.65 647.53,-522.52"/>
<polygon fill="midnightblue" stroke="midnightblue" points="556.92,-552.69 548.78,-559.48 559.37,-559.25 556.92,-552.69"/>
</g>
<!-- Node29&#45;&gt;Node25 -->
<g id="edge49" class="edge">
<title>Node29&#45;&gt;Node25</title>
<path fill="none" stroke="midnightblue" d="M493.97,-555.78C463.65,-544.22 418.93,-527.16 392.31,-517.01"/>
<polygon fill="midnightblue" stroke="midnightblue" points="493.06,-559.18 503.65,-559.48 495.55,-552.64 493.06,-559.18"/>
</g>
<!-- Node30 -->
<g id="node30" class="node">
<title>Node30</title>
<g id="a_node30"><a xlink:href="sig__auth_8cpp.html" target="_top" xlink:title=" ">
<polygon fill="white" stroke="black" points="461.5,-492.5 461.5,-522.5 616.5,-522.5 616.5,-492.5 461.5,-492.5"/>
<text text-anchor="start" x="469.5" y="-510.5" font-family="Helvetica,sans-Serif" font-size="10.00">src/endpoints/authentication</text>
<text text-anchor="middle" x="539" y="-499.5" font-family="Helvetica,sans-Serif" font-size="10.00">/sig_auth.cpp</text>
</a>
</g>
</g>
<!-- Node29&#45;&gt;Node30 -->
<g id="edge48" class="edge">
<title>Node29&#45;&gt;Node30</title>
<path fill="none" stroke="midnightblue" d="M530.04,-549.53C531.94,-540.81 534.17,-530.59 535.94,-522.52"/>
<polygon fill="midnightblue" stroke="midnightblue" points="526.58,-548.96 527.86,-559.48 533.42,-550.45 526.58,-548.96"/>
</g>
<!-- Node31&#45;&gt;Node13 -->
<g id="edge51" class="edge">
<title>Node31&#45;&gt;Node13</title>
<path fill="none" stroke="midnightblue" d="M750.69,-549.51C766.72,-501.54 801.42,-372.02 737,-302 719.89,-283.41 656.81,-268.67 610.35,-260.03"/>
<polygon fill="midnightblue" stroke="midnightblue" points="747.31,-548.57 747.34,-559.16 753.92,-550.86 747.31,-548.57"/>
</g>
<!-- Node32&#45;&gt;Node3 -->
<g id="edge54" class="edge">
<title>Node32&#45;&gt;Node3</title>
<path fill="none" stroke="midnightblue" d="M348.54,-667.37C371.39,-657.26 402.81,-643.35 422.76,-634.52"/>
<polygon fill="midnightblue" stroke="midnightblue" points="347.06,-664.2 339.33,-671.44 349.89,-670.6 347.06,-664.2"/>
</g>
<!-- Node32&#45;&gt;Node26 -->
<g id="edge53" class="edge">
<title>Node32&#45;&gt;Node26</title>
<path fill="none" stroke="midnightblue" d="M307.24,-663.26C282.17,-630.38 224.68,-555.07 176,-492 166.2,-479.31 154.79,-464.66 147.73,-455.61"/>
<polygon fill="midnightblue" stroke="midnightblue" points="304.57,-665.53 313.42,-671.36 310.14,-661.29 304.57,-665.53"/>
</g>
<!-- Node33&#45;&gt;Node10 -->
<g id="edge57" class="edge">
<title>Node33&#45;&gt;Node10</title>
<path fill="none" stroke="midnightblue" d="M67,-661.25C67,-639.36 67,-602.05 67,-570 67,-570 67,-570 67,-445 67,-363.59 172.84,-334.57 247.87,-324.23"/>
<polygon fill="midnightblue" stroke="midnightblue" points="63.5,-661.44 67,-671.44 70.5,-661.44 63.5,-661.44"/>
</g>
</g>
</svg>
