<?xml version="1.0" encoding="UTF-8" standalone="no"?>
<!DOCTYPE svg PUBLIC "-//W3C//DTD SVG 1.1//EN"
 "http://www.w3.org/Graphics/SVG/1.1/DTD/svg11.dtd">
<!-- Generated by graphviz version 2.43.0 (0)
 -->
<!-- Title: src/host/json_schema.h Pages: 1 -->
<svg width="1020pt" height="95pt"
 viewBox="0.00 0.00 1020.00 95.00" xmlns="http://www.w3.org/2000/svg" xmlns:xlink="http://www.w3.org/1999/xlink">
<g id="graph0" class="graph" transform="scale(1 1) rotate(0) translate(4 91)">
<title>src/host/json_schema.h</title>
<polygon fill="white" stroke="transparent" points="-4,4 -4,-91 1016,-91 1016,4 -4,4"/>
<!-- Node1 -->
<g id="node1" class="node">
<title>Node1</title>
<g id="a_node1"><a xlink:title=" ">
<polygon fill="#bfbfbf" stroke="black" points="350.5,-67.5 350.5,-86.5 481.5,-86.5 481.5,-67.5 350.5,-67.5"/>
<text text-anchor="middle" x="416" y="-74.5" font-family="Helvetica,sans-Serif" font-size="10.00">src/host/json_schema.h</text>
</a>
</g>
</g>
<!-- Node2 -->
<g id="node2" class="node">
<title>Node2</title>
<g id="a_node2"><a xlink:title=" ">
<polygon fill="white" stroke="#bfbfbf" points="0,-6 0,-25 110,-25 110,-6 0,-6"/>
<text text-anchor="middle" x="55" y="-13" font-family="Helvetica,sans-Serif" font-size="10.00">nlohmann/json.hpp</text>
</a>
</g>
</g>
<!-- Node1&#45;&gt;Node2 -->
<g id="edge1" class="edge">
<title>Node1&#45;&gt;Node2</title>
<path fill="none" stroke="midnightblue" d="M350.59,-67.48C290.26,-59.29 198.3,-45.97 119,-31 113.05,-29.88 106.81,-28.59 100.65,-27.27"/>
<polygon fill="midnightblue" stroke="midnightblue" points="100.97,-23.75 90.45,-25.01 99.46,-30.59 100.97,-23.75"/>
</g>
<!-- Node3 -->
<g id="node3" class="node">
<title>Node3</title>
<g id="a_node3"><a xlink:title=" ">
<polygon fill="white" stroke="#bfbfbf" points="128,-6 128,-25 184,-25 184,-6 128,-6"/>
<text text-anchor="middle" x="156" y="-13" font-family="Helvetica,sans-Serif" font-size="10.00">optional</text>
</a>
</g>
</g>
<!-- Node1&#45;&gt;Node3 -->
<g id="edge2" class="edge">
<title>Node1&#45;&gt;Node3</title>
<path fill="none" stroke="midnightblue" d="M359.9,-67.47C314.4,-59.88 248.88,-47.45 193,-31 190.57,-30.28 188.07,-29.47 185.58,-28.61"/>
<polygon fill="midnightblue" stroke="midnightblue" points="186.73,-25.31 176.13,-25.12 184.3,-31.87 186.73,-25.31"/>
</g>
<!-- Node4 -->
<g id="node4" class="node">
<title>Node4</title>
<g id="a_node4"><a xlink:title=" ">
<polygon fill="white" stroke="#bfbfbf" points="202,-6 202,-25 246,-25 246,-6 202,-6"/>
<text text-anchor="middle" x="224" y="-13" font-family="Helvetica,sans-Serif" font-size="10.00">string</text>
</a>
</g>
</g>
<!-- Node1&#45;&gt;Node4 -->
<g id="edge3" class="edge">
<title>Node1&#45;&gt;Node4</title>
<path fill="none" stroke="midnightblue" d="M378.68,-67.43C345.69,-59.41 296.5,-46.39 255,-31 253.57,-30.47 252.12,-29.9 250.66,-29.31"/>
<polygon fill="midnightblue" stroke="midnightblue" points="251.73,-25.95 241.16,-25.14 248.92,-32.36 251.73,-25.95"/>
</g>
<!-- Node5 -->
<g id="node5" class="node">
<title>Node5</title>
<g id="a_node5"><a xlink:title=" ">
<polygon fill="white" stroke="#bfbfbf" points="264,-0.5 264,-30.5 416,-30.5 416,-0.5 264,-0.5"/>
<text text-anchor="start" x="272" y="-18.5" font-family="Helvetica,sans-Serif" font-size="10.00">valijson/adapters/nlohmann</text>
<text text-anchor="middle" x="340" y="-7.5" font-family="Helvetica,sans-Serif" font-size="10.00">_json_adapter.hpp</text>
</a>
</g>
</g>
<!-- Node1&#45;&gt;Node5 -->
<g id="edge4" class="edge">
<title>Node1&#45;&gt;Node5</title>
<path fill="none" stroke="midnightblue" d="M405.11,-67.48C394.91,-59.49 379.28,-47.25 365.89,-36.77"/>
<polygon fill="midnightblue" stroke="midnightblue" points="367.94,-33.93 357.91,-30.52 363.63,-39.44 367.94,-33.93"/>
</g>
<!-- Node6 -->
<g id="node6" class="node">
<title>Node6</title>
<g id="a_node6"><a xlink:title=" ">
<polygon fill="white" stroke="#bfbfbf" points="434.5,-6 434.5,-25 551.5,-25 551.5,-6 434.5,-6"/>
<text text-anchor="middle" x="493" y="-13" font-family="Helvetica,sans-Serif" font-size="10.00">valijson/schema.hpp</text>
</a>
</g>
</g>
<!-- Node1&#45;&gt;Node6 -->
<g id="edge5" class="edge">
<title>Node1&#45;&gt;Node6</title>
<path fill="none" stroke="midnightblue" d="M427.03,-67.48C439.27,-58.02 459.23,-42.6 473.99,-31.19"/>
<polygon fill="midnightblue" stroke="midnightblue" points="476.22,-33.89 481.99,-25.01 471.94,-28.35 476.22,-33.89"/>
</g>
<!-- Node7 -->
<g id="node7" class="node">
<title>Node7</title>
<g id="a_node7"><a xlink:title=" ">
<polygon fill="white" stroke="#bfbfbf" points="570,-6 570,-25 722,-25 722,-6 570,-6"/>
<text text-anchor="middle" x="646" y="-13" font-family="Helvetica,sans-Serif" font-size="10.00">valijson/schema_parser.hpp</text>
</a>
</g>
</g>
<!-- Node1&#45;&gt;Node7 -->
<g id="edge6" class="edge">
<title>Node1&#45;&gt;Node7</title>
<path fill="none" stroke="midnightblue" d="M448.95,-67.48C489.6,-56.96 558.79,-39.06 603.42,-27.51"/>
<polygon fill="midnightblue" stroke="midnightblue" points="604.3,-30.9 613.11,-25.01 602.55,-24.13 604.3,-30.9"/>
</g>
<!-- Node8 -->
<g id="node8" class="node">
<title>Node8</title>
<g id="a_node8"><a xlink:title=" ">
<polygon fill="white" stroke="#bfbfbf" points="740.5,-0.5 740.5,-30.5 871.5,-30.5 871.5,-0.5 740.5,-0.5"/>
<text text-anchor="start" x="748.5" y="-18.5" font-family="Helvetica,sans-Serif" font-size="10.00">valijson/utils/nlohmann</text>
<text text-anchor="middle" x="806" y="-7.5" font-family="Helvetica,sans-Serif" font-size="10.00">_json_utils.hpp</text>
</a>
</g>
</g>
<!-- Node1&#45;&gt;Node8 -->
<g id="edge7" class="edge">
<title>Node1&#45;&gt;Node8</title>
<path fill="none" stroke="midnightblue" d="M481.6,-67.58C543.18,-59.46 638.1,-46.4 730.14,-31.1"/>
<polygon fill="midnightblue" stroke="midnightblue" points="730.9,-34.52 740.18,-29.41 729.74,-27.61 730.9,-34.52"/>
</g>
<!-- Node9 -->
<g id="node9" class="node">
<title>Node9</title>
<g id="a_node9"><a xlink:title=" ">
<polygon fill="white" stroke="#bfbfbf" points="890,-6 890,-25 1012,-25 1012,-6 890,-6"/>
<text text-anchor="middle" x="951" y="-13" font-family="Helvetica,sans-Serif" font-size="10.00">valijson/validator.hpp</text>
</a>
</g>
</g>
<!-- Node1&#45;&gt;Node9 -->
<g id="edge8" class="edge">
<title>Node1&#45;&gt;Node9</title>
<path fill="none" stroke="midnightblue" d="M481.73,-71.88C572.06,-65.71 739.46,-52.44 881,-31 888.26,-29.9 895.89,-28.54 903.35,-27.09"/>
<polygon fill="midnightblue" stroke="midnightblue" points="904.24,-30.48 913.35,-25.08 902.86,-23.62 904.24,-30.48"/>
</g>
</g>
</svg>
