<?xml version="1.0" encoding="UTF-8" standalone="no"?>
<!DOCTYPE svg PUBLIC "-//W3C//DTD SVG 1.1//EN"
 "http://www.w3.org/Graphics/SVG/1.1/DTD/svg11.dtd">
<!-- Generated by graphviz version 2.43.0 (0)
 -->
<!-- Title: src/consensus/aft/impl/state.h Pages: 1 -->
<svg width="272pt" height="319pt"
 viewBox="0.00 0.00 271.50 319.00" xmlns="http://www.w3.org/2000/svg" xmlns:xlink="http://www.w3.org/1999/xlink">
<g id="graph0" class="graph" transform="scale(1 1) rotate(0) translate(4 315)">
<title>src/consensus/aft/impl/state.h</title>
<polygon fill="white" stroke="transparent" points="-4,4 -4,-315 267.5,-315 267.5,4 -4,4"/>
<!-- Node1 -->
<g id="node1" class="node">
<title>Node1</title>
<g id="a_node1"><a xlink:title=" ">
<polygon fill="#bfbfbf" stroke="black" points="72,-280.5 72,-310.5 197,-310.5 197,-280.5 72,-280.5"/>
<text text-anchor="start" x="80" y="-298.5" font-family="Helvetica,sans-Serif" font-size="10.00">src/consensus/aft/impl</text>
<text text-anchor="middle" x="134.5" y="-287.5" font-family="Helvetica,sans-Serif" font-size="10.00">/state.h</text>
</a>
</g>
</g>
<!-- Node2 -->
<g id="node2" class="node">
<title>Node2</title>
<g id="a_node2"><a xlink:href="raft_8h.html" target="_top" xlink:title=" ">
<polygon fill="white" stroke="black" points="0,-224.5 0,-243.5 129,-243.5 129,-224.5 0,-224.5"/>
<text text-anchor="middle" x="64.5" y="-231.5" font-family="Helvetica,sans-Serif" font-size="10.00">src/consensus/aft/raft.h</text>
</a>
</g>
</g>
<!-- Node1&#45;&gt;Node2 -->
<g id="edge1" class="edge">
<title>Node1&#45;&gt;Node2</title>
<path fill="none" stroke="midnightblue" d="M110.26,-273.89C98.08,-263.54 83.98,-251.56 74.69,-243.66"/>
<polygon fill="midnightblue" stroke="midnightblue" points="108.02,-276.59 117.91,-280.4 112.56,-271.26 108.02,-276.59"/>
</g>
<!-- Node7 -->
<g id="node7" class="node">
<title>Node7</title>
<g id="a_node7"><a xlink:href="resharing_8h.html" target="_top" xlink:title=" ">
<polygon fill="white" stroke="black" points="147.5,-224.5 147.5,-243.5 263.5,-243.5 263.5,-224.5 147.5,-224.5"/>
<text text-anchor="middle" x="205.5" y="-231.5" font-family="Helvetica,sans-Serif" font-size="10.00">src/node/resharing.h</text>
</a>
</g>
</g>
<!-- Node1&#45;&gt;Node7 -->
<g id="edge7" class="edge">
<title>Node1&#45;&gt;Node7</title>
<path fill="none" stroke="midnightblue" d="M159.09,-273.89C171.44,-263.54 185.74,-251.56 195.17,-243.66"/>
<polygon fill="midnightblue" stroke="midnightblue" points="156.74,-271.29 151.33,-280.4 161.24,-276.66 156.74,-271.29"/>
</g>
<!-- Node3 -->
<g id="node3" class="node">
<title>Node3</title>
<g id="a_node3"><a xlink:href="node__state_8h.html" target="_top" xlink:title=" ">
<polygon fill="white" stroke="black" points="72.5,-168.5 72.5,-187.5 196.5,-187.5 196.5,-168.5 72.5,-168.5"/>
<text text-anchor="middle" x="134.5" y="-175.5" font-family="Helvetica,sans-Serif" font-size="10.00">src/node/node_state.h</text>
</a>
</g>
</g>
<!-- Node2&#45;&gt;Node3 -->
<g id="edge2" class="edge">
<title>Node2&#45;&gt;Node3</title>
<path fill="none" stroke="midnightblue" d="M83.81,-218.1C96.41,-208.38 112.43,-196.03 123.05,-187.83"/>
<polygon fill="midnightblue" stroke="midnightblue" points="81.53,-215.44 75.75,-224.32 85.8,-220.99 81.53,-215.44"/>
</g>
<!-- Node4 -->
<g id="node4" class="node">
<title>Node4</title>
<g id="a_node4"><a xlink:href="enclave_2enclave_8h.html" target="_top" xlink:title=" ">
<polygon fill="white" stroke="black" points="73.5,-56.5 73.5,-75.5 195.5,-75.5 195.5,-56.5 73.5,-56.5"/>
<text text-anchor="middle" x="134.5" y="-63.5" font-family="Helvetica,sans-Serif" font-size="10.00">src/enclave/enclave.h</text>
</a>
</g>
</g>
<!-- Node3&#45;&gt;Node4 -->
<g id="edge3" class="edge">
<title>Node3&#45;&gt;Node4</title>
<path fill="none" stroke="midnightblue" d="M119.52,-160.47C113.28,-152.48 106.73,-142.38 103.5,-132 96.89,-110.75 114.46,-87.63 125.78,-75.51"/>
<polygon fill="midnightblue" stroke="midnightblue" points="116.92,-162.81 126.02,-168.23 122.29,-158.32 116.92,-162.81"/>
</g>
<!-- Node6 -->
<g id="node6" class="node">
<title>Node6</title>
<g id="a_node6"><a xlink:href="gov__effects_8h.html" target="_top" xlink:title=" ">
<polygon fill="white" stroke="black" points="112.5,-112.5 112.5,-131.5 256.5,-131.5 256.5,-112.5 112.5,-112.5"/>
<text text-anchor="middle" x="184.5" y="-119.5" font-family="Helvetica,sans-Serif" font-size="10.00">src/node/rpc/gov_effects.h</text>
</a>
</g>
</g>
<!-- Node3&#45;&gt;Node6 -->
<g id="edge5" class="edge">
<title>Node3&#45;&gt;Node6</title>
<path fill="none" stroke="midnightblue" d="M149.58,-160.72C158.39,-151.2 169.17,-139.56 176.4,-131.75"/>
<polygon fill="midnightblue" stroke="midnightblue" points="146.98,-158.37 142.76,-168.08 152.12,-163.12 146.98,-158.37"/>
</g>
<!-- Node5 -->
<g id="node5" class="node">
<title>Node5</title>
<g id="a_node5"><a xlink:href="enclave_2main_8cpp.html" target="_top" xlink:title=" ">
<polygon fill="white" stroke="black" points="74.5,-0.5 74.5,-19.5 194.5,-19.5 194.5,-0.5 74.5,-0.5"/>
<text text-anchor="middle" x="134.5" y="-7.5" font-family="Helvetica,sans-Serif" font-size="10.00">src/enclave/main.cpp</text>
</a>
</g>
</g>
<!-- Node4&#45;&gt;Node5 -->
<g id="edge4" class="edge">
<title>Node4&#45;&gt;Node5</title>
<path fill="none" stroke="midnightblue" d="M134.5,-45.8C134.5,-36.91 134.5,-26.78 134.5,-19.75"/>
<polygon fill="midnightblue" stroke="midnightblue" points="131,-46.08 134.5,-56.08 138,-46.08 131,-46.08"/>
</g>
<!-- Node6&#45;&gt;Node4 -->
<g id="edge6" class="edge">
<title>Node6&#45;&gt;Node4</title>
<path fill="none" stroke="midnightblue" d="M169.42,-104.72C160.61,-95.2 149.83,-83.56 142.6,-75.75"/>
<polygon fill="midnightblue" stroke="midnightblue" points="166.88,-107.12 176.24,-112.08 172.02,-102.37 166.88,-107.12"/>
</g>
<!-- Node7&#45;&gt;Node3 -->
<g id="edge8" class="edge">
<title>Node7&#45;&gt;Node3</title>
<path fill="none" stroke="midnightblue" d="M185.91,-218.1C173.13,-208.38 156.89,-196.03 146.11,-187.83"/>
<polygon fill="midnightblue" stroke="midnightblue" points="184.01,-221.06 194.09,-224.32 188.25,-215.48 184.01,-221.06"/>
</g>
</g>
</svg>
