<?xml version="1.0" encoding="UTF-8" standalone="no"?>
<!DOCTYPE svg PUBLIC "-//W3C//DTD SVG 1.1//EN"
 "http://www.w3.org/Graphics/SVG/1.1/DTD/svg11.dtd">
<!-- Generated by graphviz version 2.43.0 (0)
 -->
<!-- Title: src/apps/js_v8/tmpl/string_map.cpp Pages: 1 -->
<svg width="844pt" height="207pt"
 viewBox="0.00 0.00 843.50 207.00" xmlns="http://www.w3.org/2000/svg" xmlns:xlink="http://www.w3.org/1999/xlink">
<g id="graph0" class="graph" transform="scale(1 1) rotate(0) translate(4 203)">
<title>src/apps/js_v8/tmpl/string_map.cpp</title>
<polygon fill="white" stroke="transparent" points="-4,4 -4,-203 839.5,-203 839.5,4 -4,4"/>
<!-- Node1 -->
<g id="node1" class="node">
<title>Node1</title>
<g id="a_node1"><a xlink:title=" ">
<polygon fill="#bfbfbf" stroke="black" points="540,-168.5 540,-198.5 651,-198.5 651,-168.5 540,-168.5"/>
<text text-anchor="start" x="548" y="-186.5" font-family="Helvetica,sans-Serif" font-size="10.00">src/apps/js_v8/tmpl</text>
<text text-anchor="middle" x="595.5" y="-175.5" font-family="Helvetica,sans-Serif" font-size="10.00">/string_map.cpp</text>
</a>
</g>
</g>
<!-- Node2 -->
<g id="node2" class="node">
<title>Node2</title>
<g id="a_node2"><a xlink:href="string__map_8h.html" target="_top" xlink:title=" ">
<polygon fill="white" stroke="black" points="522.5,-56.5 522.5,-75.5 602.5,-75.5 602.5,-56.5 522.5,-56.5"/>
<text text-anchor="middle" x="562.5" y="-63.5" font-family="Helvetica,sans-Serif" font-size="10.00">string_map.h</text>
</a>
</g>
</g>
<!-- Node1&#45;&gt;Node2 -->
<g id="edge1" class="edge">
<title>Node1&#45;&gt;Node2</title>
<path fill="none" stroke="midnightblue" d="M591.45,-168.34C585.51,-147.53 574.4,-108.66 567.81,-85.58"/>
<polygon fill="midnightblue" stroke="midnightblue" points="571.09,-84.32 564.98,-75.67 564.36,-86.25 571.09,-84.32"/>
</g>
<!-- Node6 -->
<g id="node6" class="node">
<title>Node6</title>
<g id="a_node6"><a xlink:href="template_8h.html" target="_top" xlink:title=" ">
<polygon fill="white" stroke="black" points="593.5,-112.5 593.5,-131.5 663.5,-131.5 663.5,-112.5 593.5,-112.5"/>
<text text-anchor="middle" x="628.5" y="-119.5" font-family="Helvetica,sans-Serif" font-size="10.00">template.h</text>
</a>
</g>
</g>
<!-- Node1&#45;&gt;Node6 -->
<g id="edge5" class="edge">
<title>Node1&#45;&gt;Node6</title>
<path fill="none" stroke="midnightblue" d="M603.32,-168.4C607.97,-160.02 613.9,-149.33 618.84,-140.42"/>
<polygon fill="midnightblue" stroke="midnightblue" points="621.91,-142.1 623.7,-131.66 615.79,-138.71 621.91,-142.1"/>
</g>
<!-- Node3 -->
<g id="node3" class="node">
<title>Node3</title>
<g id="a_node3"><a xlink:title=" ">
<polygon fill="white" stroke="#bfbfbf" points="493.5,-0.5 493.5,-19.5 531.5,-19.5 531.5,-0.5 493.5,-0.5"/>
<text text-anchor="middle" x="512.5" y="-7.5" font-family="Helvetica,sans-Serif" font-size="10.00">map</text>
</a>
</g>
</g>
<!-- Node2&#45;&gt;Node3 -->
<g id="edge2" class="edge">
<title>Node2&#45;&gt;Node3</title>
<path fill="none" stroke="midnightblue" d="M554.24,-56.08C547.04,-48.3 536.39,-36.8 527.65,-27.37"/>
<polygon fill="midnightblue" stroke="midnightblue" points="529.97,-24.71 520.6,-19.75 524.83,-29.47 529.97,-24.71"/>
</g>
<!-- Node4 -->
<g id="node4" class="node">
<title>Node4</title>
<g id="a_node4"><a xlink:title=" ">
<polygon fill="white" stroke="#bfbfbf" points="549.5,-0.5 549.5,-19.5 593.5,-19.5 593.5,-0.5 549.5,-0.5"/>
<text text-anchor="middle" x="571.5" y="-7.5" font-family="Helvetica,sans-Serif" font-size="10.00">string</text>
</a>
</g>
</g>
<!-- Node2&#45;&gt;Node4 -->
<g id="edge3" class="edge">
<title>Node2&#45;&gt;Node4</title>
<path fill="none" stroke="midnightblue" d="M563.99,-56.08C565.18,-48.93 566.89,-38.64 568.38,-29.69"/>
<polygon fill="midnightblue" stroke="midnightblue" points="571.85,-30.19 570.04,-19.75 564.95,-29.04 571.85,-30.19"/>
</g>
<!-- Node5 -->
<g id="node5" class="node">
<title>Node5</title>
<g id="a_node5"><a xlink:title=" ">
<polygon fill="white" stroke="#bfbfbf" points="611.5,-0.5 611.5,-19.5 649.5,-19.5 649.5,-0.5 611.5,-0.5"/>
<text text-anchor="middle" x="630.5" y="-7.5" font-family="Helvetica,sans-Serif" font-size="10.00">v8.h</text>
</a>
</g>
</g>
<!-- Node2&#45;&gt;Node5 -->
<g id="edge4" class="edge">
<title>Node2&#45;&gt;Node5</title>
<path fill="none" stroke="midnightblue" d="M573.43,-56.32C583.67,-48.18 599.22,-35.84 611.5,-26.09"/>
<polygon fill="midnightblue" stroke="midnightblue" points="613.72,-28.79 619.38,-19.83 609.37,-23.31 613.72,-28.79"/>
</g>
<!-- Node6&#45;&gt;Node5 -->
<g id="edge20" class="edge">
<title>Node6&#45;&gt;Node5</title>
<path fill="none" stroke="midnightblue" d="M628.66,-112.37C628.98,-94.62 629.72,-53.67 630.16,-29.6"/>
<polygon fill="midnightblue" stroke="midnightblue" points="633.66,-29.65 630.34,-19.59 626.66,-29.53 633.66,-29.65"/>
</g>
<!-- Node7 -->
<g id="node7" class="node">
<title>Node7</title>
<g id="a_node7"><a xlink:href="v8__runner_8h.html" target="_top" xlink:title=" ">
<polygon fill="white" stroke="black" points="326.5,-56.5 326.5,-75.5 400.5,-75.5 400.5,-56.5 326.5,-56.5"/>
<text text-anchor="middle" x="363.5" y="-63.5" font-family="Helvetica,sans-Serif" font-size="10.00">v8_runner.h</text>
</a>
</g>
</g>
<!-- Node6&#45;&gt;Node7 -->
<g id="edge6" class="edge">
<title>Node6&#45;&gt;Node7</title>
<path fill="none" stroke="midnightblue" d="M593.31,-113.83C546.32,-104.25 462.94,-87.26 410.58,-76.59"/>
<polygon fill="midnightblue" stroke="midnightblue" points="411.04,-73.12 400.54,-74.55 409.64,-79.97 411.04,-73.12"/>
</g>
<!-- Node14 -->
<g id="node14" class="node">
<title>Node14</title>
<g id="a_node14"><a xlink:href="v8__util_8h.html" target="_top" xlink:title=" ">
<polygon fill="white" stroke="black" points="659,-56.5 659,-75.5 718,-75.5 718,-56.5 659,-56.5"/>
<text text-anchor="middle" x="688.5" y="-63.5" font-family="Helvetica,sans-Serif" font-size="10.00">v8_util.h</text>
</a>
</g>
</g>
<!-- Node6&#45;&gt;Node14 -->
<g id="edge15" class="edge">
<title>Node6&#45;&gt;Node14</title>
<path fill="none" stroke="midnightblue" d="M638.14,-112.32C647.01,-104.34 660.37,-92.31 671.11,-82.65"/>
<polygon fill="midnightblue" stroke="midnightblue" points="673.59,-85.13 678.68,-75.83 668.91,-79.92 673.59,-85.13"/>
</g>
<!-- Node7&#45;&gt;Node4 -->
<g id="edge11" class="edge">
<title>Node7&#45;&gt;Node4</title>
<path fill="none" stroke="midnightblue" d="M398.52,-56.47C432.27,-48.16 485,-34.97 539.37,-20.25"/>
<polygon fill="midnightblue" stroke="midnightblue" points="540.44,-23.58 549.17,-17.58 538.61,-16.83 540.44,-23.58"/>
</g>
<!-- Node7&#45;&gt;Node5 -->
<g id="edge13" class="edge">
<title>Node7&#45;&gt;Node5</title>
<path fill="none" stroke="midnightblue" d="M400.66,-59.48C445.99,-52.42 525.08,-39.07 601.52,-19.99"/>
<polygon fill="midnightblue" stroke="midnightblue" points="602.48,-23.36 611.31,-17.52 600.76,-16.58 602.48,-23.36"/>
</g>
<!-- Node8 -->
<g id="node8" class="node">
<title>Node8</title>
<g id="a_node8"><a xlink:title=" ">
<polygon fill="white" stroke="#bfbfbf" points="176,-0.5 176,-19.5 241,-19.5 241,-0.5 176,-0.5"/>
<text text-anchor="middle" x="208.5" y="-7.5" font-family="Helvetica,sans-Serif" font-size="10.00">functional</text>
</a>
</g>
</g>
<!-- Node7&#45;&gt;Node8 -->
<g id="edge7" class="edge">
<title>Node7&#45;&gt;Node8</title>
<path fill="none" stroke="midnightblue" d="M338.94,-56.44C312.98,-47.4 271.83,-33.06 242.7,-22.92"/>
<polygon fill="midnightblue" stroke="midnightblue" points="243.54,-19.5 232.95,-19.52 241.24,-26.11 243.54,-19.5"/>
</g>
<!-- Node9 -->
<g id="node9" class="node">
<title>Node9</title>
<g id="a_node9"><a xlink:title=" ">
<polygon fill="white" stroke="#bfbfbf" points="259.5,-0.5 259.5,-19.5 317.5,-19.5 317.5,-0.5 259.5,-0.5"/>
<text text-anchor="middle" x="288.5" y="-7.5" font-family="Helvetica,sans-Serif" font-size="10.00">memory</text>
</a>
</g>
</g>
<!-- Node7&#45;&gt;Node9 -->
<g id="edge8" class="edge">
<title>Node7&#45;&gt;Node9</title>
<path fill="none" stroke="midnightblue" d="M351.45,-56.32C340.04,-48.11 322.67,-35.6 309.07,-25.81"/>
<polygon fill="midnightblue" stroke="midnightblue" points="310.93,-22.84 300.77,-19.83 306.84,-28.52 310.93,-22.84"/>
</g>
<!-- Node10 -->
<g id="node10" class="node">
<title>Node10</title>
<g id="a_node10"><a xlink:title=" ">
<polygon fill="white" stroke="#bfbfbf" points="335.5,-0.5 335.5,-19.5 391.5,-19.5 391.5,-0.5 335.5,-0.5"/>
<text text-anchor="middle" x="363.5" y="-7.5" font-family="Helvetica,sans-Serif" font-size="10.00">optional</text>
</a>
</g>
</g>
<!-- Node7&#45;&gt;Node10 -->
<g id="edge9" class="edge">
<title>Node7&#45;&gt;Node10</title>
<path fill="none" stroke="midnightblue" d="M363.5,-56.08C363.5,-49.01 363.5,-38.86 363.5,-29.99"/>
<polygon fill="midnightblue" stroke="midnightblue" points="367,-29.75 363.5,-19.75 360,-29.75 367,-29.75"/>
</g>
<!-- Node11 -->
<g id="node11" class="node">
<title>Node11</title>
<g id="a_node11"><a xlink:title=" ">
<polygon fill="white" stroke="#bfbfbf" points="410,-0.5 410,-19.5 475,-19.5 475,-0.5 410,-0.5"/>
<text text-anchor="middle" x="442.5" y="-7.5" font-family="Helvetica,sans-Serif" font-size="10.00">stdexcept</text>
</a>
</g>
</g>
<!-- Node7&#45;&gt;Node11 -->
<g id="edge10" class="edge">
<title>Node7&#45;&gt;Node11</title>
<path fill="none" stroke="midnightblue" d="M376.19,-56.32C388.4,-47.98 407.08,-35.21 421.5,-25.35"/>
<polygon fill="midnightblue" stroke="midnightblue" points="423.56,-28.19 429.84,-19.65 419.61,-22.41 423.56,-28.19"/>
</g>
<!-- Node12 -->
<g id="node12" class="node">
<title>Node12</title>
<g id="a_node12"><a xlink:title=" ">
<polygon fill="white" stroke="#bfbfbf" points="0,-0.5 0,-19.5 93,-19.5 93,-0.5 0,-0.5"/>
<text text-anchor="middle" x="46.5" y="-7.5" font-family="Helvetica,sans-Serif" font-size="10.00">unordered_map</text>
</a>
</g>
</g>
<!-- Node7&#45;&gt;Node12 -->
<g id="edge12" class="edge">
<title>Node7&#45;&gt;Node12</title>
<path fill="none" stroke="midnightblue" d="M326.2,-58.65C271.13,-49.27 167.63,-31.63 103.15,-20.65"/>
<polygon fill="midnightblue" stroke="midnightblue" points="103.59,-17.18 93.15,-18.95 102.42,-24.08 103.59,-17.18"/>
</g>
<!-- Node13 -->
<g id="node13" class="node">
<title>Node13</title>
<g id="a_node13"><a xlink:title=" ">
<polygon fill="white" stroke="#bfbfbf" points="111,-0.5 111,-19.5 158,-19.5 158,-0.5 111,-0.5"/>
<text text-anchor="middle" x="134.5" y="-7.5" font-family="Helvetica,sans-Serif" font-size="10.00">vector</text>
</a>
</g>
</g>
<!-- Node7&#45;&gt;Node13 -->
<g id="edge14" class="edge">
<title>Node7&#45;&gt;Node13</title>
<path fill="none" stroke="midnightblue" d="M326.33,-57.09C288.64,-48.93 228.42,-35.56 167.94,-20.28"/>
<polygon fill="midnightblue" stroke="midnightblue" points="168.78,-16.89 158.23,-17.82 167.06,-23.67 168.78,-16.89"/>
</g>
<!-- Node14&#45;&gt;Node4 -->
<g id="edge18" class="edge">
<title>Node14&#45;&gt;Node4</title>
<path fill="none" stroke="midnightblue" d="M669.96,-56.44C650.88,-47.64 620.93,-33.81 599.06,-23.72"/>
<polygon fill="midnightblue" stroke="midnightblue" points="600.5,-20.53 589.95,-19.52 597.57,-26.88 600.5,-20.53"/>
</g>
<!-- Node14&#45;&gt;Node5 -->
<g id="edge19" class="edge">
<title>Node14&#45;&gt;Node5</title>
<path fill="none" stroke="midnightblue" d="M679.18,-56.32C670.61,-48.34 657.69,-36.31 647.31,-26.65"/>
<polygon fill="midnightblue" stroke="midnightblue" points="649.69,-24.09 639.99,-19.83 644.92,-29.21 649.69,-24.09"/>
</g>
<!-- Node15 -->
<g id="node15" class="node">
<title>Node15</title>
<g id="a_node15"><a xlink:title=" ">
<polygon fill="white" stroke="#bfbfbf" points="667.5,-0.5 667.5,-19.5 777.5,-19.5 777.5,-0.5 667.5,-0.5"/>
<text text-anchor="middle" x="722.5" y="-7.5" font-family="Helvetica,sans-Serif" font-size="10.00">nlohmann/json.hpp</text>
</a>
</g>
</g>
<!-- Node14&#45;&gt;Node15 -->
<g id="edge16" class="edge">
<title>Node14&#45;&gt;Node15</title>
<path fill="none" stroke="midnightblue" d="M694.11,-56.08C698.87,-48.53 705.82,-37.49 711.65,-28.23"/>
<polygon fill="midnightblue" stroke="midnightblue" points="714.62,-30.08 716.99,-19.75 708.7,-26.35 714.62,-30.08"/>
</g>
<!-- Node16 -->
<g id="node16" class="node">
<title>Node16</title>
<g id="a_node16"><a xlink:title=" ">
<polygon fill="white" stroke="#bfbfbf" points="795.5,-0.5 795.5,-19.5 835.5,-19.5 835.5,-0.5 795.5,-0.5"/>
<text text-anchor="middle" x="815.5" y="-7.5" font-family="Helvetica,sans-Serif" font-size="10.00">span</text>
</a>
</g>
</g>
<!-- Node14&#45;&gt;Node16 -->
<g id="edge17" class="edge">
<title>Node14&#45;&gt;Node16</title>
<path fill="none" stroke="midnightblue" d="M708.62,-56.44C729.52,-47.56 762.43,-33.56 786.22,-23.45"/>
<polygon fill="midnightblue" stroke="midnightblue" points="787.64,-26.65 795.47,-19.52 784.9,-20.21 787.64,-26.65"/>
</g>
</g>
</svg>
