<?xml version="1.0" encoding="UTF-8" standalone="no"?>
<!DOCTYPE svg PUBLIC "-//W3C//DTD SVG 1.1//EN"
 "http://www.w3.org/Graphics/SVG/1.1/DTD/svg11.dtd">
<!-- Generated by graphviz version 2.43.0 (0)
 -->
<!-- Title: ccf::KeyIdInfo Pages: 1 -->
<svg width="186pt" height="163pt"
 viewBox="0.00 0.00 185.50 163.00" xmlns="http://www.w3.org/2000/svg" xmlns:xlink="http://www.w3.org/1999/xlink">
<g id="graph0" class="graph" transform="scale(1 1) rotate(0) translate(4 159)">
<title>ccf::KeyIdInfo</title>
<polygon fill="white" stroke="transparent" points="-4,4 -4,-159 181.5,-159 181.5,4 -4,4"/>
<!-- Node1 -->
<g id="node1" class="node">
<title>Node1</title>
<g id="a_node1"><a xlink:title=" ">
<polygon fill="#bfbfbf" stroke="black" points="71,-0.5 71,-19.5 153,-19.5 153,-0.5 71,-0.5"/>
<text text-anchor="middle" x="112" y="-7.5" font-family="Helvetica,sans-Serif" font-size="10.00">ccf::KeyIdInfo</text>
</a>
</g>
</g>
<!-- Node2 -->
<g id="node2" class="node">
<title>Node2</title>
<g id="a_node2"><a xlink:title=" ">
<polygon fill="white" stroke="black" points="19.5,-67.5 19.5,-86.5 84.5,-86.5 84.5,-67.5 19.5,-67.5"/>
<text text-anchor="middle" x="52" y="-74.5" font-family="Helvetica,sans-Serif" font-size="10.00">std::string</text>
</a>
</g>
</g>
<!-- Node2&#45;&gt;Node1 -->
<g id="edge1" class="edge">
<title>Node2&#45;&gt;Node1</title>
<path fill="none" stroke="#9a32cd" stroke-dasharray="5,2" d="M67.17,-59.51C73.32,-52.83 80.5,-45.04 87,-38 92.72,-31.8 99.19,-24.82 104.11,-19.51"/>
<polygon fill="#9a32cd" stroke="#9a32cd" points="64.25,-57.51 60.06,-67.24 69.4,-62.25 64.25,-57.51"/>
<text text-anchor="middle" x="103.5" y="-41" font-family="Helvetica,sans-Serif" font-size="10.00"> issuer</text>
</g>
<!-- Node3 -->
<g id="node3" class="node">
<title>Node3</title>
<g id="a_node3"><a xlink:title=" ">
<polygon fill="white" stroke="black" points="0,-124.5 0,-154.5 104,-154.5 104,-124.5 0,-124.5"/>
<text text-anchor="start" x="8" y="-142.5" font-family="Helvetica,sans-Serif" font-size="10.00">std::basic_string&lt;</text>
<text text-anchor="middle" x="52" y="-131.5" font-family="Helvetica,sans-Serif" font-size="10.00"> Char &gt;</text>
</a>
</g>
</g>
<!-- Node3&#45;&gt;Node2 -->
<g id="edge2" class="edge">
<title>Node3&#45;&gt;Node2</title>
<path fill="none" stroke="midnightblue" d="M52,-114.35C52,-104.51 52,-93.78 52,-86.54"/>
<polygon fill="midnightblue" stroke="midnightblue" points="48.5,-114.47 52,-124.47 55.5,-114.47 48.5,-114.47"/>
</g>
<!-- Node4 -->
<g id="node4" class="node">
<title>Node4</title>
<g id="a_node4"><a xlink:href="classcrypto_1_1Pem.html" target="_top" xlink:title=" ">
<polygon fill="white" stroke="black" points="102.5,-67.5 102.5,-86.5 177.5,-86.5 177.5,-67.5 102.5,-67.5"/>
<text text-anchor="middle" x="140" y="-74.5" font-family="Helvetica,sans-Serif" font-size="10.00">crypto::Pem</text>
</a>
</g>
</g>
<!-- Node4&#45;&gt;Node1 -->
<g id="edge3" class="edge">
<title>Node4&#45;&gt;Node1</title>
<path fill="none" stroke="#9a32cd" stroke-dasharray="5,2" d="M132.16,-57.79C126.78,-45.31 119.89,-29.31 115.72,-19.63"/>
<polygon fill="#9a32cd" stroke="#9a32cd" points="129.05,-59.43 136.22,-67.23 135.48,-56.66 129.05,-59.43"/>
<text text-anchor="middle" x="138" y="-41" font-family="Helvetica,sans-Serif" font-size="10.00"> cert</text>
</g>
</g>
</svg>
