<?xml version="1.0" encoding="UTF-8" standalone="no"?>
<!DOCTYPE svg PUBLIC "-//W3C//DTD SVG 1.1//EN"
 "http://www.w3.org/Graphics/SVG/1.1/DTD/svg11.dtd">
<!-- Generated by graphviz version 2.43.0 (0)
 -->
<!-- Title: tpcc::OrderStatusOutput Pages: 1 -->
<svg width="851pt" height="245pt"
 viewBox="0.00 0.00 851.00 244.50" xmlns="http://www.w3.org/2000/svg" xmlns:xlink="http://www.w3.org/1999/xlink">
<g id="graph0" class="graph" transform="scale(1 1) rotate(0) translate(4 240.5)">
<title>tpcc::OrderStatusOutput</title>
<polygon fill="white" stroke="transparent" points="-4,4 -4,-240.5 847,-240.5 847,4 -4,4"/>
<!-- Node1 -->
<g id="node1" class="node">
<title>Node1</title>
<g id="a_node1"><a xlink:title=" ">
<polygon fill="#bfbfbf" stroke="black" points="709,-104 709,-123 843,-123 843,-104 709,-104"/>
<text text-anchor="middle" x="776" y="-111" font-family="Helvetica,sans-Serif" font-size="10.00">tpcc::OrderStatusOutput</text>
</a>
</g>
</g>
<!-- Node2 -->
<g id="node2" class="node">
<title>Node2</title>
<g id="a_node2"><a xlink:title=" ">
<polygon fill="white" stroke="black" points="464,-148 464,-189 625,-189 625,-148 464,-148"/>
<text text-anchor="start" x="472" y="-177" font-family="Helvetica,sans-Serif" font-size="10.00">std::vector&lt; tpcc::</text>
<text text-anchor="start" x="472" y="-166" font-family="Helvetica,sans-Serif" font-size="10.00">OrderStatusOutput::OrderLine</text>
<text text-anchor="middle" x="544.5" y="-155" font-family="Helvetica,sans-Serif" font-size="10.00">Subset &gt;</text>
</a>
</g>
</g>
<!-- Node2&#45;&gt;Node1 -->
<g id="edge1" class="edge">
<title>Node2&#45;&gt;Node1</title>
<path fill="none" stroke="#9a32cd" stroke-dasharray="5,2" d="M635.26,-146.99C669.83,-138.7 707.59,-129.65 735.13,-123.05"/>
<polygon fill="#9a32cd" stroke="#9a32cd" points="634.03,-143.68 625.12,-149.42 635.66,-150.49 634.03,-143.68"/>
<text text-anchor="middle" x="667" y="-146.5" font-family="Helvetica,sans-Serif" font-size="10.00"> lines</text>
</g>
<!-- Node3 -->
<g id="node3" class="node">
<title>Node3</title>
<g id="a_node3"><a xlink:href="structtpcc_1_1OrderStatusOutput_1_1OrderLineSubset.html" target="_top" xlink:title=" ">
<polygon fill="white" stroke="black" points="242,-157.5 242,-187.5 376,-187.5 376,-157.5 242,-157.5"/>
<text text-anchor="start" x="250" y="-175.5" font-family="Helvetica,sans-Serif" font-size="10.00">tpcc::OrderStatusOutput</text>
<text text-anchor="middle" x="309" y="-164.5" font-family="Helvetica,sans-Serif" font-size="10.00">::OrderLineSubset</text>
</a>
</g>
</g>
<!-- Node3&#45;&gt;Node2 -->
<g id="edge2" class="edge">
<title>Node3&#45;&gt;Node2</title>
<path fill="none" stroke="#9a32cd" stroke-dasharray="5,2" d="M386.37,-171.19C411.17,-170.77 438.75,-170.29 463.79,-169.87"/>
<polygon fill="#9a32cd" stroke="#9a32cd" points="386.23,-167.69 376.29,-171.36 386.35,-174.69 386.23,-167.69"/>
<text text-anchor="middle" x="420" y="-173.5" font-family="Helvetica,sans-Serif" font-size="10.00"> elements</text>
</g>
<!-- Node4 -->
<g id="node4" class="node">
<title>Node4</title>
<g id="a_node4"><a xlink:title=" ">
<polygon fill="white" stroke="black" points="0,-180.5 0,-210.5 151,-210.5 151,-180.5 0,-180.5"/>
<text text-anchor="start" x="8" y="-198.5" font-family="Helvetica,sans-Serif" font-size="10.00">std::array&lt; char, DATETIME</text>
<text text-anchor="middle" x="75.5" y="-187.5" font-family="Helvetica,sans-Serif" font-size="10.00">_SIZE+1 &gt;</text>
</a>
</g>
</g>
<!-- Node4&#45;&gt;Node1 -->
<g id="edge7" class="edge">
<title>Node4&#45;&gt;Node1</title>
<path fill="none" stroke="#9a32cd" stroke-dasharray="5,2" d="M161.24,-209.52C270.52,-224.56 465.49,-240.98 625,-198.5 681.4,-183.48 738.91,-142.02 763.12,-123.12"/>
<polygon fill="#9a32cd" stroke="#9a32cd" points="161.65,-206.05 151.26,-208.12 160.68,-212.98 161.65,-206.05"/>
<text text-anchor="middle" x="420" y="-228.5" font-family="Helvetica,sans-Serif" font-size="10.00"> o_entry_d</text>
</g>
<!-- Node4&#45;&gt;Node3 -->
<g id="edge3" class="edge">
<title>Node4&#45;&gt;Node3</title>
<path fill="none" stroke="#9a32cd" stroke-dasharray="5,2" d="M161.09,-187.1C187.7,-184.45 216.69,-181.57 241.82,-179.07"/>
<polygon fill="#9a32cd" stroke="#9a32cd" points="160.63,-183.62 151.02,-188.1 161.32,-190.59 160.63,-183.62"/>
<text text-anchor="middle" x="196.5" y="-188.5" font-family="Helvetica,sans-Serif" font-size="10.00"> delivery_d</text>
</g>
<!-- Node5 -->
<g id="node5" class="node">
<title>Node5</title>
<g id="a_node5"><a xlink:title=" ">
<polygon fill="white" stroke="black" points="470,-98.5 470,-128.5 619,-128.5 619,-98.5 470,-98.5"/>
<text text-anchor="start" x="478" y="-116.5" font-family="Helvetica,sans-Serif" font-size="10.00">std::array&lt; char, Customer</text>
<text text-anchor="middle" x="544.5" y="-105.5" font-family="Helvetica,sans-Serif" font-size="10.00">::MAX_FIRST+1 &gt;</text>
</a>
</g>
</g>
<!-- Node5&#45;&gt;Node1 -->
<g id="edge4" class="edge">
<title>Node5&#45;&gt;Node1</title>
<path fill="none" stroke="#9a32cd" stroke-dasharray="5,2" d="M629.35,-113.5C655.54,-113.5 684.04,-113.5 708.84,-113.5"/>
<polygon fill="#9a32cd" stroke="#9a32cd" points="629.06,-110 619.06,-113.5 629.06,-117 629.06,-110"/>
<text text-anchor="middle" x="667" y="-116.5" font-family="Helvetica,sans-Serif" font-size="10.00"> c_first</text>
</g>
<!-- Node6 -->
<g id="node6" class="node">
<title>Node6</title>
<g id="a_node6"><a xlink:title=" ">
<polygon fill="white" stroke="black" points="470,-49.5 470,-79.5 619,-79.5 619,-49.5 470,-49.5"/>
<text text-anchor="start" x="478" y="-67.5" font-family="Helvetica,sans-Serif" font-size="10.00">std::array&lt; char, Customer</text>
<text text-anchor="middle" x="544.5" y="-56.5" font-family="Helvetica,sans-Serif" font-size="10.00">::MIDDLE+1 &gt;</text>
</a>
</g>
</g>
<!-- Node6&#45;&gt;Node1 -->
<g id="edge5" class="edge">
<title>Node6&#45;&gt;Node1</title>
<path fill="none" stroke="#9a32cd" stroke-dasharray="5,2" d="M626.13,-81.72C661.13,-89.19 700.8,-97.66 730.37,-103.97"/>
<polygon fill="#9a32cd" stroke="#9a32cd" points="626.43,-78.2 615.92,-79.53 624.97,-85.05 626.43,-78.2"/>
<text text-anchor="middle" x="667" y="-97.5" font-family="Helvetica,sans-Serif" font-size="10.00"> c_middle</text>
</g>
<!-- Node7 -->
<g id="node7" class="node">
<title>Node7</title>
<g id="a_node7"><a xlink:title=" ">
<polygon fill="white" stroke="black" points="470,-0.5 470,-30.5 619,-30.5 619,-0.5 470,-0.5"/>
<text text-anchor="start" x="478" y="-18.5" font-family="Helvetica,sans-Serif" font-size="10.00">std::array&lt; char, Customer</text>
<text text-anchor="middle" x="544.5" y="-7.5" font-family="Helvetica,sans-Serif" font-size="10.00">::MAX_LAST+1 &gt;</text>
</a>
</g>
</g>
<!-- Node7&#45;&gt;Node1 -->
<g id="edge6" class="edge">
<title>Node7&#45;&gt;Node1</title>
<path fill="none" stroke="#9a32cd" stroke-dasharray="5,2" d="M606.54,-33.86C612.81,-35.99 619.06,-38.23 625,-40.5 674.77,-59.55 730.48,-88.93 757.89,-103.95"/>
<polygon fill="#9a32cd" stroke="#9a32cd" points="607.3,-30.42 596.71,-30.59 605.1,-37.07 607.3,-30.42"/>
<text text-anchor="middle" x="667" y="-70.5" font-family="Helvetica,sans-Serif" font-size="10.00"> c_last</text>
</g>
</g>
</svg>
