<?xml version="1.0" encoding="UTF-8" standalone="no"?>
<!DOCTYPE svg PUBLIC "-//W3C//DTD SVG 1.1//EN"
 "http://www.w3.org/Graphics/SVG/1.1/DTD/svg11.dtd">
<!-- Generated by graphviz version 2.43.0 (0)
 -->
<!-- Title: ccf::BackupSignatures Pages: 1 -->
<svg width="463pt" height="307pt"
 viewBox="0.00 0.00 462.50 307.00" xmlns="http://www.w3.org/2000/svg" xmlns:xlink="http://www.w3.org/1999/xlink">
<g id="graph0" class="graph" transform="scale(1 1) rotate(0) translate(4 303)">
<title>ccf::BackupSignatures</title>
<polygon fill="white" stroke="transparent" points="-4,4 -4,-303 458.5,-303 458.5,4 -4,4"/>
<!-- Node1 -->
<g id="node1" class="node">
<title>Node1</title>
<g id="a_node1"><a xlink:title=" ">
<polygon fill="#bfbfbf" stroke="black" points="270,-0.5 270,-19.5 393,-19.5 393,-0.5 270,-0.5"/>
<text text-anchor="middle" x="331.5" y="-7.5" font-family="Helvetica,sans-Serif" font-size="10.00">ccf::BackupSignatures</text>
</a>
</g>
</g>
<!-- Node2 -->
<g id="node2" class="node">
<title>Node2</title>
<g id="a_node2"><a xlink:href="classcrypto_1_1Sha256Hash.html" target="_top" xlink:title=" ">
<polygon fill="white" stroke="black" points="340.5,-201.5 340.5,-220.5 454.5,-220.5 454.5,-201.5 340.5,-201.5"/>
<text text-anchor="middle" x="397.5" y="-208.5" font-family="Helvetica,sans-Serif" font-size="10.00">crypto::Sha256Hash</text>
</a>
</g>
</g>
<!-- Node2&#45;&gt;Node1 -->
<g id="edge1" class="edge">
<title>Node2&#45;&gt;Node1</title>
<path fill="none" stroke="#9a32cd" stroke-dasharray="5,2" d="M397.71,-191.28C397.25,-158 392.49,-87.4 362.5,-38 358.06,-30.68 350.97,-24.29 344.69,-19.57"/>
<polygon fill="#9a32cd" stroke="#9a32cd" points="394.21,-191.4 397.72,-201.4 401.21,-191.39 394.21,-191.4"/>
<text text-anchor="middle" x="401" y="-108" font-family="Helvetica,sans-Serif" font-size="10.00"> root</text>
</g>
<!-- Node5 -->
<g id="node5" class="node">
<title>Node5</title>
<g id="a_node5"><a xlink:href="structccf_1_1NodeSignature.html" target="_top" xlink:title=" ">
<polygon fill="white" stroke="black" points="200.5,-134.5 200.5,-153.5 308.5,-153.5 308.5,-134.5 200.5,-134.5"/>
<text text-anchor="middle" x="254.5" y="-141.5" font-family="Helvetica,sans-Serif" font-size="10.00">ccf::NodeSignature</text>
</a>
</g>
</g>
<!-- Node2&#45;&gt;Node5 -->
<g id="edge7" class="edge">
<title>Node2&#45;&gt;Node5</title>
<path fill="none" stroke="#9a32cd" stroke-dasharray="5,2" d="M345.08,-198.74C331.16,-194.74 316.41,-189.55 303.5,-183 288.14,-175.2 272.84,-162.31 263.52,-153.73"/>
<polygon fill="#9a32cd" stroke="#9a32cd" points="344.46,-202.2 355.03,-201.44 346.3,-195.44 344.46,-202.2"/>
<text text-anchor="middle" x="340" y="-175" font-family="Helvetica,sans-Serif" font-size="10.00"> hashed_nonce</text>
</g>
<!-- Node3 -->
<g id="node3" class="node">
<title>Node3</title>
<g id="a_node3"><a xlink:title=" ">
<polygon fill="white" stroke="black" points="342,-268.5 342,-298.5 453,-298.5 453,-268.5 342,-268.5"/>
<text text-anchor="start" x="350" y="-286.5" font-family="Helvetica,sans-Serif" font-size="10.00">std::array&lt; uint8_t,</text>
<text text-anchor="middle" x="397.5" y="-275.5" font-family="Helvetica,sans-Serif" font-size="10.00"> SIZE &gt;</text>
</a>
</g>
</g>
<!-- Node3&#45;&gt;Node2 -->
<g id="edge2" class="edge">
<title>Node3&#45;&gt;Node2</title>
<path fill="none" stroke="#9a32cd" stroke-dasharray="5,2" d="M397.5,-258.09C397.5,-245.21 397.5,-230.2 397.5,-220.89"/>
<polygon fill="#9a32cd" stroke="#9a32cd" points="394,-258.23 397.5,-268.23 401,-258.23 394,-258.23"/>
<text text-anchor="middle" x="402.5" y="-242" font-family="Helvetica,sans-Serif" font-size="10.00"> h</text>
</g>
<!-- Node4 -->
<g id="node4" class="node">
<title>Node4</title>
<g id="a_node4"><a xlink:title=" ">
<polygon fill="white" stroke="black" points="178.5,-67.5 178.5,-86.5 360.5,-86.5 360.5,-67.5 178.5,-67.5"/>
<text text-anchor="middle" x="269.5" y="-74.5" font-family="Helvetica,sans-Serif" font-size="10.00">std::vector&lt; ccf::NodeSignature &gt;</text>
</a>
</g>
</g>
<!-- Node4&#45;&gt;Node1 -->
<g id="edge3" class="edge">
<title>Node4&#45;&gt;Node1</title>
<path fill="none" stroke="#9a32cd" stroke-dasharray="5,2" d="M284.76,-60C296.92,-47.25 313.48,-29.89 323.27,-19.63"/>
<polygon fill="#9a32cd" stroke="#9a32cd" points="282.23,-57.58 277.86,-67.23 287.3,-62.41 282.23,-57.58"/>
<text text-anchor="middle" x="331" y="-41" font-family="Helvetica,sans-Serif" font-size="10.00"> signatures</text>
</g>
<!-- Node5&#45;&gt;Node4 -->
<g id="edge4" class="edge">
<title>Node5&#45;&gt;Node4</title>
<path fill="none" stroke="#9a32cd" stroke-dasharray="5,2" d="M258.79,-124.41C261.66,-111.99 265.3,-96.22 267.51,-86.63"/>
<polygon fill="#9a32cd" stroke="#9a32cd" points="255.36,-123.7 256.52,-134.23 262.18,-125.28 255.36,-123.7"/>
<text text-anchor="middle" x="287" y="-108" font-family="Helvetica,sans-Serif" font-size="10.00"> elements</text>
</g>
<!-- Node6 -->
<g id="node6" class="node">
<title>Node6</title>
<g id="a_node6"><a xlink:title=" ">
<polygon fill="white" stroke="black" points="0,-201.5 0,-220.5 125,-220.5 125,-201.5 0,-201.5"/>
<text text-anchor="middle" x="62.5" y="-208.5" font-family="Helvetica,sans-Serif" font-size="10.00">std::vector&lt; uint8_t &gt;</text>
</a>
</g>
</g>
<!-- Node6&#45;&gt;Node5 -->
<g id="edge5" class="edge">
<title>Node6&#45;&gt;Node5</title>
<path fill="none" stroke="#9a32cd" stroke-dasharray="5,2" d="M97.65,-198.1C135.71,-185.21 195.5,-164.97 229.2,-153.56"/>
<polygon fill="#9a32cd" stroke="#9a32cd" points="96.35,-194.85 88,-201.37 98.59,-201.48 96.35,-194.85"/>
<text text-anchor="middle" x="178.5" y="-175" font-family="Helvetica,sans-Serif" font-size="10.00"> sig</text>
</g>
<!-- Node7 -->
<g id="node7" class="node">
<title>Node7</title>
<g id="a_node7"><a xlink:href="structccf_1_1EntityId.html" target="_top" xlink:title=" ">
<polygon fill="white" stroke="black" points="143,-201.5 143,-220.5 322,-220.5 322,-201.5 143,-201.5"/>
<text text-anchor="middle" x="232.5" y="-208.5" font-family="Helvetica,sans-Serif" font-size="10.00">ccf::EntityId&lt; NodeIdFormatter &gt;</text>
</a>
</g>
</g>
<!-- Node7&#45;&gt;Node5 -->
<g id="edge6" class="edge">
<title>Node7&#45;&gt;Node5</title>
<path fill="none" stroke="#9a32cd" stroke-dasharray="5,2" d="M238.79,-191.41C243,-178.99 248.33,-163.22 251.58,-153.63"/>
<polygon fill="#9a32cd" stroke="#9a32cd" points="235.36,-190.64 235.47,-201.23 241.99,-192.88 235.36,-190.64"/>
<text text-anchor="middle" x="258.5" y="-175" font-family="Helvetica,sans-Serif" font-size="10.00"> node</text>
</g>
</g>
</svg>
