<?xml version="1.0" encoding="UTF-8" standalone="no"?>
<!DOCTYPE svg PUBLIC "-//W3C//DTD SVG 1.1//EN"
 "http://www.w3.org/Graphics/SVG/1.1/DTD/svg11.dtd">
<!-- Generated by graphviz version 2.43.0 (0)
 -->
<!-- Title: ccf::ACMEClientConfig Pages: 1 -->
<svg width="348pt" height="265pt"
 viewBox="0.00 0.00 348.00 265.00" xmlns="http://www.w3.org/2000/svg" xmlns:xlink="http://www.w3.org/1999/xlink">
<g id="graph0" class="graph" transform="scale(1 1) rotate(0) translate(4 261)">
<title>ccf::ACMEClientConfig</title>
<polygon fill="white" stroke="transparent" points="-4,4 -4,-261 344,-261 344,4 -4,4"/>
<!-- Node1 -->
<g id="node1" class="node">
<title>Node1</title>
<g id="a_node1"><a xlink:title=" ">
<polygon fill="#bfbfbf" stroke="black" points="0,-0.5 0,-19.5 124,-19.5 124,-0.5 0,-0.5"/>
<text text-anchor="middle" x="62" y="-7.5" font-family="Helvetica,sans-Serif" font-size="10.00">ccf::ACMEClientConfig</text>
</a>
</g>
</g>
<!-- Node2 -->
<g id="node2" class="node">
<title>Node2</title>
<g id="a_node2"><a xlink:title=" ">
<polygon fill="white" stroke="black" points="200,-90.5 200,-109.5 340,-109.5 340,-90.5 200,-90.5"/>
<text text-anchor="middle" x="270" y="-97.5" font-family="Helvetica,sans-Serif" font-size="10.00">std::vector&lt; std::string &gt;</text>
</a>
</g>
</g>
<!-- Node2&#45;&gt;Node1 -->
<g id="edge1" class="edge">
<title>Node2&#45;&gt;Node1</title>
<path fill="none" stroke="#9a32cd" stroke-dasharray="5,2" d="M240.32,-86.44C197.34,-68.26 118.92,-35.08 82.1,-19.5"/>
<polygon fill="#9a32cd" stroke="#9a32cd" points="239.1,-89.73 249.68,-90.4 241.83,-83.28 239.1,-89.73"/>
<text text-anchor="middle" x="194" y="-52" font-family="Helvetica,sans-Serif" font-size="10.00"> ca_certs</text>
<text text-anchor="middle" x="194" y="-41" font-family="Helvetica,sans-Serif" font-size="10.00">contact</text>
</g>
<!-- Node3 -->
<g id="node3" class="node">
<title>Node3</title>
<g id="a_node3"><a xlink:title=" ">
<polygon fill="white" stroke="black" points="29.5,-169.5 29.5,-188.5 94.5,-188.5 94.5,-169.5 29.5,-169.5"/>
<text text-anchor="middle" x="62" y="-176.5" font-family="Helvetica,sans-Serif" font-size="10.00">std::string</text>
</a>
</g>
</g>
<!-- Node3&#45;&gt;Node1 -->
<g id="edge4" class="edge">
<title>Node3&#45;&gt;Node1</title>
<path fill="none" stroke="#9a32cd" stroke-dasharray="5,2" d="M59.07,-159.3C57.52,-148.44 55.78,-134.48 55,-122 53.78,-102.48 53.98,-97.53 55,-78 56.1,-56.98 59.11,-32.39 60.81,-19.65"/>
<polygon fill="#9a32cd" stroke="#9a32cd" points="55.63,-159.93 60.57,-169.3 62.55,-158.89 55.63,-159.93"/>
<text text-anchor="middle" x="123" y="-114" font-family="Helvetica,sans-Serif" font-size="10.00"> challenge_server_interface</text>
<text text-anchor="middle" x="123" y="-103" font-family="Helvetica,sans-Serif" font-size="10.00">challenge_type</text>
<text text-anchor="middle" x="123" y="-92" font-family="Helvetica,sans-Serif" font-size="10.00">directory_url</text>
<text text-anchor="middle" x="123" y="-81" font-family="Helvetica,sans-Serif" font-size="10.00">service_dns_name</text>
</g>
<!-- Node3&#45;&gt;Node2 -->
<g id="edge2" class="edge">
<title>Node3&#45;&gt;Node2</title>
<path fill="none" stroke="#9a32cd" stroke-dasharray="5,2" d="M94.61,-165.93C136.94,-150.26 209.76,-123.3 246.84,-109.57"/>
<polygon fill="#9a32cd" stroke="#9a32cd" points="93.22,-162.71 85.05,-169.47 95.65,-169.28 93.22,-162.71"/>
<text text-anchor="middle" x="183.5" y="-143" font-family="Helvetica,sans-Serif" font-size="10.00"> elements</text>
</g>
<!-- Node4 -->
<g id="node4" class="node">
<title>Node4</title>
<g id="a_node4"><a xlink:title=" ">
<polygon fill="white" stroke="black" points="10,-226.5 10,-256.5 114,-256.5 114,-226.5 10,-226.5"/>
<text text-anchor="start" x="18" y="-244.5" font-family="Helvetica,sans-Serif" font-size="10.00">std::basic_string&lt;</text>
<text text-anchor="middle" x="62" y="-233.5" font-family="Helvetica,sans-Serif" font-size="10.00"> Char &gt;</text>
</a>
</g>
</g>
<!-- Node4&#45;&gt;Node3 -->
<g id="edge3" class="edge">
<title>Node4&#45;&gt;Node3</title>
<path fill="none" stroke="midnightblue" d="M62,-216.35C62,-206.51 62,-195.78 62,-188.54"/>
<polygon fill="midnightblue" stroke="midnightblue" points="58.5,-216.47 62,-226.47 65.5,-216.47 58.5,-216.47"/>
</g>
</g>
</svg>
