<?xml version="1.0" encoding="UTF-8" standalone="no"?>
<!DOCTYPE svg PUBLIC "-//W3C//DTD SVG 1.1//EN"
 "http://www.w3.org/Graphics/SVG/1.1/DTD/svg11.dtd">
<!-- Generated by graphviz version 2.43.0 (0)
 -->
<!-- Title: ccf::NodeInfoNetwork_v1 Pages: 1 -->
<svg width="147pt" height="218pt"
 viewBox="0.00 0.00 147.00 218.00" xmlns="http://www.w3.org/2000/svg" xmlns:xlink="http://www.w3.org/1999/xlink">
<g id="graph0" class="graph" transform="scale(1 1) rotate(0) translate(4 214)">
<title>ccf::NodeInfoNetwork_v1</title>
<polygon fill="white" stroke="transparent" points="-4,4 -4,-214 143,-214 143,4 -4,4"/>
<!-- Node1 -->
<g id="node1" class="node">
<title>Node1</title>
<g id="a_node1"><a xlink:title=" ">
<polygon fill="#bfbfbf" stroke="black" points="0,-0.5 0,-19.5 139,-19.5 139,-0.5 0,-0.5"/>
<text text-anchor="middle" x="69.5" y="-7.5" font-family="Helvetica,sans-Serif" font-size="10.00">ccf::NodeInfoNetwork_v1</text>
</a>
</g>
</g>
<!-- Node2 -->
<g id="node2" class="node">
<title>Node2</title>
<g id="a_node2"><a xlink:title=" ">
<polygon fill="white" stroke="black" points="37,-122.5 37,-141.5 102,-141.5 102,-122.5 37,-122.5"/>
<text text-anchor="middle" x="69.5" y="-129.5" font-family="Helvetica,sans-Serif" font-size="10.00">std::string</text>
</a>
</g>
</g>
<!-- Node2&#45;&gt;Node1 -->
<g id="edge1" class="edge">
<title>Node2&#45;&gt;Node1</title>
<path fill="none" stroke="#9a32cd" stroke-dasharray="5,2" d="M69.5,-112.15C69.5,-85.72 69.5,-38.76 69.5,-19.55"/>
<polygon fill="#9a32cd" stroke="#9a32cd" points="66,-112.37 69.5,-122.37 73,-112.37 66,-112.37"/>
<text text-anchor="middle" x="94" y="-96" font-family="Helvetica,sans-Serif" font-size="10.00"> nodehost</text>
<text text-anchor="middle" x="94" y="-85" font-family="Helvetica,sans-Serif" font-size="10.00">nodeport</text>
<text text-anchor="middle" x="94" y="-74" font-family="Helvetica,sans-Serif" font-size="10.00">pubhost</text>
<text text-anchor="middle" x="94" y="-63" font-family="Helvetica,sans-Serif" font-size="10.00">pubport</text>
<text text-anchor="middle" x="94" y="-52" font-family="Helvetica,sans-Serif" font-size="10.00">rpchost</text>
<text text-anchor="middle" x="94" y="-41" font-family="Helvetica,sans-Serif" font-size="10.00">rpcport</text>
</g>
<!-- Node3 -->
<g id="node3" class="node">
<title>Node3</title>
<g id="a_node3"><a xlink:title=" ">
<polygon fill="white" stroke="black" points="17.5,-179.5 17.5,-209.5 121.5,-209.5 121.5,-179.5 17.5,-179.5"/>
<text text-anchor="start" x="25.5" y="-197.5" font-family="Helvetica,sans-Serif" font-size="10.00">std::basic_string&lt;</text>
<text text-anchor="middle" x="69.5" y="-186.5" font-family="Helvetica,sans-Serif" font-size="10.00"> Char &gt;</text>
</a>
</g>
</g>
<!-- Node3&#45;&gt;Node2 -->
<g id="edge2" class="edge">
<title>Node3&#45;&gt;Node2</title>
<path fill="none" stroke="midnightblue" d="M69.5,-169.35C69.5,-159.51 69.5,-148.78 69.5,-141.54"/>
<polygon fill="midnightblue" stroke="midnightblue" points="66,-169.47 69.5,-179.47 73,-169.47 66,-169.47"/>
</g>
</g>
</svg>
