<?xml version="1.0" encoding="UTF-8" standalone="no"?>
<!DOCTYPE svg PUBLIC "-//W3C//DTD SVG 1.1//EN"
 "http://www.w3.org/Graphics/SVG/1.1/DTD/svg11.dtd">
<!-- Generated by graphviz version 2.43.0 (0)
 -->
<!-- Title: ccf::PrimarySignature Pages: 1 -->
<svg width="510pt" height="240pt"
 viewBox="0.00 0.00 510.00 240.00" xmlns="http://www.w3.org/2000/svg" xmlns:xlink="http://www.w3.org/1999/xlink">
<g id="graph0" class="graph" transform="scale(1 1) rotate(0) translate(4 236)">
<title>ccf::PrimarySignature</title>
<polygon fill="white" stroke="transparent" points="-4,4 -4,-236 506,-236 506,4 -4,4"/>
<!-- Node1 -->
<g id="node1" class="node">
<title>Node1</title>
<g id="a_node1"><a xlink:title=" ">
<polygon fill="#bfbfbf" stroke="black" points="325,-0.5 325,-19.5 446,-19.5 446,-0.5 325,-0.5"/>
<text text-anchor="middle" x="385.5" y="-7.5" font-family="Helvetica,sans-Serif" font-size="10.00">ccf::PrimarySignature</text>
</a>
</g>
</g>
<!-- Node2 -->
<g id="node2" class="node">
<title>Node2</title>
<g id="a_node2"><a xlink:href="structccf_1_1NodeSignature.html" target="_top" xlink:title=" ">
<polygon fill="white" stroke="black" points="210.5,-67.5 210.5,-86.5 318.5,-86.5 318.5,-67.5 210.5,-67.5"/>
<text text-anchor="middle" x="264.5" y="-74.5" font-family="Helvetica,sans-Serif" font-size="10.00">ccf::NodeSignature</text>
</a>
</g>
</g>
<!-- Node2&#45;&gt;Node1 -->
<g id="edge1" class="edge">
<title>Node2&#45;&gt;Node1</title>
<path fill="none" stroke="midnightblue" d="M289.71,-62.46C313.7,-49.57 349.06,-30.57 369.44,-19.63"/>
<polygon fill="midnightblue" stroke="midnightblue" points="287.97,-59.42 280.82,-67.23 291.28,-65.58 287.97,-59.42"/>
</g>
<!-- Node3 -->
<g id="node3" class="node">
<title>Node3</title>
<g id="a_node3"><a xlink:title=" ">
<polygon fill="white" stroke="black" points="0,-134.5 0,-153.5 125,-153.5 125,-134.5 0,-134.5"/>
<text text-anchor="middle" x="62.5" y="-141.5" font-family="Helvetica,sans-Serif" font-size="10.00">std::vector&lt; uint8_t &gt;</text>
</a>
</g>
</g>
<!-- Node3&#45;&gt;Node2 -->
<g id="edge2" class="edge">
<title>Node3&#45;&gt;Node2</title>
<path fill="none" stroke="#9a32cd" stroke-dasharray="5,2" d="M98.97,-131.27C138.99,-118.39 202.28,-98.02 237.89,-86.56"/>
<polygon fill="#9a32cd" stroke="#9a32cd" points="97.77,-127.97 89.32,-134.37 99.92,-134.64 97.77,-127.97"/>
<text text-anchor="middle" x="185.5" y="-108" font-family="Helvetica,sans-Serif" font-size="10.00"> sig</text>
</g>
<!-- Node4 -->
<g id="node4" class="node">
<title>Node4</title>
<g id="a_node4"><a xlink:href="structccf_1_1EntityId.html" target="_top" xlink:title=" ">
<polygon fill="white" stroke="black" points="143,-134.5 143,-153.5 322,-153.5 322,-134.5 143,-134.5"/>
<text text-anchor="middle" x="232.5" y="-141.5" font-family="Helvetica,sans-Serif" font-size="10.00">ccf::EntityId&lt; NodeIdFormatter &gt;</text>
</a>
</g>
</g>
<!-- Node4&#45;&gt;Node2 -->
<g id="edge3" class="edge">
<title>Node4&#45;&gt;Node2</title>
<path fill="none" stroke="#9a32cd" stroke-dasharray="5,2" d="M238.3,-124.59C240.56,-118.24 243.36,-111.18 246.5,-105 249.77,-98.57 254.27,-91.82 257.95,-86.68"/>
<polygon fill="#9a32cd" stroke="#9a32cd" points="234.9,-123.71 235.06,-134.31 241.54,-125.93 234.9,-123.71"/>
<text text-anchor="middle" x="260.5" y="-108" font-family="Helvetica,sans-Serif" font-size="10.00"> node</text>
</g>
<!-- Node5 -->
<g id="node5" class="node">
<title>Node5</title>
<g id="a_node5"><a xlink:href="classcrypto_1_1Sha256Hash.html" target="_top" xlink:title=" ">
<polygon fill="white" stroke="black" points="340.5,-134.5 340.5,-153.5 454.5,-153.5 454.5,-134.5 340.5,-134.5"/>
<text text-anchor="middle" x="397.5" y="-141.5" font-family="Helvetica,sans-Serif" font-size="10.00">crypto::Sha256Hash</text>
</a>
</g>
</g>
<!-- Node5&#45;&gt;Node1 -->
<g id="edge6" class="edge">
<title>Node5&#45;&gt;Node1</title>
<path fill="none" stroke="#9a32cd" stroke-dasharray="5,2" d="M395.8,-124.28C393.16,-95.25 388.19,-40.54 386.27,-19.52"/>
<polygon fill="#9a32cd" stroke="#9a32cd" points="392.32,-124.7 396.71,-134.34 399.29,-124.06 392.32,-124.7"/>
<text text-anchor="middle" x="404" y="-74.5" font-family="Helvetica,sans-Serif" font-size="10.00"> root</text>
</g>
<!-- Node5&#45;&gt;Node2 -->
<g id="edge4" class="edge">
<title>Node5&#45;&gt;Node2</title>
<path fill="none" stroke="#9a32cd" stroke-dasharray="5,2" d="M334.6,-131.69C322.09,-127.86 309.44,-122.76 298.5,-116 286.3,-108.46 275.93,-95.25 269.95,-86.56"/>
<polygon fill="#9a32cd" stroke="#9a32cd" points="334,-135.16 344.58,-134.5 335.9,-128.42 334,-135.16"/>
<text text-anchor="middle" x="335" y="-108" font-family="Helvetica,sans-Serif" font-size="10.00"> hashed_nonce</text>
</g>
<!-- Node6 -->
<g id="node6" class="node">
<title>Node6</title>
<g id="a_node6"><a xlink:title=" ">
<polygon fill="white" stroke="black" points="342,-201.5 342,-231.5 453,-231.5 453,-201.5 342,-201.5"/>
<text text-anchor="start" x="350" y="-219.5" font-family="Helvetica,sans-Serif" font-size="10.00">std::array&lt; uint8_t,</text>
<text text-anchor="middle" x="397.5" y="-208.5" font-family="Helvetica,sans-Serif" font-size="10.00"> SIZE &gt;</text>
</a>
</g>
</g>
<!-- Node6&#45;&gt;Node5 -->
<g id="edge5" class="edge">
<title>Node6&#45;&gt;Node5</title>
<path fill="none" stroke="#9a32cd" stroke-dasharray="5,2" d="M397.5,-191.09C397.5,-178.21 397.5,-163.2 397.5,-153.89"/>
<polygon fill="#9a32cd" stroke="#9a32cd" points="394,-191.23 397.5,-201.23 401,-191.23 394,-191.23"/>
<text text-anchor="middle" x="402.5" y="-175" font-family="Helvetica,sans-Serif" font-size="10.00"> h</text>
</g>
<!-- Node7 -->
<g id="node7" class="node">
<title>Node7</title>
<g id="a_node7"><a xlink:href="classcrypto_1_1Pem.html" target="_top" xlink:title=" ">
<polygon fill="white" stroke="black" points="427,-67.5 427,-86.5 502,-86.5 502,-67.5 427,-67.5"/>
<text text-anchor="middle" x="464.5" y="-74.5" font-family="Helvetica,sans-Serif" font-size="10.00">crypto::Pem</text>
</a>
</g>
</g>
<!-- Node7&#45;&gt;Node1 -->
<g id="edge7" class="edge">
<title>Node7&#45;&gt;Node1</title>
<path fill="none" stroke="#9a32cd" stroke-dasharray="5,2" d="M445.92,-60.71C430.36,-47.91 408.7,-30.09 395.99,-19.63"/>
<polygon fill="#9a32cd" stroke="#9a32cd" points="443.9,-63.58 453.85,-67.23 448.35,-58.18 443.9,-63.58"/>
<text text-anchor="middle" x="440.5" y="-41" font-family="Helvetica,sans-Serif" font-size="10.00"> cert</text>
</g>
</g>
</svg>
