<?xml version="1.0" encoding="UTF-8" standalone="no"?>
<!DOCTYPE svg PUBLIC "-//W3C//DTD SVG 1.1//EN"
 "http://www.w3.org/Graphics/SVG/1.1/DTD/svg11.dtd">
<!-- Generated by graphviz version 2.43.0 (0)
 -->
<!-- Title: ccf::Quote Pages: 1 -->
<svg width="433pt" height="174pt"
 viewBox="0.00 0.00 432.50 174.00" xmlns="http://www.w3.org/2000/svg" xmlns:xlink="http://www.w3.org/1999/xlink">
<g id="graph0" class="graph" transform="scale(1 1) rotate(0) translate(4 170)">
<title>ccf::Quote</title>
<polygon fill="white" stroke="transparent" points="-4,4 -4,-170 428.5,-170 428.5,4 -4,4"/>
<!-- Node1 -->
<g id="node1" class="node">
<title>Node1</title>
<g id="a_node1"><a xlink:title=" ">
<polygon fill="#bfbfbf" stroke="black" points="227,-0.5 227,-19.5 292,-19.5 292,-0.5 227,-0.5"/>
<text text-anchor="middle" x="259.5" y="-7.5" font-family="Helvetica,sans-Serif" font-size="10.00">ccf::Quote</text>
</a>
</g>
</g>
<!-- Node2 -->
<g id="node2" class="node">
<title>Node2</title>
<g id="a_node2"><a xlink:href="structccf_1_1EntityId.html" target="_top" xlink:title=" ">
<polygon fill="white" stroke="black" points="0,-78.5 0,-97.5 179,-97.5 179,-78.5 0,-78.5"/>
<text text-anchor="middle" x="89.5" y="-85.5" font-family="Helvetica,sans-Serif" font-size="10.00">ccf::EntityId&lt; NodeIdFormatter &gt;</text>
</a>
</g>
</g>
<!-- Node2&#45;&gt;Node1 -->
<g id="edge1" class="edge">
<title>Node2&#45;&gt;Node1</title>
<path fill="none" stroke="#9a32cd" stroke-dasharray="5,2" d="M117.81,-74.34C152.55,-58.81 210.52,-32.9 240.4,-19.54"/>
<polygon fill="#9a32cd" stroke="#9a32cd" points="116.37,-71.15 108.67,-78.43 119.23,-77.54 116.37,-71.15"/>
<text text-anchor="middle" x="215.5" y="-46.5" font-family="Helvetica,sans-Serif" font-size="10.00"> node_id</text>
</g>
<!-- Node3 -->
<g id="node3" class="node">
<title>Node3</title>
<g id="a_node3"><a xlink:title=" ">
<polygon fill="white" stroke="black" points="197,-78.5 197,-97.5 322,-97.5 322,-78.5 197,-78.5"/>
<text text-anchor="middle" x="259.5" y="-85.5" font-family="Helvetica,sans-Serif" font-size="10.00">std::vector&lt; uint8_t &gt;</text>
</a>
</g>
</g>
<!-- Node3&#45;&gt;Node1 -->
<g id="edge2" class="edge">
<title>Node3&#45;&gt;Node1</title>
<path fill="none" stroke="#9a32cd" stroke-dasharray="5,2" d="M259.5,-68.22C259.5,-52.7 259.5,-31.36 259.5,-19.62"/>
<polygon fill="#9a32cd" stroke="#9a32cd" points="256,-68.28 259.5,-78.28 263,-68.28 256,-68.28"/>
<text text-anchor="middle" x="296" y="-52" font-family="Helvetica,sans-Serif" font-size="10.00"> endorsements</text>
<text text-anchor="middle" x="296" y="-41" font-family="Helvetica,sans-Serif" font-size="10.00">raw</text>
</g>
<!-- Node4 -->
<g id="node4" class="node">
<title>Node4</title>
<g id="a_node4"><a xlink:title=" ">
<polygon fill="white" stroke="black" points="340,-78.5 340,-97.5 405,-97.5 405,-78.5 340,-78.5"/>
<text text-anchor="middle" x="372.5" y="-85.5" font-family="Helvetica,sans-Serif" font-size="10.00">std::string</text>
</a>
</g>
</g>
<!-- Node4&#45;&gt;Node1 -->
<g id="edge3" class="edge">
<title>Node4&#45;&gt;Node1</title>
<path fill="none" stroke="#9a32cd" stroke-dasharray="5,2" d="M363.18,-69.41C356.88,-59 347.67,-46.27 336.5,-38 323.52,-28.39 306.83,-21.99 292.31,-17.84"/>
<polygon fill="#9a32cd" stroke="#9a32cd" points="360.15,-71.16 368.13,-78.12 366.24,-67.7 360.15,-71.16"/>
<text text-anchor="middle" x="384" y="-46.5" font-family="Helvetica,sans-Serif" font-size="10.00"> mrenclave</text>
</g>
<!-- Node5 -->
<g id="node5" class="node">
<title>Node5</title>
<g id="a_node5"><a xlink:title=" ">
<polygon fill="white" stroke="black" points="320.5,-135.5 320.5,-165.5 424.5,-165.5 424.5,-135.5 320.5,-135.5"/>
<text text-anchor="start" x="328.5" y="-153.5" font-family="Helvetica,sans-Serif" font-size="10.00">std::basic_string&lt;</text>
<text text-anchor="middle" x="372.5" y="-142.5" font-family="Helvetica,sans-Serif" font-size="10.00"> Char &gt;</text>
</a>
</g>
</g>
<!-- Node5&#45;&gt;Node4 -->
<g id="edge4" class="edge">
<title>Node5&#45;&gt;Node4</title>
<path fill="none" stroke="midnightblue" d="M372.5,-125.35C372.5,-115.51 372.5,-104.78 372.5,-97.54"/>
<polygon fill="midnightblue" stroke="midnightblue" points="369,-125.47 372.5,-135.47 376,-125.47 369,-125.47"/>
</g>
</g>
</svg>
