<?xml version="1.0" encoding="UTF-8" standalone="no"?>
<!DOCTYPE svg PUBLIC "-//W3C//DTD SVG 1.1//EN"
 "http://www.w3.org/Graphics/SVG/1.1/DTD/svg11.dtd">
<!-- Generated by graphviz version 2.43.0 (0)
 -->
<!-- Title: kv::untyped::SnapshotChangeSet Pages: 1 -->
<svg width="700pt" height="207pt"
 viewBox="0.00 0.00 700.00 207.00" xmlns="http://www.w3.org/2000/svg" xmlns:xlink="http://www.w3.org/1999/xlink">
<g id="graph0" class="graph" transform="scale(1 1) rotate(0) translate(4 203)">
<title>kv::untyped::SnapshotChangeSet</title>
<polygon fill="white" stroke="transparent" points="-4,4 -4,-203 696,-203 696,4 -4,4"/>
<!-- Node1 -->
<g id="node1" class="node">
<title>Node1</title>
<g id="a_node1"><a xlink:title=" ">
<polygon fill="#bfbfbf" stroke="black" points="515,-152.5 515,-171.5 692,-171.5 692,-152.5 515,-152.5"/>
<text text-anchor="middle" x="603.5" y="-159.5" font-family="Helvetica,sans-Serif" font-size="10.00">kv::untyped::SnapshotChangeSet</text>
</a>
</g>
</g>
<!-- Node2 -->
<g id="node2" class="node">
<title>Node2</title>
<g id="a_node2"><a xlink:href="structkv_1_1untyped_1_1ChangeSet.html" target="_top" xlink:title=" ">
<polygon fill="white" stroke="black" points="346,-117.5 346,-136.5 478,-136.5 478,-117.5 346,-117.5"/>
<text text-anchor="middle" x="412" y="-124.5" font-family="Helvetica,sans-Serif" font-size="10.00">kv::untyped::ChangeSet</text>
</a>
</g>
</g>
<!-- Node2&#45;&gt;Node1 -->
<g id="edge1" class="edge">
<title>Node2&#45;&gt;Node1</title>
<path fill="none" stroke="midnightblue" d="M474.73,-138.4C499.31,-142.94 527.29,-148.11 550.78,-152.45"/>
<polygon fill="midnightblue" stroke="midnightblue" points="475.25,-134.94 464.78,-136.56 473.98,-141.82 475.25,-134.94"/>
</g>
<!-- Node3 -->
<g id="node3" class="node">
<title>Node3</title>
<g id="a_node3"><a xlink:href="classkv_1_1AbstractChangeSet.html" target="_top" xlink:title=" ">
<polygon fill="white" stroke="black" points="108.5,-132.5 108.5,-151.5 235.5,-151.5 235.5,-132.5 108.5,-132.5"/>
<text text-anchor="middle" x="172" y="-139.5" font-family="Helvetica,sans-Serif" font-size="10.00">kv::AbstractChangeSet</text>
</a>
</g>
</g>
<!-- Node3&#45;&gt;Node2 -->
<g id="edge2" class="edge">
<title>Node3&#45;&gt;Node2</title>
<path fill="none" stroke="midnightblue" d="M245.71,-137.42C277.69,-135.4 314.94,-133.05 345.98,-131.1"/>
<polygon fill="midnightblue" stroke="midnightblue" points="245.29,-133.94 235.53,-138.06 245.73,-140.92 245.29,-133.94"/>
</g>
<!-- Node4 -->
<g id="node4" class="node">
<title>Node4</title>
<g id="a_node4"><a xlink:href="classchamp_1_1Map.html" target="_top" xlink:title=" ">
<polygon fill="white" stroke="black" points="106,-179.5 106,-198.5 238,-198.5 238,-179.5 106,-179.5"/>
<text text-anchor="middle" x="172" y="-186.5" font-family="Helvetica,sans-Serif" font-size="10.00">champ::Map&lt; K, V, H &gt;</text>
</a>
</g>
</g>
<!-- Node4&#45;&gt;Node1 -->
<g id="edge7" class="edge">
<title>Node4&#45;&gt;Node1</title>
<path fill="none" stroke="#9a32cd" stroke-dasharray="5,2" d="M248.52,-186.65C273.8,-185.71 302.13,-184.49 328,-183 390.51,-179.4 460.92,-173.99 514.78,-169.56"/>
<polygon fill="#9a32cd" stroke="#9a32cd" points="248.13,-183.16 238.26,-187.02 248.38,-190.15 248.13,-183.16"/>
<text text-anchor="middle" x="412" y="-184" font-family="Helvetica,sans-Serif" font-size="10.00"> state</text>
</g>
<!-- Node4&#45;&gt;Node2 -->
<g id="edge3" class="edge">
<title>Node4&#45;&gt;Node2</title>
<path fill="none" stroke="#9a32cd" stroke-dasharray="5,2" d="M214.94,-176.62C232.26,-171.61 252.55,-165.87 271,-161 304.13,-152.25 341.9,-143.13 369.85,-136.54"/>
<polygon fill="#9a32cd" stroke="#9a32cd" points="213.76,-173.32 205.13,-179.47 215.71,-180.04 213.76,-173.32"/>
<text text-anchor="middle" x="299.5" y="-175" font-family="Helvetica,sans-Serif" font-size="10.00"> committed</text>
<text text-anchor="middle" x="299.5" y="-164" font-family="Helvetica,sans-Serif" font-size="10.00">state</text>
</g>
<!-- Node5 -->
<g id="node5" class="node">
<title>Node5</title>
<g id="a_node5"><a xlink:title=" ">
<polygon fill="white" stroke="black" points="91,-0.5 91,-41.5 253,-41.5 253,-0.5 91,-0.5"/>
<text text-anchor="start" x="99" y="-29.5" font-family="Helvetica,sans-Serif" font-size="10.00">std::map&lt; K, std::tuple</text>
<text text-anchor="start" x="99" y="-18.5" font-family="Helvetica,sans-Serif" font-size="10.00">&lt; DeletableVersion, LastRead</text>
<text text-anchor="middle" x="172" y="-7.5" font-family="Helvetica,sans-Serif" font-size="10.00">Version &gt; &gt;</text>
</a>
</g>
</g>
<!-- Node5&#45;&gt;Node2 -->
<g id="edge4" class="edge">
<title>Node5&#45;&gt;Node2</title>
<path fill="none" stroke="#9a32cd" stroke-dasharray="5,2" d="M237.41,-45.48C242.7,-47.64 247.95,-49.83 253,-52 303.76,-73.85 362.2,-102.54 391.75,-117.3"/>
<polygon fill="#9a32cd" stroke="#9a32cd" points="238.45,-42.13 227.87,-41.65 235.84,-48.63 238.45,-42.13"/>
<text text-anchor="middle" x="299.5" y="-88" font-family="Helvetica,sans-Serif" font-size="10.00"> reads</text>
</g>
<!-- Node6 -->
<g id="node6" class="node">
<title>Node6</title>
<g id="a_node6"><a xlink:title=" ">
<polygon fill="white" stroke="black" points="0,-11.5 0,-30.5 29,-30.5 29,-11.5 0,-11.5"/>
<text text-anchor="middle" x="14.5" y="-18.5" font-family="Helvetica,sans-Serif" font-size="10.00">K</text>
</a>
</g>
</g>
<!-- Node6&#45;&gt;Node5 -->
<g id="edge5" class="edge">
<title>Node6&#45;&gt;Node5</title>
<path fill="none" stroke="#9a32cd" stroke-dasharray="5,2" d="M39.22,-21C53.29,-21 72.03,-21 90.95,-21"/>
<polygon fill="#9a32cd" stroke="#9a32cd" points="39.03,-17.5 29.03,-21 39.03,-24.5 39.03,-17.5"/>
<text text-anchor="middle" x="60" y="-24" font-family="Helvetica,sans-Serif" font-size="10.00"> keys</text>
</g>
<!-- Node7 -->
<g id="node7" class="node">
<title>Node7</title>
<g id="a_node7"><a xlink:title=" ">
<polygon fill="white" stroke="black" points="101.5,-61 101.5,-113 242.5,-113 242.5,-61 101.5,-61"/>
<text text-anchor="start" x="109.5" y="-101" font-family="Helvetica,sans-Serif" font-size="10.00">std::map&lt; kv::serialisers</text>
<text text-anchor="start" x="109.5" y="-90" font-family="Helvetica,sans-Serif" font-size="10.00">::SerialisedEntry, std</text>
<text text-anchor="start" x="109.5" y="-79" font-family="Helvetica,sans-Serif" font-size="10.00">::optional&lt; kv::serialisers</text>
<text text-anchor="middle" x="172" y="-68" font-family="Helvetica,sans-Serif" font-size="10.00">::SerialisedEntry &gt; &gt;</text>
</a>
</g>
</g>
<!-- Node7&#45;&gt;Node2 -->
<g id="edge6" class="edge">
<title>Node7&#45;&gt;Node2</title>
<path fill="none" stroke="#9a32cd" stroke-dasharray="5,2" d="M252.96,-100.44C286.24,-106.03 324.09,-112.39 354.4,-117.49"/>
<polygon fill="#9a32cd" stroke="#9a32cd" points="253.24,-96.94 242.8,-98.73 252.08,-103.84 253.24,-96.94"/>
<text text-anchor="middle" x="299.5" y="-115" font-family="Helvetica,sans-Serif" font-size="10.00"> writes</text>
</g>
</g>
</svg>
