<?xml version="1.0" encoding="UTF-8" standalone="no"?>
<!DOCTYPE svg PUBLIC "-//W3C//DTD SVG 1.1//EN"
 "http://www.w3.org/Graphics/SVG/1.1/DTD/svg11.dtd">
<!-- Generated by graphviz version 2.43.0 (0)
 -->
<!-- Title: ccf::JoinNetworkNodeToNode::Out::NetworkInfo Pages: 1 -->
<svg width="268pt" height="262pt"
 viewBox="0.00 0.00 268.00 262.00" xmlns="http://www.w3.org/2000/svg" xmlns:xlink="http://www.w3.org/1999/xlink">
<g id="graph0" class="graph" transform="scale(1 1) rotate(0) translate(4 258)">
<title>ccf::JoinNetworkNodeToNode::Out::NetworkInfo</title>
<polygon fill="white" stroke="transparent" points="-4,4 -4,-258 264,-258 264,4 -4,4"/>
<!-- Node1 -->
<g id="node1" class="node">
<title>Node1</title>
<g id="a_node1"><a xlink:title=" ">
<polygon fill="#bfbfbf" stroke="black" points="54,-0.5 54,-30.5 211,-30.5 211,-0.5 54,-0.5"/>
<text text-anchor="start" x="62" y="-18.5" font-family="Helvetica,sans-Serif" font-size="10.00">ccf::JoinNetworkNodeToNode</text>
<text text-anchor="middle" x="132.5" y="-7.5" font-family="Helvetica,sans-Serif" font-size="10.00">::Out::NetworkInfo</text>
</a>
</g>
</g>
<!-- Node2 -->
<g id="node2" class="node">
<title>Node2</title>
<g id="a_node2"><a xlink:title=" ">
<polygon fill="white" stroke="black" points="0,-78.5 0,-108.5 127,-108.5 127,-78.5 0,-78.5"/>
<text text-anchor="start" x="8" y="-96.5" font-family="Helvetica,sans-Serif" font-size="10.00">std::map&lt; kv::Version,</text>
<text text-anchor="middle" x="63.5" y="-85.5" font-family="Helvetica,sans-Serif" font-size="10.00"> LedgerSecretPtr &gt;</text>
</a>
</g>
</g>
<!-- Node2&#45;&gt;Node1 -->
<g id="edge1" class="edge">
<title>Node2&#45;&gt;Node1</title>
<path fill="none" stroke="#9a32cd" stroke-dasharray="5,2" d="M78.15,-69.75C83.02,-62.81 88.69,-55.35 94.5,-49 100.48,-42.47 107.73,-35.98 114.28,-30.54"/>
<polygon fill="#9a32cd" stroke="#9a32cd" points="75.18,-67.89 72.46,-78.12 80.97,-71.82 75.18,-67.89"/>
<text text-anchor="middle" x="132" y="-52" font-family="Helvetica,sans-Serif" font-size="10.00"> ledger_secrets</text>
</g>
<!-- Node3 -->
<g id="node3" class="node">
<title>Node3</title>
<g id="a_node3"><a xlink:title=" ">
<polygon fill="white" stroke="black" points="4.5,-167.5 4.5,-186.5 122.5,-186.5 122.5,-167.5 4.5,-167.5"/>
<text text-anchor="middle" x="63.5" y="-174.5" font-family="Helvetica,sans-Serif" font-size="10.00">std::shared_ptr&lt; T &gt;</text>
</a>
</g>
</g>
<!-- Node3&#45;&gt;Node2 -->
<g id="edge2" class="edge">
<title>Node3&#45;&gt;Node2</title>
<path fill="none" stroke="#9a32cd" stroke-dasharray="5,2" d="M63.5,-157.23C63.5,-142.41 63.5,-122.05 63.5,-108.6"/>
<polygon fill="#9a32cd" stroke="#9a32cd" points="60,-157.28 63.5,-167.28 67,-157.28 60,-157.28"/>
<text text-anchor="middle" x="88" y="-135.5" font-family="Helvetica,sans-Serif" font-size="10.00"> elements</text>
</g>
<!-- Node4 -->
<g id="node4" class="node">
<title>Node4</title>
<g id="a_node4"><a xlink:title=" ">
<polygon fill="white" stroke="black" points="49,-234.5 49,-253.5 78,-253.5 78,-234.5 49,-234.5"/>
<text text-anchor="middle" x="63.5" y="-241.5" font-family="Helvetica,sans-Serif" font-size="10.00">T</text>
</a>
</g>
</g>
<!-- Node4&#45;&gt;Node3 -->
<g id="edge3" class="edge">
<title>Node4&#45;&gt;Node3</title>
<path fill="none" stroke="#9a32cd" stroke-dasharray="5,2" d="M63.5,-224.04C63.5,-211.67 63.5,-196.12 63.5,-186.63"/>
<polygon fill="#9a32cd" stroke="#9a32cd" points="60,-224.23 63.5,-234.23 67,-224.23 60,-224.23"/>
<text text-anchor="middle" x="72" y="-208" font-family="Helvetica,sans-Serif" font-size="10.00"> ptr</text>
</g>
<!-- Node5 -->
<g id="node5" class="node">
<title>Node5</title>
<g id="a_node5"><a xlink:href="structccf_1_1NetworkIdentity.html" target="_top" xlink:title=" ">
<polygon fill="white" stroke="black" points="145,-84 145,-103 260,-103 260,-84 145,-84"/>
<text text-anchor="middle" x="202.5" y="-91" font-family="Helvetica,sans-Serif" font-size="10.00">ccf::NetworkIdentity</text>
</a>
</g>
</g>
<!-- Node5&#45;&gt;Node1 -->
<g id="edge4" class="edge">
<title>Node5&#45;&gt;Node1</title>
<path fill="none" stroke="#9a32cd" stroke-dasharray="5,2" d="M190.86,-75.55C184.85,-67.23 177.18,-57.26 169.5,-49 163.56,-42.62 156.48,-36.16 150.11,-30.7"/>
<polygon fill="#9a32cd" stroke="#9a32cd" points="188.03,-77.6 196.65,-83.76 193.75,-73.57 188.03,-77.6"/>
<text text-anchor="middle" x="199" y="-52" font-family="Helvetica,sans-Serif" font-size="10.00"> identity</text>
</g>
<!-- Node6 -->
<g id="node6" class="node">
<title>Node6</title>
<g id="a_node6"><a xlink:href="classcrypto_1_1Pem.html" target="_top" xlink:title=" ">
<polygon fill="white" stroke="black" points="165,-167.5 165,-186.5 240,-186.5 240,-167.5 165,-167.5"/>
<text text-anchor="middle" x="202.5" y="-174.5" font-family="Helvetica,sans-Serif" font-size="10.00">crypto::Pem</text>
</a>
</g>
</g>
<!-- Node6&#45;&gt;Node5 -->
<g id="edge5" class="edge">
<title>Node6&#45;&gt;Node5</title>
<path fill="none" stroke="#9a32cd" stroke-dasharray="5,2" d="M202.5,-156.88C202.5,-139.9 202.5,-115.87 202.5,-103.16"/>
<polygon fill="#9a32cd" stroke="#9a32cd" points="199,-157.28 202.5,-167.28 206,-157.28 199,-157.28"/>
<text text-anchor="middle" x="223.5" y="-141" font-family="Helvetica,sans-Serif" font-size="10.00"> cert</text>
<text text-anchor="middle" x="223.5" y="-130" font-family="Helvetica,sans-Serif" font-size="10.00">priv_key</text>
</g>
</g>
</svg>
