<?xml version="1.0" encoding="UTF-8" standalone="no"?>
<!DOCTYPE svg PUBLIC "-//W3C//DTD SVG 1.1//EN"
 "http://www.w3.org/Graphics/SVG/1.1/DTD/svg11.dtd">
<!-- Generated by graphviz version 2.43.0 (0)
 -->
<!-- Title: consensus::Configuration Pages: 1 -->
<svg width="166pt" height="298pt"
 viewBox="0.00 0.00 165.50 298.00" xmlns="http://www.w3.org/2000/svg" xmlns:xlink="http://www.w3.org/1999/xlink">
<g id="graph0" class="graph" transform="scale(1 1) rotate(0) translate(4 294)">
<title>consensus::Configuration</title>
<polygon fill="white" stroke="transparent" points="-4,4 -4,-294 161.5,-294 161.5,4 -4,4"/>
<!-- Node1 -->
<g id="node1" class="node">
<title>Node1</title>
<g id="a_node1"><a xlink:title=" ">
<polygon fill="#bfbfbf" stroke="black" points="0,-0.5 0,-19.5 139,-19.5 139,-0.5 0,-0.5"/>
<text text-anchor="middle" x="69.5" y="-7.5" font-family="Helvetica,sans-Serif" font-size="10.00">consensus::Configuration</text>
</a>
</g>
</g>
<!-- Node2 -->
<g id="node2" class="node">
<title>Node2</title>
<g id="a_node2"><a xlink:href="structds_1_1TimeString.html" target="_top" xlink:title=" ">
<polygon fill="white" stroke="black" points="26,-78.5 26,-97.5 113,-97.5 113,-78.5 26,-78.5"/>
<text text-anchor="middle" x="69.5" y="-85.5" font-family="Helvetica,sans-Serif" font-size="10.00">ds::TimeString</text>
</a>
</g>
</g>
<!-- Node2&#45;&gt;Node1 -->
<g id="edge1" class="edge">
<title>Node2&#45;&gt;Node1</title>
<path fill="none" stroke="#9a32cd" stroke-dasharray="5,2" d="M69.5,-68.22C69.5,-52.7 69.5,-31.36 69.5,-19.62"/>
<polygon fill="#9a32cd" stroke="#9a32cd" points="66,-68.28 69.5,-78.28 73,-68.28 66,-68.28"/>
<text text-anchor="middle" x="113.5" y="-52" font-family="Helvetica,sans-Serif" font-size="10.00"> election_timeout</text>
<text text-anchor="middle" x="113.5" y="-41" font-family="Helvetica,sans-Serif" font-size="10.00">message_timeout</text>
</g>
<!-- Node3 -->
<g id="node3" class="node">
<title>Node3</title>
<g id="a_node3"><a xlink:href="structds_1_1UnitString.html" target="_top" xlink:title=" ">
<polygon fill="white" stroke="black" points="28,-135.5 28,-154.5 111,-154.5 111,-135.5 28,-135.5"/>
<text text-anchor="middle" x="69.5" y="-142.5" font-family="Helvetica,sans-Serif" font-size="10.00">ds::UnitString</text>
</a>
</g>
</g>
<!-- Node3&#45;&gt;Node2 -->
<g id="edge2" class="edge">
<title>Node3&#45;&gt;Node2</title>
<path fill="none" stroke="midnightblue" d="M69.5,-125.12C69.5,-115.82 69.5,-105.06 69.5,-97.71"/>
<polygon fill="midnightblue" stroke="midnightblue" points="66,-125.41 69.5,-135.41 73,-125.41 66,-125.41"/>
</g>
<!-- Node4 -->
<g id="node4" class="node">
<title>Node4</title>
<g id="a_node4"><a xlink:title=" ">
<polygon fill="white" stroke="black" points="37,-202.5 37,-221.5 102,-221.5 102,-202.5 37,-202.5"/>
<text text-anchor="middle" x="69.5" y="-209.5" font-family="Helvetica,sans-Serif" font-size="10.00">std::string</text>
</a>
</g>
</g>
<!-- Node4&#45;&gt;Node3 -->
<g id="edge3" class="edge">
<title>Node4&#45;&gt;Node3</title>
<path fill="none" stroke="#9a32cd" stroke-dasharray="5,2" d="M69.5,-192.04C69.5,-179.67 69.5,-164.12 69.5,-154.63"/>
<polygon fill="#9a32cd" stroke="#9a32cd" points="66,-192.23 69.5,-202.23 73,-192.23 66,-192.23"/>
<text text-anchor="middle" x="77.5" y="-176" font-family="Helvetica,sans-Serif" font-size="10.00"> str</text>
</g>
<!-- Node5 -->
<g id="node5" class="node">
<title>Node5</title>
<g id="a_node5"><a xlink:title=" ">
<polygon fill="white" stroke="black" points="17.5,-259.5 17.5,-289.5 121.5,-289.5 121.5,-259.5 17.5,-259.5"/>
<text text-anchor="start" x="25.5" y="-277.5" font-family="Helvetica,sans-Serif" font-size="10.00">std::basic_string&lt;</text>
<text text-anchor="middle" x="69.5" y="-266.5" font-family="Helvetica,sans-Serif" font-size="10.00"> Char &gt;</text>
</a>
</g>
</g>
<!-- Node5&#45;&gt;Node4 -->
<g id="edge4" class="edge">
<title>Node5&#45;&gt;Node4</title>
<path fill="none" stroke="midnightblue" d="M69.5,-249.35C69.5,-239.51 69.5,-228.78 69.5,-221.54"/>
<polygon fill="midnightblue" stroke="midnightblue" points="66,-249.47 69.5,-259.47 73,-249.47 66,-249.47"/>
</g>
</g>
</svg>
