<?xml version="1.0" encoding="UTF-8" standalone="no"?>
<!DOCTYPE svg PUBLIC "-//W3C//DTD SVG 1.1//EN"
 "http://www.w3.org/Graphics/SVG/1.1/DTD/svg11.dtd">
<!-- Generated by graphviz version 2.43.0 (0)
 -->
<!-- Title: quic::QUICEndpoint::SendRecvMsg Pages: 1 -->
<svg width="306pt" height="106pt"
 viewBox="0.00 0.00 306.00 106.00" xmlns="http://www.w3.org/2000/svg" xmlns:xlink="http://www.w3.org/1999/xlink">
<g id="graph0" class="graph" transform="scale(1 1) rotate(0) translate(4 102)">
<title>quic::QUICEndpoint::SendRecvMsg</title>
<polygon fill="white" stroke="transparent" points="-4,4 -4,-102 302,-102 302,4 -4,4"/>
<!-- Node1 -->
<g id="node1" class="node">
<title>Node1</title>
<g id="a_node1"><a xlink:title=" ">
<polygon fill="#bfbfbf" stroke="black" points="86.5,-0.5 86.5,-30.5 196.5,-30.5 196.5,-0.5 86.5,-0.5"/>
<text text-anchor="start" x="94.5" y="-18.5" font-family="Helvetica,sans-Serif" font-size="10.00">quic::QUICEndpoint</text>
<text text-anchor="middle" x="141.5" y="-7.5" font-family="Helvetica,sans-Serif" font-size="10.00">::SendRecvMsg</text>
</a>
</g>
</g>
<!-- Node2 -->
<g id="node2" class="node">
<title>Node2</title>
<g id="a_node2"><a xlink:title=" ">
<polygon fill="white" stroke="black" points="0,-78.5 0,-97.5 125,-97.5 125,-78.5 0,-78.5"/>
<text text-anchor="middle" x="62.5" y="-85.5" font-family="Helvetica,sans-Serif" font-size="10.00">std::vector&lt; uint8_t &gt;</text>
</a>
</g>
</g>
<!-- Node2&#45;&gt;Node1 -->
<g id="edge1" class="edge">
<title>Node2&#45;&gt;Node1</title>
<path fill="none" stroke="#9a32cd" stroke-dasharray="5,2" d="M79.94,-71.44C93.62,-59.23 112.49,-42.39 125.73,-30.58"/>
<polygon fill="#9a32cd" stroke="#9a32cd" points="77.32,-69.09 72.19,-78.36 81.98,-74.31 77.32,-69.09"/>
<text text-anchor="middle" x="117" y="-52" font-family="Helvetica,sans-Serif" font-size="10.00"> data</text>
</g>
<!-- Node3 -->
<g id="node3" class="node">
<title>Node3</title>
<g id="a_node3"><a xlink:title=" ">
<polygon fill="white" stroke="black" points="143,-78.5 143,-97.5 298,-97.5 298,-78.5 143,-78.5"/>
<text text-anchor="middle" x="220.5" y="-85.5" font-family="Helvetica,sans-Serif" font-size="10.00">std::shared_ptr&lt; Endpoint &gt;</text>
</a>
</g>
</g>
<!-- Node3&#45;&gt;Node1 -->
<g id="edge2" class="edge">
<title>Node3&#45;&gt;Node1</title>
<path fill="none" stroke="#9a32cd" stroke-dasharray="5,2" d="M203.06,-71.44C189.38,-59.23 170.51,-42.39 157.27,-30.58"/>
<polygon fill="#9a32cd" stroke="#9a32cd" points="201.02,-74.31 210.81,-78.36 205.68,-69.09 201.02,-74.31"/>
<text text-anchor="middle" x="198.5" y="-52" font-family="Helvetica,sans-Serif" font-size="10.00"> self</text>
</g>
</g>
</svg>
