<?xml version="1.0" encoding="UTF-8" standalone="no"?>
<!DOCTYPE svg PUBLIC "-//W3C//DTD SVG 1.1//EN"
 "http://www.w3.org/Graphics/SVG/1.1/DTD/svg11.dtd">
<!-- Generated by graphviz version 2.43.0 (0)
 -->
<!-- Title: ACME::Client::FinalizationWaitMsg Pages: 1 -->
<!--zoomable 371 -->
<svg id="main" version="1.1" xmlns="http://www.w3.org/2000/svg" xmlns:xlink="http://www.w3.org/1999/xlink" xml:space="preserve" onload="init(evt)">
<style type="text/css"><![CDATA[
.edge:hover path { stroke: red; }
.edge:hover polygon { stroke: red; fill: red; }
]]></style>
<script type="text/javascript"><![CDATA[
var edges = document.getElementsByTagName('g');
if (edges && edges.length) {
  for (var i=0;i<edges.length;i++) {
    if (edges[i].id.substr(0,4)=='edge') {
      edges[i].setAttribute('class','edge');
    }
  }
}
]]></script>
        <defs>
                <circle id="rim" cx="0" cy="0" r="7"/>
                <circle id="rim2" cx="0" cy="0" r="3.5"/>
                <g id="zoomPlus">
                        <use xlink:href="#rim" fill="#404040">
                                <set attributeName="fill" to="#808080" begin="zoomplus.mouseover" end="zoomplus.mouseout"/>
                        </use>
                        <path d="M-4,0h8M0,-4v8" fill="none" stroke="white" stroke-width="1.5" pointer-events="none"/>
                </g>
                <g id="zoomMin">
                        <use xlink:href="#rim" fill="#404040">
                                <set attributeName="fill" to="#808080" begin="zoomminus.mouseover" end="zoomminus.mouseout"/>
                        </use>
                        <path d="M-4,0h8" fill="none" stroke="white" stroke-width="1.5" pointer-events="none"/>
                </g>
                <g id="dirArrow">
                        <path fill="none" stroke="white" stroke-width="1.5" d="M0,-3.0v7 M-2.5,-0.5L0,-3.0L2.5,-0.5"/>
                </g>
               <g id="resetDef">
                       <use xlink:href="#rim2" fill="#404040">
                               <set attributeName="fill" to="#808080" begin="reset.mouseover" end="reset.mouseout"/>
                       </use>
               </g>
        </defs>

<script type="text/javascript">
var viewWidth = 1619;
var viewHeight = 371;
var sectionId = 'dynsection-0';
</script>
<script xlink:href="svgpan.js"/>
<svg id="graph" class="graph">
<g id="viewport">
<title>ACME::Client::FinalizationWaitMsg</title>
<polygon fill="white" stroke="transparent" points="-4,4 -4,-366.53 1615,-366.53 1615,4 -4,4"/>
<!-- Node1 -->
<g id="node1" class="node">
<title>Node1</title>
<g id="a_node1"><a xlink:title=" ">
<polygon fill="#bfbfbf" stroke="black" points="1469,-272.53 1469,-302.53 1611,-302.53 1611,-272.53 1469,-272.53"/>
<text text-anchor="start" x="1477" y="-290.53" font-family="Helvetica,sans-Serif" font-size="10.00">ACME::Client::Finalization</text>
<text text-anchor="middle" x="1540" y="-279.53" font-family="Helvetica,sans-Serif" font-size="10.00">WaitMsg</text>
</a>
</g>
</g>
<!-- Node2 -->
<g id="node2" class="node">
<title>Node2</title>
<g id="a_node2"><a xlink:title=" ">
<polygon fill="white" stroke="black" points="141,-182.03 141,-201.03 206,-201.03 206,-182.03 141,-182.03"/>
<text text-anchor="middle" x="173.5" y="-189.03" font-family="Helvetica,sans-Serif" font-size="10.00">std::string</text>
</a>
</g>
</g>
<!-- Node2&#45;&gt;Node1 -->
<g id="edge1" class="edge">
<title>Node2&#45;&gt;Node1</title>
<path fill="none" stroke="#9a32cd" stroke-dasharray="5,2" d="M180.16,-210.99C187.21,-232.05 201.2,-265.32 224,-285.53 285.58,-340.12 314.71,-351.53 397,-351.53 397,-351.53 397,-351.53 1363,-351.53 1420.06,-351.53 1481.6,-321.45 1514.66,-302.54"/>
<polygon fill="#9a32cd" stroke="#9a32cd" points="183.43,-209.72 177.09,-201.23 176.75,-211.82 183.43,-209.72"/>
<text text-anchor="middle" x="925.5" y="-354.53" font-family="Helvetica,sans-Serif" font-size="10.00"> order_url</text>
</g>
<!-- Node5 -->
<g id="node5" class="node">
<title>Node5</title>
<g id="a_node5"><a xlink:href="structACME_1_1ClientConfig.html" target="_top" xlink:title=" ">
<polygon fill="white" stroke="black" points="647.5,-99.03 647.5,-118.03 757.5,-118.03 757.5,-99.03 647.5,-99.03"/>
<text text-anchor="middle" x="702.5" y="-106.03" font-family="Helvetica,sans-Serif" font-size="10.00">ACME::ClientConfig</text>
</a>
</g>
</g>
<!-- Node2&#45;&gt;Node5 -->
<g id="edge7" class="edge">
<title>Node2&#45;&gt;Node5</title>
<path fill="none" stroke="#9a32cd" stroke-dasharray="5,2" d="M194.93,-175.9C203.6,-169.69 214,-162.79 224,-157.53 267.82,-134.47 279.42,-127.16 328,-117.53 439.82,-95.37 574.14,-99.4 647.37,-104.1"/>
<polygon fill="#9a32cd" stroke="#9a32cd" points="192.59,-173.28 186.6,-182.02 196.73,-178.92 192.59,-173.28"/>
<text text-anchor="middle" x="398" y="-142.53" font-family="Helvetica,sans-Serif" font-size="10.00"> challenge_type</text>
<text text-anchor="middle" x="398" y="-131.53" font-family="Helvetica,sans-Serif" font-size="10.00">directory_url</text>
<text text-anchor="middle" x="398" y="-120.53" font-family="Helvetica,sans-Serif" font-size="10.00">service_dns_name</text>
</g>
<!-- Node6 -->
<g id="node6" class="node">
<title>Node6</title>
<g id="a_node6"><a xlink:title=" ">
<polygon fill="white" stroke="black" points="328,-53.03 328,-72.03 468,-72.03 468,-53.03 328,-53.03"/>
<text text-anchor="middle" x="398" y="-60.03" font-family="Helvetica,sans-Serif" font-size="10.00">std::vector&lt; std::string &gt;</text>
</a>
</g>
</g>
<!-- Node2&#45;&gt;Node6 -->
<g id="edge6" class="edge">
<title>Node2&#45;&gt;Node6</title>
<path fill="none" stroke="#9a32cd" stroke-dasharray="5,2" d="M177.61,-171.66C182.65,-146.71 195.11,-104.63 224,-83.53 253.44,-62.03 293.49,-56.11 327.65,-55.88"/>
<polygon fill="#9a32cd" stroke="#9a32cd" points="174.12,-171.32 175.79,-181.78 181.01,-172.56 174.12,-171.32"/>
<text text-anchor="middle" x="267" y="-86.53" font-family="Helvetica,sans-Serif" font-size="10.00"> elements</text>
</g>
<!-- Node9 -->
<g id="node9" class="node">
<title>Node9</title>
<g id="a_node9"><a xlink:title=" ">
<polygon fill="white" stroke="black" points="486,-19.03 486,-38.03 610,-38.03 610,-19.03 486,-19.03"/>
<text text-anchor="middle" x="548" y="-26.03" font-family="Helvetica,sans-Serif" font-size="10.00">std::list&lt; std::string &gt;</text>
</a>
</g>
</g>
<!-- Node2&#45;&gt;Node9 -->
<g id="edge11" class="edge">
<title>Node2&#45;&gt;Node9</title>
<path fill="none" stroke="#9a32cd" stroke-dasharray="5,2" d="M174.48,-171.57C175.66,-138.56 183.33,-73.24 224,-42.53 310.68,22.91 450.86,-2.58 514.14,-18.93"/>
<polygon fill="#9a32cd" stroke="#9a32cd" points="170.98,-171.72 174.3,-181.78 177.98,-171.85 170.98,-171.72"/>
<text text-anchor="middle" x="267" y="-45.53" font-family="Helvetica,sans-Serif" font-size="10.00"> elements</text>
</g>
<!-- Node12 -->
<g id="node12" class="node">
<title>Node12</title>
<g id="a_node12"><a xlink:href="structACME_1_1Client_1_1Order.html" target="_top" xlink:title=" ">
<polygon fill="white" stroke="black" points="869,-225.03 869,-244.03 982,-244.03 982,-225.03 869,-225.03"/>
<text text-anchor="middle" x="925.5" y="-232.03" font-family="Helvetica,sans-Serif" font-size="10.00">ACME::Client::Order</text>
</a>
</g>
</g>
<!-- Node2&#45;&gt;Node12 -->
<g id="edge15" class="edge">
<title>Node2&#45;&gt;Node12</title>
<path fill="none" stroke="#9a32cd" stroke-dasharray="5,2" d="M181.29,-210.73C188.75,-228.63 202.58,-254.33 224,-266.53 264.21,-289.43 281.74,-270.42 328,-271.53 527.52,-276.33 578.26,-282.82 777,-264.53 810.11,-261.49 818.41,-260.15 851,-253.53 864.05,-250.88 878.24,-247.37 890.64,-244.08"/>
<polygon fill="#9a32cd" stroke="#9a32cd" points="184.5,-209.32 177.63,-201.26 177.97,-211.85 184.5,-209.32"/>
<text text-anchor="middle" x="548" y="-312.53" font-family="Helvetica,sans-Serif" font-size="10.00"> account_url</text>
<text text-anchor="middle" x="548" y="-301.53" font-family="Helvetica,sans-Serif" font-size="10.00">certificate_url</text>
<text text-anchor="middle" x="548" y="-290.53" font-family="Helvetica,sans-Serif" font-size="10.00">finalize_url</text>
<text text-anchor="middle" x="548" y="-279.53" font-family="Helvetica,sans-Serif" font-size="10.00">order_url</text>
</g>
<!-- Node13 -->
<g id="node13" class="node">
<title>Node13</title>
<g id="a_node13"><a xlink:title=" ">
<polygon fill="white" stroke="black" points="494.5,-238.53 494.5,-268.53 601.5,-268.53 601.5,-238.53 494.5,-238.53"/>
<text text-anchor="start" x="502.5" y="-256.53" font-family="Helvetica,sans-Serif" font-size="10.00">std::unordered_set</text>
<text text-anchor="middle" x="548" y="-245.53" font-family="Helvetica,sans-Serif" font-size="10.00">&lt; std::string &gt;</text>
</a>
</g>
</g>
<!-- Node2&#45;&gt;Node13 -->
<g id="edge17" class="edge">
<title>Node2&#45;&gt;Node13</title>
<path fill="none" stroke="#9a32cd" stroke-dasharray="5,2" d="M191.07,-208.2C200.03,-216.12 211.75,-224.86 224,-229.53 314.23,-263.96 428.78,-262.99 494.39,-258.63"/>
<polygon fill="#9a32cd" stroke="#9a32cd" points="193.37,-205.56 183.68,-201.29 188.59,-210.68 193.37,-205.56"/>
<text text-anchor="middle" x="267" y="-254.53" font-family="Helvetica,sans-Serif" font-size="10.00"> keys</text>
</g>
<!-- Node14 -->
<g id="node14" class="node">
<title>Node14</title>
<g id="a_node14"><a xlink:title=" ">
<polygon fill="white" stroke="black" points="628,-186.53 628,-216.53 777,-216.53 777,-186.53 628,-186.53"/>
<text text-anchor="start" x="636" y="-204.53" font-family="Helvetica,sans-Serif" font-size="10.00">std::map&lt; std::string,</text>
<text text-anchor="middle" x="702.5" y="-193.53" font-family="Helvetica,sans-Serif" font-size="10.00"> ACME::Client::Challenge &gt;</text>
</a>
</g>
</g>
<!-- Node2&#45;&gt;Node14 -->
<g id="edge19" class="edge">
<title>Node2&#45;&gt;Node14</title>
<path fill="none" stroke="#9a32cd" stroke-dasharray="5,2" d="M216.19,-200.57C218.82,-200.95 221.44,-201.28 224,-201.53 366.29,-215.76 533.63,-210.81 627.65,-206.07"/>
<polygon fill="#9a32cd" stroke="#9a32cd" points="216.48,-197.07 206.05,-198.88 215.34,-203.97 216.48,-197.07"/>
<text text-anchor="middle" x="398" y="-214.53" font-family="Helvetica,sans-Serif" font-size="10.00"> keys</text>
</g>
<!-- Node15 -->
<g id="node15" class="node">
<title>Node15</title>
<g id="a_node15"><a xlink:href="structACME_1_1Client_1_1Challenge.html" target="_top" xlink:title=" ">
<polygon fill="white" stroke="black" points="331,-160.03 331,-179.03 465,-179.03 465,-160.03 331,-160.03"/>
<text text-anchor="middle" x="398" y="-167.03" font-family="Helvetica,sans-Serif" font-size="10.00">ACME::Client::Challenge</text>
</a>
</g>
</g>
<!-- Node2&#45;&gt;Node15 -->
<g id="edge21" class="edge">
<title>Node2&#45;&gt;Node15</title>
<path fill="none" stroke="#9a32cd" stroke-dasharray="5,2" d="M199.44,-177.38C207.08,-173.76 215.67,-170.37 224,-168.53 258.75,-160.85 298.4,-160.5 330.97,-162.33"/>
<polygon fill="#9a32cd" stroke="#9a32cd" points="197.7,-174.34 190.37,-182 200.87,-180.59 197.7,-174.34"/>
<text text-anchor="middle" x="267" y="-193.53" font-family="Helvetica,sans-Serif" font-size="10.00"> authorization_url</text>
<text text-anchor="middle" x="267" y="-182.53" font-family="Helvetica,sans-Serif" font-size="10.00">challenge_url</text>
<text text-anchor="middle" x="267" y="-171.53" font-family="Helvetica,sans-Serif" font-size="10.00">token</text>
</g>
<!-- Node3 -->
<g id="node3" class="node">
<title>Node3</title>
<g id="a_node3"><a xlink:title=" ">
<polygon fill="white" stroke="black" points="0,-176.53 0,-206.53 104,-206.53 104,-176.53 0,-176.53"/>
<text text-anchor="start" x="8" y="-194.53" font-family="Helvetica,sans-Serif" font-size="10.00">std::basic_string&lt;</text>
<text text-anchor="middle" x="52" y="-183.53" font-family="Helvetica,sans-Serif" font-size="10.00"> Char &gt;</text>
</a>
</g>
</g>
<!-- Node3&#45;&gt;Node2 -->
<g id="edge2" class="edge">
<title>Node3&#45;&gt;Node2</title>
<path fill="none" stroke="midnightblue" d="M114.1,-191.53C123.41,-191.53 132.68,-191.53 141,-191.53"/>
<polygon fill="midnightblue" stroke="midnightblue" points="114.03,-188.03 104.03,-191.53 114.03,-195.03 114.03,-188.03"/>
</g>
<!-- Node4 -->
<g id="node4" class="node">
<title>Node4</title>
<g id="a_node4"><a xlink:href="classACME_1_1Client.html" target="_top" xlink:title=" ">
<polygon fill="white" stroke="black" points="1322,-217.03 1322,-236.03 1402,-236.03 1402,-217.03 1322,-217.03"/>
<text text-anchor="middle" x="1362" y="-224.03" font-family="Helvetica,sans-Serif" font-size="10.00">ACME::Client</text>
</a>
</g>
</g>
<!-- Node4&#45;&gt;Node1 -->
<g id="edge3" class="edge">
<title>Node4&#45;&gt;Node1</title>
<path fill="none" stroke="#9a32cd" stroke-dasharray="5,2" d="M1400.27,-239.45C1428.15,-249.11 1466.35,-262.35 1495.61,-272.49"/>
<polygon fill="#9a32cd" stroke="#9a32cd" points="1401.09,-236.03 1390.5,-236.06 1398.8,-242.65 1401.09,-236.03"/>
<text text-anchor="middle" x="1435.5" y="-259.53" font-family="Helvetica,sans-Serif" font-size="10.00"> client</text>
</g>
<!-- Node5&#45;&gt;Node4 -->
<g id="edge4" class="edge">
<title>Node5&#45;&gt;Node4</title>
<path fill="none" stroke="#9a32cd" stroke-dasharray="5,2" d="M767.61,-114.84C862.26,-124.69 1044.77,-145.74 1198,-175.53 1245.72,-184.81 1257.91,-187.06 1304,-202.53 1316.32,-206.67 1329.72,-212.26 1340.44,-217"/>
<polygon fill="#9a32cd" stroke="#9a32cd" points="767.92,-111.36 757.61,-113.81 767.2,-118.32 767.92,-111.36"/>
<text text-anchor="middle" x="1024.5" y="-153.53" font-family="Helvetica,sans-Serif" font-size="10.00"> config</text>
</g>
<!-- Node6&#45;&gt;Node5 -->
<g id="edge5" class="edge">
<title>Node6&#45;&gt;Node5</title>
<path fill="none" stroke="#9a32cd" stroke-dasharray="5,2" d="M478.35,-60.2C518.25,-60.56 567.12,-63.34 610,-72.53 636.04,-78.11 664.32,-90.26 682.44,-98.9"/>
<polygon fill="#9a32cd" stroke="#9a32cd" points="478.16,-56.7 468.15,-60.16 478.13,-63.7 478.16,-56.7"/>
<text text-anchor="middle" x="548" y="-86.53" font-family="Helvetica,sans-Serif" font-size="10.00"> ca_certs</text>
<text text-anchor="middle" x="548" y="-75.53" font-family="Helvetica,sans-Serif" font-size="10.00">contact</text>
</g>
<!-- Node7 -->
<g id="node7" class="node">
<title>Node7</title>
<g id="a_node7"><a xlink:title=" ">
<polygon fill="white" stroke="black" points="1067,-273.53 1067,-303.53 1198,-303.53 1198,-273.53 1067,-273.53"/>
<text text-anchor="start" x="1075" y="-291.53" font-family="Helvetica,sans-Serif" font-size="10.00">std::shared_ptr&lt; crypto</text>
<text text-anchor="middle" x="1132.5" y="-280.53" font-family="Helvetica,sans-Serif" font-size="10.00">::KeyPair &gt;</text>
</a>
</g>
</g>
<!-- Node7&#45;&gt;Node4 -->
<g id="edge8" class="edge">
<title>Node7&#45;&gt;Node4</title>
<path fill="none" stroke="#9a32cd" stroke-dasharray="5,2" d="M1208.41,-284.54C1238.82,-281.14 1273.82,-274.92 1304,-263.53 1321.22,-257.04 1338.62,-244.72 1349.59,-236.09"/>
<polygon fill="#9a32cd" stroke="#9a32cd" points="1207.88,-281.08 1198.29,-285.59 1208.6,-288.04 1207.88,-281.08"/>
<text text-anchor="middle" x="1260" y="-296.53" font-family="Helvetica,sans-Serif" font-size="10.00"> account_key_pair</text>
<text text-anchor="middle" x="1260" y="-285.53" font-family="Helvetica,sans-Serif" font-size="10.00">service_key</text>
</g>
<!-- Node8 -->
<g id="node8" class="node">
<title>Node8</title>
<g id="a_node8"><a xlink:href="classcrypto_1_1KeyPair.html" target="_top" xlink:title=" ">
<polygon fill="white" stroke="black" points="881,-279.03 881,-298.03 970,-298.03 970,-279.03 881,-279.03"/>
<text text-anchor="middle" x="925.5" y="-286.03" font-family="Helvetica,sans-Serif" font-size="10.00">crypto::KeyPair</text>
</a>
</g>
</g>
<!-- Node8&#45;&gt;Node7 -->
<g id="edge9" class="edge">
<title>Node8&#45;&gt;Node7</title>
<path fill="none" stroke="#9a32cd" stroke-dasharray="5,2" d="M980.45,-288.53C1006.93,-288.53 1039.03,-288.53 1066.81,-288.53"/>
<polygon fill="#9a32cd" stroke="#9a32cd" points="980.23,-285.03 970.23,-288.53 980.23,-292.03 980.23,-285.03"/>
<text text-anchor="middle" x="1024.5" y="-291.53" font-family="Helvetica,sans-Serif" font-size="10.00"> ptr</text>
</g>
<!-- Node9&#45;&gt;Node4 -->
<g id="edge10" class="edge">
<title>Node9&#45;&gt;Node4</title>
<path fill="none" stroke="#9a32cd" stroke-dasharray="5,2" d="M620.08,-39.44C675.06,-46.93 753.18,-55.53 822,-55.53 822,-55.53 822,-55.53 1133.5,-55.53 1241.71,-55.53 1331.27,-180.68 1354.9,-216.85"/>
<polygon fill="#9a32cd" stroke="#9a32cd" points="620.48,-35.96 610.09,-38.05 619.51,-42.89 620.48,-35.96"/>
<text text-anchor="middle" x="925.5" y="-58.53" font-family="Helvetica,sans-Serif" font-size="10.00"> nonces</text>
</g>
<!-- Node10 -->
<g id="node10" class="node">
<title>Node10</title>
<g id="a_node10"><a xlink:title=" ">
<polygon fill="white" stroke="black" points="1098,-235.03 1098,-254.03 1167,-254.03 1167,-235.03 1098,-235.03"/>
<text text-anchor="middle" x="1132.5" y="-242.03" font-family="Helvetica,sans-Serif" font-size="10.00">std::mutex</text>
</a>
</g>
</g>
<!-- Node10&#45;&gt;Node4 -->
<g id="edge12" class="edge">
<title>Node10&#45;&gt;Node4</title>
<path fill="none" stroke="#9a32cd" stroke-dasharray="5,2" d="M1177.24,-241.07C1219.12,-237.76 1281.71,-232.81 1321.95,-229.62"/>
<polygon fill="#9a32cd" stroke="#9a32cd" points="1176.76,-237.6 1167.07,-241.88 1177.31,-244.58 1176.76,-237.6"/>
<text text-anchor="middle" x="1260" y="-251.53" font-family="Helvetica,sans-Serif" font-size="10.00"> orders_lock</text>
<text text-anchor="middle" x="1260" y="-240.53" font-family="Helvetica,sans-Serif" font-size="10.00">req_lock</text>
</g>
<!-- Node11 -->
<g id="node11" class="node">
<title>Node11</title>
<g id="a_node11"><a xlink:title=" ">
<polygon fill="white" stroke="black" points="1069,-185.53 1069,-215.53 1196,-215.53 1196,-185.53 1069,-185.53"/>
<text text-anchor="start" x="1077" y="-203.53" font-family="Helvetica,sans-Serif" font-size="10.00">std::list&lt; ACME::Client</text>
<text text-anchor="middle" x="1132.5" y="-192.53" font-family="Helvetica,sans-Serif" font-size="10.00">::Order &gt;</text>
</a>
</g>
</g>
<!-- Node11&#45;&gt;Node4 -->
<g id="edge13" class="edge">
<title>Node11&#45;&gt;Node4</title>
<path fill="none" stroke="#9a32cd" stroke-dasharray="5,2" d="M1206.1,-205.26C1236.44,-207.67 1272.01,-211.05 1304,-215.53 1309.79,-216.34 1315.88,-217.35 1321.84,-218.43"/>
<polygon fill="#9a32cd" stroke="#9a32cd" points="1206.27,-201.77 1196.03,-204.49 1205.73,-208.75 1206.27,-201.77"/>
<text text-anchor="middle" x="1260" y="-218.53" font-family="Helvetica,sans-Serif" font-size="10.00"> active_orders</text>
</g>
<!-- Node12&#45;&gt;Node11 -->
<g id="edge14" class="edge">
<title>Node12&#45;&gt;Node11</title>
<path fill="none" stroke="#9a32cd" stroke-dasharray="5,2" d="M992.2,-223.64C1016.78,-219.56 1044.61,-214.94 1068.9,-210.92"/>
<polygon fill="#9a32cd" stroke="#9a32cd" points="991.54,-220.2 982.25,-225.29 992.68,-227.1 991.54,-220.2"/>
<text text-anchor="middle" x="1024.5" y="-225.53" font-family="Helvetica,sans-Serif" font-size="10.00"> elements</text>
</g>
<!-- Node13&#45;&gt;Node12 -->
<g id="edge16" class="edge">
<title>Node13&#45;&gt;Node12</title>
<path fill="none" stroke="#9a32cd" stroke-dasharray="5,2" d="M611.9,-250.5C672.99,-247.53 768.36,-242.83 851,-238.53 856.74,-238.23 862.74,-237.92 868.72,-237.6"/>
<polygon fill="#9a32cd" stroke="#9a32cd" points="611.47,-247.01 601.65,-250.99 611.81,-254 611.47,-247.01"/>
<text text-anchor="middle" x="702.5" y="-252.53" font-family="Helvetica,sans-Serif" font-size="10.00"> authorizations</text>
</g>
<!-- Node14&#45;&gt;Node12 -->
<g id="edge18" class="edge">
<title>Node14&#45;&gt;Node12</title>
<path fill="none" stroke="#9a32cd" stroke-dasharray="5,2" d="M787.03,-214.01C814.33,-218.08 843.97,-222.51 868.71,-226.2"/>
<polygon fill="#9a32cd" stroke="#9a32cd" points="787.5,-210.54 777.09,-212.52 786.46,-217.46 787.5,-210.54"/>
<text text-anchor="middle" x="823" y="-226.53" font-family="Helvetica,sans-Serif" font-size="10.00"> challenges</text>
</g>
<!-- Node15&#45;&gt;Node14 -->
<g id="edge20" class="edge">
<title>Node15&#45;&gt;Node14</title>
<path fill="none" stroke="#9a32cd" stroke-dasharray="5,2" d="M475.07,-176.72C515.22,-180.62 565.3,-185.62 610,-190.53 615.73,-191.16 621.65,-191.83 627.6,-192.52"/>
<polygon fill="#9a32cd" stroke="#9a32cd" points="475.38,-173.24 465.09,-175.76 474.7,-180.21 475.38,-173.24"/>
<text text-anchor="middle" x="548" y="-193.53" font-family="Helvetica,sans-Serif" font-size="10.00"> elements</text>
</g>
</g>
</svg>
        <g id="navigator" transform="translate(0 0)" fill="#404254">
                <rect fill="#f2f5e9" fill-opacity="0.5" stroke="#606060" stroke-width=".5" x="0" y="0" width="60" height="60"/>
                <use id="zoomplus" xlink:href="#zoomPlus" x="17" y="9" onmousedown="handleZoom(evt,'in')"/>
                <use id="zoomminus" xlink:href="#zoomMin" x="42" y="9" onmousedown="handleZoom(evt,'out')"/>
                <use id="reset" xlink:href="#resetDef" x="30" y="36" onmousedown="handleReset()"/>
                <g id="arrowUp" xlink:href="#dirArrow" transform="translate(30 24)" onmousedown="handlePan(0,-1)">
                  <use xlink:href="#rim" fill="#404040">
                        <set attributeName="fill" to="#808080" begin="arrowUp.mouseover" end="arrowUp.mouseout"/>
                  </use>
                  <path fill="none" stroke="white" stroke-width="1.5" d="M0,-3.0v7 M-2.5,-0.5L0,-3.0L2.5,-0.5"/>
                </g>
                <g id="arrowRight" xlink:href="#dirArrow" transform="rotate(90) translate(36 -43)" onmousedown="handlePan(1,0)">
                  <use xlink:href="#rim" fill="#404040">
                        <set attributeName="fill" to="#808080" begin="arrowRight.mouseover" end="arrowRight.mouseout"/>
                  </use>
                  <path fill="none" stroke="white" stroke-width="1.5" d="M0,-3.0v7 M-2.5,-0.5L0,-3.0L2.5,-0.5"/>
                </g>
                <g id="arrowDown" xlink:href="#dirArrow" transform="rotate(180) translate(-30 -48)" onmousedown="handlePan(0,1)">
                  <use xlink:href="#rim" fill="#404040">
                        <set attributeName="fill" to="#808080" begin="arrowDown.mouseover" end="arrowDown.mouseout"/>
                  </use>
                  <path fill="none" stroke="white" stroke-width="1.5" d="M0,-3.0v7 M-2.5,-0.5L0,-3.0L2.5,-0.5"/>
                </g>
                <g id="arrowLeft" xlink:href="#dirArrow" transform="rotate(270) translate(-36 17)" onmousedown="handlePan(-1,0)">
                  <use xlink:href="#rim" fill="#404040">
                        <set attributeName="fill" to="#808080" begin="arrowLeft.mouseover" end="arrowLeft.mouseout"/>
                  </use>
                  <path fill="none" stroke="white" stroke-width="1.5" d="M0,-3.0v7 M-2.5,-0.5L0,-3.0L2.5,-0.5"/>
                </g>
        </g>
        <svg viewBox="0 0 15 15" width="100%" height="30px" preserveAspectRatio="xMaxYMin meet">
         <g id="arrow_out" transform="scale(0.3 0.3)">
          <a xlink:href="structACME_1_1Client_1_1FinalizationWaitMsg__coll__graph_org.svg" target="_base">
           <rect id="button" ry="5" rx="5" y="6" x="6" height="38" width="38"
                fill="#f2f5e9" fill-opacity="0.5" stroke="#606060" stroke-width="1.0"/>
           <path id="arrow"
             d="M 11.500037,31.436501 C 11.940474,20.09759 22.043105,11.32322 32.158766,21.979434 L 37.068811,17.246167 C 37.068811,17.246167 37.088388,32 37.088388,32 L 22.160133,31.978069 C 22.160133,31.978069 26.997745,27.140456 26.997745,27.140456 C 18.528582,18.264221 13.291696,25.230495 11.500037,31.436501 z"
             style="fill:#404040;"/>
          </a>
         </g>
        </svg>
</svg>
