<?xml version="1.0" encoding="UTF-8" standalone="no"?>
<!DOCTYPE svg PUBLIC "-//W3C//DTD SVG 1.1//EN"
 "http://www.w3.org/Graphics/SVG/1.1/DTD/svg11.dtd">
<!-- Generated by graphviz version 2.43.0 (0)
 -->
<!-- Title: host::CCHostConfig::Memory Pages: 1 -->
<svg width="160pt" height="320pt"
 viewBox="0.00 0.00 160.00 320.00" xmlns="http://www.w3.org/2000/svg" xmlns:xlink="http://www.w3.org/1999/xlink">
<g id="graph0" class="graph" transform="scale(1 1) rotate(0) translate(4 316)">
<title>host::CCHostConfig::Memory</title>
<polygon fill="white" stroke="transparent" points="-4,4 -4,-316 156,-316 156,4 -4,4"/>
<!-- Node1 -->
<g id="node1" class="node">
<title>Node1</title>
<g id="a_node1"><a xlink:title=" ">
<polygon fill="#bfbfbf" stroke="black" points="0,-0.5 0,-30.5 110,-30.5 110,-0.5 0,-0.5"/>
<text text-anchor="start" x="8" y="-18.5" font-family="Helvetica,sans-Serif" font-size="10.00">host::CCHostConfig</text>
<text text-anchor="middle" x="55" y="-7.5" font-family="Helvetica,sans-Serif" font-size="10.00">::Memory</text>
</a>
</g>
</g>
<!-- Node2 -->
<g id="node2" class="node">
<title>Node2</title>
<g id="a_node2"><a xlink:href="structds_1_1SizeString.html" target="_top" xlink:title=" ">
<polygon fill="white" stroke="black" points="13.5,-100.5 13.5,-119.5 96.5,-119.5 96.5,-100.5 13.5,-100.5"/>
<text text-anchor="middle" x="55" y="-107.5" font-family="Helvetica,sans-Serif" font-size="10.00">ds::SizeString</text>
</a>
</g>
</g>
<!-- Node2&#45;&gt;Node1 -->
<g id="edge1" class="edge">
<title>Node2&#45;&gt;Node1</title>
<path fill="none" stroke="#9a32cd" stroke-dasharray="5,2" d="M55,-90.29C55,-72.67 55,-46.67 55,-30.7"/>
<polygon fill="#9a32cd" stroke="#9a32cd" points="51.5,-90.46 55,-100.46 58.5,-90.46 51.5,-90.46"/>
<text text-anchor="middle" x="103.5" y="-74" font-family="Helvetica,sans-Serif" font-size="10.00"> circuit_size</text>
<text text-anchor="middle" x="103.5" y="-63" font-family="Helvetica,sans-Serif" font-size="10.00">max_fragment_size</text>
<text text-anchor="middle" x="103.5" y="-52" font-family="Helvetica,sans-Serif" font-size="10.00">max_msg_size</text>
</g>
<!-- Node3 -->
<g id="node3" class="node">
<title>Node3</title>
<g id="a_node3"><a xlink:href="structds_1_1UnitString.html" target="_top" xlink:title=" ">
<polygon fill="white" stroke="black" points="13.5,-157.5 13.5,-176.5 96.5,-176.5 96.5,-157.5 13.5,-157.5"/>
<text text-anchor="middle" x="55" y="-164.5" font-family="Helvetica,sans-Serif" font-size="10.00">ds::UnitString</text>
</a>
</g>
</g>
<!-- Node3&#45;&gt;Node2 -->
<g id="edge2" class="edge">
<title>Node3&#45;&gt;Node2</title>
<path fill="none" stroke="midnightblue" d="M55,-147.12C55,-137.82 55,-127.06 55,-119.71"/>
<polygon fill="midnightblue" stroke="midnightblue" points="51.5,-147.41 55,-157.41 58.5,-147.41 51.5,-147.41"/>
</g>
<!-- Node4 -->
<g id="node4" class="node">
<title>Node4</title>
<g id="a_node4"><a xlink:title=" ">
<polygon fill="white" stroke="black" points="22.5,-224.5 22.5,-243.5 87.5,-243.5 87.5,-224.5 22.5,-224.5"/>
<text text-anchor="middle" x="55" y="-231.5" font-family="Helvetica,sans-Serif" font-size="10.00">std::string</text>
</a>
</g>
</g>
<!-- Node4&#45;&gt;Node3 -->
<g id="edge3" class="edge">
<title>Node4&#45;&gt;Node3</title>
<path fill="none" stroke="#9a32cd" stroke-dasharray="5,2" d="M55,-214.04C55,-201.67 55,-186.12 55,-176.63"/>
<polygon fill="#9a32cd" stroke="#9a32cd" points="51.5,-214.23 55,-224.23 58.5,-214.23 51.5,-214.23"/>
<text text-anchor="middle" x="63" y="-198" font-family="Helvetica,sans-Serif" font-size="10.00"> str</text>
</g>
<!-- Node5 -->
<g id="node5" class="node">
<title>Node5</title>
<g id="a_node5"><a xlink:title=" ">
<polygon fill="white" stroke="black" points="3,-281.5 3,-311.5 107,-311.5 107,-281.5 3,-281.5"/>
<text text-anchor="start" x="11" y="-299.5" font-family="Helvetica,sans-Serif" font-size="10.00">std::basic_string&lt;</text>
<text text-anchor="middle" x="55" y="-288.5" font-family="Helvetica,sans-Serif" font-size="10.00"> Char &gt;</text>
</a>
</g>
</g>
<!-- Node5&#45;&gt;Node4 -->
<g id="edge4" class="edge">
<title>Node5&#45;&gt;Node4</title>
<path fill="none" stroke="midnightblue" d="M55,-271.35C55,-261.51 55,-250.78 55,-243.54"/>
<polygon fill="midnightblue" stroke="midnightblue" points="51.5,-271.47 55,-281.47 58.5,-271.47 51.5,-271.47"/>
</g>
</g>
</svg>
