<?xml version="1.0" encoding="UTF-8" standalone="no"?>
<!DOCTYPE svg PUBLIC "-//W3C//DTD SVG 1.1//EN"
 "http://www.w3.org/Graphics/SVG/1.1/DTD/svg11.dtd">
<!-- Generated by graphviz version 2.43.0 (0)
 -->
<!-- Title: StartupConfig Pages: 1 -->
<svg width="2044pt" height="436pt"
 viewBox="0.00 0.00 2044.00 435.80" xmlns="http://www.w3.org/2000/svg" xmlns:xlink="http://www.w3.org/1999/xlink">
<g id="graph0" class="graph" transform="scale(1 1) rotate(0) translate(4 431.8)">
<title>StartupConfig</title>
<polygon fill="white" stroke="transparent" points="-4,4 -4,-431.8 2040,-431.8 2040,4 -4,4"/>
<!-- Node1 -->
<g id="node1" class="node">
<title>Node1</title>
<g id="a_node1"><a xlink:title=" ">
<polygon fill="#bfbfbf" stroke="black" points="1953,-250.3 1953,-269.3 2036,-269.3 2036,-250.3 1953,-250.3"/>
<text text-anchor="middle" x="1994.5" y="-257.3" font-family="Helvetica,sans-Serif" font-size="10.00">StartupConfig</text>
</a>
</g>
</g>
<!-- Node2 -->
<g id="node2" class="node">
<title>Node2</title>
<g id="a_node2"><a xlink:href="structCCFConfig.html" target="_top" xlink:title=" ">
<polygon fill="white" stroke="black" points="1779.5,-131.3 1779.5,-150.3 1846.5,-150.3 1846.5,-131.3 1779.5,-131.3"/>
<text text-anchor="middle" x="1813" y="-138.3" font-family="Helvetica,sans-Serif" font-size="10.00">CCFConfig</text>
</a>
</g>
</g>
<!-- Node2&#45;&gt;Node1 -->
<g id="edge1" class="edge">
<title>Node2&#45;&gt;Node1</title>
<path fill="none" stroke="midnightblue" d="M1837.13,-156.13C1874.72,-181.05 1948,-229.63 1979.05,-250.22"/>
<polygon fill="midnightblue" stroke="midnightblue" points="1838.65,-152.94 1828.39,-150.34 1834.79,-158.78 1838.65,-152.94"/>
</g>
<!-- Node3 -->
<g id="node3" class="node">
<title>Node3</title>
<g id="a_node3"><a xlink:href="structconsensus_1_1Configuration.html" target="_top" xlink:title=" ">
<polygon fill="white" stroke="black" points="1473.5,-93.3 1473.5,-112.3 1612.5,-112.3 1612.5,-93.3 1473.5,-93.3"/>
<text text-anchor="middle" x="1543" y="-100.3" font-family="Helvetica,sans-Serif" font-size="10.00">consensus::Configuration</text>
</a>
</g>
</g>
<!-- Node3&#45;&gt;Node2 -->
<g id="edge2" class="edge">
<title>Node3&#45;&gt;Node2</title>
<path fill="none" stroke="#9a32cd" stroke-dasharray="5,2" d="M1622.71,-111.4C1656.16,-115.34 1695.55,-120.34 1731,-125.8 1746.97,-128.26 1764.63,-131.47 1779.37,-134.29"/>
<polygon fill="#9a32cd" stroke="#9a32cd" points="1622.86,-107.9 1612.53,-110.22 1622.05,-114.85 1622.86,-107.9"/>
<text text-anchor="middle" x="1685.5" y="-128.8" font-family="Helvetica,sans-Serif" font-size="10.00"> consensus</text>
</g>
<!-- Node4 -->
<g id="node4" class="node">
<title>Node4</title>
<g id="a_node4"><a xlink:href="structds_1_1TimeString.html" target="_top" xlink:title=" ">
<polygon fill="white" stroke="black" points="1212,-172.3 1212,-191.3 1299,-191.3 1299,-172.3 1212,-172.3"/>
<text text-anchor="middle" x="1255.5" y="-179.3" font-family="Helvetica,sans-Serif" font-size="10.00">ds::TimeString</text>
</a>
</g>
</g>
<!-- Node4&#45;&gt;Node3 -->
<g id="edge3" class="edge">
<title>Node4&#45;&gt;Node3</title>
<path fill="none" stroke="#9a32cd" stroke-dasharray="5,2" d="M1275.14,-165.7C1291.76,-152.33 1317.36,-134.05 1343,-124.8 1384.69,-109.75 1434.21,-104.24 1473.43,-102.49"/>
<polygon fill="#9a32cd" stroke="#9a32cd" points="1272.79,-163.11 1267.31,-172.18 1277.25,-168.5 1272.79,-163.11"/>
<text text-anchor="middle" x="1394.5" y="-138.8" font-family="Helvetica,sans-Serif" font-size="10.00"> election_timeout</text>
<text text-anchor="middle" x="1394.5" y="-127.8" font-family="Helvetica,sans-Serif" font-size="10.00">message_timeout</text>
</g>
<!-- Node14 -->
<g id="node14" class="node">
<title>Node14</title>
<g id="a_node14"><a xlink:href="structCCFConfig_1_1LedgerSignatures.html" target="_top" xlink:title=" ">
<polygon fill="white" stroke="black" points="1464,-169.3 1464,-188.3 1622,-188.3 1622,-169.3 1464,-169.3"/>
<text text-anchor="middle" x="1543" y="-176.3" font-family="Helvetica,sans-Serif" font-size="10.00">CCFConfig::LedgerSignatures</text>
</a>
</g>
</g>
<!-- Node4&#45;&gt;Node14 -->
<g id="edge19" class="edge">
<title>Node4&#45;&gt;Node14</title>
<path fill="none" stroke="#9a32cd" stroke-dasharray="5,2" d="M1309.3,-181.24C1352.68,-180.79 1414.77,-180.14 1463.9,-179.62"/>
<polygon fill="#9a32cd" stroke="#9a32cd" points="1309.2,-177.75 1299.24,-181.35 1309.28,-184.74 1309.2,-177.75"/>
<text text-anchor="middle" x="1394.5" y="-183.8" font-family="Helvetica,sans-Serif" font-size="10.00"> delay</text>
</g>
<!-- Node15 -->
<g id="node15" class="node">
<title>Node15</title>
<g id="a_node15"><a xlink:href="structCCFConfig_1_1JWT.html" target="_top" xlink:title=" ">
<polygon fill="white" stroke="black" points="1497,-131.3 1497,-150.3 1589,-150.3 1589,-131.3 1497,-131.3"/>
<text text-anchor="middle" x="1543" y="-138.3" font-family="Helvetica,sans-Serif" font-size="10.00">CCFConfig::JWT</text>
</a>
</g>
</g>
<!-- Node4&#45;&gt;Node15 -->
<g id="edge21" class="edge">
<title>Node4&#45;&gt;Node15</title>
<path fill="none" stroke="#9a32cd" stroke-dasharray="5,2" d="M1309.12,-170.81C1320.28,-168.66 1332.01,-166.54 1343,-164.8 1395.59,-156.47 1456.4,-149.53 1496.82,-145.28"/>
<polygon fill="#9a32cd" stroke="#9a32cd" points="1308.21,-167.42 1299.07,-172.78 1309.55,-174.29 1308.21,-167.42"/>
<text text-anchor="middle" x="1394.5" y="-167.8" font-family="Helvetica,sans-Serif" font-size="10.00"> key_refresh_interval</text>
</g>
<!-- Node22 -->
<g id="node22" class="node">
<title>Node22</title>
<g id="a_node22"><a xlink:href="structStartupConfig_1_1Join.html" target="_top" xlink:title=" ">
<polygon fill="white" stroke="black" points="1759.5,-217.3 1759.5,-236.3 1866.5,-236.3 1866.5,-217.3 1759.5,-217.3"/>
<text text-anchor="middle" x="1813" y="-224.3" font-family="Helvetica,sans-Serif" font-size="10.00">StartupConfig::Join</text>
</a>
</g>
</g>
<!-- Node4&#45;&gt;Node22 -->
<g id="edge31" class="edge">
<title>Node4&#45;&gt;Node22</title>
<path fill="none" stroke="#9a32cd" stroke-dasharray="5,2" d="M1309.12,-191.13C1320.28,-192.88 1332.01,-194.55 1343,-195.8 1493.6,-212.93 1672.57,-221.52 1759.45,-224.95"/>
<polygon fill="#9a32cd" stroke="#9a32cd" points="1309.5,-187.64 1299.07,-189.51 1308.38,-194.56 1309.5,-187.64"/>
<text text-anchor="middle" x="1543" y="-220.8" font-family="Helvetica,sans-Serif" font-size="10.00"> retry_timeout</text>
</g>
<!-- Node5 -->
<g id="node5" class="node">
<title>Node5</title>
<g id="a_node5"><a xlink:href="structds_1_1UnitString.html" target="_top" xlink:title=" ">
<polygon fill="white" stroke="black" points="803,-186.3 803,-205.3 886,-205.3 886,-186.3 803,-186.3"/>
<text text-anchor="middle" x="844.5" y="-193.3" font-family="Helvetica,sans-Serif" font-size="10.00">ds::UnitString</text>
</a>
</g>
</g>
<!-- Node5&#45;&gt;Node4 -->
<g id="edge4" class="edge">
<title>Node5&#45;&gt;Node4</title>
<path fill="none" stroke="midnightblue" d="M896.22,-194.06C977.59,-191.28 1135.86,-185.86 1211.81,-183.26"/>
<polygon fill="midnightblue" stroke="midnightblue" points="896.09,-190.57 886.21,-194.41 896.33,-197.56 896.09,-190.57"/>
</g>
<!-- Node6 -->
<g id="node6" class="node">
<title>Node6</title>
<g id="a_node6"><a xlink:title=" ">
<polygon fill="white" stroke="black" points="376,-130.3 376,-149.3 441,-149.3 441,-130.3 376,-130.3"/>
<text text-anchor="middle" x="408.5" y="-137.3" font-family="Helvetica,sans-Serif" font-size="10.00">std::string</text>
</a>
</g>
</g>
<!-- Node6&#45;&gt;Node1 -->
<g id="edge23" class="edge">
<title>Node6&#45;&gt;Node1</title>
<path fill="none" stroke="#9a32cd" stroke-dasharray="5,2" d="M425.27,-157.08C466.88,-200.71 584.95,-311.8 708,-311.8 708,-311.8 708,-311.8 1814,-311.8 1874.35,-311.8 1941.76,-284.35 1974.11,-269.34"/>
<polygon fill="#9a32cd" stroke="#9a32cd" points="427.59,-154.44 418.2,-149.54 422.48,-159.23 427.59,-154.44"/>
<text text-anchor="middle" x="1255.5" y="-314.8" font-family="Helvetica,sans-Serif" font-size="10.00"> startup_host_time</text>
</g>
<!-- Node6&#45;&gt;Node5 -->
<g id="edge5" class="edge">
<title>Node6&#45;&gt;Node5</title>
<path fill="none" stroke="#9a32cd" stroke-dasharray="5,2" d="M442.48,-152.99C462.54,-160.41 488.86,-169.11 513,-173.8 616.02,-193.82 740.12,-196.48 802.89,-196.35"/>
<polygon fill="#9a32cd" stroke="#9a32cd" points="443.48,-149.62 432.89,-149.36 441.01,-156.17 443.48,-149.62"/>
<text text-anchor="middle" x="567" y="-190.8" font-family="Helvetica,sans-Serif" font-size="10.00"> str</text>
</g>
<!-- Node10 -->
<g id="node10" class="node">
<title>Node10</title>
<g id="a_node10"><a xlink:href="structccf_1_1NodeInfoNetwork__v2_1_1NetInterface.html" target="_top" xlink:title="Network interface description.">
<polygon fill="white" stroke="black" points="648,-127.8 648,-157.8 770,-157.8 770,-127.8 648,-127.8"/>
<text text-anchor="start" x="656" y="-145.8" font-family="Helvetica,sans-Serif" font-size="10.00">ccf::NodeInfoNetwork</text>
<text text-anchor="middle" x="709" y="-134.8" font-family="Helvetica,sans-Serif" font-size="10.00">_v2::NetInterface</text>
</a>
</g>
</g>
<!-- Node6&#45;&gt;Node10 -->
<g id="edge10" class="edge">
<title>Node6&#45;&gt;Node10</title>
<path fill="none" stroke="#9a32cd" stroke-dasharray="5,2" d="M451.04,-139.77C493.69,-139.8 561.98,-139.98 621,-140.8 629.61,-140.92 638.7,-141.08 647.63,-141.27"/>
<polygon fill="#9a32cd" stroke="#9a32cd" points="451.04,-136.27 441.03,-139.77 451.03,-143.27 451.04,-136.27"/>
<text text-anchor="middle" x="567" y="-165.8" font-family="Helvetica,sans-Serif" font-size="10.00"> bind_address</text>
<text text-anchor="middle" x="567" y="-154.8" font-family="Helvetica,sans-Serif" font-size="10.00">protocol</text>
<text text-anchor="middle" x="567" y="-143.8" font-family="Helvetica,sans-Serif" font-size="10.00">published_address</text>
</g>
<!-- Node11 -->
<g id="node11" class="node">
<title>Node11</title>
<g id="a_node11"><a xlink:title=" ">
<polygon fill="white" stroke="black" points="920.5,-86.8 920.5,-116.8 1066.5,-116.8 1066.5,-86.8 920.5,-86.8"/>
<text text-anchor="start" x="928.5" y="-104.8" font-family="Helvetica,sans-Serif" font-size="10.00">std::map&lt; RpcInterfaceID,</text>
<text text-anchor="middle" x="993.5" y="-93.8" font-family="Helvetica,sans-Serif" font-size="10.00"> NetInterface &gt;</text>
</a>
</g>
</g>
<!-- Node6&#45;&gt;Node11 -->
<g id="edge12" class="edge">
<title>Node6&#45;&gt;Node11</title>
<path fill="none" stroke="#9a32cd" stroke-dasharray="5,2" d="M451.17,-132.44C497.02,-124.69 573,-112.94 639,-107.8 736.15,-100.23 848.75,-99.74 920.27,-100.46"/>
<polygon fill="#9a32cd" stroke="#9a32cd" points="450.57,-128.99 441.3,-134.12 451.74,-135.89 450.57,-128.99"/>
<text text-anchor="middle" x="709" y="-110.8" font-family="Helvetica,sans-Serif" font-size="10.00"> keys</text>
</g>
<!-- Node12 -->
<g id="node12" class="node">
<title>Node12</title>
<g id="a_node12"><a xlink:href="structCCFConfig_1_1NodeCertificateInfo.html" target="_top" xlink:title=" ">
<polygon fill="white" stroke="black" points="910,-17.3 910,-36.3 1077,-36.3 1077,-17.3 910,-17.3"/>
<text text-anchor="middle" x="993.5" y="-24.3" font-family="Helvetica,sans-Serif" font-size="10.00">CCFConfig::NodeCertificateInfo</text>
</a>
</g>
</g>
<!-- Node6&#45;&gt;Node12 -->
<g id="edge15" class="edge">
<title>Node6&#45;&gt;Node12</title>
<path fill="none" stroke="#9a32cd" stroke-dasharray="5,2" d="M424.29,-122.51C442.87,-101.94 476.75,-68.09 513,-49.8 656.98,22.83 857.25,-1.19 946.46,-17.25"/>
<polygon fill="#9a32cd" stroke="#9a32cd" points="421.51,-120.37 417.51,-130.18 426.76,-125 421.51,-120.37"/>
<text text-anchor="middle" x="709" y="-12.8" font-family="Helvetica,sans-Serif" font-size="10.00"> subject_name</text>
</g>
<!-- Node13 -->
<g id="node13" class="node">
<title>Node13</title>
<g id="a_node13"><a xlink:title=" ">
<polygon fill="white" stroke="black" points="639,-42.3 639,-61.3 779,-61.3 779,-42.3 639,-42.3"/>
<text text-anchor="middle" x="709" y="-49.3" font-family="Helvetica,sans-Serif" font-size="10.00">std::vector&lt; std::string &gt;</text>
</a>
</g>
</g>
<!-- Node6&#45;&gt;Node13 -->
<g id="edge17" class="edge">
<title>Node6&#45;&gt;Node13</title>
<path fill="none" stroke="#9a32cd" stroke-dasharray="5,2" d="M428.21,-123.77C447.9,-107.9 480.49,-84.33 513,-72.8 553.11,-58.57 600.54,-53.23 638.58,-51.49"/>
<polygon fill="#9a32cd" stroke="#9a32cd" points="425.84,-121.19 420.36,-130.25 430.3,-126.59 425.84,-121.19"/>
<text text-anchor="middle" x="567" y="-75.8" font-family="Helvetica,sans-Serif" font-size="10.00"> elements</text>
</g>
<!-- Node17 -->
<g id="node17" class="node">
<title>Node17</title>
<g id="a_node17"><a xlink:href="structStartupConfig_1_1Start.html" target="_top" xlink:title=" ">
<polygon fill="white" stroke="black" points="653,-362.3 653,-381.3 765,-381.3 765,-362.3 653,-362.3"/>
<text text-anchor="middle" x="709" y="-369.3" font-family="Helvetica,sans-Serif" font-size="10.00">StartupConfig::Start</text>
</a>
</g>
</g>
<!-- Node6&#45;&gt;Node17 -->
<g id="edge28" class="edge">
<title>Node6&#45;&gt;Node17</title>
<path fill="none" stroke="#9a32cd" stroke-dasharray="5,2" d="M414.89,-159.33C426.32,-197.03 456.72,-279.91 513,-322.8 534.8,-339.41 603.2,-354.07 652.85,-362.93"/>
<polygon fill="#9a32cd" stroke="#9a32cd" points="418.2,-158.19 412.05,-149.57 411.48,-160.15 418.2,-158.19"/>
<text text-anchor="middle" x="567" y="-358.8" font-family="Helvetica,sans-Serif" font-size="10.00"> constitution</text>
</g>
<!-- Node7 -->
<g id="node7" class="node">
<title>Node7</title>
<g id="a_node7"><a xlink:title=" ">
<polygon fill="white" stroke="black" points="133,-124.8 133,-154.8 237,-154.8 237,-124.8 133,-124.8"/>
<text text-anchor="start" x="141" y="-142.8" font-family="Helvetica,sans-Serif" font-size="10.00">std::basic_string&lt;</text>
<text text-anchor="middle" x="185" y="-131.8" font-family="Helvetica,sans-Serif" font-size="10.00"> Char &gt;</text>
</a>
</g>
</g>
<!-- Node7&#45;&gt;Node6 -->
<g id="edge6" class="edge">
<title>Node7&#45;&gt;Node6</title>
<path fill="none" stroke="midnightblue" d="M247.15,-139.8C288.86,-139.8 342.4,-139.8 375.83,-139.8"/>
<polygon fill="midnightblue" stroke="midnightblue" points="247.09,-136.3 237.09,-139.8 247.09,-143.3 247.09,-136.3"/>
</g>
<!-- Node8 -->
<g id="node8" class="node">
<title>Node8</title>
<g id="a_node8"><a xlink:href="structccf_1_1NodeInfoNetwork.html" target="_top" xlink:title=" ">
<polygon fill="white" stroke="black" points="1482,-55.3 1482,-74.3 1604,-74.3 1604,-55.3 1482,-55.3"/>
<text text-anchor="middle" x="1543" y="-62.3" font-family="Helvetica,sans-Serif" font-size="10.00">ccf::NodeInfoNetwork</text>
</a>
</g>
</g>
<!-- Node8&#45;&gt;Node2 -->
<g id="edge7" class="edge">
<title>Node8&#45;&gt;Node2</title>
<path fill="none" stroke="#9a32cd" stroke-dasharray="5,2" d="M1614.49,-65.77C1651.44,-69.09 1696.14,-77.75 1731,-98.8 1742.11,-105.51 1738.29,-114.47 1749,-121.8 1757.96,-127.93 1768.94,-132.12 1779.22,-134.98"/>
<polygon fill="#9a32cd" stroke="#9a32cd" points="1614.52,-62.26 1604.28,-64.97 1613.98,-69.24 1614.52,-62.26"/>
<text text-anchor="middle" x="1685.5" y="-101.8" font-family="Helvetica,sans-Serif" font-size="10.00"> network</text>
</g>
<!-- Node9 -->
<g id="node9" class="node">
<title>Node9</title>
<g id="a_node9"><a xlink:href="structccf_1_1NodeInfoNetwork__v2.html" target="_top" xlink:title="Node network information.">
<polygon fill="white" stroke="black" points="1186,-92.3 1186,-111.3 1325,-111.3 1325,-92.3 1186,-92.3"/>
<text text-anchor="middle" x="1255.5" y="-99.3" font-family="Helvetica,sans-Serif" font-size="10.00">ccf::NodeInfoNetwork_v2</text>
</a>
</g>
</g>
<!-- Node9&#45;&gt;Node8 -->
<g id="edge8" class="edge">
<title>Node9&#45;&gt;Node8</title>
<path fill="none" stroke="midnightblue" d="M1302.21,-89.95C1315.31,-86.91 1329.65,-83.9 1343,-81.8 1389.24,-74.52 1442.05,-70.19 1481.64,-67.72"/>
<polygon fill="midnightblue" stroke="midnightblue" points="1301.39,-86.55 1292.47,-92.28 1303.01,-93.36 1301.39,-86.55"/>
</g>
<!-- Node10&#45;&gt;Node9 -->
<g id="edge9" class="edge">
<title>Node10&#45;&gt;Node9</title>
<path fill="none" stroke="#9a32cd" stroke-dasharray="5,2" d="M780.51,-144.21C814.26,-144.53 855.24,-144.39 892,-142.8 1015.1,-137.49 1046.01,-134.06 1168,-116.8 1179.17,-115.22 1191.11,-113.3 1202.44,-111.37"/>
<polygon fill="#9a32cd" stroke="#9a32cd" points="780.32,-140.71 770.28,-144.1 780.24,-147.71 780.32,-140.71"/>
<text text-anchor="middle" x="993.5" y="-144.8" font-family="Helvetica,sans-Serif" font-size="10.00"> node_to_node_interface</text>
</g>
<!-- Node10&#45;&gt;Node11 -->
<g id="edge13" class="edge">
<title>Node10&#45;&gt;Node11</title>
<path fill="none" stroke="#9a32cd" stroke-dasharray="5,2" d="M780.28,-132.6C822.96,-126.41 877.31,-118.52 920.32,-112.27"/>
<polygon fill="#9a32cd" stroke="#9a32cd" points="779.65,-129.15 770.26,-134.05 780.66,-136.08 779.65,-129.15"/>
<text text-anchor="middle" x="844.5" y="-131.8" font-family="Helvetica,sans-Serif" font-size="10.00"> elements</text>
</g>
<!-- Node11&#45;&gt;Node9 -->
<g id="edge11" class="edge">
<title>Node11&#45;&gt;Node9</title>
<path fill="none" stroke="#9a32cd" stroke-dasharray="5,2" d="M1076.81,-101.8C1111.91,-101.8 1152.41,-101.8 1185.86,-101.8"/>
<polygon fill="#9a32cd" stroke="#9a32cd" points="1076.58,-98.3 1066.58,-101.8 1076.58,-105.3 1076.58,-98.3"/>
<text text-anchor="middle" x="1131.5" y="-104.8" font-family="Helvetica,sans-Serif" font-size="10.00"> rpc_interfaces</text>
</g>
<!-- Node12&#45;&gt;Node2 -->
<g id="edge14" class="edge">
<title>Node12&#45;&gt;Node2</title>
<path fill="none" stroke="#9a32cd" stroke-dasharray="5,2" d="M1087.36,-25.24C1210.1,-24.18 1432.91,-25.71 1622,-45.8 1670.98,-51 1693.99,-33.3 1731,-65.8 1750.64,-83.05 1730.35,-103.48 1749,-121.8 1757.15,-129.8 1768.55,-134.45 1779.41,-137.15"/>
<polygon fill="#9a32cd" stroke="#9a32cd" points="1087.22,-21.74 1077.25,-25.33 1087.28,-28.74 1087.22,-21.74"/>
<text text-anchor="middle" x="1394.5" y="-35.8" font-family="Helvetica,sans-Serif" font-size="10.00"> node_certificate</text>
</g>
<!-- Node13&#45;&gt;Node12 -->
<g id="edge16" class="edge">
<title>Node13&#45;&gt;Node12</title>
<path fill="none" stroke="#9a32cd" stroke-dasharray="5,2" d="M789.49,-44.76C827.04,-41.44 871.83,-37.48 909.78,-34.12"/>
<polygon fill="#9a32cd" stroke="#9a32cd" points="788.76,-41.32 779.11,-45.68 789.38,-48.29 788.76,-41.32"/>
<text text-anchor="middle" x="844.5" y="-46.8" font-family="Helvetica,sans-Serif" font-size="10.00"> subject_alt_names</text>
</g>
<!-- Node14&#45;&gt;Node2 -->
<g id="edge18" class="edge">
<title>Node14&#45;&gt;Node2</title>
<path fill="none" stroke="#9a32cd" stroke-dasharray="5,2" d="M1632.33,-168.26C1663.55,-164.33 1698.87,-159.63 1731,-154.8 1746.95,-152.4 1764.6,-149.39 1779.34,-146.78"/>
<polygon fill="#9a32cd" stroke="#9a32cd" points="1631.84,-164.8 1622.35,-169.51 1632.71,-171.74 1631.84,-164.8"/>
<text text-anchor="middle" x="1685.5" y="-168.8" font-family="Helvetica,sans-Serif" font-size="10.00"> ledger_signatures</text>
</g>
<!-- Node15&#45;&gt;Node2 -->
<g id="edge20" class="edge">
<title>Node15&#45;&gt;Node2</title>
<path fill="none" stroke="#9a32cd" stroke-dasharray="5,2" d="M1599.31,-140.8C1653.6,-140.8 1734.59,-140.8 1779.34,-140.8"/>
<polygon fill="#9a32cd" stroke="#9a32cd" points="1599.16,-137.3 1589.16,-140.8 1599.16,-144.3 1599.16,-137.3"/>
<text text-anchor="middle" x="1685.5" y="-143.8" font-family="Helvetica,sans-Serif" font-size="10.00"> jwt</text>
</g>
<!-- Node16 -->
<g id="node16" class="node">
<title>Node16</title>
<g id="a_node16"><a xlink:title=" ">
<polygon fill="white" stroke="black" points="1480.5,-264.3 1480.5,-283.3 1605.5,-283.3 1605.5,-264.3 1480.5,-264.3"/>
<text text-anchor="middle" x="1543" y="-271.3" font-family="Helvetica,sans-Serif" font-size="10.00">std::vector&lt; uint8_t &gt;</text>
</a>
</g>
</g>
<!-- Node16&#45;&gt;Node1 -->
<g id="edge22" class="edge">
<title>Node16&#45;&gt;Node1</title>
<path fill="none" stroke="#9a32cd" stroke-dasharray="5,2" d="M1615.71,-271.57C1711.16,-268.59 1876.76,-263.44 1952.98,-261.06"/>
<polygon fill="#9a32cd" stroke="#9a32cd" points="1615.44,-268.07 1605.56,-271.88 1615.66,-275.07 1615.44,-268.07"/>
<text text-anchor="middle" x="1813" y="-269.8" font-family="Helvetica,sans-Serif" font-size="10.00"> startup_snapshot</text>
</g>
<!-- Node16&#45;&gt;Node22 -->
<g id="edge32" class="edge">
<title>Node16&#45;&gt;Node22</title>
<path fill="none" stroke="#9a32cd" stroke-dasharray="5,2" d="M1597.28,-262.21C1611.16,-259.32 1626.12,-256.33 1640,-253.8 1679.85,-246.53 1725.1,-239.47 1759.19,-234.4"/>
<polygon fill="#9a32cd" stroke="#9a32cd" points="1596.47,-258.8 1587.4,-264.28 1597.9,-265.65 1596.47,-258.8"/>
<text text-anchor="middle" x="1685.5" y="-256.8" font-family="Helvetica,sans-Serif" font-size="10.00"> service_cert</text>
</g>
<!-- Node17&#45;&gt;Node1 -->
<g id="edge24" class="edge">
<title>Node17&#45;&gt;Node1</title>
<path fill="none" stroke="#9a32cd" stroke-dasharray="5,2" d="M775.2,-369.27C832.45,-367.26 917.99,-364.8 992.5,-364.8 992.5,-364.8 992.5,-364.8 1814,-364.8 1870.5,-364.8 1887.7,-356.7 1935,-325.8 1958.33,-310.56 1978.06,-283.63 1987.51,-269.33"/>
<polygon fill="#9a32cd" stroke="#9a32cd" points="775.07,-365.77 765.2,-369.62 775.32,-372.77 775.07,-365.77"/>
<text text-anchor="middle" x="1394.5" y="-367.8" font-family="Helvetica,sans-Serif" font-size="10.00"> start</text>
</g>
<!-- Node18 -->
<g id="node18" class="node">
<title>Node18</title>
<g id="a_node18"><a xlink:title=" ">
<polygon fill="white" stroke="black" points="322,-407.3 322,-426.3 495,-426.3 495,-407.3 322,-407.3"/>
<text text-anchor="middle" x="408.5" y="-414.3" font-family="Helvetica,sans-Serif" font-size="10.00">std::vector&lt; ccf::NewMember &gt;</text>
</a>
</g>
</g>
<!-- Node18&#45;&gt;Node17 -->
<g id="edge25" class="edge">
<title>Node18&#45;&gt;Node17</title>
<path fill="none" stroke="#9a32cd" stroke-dasharray="5,2" d="M505.28,-406.93C541.63,-402.68 583.33,-397.21 621,-390.8 636.39,-388.18 653.18,-384.67 667.87,-381.38"/>
<polygon fill="#9a32cd" stroke="#9a32cd" points="504.71,-403.47 495.18,-408.09 505.51,-410.43 504.71,-403.47"/>
<text text-anchor="middle" x="567" y="-407.8" font-family="Helvetica,sans-Serif" font-size="10.00"> members</text>
</g>
<!-- Node19 -->
<g id="node19" class="node">
<title>Node19</title>
<g id="a_node19"><a xlink:href="structccf_1_1NewMember.html" target="_top" xlink:title=" ">
<polygon fill="white" stroke="black" points="136,-407.3 136,-426.3 234,-426.3 234,-407.3 136,-407.3"/>
<text text-anchor="middle" x="185" y="-414.3" font-family="Helvetica,sans-Serif" font-size="10.00">ccf::NewMember</text>
</a>
</g>
</g>
<!-- Node19&#45;&gt;Node18 -->
<g id="edge26" class="edge">
<title>Node19&#45;&gt;Node18</title>
<path fill="none" stroke="#9a32cd" stroke-dasharray="5,2" d="M244.26,-416.8C267.9,-416.8 295.69,-416.8 321.57,-416.8"/>
<polygon fill="#9a32cd" stroke="#9a32cd" points="244.06,-413.3 234.06,-416.8 244.06,-420.3 244.06,-413.3"/>
<text text-anchor="middle" x="279.5" y="-419.8" font-family="Helvetica,sans-Serif" font-size="10.00"> elements</text>
</g>
<!-- Node20 -->
<g id="node20" class="node">
<title>Node20</title>
<g id="a_node20"><a xlink:href="classcrypto_1_1Pem.html" target="_top" xlink:title=" ">
<polygon fill="white" stroke="black" points="0,-407.3 0,-426.3 75,-426.3 75,-407.3 0,-407.3"/>
<text text-anchor="middle" x="37.5" y="-414.3" font-family="Helvetica,sans-Serif" font-size="10.00">crypto::Pem</text>
</a>
</g>
</g>
<!-- Node20&#45;&gt;Node19 -->
<g id="edge27" class="edge">
<title>Node20&#45;&gt;Node19</title>
<path fill="none" stroke="#9a32cd" stroke-dasharray="5,2" d="M85.47,-416.8C101.55,-416.8 119.56,-416.8 135.74,-416.8"/>
<polygon fill="#9a32cd" stroke="#9a32cd" points="85.22,-413.3 75.22,-416.8 85.22,-420.3 85.22,-413.3"/>
<text text-anchor="middle" x="104" y="-419.8" font-family="Helvetica,sans-Serif" font-size="10.00"> cert</text>
</g>
<!-- Node21 -->
<g id="node21" class="node">
<title>Node21</title>
<g id="a_node21"><a xlink:href="structccf_1_1ServiceConfiguration.html" target="_top" xlink:title=" ">
<polygon fill="white" stroke="black" points="340,-369.3 340,-388.3 477,-388.3 477,-369.3 340,-369.3"/>
<text text-anchor="middle" x="408.5" y="-376.3" font-family="Helvetica,sans-Serif" font-size="10.00">ccf::ServiceConfiguration</text>
</a>
</g>
</g>
<!-- Node21&#45;&gt;Node17 -->
<g id="edge29" class="edge">
<title>Node21&#45;&gt;Node17</title>
<path fill="none" stroke="#9a32cd" stroke-dasharray="5,2" d="M487.39,-376.97C539.22,-375.76 606.06,-374.19 652.52,-373.1"/>
<polygon fill="#9a32cd" stroke="#9a32cd" points="487.15,-373.48 477.23,-377.21 487.31,-380.48 487.15,-373.48"/>
<text text-anchor="middle" x="567" y="-378.8" font-family="Helvetica,sans-Serif" font-size="10.00"> service_configuration</text>
</g>
<!-- Node22&#45;&gt;Node1 -->
<g id="edge30" class="edge">
<title>Node22&#45;&gt;Node1</title>
<path fill="none" stroke="#9a32cd" stroke-dasharray="5,2" d="M1876.7,-237.31C1895.47,-240.55 1916.09,-244.22 1935,-247.8 1940.81,-248.9 1946.93,-250.1 1952.94,-251.31"/>
<polygon fill="#9a32cd" stroke="#9a32cd" points="1877.22,-233.85 1866.77,-235.6 1876.04,-240.74 1877.22,-233.85"/>
<text text-anchor="middle" x="1915" y="-250.8" font-family="Helvetica,sans-Serif" font-size="10.00"> join</text>
</g>
<!-- Node23 -->
<g id="node23" class="node">
<title>Node23</title>
<g id="a_node23"><a xlink:href="structStartupConfig_1_1Recover.html" target="_top" xlink:title=" ">
<polygon fill="white" stroke="black" points="1749,-93.3 1749,-112.3 1877,-112.3 1877,-93.3 1749,-93.3"/>
<text text-anchor="middle" x="1813" y="-100.3" font-family="Helvetica,sans-Serif" font-size="10.00">StartupConfig::Recover</text>
</a>
</g>
</g>
<!-- Node23&#45;&gt;Node1 -->
<g id="edge33" class="edge">
<title>Node23&#45;&gt;Node1</title>
<path fill="none" stroke="#9a32cd" stroke-dasharray="5,2" d="M1865.63,-115.99C1869.59,-117.71 1873.42,-119.64 1877,-121.8 1932.55,-155.36 1974.44,-224.87 1988.44,-250.26"/>
<polygon fill="#9a32cd" stroke="#9a32cd" points="1866.85,-112.71 1856.26,-112.33 1864.31,-119.23 1866.85,-112.71"/>
<text text-anchor="middle" x="1915" y="-172.8" font-family="Helvetica,sans-Serif" font-size="10.00"> recover</text>
</g>
</g>
</svg>
