<?xml version="1.0" encoding="UTF-8" standalone="no"?>
<!DOCTYPE svg PUBLIC "-//W3C//DTD SVG 1.1//EN"
 "http://www.w3.org/Graphics/SVG/1.1/DTD/svg11.dtd">
<!-- Generated by graphviz version 2.43.0 (0)
 -->
<!-- Title: threading::ThreadMsg Pages: 1 -->
<svg width="137pt" height="106pt"
 viewBox="0.00 0.00 137.00 106.00" xmlns="http://www.w3.org/2000/svg" xmlns:xlink="http://www.w3.org/1999/xlink">
<g id="graph0" class="graph" transform="scale(1 1) rotate(0) translate(4 102)">
<title>threading::ThreadMsg</title>
<polygon fill="white" stroke="transparent" points="-4,4 -4,-102 133,-102 133,4 -4,4"/>
<!-- Node1 -->
<g id="node1" class="node">
<title>Node1</title>
<g id="a_node1"><a xlink:title=" ">
<polygon fill="#bfbfbf" stroke="black" points="3,-78.5 3,-97.5 126,-97.5 126,-78.5 3,-78.5"/>
<text text-anchor="middle" x="64.5" y="-85.5" font-family="Helvetica,sans-Serif" font-size="10.00">threading::ThreadMsg</text>
</a>
</g>
</g>
<!-- Node2 -->
<g id="node2" class="node">
<title>Node2</title>
<g id="a_node2"><a xlink:title=" ">
<polygon fill="white" stroke="black" points="0,-0.5 0,-30.5 129,-30.5 129,-0.5 0,-0.5"/>
<text text-anchor="start" x="8" y="-18.5" font-family="Helvetica,sans-Serif" font-size="10.00">std::atomic&lt; threading</text>
<text text-anchor="middle" x="64.5" y="-7.5" font-family="Helvetica,sans-Serif" font-size="10.00">::ThreadMsg * &gt;</text>
</a>
</g>
</g>
<!-- Node1&#45;&gt;Node2 -->
<g id="edge2" class="edge">
<title>Node1&#45;&gt;Node2</title>
<path fill="none" stroke="#9a32cd" stroke-dasharray="5,2" d="M49.06,-70.57C46.78,-67.28 44.77,-63.7 43.5,-60 40.02,-49.85 45.27,-38.97 51.39,-30.64"/>
<polygon fill="#9a32cd" stroke="#9a32cd" points="46.4,-72.85 55.41,-78.42 51.84,-68.45 46.4,-72.85"/>
<text text-anchor="middle" x="52" y="-52" font-family="Helvetica,sans-Serif" font-size="10.00"> ptr</text>
</g>
<!-- Node2&#45;&gt;Node1 -->
<g id="edge1" class="edge">
<title>Node2&#45;&gt;Node1</title>
<path fill="none" stroke="#9a32cd" stroke-dasharray="5,2" d="M64.5,-40.81C64.5,-53.83 64.5,-69.05 64.5,-78.36"/>
<polygon fill="#9a32cd" stroke="#9a32cd" points="68,-40.58 64.5,-30.58 61,-40.58 68,-40.58"/>
<text text-anchor="middle" x="77" y="-52" font-family="Helvetica,sans-Serif" font-size="10.00"> next</text>
</g>
</g>
</svg>
