<?xml version="1.0" encoding="UTF-8" standalone="no"?>
<!DOCTYPE svg PUBLIC "-//W3C//DTD SVG 1.1//EN"
 "http://www.w3.org/Graphics/SVG/1.1/DTD/svg11.dtd">
<!-- Generated by graphviz version 2.43.0 (0)
 -->
<!-- Title: ACME::ClientConfig Pages: 1 -->
<svg width="296pt" height="254pt"
 viewBox="0.00 0.00 296.00 254.00" xmlns="http://www.w3.org/2000/svg" xmlns:xlink="http://www.w3.org/1999/xlink">
<g id="graph0" class="graph" transform="scale(1 1) rotate(0) translate(4 250)">
<title>ACME::ClientConfig</title>
<polygon fill="white" stroke="transparent" points="-4,4 -4,-250 292,-250 292,4 -4,4"/>
<!-- Node1 -->
<g id="node1" class="node">
<title>Node1</title>
<g id="a_node1"><a xlink:title=" ">
<polygon fill="#bfbfbf" stroke="black" points="0,-0.5 0,-19.5 110,-19.5 110,-0.5 0,-0.5"/>
<text text-anchor="middle" x="55" y="-7.5" font-family="Helvetica,sans-Serif" font-size="10.00">ACME::ClientConfig</text>
</a>
</g>
</g>
<!-- Node2 -->
<g id="node2" class="node">
<title>Node2</title>
<g id="a_node2"><a xlink:title=" ">
<polygon fill="white" stroke="black" points="148,-85 148,-104 288,-104 288,-85 148,-85"/>
<text text-anchor="middle" x="218" y="-92" font-family="Helvetica,sans-Serif" font-size="10.00">std::vector&lt; std::string &gt;</text>
</a>
</g>
</g>
<!-- Node2&#45;&gt;Node1 -->
<g id="edge1" class="edge">
<title>Node2&#45;&gt;Node1</title>
<path fill="none" stroke="#9a32cd" stroke-dasharray="5,2" d="M191.95,-80.31C158.25,-63.26 100.52,-34.04 71.98,-19.6"/>
<polygon fill="#9a32cd" stroke="#9a32cd" points="190.67,-83.59 201.17,-84.98 193.83,-77.34 190.67,-83.59"/>
<text text-anchor="middle" x="173" y="-52" font-family="Helvetica,sans-Serif" font-size="10.00"> ca_certs</text>
<text text-anchor="middle" x="173" y="-41" font-family="Helvetica,sans-Serif" font-size="10.00">contact</text>
</g>
<!-- Node3 -->
<g id="node3" class="node">
<title>Node3</title>
<g id="a_node3"><a xlink:title=" ">
<polygon fill="white" stroke="black" points="22.5,-158.5 22.5,-177.5 87.5,-177.5 87.5,-158.5 22.5,-158.5"/>
<text text-anchor="middle" x="55" y="-165.5" font-family="Helvetica,sans-Serif" font-size="10.00">std::string</text>
</a>
</g>
</g>
<!-- Node3&#45;&gt;Node1 -->
<g id="edge4" class="edge">
<title>Node3&#45;&gt;Node1</title>
<path fill="none" stroke="#9a32cd" stroke-dasharray="5,2" d="M52.07,-148.3C50.52,-137.44 48.78,-123.48 48,-111 45.89,-77.13 51.06,-36.84 53.64,-19.56"/>
<polygon fill="#9a32cd" stroke="#9a32cd" points="48.63,-148.93 53.57,-158.3 55.55,-147.89 48.63,-148.93"/>
<text text-anchor="middle" x="93.5" y="-103" font-family="Helvetica,sans-Serif" font-size="10.00"> challenge_type</text>
<text text-anchor="middle" x="93.5" y="-92" font-family="Helvetica,sans-Serif" font-size="10.00">directory_url</text>
<text text-anchor="middle" x="93.5" y="-81" font-family="Helvetica,sans-Serif" font-size="10.00">service_dns_name</text>
</g>
<!-- Node3&#45;&gt;Node2 -->
<g id="edge2" class="edge">
<title>Node3&#45;&gt;Node2</title>
<path fill="none" stroke="#9a32cd" stroke-dasharray="5,2" d="M84.23,-154.18C117.28,-139.68 170.16,-116.49 198.52,-104.04"/>
<polygon fill="#9a32cd" stroke="#9a32cd" points="82.41,-151.15 74.66,-158.38 85.23,-157.56 82.41,-151.15"/>
<text text-anchor="middle" x="165.5" y="-132" font-family="Helvetica,sans-Serif" font-size="10.00"> elements</text>
</g>
<!-- Node4 -->
<g id="node4" class="node">
<title>Node4</title>
<g id="a_node4"><a xlink:title=" ">
<polygon fill="white" stroke="black" points="3,-215.5 3,-245.5 107,-245.5 107,-215.5 3,-215.5"/>
<text text-anchor="start" x="11" y="-233.5" font-family="Helvetica,sans-Serif" font-size="10.00">std::basic_string&lt;</text>
<text text-anchor="middle" x="55" y="-222.5" font-family="Helvetica,sans-Serif" font-size="10.00"> Char &gt;</text>
</a>
</g>
</g>
<!-- Node4&#45;&gt;Node3 -->
<g id="edge3" class="edge">
<title>Node4&#45;&gt;Node3</title>
<path fill="none" stroke="midnightblue" d="M55,-205.35C55,-195.51 55,-184.78 55,-177.54"/>
<polygon fill="midnightblue" stroke="midnightblue" points="51.5,-205.47 55,-215.47 58.5,-205.47 51.5,-205.47"/>
</g>
</g>
</svg>
