<?xml version="1.0" encoding="UTF-8" standalone="no"?>
<!DOCTYPE svg PUBLIC "-//W3C//DTD SVG 1.1//EN"
 "http://www.w3.org/Graphics/SVG/1.1/DTD/svg11.dtd">
<!-- Generated by graphviz version 2.43.0 (0)
 -->
<!-- Title: ccf::JoinNetworkNodeToNode::In Pages: 1 -->
<svg width="404pt" height="486pt"
 viewBox="0.00 0.00 403.50 486.00" xmlns="http://www.w3.org/2000/svg" xmlns:xlink="http://www.w3.org/1999/xlink">
<g id="graph0" class="graph" transform="scale(1 1) rotate(0) translate(4 482)">
<title>ccf::JoinNetworkNodeToNode::In</title>
<polygon fill="white" stroke="transparent" points="-4,4 -4,-482 399.5,-482 399.5,4 -4,4"/>
<!-- Node1 -->
<g id="node1" class="node">
<title>Node1</title>
<g id="a_node1"><a xlink:title=" ">
<polygon fill="#bfbfbf" stroke="black" points="126.5,-0.5 126.5,-19.5 298.5,-19.5 298.5,-0.5 126.5,-0.5"/>
<text text-anchor="middle" x="212.5" y="-7.5" font-family="Helvetica,sans-Serif" font-size="10.00">ccf::JoinNetworkNodeToNode::In</text>
</a>
</g>
</g>
<!-- Node2 -->
<g id="node2" class="node">
<title>Node2</title>
<g id="a_node2"><a xlink:href="structccf_1_1NodeInfoNetwork.html" target="_top" xlink:title=" ">
<polygon fill="white" stroke="black" points="26.5,-67.5 26.5,-86.5 148.5,-86.5 148.5,-67.5 26.5,-67.5"/>
<text text-anchor="middle" x="87.5" y="-74.5" font-family="Helvetica,sans-Serif" font-size="10.00">ccf::NodeInfoNetwork</text>
</a>
</g>
</g>
<!-- Node2&#45;&gt;Node1 -->
<g id="edge1" class="edge">
<title>Node2&#45;&gt;Node1</title>
<path fill="none" stroke="#9a32cd" stroke-dasharray="5,2" d="M95.12,-58.25C99.05,-51.01 104.5,-43.15 111.5,-38 123.2,-29.39 137.44,-23.53 151.51,-19.54"/>
<polygon fill="#9a32cd" stroke="#9a32cd" points="91.89,-56.89 90.71,-67.42 98.2,-59.93 91.89,-56.89"/>
<text text-anchor="middle" x="160" y="-41" font-family="Helvetica,sans-Serif" font-size="10.00"> node_info_network</text>
</g>
<!-- Node3 -->
<g id="node3" class="node">
<title>Node3</title>
<g id="a_node3"><a xlink:href="structccf_1_1NodeInfoNetwork__v2.html" target="_top" xlink:title="Node network information.">
<polygon fill="white" stroke="black" points="0,-145.5 0,-164.5 139,-164.5 139,-145.5 0,-145.5"/>
<text text-anchor="middle" x="69.5" y="-152.5" font-family="Helvetica,sans-Serif" font-size="10.00">ccf::NodeInfoNetwork_v2</text>
</a>
</g>
</g>
<!-- Node3&#45;&gt;Node2 -->
<g id="edge2" class="edge">
<title>Node3&#45;&gt;Node2</title>
<path fill="none" stroke="midnightblue" d="M73.95,-135.22C77.62,-119.7 82.68,-98.36 85.46,-86.62"/>
<polygon fill="midnightblue" stroke="midnightblue" points="70.46,-134.74 71.56,-145.28 77.28,-136.36 70.46,-134.74"/>
</g>
<!-- Node4 -->
<g id="node4" class="node">
<title>Node4</title>
<g id="a_node4"><a xlink:href="structccf_1_1NodeInfoNetwork__v2_1_1NetInterface.html" target="_top" xlink:title="Network interface description.">
<polygon fill="white" stroke="black" points="98.5,-290.5 98.5,-320.5 220.5,-320.5 220.5,-290.5 98.5,-290.5"/>
<text text-anchor="start" x="106.5" y="-308.5" font-family="Helvetica,sans-Serif" font-size="10.00">ccf::NodeInfoNetwork</text>
<text text-anchor="middle" x="159.5" y="-297.5" font-family="Helvetica,sans-Serif" font-size="10.00">_v2::NetInterface</text>
</a>
</g>
</g>
<!-- Node4&#45;&gt;Node3 -->
<g id="edge3" class="edge">
<title>Node4&#45;&gt;Node3</title>
<path fill="none" stroke="#9a32cd" stroke-dasharray="5,2" d="M110.71,-285.83C92.16,-276.06 72.99,-262.07 62.5,-243 48.48,-217.51 59.43,-181.32 65.78,-164.81"/>
<polygon fill="#9a32cd" stroke="#9a32cd" points="109.21,-288.99 119.73,-290.29 112.32,-282.72 109.21,-288.99"/>
<text text-anchor="middle" x="123" y="-225" font-family="Helvetica,sans-Serif" font-size="10.00"> node_to_node_interface</text>
</g>
<!-- Node7 -->
<g id="node7" class="node">
<title>Node7</title>
<g id="a_node7"><a xlink:title=" ">
<polygon fill="white" stroke="black" points="192.5,-212.5 192.5,-242.5 338.5,-242.5 338.5,-212.5 192.5,-212.5"/>
<text text-anchor="start" x="200.5" y="-230.5" font-family="Helvetica,sans-Serif" font-size="10.00">std::map&lt; RpcInterfaceID,</text>
<text text-anchor="middle" x="265.5" y="-219.5" font-family="Helvetica,sans-Serif" font-size="10.00"> NetInterface &gt;</text>
</a>
</g>
</g>
<!-- Node4&#45;&gt;Node7 -->
<g id="edge8" class="edge">
<title>Node4&#45;&gt;Node7</title>
<path fill="none" stroke="#9a32cd" stroke-dasharray="5,2" d="M178.44,-282.7C185.53,-275.28 193.95,-267.28 202.5,-261 212.02,-254 223.26,-247.68 233.59,-242.52"/>
<polygon fill="#9a32cd" stroke="#9a32cd" points="175.52,-280.7 171.32,-290.42 180.67,-285.45 175.52,-280.7"/>
<text text-anchor="middle" x="227" y="-264" font-family="Helvetica,sans-Serif" font-size="10.00"> elements</text>
</g>
<!-- Node5 -->
<g id="node5" class="node">
<title>Node5</title>
<g id="a_node5"><a xlink:title=" ">
<polygon fill="white" stroke="black" points="180,-390.5 180,-409.5 245,-409.5 245,-390.5 180,-390.5"/>
<text text-anchor="middle" x="212.5" y="-397.5" font-family="Helvetica,sans-Serif" font-size="10.00">std::string</text>
</a>
</g>
</g>
<!-- Node5&#45;&gt;Node4 -->
<g id="edge4" class="edge">
<title>Node5&#45;&gt;Node4</title>
<path fill="none" stroke="#9a32cd" stroke-dasharray="5,2" d="M174.31,-385.51C168.83,-381.95 163.9,-377.51 160.5,-372 150.93,-356.52 152.93,-334.8 155.78,-320.69"/>
<polygon fill="#9a32cd" stroke="#9a32cd" points="172.79,-388.66 183.24,-390.41 176.16,-382.53 172.79,-388.66"/>
<text text-anchor="middle" x="206" y="-364" font-family="Helvetica,sans-Serif" font-size="10.00"> bind_address</text>
<text text-anchor="middle" x="206" y="-353" font-family="Helvetica,sans-Serif" font-size="10.00">protocol</text>
<text text-anchor="middle" x="206" y="-342" font-family="Helvetica,sans-Serif" font-size="10.00">published_address</text>
</g>
<!-- Node5&#45;&gt;Node7 -->
<g id="edge7" class="edge">
<title>Node5&#45;&gt;Node7</title>
<path fill="none" stroke="#9a32cd" stroke-dasharray="5,2" d="M239.97,-384.63C244.49,-381.09 248.63,-376.88 251.5,-372 275.97,-330.35 271.5,-269.94 267.82,-242.73"/>
<polygon fill="#9a32cd" stroke="#9a32cd" points="237.93,-381.79 231.61,-390.29 241.85,-387.58 237.93,-381.79"/>
<text text-anchor="middle" x="283.5" y="-303" font-family="Helvetica,sans-Serif" font-size="10.00"> keys</text>
</g>
<!-- Node6 -->
<g id="node6" class="node">
<title>Node6</title>
<g id="a_node6"><a xlink:title=" ">
<polygon fill="white" stroke="black" points="160.5,-447.5 160.5,-477.5 264.5,-477.5 264.5,-447.5 160.5,-447.5"/>
<text text-anchor="start" x="168.5" y="-465.5" font-family="Helvetica,sans-Serif" font-size="10.00">std::basic_string&lt;</text>
<text text-anchor="middle" x="212.5" y="-454.5" font-family="Helvetica,sans-Serif" font-size="10.00"> Char &gt;</text>
</a>
</g>
</g>
<!-- Node6&#45;&gt;Node5 -->
<g id="edge5" class="edge">
<title>Node6&#45;&gt;Node5</title>
<path fill="none" stroke="midnightblue" d="M212.5,-437.35C212.5,-427.51 212.5,-416.78 212.5,-409.54"/>
<polygon fill="midnightblue" stroke="midnightblue" points="209,-437.47 212.5,-447.47 216,-437.47 209,-437.47"/>
</g>
<!-- Node7&#45;&gt;Node3 -->
<g id="edge6" class="edge">
<title>Node7&#45;&gt;Node3</title>
<path fill="none" stroke="#9a32cd" stroke-dasharray="5,2" d="M216.63,-208.92C177.29,-194.77 123.68,-175.49 93.22,-164.53"/>
<polygon fill="#9a32cd" stroke="#9a32cd" points="215.71,-212.31 226.31,-212.4 218.08,-205.72 215.71,-212.31"/>
<text text-anchor="middle" x="209" y="-186" font-family="Helvetica,sans-Serif" font-size="10.00"> rpc_interfaces</text>
</g>
<!-- Node8 -->
<g id="node8" class="node">
<title>Node8</title>
<g id="a_node8"><a xlink:href="structccf_1_1QuoteInfo.html" target="_top" xlink:title=" ">
<polygon fill="white" stroke="black" points="170.5,-67.5 170.5,-86.5 254.5,-86.5 254.5,-67.5 170.5,-67.5"/>
<text text-anchor="middle" x="212.5" y="-74.5" font-family="Helvetica,sans-Serif" font-size="10.00">ccf::QuoteInfo</text>
</a>
</g>
</g>
<!-- Node8&#45;&gt;Node1 -->
<g id="edge9" class="edge">
<title>Node8&#45;&gt;Node1</title>
<path fill="none" stroke="#9a32cd" stroke-dasharray="5,2" d="M212.5,-57.04C212.5,-44.67 212.5,-29.12 212.5,-19.63"/>
<polygon fill="#9a32cd" stroke="#9a32cd" points="209,-57.23 212.5,-67.23 216,-57.23 209,-57.23"/>
<text text-anchor="middle" x="240" y="-41" font-family="Helvetica,sans-Serif" font-size="10.00"> quote_info</text>
</g>
<!-- Node9 -->
<g id="node9" class="node">
<title>Node9</title>
<g id="a_node9"><a xlink:title=" ">
<polygon fill="white" stroke="black" points="157,-145.5 157,-164.5 282,-164.5 282,-145.5 157,-145.5"/>
<text text-anchor="middle" x="219.5" y="-152.5" font-family="Helvetica,sans-Serif" font-size="10.00">std::vector&lt; uint8_t &gt;</text>
</a>
</g>
</g>
<!-- Node9&#45;&gt;Node8 -->
<g id="edge10" class="edge">
<title>Node9&#45;&gt;Node8</title>
<path fill="none" stroke="#9a32cd" stroke-dasharray="5,2" d="M217.77,-135.22C216.34,-119.7 214.38,-98.36 213.29,-86.62"/>
<polygon fill="#9a32cd" stroke="#9a32cd" points="214.29,-135.65 218.7,-145.28 221.26,-135 214.29,-135.65"/>
<text text-anchor="middle" x="253" y="-119" font-family="Helvetica,sans-Serif" font-size="10.00"> endorsements</text>
<text text-anchor="middle" x="253" y="-108" font-family="Helvetica,sans-Serif" font-size="10.00">quote</text>
</g>
<!-- Node10 -->
<g id="node10" class="node">
<title>Node10</title>
<g id="a_node10"><a xlink:href="classcrypto_1_1Pem.html" target="_top" xlink:title=" ">
<polygon fill="white" stroke="black" points="272,-67.5 272,-86.5 347,-86.5 347,-67.5 272,-67.5"/>
<text text-anchor="middle" x="309.5" y="-74.5" font-family="Helvetica,sans-Serif" font-size="10.00">crypto::Pem</text>
</a>
</g>
</g>
<!-- Node10&#45;&gt;Node1 -->
<g id="edge11" class="edge">
<title>Node10&#45;&gt;Node1</title>
<path fill="none" stroke="#9a32cd" stroke-dasharray="5,2" d="M295.38,-59.41C288.66,-52.21 280.2,-44.05 271.5,-38 260.68,-30.48 247.42,-24.19 236.22,-19.58"/>
<polygon fill="#9a32cd" stroke="#9a32cd" points="293.11,-62.13 302.38,-67.26 298.33,-57.46 293.11,-62.13"/>
<text text-anchor="middle" x="339.5" y="-41" font-family="Helvetica,sans-Serif" font-size="10.00"> public_encryption_key</text>
</g>
</g>
</svg>
