<?xml version="1.0" encoding="UTF-8" standalone="no"?>
<!DOCTYPE svg PUBLIC "-//W3C//DTD SVG 1.1//EN"
 "http://www.w3.org/Graphics/SVG/1.1/DTD/svg11.dtd">
<!-- Generated by graphviz version 2.43.0 (0)
 -->
<!-- Title: aft::RevealedNonces Pages: 1 -->
<svg width="234pt" height="318pt"
 viewBox="0.00 0.00 233.50 318.00" xmlns="http://www.w3.org/2000/svg" xmlns:xlink="http://www.w3.org/1999/xlink">
<g id="graph0" class="graph" transform="scale(1 1) rotate(0) translate(4 314)">
<title>aft::RevealedNonces</title>
<polygon fill="white" stroke="transparent" points="-4,4 -4,-314 229.5,-314 229.5,4 -4,4"/>
<!-- Node1 -->
<g id="node1" class="node">
<title>Node1</title>
<g id="a_node1"><a xlink:title=" ">
<polygon fill="#bfbfbf" stroke="black" points="0,-0.5 0,-19.5 117,-19.5 117,-0.5 0,-0.5"/>
<text text-anchor="middle" x="58.5" y="-7.5" font-family="Helvetica,sans-Serif" font-size="10.00">aft::RevealedNonces</text>
</a>
</g>
</g>
<!-- Node2 -->
<g id="node2" class="node">
<title>Node2</title>
<g id="a_node2"><a xlink:href="structccf_1_1TxID.html" target="_top" xlink:title=" ">
<polygon fill="white" stroke="black" points="4,-73 4,-92 63,-92 63,-73 4,-73"/>
<text text-anchor="middle" x="33.5" y="-80" font-family="Helvetica,sans-Serif" font-size="10.00">ccf::TxID</text>
</a>
</g>
</g>
<!-- Node2&#45;&gt;Node1 -->
<g id="edge1" class="edge">
<title>Node2&#45;&gt;Node1</title>
<path fill="none" stroke="#9a32cd" stroke-dasharray="5,2" d="M39.96,-63.27C44.93,-49.26 51.57,-30.53 55.41,-19.72"/>
<polygon fill="#9a32cd" stroke="#9a32cd" points="36.61,-62.26 36.57,-72.86 43.21,-64.6 36.61,-62.26"/>
<text text-anchor="middle" x="62.5" y="-41" font-family="Helvetica,sans-Serif" font-size="10.00"> tx_id</text>
</g>
<!-- Node3 -->
<g id="node3" class="node">
<title>Node3</title>
<g id="a_node3"><a xlink:title=" ">
<polygon fill="white" stroke="black" points="81.5,-67.5 81.5,-97.5 225.5,-97.5 225.5,-67.5 81.5,-67.5"/>
<text text-anchor="start" x="89.5" y="-85.5" font-family="Helvetica,sans-Serif" font-size="10.00">std::vector&lt; aft::Revealed</text>
<text text-anchor="middle" x="153.5" y="-74.5" font-family="Helvetica,sans-Serif" font-size="10.00">Nonce &gt;</text>
</a>
</g>
</g>
<!-- Node3&#45;&gt;Node1 -->
<g id="edge2" class="edge">
<title>Node3&#45;&gt;Node1</title>
<path fill="none" stroke="#9a32cd" stroke-dasharray="5,2" d="M126.17,-61.22C107.64,-47.47 84.08,-29.98 70.21,-19.69"/>
<polygon fill="#9a32cd" stroke="#9a32cd" points="124.16,-64.08 134.28,-67.23 128.33,-58.46 124.16,-64.08"/>
<text text-anchor="middle" x="127.5" y="-41" font-family="Helvetica,sans-Serif" font-size="10.00"> nonces</text>
</g>
<!-- Node4 -->
<g id="node4" class="node">
<title>Node4</title>
<g id="a_node4"><a xlink:href="structaft_1_1RevealedNonce.html" target="_top" xlink:title=" ">
<polygon fill="white" stroke="black" points="97.5,-145.5 97.5,-164.5 209.5,-164.5 209.5,-145.5 97.5,-145.5"/>
<text text-anchor="middle" x="153.5" y="-152.5" font-family="Helvetica,sans-Serif" font-size="10.00">aft::RevealedNonce</text>
</a>
</g>
</g>
<!-- Node4&#45;&gt;Node3 -->
<g id="edge3" class="edge">
<title>Node4&#45;&gt;Node3</title>
<path fill="none" stroke="#9a32cd" stroke-dasharray="5,2" d="M153.5,-135.24C153.5,-123.41 153.5,-108.38 153.5,-97.58"/>
<polygon fill="#9a32cd" stroke="#9a32cd" points="150,-135.36 153.5,-145.36 157,-135.36 150,-135.36"/>
<text text-anchor="middle" x="178" y="-119" font-family="Helvetica,sans-Serif" font-size="10.00"> elements</text>
</g>
<!-- Node5 -->
<g id="node5" class="node">
<title>Node5</title>
<g id="a_node5"><a xlink:href="classcrypto_1_1Sha256Hash.html" target="_top" xlink:title=" ">
<polygon fill="white" stroke="black" points="96.5,-212.5 96.5,-231.5 210.5,-231.5 210.5,-212.5 96.5,-212.5"/>
<text text-anchor="middle" x="153.5" y="-219.5" font-family="Helvetica,sans-Serif" font-size="10.00">crypto::Sha256Hash</text>
</a>
</g>
</g>
<!-- Node5&#45;&gt;Node4 -->
<g id="edge4" class="edge">
<title>Node5&#45;&gt;Node4</title>
<path fill="none" stroke="#9a32cd" stroke-dasharray="5,2" d="M153.5,-202.04C153.5,-189.67 153.5,-174.12 153.5,-164.63"/>
<polygon fill="#9a32cd" stroke="#9a32cd" points="150,-202.23 153.5,-212.23 157,-202.23 150,-202.23"/>
<text text-anchor="middle" x="170" y="-186" font-family="Helvetica,sans-Serif" font-size="10.00"> nonce</text>
</g>
<!-- Node6 -->
<g id="node6" class="node">
<title>Node6</title>
<g id="a_node6"><a xlink:title=" ">
<polygon fill="white" stroke="black" points="98,-279.5 98,-309.5 209,-309.5 209,-279.5 98,-279.5"/>
<text text-anchor="start" x="106" y="-297.5" font-family="Helvetica,sans-Serif" font-size="10.00">std::array&lt; uint8_t,</text>
<text text-anchor="middle" x="153.5" y="-286.5" font-family="Helvetica,sans-Serif" font-size="10.00"> SIZE &gt;</text>
</a>
</g>
</g>
<!-- Node6&#45;&gt;Node5 -->
<g id="edge5" class="edge">
<title>Node6&#45;&gt;Node5</title>
<path fill="none" stroke="#9a32cd" stroke-dasharray="5,2" d="M153.5,-269.09C153.5,-256.21 153.5,-241.2 153.5,-231.89"/>
<polygon fill="#9a32cd" stroke="#9a32cd" points="150,-269.23 153.5,-279.23 157,-269.23 150,-269.23"/>
<text text-anchor="middle" x="158.5" y="-253" font-family="Helvetica,sans-Serif" font-size="10.00"> h</text>
</g>
</g>
</svg>
