<?xml version="1.0" encoding="UTF-8" standalone="no"?>
<!DOCTYPE svg PUBLIC "-//W3C//DTD SVG 1.1//EN"
 "http://www.w3.org/Graphics/SVG/1.1/DTD/svg11.dtd">
<!-- Generated by graphviz version 2.43.0 (0)
 -->
<!-- Title: champ::Collisions&lt; K, V, H &gt; Pages: 1 -->
<svg width="813pt" height="50pt"
 viewBox="0.00 0.00 813.00 50.00" xmlns="http://www.w3.org/2000/svg" xmlns:xlink="http://www.w3.org/1999/xlink">
<g id="graph0" class="graph" transform="scale(1 1) rotate(0) translate(4 46)">
<title>champ::Collisions&lt; K, V, H &gt;</title>
<polygon fill="white" stroke="transparent" points="-4,4 -4,-46 809,-46 809,4 -4,4"/>
<!-- Node1 -->
<g id="node1" class="node">
<title>Node1</title>
<g id="a_node1"><a xlink:title=" ">
<polygon fill="#bfbfbf" stroke="black" points="694,-6 694,-36 805,-36 805,-6 694,-6"/>
<text text-anchor="start" x="702" y="-24" font-family="Helvetica,sans-Serif" font-size="10.00">champ::Collisions&lt;</text>
<text text-anchor="middle" x="749.5" y="-13" font-family="Helvetica,sans-Serif" font-size="10.00"> K, V, H &gt;</text>
</a>
</g>
</g>
<!-- Node2 -->
<g id="node2" class="node">
<title>Node2</title>
<g id="a_node2"><a xlink:title=" ">
<polygon fill="white" stroke="black" points="438,-0.5 438,-41.5 634,-41.5 634,-0.5 438,-0.5"/>
<text text-anchor="start" x="446" y="-29.5" font-family="Helvetica,sans-Serif" font-size="10.00">std::array&lt; std::vector</text>
<text text-anchor="start" x="446" y="-18.5" font-family="Helvetica,sans-Serif" font-size="10.00">&lt; std::shared_ptr&lt; champ</text>
<text text-anchor="middle" x="536" y="-7.5" font-family="Helvetica,sans-Serif" font-size="10.00">::Entry&lt; K, V &gt; &gt; &gt;, collision_bins &gt;</text>
</a>
</g>
</g>
<!-- Node2&#45;&gt;Node1 -->
<g id="edge1" class="edge">
<title>Node2&#45;&gt;Node1</title>
<path fill="none" stroke="#9a32cd" stroke-dasharray="5,2" d="M644.21,-21C661.41,-21 678.57,-21 693.85,-21"/>
<polygon fill="#9a32cd" stroke="#9a32cd" points="644.08,-17.5 634.08,-21 644.08,-24.5 644.08,-17.5"/>
<text text-anchor="middle" x="664" y="-24" font-family="Helvetica,sans-Serif" font-size="10.00"> bins</text>
</g>
<!-- Node3 -->
<g id="node3" class="node">
<title>Node3</title>
<g id="a_node3"><a xlink:title=" ">
<polygon fill="white" stroke="black" points="219,-0.5 219,-41.5 353,-41.5 353,-0.5 219,-0.5"/>
<text text-anchor="start" x="227" y="-29.5" font-family="Helvetica,sans-Serif" font-size="10.00">std::vector&lt; std::shared</text>
<text text-anchor="start" x="227" y="-18.5" font-family="Helvetica,sans-Serif" font-size="10.00">_ptr&lt; champ::Entry&lt; K,</text>
<text text-anchor="middle" x="286" y="-7.5" font-family="Helvetica,sans-Serif" font-size="10.00"> V &gt; &gt; &gt;</text>
</a>
</g>
</g>
<!-- Node3&#45;&gt;Node2 -->
<g id="edge2" class="edge">
<title>Node3&#45;&gt;Node2</title>
<path fill="none" stroke="#9a32cd" stroke-dasharray="5,2" d="M363.38,-21C386.89,-21 413.1,-21 437.81,-21"/>
<polygon fill="#9a32cd" stroke="#9a32cd" points="363.13,-17.5 353.13,-21 363.13,-24.5 363.13,-17.5"/>
<text text-anchor="middle" x="395.5" y="-24" font-family="Helvetica,sans-Serif" font-size="10.00"> elements</text>
</g>
<!-- Node4 -->
<g id="node4" class="node">
<title>Node4</title>
<g id="a_node4"><a xlink:title=" ">
<polygon fill="white" stroke="black" points="0,-6 0,-36 134,-36 134,-6 0,-6"/>
<text text-anchor="start" x="8" y="-24" font-family="Helvetica,sans-Serif" font-size="10.00">std::shared_ptr&lt; champ</text>
<text text-anchor="middle" x="67" y="-13" font-family="Helvetica,sans-Serif" font-size="10.00">::Entry&lt; K, V &gt; &gt;</text>
</a>
</g>
</g>
<!-- Node4&#45;&gt;Node3 -->
<g id="edge3" class="edge">
<title>Node4&#45;&gt;Node3</title>
<path fill="none" stroke="#9a32cd" stroke-dasharray="5,2" d="M144.51,-21C168.74,-21 195.3,-21 218.75,-21"/>
<polygon fill="#9a32cd" stroke="#9a32cd" points="144.29,-17.5 134.29,-21 144.29,-24.5 144.29,-17.5"/>
<text text-anchor="middle" x="176.5" y="-24" font-family="Helvetica,sans-Serif" font-size="10.00"> elements</text>
</g>
</g>
</svg>
