<?xml version="1.0" encoding="UTF-8" standalone="no"?>
<!DOCTYPE svg PUBLIC "-//W3C//DTD SVG 1.1//EN"
 "http://www.w3.org/Graphics/SVG/1.1/DTD/svg11.dtd">
<!-- Generated by graphviz version 2.43.0 (0)
 -->
<!-- Title: ccf::NodeConfigurationState Pages: 1 -->
<!--zoomable 398 -->
<svg id="main" version="1.1" xmlns="http://www.w3.org/2000/svg" xmlns:xlink="http://www.w3.org/1999/xlink" xml:space="preserve" onload="init(evt)">
<style type="text/css"><![CDATA[
.edge:hover path { stroke: red; }
.edge:hover polygon { stroke: red; fill: red; }
]]></style>
<script type="text/javascript"><![CDATA[
var edges = document.getElementsByTagName('g');
if (edges && edges.length) {
  for (var i=0;i<edges.length;i++) {
    if (edges[i].id.substr(0,4)=='edge') {
      edges[i].setAttribute('class','edge');
    }
  }
}
]]></script>
        <defs>
                <circle id="rim" cx="0" cy="0" r="7"/>
                <circle id="rim2" cx="0" cy="0" r="3.5"/>
                <g id="zoomPlus">
                        <use xlink:href="#rim" fill="#404040">
                                <set attributeName="fill" to="#808080" begin="zoomplus.mouseover" end="zoomplus.mouseout"/>
                        </use>
                        <path d="M-4,0h8M0,-4v8" fill="none" stroke="white" stroke-width="1.5" pointer-events="none"/>
                </g>
                <g id="zoomMin">
                        <use xlink:href="#rim" fill="#404040">
                                <set attributeName="fill" to="#808080" begin="zoomminus.mouseover" end="zoomminus.mouseout"/>
                        </use>
                        <path d="M-4,0h8" fill="none" stroke="white" stroke-width="1.5" pointer-events="none"/>
                </g>
                <g id="dirArrow">
                        <path fill="none" stroke="white" stroke-width="1.5" d="M0,-3.0v7 M-2.5,-0.5L0,-3.0L2.5,-0.5"/>
                </g>
               <g id="resetDef">
                       <use xlink:href="#rim2" fill="#404040">
                               <set attributeName="fill" to="#808080" begin="reset.mouseover" end="reset.mouseout"/>
                       </use>
               </g>
        </defs>

<script type="text/javascript">
var viewWidth = 2437;
var viewHeight = 398;
var sectionId = 'dynsection-0';
</script>
<script xlink:href="svgpan.js"/>
<svg id="graph" class="graph">
<g id="viewport">
<title>ccf::NodeConfigurationState</title>
<polygon fill="white" stroke="transparent" points="-4,4 -4,-394 2433,-394 2433,4 -4,4"/>
<!-- Node1 -->
<g id="node1" class="node">
<title>Node1</title>
<g id="a_node1"><a xlink:title=" ">
<polygon fill="#bfbfbf" stroke="black" points="2277,-75.5 2277,-94.5 2429,-94.5 2429,-75.5 2277,-75.5"/>
<text text-anchor="middle" x="2353" y="-82.5" font-family="Helvetica,sans-Serif" font-size="10.00">ccf::NodeConfigurationState</text>
</a>
</g>
</g>
<!-- Node2 -->
<g id="node2" class="node">
<title>Node2</title>
<g id="a_node2"><a xlink:href="structStartupConfig.html" target="_top" xlink:title=" ">
<polygon fill="white" stroke="black" points="2010.5,-138.5 2010.5,-157.5 2093.5,-157.5 2093.5,-138.5 2010.5,-138.5"/>
<text text-anchor="middle" x="2052" y="-145.5" font-family="Helvetica,sans-Serif" font-size="10.00">StartupConfig</text>
</a>
</g>
</g>
<!-- Node2&#45;&gt;Node1 -->
<g id="edge1" class="edge">
<title>Node2&#45;&gt;Node1</title>
<path fill="none" stroke="#9a32cd" stroke-dasharray="5,2" d="M2103.48,-137.36C2160.33,-125.39 2251.87,-106.1 2306.56,-94.57"/>
<polygon fill="#9a32cd" stroke="#9a32cd" points="2102.7,-133.95 2093.64,-139.44 2104.14,-140.8 2102.7,-133.95"/>
<text text-anchor="middle" x="2203.5" y="-131" font-family="Helvetica,sans-Serif" font-size="10.00"> node_config</text>
</g>
<!-- Node3 -->
<g id="node3" class="node">
<title>Node3</title>
<g id="a_node3"><a xlink:href="structCCFConfig.html" target="_top" xlink:title=" ">
<polygon fill="white" stroke="black" points="1785.5,-290.5 1785.5,-309.5 1852.5,-309.5 1852.5,-290.5 1785.5,-290.5"/>
<text text-anchor="middle" x="1819" y="-297.5" font-family="Helvetica,sans-Serif" font-size="10.00">CCFConfig</text>
</a>
</g>
</g>
<!-- Node3&#45;&gt;Node2 -->
<g id="edge2" class="edge">
<title>Node3&#45;&gt;Node2</title>
<path fill="none" stroke="midnightblue" d="M1845.18,-285.15C1872.73,-268.74 1918.02,-241.28 1956,-216 1986.05,-196 2020.24,-170.93 2038.29,-157.52"/>
<polygon fill="midnightblue" stroke="midnightblue" points="1843.37,-282.15 1836.56,-290.27 1846.94,-288.17 1843.37,-282.15"/>
</g>
<!-- Node4 -->
<g id="node4" class="node">
<title>Node4</title>
<g id="a_node4"><a xlink:href="structconsensus_1_1Configuration.html" target="_top" xlink:title=" ">
<polygon fill="white" stroke="black" points="1473.5,-270.5 1473.5,-289.5 1612.5,-289.5 1612.5,-270.5 1473.5,-270.5"/>
<text text-anchor="middle" x="1543" y="-277.5" font-family="Helvetica,sans-Serif" font-size="10.00">consensus::Configuration</text>
</a>
</g>
</g>
<!-- Node4&#45;&gt;Node3 -->
<g id="edge3" class="edge">
<title>Node4&#45;&gt;Node3</title>
<path fill="none" stroke="#9a32cd" stroke-dasharray="5,2" d="M1623.05,-283.16C1656.4,-284.77 1695.62,-287.02 1731,-290 1749.03,-291.52 1769.1,-293.78 1785.41,-295.78"/>
<polygon fill="#9a32cd" stroke="#9a32cd" points="1623.05,-279.65 1612.9,-282.68 1622.72,-286.65 1623.05,-279.65"/>
<text text-anchor="middle" x="1685.5" y="-293" font-family="Helvetica,sans-Serif" font-size="10.00"> consensus</text>
</g>
<!-- Node5 -->
<g id="node5" class="node">
<title>Node5</title>
<g id="a_node5"><a xlink:href="structds_1_1TimeString.html" target="_top" xlink:title=" ">
<polygon fill="white" stroke="black" points="1212,-264.5 1212,-283.5 1299,-283.5 1299,-264.5 1212,-264.5"/>
<text text-anchor="middle" x="1255.5" y="-271.5" font-family="Helvetica,sans-Serif" font-size="10.00">ds::TimeString</text>
</a>
</g>
</g>
<!-- Node5&#45;&gt;Node4 -->
<g id="edge4" class="edge">
<title>Node5&#45;&gt;Node4</title>
<path fill="none" stroke="#9a32cd" stroke-dasharray="5,2" d="M1309.35,-273.62C1347.37,-273.5 1399.86,-273.68 1446,-275 1454.84,-275.25 1464.14,-275.62 1473.32,-276.03"/>
<polygon fill="#9a32cd" stroke="#9a32cd" points="1309.02,-270.12 1299.03,-273.66 1309.05,-277.12 1309.02,-270.12"/>
<text text-anchor="middle" x="1394.5" y="-289" font-family="Helvetica,sans-Serif" font-size="10.00"> election_timeout</text>
<text text-anchor="middle" x="1394.5" y="-278" font-family="Helvetica,sans-Serif" font-size="10.00">message_timeout</text>
</g>
<!-- Node15 -->
<g id="node15" class="node">
<title>Node15</title>
<g id="a_node15"><a xlink:href="structCCFConfig_1_1LedgerSignatures.html" target="_top" xlink:title=" ">
<polygon fill="white" stroke="black" points="1464,-346.5 1464,-365.5 1622,-365.5 1622,-346.5 1464,-346.5"/>
<text text-anchor="middle" x="1543" y="-353.5" font-family="Helvetica,sans-Serif" font-size="10.00">CCFConfig::LedgerSignatures</text>
</a>
</g>
</g>
<!-- Node5&#45;&gt;Node15 -->
<g id="edge20" class="edge">
<title>Node5&#45;&gt;Node15</title>
<path fill="none" stroke="#9a32cd" stroke-dasharray="5,2" d="M1277.72,-289.62C1294.57,-301.23 1319.18,-316.48 1343,-325 1381.52,-338.78 1426.39,-346.44 1463.77,-350.7"/>
<polygon fill="#9a32cd" stroke="#9a32cd" points="1279.4,-286.52 1269.21,-283.61 1275.36,-292.23 1279.4,-286.52"/>
<text text-anchor="middle" x="1394.5" y="-351" font-family="Helvetica,sans-Serif" font-size="10.00"> delay</text>
</g>
<!-- Node16 -->
<g id="node16" class="node">
<title>Node16</title>
<g id="a_node16"><a xlink:href="structCCFConfig_1_1JWT.html" target="_top" xlink:title=" ">
<polygon fill="white" stroke="black" points="1497,-308.5 1497,-327.5 1589,-327.5 1589,-308.5 1497,-308.5"/>
<text text-anchor="middle" x="1543" y="-315.5" font-family="Helvetica,sans-Serif" font-size="10.00">CCFConfig::JWT</text>
</a>
</g>
</g>
<!-- Node5&#45;&gt;Node16 -->
<g id="edge22" class="edge">
<title>Node5&#45;&gt;Node16</title>
<path fill="none" stroke="#9a32cd" stroke-dasharray="5,2" d="M1297.84,-286.39C1312.05,-290.27 1328.12,-294.25 1343,-297 1395.27,-306.65 1456.14,-312.26 1496.66,-315.22"/>
<polygon fill="#9a32cd" stroke="#9a32cd" points="1298.44,-282.92 1287.87,-283.6 1296.56,-289.66 1298.44,-282.92"/>
<text text-anchor="middle" x="1394.5" y="-313" font-family="Helvetica,sans-Serif" font-size="10.00"> key_refresh_interval</text>
</g>
<!-- Node23 -->
<g id="node23" class="node">
<title>Node23</title>
<g id="a_node23"><a xlink:href="structStartupConfig_1_1Join.html" target="_top" xlink:title=" ">
<polygon fill="white" stroke="black" points="1765.5,-177.5 1765.5,-196.5 1872.5,-196.5 1872.5,-177.5 1765.5,-177.5"/>
<text text-anchor="middle" x="1819" y="-184.5" font-family="Helvetica,sans-Serif" font-size="10.00">StartupConfig::Join</text>
</a>
</g>
</g>
<!-- Node5&#45;&gt;Node23 -->
<g id="edge32" class="edge">
<title>Node5&#45;&gt;Node23</title>
<path fill="none" stroke="#9a32cd" stroke-dasharray="5,2" d="M1309.36,-267.45C1351.27,-262.37 1411.33,-255.31 1464,-250 1523.25,-244.02 1678.01,-254.19 1731,-227 1741.94,-221.39 1738.62,-212.59 1749,-206 1755.08,-202.14 1761.95,-199.05 1768.94,-196.59"/>
<polygon fill="#9a32cd" stroke="#9a32cd" points="1308.88,-263.99 1299.38,-268.67 1309.73,-270.94 1308.88,-263.99"/>
<text text-anchor="middle" x="1543" y="-253" font-family="Helvetica,sans-Serif" font-size="10.00"> retry_timeout</text>
</g>
<!-- Node6 -->
<g id="node6" class="node">
<title>Node6</title>
<g id="a_node6"><a xlink:href="structds_1_1UnitString.html" target="_top" xlink:title=" ">
<polygon fill="white" stroke="black" points="803,-247.5 803,-266.5 886,-266.5 886,-247.5 803,-247.5"/>
<text text-anchor="middle" x="844.5" y="-254.5" font-family="Helvetica,sans-Serif" font-size="10.00">ds::UnitString</text>
</a>
</g>
</g>
<!-- Node6&#45;&gt;Node5 -->
<g id="edge5" class="edge">
<title>Node6&#45;&gt;Node5</title>
<path fill="none" stroke="midnightblue" d="M896.22,-259.11C977.59,-262.49 1135.86,-269.07 1211.81,-272.23"/>
<polygon fill="midnightblue" stroke="midnightblue" points="896.35,-255.61 886.21,-258.69 896.06,-262.6 896.35,-255.61"/>
</g>
<!-- Node7 -->
<g id="node7" class="node">
<title>Node7</title>
<g id="a_node7"><a xlink:title=" ">
<polygon fill="white" stroke="black" points="376,-187.5 376,-206.5 441,-206.5 441,-187.5 376,-187.5"/>
<text text-anchor="middle" x="408.5" y="-194.5" font-family="Helvetica,sans-Serif" font-size="10.00">std::string</text>
</a>
</g>
</g>
<!-- Node7&#45;&gt;Node2 -->
<g id="edge24" class="edge">
<title>Node7&#45;&gt;Node2</title>
<path fill="none" stroke="#9a32cd" stroke-dasharray="5,2" d="M436.54,-182.83C487.94,-157.25 603.92,-106 708,-106 708,-106 708,-106 1132.5,-106 1472.11,-106 1881.61,-135.01 2010.29,-144.81"/>
<polygon fill="#9a32cd" stroke="#9a32cd" points="434.78,-179.8 427.43,-187.43 437.93,-186.05 434.78,-179.8"/>
<text text-anchor="middle" x="1255.5" y="-112" font-family="Helvetica,sans-Serif" font-size="10.00"> startup_host_time</text>
</g>
<!-- Node7&#45;&gt;Node6 -->
<g id="edge6" class="edge">
<title>Node7&#45;&gt;Node6</title>
<path fill="none" stroke="#9a32cd" stroke-dasharray="5,2" d="M442.9,-210.23C462.91,-217.58 489.05,-226.2 513,-231 615.99,-251.66 740.1,-256.08 802.88,-256.91"/>
<polygon fill="#9a32cd" stroke="#9a32cd" points="443.91,-206.87 433.32,-206.63 441.45,-213.42 443.91,-206.87"/>
<text text-anchor="middle" x="567" y="-249" font-family="Helvetica,sans-Serif" font-size="10.00"> str</text>
</g>
<!-- Node11 -->
<g id="node11" class="node">
<title>Node11</title>
<g id="a_node11"><a xlink:href="structccf_1_1NodeInfoNetwork__v2_1_1NetInterface.html" target="_top" xlink:title="Network interface description.">
<polygon fill="white" stroke="black" points="648,-188 648,-218 770,-218 770,-188 648,-188"/>
<text text-anchor="start" x="656" y="-206" font-family="Helvetica,sans-Serif" font-size="10.00">ccf::NodeInfoNetwork</text>
<text text-anchor="middle" x="709" y="-195" font-family="Helvetica,sans-Serif" font-size="10.00">_v2::NetInterface</text>
</a>
</g>
</g>
<!-- Node7&#45;&gt;Node11 -->
<g id="edge11" class="edge">
<title>Node7&#45;&gt;Node11</title>
<path fill="none" stroke="#9a32cd" stroke-dasharray="5,2" d="M451.05,-196.55C493.71,-196.24 562,-196.17 621,-198 629.62,-198.27 638.71,-198.66 647.64,-199.12"/>
<polygon fill="#9a32cd" stroke="#9a32cd" points="451.01,-193.05 441.04,-196.63 451.07,-200.05 451.01,-193.05"/>
<text text-anchor="middle" x="567" y="-223" font-family="Helvetica,sans-Serif" font-size="10.00"> bind_address</text>
<text text-anchor="middle" x="567" y="-212" font-family="Helvetica,sans-Serif" font-size="10.00">protocol</text>
<text text-anchor="middle" x="567" y="-201" font-family="Helvetica,sans-Serif" font-size="10.00">published_address</text>
</g>
<!-- Node12 -->
<g id="node12" class="node">
<title>Node12</title>
<g id="a_node12"><a xlink:title=" ">
<polygon fill="white" stroke="black" points="920.5,-150 920.5,-180 1066.5,-180 1066.5,-150 920.5,-150"/>
<text text-anchor="start" x="928.5" y="-168" font-family="Helvetica,sans-Serif" font-size="10.00">std::map&lt; RpcInterfaceID,</text>
<text text-anchor="middle" x="993.5" y="-157" font-family="Helvetica,sans-Serif" font-size="10.00"> NetInterface &gt;</text>
</a>
</g>
</g>
<!-- Node7&#45;&gt;Node12 -->
<g id="edge13" class="edge">
<title>Node7&#45;&gt;Node12</title>
<path fill="none" stroke="#9a32cd" stroke-dasharray="5,2" d="M451.48,-190.19C497.39,-183.1 573.2,-172.42 639,-168 736.21,-161.47 848.79,-161.88 920.3,-163.14"/>
<polygon fill="#9a32cd" stroke="#9a32cd" points="450.66,-186.78 441.31,-191.78 451.73,-193.7 450.66,-186.78"/>
<text text-anchor="middle" x="709" y="-171" font-family="Helvetica,sans-Serif" font-size="10.00"> keys</text>
</g>
<!-- Node13 -->
<g id="node13" class="node">
<title>Node13</title>
<g id="a_node13"><a xlink:href="structCCFConfig_1_1NodeCertificateInfo.html" target="_top" xlink:title=" ">
<polygon fill="white" stroke="black" points="910,-328.5 910,-347.5 1077,-347.5 1077,-328.5 910,-328.5"/>
<text text-anchor="middle" x="993.5" y="-335.5" font-family="Helvetica,sans-Serif" font-size="10.00">CCFConfig::NodeCertificateInfo</text>
</a>
</g>
</g>
<!-- Node7&#45;&gt;Node13 -->
<g id="edge16" class="edge">
<title>Node7&#45;&gt;Node13</title>
<path fill="none" stroke="#9a32cd" stroke-dasharray="5,2" d="M429.43,-212.68C449.41,-227.55 481.61,-249.31 513,-261 550.83,-275.09 800.38,-311.19 923.73,-328.48"/>
<polygon fill="#9a32cd" stroke="#9a32cd" points="431.49,-209.85 421.41,-206.59 427.26,-215.42 431.49,-209.85"/>
<text text-anchor="middle" x="709" y="-309" font-family="Helvetica,sans-Serif" font-size="10.00"> subject_name</text>
</g>
<!-- Node14 -->
<g id="node14" class="node">
<title>Node14</title>
<g id="a_node14"><a xlink:title=" ">
<polygon fill="white" stroke="black" points="639,-328.5 639,-347.5 779,-347.5 779,-328.5 639,-328.5"/>
<text text-anchor="middle" x="709" y="-335.5" font-family="Helvetica,sans-Serif" font-size="10.00">std::vector&lt; std::string &gt;</text>
</a>
</g>
</g>
<!-- Node7&#45;&gt;Node14 -->
<g id="edge18" class="edge">
<title>Node7&#45;&gt;Node14</title>
<path fill="none" stroke="#9a32cd" stroke-dasharray="5,2" d="M419.87,-215.26C436.01,-241.78 469.83,-290.25 513,-313 551.35,-333.2 599.64,-339.52 638.57,-340.74"/>
<polygon fill="#9a32cd" stroke="#9a32cd" points="422.84,-213.4 414.74,-206.57 416.81,-216.96 422.84,-213.4"/>
<text text-anchor="middle" x="567" y="-342" font-family="Helvetica,sans-Serif" font-size="10.00"> elements</text>
</g>
<!-- Node18 -->
<g id="node18" class="node">
<title>Node18</title>
<g id="a_node18"><a xlink:href="structStartupConfig_1_1Start.html" target="_top" xlink:title=" ">
<polygon fill="white" stroke="black" points="653,-43.5 653,-62.5 765,-62.5 765,-43.5 653,-43.5"/>
<text text-anchor="middle" x="709" y="-50.5" font-family="Helvetica,sans-Serif" font-size="10.00">StartupConfig::Start</text>
</a>
</g>
</g>
<!-- Node7&#45;&gt;Node18 -->
<g id="edge29" class="edge">
<title>Node7&#45;&gt;Node18</title>
<path fill="none" stroke="#9a32cd" stroke-dasharray="5,2" d="M419.92,-178.82C436.11,-152.41 470,-104.07 513,-81 536.51,-68.39 603.78,-60.75 652.74,-56.71"/>
<polygon fill="#9a32cd" stroke="#9a32cd" points="416.87,-177.09 414.76,-187.47 422.89,-180.67 416.87,-177.09"/>
<text text-anchor="middle" x="567" y="-84" font-family="Helvetica,sans-Serif" font-size="10.00"> constitution</text>
</g>
<!-- Node8 -->
<g id="node8" class="node">
<title>Node8</title>
<g id="a_node8"><a xlink:title=" ">
<polygon fill="white" stroke="black" points="133,-182 133,-212 237,-212 237,-182 133,-182"/>
<text text-anchor="start" x="141" y="-200" font-family="Helvetica,sans-Serif" font-size="10.00">std::basic_string&lt;</text>
<text text-anchor="middle" x="185" y="-189" font-family="Helvetica,sans-Serif" font-size="10.00"> Char &gt;</text>
</a>
</g>
</g>
<!-- Node8&#45;&gt;Node7 -->
<g id="edge7" class="edge">
<title>Node8&#45;&gt;Node7</title>
<path fill="none" stroke="midnightblue" d="M247.15,-197C288.86,-197 342.4,-197 375.83,-197"/>
<polygon fill="midnightblue" stroke="midnightblue" points="247.09,-193.5 237.09,-197 247.09,-200.5 247.09,-193.5"/>
</g>
<!-- Node9 -->
<g id="node9" class="node">
<title>Node9</title>
<g id="a_node9"><a xlink:href="structccf_1_1NodeInfoNetwork.html" target="_top" xlink:title=" ">
<polygon fill="white" stroke="black" points="1482,-185.5 1482,-204.5 1604,-204.5 1604,-185.5 1482,-185.5"/>
<text text-anchor="middle" x="1543" y="-192.5" font-family="Helvetica,sans-Serif" font-size="10.00">ccf::NodeInfoNetwork</text>
</a>
</g>
</g>
<!-- Node9&#45;&gt;Node3 -->
<g id="edge8" class="edge">
<title>Node9&#45;&gt;Node3</title>
<path fill="none" stroke="#9a32cd" stroke-dasharray="5,2" d="M1587.34,-207.55C1598.69,-211.05 1610.86,-215 1622,-219 1686.62,-242.24 1761.11,-274.61 1796.79,-290.47"/>
<polygon fill="#9a32cd" stroke="#9a32cd" points="1588.21,-204.16 1577.63,-204.6 1586.18,-210.85 1588.21,-204.16"/>
<text text-anchor="middle" x="1685.5" y="-264" font-family="Helvetica,sans-Serif" font-size="10.00"> network</text>
</g>
<!-- Node10 -->
<g id="node10" class="node">
<title>Node10</title>
<g id="a_node10"><a xlink:href="structccf_1_1NodeInfoNetwork__v2.html" target="_top" xlink:title="Node network information.">
<polygon fill="white" stroke="black" points="1186,-185.5 1186,-204.5 1325,-204.5 1325,-185.5 1186,-185.5"/>
<text text-anchor="middle" x="1255.5" y="-192.5" font-family="Helvetica,sans-Serif" font-size="10.00">ccf::NodeInfoNetwork_v2</text>
</a>
</g>
</g>
<!-- Node10&#45;&gt;Node9 -->
<g id="edge9" class="edge">
<title>Node10&#45;&gt;Node9</title>
<path fill="none" stroke="midnightblue" d="M1335.52,-195C1381.69,-195 1439.06,-195 1481.6,-195"/>
<polygon fill="midnightblue" stroke="midnightblue" points="1335.25,-191.5 1325.25,-195 1335.25,-198.5 1335.25,-191.5"/>
</g>
<!-- Node11&#45;&gt;Node10 -->
<g id="edge10" class="edge">
<title>Node11&#45;&gt;Node10</title>
<path fill="none" stroke="#9a32cd" stroke-dasharray="5,2" d="M780.1,-203.33C869.98,-203.53 1030.63,-203.17 1168,-199 1173.71,-198.83 1179.63,-198.62 1185.57,-198.38"/>
<polygon fill="#9a32cd" stroke="#9a32cd" points="780.04,-199.83 770.03,-203.3 780.02,-206.83 780.04,-199.83"/>
<text text-anchor="middle" x="993.5" y="-206" font-family="Helvetica,sans-Serif" font-size="10.00"> node_to_node_interface</text>
</g>
<!-- Node11&#45;&gt;Node12 -->
<g id="edge14" class="edge">
<title>Node11&#45;&gt;Node12</title>
<path fill="none" stroke="#9a32cd" stroke-dasharray="5,2" d="M780.28,-193.55C822.96,-187.81 877.31,-180.49 920.32,-174.71"/>
<polygon fill="#9a32cd" stroke="#9a32cd" points="779.7,-190.09 770.26,-194.89 780.63,-197.03 779.7,-190.09"/>
<text text-anchor="middle" x="844.5" y="-193" font-family="Helvetica,sans-Serif" font-size="10.00"> elements</text>
</g>
<!-- Node12&#45;&gt;Node10 -->
<g id="edge12" class="edge">
<title>Node12&#45;&gt;Node10</title>
<path fill="none" stroke="#9a32cd" stroke-dasharray="5,2" d="M1076.81,-174.5C1111.91,-178.55 1152.41,-183.22 1185.86,-187.08"/>
<polygon fill="#9a32cd" stroke="#9a32cd" points="1076.91,-170.99 1066.58,-173.32 1076.11,-177.94 1076.91,-170.99"/>
<text text-anchor="middle" x="1131.5" y="-187" font-family="Helvetica,sans-Serif" font-size="10.00"> rpc_interfaces</text>
</g>
<!-- Node13&#45;&gt;Node3 -->
<g id="edge15" class="edge">
<title>Node13&#45;&gt;Node3</title>
<path fill="none" stroke="#9a32cd" stroke-dasharray="5,2" d="M1067.28,-348.93C1184.29,-365.01 1421.46,-391.45 1622,-375 1670.94,-370.99 1685.25,-374.84 1731,-357 1760.78,-345.39 1790.97,-322.58 1806.77,-309.62"/>
<polygon fill="#9a32cd" stroke="#9a32cd" points="1067.74,-345.46 1057.36,-347.55 1066.78,-352.39 1067.74,-345.46"/>
<text text-anchor="middle" x="1394.5" y="-382" font-family="Helvetica,sans-Serif" font-size="10.00"> node_certificate</text>
</g>
<!-- Node14&#45;&gt;Node13 -->
<g id="edge17" class="edge">
<title>Node14&#45;&gt;Node13</title>
<path fill="none" stroke="#9a32cd" stroke-dasharray="5,2" d="M789.49,-338C827.04,-338 871.83,-338 909.78,-338"/>
<polygon fill="#9a32cd" stroke="#9a32cd" points="789.11,-334.5 779.11,-338 789.11,-341.5 789.11,-334.5"/>
<text text-anchor="middle" x="844.5" y="-341" font-family="Helvetica,sans-Serif" font-size="10.00"> subject_alt_names</text>
</g>
<!-- Node15&#45;&gt;Node3 -->
<g id="edge19" class="edge">
<title>Node15&#45;&gt;Node3</title>
<path fill="none" stroke="#9a32cd" stroke-dasharray="5,2" d="M1627.61,-344.98C1660.07,-340.08 1697.45,-333.67 1731,-326 1750.82,-321.47 1772.76,-314.9 1789.65,-309.5"/>
<polygon fill="#9a32cd" stroke="#9a32cd" points="1627.08,-341.53 1617.7,-346.46 1628.1,-348.45 1627.08,-341.53"/>
<text text-anchor="middle" x="1685.5" y="-345" font-family="Helvetica,sans-Serif" font-size="10.00"> ledger_signatures</text>
</g>
<!-- Node16&#45;&gt;Node3 -->
<g id="edge21" class="edge">
<title>Node16&#45;&gt;Node3</title>
<path fill="none" stroke="#9a32cd" stroke-dasharray="5,2" d="M1599.31,-314.37C1655.05,-310.71 1739.21,-305.18 1785.17,-302.16"/>
<polygon fill="#9a32cd" stroke="#9a32cd" points="1598.99,-310.88 1589.25,-315.03 1599.45,-317.86 1598.99,-310.88"/>
<text text-anchor="middle" x="1685.5" y="-314" font-family="Helvetica,sans-Serif" font-size="10.00"> jwt</text>
</g>
<!-- Node17 -->
<g id="node17" class="node">
<title>Node17</title>
<g id="a_node17"><a xlink:title=" ">
<polygon fill="white" stroke="black" points="1480.5,-143.5 1480.5,-162.5 1605.5,-162.5 1605.5,-143.5 1480.5,-143.5"/>
<text text-anchor="middle" x="1543" y="-150.5" font-family="Helvetica,sans-Serif" font-size="10.00">std::vector&lt; uint8_t &gt;</text>
</a>
</g>
</g>
<!-- Node17&#45;&gt;Node2 -->
<g id="edge23" class="edge">
<title>Node17&#45;&gt;Node2</title>
<path fill="none" stroke="#9a32cd" stroke-dasharray="5,2" d="M1615.81,-152.29C1723.75,-151.23 1924.31,-149.25 2010.22,-148.4"/>
<polygon fill="#9a32cd" stroke="#9a32cd" points="1615.63,-148.79 1605.66,-152.39 1615.7,-155.79 1615.63,-148.79"/>
<text text-anchor="middle" x="1819" y="-154" font-family="Helvetica,sans-Serif" font-size="10.00"> startup_snapshot</text>
</g>
<!-- Node17&#45;&gt;Node23 -->
<g id="edge33" class="edge">
<title>Node17&#45;&gt;Node23</title>
<path fill="none" stroke="#9a32cd" stroke-dasharray="5,2" d="M1615.91,-161.92C1662.72,-167.73 1722.73,-175.18 1765.16,-180.44"/>
<polygon fill="#9a32cd" stroke="#9a32cd" points="1616.19,-158.43 1605.83,-160.67 1615.33,-165.38 1616.19,-158.43"/>
<text text-anchor="middle" x="1685.5" y="-179" font-family="Helvetica,sans-Serif" font-size="10.00"> service_cert</text>
</g>
<!-- Node18&#45;&gt;Node2 -->
<g id="edge25" class="edge">
<title>Node18&#45;&gt;Node2</title>
<path fill="none" stroke="#9a32cd" stroke-dasharray="5,2" d="M775.2,-55.53C832.45,-57.54 917.99,-60 992.5,-60 992.5,-60 992.5,-60 1820,-60 1881.71,-60 1898.76,-64.93 1956,-88 1988.2,-100.98 2021.55,-124.92 2038.89,-138.3"/>
<polygon fill="#9a32cd" stroke="#9a32cd" points="775.32,-52.03 765.2,-55.18 775.07,-59.03 775.32,-52.03"/>
<text text-anchor="middle" x="1394.5" y="-63" font-family="Helvetica,sans-Serif" font-size="10.00"> start</text>
</g>
<!-- Node19 -->
<g id="node19" class="node">
<title>Node19</title>
<g id="a_node19"><a xlink:title=" ">
<polygon fill="white" stroke="black" points="322,-38.5 322,-57.5 495,-57.5 495,-38.5 322,-38.5"/>
<text text-anchor="middle" x="408.5" y="-45.5" font-family="Helvetica,sans-Serif" font-size="10.00">std::vector&lt; ccf::NewMember &gt;</text>
</a>
</g>
</g>
<!-- Node19&#45;&gt;Node18 -->
<g id="edge26" class="edge">
<title>Node19&#45;&gt;Node18</title>
<path fill="none" stroke="#9a32cd" stroke-dasharray="5,2" d="M505.27,-45.96C541.53,-45.61 583.18,-45.7 621,-47 631.29,-47.35 642.25,-47.94 652.8,-48.62"/>
<polygon fill="#9a32cd" stroke="#9a32cd" points="505.15,-42.46 495.19,-46.07 505.23,-49.46 505.15,-42.46"/>
<text text-anchor="middle" x="567" y="-50" font-family="Helvetica,sans-Serif" font-size="10.00"> members</text>
</g>
<!-- Node20 -->
<g id="node20" class="node">
<title>Node20</title>
<g id="a_node20"><a xlink:href="structccf_1_1NewMember.html" target="_top" xlink:title=" ">
<polygon fill="white" stroke="black" points="136,-38.5 136,-57.5 234,-57.5 234,-38.5 136,-38.5"/>
<text text-anchor="middle" x="185" y="-45.5" font-family="Helvetica,sans-Serif" font-size="10.00">ccf::NewMember</text>
</a>
</g>
</g>
<!-- Node20&#45;&gt;Node19 -->
<g id="edge27" class="edge">
<title>Node20&#45;&gt;Node19</title>
<path fill="none" stroke="#9a32cd" stroke-dasharray="5,2" d="M244.26,-48C267.9,-48 295.69,-48 321.57,-48"/>
<polygon fill="#9a32cd" stroke="#9a32cd" points="244.06,-44.5 234.06,-48 244.06,-51.5 244.06,-44.5"/>
<text text-anchor="middle" x="279.5" y="-51" font-family="Helvetica,sans-Serif" font-size="10.00"> elements</text>
</g>
<!-- Node21 -->
<g id="node21" class="node">
<title>Node21</title>
<g id="a_node21"><a xlink:href="classcrypto_1_1Pem.html" target="_top" xlink:title=" ">
<polygon fill="white" stroke="black" points="0,-38.5 0,-57.5 75,-57.5 75,-38.5 0,-38.5"/>
<text text-anchor="middle" x="37.5" y="-45.5" font-family="Helvetica,sans-Serif" font-size="10.00">crypto::Pem</text>
</a>
</g>
</g>
<!-- Node21&#45;&gt;Node20 -->
<g id="edge28" class="edge">
<title>Node21&#45;&gt;Node20</title>
<path fill="none" stroke="#9a32cd" stroke-dasharray="5,2" d="M85.47,-48C101.55,-48 119.56,-48 135.74,-48"/>
<polygon fill="#9a32cd" stroke="#9a32cd" points="85.22,-44.5 75.22,-48 85.22,-51.5 85.22,-44.5"/>
<text text-anchor="middle" x="104" y="-51" font-family="Helvetica,sans-Serif" font-size="10.00"> cert</text>
</g>
<!-- Node22 -->
<g id="node22" class="node">
<title>Node22</title>
<g id="a_node22"><a xlink:href="structccf_1_1ServiceConfiguration.html" target="_top" xlink:title=" ">
<polygon fill="white" stroke="black" points="340,-0.5 340,-19.5 477,-19.5 477,-0.5 340,-0.5"/>
<text text-anchor="middle" x="408.5" y="-7.5" font-family="Helvetica,sans-Serif" font-size="10.00">ccf::ServiceConfiguration</text>
</a>
</g>
</g>
<!-- Node22&#45;&gt;Node18 -->
<g id="edge30" class="edge">
<title>Node22&#45;&gt;Node18</title>
<path fill="none" stroke="#9a32cd" stroke-dasharray="5,2" d="M487,-14.92C527.18,-18.17 576.94,-23.29 621,-31 639.11,-34.17 659.01,-39.09 675.2,-43.48"/>
<polygon fill="#9a32cd" stroke="#9a32cd" points="487.24,-11.43 477,-14.13 486.7,-18.41 487.24,-11.43"/>
<text text-anchor="middle" x="567" y="-34" font-family="Helvetica,sans-Serif" font-size="10.00"> service_configuration</text>
</g>
<!-- Node23&#45;&gt;Node2 -->
<g id="edge31" class="edge">
<title>Node23&#45;&gt;Node2</title>
<path fill="none" stroke="#9a32cd" stroke-dasharray="5,2" d="M1882.78,-176.4C1923.4,-169.54 1975.1,-160.82 2010.39,-154.86"/>
<polygon fill="#9a32cd" stroke="#9a32cd" points="1881.98,-172.99 1872.71,-178.1 1883.15,-179.89 1881.98,-172.99"/>
<text text-anchor="middle" x="1931.5" y="-175" font-family="Helvetica,sans-Serif" font-size="10.00"> join</text>
</g>
<!-- Node24 -->
<g id="node24" class="node">
<title>Node24</title>
<g id="a_node24"><a xlink:href="structStartupConfig_1_1Recover.html" target="_top" xlink:title=" ">
<polygon fill="white" stroke="black" points="1755,-215.5 1755,-234.5 1883,-234.5 1883,-215.5 1755,-215.5"/>
<text text-anchor="middle" x="1819" y="-222.5" font-family="Helvetica,sans-Serif" font-size="10.00">StartupConfig::Recover</text>
</a>
</g>
</g>
<!-- Node24&#45;&gt;Node2 -->
<g id="edge34" class="edge">
<title>Node24&#45;&gt;Node2</title>
<path fill="none" stroke="#9a32cd" stroke-dasharray="5,2" d="M1864.51,-212.8C1872.66,-210.55 1881.09,-208.21 1889,-206 1918.81,-197.67 1926.75,-197.12 1956,-187 1981.78,-178.08 2010.68,-165.9 2029.76,-157.53"/>
<polygon fill="#9a32cd" stroke="#9a32cd" points="1863.47,-209.45 1854.76,-215.48 1865.33,-216.2 1863.47,-209.45"/>
<text text-anchor="middle" x="1931.5" y="-204" font-family="Helvetica,sans-Serif" font-size="10.00"> recover</text>
</g>
<!-- Node25 -->
<g id="node25" class="node">
<title>Node25</title>
<g id="a_node25"><a xlink:title=" ">
<polygon fill="white" stroke="black" points="1974,-40.5 1974,-81.5 2130,-81.5 2130,-40.5 1974,-40.5"/>
<text text-anchor="start" x="1982" y="-69.5" font-family="Helvetica,sans-Serif" font-size="10.00">std::map&lt; NodeInfoNetwork</text>
<text text-anchor="start" x="1982" y="-58.5" font-family="Helvetica,sans-Serif" font-size="10.00">::RpcInterfaceID, std::</text>
<text text-anchor="middle" x="2052" y="-47.5" font-family="Helvetica,sans-Serif" font-size="10.00">vector&lt; std::regex &gt; &gt;</text>
</a>
</g>
</g>
<!-- Node25&#45;&gt;Node1 -->
<g id="edge35" class="edge">
<title>Node25&#45;&gt;Node1</title>
<path fill="none" stroke="#9a32cd" stroke-dasharray="5,2" d="M2140.54,-64.74C2177.18,-66.66 2220.2,-69.37 2259,-73 2266.62,-73.71 2274.57,-74.57 2282.49,-75.49"/>
<polygon fill="#9a32cd" stroke="#9a32cd" points="2140.54,-61.24 2130.38,-64.22 2140.18,-68.23 2140.54,-61.24"/>
<text text-anchor="middle" x="2203.5" y="-76" font-family="Helvetica,sans-Serif" font-size="10.00"> rpc_interface_regexes</text>
</g>
<!-- Node26 -->
<g id="node26" class="node">
<title>Node26</title>
<g id="a_node26"><a xlink:title=" ">
<polygon fill="white" stroke="black" points="1749,-12.5 1749,-31.5 1889,-31.5 1889,-12.5 1749,-12.5"/>
<text text-anchor="middle" x="1819" y="-19.5" font-family="Helvetica,sans-Serif" font-size="10.00">std::vector&lt; std::regex &gt;</text>
</a>
</g>
</g>
<!-- Node26&#45;&gt;Node25 -->
<g id="edge36" class="edge">
<title>Node26&#45;&gt;Node25</title>
<path fill="none" stroke="#9a32cd" stroke-dasharray="5,2" d="M1899.13,-27.25C1917.86,-29.13 1937.71,-31.65 1956,-35 1964.24,-36.51 1972.81,-38.39 1981.27,-40.46"/>
<polygon fill="#9a32cd" stroke="#9a32cd" points="1899.44,-23.76 1889.16,-26.3 1898.78,-30.73 1899.44,-23.76"/>
<text text-anchor="middle" x="1931.5" y="-38" font-family="Helvetica,sans-Serif" font-size="10.00"> elements</text>
</g>
</g>
</svg>
        <g id="navigator" transform="translate(0 0)" fill="#404254">
                <rect fill="#f2f5e9" fill-opacity="0.5" stroke="#606060" stroke-width=".5" x="0" y="0" width="60" height="60"/>
                <use id="zoomplus" xlink:href="#zoomPlus" x="17" y="9" onmousedown="handleZoom(evt,'in')"/>
                <use id="zoomminus" xlink:href="#zoomMin" x="42" y="9" onmousedown="handleZoom(evt,'out')"/>
                <use id="reset" xlink:href="#resetDef" x="30" y="36" onmousedown="handleReset()"/>
                <g id="arrowUp" xlink:href="#dirArrow" transform="translate(30 24)" onmousedown="handlePan(0,-1)">
                  <use xlink:href="#rim" fill="#404040">
                        <set attributeName="fill" to="#808080" begin="arrowUp.mouseover" end="arrowUp.mouseout"/>
                  </use>
                  <path fill="none" stroke="white" stroke-width="1.5" d="M0,-3.0v7 M-2.5,-0.5L0,-3.0L2.5,-0.5"/>
                </g>
                <g id="arrowRight" xlink:href="#dirArrow" transform="rotate(90) translate(36 -43)" onmousedown="handlePan(1,0)">
                  <use xlink:href="#rim" fill="#404040">
                        <set attributeName="fill" to="#808080" begin="arrowRight.mouseover" end="arrowRight.mouseout"/>
                  </use>
                  <path fill="none" stroke="white" stroke-width="1.5" d="M0,-3.0v7 M-2.5,-0.5L0,-3.0L2.5,-0.5"/>
                </g>
                <g id="arrowDown" xlink:href="#dirArrow" transform="rotate(180) translate(-30 -48)" onmousedown="handlePan(0,1)">
                  <use xlink:href="#rim" fill="#404040">
                        <set attributeName="fill" to="#808080" begin="arrowDown.mouseover" end="arrowDown.mouseout"/>
                  </use>
                  <path fill="none" stroke="white" stroke-width="1.5" d="M0,-3.0v7 M-2.5,-0.5L0,-3.0L2.5,-0.5"/>
                </g>
                <g id="arrowLeft" xlink:href="#dirArrow" transform="rotate(270) translate(-36 17)" onmousedown="handlePan(-1,0)">
                  <use xlink:href="#rim" fill="#404040">
                        <set attributeName="fill" to="#808080" begin="arrowLeft.mouseover" end="arrowLeft.mouseout"/>
                  </use>
                  <path fill="none" stroke="white" stroke-width="1.5" d="M0,-3.0v7 M-2.5,-0.5L0,-3.0L2.5,-0.5"/>
                </g>
        </g>
        <svg viewBox="0 0 15 15" width="100%" height="30px" preserveAspectRatio="xMaxYMin meet">
         <g id="arrow_out" transform="scale(0.3 0.3)">
          <a xlink:href="structccf_1_1NodeConfigurationState__coll__graph_org.svg" target="_base">
           <rect id="button" ry="5" rx="5" y="6" x="6" height="38" width="38"
                fill="#f2f5e9" fill-opacity="0.5" stroke="#606060" stroke-width="1.0"/>
           <path id="arrow"
             d="M 11.500037,31.436501 C 11.940474,20.09759 22.043105,11.32322 32.158766,21.979434 L 37.068811,17.246167 C 37.068811,17.246167 37.088388,32 37.088388,32 L 22.160133,31.978069 C 22.160133,31.978069 26.997745,27.140456 26.997745,27.140456 C 18.528582,18.264221 13.291696,25.230495 11.500037,31.436501 z"
             style="fill:#404040;"/>
          </a>
         </g>
        </svg>
</svg>
