<?xml version="1.0" encoding="UTF-8" standalone="no"?>
<!DOCTYPE svg PUBLIC "-//W3C//DTD SVG 1.1//EN"
 "http://www.w3.org/Graphics/SVG/1.1/DTD/svg11.dtd">
<!-- Generated by graphviz version 2.43.0 (0)
 -->
<!-- Title: src/apps/tpcc/app/tpcc_setup.h Pages: 1 -->
<!--zoomable 520 -->
<svg id="main" version="1.1" xmlns="http://www.w3.org/2000/svg" xmlns:xlink="http://www.w3.org/1999/xlink" xml:space="preserve" onload="init(evt)">
<style type="text/css"><![CDATA[
.edge:hover path { stroke: red; }
.edge:hover polygon { stroke: red; fill: red; }
]]></style>
<script type="text/javascript"><![CDATA[
var edges = document.getElementsByTagName('g');
if (edges && edges.length) {
  for (var i=0;i<edges.length;i++) {
    if (edges[i].id.substr(0,4)=='edge') {
      edges[i].setAttribute('class','edge');
    }
  }
}
]]></script>
        <defs>
                <circle id="rim" cx="0" cy="0" r="7"/>
                <circle id="rim2" cx="0" cy="0" r="3.5"/>
                <g id="zoomPlus">
                        <use xlink:href="#rim" fill="#404040">
                                <set attributeName="fill" to="#808080" begin="zoomplus.mouseover" end="zoomplus.mouseout"/>
                        </use>
                        <path d="M-4,0h8M0,-4v8" fill="none" stroke="white" stroke-width="1.5" pointer-events="none"/>
                </g>
                <g id="zoomMin">
                        <use xlink:href="#rim" fill="#404040">
                                <set attributeName="fill" to="#808080" begin="zoomminus.mouseover" end="zoomminus.mouseout"/>
                        </use>
                        <path d="M-4,0h8" fill="none" stroke="white" stroke-width="1.5" pointer-events="none"/>
                </g>
                <g id="dirArrow">
                        <path fill="none" stroke="white" stroke-width="1.5" d="M0,-3.0v7 M-2.5,-0.5L0,-3.0L2.5,-0.5"/>
                </g>
               <g id="resetDef">
                       <use xlink:href="#rim2" fill="#404040">
                               <set attributeName="fill" to="#808080" begin="reset.mouseover" end="reset.mouseout"/>
                       </use>
               </g>
        </defs>

<script type="text/javascript">
var viewWidth = 1651;
var viewHeight = 520;
var sectionId = 'dynsection-0';
</script>
<script xlink:href="svgpan.js"/>
<svg id="graph" class="graph">
<g id="viewport">
<title>src/apps/tpcc/app/tpcc_setup.h</title>
<polygon fill="white" stroke="transparent" points="-4,4 -4,-516 1647,-516 1647,4 -4,4"/>
<!-- Node1 -->
<g id="node1" class="node">
<title>Node1</title>
<g id="a_node1"><a xlink:title=" ">
<polygon fill="#bfbfbf" stroke="black" points="671.5,-481.5 671.5,-511.5 796.5,-511.5 796.5,-481.5 671.5,-481.5"/>
<text text-anchor="start" x="679.5" y="-499.5" font-family="Helvetica,sans-Serif" font-size="10.00">src/apps/tpcc/app/tpcc</text>
<text text-anchor="middle" x="734" y="-488.5" font-family="Helvetica,sans-Serif" font-size="10.00">_setup.h</text>
</a>
</g>
</g>
<!-- Node2 -->
<g id="node2" class="node">
<title>Node2</title>
<g id="a_node2"><a xlink:href="tpcc__common_8h.html" target="_top" xlink:title=" ">
<polygon fill="white" stroke="black" points="0,-369.5 0,-388.5 94,-388.5 94,-369.5 0,-369.5"/>
<text text-anchor="middle" x="47" y="-376.5" font-family="Helvetica,sans-Serif" font-size="10.00">tpcc_common.h</text>
</a>
</g>
</g>
<!-- Node1&#45;&gt;Node2 -->
<g id="edge1" class="edge">
<title>Node1&#45;&gt;Node2</title>
<path fill="none" stroke="midnightblue" d="M671.21,-484.94C538.66,-462.66 232.01,-411.1 104.36,-389.64"/>
<polygon fill="midnightblue" stroke="midnightblue" points="104.84,-386.17 94.39,-387.97 103.68,-393.08 104.84,-386.17"/>
</g>
<!-- Node4 -->
<g id="node4" class="node">
<title>Node4</title>
<g id="a_node4"><a xlink:href="tpcc__tables_8h.html" target="_top" xlink:title=" ">
<polygon fill="white" stroke="black" points="624.5,-425.5 624.5,-444.5 705.5,-444.5 705.5,-425.5 624.5,-425.5"/>
<text text-anchor="middle" x="665" y="-432.5" font-family="Helvetica,sans-Serif" font-size="10.00">tpcc_tables.h</text>
</a>
</g>
</g>
<!-- Node1&#45;&gt;Node4 -->
<g id="edge3" class="edge">
<title>Node1&#45;&gt;Node4</title>
<path fill="none" stroke="midnightblue" d="M717.65,-481.4C707.1,-472.31 693.4,-460.49 682.62,-451.19"/>
<polygon fill="midnightblue" stroke="midnightblue" points="684.9,-448.54 675.04,-444.66 680.33,-453.84 684.9,-448.54"/>
</g>
<!-- Node42 -->
<g id="node42" class="node">
<title>Node42</title>
<g id="a_node42"><a xlink:title=" ">
<polygon fill="white" stroke="#bfbfbf" points="1167.5,-369.5 1167.5,-388.5 1220.5,-388.5 1220.5,-369.5 1167.5,-369.5"/>
<text text-anchor="middle" x="1194" y="-376.5" font-family="Helvetica,sans-Serif" font-size="10.00">stdint.h</text>
</a>
</g>
</g>
<!-- Node1&#45;&gt;Node42 -->
<g id="edge71" class="edge">
<title>Node1&#45;&gt;Node42</title>
<path fill="none" stroke="midnightblue" d="M733.62,-481.36C734.03,-465.05 737.45,-438.72 754,-425 822.54,-368.18 1065.01,-402.57 1153,-389 1154.3,-388.8 1155.61,-388.58 1156.94,-388.35"/>
<polygon fill="midnightblue" stroke="midnightblue" points="1158.02,-391.71 1167.18,-386.39 1156.71,-384.84 1158.02,-391.71"/>
</g>
<!-- Node45 -->
<g id="node45" class="node">
<title>Node45</title>
<g id="a_node45"><a xlink:title=" ">
<polygon fill="white" stroke="#bfbfbf" points="762.5,-425.5 762.5,-444.5 827.5,-444.5 827.5,-425.5 762.5,-425.5"/>
<text text-anchor="middle" x="795" y="-432.5" font-family="Helvetica,sans-Serif" font-size="10.00">exception</text>
</a>
</g>
</g>
<!-- Node1&#45;&gt;Node45 -->
<g id="edge69" class="edge">
<title>Node1&#45;&gt;Node45</title>
<path fill="none" stroke="midnightblue" d="M748.46,-481.4C757.59,-472.49 769.42,-460.95 778.86,-451.74"/>
<polygon fill="midnightblue" stroke="midnightblue" points="781.41,-454.15 786.12,-444.66 776.52,-449.13 781.41,-454.15"/>
</g>
<!-- Node46 -->
<g id="node46" class="node">
<title>Node46</title>
<g id="a_node46"><a xlink:title=" ">
<polygon fill="white" stroke="#bfbfbf" points="846,-425.5 846,-444.5 878,-444.5 878,-425.5 846,-425.5"/>
<text text-anchor="middle" x="862" y="-432.5" font-family="Helvetica,sans-Serif" font-size="10.00">set</text>
</a>
</g>
</g>
<!-- Node1&#45;&gt;Node46 -->
<g id="edge70" class="edge">
<title>Node1&#45;&gt;Node46</title>
<path fill="none" stroke="midnightblue" d="M764.33,-481.4C786.42,-471.13 815.97,-457.4 836.77,-447.73"/>
<polygon fill="midnightblue" stroke="midnightblue" points="838.33,-450.86 845.92,-443.47 835.38,-444.51 838.33,-450.86"/>
</g>
<!-- Node3 -->
<g id="node3" class="node">
<title>Node3</title>
<g id="a_node3"><a xlink:title=" ">
<polygon fill="white" stroke="#bfbfbf" points="20,-308 20,-327 74,-327 74,-308 20,-308"/>
<text text-anchor="middle" x="47" y="-315" font-family="Helvetica,sans-Serif" font-size="10.00">random</text>
</a>
</g>
</g>
<!-- Node2&#45;&gt;Node3 -->
<g id="edge2" class="edge">
<title>Node2&#45;&gt;Node3</title>
<path fill="none" stroke="midnightblue" d="M47,-369.48C47,-361.08 47,-347.98 47,-337.16"/>
<polygon fill="midnightblue" stroke="midnightblue" points="50.5,-337.01 47,-327.01 43.5,-337.01 50.5,-337.01"/>
</g>
<!-- Node4&#45;&gt;Node2 -->
<g id="edge62" class="edge">
<title>Node4&#45;&gt;Node2</title>
<path fill="none" stroke="midnightblue" d="M624.38,-431.64C532.31,-426.08 300.78,-410.99 108,-389 106.74,-388.86 105.47,-388.71 104.19,-388.55"/>
<polygon fill="midnightblue" stroke="midnightblue" points="104.61,-385.08 94.25,-387.28 103.73,-392.02 104.61,-385.08"/>
</g>
<!-- Node5 -->
<g id="node5" class="node">
<title>Node5</title>
<g id="a_node5"><a xlink:href="json_8h.html" target="_top" xlink:title=" ">
<polygon fill="white" stroke="black" points="469.5,-369.5 469.5,-388.5 546.5,-388.5 546.5,-369.5 469.5,-369.5"/>
<text text-anchor="middle" x="508" y="-376.5" font-family="Helvetica,sans-Serif" font-size="10.00">ccf/ds/json.h</text>
</a>
</g>
</g>
<!-- Node4&#45;&gt;Node5 -->
<g id="edge4" class="edge">
<title>Node4&#45;&gt;Node5</title>
<path fill="none" stroke="midnightblue" d="M640.12,-425.44C613.71,-416.36 571.78,-401.94 542.26,-391.78"/>
<polygon fill="midnightblue" stroke="midnightblue" points="543.36,-388.46 532.76,-388.52 541.08,-395.08 543.36,-388.46"/>
</g>
<!-- Node8 -->
<g id="node8" class="node">
<title>Node8</title>
<g id="a_node8"><a xlink:title=" ">
<polygon fill="white" stroke="#bfbfbf" points="685.5,-0.5 685.5,-19.5 732.5,-19.5 732.5,-0.5 685.5,-0.5"/>
<text text-anchor="middle" x="709" y="-7.5" font-family="Helvetica,sans-Serif" font-size="10.00">vector</text>
</a>
</g>
</g>
<!-- Node4&#45;&gt;Node8 -->
<g id="edge68" class="edge">
<title>Node4&#45;&gt;Node8</title>
<path fill="none" stroke="midnightblue" d="M624.19,-434.01C497.91,-432.94 122,-421.14 122,-318.5 122,-318.5 122,-318.5 122,-121 122,-64.33 550.12,-24.23 675.12,-13.73"/>
<polygon fill="midnightblue" stroke="midnightblue" points="675.59,-17.2 685.26,-12.88 675.01,-10.22 675.59,-17.2"/>
</g>
<!-- Node10 -->
<g id="node10" class="node">
<title>Node10</title>
<g id="a_node10"><a xlink:href="nonstd_8h.html" target="_top" xlink:title=" ">
<polygon fill="white" stroke="black" points="341,-241 341,-260 431,-260 431,-241 341,-241"/>
<text text-anchor="middle" x="386" y="-248" font-family="Helvetica,sans-Serif" font-size="10.00">ccf/ds/nonstd.h</text>
</a>
</g>
</g>
<!-- Node4&#45;&gt;Node10 -->
<g id="edge21" class="edge">
<title>Node4&#45;&gt;Node10</title>
<path fill="none" stroke="midnightblue" d="M624.3,-430.67C562.85,-424.97 450.04,-411.72 417,-389 393.01,-372.5 390.85,-361.04 383,-333 379.29,-319.73 382.59,-315.77 383,-302 383.31,-291.51 383.99,-279.82 384.62,-270.33"/>
<polygon fill="midnightblue" stroke="midnightblue" points="388.13,-270.29 385.34,-260.07 381.14,-269.8 388.13,-270.29"/>
</g>
<!-- Node17 -->
<g id="node17" class="node">
<title>Node17</title>
<g id="a_node17"><a xlink:title=" ">
<polygon fill="white" stroke="#bfbfbf" points="449,-241 449,-260 559,-260 559,-241 449,-241"/>
<text text-anchor="middle" x="504" y="-248" font-family="Helvetica,sans-Serif" font-size="10.00">nlohmann/json.hpp</text>
</a>
</g>
</g>
<!-- Node4&#45;&gt;Node17 -->
<g id="edge64" class="edge">
<title>Node4&#45;&gt;Node17</title>
<path fill="none" stroke="midnightblue" d="M624.46,-434.56C558.73,-432.88 432.22,-418.23 392,-333 386.12,-320.54 384.52,-313.57 392,-302 404.55,-282.58 426.55,-270.55 447.75,-263.14"/>
<polygon fill="midnightblue" stroke="midnightblue" points="448.94,-266.43 457.4,-260.04 446.81,-259.76 448.94,-266.43"/>
</g>
<!-- Node19 -->
<g id="node19" class="node">
<title>Node19</title>
<g id="a_node19"><a xlink:href="kv_2map_8h.html" target="_top" xlink:title=" ">
<polygon fill="white" stroke="black" points="1031,-369.5 1031,-388.5 1111,-388.5 1111,-369.5 1031,-369.5"/>
<text text-anchor="middle" x="1071" y="-376.5" font-family="Helvetica,sans-Serif" font-size="10.00">ccf/kv/map.h</text>
</a>
</g>
</g>
<!-- Node4&#45;&gt;Node19 -->
<g id="edge22" class="edge">
<title>Node4&#45;&gt;Node19</title>
<path fill="none" stroke="midnightblue" d="M705.52,-427.17C710.39,-426.41 715.31,-425.67 720,-425 851.64,-406.26 885.39,-407.93 1017,-389 1018.27,-388.82 1019.56,-388.63 1020.85,-388.44"/>
<polygon fill="midnightblue" stroke="midnightblue" points="1021.58,-391.87 1030.93,-386.88 1020.51,-384.95 1021.58,-391.87"/>
</g>
<!-- Node28 -->
<g id="node28" class="node">
<title>Node28</title>
<g id="a_node28"><a xlink:href="serialised__entry_8h.html" target="_top" xlink:title=" ">
<polygon fill="white" stroke="black" points="1037.5,-168.5 1037.5,-198.5 1142.5,-198.5 1142.5,-168.5 1037.5,-168.5"/>
<text text-anchor="start" x="1045.5" y="-186.5" font-family="Helvetica,sans-Serif" font-size="10.00">ccf/kv/serialisers</text>
<text text-anchor="middle" x="1090" y="-175.5" font-family="Helvetica,sans-Serif" font-size="10.00">/serialised_entry.h</text>
</a>
</g>
</g>
<!-- Node4&#45;&gt;Node28 -->
<g id="edge55" class="edge">
<title>Node4&#45;&gt;Node28</title>
<path fill="none" stroke="midnightblue" d="M705.52,-428.63C715.48,-427.38 726.12,-426.09 736,-425 778.6,-420.3 1091.15,-420.68 1120,-389 1166.17,-338.3 1126.69,-249.33 1103.7,-207.48"/>
<polygon fill="midnightblue" stroke="midnightblue" points="1106.65,-205.58 1098.68,-198.6 1100.56,-209.03 1106.65,-205.58"/>
</g>
<!-- Node39 -->
<g id="node39" class="node">
<title>Node39</title>
<g id="a_node39"><a xlink:href="serialized_8h.html" target="_top" xlink:title=" ">
<polygon fill="white" stroke="black" points="908.5,-241 908.5,-260 995.5,-260 995.5,-241 908.5,-241"/>
<text text-anchor="middle" x="952" y="-248" font-family="Helvetica,sans-Serif" font-size="10.00">ds/serialized.h</text>
</a>
</g>
</g>
<!-- Node4&#45;&gt;Node39 -->
<g id="edge56" class="edge">
<title>Node4&#45;&gt;Node39</title>
<path fill="none" stroke="midnightblue" d="M702.51,-425.48C724.77,-418.77 752.23,-407.4 771,-389 801.26,-359.34 778.87,-330.74 810,-302 817.98,-294.64 875.27,-275.6 914.6,-263.12"/>
<polygon fill="midnightblue" stroke="midnightblue" points="915.69,-266.45 924.17,-260.1 913.58,-259.77 915.69,-266.45"/>
</g>
<!-- Node40 -->
<g id="node40" class="node">
<title>Node40</title>
<g id="a_node40"><a xlink:title=" ">
<polygon fill="white" stroke="#bfbfbf" points="969,-174 969,-193 1019,-193 1019,-174 969,-174"/>
<text text-anchor="middle" x="994" y="-181" font-family="Helvetica,sans-Serif" font-size="10.00">cstring</text>
</a>
</g>
</g>
<!-- Node4&#45;&gt;Node40 -->
<g id="edge63" class="edge">
<title>Node4&#45;&gt;Node40</title>
<path fill="none" stroke="midnightblue" d="M705.68,-426.05C799.19,-407.39 1023.05,-360.27 1044,-333 1075.53,-291.97 1032.6,-229.92 1008.45,-200.75"/>
<polygon fill="midnightblue" stroke="midnightblue" points="1011.09,-198.45 1001.94,-193.12 1005.77,-203 1011.09,-198.45"/>
</g>
<!-- Node4&#45;&gt;Node42 -->
<g id="edge65" class="edge">
<title>Node4&#45;&gt;Node42</title>
<path fill="none" stroke="midnightblue" d="M705.8,-426.96C710.58,-426.24 715.39,-425.57 720,-425 911.66,-401.39 962.05,-417.77 1153,-389 1154.3,-388.8 1155.61,-388.59 1156.94,-388.37"/>
<polygon fill="midnightblue" stroke="midnightblue" points="1158.02,-391.72 1167.19,-386.42 1156.71,-384.85 1158.02,-391.72"/>
</g>
<!-- Node43 -->
<g id="node43" class="node">
<title>Node43</title>
<g id="a_node43"><a xlink:title=" ">
<polygon fill="white" stroke="#bfbfbf" points="564.5,-369.5 564.5,-388.5 657.5,-388.5 657.5,-369.5 564.5,-369.5"/>
<text text-anchor="middle" x="611" y="-376.5" font-family="Helvetica,sans-Serif" font-size="10.00">unordered_map</text>
</a>
</g>
</g>
<!-- Node4&#45;&gt;Node43 -->
<g id="edge66" class="edge">
<title>Node4&#45;&gt;Node43</title>
<path fill="none" stroke="midnightblue" d="M656.08,-425.08C648.22,-417.22 636.57,-405.57 627.08,-396.08"/>
<polygon fill="midnightblue" stroke="midnightblue" points="629.3,-393.35 619.75,-388.75 624.35,-398.3 629.3,-393.35"/>
</g>
<!-- Node44 -->
<g id="node44" class="node">
<title>Node44</title>
<g id="a_node44"><a xlink:title=" ">
<polygon fill="white" stroke="#bfbfbf" points="676,-369.5 676,-388.5 762,-388.5 762,-369.5 676,-369.5"/>
<text text-anchor="middle" x="719" y="-376.5" font-family="Helvetica,sans-Serif" font-size="10.00">unordered_set</text>
</a>
</g>
</g>
<!-- Node4&#45;&gt;Node44 -->
<g id="edge67" class="edge">
<title>Node4&#45;&gt;Node44</title>
<path fill="none" stroke="midnightblue" d="M673.92,-425.08C681.78,-417.22 693.43,-405.57 702.92,-396.08"/>
<polygon fill="midnightblue" stroke="midnightblue" points="705.65,-398.3 710.25,-388.75 700.7,-393.35 705.65,-398.3"/>
</g>
<!-- Node6 -->
<g id="node6" class="node">
<title>Node6</title>
<g id="a_node6"><a xlink:href="include_2ccf_2crypto_2base64_8h.html" target="_top" xlink:title=" ">
<polygon fill="white" stroke="black" points="653,-241 653,-260 765,-260 765,-241 653,-241"/>
<text text-anchor="middle" x="709" y="-248" font-family="Helvetica,sans-Serif" font-size="10.00">ccf/crypto/base64.h</text>
</a>
</g>
</g>
<!-- Node5&#45;&gt;Node6 -->
<g id="edge5" class="edge">
<title>Node5&#45;&gt;Node6</title>
<path fill="none" stroke="midnightblue" d="M546.57,-370.44C574.05,-363.75 610.94,-352.03 639,-333 664.37,-315.79 686.02,-287.09 698.26,-268.74"/>
<polygon fill="midnightblue" stroke="midnightblue" points="701.29,-270.5 703.78,-260.21 695.41,-266.7 701.29,-270.5"/>
</g>
<!-- Node9 -->
<g id="node9" class="node">
<title>Node9</title>
<g id="a_node9"><a xlink:href="include_2ccf_2ds_2json__schema_8h.html" target="_top" xlink:title=" ">
<polygon fill="white" stroke="black" points="475.5,-308 475.5,-327 596.5,-327 596.5,-308 475.5,-308"/>
<text text-anchor="middle" x="536" y="-315" font-family="Helvetica,sans-Serif" font-size="10.00">ccf/ds/json_schema.h</text>
</a>
</g>
</g>
<!-- Node5&#45;&gt;Node9 -->
<g id="edge8" class="edge">
<title>Node5&#45;&gt;Node9</title>
<path fill="none" stroke="midnightblue" d="M512.01,-369.48C516.09,-360.82 522.52,-347.15 527.7,-336.15"/>
<polygon fill="midnightblue" stroke="midnightblue" points="530.9,-337.55 532,-327.01 524.57,-334.57 530.9,-337.55"/>
</g>
<!-- Node16 -->
<g id="node16" class="node">
<title>Node16</title>
<g id="a_node16"><a xlink:title=" ">
<polygon fill="white" stroke="#bfbfbf" points="585.5,-56.5 585.5,-75.5 664.5,-75.5 664.5,-56.5 585.5,-56.5"/>
<text text-anchor="middle" x="625" y="-63.5" font-family="Helvetica,sans-Serif" font-size="10.00">fmt/format.h</text>
</a>
</g>
</g>
<!-- Node5&#45;&gt;Node16 -->
<g id="edge19" class="edge">
<title>Node5&#45;&gt;Node16</title>
<path fill="none" stroke="midnightblue" d="M544.7,-369.42C565.27,-362.77 589.78,-351.49 605,-333 628.7,-304.2 625,-288.8 625,-251.5 625,-251.5 625,-251.5 625,-182.5 625,-148.36 625,-108.55 625,-85.71"/>
<polygon fill="midnightblue" stroke="midnightblue" points="628.5,-85.69 625,-75.69 621.5,-85.69 628.5,-85.69"/>
</g>
<!-- Node18 -->
<g id="node18" class="node">
<title>Node18</title>
<g id="a_node18"><a xlink:title=" ">
<polygon fill="white" stroke="#bfbfbf" points="401,-308 401,-327 457,-327 457,-308 401,-308"/>
<text text-anchor="middle" x="429" y="-315" font-family="Helvetica,sans-Serif" font-size="10.00">sstream</text>
</a>
</g>
</g>
<!-- Node5&#45;&gt;Node18 -->
<g id="edge20" class="edge">
<title>Node5&#45;&gt;Node18</title>
<path fill="none" stroke="midnightblue" d="M496.68,-369.48C484.13,-360.02 463.65,-344.6 448.5,-333.19"/>
<polygon fill="midnightblue" stroke="midnightblue" points="450.39,-330.23 440.3,-327.01 446.18,-335.82 450.39,-330.23"/>
</g>
<!-- Node7 -->
<g id="node7" class="node">
<title>Node7</title>
<g id="a_node7"><a xlink:title=" ">
<polygon fill="white" stroke="#bfbfbf" points="747,-174 747,-193 791,-193 791,-174 747,-174"/>
<text text-anchor="middle" x="769" y="-181" font-family="Helvetica,sans-Serif" font-size="10.00">string</text>
</a>
</g>
</g>
<!-- Node6&#45;&gt;Node7 -->
<g id="edge6" class="edge">
<title>Node6&#45;&gt;Node7</title>
<path fill="none" stroke="midnightblue" d="M717.09,-240.73C726.54,-230.5 742.36,-213.36 754.05,-200.69"/>
<polygon fill="midnightblue" stroke="midnightblue" points="756.83,-202.85 761.04,-193.13 751.68,-198.1 756.83,-202.85"/>
</g>
<!-- Node6&#45;&gt;Node8 -->
<g id="edge7" class="edge">
<title>Node6&#45;&gt;Node8</title>
<path fill="none" stroke="midnightblue" d="M709,-240.73C709,-206.1 709,-78.43 709,-29.9"/>
<polygon fill="midnightblue" stroke="midnightblue" points="712.5,-29.6 709,-19.6 705.5,-29.6 712.5,-29.6"/>
</g>
<!-- Node9&#45;&gt;Node10 -->
<g id="edge9" class="edge">
<title>Node9&#45;&gt;Node10</title>
<path fill="none" stroke="midnightblue" d="M516.08,-307.87C490.31,-296.7 445.18,-277.15 415.45,-264.26"/>
<polygon fill="midnightblue" stroke="midnightblue" points="416.57,-260.93 406,-260.17 413.79,-267.35 416.57,-260.93"/>
</g>
<!-- Node9&#45;&gt;Node16 -->
<g id="edge17" class="edge">
<title>Node9&#45;&gt;Node16</title>
<path fill="none" stroke="midnightblue" d="M542.75,-307.65C549.89,-297.9 561.08,-281.55 568,-266 596.88,-201.07 590.89,-180.16 611,-112 613.61,-103.16 616.63,-93.39 619.2,-85.21"/>
<polygon fill="midnightblue" stroke="midnightblue" points="622.56,-86.19 622.24,-75.6 615.89,-84.08 622.56,-86.19"/>
</g>
<!-- Node9&#45;&gt;Node17 -->
<g id="edge18" class="edge">
<title>Node9&#45;&gt;Node17</title>
<path fill="none" stroke="midnightblue" d="M531.68,-307.73C526.84,-297.89 518.85,-281.66 512.69,-269.16"/>
<polygon fill="midnightblue" stroke="midnightblue" points="515.8,-267.55 508.25,-260.13 509.52,-270.64 515.8,-267.55"/>
</g>
<!-- Node10&#45;&gt;Node7 -->
<g id="edge13" class="edge">
<title>Node10&#45;&gt;Node7</title>
<path fill="none" stroke="midnightblue" d="M415.57,-240.93C423.46,-238.82 432.02,-236.68 440,-235 547.8,-212.32 677.49,-195.42 736.69,-188.26"/>
<polygon fill="midnightblue" stroke="midnightblue" points="737.39,-191.7 746.9,-187.04 736.56,-184.75 737.39,-191.7"/>
</g>
<!-- Node10&#45;&gt;Node8 -->
<g id="edge16" class="edge">
<title>Node10&#45;&gt;Node8</title>
<path fill="none" stroke="midnightblue" d="M340.75,-247.62C267.56,-242.86 135.56,-226.18 179,-168 240.33,-85.86 568.4,-31.48 675.3,-15.73"/>
<polygon fill="midnightblue" stroke="midnightblue" points="675.83,-19.19 685.23,-14.28 674.83,-12.26 675.83,-19.19"/>
</g>
<!-- Node11 -->
<g id="node11" class="node">
<title>Node11</title>
<g id="a_node11"><a xlink:title=" ">
<polygon fill="white" stroke="#bfbfbf" points="367,-174 367,-193 431,-193 431,-174 367,-174"/>
<text text-anchor="middle" x="399" y="-181" font-family="Helvetica,sans-Serif" font-size="10.00">algorithm</text>
</a>
</g>
</g>
<!-- Node10&#45;&gt;Node11 -->
<g id="edge10" class="edge">
<title>Node10&#45;&gt;Node11</title>
<path fill="none" stroke="midnightblue" d="M387.75,-240.73C389.66,-231.18 392.78,-215.62 395.24,-203.28"/>
<polygon fill="midnightblue" stroke="midnightblue" points="398.75,-203.62 397.27,-193.13 391.88,-202.25 398.75,-203.62"/>
</g>
<!-- Node12 -->
<g id="node12" class="node">
<title>Node12</title>
<g id="a_node12"><a xlink:title=" ">
<polygon fill="white" stroke="#bfbfbf" points="449,-174 449,-193 491,-193 491,-174 449,-174"/>
<text text-anchor="middle" x="470" y="-181" font-family="Helvetica,sans-Serif" font-size="10.00">array</text>
</a>
</g>
</g>
<!-- Node10&#45;&gt;Node12 -->
<g id="edge11" class="edge">
<title>Node10&#45;&gt;Node12</title>
<path fill="none" stroke="midnightblue" d="M397.33,-240.73C411.06,-230.11 434.4,-212.05 450.92,-199.26"/>
<polygon fill="midnightblue" stroke="midnightblue" points="453.08,-202.02 458.85,-193.13 448.8,-196.48 453.08,-202.02"/>
</g>
<!-- Node13 -->
<g id="node13" class="node">
<title>Node13</title>
<g id="a_node13"><a xlink:title=" ">
<polygon fill="white" stroke="#bfbfbf" points="509.5,-174 509.5,-193 558.5,-193 558.5,-174 509.5,-174"/>
<text text-anchor="middle" x="534" y="-181" font-family="Helvetica,sans-Serif" font-size="10.00">cctype</text>
</a>
</g>
</g>
<!-- Node10&#45;&gt;Node13 -->
<g id="edge12" class="edge">
<title>Node10&#45;&gt;Node13</title>
<path fill="none" stroke="midnightblue" d="M405.65,-240.87C431.09,-229.7 475.6,-210.15 504.95,-197.26"/>
<polygon fill="midnightblue" stroke="midnightblue" points="506.52,-200.39 514.27,-193.17 503.7,-193.98 506.52,-200.39"/>
</g>
<!-- Node14 -->
<g id="node14" class="node">
<title>Node14</title>
<g id="a_node14"><a xlink:title=" ">
<polygon fill="white" stroke="#bfbfbf" points="275.5,-174 275.5,-193 348.5,-193 348.5,-174 275.5,-174"/>
<text text-anchor="middle" x="312" y="-181" font-family="Helvetica,sans-Serif" font-size="10.00">string_view</text>
</a>
</g>
</g>
<!-- Node10&#45;&gt;Node14 -->
<g id="edge14" class="edge">
<title>Node10&#45;&gt;Node14</title>
<path fill="none" stroke="midnightblue" d="M376.02,-240.73C364.15,-230.31 344.11,-212.71 329.62,-199.97"/>
<polygon fill="midnightblue" stroke="midnightblue" points="331.64,-197.1 321.82,-193.13 327.03,-202.36 331.64,-197.1"/>
</g>
<!-- Node15 -->
<g id="node15" class="node">
<title>Node15</title>
<g id="a_node15"><a xlink:title=" ">
<polygon fill="white" stroke="#bfbfbf" points="188.5,-174 188.5,-193 257.5,-193 257.5,-174 188.5,-174"/>
<text text-anchor="middle" x="223" y="-181" font-family="Helvetica,sans-Serif" font-size="10.00">type_traits</text>
</a>
</g>
</g>
<!-- Node10&#45;&gt;Node15 -->
<g id="edge15" class="edge">
<title>Node10&#45;&gt;Node15</title>
<path fill="none" stroke="midnightblue" d="M364.35,-240.87C336.02,-229.57 286.18,-209.7 253.89,-196.82"/>
<polygon fill="midnightblue" stroke="midnightblue" points="255.06,-193.52 244.48,-193.06 252.47,-200.02 255.06,-193.52"/>
</g>
<!-- Node20 -->
<g id="node20" class="node">
<title>Node20</title>
<g id="a_node20"><a xlink:href="get__name_8h.html" target="_top" xlink:title=" ">
<polygon fill="white" stroke="black" points="783.5,-241 783.5,-260 890.5,-260 890.5,-241 783.5,-241"/>
<text text-anchor="middle" x="837" y="-248" font-family="Helvetica,sans-Serif" font-size="10.00">ccf/kv/get_name.h</text>
</a>
</g>
</g>
<!-- Node19&#45;&gt;Node20 -->
<g id="edge23" class="edge">
<title>Node19&#45;&gt;Node20</title>
<path fill="none" stroke="midnightblue" d="M1070.5,-369.26C1069.11,-353.41 1063.85,-319.92 1044,-302 1040.97,-299.27 943.94,-276.35 883.82,-262.34"/>
<polygon fill="midnightblue" stroke="midnightblue" points="884.31,-258.86 873.78,-260.01 882.73,-265.68 884.31,-258.86"/>
</g>
<!-- Node21 -->
<g id="node21" class="node">
<title>Node21</title>
<g id="a_node21"><a xlink:href="include_2ccf_2kv_2hooks_8h.html" target="_top" xlink:title=" ">
<polygon fill="white" stroke="black" points="1432.5,-241 1432.5,-260 1519.5,-260 1519.5,-241 1432.5,-241"/>
<text text-anchor="middle" x="1476" y="-248" font-family="Helvetica,sans-Serif" font-size="10.00">ccf/kv/hooks.h</text>
</a>
</g>
</g>
<!-- Node19&#45;&gt;Node21 -->
<g id="edge25" class="edge">
<title>Node19&#45;&gt;Node21</title>
<path fill="none" stroke="midnightblue" d="M1111.32,-373.57C1199.35,-363.79 1402,-340.6 1415,-333 1440.22,-318.25 1458.3,-288.57 1467.95,-269.39"/>
<polygon fill="midnightblue" stroke="midnightblue" points="1471.18,-270.75 1472.33,-260.21 1464.86,-267.73 1471.18,-270.75"/>
</g>
<!-- Node25 -->
<g id="node25" class="node">
<title>Node25</title>
<g id="a_node25"><a xlink:href="map__handle_8h.html" target="_top" xlink:title=" ">
<polygon fill="white" stroke="black" points="1169,-308 1169,-327 1287,-327 1287,-308 1169,-308"/>
<text text-anchor="middle" x="1228" y="-315" font-family="Helvetica,sans-Serif" font-size="10.00">ccf/kv/map_handle.h</text>
</a>
</g>
</g>
<!-- Node19&#45;&gt;Node25 -->
<g id="edge29" class="edge">
<title>Node19&#45;&gt;Node25</title>
<path fill="none" stroke="midnightblue" d="M1093.49,-369.48C1120.31,-359.31 1165.32,-342.26 1195.81,-330.7"/>
<polygon fill="midnightblue" stroke="midnightblue" points="1197.44,-333.83 1205.55,-327.01 1194.96,-327.28 1197.44,-333.83"/>
</g>
<!-- Node35 -->
<g id="node35" class="node">
<title>Node35</title>
<g id="a_node35"><a xlink:href="blit__serialiser_8h.html" target="_top" xlink:title=" ">
<polygon fill="white" stroke="black" points="818.5,-302.5 818.5,-332.5 917.5,-332.5 917.5,-302.5 818.5,-302.5"/>
<text text-anchor="start" x="826.5" y="-320.5" font-family="Helvetica,sans-Serif" font-size="10.00">ccf/kv/serialisers</text>
<text text-anchor="middle" x="868" y="-309.5" font-family="Helvetica,sans-Serif" font-size="10.00">/blit_serialiser.h</text>
</a>
</g>
</g>
<!-- Node19&#45;&gt;Node35 -->
<g id="edge44" class="edge">
<title>Node19&#45;&gt;Node35</title>
<path fill="none" stroke="midnightblue" d="M1041.92,-369.48C1011.72,-360.63 963.7,-346.55 925.75,-335.43"/>
<polygon fill="midnightblue" stroke="midnightblue" points="926.42,-331.98 915.84,-332.52 924.45,-338.69 926.42,-331.98"/>
</g>
<!-- Node36 -->
<g id="node36" class="node">
<title>Node36</title>
<g id="a_node36"><a xlink:href="json__serialiser_8h.html" target="_top" xlink:title=" ">
<polygon fill="white" stroke="black" points="935.5,-302.5 935.5,-332.5 1034.5,-332.5 1034.5,-302.5 935.5,-302.5"/>
<text text-anchor="start" x="943.5" y="-320.5" font-family="Helvetica,sans-Serif" font-size="10.00">ccf/kv/serialisers</text>
<text text-anchor="middle" x="985" y="-309.5" font-family="Helvetica,sans-Serif" font-size="10.00">/json_serialiser.h</text>
</a>
</g>
</g>
<!-- Node19&#45;&gt;Node36 -->
<g id="edge47" class="edge">
<title>Node19&#45;&gt;Node36</title>
<path fill="none" stroke="midnightblue" d="M1058.68,-369.48C1047.03,-361.42 1029.12,-349.02 1013.87,-338.47"/>
<polygon fill="midnightblue" stroke="midnightblue" points="1015.48,-335.33 1005.27,-332.52 1011.5,-341.09 1015.48,-335.33"/>
</g>
<!-- Node37 -->
<g id="node37" class="node">
<title>Node37</title>
<g id="a_node37"><a xlink:href="untyped_8h.html" target="_top" xlink:title=" ">
<polygon fill="white" stroke="black" points="1308,-308 1308,-327 1406,-327 1406,-308 1308,-308"/>
<text text-anchor="middle" x="1357" y="-315" font-family="Helvetica,sans-Serif" font-size="10.00">ccf/kv/untyped.h</text>
</a>
</g>
</g>
<!-- Node19&#45;&gt;Node37 -->
<g id="edge50" class="edge">
<title>Node19&#45;&gt;Node37</title>
<path fill="none" stroke="midnightblue" d="M1111.33,-370.39C1156.43,-361.77 1231.59,-347.09 1296,-333 1301.12,-331.88 1306.47,-330.67 1311.78,-329.44"/>
<polygon fill="midnightblue" stroke="midnightblue" points="1312.95,-332.76 1321.89,-327.07 1311.36,-325.95 1312.95,-332.76"/>
</g>
<!-- Node20&#45;&gt;Node7 -->
<g id="edge24" class="edge">
<title>Node20&#45;&gt;Node7</title>
<path fill="none" stroke="midnightblue" d="M827.83,-240.73C817.02,-230.4 798.85,-213.04 785.56,-200.33"/>
<polygon fill="midnightblue" stroke="midnightblue" points="787.67,-197.51 778.03,-193.13 782.84,-202.57 787.67,-197.51"/>
</g>
<!-- Node22 -->
<g id="node22" class="node">
<title>Node22</title>
<g id="a_node22"><a xlink:href="version_8h.html" target="_top" xlink:title=" ">
<polygon fill="white" stroke="black" points="1389,-174 1389,-193 1483,-193 1483,-174 1389,-174"/>
<text text-anchor="middle" x="1436" y="-181" font-family="Helvetica,sans-Serif" font-size="10.00">ccf/kv/version.h</text>
</a>
</g>
</g>
<!-- Node21&#45;&gt;Node22 -->
<g id="edge26" class="edge">
<title>Node21&#45;&gt;Node22</title>
<path fill="none" stroke="midnightblue" d="M1470.61,-240.73C1464.49,-230.79 1454.36,-214.34 1446.64,-201.79"/>
<polygon fill="midnightblue" stroke="midnightblue" points="1449.53,-199.81 1441.31,-193.13 1443.57,-203.48 1449.53,-199.81"/>
</g>
<!-- Node23 -->
<g id="node23" class="node">
<title>Node23</title>
<g id="a_node23"><a xlink:title=" ">
<polygon fill="white" stroke="#bfbfbf" points="1501.5,-174 1501.5,-193 1566.5,-193 1566.5,-174 1501.5,-174"/>
<text text-anchor="middle" x="1534" y="-181" font-family="Helvetica,sans-Serif" font-size="10.00">functional</text>
</a>
</g>
</g>
<!-- Node21&#45;&gt;Node23 -->
<g id="edge27" class="edge">
<title>Node21&#45;&gt;Node23</title>
<path fill="none" stroke="midnightblue" d="M1483.82,-240.73C1492.95,-230.5 1508.24,-213.36 1519.55,-200.69"/>
<polygon fill="midnightblue" stroke="midnightblue" points="1522.26,-202.92 1526.3,-193.13 1517.03,-198.26 1522.26,-202.92"/>
</g>
<!-- Node24 -->
<g id="node24" class="node">
<title>Node24</title>
<g id="a_node24"><a xlink:title=" ">
<polygon fill="white" stroke="#bfbfbf" points="1585,-174 1585,-193 1643,-193 1643,-174 1585,-174"/>
<text text-anchor="middle" x="1614" y="-181" font-family="Helvetica,sans-Serif" font-size="10.00">memory</text>
</a>
</g>
</g>
<!-- Node21&#45;&gt;Node24 -->
<g id="edge28" class="edge">
<title>Node21&#45;&gt;Node24</title>
<path fill="none" stroke="midnightblue" d="M1494.33,-240.87C1517.94,-229.75 1559.19,-210.32 1586.55,-197.43"/>
<polygon fill="midnightblue" stroke="midnightblue" points="1588.04,-200.59 1595.6,-193.17 1585.06,-194.26 1588.04,-200.59"/>
</g>
<!-- Node26 -->
<g id="node26" class="node">
<title>Node26</title>
<g id="a_node26"><a xlink:href="untyped__map__handle_8h.html" target="_top" xlink:title=" ">
<polygon fill="white" stroke="black" points="1204,-235.5 1204,-265.5 1320,-265.5 1320,-235.5 1204,-235.5"/>
<text text-anchor="start" x="1212" y="-253.5" font-family="Helvetica,sans-Serif" font-size="10.00">ccf/kv/untyped_map</text>
<text text-anchor="middle" x="1262" y="-242.5" font-family="Helvetica,sans-Serif" font-size="10.00">_handle.h</text>
</a>
</g>
</g>
<!-- Node25&#45;&gt;Node26 -->
<g id="edge30" class="edge">
<title>Node25&#45;&gt;Node26</title>
<path fill="none" stroke="midnightblue" d="M1232.59,-307.73C1237,-299.29 1243.88,-286.14 1249.88,-274.68"/>
<polygon fill="midnightblue" stroke="midnightblue" points="1253.1,-276.07 1254.63,-265.59 1246.89,-272.83 1253.1,-276.07"/>
</g>
<!-- Node26&#45;&gt;Node7 -->
<g id="edge43" class="edge">
<title>Node26&#45;&gt;Node7</title>
<path fill="none" stroke="midnightblue" d="M1203.97,-244.16C1122.25,-236.27 968.75,-220.14 839,-199 826.59,-196.98 813.04,-194.28 801.19,-191.77"/>
<polygon fill="midnightblue" stroke="midnightblue" points="801.81,-188.32 791.29,-189.62 800.32,-195.16 801.81,-188.32"/>
</g>
<!-- Node26&#45;&gt;Node22 -->
<g id="edge40" class="edge">
<title>Node26&#45;&gt;Node22</title>
<path fill="none" stroke="midnightblue" d="M1299.76,-235.4C1330.83,-223.79 1374.39,-207.51 1403.83,-196.52"/>
<polygon fill="midnightblue" stroke="midnightblue" points="1405.08,-199.79 1413.23,-193.01 1402.63,-193.23 1405.08,-199.79"/>
</g>
<!-- Node26&#45;&gt;Node23 -->
<g id="edge41" class="edge">
<title>Node26&#45;&gt;Node23</title>
<path fill="none" stroke="midnightblue" d="M1320.18,-236.9C1385.54,-222.72 1483.66,-201.35 1492,-199 1494.95,-198.17 1497.99,-197.25 1501.03,-196.28"/>
<polygon fill="midnightblue" stroke="midnightblue" points="1502.21,-199.58 1510.61,-193.12 1500.01,-192.94 1502.21,-199.58"/>
</g>
<!-- Node27 -->
<g id="node27" class="node">
<title>Node27</title>
<g id="a_node27"><a xlink:href="abstract__handle_8h.html" target="_top" xlink:title=" ">
<polygon fill="white" stroke="black" points="1161,-174 1161,-193 1297,-193 1297,-174 1161,-174"/>
<text text-anchor="middle" x="1229" y="-181" font-family="Helvetica,sans-Serif" font-size="10.00">ccf/kv/abstract_handle.h</text>
</a>
</g>
</g>
<!-- Node26&#45;&gt;Node27 -->
<g id="edge31" class="edge">
<title>Node26&#45;&gt;Node27</title>
<path fill="none" stroke="midnightblue" d="M1254.84,-235.4C1249.9,-225.66 1243.29,-212.65 1237.99,-202.21"/>
<polygon fill="midnightblue" stroke="midnightblue" points="1241.06,-200.53 1233.41,-193.19 1234.82,-203.7 1241.06,-200.53"/>
</g>
<!-- Node26&#45;&gt;Node28 -->
<g id="edge32" class="edge">
<title>Node26&#45;&gt;Node28</title>
<path fill="none" stroke="midnightblue" d="M1224.68,-235.4C1198.87,-225.64 1164.34,-212.59 1136.71,-202.15"/>
<polygon fill="midnightblue" stroke="midnightblue" points="1137.84,-198.84 1127.25,-198.58 1135.37,-205.39 1137.84,-198.84"/>
</g>
<!-- Node34 -->
<g id="node34" class="node">
<title>Node34</title>
<g id="a_node34"><a xlink:title=" ">
<polygon fill="white" stroke="#bfbfbf" points="1315,-174 1315,-193 1371,-193 1371,-174 1315,-174"/>
<text text-anchor="middle" x="1343" y="-181" font-family="Helvetica,sans-Serif" font-size="10.00">optional</text>
</a>
</g>
</g>
<!-- Node26&#45;&gt;Node34 -->
<g id="edge42" class="edge">
<title>Node26&#45;&gt;Node34</title>
<path fill="none" stroke="midnightblue" d="M1279.58,-235.4C1292.71,-224.86 1310.63,-210.48 1324.07,-199.69"/>
<polygon fill="midnightblue" stroke="midnightblue" points="1326.56,-202.18 1332.17,-193.19 1322.18,-196.72 1326.56,-202.18"/>
</g>
<!-- Node29 -->
<g id="node29" class="node">
<title>Node29</title>
<g id="a_node29"><a xlink:href="byte__vector_8h.html" target="_top" xlink:title=" ">
<polygon fill="white" stroke="black" points="1004,-112.5 1004,-131.5 1104,-131.5 1104,-112.5 1004,-112.5"/>
<text text-anchor="middle" x="1054" y="-119.5" font-family="Helvetica,sans-Serif" font-size="10.00">ccf/byte_vector.h</text>
</a>
</g>
</g>
<!-- Node28&#45;&gt;Node29 -->
<g id="edge33" class="edge">
<title>Node28&#45;&gt;Node29</title>
<path fill="none" stroke="midnightblue" d="M1081.47,-168.4C1076.4,-160.02 1069.93,-149.33 1064.54,-140.42"/>
<polygon fill="midnightblue" stroke="midnightblue" points="1067.41,-138.4 1059.24,-131.66 1061.42,-142.03 1067.41,-138.4"/>
</g>
<!-- Node29&#45;&gt;Node16 -->
<g id="edge38" class="edge">
<title>Node29&#45;&gt;Node16</title>
<path fill="none" stroke="midnightblue" d="M1003.95,-114.7C921.28,-104.29 757.18,-83.64 674.73,-73.26"/>
<polygon fill="midnightblue" stroke="midnightblue" points="674.97,-69.76 664.61,-71.99 674.1,-76.71 674.97,-69.76"/>
</g>
<!-- Node30 -->
<g id="node30" class="node">
<title>Node30</title>
<g id="a_node30"><a xlink:href="siphash_8h.html" target="_top" xlink:title=" ">
<polygon fill="white" stroke="black" points="969.5,-56.5 969.5,-75.5 1064.5,-75.5 1064.5,-56.5 969.5,-56.5"/>
<text text-anchor="middle" x="1017" y="-63.5" font-family="Helvetica,sans-Serif" font-size="10.00">ccf/ds/siphash.h</text>
</a>
</g>
</g>
<!-- Node29&#45;&gt;Node30 -->
<g id="edge34" class="edge">
<title>Node29&#45;&gt;Node30</title>
<path fill="none" stroke="midnightblue" d="M1047.89,-112.08C1042.72,-104.53 1035.15,-93.49 1028.81,-84.23"/>
<polygon fill="midnightblue" stroke="midnightblue" points="1031.54,-82.02 1023,-75.75 1025.76,-85.98 1031.54,-82.02"/>
</g>
<!-- Node33 -->
<g id="node33" class="node">
<title>Node33</title>
<g id="a_node33"><a xlink:title=" ">
<polygon fill="white" stroke="#bfbfbf" points="1082.5,-56.5 1082.5,-75.5 1231.5,-75.5 1231.5,-56.5 1082.5,-56.5"/>
<text text-anchor="middle" x="1157" y="-63.5" font-family="Helvetica,sans-Serif" font-size="10.00">small_vector/SmallVector.h</text>
</a>
</g>
</g>
<!-- Node29&#45;&gt;Node33 -->
<g id="edge39" class="edge">
<title>Node29&#45;&gt;Node33</title>
<path fill="none" stroke="midnightblue" d="M1070.55,-112.32C1086.99,-103.7 1112.43,-90.36 1131.47,-80.39"/>
<polygon fill="midnightblue" stroke="midnightblue" points="1133.26,-83.4 1140.49,-75.65 1130.01,-77.2 1133.26,-83.4"/>
</g>
<!-- Node30&#45;&gt;Node8 -->
<g id="edge37" class="edge">
<title>Node30&#45;&gt;Node8</title>
<path fill="none" stroke="midnightblue" d="M969.21,-56.62C906.35,-45.6 797.46,-26.51 742.62,-16.89"/>
<polygon fill="midnightblue" stroke="midnightblue" points="743.17,-13.44 732.71,-15.16 741.96,-20.33 743.17,-13.44"/>
</g>
<!-- Node31 -->
<g id="node31" class="node">
<title>Node31</title>
<g id="a_node31"><a xlink:title=" ">
<polygon fill="white" stroke="#bfbfbf" points="990.5,-0.5 990.5,-19.5 1043.5,-19.5 1043.5,-0.5 990.5,-0.5"/>
<text text-anchor="middle" x="1017" y="-7.5" font-family="Helvetica,sans-Serif" font-size="10.00">cstddef</text>
</a>
</g>
</g>
<!-- Node30&#45;&gt;Node31 -->
<g id="edge35" class="edge">
<title>Node30&#45;&gt;Node31</title>
<path fill="none" stroke="midnightblue" d="M1017,-56.08C1017,-49.01 1017,-38.86 1017,-29.99"/>
<polygon fill="midnightblue" stroke="midnightblue" points="1020.5,-29.75 1017,-19.75 1013.5,-29.75 1020.5,-29.75"/>
</g>
<!-- Node32 -->
<g id="node32" class="node">
<title>Node32</title>
<g id="a_node32"><a xlink:title=" ">
<polygon fill="white" stroke="#bfbfbf" points="919,-0.5 919,-19.5 969,-19.5 969,-0.5 919,-0.5"/>
<text text-anchor="middle" x="944" y="-7.5" font-family="Helvetica,sans-Serif" font-size="10.00">cstdint</text>
</a>
</g>
</g>
<!-- Node30&#45;&gt;Node32 -->
<g id="edge36" class="edge">
<title>Node30&#45;&gt;Node32</title>
<path fill="none" stroke="midnightblue" d="M1005.27,-56.32C994.16,-48.11 977.26,-35.6 964.02,-25.81"/>
<polygon fill="midnightblue" stroke="midnightblue" points="966.06,-22.97 955.94,-19.83 961.9,-28.59 966.06,-22.97"/>
</g>
<!-- Node35&#45;&gt;Node10 -->
<g id="edge45" class="edge">
<title>Node35&#45;&gt;Node10</title>
<path fill="none" stroke="midnightblue" d="M818.21,-312.98C738.03,-306.79 575.56,-292.06 440,-266 434.95,-265.03 429.67,-263.84 424.48,-262.56"/>
<polygon fill="midnightblue" stroke="midnightblue" points="425.24,-259.14 414.69,-260.03 423.49,-265.92 425.24,-259.14"/>
</g>
<!-- Node35&#45;&gt;Node28 -->
<g id="edge46" class="edge">
<title>Node35&#45;&gt;Node28</title>
<path fill="none" stroke="midnightblue" d="M917.8,-303.56C944.84,-295.23 978.13,-282.8 1005,-266 1006.83,-264.86 1043.18,-229.81 1067.74,-206.05"/>
<polygon fill="midnightblue" stroke="midnightblue" points="1070.49,-208.26 1075.25,-198.79 1065.62,-203.23 1070.49,-208.26"/>
</g>
<!-- Node36&#45;&gt;Node17 -->
<g id="edge49" class="edge">
<title>Node36&#45;&gt;Node17</title>
<path fill="none" stroke="midnightblue" d="M935.42,-303.67C932.58,-303.07 929.76,-302.51 927,-302 860.02,-289.68 670.48,-268.95 569.39,-258.29"/>
<polygon fill="midnightblue" stroke="midnightblue" points="569.61,-254.79 559.3,-257.22 568.88,-261.75 569.61,-254.79"/>
</g>
<!-- Node36&#45;&gt;Node28 -->
<g id="edge48" class="edge">
<title>Node36&#45;&gt;Node28</title>
<path fill="none" stroke="midnightblue" d="M1001.78,-302.41C1012.74,-292.76 1027.01,-279.34 1038,-266 1053.07,-247.69 1067.34,-224.77 1077.11,-207.9"/>
<polygon fill="midnightblue" stroke="midnightblue" points="1080.41,-209.18 1082.31,-198.75 1074.33,-205.72 1080.41,-209.18"/>
</g>
<!-- Node37&#45;&gt;Node21 -->
<g id="edge51" class="edge">
<title>Node37&#45;&gt;Node21</title>
<path fill="none" stroke="midnightblue" d="M1373.05,-307.73C1393.12,-296.77 1427.7,-277.88 1451.19,-265.05"/>
<polygon fill="midnightblue" stroke="midnightblue" points="1453.11,-267.99 1460.21,-260.13 1449.75,-261.85 1453.11,-267.99"/>
</g>
<!-- Node37&#45;&gt;Node28 -->
<g id="edge52" class="edge">
<title>Node37&#45;&gt;Node28</title>
<path fill="none" stroke="midnightblue" d="M1324.78,-307.93C1284.4,-296.93 1217.72,-277.86 1195,-266 1186.39,-261.5 1143.68,-227.67 1115.46,-205.03"/>
<polygon fill="midnightblue" stroke="midnightblue" points="1117.55,-202.22 1107.57,-198.69 1113.17,-207.68 1117.55,-202.22"/>
</g>
<!-- Node37&#45;&gt;Node34 -->
<g id="edge54" class="edge">
<title>Node37&#45;&gt;Node34</title>
<path fill="none" stroke="midnightblue" d="M1363.9,-307.9C1374.98,-293.01 1394.56,-261.45 1385,-235 1380.2,-221.73 1370.23,-209.49 1361.2,-200.38"/>
<polygon fill="midnightblue" stroke="midnightblue" points="1363.34,-197.58 1353.67,-193.24 1358.52,-202.66 1363.34,-197.58"/>
</g>
<!-- Node38 -->
<g id="node38" class="node">
<title>Node38</title>
<g id="a_node38"><a xlink:title=" ">
<polygon fill="white" stroke="#bfbfbf" points="1338,-241 1338,-260 1376,-260 1376,-241 1338,-241"/>
<text text-anchor="middle" x="1357" y="-248" font-family="Helvetica,sans-Serif" font-size="10.00">map</text>
</a>
</g>
</g>
<!-- Node37&#45;&gt;Node38 -->
<g id="edge53" class="edge">
<title>Node37&#45;&gt;Node38</title>
<path fill="none" stroke="midnightblue" d="M1357,-307.73C1357,-298.18 1357,-282.62 1357,-270.28"/>
<polygon fill="midnightblue" stroke="midnightblue" points="1360.5,-270.13 1357,-260.13 1353.5,-270.13 1360.5,-270.13"/>
</g>
<!-- Node39&#45;&gt;Node7 -->
<g id="edge60" class="edge">
<title>Node39&#45;&gt;Node7</title>
<path fill="none" stroke="midnightblue" d="M925.83,-240.97C896.32,-231.24 846.97,-214.65 805,-199 803.15,-198.31 801.26,-197.59 799.35,-196.85"/>
<polygon fill="midnightblue" stroke="midnightblue" points="800.46,-193.53 789.87,-193.12 797.89,-200.04 800.46,-193.53"/>
</g>
<!-- Node39&#45;&gt;Node8 -->
<g id="edge61" class="edge">
<title>Node39&#45;&gt;Node8</title>
<path fill="none" stroke="midnightblue" d="M921.7,-240.97C897.41,-233.02 863.47,-219.32 839,-199 779.26,-149.39 734.89,-65.78 717.3,-29.13"/>
<polygon fill="midnightblue" stroke="midnightblue" points="720.3,-27.29 712.88,-19.73 713.97,-30.27 720.3,-27.29"/>
</g>
<!-- Node39&#45;&gt;Node32 -->
<g id="edge57" class="edge">
<title>Node39&#45;&gt;Node32</title>
<path fill="none" stroke="midnightblue" d="M951.71,-240.73C950.54,-206.1 946.26,-78.43 944.63,-29.9"/>
<polygon fill="midnightblue" stroke="midnightblue" points="948.12,-29.48 944.29,-19.6 941.13,-29.71 948.12,-29.48"/>
</g>
<!-- Node39&#45;&gt;Node40 -->
<g id="edge58" class="edge">
<title>Node39&#45;&gt;Node40</title>
<path fill="none" stroke="midnightblue" d="M957.66,-240.73C964.09,-230.79 974.72,-214.34 982.83,-201.79"/>
<polygon fill="midnightblue" stroke="midnightblue" points="985.94,-203.43 988.43,-193.13 980.06,-199.63 985.94,-203.43"/>
</g>
<!-- Node41 -->
<g id="node41" class="node">
<title>Node41</title>
<g id="a_node41"><a xlink:title=" ">
<polygon fill="white" stroke="#bfbfbf" points="847.5,-174 847.5,-193 912.5,-193 912.5,-174 847.5,-174"/>
<text text-anchor="middle" x="880" y="-181" font-family="Helvetica,sans-Serif" font-size="10.00">stdexcept</text>
</a>
</g>
</g>
<!-- Node39&#45;&gt;Node41 -->
<g id="edge59" class="edge">
<title>Node39&#45;&gt;Node41</title>
<path fill="none" stroke="midnightblue" d="M942.29,-240.73C930.74,-230.31 911.25,-212.71 897.14,-199.97"/>
<polygon fill="midnightblue" stroke="midnightblue" points="899.32,-197.23 889.56,-193.13 894.63,-202.43 899.32,-197.23"/>
</g>
</g>
</svg>
        <g id="navigator" transform="translate(0 0)" fill="#404254">
                <rect fill="#f2f5e9" fill-opacity="0.5" stroke="#606060" stroke-width=".5" x="0" y="0" width="60" height="60"/>
                <use id="zoomplus" xlink:href="#zoomPlus" x="17" y="9" onmousedown="handleZoom(evt,'in')"/>
                <use id="zoomminus" xlink:href="#zoomMin" x="42" y="9" onmousedown="handleZoom(evt,'out')"/>
                <use id="reset" xlink:href="#resetDef" x="30" y="36" onmousedown="handleReset()"/>
                <g id="arrowUp" xlink:href="#dirArrow" transform="translate(30 24)" onmousedown="handlePan(0,-1)">
                  <use xlink:href="#rim" fill="#404040">
                        <set attributeName="fill" to="#808080" begin="arrowUp.mouseover" end="arrowUp.mouseout"/>
                  </use>
                  <path fill="none" stroke="white" stroke-width="1.5" d="M0,-3.0v7 M-2.5,-0.5L0,-3.0L2.5,-0.5"/>
                </g>
                <g id="arrowRight" xlink:href="#dirArrow" transform="rotate(90) translate(36 -43)" onmousedown="handlePan(1,0)">
                  <use xlink:href="#rim" fill="#404040">
                        <set attributeName="fill" to="#808080" begin="arrowRight.mouseover" end="arrowRight.mouseout"/>
                  </use>
                  <path fill="none" stroke="white" stroke-width="1.5" d="M0,-3.0v7 M-2.5,-0.5L0,-3.0L2.5,-0.5"/>
                </g>
                <g id="arrowDown" xlink:href="#dirArrow" transform="rotate(180) translate(-30 -48)" onmousedown="handlePan(0,1)">
                  <use xlink:href="#rim" fill="#404040">
                        <set attributeName="fill" to="#808080" begin="arrowDown.mouseover" end="arrowDown.mouseout"/>
                  </use>
                  <path fill="none" stroke="white" stroke-width="1.5" d="M0,-3.0v7 M-2.5,-0.5L0,-3.0L2.5,-0.5"/>
                </g>
                <g id="arrowLeft" xlink:href="#dirArrow" transform="rotate(270) translate(-36 17)" onmousedown="handlePan(-1,0)">
                  <use xlink:href="#rim" fill="#404040">
                        <set attributeName="fill" to="#808080" begin="arrowLeft.mouseover" end="arrowLeft.mouseout"/>
                  </use>
                  <path fill="none" stroke="white" stroke-width="1.5" d="M0,-3.0v7 M-2.5,-0.5L0,-3.0L2.5,-0.5"/>
                </g>
        </g>
        <svg viewBox="0 0 15 15" width="100%" height="30px" preserveAspectRatio="xMaxYMin meet">
         <g id="arrow_out" transform="scale(0.3 0.3)">
          <a xlink:href="tpcc__setup_8h__incl_org.svg" target="_base">
           <rect id="button" ry="5" rx="5" y="6" x="6" height="38" width="38"
                fill="#f2f5e9" fill-opacity="0.5" stroke="#606060" stroke-width="1.0"/>
           <path id="arrow"
             d="M 11.500037,31.436501 C 11.940474,20.09759 22.043105,11.32322 32.158766,21.979434 L 37.068811,17.246167 C 37.068811,17.246167 37.088388,32 37.088388,32 L 22.160133,31.978069 C 22.160133,31.978069 26.997745,27.140456 26.997745,27.140456 C 18.528582,18.264221 13.291696,25.230495 11.500037,31.436501 z"
             style="fill:#404040;"/>
          </a>
         </g>
        </svg>
</svg>
