<?xml version="1.0" encoding="UTF-8" standalone="no"?>
<!DOCTYPE svg PUBLIC "-//W3C//DTD SVG 1.1//EN"
 "http://www.w3.org/Graphics/SVG/1.1/DTD/svg11.dtd">
<!-- Generated by graphviz version 2.43.0 (0)
 -->
<!-- Title: src/kv/tx_pimpl.h Pages: 1 -->
<svg width="2442pt" height="699pt"
 viewBox="0.00 0.00 2442.00 699.00" xmlns="http://www.w3.org/2000/svg" xmlns:xlink="http://www.w3.org/1999/xlink">
<g id="graph0" class="graph" transform="scale(1 1) rotate(0) translate(4 695)">
<title>src/kv/tx_pimpl.h</title>
<polygon fill="white" stroke="transparent" points="-4,4 -4,-695 2438,-695 2438,4 -4,4"/>
<!-- Node1 -->
<g id="node1" class="node">
<title>Node1</title>
<g id="a_node1"><a xlink:title=" ">
<polygon fill="#bfbfbf" stroke="black" points="607.5,-671.5 607.5,-690.5 708.5,-690.5 708.5,-671.5 607.5,-671.5"/>
<text text-anchor="middle" x="658" y="-678.5" font-family="Helvetica,sans-Serif" font-size="10.00">src/kv/tx_pimpl.h</text>
</a>
</g>
</g>
<!-- Node2 -->
<g id="node2" class="node">
<title>Node2</title>
<g id="a_node2"><a xlink:href="committable__tx_8h.html" target="_top" xlink:title=" ">
<polygon fill="white" stroke="black" points="528.5,-615.5 528.5,-634.5 663.5,-634.5 663.5,-615.5 528.5,-615.5"/>
<text text-anchor="middle" x="596" y="-622.5" font-family="Helvetica,sans-Serif" font-size="10.00">src/kv/committable_tx.h</text>
</a>
</g>
</g>
<!-- Node1&#45;&gt;Node2 -->
<g id="edge1" class="edge">
<title>Node1&#45;&gt;Node2</title>
<path fill="none" stroke="midnightblue" d="M640.25,-664.54C629.19,-654.91 615.37,-642.87 606.14,-634.83"/>
<polygon fill="midnightblue" stroke="midnightblue" points="638.2,-667.4 648.04,-671.32 642.8,-662.12 638.2,-667.4"/>
</g>
<!-- Node42 -->
<g id="node42" class="node">
<title>Node42</title>
<g id="a_node42"><a xlink:href="tx_8cpp.html" target="_top" xlink:title=" ">
<polygon fill="white" stroke="black" points="681.5,-615.5 681.5,-634.5 760.5,-634.5 760.5,-615.5 681.5,-615.5"/>
<text text-anchor="middle" x="721" y="-622.5" font-family="Helvetica,sans-Serif" font-size="10.00">src/kv/tx.cpp</text>
</a>
</g>
</g>
<!-- Node1&#45;&gt;Node42 -->
<g id="edge80" class="edge">
<title>Node1&#45;&gt;Node42</title>
<path fill="none" stroke="midnightblue" d="M676.04,-664.54C687.27,-654.91 701.32,-642.87 710.69,-634.83"/>
<polygon fill="midnightblue" stroke="midnightblue" points="673.44,-662.16 668.12,-671.32 677.99,-667.47 673.44,-662.16"/>
</g>
<!-- Node3 -->
<g id="node3" class="node">
<title>Node3</title>
<g id="a_node3"><a xlink:href="deserialise_8h.html" target="_top" xlink:title=" ">
<polygon fill="white" stroke="black" points="498.5,-559.5 498.5,-578.5 609.5,-578.5 609.5,-559.5 498.5,-559.5"/>
<text text-anchor="middle" x="554" y="-566.5" font-family="Helvetica,sans-Serif" font-size="10.00">src/kv/deserialise.h</text>
</a>
</g>
</g>
<!-- Node2&#45;&gt;Node3 -->
<g id="edge2" class="edge">
<title>Node2&#45;&gt;Node3</title>
<path fill="none" stroke="midnightblue" d="M582.89,-607.14C575.57,-597.74 566.76,-586.4 560.81,-578.75"/>
<polygon fill="midnightblue" stroke="midnightblue" points="580.16,-609.34 589.06,-615.08 585.69,-605.04 580.16,-609.34"/>
</g>
<!-- Node4 -->
<g id="node4" class="node">
<title>Node4</title>
<g id="a_node4"><a xlink:href="store_8h.html" target="_top" xlink:title=" ">
<polygon fill="white" stroke="black" points="554.5,-503.5 554.5,-522.5 637.5,-522.5 637.5,-503.5 554.5,-503.5"/>
<text text-anchor="middle" x="596" y="-510.5" font-family="Helvetica,sans-Serif" font-size="10.00">src/kv/store.h</text>
</a>
</g>
</g>
<!-- Node2&#45;&gt;Node4 -->
<g id="edge79" class="edge">
<title>Node2&#45;&gt;Node4</title>
<path fill="none" stroke="midnightblue" d="M607.49,-606.57C614.64,-593.64 621.81,-575.46 618,-559 614.86,-545.44 607.05,-531.26 601.64,-522.52"/>
<polygon fill="midnightblue" stroke="midnightblue" points="604.38,-604.96 602.21,-615.33 610.38,-608.57 604.38,-604.96"/>
</g>
<!-- Node3&#45;&gt;Node4 -->
<g id="edge3" class="edge">
<title>Node3&#45;&gt;Node4</title>
<path fill="none" stroke="midnightblue" d="M567.11,-551.14C574.43,-541.74 583.24,-530.4 589.19,-522.75"/>
<polygon fill="midnightblue" stroke="midnightblue" points="564.31,-549.04 560.94,-559.08 569.84,-553.34 564.31,-549.04"/>
</g>
<!-- Node5 -->
<g id="node5" class="node">
<title>Node5</title>
<g id="a_node5"><a xlink:href="indexer_8h.html" target="_top" xlink:title=" ">
<polygon fill="white" stroke="black" points="534.5,-442 534.5,-461 657.5,-461 657.5,-442 534.5,-442"/>
<text text-anchor="middle" x="596" y="-449" font-family="Helvetica,sans-Serif" font-size="10.00">src/indexing/indexer.h</text>
</a>
</g>
</g>
<!-- Node4&#45;&gt;Node5 -->
<g id="edge4" class="edge">
<title>Node4&#45;&gt;Node5</title>
<path fill="none" stroke="midnightblue" d="M596,-493.32C596,-482.5 596,-469.4 596,-461.01"/>
<polygon fill="midnightblue" stroke="midnightblue" points="592.5,-493.48 596,-503.48 599.5,-493.48 592.5,-493.48"/>
</g>
<!-- Node10 -->
<g id="node10" class="node">
<title>Node10</title>
<g id="a_node10"><a xlink:href="visit__each__entry__in__map_8cpp.html" target="_top" xlink:title=" ">
<polygon fill="white" stroke="black" points="203.5,-436.5 203.5,-466.5 364.5,-466.5 364.5,-436.5 203.5,-436.5"/>
<text text-anchor="start" x="211.5" y="-454.5" font-family="Helvetica,sans-Serif" font-size="10.00">src/indexing/strategies</text>
<text text-anchor="middle" x="284" y="-443.5" font-family="Helvetica,sans-Serif" font-size="10.00">/visit_each_entry_in_map.cpp</text>
</a>
</g>
</g>
<!-- Node4&#45;&gt;Node10 -->
<g id="edge10" class="edge">
<title>Node4&#45;&gt;Node10</title>
<path fill="none" stroke="midnightblue" d="M544.11,-502.1C493.13,-492.38 414.85,-477.45 357.48,-466.51"/>
<polygon fill="midnightblue" stroke="midnightblue" points="543.77,-505.6 554.25,-504.04 545.08,-498.73 543.77,-505.6"/>
</g>
<!-- Node11 -->
<g id="node11" class="node">
<title>Node11</title>
<g id="a_node11"><a xlink:href="historical__queries_8h.html" target="_top" xlink:title=" ">
<polygon fill="white" stroke="black" points="0,-302.5 0,-332.5 106,-332.5 106,-302.5 0,-302.5"/>
<text text-anchor="start" x="8" y="-320.5" font-family="Helvetica,sans-Serif" font-size="10.00">src/node/historical</text>
<text text-anchor="middle" x="53" y="-309.5" font-family="Helvetica,sans-Serif" font-size="10.00">_queries.h</text>
</a>
</g>
</g>
<!-- Node4&#45;&gt;Node11 -->
<g id="edge11" class="edge">
<title>Node4&#45;&gt;Node11</title>
<path fill="none" stroke="midnightblue" d="M544.23,-510.59C449.92,-507.3 254.31,-496.98 194,-467 130.65,-435.5 80.59,-363.24 61.44,-332.62"/>
<polygon fill="midnightblue" stroke="midnightblue" points="544.28,-514.09 554.39,-510.93 544.52,-507.09 544.28,-514.09"/>
</g>
<!-- Node13 -->
<g id="node13" class="node">
<title>Node13</title>
<g id="a_node13"><a xlink:href="history_8h.html" target="_top" xlink:title=" ">
<polygon fill="white" stroke="black" points="383,-442 383,-461 485,-461 485,-442 383,-442"/>
<text text-anchor="middle" x="434" y="-449" font-family="Helvetica,sans-Serif" font-size="10.00">src/node/history.h</text>
</a>
</g>
</g>
<!-- Node4&#45;&gt;Node13 -->
<g id="edge15" class="edge">
<title>Node4&#45;&gt;Node13</title>
<path fill="none" stroke="midnightblue" d="M563.15,-499.93C531.66,-488.37 484.94,-471.21 457.17,-461.01"/>
<polygon fill="midnightblue" stroke="midnightblue" points="562.2,-503.31 572.79,-503.48 564.61,-496.74 562.2,-503.31"/>
</g>
<!-- Node15 -->
<g id="node15" class="node">
<title>Node15</title>
<g id="a_node15"><a xlink:href="snapshotter_8h.html" target="_top" xlink:title=" ">
<polygon fill="white" stroke="black" points="676.5,-241 676.5,-260 803.5,-260 803.5,-241 676.5,-241"/>
<text text-anchor="middle" x="740" y="-248" font-family="Helvetica,sans-Serif" font-size="10.00">src/node/snapshotter.h</text>
</a>
</g>
</g>
<!-- Node4&#45;&gt;Node15 -->
<g id="edge42" class="edge">
<title>Node4&#45;&gt;Node15</title>
<path fill="none" stroke="midnightblue" d="M625.7,-498.68C639.62,-491.14 655.42,-480.49 666,-467 693.1,-432.45 728.85,-295.76 737.86,-260.07"/>
<polygon fill="midnightblue" stroke="midnightblue" points="623.77,-495.74 616.46,-503.41 626.95,-501.97 623.77,-495.74"/>
</g>
<!-- Node21 -->
<g id="node21" class="node">
<title>Node21</title>
<g id="a_node21"><a xlink:href="frontend_8h.html" target="_top" xlink:title=" ">
<polygon fill="white" stroke="black" points="848.5,-375 848.5,-394 977.5,-394 977.5,-375 848.5,-375"/>
<text text-anchor="middle" x="913" y="-382" font-family="Helvetica,sans-Serif" font-size="10.00">src/node/rpc/frontend.h</text>
</a>
</g>
</g>
<!-- Node4&#45;&gt;Node21 -->
<g id="edge28" class="edge">
<title>Node4&#45;&gt;Node21</title>
<path fill="none" stroke="midnightblue" d="M627.38,-499.48C691.62,-473.84 836.67,-415.96 891.48,-394.09"/>
<polygon fill="midnightblue" stroke="midnightblue" points="625.78,-496.35 617.79,-503.31 628.37,-502.85 625.78,-496.35"/>
</g>
<!-- Node28 -->
<g id="node28" class="node">
<title>Node28</title>
<g id="a_node28"><a xlink:href="network__tables_8h.html" target="_top" xlink:title=" ">
<polygon fill="white" stroke="black" points="1146,-436.5 1146,-466.5 1258,-466.5 1258,-436.5 1146,-436.5"/>
<text text-anchor="start" x="1154" y="-454.5" font-family="Helvetica,sans-Serif" font-size="10.00">src/service/network</text>
<text text-anchor="middle" x="1202" y="-443.5" font-family="Helvetica,sans-Serif" font-size="10.00">_tables.h</text>
</a>
</g>
</g>
<!-- Node4&#45;&gt;Node28 -->
<g id="edge43" class="edge">
<title>Node4&#45;&gt;Node28</title>
<path fill="none" stroke="midnightblue" d="M647.78,-506.92C760.84,-495.82 1029,-469.49 1145.9,-458.01"/>
<polygon fill="midnightblue" stroke="midnightblue" points="647.26,-503.45 637.65,-507.91 647.95,-510.42 647.26,-503.45"/>
</g>
<!-- Node6 -->
<g id="node6" class="node">
<title>Node6</title>
<g id="a_node6"><a xlink:href="node__state_8h.html" target="_top" xlink:title=" ">
<polygon fill="white" stroke="black" points="1012,-179.5 1012,-198.5 1136,-198.5 1136,-179.5 1012,-179.5"/>
<text text-anchor="middle" x="1074" y="-186.5" font-family="Helvetica,sans-Serif" font-size="10.00">src/node/node_state.h</text>
</a>
</g>
</g>
<!-- Node5&#45;&gt;Node6 -->
<g id="edge5" class="edge">
<title>Node5&#45;&gt;Node6</title>
<path fill="none" stroke="midnightblue" d="M594.19,-431.74C591.25,-389.32 590.77,-285.82 649,-235 675.76,-211.64 900.3,-198.05 1011.75,-192.68"/>
<polygon fill="midnightblue" stroke="midnightblue" points="590.71,-432.09 595.02,-441.77 597.69,-431.52 590.71,-432.09"/>
</g>
<!-- Node7 -->
<g id="node7" class="node">
<title>Node7</title>
<g id="a_node7"><a xlink:href="enclave_2enclave_8h.html" target="_top" xlink:title=" ">
<polygon fill="white" stroke="black" points="1013,-56.5 1013,-75.5 1135,-75.5 1135,-56.5 1013,-56.5"/>
<text text-anchor="middle" x="1074" y="-63.5" font-family="Helvetica,sans-Serif" font-size="10.00">src/enclave/enclave.h</text>
</a>
</g>
</g>
<!-- Node6&#45;&gt;Node7 -->
<g id="edge6" class="edge">
<title>Node6&#45;&gt;Node7</title>
<path fill="none" stroke="midnightblue" d="M1088.98,-171.47C1095.22,-163.48 1101.77,-153.38 1105,-143 1109.09,-129.84 1109.09,-125.16 1105,-112 1100.6,-97.87 1090.05,-84.25 1082.48,-75.77"/>
<polygon fill="midnightblue" stroke="midnightblue" points="1086.21,-169.32 1082.48,-179.23 1091.58,-173.81 1086.21,-169.32"/>
</g>
<!-- Node9 -->
<g id="node9" class="node">
<title>Node9</title>
<g id="a_node9"><a xlink:href="gov__effects_8h.html" target="_top" xlink:title=" ">
<polygon fill="white" stroke="black" points="952,-118 952,-137 1096,-137 1096,-118 952,-118"/>
<text text-anchor="middle" x="1024" y="-125" font-family="Helvetica,sans-Serif" font-size="10.00">src/node/rpc/gov_effects.h</text>
</a>
</g>
</g>
<!-- Node6&#45;&gt;Node9 -->
<g id="edge8" class="edge">
<title>Node6&#45;&gt;Node9</title>
<path fill="none" stroke="midnightblue" d="M1060.28,-171.67C1050.85,-160.45 1038.72,-146.02 1031.15,-137.01"/>
<polygon fill="midnightblue" stroke="midnightblue" points="1057.72,-174.07 1066.84,-179.48 1063.08,-169.57 1057.72,-174.07"/>
</g>
<!-- Node8 -->
<g id="node8" class="node">
<title>Node8</title>
<g id="a_node8"><a xlink:href="enclave_2main_8cpp.html" target="_top" xlink:title=" ">
<polygon fill="white" stroke="black" points="1014,-0.5 1014,-19.5 1134,-19.5 1134,-0.5 1014,-0.5"/>
<text text-anchor="middle" x="1074" y="-7.5" font-family="Helvetica,sans-Serif" font-size="10.00">src/enclave/main.cpp</text>
</a>
</g>
</g>
<!-- Node7&#45;&gt;Node8 -->
<g id="edge7" class="edge">
<title>Node7&#45;&gt;Node8</title>
<path fill="none" stroke="midnightblue" d="M1074,-45.8C1074,-36.91 1074,-26.78 1074,-19.75"/>
<polygon fill="midnightblue" stroke="midnightblue" points="1070.5,-46.08 1074,-56.08 1077.5,-46.08 1070.5,-46.08"/>
</g>
<!-- Node9&#45;&gt;Node7 -->
<g id="edge9" class="edge">
<title>Node9&#45;&gt;Node7</title>
<path fill="none" stroke="midnightblue" d="M1037.72,-110.17C1047.15,-98.95 1059.28,-84.52 1066.85,-75.51"/>
<polygon fill="midnightblue" stroke="midnightblue" points="1034.92,-108.07 1031.16,-117.98 1040.28,-112.57 1034.92,-108.07"/>
</g>
<!-- Node11&#45;&gt;Node7 -->
<g id="edge12" class="edge">
<title>Node11&#45;&gt;Node7</title>
<path fill="none" stroke="midnightblue" d="M57.51,-292.2C61.82,-274.64 69.81,-251.24 84,-235 176.66,-128.96 238.06,-140.33 376,-112 496.96,-87.16 866.25,-73.39 1012.97,-68.77"/>
<polygon fill="midnightblue" stroke="midnightblue" points="54.03,-291.75 55.29,-302.27 60.86,-293.26 54.03,-291.75"/>
</g>
<!-- Node12 -->
<g id="node12" class="node">
<title>Node12</title>
<g id="a_node12"><a xlink:href="historical__transaction__fetcher_8h.html" target="_top" xlink:title=" ">
<polygon fill="white" stroke="black" points="385.5,-112.5 385.5,-142.5 510.5,-142.5 510.5,-112.5 385.5,-112.5"/>
<text text-anchor="start" x="393.5" y="-130.5" font-family="Helvetica,sans-Serif" font-size="10.00">src/indexing/historical</text>
<text text-anchor="middle" x="448" y="-119.5" font-family="Helvetica,sans-Serif" font-size="10.00">_transaction_fetcher.h</text>
</a>
</g>
</g>
<!-- Node11&#45;&gt;Node12 -->
<g id="edge13" class="edge">
<title>Node11&#45;&gt;Node12</title>
<path fill="none" stroke="midnightblue" d="M66.55,-293.69C78.49,-275.41 97.47,-250.36 120,-235 202.12,-179.02 315.65,-150.86 385.33,-137.98"/>
<polygon fill="midnightblue" stroke="midnightblue" points="63.49,-291.97 61.11,-302.3 69.41,-295.71 63.49,-291.97"/>
</g>
<!-- Node12&#45;&gt;Node7 -->
<g id="edge14" class="edge">
<title>Node12&#45;&gt;Node7</title>
<path fill="none" stroke="midnightblue" d="M520.79,-119.58C645.31,-107.75 896.95,-83.83 1012.93,-72.8"/>
<polygon fill="midnightblue" stroke="midnightblue" points="520.22,-116.12 510.6,-120.55 520.89,-123.09 520.22,-116.12"/>
</g>
<!-- Node13&#45;&gt;Node6 -->
<g id="edge17" class="edge">
<title>Node13&#45;&gt;Node6</title>
<path fill="none" stroke="midnightblue" d="M425.51,-432.49C412.69,-402.38 392.74,-341.27 421,-302 489.4,-206.95 862.13,-192.25 1011.78,-190.21"/>
<polygon fill="midnightblue" stroke="midnightblue" points="422.37,-434.06 429.65,-441.76 428.76,-431.2 422.37,-434.06"/>
</g>
<!-- Node13&#45;&gt;Node11 -->
<g id="edge16" class="edge">
<title>Node13&#45;&gt;Node11</title>
<path fill="none" stroke="midnightblue" d="M389.25,-439.43C352.57,-430 299.48,-415.55 254,-400 193.07,-379.17 123.86,-349.81 84.61,-332.6"/>
<polygon fill="midnightblue" stroke="midnightblue" points="388.59,-442.87 399.14,-441.95 390.32,-436.09 388.59,-442.87"/>
</g>
<!-- Node14 -->
<g id="node14" class="node">
<title>Node14</title>
<g id="a_node14"><a xlink:href="snapshot__serdes_8h.html" target="_top" xlink:title=" ">
<polygon fill="white" stroke="black" points="430,-308 430,-327 582,-327 582,-308 430,-308"/>
<text text-anchor="middle" x="506" y="-315" font-family="Helvetica,sans-Serif" font-size="10.00">src/node/snapshot_serdes.h</text>
</a>
</g>
</g>
<!-- Node13&#45;&gt;Node14 -->
<g id="edge18" class="edge">
<title>Node13&#45;&gt;Node14</title>
<path fill="none" stroke="midnightblue" d="M443.59,-432.92C459.25,-404.2 489.74,-348.32 501.35,-327.02"/>
<polygon fill="midnightblue" stroke="midnightblue" points="440.44,-431.38 438.72,-441.84 446.59,-434.74 440.44,-431.38"/>
</g>
<!-- Node16 -->
<g id="node16" class="node">
<title>Node16</title>
<g id="a_node16"><a xlink:href="tx__receipt__impl_8h.html" target="_top" xlink:title=" ">
<polygon fill="white" stroke="black" points="263,-369.5 263,-399.5 373,-399.5 373,-369.5 263,-369.5"/>
<text text-anchor="start" x="271" y="-387.5" font-family="Helvetica,sans-Serif" font-size="10.00">src/node/tx_receipt</text>
<text text-anchor="middle" x="318" y="-376.5" font-family="Helvetica,sans-Serif" font-size="10.00">_impl.h</text>
</a>
</g>
</g>
<!-- Node13&#45;&gt;Node16 -->
<g id="edge21" class="edge">
<title>Node13&#45;&gt;Node16</title>
<path fill="none" stroke="midnightblue" d="M409.47,-436.75C389.97,-425.83 362.8,-410.6 343.14,-399.59"/>
<polygon fill="midnightblue" stroke="midnightblue" points="407.92,-439.9 418.36,-441.73 411.34,-433.79 407.92,-439.9"/>
</g>
<!-- Node14&#45;&gt;Node15 -->
<g id="edge19" class="edge">
<title>Node14&#45;&gt;Node15</title>
<path fill="none" stroke="midnightblue" d="M546.78,-305.17C593.05,-292.32 667.49,-271.64 709.17,-260.06"/>
<polygon fill="midnightblue" stroke="midnightblue" points="545.77,-301.82 537.07,-307.87 547.65,-308.56 545.77,-301.82"/>
</g>
<!-- Node15&#45;&gt;Node6 -->
<g id="edge20" class="edge">
<title>Node15&#45;&gt;Node6</title>
<path fill="none" stroke="midnightblue" d="M797.89,-239.19C862.54,-227.67 966.01,-209.24 1026.23,-198.51"/>
<polygon fill="midnightblue" stroke="midnightblue" points="797.09,-235.78 787.85,-240.98 798.31,-242.67 797.09,-235.78"/>
</g>
<!-- Node16&#45;&gt;Node11 -->
<g id="edge25" class="edge">
<title>Node16&#45;&gt;Node11</title>
<path fill="none" stroke="midnightblue" d="M252.81,-367.51C207.76,-356.46 148.59,-341.95 106.35,-331.59"/>
<polygon fill="midnightblue" stroke="midnightblue" points="252.22,-370.97 262.77,-369.95 253.89,-364.17 252.22,-370.97"/>
</g>
<!-- Node16&#45;&gt;Node14 -->
<g id="edge27" class="edge">
<title>Node16&#45;&gt;Node14</title>
<path fill="none" stroke="midnightblue" d="M368.3,-366.11C404.88,-353.46 452.8,-336.89 481.4,-327.01"/>
<polygon fill="midnightblue" stroke="midnightblue" points="367.1,-362.82 358.79,-369.4 369.39,-369.44 367.1,-362.82"/>
</g>
<!-- Node17 -->
<g id="node17" class="node">
<title>Node17</title>
<g id="a_node17"><a xlink:href="src_2apps_2js__v8_2tmpl_2receipt_8h.html" target="_top" xlink:title=" ">
<polygon fill="white" stroke="black" points="262.5,-302.5 262.5,-332.5 373.5,-332.5 373.5,-302.5 262.5,-302.5"/>
<text text-anchor="start" x="270.5" y="-320.5" font-family="Helvetica,sans-Serif" font-size="10.00">src/apps/js_v8/tmpl</text>
<text text-anchor="middle" x="318" y="-309.5" font-family="Helvetica,sans-Serif" font-size="10.00">/receipt.h</text>
</a>
</g>
</g>
<!-- Node16&#45;&gt;Node17 -->
<g id="edge22" class="edge">
<title>Node16&#45;&gt;Node17</title>
<path fill="none" stroke="midnightblue" d="M318,-359.11C318,-350.15 318,-340.32 318,-332.58"/>
<polygon fill="midnightblue" stroke="midnightblue" points="314.5,-359.4 318,-369.4 321.5,-359.4 314.5,-359.4"/>
</g>
<!-- Node20 -->
<g id="node20" class="node">
<title>Node20</title>
<g id="a_node20"><a xlink:href="historical__queries__adapter_8cpp.html" target="_top" xlink:title=" ">
<polygon fill="white" stroke="black" points="124,-302.5 124,-332.5 244,-332.5 244,-302.5 124,-302.5"/>
<text text-anchor="start" x="132" y="-320.5" font-family="Helvetica,sans-Serif" font-size="10.00">src/node/historical</text>
<text text-anchor="middle" x="184" y="-309.5" font-family="Helvetica,sans-Serif" font-size="10.00">_queries_adapter.cpp</text>
</a>
</g>
</g>
<!-- Node16&#45;&gt;Node20 -->
<g id="edge26" class="edge">
<title>Node16&#45;&gt;Node20</title>
<path fill="none" stroke="midnightblue" d="M279.85,-364.99C258.61,-354.69 232.59,-342.07 213.02,-332.58"/>
<polygon fill="midnightblue" stroke="midnightblue" points="278.4,-368.18 288.92,-369.4 281.45,-361.88 278.4,-368.18"/>
</g>
<!-- Node18 -->
<g id="node18" class="node">
<title>Node18</title>
<g id="a_node18"><a xlink:href="historical__state_8cpp.html" target="_top" xlink:title=" ">
<polygon fill="white" stroke="black" points="129.5,-235.5 129.5,-265.5 244.5,-265.5 244.5,-235.5 129.5,-235.5"/>
<text text-anchor="start" x="137.5" y="-253.5" font-family="Helvetica,sans-Serif" font-size="10.00">src/apps/js_v8/tmpl</text>
<text text-anchor="middle" x="187" y="-242.5" font-family="Helvetica,sans-Serif" font-size="10.00">/historical_state.cpp</text>
</a>
</g>
</g>
<!-- Node17&#45;&gt;Node18 -->
<g id="edge23" class="edge">
<title>Node17&#45;&gt;Node18</title>
<path fill="none" stroke="midnightblue" d="M280.42,-297.85C259.71,-287.58 234.41,-275.03 215.37,-265.58"/>
<polygon fill="midnightblue" stroke="midnightblue" points="279.06,-301.09 289.57,-302.4 282.17,-294.82 279.06,-301.09"/>
</g>
<!-- Node19 -->
<g id="node19" class="node">
<title>Node19</title>
<g id="a_node19"><a xlink:href="apps_2js__v8_2tmpl_2receipt_8cpp.html" target="_top" xlink:title=" ">
<polygon fill="white" stroke="black" points="262.5,-235.5 262.5,-265.5 373.5,-265.5 373.5,-235.5 262.5,-235.5"/>
<text text-anchor="start" x="270.5" y="-253.5" font-family="Helvetica,sans-Serif" font-size="10.00">src/apps/js_v8/tmpl</text>
<text text-anchor="middle" x="318" y="-242.5" font-family="Helvetica,sans-Serif" font-size="10.00">/receipt.cpp</text>
</a>
</g>
</g>
<!-- Node17&#45;&gt;Node19 -->
<g id="edge24" class="edge">
<title>Node17&#45;&gt;Node19</title>
<path fill="none" stroke="midnightblue" d="M318,-292.11C318,-283.15 318,-273.32 318,-265.58"/>
<polygon fill="midnightblue" stroke="midnightblue" points="314.5,-292.4 318,-302.4 321.5,-292.4 314.5,-292.4"/>
</g>
<!-- Node21&#45;&gt;Node6 -->
<g id="edge33" class="edge">
<title>Node21&#45;&gt;Node6</title>
<path fill="none" stroke="midnightblue" d="M858.92,-372.87C768.86,-352.91 603.97,-305.39 667,-235 689.56,-209.81 903.37,-197.21 1011.71,-192.4"/>
<polygon fill="midnightblue" stroke="midnightblue" points="858.2,-376.29 868.71,-375 859.68,-369.45 858.2,-376.29"/>
</g>
<!-- Node22 -->
<g id="node22" class="node">
<title>Node22</title>
<g id="a_node22"><a xlink:href="acme__challenge__frontend_8h.html" target="_top" xlink:title=" ">
<polygon fill="white" stroke="black" points="926,-302.5 926,-332.5 1066,-332.5 1066,-302.5 926,-302.5"/>
<text text-anchor="start" x="934" y="-320.5" font-family="Helvetica,sans-Serif" font-size="10.00">src/node/acme_challenge</text>
<text text-anchor="middle" x="996" y="-309.5" font-family="Helvetica,sans-Serif" font-size="10.00">_frontend.h</text>
</a>
</g>
</g>
<!-- Node21&#45;&gt;Node22 -->
<g id="edge29" class="edge">
<title>Node21&#45;&gt;Node22</title>
<path fill="none" stroke="midnightblue" d="M932.1,-368.54C945.91,-357.73 964.46,-343.2 978.01,-332.59"/>
<polygon fill="midnightblue" stroke="midnightblue" points="929.91,-365.81 924.19,-374.73 934.22,-371.32 929.91,-365.81"/>
</g>
<!-- Node24 -->
<g id="node24" class="node">
<title>Node24</title>
<g id="a_node24"><a xlink:href="member__frontend_8h.html" target="_top" xlink:title=" ">
<polygon fill="white" stroke="black" points="2314,-235.5 2314,-265.5 2434,-265.5 2434,-235.5 2314,-235.5"/>
<text text-anchor="start" x="2322" y="-253.5" font-family="Helvetica,sans-Serif" font-size="10.00">src/node/rpc/member</text>
<text text-anchor="middle" x="2374" y="-242.5" font-family="Helvetica,sans-Serif" font-size="10.00">_frontend.h</text>
</a>
</g>
</g>
<!-- Node21&#45;&gt;Node24 -->
<g id="edge34" class="edge">
<title>Node21&#45;&gt;Node24</title>
<path fill="none" stroke="midnightblue" d="M988,-378.02C1028.06,-375.17 1078.2,-371.72 1123,-369 1428.19,-350.47 1505.71,-362.9 1810,-333 1994.37,-314.89 2210.77,-279.67 2313.71,-262.06"/>
<polygon fill="midnightblue" stroke="midnightblue" points="987.51,-374.54 977.78,-378.75 988.01,-381.53 987.51,-374.54"/>
</g>
<!-- Node25 -->
<g id="node25" class="node">
<title>Node25</title>
<g id="a_node25"><a xlink:href="node__frontend_8h.html" target="_top" xlink:title=" ">
<polygon fill="white" stroke="black" points="1160,-308 1160,-327 1318,-327 1318,-308 1160,-308"/>
<text text-anchor="middle" x="1239" y="-315" font-family="Helvetica,sans-Serif" font-size="10.00">src/node/rpc/node_frontend.h</text>
</a>
</g>
</g>
<!-- Node21&#45;&gt;Node25 -->
<g id="edge36" class="edge">
<title>Node21&#45;&gt;Node25</title>
<path fill="none" stroke="midnightblue" d="M965.87,-372.96C1030.03,-360.16 1136.97,-338.84 1196.21,-327.03"/>
<polygon fill="midnightblue" stroke="midnightblue" points="965.08,-369.55 955.95,-374.94 966.45,-376.41 965.08,-369.55"/>
</g>
<!-- Node27 -->
<g id="node27" class="node">
<title>Node27</title>
<g id="a_node27"><a xlink:href="user__frontend_8h.html" target="_top" xlink:title=" ">
<polygon fill="white" stroke="black" points="752.5,-308 752.5,-327 907.5,-327 907.5,-308 752.5,-308"/>
<text text-anchor="middle" x="830" y="-315" font-family="Helvetica,sans-Serif" font-size="10.00">src/node/rpc/user_frontend.h</text>
</a>
</g>
</g>
<!-- Node21&#45;&gt;Node27 -->
<g id="edge40" class="edge">
<title>Node21&#45;&gt;Node27</title>
<path fill="none" stroke="midnightblue" d="M893.93,-368.57C877.55,-355.74 854.5,-337.69 841.02,-327.13"/>
<polygon fill="midnightblue" stroke="midnightblue" points="891.78,-371.32 901.81,-374.73 896.09,-365.81 891.78,-371.32"/>
</g>
<!-- Node22&#45;&gt;Node7 -->
<g id="edge30" class="edge">
<title>Node22&#45;&gt;Node7</title>
<path fill="none" stroke="midnightblue" d="M928.28,-298.37C912.79,-290.92 898.19,-280.5 889,-266 881.62,-254.36 886.17,-248.48 889,-235 901.26,-176.57 899.07,-152.43 943,-112 963.7,-92.95 992.84,-81.91 1018.39,-75.54"/>
<polygon fill="midnightblue" stroke="midnightblue" points="926.91,-301.59 937.48,-302.43 929.74,-295.19 926.91,-301.59"/>
</g>
<!-- Node23 -->
<g id="node23" class="node">
<title>Node23</title>
<g id="a_node23"><a xlink:href="ccf__acme__client_8h.html" target="_top" xlink:title=" ">
<polygon fill="white" stroke="black" points="897.5,-241 897.5,-260 1046.5,-260 1046.5,-241 897.5,-241"/>
<text text-anchor="middle" x="972" y="-248" font-family="Helvetica,sans-Serif" font-size="10.00">src/node/ccf_acme_client.h</text>
</a>
</g>
</g>
<!-- Node22&#45;&gt;Node23 -->
<g id="edge31" class="edge">
<title>Node22&#45;&gt;Node23</title>
<path fill="none" stroke="midnightblue" d="M987.3,-292.94C983.09,-281.54 978.29,-268.55 975.21,-260.19"/>
<polygon fill="midnightblue" stroke="midnightblue" points="984.05,-294.23 990.79,-302.4 990.61,-291.8 984.05,-294.23"/>
</g>
<!-- Node23&#45;&gt;Node6 -->
<g id="edge32" class="edge">
<title>Node23&#45;&gt;Node6</title>
<path fill="none" stroke="midnightblue" d="M995.31,-235.9C1015.04,-224.4 1042.69,-208.27 1059.41,-198.51"/>
<polygon fill="midnightblue" stroke="midnightblue" points="993.49,-232.91 986.61,-240.98 997.02,-238.96 993.49,-232.91"/>
</g>
<!-- Node24&#45;&gt;Node7 -->
<g id="edge35" class="edge">
<title>Node24&#45;&gt;Node7</title>
<path fill="none" stroke="midnightblue" d="M2368.84,-225.54C2360.51,-193.38 2340.73,-137.36 2300,-112 2250.16,-80.97 1376.63,-70.01 1135.31,-67.57"/>
<polygon fill="midnightblue" stroke="midnightblue" points="2365.49,-226.56 2371.24,-235.45 2372.29,-224.91 2365.49,-226.56"/>
</g>
<!-- Node25&#45;&gt;Node7 -->
<g id="edge37" class="edge">
<title>Node25&#45;&gt;Node7</title>
<path fill="none" stroke="midnightblue" d="M1242.26,-297.71C1244.36,-280.67 1245.36,-255.19 1237,-235 1205.45,-158.78 1121.44,-97.8 1088.01,-75.82"/>
<polygon fill="midnightblue" stroke="midnightblue" points="1238.73,-297.59 1240.72,-308 1245.66,-298.62 1238.73,-297.59"/>
</g>
<!-- Node26 -->
<g id="node26" class="node">
<title>Node26</title>
<g id="a_node26"><a xlink:href="jwt__key__auto__refresh_8h.html" target="_top" xlink:title=" ">
<polygon fill="white" stroke="black" points="1102.5,-235.5 1102.5,-265.5 1227.5,-265.5 1227.5,-235.5 1102.5,-235.5"/>
<text text-anchor="start" x="1110.5" y="-253.5" font-family="Helvetica,sans-Serif" font-size="10.00">src/node/jwt_key_auto</text>
<text text-anchor="middle" x="1165" y="-242.5" font-family="Helvetica,sans-Serif" font-size="10.00">_refresh.h</text>
</a>
</g>
</g>
<!-- Node25&#45;&gt;Node26 -->
<g id="edge38" class="edge">
<title>Node25&#45;&gt;Node26</title>
<path fill="none" stroke="midnightblue" d="M1221.27,-300.93C1209.03,-290.18 1192.9,-276 1181.04,-265.59"/>
<polygon fill="midnightblue" stroke="midnightblue" points="1219.2,-303.76 1229.02,-307.73 1223.82,-298.5 1219.2,-303.76"/>
</g>
<!-- Node26&#45;&gt;Node6 -->
<g id="edge39" class="edge">
<title>Node26&#45;&gt;Node6</title>
<path fill="none" stroke="midnightblue" d="M1134.83,-229.78C1118.71,-219.23 1099.67,-206.78 1087.24,-198.66"/>
<polygon fill="midnightblue" stroke="midnightblue" points="1133.15,-232.86 1143.43,-235.4 1136.98,-227 1133.15,-232.86"/>
</g>
<!-- Node27&#45;&gt;Node7 -->
<g id="edge41" class="edge">
<title>Node27&#45;&gt;Node7</title>
<path fill="none" stroke="midnightblue" d="M831.96,-298.05C837.22,-258.03 855.33,-162.73 912,-112 939.51,-87.37 979.39,-76.09 1012.7,-70.99"/>
<polygon fill="midnightblue" stroke="midnightblue" points="828.49,-297.65 830.78,-308 835.44,-298.48 828.49,-297.65"/>
</g>
<!-- Node28&#45;&gt;Node23 -->
<g id="edge45" class="edge">
<title>Node28&#45;&gt;Node23</title>
<path fill="none" stroke="midnightblue" d="M1163.18,-431.44C1149.24,-423.2 1134.2,-412.55 1123,-400 1090.7,-363.82 1109.29,-336.3 1075,-302 1054.44,-281.44 1023.83,-267.9 1001.32,-260.07"/>
<polygon fill="midnightblue" stroke="midnightblue" points="1161.71,-434.62 1172.14,-436.5 1165.16,-428.53 1161.71,-434.62"/>
</g>
<!-- Node29 -->
<g id="node29" class="node">
<title>Node29</title>
<g id="a_node29"><a xlink:href="kv__module__loader_8cpp.html" target="_top" xlink:title=" ">
<polygon fill="white" stroke="black" points="1290.5,-369.5 1290.5,-399.5 1433.5,-399.5 1433.5,-369.5 1290.5,-369.5"/>
<text text-anchor="start" x="1298.5" y="-387.5" font-family="Helvetica,sans-Serif" font-size="10.00">src/apps/js_v8/kv_module</text>
<text text-anchor="middle" x="1362" y="-376.5" font-family="Helvetica,sans-Serif" font-size="10.00">_loader.cpp</text>
</a>
</g>
</g>
<!-- Node28&#45;&gt;Node29 -->
<g id="edge44" class="edge">
<title>Node28&#45;&gt;Node29</title>
<path fill="none" stroke="midnightblue" d="M1246.2,-432.54C1271.8,-422.14 1303.57,-409.24 1327.35,-399.58"/>
<polygon fill="midnightblue" stroke="midnightblue" points="1244.66,-429.39 1236.72,-436.4 1247.3,-435.87 1244.66,-429.39"/>
</g>
<!-- Node30 -->
<g id="node30" class="node">
<title>Node30</title>
<g id="a_node30"><a xlink:href="network__state_8h.html" target="_top" xlink:title=" ">
<polygon fill="white" stroke="black" points="1132,-375 1132,-394 1272,-394 1272,-375 1132,-375"/>
<text text-anchor="middle" x="1202" y="-382" font-family="Helvetica,sans-Serif" font-size="10.00">src/node/network_state.h</text>
</a>
</g>
</g>
<!-- Node28&#45;&gt;Node30 -->
<g id="edge46" class="edge">
<title>Node28&#45;&gt;Node30</title>
<path fill="none" stroke="midnightblue" d="M1202,-426.25C1202,-415.02 1202,-402.38 1202,-394.19"/>
<polygon fill="midnightblue" stroke="midnightblue" points="1198.5,-426.4 1202,-436.4 1205.5,-426.4 1198.5,-426.4"/>
</g>
<!-- Node41 -->
<g id="node41" class="node">
<title>Node41</title>
<g id="a_node41"><a xlink:href="genesis__gen_8h.html" target="_top" xlink:title=" ">
<polygon fill="white" stroke="black" points="1457,-369.5 1457,-399.5 1567,-399.5 1567,-369.5 1457,-369.5"/>
<text text-anchor="start" x="1465" y="-387.5" font-family="Helvetica,sans-Serif" font-size="10.00">src/service/genesis</text>
<text text-anchor="middle" x="1512" y="-376.5" font-family="Helvetica,sans-Serif" font-size="10.00">_gen.h</text>
</a>
</g>
</g>
<!-- Node28&#45;&gt;Node41 -->
<g id="edge73" class="edge">
<title>Node28&#45;&gt;Node41</title>
<path fill="none" stroke="midnightblue" d="M1268.04,-436.67C1316.47,-426.53 1383.82,-412.42 1443,-400 1447.43,-399.07 1452.03,-398.11 1456.64,-397.14"/>
<polygon fill="midnightblue" stroke="midnightblue" points="1267.07,-433.3 1258,-438.77 1268.51,-440.15 1267.07,-433.3"/>
</g>
<!-- Node30&#45;&gt;Node6 -->
<g id="edge64" class="edge">
<title>Node30&#45;&gt;Node6</title>
<path fill="none" stroke="midnightblue" d="M1182.91,-368.36C1158.39,-347.85 1116.37,-308.84 1094,-266 1082.26,-243.5 1077.02,-213.58 1075.03,-198.89"/>
<polygon fill="midnightblue" stroke="midnightblue" points="1180.83,-371.19 1190.79,-374.82 1185.27,-365.78 1180.83,-371.19"/>
</g>
<!-- Node30&#45;&gt;Node7 -->
<g id="edge47" class="edge">
<title>Node30&#45;&gt;Node7</title>
<path fill="none" stroke="midnightblue" d="M1254.1,-373.19C1263.37,-371.61 1272.95,-370.13 1282,-369 1515.41,-339.98 1576.22,-358.89 1810,-333 1907.43,-322.21 2182.17,-340.39 2246,-266 2254.97,-255.54 2253.26,-246.71 2246,-235 2216.45,-187.37 2186.25,-196.49 2133,-179 1970.07,-125.49 1923.25,-132.59 1753,-112 1526.05,-84.55 1254.26,-72.89 1135.07,-68.83"/>
<polygon fill="midnightblue" stroke="midnightblue" points="1253.45,-369.75 1244.21,-374.94 1254.67,-376.65 1253.45,-369.75"/>
</g>
<!-- Node30&#45;&gt;Node15 -->
<g id="edge72" class="edge">
<title>Node30&#45;&gt;Node15</title>
<path fill="none" stroke="midnightblue" d="M1121.59,-377.37C993.39,-367.22 755.72,-346.68 743,-333 724.39,-312.99 732.14,-276.83 737.07,-260.24"/>
<polygon fill="midnightblue" stroke="midnightblue" points="1121.51,-380.88 1131.76,-378.17 1122.06,-373.9 1121.51,-380.88"/>
</g>
<!-- Node30&#45;&gt;Node22 -->
<g id="edge63" class="edge">
<title>Node30&#45;&gt;Node22</title>
<path fill="none" stroke="midnightblue" d="M1164.84,-371.77C1129.91,-360.75 1077.59,-344.24 1040.46,-332.53"/>
<polygon fill="midnightblue" stroke="midnightblue" points="1164.06,-375.2 1174.64,-374.87 1166.16,-368.52 1164.06,-375.2"/>
</g>
<!-- Node30&#45;&gt;Node25 -->
<g id="edge65" class="edge">
<title>Node30&#45;&gt;Node25</title>
<path fill="none" stroke="midnightblue" d="M1211.94,-366.03C1219.11,-353.45 1228.47,-337.01 1234.09,-327.13"/>
<polygon fill="midnightblue" stroke="midnightblue" points="1208.9,-364.31 1206.99,-374.73 1214.98,-367.77 1208.9,-364.31"/>
</g>
<!-- Node30&#45;&gt;Node27 -->
<g id="edge66" class="edge">
<title>Node30&#45;&gt;Node27</title>
<path fill="none" stroke="midnightblue" d="M1143.02,-373.19C1069.96,-360.43 946.84,-338.92 878.83,-327.03"/>
<polygon fill="midnightblue" stroke="midnightblue" points="1142.53,-376.66 1152.98,-374.94 1143.74,-369.77 1142.53,-376.66"/>
</g>
<!-- Node31 -->
<g id="node31" class="node">
<title>Node31</title>
<g id="a_node31"><a xlink:href="wrap_8h.html" target="_top" xlink:title=" ">
<polygon fill="white" stroke="black" points="1723,-308 1723,-327 1801,-327 1801,-308 1723,-308"/>
<text text-anchor="middle" x="1762" y="-315" font-family="Helvetica,sans-Serif" font-size="10.00">src/js/wrap.h</text>
</a>
</g>
</g>
<!-- Node30&#45;&gt;Node31 -->
<g id="edge48" class="edge">
<title>Node30&#45;&gt;Node31</title>
<path fill="none" stroke="midnightblue" d="M1255.97,-373.15C1264.66,-371.65 1273.56,-370.21 1282,-369 1445.2,-345.66 1641.07,-328.37 1722.99,-321.61"/>
<polygon fill="midnightblue" stroke="midnightblue" points="1255.15,-369.74 1245.92,-374.93 1256.37,-376.64 1255.15,-369.74"/>
</g>
<!-- Node39 -->
<g id="node39" class="node">
<title>Node39</title>
<g id="a_node39"><a xlink:href="secret__broadcast_8h.html" target="_top" xlink:title=" ">
<polygon fill="white" stroke="black" points="1336.5,-308 1336.5,-327 1489.5,-327 1489.5,-308 1336.5,-308"/>
<text text-anchor="middle" x="1413" y="-315" font-family="Helvetica,sans-Serif" font-size="10.00">src/node/secret_broadcast.h</text>
</a>
</g>
</g>
<!-- Node30&#45;&gt;Node39 -->
<g id="edge67" class="edge">
<title>Node30&#45;&gt;Node39</title>
<path fill="none" stroke="midnightblue" d="M1239.83,-371.85C1281.62,-358.97 1347.93,-338.55 1385.2,-327.06"/>
<polygon fill="midnightblue" stroke="midnightblue" points="1238.55,-368.58 1230.02,-374.87 1240.61,-375.27 1238.55,-368.58"/>
</g>
<!-- Node40 -->
<g id="node40" class="node">
<title>Node40</title>
<g id="a_node40"><a xlink:href="share__manager_8h.html" target="_top" xlink:title=" ">
<polygon fill="white" stroke="black" points="2200.5,-308 2200.5,-327 2345.5,-327 2345.5,-308 2200.5,-308"/>
<text text-anchor="middle" x="2273" y="-315" font-family="Helvetica,sans-Serif" font-size="10.00">src/node/share_manager.h</text>
</a>
</g>
</g>
<!-- Node30&#45;&gt;Node40 -->
<g id="edge69" class="edge">
<title>Node30&#45;&gt;Node40</title>
<path fill="none" stroke="midnightblue" d="M1252.83,-373.19C1262.48,-371.54 1272.52,-370.04 1282,-369 1681.69,-325.04 1786.01,-374.13 2186,-333 2199.86,-331.57 2214.86,-329.33 2228.44,-327.03"/>
<polygon fill="midnightblue" stroke="midnightblue" points="1252.18,-369.75 1242.95,-374.94 1253.41,-376.64 1252.18,-369.75"/>
</g>
<!-- Node31&#45;&gt;Node6 -->
<g id="edge61" class="edge">
<title>Node31&#45;&gt;Node6</title>
<path fill="none" stroke="midnightblue" d="M1712.63,-313.46C1640.56,-308.2 1502.76,-295.05 1389,-266 1351.65,-256.46 1345.07,-245.57 1308,-235 1249.72,-218.38 1181.51,-206.05 1133.82,-198.53"/>
<polygon fill="midnightblue" stroke="midnightblue" points="1712.55,-316.96 1722.77,-314.18 1713.04,-309.98 1712.55,-316.96"/>
</g>
<!-- Node31&#45;&gt;Node7 -->
<g id="edge50" class="edge">
<title>Node31&#45;&gt;Node7</title>
<path fill="none" stroke="midnightblue" d="M1794.15,-304.95C1798.11,-303.82 1802.12,-302.79 1806,-302 1852.21,-292.55 2197.09,-300.74 2229,-266 2238.32,-255.85 2237.68,-245.7 2229,-235 2159.13,-148.82 1363.54,-87.14 1135.03,-71.11"/>
<polygon fill="midnightblue" stroke="midnightblue" points="1793.07,-301.63 1784.56,-307.94 1795.15,-308.31 1793.07,-301.63"/>
</g>
<!-- Node31&#45;&gt;Node24 -->
<g id="edge62" class="edge">
<title>Node31&#45;&gt;Node24</title>
<path fill="none" stroke="midnightblue" d="M1811.42,-311.97C1901.22,-303.64 2097.13,-284.99 2262,-266 2278.85,-264.06 2297.1,-261.77 2313.88,-259.6"/>
<polygon fill="midnightblue" stroke="midnightblue" points="1810.89,-308.51 1801.26,-312.91 1811.54,-315.48 1810.89,-308.51"/>
</g>
<!-- Node32 -->
<g id="node32" class="node">
<title>Node32</title>
<g id="a_node32"><a xlink:href="js__generic__base_8cpp.html" target="_top" xlink:title=" ">
<polygon fill="white" stroke="black" points="1544,-235.5 1544,-265.5 1662,-265.5 1662,-235.5 1544,-235.5"/>
<text text-anchor="start" x="1552" y="-253.5" font-family="Helvetica,sans-Serif" font-size="10.00">src/apps/js_generic</text>
<text text-anchor="middle" x="1603" y="-242.5" font-family="Helvetica,sans-Serif" font-size="10.00">/js_generic_base.cpp</text>
</a>
</g>
</g>
<!-- Node31&#45;&gt;Node32 -->
<g id="edge49" class="edge">
<title>Node31&#45;&gt;Node32</title>
<path fill="none" stroke="midnightblue" d="M1731.56,-304.06C1704.63,-293.05 1665.36,-276.99 1637.31,-265.53"/>
<polygon fill="midnightblue" stroke="midnightblue" points="1730.31,-307.32 1740.89,-307.87 1732.95,-300.84 1730.31,-307.32"/>
</g>
<!-- Node33 -->
<g id="node33" class="node">
<title>Node33</title>
<g id="a_node33"><a xlink:href="js_2consensus_8cpp.html" target="_top" xlink:title=" ">
<polygon fill="white" stroke="black" points="2104,-241 2104,-260 2220,-260 2220,-241 2104,-241"/>
<text text-anchor="middle" x="2162" y="-248" font-family="Helvetica,sans-Serif" font-size="10.00">src/js/consensus.cpp</text>
</a>
</g>
</g>
<!-- Node31&#45;&gt;Node33 -->
<g id="edge51" class="edge">
<title>Node31&#45;&gt;Node33</title>
<path fill="none" stroke="midnightblue" d="M1811.07,-310.04C1876.17,-301.24 1994.56,-284.47 2095,-266 2104.6,-264.24 2114.92,-262.11 2124.52,-260.04"/>
<polygon fill="midnightblue" stroke="midnightblue" points="1810.54,-306.58 1801.09,-311.38 1811.47,-313.52 1810.54,-306.58"/>
</g>
<!-- Node34 -->
<g id="node34" class="node">
<title>Node34</title>
<g id="a_node34"><a xlink:href="wrap_8cpp.html" target="_top" xlink:title=" ">
<polygon fill="white" stroke="black" points="1865.5,-179.5 1865.5,-198.5 1954.5,-198.5 1954.5,-179.5 1865.5,-179.5"/>
<text text-anchor="middle" x="1910" y="-186.5" font-family="Helvetica,sans-Serif" font-size="10.00">src/js/wrap.cpp</text>
</a>
</g>
</g>
<!-- Node31&#45;&gt;Node34 -->
<g id="edge60" class="edge">
<title>Node31&#45;&gt;Node34</title>
<path fill="none" stroke="midnightblue" d="M1740.79,-301.73C1719.25,-284.93 1691.4,-256.98 1709,-235 1728.22,-211 1812.35,-198.93 1865.49,-193.6"/>
<polygon fill="midnightblue" stroke="midnightblue" points="1738.8,-304.62 1748.91,-307.79 1742.99,-299.01 1738.8,-304.62"/>
</g>
<!-- Node35 -->
<g id="node35" class="node">
<title>Node35</title>
<g id="a_node35"><a xlink:href="conv_8cpp.html" target="_top" xlink:title=" ">
<polygon fill="white" stroke="black" points="1718,-241 1718,-260 1806,-260 1806,-241 1718,-241"/>
<text text-anchor="middle" x="1762" y="-248" font-family="Helvetica,sans-Serif" font-size="10.00">src/js/conv.cpp</text>
</a>
</g>
</g>
<!-- Node31&#45;&gt;Node35 -->
<g id="edge53" class="edge">
<title>Node31&#45;&gt;Node35</title>
<path fill="none" stroke="midnightblue" d="M1762,-297.54C1762,-285.17 1762,-269.62 1762,-260.13"/>
<polygon fill="midnightblue" stroke="midnightblue" points="1758.5,-297.73 1762,-307.73 1765.5,-297.73 1758.5,-297.73"/>
</g>
<!-- Node36 -->
<g id="node36" class="node">
<title>Node36</title>
<g id="a_node36"><a xlink:href="js_2crypto_8cpp.html" target="_top" xlink:title=" ">
<polygon fill="white" stroke="black" points="1862,-241 1862,-260 1958,-260 1958,-241 1862,-241"/>
<text text-anchor="middle" x="1910" y="-248" font-family="Helvetica,sans-Serif" font-size="10.00">src/js/crypto.cpp</text>
</a>
</g>
</g>
<!-- Node31&#45;&gt;Node36 -->
<g id="edge55" class="edge">
<title>Node31&#45;&gt;Node36</title>
<path fill="none" stroke="midnightblue" d="M1790.96,-303.78C1820.27,-290.91 1864.79,-271.35 1890.27,-260.17"/>
<polygon fill="midnightblue" stroke="midnightblue" points="1789.4,-300.64 1781.65,-307.87 1792.22,-307.05 1789.4,-300.64"/>
</g>
<!-- Node37 -->
<g id="node37" class="node">
<title>Node37</title>
<g id="a_node37"><a xlink:href="js_2historical_8cpp.html" target="_top" xlink:title=" ">
<polygon fill="white" stroke="black" points="1976,-241 1976,-260 2086,-260 2086,-241 1976,-241"/>
<text text-anchor="middle" x="2031" y="-248" font-family="Helvetica,sans-Serif" font-size="10.00">src/js/historical.cpp</text>
</a>
</g>
</g>
<!-- Node31&#45;&gt;Node37 -->
<g id="edge57" class="edge">
<title>Node31&#45;&gt;Node37</title>
<path fill="none" stroke="midnightblue" d="M1807.26,-305.56C1860.29,-292.75 1947.05,-271.78 1995.48,-260.08"/>
<polygon fill="midnightblue" stroke="midnightblue" points="1806.34,-302.18 1797.44,-307.94 1807.99,-308.99 1806.34,-302.18"/>
</g>
<!-- Node38 -->
<g id="node38" class="node">
<title>Node38</title>
<g id="a_node38"><a xlink:href="openenclave_8cpp.html" target="_top" xlink:title=" ">
<polygon fill="white" stroke="black" points="1398,-241 1398,-260 1526,-260 1526,-241 1398,-241"/>
<text text-anchor="middle" x="1462" y="-248" font-family="Helvetica,sans-Serif" font-size="10.00">src/js/openenclave.cpp</text>
</a>
</g>
</g>
<!-- Node31&#45;&gt;Node38 -->
<g id="edge59" class="edge">
<title>Node31&#45;&gt;Node38</title>
<path fill="none" stroke="midnightblue" d="M1712.95,-305.87C1653.98,-293.1 1556.17,-271.9 1501.71,-260.1"/>
<polygon fill="midnightblue" stroke="midnightblue" points="1712.27,-309.31 1722.78,-308 1713.75,-302.46 1712.27,-309.31"/>
</g>
<!-- Node33&#45;&gt;Node34 -->
<g id="edge52" class="edge">
<title>Node33&#45;&gt;Node34</title>
<path fill="none" stroke="midnightblue" d="M2115.89,-238.61C2066.98,-227.07 1990.73,-209.06 1946.04,-198.51"/>
<polygon fill="midnightblue" stroke="midnightblue" points="2115.36,-242.08 2125.89,-240.98 2116.97,-235.27 2115.36,-242.08"/>
</g>
<!-- Node35&#45;&gt;Node34 -->
<g id="edge54" class="edge">
<title>Node35&#45;&gt;Node34</title>
<path fill="none" stroke="midnightblue" d="M1792.77,-237.13C1821.52,-225.57 1863.68,-208.62 1888.83,-198.51"/>
<polygon fill="midnightblue" stroke="midnightblue" points="1791.18,-234 1783.2,-240.98 1793.79,-240.49 1791.18,-234"/>
</g>
<!-- Node36&#45;&gt;Node34 -->
<g id="edge56" class="edge">
<title>Node36&#45;&gt;Node34</title>
<path fill="none" stroke="midnightblue" d="M1910,-230.82C1910,-220 1910,-206.9 1910,-198.51"/>
<polygon fill="midnightblue" stroke="midnightblue" points="1906.5,-230.98 1910,-240.98 1913.5,-230.98 1906.5,-230.98"/>
</g>
<!-- Node37&#45;&gt;Node34 -->
<g id="edge58" class="edge">
<title>Node37&#45;&gt;Node34</title>
<path fill="none" stroke="midnightblue" d="M2004.61,-236.52C1981.14,-224.98 1947.51,-208.44 1927.3,-198.51"/>
<polygon fill="midnightblue" stroke="midnightblue" points="2003.15,-239.7 2013.66,-240.98 2006.23,-233.42 2003.15,-239.7"/>
</g>
<!-- Node39&#45;&gt;Node6 -->
<g id="edge68" class="edge">
<title>Node39&#45;&gt;Node6</title>
<path fill="none" stroke="midnightblue" d="M1374.48,-304.85C1347.28,-295.92 1310.41,-282.37 1280,-266 1259.25,-254.83 1258.24,-245.18 1237,-235 1200.2,-217.36 1155.31,-205.61 1121.96,-198.55"/>
<polygon fill="midnightblue" stroke="midnightblue" points="1373.44,-308.19 1384.03,-307.93 1375.59,-301.53 1373.44,-308.19"/>
</g>
<!-- Node40&#45;&gt;Node6 -->
<g id="edge70" class="edge">
<title>Node40&#45;&gt;Node6</title>
<path fill="none" stroke="midnightblue" d="M2190.22,-312.02C2085.58,-305.42 1911.95,-291.06 1853,-266 1832.94,-257.47 1835.3,-242.93 1815,-235 1752.61,-210.62 1302.96,-196.16 1136.1,-191.59"/>
<polygon fill="midnightblue" stroke="midnightblue" points="2190.24,-315.53 2200.44,-312.65 2190.68,-308.54 2190.24,-315.53"/>
</g>
<!-- Node40&#45;&gt;Node24 -->
<g id="edge71" class="edge">
<title>Node40&#45;&gt;Node24</title>
<path fill="none" stroke="midnightblue" d="M2295.29,-302.15C2312.2,-291.27 2335.3,-276.4 2352.11,-265.59"/>
<polygon fill="midnightblue" stroke="midnightblue" points="2293.14,-299.38 2286.62,-307.73 2296.92,-305.27 2293.14,-299.38"/>
</g>
<!-- Node41&#45;&gt;Node6 -->
<g id="edge74" class="edge">
<title>Node41&#45;&gt;Node6</title>
<path fill="none" stroke="midnightblue" d="M1514.96,-359.14C1515.72,-340.99 1513.46,-316.87 1499,-302 1438.78,-240.06 1385.84,-303.47 1308,-266 1288.97,-256.84 1290.85,-244.51 1272,-235 1229.51,-213.57 1176.77,-202.22 1136.41,-196.29"/>
<polygon fill="midnightblue" stroke="midnightblue" points="1511.46,-359.04 1514.2,-369.27 1518.44,-359.56 1511.46,-359.04"/>
</g>
<!-- Node41&#45;&gt;Node24 -->
<g id="edge75" class="edge">
<title>Node41&#45;&gt;Node24</title>
<path fill="none" stroke="midnightblue" d="M1577.44,-384C1765.21,-384.83 2296.09,-382.7 2355,-333 2374.54,-316.51 2376.2,-284.17 2375.32,-265.57"/>
<polygon fill="midnightblue" stroke="midnightblue" points="1577.18,-380.5 1567.16,-383.95 1577.14,-387.5 1577.18,-380.5"/>
</g>
<!-- Node41&#45;&gt;Node25 -->
<g id="edge76" class="edge">
<title>Node41&#45;&gt;Node25</title>
<path fill="none" stroke="midnightblue" d="M1446.96,-368.01C1393.15,-355.2 1318.7,-337.48 1275.02,-327.08"/>
<polygon fill="midnightblue" stroke="midnightblue" points="1446.22,-371.43 1456.75,-370.35 1447.84,-364.63 1446.22,-371.43"/>
</g>
<!-- Node41&#45;&gt;Node39 -->
<g id="edge77" class="edge">
<title>Node41&#45;&gt;Node39</title>
<path fill="none" stroke="midnightblue" d="M1482.01,-363.81C1463.28,-351.51 1440.12,-336.3 1425.96,-327.01"/>
<polygon fill="midnightblue" stroke="midnightblue" points="1480.24,-366.83 1490.52,-369.4 1484.08,-360.98 1480.24,-366.83"/>
</g>
<!-- Node41&#45;&gt;Node40 -->
<g id="edge78" class="edge">
<title>Node41&#45;&gt;Node40</title>
<path fill="none" stroke="midnightblue" d="M1577.38,-380.57C1698,-374.72 1963.56,-359.81 2186,-333 2199.23,-331.41 2213.51,-329.22 2226.61,-327.03"/>
<polygon fill="midnightblue" stroke="midnightblue" points="1577.03,-377.08 1567.2,-381.06 1577.36,-384.07 1577.03,-377.08"/>
</g>
</g>
</svg>
