<?xml version="1.0" encoding="UTF-8" standalone="no"?>
<!DOCTYPE svg PUBLIC "-//W3C//DTD SVG 1.1//EN"
 "http://www.w3.org/Graphics/SVG/1.1/DTD/svg11.dtd">
<!-- Generated by graphviz version 2.43.0 (0)
 -->
<!-- Title: include/ccf/ds/unit_strings.h Pages: 1 -->
<svg width="1275pt" height="207pt"
 viewBox="0.00 0.00 1274.50 207.00" xmlns="http://www.w3.org/2000/svg" xmlns:xlink="http://www.w3.org/1999/xlink">
<g id="graph0" class="graph" transform="scale(1 1) rotate(0) translate(4 203)">
<title>include/ccf/ds/unit_strings.h</title>
<polygon fill="white" stroke="transparent" points="-4,4 -4,-203 1270.5,-203 1270.5,4 -4,4"/>
<!-- Node1 -->
<g id="node1" class="node">
<title>Node1</title>
<g id="a_node1"><a xlink:title=" ">
<polygon fill="#bfbfbf" stroke="black" points="975,-168.5 975,-198.5 1080,-198.5 1080,-168.5 975,-168.5"/>
<text text-anchor="start" x="983" y="-186.5" font-family="Helvetica,sans-Serif" font-size="10.00">include/ccf/ds/unit</text>
<text text-anchor="middle" x="1027.5" y="-175.5" font-family="Helvetica,sans-Serif" font-size="10.00">_strings.h</text>
</a>
</g>
</g>
<!-- Node2 -->
<g id="node2" class="node">
<title>Node2</title>
<g id="a_node2"><a xlink:href="logger_8h.html" target="_top" xlink:title=" ">
<polygon fill="white" stroke="black" points="395,-112.5 395,-131.5 482,-131.5 482,-112.5 395,-112.5"/>
<text text-anchor="middle" x="438.5" y="-119.5" font-family="Helvetica,sans-Serif" font-size="10.00">ccf/ds/logger.h</text>
</a>
</g>
</g>
<!-- Node1&#45;&gt;Node2 -->
<g id="edge1" class="edge">
<title>Node1&#45;&gt;Node2</title>
<path fill="none" stroke="midnightblue" d="M974.97,-177.19C863.55,-165.94 604.55,-139.77 492.15,-128.42"/>
<polygon fill="midnightblue" stroke="midnightblue" points="492.36,-124.92 482.06,-127.4 491.66,-131.89 492.36,-124.92"/>
</g>
<!-- Node12 -->
<g id="node12" class="node">
<title>Node12</title>
<g id="a_node12"><a xlink:title=" ">
<polygon fill="white" stroke="#bfbfbf" points="640.5,-56.5 640.5,-75.5 750.5,-75.5 750.5,-56.5 640.5,-56.5"/>
<text text-anchor="middle" x="695.5" y="-63.5" font-family="Helvetica,sans-Serif" font-size="10.00">nlohmann/json.hpp</text>
</a>
</g>
</g>
<!-- Node1&#45;&gt;Node12 -->
<g id="edge27" class="edge">
<title>Node1&#45;&gt;Node12</title>
<path fill="none" stroke="midnightblue" d="M987.12,-168.45C921.15,-145.5 791.44,-100.38 729.71,-78.9"/>
<polygon fill="midnightblue" stroke="midnightblue" points="730.65,-75.52 720.05,-75.54 728.35,-82.13 730.65,-75.52"/>
</g>
<!-- Node16 -->
<g id="node16" class="node">
<title>Node16</title>
<g id="a_node16"><a xlink:href="nonstd_8h.html" target="_top" xlink:title=" ">
<polygon fill="white" stroke="black" points="946.5,-112.5 946.5,-131.5 1036.5,-131.5 1036.5,-112.5 946.5,-112.5"/>
<text text-anchor="middle" x="991.5" y="-119.5" font-family="Helvetica,sans-Serif" font-size="10.00">ccf/ds/nonstd.h</text>
</a>
</g>
</g>
<!-- Node1&#45;&gt;Node16 -->
<g id="edge17" class="edge">
<title>Node1&#45;&gt;Node16</title>
<path fill="none" stroke="midnightblue" d="M1018.97,-168.4C1013.9,-160.02 1007.43,-149.33 1002.04,-140.42"/>
<polygon fill="midnightblue" stroke="midnightblue" points="1004.91,-138.4 996.74,-131.66 998.92,-142.03 1004.91,-138.4"/>
</g>
<!-- Node20 -->
<g id="node20" class="node">
<title>Node20</title>
<g id="a_node20"><a xlink:title=" ">
<polygon fill="white" stroke="#bfbfbf" points="1222.5,-56.5 1222.5,-75.5 1266.5,-75.5 1266.5,-56.5 1222.5,-56.5"/>
<text text-anchor="middle" x="1244.5" y="-63.5" font-family="Helvetica,sans-Serif" font-size="10.00">string</text>
</a>
</g>
</g>
<!-- Node1&#45;&gt;Node20 -->
<g id="edge28" class="edge">
<title>Node1&#45;&gt;Node20</title>
<path fill="none" stroke="midnightblue" d="M1035.24,-168.38C1044.76,-152.35 1062.4,-126.52 1084.5,-112 1131.71,-80.96 1153.94,-91.1 1212.73,-76.06"/>
<polygon fill="midnightblue" stroke="midnightblue" points="1213.75,-79.41 1222.49,-73.42 1211.93,-72.65 1213.75,-79.41"/>
</g>
<!-- Node23 -->
<g id="node23" class="node">
<title>Node23</title>
<g id="a_node23"><a xlink:title=" ">
<polygon fill="white" stroke="#bfbfbf" points="1093,-112.5 1093,-131.5 1154,-131.5 1154,-112.5 1093,-112.5"/>
<text text-anchor="middle" x="1123.5" y="-119.5" font-family="Helvetica,sans-Serif" font-size="10.00">charconv</text>
</a>
</g>
</g>
<!-- Node1&#45;&gt;Node23 -->
<g id="edge25" class="edge">
<title>Node1&#45;&gt;Node23</title>
<path fill="none" stroke="midnightblue" d="M1050.25,-168.4C1065.49,-158.95 1085.49,-146.56 1100.74,-137.11"/>
<polygon fill="midnightblue" stroke="midnightblue" points="1102.88,-139.9 1109.53,-131.66 1099.19,-133.95 1102.88,-139.9"/>
</g>
<!-- Node24 -->
<g id="node24" class="node">
<title>Node24</title>
<g id="a_node24"><a xlink:title=" ">
<polygon fill="white" stroke="#bfbfbf" points="1172,-112.5 1172,-131.5 1219,-131.5 1219,-112.5 1172,-112.5"/>
<text text-anchor="middle" x="1195.5" y="-119.5" font-family="Helvetica,sans-Serif" font-size="10.00">cmath</text>
</a>
</g>
</g>
<!-- Node1&#45;&gt;Node24 -->
<g id="edge26" class="edge">
<title>Node1&#45;&gt;Node24</title>
<path fill="none" stroke="midnightblue" d="M1067.31,-168.4C1096.18,-158.18 1134.77,-144.51 1162.05,-134.85"/>
<polygon fill="midnightblue" stroke="midnightblue" points="1163.29,-138.12 1171.54,-131.48 1160.95,-131.52 1163.29,-138.12"/>
</g>
<!-- Node3 -->
<g id="node3" class="node">
<title>Node3</title>
<g id="a_node3"><a xlink:href="enum__formatter_8h.html" target="_top" xlink:title=" ">
<polygon fill="white" stroke="black" points="322.5,-56.5 322.5,-75.5 458.5,-75.5 458.5,-56.5 322.5,-56.5"/>
<text text-anchor="middle" x="390.5" y="-63.5" font-family="Helvetica,sans-Serif" font-size="10.00">ccf/ds/enum_formatter.h</text>
</a>
</g>
</g>
<!-- Node2&#45;&gt;Node3 -->
<g id="edge2" class="edge">
<title>Node2&#45;&gt;Node3</title>
<path fill="none" stroke="midnightblue" d="M430.57,-112.08C423.65,-104.3 413.43,-92.8 405.05,-83.37"/>
<polygon fill="midnightblue" stroke="midnightblue" points="407.54,-80.9 398.28,-75.75 402.31,-85.55 407.54,-80.9"/>
</g>
<!-- Node4 -->
<g id="node4" class="node">
<title>Node4</title>
<g id="a_node4"><a xlink:title=" ">
<polygon fill="white" stroke="#bfbfbf" points="351,-0.5 351,-19.5 430,-19.5 430,-0.5 351,-0.5"/>
<text text-anchor="middle" x="390.5" y="-7.5" font-family="Helvetica,sans-Serif" font-size="10.00">fmt/format.h</text>
</a>
</g>
</g>
<!-- Node2&#45;&gt;Node4 -->
<g id="edge11" class="edge">
<title>Node2&#45;&gt;Node4</title>
<path fill="none" stroke="midnightblue" d="M447.58,-112.32C459.74,-99.59 478.57,-75.29 467.5,-56 458.88,-40.99 443.11,-30.5 428.07,-23.46"/>
<polygon fill="midnightblue" stroke="midnightblue" points="429.44,-20.24 418.87,-19.51 426.68,-26.67 429.44,-20.24"/>
</g>
<!-- Node5 -->
<g id="node5" class="node">
<title>Node5</title>
<g id="a_node5"><a xlink:href="thread__ids_8h.html" target="_top" xlink:title=" ">
<polygon fill="white" stroke="black" points="514.5,-56.5 514.5,-75.5 622.5,-75.5 622.5,-56.5 514.5,-56.5"/>
<text text-anchor="middle" x="568.5" y="-63.5" font-family="Helvetica,sans-Serif" font-size="10.00">ccf/ds/thread_ids.h</text>
</a>
</g>
</g>
<!-- Node2&#45;&gt;Node5 -->
<g id="edge4" class="edge">
<title>Node2&#45;&gt;Node5</title>
<path fill="none" stroke="midnightblue" d="M459.1,-112.44C480.49,-103.56 514.18,-89.56 538.52,-79.45"/>
<polygon fill="midnightblue" stroke="midnightblue" points="540.11,-82.58 548,-75.52 537.42,-76.12 540.11,-82.58"/>
</g>
<!-- Node10 -->
<g id="node10" class="node">
<title>Node10</title>
<g id="a_node10"><a xlink:title=" ">
<polygon fill="white" stroke="#bfbfbf" points="0,-56.5 0,-75.5 79,-75.5 79,-56.5 0,-56.5"/>
<text text-anchor="middle" x="39.5" y="-63.5" font-family="Helvetica,sans-Serif" font-size="10.00">fmt/chrono.h</text>
</a>
</g>
</g>
<!-- Node2&#45;&gt;Node10 -->
<g id="edge10" class="edge">
<title>Node2&#45;&gt;Node10</title>
<path fill="none" stroke="midnightblue" d="M394.88,-116.23C330.28,-108.98 205.14,-94.26 89.14,-76.19"/>
<polygon fill="midnightblue" stroke="midnightblue" points="89.44,-72.69 79.02,-74.6 88.36,-79.61 89.44,-72.69"/>
</g>
<!-- Node11 -->
<g id="node11" class="node">
<title>Node11</title>
<g id="a_node11"><a xlink:title=" ">
<polygon fill="white" stroke="#bfbfbf" points="96.5,-56.5 96.5,-75.5 156.5,-75.5 156.5,-56.5 96.5,-56.5"/>
<text text-anchor="middle" x="126.5" y="-63.5" font-family="Helvetica,sans-Serif" font-size="10.00">iostream</text>
</a>
</g>
</g>
<!-- Node2&#45;&gt;Node11 -->
<g id="edge12" class="edge">
<title>Node2&#45;&gt;Node11</title>
<path fill="none" stroke="midnightblue" d="M394.85,-114.68C342.82,-106.95 253.06,-93.01 166.66,-76.13"/>
<polygon fill="midnightblue" stroke="midnightblue" points="167.18,-72.67 156.69,-74.17 165.83,-79.53 167.18,-72.67"/>
</g>
<!-- Node2&#45;&gt;Node12 -->
<g id="edge13" class="edge">
<title>Node2&#45;&gt;Node12</title>
<path fill="none" stroke="midnightblue" d="M479.22,-112.44C524.15,-103 596.5,-87.8 645,-77.61"/>
<polygon fill="midnightblue" stroke="midnightblue" points="645.9,-81 654.97,-75.52 644.46,-74.15 645.9,-81"/>
</g>
<!-- Node13 -->
<g id="node13" class="node">
<title>Node13</title>
<g id="a_node13"><a xlink:title=" ">
<polygon fill="white" stroke="#bfbfbf" points="174.5,-56.5 174.5,-75.5 230.5,-75.5 230.5,-56.5 174.5,-56.5"/>
<text text-anchor="middle" x="202.5" y="-63.5" font-family="Helvetica,sans-Serif" font-size="10.00">optional</text>
</a>
</g>
</g>
<!-- Node2&#45;&gt;Node13 -->
<g id="edge14" class="edge">
<title>Node2&#45;&gt;Node13</title>
<path fill="none" stroke="midnightblue" d="M399.94,-112.47C361.85,-104.01 301.69,-90.53 240.58,-76.23"/>
<polygon fill="midnightblue" stroke="midnightblue" points="241.31,-72.8 230.77,-73.93 239.71,-79.62 241.31,-72.8"/>
</g>
<!-- Node14 -->
<g id="node14" class="node">
<title>Node14</title>
<g id="a_node14"><a xlink:title=" ">
<polygon fill="white" stroke="#bfbfbf" points="248.5,-56.5 248.5,-75.5 304.5,-75.5 304.5,-56.5 248.5,-56.5"/>
<text text-anchor="middle" x="276.5" y="-63.5" font-family="Helvetica,sans-Serif" font-size="10.00">sstream</text>
</a>
</g>
</g>
<!-- Node2&#45;&gt;Node14 -->
<g id="edge15" class="edge">
<title>Node2&#45;&gt;Node14</title>
<path fill="none" stroke="midnightblue" d="M412.83,-112.44C385.58,-103.36 342.32,-88.94 311.85,-78.78"/>
<polygon fill="midnightblue" stroke="midnightblue" points="312.64,-75.36 302.05,-75.52 310.43,-82 312.64,-75.36"/>
</g>
<!-- Node15 -->
<g id="node15" class="node">
<title>Node15</title>
<g id="a_node15"><a xlink:title=" ">
<polygon fill="white" stroke="#bfbfbf" points="769,-56.5 769,-75.5 838,-75.5 838,-56.5 769,-56.5"/>
<text text-anchor="middle" x="803.5" y="-63.5" font-family="Helvetica,sans-Serif" font-size="10.00">type_traits</text>
</a>
</g>
</g>
<!-- Node2&#45;&gt;Node15 -->
<g id="edge16" class="edge">
<title>Node2&#45;&gt;Node15</title>
<path fill="none" stroke="midnightblue" d="M482.25,-115.75C542.22,-108.35 653.55,-93.94 758.79,-76.02"/>
<polygon fill="midnightblue" stroke="midnightblue" points="759.69,-79.42 768.95,-74.28 758.5,-72.52 759.69,-79.42"/>
</g>
<!-- Node3&#45;&gt;Node4 -->
<g id="edge3" class="edge">
<title>Node3&#45;&gt;Node4</title>
<path fill="none" stroke="midnightblue" d="M390.5,-56.08C390.5,-49.01 390.5,-38.86 390.5,-29.99"/>
<polygon fill="midnightblue" stroke="midnightblue" points="394,-29.75 390.5,-19.75 387,-29.75 394,-29.75"/>
</g>
<!-- Node5&#45;&gt;Node4 -->
<g id="edge5" class="edge">
<title>Node5&#45;&gt;Node4</title>
<path fill="none" stroke="midnightblue" d="M540.3,-56.44C510.09,-47.28 461.99,-32.69 428.47,-22.52"/>
<polygon fill="midnightblue" stroke="midnightblue" points="429.16,-19.07 418.57,-19.52 427.13,-25.77 429.16,-19.07"/>
</g>
<!-- Node6 -->
<g id="node6" class="node">
<title>Node6</title>
<g id="a_node6"><a xlink:title=" ">
<polygon fill="white" stroke="#bfbfbf" points="448.5,-0.5 448.5,-19.5 534.5,-19.5 534.5,-0.5 448.5,-0.5"/>
<text text-anchor="middle" x="491.5" y="-7.5" font-family="Helvetica,sans-Serif" font-size="10.00">fmt/ostream.h</text>
</a>
</g>
</g>
<!-- Node5&#45;&gt;Node6 -->
<g id="edge6" class="edge">
<title>Node5&#45;&gt;Node6</title>
<path fill="none" stroke="midnightblue" d="M556.13,-56.32C544.34,-48.06 526.37,-35.45 512.36,-25.63"/>
<polygon fill="midnightblue" stroke="midnightblue" points="514.04,-22.53 503.84,-19.65 510.02,-28.26 514.04,-22.53"/>
</g>
<!-- Node7 -->
<g id="node7" class="node">
<title>Node7</title>
<g id="a_node7"><a xlink:title=" ">
<polygon fill="white" stroke="#bfbfbf" points="552.5,-0.5 552.5,-19.5 596.5,-19.5 596.5,-0.5 552.5,-0.5"/>
<text text-anchor="middle" x="574.5" y="-7.5" font-family="Helvetica,sans-Serif" font-size="10.00">limits</text>
</a>
</g>
</g>
<!-- Node5&#45;&gt;Node7 -->
<g id="edge7" class="edge">
<title>Node5&#45;&gt;Node7</title>
<path fill="none" stroke="midnightblue" d="M569.49,-56.08C570.29,-48.93 571.43,-38.64 572.42,-29.69"/>
<polygon fill="midnightblue" stroke="midnightblue" points="575.9,-30.08 573.53,-19.75 568.94,-29.3 575.9,-30.08"/>
</g>
<!-- Node8 -->
<g id="node8" class="node">
<title>Node8</title>
<g id="a_node8"><a xlink:title=" ">
<polygon fill="white" stroke="#bfbfbf" points="614.5,-0.5 614.5,-19.5 652.5,-19.5 652.5,-0.5 614.5,-0.5"/>
<text text-anchor="middle" x="633.5" y="-7.5" font-family="Helvetica,sans-Serif" font-size="10.00">map</text>
</a>
</g>
</g>
<!-- Node5&#45;&gt;Node8 -->
<g id="edge8" class="edge">
<title>Node5&#45;&gt;Node8</title>
<path fill="none" stroke="midnightblue" d="M578.94,-56.32C588.65,-48.26 603.32,-36.08 615,-26.37"/>
<polygon fill="midnightblue" stroke="midnightblue" points="617.41,-28.92 622.87,-19.83 612.94,-23.53 617.41,-28.92"/>
</g>
<!-- Node9 -->
<g id="node9" class="node">
<title>Node9</title>
<g id="a_node9"><a xlink:title=" ">
<polygon fill="white" stroke="#bfbfbf" points="670.5,-0.5 670.5,-19.5 718.5,-19.5 718.5,-0.5 670.5,-0.5"/>
<text text-anchor="middle" x="694.5" y="-7.5" font-family="Helvetica,sans-Serif" font-size="10.00">thread</text>
</a>
</g>
</g>
<!-- Node5&#45;&gt;Node9 -->
<g id="edge9" class="edge">
<title>Node5&#45;&gt;Node9</title>
<path fill="none" stroke="midnightblue" d="M588.47,-56.44C609.11,-47.6 641.56,-33.69 665.13,-23.59"/>
<polygon fill="midnightblue" stroke="midnightblue" points="666.82,-26.67 674.63,-19.52 664.06,-20.24 666.82,-26.67"/>
</g>
<!-- Node16&#45;&gt;Node15 -->
<g id="edge23" class="edge">
<title>Node16&#45;&gt;Node15</title>
<path fill="none" stroke="midnightblue" d="M961.71,-112.44C929.67,-103.24 878.57,-88.56 843.15,-78.39"/>
<polygon fill="midnightblue" stroke="midnightblue" points="843.73,-74.91 833.15,-75.52 841.79,-81.64 843.73,-74.91"/>
</g>
<!-- Node17 -->
<g id="node17" class="node">
<title>Node17</title>
<g id="a_node17"><a xlink:title=" ">
<polygon fill="white" stroke="#bfbfbf" points="856.5,-56.5 856.5,-75.5 920.5,-75.5 920.5,-56.5 856.5,-56.5"/>
<text text-anchor="middle" x="888.5" y="-63.5" font-family="Helvetica,sans-Serif" font-size="10.00">algorithm</text>
</a>
</g>
</g>
<!-- Node16&#45;&gt;Node17 -->
<g id="edge18" class="edge">
<title>Node16&#45;&gt;Node17</title>
<path fill="none" stroke="midnightblue" d="M974.95,-112.32C958.51,-103.7 933.07,-90.36 914.03,-80.39"/>
<polygon fill="midnightblue" stroke="midnightblue" points="915.49,-77.2 905.01,-75.65 912.24,-83.4 915.49,-77.2"/>
</g>
<!-- Node18 -->
<g id="node18" class="node">
<title>Node18</title>
<g id="a_node18"><a xlink:title=" ">
<polygon fill="white" stroke="#bfbfbf" points="938.5,-56.5 938.5,-75.5 980.5,-75.5 980.5,-56.5 938.5,-56.5"/>
<text text-anchor="middle" x="959.5" y="-63.5" font-family="Helvetica,sans-Serif" font-size="10.00">array</text>
</a>
</g>
</g>
<!-- Node16&#45;&gt;Node18 -->
<g id="edge19" class="edge">
<title>Node16&#45;&gt;Node18</title>
<path fill="none" stroke="midnightblue" d="M986.22,-112.08C981.79,-104.61 975.34,-93.72 969.88,-84.52"/>
<polygon fill="midnightblue" stroke="midnightblue" points="972.79,-82.57 964.69,-75.75 966.77,-86.14 972.79,-82.57"/>
</g>
<!-- Node19 -->
<g id="node19" class="node">
<title>Node19</title>
<g id="a_node19"><a xlink:title=" ">
<polygon fill="white" stroke="#bfbfbf" points="999,-56.5 999,-75.5 1048,-75.5 1048,-56.5 999,-56.5"/>
<text text-anchor="middle" x="1023.5" y="-63.5" font-family="Helvetica,sans-Serif" font-size="10.00">cctype</text>
</a>
</g>
</g>
<!-- Node16&#45;&gt;Node19 -->
<g id="edge20" class="edge">
<title>Node16&#45;&gt;Node19</title>
<path fill="none" stroke="midnightblue" d="M996.78,-112.08C1001.21,-104.61 1007.66,-93.72 1013.12,-84.52"/>
<polygon fill="midnightblue" stroke="midnightblue" points="1016.23,-86.14 1018.31,-75.75 1010.21,-82.57 1016.23,-86.14"/>
</g>
<!-- Node16&#45;&gt;Node20 -->
<g id="edge21" class="edge">
<title>Node16&#45;&gt;Node20</title>
<path fill="none" stroke="midnightblue" d="M1036.81,-112.95C1079.74,-105.07 1146.19,-92.22 1212.44,-76.11"/>
<polygon fill="midnightblue" stroke="midnightblue" points="1213.33,-79.49 1222.21,-73.71 1211.66,-72.7 1213.33,-79.49"/>
</g>
<!-- Node21 -->
<g id="node21" class="node">
<title>Node21</title>
<g id="a_node21"><a xlink:title=" ">
<polygon fill="white" stroke="#bfbfbf" points="1066,-56.5 1066,-75.5 1139,-75.5 1139,-56.5 1066,-56.5"/>
<text text-anchor="middle" x="1102.5" y="-63.5" font-family="Helvetica,sans-Serif" font-size="10.00">string_view</text>
</a>
</g>
</g>
<!-- Node16&#45;&gt;Node21 -->
<g id="edge22" class="edge">
<title>Node16&#45;&gt;Node21</title>
<path fill="none" stroke="midnightblue" d="M1009.33,-112.32C1027.22,-103.62 1054.98,-90.12 1075.55,-80.11"/>
<polygon fill="midnightblue" stroke="midnightblue" points="1077.25,-83.18 1084.71,-75.65 1074.19,-76.88 1077.25,-83.18"/>
</g>
<!-- Node22 -->
<g id="node22" class="node">
<title>Node22</title>
<g id="a_node22"><a xlink:title=" ">
<polygon fill="white" stroke="#bfbfbf" points="1157,-56.5 1157,-75.5 1204,-75.5 1204,-56.5 1157,-56.5"/>
<text text-anchor="middle" x="1180.5" y="-63.5" font-family="Helvetica,sans-Serif" font-size="10.00">vector</text>
</a>
</g>
</g>
<!-- Node16&#45;&gt;Node22 -->
<g id="edge24" class="edge">
<title>Node16&#45;&gt;Node22</title>
<path fill="none" stroke="midnightblue" d="M1021.45,-112.44C1055.65,-102.67 1111.45,-86.73 1147.05,-76.56"/>
<polygon fill="midnightblue" stroke="midnightblue" points="1148.31,-79.84 1156.96,-73.73 1146.39,-73.11 1148.31,-79.84"/>
</g>
</g>
</svg>
