<?xml version="1.0" encoding="UTF-8" standalone="no"?>
<!DOCTYPE svg PUBLIC "-//W3C//DTD SVG 1.1//EN"
 "http://www.w3.org/Graphics/SVG/1.1/DTD/svg11.dtd">
<!-- Generated by graphviz version 2.43.0 (0)
 -->
<!-- Title: include/ccf/endpoints/authentication/cert_auth.h Pages: 1 -->
<svg width="1522pt" height="475pt"
 viewBox="0.00 0.00 1521.54 475.00" xmlns="http://www.w3.org/2000/svg" xmlns:xlink="http://www.w3.org/1999/xlink">
<g id="graph0" class="graph" transform="scale(1 1) rotate(0) translate(4 471)">
<title>include/ccf/endpoints/authentication/cert_auth.h</title>
<polygon fill="white" stroke="transparent" points="-4,4 -4,-471 1517.54,-471 1517.54,4 -4,4"/>
<!-- Node1 -->
<g id="node1" class="node">
<title>Node1</title>
<g id="a_node1"><a xlink:title=" ">
<polygon fill="#bfbfbf" stroke="black" points="539.54,-425.5 539.54,-466.5 659.54,-466.5 659.54,-425.5 539.54,-425.5"/>
<text text-anchor="start" x="547.54" y="-454.5" font-family="Helvetica,sans-Serif" font-size="10.00">include/ccf/endpoints</text>
<text text-anchor="start" x="547.54" y="-443.5" font-family="Helvetica,sans-Serif" font-size="10.00">/authentication/cert</text>
<text text-anchor="middle" x="599.54" y="-432.5" font-family="Helvetica,sans-Serif" font-size="10.00">_auth.h</text>
</a>
</g>
</g>
<!-- Node2 -->
<g id="node2" class="node">
<title>Node2</title>
<g id="a_node2"><a xlink:href="authentication__types_8h.html" target="_top" xlink:title=" ">
<polygon fill="white" stroke="black" points="469.04,-358.5 469.04,-388.5 624.04,-388.5 624.04,-358.5 469.04,-358.5"/>
<text text-anchor="start" x="477.04" y="-376.5" font-family="Helvetica,sans-Serif" font-size="10.00">ccf/endpoints/authentication</text>
<text text-anchor="middle" x="546.54" y="-365.5" font-family="Helvetica,sans-Serif" font-size="10.00">/authentication_types.h</text>
</a>
</g>
</g>
<!-- Node1&#45;&gt;Node2 -->
<g id="edge1" class="edge">
<title>Node1&#45;&gt;Node2</title>
<path fill="none" stroke="midnightblue" d="M584.77,-425.36C578.18,-416.59 570.37,-406.21 563.54,-397.12"/>
<polygon fill="midnightblue" stroke="midnightblue" points="566.16,-394.78 557.35,-388.89 560.57,-398.99 566.16,-394.78"/>
</g>
<!-- Node36 -->
<g id="node36" class="node">
<title>Node36</title>
<g id="a_node36"><a xlink:href="entity__id_8h.html" target="_top" xlink:title=" ">
<polygon fill="white" stroke="black" points="1088.54,-302.5 1088.54,-321.5 1174.54,-321.5 1174.54,-302.5 1088.54,-302.5"/>
<text text-anchor="middle" x="1131.54" y="-309.5" font-family="Helvetica,sans-Serif" font-size="10.00">ccf/entity_id.h</text>
</a>
</g>
</g>
<!-- Node1&#45;&gt;Node36 -->
<g id="edge58" class="edge">
<title>Node1&#45;&gt;Node36</title>
<path fill="none" stroke="midnightblue" d="M659.79,-430.05C767.8,-403.25 991.97,-347.63 1087.2,-324"/>
<polygon fill="midnightblue" stroke="midnightblue" points="1088.22,-327.35 1097.08,-321.55 1086.53,-320.56 1088.22,-327.35"/>
</g>
<!-- Node3 -->
<g id="node3" class="node">
<title>Node3</title>
<g id="a_node3"><a xlink:href="tx_8h.html" target="_top" xlink:title=" ">
<polygon fill="white" stroke="black" points="520.04,-302.5 520.04,-321.5 573.04,-321.5 573.04,-302.5 520.04,-302.5"/>
<text text-anchor="middle" x="546.54" y="-309.5" font-family="Helvetica,sans-Serif" font-size="10.00">ccf/tx.h</text>
</a>
</g>
</g>
<!-- Node2&#45;&gt;Node3 -->
<g id="edge2" class="edge">
<title>Node2&#45;&gt;Node3</title>
<path fill="none" stroke="midnightblue" d="M546.54,-358.4C546.54,-350.47 546.54,-340.46 546.54,-331.86"/>
<polygon fill="midnightblue" stroke="midnightblue" points="550.04,-331.66 546.54,-321.66 543.04,-331.66 550.04,-331.66"/>
</g>
<!-- Node15 -->
<g id="node15" class="node">
<title>Node15</title>
<g id="a_node15"><a xlink:title=" ">
<polygon fill="white" stroke="#bfbfbf" points="111.54,-56.5 111.54,-75.5 221.54,-75.5 221.54,-56.5 111.54,-56.5"/>
<text text-anchor="middle" x="166.54" y="-63.5" font-family="Helvetica,sans-Serif" font-size="10.00">nlohmann/json.hpp</text>
</a>
</g>
</g>
<!-- Node2&#45;&gt;Node15 -->
<g id="edge56" class="edge">
<title>Node2&#45;&gt;Node15</title>
<path fill="none" stroke="midnightblue" d="M468.82,-358.88C335.69,-333.7 73.66,-275.38 25.54,-199 -7.71,-146.23 81.8,-100.45 133.23,-79.37"/>
<polygon fill="midnightblue" stroke="midnightblue" points="134.66,-82.57 142.65,-75.61 132.07,-76.06 134.66,-82.57"/>
</g>
<!-- Node22 -->
<g id="node22" class="node">
<title>Node22</title>
<g id="a_node22"><a xlink:title=" ">
<polygon fill="white" stroke="#bfbfbf" points="1396.54,-0.5 1396.54,-19.5 1440.54,-19.5 1440.54,-0.5 1396.54,-0.5"/>
<text text-anchor="middle" x="1418.54" y="-7.5" font-family="Helvetica,sans-Serif" font-size="10.00">string</text>
</a>
</g>
</g>
<!-- Node2&#45;&gt;Node22 -->
<g id="edge57" class="edge">
<title>Node2&#45;&gt;Node22</title>
<path fill="none" stroke="midnightblue" d="M624.44,-370.9C854.28,-365.16 1513.54,-340.91 1513.54,-251.5 1513.54,-251.5 1513.54,-251.5 1513.54,-121 1513.54,-77.74 1470.93,-43.09 1442.78,-24.91"/>
<polygon fill="midnightblue" stroke="midnightblue" points="1444.57,-21.9 1434.22,-19.6 1440.87,-27.85 1444.57,-21.9"/>
</g>
<!-- Node35 -->
<g id="node35" class="node">
<title>Node35</title>
<g id="a_node35"><a xlink:title=" ">
<polygon fill="white" stroke="#bfbfbf" points="174.54,-241 174.54,-260 232.54,-260 232.54,-241 174.54,-241"/>
<text text-anchor="middle" x="203.54" y="-248" font-family="Helvetica,sans-Serif" font-size="10.00">memory</text>
</a>
</g>
</g>
<!-- Node2&#45;&gt;Node35 -->
<g id="edge55" class="edge">
<title>Node2&#45;&gt;Node35</title>
<path fill="none" stroke="midnightblue" d="M504.96,-358.4C446.13,-338.36 335.31,-300.26 241.54,-266 239.43,-265.23 237.27,-264.43 235.09,-263.62"/>
<polygon fill="midnightblue" stroke="midnightblue" points="236.19,-260.29 225.6,-260.04 233.72,-266.84 236.19,-260.29"/>
</g>
<!-- Node4 -->
<g id="node4" class="node">
<title>Node4</title>
<g id="a_node4"><a xlink:href="ccf__assert_8h.html" target="_top" xlink:title=" ">
<polygon fill="white" stroke="black" points="894.54,-241 894.54,-260 986.54,-260 986.54,-241 894.54,-241"/>
<text text-anchor="middle" x="940.54" y="-248" font-family="Helvetica,sans-Serif" font-size="10.00">ccf/ccf_assert.h</text>
</a>
</g>
</g>
<!-- Node3&#45;&gt;Node4 -->
<g id="edge3" class="edge">
<title>Node3&#45;&gt;Node4</title>
<path fill="none" stroke="midnightblue" d="M573.09,-308.62C630.49,-303.23 770.21,-288.76 885.54,-266 890.61,-265 895.92,-263.8 901.14,-262.52"/>
<polygon fill="midnightblue" stroke="midnightblue" points="902.18,-265.87 911.01,-260.01 900.45,-259.09 902.18,-265.87"/>
</g>
<!-- Node11 -->
<g id="node11" class="node">
<title>Node11</title>
<g id="a_node11"><a xlink:title=" ">
<polygon fill="white" stroke="#bfbfbf" points="1333.54,-56.5 1333.54,-75.5 1371.54,-75.5 1371.54,-56.5 1333.54,-56.5"/>
<text text-anchor="middle" x="1352.54" y="-63.5" font-family="Helvetica,sans-Serif" font-size="10.00">map</text>
</a>
</g>
</g>
<!-- Node3&#45;&gt;Node11 -->
<g id="edge51" class="edge">
<title>Node3&#45;&gt;Node11</title>
<path fill="none" stroke="midnightblue" d="M573.15,-311.57C649.32,-312.58 874.24,-311.23 1053.54,-266 1190.82,-231.37 1259.31,-246.53 1342.54,-132 1352.08,-118.87 1354.11,-100.27 1354.02,-86.33"/>
<polygon fill="midnightblue" stroke="midnightblue" points="1357.5,-85.78 1353.57,-75.94 1350.51,-86.08 1357.5,-85.78"/>
</g>
<!-- Node16 -->
<g id="node16" class="node">
<title>Node16</title>
<g id="a_node16"><a xlink:title=" ">
<polygon fill="white" stroke="#bfbfbf" points="1277.54,-112.5 1277.54,-131.5 1333.54,-131.5 1333.54,-112.5 1277.54,-112.5"/>
<text text-anchor="middle" x="1305.54" y="-119.5" font-family="Helvetica,sans-Serif" font-size="10.00">optional</text>
</a>
</g>
</g>
<!-- Node3&#45;&gt;Node16 -->
<g id="edge53" class="edge">
<title>Node3&#45;&gt;Node16</title>
<path fill="none" stroke="midnightblue" d="M573.15,-311.38C643.5,-311.72 839.64,-308.48 995.54,-266 1108.89,-235.11 1232.56,-166.32 1282.61,-136.84"/>
<polygon fill="midnightblue" stroke="midnightblue" points="1284.54,-139.77 1291.35,-131.65 1280.97,-133.75 1284.54,-139.77"/>
</g>
<!-- Node19 -->
<g id="node19" class="node">
<title>Node19</title>
<g id="a_node19"><a xlink:href="sha256__hash_8h.html" target="_top" xlink:title=" ">
<polygon fill="white" stroke="black" points="250.54,-241 250.54,-260 390.54,-260 390.54,-241 250.54,-241"/>
<text text-anchor="middle" x="320.54" y="-248" font-family="Helvetica,sans-Serif" font-size="10.00">ccf/crypto/sha256_hash.h</text>
</a>
</g>
</g>
<!-- Node3&#45;&gt;Node19 -->
<g id="edge20" class="edge">
<title>Node3&#45;&gt;Node19</title>
<path fill="none" stroke="midnightblue" d="M519.72,-303.94C480.94,-293.73 408.82,-274.74 362.83,-262.63"/>
<polygon fill="midnightblue" stroke="midnightblue" points="363.71,-259.25 353.15,-260.09 361.93,-266.02 363.71,-259.25"/>
</g>
<!-- Node3&#45;&gt;Node22 -->
<g id="edge54" class="edge">
<title>Node3&#45;&gt;Node22</title>
<path fill="none" stroke="midnightblue" d="M573.16,-310.03C673.49,-306.2 1028.51,-291.14 1138.54,-266 1218.11,-247.82 1242.88,-246.12 1309.54,-199 1341.7,-176.26 1342.82,-162.66 1367.54,-132 1387.06,-107.78 1397.69,-104.77 1409.54,-76 1415.57,-61.33 1417.71,-43.4 1418.4,-30.08"/>
<polygon fill="midnightblue" stroke="midnightblue" points="1421.9,-29.87 1418.69,-19.77 1414.91,-29.67 1421.9,-29.87"/>
</g>
<!-- Node31 -->
<g id="node31" class="node">
<title>Node31</title>
<g id="a_node31"><a xlink:href="tx__id_8h.html" target="_top" xlink:title=" ">
<polygon fill="white" stroke="black" points="459.04,-241 459.04,-260 526.04,-260 526.04,-241 459.04,-241"/>
<text text-anchor="middle" x="492.54" y="-248" font-family="Helvetica,sans-Serif" font-size="10.00">ccf/tx_id.h</text>
</a>
</g>
</g>
<!-- Node3&#45;&gt;Node31 -->
<g id="edge41" class="edge">
<title>Node3&#45;&gt;Node31</title>
<path fill="none" stroke="midnightblue" d="M538.8,-302.48C530.54,-293.37 517.26,-278.74 507.04,-267.48"/>
<polygon fill="midnightblue" stroke="midnightblue" points="509.57,-265.06 500.26,-260.01 504.39,-269.77 509.57,-265.06"/>
</g>
<!-- Node34 -->
<g id="node34" class="node">
<title>Node34</title>
<g id="a_node34"><a xlink:title=" ">
<polygon fill="white" stroke="#bfbfbf" points="408.54,-241 408.54,-260 440.54,-260 440.54,-241 408.54,-241"/>
<text text-anchor="middle" x="424.54" y="-248" font-family="Helvetica,sans-Serif" font-size="10.00">list</text>
</a>
</g>
</g>
<!-- Node3&#45;&gt;Node34 -->
<g id="edge50" class="edge">
<title>Node3&#45;&gt;Node34</title>
<path fill="none" stroke="midnightblue" d="M527.22,-302.43C507.69,-293.65 476.75,-279.43 450.54,-266 449.86,-265.66 449.18,-265.3 448.5,-264.94"/>
<polygon fill="midnightblue" stroke="midnightblue" points="450.02,-261.79 439.56,-260.12 446.7,-267.95 450.02,-261.79"/>
</g>
<!-- Node3&#45;&gt;Node35 -->
<g id="edge52" class="edge">
<title>Node3&#45;&gt;Node35</title>
<path fill="none" stroke="midnightblue" d="M519.63,-309.01C465.99,-304.62 342.26,-292.31 241.54,-266 238.72,-265.26 235.82,-264.39 232.94,-263.44"/>
<polygon fill="midnightblue" stroke="midnightblue" points="233.98,-260.09 223.38,-260.01 231.62,-266.68 233.98,-260.09"/>
</g>
<!-- Node5 -->
<g id="node5" class="node">
<title>Node5</title>
<g id="a_node5"><a xlink:href="logger_8h.html" target="_top" xlink:title=" ">
<polygon fill="white" stroke="black" points="897.04,-174 897.04,-193 984.04,-193 984.04,-174 897.04,-174"/>
<text text-anchor="middle" x="940.54" y="-181" font-family="Helvetica,sans-Serif" font-size="10.00">ccf/ds/logger.h</text>
</a>
</g>
</g>
<!-- Node4&#45;&gt;Node5 -->
<g id="edge4" class="edge">
<title>Node4&#45;&gt;Node5</title>
<path fill="none" stroke="midnightblue" d="M940.54,-240.73C940.54,-231.18 940.54,-215.62 940.54,-203.28"/>
<polygon fill="midnightblue" stroke="midnightblue" points="944.04,-203.13 940.54,-193.13 937.04,-203.13 944.04,-203.13"/>
</g>
<!-- Node6 -->
<g id="node6" class="node">
<title>Node6</title>
<g id="a_node6"><a xlink:href="enum__formatter_8h.html" target="_top" xlink:title=" ">
<polygon fill="white" stroke="black" points="628.54,-112.5 628.54,-131.5 764.54,-131.5 764.54,-112.5 628.54,-112.5"/>
<text text-anchor="middle" x="696.54" y="-119.5" font-family="Helvetica,sans-Serif" font-size="10.00">ccf/ds/enum_formatter.h</text>
</a>
</g>
</g>
<!-- Node5&#45;&gt;Node6 -->
<g id="edge5" class="edge">
<title>Node5&#45;&gt;Node6</title>
<path fill="none" stroke="midnightblue" d="M910.62,-173.93C903.4,-171.92 895.71,-169.84 888.54,-168 839.98,-155.55 784.16,-142.62 745.27,-133.83"/>
<polygon fill="midnightblue" stroke="midnightblue" points="745.79,-130.36 735.27,-131.58 744.25,-137.19 745.79,-130.36"/>
</g>
<!-- Node7 -->
<g id="node7" class="node">
<title>Node7</title>
<g id="a_node7"><a xlink:title=" ">
<polygon fill="white" stroke="#bfbfbf" points="446.04,-56.5 446.04,-75.5 525.04,-75.5 525.04,-56.5 446.04,-56.5"/>
<text text-anchor="middle" x="485.54" y="-63.5" font-family="Helvetica,sans-Serif" font-size="10.00">fmt/format.h</text>
</a>
</g>
</g>
<!-- Node5&#45;&gt;Node7 -->
<g id="edge14" class="edge">
<title>Node5&#45;&gt;Node7</title>
<path fill="none" stroke="midnightblue" d="M912.64,-173.95C904.89,-171.79 896.43,-169.62 888.54,-168 770.38,-143.74 735.04,-166.76 619.54,-132 613.95,-130.32 549.71,-98.74 512.24,-80.22"/>
<polygon fill="midnightblue" stroke="midnightblue" points="513.42,-76.9 502.9,-75.61 510.31,-83.17 513.42,-76.9"/>
</g>
<!-- Node8 -->
<g id="node8" class="node">
<title>Node8</title>
<g id="a_node8"><a xlink:href="thread__ids_8h.html" target="_top" xlink:title=" ">
<polygon fill="white" stroke="black" points="1075.54,-112.5 1075.54,-131.5 1183.54,-131.5 1183.54,-112.5 1075.54,-112.5"/>
<text text-anchor="middle" x="1129.54" y="-119.5" font-family="Helvetica,sans-Serif" font-size="10.00">ccf/ds/thread_ids.h</text>
</a>
</g>
</g>
<!-- Node5&#45;&gt;Node8 -->
<g id="edge7" class="edge">
<title>Node5&#45;&gt;Node8</title>
<path fill="none" stroke="midnightblue" d="M967.61,-173.98C1000.46,-163.64 1055.97,-146.16 1092.68,-134.6"/>
<polygon fill="midnightblue" stroke="midnightblue" points="1094.02,-137.85 1102.51,-131.51 1091.92,-131.17 1094.02,-137.85"/>
</g>
<!-- Node13 -->
<g id="node13" class="node">
<title>Node13</title>
<g id="a_node13"><a xlink:title=" ">
<polygon fill="white" stroke="#bfbfbf" points="901.04,-112.5 901.04,-131.5 980.04,-131.5 980.04,-112.5 901.04,-112.5"/>
<text text-anchor="middle" x="940.54" y="-119.5" font-family="Helvetica,sans-Serif" font-size="10.00">fmt/chrono.h</text>
</a>
</g>
</g>
<!-- Node5&#45;&gt;Node13 -->
<g id="edge13" class="edge">
<title>Node5&#45;&gt;Node13</title>
<path fill="none" stroke="midnightblue" d="M940.54,-173.98C940.54,-165.58 940.54,-152.48 940.54,-141.66"/>
<polygon fill="midnightblue" stroke="midnightblue" points="944.04,-141.51 940.54,-131.51 937.04,-141.51 944.04,-141.51"/>
</g>
<!-- Node14 -->
<g id="node14" class="node">
<title>Node14</title>
<g id="a_node14"><a xlink:title=" ">
<polygon fill="white" stroke="#bfbfbf" points="997.54,-112.5 997.54,-131.5 1057.54,-131.5 1057.54,-112.5 997.54,-112.5"/>
<text text-anchor="middle" x="1027.54" y="-119.5" font-family="Helvetica,sans-Serif" font-size="10.00">iostream</text>
</a>
</g>
</g>
<!-- Node5&#45;&gt;Node14 -->
<g id="edge15" class="edge">
<title>Node5&#45;&gt;Node14</title>
<path fill="none" stroke="midnightblue" d="M953,-173.98C966.96,-164.43 989.8,-148.81 1006.53,-137.37"/>
<polygon fill="midnightblue" stroke="midnightblue" points="1008.82,-140.04 1015.09,-131.51 1004.86,-134.27 1008.82,-140.04"/>
</g>
<!-- Node5&#45;&gt;Node15 -->
<g id="edge16" class="edge">
<title>Node5&#45;&gt;Node15</title>
<path fill="none" stroke="midnightblue" d="M912.93,-173.93C905.11,-171.74 896.54,-169.57 888.54,-168 751.55,-141.17 708.6,-177.21 576.54,-132 560.31,-126.44 559.76,-117.56 543.54,-112 414.57,-67.84 372.01,-92.36 232.09,-76"/>
<polygon fill="midnightblue" stroke="midnightblue" points="232.19,-72.48 221.84,-74.74 231.34,-79.43 232.19,-72.48"/>
</g>
<!-- Node5&#45;&gt;Node16 -->
<g id="edge17" class="edge">
<title>Node5&#45;&gt;Node16</title>
<path fill="none" stroke="midnightblue" d="M984.29,-176.45C1046.51,-167.67 1164.06,-150.42 1263.54,-132 1264.77,-131.77 1266.03,-131.53 1267.3,-131.29"/>
<polygon fill="midnightblue" stroke="midnightblue" points="1268,-134.72 1277.11,-129.32 1266.62,-127.85 1268,-134.72"/>
</g>
<!-- Node17 -->
<g id="node17" class="node">
<title>Node17</title>
<g id="a_node17"><a xlink:title=" ">
<polygon fill="white" stroke="#bfbfbf" points="478.54,-112.5 478.54,-131.5 534.54,-131.5 534.54,-112.5 478.54,-112.5"/>
<text text-anchor="middle" x="506.54" y="-119.5" font-family="Helvetica,sans-Serif" font-size="10.00">sstream</text>
</a>
</g>
</g>
<!-- Node5&#45;&gt;Node17 -->
<g id="edge18" class="edge">
<title>Node5&#45;&gt;Node17</title>
<path fill="none" stroke="midnightblue" d="M913.21,-173.96C905.31,-171.74 896.64,-169.55 888.54,-168 739.28,-139.49 698.59,-155.95 548.54,-132 547.29,-131.8 546.03,-131.59 544.76,-131.37"/>
<polygon fill="midnightblue" stroke="midnightblue" points="545.4,-127.93 534.93,-129.51 544.1,-134.81 545.4,-127.93"/>
</g>
<!-- Node18 -->
<g id="node18" class="node">
<title>Node18</title>
<g id="a_node18"><a xlink:title=" ">
<polygon fill="white" stroke="#bfbfbf" points="626.04,-0.5 626.04,-19.5 695.04,-19.5 695.04,-0.5 626.04,-0.5"/>
<text text-anchor="middle" x="660.54" y="-7.5" font-family="Helvetica,sans-Serif" font-size="10.00">type_traits</text>
</a>
</g>
</g>
<!-- Node5&#45;&gt;Node18 -->
<g id="edge19" class="edge">
<title>Node5&#45;&gt;Node18</title>
<path fill="none" stroke="midnightblue" d="M967.35,-173.98C974.51,-171.86 982.28,-169.71 989.54,-168 1034.13,-157.48 1163.1,-167.11 1192.54,-132 1215.46,-104.65 1180.04,-70.07 1156.54,-56 1072.62,-5.76 819.72,-32.44 705.05,-19.74"/>
<polygon fill="midnightblue" stroke="midnightblue" points="705.41,-16.26 695.05,-18.48 704.54,-23.2 705.41,-16.26"/>
</g>
<!-- Node6&#45;&gt;Node7 -->
<g id="edge6" class="edge">
<title>Node6&#45;&gt;Node7</title>
<path fill="none" stroke="midnightblue" d="M663.1,-112.44C626.68,-103.12 568.31,-88.18 528.51,-78"/>
<polygon fill="midnightblue" stroke="midnightblue" points="529.37,-74.61 518.81,-75.52 527.63,-81.39 529.37,-74.61"/>
</g>
<!-- Node8&#45;&gt;Node7 -->
<g id="edge8" class="edge">
<title>Node8&#45;&gt;Node7</title>
<path fill="none" stroke="midnightblue" d="M1075.27,-113.02C1072.32,-112.66 1069.39,-112.31 1066.54,-112 1059.95,-111.28 675.02,-81.6 535.41,-70.84"/>
<polygon fill="midnightblue" stroke="midnightblue" points="535.64,-67.35 525.4,-70.07 535.11,-74.33 535.64,-67.35"/>
</g>
<!-- Node9 -->
<g id="node9" class="node">
<title>Node9</title>
<g id="a_node9"><a xlink:title=" ">
<polygon fill="white" stroke="#bfbfbf" points="1061.54,-56.5 1061.54,-75.5 1147.54,-75.5 1147.54,-56.5 1061.54,-56.5"/>
<text text-anchor="middle" x="1104.54" y="-63.5" font-family="Helvetica,sans-Serif" font-size="10.00">fmt/ostream.h</text>
</a>
</g>
</g>
<!-- Node8&#45;&gt;Node9 -->
<g id="edge9" class="edge">
<title>Node8&#45;&gt;Node9</title>
<path fill="none" stroke="midnightblue" d="M1125.41,-112.08C1122.02,-104.77 1117.12,-94.18 1112.92,-85.1"/>
<polygon fill="midnightblue" stroke="midnightblue" points="1115.96,-83.36 1108.59,-75.75 1109.61,-86.3 1115.96,-83.36"/>
</g>
<!-- Node10 -->
<g id="node10" class="node">
<title>Node10</title>
<g id="a_node10"><a xlink:title=" ">
<polygon fill="white" stroke="#bfbfbf" points="933.54,-56.5 933.54,-75.5 977.54,-75.5 977.54,-56.5 933.54,-56.5"/>
<text text-anchor="middle" x="955.54" y="-63.5" font-family="Helvetica,sans-Serif" font-size="10.00">limits</text>
</a>
</g>
</g>
<!-- Node8&#45;&gt;Node10 -->
<g id="edge10" class="edge">
<title>Node8&#45;&gt;Node10</title>
<path fill="none" stroke="midnightblue" d="M1101.96,-112.44C1070.79,-102.77 1020.11,-87.04 987.3,-76.86"/>
<polygon fill="midnightblue" stroke="midnightblue" points="988.32,-73.51 977.73,-73.89 986.25,-80.2 988.32,-73.51"/>
</g>
<!-- Node8&#45;&gt;Node11 -->
<g id="edge11" class="edge">
<title>Node8&#45;&gt;Node11</title>
<path fill="none" stroke="midnightblue" d="M1171.25,-112.44C1208.82,-104.49 1265.72,-91.87 1323.64,-76.08"/>
<polygon fill="midnightblue" stroke="midnightblue" points="1324.61,-79.44 1333.32,-73.41 1322.75,-72.69 1324.61,-79.44"/>
</g>
<!-- Node12 -->
<g id="node12" class="node">
<title>Node12</title>
<g id="a_node12"><a xlink:title=" ">
<polygon fill="white" stroke="#bfbfbf" points="995.54,-56.5 995.54,-75.5 1043.54,-75.5 1043.54,-56.5 995.54,-56.5"/>
<text text-anchor="middle" x="1019.54" y="-63.5" font-family="Helvetica,sans-Serif" font-size="10.00">thread</text>
</a>
</g>
</g>
<!-- Node8&#45;&gt;Node12 -->
<g id="edge12" class="edge">
<title>Node8&#45;&gt;Node12</title>
<path fill="none" stroke="midnightblue" d="M1111.86,-112.32C1094.14,-103.62 1066.63,-90.12 1046.25,-80.11"/>
<polygon fill="midnightblue" stroke="midnightblue" points="1047.68,-76.92 1037.17,-75.65 1044.6,-83.2 1047.68,-76.92"/>
</g>
<!-- Node19&#45;&gt;Node7 -->
<g id="edge40" class="edge">
<title>Node19&#45;&gt;Node7</title>
<path fill="none" stroke="midnightblue" d="M292.48,-240.89C272.98,-233.27 248.43,-220.03 236.54,-199 229.75,-187.01 228.32,-179.06 236.54,-168 269.47,-123.63 304.19,-152.43 355.54,-132 393.58,-116.86 435.63,-94.8 461.32,-80.67"/>
<polygon fill="midnightblue" stroke="midnightblue" points="463.27,-83.59 470.32,-75.68 459.88,-77.47 463.27,-83.59"/>
</g>
<!-- Node20 -->
<g id="node20" class="node">
<title>Node20</title>
<g id="a_node20"><a xlink:href="json_8h.html" target="_top" xlink:title=" ">
<polygon fill="white" stroke="black" points="454.04,-174 454.04,-193 531.04,-193 531.04,-174 454.04,-174"/>
<text text-anchor="middle" x="492.54" y="-181" font-family="Helvetica,sans-Serif" font-size="10.00">ccf/ds/json.h</text>
</a>
</g>
</g>
<!-- Node19&#45;&gt;Node20 -->
<g id="edge21" class="edge">
<title>Node19&#45;&gt;Node20</title>
<path fill="none" stroke="midnightblue" d="M343.38,-240.87C373.4,-229.52 426.32,-209.52 460.38,-196.65"/>
<polygon fill="midnightblue" stroke="midnightblue" points="461.76,-199.87 469.87,-193.06 459.28,-193.32 461.76,-199.87"/>
</g>
<!-- Node27 -->
<g id="node27" class="node">
<title>Node27</title>
<g id="a_node27"><a xlink:title=" ">
<polygon fill="white" stroke="#bfbfbf" points="0.54,-0.5 0.54,-19.5 42.54,-19.5 42.54,-0.5 0.54,-0.5"/>
<text text-anchor="middle" x="21.54" y="-7.5" font-family="Helvetica,sans-Serif" font-size="10.00">array</text>
</a>
</g>
</g>
<!-- Node19&#45;&gt;Node27 -->
<g id="edge38" class="edge">
<title>Node19&#45;&gt;Node27</title>
<path fill="none" stroke="midnightblue" d="M274.61,-240.94C263.77,-238.95 252.25,-236.88 241.54,-235 193.6,-226.61 57.38,-235.79 25.54,-199 -16.27,-150.7 3.5,-66.39 15.13,-29.35"/>
<polygon fill="midnightblue" stroke="midnightblue" points="18.46,-30.43 18.28,-19.84 11.82,-28.24 18.46,-30.43"/>
</g>
<!-- Node30 -->
<g id="node30" class="node">
<title>Node30</title>
<g id="a_node30"><a xlink:title=" ">
<polygon fill="white" stroke="#bfbfbf" points="34.54,-174 34.54,-193 74.54,-193 74.54,-174 34.54,-174"/>
<text text-anchor="middle" x="54.54" y="-181" font-family="Helvetica,sans-Serif" font-size="10.00">span</text>
</a>
</g>
</g>
<!-- Node19&#45;&gt;Node30 -->
<g id="edge39" class="edge">
<title>Node19&#45;&gt;Node30</title>
<path fill="none" stroke="midnightblue" d="M276.36,-240.92C219.24,-229.65 123,-209.99 88.54,-199 86.61,-198.39 84.64,-197.7 82.67,-196.98"/>
<polygon fill="midnightblue" stroke="midnightblue" points="83.59,-193.57 73,-193.12 80.99,-200.08 83.59,-193.57"/>
</g>
<!-- Node20&#45;&gt;Node7 -->
<g id="edge36" class="edge">
<title>Node20&#45;&gt;Node7</title>
<path fill="none" stroke="midnightblue" d="M487.26,-173.96C481.59,-164.22 472.93,-147.63 469.54,-132 466.07,-116.05 471.23,-98.03 476.58,-85.02"/>
<polygon fill="midnightblue" stroke="midnightblue" points="479.83,-86.35 480.76,-75.8 473.45,-83.46 479.83,-86.35"/>
</g>
<!-- Node20&#45;&gt;Node17 -->
<g id="edge37" class="edge">
<title>Node20&#45;&gt;Node17</title>
<path fill="none" stroke="midnightblue" d="M494.54,-173.98C496.54,-165.49 499.66,-152.2 502.22,-141.32"/>
<polygon fill="midnightblue" stroke="midnightblue" points="505.65,-142.04 504.53,-131.51 498.84,-140.44 505.65,-142.04"/>
</g>
<!-- Node21 -->
<g id="node21" class="node">
<title>Node21</title>
<g id="a_node21"><a xlink:href="include_2ccf_2crypto_2base64_8h.html" target="_top" xlink:title=" ">
<polygon fill="white" stroke="black" points="1203.54,-56.5 1203.54,-75.5 1315.54,-75.5 1315.54,-56.5 1203.54,-56.5"/>
<text text-anchor="middle" x="1259.54" y="-63.5" font-family="Helvetica,sans-Serif" font-size="10.00">ccf/crypto/base64.h</text>
</a>
</g>
</g>
<!-- Node20&#45;&gt;Node21 -->
<g id="edge22" class="edge">
<title>Node20&#45;&gt;Node21</title>
<path fill="none" stroke="midnightblue" d="M531.24,-180.44C673.7,-172.77 1162.16,-145.6 1192.54,-132 1215.78,-121.59 1235.73,-99.46 1247.68,-83.93"/>
<polygon fill="midnightblue" stroke="midnightblue" points="1250.64,-85.81 1253.75,-75.69 1245,-81.66 1250.64,-85.81"/>
</g>
<!-- Node24 -->
<g id="node24" class="node">
<title>Node24</title>
<g id="a_node24"><a xlink:href="include_2ccf_2ds_2json__schema_8h.html" target="_top" xlink:title=" ">
<polygon fill="white" stroke="black" points="225.04,-112.5 225.04,-131.5 346.04,-131.5 346.04,-112.5 225.04,-112.5"/>
<text text-anchor="middle" x="285.54" y="-119.5" font-family="Helvetica,sans-Serif" font-size="10.00">ccf/ds/json_schema.h</text>
</a>
</g>
</g>
<!-- Node20&#45;&gt;Node24 -->
<g id="edge25" class="edge">
<title>Node20&#45;&gt;Node24</title>
<path fill="none" stroke="midnightblue" d="M462.88,-173.98C426.6,-163.55 365.07,-145.86 324.87,-134.31"/>
<polygon fill="midnightblue" stroke="midnightblue" points="325.72,-130.91 315.14,-131.51 323.78,-137.64 325.72,-130.91"/>
</g>
<!-- Node21&#45;&gt;Node22 -->
<g id="edge23" class="edge">
<title>Node21&#45;&gt;Node22</title>
<path fill="none" stroke="midnightblue" d="M1284.73,-56.44C1312.42,-47.04 1356.95,-31.91 1386.96,-21.72"/>
<polygon fill="midnightblue" stroke="midnightblue" points="1388.19,-25 1396.53,-18.47 1385.94,-18.37 1388.19,-25"/>
</g>
<!-- Node23 -->
<g id="node23" class="node">
<title>Node23</title>
<g id="a_node23"><a xlink:title=" ">
<polygon fill="white" stroke="#bfbfbf" points="713.04,-0.5 713.04,-19.5 760.04,-19.5 760.04,-0.5 713.04,-0.5"/>
<text text-anchor="middle" x="736.54" y="-7.5" font-family="Helvetica,sans-Serif" font-size="10.00">vector</text>
</a>
</g>
</g>
<!-- Node21&#45;&gt;Node23 -->
<g id="edge24" class="edge">
<title>Node21&#45;&gt;Node23</title>
<path fill="none" stroke="midnightblue" d="M1203.39,-57.64C1198.7,-57.07 1194.04,-56.51 1189.54,-56 1033.11,-38.18 845.84,-20.84 770.44,-14.03"/>
<polygon fill="midnightblue" stroke="midnightblue" points="770.41,-10.51 760.14,-13.1 769.79,-17.49 770.41,-10.51"/>
</g>
<!-- Node24&#45;&gt;Node7 -->
<g id="edge34" class="edge">
<title>Node24&#45;&gt;Node7</title>
<path fill="none" stroke="midnightblue" d="M317.23,-112.44C351.6,-103.16 406.61,-88.31 444.32,-78.13"/>
<polygon fill="midnightblue" stroke="midnightblue" points="445.25,-81.5 453.99,-75.52 443.43,-74.74 445.25,-81.5"/>
</g>
<!-- Node24&#45;&gt;Node15 -->
<g id="edge35" class="edge">
<title>Node24&#45;&gt;Node15</title>
<path fill="none" stroke="midnightblue" d="M266.68,-112.44C247.27,-103.64 216.81,-89.81 194.57,-79.72"/>
<polygon fill="midnightblue" stroke="midnightblue" points="195.86,-76.46 185.3,-75.52 192.96,-82.84 195.86,-76.46"/>
</g>
<!-- Node25 -->
<g id="node25" class="node">
<title>Node25</title>
<g id="a_node25"><a xlink:href="nonstd_8h.html" target="_top" xlink:title=" ">
<polygon fill="white" stroke="black" points="240.54,-56.5 240.54,-75.5 330.54,-75.5 330.54,-56.5 240.54,-56.5"/>
<text text-anchor="middle" x="285.54" y="-63.5" font-family="Helvetica,sans-Serif" font-size="10.00">ccf/ds/nonstd.h</text>
</a>
</g>
</g>
<!-- Node24&#45;&gt;Node25 -->
<g id="edge26" class="edge">
<title>Node24&#45;&gt;Node25</title>
<path fill="none" stroke="midnightblue" d="M285.54,-112.08C285.54,-105.01 285.54,-94.86 285.54,-85.99"/>
<polygon fill="midnightblue" stroke="midnightblue" points="289.04,-85.75 285.54,-75.75 282.04,-85.75 289.04,-85.75"/>
</g>
<!-- Node25&#45;&gt;Node18 -->
<g id="edge32" class="edge">
<title>Node25&#45;&gt;Node18</title>
<path fill="none" stroke="midnightblue" d="M330.8,-59.91C392.91,-52.69 508.25,-38.46 615.79,-20.21"/>
<polygon fill="midnightblue" stroke="midnightblue" points="616.58,-23.62 625.84,-18.48 615.4,-16.72 616.58,-23.62"/>
</g>
<!-- Node25&#45;&gt;Node22 -->
<g id="edge30" class="edge">
<title>Node25&#45;&gt;Node22</title>
<path fill="none" stroke="midnightblue" d="M330.75,-62.16C360.98,-60.31 401.63,-57.89 437.54,-56 810.22,-36.42 1262.8,-17.42 1386.17,-12.33"/>
<polygon fill="midnightblue" stroke="midnightblue" points="1386.58,-15.81 1396.43,-11.91 1386.29,-8.82 1386.58,-15.81"/>
</g>
<!-- Node25&#45;&gt;Node23 -->
<g id="edge33" class="edge">
<title>Node25&#45;&gt;Node23</title>
<path fill="none" stroke="midnightblue" d="M330.55,-62.64C405.88,-58.15 562.29,-46.55 702.79,-20.06"/>
<polygon fill="midnightblue" stroke="midnightblue" points="703.71,-23.45 712.88,-18.13 702.4,-16.57 703.71,-23.45"/>
</g>
<!-- Node26 -->
<g id="node26" class="node">
<title>Node26</title>
<g id="a_node26"><a xlink:title=" ">
<polygon fill="white" stroke="#bfbfbf" points="195.54,-0.5 195.54,-19.5 259.54,-19.5 259.54,-0.5 195.54,-0.5"/>
<text text-anchor="middle" x="227.54" y="-7.5" font-family="Helvetica,sans-Serif" font-size="10.00">algorithm</text>
</a>
</g>
</g>
<!-- Node25&#45;&gt;Node26 -->
<g id="edge27" class="edge">
<title>Node25&#45;&gt;Node26</title>
<path fill="none" stroke="midnightblue" d="M276.22,-56.32C267.64,-48.34 254.72,-36.31 244.35,-26.65"/>
<polygon fill="midnightblue" stroke="midnightblue" points="246.73,-24.09 237.02,-19.83 241.96,-29.21 246.73,-24.09"/>
</g>
<!-- Node25&#45;&gt;Node27 -->
<g id="edge28" class="edge">
<title>Node25&#45;&gt;Node27</title>
<path fill="none" stroke="midnightblue" d="M243.7,-56.44C190.58,-45.58 100.14,-27.08 52.69,-17.37"/>
<polygon fill="midnightblue" stroke="midnightblue" points="53.2,-13.9 42.7,-15.33 51.8,-20.76 53.2,-13.9"/>
</g>
<!-- Node28 -->
<g id="node28" class="node">
<title>Node28</title>
<g id="a_node28"><a xlink:title=" ">
<polygon fill="white" stroke="#bfbfbf" points="346.04,-0.5 346.04,-19.5 395.04,-19.5 395.04,-0.5 346.04,-0.5"/>
<text text-anchor="middle" x="370.54" y="-7.5" font-family="Helvetica,sans-Serif" font-size="10.00">cctype</text>
</a>
</g>
</g>
<!-- Node25&#45;&gt;Node28 -->
<g id="edge29" class="edge">
<title>Node25&#45;&gt;Node28</title>
<path fill="none" stroke="midnightblue" d="M299.19,-56.32C312.45,-47.9 332.8,-34.97 348.38,-25.07"/>
<polygon fill="midnightblue" stroke="midnightblue" points="350.35,-27.97 356.91,-19.65 346.6,-22.06 350.35,-27.97"/>
</g>
<!-- Node29 -->
<g id="node29" class="node">
<title>Node29</title>
<g id="a_node29"><a xlink:title=" ">
<polygon fill="white" stroke="#bfbfbf" points="90.04,-0.5 90.04,-19.5 163.04,-19.5 163.04,-0.5 90.04,-0.5"/>
<text text-anchor="middle" x="126.54" y="-7.5" font-family="Helvetica,sans-Serif" font-size="10.00">string_view</text>
</a>
</g>
</g>
<!-- Node25&#45;&gt;Node29 -->
<g id="edge31" class="edge">
<title>Node25&#45;&gt;Node29</title>
<path fill="none" stroke="midnightblue" d="M260.34,-56.44C233.59,-47.36 191.13,-32.94 161.23,-22.78"/>
<polygon fill="midnightblue" stroke="midnightblue" points="162.21,-19.42 151.61,-19.52 159.96,-26.05 162.21,-19.42"/>
</g>
<!-- Node31&#45;&gt;Node7 -->
<g id="edge45" class="edge">
<title>Node31&#45;&gt;Node7</title>
<path fill="none" stroke="midnightblue" d="M480.19,-240.71C468.74,-231.72 452.46,-216.61 445.54,-199 429.69,-158.71 456.18,-109.49 473.11,-84.05"/>
<polygon fill="midnightblue" stroke="midnightblue" points="475.99,-86.03 478.81,-75.81 470.24,-82.04 475.99,-86.03"/>
</g>
<!-- Node31&#45;&gt;Node15 -->
<g id="edge46" class="edge">
<title>Node31&#45;&gt;Node15</title>
<path fill="none" stroke="midnightblue" d="M469.53,-241C463.12,-238.83 456.11,-236.65 449.54,-235 356.42,-211.59 319.38,-247.53 236.54,-199 203.54,-179.67 199.51,-166.27 182.54,-132 175.28,-117.35 171.17,-99.19 168.94,-85.78"/>
<polygon fill="midnightblue" stroke="midnightblue" points="172.39,-85.21 167.47,-75.83 165.46,-86.23 172.39,-85.21"/>
</g>
<!-- Node31&#45;&gt;Node16 -->
<g id="edge47" class="edge">
<title>Node31&#45;&gt;Node16</title>
<path fill="none" stroke="midnightblue" d="M526.17,-247.72C607.13,-243.09 819.05,-228.9 993.54,-199 1093.58,-181.86 1209.13,-150.66 1267.53,-134.07"/>
<polygon fill="midnightblue" stroke="midnightblue" points="1268.76,-137.35 1277.42,-131.24 1266.84,-130.62 1268.76,-137.35"/>
</g>
<!-- Node31&#45;&gt;Node20 -->
<g id="edge42" class="edge">
<title>Node31&#45;&gt;Node20</title>
<path fill="none" stroke="midnightblue" d="M492.54,-240.73C492.54,-231.18 492.54,-215.62 492.54,-203.28"/>
<polygon fill="midnightblue" stroke="midnightblue" points="496.04,-203.13 492.54,-193.13 489.04,-203.13 496.04,-203.13"/>
</g>
<!-- Node31&#45;&gt;Node22 -->
<g id="edge48" class="edge">
<title>Node31&#45;&gt;Node22</title>
<path fill="none" stroke="midnightblue" d="M526.29,-248.46C616.18,-245.28 868.63,-233.69 1075.54,-199 1196.2,-178.77 1242.27,-202.11 1342.54,-132 1379.34,-106.26 1402.1,-56.41 1412.27,-29.42"/>
<polygon fill="midnightblue" stroke="midnightblue" points="1415.68,-30.29 1415.76,-19.69 1409.09,-27.92 1415.68,-30.29"/>
</g>
<!-- Node31&#45;&gt;Node29 -->
<g id="edge49" class="edge">
<title>Node31&#45;&gt;Node29</title>
<path fill="none" stroke="midnightblue" d="M470.02,-240.94C463.49,-238.72 456.3,-236.53 449.54,-235 384.26,-220.23 206.24,-236.09 150.54,-199 100.69,-165.82 104.33,-135.23 95.54,-76 94.23,-67.21 92.9,-64.49 95.54,-56 98.76,-45.62 105.31,-35.52 111.56,-27.53"/>
<polygon fill="midnightblue" stroke="midnightblue" points="114.32,-29.68 118.05,-19.77 108.95,-25.19 114.32,-29.68"/>
</g>
<!-- Node32 -->
<g id="node32" class="node">
<title>Node32</title>
<g id="a_node32"><a xlink:title=" ">
<polygon fill="white" stroke="#bfbfbf" points="245.04,-174 245.04,-193 306.04,-193 306.04,-174 245.04,-174"/>
<text text-anchor="middle" x="275.54" y="-181" font-family="Helvetica,sans-Serif" font-size="10.00">charconv</text>
</a>
</g>
</g>
<!-- Node31&#45;&gt;Node32 -->
<g id="edge43" class="edge">
<title>Node31&#45;&gt;Node32</title>
<path fill="none" stroke="midnightblue" d="M468.05,-240.99C462.02,-238.97 455.56,-236.85 449.54,-235 392.65,-217.48 377.54,-216.13 320.54,-199 317.57,-198.11 314.49,-197.16 311.41,-196.2"/>
<polygon fill="midnightblue" stroke="midnightblue" points="312.25,-192.79 301.66,-193.11 310.13,-199.47 312.25,-192.79"/>
</g>
<!-- Node33 -->
<g id="node33" class="node">
<title>Node33</title>
<g id="a_node33"><a xlink:title=" ">
<polygon fill="white" stroke="#bfbfbf" points="277.54,-0.5 277.54,-19.5 327.54,-19.5 327.54,-0.5 277.54,-0.5"/>
<text text-anchor="middle" x="302.54" y="-7.5" font-family="Helvetica,sans-Serif" font-size="10.00">cstdint</text>
</a>
</g>
</g>
<!-- Node31&#45;&gt;Node33 -->
<g id="edge44" class="edge">
<title>Node31&#45;&gt;Node33</title>
<path fill="none" stroke="midnightblue" d="M469.55,-240.88C463.14,-238.72 456.13,-236.57 449.54,-235 339.47,-208.81 295.29,-255.95 197.54,-199 137.85,-164.23 124.84,-141.37 102.54,-76 99.67,-67.59 96.96,-62.92 102.54,-56 147.98,0.36 191.43,-34.51 267.39,-19.96"/>
<polygon fill="midnightblue" stroke="midnightblue" points="268.28,-23.35 277.32,-17.81 266.8,-16.51 268.28,-23.35"/>
</g>
<!-- Node36&#45;&gt;Node20 -->
<g id="edge59" class="edge">
<title>Node36&#45;&gt;Node20</title>
<path fill="none" stroke="midnightblue" d="M1119.93,-302.3C1097.34,-285.91 1045.33,-250.67 995.54,-235 911.59,-208.59 650.52,-192.57 541.32,-186.87"/>
<polygon fill="midnightblue" stroke="midnightblue" points="541.41,-183.37 531.24,-186.35 541.05,-190.36 541.41,-183.37"/>
</g>
<!-- Node36&#45;&gt;Node22 -->
<g id="edge70" class="edge">
<title>Node36&#45;&gt;Node22</title>
<path fill="none" stroke="midnightblue" d="M1174.76,-304.45C1267.15,-289.24 1475.54,-247.89 1475.54,-184.5 1475.54,-184.5 1475.54,-184.5 1475.54,-121 1475.54,-84.3 1450.21,-47.66 1433.33,-27.3"/>
<polygon fill="midnightblue" stroke="midnightblue" points="1435.88,-24.9 1426.7,-19.62 1430.58,-29.48 1435.88,-24.9"/>
</g>
<!-- Node37 -->
<g id="node37" class="node">
<title>Node37</title>
<g id="a_node37"><a xlink:href="blit__serialiser_8h.html" target="_top" xlink:title=" ">
<polygon fill="white" stroke="black" points="777.04,-235.5 777.04,-265.5 876.04,-265.5 876.04,-235.5 777.04,-235.5"/>
<text text-anchor="start" x="785.04" y="-253.5" font-family="Helvetica,sans-Serif" font-size="10.00">ccf/kv/serialisers</text>
<text text-anchor="middle" x="826.54" y="-242.5" font-family="Helvetica,sans-Serif" font-size="10.00">/blit_serialiser.h</text>
</a>
</g>
</g>
<!-- Node36&#45;&gt;Node37 -->
<g id="edge60" class="edge">
<title>Node36&#45;&gt;Node37</title>
<path fill="none" stroke="midnightblue" d="M1088.28,-303.9C1041.04,-295.96 962.96,-282.31 885.93,-266.01"/>
<polygon fill="midnightblue" stroke="midnightblue" points="886.57,-262.56 876.06,-263.9 885.11,-269.41 886.57,-262.56"/>
</g>
<!-- Node37&#45;&gt;Node25 -->
<g id="edge61" class="edge">
<title>Node37&#45;&gt;Node25</title>
<path fill="none" stroke="midnightblue" d="M776.81,-245.35C703.67,-238.71 563.05,-223.83 445.54,-199 432.57,-196.26 224.48,-142.61 216.54,-132 201.31,-111.68 229.5,-92.24 254.3,-80.01"/>
<polygon fill="midnightblue" stroke="midnightblue" points="255.97,-83.09 263.55,-75.68 253.01,-76.75 255.97,-83.09"/>
</g>
<!-- Node38 -->
<g id="node38" class="node">
<title>Node38</title>
<g id="a_node38"><a xlink:href="serialised__entry_8h.html" target="_top" xlink:title=" ">
<polygon fill="white" stroke="black" points="774.04,-168.5 774.04,-198.5 879.04,-198.5 879.04,-168.5 774.04,-168.5"/>
<text text-anchor="start" x="782.04" y="-186.5" font-family="Helvetica,sans-Serif" font-size="10.00">ccf/kv/serialisers</text>
<text text-anchor="middle" x="826.54" y="-175.5" font-family="Helvetica,sans-Serif" font-size="10.00">/serialised_entry.h</text>
</a>
</g>
</g>
<!-- Node37&#45;&gt;Node38 -->
<g id="edge62" class="edge">
<title>Node37&#45;&gt;Node38</title>
<path fill="none" stroke="midnightblue" d="M826.54,-235.4C826.54,-227.64 826.54,-217.81 826.54,-208.86"/>
<polygon fill="midnightblue" stroke="midnightblue" points="830.04,-208.58 826.54,-198.58 823.04,-208.58 830.04,-208.58"/>
</g>
<!-- Node39 -->
<g id="node39" class="node">
<title>Node39</title>
<g id="a_node39"><a xlink:href="byte__vector_8h.html" target="_top" xlink:title=" ">
<polygon fill="white" stroke="black" points="782.54,-112.5 782.54,-131.5 882.54,-131.5 882.54,-112.5 782.54,-112.5"/>
<text text-anchor="middle" x="832.54" y="-119.5" font-family="Helvetica,sans-Serif" font-size="10.00">ccf/byte_vector.h</text>
</a>
</g>
</g>
<!-- Node38&#45;&gt;Node39 -->
<g id="edge63" class="edge">
<title>Node38&#45;&gt;Node39</title>
<path fill="none" stroke="midnightblue" d="M827.96,-168.4C828.76,-160.47 829.77,-150.46 830.63,-141.86"/>
<polygon fill="midnightblue" stroke="midnightblue" points="834.14,-141.96 831.66,-131.66 827.18,-141.26 834.14,-141.96"/>
</g>
<!-- Node39&#45;&gt;Node7 -->
<g id="edge68" class="edge">
<title>Node39&#45;&gt;Node7</title>
<path fill="none" stroke="midnightblue" d="M782.45,-113.21C716.44,-102.93 601.03,-84.97 535.22,-74.73"/>
<polygon fill="midnightblue" stroke="midnightblue" points="535.52,-71.24 525.1,-73.16 534.44,-78.15 535.52,-71.24"/>
</g>
<!-- Node40 -->
<g id="node40" class="node">
<title>Node40</title>
<g id="a_node40"><a xlink:href="siphash_8h.html" target="_top" xlink:title=" ">
<polygon fill="white" stroke="black" points="611.04,-56.5 611.04,-75.5 706.04,-75.5 706.04,-56.5 611.04,-56.5"/>
<text text-anchor="middle" x="658.54" y="-63.5" font-family="Helvetica,sans-Serif" font-size="10.00">ccf/ds/siphash.h</text>
</a>
</g>
</g>
<!-- Node39&#45;&gt;Node40 -->
<g id="edge64" class="edge">
<title>Node39&#45;&gt;Node40</title>
<path fill="none" stroke="midnightblue" d="M804.96,-112.44C775.44,-103.28 728.42,-88.69 695.65,-78.52"/>
<polygon fill="midnightblue" stroke="midnightblue" points="696.57,-75.14 685.98,-75.52 694.49,-81.82 696.57,-75.14"/>
</g>
<!-- Node42 -->
<g id="node42" class="node">
<title>Node42</title>
<g id="a_node42"><a xlink:title=" ">
<polygon fill="white" stroke="#bfbfbf" points="758.04,-56.5 758.04,-75.5 907.04,-75.5 907.04,-56.5 758.04,-56.5"/>
<text text-anchor="middle" x="832.54" y="-63.5" font-family="Helvetica,sans-Serif" font-size="10.00">small_vector/SmallVector.h</text>
</a>
</g>
</g>
<!-- Node39&#45;&gt;Node42 -->
<g id="edge69" class="edge">
<title>Node39&#45;&gt;Node42</title>
<path fill="none" stroke="midnightblue" d="M832.54,-112.08C832.54,-105.01 832.54,-94.86 832.54,-85.99"/>
<polygon fill="midnightblue" stroke="midnightblue" points="836.04,-85.75 832.54,-75.75 829.04,-85.75 836.04,-85.75"/>
</g>
<!-- Node40&#45;&gt;Node23 -->
<g id="edge67" class="edge">
<title>Node40&#45;&gt;Node23</title>
<path fill="none" stroke="midnightblue" d="M671.07,-56.32C683.12,-47.98 701.56,-35.21 715.8,-25.35"/>
<polygon fill="midnightblue" stroke="midnightblue" points="717.8,-28.22 724.03,-19.65 713.82,-22.47 717.8,-28.22"/>
</g>
<!-- Node40&#45;&gt;Node33 -->
<g id="edge66" class="edge">
<title>Node40&#45;&gt;Node33</title>
<path fill="none" stroke="midnightblue" d="M610.94,-60.02C548.02,-53.05 433.86,-39.07 337.54,-20 337.44,-19.98 337.34,-19.96 337.24,-19.94"/>
<polygon fill="midnightblue" stroke="midnightblue" points="338.21,-16.57 327.69,-17.83 336.7,-23.41 338.21,-16.57"/>
</g>
<!-- Node41 -->
<g id="node41" class="node">
<title>Node41</title>
<g id="a_node41"><a xlink:title=" ">
<polygon fill="white" stroke="#bfbfbf" points="555.04,-0.5 555.04,-19.5 608.04,-19.5 608.04,-0.5 555.04,-0.5"/>
<text text-anchor="middle" x="581.54" y="-7.5" font-family="Helvetica,sans-Serif" font-size="10.00">cstddef</text>
</a>
</g>
</g>
<!-- Node40&#45;&gt;Node41 -->
<g id="edge65" class="edge">
<title>Node40&#45;&gt;Node41</title>
<path fill="none" stroke="midnightblue" d="M646.16,-56.32C634.38,-48.06 616.4,-35.45 602.4,-25.63"/>
<polygon fill="midnightblue" stroke="midnightblue" points="604.07,-22.53 593.88,-19.65 600.05,-28.26 604.07,-22.53"/>
</g>
</g>
</svg>
