<?xml version="1.0" encoding="UTF-8" standalone="no"?>
<!DOCTYPE svg PUBLIC "-//W3C//DTD SVG 1.1//EN"
 "http://www.w3.org/Graphics/SVG/1.1/DTD/svg11.dtd">
<!-- Generated by graphviz version 2.43.0 (0)
 -->
<!-- Title: http2::ServerSession Pages: 1 -->
<svg width="1412pt" height="152pt"
 viewBox="0.00 0.00 1412.00 152.00" xmlns="http://www.w3.org/2000/svg" xmlns:xlink="http://www.w3.org/1999/xlink">
<g id="graph0" class="graph" transform="scale(1 1) rotate(0) translate(4 148)">
<title>http2::ServerSession</title>
<polygon fill="white" stroke="transparent" points="-4,4 -4,-148 1408,-148 1408,4 -4,4"/>
<!-- Node1 -->
<g id="node1" class="node">
<title>Node1</title>
<g id="a_node1"><a xlink:title=" ">
<polygon fill="#bfbfbf" stroke="black" points="1287,-63.5 1287,-82.5 1404,-82.5 1404,-63.5 1287,-63.5"/>
<text text-anchor="middle" x="1345.5" y="-70.5" font-family="Helvetica,sans-Serif" font-size="10.00">http2::ServerSession</text>
</a>
</g>
</g>
<!-- Node2 -->
<g id="node2" class="node">
<title>Node2</title>
<g id="a_node2"><a xlink:href="classhttp2_1_1Session.html" target="_top" xlink:title=" ">
<polygon fill="white" stroke="black" points="1164,-63.5 1164,-82.5 1250,-82.5 1250,-63.5 1164,-63.5"/>
<text text-anchor="middle" x="1207" y="-70.5" font-family="Helvetica,sans-Serif" font-size="10.00">http2::Session</text>
</a>
</g>
</g>
<!-- Node2&#45;&gt;Node1 -->
<g id="edge1" class="edge">
<title>Node2&#45;&gt;Node1</title>
<path fill="none" stroke="midnightblue" d="M1260.1,-73C1268.81,-73 1277.91,-73 1286.76,-73"/>
<polygon fill="midnightblue" stroke="midnightblue" points="1260.07,-69.5 1250.07,-73 1260.07,-76.5 1260.07,-69.5"/>
</g>
<!-- Node3 -->
<g id="node3" class="node">
<title>Node3</title>
<g id="a_node3"><a xlink:href="classhttp2_1_1AbstractSession.html" target="_top" xlink:title=" ">
<polygon fill="white" stroke="black" points="939.5,-107.5 939.5,-126.5 1065.5,-126.5 1065.5,-107.5 939.5,-107.5"/>
<text text-anchor="middle" x="1002.5" y="-114.5" font-family="Helvetica,sans-Serif" font-size="10.00">http2::AbstractSession</text>
</a>
</g>
</g>
<!-- Node3&#45;&gt;Node2 -->
<g id="edge2" class="edge">
<title>Node3&#45;&gt;Node2</title>
<path fill="none" stroke="midnightblue" d="M1063.01,-105.5C1088.6,-100.4 1118.83,-94.16 1146,-88 1153.43,-86.31 1161.36,-84.41 1168.93,-82.54"/>
<polygon fill="midnightblue" stroke="midnightblue" points="1062.2,-102.09 1053.08,-107.47 1063.57,-108.96 1062.2,-102.09"/>
</g>
<!-- Node4 -->
<g id="node4" class="node">
<title>Node4</title>
<g id="a_node4"><a xlink:title=" ">
<polygon fill="white" stroke="black" points="923,-58 923,-88 1082,-88 1082,-58 923,-58"/>
<text text-anchor="start" x="931" y="-76" font-family="Helvetica,sans-Serif" font-size="10.00">std::list&lt; std::shared</text>
<text text-anchor="middle" x="1002.5" y="-65" font-family="Helvetica,sans-Serif" font-size="10.00">_ptr&lt; http2::StreamData &gt; &gt;</text>
</a>
</g>
</g>
<!-- Node4&#45;&gt;Node2 -->
<g id="edge3" class="edge">
<title>Node4&#45;&gt;Node2</title>
<path fill="none" stroke="#9a32cd" stroke-dasharray="5,2" d="M1092.31,-73C1117.23,-73 1143.18,-73 1163.98,-73"/>
<polygon fill="#9a32cd" stroke="#9a32cd" points="1092.08,-69.5 1082.08,-73 1092.08,-76.5 1092.08,-69.5"/>
<text text-anchor="middle" x="1123" y="-76" font-family="Helvetica,sans-Serif" font-size="10.00"> streams</text>
</g>
<!-- Node5 -->
<g id="node5" class="node">
<title>Node5</title>
<g id="a_node5"><a xlink:title=" ">
<polygon fill="white" stroke="black" points="708,-60 708,-90 834,-90 834,-60 708,-60"/>
<text text-anchor="start" x="716" y="-78" font-family="Helvetica,sans-Serif" font-size="10.00">std::shared_ptr&lt; http2</text>
<text text-anchor="middle" x="771" y="-67" font-family="Helvetica,sans-Serif" font-size="10.00">::StreamData &gt;</text>
</a>
</g>
</g>
<!-- Node5&#45;&gt;Node4 -->
<g id="edge4" class="edge">
<title>Node5&#45;&gt;Node4</title>
<path fill="none" stroke="#9a32cd" stroke-dasharray="5,2" d="M844.25,-74.37C869.26,-74.15 897.4,-73.91 922.9,-73.68"/>
<polygon fill="#9a32cd" stroke="#9a32cd" points="844.08,-70.87 834.11,-74.46 844.14,-77.87 844.08,-70.87"/>
<text text-anchor="middle" x="880.5" y="-78" font-family="Helvetica,sans-Serif" font-size="10.00"> elements</text>
</g>
<!-- Node6 -->
<g id="node6" class="node">
<title>Node6</title>
<g id="a_node6"><a xlink:href="structhttp2_1_1StreamData.html" target="_top" xlink:title=" ">
<polygon fill="white" stroke="black" points="544,-65.5 544,-84.5 651,-84.5 651,-65.5 544,-65.5"/>
<text text-anchor="middle" x="597.5" y="-72.5" font-family="Helvetica,sans-Serif" font-size="10.00">http2::StreamData</text>
</a>
</g>
</g>
<!-- Node6&#45;&gt;Node5 -->
<g id="edge5" class="edge">
<title>Node6&#45;&gt;Node5</title>
<path fill="none" stroke="#9a32cd" stroke-dasharray="5,2" d="M661.64,-75C676.77,-75 692.92,-75 708,-75"/>
<polygon fill="#9a32cd" stroke="#9a32cd" points="661.36,-71.5 651.36,-75 661.36,-78.5 661.36,-71.5"/>
<text text-anchor="middle" x="677.5" y="-78" font-family="Helvetica,sans-Serif" font-size="10.00"> ptr</text>
</g>
<!-- Node7 -->
<g id="node7" class="node">
<title>Node7</title>
<g id="a_node7"><a xlink:title=" ">
<polygon fill="white" stroke="black" points="291,-80 291,-110 434,-110 434,-80 291,-80"/>
<text text-anchor="start" x="299" y="-98" font-family="Helvetica,sans-Serif" font-size="10.00">std::map&lt; std::string,</text>
<text text-anchor="middle" x="362.5" y="-87" font-family="Helvetica,sans-Serif" font-size="10.00"> std::string, std::less&lt;&gt; &gt;</text>
</a>
</g>
</g>
<!-- Node7&#45;&gt;Node6 -->
<g id="edge6" class="edge">
<title>Node7&#45;&gt;Node6</title>
<path fill="none" stroke="#9a32cd" stroke-dasharray="5,2" d="M444.15,-88.08C477.21,-85.24 514.53,-82.04 543.97,-79.51"/>
<polygon fill="#9a32cd" stroke="#9a32cd" points="443.7,-84.6 434.04,-88.95 444.3,-91.58 443.7,-84.6"/>
<text text-anchor="middle" x="489" y="-91" font-family="Helvetica,sans-Serif" font-size="10.00"> headers</text>
</g>
<!-- Node8 -->
<g id="node8" class="node">
<title>Node8</title>
<g id="a_node8"><a xlink:title=" ">
<polygon fill="white" stroke="black" points="141,-111.5 141,-130.5 206,-130.5 206,-111.5 141,-111.5"/>
<text text-anchor="middle" x="173.5" y="-118.5" font-family="Helvetica,sans-Serif" font-size="10.00">std::string</text>
</a>
</g>
</g>
<!-- Node8&#45;&gt;Node6 -->
<g id="edge9" class="edge">
<title>Node8&#45;&gt;Node6</title>
<path fill="none" stroke="#9a32cd" stroke-dasharray="5,2" d="M216.27,-131.86C218.87,-132.31 221.46,-132.7 224,-133 245.62,-135.58 251.24,-133.94 273,-133 386.13,-128.09 417.03,-133.76 526,-103 543.11,-98.17 561.78,-90.65 575.61,-84.62"/>
<polygon fill="#9a32cd" stroke="#9a32cd" points="216.74,-128.39 206.25,-129.87 215.38,-135.25 216.74,-128.39"/>
<text text-anchor="middle" x="362.5" y="-136" font-family="Helvetica,sans-Serif" font-size="10.00"> url</text>
</g>
<!-- Node8&#45;&gt;Node7 -->
<g id="edge7" class="edge">
<title>Node8&#45;&gt;Node7</title>
<path fill="none" stroke="#9a32cd" stroke-dasharray="5,2" d="M215.95,-112.36C218.67,-111.88 221.37,-111.42 224,-111 245.6,-107.57 269.22,-104.55 290.69,-102.09"/>
<polygon fill="#9a32cd" stroke="#9a32cd" points="215.3,-108.92 206.12,-114.2 216.59,-115.8 215.3,-108.92"/>
<text text-anchor="middle" x="248.5" y="-125" font-family="Helvetica,sans-Serif" font-size="10.00"> elements</text>
<text text-anchor="middle" x="248.5" y="-114" font-family="Helvetica,sans-Serif" font-size="10.00">keys</text>
</g>
<!-- Node9 -->
<g id="node9" class="node">
<title>Node9</title>
<g id="a_node9"><a xlink:title=" ">
<polygon fill="white" stroke="black" points="0,-106 0,-136 104,-136 104,-106 0,-106"/>
<text text-anchor="start" x="8" y="-124" font-family="Helvetica,sans-Serif" font-size="10.00">std::basic_string&lt;</text>
<text text-anchor="middle" x="52" y="-113" font-family="Helvetica,sans-Serif" font-size="10.00"> Char &gt;</text>
</a>
</g>
</g>
<!-- Node9&#45;&gt;Node8 -->
<g id="edge8" class="edge">
<title>Node9&#45;&gt;Node8</title>
<path fill="none" stroke="midnightblue" d="M114.1,-121C123.41,-121 132.68,-121 141,-121"/>
<polygon fill="midnightblue" stroke="midnightblue" points="114.03,-117.5 104.03,-121 114.03,-124.5 114.03,-117.5"/>
</g>
<!-- Node10 -->
<g id="node10" class="node">
<title>Node10</title>
<g id="a_node10"><a xlink:href="classccf_1_1RESTVerb.html" target="_top" xlink:title=" ">
<polygon fill="white" stroke="black" points="321,-41.5 321,-60.5 404,-60.5 404,-41.5 321,-41.5"/>
<text text-anchor="middle" x="362.5" y="-48.5" font-family="Helvetica,sans-Serif" font-size="10.00">ccf::RESTVerb</text>
</a>
</g>
</g>
<!-- Node10&#45;&gt;Node6 -->
<g id="edge10" class="edge">
<title>Node10&#45;&gt;Node6</title>
<path fill="none" stroke="#9a32cd" stroke-dasharray="5,2" d="M414.28,-55.8C446.34,-58.89 488.61,-63.04 526,-67 531.76,-67.61 537.78,-68.27 543.77,-68.93"/>
<polygon fill="#9a32cd" stroke="#9a32cd" points="414.54,-52.31 404.25,-54.84 413.87,-59.28 414.54,-52.31"/>
<text text-anchor="middle" x="489" y="-70" font-family="Helvetica,sans-Serif" font-size="10.00"> verb</text>
</g>
<!-- Node11 -->
<g id="node11" class="node">
<title>Node11</title>
<g id="a_node11"><a xlink:title=" ">
<polygon fill="white" stroke="black" points="300,-0.5 300,-19.5 425,-19.5 425,-0.5 300,-0.5"/>
<text text-anchor="middle" x="362.5" y="-7.5" font-family="Helvetica,sans-Serif" font-size="10.00">std::vector&lt; uint8_t &gt;</text>
</a>
</g>
</g>
<!-- Node11&#45;&gt;Node6 -->
<g id="edge11" class="edge">
<title>Node11&#45;&gt;Node6</title>
<path fill="none" stroke="#9a32cd" stroke-dasharray="5,2" d="M435.02,-14.65C463.87,-18.04 497.11,-23.89 526,-34 547.38,-41.48 569.58,-55.63 583.21,-65.18"/>
<polygon fill="#9a32cd" stroke="#9a32cd" points="435.33,-11.16 425.01,-13.55 434.57,-18.12 435.33,-11.16"/>
<text text-anchor="middle" x="489" y="-48" font-family="Helvetica,sans-Serif" font-size="10.00"> request_body</text>
<text text-anchor="middle" x="489" y="-37" font-family="Helvetica,sans-Serif" font-size="10.00">response_body</text>
</g>
<!-- Node12 -->
<g id="node12" class="node">
<title>Node12</title>
<g id="a_node12"><a xlink:href="classccf_1_1Endpoint.html" target="_top" xlink:title=" ">
<polygon fill="white" stroke="black" points="963,-18.5 963,-37.5 1042,-37.5 1042,-18.5 963,-18.5"/>
<text text-anchor="middle" x="1002.5" y="-25.5" font-family="Helvetica,sans-Serif" font-size="10.00">ccf::Endpoint</text>
</a>
</g>
</g>
<!-- Node12&#45;&gt;Node2 -->
<g id="edge12" class="edge">
<title>Node12&#45;&gt;Node2</title>
<path fill="none" stroke="#9a32cd" stroke-dasharray="5,2" d="M1052.1,-37.76C1079.69,-43.42 1114.84,-50.83 1146,-58 1153.32,-59.69 1161.13,-61.57 1168.6,-63.42"/>
<polygon fill="#9a32cd" stroke="#9a32cd" points="1052.79,-34.33 1042.29,-35.76 1051.39,-41.19 1052.79,-34.33"/>
<text text-anchor="middle" x="1123" y="-61" font-family="Helvetica,sans-Serif" font-size="10.00"> endpoint</text>
</g>
<!-- Node13 -->
<g id="node13" class="node">
<title>Node13</title>
<g id="a_node13"><a xlink:title=" ">
<polygon fill="white" stroke="black" points="704,-11 704,-41 838,-41 838,-11 704,-11"/>
<text text-anchor="start" x="712" y="-29" font-family="Helvetica,sans-Serif" font-size="10.00">std::enable_shared</text>
<text text-anchor="middle" x="771" y="-18" font-family="Helvetica,sans-Serif" font-size="10.00">_from_this&lt; Endpoint &gt;</text>
</a>
</g>
</g>
<!-- Node13&#45;&gt;Node12 -->
<g id="edge13" class="edge">
<title>Node13&#45;&gt;Node12</title>
<path fill="none" stroke="midnightblue" d="M848.2,-26.66C886.6,-27 931.52,-27.39 962.77,-27.66"/>
<polygon fill="midnightblue" stroke="midnightblue" points="848.1,-23.16 838.07,-26.58 848.04,-30.16 848.1,-23.16"/>
</g>
</g>
</svg>
