<?xml version="1.0" encoding="UTF-8" standalone="no"?>
<!DOCTYPE svg PUBLIC "-//W3C//DTD SVG 1.1//EN"
 "http://www.w3.org/Graphics/SVG/1.1/DTD/svg11.dtd">
<!-- Generated by graphviz version 2.43.0 (0)
 -->
<!-- Title: quic::QUICEchoEndpoint Pages: 1 -->
<svg width="451pt" height="252pt"
 viewBox="0.00 0.00 450.50 252.00" xmlns="http://www.w3.org/2000/svg" xmlns:xlink="http://www.w3.org/1999/xlink">
<g id="graph0" class="graph" transform="scale(1 1) rotate(0) translate(4 248)">
<title>quic::QUICEchoEndpoint</title>
<polygon fill="white" stroke="transparent" points="-4,4 -4,-248 446.5,-248 446.5,4 -4,4"/>
<!-- Node1 -->
<g id="node1" class="node">
<title>Node1</title>
<g id="a_node1"><a xlink:title=" ">
<polygon fill="#bfbfbf" stroke="black" points="128,-0.5 128,-19.5 262,-19.5 262,-0.5 128,-0.5"/>
<text text-anchor="middle" x="195" y="-7.5" font-family="Helvetica,sans-Serif" font-size="10.00">quic::QUICEchoEndpoint</text>
</a>
</g>
</g>
<!-- Node2 -->
<g id="node2" class="node">
<title>Node2</title>
<g id="a_node2"><a xlink:href="classquic_1_1QUICEndpoint.html" target="_top" xlink:title=" ">
<polygon fill="white" stroke="black" points="140,-57.5 140,-76.5 250,-76.5 250,-57.5 140,-57.5"/>
<text text-anchor="middle" x="195" y="-64.5" font-family="Helvetica,sans-Serif" font-size="10.00">quic::QUICEndpoint</text>
</a>
</g>
</g>
<!-- Node2&#45;&gt;Node1 -->
<g id="edge1" class="edge">
<title>Node2&#45;&gt;Node1</title>
<path fill="none" stroke="midnightblue" d="M195,-47.12C195,-37.82 195,-27.06 195,-19.71"/>
<polygon fill="midnightblue" stroke="midnightblue" points="191.5,-47.41 195,-57.41 198.5,-47.41 191.5,-47.41"/>
</g>
<!-- Node3 -->
<g id="node3" class="node">
<title>Node3</title>
<g id="a_node3"><a xlink:href="classccf_1_1Endpoint.html" target="_top" xlink:title=" ">
<polygon fill="white" stroke="black" points="27.5,-141 27.5,-160 106.5,-160 106.5,-141 27.5,-141"/>
<text text-anchor="middle" x="67" y="-148" font-family="Helvetica,sans-Serif" font-size="10.00">ccf::Endpoint</text>
</a>
</g>
</g>
<!-- Node3&#45;&gt;Node2 -->
<g id="edge2" class="edge">
<title>Node3&#45;&gt;Node2</title>
<path fill="none" stroke="midnightblue" d="M89.33,-135.28C115.9,-118.37 159.43,-90.65 181.4,-76.66"/>
<polygon fill="midnightblue" stroke="midnightblue" points="87.25,-132.45 80.7,-140.78 91.01,-138.36 87.25,-132.45"/>
</g>
<!-- Node4 -->
<g id="node4" class="node">
<title>Node4</title>
<g id="a_node4"><a xlink:title=" ">
<polygon fill="white" stroke="black" points="0,-213.5 0,-243.5 134,-243.5 134,-213.5 0,-213.5"/>
<text text-anchor="start" x="8" y="-231.5" font-family="Helvetica,sans-Serif" font-size="10.00">std::enable_shared</text>
<text text-anchor="middle" x="67" y="-220.5" font-family="Helvetica,sans-Serif" font-size="10.00">_from_this&lt; Endpoint &gt;</text>
</a>
</g>
</g>
<!-- Node4&#45;&gt;Node3 -->
<g id="edge3" class="edge">
<title>Node4&#45;&gt;Node3</title>
<path fill="none" stroke="midnightblue" d="M67,-203.17C67,-188.4 67,-170.45 67,-160.06"/>
<polygon fill="midnightblue" stroke="midnightblue" points="63.5,-203.2 67,-213.2 70.5,-203.21 63.5,-203.2"/>
</g>
<!-- Node5 -->
<g id="node5" class="node">
<title>Node5</title>
<g id="a_node5"><a xlink:title=" ">
<polygon fill="white" stroke="black" points="124.5,-135.5 124.5,-165.5 265.5,-165.5 265.5,-135.5 124.5,-135.5"/>
<text text-anchor="start" x="132.5" y="-153.5" font-family="Helvetica,sans-Serif" font-size="10.00">std::shared_ptr&lt; Abstract</text>
<text text-anchor="middle" x="195" y="-142.5" font-family="Helvetica,sans-Serif" font-size="10.00">Writer &gt;</text>
</a>
</g>
</g>
<!-- Node5&#45;&gt;Node2 -->
<g id="edge4" class="edge">
<title>Node5&#45;&gt;Node2</title>
<path fill="none" stroke="#9a32cd" stroke-dasharray="5,2" d="M195,-125.25C195,-108.78 195,-87.99 195,-76.54"/>
<polygon fill="#9a32cd" stroke="#9a32cd" points="191.5,-125.3 195,-135.3 198.5,-125.3 191.5,-125.3"/>
<text text-anchor="middle" x="215" y="-103.5" font-family="Helvetica,sans-Serif" font-size="10.00"> to_host</text>
</g>
<!-- Node6 -->
<g id="node6" class="node">
<title>Node6</title>
<g id="a_node6"><a xlink:title=" ">
<polygon fill="white" stroke="black" points="283.5,-141 283.5,-160 442.5,-160 442.5,-141 283.5,-141"/>
<text text-anchor="middle" x="363" y="-148" font-family="Helvetica,sans-Serif" font-size="10.00">std::vector&lt; PendingBuffer &gt;</text>
</a>
</g>
</g>
<!-- Node6&#45;&gt;Node2 -->
<g id="edge5" class="edge">
<title>Node6&#45;&gt;Node2</title>
<path fill="none" stroke="#9a32cd" stroke-dasharray="5,2" d="M336.27,-136.53C301.63,-119.73 242.18,-90.89 212.68,-76.58"/>
<polygon fill="#9a32cd" stroke="#9a32cd" points="334.81,-139.72 345.34,-140.93 337.87,-133.42 334.81,-139.72"/>
<text text-anchor="middle" x="332.5" y="-109" font-family="Helvetica,sans-Serif" font-size="10.00"> pending_reads</text>
<text text-anchor="middle" x="332.5" y="-98" font-family="Helvetica,sans-Serif" font-size="10.00">pending_writes</text>
</g>
<!-- Node7 -->
<g id="node7" class="node">
<title>Node7</title>
<g id="a_node7"><a xlink:href="structPendingIO.html" target="_top" xlink:title="Pending writes on both host and enclave, with data, length and destination address.">
<polygon fill="white" stroke="black" points="315.5,-219 315.5,-238 410.5,-238 410.5,-219 315.5,-219"/>
<text text-anchor="middle" x="363" y="-226" font-family="Helvetica,sans-Serif" font-size="10.00">PendingIO&lt; T &gt;</text>
</a>
</g>
</g>
<!-- Node7&#45;&gt;Node6 -->
<g id="edge6" class="edge">
<title>Node7&#45;&gt;Node6</title>
<path fill="none" stroke="#9a32cd" stroke-dasharray="5,2" d="M363,-208.72C363,-193.2 363,-171.86 363,-160.12"/>
<polygon fill="#9a32cd" stroke="#9a32cd" points="359.5,-208.78 363,-218.78 366.5,-208.78 359.5,-208.78"/>
<text text-anchor="middle" x="387.5" y="-187" font-family="Helvetica,sans-Serif" font-size="10.00"> elements</text>
</g>
</g>
</svg>
