<?xml version="1.0" encoding="UTF-8" standalone="no"?>
<!DOCTYPE svg PUBLIC "-//W3C//DTD SVG 1.1//EN"
 "http://www.w3.org/Graphics/SVG/1.1/DTD/svg11.dtd">
<!-- Generated by graphviz version 2.43.0 (0)
 -->
<!-- Title: ccf::RingbufferLogger Pages: 1 -->
<svg width="336pt" height="127pt"
 viewBox="0.00 0.00 336.00 126.50" xmlns="http://www.w3.org/2000/svg" xmlns:xlink="http://www.w3.org/1999/xlink">
<g id="graph0" class="graph" transform="scale(1 1) rotate(0) translate(4 122.5)">
<title>ccf::RingbufferLogger</title>
<polygon fill="white" stroke="transparent" points="-4,4 -4,-122.5 332,-122.5 332,4 -4,4"/>
<!-- Node1 -->
<g id="node1" class="node">
<title>Node1</title>
<g id="a_node1"><a xlink:title=" ">
<polygon fill="#bfbfbf" stroke="black" points="209,-55 209,-74 328,-74 328,-55 209,-55"/>
<text text-anchor="middle" x="268.5" y="-62" font-family="Helvetica,sans-Serif" font-size="10.00">ccf::RingbufferLogger</text>
</a>
</g>
</g>
<!-- Node2 -->
<g id="node2" class="node">
<title>Node2</title>
<g id="a_node2"><a xlink:href="classlogger_1_1AbstractLogger.html" target="_top" xlink:title=" ">
<polygon fill="white" stroke="black" points="7,-99 7,-118 134,-118 134,-99 7,-99"/>
<text text-anchor="middle" x="70.5" y="-106" font-family="Helvetica,sans-Serif" font-size="10.00">logger::AbstractLogger</text>
</a>
</g>
</g>
<!-- Node2&#45;&gt;Node1 -->
<g id="edge1" class="edge">
<title>Node2&#45;&gt;Node1</title>
<path fill="none" stroke="midnightblue" d="M123.99,-96.72C155.63,-89.61 195.41,-80.68 225.05,-74.03"/>
<polygon fill="midnightblue" stroke="midnightblue" points="123.02,-93.35 114.03,-98.95 124.55,-100.18 123.02,-93.35"/>
</g>
<!-- Node3 -->
<g id="node3" class="node">
<title>Node3</title>
<g id="a_node3"><a xlink:title=" ">
<polygon fill="white" stroke="black" points="0,-49.5 0,-79.5 141,-79.5 141,-49.5 0,-49.5"/>
<text text-anchor="start" x="8" y="-67.5" font-family="Helvetica,sans-Serif" font-size="10.00">std::shared_ptr&lt; Abstract</text>
<text text-anchor="middle" x="70.5" y="-56.5" font-family="Helvetica,sans-Serif" font-size="10.00">Writer &gt;</text>
</a>
</g>
</g>
<!-- Node3&#45;&gt;Node1 -->
<g id="edge2" class="edge">
<title>Node3&#45;&gt;Node1</title>
<path fill="none" stroke="#9a32cd" stroke-dasharray="5,2" d="M151.39,-64.5C170.58,-64.5 190.73,-64.5 208.76,-64.5"/>
<polygon fill="#9a32cd" stroke="#9a32cd" points="151.15,-61 141.15,-64.5 151.15,-68 151.15,-61"/>
<text text-anchor="middle" x="175" y="-67.5" font-family="Helvetica,sans-Serif" font-size="10.00"> writer</text>
</g>
<!-- Node4 -->
<g id="node4" class="node">
<title>Node4</title>
<g id="a_node4"><a xlink:title=" ">
<polygon fill="white" stroke="black" points="2,-0.5 2,-30.5 139,-30.5 139,-0.5 2,-0.5"/>
<text text-anchor="start" x="10" y="-18.5" font-family="Helvetica,sans-Serif" font-size="10.00">std::atomic&lt; std::chrono</text>
<text text-anchor="middle" x="70.5" y="-7.5" font-family="Helvetica,sans-Serif" font-size="10.00">::microseconds &gt;</text>
</a>
</g>
</g>
<!-- Node4&#45;&gt;Node1 -->
<g id="edge3" class="edge">
<title>Node4&#45;&gt;Node1</title>
<path fill="none" stroke="#9a32cd" stroke-dasharray="5,2" d="M141.52,-33C171.13,-40.41 204.45,-48.74 229.39,-54.97"/>
<polygon fill="#9a32cd" stroke="#9a32cd" points="142.19,-29.56 131.64,-30.53 140.49,-36.36 142.19,-29.56"/>
<text text-anchor="middle" x="175" y="-47.5" font-family="Helvetica,sans-Serif" font-size="10.00"> us</text>
</g>
</g>
</svg>
