<?xml version="1.0" encoding="UTF-8" standalone="no"?>
<!DOCTYPE svg PUBLIC "-//W3C//DTD SVG 1.1//EN"
 "http://www.w3.org/Graphics/SVG/1.1/DTD/svg11.dtd">
<!-- Generated by graphviz version 2.43.0 (0)
 -->
<!-- Title: ccfapp::TpccHandlers Pages: 1 -->
<!--zoomable 550 -->
<svg id="main" version="1.1" xmlns="http://www.w3.org/2000/svg" xmlns:xlink="http://www.w3.org/1999/xlink" xml:space="preserve" onload="init(evt)">
<style type="text/css"><![CDATA[
.edge:hover path { stroke: red; }
.edge:hover polygon { stroke: red; fill: red; }
]]></style>
<script type="text/javascript"><![CDATA[
var edges = document.getElementsByTagName('g');
if (edges && edges.length) {
  for (var i=0;i<edges.length;i++) {
    if (edges[i].id.substr(0,4)=='edge') {
      edges[i].setAttribute('class','edge');
    }
  }
}
]]></script>
        <defs>
                <circle id="rim" cx="0" cy="0" r="7"/>
                <circle id="rim2" cx="0" cy="0" r="3.5"/>
                <g id="zoomPlus">
                        <use xlink:href="#rim" fill="#404040">
                                <set attributeName="fill" to="#808080" begin="zoomplus.mouseover" end="zoomplus.mouseout"/>
                        </use>
                        <path d="M-4,0h8M0,-4v8" fill="none" stroke="white" stroke-width="1.5" pointer-events="none"/>
                </g>
                <g id="zoomMin">
                        <use xlink:href="#rim" fill="#404040">
                                <set attributeName="fill" to="#808080" begin="zoomminus.mouseover" end="zoomminus.mouseout"/>
                        </use>
                        <path d="M-4,0h8" fill="none" stroke="white" stroke-width="1.5" pointer-events="none"/>
                </g>
                <g id="dirArrow">
                        <path fill="none" stroke="white" stroke-width="1.5" d="M0,-3.0v7 M-2.5,-0.5L0,-3.0L2.5,-0.5"/>
                </g>
               <g id="resetDef">
                       <use xlink:href="#rim2" fill="#404040">
                               <set attributeName="fill" to="#808080" begin="reset.mouseover" end="reset.mouseout"/>
                       </use>
               </g>
        </defs>

<script type="text/javascript">
var viewWidth = 3068;
var viewHeight = 550;
var sectionId = 'dynsection-0';
</script>
<script xlink:href="svgpan.js"/>
<svg id="graph" class="graph">
<g id="viewport">
<title>ccfapp::TpccHandlers</title>
<polygon fill="white" stroke="transparent" points="-4,4 -4,-546 3064,-546 3064,4 -4,4"/>
<!-- Node1 -->
<g id="node1" class="node">
<title>Node1</title>
<g id="a_node1"><a xlink:title=" ">
<polygon fill="#bfbfbf" stroke="black" points="2939,-421.5 2939,-440.5 3060,-440.5 3060,-421.5 2939,-421.5"/>
<text text-anchor="middle" x="2999.5" y="-428.5" font-family="Helvetica,sans-Serif" font-size="10.00">ccfapp::TpccHandlers</text>
</a>
</g>
</g>
<!-- Node2 -->
<g id="node2" class="node">
<title>Node2</title>
<g id="a_node2"><a xlink:href="classccf_1_1UserEndpointRegistry.html" target="_top" xlink:title=" ">
<polygon fill="white" stroke="black" points="2760,-421.5 2760,-440.5 2902,-440.5 2902,-421.5 2760,-421.5"/>
<text text-anchor="middle" x="2831" y="-428.5" font-family="Helvetica,sans-Serif" font-size="10.00">ccf::UserEndpointRegistry</text>
</a>
</g>
</g>
<!-- Node2&#45;&gt;Node1 -->
<g id="edge1" class="edge">
<title>Node2&#45;&gt;Node1</title>
<path fill="none" stroke="midnightblue" d="M2912.25,-431C2921.26,-431 2930.31,-431 2938.99,-431"/>
<polygon fill="midnightblue" stroke="midnightblue" points="2912.13,-427.5 2902.13,-431 2912.13,-434.5 2912.13,-427.5"/>
</g>
<!-- Node3 -->
<g id="node3" class="node">
<title>Node3</title>
<g id="a_node3"><a xlink:href="classccf_1_1CommonEndpointRegistry.html" target="_top" xlink:title=" ">
<polygon fill="white" stroke="black" points="2559,-421.5 2559,-440.5 2723,-440.5 2723,-421.5 2559,-421.5"/>
<text text-anchor="middle" x="2641" y="-428.5" font-family="Helvetica,sans-Serif" font-size="10.00">ccf::CommonEndpointRegistry</text>
</a>
</g>
</g>
<!-- Node3&#45;&gt;Node2 -->
<g id="edge2" class="edge">
<title>Node3&#45;&gt;Node2</title>
<path fill="none" stroke="midnightblue" d="M2733.17,-431C2742.12,-431 2751.11,-431 2759.81,-431"/>
<polygon fill="midnightblue" stroke="midnightblue" points="2733.09,-427.5 2723.09,-431 2733.09,-434.5 2733.09,-427.5"/>
</g>
<!-- Node4 -->
<g id="node4" class="node">
<title>Node4</title>
<g id="a_node4"><a xlink:href="classccf_1_1BaseEndpointRegistry.html" target="_top" xlink:title=" ">
<polygon fill="white" stroke="black" points="2379,-421.5 2379,-440.5 2522,-440.5 2522,-421.5 2379,-421.5"/>
<text text-anchor="middle" x="2450.5" y="-428.5" font-family="Helvetica,sans-Serif" font-size="10.00">ccf::BaseEndpointRegistry</text>
</a>
</g>
</g>
<!-- Node4&#45;&gt;Node3 -->
<g id="edge3" class="edge">
<title>Node4&#45;&gt;Node3</title>
<path fill="none" stroke="midnightblue" d="M2532.38,-431C2541.11,-431 2550,-431 2558.73,-431"/>
<polygon fill="midnightblue" stroke="midnightblue" points="2532.23,-427.5 2522.23,-431 2532.23,-434.5 2532.23,-427.5"/>
</g>
<!-- Node5 -->
<g id="node5" class="node">
<title>Node5</title>
<g id="a_node5"><a xlink:href="classccf_1_1endpoints_1_1EndpointRegistry.html" target="_top" xlink:title=" ">
<polygon fill="white" stroke="black" points="2209,-324 2209,-354 2342,-354 2342,-324 2209,-324"/>
<text text-anchor="start" x="2217" y="-342" font-family="Helvetica,sans-Serif" font-size="10.00">ccf::endpoints::Endpoint</text>
<text text-anchor="middle" x="2275.5" y="-331" font-family="Helvetica,sans-Serif" font-size="10.00">Registry</text>
</a>
</g>
</g>
<!-- Node5&#45;&gt;Node4 -->
<g id="edge4" class="edge">
<title>Node5&#45;&gt;Node4</title>
<path fill="none" stroke="midnightblue" d="M2313.9,-358.89C2350.23,-378.21 2403.83,-406.71 2431.5,-421.43"/>
<polygon fill="midnightblue" stroke="midnightblue" points="2315.54,-355.8 2305.07,-354.19 2312.25,-361.98 2315.54,-355.8"/>
</g>
<!-- Node6 -->
<g id="node6" class="node">
<title>Node6</title>
<g id="a_node6"><a xlink:href="structccf_1_1endpoints_1_1Endpoint_1_1Installer.html" target="_top" xlink:title=" ">
<polygon fill="white" stroke="black" points="1165.5,-153 1165.5,-183 1298.5,-183 1298.5,-153 1165.5,-153"/>
<text text-anchor="start" x="1173.5" y="-171" font-family="Helvetica,sans-Serif" font-size="10.00">ccf::endpoints::Endpoint</text>
<text text-anchor="middle" x="1232" y="-160" font-family="Helvetica,sans-Serif" font-size="10.00">::Installer</text>
</a>
</g>
</g>
<!-- Node6&#45;&gt;Node5 -->
<g id="edge5" class="edge">
<title>Node6&#45;&gt;Node5</title>
<path fill="none" stroke="midnightblue" d="M1308.69,-166.6C1521.7,-163.24 2115.75,-157.96 2191,-202 2237.64,-229.29 2261.54,-293.9 2270.39,-323.59"/>
<polygon fill="midnightblue" stroke="midnightblue" points="1308.47,-163.11 1298.53,-166.77 1308.59,-170.11 1308.47,-163.11"/>
</g>
<!-- Node11 -->
<g id="node11" class="node">
<title>Node11</title>
<g id="a_node11"><a xlink:href="structccf_1_1endpoints_1_1Endpoint.html" target="_top" xlink:title=" ">
<polygon fill="white" stroke="black" points="1534.5,-113.5 1534.5,-132.5 1667.5,-132.5 1667.5,-113.5 1534.5,-113.5"/>
<text text-anchor="middle" x="1601" y="-120.5" font-family="Helvetica,sans-Serif" font-size="10.00">ccf::endpoints::Endpoint</text>
</a>
</g>
</g>
<!-- Node6&#45;&gt;Node11 -->
<g id="edge24" class="edge">
<title>Node6&#45;&gt;Node11</title>
<path fill="none" stroke="#9a32cd" stroke-dasharray="5,2" d="M1308.91,-156.9C1318.69,-155.54 1328.58,-154.21 1338,-153 1404.75,-144.41 1481.23,-135.8 1534.26,-130.01"/>
<polygon fill="#9a32cd" stroke="#9a32cd" points="1308.19,-153.47 1298.77,-158.32 1309.16,-160.4 1308.19,-153.47"/>
<text text-anchor="middle" x="1423.5" y="-156" font-family="Helvetica,sans-Serif" font-size="10.00"> installer</text>
</g>
<!-- Node7 -->
<g id="node7" class="node">
<title>Node7</title>
<g id="a_node7"><a xlink:title=" ">
<polygon fill="white" stroke="black" points="255,-233.5 255,-252.5 320,-252.5 320,-233.5 255,-233.5"/>
<text text-anchor="middle" x="287.5" y="-240.5" font-family="Helvetica,sans-Serif" font-size="10.00">std::string</text>
</a>
</g>
</g>
<!-- Node7&#45;&gt;Node5 -->
<g id="edge6" class="edge">
<title>Node7&#45;&gt;Node5</title>
<path fill="none" stroke="#9a32cd" stroke-dasharray="5,2" d="M330.57,-237.52C386.51,-230.72 488.5,-220 576,-220 576,-220 576,-220 1055.5,-220 1417.08,-220 1507.95,-210.44 1869,-230 2012.56,-237.78 2059.94,-201.89 2191,-261 2222.1,-275.03 2249.11,-305.42 2263.48,-323.85"/>
<polygon fill="#9a32cd" stroke="#9a32cd" points="329.84,-234.08 320.34,-238.78 330.69,-241.03 329.84,-234.08"/>
<text text-anchor="middle" x="1232" y="-222" font-family="Helvetica,sans-Serif" font-size="10.00"> method_prefix</text>
</g>
<!-- Node9 -->
<g id="node9" class="node">
<title>Node9</title>
<g id="a_node9"><a xlink:href="structccf_1_1endpoints_1_1EndpointRegistry_1_1OpenApiInfo.html" target="_top" xlink:title=" ">
<polygon fill="white" stroke="black" points="680,-397 680,-427 813,-427 813,-397 680,-397"/>
<text text-anchor="start" x="688" y="-415" font-family="Helvetica,sans-Serif" font-size="10.00">ccf::endpoints::Endpoint</text>
<text text-anchor="middle" x="746.5" y="-404" font-family="Helvetica,sans-Serif" font-size="10.00">Registry::OpenApiInfo</text>
</a>
</g>
</g>
<!-- Node7&#45;&gt;Node9 -->
<g id="edge9" class="edge">
<title>Node7&#45;&gt;Node9</title>
<path fill="none" stroke="#9a32cd" stroke-dasharray="5,2" d="M295.35,-262.18C307.58,-293.23 336.33,-353.79 383,-381 431.77,-409.43 589.17,-413.27 679.72,-413"/>
<polygon fill="#9a32cd" stroke="#9a32cd" points="298.52,-260.65 291.72,-252.53 291.97,-263.12 298.52,-260.65"/>
<text text-anchor="middle" x="428.5" y="-428" font-family="Helvetica,sans-Serif" font-size="10.00"> description</text>
<text text-anchor="middle" x="428.5" y="-417" font-family="Helvetica,sans-Serif" font-size="10.00">document_version</text>
<text text-anchor="middle" x="428.5" y="-406" font-family="Helvetica,sans-Serif" font-size="10.00">title</text>
</g>
<!-- Node12 -->
<g id="node12" class="node">
<title>Node12</title>
<g id="a_node12"><a xlink:href="structccf_1_1endpoints_1_1EndpointDefinition.html" target="_top" xlink:title=" ">
<polygon fill="white" stroke="black" points="1165.5,-104 1165.5,-134 1298.5,-134 1298.5,-104 1165.5,-104"/>
<text text-anchor="start" x="1173.5" y="-122" font-family="Helvetica,sans-Serif" font-size="10.00">ccf::endpoints::Endpoint</text>
<text text-anchor="middle" x="1232" y="-111" font-family="Helvetica,sans-Serif" font-size="10.00">Definition</text>
</a>
</g>
</g>
<!-- Node7&#45;&gt;Node12 -->
<g id="edge16" class="edge">
<title>Node7&#45;&gt;Node12</title>
<path fill="none" stroke="#9a32cd" stroke-dasharray="5,2" d="M317.5,-229.14C335.85,-221 360.31,-211.3 383,-206 705.75,-130.58 798.32,-191.79 1126,-142 1139.93,-139.88 1154.78,-137.02 1168.79,-134.02"/>
<polygon fill="#9a32cd" stroke="#9a32cd" points="315.9,-226.02 308.24,-233.34 318.79,-232.39 315.9,-226.02"/>
<text text-anchor="middle" x="746.5" y="-169" font-family="Helvetica,sans-Serif" font-size="10.00"> full_uri_path</text>
</g>
<!-- Node13 -->
<g id="node13" class="node">
<title>Node13</title>
<g id="a_node13"><a xlink:href="structccf_1_1endpoints_1_1EndpointKey.html" target="_top" xlink:title=" ">
<polygon fill="white" stroke="black" points="501.5,-134.5 501.5,-153.5 652.5,-153.5 652.5,-134.5 501.5,-134.5"/>
<text text-anchor="middle" x="577" y="-141.5" font-family="Helvetica,sans-Serif" font-size="10.00">ccf::endpoints::EndpointKey</text>
</a>
</g>
</g>
<!-- Node7&#45;&gt;Node13 -->
<g id="edge14" class="edge">
<title>Node7&#45;&gt;Node13</title>
<path fill="none" stroke="#9a32cd" stroke-dasharray="5,2" d="M301.72,-225.55C318.23,-205.26 348.54,-172.67 383,-158 419.94,-142.28 464.45,-138.18 501.41,-138.28"/>
<polygon fill="#9a32cd" stroke="#9a32cd" points="298.96,-223.39 295.51,-233.41 304.46,-227.73 298.96,-223.39"/>
<text text-anchor="middle" x="428.5" y="-161" font-family="Helvetica,sans-Serif" font-size="10.00"> uri_path</text>
</g>
<!-- Node15 -->
<g id="node15" class="node">
<title>Node15</title>
<g id="a_node15"><a xlink:href="structccf_1_1endpoints_1_1EndpointProperties.html" target="_top" xlink:title=" ">
<polygon fill="white" stroke="black" points="831.5,-76 831.5,-106 964.5,-106 964.5,-76 831.5,-76"/>
<text text-anchor="start" x="839.5" y="-94" font-family="Helvetica,sans-Serif" font-size="10.00">ccf::endpoints::Endpoint</text>
<text text-anchor="middle" x="898" y="-83" font-family="Helvetica,sans-Serif" font-size="10.00">Properties</text>
</a>
</g>
</g>
<!-- Node7&#45;&gt;Node15 -->
<g id="edge20" class="edge">
<title>Node7&#45;&gt;Node15</title>
<path fill="none" stroke="#9a32cd" stroke-dasharray="5,2" d="M299.49,-224.61C314.76,-198.84 342.98,-150.4 365,-108 373.61,-91.42 367.44,-80.35 383,-70 454.66,-22.32 709.8,-58.34 831.5,-79.06"/>
<polygon fill="#9a32cd" stroke="#9a32cd" points="296.42,-222.93 294.32,-233.31 302.44,-226.5 296.42,-222.93"/>
<text text-anchor="middle" x="577" y="-70" font-family="Helvetica,sans-Serif" font-size="10.00"> js_function</text>
<text text-anchor="middle" x="577" y="-59" font-family="Helvetica,sans-Serif" font-size="10.00">js_module</text>
</g>
<!-- Node16 -->
<g id="node16" class="node">
<title>Node16</title>
<g id="a_node16"><a xlink:title=" ">
<polygon fill="white" stroke="black" points="507,-96.5 507,-115.5 647,-115.5 647,-96.5 507,-96.5"/>
<text text-anchor="middle" x="577" y="-103.5" font-family="Helvetica,sans-Serif" font-size="10.00">std::vector&lt; std::string &gt;</text>
</a>
</g>
</g>
<!-- Node7&#45;&gt;Node16 -->
<g id="edge19" class="edge">
<title>Node7&#45;&gt;Node16</title>
<path fill="none" stroke="#9a32cd" stroke-dasharray="5,2" d="M297.56,-223.93C311.62,-196.71 341.47,-147.52 383,-125 420.44,-104.7 468.01,-99.82 506.55,-100.08"/>
<polygon fill="#9a32cd" stroke="#9a32cd" points="294.27,-222.67 292.95,-233.19 300.54,-225.79 294.27,-222.67"/>
<text text-anchor="middle" x="428.5" y="-128" font-family="Helvetica,sans-Serif" font-size="10.00"> elements</text>
</g>
<!-- Node21 -->
<g id="node21" class="node">
<title>Node21</title>
<g id="a_node21"><a xlink:title=" ">
<polygon fill="white" stroke="black" points="983,-351.5 983,-392.5 1126,-392.5 1126,-351.5 983,-351.5"/>
<text text-anchor="start" x="991" y="-380.5" font-family="Helvetica,sans-Serif" font-size="10.00">std::map&lt; std::string,</text>
<text text-anchor="start" x="991" y="-369.5" font-family="Helvetica,sans-Serif" font-size="10.00"> std::map&lt; ccf::RESTVerb,</text>
<text text-anchor="middle" x="1054.5" y="-358.5" font-family="Helvetica,sans-Serif" font-size="10.00"> EndpointPtr &gt; &gt;</text>
</a>
</g>
</g>
<!-- Node7&#45;&gt;Node21 -->
<g id="edge27" class="edge">
<title>Node7&#45;&gt;Node21</title>
<path fill="none" stroke="#9a32cd" stroke-dasharray="5,2" d="M302.28,-260.64C318.98,-280.51 349.11,-311.89 383,-326 489.77,-370.46 833.28,-373.65 982.83,-372.82"/>
<polygon fill="#9a32cd" stroke="#9a32cd" points="304.81,-258.2 295.78,-252.66 299.39,-262.63 304.81,-258.2"/>
<text text-anchor="middle" x="577" y="-369" font-family="Helvetica,sans-Serif" font-size="10.00"> keys</text>
</g>
<!-- Node22 -->
<g id="node22" class="node">
<title>Node22</title>
<g id="a_node22"><a xlink:title=" ">
<polygon fill="white" stroke="black" points="1338,-293 1338,-345 1509,-345 1509,-293 1338,-293"/>
<text text-anchor="start" x="1346" y="-333" font-family="Helvetica,sans-Serif" font-size="10.00">std::map&lt; std::string,</text>
<text text-anchor="start" x="1346" y="-322" font-family="Helvetica,sans-Serif" font-size="10.00"> std::map&lt; ccf::RESTVerb,</text>
<text text-anchor="start" x="1346" y="-311" font-family="Helvetica,sans-Serif" font-size="10.00"> std::shared_ptr&lt; ccf::endpoints</text>
<text text-anchor="middle" x="1423.5" y="-300" font-family="Helvetica,sans-Serif" font-size="10.00">::PathTemplatedEndpoint &gt; &gt; &gt;</text>
</a>
</g>
</g>
<!-- Node7&#45;&gt;Node22 -->
<g id="edge29" class="edge">
<title>Node7&#45;&gt;Node22</title>
<path fill="none" stroke="#9a32cd" stroke-dasharray="5,2" d="M318.37,-256.55C336.69,-264.39 360.83,-273.89 383,-280 466.83,-303.09 489.05,-312 576,-312 576,-312 576,-312 1055.5,-312 1152.36,-312 1263.58,-314.47 1337.96,-316.47"/>
<polygon fill="#9a32cd" stroke="#9a32cd" points="319.66,-253.29 309.09,-252.51 316.86,-259.71 319.66,-253.29"/>
<text text-anchor="middle" x="746.5" y="-315" font-family="Helvetica,sans-Serif" font-size="10.00"> keys</text>
</g>
<!-- Node24 -->
<g id="node24" class="node">
<title>Node24</title>
<g id="a_node24"><a xlink:title=" ">
<polygon fill="white" stroke="black" points="1693,-238 1693,-290 1869,-290 1869,-238 1693,-238"/>
<text text-anchor="start" x="1701" y="-278" font-family="Helvetica,sans-Serif" font-size="10.00">std::map&lt; std::string,</text>
<text text-anchor="start" x="1701" y="-267" font-family="Helvetica,sans-Serif" font-size="10.00"> std::map&lt; std::string,</text>
<text text-anchor="start" x="1701" y="-256" font-family="Helvetica,sans-Serif" font-size="10.00"> ccf::endpoints::EndpointRegistry</text>
<text text-anchor="middle" x="1781" y="-245" font-family="Helvetica,sans-Serif" font-size="10.00">::Metrics &gt; &gt;</text>
</a>
</g>
</g>
<!-- Node7&#45;&gt;Node24 -->
<g id="edge32" class="edge">
<title>Node7&#45;&gt;Node24</title>
<path fill="none" stroke="#9a32cd" stroke-dasharray="5,2" d="M330.57,-248.48C386.51,-255.28 488.5,-266 576,-266 576,-266 576,-266 1424.5,-266 1516,-266 1620.74,-265.33 1692.71,-264.76"/>
<polygon fill="#9a32cd" stroke="#9a32cd" points="330.69,-244.97 320.34,-247.22 329.84,-251.92 330.69,-244.97"/>
<text text-anchor="middle" x="898" y="-269" font-family="Helvetica,sans-Serif" font-size="10.00"> keys</text>
</g>
<!-- Node29 -->
<g id="node29" class="node">
<title>Node29</title>
<g id="a_node29"><a xlink:title=" ">
<polygon fill="white" stroke="black" points="494,-500.5 494,-541.5 660,-541.5 660,-500.5 494,-500.5"/>
<text text-anchor="start" x="502" y="-529.5" font-family="Helvetica,sans-Serif" font-size="10.00">std::map&lt; std::string,</text>
<text text-anchor="start" x="502" y="-518.5" font-family="Helvetica,sans-Serif" font-size="10.00"> std::shared_ptr&lt; ccf</text>
<text text-anchor="middle" x="577" y="-507.5" font-family="Helvetica,sans-Serif" font-size="10.00">::AbstractNodeSubSystem &gt; &gt;</text>
</a>
</g>
</g>
<!-- Node7&#45;&gt;Node29 -->
<g id="edge38" class="edge">
<title>Node7&#45;&gt;Node29</title>
<path fill="none" stroke="#9a32cd" stroke-dasharray="5,2" d="M292.36,-262.44C301.27,-302.44 326.96,-394.63 383,-447 413.54,-475.54 456.26,-493.43 493.74,-504.46"/>
<polygon fill="#9a32cd" stroke="#9a32cd" points="295.77,-261.67 290.28,-252.61 288.92,-263.12 295.77,-261.67"/>
<text text-anchor="middle" x="428.5" y="-499" font-family="Helvetica,sans-Serif" font-size="10.00"> keys</text>
</g>
<!-- Node8 -->
<g id="node8" class="node">
<title>Node8</title>
<g id="a_node8"><a xlink:title=" ">
<polygon fill="white" stroke="black" points="26.5,-228 26.5,-258 130.5,-258 130.5,-228 26.5,-228"/>
<text text-anchor="start" x="34.5" y="-246" font-family="Helvetica,sans-Serif" font-size="10.00">std::basic_string&lt;</text>
<text text-anchor="middle" x="78.5" y="-235" font-family="Helvetica,sans-Serif" font-size="10.00"> Char &gt;</text>
</a>
</g>
</g>
<!-- Node8&#45;&gt;Node7 -->
<g id="edge7" class="edge">
<title>Node8&#45;&gt;Node7</title>
<path fill="none" stroke="midnightblue" d="M140.98,-243C178.43,-243 224.72,-243 254.89,-243"/>
<polygon fill="midnightblue" stroke="midnightblue" points="140.67,-239.5 130.67,-243 140.67,-246.5 140.67,-239.5"/>
</g>
<!-- Node9&#45;&gt;Node5 -->
<g id="edge8" class="edge">
<title>Node9&#45;&gt;Node5</title>
<path fill="none" stroke="#9a32cd" stroke-dasharray="5,2" d="M823.23,-413.16C885.16,-414 974.99,-415 1053.5,-415 1053.5,-415 1053.5,-415 1951.5,-415 2056.92,-415 2176.68,-376.16 2236.4,-354.02"/>
<polygon fill="#9a32cd" stroke="#9a32cd" points="823.21,-409.65 813.16,-413.02 823.11,-416.65 823.21,-409.65"/>
<text text-anchor="middle" x="1423.5" y="-418" font-family="Helvetica,sans-Serif" font-size="10.00"> openapi_info</text>
</g>
<!-- Node10 -->
<g id="node10" class="node">
<title>Node10</title>
<g id="a_node10"><a xlink:title=" ">
<polygon fill="white" stroke="black" points="1887,-117 1887,-147 2014,-147 2014,-117 1887,-117"/>
<text text-anchor="start" x="1895" y="-135" font-family="Helvetica,sans-Serif" font-size="10.00">std::shared_ptr&lt; const</text>
<text text-anchor="middle" x="1950.5" y="-124" font-family="Helvetica,sans-Serif" font-size="10.00"> Endpoint &gt;</text>
</a>
</g>
</g>
<!-- Node10&#45;&gt;Node5 -->
<g id="edge10" class="edge">
<title>Node10&#45;&gt;Node5</title>
<path fill="none" stroke="#9a32cd" stroke-dasharray="5,2" d="M2024.19,-120.25C2075.39,-115.99 2143.09,-118.93 2191,-153 2249.56,-194.64 2267.75,-287.2 2272.77,-323.74"/>
<polygon fill="#9a32cd" stroke="#9a32cd" points="2023.81,-116.77 2014.18,-121.18 2024.46,-123.73 2023.81,-116.77"/>
<text text-anchor="middle" x="2111.5" y="-156" font-family="Helvetica,sans-Serif" font-size="10.00"> default_endpoint</text>
</g>
<!-- Node11&#45;&gt;Node10 -->
<g id="edge11" class="edge">
<title>Node11&#45;&gt;Node10</title>
<path fill="none" stroke="#9a32cd" stroke-dasharray="5,2" d="M1677.98,-124.97C1740.59,-126.59 1828.31,-128.86 1886.92,-130.38"/>
<polygon fill="#9a32cd" stroke="#9a32cd" points="1677.86,-121.46 1667.77,-124.7 1677.68,-128.46 1677.86,-121.46"/>
<text text-anchor="middle" x="1781" y="-133" font-family="Helvetica,sans-Serif" font-size="10.00"> ptr</text>
</g>
<!-- Node12&#45;&gt;Node11 -->
<g id="edge12" class="edge">
<title>Node12&#45;&gt;Node11</title>
<path fill="none" stroke="midnightblue" d="M1308.62,-119.82C1375.13,-120.55 1470.98,-121.59 1534.34,-122.28"/>
<polygon fill="midnightblue" stroke="midnightblue" points="1308.65,-116.32 1298.61,-119.72 1308.57,-123.32 1308.65,-116.32"/>
</g>
<!-- Node13&#45;&gt;Node12 -->
<g id="edge13" class="edge">
<title>Node13&#45;&gt;Node12</title>
<path fill="none" stroke="#9a32cd" stroke-dasharray="5,2" d="M663.09,-141.64C770.85,-138.52 962.25,-132.52 1126,-125 1138.77,-124.41 1152.4,-123.7 1165.48,-122.97"/>
<polygon fill="#9a32cd" stroke="#9a32cd" points="662.82,-138.15 652.92,-141.93 663.02,-145.14 662.82,-138.15"/>
<text text-anchor="middle" x="898" y="-140" font-family="Helvetica,sans-Serif" font-size="10.00"> dispatch</text>
</g>
<!-- Node14 -->
<g id="node14" class="node">
<title>Node14</title>
<g id="a_node14"><a xlink:href="classccf_1_1RESTVerb.html" target="_top" xlink:title=" ">
<polygon fill="white" stroke="black" points="246,-79.5 246,-98.5 329,-98.5 329,-79.5 246,-79.5"/>
<text text-anchor="middle" x="287.5" y="-86.5" font-family="Helvetica,sans-Serif" font-size="10.00">ccf::RESTVerb</text>
</a>
</g>
</g>
<!-- Node14&#45;&gt;Node13 -->
<g id="edge15" class="edge">
<title>Node14&#45;&gt;Node13</title>
<path fill="none" stroke="#9a32cd" stroke-dasharray="5,2" d="M331.76,-77.29C371.72,-69.09 431.2,-63.73 474,-90 488.91,-99.15 478.17,-114.29 492,-125 496.96,-128.85 502.56,-131.94 508.45,-134.43"/>
<polygon fill="#9a32cd" stroke="#9a32cd" points="330.81,-73.92 321.79,-79.48 332.31,-80.76 330.81,-73.92"/>
<text text-anchor="middle" x="428.5" y="-93" font-family="Helvetica,sans-Serif" font-size="10.00"> verb</text>
</g>
<!-- Node15&#45;&gt;Node12 -->
<g id="edge17" class="edge">
<title>Node15&#45;&gt;Node12</title>
<path fill="none" stroke="#9a32cd" stroke-dasharray="5,2" d="M974.71,-97.39C1032.18,-102.23 1110.4,-108.83 1165.26,-113.46"/>
<polygon fill="#9a32cd" stroke="#9a32cd" points="974.85,-93.88 964.59,-96.53 974.26,-100.86 974.85,-93.88"/>
<text text-anchor="middle" x="1054.5" y="-113" font-family="Helvetica,sans-Serif" font-size="10.00"> properties</text>
</g>
<!-- Node16&#45;&gt;Node15 -->
<g id="edge18" class="edge">
<title>Node16&#45;&gt;Node15</title>
<path fill="none" stroke="#9a32cd" stroke-dasharray="5,2" d="M657.38,-102.27C711.02,-99.75 780.99,-96.46 831.46,-94.08"/>
<polygon fill="#9a32cd" stroke="#9a32cd" points="657.04,-98.78 647.22,-102.75 657.37,-105.77 657.04,-98.78"/>
<text text-anchor="middle" x="746.5" y="-105" font-family="Helvetica,sans-Serif" font-size="10.00"> authn_policies</text>
</g>
<!-- Node17 -->
<g id="node17" class="node">
<title>Node17</title>
<g id="a_node17"><a xlink:title=" ">
<polygon fill="white" stroke="black" points="831,-16 831,-46 965,-46 965,-16 831,-16"/>
<text text-anchor="start" x="839" y="-34" font-family="Helvetica,sans-Serif" font-size="10.00">std::vector&lt; std::shared</text>
<text text-anchor="middle" x="898" y="-23" font-family="Helvetica,sans-Serif" font-size="10.00">_ptr&lt; AuthnPolicy &gt; &gt;</text>
</a>
</g>
</g>
<!-- Node17&#45;&gt;Node12 -->
<g id="edge21" class="edge">
<title>Node17&#45;&gt;Node12</title>
<path fill="none" stroke="#9a32cd" stroke-dasharray="5,2" d="M974.97,-43.27C1019.83,-51.85 1077.21,-65.17 1126,-84 1134.54,-87.29 1135.55,-90.49 1144,-94 1152.85,-97.68 1162.43,-101.02 1171.88,-103.98"/>
<polygon fill="#9a32cd" stroke="#9a32cd" points="975.49,-39.81 965.02,-41.4 974.2,-46.69 975.49,-39.81"/>
<text text-anchor="middle" x="1054.5" y="-87" font-family="Helvetica,sans-Serif" font-size="10.00"> authn_policies</text>
</g>
<!-- Node18 -->
<g id="node18" class="node">
<title>Node18</title>
<g id="a_node18"><a xlink:title=" ">
<polygon fill="white" stroke="black" points="492,-0.5 492,-19.5 662,-19.5 662,-0.5 492,-0.5"/>
<text text-anchor="middle" x="577" y="-7.5" font-family="Helvetica,sans-Serif" font-size="10.00">std::shared_ptr&lt; AuthnPolicy &gt;</text>
</a>
</g>
</g>
<!-- Node18&#45;&gt;Node17 -->
<g id="edge22" class="edge">
<title>Node18&#45;&gt;Node17</title>
<path fill="none" stroke="#9a32cd" stroke-dasharray="5,2" d="M672.27,-16.21C723.23,-19.56 784.91,-23.62 830.76,-26.64"/>
<polygon fill="#9a32cd" stroke="#9a32cd" points="672.44,-12.71 662.23,-15.54 671.98,-19.69 672.44,-12.71"/>
<text text-anchor="middle" x="746.5" y="-29" font-family="Helvetica,sans-Serif" font-size="10.00"> elements</text>
</g>
<!-- Node19 -->
<g id="node19" class="node">
<title>Node19</title>
<g id="a_node19"><a xlink:href="classccf_1_1AuthnPolicy.html" target="_top" xlink:title=" ">
<polygon fill="white" stroke="black" points="240.5,-0.5 240.5,-19.5 334.5,-19.5 334.5,-0.5 240.5,-0.5"/>
<text text-anchor="middle" x="287.5" y="-7.5" font-family="Helvetica,sans-Serif" font-size="10.00">ccf::AuthnPolicy</text>
</a>
</g>
</g>
<!-- Node19&#45;&gt;Node18 -->
<g id="edge23" class="edge">
<title>Node19&#45;&gt;Node18</title>
<path fill="none" stroke="#9a32cd" stroke-dasharray="5,2" d="M344.71,-10C386.62,-10 444.54,-10 491.94,-10"/>
<polygon fill="#9a32cd" stroke="#9a32cd" points="344.69,-6.5 334.69,-10 344.69,-13.5 344.69,-6.5"/>
<text text-anchor="middle" x="428.5" y="-13" font-family="Helvetica,sans-Serif" font-size="10.00"> ptr</text>
</g>
<!-- Node20 -->
<g id="node20" class="node">
<title>Node20</title>
<g id="a_node20"><a xlink:title=" ">
<polygon fill="white" stroke="black" points="1144,-65.5 1144,-84.5 1320,-84.5 1320,-65.5 1144,-65.5"/>
<text text-anchor="middle" x="1232" y="-72.5" font-family="Helvetica,sans-Serif" font-size="10.00">std::vector&lt; SchemaBuilderFn &gt;</text>
</a>
</g>
</g>
<!-- Node20&#45;&gt;Node11 -->
<g id="edge25" class="edge">
<title>Node20&#45;&gt;Node11</title>
<path fill="none" stroke="#9a32cd" stroke-dasharray="5,2" d="M1330.29,-84.18C1383.25,-89.62 1449.86,-97.17 1509,-106 1523.15,-108.11 1538.46,-110.81 1552.41,-113.43"/>
<polygon fill="#9a32cd" stroke="#9a32cd" points="1330.53,-80.69 1320.23,-83.16 1329.82,-87.65 1330.53,-80.69"/>
<text text-anchor="middle" x="1423.5" y="-109" font-family="Helvetica,sans-Serif" font-size="10.00"> schema_builders</text>
</g>
<!-- Node21&#45;&gt;Node5 -->
<g id="edge26" class="edge">
<title>Node21&#45;&gt;Node5</title>
<path fill="none" stroke="#9a32cd" stroke-dasharray="5,2" d="M1136.29,-373.1C1322.51,-375.05 1796.22,-376.57 2191,-349 2196.83,-348.59 2202.87,-348.07 2208.92,-347.47"/>
<polygon fill="#9a32cd" stroke="#9a32cd" points="1136.07,-369.6 1126.04,-372.99 1136,-376.6 1136.07,-369.6"/>
<text text-anchor="middle" x="1601" y="-375" font-family="Helvetica,sans-Serif" font-size="10.00"> fully_qualified_endpoints</text>
</g>
<!-- Node22&#45;&gt;Node5 -->
<g id="edge28" class="edge">
<title>Node22&#45;&gt;Node5</title>
<path fill="none" stroke="#9a32cd" stroke-dasharray="5,2" d="M1519.27,-321.23C1693.22,-325.32 2059.27,-333.94 2208.78,-337.45"/>
<polygon fill="#9a32cd" stroke="#9a32cd" points="1519.19,-317.73 1509.11,-320.99 1519.02,-324.73 1519.19,-317.73"/>
<text text-anchor="middle" x="1781" y="-332" font-family="Helvetica,sans-Serif" font-size="10.00"> templated_endpoints</text>
</g>
<!-- Node23 -->
<g id="node23" class="node">
<title>Node23</title>
<g id="a_node23"><a xlink:title=" ">
<polygon fill="white" stroke="black" points="1916,-481.5 1916,-500.5 1985,-500.5 1985,-481.5 1916,-481.5"/>
<text text-anchor="middle" x="1950.5" y="-488.5" font-family="Helvetica,sans-Serif" font-size="10.00">std::mutex</text>
</a>
</g>
</g>
<!-- Node23&#45;&gt;Node5 -->
<g id="edge30" class="edge">
<title>Node23&#45;&gt;Node5</title>
<path fill="none" stroke="#9a32cd" stroke-dasharray="5,2" d="M1995.62,-490.82C2055.76,-489.81 2159.59,-485.1 2191,-465 2204.1,-456.62 2200.61,-448.09 2209,-435 2227.61,-405.95 2250.58,-372.87 2263.79,-354.11"/>
<polygon fill="#9a32cd" stroke="#9a32cd" points="1995.24,-487.33 1985.29,-490.97 1995.33,-494.33 1995.24,-487.33"/>
<text text-anchor="middle" x="2111.5" y="-492" font-family="Helvetica,sans-Serif" font-size="10.00"> metrics_lock</text>
</g>
<!-- Node24&#45;&gt;Node5 -->
<g id="edge31" class="edge">
<title>Node24&#45;&gt;Node5</title>
<path fill="none" stroke="#9a32cd" stroke-dasharray="5,2" d="M1879.27,-259.3C1963.66,-258.09 2088.11,-263.28 2191,-296 2212.13,-302.72 2234.38,-314.44 2250.59,-323.94"/>
<polygon fill="#9a32cd" stroke="#9a32cd" points="1879.11,-255.8 1869.18,-259.47 1879.24,-262.8 1879.11,-255.8"/>
<text text-anchor="middle" x="1950.5" y="-266" font-family="Helvetica,sans-Serif" font-size="10.00"> metrics</text>
</g>
<!-- Node25 -->
<g id="node25" class="node">
<title>Node25</title>
<g id="a_node25"><a xlink:href="classkv_1_1Consensus.html" target="_top" xlink:title=" ">
<polygon fill="white" stroke="black" points="1907.5,-443.5 1907.5,-462.5 1993.5,-462.5 1993.5,-443.5 1907.5,-443.5"/>
<text text-anchor="middle" x="1950.5" y="-450.5" font-family="Helvetica,sans-Serif" font-size="10.00">kv::Consensus</text>
</a>
</g>
</g>
<!-- Node25&#45;&gt;Node5 -->
<g id="edge33" class="edge">
<title>Node25&#45;&gt;Node5</title>
<path fill="none" stroke="#9a32cd" stroke-dasharray="5,2" d="M2003.99,-452.04C2064.37,-450.19 2159.25,-444.78 2191,-429 2224.97,-412.11 2252.07,-375.2 2265.43,-354.27"/>
<polygon fill="#9a32cd" stroke="#9a32cd" points="2003.78,-448.54 1993.88,-452.32 2003.98,-455.54 2003.78,-448.54"/>
<text text-anchor="middle" x="2111.5" y="-453" font-family="Helvetica,sans-Serif" font-size="10.00"> consensus</text>
</g>
<!-- Node26 -->
<g id="node26" class="node">
<title>Node26</title>
<g id="a_node26"><a xlink:href="classkv_1_1ConfigurableConsensus.html" target="_top" xlink:title=" ">
<polygon fill="white" stroke="black" points="1527,-443.5 1527,-462.5 1675,-462.5 1675,-443.5 1527,-443.5"/>
<text text-anchor="middle" x="1601" y="-450.5" font-family="Helvetica,sans-Serif" font-size="10.00">kv::ConfigurableConsensus</text>
</a>
</g>
</g>
<!-- Node26&#45;&gt;Node25 -->
<g id="edge34" class="edge">
<title>Node26&#45;&gt;Node25</title>
<path fill="none" stroke="midnightblue" d="M1685.4,-453C1755.42,-453 1852.57,-453 1907.41,-453"/>
<polygon fill="midnightblue" stroke="midnightblue" points="1685.27,-449.5 1675.27,-453 1685.27,-456.5 1685.27,-449.5"/>
</g>
<!-- Node27 -->
<g id="node27" class="node">
<title>Node27</title>
<g id="a_node27"><a xlink:href="classkv_1_1TxHistory.html" target="_top" xlink:title=" ">
<polygon fill="white" stroke="black" points="1910,-291.5 1910,-310.5 1991,-310.5 1991,-291.5 1910,-291.5"/>
<text text-anchor="middle" x="1950.5" y="-298.5" font-family="Helvetica,sans-Serif" font-size="10.00">kv::TxHistory</text>
</a>
</g>
</g>
<!-- Node27&#45;&gt;Node5 -->
<g id="edge35" class="edge">
<title>Node27&#45;&gt;Node5</title>
<path fill="none" stroke="#9a32cd" stroke-dasharray="5,2" d="M2001.51,-300.29C2050.23,-300.4 2126.22,-302.71 2191,-314 2204.27,-316.31 2218.4,-320.04 2231.2,-323.92"/>
<polygon fill="#9a32cd" stroke="#9a32cd" points="2001.23,-296.79 1991.24,-300.3 2001.24,-303.79 2001.23,-296.79"/>
<text text-anchor="middle" x="2111.5" y="-317" font-family="Helvetica,sans-Serif" font-size="10.00"> history</text>
</g>
<!-- Node28 -->
<g id="node28" class="node">
<title>Node28</title>
<g id="a_node28"><a xlink:href="structccfapp_1_1AbstractNodeContext.html" target="_top" xlink:title=" ">
<polygon fill="white" stroke="black" points="2032,-513.5 2032,-532.5 2191,-532.5 2191,-513.5 2032,-513.5"/>
<text text-anchor="middle" x="2111.5" y="-520.5" font-family="Helvetica,sans-Serif" font-size="10.00">ccfapp::AbstractNodeContext</text>
</a>
</g>
</g>
<!-- Node28&#45;&gt;Node4 -->
<g id="edge36" class="edge">
<title>Node28&#45;&gt;Node4</title>
<path fill="none" stroke="#9a32cd" stroke-dasharray="5,2" d="M2163.2,-511.02C2172.47,-508.75 2182.04,-506.35 2191,-504 2272.65,-482.6 2368.06,-454.97 2416.96,-440.61"/>
<polygon fill="#9a32cd" stroke="#9a32cd" points="2162.21,-507.67 2153.32,-513.43 2163.86,-514.47 2162.21,-507.67"/>
<text text-anchor="middle" x="2275.5" y="-502" font-family="Helvetica,sans-Serif" font-size="10.00"> context</text>
</g>
<!-- Node29&#45;&gt;Node28 -->
<g id="edge37" class="edge">
<title>Node29&#45;&gt;Node28</title>
<path fill="none" stroke="#9a32cd" stroke-dasharray="5,2" d="M670.29,-524.54C733.98,-526.68 820.62,-529 897,-529 897,-529 897,-529 1782,-529 1867.42,-529 1965.31,-526.95 2031.85,-525.24"/>
<polygon fill="#9a32cd" stroke="#9a32cd" points="670.39,-521.04 660.27,-524.2 670.15,-528.04 670.39,-521.04"/>
<text text-anchor="middle" x="1232" y="-532" font-family="Helvetica,sans-Serif" font-size="10.00"> subsystems</text>
</g>
<!-- Node30 -->
<g id="node30" class="node">
<title>Node30</title>
<g id="a_node30"><a xlink:title=" ">
<polygon fill="white" stroke="black" points="210,-506 210,-536 365,-536 365,-506 210,-506"/>
<text text-anchor="start" x="218" y="-524" font-family="Helvetica,sans-Serif" font-size="10.00">std::shared_ptr&lt; ccf</text>
<text text-anchor="middle" x="287.5" y="-513" font-family="Helvetica,sans-Serif" font-size="10.00">::AbstractNodeSubSystem &gt;</text>
</a>
</g>
</g>
<!-- Node30&#45;&gt;Node29 -->
<g id="edge39" class="edge">
<title>Node30&#45;&gt;Node29</title>
<path fill="none" stroke="#9a32cd" stroke-dasharray="5,2" d="M375.58,-521C413.11,-521 456.78,-521 493.75,-521"/>
<polygon fill="#9a32cd" stroke="#9a32cd" points="375.17,-517.5 365.17,-521 375.17,-524.5 375.17,-517.5"/>
<text text-anchor="middle" x="428.5" y="-524" font-family="Helvetica,sans-Serif" font-size="10.00"> elements</text>
</g>
<!-- Node31 -->
<g id="node31" class="node">
<title>Node31</title>
<g id="a_node31"><a xlink:href="classccf_1_1AbstractNodeSubSystem.html" target="_top" xlink:title=" ">
<polygon fill="white" stroke="black" points="0,-511.5 0,-530.5 157,-530.5 157,-511.5 0,-511.5"/>
<text text-anchor="middle" x="78.5" y="-518.5" font-family="Helvetica,sans-Serif" font-size="10.00">ccf::AbstractNodeSubSystem</text>
</a>
</g>
</g>
<!-- Node31&#45;&gt;Node30 -->
<g id="edge40" class="edge">
<title>Node31&#45;&gt;Node30</title>
<path fill="none" stroke="#9a32cd" stroke-dasharray="5,2" d="M167.35,-521C181.46,-521 195.96,-521 209.77,-521"/>
<polygon fill="#9a32cd" stroke="#9a32cd" points="167.17,-517.5 157.17,-521 167.17,-524.5 167.17,-517.5"/>
<text text-anchor="middle" x="183.5" y="-524" font-family="Helvetica,sans-Serif" font-size="10.00"> ptr</text>
</g>
</g>
</svg>
        <g id="navigator" transform="translate(0 0)" fill="#404254">
                <rect fill="#f2f5e9" fill-opacity="0.5" stroke="#606060" stroke-width=".5" x="0" y="0" width="60" height="60"/>
                <use id="zoomplus" xlink:href="#zoomPlus" x="17" y="9" onmousedown="handleZoom(evt,'in')"/>
                <use id="zoomminus" xlink:href="#zoomMin" x="42" y="9" onmousedown="handleZoom(evt,'out')"/>
                <use id="reset" xlink:href="#resetDef" x="30" y="36" onmousedown="handleReset()"/>
                <g id="arrowUp" xlink:href="#dirArrow" transform="translate(30 24)" onmousedown="handlePan(0,-1)">
                  <use xlink:href="#rim" fill="#404040">
                        <set attributeName="fill" to="#808080" begin="arrowUp.mouseover" end="arrowUp.mouseout"/>
                  </use>
                  <path fill="none" stroke="white" stroke-width="1.5" d="M0,-3.0v7 M-2.5,-0.5L0,-3.0L2.5,-0.5"/>
                </g>
                <g id="arrowRight" xlink:href="#dirArrow" transform="rotate(90) translate(36 -43)" onmousedown="handlePan(1,0)">
                  <use xlink:href="#rim" fill="#404040">
                        <set attributeName="fill" to="#808080" begin="arrowRight.mouseover" end="arrowRight.mouseout"/>
                  </use>
                  <path fill="none" stroke="white" stroke-width="1.5" d="M0,-3.0v7 M-2.5,-0.5L0,-3.0L2.5,-0.5"/>
                </g>
                <g id="arrowDown" xlink:href="#dirArrow" transform="rotate(180) translate(-30 -48)" onmousedown="handlePan(0,1)">
                  <use xlink:href="#rim" fill="#404040">
                        <set attributeName="fill" to="#808080" begin="arrowDown.mouseover" end="arrowDown.mouseout"/>
                  </use>
                  <path fill="none" stroke="white" stroke-width="1.5" d="M0,-3.0v7 M-2.5,-0.5L0,-3.0L2.5,-0.5"/>
                </g>
                <g id="arrowLeft" xlink:href="#dirArrow" transform="rotate(270) translate(-36 17)" onmousedown="handlePan(-1,0)">
                  <use xlink:href="#rim" fill="#404040">
                        <set attributeName="fill" to="#808080" begin="arrowLeft.mouseover" end="arrowLeft.mouseout"/>
                  </use>
                  <path fill="none" stroke="white" stroke-width="1.5" d="M0,-3.0v7 M-2.5,-0.5L0,-3.0L2.5,-0.5"/>
                </g>
        </g>
        <svg viewBox="0 0 15 15" width="100%" height="30px" preserveAspectRatio="xMaxYMin meet">
         <g id="arrow_out" transform="scale(0.3 0.3)">
          <a xlink:href="classccfapp_1_1TpccHandlers__coll__graph_org.svg" target="_base">
           <rect id="button" ry="5" rx="5" y="6" x="6" height="38" width="38"
                fill="#f2f5e9" fill-opacity="0.5" stroke="#606060" stroke-width="1.0"/>
           <path id="arrow"
             d="M 11.500037,31.436501 C 11.940474,20.09759 22.043105,11.32322 32.158766,21.979434 L 37.068811,17.246167 C 37.068811,17.246167 37.088388,32 37.088388,32 L 22.160133,31.978069 C 22.160133,31.978069 26.997745,27.140456 26.997745,27.140456 C 18.528582,18.264221 13.291696,25.230495 11.500037,31.436501 z"
             style="fill:#404040;"/>
          </a>
         </g>
        </svg>
</svg>
