<?xml version="1.0" encoding="UTF-8" standalone="no"?>
<!DOCTYPE svg PUBLIC "-//W3C//DTD SVG 1.1//EN"
 "http://www.w3.org/Graphics/SVG/1.1/DTD/svg11.dtd">
<!-- Generated by graphviz version 2.43.0 (0)
 -->
<!-- Title: kv::untyped::Map::HandleCommitter Pages: 1 -->
<!--zoomable 263 -->
<svg id="main" version="1.1" xmlns="http://www.w3.org/2000/svg" xmlns:xlink="http://www.w3.org/1999/xlink" xml:space="preserve" onload="init(evt)">
<style type="text/css"><![CDATA[
.edge:hover path { stroke: red; }
.edge:hover polygon { stroke: red; fill: red; }
]]></style>
<script type="text/javascript"><![CDATA[
var edges = document.getElementsByTagName('g');
if (edges && edges.length) {
  for (var i=0;i<edges.length;i++) {
    if (edges[i].id.substr(0,4)=='edge') {
      edges[i].setAttribute('class','edge');
    }
  }
}
]]></script>
        <defs>
                <circle id="rim" cx="0" cy="0" r="7"/>
                <circle id="rim2" cx="0" cy="0" r="3.5"/>
                <g id="zoomPlus">
                        <use xlink:href="#rim" fill="#404040">
                                <set attributeName="fill" to="#808080" begin="zoomplus.mouseover" end="zoomplus.mouseout"/>
                        </use>
                        <path d="M-4,0h8M0,-4v8" fill="none" stroke="white" stroke-width="1.5" pointer-events="none"/>
                </g>
                <g id="zoomMin">
                        <use xlink:href="#rim" fill="#404040">
                                <set attributeName="fill" to="#808080" begin="zoomminus.mouseover" end="zoomminus.mouseout"/>
                        </use>
                        <path d="M-4,0h8" fill="none" stroke="white" stroke-width="1.5" pointer-events="none"/>
                </g>
                <g id="dirArrow">
                        <path fill="none" stroke="white" stroke-width="1.5" d="M0,-3.0v7 M-2.5,-0.5L0,-3.0L2.5,-0.5"/>
                </g>
               <g id="resetDef">
                       <use xlink:href="#rim2" fill="#404040">
                               <set attributeName="fill" to="#808080" begin="reset.mouseover" end="reset.mouseout"/>
                       </use>
               </g>
        </defs>

<script type="text/javascript">
var viewWidth = 1118;
var viewHeight = 263;
var sectionId = 'dynsection-0';
</script>
<script xlink:href="svgpan.js"/>
<svg id="graph" class="graph">
<g id="viewport">
<title>kv::untyped::Map::HandleCommitter</title>
<polygon fill="white" stroke="transparent" points="-4,4 -4,-259 1114,-259 1114,4 -4,4"/>
<!-- Node1 -->
<g id="node1" class="node">
<title>Node1</title>
<g id="a_node1"><a xlink:title=" ">
<polygon fill="#bfbfbf" stroke="black" points="969,-176.5 969,-206.5 1110,-206.5 1110,-176.5 969,-176.5"/>
<text text-anchor="start" x="977" y="-194.5" font-family="Helvetica,sans-Serif" font-size="10.00">kv::untyped::Map::Handle</text>
<text text-anchor="middle" x="1039.5" y="-183.5" font-family="Helvetica,sans-Serif" font-size="10.00">Committer</text>
</a>
</g>
</g>
<!-- Node2 -->
<g id="node2" class="node">
<title>Node2</title>
<g id="a_node2"><a xlink:href="classkv_1_1AbstractCommitter.html" target="_top" xlink:title=" ">
<polygon fill="white" stroke="black" points="744.5,-220 744.5,-239 871.5,-239 871.5,-220 744.5,-220"/>
<text text-anchor="middle" x="808" y="-227" font-family="Helvetica,sans-Serif" font-size="10.00">kv::AbstractCommitter</text>
</a>
</g>
</g>
<!-- Node2&#45;&gt;Node1 -->
<g id="edge1" class="edge">
<title>Node2&#45;&gt;Node1</title>
<path fill="none" stroke="midnightblue" d="M878.49,-218.38C901.57,-214.65 927.4,-210.43 951,-206.5 956.78,-205.54 962.77,-204.53 968.78,-203.51"/>
<polygon fill="midnightblue" stroke="midnightblue" points="877.75,-214.95 868.44,-220 878.87,-221.86 877.75,-214.95"/>
</g>
<!-- Node3 -->
<g id="node3" class="node">
<title>Node3</title>
<g id="a_node3"><a xlink:href="classkv_1_1untyped_1_1Map.html" target="_top" xlink:title=" ">
<polygon fill="white" stroke="black" points="757.5,-182 757.5,-201 858.5,-201 858.5,-182 757.5,-182"/>
<text text-anchor="middle" x="808" y="-189" font-family="Helvetica,sans-Serif" font-size="10.00">kv::untyped::Map</text>
</a>
</g>
</g>
<!-- Node3&#45;&gt;Node1 -->
<g id="edge2" class="edge">
<title>Node3&#45;&gt;Node1</title>
<path fill="none" stroke="#9a32cd" stroke-dasharray="5,2" d="M868.61,-191.5C899.21,-191.5 936.66,-191.5 968.61,-191.5"/>
<polygon fill="#9a32cd" stroke="#9a32cd" points="868.52,-188 858.52,-191.5 868.52,-195 868.52,-188"/>
<text text-anchor="middle" x="921.5" y="-194.5" font-family="Helvetica,sans-Serif" font-size="10.00"> map</text>
</g>
<!-- Node4 -->
<g id="node4" class="node">
<title>Node4</title>
<g id="a_node4"><a xlink:href="classkv_1_1AbstractMap.html" target="_top" xlink:title=" ">
<polygon fill="white" stroke="black" points="520.5,-208 520.5,-227 615.5,-227 615.5,-208 520.5,-208"/>
<text text-anchor="middle" x="568" y="-215" font-family="Helvetica,sans-Serif" font-size="10.00">kv::AbstractMap</text>
</a>
</g>
</g>
<!-- Node4&#45;&gt;Node3 -->
<g id="edge3" class="edge">
<title>Node4&#45;&gt;Node3</title>
<path fill="none" stroke="midnightblue" d="M625.89,-211.28C665.99,-206.9 719.16,-201.1 757.5,-196.91"/>
<polygon fill="midnightblue" stroke="midnightblue" points="625.3,-207.83 615.74,-212.39 626.06,-214.79 625.3,-207.83"/>
</g>
<!-- Node5 -->
<g id="node5" class="node">
<title>Node5</title>
<g id="a_node5"><a xlink:title=" ">
<polygon fill="white" stroke="black" points="273,-224.5 273,-254.5 425,-254.5 425,-224.5 273,-224.5"/>
<text text-anchor="start" x="281" y="-242.5" font-family="Helvetica,sans-Serif" font-size="10.00">std::enable_shared</text>
<text text-anchor="middle" x="349" y="-231.5" font-family="Helvetica,sans-Serif" font-size="10.00">_from_this&lt; AbstractMap &gt;</text>
</a>
</g>
</g>
<!-- Node5&#45;&gt;Node4 -->
<g id="edge4" class="edge">
<title>Node5&#45;&gt;Node4</title>
<path fill="none" stroke="midnightblue" d="M435.4,-230.84C464.32,-227.91 495.53,-224.75 520.29,-222.24"/>
<polygon fill="midnightblue" stroke="midnightblue" points="434.88,-227.38 425.29,-231.87 435.59,-234.34 434.88,-227.38"/>
</g>
<!-- Node6 -->
<g id="node6" class="node">
<title>Node6</title>
<g id="a_node6"><a xlink:href="structkv_1_1GetName.html" target="_top" xlink:title=" ">
<polygon fill="white" stroke="black" points="309,-186 309,-205 389,-205 389,-186 309,-186"/>
<text text-anchor="middle" x="349" y="-193" font-family="Helvetica,sans-Serif" font-size="10.00">kv::GetName</text>
</a>
</g>
</g>
<!-- Node6&#45;&gt;Node4 -->
<g id="edge5" class="edge">
<title>Node6&#45;&gt;Node4</title>
<path fill="none" stroke="midnightblue" d="M399.4,-200.51C435.7,-204.19 484.71,-209.16 520.34,-212.77"/>
<polygon fill="midnightblue" stroke="midnightblue" points="399.35,-196.99 389.05,-199.46 398.64,-203.95 399.35,-196.99"/>
</g>
<!-- Node7 -->
<g id="node7" class="node">
<title>Node7</title>
<g id="a_node7"><a xlink:title=" ">
<polygon fill="white" stroke="black" points="141,-186 141,-205 206,-205 206,-186 141,-186"/>
<text text-anchor="middle" x="173.5" y="-193" font-family="Helvetica,sans-Serif" font-size="10.00">std::string</text>
</a>
</g>
</g>
<!-- Node7&#45;&gt;Node6 -->
<g id="edge6" class="edge">
<title>Node7&#45;&gt;Node6</title>
<path fill="none" stroke="#9a32cd" stroke-dasharray="5,2" d="M216.62,-195.5C244.69,-195.5 281.33,-195.5 308.78,-195.5"/>
<polygon fill="#9a32cd" stroke="#9a32cd" points="216.32,-192 206.32,-195.5 216.32,-199 216.32,-192"/>
<text text-anchor="middle" x="239.5" y="-198.5" font-family="Helvetica,sans-Serif" font-size="10.00"> name</text>
</g>
<!-- Node8 -->
<g id="node8" class="node">
<title>Node8</title>
<g id="a_node8"><a xlink:title=" ">
<polygon fill="white" stroke="black" points="0,-180.5 0,-210.5 104,-210.5 104,-180.5 0,-180.5"/>
<text text-anchor="start" x="8" y="-198.5" font-family="Helvetica,sans-Serif" font-size="10.00">std::basic_string&lt;</text>
<text text-anchor="middle" x="52" y="-187.5" font-family="Helvetica,sans-Serif" font-size="10.00"> Char &gt;</text>
</a>
</g>
</g>
<!-- Node8&#45;&gt;Node7 -->
<g id="edge7" class="edge">
<title>Node8&#45;&gt;Node7</title>
<path fill="none" stroke="midnightblue" d="M114.1,-195.5C123.41,-195.5 132.68,-195.5 141,-195.5"/>
<polygon fill="midnightblue" stroke="midnightblue" points="114.03,-192 104.03,-195.5 114.03,-199 114.03,-192"/>
</g>
<!-- Node9 -->
<g id="node9" class="node">
<title>Node9</title>
<g id="a_node9"><a xlink:href="structkv_1_1untyped_1_1ChangeSet.html" target="_top" xlink:title=" ">
<polygon fill="white" stroke="black" points="742,-132 742,-151 874,-151 874,-132 742,-132"/>
<text text-anchor="middle" x="808" y="-139" font-family="Helvetica,sans-Serif" font-size="10.00">kv::untyped::ChangeSet</text>
</a>
</g>
</g>
<!-- Node9&#45;&gt;Node1 -->
<g id="edge8" class="edge">
<title>Node9&#45;&gt;Node1</title>
<path fill="none" stroke="#9a32cd" stroke-dasharray="5,2" d="M862.7,-153.2C894.47,-160.12 935.06,-168.96 969.23,-176.41"/>
<polygon fill="#9a32cd" stroke="#9a32cd" points="863.22,-149.73 852.71,-151.02 861.73,-156.57 863.22,-149.73"/>
<text text-anchor="middle" x="921.5" y="-173.5" font-family="Helvetica,sans-Serif" font-size="10.00"> change_set</text>
</g>
<!-- Node10 -->
<g id="node10" class="node">
<title>Node10</title>
<g id="a_node10"><a xlink:href="classkv_1_1AbstractChangeSet.html" target="_top" xlink:title=" ">
<polygon fill="white" stroke="black" points="504.5,-170 504.5,-189 631.5,-189 631.5,-170 504.5,-170"/>
<text text-anchor="middle" x="568" y="-177" font-family="Helvetica,sans-Serif" font-size="10.00">kv::AbstractChangeSet</text>
</a>
</g>
</g>
<!-- Node10&#45;&gt;Node9 -->
<g id="edge9" class="edge">
<title>Node10&#45;&gt;Node9</title>
<path fill="none" stroke="midnightblue" d="M641.79,-175.81C667.87,-173.73 697.39,-170.5 724,-165.5 742.57,-162.01 762.97,-156.14 778.9,-151.08"/>
<polygon fill="midnightblue" stroke="midnightblue" points="641.31,-172.34 631.6,-176.58 641.83,-179.32 641.31,-172.34"/>
</g>
<!-- Node11 -->
<g id="node11" class="node">
<title>Node11</title>
<g id="a_node11"><a xlink:href="classchamp_1_1Map.html" target="_top" xlink:title=" ">
<polygon fill="white" stroke="black" points="502,-132 502,-151 634,-151 634,-132 502,-132"/>
<text text-anchor="middle" x="568" y="-139" font-family="Helvetica,sans-Serif" font-size="10.00">champ::Map&lt; K, V, H &gt;</text>
</a>
</g>
</g>
<!-- Node11&#45;&gt;Node9 -->
<g id="edge10" class="edge">
<title>Node11&#45;&gt;Node9</title>
<path fill="none" stroke="#9a32cd" stroke-dasharray="5,2" d="M644.43,-141.5C675.66,-141.5 711.54,-141.5 741.63,-141.5"/>
<polygon fill="#9a32cd" stroke="#9a32cd" points="644.03,-138 634.03,-141.5 644.03,-145 644.03,-138"/>
<text text-anchor="middle" x="695.5" y="-155.5" font-family="Helvetica,sans-Serif" font-size="10.00"> committed</text>
<text text-anchor="middle" x="695.5" y="-144.5" font-family="Helvetica,sans-Serif" font-size="10.00">state</text>
</g>
<!-- Node12 -->
<g id="node12" class="node">
<title>Node12</title>
<g id="a_node12"><a xlink:title=" ">
<polygon fill="white" stroke="black" points="487,-72 487,-113 649,-113 649,-72 487,-72"/>
<text text-anchor="start" x="495" y="-101" font-family="Helvetica,sans-Serif" font-size="10.00">std::map&lt; K, std::tuple</text>
<text text-anchor="start" x="495" y="-90" font-family="Helvetica,sans-Serif" font-size="10.00">&lt; DeletableVersion, LastRead</text>
<text text-anchor="middle" x="568" y="-79" font-family="Helvetica,sans-Serif" font-size="10.00">Version &gt; &gt;</text>
</a>
</g>
</g>
<!-- Node12&#45;&gt;Node9 -->
<g id="edge11" class="edge">
<title>Node12&#45;&gt;Node9</title>
<path fill="none" stroke="#9a32cd" stroke-dasharray="5,2" d="M659.37,-111.11C693.95,-118.22 731.95,-126.05 760.74,-131.98"/>
<polygon fill="#9a32cd" stroke="#9a32cd" points="659.74,-107.61 649.24,-109.02 658.33,-114.47 659.74,-107.61"/>
<text text-anchor="middle" x="695.5" y="-126.5" font-family="Helvetica,sans-Serif" font-size="10.00"> reads</text>
</g>
<!-- Node13 -->
<g id="node13" class="node">
<title>Node13</title>
<g id="a_node13"><a xlink:title=" ">
<polygon fill="white" stroke="black" points="334.5,-83 334.5,-102 363.5,-102 363.5,-83 334.5,-83"/>
<text text-anchor="middle" x="349" y="-90" font-family="Helvetica,sans-Serif" font-size="10.00">K</text>
</a>
</g>
</g>
<!-- Node13&#45;&gt;Node12 -->
<g id="edge12" class="edge">
<title>Node13&#45;&gt;Node12</title>
<path fill="none" stroke="#9a32cd" stroke-dasharray="5,2" d="M373.63,-92.5C400.71,-92.5 446.53,-92.5 486.77,-92.5"/>
<polygon fill="#9a32cd" stroke="#9a32cd" points="373.57,-89 363.57,-92.5 373.57,-96 373.57,-89"/>
<text text-anchor="middle" x="456" y="-95.5" font-family="Helvetica,sans-Serif" font-size="10.00"> keys</text>
</g>
<!-- Node14 -->
<g id="node14" class="node">
<title>Node14</title>
<g id="a_node14"><a xlink:title=" ">
<polygon fill="white" stroke="black" points="497.5,-0.5 497.5,-52.5 638.5,-52.5 638.5,-0.5 497.5,-0.5"/>
<text text-anchor="start" x="505.5" y="-40.5" font-family="Helvetica,sans-Serif" font-size="10.00">std::map&lt; kv::serialisers</text>
<text text-anchor="start" x="505.5" y="-29.5" font-family="Helvetica,sans-Serif" font-size="10.00">::SerialisedEntry, std</text>
<text text-anchor="start" x="505.5" y="-18.5" font-family="Helvetica,sans-Serif" font-size="10.00">::optional&lt; kv::serialisers</text>
<text text-anchor="middle" x="568" y="-7.5" font-family="Helvetica,sans-Serif" font-size="10.00">::SerialisedEntry &gt; &gt;</text>
</a>
</g>
</g>
<!-- Node14&#45;&gt;Node9 -->
<g id="edge13" class="edge">
<title>Node14&#45;&gt;Node9</title>
<path fill="none" stroke="#9a32cd" stroke-dasharray="5,2" d="M636.75,-56.85C640.9,-58.75 645.01,-60.64 649,-62.5 682.53,-78.09 690.91,-81.99 724,-98.5 746.51,-109.73 772.19,-123.12 788.95,-131.95"/>
<polygon fill="#9a32cd" stroke="#9a32cd" points="638.17,-53.65 627.62,-52.68 635.27,-60.02 638.17,-53.65"/>
<text text-anchor="middle" x="695.5" y="-101.5" font-family="Helvetica,sans-Serif" font-size="10.00"> writes</text>
</g>
</g>
</svg>
        <g id="navigator" transform="translate(0 0)" fill="#404254">
                <rect fill="#f2f5e9" fill-opacity="0.5" stroke="#606060" stroke-width=".5" x="0" y="0" width="60" height="60"/>
                <use id="zoomplus" xlink:href="#zoomPlus" x="17" y="9" onmousedown="handleZoom(evt,'in')"/>
                <use id="zoomminus" xlink:href="#zoomMin" x="42" y="9" onmousedown="handleZoom(evt,'out')"/>
                <use id="reset" xlink:href="#resetDef" x="30" y="36" onmousedown="handleReset()"/>
                <g id="arrowUp" xlink:href="#dirArrow" transform="translate(30 24)" onmousedown="handlePan(0,-1)">
                  <use xlink:href="#rim" fill="#404040">
                        <set attributeName="fill" to="#808080" begin="arrowUp.mouseover" end="arrowUp.mouseout"/>
                  </use>
                  <path fill="none" stroke="white" stroke-width="1.5" d="M0,-3.0v7 M-2.5,-0.5L0,-3.0L2.5,-0.5"/>
                </g>
                <g id="arrowRight" xlink:href="#dirArrow" transform="rotate(90) translate(36 -43)" onmousedown="handlePan(1,0)">
                  <use xlink:href="#rim" fill="#404040">
                        <set attributeName="fill" to="#808080" begin="arrowRight.mouseover" end="arrowRight.mouseout"/>
                  </use>
                  <path fill="none" stroke="white" stroke-width="1.5" d="M0,-3.0v7 M-2.5,-0.5L0,-3.0L2.5,-0.5"/>
                </g>
                <g id="arrowDown" xlink:href="#dirArrow" transform="rotate(180) translate(-30 -48)" onmousedown="handlePan(0,1)">
                  <use xlink:href="#rim" fill="#404040">
                        <set attributeName="fill" to="#808080" begin="arrowDown.mouseover" end="arrowDown.mouseout"/>
                  </use>
                  <path fill="none" stroke="white" stroke-width="1.5" d="M0,-3.0v7 M-2.5,-0.5L0,-3.0L2.5,-0.5"/>
                </g>
                <g id="arrowLeft" xlink:href="#dirArrow" transform="rotate(270) translate(-36 17)" onmousedown="handlePan(-1,0)">
                  <use xlink:href="#rim" fill="#404040">
                        <set attributeName="fill" to="#808080" begin="arrowLeft.mouseover" end="arrowLeft.mouseout"/>
                  </use>
                  <path fill="none" stroke="white" stroke-width="1.5" d="M0,-3.0v7 M-2.5,-0.5L0,-3.0L2.5,-0.5"/>
                </g>
        </g>
        <svg viewBox="0 0 15 15" width="100%" height="30px" preserveAspectRatio="xMaxYMin meet">
         <g id="arrow_out" transform="scale(0.3 0.3)">
          <a xlink:href="classkv_1_1untyped_1_1Map_1_1HandleCommitter__coll__graph_org.svg" target="_base">
           <rect id="button" ry="5" rx="5" y="6" x="6" height="38" width="38"
                fill="#f2f5e9" fill-opacity="0.5" stroke="#606060" stroke-width="1.0"/>
           <path id="arrow"
             d="M 11.500037,31.436501 C 11.940474,20.09759 22.043105,11.32322 32.158766,21.979434 L 37.068811,17.246167 C 37.068811,17.246167 37.088388,32 37.088388,32 L 22.160133,31.978069 C 22.160133,31.978069 26.997745,27.140456 26.997745,27.140456 C 18.528582,18.264221 13.291696,25.230495 11.500037,31.436501 z"
             style="fill:#404040;"/>
          </a>
         </g>
        </svg>
</svg>
