<?xml version="1.0" encoding="UTF-8" standalone="no"?>
<!DOCTYPE svg PUBLIC "-//W3C//DTD SVG 1.1//EN"
 "http://www.w3.org/Graphics/SVG/1.1/DTD/svg11.dtd">
<!-- Generated by graphviz version 2.43.0 (0)
 -->
<!-- Title: ccf::historical::StateCacheImpl Pages: 1 -->
<!--zoomable 397 -->
<svg id="main" version="1.1" xmlns="http://www.w3.org/2000/svg" xmlns:xlink="http://www.w3.org/1999/xlink" xml:space="preserve" onload="init(evt)">
<style type="text/css"><![CDATA[
.edge:hover path { stroke: red; }
.edge:hover polygon { stroke: red; fill: red; }
]]></style>
<script type="text/javascript"><![CDATA[
var edges = document.getElementsByTagName('g');
if (edges && edges.length) {
  for (var i=0;i<edges.length;i++) {
    if (edges[i].id.substr(0,4)=='edge') {
      edges[i].setAttribute('class','edge');
    }
  }
}
]]></script>
        <defs>
                <circle id="rim" cx="0" cy="0" r="7"/>
                <circle id="rim2" cx="0" cy="0" r="3.5"/>
                <g id="zoomPlus">
                        <use xlink:href="#rim" fill="#404040">
                                <set attributeName="fill" to="#808080" begin="zoomplus.mouseover" end="zoomplus.mouseout"/>
                        </use>
                        <path d="M-4,0h8M0,-4v8" fill="none" stroke="white" stroke-width="1.5" pointer-events="none"/>
                </g>
                <g id="zoomMin">
                        <use xlink:href="#rim" fill="#404040">
                                <set attributeName="fill" to="#808080" begin="zoomminus.mouseover" end="zoomminus.mouseout"/>
                        </use>
                        <path d="M-4,0h8" fill="none" stroke="white" stroke-width="1.5" pointer-events="none"/>
                </g>
                <g id="dirArrow">
                        <path fill="none" stroke="white" stroke-width="1.5" d="M0,-3.0v7 M-2.5,-0.5L0,-3.0L2.5,-0.5"/>
                </g>
               <g id="resetDef">
                       <use xlink:href="#rim2" fill="#404040">
                               <set attributeName="fill" to="#808080" begin="reset.mouseover" end="reset.mouseout"/>
                       </use>
               </g>
        </defs>

<script type="text/javascript">
var viewWidth = 2187;
var viewHeight = 397;
var sectionId = 'dynsection-0';
</script>
<script xlink:href="svgpan.js"/>
<svg id="graph" class="graph">
<g id="viewport">
<title>ccf::historical::StateCacheImpl</title>
<polygon fill="white" stroke="transparent" points="-4,4 -4,-392.5 2183,-392.5 2183,4 -4,4"/>
<!-- Node1 -->
<g id="node1" class="node">
<title>Node1</title>
<g id="a_node1"><a xlink:title=" ">
<polygon fill="#bfbfbf" stroke="black" points="2015,-185 2015,-204 2179,-204 2179,-185 2015,-185"/>
<text text-anchor="middle" x="2097" y="-192" font-family="Helvetica,sans-Serif" font-size="10.00">ccf::historical::StateCacheImpl</text>
</a>
</g>
</g>
<!-- Node2 -->
<g id="node2" class="node">
<title>Node2</title>
<g id="a_node2"><a xlink:href="classkv_1_1Store.html" target="_top" xlink:title=" ">
<polygon fill="white" stroke="black" points="1741,-278 1741,-297 1800,-297 1800,-278 1741,-278"/>
<text text-anchor="middle" x="1770.5" y="-285" font-family="Helvetica,sans-Serif" font-size="10.00">kv::Store</text>
</a>
</g>
</g>
<!-- Node2&#45;&gt;Node1 -->
<g id="edge1" class="edge">
<title>Node2&#45;&gt;Node1</title>
<path fill="none" stroke="#9a32cd" stroke-dasharray="5,2" d="M1810.23,-286.19C1856.05,-283.62 1934.06,-276.02 1997,-253.5 2030.72,-241.44 2065.69,-217.4 2083.67,-204.03"/>
<polygon fill="#9a32cd" stroke="#9a32cd" points="1809.94,-282.7 1800.13,-286.7 1810.29,-289.69 1809.94,-282.7"/>
<text text-anchor="middle" x="1934.5" y="-282.5" font-family="Helvetica,sans-Serif" font-size="10.00"> source_store</text>
</g>
<!-- Node3 -->
<g id="node3" class="node">
<title>Node3</title>
<g id="a_node3"><a xlink:href="classkv_1_1AbstractStore.html" target="_top" xlink:title=" ">
<polygon fill="white" stroke="black" points="1456,-224 1456,-243 1556,-243 1556,-224 1456,-224"/>
<text text-anchor="middle" x="1506" y="-231" font-family="Helvetica,sans-Serif" font-size="10.00">kv::AbstractStore</text>
</a>
</g>
</g>
<!-- Node3&#45;&gt;Node2 -->
<g id="edge2" class="edge">
<title>Node3&#45;&gt;Node2</title>
<path fill="none" stroke="midnightblue" d="M1563.18,-245.06C1617.65,-256.26 1698.12,-272.82 1740.67,-281.57"/>
<polygon fill="midnightblue" stroke="midnightblue" points="1563.83,-241.62 1553.33,-243.03 1562.42,-248.47 1563.83,-241.62"/>
</g>
<!-- Node4 -->
<g id="node4" class="node">
<title>Node4</title>
<g id="a_node4"><a xlink:href="classkv_1_1StoreState.html" target="_top" xlink:title=" ">
<polygon fill="white" stroke="black" points="1463.5,-300 1463.5,-319 1548.5,-319 1548.5,-300 1463.5,-300"/>
<text text-anchor="middle" x="1506" y="-307" font-family="Helvetica,sans-Serif" font-size="10.00">kv::StoreState</text>
</a>
</g>
</g>
<!-- Node4&#45;&gt;Node2 -->
<g id="edge3" class="edge">
<title>Node4&#45;&gt;Node2</title>
<path fill="none" stroke="midnightblue" d="M1558.74,-305.16C1613.19,-300.6 1696.94,-293.58 1740.67,-289.92"/>
<polygon fill="midnightblue" stroke="midnightblue" points="1558.27,-301.69 1548.59,-306.01 1558.85,-308.67 1558.27,-301.69"/>
</g>
<!-- Node5 -->
<g id="node5" class="node">
<title>Node5</title>
<g id="a_node5"><a xlink:title=" ">
<polygon fill="white" stroke="black" points="1138.5,-359 1138.5,-378 1207.5,-378 1207.5,-359 1138.5,-359"/>
<text text-anchor="middle" x="1173" y="-366" font-family="Helvetica,sans-Serif" font-size="10.00">std::mutex</text>
</a>
</g>
</g>
<!-- Node5&#45;&gt;Node1 -->
<g id="edge17" class="edge">
<title>Node5&#45;&gt;Node1</title>
<path fill="none" stroke="#9a32cd" stroke-dasharray="5,2" d="M1217.71,-371.75C1234.66,-372.86 1254.22,-373.96 1272,-374.5 1335.08,-376.43 1350.91,-376.02 1414,-374.5 1675.46,-368.2 1765.1,-415.44 1997,-294.5 2039.89,-272.13 2075.66,-224.54 2089.66,-204.13"/>
<polygon fill="#9a32cd" stroke="#9a32cd" points="1217.75,-368.24 1207.54,-371.06 1217.28,-375.23 1217.75,-368.24"/>
<text text-anchor="middle" x="1633.5" y="-380.5" font-family="Helvetica,sans-Serif" font-size="10.00"> requests_lock</text>
</g>
<!-- Node5&#45;&gt;Node4 -->
<g id="edge4" class="edge">
<title>Node5&#45;&gt;Node4</title>
<path fill="none" stroke="#9a32cd" stroke-dasharray="5,2" d="M1214.55,-356.03C1232.09,-350.98 1252.93,-345.42 1272,-341.5 1338.39,-327.86 1416.65,-318.45 1463.47,-313.53"/>
<polygon fill="#9a32cd" stroke="#9a32cd" points="1213.26,-352.76 1204.64,-358.93 1215.22,-359.48 1213.26,-352.76"/>
<text text-anchor="middle" x="1343" y="-366.5" font-family="Helvetica,sans-Serif" font-size="10.00"> commit_lock</text>
<text text-anchor="middle" x="1343" y="-355.5" font-family="Helvetica,sans-Serif" font-size="10.00">maps_lock</text>
<text text-anchor="middle" x="1343" y="-344.5" font-family="Helvetica,sans-Serif" font-size="10.00">version_lock</text>
</g>
<!-- Node6 -->
<g id="node6" class="node">
<title>Node6</title>
<g id="a_node6"><a xlink:title=" ">
<polygon fill="white" stroke="black" points="1101.5,-281.5 1101.5,-333.5 1244.5,-333.5 1244.5,-281.5 1101.5,-281.5"/>
<text text-anchor="start" x="1109.5" y="-321.5" font-family="Helvetica,sans-Serif" font-size="10.00">std::map&lt; std::string,</text>
<text text-anchor="start" x="1109.5" y="-310.5" font-family="Helvetica,sans-Serif" font-size="10.00"> std::pair&lt; kv::Version,</text>
<text text-anchor="start" x="1109.5" y="-299.5" font-family="Helvetica,sans-Serif" font-size="10.00"> std::shared_ptr&lt; untyped</text>
<text text-anchor="middle" x="1173" y="-288.5" font-family="Helvetica,sans-Serif" font-size="10.00">::Map &gt; &gt; &gt;</text>
</a>
</g>
</g>
<!-- Node6&#45;&gt;Node4 -->
<g id="edge5" class="edge">
<title>Node6&#45;&gt;Node4</title>
<path fill="none" stroke="#9a32cd" stroke-dasharray="5,2" d="M1254.66,-307.06C1301.23,-306.91 1360.92,-306.92 1414,-307.5 1430.12,-307.68 1447.84,-308.03 1463.33,-308.39"/>
<polygon fill="#9a32cd" stroke="#9a32cd" points="1254.61,-303.56 1244.63,-307.09 1254.64,-310.56 1254.61,-303.56"/>
<text text-anchor="middle" x="1343" y="-310.5" font-family="Helvetica,sans-Serif" font-size="10.00"> maps</text>
</g>
<!-- Node7 -->
<g id="node7" class="node">
<title>Node7</title>
<g id="a_node7"><a xlink:title=" ">
<polygon fill="white" stroke="black" points="888,-298 888,-317 953,-317 953,-298 888,-298"/>
<text text-anchor="middle" x="920.5" y="-305" font-family="Helvetica,sans-Serif" font-size="10.00">std::string</text>
</a>
</g>
</g>
<!-- Node7&#45;&gt;Node6 -->
<g id="edge6" class="edge">
<title>Node7&#45;&gt;Node6</title>
<path fill="none" stroke="#9a32cd" stroke-dasharray="5,2" d="M963.32,-307.5C1000.92,-307.5 1056.91,-307.5 1101.44,-307.5"/>
<polygon fill="#9a32cd" stroke="#9a32cd" points="963.23,-304 953.23,-307.5 963.23,-311 963.23,-304"/>
<text text-anchor="middle" x="1049.5" y="-310.5" font-family="Helvetica,sans-Serif" font-size="10.00"> keys</text>
</g>
<!-- Node8 -->
<g id="node8" class="node">
<title>Node8</title>
<g id="a_node8"><a xlink:title=" ">
<polygon fill="white" stroke="black" points="565,-292.5 565,-322.5 669,-322.5 669,-292.5 565,-292.5"/>
<text text-anchor="start" x="573" y="-310.5" font-family="Helvetica,sans-Serif" font-size="10.00">std::basic_string&lt;</text>
<text text-anchor="middle" x="617" y="-299.5" font-family="Helvetica,sans-Serif" font-size="10.00"> Char &gt;</text>
</a>
</g>
</g>
<!-- Node8&#45;&gt;Node7 -->
<g id="edge7" class="edge">
<title>Node8&#45;&gt;Node7</title>
<path fill="none" stroke="midnightblue" d="M679.36,-307.5C742.45,-307.5 838.23,-307.5 887.6,-307.5"/>
<polygon fill="midnightblue" stroke="midnightblue" points="679.15,-304 669.15,-307.5 679.15,-311 679.15,-304"/>
</g>
<!-- Node9 -->
<g id="node9" class="node">
<title>Node9</title>
<g id="a_node9"><a xlink:title=" ">
<polygon fill="white" stroke="black" points="1106,-210.5 1106,-262.5 1240,-262.5 1240,-210.5 1106,-210.5"/>
<text text-anchor="start" x="1114" y="-250.5" font-family="Helvetica,sans-Serif" font-size="10.00">std::unordered_map</text>
<text text-anchor="start" x="1114" y="-239.5" font-family="Helvetica,sans-Serif" font-size="10.00">&lt; Version, std::tuple</text>
<text text-anchor="start" x="1114" y="-228.5" font-family="Helvetica,sans-Serif" font-size="10.00">&lt; std::unique_ptr&lt; kv</text>
<text text-anchor="middle" x="1173" y="-217.5" font-family="Helvetica,sans-Serif" font-size="10.00">::PendingTx &gt;, bool &gt; &gt;</text>
</a>
</g>
</g>
<!-- Node9&#45;&gt;Node4 -->
<g id="edge8" class="edge">
<title>Node9&#45;&gt;Node4</title>
<path fill="none" stroke="#9a32cd" stroke-dasharray="5,2" d="M1250.15,-253.29C1316.28,-267.88 1409.6,-288.46 1463.04,-300.25"/>
<polygon fill="#9a32cd" stroke="#9a32cd" points="1250.71,-249.83 1240.19,-251.1 1249.2,-256.67 1250.71,-249.83"/>
<text text-anchor="middle" x="1343" y="-290.5" font-family="Helvetica,sans-Serif" font-size="10.00"> pending_txs</text>
</g>
<!-- Node10 -->
<g id="node10" class="node">
<title>Node10</title>
<g id="a_node10"><a xlink:href="classkv_1_1ExecutionWrapperStore.html" target="_top" xlink:title=" ">
<polygon fill="white" stroke="black" points="1432,-262 1432,-281 1580,-281 1580,-262 1432,-262"/>
<text text-anchor="middle" x="1506" y="-269" font-family="Helvetica,sans-Serif" font-size="10.00">kv::ExecutionWrapperStore</text>
</a>
</g>
</g>
<!-- Node10&#45;&gt;Node2 -->
<g id="edge9" class="edge">
<title>Node10&#45;&gt;Node2</title>
<path fill="none" stroke="midnightblue" d="M1590.28,-276.58C1641.9,-279.72 1705,-283.57 1740.89,-285.76"/>
<polygon fill="midnightblue" stroke="midnightblue" points="1590.32,-273.07 1580.12,-275.96 1589.89,-280.06 1590.32,-273.07"/>
</g>
<!-- Node11 -->
<g id="node11" class="node">
<title>Node11</title>
<g id="a_node11"><a xlink:href="classkv_1_1ReadOnlyStore.html" target="_top" xlink:title=" ">
<polygon fill="white" stroke="black" points="1452.5,-338 1452.5,-357 1559.5,-357 1559.5,-338 1452.5,-338"/>
<text text-anchor="middle" x="1506" y="-345" font-family="Helvetica,sans-Serif" font-size="10.00">kv::ReadOnlyStore</text>
</a>
</g>
</g>
<!-- Node11&#45;&gt;Node2 -->
<g id="edge10" class="edge">
<title>Node11&#45;&gt;Node2</title>
<path fill="none" stroke="midnightblue" d="M1562.67,-335.92C1593.97,-329.3 1633.72,-320.7 1669,-312.5 1693.34,-306.84 1720.88,-299.96 1740.97,-294.85"/>
<polygon fill="midnightblue" stroke="midnightblue" points="1561.88,-332.51 1552.82,-338 1563.33,-339.36 1561.88,-332.51"/>
</g>
<!-- Node12 -->
<g id="node12" class="node">
<title>Node12</title>
<g id="a_node12"><a xlink:title=" ">
<polygon fill="white" stroke="black" points="1713,-228.5 1713,-258.5 1828,-258.5 1828,-228.5 1713,-228.5"/>
<text text-anchor="start" x="1721" y="-246.5" font-family="Helvetica,sans-Serif" font-size="10.00">std::shared_ptr&lt; ccf</text>
<text text-anchor="middle" x="1770.5" y="-235.5" font-family="Helvetica,sans-Serif" font-size="10.00">::LedgerSecrets &gt;</text>
</a>
</g>
</g>
<!-- Node12&#45;&gt;Node1 -->
<g id="edge11" class="edge">
<title>Node12&#45;&gt;Node1</title>
<path fill="none" stroke="#9a32cd" stroke-dasharray="5,2" d="M1837.94,-233.49C1882.86,-226.73 1943.5,-217.59 1997,-209.5 2008.69,-207.73 2021.15,-205.85 2033.15,-204.03"/>
<polygon fill="#9a32cd" stroke="#9a32cd" points="1837.4,-230.04 1828.03,-234.99 1838.44,-236.96 1837.4,-230.04"/>
<text text-anchor="middle" x="1934.5" y="-241.5" font-family="Helvetica,sans-Serif" font-size="10.00"> historical_ledger_secrets</text>
<text text-anchor="middle" x="1934.5" y="-230.5" font-family="Helvetica,sans-Serif" font-size="10.00">source_ledger_secrets</text>
</g>
<!-- Node13 -->
<g id="node13" class="node">
<title>Node13</title>
<g id="a_node13"><a xlink:href="classccf_1_1LedgerSecrets.html" target="_top" xlink:title=" ">
<polygon fill="white" stroke="black" points="1453.5,-186 1453.5,-205 1558.5,-205 1558.5,-186 1453.5,-186"/>
<text text-anchor="middle" x="1506" y="-193" font-family="Helvetica,sans-Serif" font-size="10.00">ccf::LedgerSecrets</text>
</a>
</g>
</g>
<!-- Node13&#45;&gt;Node12 -->
<g id="edge12" class="edge">
<title>Node13&#45;&gt;Node12</title>
<path fill="none" stroke="#9a32cd" stroke-dasharray="5,2" d="M1568.71,-193.76C1599.51,-194.55 1636.94,-198.08 1669,-208.5 1677.92,-211.4 1678.42,-215.71 1687,-219.5 1695.19,-223.12 1704.07,-226.35 1712.87,-229.19"/>
<polygon fill="#9a32cd" stroke="#9a32cd" points="1568.6,-190.25 1558.54,-193.58 1568.48,-197.25 1568.6,-190.25"/>
<text text-anchor="middle" x="1633.5" y="-211.5" font-family="Helvetica,sans-Serif" font-size="10.00"> ptr</text>
</g>
<!-- Node14 -->
<g id="node14" class="node">
<title>Node14</title>
<g id="a_node14"><a xlink:title=" ">
<polygon fill="white" stroke="black" points="1700,-179.5 1700,-209.5 1841,-209.5 1841,-179.5 1700,-179.5"/>
<text text-anchor="start" x="1708" y="-197.5" font-family="Helvetica,sans-Serif" font-size="10.00">std::shared_ptr&lt; Abstract</text>
<text text-anchor="middle" x="1770.5" y="-186.5" font-family="Helvetica,sans-Serif" font-size="10.00">Writer &gt;</text>
</a>
</g>
</g>
<!-- Node14&#45;&gt;Node1 -->
<g id="edge13" class="edge">
<title>Node14&#45;&gt;Node1</title>
<path fill="none" stroke="#9a32cd" stroke-dasharray="5,2" d="M1851.18,-194.5C1900.91,-194.5 1964.74,-194.5 2014.76,-194.5"/>
<polygon fill="#9a32cd" stroke="#9a32cd" points="1851.11,-191 1841.11,-194.5 1851.11,-198 1851.11,-191"/>
<text text-anchor="middle" x="1934.5" y="-197.5" font-family="Helvetica,sans-Serif" font-size="10.00"> to_host</text>
</g>
<!-- Node15 -->
<g id="node15" class="node">
<title>Node15</title>
<g id="a_node15"><a xlink:title=" ">
<polygon fill="white" stroke="black" points="1714,-130.5 1714,-160.5 1827,-160.5 1827,-130.5 1714,-130.5"/>
<text text-anchor="start" x="1722" y="-148.5" font-family="Helvetica,sans-Serif" font-size="10.00">std::shared_ptr&lt; kv</text>
<text text-anchor="middle" x="1770.5" y="-137.5" font-family="Helvetica,sans-Serif" font-size="10.00">::TxEncryptor &gt;</text>
</a>
</g>
</g>
<!-- Node15&#45;&gt;Node1 -->
<g id="edge14" class="edge">
<title>Node15&#45;&gt;Node1</title>
<path fill="none" stroke="#9a32cd" stroke-dasharray="5,2" d="M1837.03,-155.37C1882.03,-162.15 1943.14,-171.36 1997,-179.5 2008.69,-181.27 2021.15,-183.15 2033.15,-184.97"/>
<polygon fill="#9a32cd" stroke="#9a32cd" points="1837.51,-151.9 1827.1,-153.87 1836.47,-158.82 1837.51,-151.9"/>
<text text-anchor="middle" x="1934.5" y="-182.5" font-family="Helvetica,sans-Serif" font-size="10.00"> historical_encryptor</text>
</g>
<!-- Node16 -->
<g id="node16" class="node">
<title>Node16</title>
<g id="a_node16"><a xlink:href="classkv_1_1TxEncryptor.html" target="_top" xlink:title=" ">
<polygon fill="white" stroke="black" points="1439.5,-141 1439.5,-160 1572.5,-160 1572.5,-141 1439.5,-141"/>
<text text-anchor="middle" x="1506" y="-148" font-family="Helvetica,sans-Serif" font-size="10.00">kv::TxEncryptor&lt; T, S &gt;</text>
</a>
</g>
</g>
<!-- Node16&#45;&gt;Node15 -->
<g id="edge15" class="edge">
<title>Node16&#45;&gt;Node15</title>
<path fill="none" stroke="#9a32cd" stroke-dasharray="5,2" d="M1582.7,-149.06C1624.49,-148.26 1675.5,-147.29 1713.65,-146.56"/>
<polygon fill="#9a32cd" stroke="#9a32cd" points="1582.49,-145.56 1572.56,-149.25 1582.63,-152.56 1582.49,-145.56"/>
<text text-anchor="middle" x="1633.5" y="-151.5" font-family="Helvetica,sans-Serif" font-size="10.00"> ptr</text>
</g>
<!-- Node17 -->
<g id="node17" class="node">
<title>Node17</title>
<g id="a_node17"><a xlink:href="classkv_1_1AbstractTxEncryptor.html" target="_top" xlink:title=" ">
<polygon fill="white" stroke="black" points="1106.5,-160 1106.5,-179 1239.5,-179 1239.5,-160 1106.5,-160"/>
<text text-anchor="middle" x="1173" y="-167" font-family="Helvetica,sans-Serif" font-size="10.00">kv::AbstractTxEncryptor</text>
</a>
</g>
</g>
<!-- Node17&#45;&gt;Node16 -->
<g id="edge16" class="edge">
<title>Node17&#45;&gt;Node16</title>
<path fill="none" stroke="midnightblue" d="M1249.87,-165.15C1307.08,-161.86 1384.77,-157.4 1439.33,-154.27"/>
<polygon fill="midnightblue" stroke="midnightblue" points="1249.57,-161.66 1239.79,-165.72 1249.97,-168.64 1249.57,-161.66"/>
</g>
<!-- Node18 -->
<g id="node18" class="node">
<title>Node18</title>
<g id="a_node18"><a xlink:title=" ">
<polygon fill="white" stroke="black" points="1687,-70 1687,-111 1854,-111 1854,-70 1687,-70"/>
<text text-anchor="start" x="1695" y="-99" font-family="Helvetica,sans-Serif" font-size="10.00">std::map&lt; CompoundHandle,</text>
<text text-anchor="start" x="1695" y="-88" font-family="Helvetica,sans-Serif" font-size="10.00"> ccf::historical::StateCacheImpl</text>
<text text-anchor="middle" x="1770.5" y="-77" font-family="Helvetica,sans-Serif" font-size="10.00">::Request &gt;</text>
</a>
</g>
</g>
<!-- Node18&#45;&gt;Node1 -->
<g id="edge18" class="edge">
<title>Node18&#45;&gt;Node1</title>
<path fill="none" stroke="#9a32cd" stroke-dasharray="5,2" d="M1863.99,-108.23C1905.31,-117.38 1954.24,-129.92 1997,-145.5 2027.09,-156.46 2060.05,-173.98 2079.33,-184.83"/>
<polygon fill="#9a32cd" stroke="#9a32cd" points="1864.72,-104.81 1854.2,-106.1 1863.23,-111.65 1864.72,-104.81"/>
<text text-anchor="middle" x="1934.5" y="-148.5" font-family="Helvetica,sans-Serif" font-size="10.00"> requests</text>
</g>
<!-- Node19 -->
<g id="node19" class="node">
<title>Node19</title>
<g id="a_node19"><a xlink:href="structccf_1_1historical_1_1StateCacheImpl_1_1Request.html" target="_top" xlink:title=" ">
<polygon fill="white" stroke="black" points="1434.5,-68.5 1434.5,-98.5 1577.5,-98.5 1577.5,-68.5 1434.5,-68.5"/>
<text text-anchor="start" x="1442.5" y="-86.5" font-family="Helvetica,sans-Serif" font-size="10.00">ccf::historical::StateCache</text>
<text text-anchor="middle" x="1506" y="-75.5" font-family="Helvetica,sans-Serif" font-size="10.00">Impl::Request</text>
</a>
</g>
</g>
<!-- Node19&#45;&gt;Node18 -->
<g id="edge19" class="edge">
<title>Node19&#45;&gt;Node18</title>
<path fill="none" stroke="#9a32cd" stroke-dasharray="5,2" d="M1587.7,-85.65C1619.08,-86.49 1654.99,-87.45 1686.57,-88.29"/>
<polygon fill="#9a32cd" stroke="#9a32cd" points="1587.78,-82.15 1577.69,-85.39 1587.59,-89.15 1587.78,-82.15"/>
<text text-anchor="middle" x="1633.5" y="-91.5" font-family="Helvetica,sans-Serif" font-size="10.00"> elements</text>
</g>
<!-- Node20 -->
<g id="node20" class="node">
<title>Node20</title>
<g id="a_node20"><a xlink:href="classds_1_1ContiguousSet.html" target="_top" xlink:title=" ">
<polygon fill="white" stroke="black" points="1116.5,-0.5 1116.5,-30.5 1229.5,-30.5 1229.5,-0.5 1116.5,-0.5"/>
<text text-anchor="start" x="1124.5" y="-18.5" font-family="Helvetica,sans-Serif" font-size="10.00">ds::ContiguousSet&lt;</text>
<text text-anchor="middle" x="1173" y="-7.5" font-family="Helvetica,sans-Serif" font-size="10.00"> ccf::SeqNo &gt;</text>
</a>
</g>
</g>
<!-- Node20&#45;&gt;Node19 -->
<g id="edge20" class="edge">
<title>Node20&#45;&gt;Node19</title>
<path fill="none" stroke="#9a32cd" stroke-dasharray="5,2" d="M1239.99,-26.73C1288.33,-35.24 1355.44,-47.62 1414,-60.5 1424.98,-62.91 1436.65,-65.7 1447.85,-68.48"/>
<polygon fill="#9a32cd" stroke="#9a32cd" points="1240.42,-23.26 1229.97,-24.98 1239.21,-30.15 1240.42,-23.26"/>
<text text-anchor="middle" x="1343" y="-63.5" font-family="Helvetica,sans-Serif" font-size="10.00"> requested_seqnos</text>
</g>
<!-- Node21 -->
<g id="node21" class="node">
<title>Node21</title>
<g id="a_node21"><a xlink:title=" ">
<polygon fill="white" stroke="black" points="1110.5,-110.5 1110.5,-140.5 1235.5,-140.5 1235.5,-110.5 1110.5,-110.5"/>
<text text-anchor="start" x="1118.5" y="-128.5" font-family="Helvetica,sans-Serif" font-size="10.00">std::map&lt; ccf::SeqNo,</text>
<text text-anchor="middle" x="1173" y="-117.5" font-family="Helvetica,sans-Serif" font-size="10.00"> StoreDetailsPtr &gt;</text>
</a>
</g>
</g>
<!-- Node21&#45;&gt;Node19 -->
<g id="edge21" class="edge">
<title>Node21&#45;&gt;Node19</title>
<path fill="none" stroke="#9a32cd" stroke-dasharray="5,2" d="M1246.04,-116.36C1301.85,-109.28 1378.76,-99.52 1434.25,-92.48"/>
<polygon fill="#9a32cd" stroke="#9a32cd" points="1245.35,-112.92 1235.87,-117.65 1246.23,-119.86 1245.35,-112.92"/>
<text text-anchor="middle" x="1343" y="-126.5" font-family="Helvetica,sans-Serif" font-size="10.00"> requested_stores</text>
<text text-anchor="middle" x="1343" y="-115.5" font-family="Helvetica,sans-Serif" font-size="10.00">supporting_signatures</text>
</g>
<!-- Node22 -->
<g id="node22" class="node">
<title>Node22</title>
<g id="a_node22"><a xlink:title=" ">
<polygon fill="white" stroke="black" points="861.5,-116 861.5,-135 979.5,-135 979.5,-116 861.5,-116"/>
<text text-anchor="middle" x="920.5" y="-123" font-family="Helvetica,sans-Serif" font-size="10.00">std::shared_ptr&lt; T &gt;</text>
</a>
</g>
</g>
<!-- Node22&#45;&gt;Node21 -->
<g id="edge22" class="edge">
<title>Node22&#45;&gt;Node21</title>
<path fill="none" stroke="#9a32cd" stroke-dasharray="5,2" d="M989.96,-125.5C1027.55,-125.5 1073.8,-125.5 1110.28,-125.5"/>
<polygon fill="#9a32cd" stroke="#9a32cd" points="989.6,-122 979.6,-125.5 989.6,-129 989.6,-122"/>
<text text-anchor="middle" x="1049.5" y="-128.5" font-family="Helvetica,sans-Serif" font-size="10.00"> elements</text>
</g>
<!-- Node23 -->
<g id="node23" class="node">
<title>Node23</title>
<g id="a_node23"><a xlink:title=" ">
<polygon fill="white" stroke="black" points="602.5,-116 602.5,-135 631.5,-135 631.5,-116 602.5,-116"/>
<text text-anchor="middle" x="617" y="-123" font-family="Helvetica,sans-Serif" font-size="10.00">T</text>
</a>
</g>
</g>
<!-- Node23&#45;&gt;Node22 -->
<g id="edge23" class="edge">
<title>Node23&#45;&gt;Node22</title>
<path fill="none" stroke="#9a32cd" stroke-dasharray="5,2" d="M641.86,-125.5C688.87,-125.5 794.68,-125.5 861.25,-125.5"/>
<polygon fill="#9a32cd" stroke="#9a32cd" points="641.74,-122 631.74,-125.5 641.74,-129 641.74,-122"/>
<text text-anchor="middle" x="769.5" y="-128.5" font-family="Helvetica,sans-Serif" font-size="10.00"> ptr</text>
</g>
<!-- Node24 -->
<g id="node24" class="node">
<title>Node24</title>
<g id="a_node24"><a xlink:title=" ">
<polygon fill="white" stroke="black" points="1092,-50 1092,-91 1254,-91 1254,-50 1092,-50"/>
<text text-anchor="start" x="1100" y="-79" font-family="Helvetica,sans-Serif" font-size="10.00">std::unique_ptr&lt; ccf</text>
<text text-anchor="start" x="1100" y="-68" font-family="Helvetica,sans-Serif" font-size="10.00">::historical::StateCacheImpl</text>
<text text-anchor="middle" x="1173" y="-57" font-family="Helvetica,sans-Serif" font-size="10.00">::LedgerSecretRecoveryInfo &gt;</text>
</a>
</g>
</g>
<!-- Node24&#45;&gt;Node19 -->
<g id="edge24" class="edge">
<title>Node24&#45;&gt;Node19</title>
<path fill="none" stroke="#9a32cd" stroke-dasharray="5,2" d="M1264.3,-74.05C1317.82,-76.15 1384.67,-78.77 1434.33,-80.72"/>
<polygon fill="#9a32cd" stroke="#9a32cd" points="1264.26,-70.54 1254.13,-73.65 1263.98,-77.54 1264.26,-70.54"/>
<text text-anchor="middle" x="1343" y="-83.5" font-family="Helvetica,sans-Serif" font-size="10.00"> ledger_secret_recovery_info</text>
</g>
<!-- Node25 -->
<g id="node25" class="node">
<title>Node25</title>
<g id="a_node25"><a xlink:href="structccf_1_1historical_1_1StateCacheImpl_1_1LedgerSecretRecoveryInfo.html" target="_top" xlink:title=" ">
<polygon fill="white" stroke="black" points="834,-55.5 834,-85.5 1007,-85.5 1007,-55.5 834,-55.5"/>
<text text-anchor="start" x="842" y="-73.5" font-family="Helvetica,sans-Serif" font-size="10.00">ccf::historical::StateCache</text>
<text text-anchor="middle" x="920.5" y="-62.5" font-family="Helvetica,sans-Serif" font-size="10.00">Impl::LedgerSecretRecoveryInfo</text>
</a>
</g>
</g>
<!-- Node25&#45;&gt;Node24 -->
<g id="edge25" class="edge">
<title>Node25&#45;&gt;Node24</title>
<path fill="none" stroke="#9a32cd" stroke-dasharray="5,2" d="M1017.11,-70.5C1041.81,-70.5 1068.13,-70.5 1091.94,-70.5"/>
<polygon fill="#9a32cd" stroke="#9a32cd" points="1017.01,-67 1007.01,-70.5 1017.01,-74 1017.01,-67"/>
<text text-anchor="middle" x="1049.5" y="-73.5" font-family="Helvetica,sans-Serif" font-size="10.00"> ptr</text>
</g>
<!-- Node26 -->
<g id="node26" class="node">
<title>Node26</title>
<g id="a_node26"><a xlink:title=" ">
<polygon fill="white" stroke="black" points="529,-61 529,-80 705,-80 705,-61 529,-61"/>
<text text-anchor="middle" x="617" y="-68" font-family="Helvetica,sans-Serif" font-size="10.00">std::shared_ptr&lt; LedgerSecret &gt;</text>
</a>
</g>
</g>
<!-- Node26&#45;&gt;Node25 -->
<g id="edge26" class="edge">
<title>Node26&#45;&gt;Node25</title>
<path fill="none" stroke="#9a32cd" stroke-dasharray="5,2" d="M715.3,-70.5C753.45,-70.5 796.84,-70.5 833.79,-70.5"/>
<polygon fill="#9a32cd" stroke="#9a32cd" points="715.21,-67 705.21,-70.5 715.21,-74 715.21,-67"/>
<text text-anchor="middle" x="769.5" y="-73.5" font-family="Helvetica,sans-Serif" font-size="10.00"> last_ledger_secret</text>
</g>
<!-- Node27 -->
<g id="node27" class="node">
<title>Node27</title>
<g id="a_node27"><a xlink:href="structccf_1_1LedgerSecret.html" target="_top" xlink:title=" ">
<polygon fill="white" stroke="black" points="376,-61 376,-80 476,-80 476,-61 376,-61"/>
<text text-anchor="middle" x="426" y="-68" font-family="Helvetica,sans-Serif" font-size="10.00">ccf::LedgerSecret</text>
</a>
</g>
</g>
<!-- Node27&#45;&gt;Node26 -->
<g id="edge27" class="edge">
<title>Node27&#45;&gt;Node26</title>
<path fill="none" stroke="#9a32cd" stroke-dasharray="5,2" d="M486.22,-70.5C499.69,-70.5 514.28,-70.5 528.64,-70.5"/>
<polygon fill="#9a32cd" stroke="#9a32cd" points="486.16,-67 476.16,-70.5 486.16,-74 486.16,-67"/>
<text text-anchor="middle" x="502.5" y="-73.5" font-family="Helvetica,sans-Serif" font-size="10.00"> ptr</text>
</g>
<!-- Node28 -->
<g id="node28" class="node">
<title>Node28</title>
<g id="a_node28"><a xlink:title=" ">
<polygon fill="white" stroke="black" points="168,-83 168,-102 293,-102 293,-83 168,-83"/>
<text text-anchor="middle" x="230.5" y="-90" font-family="Helvetica,sans-Serif" font-size="10.00">std::vector&lt; uint8_t &gt;</text>
</a>
</g>
</g>
<!-- Node28&#45;&gt;Node27 -->
<g id="edge28" class="edge">
<title>Node28&#45;&gt;Node27</title>
<path fill="none" stroke="#9a32cd" stroke-dasharray="5,2" d="M303.43,-84.32C327.51,-81.58 353.8,-78.6 375.75,-76.1"/>
<polygon fill="#9a32cd" stroke="#9a32cd" points="302.8,-80.87 293.26,-85.48 303.59,-87.83 302.8,-80.87"/>
<text text-anchor="middle" x="336" y="-86.5" font-family="Helvetica,sans-Serif" font-size="10.00"> raw_key</text>
</g>
<!-- Node29 -->
<g id="node29" class="node">
<title>Node29</title>
<g id="a_node29"><a xlink:title=" ">
<polygon fill="white" stroke="black" points="165,-33.5 165,-63.5 296,-63.5 296,-33.5 165,-33.5"/>
<text text-anchor="start" x="173" y="-51.5" font-family="Helvetica,sans-Serif" font-size="10.00">std::shared_ptr&lt; crypto</text>
<text text-anchor="middle" x="230.5" y="-40.5" font-family="Helvetica,sans-Serif" font-size="10.00">::KeyAesGcm &gt;</text>
</a>
</g>
</g>
<!-- Node29&#45;&gt;Node27 -->
<g id="edge29" class="edge">
<title>Node29&#45;&gt;Node27</title>
<path fill="none" stroke="#9a32cd" stroke-dasharray="5,2" d="M306.43,-57.02C329.76,-59.67 354.89,-62.53 375.98,-64.93"/>
<polygon fill="#9a32cd" stroke="#9a32cd" points="306.53,-53.51 296.2,-55.86 305.74,-60.46 306.53,-53.51"/>
<text text-anchor="middle" x="336" y="-66.5" font-family="Helvetica,sans-Serif" font-size="10.00"> key</text>
</g>
<!-- Node30 -->
<g id="node30" class="node">
<title>Node30</title>
<g id="a_node30"><a xlink:href="classcrypto_1_1KeyAesGcm.html" target="_top" xlink:title=" ">
<polygon fill="white" stroke="black" points="0,-39 0,-58 112,-58 112,-39 0,-39"/>
<text text-anchor="middle" x="56" y="-46" font-family="Helvetica,sans-Serif" font-size="10.00">crypto::KeyAesGcm</text>
</a>
</g>
</g>
<!-- Node30&#45;&gt;Node29 -->
<g id="edge30" class="edge">
<title>Node30&#45;&gt;Node29</title>
<path fill="none" stroke="#9a32cd" stroke-dasharray="5,2" d="M122.06,-48.5C136.03,-48.5 150.78,-48.5 164.74,-48.5"/>
<polygon fill="#9a32cd" stroke="#9a32cd" points="122.05,-45 112.05,-48.5 122.05,-52 122.05,-45"/>
<text text-anchor="middle" x="138.5" y="-51.5" font-family="Helvetica,sans-Serif" font-size="10.00"> ptr</text>
</g>
<!-- Node31 -->
<g id="node31" class="node">
<title>Node31</title>
<g id="a_node31"><a xlink:title=" ">
<polygon fill="white" stroke="black" points="1707.5,-32 1707.5,-51 1833.5,-51 1833.5,-32 1707.5,-32"/>
<text text-anchor="middle" x="1770.5" y="-39" font-family="Helvetica,sans-Serif" font-size="10.00">std::set&lt; ccf::SeqNo &gt;</text>
</a>
</g>
</g>
<!-- Node31&#45;&gt;Node1 -->
<g id="edge31" class="edge">
<title>Node31&#45;&gt;Node1</title>
<path fill="none" stroke="#9a32cd" stroke-dasharray="5,2" d="M1843.64,-48.9C1889.83,-56.02 1949.75,-69.85 1997,-96.5 2038.29,-119.78 2074.39,-164.86 2089.04,-184.71"/>
<polygon fill="#9a32cd" stroke="#9a32cd" points="1844.11,-45.43 1833.7,-47.43 1843.09,-52.35 1844.11,-45.43"/>
<text text-anchor="middle" x="1934.5" y="-99.5" font-family="Helvetica,sans-Serif" font-size="10.00"> pending_fetches</text>
</g>
</g>
</svg>
        <g id="navigator" transform="translate(0 0)" fill="#404254">
                <rect fill="#f2f5e9" fill-opacity="0.5" stroke="#606060" stroke-width=".5" x="0" y="0" width="60" height="60"/>
                <use id="zoomplus" xlink:href="#zoomPlus" x="17" y="9" onmousedown="handleZoom(evt,'in')"/>
                <use id="zoomminus" xlink:href="#zoomMin" x="42" y="9" onmousedown="handleZoom(evt,'out')"/>
                <use id="reset" xlink:href="#resetDef" x="30" y="36" onmousedown="handleReset()"/>
                <g id="arrowUp" xlink:href="#dirArrow" transform="translate(30 24)" onmousedown="handlePan(0,-1)">
                  <use xlink:href="#rim" fill="#404040">
                        <set attributeName="fill" to="#808080" begin="arrowUp.mouseover" end="arrowUp.mouseout"/>
                  </use>
                  <path fill="none" stroke="white" stroke-width="1.5" d="M0,-3.0v7 M-2.5,-0.5L0,-3.0L2.5,-0.5"/>
                </g>
                <g id="arrowRight" xlink:href="#dirArrow" transform="rotate(90) translate(36 -43)" onmousedown="handlePan(1,0)">
                  <use xlink:href="#rim" fill="#404040">
                        <set attributeName="fill" to="#808080" begin="arrowRight.mouseover" end="arrowRight.mouseout"/>
                  </use>
                  <path fill="none" stroke="white" stroke-width="1.5" d="M0,-3.0v7 M-2.5,-0.5L0,-3.0L2.5,-0.5"/>
                </g>
                <g id="arrowDown" xlink:href="#dirArrow" transform="rotate(180) translate(-30 -48)" onmousedown="handlePan(0,1)">
                  <use xlink:href="#rim" fill="#404040">
                        <set attributeName="fill" to="#808080" begin="arrowDown.mouseover" end="arrowDown.mouseout"/>
                  </use>
                  <path fill="none" stroke="white" stroke-width="1.5" d="M0,-3.0v7 M-2.5,-0.5L0,-3.0L2.5,-0.5"/>
                </g>
                <g id="arrowLeft" xlink:href="#dirArrow" transform="rotate(270) translate(-36 17)" onmousedown="handlePan(-1,0)">
                  <use xlink:href="#rim" fill="#404040">
                        <set attributeName="fill" to="#808080" begin="arrowLeft.mouseover" end="arrowLeft.mouseout"/>
                  </use>
                  <path fill="none" stroke="white" stroke-width="1.5" d="M0,-3.0v7 M-2.5,-0.5L0,-3.0L2.5,-0.5"/>
                </g>
        </g>
        <svg viewBox="0 0 15 15" width="100%" height="30px" preserveAspectRatio="xMaxYMin meet">
         <g id="arrow_out" transform="scale(0.3 0.3)">
          <a xlink:href="classccf_1_1historical_1_1StateCacheImpl__coll__graph_org.svg" target="_base">
           <rect id="button" ry="5" rx="5" y="6" x="6" height="38" width="38"
                fill="#f2f5e9" fill-opacity="0.5" stroke="#606060" stroke-width="1.0"/>
           <path id="arrow"
             d="M 11.500037,31.436501 C 11.940474,20.09759 22.043105,11.32322 32.158766,21.979434 L 37.068811,17.246167 C 37.068811,17.246167 37.088388,32 37.088388,32 L 22.160133,31.978069 C 22.160133,31.978069 26.997745,27.140456 26.997745,27.140456 C 18.528582,18.264221 13.291696,25.230495 11.500037,31.436501 z"
             style="fill:#404040;"/>
          </a>
         </g>
        </svg>
</svg>
