<?xml version="1.0" encoding="UTF-8" standalone="no"?>
<!DOCTYPE svg PUBLIC "-//W3C//DTD SVG 1.1//EN"
 "http://www.w3.org/Graphics/SVG/1.1/DTD/svg11.dtd">
<!-- Generated by graphviz version 2.43.0 (0)
 -->
<!-- Title: ccf::ProofReceipt Pages: 1 -->
<!--zoomable 305 -->
<svg id="main" version="1.1" xmlns="http://www.w3.org/2000/svg" xmlns:xlink="http://www.w3.org/1999/xlink" xml:space="preserve" onload="init(evt)">
<style type="text/css"><![CDATA[
.edge:hover path { stroke: red; }
.edge:hover polygon { stroke: red; fill: red; }
]]></style>
<script type="text/javascript"><![CDATA[
var edges = document.getElementsByTagName('g');
if (edges && edges.length) {
  for (var i=0;i<edges.length;i++) {
    if (edges[i].id.substr(0,4)=='edge') {
      edges[i].setAttribute('class','edge');
    }
  }
}
]]></script>
        <defs>
                <circle id="rim" cx="0" cy="0" r="7"/>
                <circle id="rim2" cx="0" cy="0" r="3.5"/>
                <g id="zoomPlus">
                        <use xlink:href="#rim" fill="#404040">
                                <set attributeName="fill" to="#808080" begin="zoomplus.mouseover" end="zoomplus.mouseout"/>
                        </use>
                        <path d="M-4,0h8M0,-4v8" fill="none" stroke="white" stroke-width="1.5" pointer-events="none"/>
                </g>
                <g id="zoomMin">
                        <use xlink:href="#rim" fill="#404040">
                                <set attributeName="fill" to="#808080" begin="zoomminus.mouseover" end="zoomminus.mouseout"/>
                        </use>
                        <path d="M-4,0h8" fill="none" stroke="white" stroke-width="1.5" pointer-events="none"/>
                </g>
                <g id="dirArrow">
                        <path fill="none" stroke="white" stroke-width="1.5" d="M0,-3.0v7 M-2.5,-0.5L0,-3.0L2.5,-0.5"/>
                </g>
               <g id="resetDef">
                       <use xlink:href="#rim2" fill="#404040">
                               <set attributeName="fill" to="#808080" begin="reset.mouseover" end="reset.mouseout"/>
                       </use>
               </g>
        </defs>

<script type="text/javascript">
var viewWidth = 1036;
var viewHeight = 305;
var sectionId = 'dynsection-0';
</script>
<script xlink:href="svgpan.js"/>
<svg id="graph" class="graph">
<g id="viewport">
<title>ccf::ProofReceipt</title>
<polygon fill="white" stroke="transparent" points="-4,4 -4,-301 1032,-301 1032,4 -4,4"/>
<!-- Node1 -->
<g id="node1" class="node">
<title>Node1</title>
<g id="a_node1"><a xlink:title=" ">
<polygon fill="#bfbfbf" stroke="black" points="930,-99.5 930,-118.5 1028,-118.5 1028,-99.5 930,-99.5"/>
<text text-anchor="middle" x="979" y="-106.5" font-family="Helvetica,sans-Serif" font-size="10.00">ccf::ProofReceipt</text>
</a>
</g>
</g>
<!-- Node2 -->
<g id="node2" class="node">
<title>Node2</title>
<g id="a_node2"><a xlink:href="classccf_1_1Receipt.html" target="_top" xlink:title=" ">
<polygon fill="white" stroke="black" points="759.5,-200.5 759.5,-219.5 832.5,-219.5 832.5,-200.5 759.5,-200.5"/>
<text text-anchor="middle" x="796" y="-207.5" font-family="Helvetica,sans-Serif" font-size="10.00">ccf::Receipt</text>
</a>
</g>
</g>
<!-- Node2&#45;&gt;Node1 -->
<g id="edge1" class="edge">
<title>Node2&#45;&gt;Node1</title>
<path fill="none" stroke="midnightblue" d="M822.86,-195.57C860.42,-174.61 929.02,-136.33 960.89,-118.55"/>
<polygon fill="midnightblue" stroke="midnightblue" points="821.06,-192.57 814.03,-200.5 824.47,-198.68 821.06,-192.57"/>
</g>
<!-- Node3 -->
<g id="node3" class="node">
<title>Node3</title>
<g id="a_node3"><a xlink:title=" ">
<polygon fill="white" stroke="black" points="425,-277.5 425,-296.5 550,-296.5 550,-277.5 425,-277.5"/>
<text text-anchor="middle" x="487.5" y="-284.5" font-family="Helvetica,sans-Serif" font-size="10.00">std::vector&lt; uint8_t &gt;</text>
</a>
</g>
</g>
<!-- Node3&#45;&gt;Node2 -->
<g id="edge2" class="edge">
<title>Node3&#45;&gt;Node2</title>
<path fill="none" stroke="#9a32cd" stroke-dasharray="5,2" d="M560.43,-281.03C604.14,-276.07 660.65,-267.27 709,-252 734.67,-243.89 762.29,-229.23 779.11,-219.55"/>
<polygon fill="#9a32cd" stroke="#9a32cd" points="560.02,-277.55 550.46,-282.12 560.78,-284.51 560.02,-277.55"/>
<text text-anchor="middle" x="652" y="-279" font-family="Helvetica,sans-Serif" font-size="10.00"> signature</text>
</g>
<!-- Node4 -->
<g id="node4" class="node">
<title>Node4</title>
<g id="a_node4"><a xlink:href="structccf_1_1EntityId.html" target="_top" xlink:title=" ">
<polygon fill="white" stroke="black" points="398,-239.5 398,-258.5 577,-258.5 577,-239.5 398,-239.5"/>
<text text-anchor="middle" x="487.5" y="-246.5" font-family="Helvetica,sans-Serif" font-size="10.00">ccf::EntityId&lt; NodeIdFormatter &gt;</text>
</a>
</g>
</g>
<!-- Node4&#45;&gt;Node2 -->
<g id="edge3" class="edge">
<title>Node4&#45;&gt;Node2</title>
<path fill="none" stroke="#9a32cd" stroke-dasharray="5,2" d="M587.21,-238.84C625.32,-234.65 669.24,-229.49 709,-224 725.63,-221.7 744.01,-218.77 759.49,-216.18"/>
<polygon fill="#9a32cd" stroke="#9a32cd" points="586.7,-235.38 577.14,-239.94 587.46,-242.33 586.7,-235.38"/>
<text text-anchor="middle" x="652" y="-240" font-family="Helvetica,sans-Serif" font-size="10.00"> node_id</text>
</g>
<!-- Node5 -->
<g id="node5" class="node">
<title>Node5</title>
<g id="a_node5"><a xlink:href="classcrypto_1_1Pem.html" target="_top" xlink:title=" ">
<polygon fill="white" stroke="black" points="176.5,-180.5 176.5,-199.5 251.5,-199.5 251.5,-180.5 176.5,-180.5"/>
<text text-anchor="middle" x="214" y="-187.5" font-family="Helvetica,sans-Serif" font-size="10.00">crypto::Pem</text>
</a>
</g>
</g>
<!-- Node5&#45;&gt;Node2 -->
<g id="edge4" class="edge">
<title>Node5&#45;&gt;Node2</title>
<path fill="none" stroke="#9a32cd" stroke-dasharray="5,2" d="M262.13,-193.45C271.05,-194.03 280.31,-194.58 289,-195 465.44,-203.57 676.75,-207.93 759.4,-209.41"/>
<polygon fill="#9a32cd" stroke="#9a32cd" points="262.08,-189.94 251.87,-192.77 261.62,-196.93 262.08,-189.94"/>
<text text-anchor="middle" x="487.5" y="-208" font-family="Helvetica,sans-Serif" font-size="10.00"> cert</text>
</g>
<!-- Node6 -->
<g id="node6" class="node">
<title>Node6</title>
<g id="a_node6"><a xlink:title=" ">
<polygon fill="white" stroke="black" points="432.5,-143 432.5,-173 542.5,-173 542.5,-143 432.5,-143"/>
<text text-anchor="start" x="440.5" y="-161" font-family="Helvetica,sans-Serif" font-size="10.00">std::vector&lt; crypto</text>
<text text-anchor="middle" x="487.5" y="-150" font-family="Helvetica,sans-Serif" font-size="10.00">::Pem &gt;</text>
</a>
</g>
</g>
<!-- Node5&#45;&gt;Node6 -->
<g id="edge6" class="edge">
<title>Node5&#45;&gt;Node6</title>
<path fill="none" stroke="#9a32cd" stroke-dasharray="5,2" d="M261.62,-184.51C309.06,-178.91 382.52,-170.26 432.47,-164.37"/>
<polygon fill="#9a32cd" stroke="#9a32cd" points="261.14,-181.04 251.62,-185.68 261.96,-187.99 261.14,-181.04"/>
<text text-anchor="middle" x="334.5" y="-183" font-family="Helvetica,sans-Serif" font-size="10.00"> elements</text>
</g>
<!-- Node6&#45;&gt;Node2 -->
<g id="edge5" class="edge">
<title>Node6&#45;&gt;Node2</title>
<path fill="none" stroke="#9a32cd" stroke-dasharray="5,2" d="M552.85,-163.12C597.06,-167.32 656.95,-174.32 709,-185 728.34,-188.97 749.66,-195.15 766.23,-200.38"/>
<polygon fill="#9a32cd" stroke="#9a32cd" points="553.09,-159.63 542.81,-162.2 552.45,-166.6 553.09,-159.63"/>
<text text-anchor="middle" x="652" y="-188" font-family="Helvetica,sans-Serif" font-size="10.00"> service_endorsements</text>
</g>
<!-- Node7 -->
<g id="node7" class="node">
<title>Node7</title>
<g id="a_node7"><a xlink:href="structccf_1_1ProofReceipt_1_1Components.html" target="_top" xlink:title=" ">
<polygon fill="white" stroke="black" points="435.5,-40 435.5,-70 539.5,-70 539.5,-40 435.5,-40"/>
<text text-anchor="start" x="443.5" y="-58" font-family="Helvetica,sans-Serif" font-size="10.00">ccf::ProofReceipt::</text>
<text text-anchor="middle" x="487.5" y="-47" font-family="Helvetica,sans-Serif" font-size="10.00">Components</text>
</a>
</g>
</g>
<!-- Node7&#45;&gt;Node1 -->
<g id="edge7" class="edge">
<title>Node7&#45;&gt;Node1</title>
<path fill="none" stroke="#9a32cd" stroke-dasharray="5,2" d="M549.89,-55.24C624.76,-56.37 754.95,-61.06 865,-79 893.85,-83.7 926,-92.61 948.6,-99.5"/>
<polygon fill="#9a32cd" stroke="#9a32cd" points="549.75,-51.73 539.7,-55.1 549.66,-58.73 549.75,-51.73"/>
<text text-anchor="middle" x="796" y="-82" font-family="Helvetica,sans-Serif" font-size="10.00"> leaf_components</text>
</g>
<!-- Node8 -->
<g id="node8" class="node">
<title>Node8</title>
<g id="a_node8"><a xlink:href="classcrypto_1_1Sha256Hash.html" target="_top" xlink:title=" ">
<polygon fill="white" stroke="black" points="157,-95.5 157,-114.5 271,-114.5 271,-95.5 157,-95.5"/>
<text text-anchor="middle" x="214" y="-102.5" font-family="Helvetica,sans-Serif" font-size="10.00">crypto::Sha256Hash</text>
</a>
</g>
</g>
<!-- Node8&#45;&gt;Node7 -->
<g id="edge8" class="edge">
<title>Node8&#45;&gt;Node7</title>
<path fill="none" stroke="#9a32cd" stroke-dasharray="5,2" d="M275.29,-93.56C279.93,-92.69 284.54,-91.83 289,-91 338.69,-81.77 395.45,-71.45 435.33,-64.23"/>
<polygon fill="#9a32cd" stroke="#9a32cd" points="274.33,-90.18 265.15,-95.47 275.62,-97.06 274.33,-90.18"/>
<text text-anchor="middle" x="334.5" y="-94" font-family="Helvetica,sans-Serif" font-size="10.00"> write_set_digest</text>
</g>
<!-- Node14 -->
<g id="node14" class="node">
<title>Node14</title>
<g id="a_node14"><a xlink:href="structccf_1_1ProofReceipt_1_1ProofStep.html" target="_top" xlink:title=" ">
<polygon fill="white" stroke="black" points="435.5,-94 435.5,-124 539.5,-124 539.5,-94 435.5,-94"/>
<text text-anchor="start" x="443.5" y="-112" font-family="Helvetica,sans-Serif" font-size="10.00">ccf::ProofReceipt::</text>
<text text-anchor="middle" x="487.5" y="-101" font-family="Helvetica,sans-Serif" font-size="10.00">ProofStep</text>
</a>
</g>
</g>
<!-- Node8&#45;&gt;Node14 -->
<g id="edge15" class="edge">
<title>Node8&#45;&gt;Node14</title>
<path fill="none" stroke="#9a32cd" stroke-dasharray="5,2" d="M281.44,-105.98C328.89,-106.68 391.8,-107.6 435.36,-108.25"/>
<polygon fill="#9a32cd" stroke="#9a32cd" points="281.31,-102.48 271.25,-105.83 281.2,-109.48 281.31,-102.48"/>
<text text-anchor="middle" x="334.5" y="-110" font-family="Helvetica,sans-Serif" font-size="10.00"> hash</text>
</g>
<!-- Node9 -->
<g id="node9" class="node">
<title>Node9</title>
<g id="a_node9"><a xlink:title=" ">
<polygon fill="white" stroke="black" points="0,-90 0,-120 111,-120 111,-90 0,-90"/>
<text text-anchor="start" x="8" y="-108" font-family="Helvetica,sans-Serif" font-size="10.00">std::array&lt; uint8_t,</text>
<text text-anchor="middle" x="55.5" y="-97" font-family="Helvetica,sans-Serif" font-size="10.00"> SIZE &gt;</text>
</a>
</g>
</g>
<!-- Node9&#45;&gt;Node8 -->
<g id="edge9" class="edge">
<title>Node9&#45;&gt;Node8</title>
<path fill="none" stroke="#9a32cd" stroke-dasharray="5,2" d="M121.46,-105C133.26,-105 145.46,-105 156.97,-105"/>
<polygon fill="#9a32cd" stroke="#9a32cd" points="121.24,-101.5 111.24,-105 121.24,-108.5 121.24,-101.5"/>
<text text-anchor="middle" x="134" y="-108" font-family="Helvetica,sans-Serif" font-size="10.00"> h</text>
</g>
<!-- Node10 -->
<g id="node10" class="node">
<title>Node10</title>
<g id="a_node10"><a xlink:title=" ">
<polygon fill="white" stroke="black" points="181.5,-38.5 181.5,-57.5 246.5,-57.5 246.5,-38.5 181.5,-38.5"/>
<text text-anchor="middle" x="214" y="-45.5" font-family="Helvetica,sans-Serif" font-size="10.00">std::string</text>
</a>
</g>
</g>
<!-- Node10&#45;&gt;Node7 -->
<g id="edge10" class="edge">
<title>Node10&#45;&gt;Node7</title>
<path fill="none" stroke="#9a32cd" stroke-dasharray="5,2" d="M256.87,-47.34C267.36,-47.2 278.59,-47.07 289,-47 329.44,-46.73 339.58,-45.48 380,-47 398.07,-47.68 417.82,-49 435.35,-50.38"/>
<polygon fill="#9a32cd" stroke="#9a32cd" points="256.64,-43.84 246.69,-47.48 256.74,-50.84 256.64,-43.84"/>
<text text-anchor="middle" x="334.5" y="-50" font-family="Helvetica,sans-Serif" font-size="10.00"> commit_evidence</text>
</g>
<!-- Node11 -->
<g id="node11" class="node">
<title>Node11</title>
<g id="a_node11"><a xlink:title=" ">
<polygon fill="white" stroke="black" points="3.5,-33 3.5,-63 107.5,-63 107.5,-33 3.5,-33"/>
<text text-anchor="start" x="11.5" y="-51" font-family="Helvetica,sans-Serif" font-size="10.00">std::basic_string&lt;</text>
<text text-anchor="middle" x="55.5" y="-40" font-family="Helvetica,sans-Serif" font-size="10.00"> Char &gt;</text>
</a>
</g>
</g>
<!-- Node11&#45;&gt;Node10 -->
<g id="edge11" class="edge">
<title>Node11&#45;&gt;Node10</title>
<path fill="none" stroke="midnightblue" d="M117.88,-48C139.57,-48 163.07,-48 181.28,-48"/>
<polygon fill="midnightblue" stroke="midnightblue" points="117.74,-44.5 107.74,-48 117.74,-51.5 117.74,-44.5"/>
</g>
<!-- Node12 -->
<g id="node12" class="node">
<title>Node12</title>
<g id="a_node12"><a xlink:href="classccf_1_1ClaimsDigest.html" target="_top" xlink:title=" ">
<polygon fill="white" stroke="black" points="163.5,-0.5 163.5,-19.5 264.5,-19.5 264.5,-0.5 163.5,-0.5"/>
<text text-anchor="middle" x="214" y="-7.5" font-family="Helvetica,sans-Serif" font-size="10.00">ccf::ClaimsDigest</text>
</a>
</g>
</g>
<!-- Node12&#45;&gt;Node7 -->
<g id="edge12" class="edge">
<title>Node12&#45;&gt;Node7</title>
<path fill="none" stroke="#9a32cd" stroke-dasharray="5,2" d="M274.95,-16.82C306.33,-20.69 345.34,-25.96 380,-32 398.17,-35.17 417.95,-39.26 435.47,-43.11"/>
<polygon fill="#9a32cd" stroke="#9a32cd" points="274.97,-13.3 264.62,-15.56 274.12,-20.25 274.97,-13.3"/>
<text text-anchor="middle" x="334.5" y="-35" font-family="Helvetica,sans-Serif" font-size="10.00"> claims_digest</text>
</g>
<!-- Node13 -->
<g id="node13" class="node">
<title>Node13</title>
<g id="a_node13"><a xlink:title=" ">
<polygon fill="white" stroke="black" points="727,-99.5 727,-118.5 865,-118.5 865,-99.5 727,-99.5"/>
<text text-anchor="middle" x="796" y="-106.5" font-family="Helvetica,sans-Serif" font-size="10.00">std::vector&lt; ProofStep &gt;</text>
</a>
</g>
</g>
<!-- Node13&#45;&gt;Node1 -->
<g id="edge13" class="edge">
<title>Node13&#45;&gt;Node1</title>
<path fill="none" stroke="#9a32cd" stroke-dasharray="5,2" d="M875.38,-109C893.93,-109 913.16,-109 929.9,-109"/>
<polygon fill="#9a32cd" stroke="#9a32cd" points="875.17,-105.5 865.17,-109 875.17,-112.5 875.17,-105.5"/>
<text text-anchor="middle" x="897.5" y="-112" font-family="Helvetica,sans-Serif" font-size="10.00"> proof</text>
</g>
<!-- Node14&#45;&gt;Node13 -->
<g id="edge14" class="edge">
<title>Node14&#45;&gt;Node13</title>
<path fill="none" stroke="#9a32cd" stroke-dasharray="5,2" d="M550.05,-109C601.21,-109 673.93,-109 726.83,-109"/>
<polygon fill="#9a32cd" stroke="#9a32cd" points="549.8,-105.5 539.8,-109 549.8,-112.5 549.8,-105.5"/>
<text text-anchor="middle" x="652" y="-112" font-family="Helvetica,sans-Serif" font-size="10.00"> elements</text>
</g>
</g>
</svg>
        <g id="navigator" transform="translate(0 0)" fill="#404254">
                <rect fill="#f2f5e9" fill-opacity="0.5" stroke="#606060" stroke-width=".5" x="0" y="0" width="60" height="60"/>
                <use id="zoomplus" xlink:href="#zoomPlus" x="17" y="9" onmousedown="handleZoom(evt,'in')"/>
                <use id="zoomminus" xlink:href="#zoomMin" x="42" y="9" onmousedown="handleZoom(evt,'out')"/>
                <use id="reset" xlink:href="#resetDef" x="30" y="36" onmousedown="handleReset()"/>
                <g id="arrowUp" xlink:href="#dirArrow" transform="translate(30 24)" onmousedown="handlePan(0,-1)">
                  <use xlink:href="#rim" fill="#404040">
                        <set attributeName="fill" to="#808080" begin="arrowUp.mouseover" end="arrowUp.mouseout"/>
                  </use>
                  <path fill="none" stroke="white" stroke-width="1.5" d="M0,-3.0v7 M-2.5,-0.5L0,-3.0L2.5,-0.5"/>
                </g>
                <g id="arrowRight" xlink:href="#dirArrow" transform="rotate(90) translate(36 -43)" onmousedown="handlePan(1,0)">
                  <use xlink:href="#rim" fill="#404040">
                        <set attributeName="fill" to="#808080" begin="arrowRight.mouseover" end="arrowRight.mouseout"/>
                  </use>
                  <path fill="none" stroke="white" stroke-width="1.5" d="M0,-3.0v7 M-2.5,-0.5L0,-3.0L2.5,-0.5"/>
                </g>
                <g id="arrowDown" xlink:href="#dirArrow" transform="rotate(180) translate(-30 -48)" onmousedown="handlePan(0,1)">
                  <use xlink:href="#rim" fill="#404040">
                        <set attributeName="fill" to="#808080" begin="arrowDown.mouseover" end="arrowDown.mouseout"/>
                  </use>
                  <path fill="none" stroke="white" stroke-width="1.5" d="M0,-3.0v7 M-2.5,-0.5L0,-3.0L2.5,-0.5"/>
                </g>
                <g id="arrowLeft" xlink:href="#dirArrow" transform="rotate(270) translate(-36 17)" onmousedown="handlePan(-1,0)">
                  <use xlink:href="#rim" fill="#404040">
                        <set attributeName="fill" to="#808080" begin="arrowLeft.mouseover" end="arrowLeft.mouseout"/>
                  </use>
                  <path fill="none" stroke="white" stroke-width="1.5" d="M0,-3.0v7 M-2.5,-0.5L0,-3.0L2.5,-0.5"/>
                </g>
        </g>
        <svg viewBox="0 0 15 15" width="100%" height="30px" preserveAspectRatio="xMaxYMin meet">
         <g id="arrow_out" transform="scale(0.3 0.3)">
          <a xlink:href="classccf_1_1ProofReceipt__coll__graph_org.svg" target="_base">
           <rect id="button" ry="5" rx="5" y="6" x="6" height="38" width="38"
                fill="#f2f5e9" fill-opacity="0.5" stroke="#606060" stroke-width="1.0"/>
           <path id="arrow"
             d="M 11.500037,31.436501 C 11.940474,20.09759 22.043105,11.32322 32.158766,21.979434 L 37.068811,17.246167 C 37.068811,17.246167 37.088388,32 37.088388,32 L 22.160133,31.978069 C 22.160133,31.978069 26.997745,27.140456 26.997745,27.140456 C 18.528582,18.264221 13.291696,25.230495 11.500037,31.436501 z"
             style="fill:#404040;"/>
          </a>
         </g>
        </svg>
</svg>
