<?xml version="1.0" encoding="UTF-8" standalone="no"?>
<!DOCTYPE svg PUBLIC "-//W3C//DTD SVG 1.1//EN"
 "http://www.w3.org/Graphics/SVG/1.1/DTD/svg11.dtd">
<!-- Generated by graphviz version 2.43.0 (0)
 -->
<!-- Title: ccf::NodeConfigurationSubsystem Pages: 1 -->
<!--zoomable 399 -->
<svg id="main" version="1.1" xmlns="http://www.w3.org/2000/svg" xmlns:xlink="http://www.w3.org/1999/xlink" xml:space="preserve" onload="init(evt)">
<style type="text/css"><![CDATA[
.edge:hover path { stroke: red; }
.edge:hover polygon { stroke: red; fill: red; }
]]></style>
<script type="text/javascript"><![CDATA[
var edges = document.getElementsByTagName('g');
if (edges && edges.length) {
  for (var i=0;i<edges.length;i++) {
    if (edges[i].id.substr(0,4)=='edge') {
      edges[i].setAttribute('class','edge');
    }
  }
}
]]></script>
        <defs>
                <circle id="rim" cx="0" cy="0" r="7"/>
                <circle id="rim2" cx="0" cy="0" r="3.5"/>
                <g id="zoomPlus">
                        <use xlink:href="#rim" fill="#404040">
                                <set attributeName="fill" to="#808080" begin="zoomplus.mouseover" end="zoomplus.mouseout"/>
                        </use>
                        <path d="M-4,0h8M0,-4v8" fill="none" stroke="white" stroke-width="1.5" pointer-events="none"/>
                </g>
                <g id="zoomMin">
                        <use xlink:href="#rim" fill="#404040">
                                <set attributeName="fill" to="#808080" begin="zoomminus.mouseover" end="zoomminus.mouseout"/>
                        </use>
                        <path d="M-4,0h8" fill="none" stroke="white" stroke-width="1.5" pointer-events="none"/>
                </g>
                <g id="dirArrow">
                        <path fill="none" stroke="white" stroke-width="1.5" d="M0,-3.0v7 M-2.5,-0.5L0,-3.0L2.5,-0.5"/>
                </g>
               <g id="resetDef">
                       <use xlink:href="#rim2" fill="#404040">
                               <set attributeName="fill" to="#808080" begin="reset.mouseover" end="reset.mouseout"/>
                       </use>
               </g>
        </defs>

<script type="text/javascript">
var viewWidth = 2751;
var viewHeight = 399;
var sectionId = 'dynsection-0';
</script>
<script xlink:href="svgpan.js"/>
<svg id="graph" class="graph">
<g id="viewport">
<title>ccf::NodeConfigurationSubsystem</title>
<polygon fill="white" stroke="transparent" points="-4,4 -4,-395 2747,-395 2747,4 -4,4"/>
<!-- Node1 -->
<g id="node1" class="node">
<title>Node1</title>
<g id="a_node1"><a xlink:title=" ">
<polygon fill="#bfbfbf" stroke="black" points="2562,-113.5 2562,-132.5 2743,-132.5 2743,-113.5 2562,-113.5"/>
<text text-anchor="middle" x="2652.5" y="-120.5" font-family="Helvetica,sans-Serif" font-size="10.00">ccf::NodeConfigurationSubsystem</text>
</a>
</g>
</g>
<!-- Node2 -->
<g id="node2" class="node">
<title>Node2</title>
<g id="a_node2"><a xlink:href="classccf_1_1AbstractNodeSubSystem.html" target="_top" xlink:title=" ">
<polygon fill="white" stroke="black" points="2277,-151.5 2277,-170.5 2434,-170.5 2434,-151.5 2277,-151.5"/>
<text text-anchor="middle" x="2355.5" y="-158.5" font-family="Helvetica,sans-Serif" font-size="10.00">ccf::AbstractNodeSubSystem</text>
</a>
</g>
</g>
<!-- Node2&#45;&gt;Node1 -->
<g id="edge1" class="edge">
<title>Node2&#45;&gt;Node1</title>
<path fill="none" stroke="midnightblue" d="M2444.14,-150.55C2475.64,-146.72 2511.43,-142.27 2544,-138 2557.08,-136.29 2571.04,-134.39 2584.43,-132.53"/>
<polygon fill="midnightblue" stroke="midnightblue" points="2443.58,-147.1 2434.08,-151.78 2444.43,-154.05 2443.58,-147.1"/>
</g>
<!-- Node3 -->
<g id="node3" class="node">
<title>Node3</title>
<g id="a_node3"><a xlink:href="classccf_1_1AbstractNodeState.html" target="_top" xlink:title=" ">
<polygon fill="white" stroke="black" points="2291.5,-113.5 2291.5,-132.5 2419.5,-132.5 2419.5,-113.5 2291.5,-113.5"/>
<text text-anchor="middle" x="2355.5" y="-120.5" font-family="Helvetica,sans-Serif" font-size="10.00">ccf::AbstractNodeState</text>
</a>
</g>
</g>
<!-- Node3&#45;&gt;Node1 -->
<g id="edge2" class="edge">
<title>Node3&#45;&gt;Node1</title>
<path fill="none" stroke="#9a32cd" stroke-dasharray="5,2" d="M2429.97,-123C2469.88,-123 2519.55,-123 2561.74,-123"/>
<polygon fill="#9a32cd" stroke="#9a32cd" points="2429.78,-119.5 2419.78,-123 2429.78,-126.5 2429.78,-119.5"/>
<text text-anchor="middle" x="2498" y="-126" font-family="Helvetica,sans-Serif" font-size="10.00"> node_state</text>
</g>
<!-- Node4 -->
<g id="node4" class="node">
<title>Node4</title>
<g id="a_node4"><a xlink:href="structccf_1_1NodeConfigurationState.html" target="_top" xlink:title=" ">
<polygon fill="white" stroke="black" points="2279.5,-75.5 2279.5,-94.5 2431.5,-94.5 2431.5,-75.5 2279.5,-75.5"/>
<text text-anchor="middle" x="2355.5" y="-82.5" font-family="Helvetica,sans-Serif" font-size="10.00">ccf::NodeConfigurationState</text>
</a>
</g>
</g>
<!-- Node4&#45;&gt;Node1 -->
<g id="edge3" class="edge">
<title>Node4&#45;&gt;Node1</title>
<path fill="none" stroke="#9a32cd" stroke-dasharray="5,2" d="M2442.02,-95.19C2474.03,-99.08 2510.7,-103.63 2544,-108 2557.08,-109.71 2571.04,-111.61 2584.43,-113.47"/>
<polygon fill="#9a32cd" stroke="#9a32cd" points="2442.15,-91.68 2431.8,-93.95 2441.31,-98.63 2442.15,-91.68"/>
<text text-anchor="middle" x="2498" y="-111" font-family="Helvetica,sans-Serif" font-size="10.00"> node_config_state</text>
</g>
<!-- Node5 -->
<g id="node5" class="node">
<title>Node5</title>
<g id="a_node5"><a xlink:href="structStartupConfig.html" target="_top" xlink:title=" ">
<polygon fill="white" stroke="black" points="2010.5,-138.5 2010.5,-157.5 2093.5,-157.5 2093.5,-138.5 2010.5,-138.5"/>
<text text-anchor="middle" x="2052" y="-145.5" font-family="Helvetica,sans-Serif" font-size="10.00">StartupConfig</text>
</a>
</g>
</g>
<!-- Node5&#45;&gt;Node4 -->
<g id="edge4" class="edge">
<title>Node5&#45;&gt;Node4</title>
<path fill="none" stroke="#9a32cd" stroke-dasharray="5,2" d="M2103.59,-137.43C2160.94,-125.45 2253.6,-106.08 2308.83,-94.54"/>
<polygon fill="#9a32cd" stroke="#9a32cd" points="2102.73,-134.03 2093.66,-139.5 2104.17,-140.88 2102.73,-134.03"/>
<text text-anchor="middle" x="2203.5" y="-131" font-family="Helvetica,sans-Serif" font-size="10.00"> node_config</text>
</g>
<!-- Node6 -->
<g id="node6" class="node">
<title>Node6</title>
<g id="a_node6"><a xlink:href="structCCFConfig.html" target="_top" xlink:title=" ">
<polygon fill="white" stroke="black" points="1785.5,-288.5 1785.5,-307.5 1852.5,-307.5 1852.5,-288.5 1785.5,-288.5"/>
<text text-anchor="middle" x="1819" y="-295.5" font-family="Helvetica,sans-Serif" font-size="10.00">CCFConfig</text>
</a>
</g>
</g>
<!-- Node6&#45;&gt;Node5 -->
<g id="edge5" class="edge">
<title>Node6&#45;&gt;Node5</title>
<path fill="none" stroke="midnightblue" d="M1846.04,-283.12C1873.69,-267.13 1918.5,-240.67 1956,-216 1986.16,-196.16 2020.31,-171.03 2038.32,-157.56"/>
<polygon fill="midnightblue" stroke="midnightblue" points="1843.93,-280.29 1837.01,-288.32 1847.43,-286.36 1843.93,-280.29"/>
</g>
<!-- Node7 -->
<g id="node7" class="node">
<title>Node7</title>
<g id="a_node7"><a xlink:href="structconsensus_1_1Configuration.html" target="_top" xlink:title=" ">
<polygon fill="white" stroke="black" points="1473.5,-270.5 1473.5,-289.5 1612.5,-289.5 1612.5,-270.5 1473.5,-270.5"/>
<text text-anchor="middle" x="1543" y="-277.5" font-family="Helvetica,sans-Serif" font-size="10.00">consensus::Configuration</text>
</a>
</g>
</g>
<!-- Node7&#45;&gt;Node6 -->
<g id="edge6" class="edge">
<title>Node7&#45;&gt;Node6</title>
<path fill="none" stroke="#9a32cd" stroke-dasharray="5,2" d="M1622.7,-279.27C1656.14,-279.59 1695.54,-280.78 1731,-284 1749.13,-285.64 1769.2,-288.79 1785.5,-291.68"/>
<polygon fill="#9a32cd" stroke="#9a32cd" points="1622.54,-275.77 1612.52,-279.2 1622.49,-282.77 1622.54,-275.77"/>
<text text-anchor="middle" x="1685.5" y="-287" font-family="Helvetica,sans-Serif" font-size="10.00"> consensus</text>
</g>
<!-- Node8 -->
<g id="node8" class="node">
<title>Node8</title>
<g id="a_node8"><a xlink:href="structds_1_1TimeString.html" target="_top" xlink:title=" ">
<polygon fill="white" stroke="black" points="1212,-264.5 1212,-283.5 1299,-283.5 1299,-264.5 1212,-264.5"/>
<text text-anchor="middle" x="1255.5" y="-271.5" font-family="Helvetica,sans-Serif" font-size="10.00">ds::TimeString</text>
</a>
</g>
</g>
<!-- Node8&#45;&gt;Node7 -->
<g id="edge7" class="edge">
<title>Node8&#45;&gt;Node7</title>
<path fill="none" stroke="#9a32cd" stroke-dasharray="5,2" d="M1309.35,-273.62C1347.37,-273.5 1399.86,-273.68 1446,-275 1454.84,-275.25 1464.14,-275.62 1473.32,-276.03"/>
<polygon fill="#9a32cd" stroke="#9a32cd" points="1309.02,-270.12 1299.03,-273.66 1309.05,-277.12 1309.02,-270.12"/>
<text text-anchor="middle" x="1394.5" y="-289" font-family="Helvetica,sans-Serif" font-size="10.00"> election_timeout</text>
<text text-anchor="middle" x="1394.5" y="-278" font-family="Helvetica,sans-Serif" font-size="10.00">message_timeout</text>
</g>
<!-- Node18 -->
<g id="node18" class="node">
<title>Node18</title>
<g id="a_node18"><a xlink:href="structCCFConfig_1_1LedgerSignatures.html" target="_top" xlink:title=" ">
<polygon fill="white" stroke="black" points="1464,-346.5 1464,-365.5 1622,-365.5 1622,-346.5 1464,-346.5"/>
<text text-anchor="middle" x="1543" y="-353.5" font-family="Helvetica,sans-Serif" font-size="10.00">CCFConfig::LedgerSignatures</text>
</a>
</g>
</g>
<!-- Node8&#45;&gt;Node18 -->
<g id="edge23" class="edge">
<title>Node8&#45;&gt;Node18</title>
<path fill="none" stroke="#9a32cd" stroke-dasharray="5,2" d="M1277.72,-289.62C1294.57,-301.23 1319.18,-316.48 1343,-325 1381.52,-338.78 1426.39,-346.44 1463.77,-350.7"/>
<polygon fill="#9a32cd" stroke="#9a32cd" points="1279.4,-286.52 1269.21,-283.61 1275.36,-292.23 1279.4,-286.52"/>
<text text-anchor="middle" x="1394.5" y="-351" font-family="Helvetica,sans-Serif" font-size="10.00"> delay</text>
</g>
<!-- Node19 -->
<g id="node19" class="node">
<title>Node19</title>
<g id="a_node19"><a xlink:href="structCCFConfig_1_1JWT.html" target="_top" xlink:title=" ">
<polygon fill="white" stroke="black" points="1497,-308.5 1497,-327.5 1589,-327.5 1589,-308.5 1497,-308.5"/>
<text text-anchor="middle" x="1543" y="-315.5" font-family="Helvetica,sans-Serif" font-size="10.00">CCFConfig::JWT</text>
</a>
</g>
</g>
<!-- Node8&#45;&gt;Node19 -->
<g id="edge25" class="edge">
<title>Node8&#45;&gt;Node19</title>
<path fill="none" stroke="#9a32cd" stroke-dasharray="5,2" d="M1297.84,-286.39C1312.05,-290.27 1328.12,-294.25 1343,-297 1395.27,-306.65 1456.14,-312.26 1496.66,-315.22"/>
<polygon fill="#9a32cd" stroke="#9a32cd" points="1298.44,-282.92 1287.87,-283.6 1296.56,-289.66 1298.44,-282.92"/>
<text text-anchor="middle" x="1394.5" y="-313" font-family="Helvetica,sans-Serif" font-size="10.00"> key_refresh_interval</text>
</g>
<!-- Node26 -->
<g id="node26" class="node">
<title>Node26</title>
<g id="a_node26"><a xlink:href="structStartupConfig_1_1Join.html" target="_top" xlink:title=" ">
<polygon fill="white" stroke="black" points="1765.5,-177.5 1765.5,-196.5 1872.5,-196.5 1872.5,-177.5 1765.5,-177.5"/>
<text text-anchor="middle" x="1819" y="-184.5" font-family="Helvetica,sans-Serif" font-size="10.00">StartupConfig::Join</text>
</a>
</g>
</g>
<!-- Node8&#45;&gt;Node26 -->
<g id="edge35" class="edge">
<title>Node8&#45;&gt;Node26</title>
<path fill="none" stroke="#9a32cd" stroke-dasharray="5,2" d="M1309.36,-267.45C1351.27,-262.37 1411.33,-255.31 1464,-250 1523.25,-244.02 1678.01,-254.19 1731,-227 1741.94,-221.39 1738.62,-212.59 1749,-206 1755.08,-202.14 1761.95,-199.05 1768.94,-196.59"/>
<polygon fill="#9a32cd" stroke="#9a32cd" points="1308.88,-263.99 1299.38,-268.67 1309.73,-270.94 1308.88,-263.99"/>
<text text-anchor="middle" x="1543" y="-253" font-family="Helvetica,sans-Serif" font-size="10.00"> retry_timeout</text>
</g>
<!-- Node9 -->
<g id="node9" class="node">
<title>Node9</title>
<g id="a_node9"><a xlink:href="structds_1_1UnitString.html" target="_top" xlink:title=" ">
<polygon fill="white" stroke="black" points="803,-259.5 803,-278.5 886,-278.5 886,-259.5 803,-259.5"/>
<text text-anchor="middle" x="844.5" y="-266.5" font-family="Helvetica,sans-Serif" font-size="10.00">ds::UnitString</text>
</a>
</g>
</g>
<!-- Node9&#45;&gt;Node8 -->
<g id="edge8" class="edge">
<title>Node9&#45;&gt;Node8</title>
<path fill="none" stroke="midnightblue" d="M896.22,-269.62C977.59,-270.61 1135.86,-272.55 1211.81,-273.48"/>
<polygon fill="midnightblue" stroke="midnightblue" points="896.25,-266.12 886.21,-269.5 896.17,-273.12 896.25,-266.12"/>
</g>
<!-- Node10 -->
<g id="node10" class="node">
<title>Node10</title>
<g id="a_node10"><a xlink:title=" ">
<polygon fill="white" stroke="black" points="376,-188.5 376,-207.5 441,-207.5 441,-188.5 376,-188.5"/>
<text text-anchor="middle" x="408.5" y="-195.5" font-family="Helvetica,sans-Serif" font-size="10.00">std::string</text>
</a>
</g>
</g>
<!-- Node10&#45;&gt;Node5 -->
<g id="edge27" class="edge">
<title>Node10&#45;&gt;Node5</title>
<path fill="none" stroke="#9a32cd" stroke-dasharray="5,2" d="M436.52,-183.67C487.89,-157.81 603.82,-106 708,-106 708,-106 708,-106 1132.5,-106 1472.11,-106 1881.61,-135.01 2010.29,-144.81"/>
<polygon fill="#9a32cd" stroke="#9a32cd" points="434.73,-180.66 427.42,-188.33 437.91,-186.89 434.73,-180.66"/>
<text text-anchor="middle" x="1255.5" y="-112" font-family="Helvetica,sans-Serif" font-size="10.00"> startup_host_time</text>
</g>
<!-- Node10&#45;&gt;Node9 -->
<g id="edge9" class="edge">
<title>Node10&#45;&gt;Node9</title>
<path fill="none" stroke="#9a32cd" stroke-dasharray="5,2" d="M443.36,-211.08C463.34,-218.31 489.29,-226.84 513,-232 615.96,-254.42 740.08,-263.68 802.87,-267.15"/>
<polygon fill="#9a32cd" stroke="#9a32cd" points="444.38,-207.73 433.78,-207.56 441.96,-214.3 444.38,-207.73"/>
<text text-anchor="middle" x="567" y="-252" font-family="Helvetica,sans-Serif" font-size="10.00"> str</text>
</g>
<!-- Node14 -->
<g id="node14" class="node">
<title>Node14</title>
<g id="a_node14"><a xlink:href="structccf_1_1NodeInfoNetwork__v2_1_1NetInterface.html" target="_top" xlink:title="Network interface description.">
<polygon fill="white" stroke="black" points="648,-191 648,-221 770,-221 770,-191 648,-191"/>
<text text-anchor="start" x="656" y="-209" font-family="Helvetica,sans-Serif" font-size="10.00">ccf::NodeInfoNetwork</text>
<text text-anchor="middle" x="709" y="-198" font-family="Helvetica,sans-Serif" font-size="10.00">_v2::NetInterface</text>
</a>
</g>
</g>
<!-- Node10&#45;&gt;Node14 -->
<g id="edge14" class="edge">
<title>Node10&#45;&gt;Node14</title>
<path fill="none" stroke="#9a32cd" stroke-dasharray="5,2" d="M451.06,-197.27C493.73,-196.74 562.03,-196.49 621,-199 629.63,-199.37 638.73,-199.92 647.66,-200.55"/>
<polygon fill="#9a32cd" stroke="#9a32cd" points="451,-193.77 441.05,-197.41 451.1,-200.77 451,-193.77"/>
<text text-anchor="middle" x="567" y="-224" font-family="Helvetica,sans-Serif" font-size="10.00"> bind_address</text>
<text text-anchor="middle" x="567" y="-213" font-family="Helvetica,sans-Serif" font-size="10.00">protocol</text>
<text text-anchor="middle" x="567" y="-202" font-family="Helvetica,sans-Serif" font-size="10.00">published_address</text>
</g>
<!-- Node15 -->
<g id="node15" class="node">
<title>Node15</title>
<g id="a_node15"><a xlink:title=" ">
<polygon fill="white" stroke="black" points="920.5,-153 920.5,-183 1066.5,-183 1066.5,-153 920.5,-153"/>
<text text-anchor="start" x="928.5" y="-171" font-family="Helvetica,sans-Serif" font-size="10.00">std::map&lt; RpcInterfaceID,</text>
<text text-anchor="middle" x="993.5" y="-160" font-family="Helvetica,sans-Serif" font-size="10.00"> NetInterface &gt;</text>
</a>
</g>
</g>
<!-- Node10&#45;&gt;Node15 -->
<g id="edge16" class="edge">
<title>Node10&#45;&gt;Node15</title>
<path fill="none" stroke="#9a32cd" stroke-dasharray="5,2" d="M451.5,-191.67C497.42,-185.07 573.25,-175.13 639,-171 736.24,-164.89 848.82,-165.2 920.31,-166.32"/>
<polygon fill="#9a32cd" stroke="#9a32cd" points="450.72,-188.25 441.33,-193.15 451.73,-195.17 450.72,-188.25"/>
<text text-anchor="middle" x="709" y="-174" font-family="Helvetica,sans-Serif" font-size="10.00"> keys</text>
</g>
<!-- Node16 -->
<g id="node16" class="node">
<title>Node16</title>
<g id="a_node16"><a xlink:href="structCCFConfig_1_1NodeCertificateInfo.html" target="_top" xlink:title=" ">
<polygon fill="white" stroke="black" points="910,-329.5 910,-348.5 1077,-348.5 1077,-329.5 910,-329.5"/>
<text text-anchor="middle" x="993.5" y="-336.5" font-family="Helvetica,sans-Serif" font-size="10.00">CCFConfig::NodeCertificateInfo</text>
</a>
</g>
</g>
<!-- Node10&#45;&gt;Node16 -->
<g id="edge19" class="edge">
<title>Node10&#45;&gt;Node16</title>
<path fill="none" stroke="#9a32cd" stroke-dasharray="5,2" d="M429.01,-213.97C448.89,-229.34 481.22,-251.99 513,-264 532.21,-271.26 800.37,-310.98 927.07,-329.49"/>
<polygon fill="#9a32cd" stroke="#9a32cd" points="431.07,-211.13 421.05,-207.68 426.73,-216.62 431.07,-211.13"/>
<text text-anchor="middle" x="709" y="-310" font-family="Helvetica,sans-Serif" font-size="10.00"> subject_name</text>
</g>
<!-- Node17 -->
<g id="node17" class="node">
<title>Node17</title>
<g id="a_node17"><a xlink:title=" ">
<polygon fill="white" stroke="black" points="639,-329.5 639,-348.5 779,-348.5 779,-329.5 639,-329.5"/>
<text text-anchor="middle" x="709" y="-336.5" font-family="Helvetica,sans-Serif" font-size="10.00">std::vector&lt; std::string &gt;</text>
</a>
</g>
</g>
<!-- Node10&#45;&gt;Node17 -->
<g id="edge21" class="edge">
<title>Node10&#45;&gt;Node17</title>
<path fill="none" stroke="#9a32cd" stroke-dasharray="5,2" d="M419.87,-216.26C436.01,-242.78 469.83,-291.25 513,-314 551.35,-334.2 599.64,-340.52 638.57,-341.74"/>
<polygon fill="#9a32cd" stroke="#9a32cd" points="422.84,-214.4 414.74,-207.57 416.81,-217.96 422.84,-214.4"/>
<text text-anchor="middle" x="567" y="-343" font-family="Helvetica,sans-Serif" font-size="10.00"> elements</text>
</g>
<!-- Node21 -->
<g id="node21" class="node">
<title>Node21</title>
<g id="a_node21"><a xlink:href="structStartupConfig_1_1Start.html" target="_top" xlink:title=" ">
<polygon fill="white" stroke="black" points="653,-43.5 653,-62.5 765,-62.5 765,-43.5 653,-43.5"/>
<text text-anchor="middle" x="709" y="-50.5" font-family="Helvetica,sans-Serif" font-size="10.00">StartupConfig::Start</text>
</a>
</g>
</g>
<!-- Node10&#45;&gt;Node21 -->
<g id="edge32" class="edge">
<title>Node10&#45;&gt;Node21</title>
<path fill="none" stroke="#9a32cd" stroke-dasharray="5,2" d="M419.87,-179.67C436.02,-153.03 469.84,-104.27 513,-81 536.48,-68.34 603.75,-60.71 652.73,-56.68"/>
<polygon fill="#9a32cd" stroke="#9a32cd" points="416.8,-178 414.74,-188.39 422.83,-181.55 416.8,-178"/>
<text text-anchor="middle" x="567" y="-84" font-family="Helvetica,sans-Serif" font-size="10.00"> constitution</text>
</g>
<!-- Node11 -->
<g id="node11" class="node">
<title>Node11</title>
<g id="a_node11"><a xlink:title=" ">
<polygon fill="white" stroke="black" points="133,-183 133,-213 237,-213 237,-183 133,-183"/>
<text text-anchor="start" x="141" y="-201" font-family="Helvetica,sans-Serif" font-size="10.00">std::basic_string&lt;</text>
<text text-anchor="middle" x="185" y="-190" font-family="Helvetica,sans-Serif" font-size="10.00"> Char &gt;</text>
</a>
</g>
</g>
<!-- Node11&#45;&gt;Node10 -->
<g id="edge10" class="edge">
<title>Node11&#45;&gt;Node10</title>
<path fill="none" stroke="midnightblue" d="M247.15,-198C288.86,-198 342.4,-198 375.83,-198"/>
<polygon fill="midnightblue" stroke="midnightblue" points="247.09,-194.5 237.09,-198 247.09,-201.5 247.09,-194.5"/>
</g>
<!-- Node12 -->
<g id="node12" class="node">
<title>Node12</title>
<g id="a_node12"><a xlink:href="structccf_1_1NodeInfoNetwork.html" target="_top" xlink:title=" ">
<polygon fill="white" stroke="black" points="1482,-185.5 1482,-204.5 1604,-204.5 1604,-185.5 1482,-185.5"/>
<text text-anchor="middle" x="1543" y="-192.5" font-family="Helvetica,sans-Serif" font-size="10.00">ccf::NodeInfoNetwork</text>
</a>
</g>
</g>
<!-- Node12&#45;&gt;Node6 -->
<g id="edge11" class="edge">
<title>Node12&#45;&gt;Node6</title>
<path fill="none" stroke="#9a32cd" stroke-dasharray="5,2" d="M1587,-207.52C1598.44,-211.04 1610.74,-215.01 1622,-219 1685.97,-241.69 1759.84,-272.84 1795.9,-288.38"/>
<polygon fill="#9a32cd" stroke="#9a32cd" points="1587.81,-204.1 1577.22,-204.55 1585.77,-210.8 1587.81,-204.1"/>
<text text-anchor="middle" x="1685.5" y="-263" font-family="Helvetica,sans-Serif" font-size="10.00"> network</text>
</g>
<!-- Node13 -->
<g id="node13" class="node">
<title>Node13</title>
<g id="a_node13"><a xlink:href="structccf_1_1NodeInfoNetwork__v2.html" target="_top" xlink:title="Node network information.">
<polygon fill="white" stroke="black" points="1186,-185.5 1186,-204.5 1325,-204.5 1325,-185.5 1186,-185.5"/>
<text text-anchor="middle" x="1255.5" y="-192.5" font-family="Helvetica,sans-Serif" font-size="10.00">ccf::NodeInfoNetwork_v2</text>
</a>
</g>
</g>
<!-- Node13&#45;&gt;Node12 -->
<g id="edge12" class="edge">
<title>Node13&#45;&gt;Node12</title>
<path fill="none" stroke="midnightblue" d="M1335.52,-195C1381.69,-195 1439.06,-195 1481.6,-195"/>
<polygon fill="midnightblue" stroke="midnightblue" points="1335.25,-191.5 1325.25,-195 1335.25,-198.5 1335.25,-191.5"/>
</g>
<!-- Node14&#45;&gt;Node13 -->
<g id="edge13" class="edge">
<title>Node14&#45;&gt;Node13</title>
<path fill="none" stroke="#9a32cd" stroke-dasharray="5,2" d="M780.48,-206.36C814.23,-206.44 855.21,-206.4 892,-206 1014.69,-204.67 1045.4,-204.87 1168,-200 1173.71,-199.77 1179.63,-199.5 1185.58,-199.21"/>
<polygon fill="#9a32cd" stroke="#9a32cd" points="780.26,-202.86 770.25,-206.33 780.24,-209.86 780.26,-202.86"/>
<text text-anchor="middle" x="993.5" y="-208" font-family="Helvetica,sans-Serif" font-size="10.00"> node_to_node_interface</text>
</g>
<!-- Node14&#45;&gt;Node15 -->
<g id="edge17" class="edge">
<title>Node14&#45;&gt;Node15</title>
<path fill="none" stroke="#9a32cd" stroke-dasharray="5,2" d="M780.28,-196.55C822.96,-190.81 877.31,-183.49 920.32,-177.71"/>
<polygon fill="#9a32cd" stroke="#9a32cd" points="779.7,-193.09 770.26,-197.89 780.63,-200.03 779.7,-193.09"/>
<text text-anchor="middle" x="844.5" y="-196" font-family="Helvetica,sans-Serif" font-size="10.00"> elements</text>
</g>
<!-- Node15&#45;&gt;Node13 -->
<g id="edge15" class="edge">
<title>Node15&#45;&gt;Node13</title>
<path fill="none" stroke="#9a32cd" stroke-dasharray="5,2" d="M1076.81,-176.55C1111.91,-180.19 1152.41,-184.4 1185.86,-187.87"/>
<polygon fill="#9a32cd" stroke="#9a32cd" points="1076.89,-173.04 1066.58,-175.49 1076.16,-180 1076.89,-173.04"/>
<text text-anchor="middle" x="1131.5" y="-188" font-family="Helvetica,sans-Serif" font-size="10.00"> rpc_interfaces</text>
</g>
<!-- Node16&#45;&gt;Node6 -->
<g id="edge18" class="edge">
<title>Node16&#45;&gt;Node6</title>
<path fill="none" stroke="#9a32cd" stroke-dasharray="5,2" d="M1066.84,-349.89C1183.72,-365.96 1421.29,-392.36 1622,-375 1670.99,-370.76 1685.34,-374.25 1731,-356 1761,-344.01 1791.34,-320.65 1807.05,-307.53"/>
<polygon fill="#9a32cd" stroke="#9a32cd" points="1067.32,-346.42 1056.93,-348.51 1066.35,-353.35 1067.32,-346.42"/>
<text text-anchor="middle" x="1394.5" y="-383" font-family="Helvetica,sans-Serif" font-size="10.00"> node_certificate</text>
</g>
<!-- Node17&#45;&gt;Node16 -->
<g id="edge20" class="edge">
<title>Node17&#45;&gt;Node16</title>
<path fill="none" stroke="#9a32cd" stroke-dasharray="5,2" d="M789.49,-339C827.04,-339 871.83,-339 909.78,-339"/>
<polygon fill="#9a32cd" stroke="#9a32cd" points="789.11,-335.5 779.11,-339 789.11,-342.5 789.11,-335.5"/>
<text text-anchor="middle" x="844.5" y="-342" font-family="Helvetica,sans-Serif" font-size="10.00"> subject_alt_names</text>
</g>
<!-- Node18&#45;&gt;Node6 -->
<g id="edge22" class="edge">
<title>Node18&#45;&gt;Node6</title>
<path fill="none" stroke="#9a32cd" stroke-dasharray="5,2" d="M1625.54,-344.96C1658.49,-339.86 1696.76,-333.11 1731,-325 1751.16,-320.22 1773.47,-313.27 1790.45,-307.61"/>
<polygon fill="#9a32cd" stroke="#9a32cd" points="1624.85,-341.52 1615.49,-346.49 1625.91,-348.44 1624.85,-341.52"/>
<text text-anchor="middle" x="1685.5" y="-344" font-family="Helvetica,sans-Serif" font-size="10.00"> ledger_signatures</text>
</g>
<!-- Node19&#45;&gt;Node6 -->
<g id="edge24" class="edge">
<title>Node19&#45;&gt;Node6</title>
<path fill="none" stroke="#9a32cd" stroke-dasharray="5,2" d="M1599.31,-313.96C1655.05,-309.89 1739.21,-303.75 1785.17,-300.4"/>
<polygon fill="#9a32cd" stroke="#9a32cd" points="1598.96,-310.48 1589.25,-314.7 1599.47,-317.46 1598.96,-310.48"/>
<text text-anchor="middle" x="1685.5" y="-313" font-family="Helvetica,sans-Serif" font-size="10.00"> jwt</text>
</g>
<!-- Node20 -->
<g id="node20" class="node">
<title>Node20</title>
<g id="a_node20"><a xlink:title=" ">
<polygon fill="white" stroke="black" points="1480.5,-143.5 1480.5,-162.5 1605.5,-162.5 1605.5,-143.5 1480.5,-143.5"/>
<text text-anchor="middle" x="1543" y="-150.5" font-family="Helvetica,sans-Serif" font-size="10.00">std::vector&lt; uint8_t &gt;</text>
</a>
</g>
</g>
<!-- Node20&#45;&gt;Node5 -->
<g id="edge26" class="edge">
<title>Node20&#45;&gt;Node5</title>
<path fill="none" stroke="#9a32cd" stroke-dasharray="5,2" d="M1615.81,-152.29C1723.75,-151.23 1924.31,-149.25 2010.22,-148.4"/>
<polygon fill="#9a32cd" stroke="#9a32cd" points="1615.63,-148.79 1605.66,-152.39 1615.7,-155.79 1615.63,-148.79"/>
<text text-anchor="middle" x="1819" y="-154" font-family="Helvetica,sans-Serif" font-size="10.00"> startup_snapshot</text>
</g>
<!-- Node20&#45;&gt;Node26 -->
<g id="edge36" class="edge">
<title>Node20&#45;&gt;Node26</title>
<path fill="none" stroke="#9a32cd" stroke-dasharray="5,2" d="M1615.91,-161.92C1662.72,-167.73 1722.73,-175.18 1765.16,-180.44"/>
<polygon fill="#9a32cd" stroke="#9a32cd" points="1616.19,-158.43 1605.83,-160.67 1615.33,-165.38 1616.19,-158.43"/>
<text text-anchor="middle" x="1685.5" y="-179" font-family="Helvetica,sans-Serif" font-size="10.00"> service_cert</text>
</g>
<!-- Node21&#45;&gt;Node5 -->
<g id="edge28" class="edge">
<title>Node21&#45;&gt;Node5</title>
<path fill="none" stroke="#9a32cd" stroke-dasharray="5,2" d="M775.2,-55.53C832.45,-57.54 917.99,-60 992.5,-60 992.5,-60 992.5,-60 1820,-60 1881.71,-60 1898.76,-64.93 1956,-88 1988.2,-100.98 2021.55,-124.92 2038.89,-138.3"/>
<polygon fill="#9a32cd" stroke="#9a32cd" points="775.32,-52.03 765.2,-55.18 775.07,-59.03 775.32,-52.03"/>
<text text-anchor="middle" x="1394.5" y="-63" font-family="Helvetica,sans-Serif" font-size="10.00"> start</text>
</g>
<!-- Node22 -->
<g id="node22" class="node">
<title>Node22</title>
<g id="a_node22"><a xlink:title=" ">
<polygon fill="white" stroke="black" points="322,-38.5 322,-57.5 495,-57.5 495,-38.5 322,-38.5"/>
<text text-anchor="middle" x="408.5" y="-45.5" font-family="Helvetica,sans-Serif" font-size="10.00">std::vector&lt; ccf::NewMember &gt;</text>
</a>
</g>
</g>
<!-- Node22&#45;&gt;Node21 -->
<g id="edge29" class="edge">
<title>Node22&#45;&gt;Node21</title>
<path fill="none" stroke="#9a32cd" stroke-dasharray="5,2" d="M505.27,-45.96C541.53,-45.61 583.18,-45.7 621,-47 631.29,-47.35 642.25,-47.94 652.8,-48.62"/>
<polygon fill="#9a32cd" stroke="#9a32cd" points="505.15,-42.46 495.19,-46.07 505.23,-49.46 505.15,-42.46"/>
<text text-anchor="middle" x="567" y="-50" font-family="Helvetica,sans-Serif" font-size="10.00"> members</text>
</g>
<!-- Node23 -->
<g id="node23" class="node">
<title>Node23</title>
<g id="a_node23"><a xlink:href="structccf_1_1NewMember.html" target="_top" xlink:title=" ">
<polygon fill="white" stroke="black" points="136,-38.5 136,-57.5 234,-57.5 234,-38.5 136,-38.5"/>
<text text-anchor="middle" x="185" y="-45.5" font-family="Helvetica,sans-Serif" font-size="10.00">ccf::NewMember</text>
</a>
</g>
</g>
<!-- Node23&#45;&gt;Node22 -->
<g id="edge30" class="edge">
<title>Node23&#45;&gt;Node22</title>
<path fill="none" stroke="#9a32cd" stroke-dasharray="5,2" d="M244.26,-48C267.9,-48 295.69,-48 321.57,-48"/>
<polygon fill="#9a32cd" stroke="#9a32cd" points="244.06,-44.5 234.06,-48 244.06,-51.5 244.06,-44.5"/>
<text text-anchor="middle" x="279.5" y="-51" font-family="Helvetica,sans-Serif" font-size="10.00"> elements</text>
</g>
<!-- Node24 -->
<g id="node24" class="node">
<title>Node24</title>
<g id="a_node24"><a xlink:href="classcrypto_1_1Pem.html" target="_top" xlink:title=" ">
<polygon fill="white" stroke="black" points="0,-38.5 0,-57.5 75,-57.5 75,-38.5 0,-38.5"/>
<text text-anchor="middle" x="37.5" y="-45.5" font-family="Helvetica,sans-Serif" font-size="10.00">crypto::Pem</text>
</a>
</g>
</g>
<!-- Node24&#45;&gt;Node23 -->
<g id="edge31" class="edge">
<title>Node24&#45;&gt;Node23</title>
<path fill="none" stroke="#9a32cd" stroke-dasharray="5,2" d="M85.47,-48C101.55,-48 119.56,-48 135.74,-48"/>
<polygon fill="#9a32cd" stroke="#9a32cd" points="85.22,-44.5 75.22,-48 85.22,-51.5 85.22,-44.5"/>
<text text-anchor="middle" x="104" y="-51" font-family="Helvetica,sans-Serif" font-size="10.00"> cert</text>
</g>
<!-- Node25 -->
<g id="node25" class="node">
<title>Node25</title>
<g id="a_node25"><a xlink:href="structccf_1_1ServiceConfiguration.html" target="_top" xlink:title=" ">
<polygon fill="white" stroke="black" points="340,-0.5 340,-19.5 477,-19.5 477,-0.5 340,-0.5"/>
<text text-anchor="middle" x="408.5" y="-7.5" font-family="Helvetica,sans-Serif" font-size="10.00">ccf::ServiceConfiguration</text>
</a>
</g>
</g>
<!-- Node25&#45;&gt;Node21 -->
<g id="edge33" class="edge">
<title>Node25&#45;&gt;Node21</title>
<path fill="none" stroke="#9a32cd" stroke-dasharray="5,2" d="M487,-14.92C527.18,-18.17 576.94,-23.29 621,-31 639.11,-34.17 659.01,-39.09 675.2,-43.48"/>
<polygon fill="#9a32cd" stroke="#9a32cd" points="487.24,-11.43 477,-14.13 486.7,-18.41 487.24,-11.43"/>
<text text-anchor="middle" x="567" y="-34" font-family="Helvetica,sans-Serif" font-size="10.00"> service_configuration</text>
</g>
<!-- Node26&#45;&gt;Node5 -->
<g id="edge34" class="edge">
<title>Node26&#45;&gt;Node5</title>
<path fill="none" stroke="#9a32cd" stroke-dasharray="5,2" d="M1882.78,-176.4C1923.4,-169.54 1975.1,-160.82 2010.39,-154.86"/>
<polygon fill="#9a32cd" stroke="#9a32cd" points="1881.98,-172.99 1872.71,-178.1 1883.15,-179.89 1881.98,-172.99"/>
<text text-anchor="middle" x="1931.5" y="-175" font-family="Helvetica,sans-Serif" font-size="10.00"> join</text>
</g>
<!-- Node27 -->
<g id="node27" class="node">
<title>Node27</title>
<g id="a_node27"><a xlink:href="structStartupConfig_1_1Recover.html" target="_top" xlink:title=" ">
<polygon fill="white" stroke="black" points="1755,-215.5 1755,-234.5 1883,-234.5 1883,-215.5 1755,-215.5"/>
<text text-anchor="middle" x="1819" y="-222.5" font-family="Helvetica,sans-Serif" font-size="10.00">StartupConfig::Recover</text>
</a>
</g>
</g>
<!-- Node27&#45;&gt;Node5 -->
<g id="edge37" class="edge">
<title>Node27&#45;&gt;Node5</title>
<path fill="none" stroke="#9a32cd" stroke-dasharray="5,2" d="M1864.51,-212.8C1872.66,-210.55 1881.09,-208.21 1889,-206 1918.81,-197.67 1926.75,-197.12 1956,-187 1981.78,-178.08 2010.68,-165.9 2029.76,-157.53"/>
<polygon fill="#9a32cd" stroke="#9a32cd" points="1863.47,-209.45 1854.76,-215.48 1865.33,-216.2 1863.47,-209.45"/>
<text text-anchor="middle" x="1931.5" y="-204" font-family="Helvetica,sans-Serif" font-size="10.00"> recover</text>
</g>
<!-- Node28 -->
<g id="node28" class="node">
<title>Node28</title>
<g id="a_node28"><a xlink:title=" ">
<polygon fill="white" stroke="black" points="1974,-40.5 1974,-81.5 2130,-81.5 2130,-40.5 1974,-40.5"/>
<text text-anchor="start" x="1982" y="-69.5" font-family="Helvetica,sans-Serif" font-size="10.00">std::map&lt; NodeInfoNetwork</text>
<text text-anchor="start" x="1982" y="-58.5" font-family="Helvetica,sans-Serif" font-size="10.00">::RpcInterfaceID, std::</text>
<text text-anchor="middle" x="2052" y="-47.5" font-family="Helvetica,sans-Serif" font-size="10.00">vector&lt; std::regex &gt; &gt;</text>
</a>
</g>
</g>
<!-- Node28&#45;&gt;Node4 -->
<g id="edge38" class="edge">
<title>Node28&#45;&gt;Node4</title>
<path fill="none" stroke="#9a32cd" stroke-dasharray="5,2" d="M2140.53,-64.81C2177.18,-66.73 2220.2,-69.44 2259,-73 2266.74,-73.71 2274.82,-74.56 2282.85,-75.47"/>
<polygon fill="#9a32cd" stroke="#9a32cd" points="2140.54,-61.3 2130.37,-64.28 2140.18,-68.29 2140.54,-61.3"/>
<text text-anchor="middle" x="2203.5" y="-76" font-family="Helvetica,sans-Serif" font-size="10.00"> rpc_interface_regexes</text>
</g>
<!-- Node29 -->
<g id="node29" class="node">
<title>Node29</title>
<g id="a_node29"><a xlink:title=" ">
<polygon fill="white" stroke="black" points="1749,-12.5 1749,-31.5 1889,-31.5 1889,-12.5 1749,-12.5"/>
<text text-anchor="middle" x="1819" y="-19.5" font-family="Helvetica,sans-Serif" font-size="10.00">std::vector&lt; std::regex &gt;</text>
</a>
</g>
</g>
<!-- Node29&#45;&gt;Node28 -->
<g id="edge39" class="edge">
<title>Node29&#45;&gt;Node28</title>
<path fill="none" stroke="#9a32cd" stroke-dasharray="5,2" d="M1899.13,-27.25C1917.86,-29.13 1937.71,-31.65 1956,-35 1964.24,-36.51 1972.81,-38.39 1981.27,-40.46"/>
<polygon fill="#9a32cd" stroke="#9a32cd" points="1899.44,-23.76 1889.16,-26.3 1898.78,-30.73 1899.44,-23.76"/>
<text text-anchor="middle" x="1931.5" y="-38" font-family="Helvetica,sans-Serif" font-size="10.00"> elements</text>
</g>
</g>
</svg>
        <g id="navigator" transform="translate(0 0)" fill="#404254">
                <rect fill="#f2f5e9" fill-opacity="0.5" stroke="#606060" stroke-width=".5" x="0" y="0" width="60" height="60"/>
                <use id="zoomplus" xlink:href="#zoomPlus" x="17" y="9" onmousedown="handleZoom(evt,'in')"/>
                <use id="zoomminus" xlink:href="#zoomMin" x="42" y="9" onmousedown="handleZoom(evt,'out')"/>
                <use id="reset" xlink:href="#resetDef" x="30" y="36" onmousedown="handleReset()"/>
                <g id="arrowUp" xlink:href="#dirArrow" transform="translate(30 24)" onmousedown="handlePan(0,-1)">
                  <use xlink:href="#rim" fill="#404040">
                        <set attributeName="fill" to="#808080" begin="arrowUp.mouseover" end="arrowUp.mouseout"/>
                  </use>
                  <path fill="none" stroke="white" stroke-width="1.5" d="M0,-3.0v7 M-2.5,-0.5L0,-3.0L2.5,-0.5"/>
                </g>
                <g id="arrowRight" xlink:href="#dirArrow" transform="rotate(90) translate(36 -43)" onmousedown="handlePan(1,0)">
                  <use xlink:href="#rim" fill="#404040">
                        <set attributeName="fill" to="#808080" begin="arrowRight.mouseover" end="arrowRight.mouseout"/>
                  </use>
                  <path fill="none" stroke="white" stroke-width="1.5" d="M0,-3.0v7 M-2.5,-0.5L0,-3.0L2.5,-0.5"/>
                </g>
                <g id="arrowDown" xlink:href="#dirArrow" transform="rotate(180) translate(-30 -48)" onmousedown="handlePan(0,1)">
                  <use xlink:href="#rim" fill="#404040">
                        <set attributeName="fill" to="#808080" begin="arrowDown.mouseover" end="arrowDown.mouseout"/>
                  </use>
                  <path fill="none" stroke="white" stroke-width="1.5" d="M0,-3.0v7 M-2.5,-0.5L0,-3.0L2.5,-0.5"/>
                </g>
                <g id="arrowLeft" xlink:href="#dirArrow" transform="rotate(270) translate(-36 17)" onmousedown="handlePan(-1,0)">
                  <use xlink:href="#rim" fill="#404040">
                        <set attributeName="fill" to="#808080" begin="arrowLeft.mouseover" end="arrowLeft.mouseout"/>
                  </use>
                  <path fill="none" stroke="white" stroke-width="1.5" d="M0,-3.0v7 M-2.5,-0.5L0,-3.0L2.5,-0.5"/>
                </g>
        </g>
        <svg viewBox="0 0 15 15" width="100%" height="30px" preserveAspectRatio="xMaxYMin meet">
         <g id="arrow_out" transform="scale(0.3 0.3)">
          <a xlink:href="classccf_1_1NodeConfigurationSubsystem__coll__graph_org.svg" target="_base">
           <rect id="button" ry="5" rx="5" y="6" x="6" height="38" width="38"
                fill="#f2f5e9" fill-opacity="0.5" stroke="#606060" stroke-width="1.0"/>
           <path id="arrow"
             d="M 11.500037,31.436501 C 11.940474,20.09759 22.043105,11.32322 32.158766,21.979434 L 37.068811,17.246167 C 37.068811,17.246167 37.088388,32 37.088388,32 L 22.160133,31.978069 C 22.160133,31.978069 26.997745,27.140456 26.997745,27.140456 C 18.528582,18.264221 13.291696,25.230495 11.500037,31.436501 z"
             style="fill:#404040;"/>
          </a>
         </g>
        </svg>
</svg>
