<?xml version="1.0" encoding="UTF-8" standalone="no"?>
<!DOCTYPE svg PUBLIC "-//W3C//DTD SVG 1.1//EN"
 "http://www.w3.org/Graphics/SVG/1.1/DTD/svg11.dtd">
<!-- Generated by graphviz version 2.43.0 (0)
 -->
<!-- Title: include/ccf/service/code_digest.h Pages: 1 -->
<svg width="581pt" height="319pt"
 viewBox="0.00 0.00 581.41 319.00" xmlns="http://www.w3.org/2000/svg" xmlns:xlink="http://www.w3.org/1999/xlink">
<g id="graph0" class="graph" transform="scale(1 1) rotate(0) translate(4 315)">
<title>include/ccf/service/code_digest.h</title>
<polygon fill="white" stroke="transparent" points="-4,4 -4,-315 577.41,-315 577.41,4 -4,4"/>
<!-- Node1 -->
<g id="node1" class="node">
<title>Node1</title>
<g id="a_node1"><a xlink:title=" ">
<polygon fill="#bfbfbf" stroke="black" points="196.91,-280.5 196.91,-310.5 303.91,-310.5 303.91,-280.5 196.91,-280.5"/>
<text text-anchor="start" x="204.91" y="-298.5" font-family="Helvetica,sans-Serif" font-size="10.00">include/ccf/service</text>
<text text-anchor="middle" x="250.41" y="-287.5" font-family="Helvetica,sans-Serif" font-size="10.00">/code_digest.h</text>
</a>
</g>
</g>
<!-- Node2 -->
<g id="node2" class="node">
<title>Node2</title>
<g id="a_node2"><a xlink:href="sha256__hash_8h.html" target="_top" xlink:title=" ">
<polygon fill="white" stroke="black" points="278.41,-224.5 278.41,-243.5 418.41,-243.5 418.41,-224.5 278.41,-224.5"/>
<text text-anchor="middle" x="348.41" y="-231.5" font-family="Helvetica,sans-Serif" font-size="10.00">ccf/crypto/sha256_hash.h</text>
</a>
</g>
</g>
<!-- Node1&#45;&gt;Node2 -->
<g id="edge1" class="edge">
<title>Node1&#45;&gt;Node2</title>
<path fill="none" stroke="midnightblue" d="M273.63,-280.4C289.19,-270.95 309.6,-258.56 325.17,-249.11"/>
<polygon fill="midnightblue" stroke="midnightblue" points="327.41,-251.84 334.15,-243.66 323.78,-245.86 327.41,-251.84"/>
</g>
<!-- Node3 -->
<g id="node3" class="node">
<title>Node3</title>
<g id="a_node3"><a xlink:href="json_8h.html" target="_top" xlink:title=" ">
<polygon fill="white" stroke="black" points="285.91,-168.5 285.91,-187.5 362.91,-187.5 362.91,-168.5 285.91,-168.5"/>
<text text-anchor="middle" x="324.41" y="-175.5" font-family="Helvetica,sans-Serif" font-size="10.00">ccf/ds/json.h</text>
</a>
</g>
</g>
<!-- Node1&#45;&gt;Node3 -->
<g id="edge27" class="edge">
<title>Node1&#45;&gt;Node3</title>
<path fill="none" stroke="midnightblue" d="M251.63,-280.49C253.49,-265.48 258.11,-241.46 269.41,-224 277.39,-211.66 289.86,-201.06 300.9,-193.25"/>
<polygon fill="midnightblue" stroke="midnightblue" points="302.97,-196.07 309.34,-187.61 299.09,-190.25 302.97,-196.07"/>
</g>
<!-- Node18 -->
<g id="node18" class="node">
<title>Node18</title>
<g id="a_node18"><a xlink:href="hex_8h.html" target="_top" xlink:title=" ">
<polygon fill="white" stroke="black" points="128.91,-112.5 128.91,-131.5 203.91,-131.5 203.91,-112.5 128.91,-112.5"/>
<text text-anchor="middle" x="166.41" y="-119.5" font-family="Helvetica,sans-Serif" font-size="10.00">ccf/ds/hex.h</text>
</a>
</g>
</g>
<!-- Node1&#45;&gt;Node18 -->
<g id="edge22" class="edge">
<title>Node1&#45;&gt;Node18</title>
<path fill="none" stroke="midnightblue" d="M243.53,-280.47C228.33,-249.44 191.9,-175.05 175.13,-140.81"/>
<polygon fill="midnightblue" stroke="midnightblue" points="178.14,-139 170.6,-131.56 171.85,-142.08 178.14,-139"/>
</g>
<!-- Node2&#45;&gt;Node3 -->
<g id="edge2" class="edge">
<title>Node2&#45;&gt;Node3</title>
<path fill="none" stroke="midnightblue" d="M344.44,-224.08C341.19,-216.77 336.49,-206.18 332.45,-197.1"/>
<polygon fill="midnightblue" stroke="midnightblue" points="335.55,-195.47 328.29,-187.75 329.16,-198.31 335.55,-195.47"/>
</g>
<!-- Node10 -->
<g id="node10" class="node">
<title>Node10</title>
<g id="a_node10"><a xlink:title=" ">
<polygon fill="white" stroke="#bfbfbf" points="531.41,-0.5 531.41,-19.5 573.41,-19.5 573.41,-0.5 531.41,-0.5"/>
<text text-anchor="middle" x="552.41" y="-7.5" font-family="Helvetica,sans-Serif" font-size="10.00">array</text>
</a>
</g>
</g>
<!-- Node2&#45;&gt;Node10 -->
<g id="edge19" class="edge">
<title>Node2&#45;&gt;Node10</title>
<path fill="none" stroke="midnightblue" d="M374.25,-224.47C423.78,-206.45 530.17,-159.17 564.41,-76 570.61,-60.93 566.23,-42.57 561.11,-29.22"/>
<polygon fill="midnightblue" stroke="midnightblue" points="564.2,-27.54 557.03,-19.73 557.77,-30.3 564.2,-27.54"/>
</g>
<!-- Node14 -->
<g id="node14" class="node">
<title>Node14</title>
<g id="a_node14"><a xlink:title=" ">
<polygon fill="white" stroke="#bfbfbf" points="475.91,-56.5 475.91,-75.5 554.91,-75.5 554.91,-56.5 475.91,-56.5"/>
<text text-anchor="middle" x="515.41" y="-63.5" font-family="Helvetica,sans-Serif" font-size="10.00">fmt/format.h</text>
</a>
</g>
</g>
<!-- Node2&#45;&gt;Node14 -->
<g id="edge21" class="edge">
<title>Node2&#45;&gt;Node14</title>
<path fill="none" stroke="midnightblue" d="M366.32,-224.28C395.57,-209.22 453.8,-175.7 488.41,-132 499.3,-118.24 506.47,-99.47 510.66,-85.63"/>
<polygon fill="midnightblue" stroke="midnightblue" points="514.09,-86.36 513.4,-75.78 507.35,-84.48 514.09,-86.36"/>
</g>
<!-- Node17 -->
<g id="node17" class="node">
<title>Node17</title>
<g id="a_node17"><a xlink:title=" ">
<polygon fill="white" stroke="#bfbfbf" points="181.41,-56.5 181.41,-75.5 221.41,-75.5 221.41,-56.5 181.41,-56.5"/>
<text text-anchor="middle" x="201.41" y="-63.5" font-family="Helvetica,sans-Serif" font-size="10.00">span</text>
</a>
</g>
</g>
<!-- Node2&#45;&gt;Node17 -->
<g id="edge20" class="edge">
<title>Node2&#45;&gt;Node17</title>
<path fill="none" stroke="midnightblue" d="M329.93,-224.46C314.34,-216.59 292.11,-203.77 276.41,-188 245.27,-156.75 221.09,-110.25 209.3,-84.96"/>
<polygon fill="midnightblue" stroke="midnightblue" points="212.34,-83.19 205.03,-75.53 205.97,-86.08 212.34,-83.19"/>
</g>
<!-- Node4 -->
<g id="node4" class="node">
<title>Node4</title>
<g id="a_node4"><a xlink:href="include_2ccf_2crypto_2base64_8h.html" target="_top" xlink:title=" ">
<polygon fill="white" stroke="black" points="13.41,-56.5 13.41,-75.5 125.41,-75.5 125.41,-56.5 13.41,-56.5"/>
<text text-anchor="middle" x="69.41" y="-63.5" font-family="Helvetica,sans-Serif" font-size="10.00">ccf/crypto/base64.h</text>
</a>
</g>
</g>
<!-- Node3&#45;&gt;Node4 -->
<g id="edge3" class="edge">
<title>Node3&#45;&gt;Node4</title>
<path fill="none" stroke="midnightblue" d="M285.54,-176.27C241.94,-173.77 170.63,-164.51 119.41,-132 101.07,-120.36 86.83,-99.5 78.31,-84.55"/>
<polygon fill="midnightblue" stroke="midnightblue" points="81.39,-82.88 73.56,-75.74 75.23,-86.2 81.39,-82.88"/>
</g>
<!-- Node7 -->
<g id="node7" class="node">
<title>Node7</title>
<g id="a_node7"><a xlink:href="include_2ccf_2ds_2json__schema_8h.html" target="_top" xlink:title=" ">
<polygon fill="white" stroke="black" points="334.91,-112.5 334.91,-131.5 455.91,-131.5 455.91,-112.5 334.91,-112.5"/>
<text text-anchor="middle" x="395.41" y="-119.5" font-family="Helvetica,sans-Serif" font-size="10.00">ccf/ds/json_schema.h</text>
</a>
</g>
</g>
<!-- Node3&#45;&gt;Node7 -->
<g id="edge6" class="edge">
<title>Node3&#45;&gt;Node7</title>
<path fill="none" stroke="midnightblue" d="M335.81,-168.32C346.51,-160.18 362.75,-147.84 375.57,-138.09"/>
<polygon fill="midnightblue" stroke="midnightblue" points="377.95,-140.67 383.79,-131.83 373.71,-135.1 377.95,-140.67"/>
</g>
<!-- Node3&#45;&gt;Node14 -->
<g id="edge17" class="edge">
<title>Node3&#45;&gt;Node14</title>
<path fill="none" stroke="midnightblue" d="M363.1,-170.95C392.86,-164.86 433.92,-153.23 464.41,-132 482.19,-119.61 496.75,-99.2 505.7,-84.55"/>
<polygon fill="midnightblue" stroke="midnightblue" points="508.96,-85.91 510.96,-75.5 502.91,-82.39 508.96,-85.91"/>
</g>
<!-- Node16 -->
<g id="node16" class="node">
<title>Node16</title>
<g id="a_node16"><a xlink:title=" ">
<polygon fill="white" stroke="#bfbfbf" points="260.41,-112.5 260.41,-131.5 316.41,-131.5 316.41,-112.5 260.41,-112.5"/>
<text text-anchor="middle" x="288.41" y="-119.5" font-family="Helvetica,sans-Serif" font-size="10.00">sstream</text>
</a>
</g>
</g>
<!-- Node3&#45;&gt;Node16 -->
<g id="edge18" class="edge">
<title>Node3&#45;&gt;Node16</title>
<path fill="none" stroke="midnightblue" d="M318.46,-168.08C313.43,-160.53 306.07,-149.49 299.89,-140.23"/>
<polygon fill="midnightblue" stroke="midnightblue" points="302.7,-138.13 294.24,-131.75 296.87,-142.01 302.7,-138.13"/>
</g>
<!-- Node5 -->
<g id="node5" class="node">
<title>Node5</title>
<g id="a_node5"><a xlink:title=" ">
<polygon fill="white" stroke="#bfbfbf" points="106.41,-0.5 106.41,-19.5 150.41,-19.5 150.41,-0.5 106.41,-0.5"/>
<text text-anchor="middle" x="128.41" y="-7.5" font-family="Helvetica,sans-Serif" font-size="10.00">string</text>
</a>
</g>
</g>
<!-- Node4&#45;&gt;Node5 -->
<g id="edge4" class="edge">
<title>Node4&#45;&gt;Node5</title>
<path fill="none" stroke="midnightblue" d="M78.88,-56.32C87.61,-48.34 100.75,-36.31 111.3,-26.65"/>
<polygon fill="midnightblue" stroke="midnightblue" points="113.74,-29.17 118.75,-19.83 109.01,-24 113.74,-29.17"/>
</g>
<!-- Node6 -->
<g id="node6" class="node">
<title>Node6</title>
<g id="a_node6"><a xlink:title=" ">
<polygon fill="white" stroke="#bfbfbf" points="40.91,-0.5 40.91,-19.5 87.91,-19.5 87.91,-0.5 40.91,-0.5"/>
<text text-anchor="middle" x="64.41" y="-7.5" font-family="Helvetica,sans-Serif" font-size="10.00">vector</text>
</a>
</g>
</g>
<!-- Node4&#45;&gt;Node6 -->
<g id="edge5" class="edge">
<title>Node4&#45;&gt;Node6</title>
<path fill="none" stroke="midnightblue" d="M68.58,-56.08C67.92,-49.01 66.99,-38.86 66.16,-29.99"/>
<polygon fill="midnightblue" stroke="midnightblue" points="69.62,-29.39 65.22,-19.75 62.65,-30.03 69.62,-29.39"/>
</g>
<!-- Node8 -->
<g id="node8" class="node">
<title>Node8</title>
<g id="a_node8"><a xlink:href="nonstd_8h.html" target="_top" xlink:title=" ">
<polygon fill="white" stroke="black" points="239.41,-56.5 239.41,-75.5 329.41,-75.5 329.41,-56.5 239.41,-56.5"/>
<text text-anchor="middle" x="284.41" y="-63.5" font-family="Helvetica,sans-Serif" font-size="10.00">ccf/ds/nonstd.h</text>
</a>
</g>
</g>
<!-- Node7&#45;&gt;Node8 -->
<g id="edge7" class="edge">
<title>Node7&#45;&gt;Node8</title>
<path fill="none" stroke="midnightblue" d="M377.57,-112.32C359.69,-103.62 331.93,-90.12 311.36,-80.11"/>
<polygon fill="midnightblue" stroke="midnightblue" points="312.72,-76.88 302.2,-75.65 309.66,-83.18 312.72,-76.88"/>
</g>
<!-- Node7&#45;&gt;Node14 -->
<g id="edge15" class="edge">
<title>Node7&#45;&gt;Node14</title>
<path fill="none" stroke="midnightblue" d="M414.42,-112.44C433.99,-103.64 464.71,-89.81 487.13,-79.72"/>
<polygon fill="midnightblue" stroke="midnightblue" points="488.8,-82.81 496.48,-75.52 485.92,-76.43 488.8,-82.81"/>
</g>
<!-- Node15 -->
<g id="node15" class="node">
<title>Node15</title>
<g id="a_node15"><a xlink:title=" ">
<polygon fill="white" stroke="#bfbfbf" points="347.41,-56.5 347.41,-75.5 457.41,-75.5 457.41,-56.5 347.41,-56.5"/>
<text text-anchor="middle" x="402.41" y="-63.5" font-family="Helvetica,sans-Serif" font-size="10.00">nlohmann/json.hpp</text>
</a>
</g>
</g>
<!-- Node7&#45;&gt;Node15 -->
<g id="edge16" class="edge">
<title>Node7&#45;&gt;Node15</title>
<path fill="none" stroke="midnightblue" d="M396.56,-112.08C397.49,-104.93 398.82,-94.64 399.98,-85.69"/>
<polygon fill="midnightblue" stroke="midnightblue" points="403.46,-86.12 401.27,-75.75 396.51,-85.22 403.46,-86.12"/>
</g>
<!-- Node8&#45;&gt;Node5 -->
<g id="edge11" class="edge">
<title>Node8&#45;&gt;Node5</title>
<path fill="none" stroke="midnightblue" d="M259.69,-56.44C232.79,-47.13 189.7,-32.22 160.27,-22.03"/>
<polygon fill="midnightblue" stroke="midnightblue" points="161.08,-18.61 150.49,-18.64 158.79,-25.22 161.08,-18.61"/>
</g>
<!-- Node8&#45;&gt;Node6 -->
<g id="edge14" class="edge">
<title>Node8&#45;&gt;Node6</title>
<path fill="none" stroke="midnightblue" d="M247.42,-56.45C211.71,-48.11 155.85,-34.87 98.2,-20.14"/>
<polygon fill="midnightblue" stroke="midnightblue" points="98.73,-16.67 88.18,-17.57 96.99,-23.45 98.73,-16.67"/>
</g>
<!-- Node9 -->
<g id="node9" class="node">
<title>Node9</title>
<g id="a_node9"><a xlink:title=" ">
<polygon fill="white" stroke="#bfbfbf" points="256.41,-0.5 256.41,-19.5 320.41,-19.5 320.41,-0.5 256.41,-0.5"/>
<text text-anchor="middle" x="288.41" y="-7.5" font-family="Helvetica,sans-Serif" font-size="10.00">algorithm</text>
</a>
</g>
</g>
<!-- Node8&#45;&gt;Node9 -->
<g id="edge8" class="edge">
<title>Node8&#45;&gt;Node9</title>
<path fill="none" stroke="midnightblue" d="M285.07,-56.08C285.59,-49.01 286.34,-38.86 287,-29.99"/>
<polygon fill="midnightblue" stroke="midnightblue" points="290.51,-29.98 287.76,-19.75 283.53,-29.47 290.51,-29.98"/>
</g>
<!-- Node8&#45;&gt;Node10 -->
<g id="edge9" class="edge">
<title>Node8&#45;&gt;Node10</title>
<path fill="none" stroke="midnightblue" d="M326.87,-56.44C381.05,-45.53 473.46,-26.91 521.44,-17.24"/>
<polygon fill="midnightblue" stroke="midnightblue" points="522.14,-20.67 531.26,-15.26 520.76,-13.81 522.14,-20.67"/>
</g>
<!-- Node11 -->
<g id="node11" class="node">
<title>Node11</title>
<g id="a_node11"><a xlink:title=" ">
<polygon fill="white" stroke="#bfbfbf" points="338.91,-0.5 338.91,-19.5 387.91,-19.5 387.91,-0.5 338.91,-0.5"/>
<text text-anchor="middle" x="363.41" y="-7.5" font-family="Helvetica,sans-Serif" font-size="10.00">cctype</text>
</a>
</g>
</g>
<!-- Node8&#45;&gt;Node11 -->
<g id="edge10" class="edge">
<title>Node8&#45;&gt;Node11</title>
<path fill="none" stroke="midnightblue" d="M297.1,-56.32C309.31,-47.98 327.98,-35.21 342.41,-25.35"/>
<polygon fill="midnightblue" stroke="midnightblue" points="344.46,-28.19 350.74,-19.65 340.51,-22.41 344.46,-28.19"/>
</g>
<!-- Node12 -->
<g id="node12" class="node">
<title>Node12</title>
<g id="a_node12"><a xlink:title=" ">
<polygon fill="white" stroke="#bfbfbf" points="405.91,-0.5 405.91,-19.5 478.91,-19.5 478.91,-0.5 405.91,-0.5"/>
<text text-anchor="middle" x="442.41" y="-7.5" font-family="Helvetica,sans-Serif" font-size="10.00">string_view</text>
</a>
</g>
</g>
<!-- Node8&#45;&gt;Node12 -->
<g id="edge12" class="edge">
<title>Node8&#45;&gt;Node12</title>
<path fill="none" stroke="midnightblue" d="M309.44,-56.44C336.02,-47.36 378.21,-32.94 407.93,-22.78"/>
<polygon fill="midnightblue" stroke="midnightblue" points="409.16,-26.06 417.49,-19.52 406.89,-19.44 409.16,-26.06"/>
</g>
<!-- Node13 -->
<g id="node13" class="node">
<title>Node13</title>
<g id="a_node13"><a xlink:title=" ">
<polygon fill="white" stroke="#bfbfbf" points="168.91,-0.5 168.91,-19.5 237.91,-19.5 237.91,-0.5 168.91,-0.5"/>
<text text-anchor="middle" x="203.41" y="-7.5" font-family="Helvetica,sans-Serif" font-size="10.00">type_traits</text>
</a>
</g>
</g>
<!-- Node8&#45;&gt;Node13 -->
<g id="edge13" class="edge">
<title>Node8&#45;&gt;Node13</title>
<path fill="none" stroke="midnightblue" d="M271.39,-56.32C258.87,-47.98 239.72,-35.21 224.93,-25.35"/>
<polygon fill="midnightblue" stroke="midnightblue" points="226.65,-22.29 216.39,-19.65 222.77,-28.11 226.65,-22.29"/>
</g>
<!-- Node18&#45;&gt;Node5 -->
<g id="edge25" class="edge">
<title>Node18&#45;&gt;Node5</title>
<path fill="none" stroke="midnightblue" d="M163.42,-112.37C157.26,-94.54 143.02,-53.3 134.72,-29.27"/>
<polygon fill="midnightblue" stroke="midnightblue" points="137.95,-27.9 131.37,-19.59 131.33,-30.19 137.95,-27.9"/>
</g>
<!-- Node18&#45;&gt;Node6 -->
<g id="edge26" class="edge">
<title>Node18&#45;&gt;Node6</title>
<path fill="none" stroke="midnightblue" d="M128.54,-115.8C85.54,-109.04 19.38,-95.7 4.41,-76 -10.05,-56.98 15.22,-37.07 37.27,-24.38"/>
<polygon fill="midnightblue" stroke="midnightblue" points="38.99,-27.43 46.09,-19.57 35.64,-21.29 38.99,-27.43"/>
</g>
<!-- Node18&#45;&gt;Node14 -->
<g id="edge23" class="edge">
<title>Node18&#45;&gt;Node14</title>
<path fill="none" stroke="midnightblue" d="M204.35,-115.71C259.51,-107.94 365.28,-92.71 465.82,-76.05"/>
<polygon fill="midnightblue" stroke="midnightblue" points="466.55,-79.48 475.84,-74.38 465.41,-72.57 466.55,-79.48"/>
</g>
<!-- Node18&#45;&gt;Node17 -->
<g id="edge24" class="edge">
<title>Node18&#45;&gt;Node17</title>
<path fill="none" stroke="midnightblue" d="M172.18,-112.08C177.08,-104.53 184.23,-93.49 190.24,-84.23"/>
<polygon fill="midnightblue" stroke="midnightblue" points="193.23,-86.05 195.73,-75.75 187.36,-82.24 193.23,-86.05"/>
</g>
</g>
</svg>
