<?xml version="1.0" encoding="UTF-8" standalone="no"?>
<!DOCTYPE svg PUBLIC "-//W3C//DTD SVG 1.1//EN"
 "http://www.w3.org/Graphics/SVG/1.1/DTD/svg11.dtd">
<!-- Generated by graphviz version 2.43.0 (0)
 -->
<!-- Title: src/crypto/csr.h Pages: 1 -->
<svg width="1312pt" height="375pt"
 viewBox="0.00 0.00 1312.00 375.00" xmlns="http://www.w3.org/2000/svg" xmlns:xlink="http://www.w3.org/1999/xlink">
<g id="graph0" class="graph" transform="scale(1 1) rotate(0) translate(4 371)">
<title>src/crypto/csr.h</title>
<polygon fill="white" stroke="transparent" points="-4,4 -4,-371 1308,-371 1308,4 -4,4"/>
<!-- Node1 -->
<g id="node1" class="node">
<title>Node1</title>
<g id="a_node1"><a xlink:title=" ">
<polygon fill="#bfbfbf" stroke="black" points="635,-347.5 635,-366.5 725,-366.5 725,-347.5 635,-347.5"/>
<text text-anchor="middle" x="680" y="-354.5" font-family="Helvetica,sans-Serif" font-size="10.00">src/crypto/csr.h</text>
</a>
</g>
</g>
<!-- Node2 -->
<g id="node2" class="node">
<title>Node2</title>
<g id="a_node2"><a xlink:href="pem_8h.html" target="_top" xlink:title=" ">
<polygon fill="white" stroke="black" points="2,-224.5 2,-243.5 100,-243.5 100,-224.5 2,-224.5"/>
<text text-anchor="middle" x="51" y="-231.5" font-family="Helvetica,sans-Serif" font-size="10.00">ccf/crypto/pem.h</text>
</a>
</g>
</g>
<!-- Node1&#45;&gt;Node2 -->
<g id="edge1" class="edge">
<title>Node1&#45;&gt;Node2</title>
<path fill="none" stroke="midnightblue" d="M635.77,-347.49C523.57,-325.91 228.12,-269.07 105.52,-245.49"/>
<polygon fill="midnightblue" stroke="midnightblue" points="106.08,-242.03 95.6,-243.58 104.76,-248.91 106.08,-242.03"/>
</g>
<!-- Node21 -->
<g id="node21" class="node">
<title>Node21</title>
<g id="a_node21"><a xlink:href="openssl__wrappers_8h.html" target="_top" xlink:title=" ">
<polygon fill="white" stroke="black" points="616,-280.5 616,-310.5 744,-310.5 744,-280.5 616,-280.5"/>
<text text-anchor="start" x="624" y="-298.5" font-family="Helvetica,sans-Serif" font-size="10.00">crypto/openssl/openssl</text>
<text text-anchor="middle" x="680" y="-287.5" font-family="Helvetica,sans-Serif" font-size="10.00">_wrappers.h</text>
</a>
</g>
</g>
<!-- Node1&#45;&gt;Node21 -->
<g id="edge25" class="edge">
<title>Node1&#45;&gt;Node21</title>
<path fill="none" stroke="midnightblue" d="M680,-347.48C680,-340.47 680,-330.19 680,-320.7"/>
<polygon fill="midnightblue" stroke="midnightblue" points="683.5,-320.52 680,-310.52 676.5,-320.52 683.5,-320.52"/>
</g>
<!-- Node36 -->
<g id="node36" class="node">
<title>Node36</title>
<g id="a_node36"><a xlink:title=" ">
<polygon fill="white" stroke="#bfbfbf" points="762.5,-286 762.5,-305 843.5,-305 843.5,-286 762.5,-286"/>
<text text-anchor="middle" x="803" y="-293" font-family="Helvetica,sans-Serif" font-size="10.00">openssl/bio.h</text>
</a>
</g>
</g>
<!-- Node1&#45;&gt;Node36 -->
<g id="edge47" class="edge">
<title>Node1&#45;&gt;Node36</title>
<path fill="none" stroke="midnightblue" d="M697.62,-347.48C718.17,-337.53 752.36,-320.99 776.21,-309.46"/>
<polygon fill="midnightblue" stroke="midnightblue" points="777.93,-312.51 785.41,-305.01 774.88,-306.21 777.93,-312.51"/>
</g>
<!-- Node3 -->
<g id="node3" class="node">
<title>Node3</title>
<g id="a_node3"><a xlink:href="json_8h.html" target="_top" xlink:title=" ">
<polygon fill="white" stroke="black" points="670.5,-168.5 670.5,-187.5 747.5,-187.5 747.5,-168.5 670.5,-168.5"/>
<text text-anchor="middle" x="709" y="-175.5" font-family="Helvetica,sans-Serif" font-size="10.00">ccf/ds/json.h</text>
</a>
</g>
</g>
<!-- Node2&#45;&gt;Node3 -->
<g id="edge2" class="edge">
<title>Node2&#45;&gt;Node3</title>
<path fill="none" stroke="midnightblue" d="M100.01,-225.09C103.05,-224.69 106.06,-224.33 109,-224 348.07,-197.53 409.86,-213.86 649,-188 652.67,-187.6 656.46,-187.15 660.27,-186.65"/>
<polygon fill="midnightblue" stroke="midnightblue" points="660.9,-190.1 670.33,-185.28 659.95,-183.16 660.9,-190.1"/>
</g>
<!-- Node6 -->
<g id="node6" class="node">
<title>Node6</title>
<g id="a_node6"><a xlink:title=" ">
<polygon fill="white" stroke="#bfbfbf" points="540.5,-0.5 540.5,-19.5 587.5,-19.5 587.5,-0.5 540.5,-0.5"/>
<text text-anchor="middle" x="564" y="-7.5" font-family="Helvetica,sans-Serif" font-size="10.00">vector</text>
</a>
</g>
</g>
<!-- Node2&#45;&gt;Node6 -->
<g id="edge24" class="edge">
<title>Node2&#45;&gt;Node6</title>
<path fill="none" stroke="midnightblue" d="M99.22,-224.5C212.79,-203.49 492.12,-145.74 553,-76 563.93,-63.48 566,-44.26 565.74,-29.96"/>
<polygon fill="midnightblue" stroke="midnightblue" points="569.23,-29.55 565.17,-19.77 562.24,-29.95 569.23,-29.55"/>
</g>
<!-- Node12 -->
<g id="node12" class="node">
<title>Node12</title>
<g id="a_node12"><a xlink:title=" ">
<polygon fill="white" stroke="#bfbfbf" points="62.5,-0.5 62.5,-19.5 135.5,-19.5 135.5,-0.5 62.5,-0.5"/>
<text text-anchor="middle" x="99" y="-7.5" font-family="Helvetica,sans-Serif" font-size="10.00">string_view</text>
</a>
</g>
</g>
<!-- Node2&#45;&gt;Node12 -->
<g id="edge23" class="edge">
<title>Node2&#45;&gt;Node12</title>
<path fill="none" stroke="midnightblue" d="M52.88,-224.3C59.96,-191.56 85.08,-75.38 94.96,-29.67"/>
<polygon fill="midnightblue" stroke="midnightblue" points="98.39,-30.4 97.08,-19.88 91.54,-28.92 98.39,-30.4"/>
</g>
<!-- Node17 -->
<g id="node17" class="node">
<title>Node17</title>
<g id="a_node17"><a xlink:title=" ">
<polygon fill="white" stroke="#bfbfbf" points="0,-168.5 0,-187.5 50,-187.5 50,-168.5 0,-168.5"/>
<text text-anchor="middle" x="25" y="-175.5" font-family="Helvetica,sans-Serif" font-size="10.00">cstring</text>
</a>
</g>
</g>
<!-- Node2&#45;&gt;Node17 -->
<g id="edge19" class="edge">
<title>Node2&#45;&gt;Node17</title>
<path fill="none" stroke="midnightblue" d="M46.71,-224.08C43.15,-216.69 37.98,-205.95 33.58,-196.81"/>
<polygon fill="midnightblue" stroke="midnightblue" points="36.71,-195.24 29.21,-187.75 30.4,-198.28 36.71,-195.24"/>
</g>
<!-- Node18 -->
<g id="node18" class="node">
<title>Node18</title>
<g id="a_node18"><a xlink:title=" ">
<polygon fill="white" stroke="#bfbfbf" points="106.5,-168.5 106.5,-187.5 171.5,-187.5 171.5,-168.5 106.5,-168.5"/>
<text text-anchor="middle" x="139" y="-175.5" font-family="Helvetica,sans-Serif" font-size="10.00">exception</text>
</a>
</g>
</g>
<!-- Node2&#45;&gt;Node18 -->
<g id="edge20" class="edge">
<title>Node2&#45;&gt;Node18</title>
<path fill="none" stroke="midnightblue" d="M65.14,-224.32C78.87,-215.9 99.94,-202.97 116.06,-193.07"/>
<polygon fill="midnightblue" stroke="midnightblue" points="118.2,-195.87 124.9,-187.65 114.54,-189.9 118.2,-195.87"/>
</g>
<!-- Node19 -->
<g id="node19" class="node">
<title>Node19</title>
<g id="a_node19"><a xlink:title=" ">
<polygon fill="white" stroke="#bfbfbf" points="828,-168.5 828,-187.5 886,-187.5 886,-168.5 828,-168.5"/>
<text text-anchor="middle" x="857" y="-175.5" font-family="Helvetica,sans-Serif" font-size="10.00">memory</text>
</a>
</g>
</g>
<!-- Node2&#45;&gt;Node19 -->
<g id="edge21" class="edge">
<title>Node2&#45;&gt;Node19</title>
<path fill="none" stroke="midnightblue" d="M100,-225.05C103.04,-224.66 106.06,-224.31 109,-224 395.86,-193.85 469.32,-208.93 757,-188 777,-186.54 799.23,-184.58 817.63,-182.86"/>
<polygon fill="midnightblue" stroke="midnightblue" points="818.08,-186.33 827.7,-181.9 817.42,-179.36 818.08,-186.33"/>
</g>
<!-- Node20 -->
<g id="node20" class="node">
<title>Node20</title>
<g id="a_node20"><a xlink:title=" ">
<polygon fill="white" stroke="#bfbfbf" points="600,-168.5 600,-187.5 640,-187.5 640,-168.5 600,-168.5"/>
<text text-anchor="middle" x="620" y="-175.5" font-family="Helvetica,sans-Serif" font-size="10.00">span</text>
</a>
</g>
</g>
<!-- Node2&#45;&gt;Node20 -->
<g id="edge22" class="edge">
<title>Node2&#45;&gt;Node20</title>
<path fill="none" stroke="midnightblue" d="M100.01,-225.12C103.05,-224.71 106.06,-224.34 109,-224 320.21,-199.68 376.36,-223.35 586,-188 587.29,-187.78 588.6,-187.54 589.91,-187.28"/>
<polygon fill="midnightblue" stroke="midnightblue" points="591.04,-190.61 600,-184.95 589.47,-183.79 591.04,-190.61"/>
</g>
<!-- Node4 -->
<g id="node4" class="node">
<title>Node4</title>
<g id="a_node4"><a xlink:href="include_2ccf_2crypto_2base64_8h.html" target="_top" xlink:title=" ">
<polygon fill="white" stroke="black" points="432,-56.5 432,-75.5 544,-75.5 544,-56.5 432,-56.5"/>
<text text-anchor="middle" x="488" y="-63.5" font-family="Helvetica,sans-Serif" font-size="10.00">ccf/crypto/base64.h</text>
</a>
</g>
</g>
<!-- Node3&#45;&gt;Node4 -->
<g id="edge3" class="edge">
<title>Node3&#45;&gt;Node4</title>
<path fill="none" stroke="midnightblue" d="M691.66,-168.37C653.09,-149.17 560.01,-102.84 514.27,-80.07"/>
<polygon fill="midnightblue" stroke="midnightblue" points="515.77,-76.91 505.26,-75.59 512.65,-83.18 515.77,-76.91"/>
</g>
<!-- Node7 -->
<g id="node7" class="node">
<title>Node7</title>
<g id="a_node7"><a xlink:href="include_2ccf_2ds_2json__schema_8h.html" target="_top" xlink:title=" ">
<polygon fill="white" stroke="black" points="648.5,-112.5 648.5,-131.5 769.5,-131.5 769.5,-112.5 648.5,-112.5"/>
<text text-anchor="middle" x="709" y="-119.5" font-family="Helvetica,sans-Serif" font-size="10.00">ccf/ds/json_schema.h</text>
</a>
</g>
</g>
<!-- Node3&#45;&gt;Node7 -->
<g id="edge6" class="edge">
<title>Node3&#45;&gt;Node7</title>
<path fill="none" stroke="midnightblue" d="M709,-168.08C709,-161.01 709,-150.86 709,-141.99"/>
<polygon fill="midnightblue" stroke="midnightblue" points="712.5,-141.75 709,-131.75 705.5,-141.75 712.5,-141.75"/>
</g>
<!-- Node14 -->
<g id="node14" class="node">
<title>Node14</title>
<g id="a_node14"><a xlink:title=" ">
<polygon fill="white" stroke="#bfbfbf" points="791.5,-56.5 791.5,-75.5 870.5,-75.5 870.5,-56.5 791.5,-56.5"/>
<text text-anchor="middle" x="831" y="-63.5" font-family="Helvetica,sans-Serif" font-size="10.00">fmt/format.h</text>
</a>
</g>
</g>
<!-- Node3&#45;&gt;Node14 -->
<g id="edge17" class="edge">
<title>Node3&#45;&gt;Node14</title>
<path fill="none" stroke="midnightblue" d="M725.61,-168.36C740.5,-160.16 762.48,-146.9 779,-132 794.87,-117.69 809.76,-98.22 819.5,-84.33"/>
<polygon fill="midnightblue" stroke="midnightblue" points="822.62,-85.97 825.37,-75.74 816.84,-82.02 822.62,-85.97"/>
</g>
<!-- Node16 -->
<g id="node16" class="node">
<title>Node16</title>
<g id="a_node16"><a xlink:title=" ">
<polygon fill="white" stroke="#bfbfbf" points="867,-112.5 867,-131.5 923,-131.5 923,-112.5 867,-112.5"/>
<text text-anchor="middle" x="895" y="-119.5" font-family="Helvetica,sans-Serif" font-size="10.00">sstream</text>
</a>
</g>
</g>
<!-- Node3&#45;&gt;Node16 -->
<g id="edge18" class="edge">
<title>Node3&#45;&gt;Node16</title>
<path fill="none" stroke="midnightblue" d="M738.47,-168.44C770.54,-159.13 821.92,-144.22 857.01,-134.03"/>
<polygon fill="midnightblue" stroke="midnightblue" points="858.26,-137.31 866.88,-131.16 856.3,-130.59 858.26,-137.31"/>
</g>
<!-- Node5 -->
<g id="node5" class="node">
<title>Node5</title>
<g id="a_node5"><a xlink:title=" ">
<polygon fill="white" stroke="#bfbfbf" points="470,-0.5 470,-19.5 514,-19.5 514,-0.5 470,-0.5"/>
<text text-anchor="middle" x="492" y="-7.5" font-family="Helvetica,sans-Serif" font-size="10.00">string</text>
</a>
</g>
</g>
<!-- Node4&#45;&gt;Node5 -->
<g id="edge4" class="edge">
<title>Node4&#45;&gt;Node5</title>
<path fill="none" stroke="midnightblue" d="M488.66,-56.08C489.18,-49.01 489.94,-38.86 490.59,-29.99"/>
<polygon fill="midnightblue" stroke="midnightblue" points="494.1,-29.98 491.35,-19.75 487.12,-29.47 494.1,-29.98"/>
</g>
<!-- Node4&#45;&gt;Node6 -->
<g id="edge5" class="edge">
<title>Node4&#45;&gt;Node6</title>
<path fill="none" stroke="midnightblue" d="M500.21,-56.32C511.78,-48.11 529.38,-35.6 543.16,-25.81"/>
<polygon fill="midnightblue" stroke="midnightblue" points="545.44,-28.48 551.57,-19.83 541.39,-22.77 545.44,-28.48"/>
</g>
<!-- Node8 -->
<g id="node8" class="node">
<title>Node8</title>
<g id="a_node8"><a xlink:href="nonstd_8h.html" target="_top" xlink:title=" ">
<polygon fill="white" stroke="black" points="318,-56.5 318,-75.5 408,-75.5 408,-56.5 318,-56.5"/>
<text text-anchor="middle" x="363" y="-63.5" font-family="Helvetica,sans-Serif" font-size="10.00">ccf/ds/nonstd.h</text>
</a>
</g>
</g>
<!-- Node7&#45;&gt;Node8 -->
<g id="edge7" class="edge">
<title>Node7&#45;&gt;Node8</title>
<path fill="none" stroke="midnightblue" d="M654.18,-112.44C589.6,-102.37 482.95,-85.72 418.21,-75.62"/>
<polygon fill="midnightblue" stroke="midnightblue" points="418.62,-72.14 408.2,-74.05 417.54,-79.05 418.62,-72.14"/>
</g>
<!-- Node7&#45;&gt;Node14 -->
<g id="edge15" class="edge">
<title>Node7&#45;&gt;Node14</title>
<path fill="none" stroke="midnightblue" d="M728.33,-112.44C748.32,-103.6 779.74,-89.69 802.56,-79.59"/>
<polygon fill="midnightblue" stroke="midnightblue" points="804.03,-82.76 811.76,-75.52 801.2,-76.36 804.03,-82.76"/>
</g>
<!-- Node15 -->
<g id="node15" class="node">
<title>Node15</title>
<g id="a_node15"><a xlink:title=" ">
<polygon fill="white" stroke="#bfbfbf" points="654,-56.5 654,-75.5 764,-75.5 764,-56.5 654,-56.5"/>
<text text-anchor="middle" x="709" y="-63.5" font-family="Helvetica,sans-Serif" font-size="10.00">nlohmann/json.hpp</text>
</a>
</g>
</g>
<!-- Node7&#45;&gt;Node15 -->
<g id="edge16" class="edge">
<title>Node7&#45;&gt;Node15</title>
<path fill="none" stroke="midnightblue" d="M709,-112.08C709,-105.01 709,-94.86 709,-85.99"/>
<polygon fill="midnightblue" stroke="midnightblue" points="712.5,-85.75 709,-75.75 705.5,-85.75 712.5,-85.75"/>
</g>
<!-- Node8&#45;&gt;Node5 -->
<g id="edge11" class="edge">
<title>Node8&#45;&gt;Node5</title>
<path fill="none" stroke="midnightblue" d="M383.44,-56.44C404.67,-47.56 438.1,-33.56 462.25,-23.45"/>
<polygon fill="midnightblue" stroke="midnightblue" points="463.78,-26.61 471.66,-19.52 461.08,-20.15 463.78,-26.61"/>
</g>
<!-- Node8&#45;&gt;Node6 -->
<g id="edge14" class="edge">
<title>Node8&#45;&gt;Node6</title>
<path fill="none" stroke="midnightblue" d="M394.85,-56.44C431.88,-46.49 492.74,-30.15 530.47,-20.01"/>
<polygon fill="midnightblue" stroke="midnightblue" points="531.72,-23.3 540.46,-17.32 529.9,-16.54 531.72,-23.3"/>
</g>
<!-- Node9 -->
<g id="node9" class="node">
<title>Node9</title>
<g id="a_node9"><a xlink:title=" ">
<polygon fill="white" stroke="#bfbfbf" points="328,-0.5 328,-19.5 392,-19.5 392,-0.5 328,-0.5"/>
<text text-anchor="middle" x="360" y="-7.5" font-family="Helvetica,sans-Serif" font-size="10.00">algorithm</text>
</a>
</g>
</g>
<!-- Node8&#45;&gt;Node9 -->
<g id="edge8" class="edge">
<title>Node8&#45;&gt;Node9</title>
<path fill="none" stroke="midnightblue" d="M362.5,-56.08C362.11,-49.01 361.55,-38.86 361.05,-29.99"/>
<polygon fill="midnightblue" stroke="midnightblue" points="364.54,-29.54 360.49,-19.75 357.55,-29.93 364.54,-29.54"/>
</g>
<!-- Node10 -->
<g id="node10" class="node">
<title>Node10</title>
<g id="a_node10"><a xlink:title=" ">
<polygon fill="white" stroke="#bfbfbf" points="410,-0.5 410,-19.5 452,-19.5 452,-0.5 410,-0.5"/>
<text text-anchor="middle" x="431" y="-7.5" font-family="Helvetica,sans-Serif" font-size="10.00">array</text>
</a>
</g>
</g>
<!-- Node8&#45;&gt;Node10 -->
<g id="edge9" class="edge">
<title>Node8&#45;&gt;Node10</title>
<path fill="none" stroke="midnightblue" d="M373.93,-56.32C384.17,-48.18 399.72,-35.84 412,-26.09"/>
<polygon fill="midnightblue" stroke="midnightblue" points="414.22,-28.79 419.88,-19.83 409.87,-23.31 414.22,-28.79"/>
</g>
<!-- Node11 -->
<g id="node11" class="node">
<title>Node11</title>
<g id="a_node11"><a xlink:title=" ">
<polygon fill="white" stroke="#bfbfbf" points="173.5,-0.5 173.5,-19.5 222.5,-19.5 222.5,-0.5 173.5,-0.5"/>
<text text-anchor="middle" x="198" y="-7.5" font-family="Helvetica,sans-Serif" font-size="10.00">cctype</text>
</a>
</g>
</g>
<!-- Node8&#45;&gt;Node11 -->
<g id="edge10" class="edge">
<title>Node8&#45;&gt;Node11</title>
<path fill="none" stroke="midnightblue" d="M336.86,-56.44C308.57,-47.19 263.34,-32.39 232.24,-22.21"/>
<polygon fill="midnightblue" stroke="midnightblue" points="233.27,-18.86 222.67,-19.08 231.09,-25.51 233.27,-18.86"/>
</g>
<!-- Node8&#45;&gt;Node12 -->
<g id="edge12" class="edge">
<title>Node8&#45;&gt;Node12</title>
<path fill="none" stroke="midnightblue" d="M321.17,-56.44C273.29,-46.65 195.09,-30.66 145.38,-20.49"/>
<polygon fill="midnightblue" stroke="midnightblue" points="146.03,-17.05 135.53,-18.47 144.63,-23.91 146.03,-17.05"/>
</g>
<!-- Node13 -->
<g id="node13" class="node">
<title>Node13</title>
<g id="a_node13"><a xlink:title=" ">
<polygon fill="white" stroke="#bfbfbf" points="240.5,-0.5 240.5,-19.5 309.5,-19.5 309.5,-0.5 240.5,-0.5"/>
<text text-anchor="middle" x="275" y="-7.5" font-family="Helvetica,sans-Serif" font-size="10.00">type_traits</text>
</a>
</g>
</g>
<!-- Node8&#45;&gt;Node13 -->
<g id="edge13" class="edge">
<title>Node8&#45;&gt;Node13</title>
<path fill="none" stroke="midnightblue" d="M348.86,-56.32C335.13,-47.9 314.06,-34.97 297.94,-25.07"/>
<polygon fill="midnightblue" stroke="midnightblue" points="299.46,-21.9 289.1,-19.65 295.8,-27.87 299.46,-21.9"/>
</g>
<!-- Node21&#45;&gt;Node2 -->
<g id="edge26" class="edge">
<title>Node21&#45;&gt;Node2</title>
<path fill="none" stroke="midnightblue" d="M615.63,-290.19C511.6,-282.93 299.87,-266.87 110.18,-244.07"/>
<polygon fill="midnightblue" stroke="midnightblue" points="110.36,-240.57 100.02,-242.84 109.52,-247.51 110.36,-240.57"/>
</g>
<!-- Node21&#45;&gt;Node14 -->
<g id="edge36" class="edge">
<title>Node21&#45;&gt;Node14</title>
<path fill="none" stroke="midnightblue" d="M744.12,-281.6C747.46,-281.04 750.77,-280.5 754,-280 824.95,-269.09 1027.16,-297.51 1075,-244 1080.92,-237.37 1079.91,-231.41 1075,-224 1017.16,-136.66 931.8,-206.34 858,-132 845.5,-119.41 838.49,-100.19 834.77,-85.92"/>
<polygon fill="midnightblue" stroke="midnightblue" points="838.09,-84.71 832.45,-75.75 831.26,-86.27 838.09,-84.71"/>
</g>
<!-- Node21&#45;&gt;Node19 -->
<g id="edge37" class="edge">
<title>Node21&#45;&gt;Node19</title>
<path fill="none" stroke="midnightblue" d="M744.12,-281.63C747.46,-281.05 750.77,-280.51 754,-280 821.42,-269.43 1013.66,-295.01 1059,-244 1064.91,-237.36 1064.56,-230.94 1059,-224 1038.98,-199.03 949.03,-187.02 896.15,-182.03"/>
<polygon fill="midnightblue" stroke="midnightblue" points="896.37,-178.53 886.1,-181.12 895.74,-185.51 896.37,-178.53"/>
</g>
<!-- Node22 -->
<g id="node22" class="node">
<title>Node22</title>
<g id="a_node22"><a xlink:title=" ">
<polygon fill="white" stroke="#bfbfbf" points="1254,-112.5 1254,-131.5 1304,-131.5 1304,-112.5 1254,-112.5"/>
<text text-anchor="middle" x="1279" y="-119.5" font-family="Helvetica,sans-Serif" font-size="10.00">chrono</text>
</a>
</g>
</g>
<!-- Node21&#45;&gt;Node22 -->
<g id="edge27" class="edge">
<title>Node21&#45;&gt;Node22</title>
<path fill="none" stroke="midnightblue" d="M744.11,-281.52C747.45,-280.98 750.76,-280.46 754,-280 840.81,-267.55 1066.8,-279.49 1147,-244 1199.87,-220.6 1245.59,-167.34 1266.64,-139.95"/>
<polygon fill="midnightblue" stroke="midnightblue" points="1269.6,-141.84 1272.81,-131.74 1264.01,-137.63 1269.6,-141.84"/>
</g>
<!-- Node23 -->
<g id="node23" class="node">
<title>Node23</title>
<g id="a_node23"><a xlink:href="x509__time__fmt_8h.html" target="_top" xlink:title=" ">
<polygon fill="white" stroke="black" points="1067,-168.5 1067,-187.5 1181,-187.5 1181,-168.5 1067,-168.5"/>
<text text-anchor="middle" x="1124" y="-175.5" font-family="Helvetica,sans-Serif" font-size="10.00">ds/x509_time_fmt.h</text>
</a>
</g>
</g>
<!-- Node21&#45;&gt;Node23 -->
<g id="edge28" class="edge">
<title>Node21&#45;&gt;Node23</title>
<path fill="none" stroke="midnightblue" d="M744.11,-281.54C747.45,-280.99 750.76,-280.47 754,-280 795.53,-273.96 1101.77,-275.06 1130,-244 1141.29,-231.58 1137.51,-211.79 1132.32,-197.3"/>
<polygon fill="midnightblue" stroke="midnightblue" points="1135.49,-195.82 1128.48,-187.87 1129.01,-198.45 1135.49,-195.82"/>
</g>
<!-- Node27 -->
<g id="node27" class="node">
<title>Node27</title>
<g id="a_node27"><a xlink:title=" ">
<polygon fill="white" stroke="#bfbfbf" points="118.5,-224.5 118.5,-243.5 207.5,-243.5 207.5,-224.5 118.5,-224.5"/>
<text text-anchor="middle" x="163" y="-231.5" font-family="Helvetica,sans-Serif" font-size="10.00">openssl/asn1.h</text>
</a>
</g>
</g>
<!-- Node21&#45;&gt;Node27 -->
<g id="edge38" class="edge">
<title>Node21&#45;&gt;Node27</title>
<path fill="none" stroke="midnightblue" d="M615.68,-288.73C527.97,-280.58 365.75,-264.54 217.69,-244.17"/>
<polygon fill="midnightblue" stroke="midnightblue" points="217.89,-240.66 207.5,-242.76 216.93,-247.6 217.89,-240.66"/>
</g>
<!-- Node28 -->
<g id="node28" class="node">
<title>Node28</title>
<g id="a_node28"><a xlink:title=" ">
<polygon fill="white" stroke="#bfbfbf" points="225.5,-224.5 225.5,-243.5 302.5,-243.5 302.5,-224.5 225.5,-224.5"/>
<text text-anchor="middle" x="264" y="-231.5" font-family="Helvetica,sans-Serif" font-size="10.00">openssl/ec.h</text>
</a>
</g>
</g>
<!-- Node21&#45;&gt;Node28 -->
<g id="edge39" class="edge">
<title>Node21&#45;&gt;Node28</title>
<path fill="none" stroke="midnightblue" d="M615.85,-286.77C544.28,-277.91 424.81,-262.42 312.82,-244.23"/>
<polygon fill="midnightblue" stroke="midnightblue" points="313.13,-240.74 302.7,-242.58 312,-247.65 313.13,-240.74"/>
</g>
<!-- Node29 -->
<g id="node29" class="node">
<title>Node29</title>
<g id="a_node29"><a xlink:title=" ">
<polygon fill="white" stroke="#bfbfbf" points="320.5,-224.5 320.5,-243.5 419.5,-243.5 419.5,-224.5 320.5,-224.5"/>
<text text-anchor="middle" x="370" y="-231.5" font-family="Helvetica,sans-Serif" font-size="10.00">openssl/engine.h</text>
</a>
</g>
</g>
<!-- Node21&#45;&gt;Node29 -->
<g id="edge40" class="edge">
<title>Node21&#45;&gt;Node29</title>
<path fill="none" stroke="midnightblue" d="M615.77,-282.17C559.29,-271.33 477.98,-255.73 424.59,-245.48"/>
<polygon fill="midnightblue" stroke="midnightblue" points="425.1,-242.01 414.62,-243.56 423.79,-248.89 425.1,-242.01"/>
</g>
<!-- Node30 -->
<g id="node30" class="node">
<title>Node30</title>
<g id="a_node30"><a xlink:title=" ">
<polygon fill="white" stroke="#bfbfbf" points="437.5,-224.5 437.5,-243.5 516.5,-243.5 516.5,-224.5 437.5,-224.5"/>
<text text-anchor="middle" x="477" y="-231.5" font-family="Helvetica,sans-Serif" font-size="10.00">openssl/err.h</text>
</a>
</g>
</g>
<!-- Node21&#45;&gt;Node30 -->
<g id="edge41" class="edge">
<title>Node21&#45;&gt;Node30</title>
<path fill="none" stroke="midnightblue" d="M632.15,-280.47C596.67,-270.08 548.91,-256.08 515.8,-246.37"/>
<polygon fill="midnightblue" stroke="midnightblue" points="516.6,-242.96 506.02,-243.51 514.63,-249.68 516.6,-242.96"/>
</g>
<!-- Node31 -->
<g id="node31" class="node">
<title>Node31</title>
<g id="a_node31"><a xlink:title=" ">
<polygon fill="white" stroke="#bfbfbf" points="534,-224.5 534,-243.5 618,-243.5 618,-224.5 534,-224.5"/>
<text text-anchor="middle" x="576" y="-231.5" font-family="Helvetica,sans-Serif" font-size="10.00">openssl/evp.h</text>
</a>
</g>
</g>
<!-- Node21&#45;&gt;Node31 -->
<g id="edge42" class="edge">
<title>Node21&#45;&gt;Node31</title>
<path fill="none" stroke="midnightblue" d="M655.35,-280.4C638.68,-270.86 616.77,-258.32 600.19,-248.84"/>
<polygon fill="midnightblue" stroke="midnightblue" points="601.55,-245.59 591.13,-243.66 598.07,-251.66 601.55,-245.59"/>
</g>
<!-- Node32 -->
<g id="node32" class="node">
<title>Node32</title>
<g id="a_node32"><a xlink:title=" ">
<polygon fill="white" stroke="#bfbfbf" points="636,-224.5 636,-243.5 724,-243.5 724,-224.5 636,-224.5"/>
<text text-anchor="middle" x="680" y="-231.5" font-family="Helvetica,sans-Serif" font-size="10.00">openssl/pem.h</text>
</a>
</g>
</g>
<!-- Node21&#45;&gt;Node32 -->
<g id="edge43" class="edge">
<title>Node21&#45;&gt;Node32</title>
<path fill="none" stroke="midnightblue" d="M680,-280.4C680,-272.47 680,-262.46 680,-253.86"/>
<polygon fill="midnightblue" stroke="midnightblue" points="683.5,-253.66 680,-243.66 676.5,-253.66 683.5,-253.66"/>
</g>
<!-- Node33 -->
<g id="node33" class="node">
<title>Node33</title>
<g id="a_node33"><a xlink:title=" ">
<polygon fill="white" stroke="#bfbfbf" points="742,-224.5 742,-243.5 822,-243.5 822,-224.5 742,-224.5"/>
<text text-anchor="middle" x="782" y="-231.5" font-family="Helvetica,sans-Serif" font-size="10.00">openssl/ssl.h</text>
</a>
</g>
</g>
<!-- Node21&#45;&gt;Node33 -->
<g id="edge44" class="edge">
<title>Node21&#45;&gt;Node33</title>
<path fill="none" stroke="midnightblue" d="M704.17,-280.4C720.52,-270.86 742.01,-258.32 758.27,-248.84"/>
<polygon fill="midnightblue" stroke="midnightblue" points="760.28,-251.72 767.16,-243.66 756.76,-245.67 760.28,-251.72"/>
</g>
<!-- Node34 -->
<g id="node34" class="node">
<title>Node34</title>
<g id="a_node34"><a xlink:title=" ">
<polygon fill="white" stroke="#bfbfbf" points="840,-224.5 840,-243.5 930,-243.5 930,-224.5 840,-224.5"/>
<text text-anchor="middle" x="885" y="-231.5" font-family="Helvetica,sans-Serif" font-size="10.00">openssl/x509.h</text>
</a>
</g>
</g>
<!-- Node21&#45;&gt;Node34 -->
<g id="edge45" class="edge">
<title>Node21&#45;&gt;Node34</title>
<path fill="none" stroke="midnightblue" d="M728.32,-280.47C764.15,-270.08 812.38,-256.08 845.82,-246.37"/>
<polygon fill="midnightblue" stroke="midnightblue" points="847.06,-249.66 855.69,-243.51 845.11,-242.93 847.06,-249.66"/>
</g>
<!-- Node35 -->
<g id="node35" class="node">
<title>Node35</title>
<g id="a_node35"><a xlink:title=" ">
<polygon fill="white" stroke="#bfbfbf" points="948,-224.5 948,-243.5 1050,-243.5 1050,-224.5 948,-224.5"/>
<text text-anchor="middle" x="999" y="-231.5" font-family="Helvetica,sans-Serif" font-size="10.00">openssl/x509v3.h</text>
</a>
</g>
</g>
<!-- Node21&#45;&gt;Node35 -->
<g id="edge46" class="edge">
<title>Node21&#45;&gt;Node35</title>
<path fill="none" stroke="midnightblue" d="M744.17,-281.88C747.49,-281.24 750.78,-280.61 754,-280 818.2,-267.82 891.96,-254.34 941.63,-245.34"/>
<polygon fill="midnightblue" stroke="midnightblue" points="942.33,-248.77 951.54,-243.54 941.08,-241.88 942.33,-248.77"/>
</g>
<!-- Node23&#45;&gt;Node6 -->
<g id="edge35" class="edge">
<title>Node23&#45;&gt;Node6</title>
<path fill="none" stroke="midnightblue" d="M1151.23,-168.47C1182.59,-157.26 1227.35,-136.14 1207,-112 1127.8,-18.08 719.27,-10.84 597.98,-10.79"/>
<polygon fill="midnightblue" stroke="midnightblue" points="597.8,-7.29 587.8,-10.8 597.81,-14.29 597.8,-7.29"/>
</g>
<!-- Node23&#45;&gt;Node14 -->
<g id="edge31" class="edge">
<title>Node23&#45;&gt;Node14</title>
<path fill="none" stroke="midnightblue" d="M1088.11,-168.48C1056.69,-160.55 1010.08,-147.61 971,-132 952.91,-124.78 949.57,-120.41 932,-112 908.19,-100.6 880.82,-88.47 860.58,-79.67"/>
<polygon fill="midnightblue" stroke="midnightblue" points="861.84,-76.4 851.27,-75.64 859.06,-82.83 861.84,-76.4"/>
</g>
<!-- Node23&#45;&gt;Node16 -->
<g id="edge33" class="edge">
<title>Node23&#45;&gt;Node16</title>
<path fill="none" stroke="midnightblue" d="M1087.71,-168.44C1045.45,-158.48 975.95,-142.09 932.97,-131.95"/>
<polygon fill="midnightblue" stroke="midnightblue" points="933.71,-128.53 923.17,-129.64 932.1,-135.35 933.71,-128.53"/>
</g>
<!-- Node23&#45;&gt;Node22 -->
<g id="edge29" class="edge">
<title>Node23&#45;&gt;Node22</title>
<path fill="none" stroke="midnightblue" d="M1148.56,-168.44C1174.52,-159.4 1215.67,-145.06 1244.8,-134.92"/>
<polygon fill="midnightblue" stroke="midnightblue" points="1246.26,-138.11 1254.55,-131.52 1243.96,-131.5 1246.26,-138.11"/>
</g>
<!-- Node24 -->
<g id="node24" class="node">
<title>Node24</title>
<g id="a_node24"><a xlink:title=" ">
<polygon fill="white" stroke="#bfbfbf" points="979.5,-112.5 979.5,-131.5 1058.5,-131.5 1058.5,-112.5 979.5,-112.5"/>
<text text-anchor="middle" x="1019" y="-119.5" font-family="Helvetica,sans-Serif" font-size="10.00">fmt/chrono.h</text>
</a>
</g>
</g>
<!-- Node23&#45;&gt;Node24 -->
<g id="edge30" class="edge">
<title>Node23&#45;&gt;Node24</title>
<path fill="none" stroke="midnightblue" d="M1107.13,-168.32C1090.29,-159.66 1064.19,-146.24 1044.76,-136.25"/>
<polygon fill="midnightblue" stroke="midnightblue" points="1046.32,-133.12 1035.83,-131.65 1043.12,-139.34 1046.32,-133.12"/>
</g>
<!-- Node25 -->
<g id="node25" class="node">
<title>Node25</title>
<g id="a_node25"><a xlink:title=" ">
<polygon fill="white" stroke="#bfbfbf" points="1076,-112.5 1076,-131.5 1132,-131.5 1132,-112.5 1076,-112.5"/>
<text text-anchor="middle" x="1104" y="-119.5" font-family="Helvetica,sans-Serif" font-size="10.00">iomanip</text>
</a>
</g>
</g>
<!-- Node23&#45;&gt;Node25 -->
<g id="edge32" class="edge">
<title>Node23&#45;&gt;Node25</title>
<path fill="none" stroke="midnightblue" d="M1120.7,-168.08C1118.02,-160.85 1114.15,-150.41 1110.81,-141.4"/>
<polygon fill="midnightblue" stroke="midnightblue" points="1114,-139.91 1107.24,-131.75 1107.43,-142.34 1114,-139.91"/>
</g>
<!-- Node26 -->
<g id="node26" class="node">
<title>Node26</title>
<g id="a_node26"><a xlink:title=" ">
<polygon fill="white" stroke="#bfbfbf" points="1150,-112.5 1150,-131.5 1198,-131.5 1198,-112.5 1150,-112.5"/>
<text text-anchor="middle" x="1174" y="-119.5" font-family="Helvetica,sans-Serif" font-size="10.00">time.h</text>
</a>
</g>
</g>
<!-- Node23&#45;&gt;Node26 -->
<g id="edge34" class="edge">
<title>Node23&#45;&gt;Node26</title>
<path fill="none" stroke="midnightblue" d="M1132.26,-168.08C1139.46,-160.3 1150.11,-148.8 1158.85,-139.37"/>
<polygon fill="midnightblue" stroke="midnightblue" points="1161.67,-141.47 1165.9,-131.75 1156.53,-136.71 1161.67,-141.47"/>
</g>
</g>
</svg>
