<?xml version="1.0" encoding="UTF-8" standalone="no"?>
<!DOCTYPE svg PUBLIC "-//W3C//DTD SVG 1.1//EN"
 "http://www.w3.org/Graphics/SVG/1.1/DTD/svg11.dtd">
<!-- Generated by graphviz version 2.43.0 (0)
 -->
<!-- Title: src/enclave Pages: 1 -->
<!--zoomable 167 -->
<svg id="main" version="1.1" xmlns="http://www.w3.org/2000/svg" xmlns:xlink="http://www.w3.org/1999/xlink" xml:space="preserve" onload="init(evt)">
<style type="text/css"><![CDATA[
.edge:hover path { stroke: red; }
.edge:hover polygon { stroke: red; fill: red; }
]]></style>
<script type="text/javascript"><![CDATA[
var edges = document.getElementsByTagName('g');
if (edges && edges.length) {
  for (var i=0;i<edges.length;i++) {
    if (edges[i].id.substr(0,4)=='edge') {
      edges[i].setAttribute('class','edge');
    }
  }
}
]]></script>
        <defs>
                <circle id="rim" cx="0" cy="0" r="7"/>
                <circle id="rim2" cx="0" cy="0" r="3.5"/>
                <g id="zoomPlus">
                        <use xlink:href="#rim" fill="#404040">
                                <set attributeName="fill" to="#808080" begin="zoomplus.mouseover" end="zoomplus.mouseout"/>
                        </use>
                        <path d="M-4,0h8M0,-4v8" fill="none" stroke="white" stroke-width="1.5" pointer-events="none"/>
                </g>
                <g id="zoomMin">
                        <use xlink:href="#rim" fill="#404040">
                                <set attributeName="fill" to="#808080" begin="zoomminus.mouseover" end="zoomminus.mouseout"/>
                        </use>
                        <path d="M-4,0h8" fill="none" stroke="white" stroke-width="1.5" pointer-events="none"/>
                </g>
                <g id="dirArrow">
                        <path fill="none" stroke="white" stroke-width="1.5" d="M0,-3.0v7 M-2.5,-0.5L0,-3.0L2.5,-0.5"/>
                </g>
               <g id="resetDef">
                       <use xlink:href="#rim2" fill="#404040">
                               <set attributeName="fill" to="#808080" begin="reset.mouseover" end="reset.mouseout"/>
                       </use>
               </g>
        </defs>

<script type="text/javascript">
var viewWidth = 666;
var viewHeight = 167;
var sectionId = 'dynsection-0';
</script>
<script xlink:href="svgpan.js"/>
<svg id="graph" class="graph">
<g id="viewport">
<title>src/enclave</title>
<polygon fill="white" stroke="transparent" points="-4,4 -4,-163 662,-163 662,4 -4,4"/>
<g id="clust1" class="cluster">
<title>clusterdir_68267d1309a1af8e8297ef4c3efbcdba</title>
<g id="a_clust1"><a xlink:href="dir_68267d1309a1af8e8297ef4c3efbcdba.html" target="_top" xlink:title="src">
<polygon fill="#edf0f7" stroke="#404040" stroke-dasharray="5,2" points="8,-8 8,-151 594,-151 594,-8 8,-8"/>
<text text-anchor="middle" x="301" y="-139" font-family="Helvetica,sans-Serif" font-size="10.00">src</text>
</a>
</g>
</g>
<!-- dir_122f4add68bb94b3fee614989bbbd8f9 -->
<g id="node1" class="node">
<title>dir_122f4add68bb94b3fee614989bbbd8f9</title>
<g id="a_node1"><a xlink:href="dir_122f4add68bb94b3fee614989bbbd8f9.html" target="_top" xlink:title="ds">
<polygon fill="#a2b4d6" stroke="#404040" points="70,-52 16,-52 16,-16 70,-16 70,-52"/>
<text text-anchor="middle" x="43" y="-31.5" font-family="Helvetica,sans-Serif" font-size="10.00">ds</text>
</a>
</g>
</g>
<!-- dir_18ae7af74d885898b85cbb543ae51b63 -->
<g id="node2" class="node">
<title>dir_18ae7af74d885898b85cbb543ae51b63</title>
<g id="a_node2"><a xlink:href="dir_18ae7af74d885898b85cbb543ae51b63.html" target="_top" xlink:title="node">
<polygon fill="#a2b4d6" stroke="red" points="142,-52 88,-52 88,-16 142,-16 142,-52"/>
<text text-anchor="middle" x="115" y="-31.5" font-family="Helvetica,sans-Serif" font-size="10.00">node</text>
</a>
</g>
</g>
<!-- dir_1af0ddd77af1c20f0c9558f89bd86ab0 -->
<g id="node3" class="node">
<title>dir_1af0ddd77af1c20f0c9558f89bd86ab0</title>
<g id="a_node3"><a xlink:href="dir_1af0ddd77af1c20f0c9558f89bd86ab0.html" target="_top" xlink:title="indexing">
<polygon fill="#a2b4d6" stroke="red" points="219.5,-52 160.5,-52 160.5,-16 219.5,-16 219.5,-52"/>
<text text-anchor="middle" x="190" y="-31.5" font-family="Helvetica,sans-Serif" font-size="10.00">indexing</text>
</a>
</g>
</g>
<!-- dir_2d29d7dff7c7baf1180920f6796c23ae -->
<g id="node4" class="node">
<title>dir_2d29d7dff7c7baf1180920f6796c23ae</title>
<g id="a_node4"><a xlink:href="dir_2d29d7dff7c7baf1180920f6796c23ae.html" target="_top" xlink:title="http">
<polygon fill="#a2b4d6" stroke="#404040" points="292,-52 238,-52 238,-16 292,-16 292,-52"/>
<text text-anchor="middle" x="265" y="-31.5" font-family="Helvetica,sans-Serif" font-size="10.00">http</text>
</a>
</g>
</g>
<!-- dir_3dcea8250b5ce8d5bc595fbbad3e8f21 -->
<g id="node5" class="node">
<title>dir_3dcea8250b5ce8d5bc595fbbad3e8f21</title>
<g id="a_node5"><a xlink:href="dir_3dcea8250b5ce8d5bc595fbbad3e8f21.html" target="_top" xlink:title="js">
<polygon fill="#a2b4d6" stroke="#404040" points="364,-52 310,-52 310,-16 364,-16 364,-52"/>
<text text-anchor="middle" x="337" y="-31.5" font-family="Helvetica,sans-Serif" font-size="10.00">js</text>
</a>
</g>
</g>
<!-- dir_654fcaaa959505712bb2ecafa3e1042f -->
<g id="node6" class="node">
<title>dir_654fcaaa959505712bb2ecafa3e1042f</title>
<g id="a_node6"><a xlink:href="dir_654fcaaa959505712bb2ecafa3e1042f.html" target="_top" xlink:title="tls">
<polygon fill="#a2b4d6" stroke="#404040" points="436,-52 382,-52 382,-16 436,-16 436,-52"/>
<text text-anchor="middle" x="409" y="-31.5" font-family="Helvetica,sans-Serif" font-size="10.00">tls</text>
</a>
</g>
</g>
<!-- dir_d87d126959cfe231b8095c5f45fd8690 -->
<g id="node7" class="node">
<title>dir_d87d126959cfe231b8095c5f45fd8690</title>
<g id="a_node7"><a xlink:href="dir_d87d126959cfe231b8095c5f45fd8690.html" target="_top" xlink:title="quic">
<polygon fill="#a2b4d6" stroke="#404040" points="508,-52 454,-52 454,-16 508,-16 508,-52"/>
<text text-anchor="middle" x="481" y="-31.5" font-family="Helvetica,sans-Serif" font-size="10.00">quic</text>
</a>
</g>
</g>
<!-- dir_fdedb0aba14d44ce9d99bc100e026e6a -->
<g id="node8" class="node">
<title>dir_fdedb0aba14d44ce9d99bc100e026e6a</title>
<g id="a_node8"><a xlink:href="dir_fdedb0aba14d44ce9d99bc100e026e6a.html" target="_top" xlink:title="common">
<polygon fill="#a2b4d6" stroke="#404040" points="585.5,-52 526.5,-52 526.5,-16 585.5,-16 585.5,-52"/>
<text text-anchor="middle" x="556" y="-31.5" font-family="Helvetica,sans-Serif" font-size="10.00">common</text>
</a>
</g>
</g>
<!-- dir_5427940bb9029915fc0c11c1284afde6 -->
<g id="node9" class="node">
<title>dir_5427940bb9029915fc0c11c1284afde6</title>
<g id="a_node9"><a xlink:href="dir_5427940bb9029915fc0c11c1284afde6.html" target="_top" xlink:title="enclave">
<polygon fill="#edf0f7" stroke="#404040" stroke-width="2" points="364.5,-124 309.5,-124 309.5,-88 364.5,-88 364.5,-124"/>
<text text-anchor="middle" x="337" y="-103.5" font-family="Helvetica,sans-Serif" font-size="10.00">enclave</text>
</a>
</g>
</g>
<!-- dir_5427940bb9029915fc0c11c1284afde6&#45;&gt;dir_122f4add68bb94b3fee614989bbbd8f9 -->
<g id="edge1" class="edge">
<title>dir_5427940bb9029915fc0c11c1284afde6&#45;&gt;dir_122f4add68bb94b3fee614989bbbd8f9</title>
<path fill="none" stroke="black" d="M309.32,-101.52C263.15,-95.26 167.58,-80.3 79.8,-51.85"/>
<polygon fill="black" stroke="black" points="80.83,-48.51 70.24,-48.69 78.63,-55.15 80.83,-48.51"/>
<g id="a_edge1&#45;headlabel"><a xlink:href="dir_000015_000014.html" target="_top" xlink:title="10">
<text text-anchor="middle" x="85.14" y="-44.44" font-family="Helvetica,sans-Serif" font-size="10.00">10</text>
</a>
</g>
</g>
<!-- dir_5427940bb9029915fc0c11c1284afde6&#45;&gt;dir_18ae7af74d885898b85cbb543ae51b63 -->
<g id="edge2" class="edge">
<title>dir_5427940bb9029915fc0c11c1284afde6&#45;&gt;dir_18ae7af74d885898b85cbb543ae51b63</title>
<path fill="none" stroke="black" d="M309.31,-98.46C272.77,-89.52 206.67,-72.26 152,-52 151.9,-51.96 151.8,-51.93 151.7,-51.89"/>
<polygon fill="black" stroke="black" points="152.87,-48.59 142.28,-48.1 150.25,-55.08 152.87,-48.59"/>
<g id="a_edge2&#45;headlabel"><a xlink:href="dir_000015_000032.html" target="_top" xlink:title="14">
<text text-anchor="middle" x="157.26" y="-44.79" font-family="Helvetica,sans-Serif" font-size="10.00">14</text>
</a>
</g>
</g>
<!-- dir_5427940bb9029915fc0c11c1284afde6&#45;&gt;dir_1af0ddd77af1c20f0c9558f89bd86ab0 -->
<g id="edge3" class="edge">
<title>dir_5427940bb9029915fc0c11c1284afde6&#45;&gt;dir_1af0ddd77af1c20f0c9558f89bd86ab0</title>
<path fill="none" stroke="black" d="M309.35,-91.83C286.64,-81.02 254.2,-65.57 228.87,-53.51"/>
<polygon fill="black" stroke="black" points="230.08,-50.21 219.54,-49.07 227.07,-56.53 230.08,-50.21"/>
<g id="a_edge3&#45;headlabel"><a xlink:href="dir_000015_000023.html" target="_top" xlink:title="2">
<text text-anchor="middle" x="234.54" y="-46.69" font-family="Helvetica,sans-Serif" font-size="10.00">2</text>
</a>
</g>
</g>
<!-- dir_5427940bb9029915fc0c11c1284afde6&#45;&gt;dir_2d29d7dff7c7baf1180920f6796c23ae -->
<g id="edge4" class="edge">
<title>dir_5427940bb9029915fc0c11c1284afde6&#45;&gt;dir_2d29d7dff7c7baf1180920f6796c23ae</title>
<path fill="none" stroke="black" d="M319.2,-87.7C310.4,-79.14 299.62,-68.66 290,-59.3"/>
<polygon fill="black" stroke="black" points="292.2,-56.57 282.59,-52.1 287.32,-61.58 292.2,-56.57"/>
<g id="a_edge4&#45;headlabel"><a xlink:href="dir_000015_000019.html" target="_top" xlink:title="3">
<text text-anchor="middle" x="296.76" y="-54.54" font-family="Helvetica,sans-Serif" font-size="10.00">3</text>
</a>
</g>
</g>
<!-- dir_5427940bb9029915fc0c11c1284afde6&#45;&gt;dir_3dcea8250b5ce8d5bc595fbbad3e8f21 -->
<g id="edge5" class="edge">
<title>dir_5427940bb9029915fc0c11c1284afde6&#45;&gt;dir_3dcea8250b5ce8d5bc595fbbad3e8f21</title>
<path fill="none" stroke="black" d="M337,-87.7C337,-79.98 337,-70.71 337,-62.11"/>
<polygon fill="black" stroke="black" points="340.5,-62.1 337,-52.1 333.5,-62.1 340.5,-62.1"/>
<g id="a_edge5&#45;headlabel"><a xlink:href="dir_000015_000024.html" target="_top" xlink:title="1">
<text text-anchor="middle" x="343.34" y="-63.2" font-family="Helvetica,sans-Serif" font-size="10.00">1</text>
</a>
</g>
</g>
<!-- dir_5427940bb9029915fc0c11c1284afde6&#45;&gt;dir_654fcaaa959505712bb2ecafa3e1042f -->
<g id="edge6" class="edge">
<title>dir_5427940bb9029915fc0c11c1284afde6&#45;&gt;dir_654fcaaa959505712bb2ecafa3e1042f</title>
<path fill="none" stroke="black" d="M354.8,-87.7C363.6,-79.14 374.38,-68.66 384,-59.3"/>
<polygon fill="black" stroke="black" points="386.68,-61.58 391.41,-52.1 381.8,-56.57 386.68,-61.58"/>
<g id="a_edge6&#45;headlabel"><a xlink:href="dir_000015_000046.html" target="_top" xlink:title="9">
<text text-anchor="middle" x="386.08" y="-63.63" font-family="Helvetica,sans-Serif" font-size="10.00">9</text>
</a>
</g>
</g>
<!-- dir_5427940bb9029915fc0c11c1284afde6&#45;&gt;dir_d87d126959cfe231b8095c5f45fd8690 -->
<g id="edge8" class="edge">
<title>dir_5427940bb9029915fc0c11c1284afde6&#45;&gt;dir_d87d126959cfe231b8095c5f45fd8690</title>
<path fill="none" stroke="black" d="M364.76,-91.5C387.52,-80.44 419.9,-64.7 444.71,-52.64"/>
<polygon fill="black" stroke="black" points="446.35,-55.74 453.81,-48.22 443.29,-49.44 446.35,-55.74"/>
<g id="a_edge8&#45;headlabel"><a xlink:href="dir_000015_000035.html" target="_top" xlink:title="1">
<text text-anchor="middle" x="444.35" y="-57.36" font-family="Helvetica,sans-Serif" font-size="10.00">1</text>
</a>
</g>
</g>
<!-- dir_5427940bb9029915fc0c11c1284afde6&#45;&gt;dir_fdedb0aba14d44ce9d99bc100e026e6a -->
<g id="edge9" class="edge">
<title>dir_5427940bb9029915fc0c11c1284afde6&#45;&gt;dir_fdedb0aba14d44ce9d99bc100e026e6a</title>
<path fill="none" stroke="black" d="M364.79,-97.97C400.45,-88.69 464.03,-71.26 517,-52 517.1,-51.97 517.19,-51.93 517.29,-51.9"/>
<polygon fill="black" stroke="black" points="518.29,-55.26 526.34,-48.38 515.76,-48.74 518.29,-55.26"/>
<g id="a_edge9&#45;headlabel"><a xlink:href="dir_000015_000009.html" target="_top" xlink:title="2">
<text text-anchor="middle" x="515.96" y="-56.71" font-family="Helvetica,sans-Serif" font-size="10.00">2</text>
</a>
</g>
</g>
<!-- dir_d44c64559bbebec7f509842c48db8b23 -->
<g id="node10" class="node">
<title>dir_d44c64559bbebec7f509842c48db8b23</title>
<g id="a_node10"><a xlink:href="dir_d44c64559bbebec7f509842c48db8b23.html" target="_top" xlink:title="include">
<polygon fill="none" stroke="red" points="658,-52 604,-52 604,-16 658,-16 658,-52"/>
<text text-anchor="middle" x="631" y="-31.5" font-family="Helvetica,sans-Serif" font-size="10.00">include</text>
</a>
</g>
</g>
<!-- dir_5427940bb9029915fc0c11c1284afde6&#45;&gt;dir_d44c64559bbebec7f509842c48db8b23 -->
<g id="edge7" class="edge">
<title>dir_5427940bb9029915fc0c11c1284afde6&#45;&gt;dir_d44c64559bbebec7f509842c48db8b23</title>
<path fill="none" stroke="black" d="M364.72,-101.92C411.38,-96.19 508.43,-81.98 594.28,-53.02"/>
<polygon fill="black" stroke="black" points="595.58,-56.27 603.89,-49.7 593.29,-49.66 595.58,-56.27"/>
<g id="a_edge7&#45;headlabel"><a xlink:href="dir_000015_000021.html" target="_top" xlink:title="16">
<text text-anchor="middle" x="593.11" y="-57.63" font-family="Helvetica,sans-Serif" font-size="10.00">16</text>
</a>
</g>
</g>
</g>
</svg>
        <g id="navigator" transform="translate(0 0)" fill="#404254">
                <rect fill="#f2f5e9" fill-opacity="0.5" stroke="#606060" stroke-width=".5" x="0" y="0" width="60" height="60"/>
                <use id="zoomplus" xlink:href="#zoomPlus" x="17" y="9" onmousedown="handleZoom(evt,'in')"/>
                <use id="zoomminus" xlink:href="#zoomMin" x="42" y="9" onmousedown="handleZoom(evt,'out')"/>
                <use id="reset" xlink:href="#resetDef" x="30" y="36" onmousedown="handleReset()"/>
                <g id="arrowUp" xlink:href="#dirArrow" transform="translate(30 24)" onmousedown="handlePan(0,-1)">
                  <use xlink:href="#rim" fill="#404040">
                        <set attributeName="fill" to="#808080" begin="arrowUp.mouseover" end="arrowUp.mouseout"/>
                  </use>
                  <path fill="none" stroke="white" stroke-width="1.5" d="M0,-3.0v7 M-2.5,-0.5L0,-3.0L2.5,-0.5"/>
                </g>
                <g id="arrowRight" xlink:href="#dirArrow" transform="rotate(90) translate(36 -43)" onmousedown="handlePan(1,0)">
                  <use xlink:href="#rim" fill="#404040">
                        <set attributeName="fill" to="#808080" begin="arrowRight.mouseover" end="arrowRight.mouseout"/>
                  </use>
                  <path fill="none" stroke="white" stroke-width="1.5" d="M0,-3.0v7 M-2.5,-0.5L0,-3.0L2.5,-0.5"/>
                </g>
                <g id="arrowDown" xlink:href="#dirArrow" transform="rotate(180) translate(-30 -48)" onmousedown="handlePan(0,1)">
                  <use xlink:href="#rim" fill="#404040">
                        <set attributeName="fill" to="#808080" begin="arrowDown.mouseover" end="arrowDown.mouseout"/>
                  </use>
                  <path fill="none" stroke="white" stroke-width="1.5" d="M0,-3.0v7 M-2.5,-0.5L0,-3.0L2.5,-0.5"/>
                </g>
                <g id="arrowLeft" xlink:href="#dirArrow" transform="rotate(270) translate(-36 17)" onmousedown="handlePan(-1,0)">
                  <use xlink:href="#rim" fill="#404040">
                        <set attributeName="fill" to="#808080" begin="arrowLeft.mouseover" end="arrowLeft.mouseout"/>
                  </use>
                  <path fill="none" stroke="white" stroke-width="1.5" d="M0,-3.0v7 M-2.5,-0.5L0,-3.0L2.5,-0.5"/>
                </g>
        </g>
        <svg viewBox="0 0 15 15" width="100%" height="30px" preserveAspectRatio="xMaxYMin meet">
         <g id="arrow_out" transform="scale(0.3 0.3)">
          <a xlink:href="dir_5427940bb9029915fc0c11c1284afde6_dep_org.svg" target="_base">
           <rect id="button" ry="5" rx="5" y="6" x="6" height="38" width="38"
                fill="#f2f5e9" fill-opacity="0.5" stroke="#606060" stroke-width="1.0"/>
           <path id="arrow"
             d="M 11.500037,31.436501 C 11.940474,20.09759 22.043105,11.32322 32.158766,21.979434 L 37.068811,17.246167 C 37.068811,17.246167 37.088388,32 37.088388,32 L 22.160133,31.978069 C 22.160133,31.978069 26.997745,27.140456 26.997745,27.140456 C 18.528582,18.264221 13.291696,25.230495 11.500037,31.436501 z"
             style="fill:#404040;"/>
          </a>
         </g>
        </svg>
</svg>
