<?xml version="1.0" encoding="UTF-8" standalone="no"?>
<!DOCTYPE svg PUBLIC "-//W3C//DTD SVG 1.1//EN"
 "http://www.w3.org/Graphics/SVG/1.1/DTD/svg11.dtd">
<!-- Generated by graphviz version 2.43.0 (0)
 -->
<!-- Title: src/http/error_reporter.h Pages: 1 -->
<svg width="1103pt" height="308pt"
 viewBox="0.00 0.00 1102.50 308.00" xmlns="http://www.w3.org/2000/svg" xmlns:xlink="http://www.w3.org/1999/xlink">
<g id="graph0" class="graph" transform="scale(1 1) rotate(0) translate(4 304)">
<title>src/http/error_reporter.h</title>
<polygon fill="white" stroke="transparent" points="-4,4 -4,-304 1098.5,-304 1098.5,4 -4,4"/>
<!-- Node1 -->
<g id="node1" class="node">
<title>Node1</title>
<g id="a_node1"><a xlink:title=" ">
<polygon fill="#bfbfbf" stroke="black" points="743.5,-280.5 743.5,-299.5 875.5,-299.5 875.5,-280.5 743.5,-280.5"/>
<text text-anchor="middle" x="809.5" y="-287.5" font-family="Helvetica,sans-Serif" font-size="10.00">src/http/error_reporter.h</text>
</a>
</g>
</g>
<!-- Node2 -->
<g id="node2" class="node">
<title>Node2</title>
<g id="a_node2"><a xlink:href="tls_2msg__types_8h.html" target="_top" xlink:title=" ">
<polygon fill="white" stroke="black" points="762.5,-224.5 762.5,-243.5 856.5,-243.5 856.5,-224.5 762.5,-224.5"/>
<text text-anchor="middle" x="809.5" y="-231.5" font-family="Helvetica,sans-Serif" font-size="10.00">tls/msg_types.h</text>
</a>
</g>
</g>
<!-- Node1&#45;&gt;Node2 -->
<g id="edge1" class="edge">
<title>Node1&#45;&gt;Node2</title>
<path fill="none" stroke="midnightblue" d="M809.5,-280.08C809.5,-273.01 809.5,-262.86 809.5,-253.99"/>
<polygon fill="midnightblue" stroke="midnightblue" points="813,-253.75 809.5,-243.75 806,-253.75 813,-253.75"/>
</g>
<!-- Node3 -->
<g id="node3" class="node">
<title>Node3</title>
<g id="a_node3"><a xlink:href="ring__buffer__types_8h.html" target="_top" xlink:title=" ">
<polygon fill="white" stroke="black" points="747,-168.5 747,-187.5 872,-187.5 872,-168.5 747,-168.5"/>
<text text-anchor="middle" x="809.5" y="-175.5" font-family="Helvetica,sans-Serif" font-size="10.00">ds/ring_buffer_types.h</text>
</a>
</g>
</g>
<!-- Node2&#45;&gt;Node3 -->
<g id="edge2" class="edge">
<title>Node2&#45;&gt;Node3</title>
<path fill="none" stroke="midnightblue" d="M809.5,-224.08C809.5,-217.01 809.5,-206.86 809.5,-197.99"/>
<polygon fill="midnightblue" stroke="midnightblue" points="813,-197.75 809.5,-187.75 806,-197.75 813,-197.75"/>
</g>
<!-- Node4 -->
<g id="node4" class="node">
<title>Node4</title>
<g id="a_node4"><a xlink:href="include_2ccf_2ds_2hash_8h.html" target="_top" xlink:title=" ">
<polygon fill="white" stroke="black" points="235.5,-112.5 235.5,-131.5 315.5,-131.5 315.5,-112.5 235.5,-112.5"/>
<text text-anchor="middle" x="275.5" y="-119.5" font-family="Helvetica,sans-Serif" font-size="10.00">ccf/ds/hash.h</text>
</a>
</g>
</g>
<!-- Node3&#45;&gt;Node4 -->
<g id="edge3" class="edge">
<title>Node3&#45;&gt;Node4</title>
<path fill="none" stroke="midnightblue" d="M746.63,-171.17C658.49,-162.92 493.2,-147.15 352.5,-132 343.94,-131.08 334.85,-130.06 326.03,-129.04"/>
<polygon fill="midnightblue" stroke="midnightblue" points="326.18,-125.53 315.85,-127.86 325.38,-132.49 326.18,-125.53"/>
</g>
<!-- Node8 -->
<g id="node8" class="node">
<title>Node8</title>
<g id="a_node8"><a xlink:title=" ">
<polygon fill="white" stroke="#bfbfbf" points="324,-0.5 324,-19.5 371,-19.5 371,-0.5 324,-0.5"/>
<text text-anchor="middle" x="347.5" y="-7.5" font-family="Helvetica,sans-Serif" font-size="10.00">vector</text>
</a>
</g>
</g>
<!-- Node3&#45;&gt;Node8 -->
<g id="edge36" class="edge">
<title>Node3&#45;&gt;Node8</title>
<path fill="none" stroke="midnightblue" d="M746.68,-176.17C659.07,-172.06 498.81,-153.51 390.5,-76 373.87,-64.1 361.89,-43.6 354.86,-28.8"/>
<polygon fill="midnightblue" stroke="midnightblue" points="358.05,-27.36 350.8,-19.64 351.66,-30.2 358.05,-27.36"/>
</g>
<!-- Node11 -->
<g id="node11" class="node">
<title>Node11</title>
<g id="a_node11"><a xlink:href="nonstd_8h.html" target="_top" xlink:title=" ">
<polygon fill="white" stroke="black" points="736.5,-56.5 736.5,-75.5 826.5,-75.5 826.5,-56.5 736.5,-56.5"/>
<text text-anchor="middle" x="781.5" y="-63.5" font-family="Helvetica,sans-Serif" font-size="10.00">ccf/ds/nonstd.h</text>
</a>
</g>
</g>
<!-- Node3&#45;&gt;Node11 -->
<g id="edge12" class="edge">
<title>Node3&#45;&gt;Node11</title>
<path fill="none" stroke="midnightblue" d="M807.3,-168.37C802.78,-150.62 792.36,-109.67 786.23,-85.6"/>
<polygon fill="midnightblue" stroke="midnightblue" points="789.55,-84.42 783.69,-75.59 782.76,-86.15 789.55,-84.42"/>
</g>
<!-- Node14 -->
<g id="node14" class="node">
<title>Node14</title>
<g id="a_node14"><a xlink:title=" ">
<polygon fill="white" stroke="#bfbfbf" points="929.5,-0.5 929.5,-19.5 973.5,-19.5 973.5,-0.5 929.5,-0.5"/>
<text text-anchor="middle" x="951.5" y="-7.5" font-family="Helvetica,sans-Serif" font-size="10.00">string</text>
</a>
</g>
</g>
<!-- Node3&#45;&gt;Node14 -->
<g id="edge35" class="edge">
<title>Node3&#45;&gt;Node14</title>
<path fill="none" stroke="midnightblue" d="M816.95,-168.15C827.5,-155.62 847.42,-132.01 864.5,-112 890.14,-81.97 920.25,-47.1 937.48,-27.19"/>
<polygon fill="midnightblue" stroke="midnightblue" points="940.13,-29.48 944.03,-19.62 934.84,-24.89 940.13,-29.48"/>
</g>
<!-- Node17 -->
<g id="node17" class="node">
<title>Node17</title>
<g id="a_node17"><a xlink:href="serializer_8h.html" target="_top" xlink:title=" ">
<polygon fill="white" stroke="black" points="613.5,-112.5 613.5,-131.5 683.5,-131.5 683.5,-112.5 613.5,-112.5"/>
<text text-anchor="middle" x="648.5" y="-119.5" font-family="Helvetica,sans-Serif" font-size="10.00">serializer.h</text>
</a>
</g>
</g>
<!-- Node3&#45;&gt;Node17 -->
<g id="edge20" class="edge">
<title>Node3&#45;&gt;Node17</title>
<path fill="none" stroke="midnightblue" d="M783.99,-168.44C756.9,-159.36 713.91,-144.94 683.63,-134.78"/>
<polygon fill="midnightblue" stroke="midnightblue" points="684.49,-131.38 673.89,-131.52 682.26,-138.01 684.49,-131.38"/>
</g>
<!-- Node23 -->
<g id="node23" class="node">
<title>Node23</title>
<g id="a_node23"><a xlink:title=" ">
<polygon fill="white" stroke="#bfbfbf" points="873.5,-112.5 873.5,-131.5 923.5,-131.5 923.5,-112.5 873.5,-112.5"/>
<text text-anchor="middle" x="898.5" y="-119.5" font-family="Helvetica,sans-Serif" font-size="10.00">atomic</text>
</a>
</g>
</g>
<!-- Node3&#45;&gt;Node23 -->
<g id="edge32" class="edge">
<title>Node3&#45;&gt;Node23</title>
<path fill="none" stroke="midnightblue" d="M823.8,-168.32C837.68,-159.9 858.99,-146.97 875.3,-137.07"/>
<polygon fill="midnightblue" stroke="midnightblue" points="877.5,-139.83 884.24,-131.65 873.87,-133.85 877.5,-139.83"/>
</g>
<!-- Node24 -->
<g id="node24" class="node">
<title>Node24</title>
<g id="a_node24"><a xlink:title=" ">
<polygon fill="white" stroke="#bfbfbf" points="942,-112.5 942,-131.5 1021,-131.5 1021,-112.5 942,-112.5"/>
<text text-anchor="middle" x="981.5" y="-119.5" font-family="Helvetica,sans-Serif" font-size="10.00">fmt/format.h</text>
</a>
</g>
</g>
<!-- Node3&#45;&gt;Node24 -->
<g id="edge33" class="edge">
<title>Node3&#45;&gt;Node24</title>
<path fill="none" stroke="midnightblue" d="M836.75,-168.44C865.94,-159.28 912.42,-144.69 944.81,-134.52"/>
<polygon fill="midnightblue" stroke="midnightblue" points="945.88,-137.85 954.37,-131.52 943.78,-131.17 945.88,-137.85"/>
</g>
<!-- Node25 -->
<g id="node25" class="node">
<title>Node25</title>
<g id="a_node25"><a xlink:title=" ">
<polygon fill="white" stroke="#bfbfbf" points="1038.5,-112.5 1038.5,-131.5 1094.5,-131.5 1094.5,-112.5 1038.5,-112.5"/>
<text text-anchor="middle" x="1066.5" y="-119.5" font-family="Helvetica,sans-Serif" font-size="10.00">optional</text>
</a>
</g>
</g>
<!-- Node3&#45;&gt;Node25 -->
<g id="edge34" class="edge">
<title>Node3&#45;&gt;Node25</title>
<path fill="none" stroke="midnightblue" d="M854.49,-168.44C897.05,-160.21 962.96,-147.12 1028.19,-132.46"/>
<polygon fill="midnightblue" stroke="midnightblue" points="1029.25,-135.81 1038.23,-130.19 1027.7,-128.98 1029.25,-135.81"/>
</g>
<!-- Node5 -->
<g id="node5" class="node">
<title>Node5</title>
<g id="a_node5"><a xlink:href="siphash_8h.html" target="_top" xlink:title=" ">
<polygon fill="white" stroke="black" points="205,-56.5 205,-75.5 300,-75.5 300,-56.5 205,-56.5"/>
<text text-anchor="middle" x="252.5" y="-63.5" font-family="Helvetica,sans-Serif" font-size="10.00">ccf/ds/siphash.h</text>
</a>
</g>
</g>
<!-- Node4&#45;&gt;Node5 -->
<g id="edge4" class="edge">
<title>Node4&#45;&gt;Node5</title>
<path fill="none" stroke="midnightblue" d="M271.7,-112.08C268.59,-104.77 264.08,-94.18 260.21,-85.1"/>
<polygon fill="midnightblue" stroke="midnightblue" points="263.37,-83.58 256.23,-75.75 256.93,-86.32 263.37,-83.58"/>
</g>
<!-- Node7 -->
<g id="node7" class="node">
<title>Node7</title>
<g id="a_node7"><a xlink:title=" ">
<polygon fill="white" stroke="#bfbfbf" points="235.5,-0.5 235.5,-19.5 285.5,-19.5 285.5,-0.5 235.5,-0.5"/>
<text text-anchor="middle" x="260.5" y="-7.5" font-family="Helvetica,sans-Serif" font-size="10.00">cstdint</text>
</a>
</g>
</g>
<!-- Node4&#45;&gt;Node7 -->
<g id="edge9" class="edge">
<title>Node4&#45;&gt;Node7</title>
<path fill="none" stroke="midnightblue" d="M245.25,-112.49C227.37,-105.73 206.2,-94.29 195.5,-76 183.25,-55.05 208.48,-36.06 230.99,-24.09"/>
<polygon fill="midnightblue" stroke="midnightblue" points="232.67,-27.16 240.04,-19.55 229.53,-20.91 232.67,-27.16"/>
</g>
<!-- Node4&#45;&gt;Node8 -->
<g id="edge11" class="edge">
<title>Node4&#45;&gt;Node8</title>
<path fill="none" stroke="midnightblue" d="M282.32,-112.21C289.17,-103.26 299.92,-88.91 308.5,-76 318.95,-60.28 329.93,-41.77 337.57,-28.53"/>
<polygon fill="midnightblue" stroke="midnightblue" points="340.77,-29.99 342.7,-19.57 334.69,-26.51 340.77,-29.99"/>
</g>
<!-- Node9 -->
<g id="node9" class="node">
<title>Node9</title>
<g id="a_node9"><a xlink:title=" ">
<polygon fill="white" stroke="#bfbfbf" points="541.5,-0.5 541.5,-19.5 583.5,-19.5 583.5,-0.5 541.5,-0.5"/>
<text text-anchor="middle" x="562.5" y="-7.5" font-family="Helvetica,sans-Serif" font-size="10.00">array</text>
</a>
</g>
</g>
<!-- Node4&#45;&gt;Node9 -->
<g id="edge8" class="edge">
<title>Node4&#45;&gt;Node9</title>
<path fill="none" stroke="midnightblue" d="M315.71,-117.01C374.89,-110.55 481.96,-96.42 514.5,-76 532.46,-64.73 545.94,-44.12 553.97,-29.11"/>
<polygon fill="midnightblue" stroke="midnightblue" points="557.29,-30.32 558.65,-19.81 551.03,-27.17 557.29,-30.32"/>
</g>
<!-- Node10 -->
<g id="node10" class="node">
<title>Node10</title>
<g id="a_node10"><a xlink:title=" ">
<polygon fill="white" stroke="#bfbfbf" points="0,-56.5 0,-75.5 149,-75.5 149,-56.5 0,-56.5"/>
<text text-anchor="middle" x="74.5" y="-63.5" font-family="Helvetica,sans-Serif" font-size="10.00">small_vector/SmallVector.h</text>
</a>
</g>
</g>
<!-- Node4&#45;&gt;Node10 -->
<g id="edge10" class="edge">
<title>Node4&#45;&gt;Node10</title>
<path fill="none" stroke="midnightblue" d="M243.65,-112.44C209.1,-103.16 153.82,-88.31 115.92,-78.13"/>
<polygon fill="midnightblue" stroke="midnightblue" points="116.77,-74.73 106.2,-75.52 114.95,-81.49 116.77,-74.73"/>
</g>
<!-- Node6 -->
<g id="node6" class="node">
<title>Node6</title>
<g id="a_node6"><a xlink:title=" ">
<polygon fill="white" stroke="#bfbfbf" points="164,-0.5 164,-19.5 217,-19.5 217,-0.5 164,-0.5"/>
<text text-anchor="middle" x="190.5" y="-7.5" font-family="Helvetica,sans-Serif" font-size="10.00">cstddef</text>
</a>
</g>
</g>
<!-- Node5&#45;&gt;Node6 -->
<g id="edge5" class="edge">
<title>Node5&#45;&gt;Node6</title>
<path fill="none" stroke="midnightblue" d="M242.54,-56.32C233.37,-48.34 219.56,-36.31 208.47,-26.65"/>
<polygon fill="midnightblue" stroke="midnightblue" points="210.48,-23.76 200.64,-19.83 205.88,-29.04 210.48,-23.76"/>
</g>
<!-- Node5&#45;&gt;Node7 -->
<g id="edge6" class="edge">
<title>Node5&#45;&gt;Node7</title>
<path fill="none" stroke="midnightblue" d="M253.82,-56.08C254.88,-48.93 256.41,-38.64 257.73,-29.69"/>
<polygon fill="midnightblue" stroke="midnightblue" points="261.2,-30.16 259.2,-19.75 254.28,-29.13 261.2,-30.16"/>
</g>
<!-- Node5&#45;&gt;Node8 -->
<g id="edge7" class="edge">
<title>Node5&#45;&gt;Node8</title>
<path fill="none" stroke="midnightblue" d="M267.76,-56.32C282.72,-47.82 305.75,-34.73 323.23,-24.8"/>
<polygon fill="midnightblue" stroke="midnightblue" points="325.31,-27.64 332.27,-19.65 321.85,-21.55 325.31,-27.64"/>
</g>
<!-- Node11&#45;&gt;Node8 -->
<g id="edge19" class="edge">
<title>Node11&#45;&gt;Node8</title>
<path fill="none" stroke="midnightblue" d="M736.21,-57.37C732.93,-56.89 729.66,-56.42 726.5,-56 576.55,-35.95 534.28,-47.89 381.42,-19.86"/>
<polygon fill="midnightblue" stroke="midnightblue" points="381.66,-16.34 371.19,-17.95 380.38,-23.23 381.66,-16.34"/>
</g>
<!-- Node11&#45;&gt;Node9 -->
<g id="edge14" class="edge">
<title>Node11&#45;&gt;Node9</title>
<path fill="none" stroke="midnightblue" d="M742.6,-56.43C706.37,-48.29 650.64,-35.39 593.66,-20.2"/>
<polygon fill="midnightblue" stroke="midnightblue" points="594.33,-16.76 583.76,-17.54 592.51,-23.52 594.33,-16.76"/>
</g>
<!-- Node12 -->
<g id="node12" class="node">
<title>Node12</title>
<g id="a_node12"><a xlink:title=" ">
<polygon fill="white" stroke="#bfbfbf" points="847.5,-0.5 847.5,-19.5 911.5,-19.5 911.5,-0.5 847.5,-0.5"/>
<text text-anchor="middle" x="879.5" y="-7.5" font-family="Helvetica,sans-Serif" font-size="10.00">algorithm</text>
</a>
</g>
</g>
<!-- Node11&#45;&gt;Node12 -->
<g id="edge13" class="edge">
<title>Node11&#45;&gt;Node12</title>
<path fill="none" stroke="midnightblue" d="M797.25,-56.32C812.82,-47.74 836.88,-34.49 854.96,-24.52"/>
<polygon fill="midnightblue" stroke="midnightblue" points="856.72,-27.55 863.79,-19.65 853.35,-21.42 856.72,-27.55"/>
</g>
<!-- Node13 -->
<g id="node13" class="node">
<title>Node13</title>
<g id="a_node13"><a xlink:title=" ">
<polygon fill="white" stroke="#bfbfbf" points="689,-0.5 689,-19.5 738,-19.5 738,-0.5 689,-0.5"/>
<text text-anchor="middle" x="713.5" y="-7.5" font-family="Helvetica,sans-Serif" font-size="10.00">cctype</text>
</a>
</g>
</g>
<!-- Node11&#45;&gt;Node13 -->
<g id="edge15" class="edge">
<title>Node11&#45;&gt;Node13</title>
<path fill="none" stroke="midnightblue" d="M770.57,-56.32C760.33,-48.18 744.78,-35.84 732.5,-26.09"/>
<polygon fill="midnightblue" stroke="midnightblue" points="734.63,-23.31 724.62,-19.83 730.28,-28.79 734.63,-23.31"/>
</g>
<!-- Node11&#45;&gt;Node14 -->
<g id="edge16" class="edge">
<title>Node11&#45;&gt;Node14</title>
<path fill="none" stroke="midnightblue" d="M808.44,-56.44C838.6,-46.86 887.44,-31.35 919.51,-21.16"/>
<polygon fill="midnightblue" stroke="midnightblue" points="920.82,-24.42 929.29,-18.05 918.7,-17.75 920.82,-24.42"/>
</g>
<!-- Node15 -->
<g id="node15" class="node">
<title>Node15</title>
<g id="a_node15"><a xlink:title=" ">
<polygon fill="white" stroke="#bfbfbf" points="756,-0.5 756,-19.5 829,-19.5 829,-0.5 756,-0.5"/>
<text text-anchor="middle" x="792.5" y="-7.5" font-family="Helvetica,sans-Serif" font-size="10.00">string_view</text>
</a>
</g>
</g>
<!-- Node11&#45;&gt;Node15 -->
<g id="edge17" class="edge">
<title>Node11&#45;&gt;Node15</title>
<path fill="none" stroke="midnightblue" d="M783.32,-56.08C784.77,-48.93 786.87,-38.64 788.69,-29.69"/>
<polygon fill="midnightblue" stroke="midnightblue" points="792.15,-30.25 790.72,-19.75 785.29,-28.85 792.15,-30.25"/>
</g>
<!-- Node16 -->
<g id="node16" class="node">
<title>Node16</title>
<g id="a_node16"><a xlink:title=" ">
<polygon fill="white" stroke="#bfbfbf" points="602,-0.5 602,-19.5 671,-19.5 671,-0.5 602,-0.5"/>
<text text-anchor="middle" x="636.5" y="-7.5" font-family="Helvetica,sans-Serif" font-size="10.00">type_traits</text>
</a>
</g>
</g>
<!-- Node11&#45;&gt;Node16 -->
<g id="edge18" class="edge">
<title>Node11&#45;&gt;Node16</title>
<path fill="none" stroke="midnightblue" d="M758.52,-56.44C734.34,-47.44 696.08,-33.19 668.85,-23.05"/>
<polygon fill="midnightblue" stroke="midnightblue" points="669.96,-19.73 659.37,-19.52 667.52,-26.29 669.96,-19.73"/>
</g>
<!-- Node17&#45;&gt;Node8 -->
<g id="edge31" class="edge">
<title>Node17&#45;&gt;Node8</title>
<path fill="none" stroke="midnightblue" d="M613.22,-119.43C567.38,-116.2 485.84,-106.3 423.5,-76 398.99,-64.09 375.97,-42.35 361.82,-27.32"/>
<polygon fill="midnightblue" stroke="midnightblue" points="364.25,-24.78 354.92,-19.76 359.08,-29.5 364.25,-24.78"/>
</g>
<!-- Node17&#45;&gt;Node11 -->
<g id="edge21" class="edge">
<title>Node17&#45;&gt;Node11</title>
<path fill="none" stroke="midnightblue" d="M669.57,-112.44C691.56,-103.52 726.23,-89.44 751.16,-79.32"/>
<polygon fill="midnightblue" stroke="midnightblue" points="752.58,-82.52 760.52,-75.52 749.94,-76.04 752.58,-82.52"/>
</g>
<!-- Node17&#45;&gt;Node16 -->
<g id="edge30" class="edge">
<title>Node17&#45;&gt;Node16</title>
<path fill="none" stroke="midnightblue" d="M647.56,-112.37C645.62,-94.62 641.15,-53.67 638.53,-29.6"/>
<polygon fill="midnightblue" stroke="midnightblue" points="642,-29.15 637.44,-19.59 635.04,-29.91 642,-29.15"/>
</g>
<!-- Node18 -->
<g id="node18" class="node">
<title>Node18</title>
<g id="a_node18"><a xlink:href="serialized_8h.html" target="_top" xlink:title=" ">
<polygon fill="white" stroke="black" points="433,-56.5 433,-75.5 506,-75.5 506,-56.5 433,-56.5"/>
<text text-anchor="middle" x="469.5" y="-63.5" font-family="Helvetica,sans-Serif" font-size="10.00">serialized.h</text>
</a>
</g>
</g>
<!-- Node17&#45;&gt;Node18 -->
<g id="edge22" class="edge">
<title>Node17&#45;&gt;Node18</title>
<path fill="none" stroke="midnightblue" d="M620.14,-112.44C589.76,-103.28 541.39,-88.69 507.68,-78.52"/>
<polygon fill="midnightblue" stroke="midnightblue" points="508.32,-75.05 497.73,-75.52 506.29,-81.76 508.32,-75.05"/>
</g>
<!-- Node21 -->
<g id="node21" class="node">
<title>Node21</title>
<g id="a_node21"><a xlink:title=" ">
<polygon fill="white" stroke="#bfbfbf" points="562.5,-56.5 562.5,-75.5 620.5,-75.5 620.5,-56.5 562.5,-56.5"/>
<text text-anchor="middle" x="591.5" y="-63.5" font-family="Helvetica,sans-Serif" font-size="10.00">memory</text>
</a>
</g>
</g>
<!-- Node17&#45;&gt;Node21 -->
<g id="edge28" class="edge">
<title>Node17&#45;&gt;Node21</title>
<path fill="none" stroke="midnightblue" d="M639.34,-112.32C631,-104.42 618.47,-92.55 608.32,-82.94"/>
<polygon fill="midnightblue" stroke="midnightblue" points="610.49,-80.17 600.82,-75.83 605.68,-85.25 610.49,-80.17"/>
</g>
<!-- Node22 -->
<g id="node22" class="node">
<title>Node22</title>
<g id="a_node22"><a xlink:title=" ">
<polygon fill="white" stroke="#bfbfbf" points="677,-56.5 677,-75.5 718,-75.5 718,-56.5 677,-56.5"/>
<text text-anchor="middle" x="697.5" y="-63.5" font-family="Helvetica,sans-Serif" font-size="10.00">tuple</text>
</a>
</g>
</g>
<!-- Node17&#45;&gt;Node22 -->
<g id="edge29" class="edge">
<title>Node17&#45;&gt;Node22</title>
<path fill="none" stroke="midnightblue" d="M656.59,-112.08C663.66,-104.3 674.09,-92.8 682.65,-83.37"/>
<polygon fill="midnightblue" stroke="midnightblue" points="685.43,-85.51 689.56,-75.75 680.25,-80.8 685.43,-85.51"/>
</g>
<!-- Node18&#45;&gt;Node7 -->
<g id="edge23" class="edge">
<title>Node18&#45;&gt;Node7</title>
<path fill="none" stroke="midnightblue" d="M436.38,-56.44C397.92,-46.51 334.75,-30.18 295.5,-20.04"/>
<polygon fill="midnightblue" stroke="midnightblue" points="296.15,-16.6 285.59,-17.48 294.4,-23.37 296.15,-16.6"/>
</g>
<!-- Node18&#45;&gt;Node8 -->
<g id="edge27" class="edge">
<title>Node18&#45;&gt;Node8</title>
<path fill="none" stroke="midnightblue" d="M450.17,-56.44C430.18,-47.6 398.76,-33.69 375.94,-23.59"/>
<polygon fill="midnightblue" stroke="midnightblue" points="377.3,-20.36 366.74,-19.52 374.47,-26.76 377.3,-20.36"/>
</g>
<!-- Node18&#45;&gt;Node14 -->
<g id="edge26" class="edge">
<title>Node18&#45;&gt;Node14</title>
<path fill="none" stroke="midnightblue" d="M506.29,-60.99C520.97,-59.4 538.03,-57.59 553.5,-56 713.19,-39.61 757.75,-50.51 918.99,-19.96"/>
<polygon fill="midnightblue" stroke="midnightblue" points="920.11,-23.31 929.27,-17.99 918.79,-16.44 920.11,-23.31"/>
</g>
<!-- Node19 -->
<g id="node19" class="node">
<title>Node19</title>
<g id="a_node19"><a xlink:title=" ">
<polygon fill="white" stroke="#bfbfbf" points="389.5,-0.5 389.5,-19.5 439.5,-19.5 439.5,-0.5 389.5,-0.5"/>
<text text-anchor="middle" x="414.5" y="-7.5" font-family="Helvetica,sans-Serif" font-size="10.00">cstring</text>
</a>
</g>
</g>
<!-- Node18&#45;&gt;Node19 -->
<g id="edge24" class="edge">
<title>Node18&#45;&gt;Node19</title>
<path fill="none" stroke="midnightblue" d="M460.42,-56.08C452.33,-48.14 440.3,-36.34 430.59,-26.8"/>
<polygon fill="midnightblue" stroke="midnightblue" points="433,-24.26 423.41,-19.75 428.1,-29.25 433,-24.26"/>
</g>
<!-- Node20 -->
<g id="node20" class="node">
<title>Node20</title>
<g id="a_node20"><a xlink:title=" ">
<polygon fill="white" stroke="#bfbfbf" points="458,-0.5 458,-19.5 523,-19.5 523,-0.5 458,-0.5"/>
<text text-anchor="middle" x="490.5" y="-7.5" font-family="Helvetica,sans-Serif" font-size="10.00">stdexcept</text>
</a>
</g>
</g>
<!-- Node18&#45;&gt;Node20 -->
<g id="edge25" class="edge">
<title>Node18&#45;&gt;Node20</title>
<path fill="none" stroke="midnightblue" d="M472.97,-56.08C475.81,-48.77 479.93,-38.18 483.46,-29.1"/>
<polygon fill="midnightblue" stroke="midnightblue" points="486.73,-30.34 487.1,-19.75 480.21,-27.8 486.73,-30.34"/>
</g>
</g>
</svg>
