<?xml version="1.0" encoding="UTF-8" standalone="no"?>
<!DOCTYPE svg PUBLIC "-//W3C//DTD SVG 1.1//EN"
 "http://www.w3.org/Graphics/SVG/1.1/DTD/svg11.dtd">
<!-- Generated by graphviz version 2.43.0 (0)
 -->
<!-- Title: src/ds/files.h Pages: 1 -->
<svg width="699pt" height="218pt"
 viewBox="0.00 0.00 699.00 218.00" xmlns="http://www.w3.org/2000/svg" xmlns:xlink="http://www.w3.org/1999/xlink">
<g id="graph0" class="graph" transform="scale(1 1) rotate(0) translate(4 214)">
<title>src/ds/files.h</title>
<polygon fill="white" stroke="transparent" points="-4,4 -4,-214 695,-214 695,4 -4,4"/>
<!-- Node1 -->
<g id="node1" class="node">
<title>Node1</title>
<g id="a_node1"><a xlink:title=" ">
<polygon fill="#bfbfbf" stroke="black" points="248.5,-190.5 248.5,-209.5 325.5,-209.5 325.5,-190.5 248.5,-190.5"/>
<text text-anchor="middle" x="287" y="-197.5" font-family="Helvetica,sans-Serif" font-size="10.00">src/ds/files.h</text>
</a>
</g>
</g>
<!-- Node2 -->
<g id="node2" class="node">
<title>Node2</title>
<g id="a_node2"><a xlink:href="perf__client_8h.html" target="_top" xlink:title=" ">
<polygon fill="white" stroke="black" points="61.5,-123.5 61.5,-153.5 172.5,-153.5 172.5,-123.5 61.5,-123.5"/>
<text text-anchor="start" x="69.5" y="-141.5" font-family="Helvetica,sans-Serif" font-size="10.00">src/clients/perf/perf</text>
<text text-anchor="middle" x="117" y="-130.5" font-family="Helvetica,sans-Serif" font-size="10.00">_client.h</text>
</a>
</g>
</g>
<!-- Node1&#45;&gt;Node2 -->
<g id="edge1" class="edge">
<title>Node1&#45;&gt;Node2</title>
<path fill="none" stroke="midnightblue" d="M253.01,-187.1C225.35,-177.42 186.25,-163.74 157.07,-153.52"/>
<polygon fill="midnightblue" stroke="midnightblue" points="252.05,-190.48 262.64,-190.48 254.36,-183.87 252.05,-190.48"/>
</g>
<!-- Node4 -->
<g id="node4" class="node">
<title>Node4</title>
<g id="a_node4"><a xlink:href="scenario__perf__client_8cpp.html" target="_top" xlink:title=" ">
<polygon fill="white" stroke="black" points="134.5,-56.5 134.5,-86.5 267.5,-86.5 267.5,-56.5 134.5,-56.5"/>
<text text-anchor="start" x="142.5" y="-74.5" font-family="Helvetica,sans-Serif" font-size="10.00">src/clients/perf/scenario</text>
<text text-anchor="middle" x="201" y="-63.5" font-family="Helvetica,sans-Serif" font-size="10.00">_perf_client.cpp</text>
</a>
</g>
</g>
<!-- Node1&#45;&gt;Node4 -->
<g id="edge4" class="edge">
<title>Node1&#45;&gt;Node4</title>
<path fill="none" stroke="midnightblue" d="M257.71,-185.69C244.31,-178.2 229.38,-167.59 220,-154 205.89,-133.55 202.15,-104.06 201.22,-86.73"/>
<polygon fill="midnightblue" stroke="midnightblue" points="256.16,-188.84 266.64,-190.39 259.42,-182.64 256.16,-188.84"/>
</g>
<!-- Node5 -->
<g id="node5" class="node">
<title>Node5</title>
<g id="a_node5"><a xlink:href="handle__ring__buffer_8h.html" target="_top" xlink:title=" ">
<polygon fill="white" stroke="black" points="229.5,-123.5 229.5,-153.5 344.5,-153.5 344.5,-123.5 229.5,-123.5"/>
<text text-anchor="start" x="237.5" y="-141.5" font-family="Helvetica,sans-Serif" font-size="10.00">src/host/handle_ring</text>
<text text-anchor="middle" x="287" y="-130.5" font-family="Helvetica,sans-Serif" font-size="10.00">_buffer.h</text>
</a>
</g>
</g>
<!-- Node1&#45;&gt;Node5 -->
<g id="edge5" class="edge">
<title>Node1&#45;&gt;Node5</title>
<path fill="none" stroke="midnightblue" d="M287,-180.23C287,-171.59 287,-161.5 287,-153.52"/>
<polygon fill="midnightblue" stroke="midnightblue" points="283.5,-180.48 287,-190.48 290.5,-180.48 283.5,-180.48"/>
</g>
<!-- Node6 -->
<g id="node6" class="node">
<title>Node6</title>
<g id="a_node6"><a xlink:href="host_2main_8cpp.html" target="_top" xlink:title=" ">
<polygon fill="white" stroke="black" points="374.5,-0.5 374.5,-19.5 477.5,-19.5 477.5,-0.5 374.5,-0.5"/>
<text text-anchor="middle" x="426" y="-7.5" font-family="Helvetica,sans-Serif" font-size="10.00">src/host/main.cpp</text>
</a>
</g>
</g>
<!-- Node1&#45;&gt;Node6 -->
<g id="edge12" class="edge">
<title>Node1&#45;&gt;Node6</title>
<path fill="none" stroke="midnightblue" d="M313.93,-185.59C327.17,-177.88 342.5,-167.1 353,-154 382.31,-117.42 369,-96.85 392,-56 399.59,-42.52 410.76,-28.54 418.2,-19.81"/>
<polygon fill="midnightblue" stroke="midnightblue" points="312.23,-182.53 305.18,-190.44 315.62,-188.66 312.23,-182.53"/>
</g>
<!-- Node7 -->
<g id="node7" class="node">
<title>Node7</title>
<g id="a_node7"><a xlink:href="ledger_8h.html" target="_top" xlink:title=" ">
<polygon fill="white" stroke="black" points="430.5,-129 430.5,-148 527.5,-148 527.5,-129 430.5,-129"/>
<text text-anchor="middle" x="479" y="-136" font-family="Helvetica,sans-Serif" font-size="10.00">src/host/ledger.h</text>
</a>
</g>
</g>
<!-- Node1&#45;&gt;Node7 -->
<g id="edge7" class="edge">
<title>Node1&#45;&gt;Node7</title>
<path fill="none" stroke="midnightblue" d="M324.49,-187.38C361.81,-175.82 418.2,-158.34 451.54,-148.01"/>
<polygon fill="midnightblue" stroke="midnightblue" points="323.02,-184.17 314.51,-190.48 325.1,-190.86 323.02,-184.17"/>
</g>
<!-- Node3 -->
<g id="node3" class="node">
<title>Node3</title>
<g id="a_node3"><a xlink:href="tpcc__client_8cpp.html" target="_top" xlink:title=" ">
<polygon fill="white" stroke="black" points="0,-56.5 0,-86.5 116,-86.5 116,-56.5 0,-56.5"/>
<text text-anchor="start" x="8" y="-74.5" font-family="Helvetica,sans-Serif" font-size="10.00">src/apps/tpcc/clients</text>
<text text-anchor="middle" x="58" y="-63.5" font-family="Helvetica,sans-Serif" font-size="10.00">/tpcc_client.cpp</text>
</a>
</g>
</g>
<!-- Node2&#45;&gt;Node3 -->
<g id="edge2" class="edge">
<title>Node2&#45;&gt;Node3</title>
<path fill="none" stroke="midnightblue" d="M97.25,-115.74C88.52,-106.12 78.5,-95.09 70.78,-86.58"/>
<polygon fill="midnightblue" stroke="midnightblue" points="94.89,-118.34 104.2,-123.4 100.07,-113.64 94.89,-118.34"/>
</g>
<!-- Node2&#45;&gt;Node4 -->
<g id="edge3" class="edge">
<title>Node2&#45;&gt;Node4</title>
<path fill="none" stroke="midnightblue" d="M143.28,-117.17C156.12,-107.23 171.26,-95.51 182.81,-86.58"/>
<polygon fill="midnightblue" stroke="midnightblue" points="140.99,-114.51 135.23,-123.4 145.28,-120.04 140.99,-114.51"/>
</g>
<!-- Node5&#45;&gt;Node6 -->
<g id="edge6" class="edge">
<title>Node5&#45;&gt;Node6</title>
<path fill="none" stroke="midnightblue" d="M303.94,-115.38C317.74,-98.15 338.25,-74.17 359,-56 375.44,-41.6 396.73,-28.04 410.84,-19.64"/>
<polygon fill="midnightblue" stroke="midnightblue" points="301.19,-113.23 297.74,-123.25 306.68,-117.56 301.19,-113.23"/>
</g>
<!-- Node8 -->
<g id="node8" class="node">
<title>Node8</title>
<g id="a_node8"><a xlink:href="node__connections_8h.html" target="_top" xlink:title=" ">
<polygon fill="white" stroke="black" points="401.5,-62 401.5,-81 556.5,-81 556.5,-62 401.5,-62"/>
<text text-anchor="middle" x="479" y="-69" font-family="Helvetica,sans-Serif" font-size="10.00">src/host/node_connections.h</text>
</a>
</g>
</g>
<!-- Node7&#45;&gt;Node8 -->
<g id="edge8" class="edge">
<title>Node7&#45;&gt;Node8</title>
<path fill="none" stroke="midnightblue" d="M479,-118.54C479,-106.17 479,-90.62 479,-81.13"/>
<polygon fill="midnightblue" stroke="midnightblue" points="475.5,-118.73 479,-128.73 482.5,-118.73 475.5,-118.73"/>
</g>
<!-- Node9 -->
<g id="node9" class="node">
<title>Node9</title>
<g id="a_node9"><a xlink:href="snapshots_8h.html" target="_top" xlink:title=" ">
<polygon fill="white" stroke="black" points="575,-62 575,-81 691,-81 691,-62 575,-62"/>
<text text-anchor="middle" x="633" y="-69" font-family="Helvetica,sans-Serif" font-size="10.00">src/host/snapshots.h</text>
</a>
</g>
</g>
<!-- Node7&#45;&gt;Node9 -->
<g id="edge10" class="edge">
<title>Node7&#45;&gt;Node9</title>
<path fill="none" stroke="midnightblue" d="M508.74,-124.95C539.23,-112.08 585.84,-92.4 612.47,-81.17"/>
<polygon fill="midnightblue" stroke="midnightblue" points="507.3,-121.76 499.45,-128.87 510.02,-128.2 507.3,-121.76"/>
</g>
<!-- Node8&#45;&gt;Node6 -->
<g id="edge9" class="edge">
<title>Node8&#45;&gt;Node6</title>
<path fill="none" stroke="midnightblue" d="M464.75,-54.5C454.71,-43.24 441.68,-28.6 433.58,-19.51"/>
<polygon fill="midnightblue" stroke="midnightblue" points="462.14,-56.84 471.41,-61.98 467.37,-52.18 462.14,-56.84"/>
</g>
<!-- Node9&#45;&gt;Node6 -->
<g id="edge11" class="edge">
<title>Node9&#45;&gt;Node6</title>
<path fill="none" stroke="midnightblue" d="M593.6,-59.18C553.38,-47.61 491.85,-29.93 455.6,-19.51"/>
<polygon fill="midnightblue" stroke="midnightblue" points="592.76,-62.58 603.34,-61.98 594.7,-55.85 592.76,-62.58"/>
</g>
</g>
</svg>
