<?xml version="1.0" encoding="UTF-8" standalone="no"?>
<!DOCTYPE svg PUBLIC "-//W3C//DTD SVG 1.1//EN"
 "http://www.w3.org/Graphics/SVG/1.1/DTD/svg11.dtd">
<!-- Generated by graphviz version 2.43.0 (0)
 -->
<!-- Title: src/crypto/hmac.cpp Pages: 1 -->
<!--zoomable 420 -->
<svg id="main" version="1.1" xmlns="http://www.w3.org/2000/svg" xmlns:xlink="http://www.w3.org/1999/xlink" xml:space="preserve" onload="init(evt)">
<style type="text/css"><![CDATA[
.edge:hover path { stroke: red; }
.edge:hover polygon { stroke: red; fill: red; }
]]></style>
<script type="text/javascript"><![CDATA[
var edges = document.getElementsByTagName('g');
if (edges && edges.length) {
  for (var i=0;i<edges.length;i++) {
    if (edges[i].id.substr(0,4)=='edge') {
      edges[i].setAttribute('class','edge');
    }
  }
}
]]></script>
        <defs>
                <circle id="rim" cx="0" cy="0" r="7"/>
                <circle id="rim2" cx="0" cy="0" r="3.5"/>
                <g id="zoomPlus">
                        <use xlink:href="#rim" fill="#404040">
                                <set attributeName="fill" to="#808080" begin="zoomplus.mouseover" end="zoomplus.mouseout"/>
                        </use>
                        <path d="M-4,0h8M0,-4v8" fill="none" stroke="white" stroke-width="1.5" pointer-events="none"/>
                </g>
                <g id="zoomMin">
                        <use xlink:href="#rim" fill="#404040">
                                <set attributeName="fill" to="#808080" begin="zoomminus.mouseover" end="zoomminus.mouseout"/>
                        </use>
                        <path d="M-4,0h8" fill="none" stroke="white" stroke-width="1.5" pointer-events="none"/>
                </g>
                <g id="dirArrow">
                        <path fill="none" stroke="white" stroke-width="1.5" d="M0,-3.0v7 M-2.5,-0.5L0,-3.0L2.5,-0.5"/>
                </g>
               <g id="resetDef">
                       <use xlink:href="#rim2" fill="#404040">
                               <set attributeName="fill" to="#808080" begin="reset.mouseover" end="reset.mouseout"/>
                       </use>
               </g>
        </defs>

<script type="text/javascript">
var viewWidth = 1916;
var viewHeight = 420;
var sectionId = 'dynsection-0';
</script>
<script xlink:href="svgpan.js"/>
<svg id="graph" class="graph">
<g id="viewport">
<title>src/crypto/hmac.cpp</title>
<polygon fill="white" stroke="transparent" points="-4,4 -4,-416 1912,-416 1912,4 -4,4"/>
<!-- Node1 -->
<g id="node1" class="node">
<title>Node1</title>
<g id="a_node1"><a xlink:title=" ">
<polygon fill="#bfbfbf" stroke="black" points="689.5,-392.5 689.5,-411.5 804.5,-411.5 804.5,-392.5 689.5,-392.5"/>
<text text-anchor="middle" x="747" y="-399.5" font-family="Helvetica,sans-Serif" font-size="10.00">src/crypto/hmac.cpp</text>
</a>
</g>
</g>
<!-- Node2 -->
<g id="node2" class="node">
<title>Node2</title>
<g id="a_node2"><a xlink:href="hmac_8h.html" target="_top" xlink:title=" ">
<polygon fill="white" stroke="black" points="183.5,-280.5 183.5,-299.5 236.5,-299.5 236.5,-280.5 183.5,-280.5"/>
<text text-anchor="middle" x="210" y="-287.5" font-family="Helvetica,sans-Serif" font-size="10.00">hmac.h</text>
</a>
</g>
</g>
<!-- Node1&#45;&gt;Node2 -->
<g id="edge1" class="edge">
<title>Node1&#45;&gt;Node2</title>
<path fill="none" stroke="midnightblue" d="M705.31,-392.46C603.43,-371.59 343.12,-318.27 246.67,-298.51"/>
<polygon fill="midnightblue" stroke="midnightblue" points="247.3,-295.07 236.8,-296.49 245.89,-301.93 247.3,-295.07"/>
</g>
<!-- Node19 -->
<g id="node19" class="node">
<title>Node19</title>
<g id="a_node19"><a xlink:href="src_2crypto_2openssl_2hash_8h.html" target="_top" xlink:title=" ">
<polygon fill="white" stroke="black" points="685.5,-336.5 685.5,-355.5 808.5,-355.5 808.5,-336.5 685.5,-336.5"/>
<text text-anchor="middle" x="747" y="-343.5" font-family="Helvetica,sans-Serif" font-size="10.00">crypto/openssl/hash.h</text>
</a>
</g>
</g>
<!-- Node1&#45;&gt;Node19 -->
<g id="edge22" class="edge">
<title>Node1&#45;&gt;Node19</title>
<path fill="none" stroke="midnightblue" d="M747,-392.08C747,-385.01 747,-374.86 747,-365.99"/>
<polygon fill="midnightblue" stroke="midnightblue" points="750.5,-365.75 747,-355.75 743.5,-365.75 750.5,-365.75"/>
</g>
<!-- Node46 -->
<g id="node46" class="node">
<title>Node46</title>
<g id="a_node46"><a xlink:title=" ">
<polygon fill="white" stroke="#bfbfbf" points="826.5,-336.5 826.5,-355.5 919.5,-355.5 919.5,-336.5 826.5,-336.5"/>
<text text-anchor="middle" x="873" y="-343.5" font-family="Helvetica,sans-Serif" font-size="10.00">openssl/hmac.h</text>
</a>
</g>
</g>
<!-- Node1&#45;&gt;Node46 -->
<g id="edge68" class="edge">
<title>Node1&#45;&gt;Node46</title>
<path fill="none" stroke="midnightblue" d="M766.97,-392.44C787.61,-383.6 820.06,-369.69 843.63,-359.59"/>
<polygon fill="midnightblue" stroke="midnightblue" points="845.32,-362.67 853.13,-355.52 842.56,-356.24 845.32,-362.67"/>
</g>
<!-- Node3 -->
<g id="node3" class="node">
<title>Node3</title>
<g id="a_node3"><a xlink:href="hash__bytes_8h.html" target="_top" xlink:title=" ">
<polygon fill="white" stroke="black" points="0,-224.5 0,-243.5 132,-243.5 132,-224.5 0,-224.5"/>
<text text-anchor="middle" x="66" y="-231.5" font-family="Helvetica,sans-Serif" font-size="10.00">ccf/crypto/hash_bytes.h</text>
</a>
</g>
</g>
<!-- Node2&#45;&gt;Node3 -->
<g id="edge2" class="edge">
<title>Node2&#45;&gt;Node3</title>
<path fill="none" stroke="midnightblue" d="M187.18,-280.44C163.17,-271.44 125.17,-257.19 98.13,-247.05"/>
<polygon fill="midnightblue" stroke="midnightblue" points="99.3,-243.75 88.71,-243.52 96.84,-250.3 99.3,-243.75"/>
</g>
<!-- Node5 -->
<g id="node5" class="node">
<title>Node5</title>
<g id="a_node5"><a xlink:href="md__type_8h.html" target="_top" xlink:title=" ">
<polygon fill="white" stroke="black" points="150.5,-224.5 150.5,-243.5 269.5,-243.5 269.5,-224.5 150.5,-224.5"/>
<text text-anchor="middle" x="210" y="-231.5" font-family="Helvetica,sans-Serif" font-size="10.00">ccf/crypto/md_type.h</text>
</a>
</g>
</g>
<!-- Node2&#45;&gt;Node5 -->
<g id="edge4" class="edge">
<title>Node2&#45;&gt;Node5</title>
<path fill="none" stroke="midnightblue" d="M210,-280.08C210,-273.01 210,-262.86 210,-253.99"/>
<polygon fill="midnightblue" stroke="midnightblue" points="213.5,-253.75 210,-243.75 206.5,-253.75 213.5,-253.75"/>
</g>
<!-- Node4 -->
<g id="node4" class="node">
<title>Node4</title>
<g id="a_node4"><a xlink:title=" ">
<polygon fill="white" stroke="#bfbfbf" points="837.5,-0.5 837.5,-19.5 884.5,-19.5 884.5,-0.5 837.5,-0.5"/>
<text text-anchor="middle" x="861" y="-7.5" font-family="Helvetica,sans-Serif" font-size="10.00">vector</text>
</a>
</g>
</g>
<!-- Node3&#45;&gt;Node4 -->
<g id="edge3" class="edge">
<title>Node3&#45;&gt;Node4</title>
<path fill="none" stroke="midnightblue" d="M88.03,-224.43C145.91,-201.75 306.8,-137.68 437,-76 454.25,-67.83 456.75,-61.59 475,-56 614.81,-13.2 657.03,-39.03 802,-20 810.23,-18.92 819.1,-17.63 827.39,-16.38"/>
<polygon fill="midnightblue" stroke="midnightblue" points="828.14,-19.8 837.49,-14.82 827.07,-12.88 828.14,-19.8"/>
</g>
<!-- Node6 -->
<g id="node6" class="node">
<title>Node6</title>
<g id="a_node6"><a xlink:href="json_8h.html" target="_top" xlink:title=" ">
<polygon fill="white" stroke="black" points="525.5,-168.5 525.5,-187.5 602.5,-187.5 602.5,-168.5 525.5,-168.5"/>
<text text-anchor="middle" x="564" y="-175.5" font-family="Helvetica,sans-Serif" font-size="10.00">ccf/ds/json.h</text>
</a>
</g>
</g>
<!-- Node5&#45;&gt;Node6 -->
<g id="edge5" class="edge">
<title>Node5&#45;&gt;Node6</title>
<path fill="none" stroke="midnightblue" d="M266.09,-224.44C334.84,-213.96 450.21,-196.36 515.36,-186.42"/>
<polygon fill="midnightblue" stroke="midnightblue" points="516.02,-189.86 525.37,-184.89 514.96,-182.94 516.02,-189.86"/>
</g>
<!-- Node7 -->
<g id="node7" class="node">
<title>Node7</title>
<g id="a_node7"><a xlink:href="include_2ccf_2crypto_2base64_8h.html" target="_top" xlink:title=" ">
<polygon fill="white" stroke="black" points="612,-56.5 612,-75.5 724,-75.5 724,-56.5 612,-56.5"/>
<text text-anchor="middle" x="668" y="-63.5" font-family="Helvetica,sans-Serif" font-size="10.00">ccf/crypto/base64.h</text>
</a>
</g>
</g>
<!-- Node6&#45;&gt;Node7 -->
<g id="edge6" class="edge">
<title>Node6&#45;&gt;Node7</title>
<path fill="none" stroke="midnightblue" d="M565.22,-168.46C567.52,-155.05 573.64,-128.84 588,-112 600.16,-97.74 618.03,-87.09 633.79,-79.73"/>
<polygon fill="midnightblue" stroke="midnightblue" points="635.52,-82.8 643.27,-75.58 632.71,-76.39 635.52,-82.8"/>
</g>
<!-- Node9 -->
<g id="node9" class="node">
<title>Node9</title>
<g id="a_node9"><a xlink:href="include_2ccf_2ds_2json__schema_8h.html" target="_top" xlink:title=" ">
<polygon fill="white" stroke="black" points="414.5,-112.5 414.5,-131.5 535.5,-131.5 535.5,-112.5 414.5,-112.5"/>
<text text-anchor="middle" x="475" y="-119.5" font-family="Helvetica,sans-Serif" font-size="10.00">ccf/ds/json_schema.h</text>
</a>
</g>
</g>
<!-- Node6&#45;&gt;Node9 -->
<g id="edge9" class="edge">
<title>Node6&#45;&gt;Node9</title>
<path fill="none" stroke="midnightblue" d="M549.7,-168.32C535.82,-159.9 514.51,-146.97 498.2,-137.07"/>
<polygon fill="midnightblue" stroke="midnightblue" points="499.63,-133.85 489.26,-131.65 496,-139.83 499.63,-133.85"/>
</g>
<!-- Node16 -->
<g id="node16" class="node">
<title>Node16</title>
<g id="a_node16"><a xlink:title=" ">
<polygon fill="white" stroke="#bfbfbf" points="742.5,-56.5 742.5,-75.5 821.5,-75.5 821.5,-56.5 742.5,-56.5"/>
<text text-anchor="middle" x="782" y="-63.5" font-family="Helvetica,sans-Serif" font-size="10.00">fmt/format.h</text>
</a>
</g>
</g>
<!-- Node6&#45;&gt;Node16 -->
<g id="edge20" class="edge">
<title>Node6&#45;&gt;Node16</title>
<path fill="none" stroke="midnightblue" d="M569.81,-168.45C579.71,-154.54 601.19,-127.04 626,-112 644.2,-100.97 695.21,-87.29 733.99,-77.93"/>
<polygon fill="midnightblue" stroke="midnightblue" points="735.14,-81.26 744.06,-75.53 733.52,-74.45 735.14,-81.26"/>
</g>
<!-- Node18 -->
<g id="node18" class="node">
<title>Node18</title>
<g id="a_node18"><a xlink:title=" ">
<polygon fill="white" stroke="#bfbfbf" points="706,-112.5 706,-131.5 762,-131.5 762,-112.5 706,-112.5"/>
<text text-anchor="middle" x="734" y="-119.5" font-family="Helvetica,sans-Serif" font-size="10.00">sstream</text>
</a>
</g>
</g>
<!-- Node6&#45;&gt;Node18 -->
<g id="edge21" class="edge">
<title>Node6&#45;&gt;Node18</title>
<path fill="none" stroke="midnightblue" d="M590.94,-168.44C619.66,-159.32 665.33,-144.81 697.32,-134.65"/>
<polygon fill="midnightblue" stroke="midnightblue" points="698.72,-137.88 707.19,-131.52 696.6,-131.21 698.72,-137.88"/>
</g>
<!-- Node7&#45;&gt;Node4 -->
<g id="edge8" class="edge">
<title>Node7&#45;&gt;Node4</title>
<path fill="none" stroke="midnightblue" d="M698.58,-56.44C733.75,-46.6 791.3,-30.5 827.61,-20.34"/>
<polygon fill="midnightblue" stroke="midnightblue" points="828.57,-23.71 837.25,-17.64 826.68,-16.97 828.57,-23.71"/>
</g>
<!-- Node8 -->
<g id="node8" class="node">
<title>Node8</title>
<g id="a_node8"><a xlink:title=" ">
<polygon fill="white" stroke="#bfbfbf" points="606,-0.5 606,-19.5 650,-19.5 650,-0.5 606,-0.5"/>
<text text-anchor="middle" x="628" y="-7.5" font-family="Helvetica,sans-Serif" font-size="10.00">string</text>
</a>
</g>
</g>
<!-- Node7&#45;&gt;Node8 -->
<g id="edge7" class="edge">
<title>Node7&#45;&gt;Node8</title>
<path fill="none" stroke="midnightblue" d="M661.39,-56.08C655.74,-48.46 647.46,-37.26 640.55,-27.94"/>
<polygon fill="midnightblue" stroke="midnightblue" points="643.25,-25.7 634.48,-19.75 637.62,-29.87 643.25,-25.7"/>
</g>
<!-- Node10 -->
<g id="node10" class="node">
<title>Node10</title>
<g id="a_node10"><a xlink:href="nonstd_8h.html" target="_top" xlink:title=" ">
<polygon fill="white" stroke="black" points="338,-56.5 338,-75.5 428,-75.5 428,-56.5 338,-56.5"/>
<text text-anchor="middle" x="383" y="-63.5" font-family="Helvetica,sans-Serif" font-size="10.00">ccf/ds/nonstd.h</text>
</a>
</g>
</g>
<!-- Node9&#45;&gt;Node10 -->
<g id="edge10" class="edge">
<title>Node9&#45;&gt;Node10</title>
<path fill="none" stroke="midnightblue" d="M460.22,-112.32C445.73,-103.82 423.43,-90.73 406.51,-80.8"/>
<polygon fill="midnightblue" stroke="midnightblue" points="408.14,-77.7 397.74,-75.65 404.6,-83.74 408.14,-77.7"/>
</g>
<!-- Node9&#45;&gt;Node16 -->
<g id="edge18" class="edge">
<title>Node9&#45;&gt;Node16</title>
<path fill="none" stroke="midnightblue" d="M524.97,-112.42C574.82,-103.83 653.9,-90.12 732.36,-76.1"/>
<polygon fill="midnightblue" stroke="midnightblue" points="733.2,-79.51 742.43,-74.3 731.96,-72.62 733.2,-79.51"/>
</g>
<!-- Node17 -->
<g id="node17" class="node">
<title>Node17</title>
<g id="a_node17"><a xlink:title=" ">
<polygon fill="white" stroke="#bfbfbf" points="484,-56.5 484,-75.5 594,-75.5 594,-56.5 484,-56.5"/>
<text text-anchor="middle" x="539" y="-63.5" font-family="Helvetica,sans-Serif" font-size="10.00">nlohmann/json.hpp</text>
</a>
</g>
</g>
<!-- Node9&#45;&gt;Node17 -->
<g id="edge19" class="edge">
<title>Node9&#45;&gt;Node17</title>
<path fill="none" stroke="midnightblue" d="M485.28,-112.32C494.84,-104.26 509.28,-92.08 520.78,-82.37"/>
<polygon fill="midnightblue" stroke="midnightblue" points="523.14,-84.96 528.53,-75.83 518.63,-79.61 523.14,-84.96"/>
</g>
<!-- Node10&#45;&gt;Node4 -->
<g id="edge17" class="edge">
<title>Node10&#45;&gt;Node4</title>
<path fill="none" stroke="midnightblue" d="M428.06,-57.88C432.77,-57.21 437.48,-56.57 442,-56 601.53,-35.87 642.47,-40.13 802,-20 810.24,-18.96 819.1,-17.69 827.39,-16.43"/>
<polygon fill="midnightblue" stroke="midnightblue" points="828.15,-19.86 837.5,-14.87 827.08,-12.94 828.15,-19.86"/>
</g>
<!-- Node10&#45;&gt;Node8 -->
<g id="edge14" class="edge">
<title>Node10&#45;&gt;Node8</title>
<path fill="none" stroke="midnightblue" d="M421.82,-56.44C469.91,-45.84 550.96,-27.98 595.78,-18.1"/>
<polygon fill="midnightblue" stroke="midnightblue" points="596.81,-21.46 605.82,-15.89 595.31,-14.62 596.81,-21.46"/>
</g>
<!-- Node11 -->
<g id="node11" class="node">
<title>Node11</title>
<g id="a_node11"><a xlink:title=" ">
<polygon fill="white" stroke="#bfbfbf" points="417,-0.5 417,-19.5 481,-19.5 481,-0.5 417,-0.5"/>
<text text-anchor="middle" x="449" y="-7.5" font-family="Helvetica,sans-Serif" font-size="10.00">algorithm</text>
</a>
</g>
</g>
<!-- Node10&#45;&gt;Node11 -->
<g id="edge11" class="edge">
<title>Node10&#45;&gt;Node11</title>
<path fill="none" stroke="midnightblue" d="M393.6,-56.32C403.46,-48.26 418.35,-36.08 430.22,-26.37"/>
<polygon fill="midnightblue" stroke="midnightblue" points="432.68,-28.88 438.2,-19.83 428.25,-23.46 432.68,-28.88"/>
</g>
<!-- Node12 -->
<g id="node12" class="node">
<title>Node12</title>
<g id="a_node12"><a xlink:title=" ">
<polygon fill="white" stroke="#bfbfbf" points="269,-0.5 269,-19.5 311,-19.5 311,-0.5 269,-0.5"/>
<text text-anchor="middle" x="290" y="-7.5" font-family="Helvetica,sans-Serif" font-size="10.00">array</text>
</a>
</g>
</g>
<!-- Node10&#45;&gt;Node12 -->
<g id="edge12" class="edge">
<title>Node10&#45;&gt;Node12</title>
<path fill="none" stroke="midnightblue" d="M368.06,-56.32C353.41,-47.82 330.87,-34.73 313.76,-24.8"/>
<polygon fill="midnightblue" stroke="midnightblue" points="315.31,-21.65 304.9,-19.65 311.8,-27.7 315.31,-21.65"/>
</g>
<!-- Node13 -->
<g id="node13" class="node">
<title>Node13</title>
<g id="a_node13"><a xlink:title=" ">
<polygon fill="white" stroke="#bfbfbf" points="499.5,-0.5 499.5,-19.5 548.5,-19.5 548.5,-0.5 499.5,-0.5"/>
<text text-anchor="middle" x="524" y="-7.5" font-family="Helvetica,sans-Serif" font-size="10.00">cctype</text>
</a>
</g>
</g>
<!-- Node10&#45;&gt;Node13 -->
<g id="edge13" class="edge">
<title>Node10&#45;&gt;Node13</title>
<path fill="none" stroke="midnightblue" d="M405.34,-56.44C428.75,-47.48 465.74,-33.31 492.19,-23.18"/>
<polygon fill="midnightblue" stroke="midnightblue" points="493.68,-26.36 501.76,-19.52 491.17,-19.82 493.68,-26.36"/>
</g>
<!-- Node14 -->
<g id="node14" class="node">
<title>Node14</title>
<g id="a_node14"><a xlink:title=" ">
<polygon fill="white" stroke="#bfbfbf" points="720.5,-0.5 720.5,-19.5 793.5,-19.5 793.5,-0.5 720.5,-0.5"/>
<text text-anchor="middle" x="757" y="-7.5" font-family="Helvetica,sans-Serif" font-size="10.00">string_view</text>
</a>
</g>
</g>
<!-- Node10&#45;&gt;Node14 -->
<g id="edge15" class="edge">
<title>Node10&#45;&gt;Node14</title>
<path fill="none" stroke="midnightblue" d="M428.09,-58.08C432.79,-57.37 437.49,-56.67 442,-56 537.06,-41.96 648.36,-26.23 709.95,-17.58"/>
<polygon fill="midnightblue" stroke="midnightblue" points="710.71,-21.01 720.13,-16.15 709.74,-14.08 710.71,-21.01"/>
</g>
<!-- Node15 -->
<g id="node15" class="node">
<title>Node15</title>
<g id="a_node15"><a xlink:title=" ">
<polygon fill="white" stroke="#bfbfbf" points="329.5,-0.5 329.5,-19.5 398.5,-19.5 398.5,-0.5 329.5,-0.5"/>
<text text-anchor="middle" x="364" y="-7.5" font-family="Helvetica,sans-Serif" font-size="10.00">type_traits</text>
</a>
</g>
</g>
<!-- Node10&#45;&gt;Node15 -->
<g id="edge16" class="edge">
<title>Node10&#45;&gt;Node15</title>
<path fill="none" stroke="midnightblue" d="M379.86,-56.08C377.32,-48.85 373.64,-38.41 370.47,-29.4"/>
<polygon fill="midnightblue" stroke="midnightblue" points="373.7,-28.02 367.08,-19.75 367.1,-30.35 373.7,-28.02"/>
</g>
<!-- Node19&#45;&gt;Node16 -->
<g id="edge67" class="edge">
<title>Node19&#45;&gt;Node16</title>
<path fill="none" stroke="midnightblue" d="M733.63,-336.19C722.3,-328.08 706.45,-315.03 697,-300 680.98,-274.52 678,-265.1 678,-235 678,-235 678,-235 678,-177 678,-146.9 677.98,-135.32 697,-112 709.09,-97.18 727.37,-86.61 743.89,-79.46"/>
<polygon fill="midnightblue" stroke="midnightblue" points="745.39,-82.63 753.35,-75.64 742.76,-76.14 745.39,-82.63"/>
</g>
<!-- Node20 -->
<g id="node20" class="node">
<title>Node20</title>
<g id="a_node20"><a xlink:href="hash__provider_8h.html" target="_top" xlink:title=" ">
<polygon fill="white" stroke="black" points="380.5,-280.5 380.5,-299.5 525.5,-299.5 525.5,-280.5 380.5,-280.5"/>
<text text-anchor="middle" x="453" y="-287.5" font-family="Helvetica,sans-Serif" font-size="10.00">ccf/crypto/hash_provider.h</text>
</a>
</g>
</g>
<!-- Node19&#45;&gt;Node20 -->
<g id="edge23" class="edge">
<title>Node19&#45;&gt;Node20</title>
<path fill="none" stroke="midnightblue" d="M700.41,-336.44C648.59,-326.92 564.87,-311.55 509.38,-301.36"/>
<polygon fill="midnightblue" stroke="midnightblue" points="509.84,-297.88 499.37,-299.52 508.57,-304.77 509.84,-297.88"/>
</g>
<!-- Node25 -->
<g id="node25" class="node">
<title>Node25</title>
<g id="a_node25"><a xlink:href="openssl__wrappers_8h.html" target="_top" xlink:title=" ">
<polygon fill="white" stroke="black" points="1172.5,-280.5 1172.5,-299.5 1285.5,-299.5 1285.5,-280.5 1172.5,-280.5"/>
<text text-anchor="middle" x="1229" y="-287.5" font-family="Helvetica,sans-Serif" font-size="10.00">openssl_wrappers.h</text>
</a>
</g>
</g>
<!-- Node19&#45;&gt;Node25 -->
<g id="edge35" class="edge">
<title>Node19&#45;&gt;Node25</title>
<path fill="none" stroke="midnightblue" d="M808.83,-336.99C811.59,-336.65 814.32,-336.32 817,-336 938.62,-321.54 1080.66,-306.41 1162.19,-297.9"/>
<polygon fill="midnightblue" stroke="midnightblue" points="1162.73,-301.36 1172.31,-296.85 1162.01,-294.4 1162.73,-301.36"/>
</g>
<!-- Node39 -->
<g id="node39" class="node">
<title>Node39</title>
<g id="a_node39"><a xlink:title=" ">
<polygon fill="white" stroke="#bfbfbf" points="1824,-224.5 1824,-243.5 1908,-243.5 1908,-224.5 1824,-224.5"/>
<text text-anchor="middle" x="1866" y="-231.5" font-family="Helvetica,sans-Serif" font-size="10.00">openssl/evp.h</text>
</a>
</g>
</g>
<!-- Node19&#45;&gt;Node39 -->
<g id="edge64" class="edge">
<title>Node19&#45;&gt;Node39</title>
<path fill="none" stroke="midnightblue" d="M808.82,-336.87C811.58,-336.57 814.32,-336.27 817,-336 1028.51,-314.44 1082.29,-319.47 1294,-300 1523.71,-278.87 1581.38,-274.76 1810,-244 1811.26,-243.83 1812.54,-243.65 1813.83,-243.47"/>
<polygon fill="midnightblue" stroke="midnightblue" points="1814.45,-246.92 1823.84,-242.01 1813.44,-239.99 1814.45,-246.92"/>
</g>
<!-- Node44 -->
<g id="node44" class="node">
<title>Node44</title>
<g id="a_node44"><a xlink:title=" ">
<polygon fill="white" stroke="#bfbfbf" points="706.5,-280.5 706.5,-299.5 787.5,-299.5 787.5,-280.5 706.5,-280.5"/>
<text text-anchor="middle" x="747" y="-287.5" font-family="Helvetica,sans-Serif" font-size="10.00">openssl/kdf.h</text>
</a>
</g>
</g>
<!-- Node19&#45;&gt;Node44 -->
<g id="edge65" class="edge">
<title>Node19&#45;&gt;Node44</title>
<path fill="none" stroke="midnightblue" d="M747,-336.08C747,-329.01 747,-318.86 747,-309.99"/>
<polygon fill="midnightblue" stroke="midnightblue" points="750.5,-309.75 747,-299.75 743.5,-309.75 750.5,-309.75"/>
</g>
<!-- Node45 -->
<g id="node45" class="node">
<title>Node45</title>
<g id="a_node45"><a xlink:title=" ">
<polygon fill="white" stroke="#bfbfbf" points="805.5,-280.5 805.5,-299.5 888.5,-299.5 888.5,-280.5 805.5,-280.5"/>
<text text-anchor="middle" x="847" y="-287.5" font-family="Helvetica,sans-Serif" font-size="10.00">openssl/sha.h</text>
</a>
</g>
</g>
<!-- Node19&#45;&gt;Node45 -->
<g id="edge66" class="edge">
<title>Node19&#45;&gt;Node45</title>
<path fill="none" stroke="midnightblue" d="M763.07,-336.32C778.96,-327.74 803.51,-314.49 821.96,-304.52"/>
<polygon fill="midnightblue" stroke="midnightblue" points="823.84,-307.49 830.97,-299.65 820.51,-301.33 823.84,-307.49"/>
</g>
<!-- Node20&#45;&gt;Node3 -->
<g id="edge24" class="edge">
<title>Node20&#45;&gt;Node3</title>
<path fill="none" stroke="midnightblue" d="M391.68,-280.44C322.47,-270.79 210.05,-255.1 137.06,-244.92"/>
<polygon fill="midnightblue" stroke="midnightblue" points="137.42,-241.43 127.03,-243.52 136.45,-248.36 137.42,-241.43"/>
</g>
<!-- Node20&#45;&gt;Node4 -->
<g id="edge34" class="edge">
<title>Node20&#45;&gt;Node4</title>
<path fill="none" stroke="midnightblue" d="M500.03,-280.48C582.96,-264.59 750.46,-228.38 793,-188 839.1,-144.24 854.34,-65.79 859.05,-29.88"/>
<polygon fill="midnightblue" stroke="midnightblue" points="862.54,-30.15 860.24,-19.81 855.59,-29.34 862.54,-30.15"/>
</g>
<!-- Node20&#45;&gt;Node5 -->
<g id="edge25" class="edge">
<title>Node20&#45;&gt;Node5</title>
<path fill="none" stroke="midnightblue" d="M414.5,-280.44C372.19,-271.04 304.18,-255.93 258.33,-245.74"/>
<polygon fill="midnightblue" stroke="midnightblue" points="258.85,-242.27 248.32,-243.52 257.33,-249.1 258.85,-242.27"/>
</g>
<!-- Node20&#45;&gt;Node12 -->
<g id="edge31" class="edge">
<title>Node20&#45;&gt;Node12</title>
<path fill="none" stroke="midnightblue" d="M380.18,-280.62C356.65,-274.26 332.62,-263.19 317,-244 265.31,-180.51 278.15,-73.05 286.05,-29.83"/>
<polygon fill="midnightblue" stroke="midnightblue" points="289.52,-30.35 288,-19.86 282.65,-29 289.52,-30.35"/>
</g>
<!-- Node21 -->
<g id="node21" class="node">
<title>Node21</title>
<g id="a_node21"><a xlink:href="sha256__hash_8h.html" target="_top" xlink:title=" ">
<polygon fill="white" stroke="black" points="326,-224.5 326,-243.5 466,-243.5 466,-224.5 326,-224.5"/>
<text text-anchor="middle" x="396" y="-231.5" font-family="Helvetica,sans-Serif" font-size="10.00">ccf/crypto/sha256_hash.h</text>
</a>
</g>
</g>
<!-- Node20&#45;&gt;Node21 -->
<g id="edge26" class="edge">
<title>Node20&#45;&gt;Node21</title>
<path fill="none" stroke="midnightblue" d="M443.84,-280.32C435.5,-272.42 422.97,-260.55 412.82,-250.94"/>
<polygon fill="midnightblue" stroke="midnightblue" points="414.99,-248.17 405.32,-243.83 410.18,-253.25 414.99,-248.17"/>
</g>
<!-- Node23 -->
<g id="node23" class="node">
<title>Node23</title>
<g id="a_node23"><a xlink:title=" ">
<polygon fill="white" stroke="#bfbfbf" points="484,-224.5 484,-243.5 534,-243.5 534,-224.5 484,-224.5"/>
<text text-anchor="middle" x="509" y="-231.5" font-family="Helvetica,sans-Serif" font-size="10.00">cstdint</text>
</a>
</g>
</g>
<!-- Node20&#45;&gt;Node23 -->
<g id="edge32" class="edge">
<title>Node20&#45;&gt;Node23</title>
<path fill="none" stroke="midnightblue" d="M462,-280.32C470.19,-272.42 482.51,-260.55 492.47,-250.94"/>
<polygon fill="midnightblue" stroke="midnightblue" points="495.07,-253.29 499.84,-243.83 490.21,-248.26 495.07,-253.29"/>
</g>
<!-- Node24 -->
<g id="node24" class="node">
<title>Node24</title>
<g id="a_node24"><a xlink:title=" ">
<polygon fill="white" stroke="#bfbfbf" points="552,-224.5 552,-243.5 612,-243.5 612,-224.5 552,-224.5"/>
<text text-anchor="middle" x="582" y="-231.5" font-family="Helvetica,sans-Serif" font-size="10.00">iostream</text>
</a>
</g>
</g>
<!-- Node20&#45;&gt;Node24 -->
<g id="edge33" class="edge">
<title>Node20&#45;&gt;Node24</title>
<path fill="none" stroke="midnightblue" d="M473.44,-280.44C494.67,-271.56 528.1,-257.56 552.25,-247.45"/>
<polygon fill="midnightblue" stroke="midnightblue" points="553.78,-250.61 561.66,-243.52 551.08,-244.15 553.78,-250.61"/>
</g>
<!-- Node21&#45;&gt;Node6 -->
<g id="edge27" class="edge">
<title>Node21&#45;&gt;Node6</title>
<path fill="none" stroke="midnightblue" d="M422.62,-224.44C451.01,-215.32 496.14,-200.81 527.75,-190.65"/>
<polygon fill="midnightblue" stroke="midnightblue" points="529.06,-193.91 537.5,-187.52 526.91,-187.24 529.06,-193.91"/>
</g>
<!-- Node21&#45;&gt;Node12 -->
<g id="edge28" class="edge">
<title>Node21&#45;&gt;Node12</title>
<path fill="none" stroke="midnightblue" d="M391.84,-224.3C376.15,-191.42 320.27,-74.39 298.64,-29.09"/>
<polygon fill="midnightblue" stroke="midnightblue" points="301.71,-27.4 294.24,-19.88 295.39,-30.42 301.71,-27.4"/>
</g>
<!-- Node21&#45;&gt;Node16 -->
<g id="edge30" class="edge">
<title>Node21&#45;&gt;Node16</title>
<path fill="none" stroke="midnightblue" d="M462.98,-224.47C516.73,-216.64 587.02,-203.85 611,-188 645.35,-165.29 631.55,-137.35 664,-112 684.24,-96.19 710.67,-85.42 733.39,-78.4"/>
<polygon fill="midnightblue" stroke="midnightblue" points="734.59,-81.69 743.2,-75.52 732.61,-74.98 734.59,-81.69"/>
</g>
<!-- Node22 -->
<g id="node22" class="node">
<title>Node22</title>
<g id="a_node22"><a xlink:title=" ">
<polygon fill="white" stroke="#bfbfbf" points="744,-168.5 744,-187.5 784,-187.5 784,-168.5 744,-168.5"/>
<text text-anchor="middle" x="764" y="-175.5" font-family="Helvetica,sans-Serif" font-size="10.00">span</text>
</a>
</g>
</g>
<!-- Node21&#45;&gt;Node22 -->
<g id="edge29" class="edge">
<title>Node21&#45;&gt;Node22</title>
<path fill="none" stroke="midnightblue" d="M454.31,-224.44C533.65,-212.8 672.73,-192.39 733.79,-183.43"/>
<polygon fill="midnightblue" stroke="midnightblue" points="734.54,-186.86 743.92,-181.95 733.52,-179.94 734.54,-186.86"/>
</g>
<!-- Node25&#45;&gt;Node16 -->
<g id="edge53" class="edge">
<title>Node25&#45;&gt;Node16</title>
<path fill="none" stroke="midnightblue" d="M1172.29,-287.99C1048.99,-285.21 765.22,-275.44 736,-244 713,-219.26 722.07,-199.21 735,-168 743.66,-147.09 760.62,-152.11 771,-132 778.46,-117.54 781.03,-99.09 781.84,-85.54"/>
<polygon fill="midnightblue" stroke="midnightblue" points="785.34,-85.62 782.17,-75.51 778.34,-85.39 785.34,-85.62"/>
</g>
<!-- Node26 -->
<g id="node26" class="node">
<title>Node26</title>
<g id="a_node26"><a xlink:href="pem_8h.html" target="_top" xlink:title=" ">
<polygon fill="white" stroke="black" points="745,-224.5 745,-243.5 843,-243.5 843,-224.5 745,-224.5"/>
<text text-anchor="middle" x="794" y="-231.5" font-family="Helvetica,sans-Serif" font-size="10.00">ccf/crypto/pem.h</text>
</a>
</g>
</g>
<!-- Node25&#45;&gt;Node26 -->
<g id="edge36" class="edge">
<title>Node25&#45;&gt;Node26</title>
<path fill="none" stroke="midnightblue" d="M1172.23,-282.52C1099.24,-274.09 968.58,-258.72 857,-244 855.74,-243.83 854.46,-243.66 853.17,-243.49"/>
<polygon fill="midnightblue" stroke="midnightblue" points="853.55,-240.01 843.17,-242.13 852.6,-246.95 853.55,-240.01"/>
</g>
<!-- Node29 -->
<g id="node29" class="node">
<title>Node29</title>
<g id="a_node29"><a xlink:title=" ">
<polygon fill="white" stroke="#bfbfbf" points="1200,-168.5 1200,-187.5 1258,-187.5 1258,-168.5 1200,-168.5"/>
<text text-anchor="middle" x="1229" y="-175.5" font-family="Helvetica,sans-Serif" font-size="10.00">memory</text>
</a>
</g>
</g>
<!-- Node25&#45;&gt;Node29 -->
<g id="edge54" class="edge">
<title>Node25&#45;&gt;Node29</title>
<path fill="none" stroke="midnightblue" d="M1229,-280.37C1229,-262.62 1229,-221.67 1229,-197.6"/>
<polygon fill="midnightblue" stroke="midnightblue" points="1232.5,-197.59 1229,-187.59 1225.5,-197.59 1232.5,-197.59"/>
</g>
<!-- Node30 -->
<g id="node30" class="node">
<title>Node30</title>
<g id="a_node30"><a xlink:title=" ">
<polygon fill="white" stroke="#bfbfbf" points="1556,-112.5 1556,-131.5 1606,-131.5 1606,-112.5 1556,-112.5"/>
<text text-anchor="middle" x="1581" y="-119.5" font-family="Helvetica,sans-Serif" font-size="10.00">chrono</text>
</a>
</g>
</g>
<!-- Node25&#45;&gt;Node30 -->
<g id="edge44" class="edge">
<title>Node25&#45;&gt;Node30</title>
<path fill="none" stroke="midnightblue" d="M1285.81,-280.48C1287.22,-280.31 1288.62,-280.15 1290,-280 1343.93,-274.04 1740.07,-283.76 1777,-244 1830.45,-186.45 1686.5,-145.98 1616.6,-130.26"/>
<polygon fill="midnightblue" stroke="midnightblue" points="1616.97,-126.76 1606.45,-128.04 1615.47,-133.6 1616.97,-126.76"/>
</g>
<!-- Node31 -->
<g id="node31" class="node">
<title>Node31</title>
<g id="a_node31"><a xlink:href="x509__time__fmt_8h.html" target="_top" xlink:title=" ">
<polygon fill="white" stroke="black" points="1068,-168.5 1068,-187.5 1182,-187.5 1182,-168.5 1068,-168.5"/>
<text text-anchor="middle" x="1125" y="-175.5" font-family="Helvetica,sans-Serif" font-size="10.00">ds/x509_time_fmt.h</text>
</a>
</g>
</g>
<!-- Node25&#45;&gt;Node31 -->
<g id="edge45" class="edge">
<title>Node25&#45;&gt;Node31</title>
<path fill="none" stroke="midnightblue" d="M1172.38,-285.5C1080.74,-279.27 908.29,-264.88 890,-244 884.14,-237.31 884.34,-230.85 890,-224 895.51,-217.33 993.49,-200.27 1061.17,-189.17"/>
<polygon fill="midnightblue" stroke="midnightblue" points="1062.03,-192.58 1071.34,-187.51 1060.9,-185.67 1062.03,-192.58"/>
</g>
<!-- Node35 -->
<g id="node35" class="node">
<title>Node35</title>
<g id="a_node35"><a xlink:title=" ">
<polygon fill="white" stroke="#bfbfbf" points="899.5,-224.5 899.5,-243.5 988.5,-243.5 988.5,-224.5 899.5,-224.5"/>
<text text-anchor="middle" x="944" y="-231.5" font-family="Helvetica,sans-Serif" font-size="10.00">openssl/asn1.h</text>
</a>
</g>
</g>
<!-- Node25&#45;&gt;Node35 -->
<g id="edge55" class="edge">
<title>Node25&#45;&gt;Node35</title>
<path fill="none" stroke="midnightblue" d="M1183.84,-280.44C1133.71,-270.94 1052.78,-255.61 998.99,-245.42"/>
<polygon fill="midnightblue" stroke="midnightblue" points="999.42,-241.94 988.95,-243.52 998.12,-248.82 999.42,-241.94"/>
</g>
<!-- Node36 -->
<g id="node36" class="node">
<title>Node36</title>
<g id="a_node36"><a xlink:title=" ">
<polygon fill="white" stroke="#bfbfbf" points="1006.5,-224.5 1006.5,-243.5 1083.5,-243.5 1083.5,-224.5 1006.5,-224.5"/>
<text text-anchor="middle" x="1045" y="-231.5" font-family="Helvetica,sans-Serif" font-size="10.00">openssl/ec.h</text>
</a>
</g>
</g>
<!-- Node25&#45;&gt;Node36 -->
<g id="edge56" class="edge">
<title>Node25&#45;&gt;Node36</title>
<path fill="none" stroke="midnightblue" d="M1199.84,-280.44C1168.49,-271.24 1118.47,-256.56 1083.8,-246.39"/>
<polygon fill="midnightblue" stroke="midnightblue" points="1084.6,-242.97 1074.02,-243.52 1082.63,-249.69 1084.6,-242.97"/>
</g>
<!-- Node37 -->
<g id="node37" class="node">
<title>Node37</title>
<g id="a_node37"><a xlink:title=" ">
<polygon fill="white" stroke="#bfbfbf" points="1101.5,-224.5 1101.5,-243.5 1200.5,-243.5 1200.5,-224.5 1101.5,-224.5"/>
<text text-anchor="middle" x="1151" y="-231.5" font-family="Helvetica,sans-Serif" font-size="10.00">openssl/engine.h</text>
</a>
</g>
</g>
<!-- Node25&#45;&gt;Node37 -->
<g id="edge57" class="edge">
<title>Node25&#45;&gt;Node37</title>
<path fill="none" stroke="midnightblue" d="M1216.47,-280.32C1204.41,-271.98 1185.97,-259.21 1171.73,-249.35"/>
<polygon fill="midnightblue" stroke="midnightblue" points="1173.72,-246.47 1163.5,-243.65 1169.73,-252.22 1173.72,-246.47"/>
</g>
<!-- Node38 -->
<g id="node38" class="node">
<title>Node38</title>
<g id="a_node38"><a xlink:title=" ">
<polygon fill="white" stroke="#bfbfbf" points="1257.5,-224.5 1257.5,-243.5 1336.5,-243.5 1336.5,-224.5 1257.5,-224.5"/>
<text text-anchor="middle" x="1297" y="-231.5" font-family="Helvetica,sans-Serif" font-size="10.00">openssl/err.h</text>
</a>
</g>
</g>
<!-- Node25&#45;&gt;Node38 -->
<g id="edge58" class="edge">
<title>Node25&#45;&gt;Node38</title>
<path fill="none" stroke="midnightblue" d="M1239.93,-280.32C1250.17,-272.18 1265.72,-259.84 1278,-250.09"/>
<polygon fill="midnightblue" stroke="midnightblue" points="1280.22,-252.79 1285.88,-243.83 1275.87,-247.31 1280.22,-252.79"/>
</g>
<!-- Node25&#45;&gt;Node39 -->
<g id="edge59" class="edge">
<title>Node25&#45;&gt;Node39</title>
<path fill="none" stroke="midnightblue" d="M1285.65,-286.16C1389.74,-280.6 1618.37,-266.78 1810,-244 1811.27,-243.85 1812.55,-243.69 1813.84,-243.53"/>
<polygon fill="midnightblue" stroke="midnightblue" points="1814.42,-246.98 1823.85,-242.15 1813.47,-240.04 1814.42,-246.98"/>
</g>
<!-- Node40 -->
<g id="node40" class="node">
<title>Node40</title>
<g id="a_node40"><a xlink:title=" ">
<polygon fill="white" stroke="#bfbfbf" points="1354,-224.5 1354,-243.5 1442,-243.5 1442,-224.5 1354,-224.5"/>
<text text-anchor="middle" x="1398" y="-231.5" font-family="Helvetica,sans-Serif" font-size="10.00">openssl/pem.h</text>
</a>
</g>
</g>
<!-- Node25&#45;&gt;Node40 -->
<g id="edge60" class="edge">
<title>Node25&#45;&gt;Node40</title>
<path fill="none" stroke="midnightblue" d="M1255.78,-280.44C1284.33,-271.32 1329.73,-256.81 1361.54,-246.65"/>
<polygon fill="midnightblue" stroke="midnightblue" points="1362.89,-249.89 1371.35,-243.52 1360.76,-243.23 1362.89,-249.89"/>
</g>
<!-- Node41 -->
<g id="node41" class="node">
<title>Node41</title>
<g id="a_node41"><a xlink:title=" ">
<polygon fill="white" stroke="#bfbfbf" points="1460,-224.5 1460,-243.5 1540,-243.5 1540,-224.5 1460,-224.5"/>
<text text-anchor="middle" x="1500" y="-231.5" font-family="Helvetica,sans-Serif" font-size="10.00">openssl/ssl.h</text>
</a>
</g>
</g>
<!-- Node25&#45;&gt;Node41 -->
<g id="edge61" class="edge">
<title>Node25&#45;&gt;Node41</title>
<path fill="none" stroke="midnightblue" d="M1271.94,-280.44C1320.35,-270.8 1398.96,-255.13 1450.07,-244.95"/>
<polygon fill="midnightblue" stroke="midnightblue" points="1450.79,-248.38 1459.91,-242.99 1449.42,-241.51 1450.79,-248.38"/>
</g>
<!-- Node42 -->
<g id="node42" class="node">
<title>Node42</title>
<g id="a_node42"><a xlink:title=" ">
<polygon fill="white" stroke="#bfbfbf" points="1558,-224.5 1558,-243.5 1648,-243.5 1648,-224.5 1558,-224.5"/>
<text text-anchor="middle" x="1603" y="-231.5" font-family="Helvetica,sans-Serif" font-size="10.00">openssl/x509.h</text>
</a>
</g>
</g>
<!-- Node25&#45;&gt;Node42 -->
<g id="edge62" class="edge">
<title>Node25&#45;&gt;Node42</title>
<path fill="none" stroke="midnightblue" d="M1285.71,-281.47C1347.6,-273.15 1449.88,-259.11 1547.85,-244.14"/>
<polygon fill="midnightblue" stroke="midnightblue" points="1548.58,-247.57 1557.93,-242.6 1547.52,-240.66 1548.58,-247.57"/>
</g>
<!-- Node43 -->
<g id="node43" class="node">
<title>Node43</title>
<g id="a_node43"><a xlink:title=" ">
<polygon fill="white" stroke="#bfbfbf" points="1666,-224.5 1666,-243.5 1768,-243.5 1768,-224.5 1666,-224.5"/>
<text text-anchor="middle" x="1717" y="-231.5" font-family="Helvetica,sans-Serif" font-size="10.00">openssl/x509v3.h</text>
</a>
</g>
</g>
<!-- Node25&#45;&gt;Node43 -->
<g id="edge63" class="edge">
<title>Node25&#45;&gt;Node43</title>
<path fill="none" stroke="midnightblue" d="M1285.52,-283.86C1365.58,-276.4 1516.85,-261.65 1655.96,-244.08"/>
<polygon fill="midnightblue" stroke="midnightblue" points="1656.48,-247.55 1665.96,-242.81 1655.6,-240.6 1656.48,-247.55"/>
</g>
<!-- Node26&#45;&gt;Node4 -->
<g id="edge43" class="edge">
<title>Node26&#45;&gt;Node4</title>
<path fill="none" stroke="midnightblue" d="M843.09,-226.6C906.4,-217.85 1009.77,-201.68 1021,-188 1073.3,-124.32 947.71,-52.73 889.11,-23.97"/>
<polygon fill="midnightblue" stroke="midnightblue" points="890.52,-20.77 879.99,-19.58 887.48,-27.07 890.52,-20.77"/>
</g>
<!-- Node26&#45;&gt;Node6 -->
<g id="edge37" class="edge">
<title>Node26&#45;&gt;Node6</title>
<path fill="none" stroke="midnightblue" d="M757.56,-224.44C717.6,-215.06 653.41,-199.99 610.02,-189.8"/>
<polygon fill="midnightblue" stroke="midnightblue" points="610.81,-186.39 600.27,-187.52 609.21,-193.21 610.81,-186.39"/>
</g>
<!-- Node26&#45;&gt;Node14 -->
<g id="edge42" class="edge">
<title>Node26&#45;&gt;Node14</title>
<path fill="none" stroke="midnightblue" d="M799.7,-224.26C816.45,-197.34 862.41,-114.05 830,-56 821.84,-41.39 806.78,-30.94 792.45,-23.8"/>
<polygon fill="midnightblue" stroke="midnightblue" points="793.76,-20.56 783.21,-19.59 790.85,-26.92 793.76,-20.56"/>
</g>
<!-- Node26&#45;&gt;Node22 -->
<g id="edge41" class="edge">
<title>Node26&#45;&gt;Node22</title>
<path fill="none" stroke="midnightblue" d="M789.05,-224.08C784.9,-216.61 778.85,-205.72 773.73,-196.52"/>
<polygon fill="midnightblue" stroke="midnightblue" points="776.78,-194.79 768.86,-187.75 770.66,-198.19 776.78,-194.79"/>
</g>
<!-- Node27 -->
<g id="node27" class="node">
<title>Node27</title>
<g id="a_node27"><a xlink:title=" ">
<polygon fill="white" stroke="#bfbfbf" points="962,-168.5 962,-187.5 1012,-187.5 1012,-168.5 962,-168.5"/>
<text text-anchor="middle" x="987" y="-175.5" font-family="Helvetica,sans-Serif" font-size="10.00">cstring</text>
</a>
</g>
</g>
<!-- Node26&#45;&gt;Node27 -->
<g id="edge38" class="edge">
<title>Node26&#45;&gt;Node27</title>
<path fill="none" stroke="midnightblue" d="M824.58,-224.44C859.27,-214.74 915.71,-198.95 952.1,-188.77"/>
<polygon fill="midnightblue" stroke="midnightblue" points="953.1,-192.12 961.79,-186.05 951.22,-185.38 953.1,-192.12"/>
</g>
<!-- Node28 -->
<g id="node28" class="node">
<title>Node28</title>
<g id="a_node28"><a xlink:title=" ">
<polygon fill="white" stroke="#bfbfbf" points="878.5,-168.5 878.5,-187.5 943.5,-187.5 943.5,-168.5 878.5,-168.5"/>
<text text-anchor="middle" x="911" y="-175.5" font-family="Helvetica,sans-Serif" font-size="10.00">exception</text>
</a>
</g>
</g>
<!-- Node26&#45;&gt;Node28 -->
<g id="edge39" class="edge">
<title>Node26&#45;&gt;Node28</title>
<path fill="none" stroke="midnightblue" d="M812.54,-224.44C831.62,-215.64 861.57,-201.81 883.44,-191.72"/>
<polygon fill="midnightblue" stroke="midnightblue" points="884.93,-194.88 892.55,-187.52 882,-188.53 884.93,-194.88"/>
</g>
<!-- Node26&#45;&gt;Node29 -->
<g id="edge40" class="edge">
<title>Node26&#45;&gt;Node29</title>
<path fill="none" stroke="midnightblue" d="M843.02,-228.19C929.99,-219.53 1108.97,-201.14 1189.39,-188.06"/>
<polygon fill="midnightblue" stroke="midnightblue" points="1190.34,-191.45 1199.61,-186.33 1189.17,-184.54 1190.34,-191.45"/>
</g>
<!-- Node31&#45;&gt;Node4 -->
<g id="edge52" class="edge">
<title>Node31&#45;&gt;Node4</title>
<path fill="none" stroke="midnightblue" d="M1118.59,-168.19C1112.15,-159.23 1102.05,-144.87 1094,-132 1073.42,-99.1 1082.03,-79.31 1051,-56 1004.72,-21.24 935.66,-12.83 894.79,-11.08"/>
<polygon fill="midnightblue" stroke="midnightblue" points="894.65,-7.58 884.54,-10.76 894.43,-14.57 894.65,-7.58"/>
</g>
<!-- Node31&#45;&gt;Node16 -->
<g id="edge48" class="edge">
<title>Node31&#45;&gt;Node16</title>
<path fill="none" stroke="midnightblue" d="M1098.37,-168.46C1037.46,-148.93 887.9,-100.96 818.49,-78.7"/>
<polygon fill="midnightblue" stroke="midnightblue" points="819.44,-75.33 808.85,-75.61 817.3,-82 819.44,-75.33"/>
</g>
<!-- Node31&#45;&gt;Node18 -->
<g id="edge50" class="edge">
<title>Node31&#45;&gt;Node18</title>
<path fill="none" stroke="midnightblue" d="M1067.73,-169.09C986.82,-157.92 841.25,-137.81 772.26,-128.28"/>
<polygon fill="midnightblue" stroke="midnightblue" points="772.65,-124.8 762.26,-126.9 771.69,-131.74 772.65,-124.8"/>
</g>
<!-- Node31&#45;&gt;Node30 -->
<g id="edge46" class="edge">
<title>Node31&#45;&gt;Node30</title>
<path fill="none" stroke="midnightblue" d="M1182.23,-169.12C1185.19,-168.74 1188.13,-168.36 1191,-168 1321.63,-151.56 1477.17,-134.31 1545.66,-126.83"/>
<polygon fill="midnightblue" stroke="midnightblue" points="1546.32,-130.28 1555.88,-125.72 1545.56,-123.32 1546.32,-130.28"/>
</g>
<!-- Node32 -->
<g id="node32" class="node">
<title>Node32</title>
<g id="a_node32"><a xlink:title=" ">
<polygon fill="white" stroke="#bfbfbf" points="1169.5,-112.5 1169.5,-131.5 1248.5,-131.5 1248.5,-112.5 1169.5,-112.5"/>
<text text-anchor="middle" x="1209" y="-119.5" font-family="Helvetica,sans-Serif" font-size="10.00">fmt/chrono.h</text>
</a>
</g>
</g>
<!-- Node31&#45;&gt;Node32 -->
<g id="edge47" class="edge">
<title>Node31&#45;&gt;Node32</title>
<path fill="none" stroke="midnightblue" d="M1138.5,-168.32C1151.6,-159.9 1171.71,-146.97 1187.11,-137.07"/>
<polygon fill="midnightblue" stroke="midnightblue" points="1189.02,-140.01 1195.54,-131.65 1185.23,-134.12 1189.02,-140.01"/>
</g>
<!-- Node33 -->
<g id="node33" class="node">
<title>Node33</title>
<g id="a_node33"><a xlink:title=" ">
<polygon fill="white" stroke="#bfbfbf" points="1266,-112.5 1266,-131.5 1322,-131.5 1322,-112.5 1266,-112.5"/>
<text text-anchor="middle" x="1294" y="-119.5" font-family="Helvetica,sans-Serif" font-size="10.00">iomanip</text>
</a>
</g>
</g>
<!-- Node31&#45;&gt;Node33 -->
<g id="edge49" class="edge">
<title>Node31&#45;&gt;Node33</title>
<path fill="none" stroke="midnightblue" d="M1151.78,-168.44C1180.33,-159.32 1225.73,-144.81 1257.54,-134.65"/>
<polygon fill="midnightblue" stroke="midnightblue" points="1258.89,-137.89 1267.35,-131.52 1256.76,-131.23 1258.89,-137.89"/>
</g>
<!-- Node34 -->
<g id="node34" class="node">
<title>Node34</title>
<g id="a_node34"><a xlink:title=" ">
<polygon fill="white" stroke="#bfbfbf" points="1103,-112.5 1103,-131.5 1151,-131.5 1151,-112.5 1103,-112.5"/>
<text text-anchor="middle" x="1127" y="-119.5" font-family="Helvetica,sans-Serif" font-size="10.00">time.h</text>
</a>
</g>
</g>
<!-- Node31&#45;&gt;Node34 -->
<g id="edge51" class="edge">
<title>Node31&#45;&gt;Node34</title>
<path fill="none" stroke="midnightblue" d="M1125.33,-168.08C1125.59,-161.01 1125.97,-150.86 1126.3,-141.99"/>
<polygon fill="midnightblue" stroke="midnightblue" points="1129.8,-141.87 1126.68,-131.75 1122.81,-141.61 1129.8,-141.87"/>
</g>
</g>
</svg>
        <g id="navigator" transform="translate(0 0)" fill="#404254">
                <rect fill="#f2f5e9" fill-opacity="0.5" stroke="#606060" stroke-width=".5" x="0" y="0" width="60" height="60"/>
                <use id="zoomplus" xlink:href="#zoomPlus" x="17" y="9" onmousedown="handleZoom(evt,'in')"/>
                <use id="zoomminus" xlink:href="#zoomMin" x="42" y="9" onmousedown="handleZoom(evt,'out')"/>
                <use id="reset" xlink:href="#resetDef" x="30" y="36" onmousedown="handleReset()"/>
                <g id="arrowUp" xlink:href="#dirArrow" transform="translate(30 24)" onmousedown="handlePan(0,-1)">
                  <use xlink:href="#rim" fill="#404040">
                        <set attributeName="fill" to="#808080" begin="arrowUp.mouseover" end="arrowUp.mouseout"/>
                  </use>
                  <path fill="none" stroke="white" stroke-width="1.5" d="M0,-3.0v7 M-2.5,-0.5L0,-3.0L2.5,-0.5"/>
                </g>
                <g id="arrowRight" xlink:href="#dirArrow" transform="rotate(90) translate(36 -43)" onmousedown="handlePan(1,0)">
                  <use xlink:href="#rim" fill="#404040">
                        <set attributeName="fill" to="#808080" begin="arrowRight.mouseover" end="arrowRight.mouseout"/>
                  </use>
                  <path fill="none" stroke="white" stroke-width="1.5" d="M0,-3.0v7 M-2.5,-0.5L0,-3.0L2.5,-0.5"/>
                </g>
                <g id="arrowDown" xlink:href="#dirArrow" transform="rotate(180) translate(-30 -48)" onmousedown="handlePan(0,1)">
                  <use xlink:href="#rim" fill="#404040">
                        <set attributeName="fill" to="#808080" begin="arrowDown.mouseover" end="arrowDown.mouseout"/>
                  </use>
                  <path fill="none" stroke="white" stroke-width="1.5" d="M0,-3.0v7 M-2.5,-0.5L0,-3.0L2.5,-0.5"/>
                </g>
                <g id="arrowLeft" xlink:href="#dirArrow" transform="rotate(270) translate(-36 17)" onmousedown="handlePan(-1,0)">
                  <use xlink:href="#rim" fill="#404040">
                        <set attributeName="fill" to="#808080" begin="arrowLeft.mouseover" end="arrowLeft.mouseout"/>
                  </use>
                  <path fill="none" stroke="white" stroke-width="1.5" d="M0,-3.0v7 M-2.5,-0.5L0,-3.0L2.5,-0.5"/>
                </g>
        </g>
        <svg viewBox="0 0 15 15" width="100%" height="30px" preserveAspectRatio="xMaxYMin meet">
         <g id="arrow_out" transform="scale(0.3 0.3)">
          <a xlink:href="hmac_8cpp__incl_org.svg" target="_base">
           <rect id="button" ry="5" rx="5" y="6" x="6" height="38" width="38"
                fill="#f2f5e9" fill-opacity="0.5" stroke="#606060" stroke-width="1.0"/>
           <path id="arrow"
             d="M 11.500037,31.436501 C 11.940474,20.09759 22.043105,11.32322 32.158766,21.979434 L 37.068811,17.246167 C 37.068811,17.246167 37.088388,32 37.088388,32 L 22.160133,31.978069 C 22.160133,31.978069 26.997745,27.140456 26.997745,27.140456 C 18.528582,18.264221 13.291696,25.230495 11.500037,31.436501 z"
             style="fill:#404040;"/>
          </a>
         </g>
        </svg>
</svg>
