<?xml version="1.0" encoding="UTF-8" standalone="no"?>
<!DOCTYPE svg PUBLIC "-//W3C//DTD SVG 1.1//EN"
 "http://www.w3.org/Graphics/SVG/1.1/DTD/svg11.dtd">
<!-- Generated by graphviz version 2.43.0 (0)
 -->
<!-- Title: include/ccf/node/host_processes_interface.h Pages: 1 -->
<svg width="1081pt" height="341pt"
 viewBox="0.00 0.00 1080.56 341.00" xmlns="http://www.w3.org/2000/svg" xmlns:xlink="http://www.w3.org/1999/xlink">
<g id="graph0" class="graph" transform="scale(1 1) rotate(0) translate(4 337)">
<title>include/ccf/node/host_processes_interface.h</title>
<polygon fill="white" stroke="transparent" points="-4,4 -4,-337 1076.56,-337 1076.56,4 -4,4"/>
<!-- Node1 -->
<g id="node1" class="node">
<title>Node1</title>
<g id="a_node1"><a xlink:title=" ">
<polygon fill="#bfbfbf" stroke="black" points="381,-302.5 381,-332.5 509,-332.5 509,-302.5 381,-302.5"/>
<text text-anchor="start" x="389" y="-320.5" font-family="Helvetica,sans-Serif" font-size="10.00">include/ccf/node/host</text>
<text text-anchor="middle" x="445" y="-309.5" font-family="Helvetica,sans-Serif" font-size="10.00">_processes_interface.h</text>
</a>
</g>
</g>
<!-- Node2 -->
<g id="node2" class="node">
<title>Node2</title>
<g id="a_node2"><a xlink:href="js__generic__base_8cpp.html" target="_top" xlink:title=" ">
<polygon fill="white" stroke="black" points="0,-179.5 0,-209.5 118,-209.5 118,-179.5 0,-179.5"/>
<text text-anchor="start" x="8" y="-197.5" font-family="Helvetica,sans-Serif" font-size="10.00">src/apps/js_generic</text>
<text text-anchor="middle" x="59" y="-186.5" font-family="Helvetica,sans-Serif" font-size="10.00">/js_generic_base.cpp</text>
</a>
</g>
</g>
<!-- Node1&#45;&gt;Node2 -->
<g id="edge1" class="edge">
<title>Node1&#45;&gt;Node2</title>
<path fill="none" stroke="midnightblue" d="M389.98,-299.25C313.03,-275.13 174.75,-231.78 103.75,-209.53"/>
<polygon fill="midnightblue" stroke="midnightblue" points="389.38,-302.73 399.97,-302.38 391.47,-296.05 389.38,-302.73"/>
</g>
<!-- Node3 -->
<g id="node3" class="node">
<title>Node3</title>
<g id="a_node3"><a xlink:href="wrap_8h.html" target="_top" xlink:title=" ">
<polygon fill="white" stroke="black" points="406,-246.5 406,-265.5 484,-265.5 484,-246.5 406,-246.5"/>
<text text-anchor="middle" x="445" y="-253.5" font-family="Helvetica,sans-Serif" font-size="10.00">src/js/wrap.h</text>
</a>
</g>
</g>
<!-- Node1&#45;&gt;Node3 -->
<g id="edge2" class="edge">
<title>Node1&#45;&gt;Node3</title>
<path fill="none" stroke="midnightblue" d="M445,-292.29C445,-282.86 445,-272.65 445,-265.66"/>
<polygon fill="midnightblue" stroke="midnightblue" points="441.5,-292.4 445,-302.4 448.5,-292.4 441.5,-292.4"/>
</g>
<!-- Node15 -->
<g id="node15" class="node">
<title>Node15</title>
<g id="a_node15"><a xlink:href="host__processes_8h.html" target="_top" xlink:title=" ">
<polygon fill="white" stroke="black" points="777.5,-246.5 777.5,-265.5 940.5,-265.5 940.5,-246.5 777.5,-246.5"/>
<text text-anchor="middle" x="859" y="-253.5" font-family="Helvetica,sans-Serif" font-size="10.00">src/node/rpc/host_processes.h</text>
</a>
</g>
</g>
<!-- Node1&#45;&gt;Node15 -->
<g id="edge22" class="edge">
<title>Node1&#45;&gt;Node15</title>
<path fill="none" stroke="midnightblue" d="M519.27,-305.83C599.51,-294.29 725.76,-276.15 799.65,-265.53"/>
<polygon fill="midnightblue" stroke="midnightblue" points="518.63,-302.38 509.23,-307.27 519.63,-309.31 518.63,-302.38"/>
</g>
<!-- Node3&#45;&gt;Node2 -->
<g id="edge3" class="edge">
<title>Node3&#45;&gt;Node2</title>
<path fill="none" stroke="midnightblue" d="M395.62,-248.73C333.83,-240.69 224.84,-225.88 132,-210 127.54,-209.24 122.94,-208.41 118.31,-207.56"/>
<polygon fill="midnightblue" stroke="midnightblue" points="395.49,-252.24 405.86,-250.05 396.39,-245.3 395.49,-252.24"/>
</g>
<!-- Node4 -->
<g id="node4" class="node">
<title>Node4</title>
<g id="a_node4"><a xlink:href="enclave_2enclave_8h.html" target="_top" xlink:title=" ">
<polygon fill="white" stroke="black" points="781,-56.5 781,-75.5 903,-75.5 903,-56.5 781,-56.5"/>
<text text-anchor="middle" x="842" y="-63.5" font-family="Helvetica,sans-Serif" font-size="10.00">src/enclave/enclave.h</text>
</a>
</g>
</g>
<!-- Node3&#45;&gt;Node4 -->
<g id="edge4" class="edge">
<title>Node3&#45;&gt;Node4</title>
<path fill="none" stroke="midnightblue" d="M395.68,-254.44C323.39,-252.46 194.07,-244.11 165,-210 156.06,-199.51 157.22,-190.37 165,-179 234,-78.07 627.54,-66.99 780.87,-66.56"/>
<polygon fill="midnightblue" stroke="midnightblue" points="395.83,-257.95 405.91,-254.69 396,-250.95 395.83,-257.95"/>
</g>
<!-- Node6 -->
<g id="node6" class="node">
<title>Node6</title>
<g id="a_node6"><a xlink:href="js_2consensus_8cpp.html" target="_top" xlink:title=" ">
<polygon fill="white" stroke="black" points="174,-185 174,-204 290,-204 290,-185 174,-185"/>
<text text-anchor="middle" x="232" y="-192" font-family="Helvetica,sans-Serif" font-size="10.00">src/js/consensus.cpp</text>
</a>
</g>
</g>
<!-- Node3&#45;&gt;Node6 -->
<g id="edge6" class="edge">
<title>Node3&#45;&gt;Node6</title>
<path fill="none" stroke="midnightblue" d="M404.72,-243.75C363.34,-232.19 299.84,-214.45 262.46,-204.01"/>
<polygon fill="midnightblue" stroke="midnightblue" points="403.91,-247.16 414.48,-246.48 405.79,-240.41 403.91,-247.16"/>
</g>
<!-- Node7 -->
<g id="node7" class="node">
<title>Node7</title>
<g id="a_node7"><a xlink:href="wrap_8cpp.html" target="_top" xlink:title=" ">
<polygon fill="white" stroke="black" points="345.5,-118 345.5,-137 434.5,-137 434.5,-118 345.5,-118"/>
<text text-anchor="middle" x="390" y="-125" font-family="Helvetica,sans-Serif" font-size="10.00">src/js/wrap.cpp</text>
</a>
</g>
</g>
<!-- Node3&#45;&gt;Node7 -->
<g id="edge15" class="edge">
<title>Node3&#45;&gt;Node7</title>
<path fill="none" stroke="midnightblue" d="M396,-247.18C374.08,-240.97 350.24,-229.86 337,-210 319.4,-183.6 356.23,-152.02 377.04,-137.11"/>
<polygon fill="midnightblue" stroke="midnightblue" points="395.33,-250.62 405.89,-249.7 397.06,-243.84 395.33,-250.62"/>
</g>
<!-- Node8 -->
<g id="node8" class="node">
<title>Node8</title>
<g id="a_node8"><a xlink:href="conv_8cpp.html" target="_top" xlink:title=" ">
<polygon fill="white" stroke="black" points="346,-185 346,-204 434,-204 434,-185 346,-185"/>
<text text-anchor="middle" x="390" y="-192" font-family="Helvetica,sans-Serif" font-size="10.00">src/js/conv.cpp</text>
</a>
</g>
</g>
<!-- Node3&#45;&gt;Node8 -->
<g id="edge8" class="edge">
<title>Node3&#45;&gt;Node8</title>
<path fill="none" stroke="midnightblue" d="M430.21,-239C419.8,-227.74 406.27,-213.1 397.87,-204.01"/>
<polygon fill="midnightblue" stroke="midnightblue" points="427.76,-241.51 437.12,-246.48 432.9,-236.76 427.76,-241.51"/>
</g>
<!-- Node9 -->
<g id="node9" class="node">
<title>Node9</title>
<g id="a_node9"><a xlink:href="js_2crypto_8cpp.html" target="_top" xlink:title=" ">
<polygon fill="white" stroke="black" points="452,-185 452,-204 548,-204 548,-185 452,-185"/>
<text text-anchor="middle" x="500" y="-192" font-family="Helvetica,sans-Serif" font-size="10.00">src/js/crypto.cpp</text>
</a>
</g>
</g>
<!-- Node3&#45;&gt;Node9 -->
<g id="edge10" class="edge">
<title>Node3&#45;&gt;Node9</title>
<path fill="none" stroke="midnightblue" d="M459.79,-239C470.2,-227.74 483.73,-213.1 492.13,-204.01"/>
<polygon fill="midnightblue" stroke="midnightblue" points="457.1,-236.76 452.88,-246.48 462.24,-241.51 457.1,-236.76"/>
</g>
<!-- Node10 -->
<g id="node10" class="node">
<title>Node10</title>
<g id="a_node10"><a xlink:href="js_2historical_8cpp.html" target="_top" xlink:title=" ">
<polygon fill="white" stroke="black" points="566,-185 566,-204 676,-204 676,-185 566,-185"/>
<text text-anchor="middle" x="621" y="-192" font-family="Helvetica,sans-Serif" font-size="10.00">src/js/historical.cpp</text>
</a>
</g>
</g>
<!-- Node3&#45;&gt;Node10 -->
<g id="edge12" class="edge">
<title>Node3&#45;&gt;Node10</title>
<path fill="none" stroke="midnightblue" d="M479.81,-243.23C514.02,-231.67 565.4,-214.3 595.83,-204.01"/>
<polygon fill="midnightblue" stroke="midnightblue" points="478.57,-239.96 470.22,-246.48 480.81,-246.59 478.57,-239.96"/>
</g>
<!-- Node11 -->
<g id="node11" class="node">
<title>Node11</title>
<g id="a_node11"><a xlink:href="openenclave_8cpp.html" target="_top" xlink:title=" ">
<polygon fill="white" stroke="black" points="694,-185 694,-204 822,-204 822,-185 694,-185"/>
<text text-anchor="middle" x="758" y="-192" font-family="Helvetica,sans-Serif" font-size="10.00">src/js/openenclave.cpp</text>
</a>
</g>
</g>
<!-- Node3&#45;&gt;Node11 -->
<g id="edge14" class="edge">
<title>Node3&#45;&gt;Node11</title>
<path fill="none" stroke="midnightblue" d="M494.02,-245.97C542.54,-236.99 618.94,-222.75 685,-210 694.9,-208.09 705.54,-206 715.55,-204.01"/>
<polygon fill="midnightblue" stroke="midnightblue" points="493.3,-242.54 484.1,-247.8 494.57,-249.43 493.3,-242.54"/>
</g>
<!-- Node12 -->
<g id="node12" class="node">
<title>Node12</title>
<g id="a_node12"><a xlink:href="node__state_8h.html" target="_top" xlink:title=" ">
<polygon fill="white" stroke="black" points="840,-185 840,-204 964,-204 964,-185 840,-185"/>
<text text-anchor="middle" x="902" y="-192" font-family="Helvetica,sans-Serif" font-size="10.00">src/node/node_state.h</text>
</a>
</g>
</g>
<!-- Node3&#45;&gt;Node12 -->
<g id="edge16" class="edge">
<title>Node3&#45;&gt;Node12</title>
<path fill="none" stroke="midnightblue" d="M494.4,-250.6C567.99,-243.75 710.67,-229.26 831,-210 841.56,-208.31 852.93,-206.14 863.42,-204"/>
<polygon fill="midnightblue" stroke="midnightblue" points="493.69,-247.15 484.05,-251.56 494.33,-254.12 493.69,-247.15"/>
</g>
<!-- Node14 -->
<g id="node14" class="node">
<title>Node14</title>
<g id="a_node14"><a xlink:href="member__frontend_8h.html" target="_top" xlink:title=" ">
<polygon fill="white" stroke="black" points="932,-112.5 932,-142.5 1052,-142.5 1052,-112.5 932,-112.5"/>
<text text-anchor="start" x="940" y="-130.5" font-family="Helvetica,sans-Serif" font-size="10.00">src/node/rpc/member</text>
<text text-anchor="middle" x="992" y="-119.5" font-family="Helvetica,sans-Serif" font-size="10.00">_frontend.h</text>
</a>
</g>
</g>
<!-- Node3&#45;&gt;Node14 -->
<g id="edge20" class="edge">
<title>Node3&#45;&gt;Node14</title>
<path fill="none" stroke="midnightblue" d="M494.41,-254.05C618.75,-251.2 937.27,-240.93 973,-210 992.34,-193.27 994.06,-161.02 993.26,-142.5"/>
<polygon fill="midnightblue" stroke="midnightblue" points="494.31,-250.55 484.39,-254.27 494.47,-257.55 494.31,-250.55"/>
</g>
<!-- Node5 -->
<g id="node5" class="node">
<title>Node5</title>
<g id="a_node5"><a xlink:href="enclave_2main_8cpp.html" target="_top" xlink:title=" ">
<polygon fill="white" stroke="black" points="782,-0.5 782,-19.5 902,-19.5 902,-0.5 782,-0.5"/>
<text text-anchor="middle" x="842" y="-7.5" font-family="Helvetica,sans-Serif" font-size="10.00">src/enclave/main.cpp</text>
</a>
</g>
</g>
<!-- Node4&#45;&gt;Node5 -->
<g id="edge5" class="edge">
<title>Node4&#45;&gt;Node5</title>
<path fill="none" stroke="midnightblue" d="M842,-45.8C842,-36.91 842,-26.78 842,-19.75"/>
<polygon fill="midnightblue" stroke="midnightblue" points="838.5,-46.08 842,-56.08 845.5,-46.08 838.5,-46.08"/>
</g>
<!-- Node6&#45;&gt;Node7 -->
<g id="edge7" class="edge">
<title>Node6&#45;&gt;Node7</title>
<path fill="none" stroke="midnightblue" d="M262.51,-180.95C293.79,-168.08 341.62,-148.4 368.93,-137.17"/>
<polygon fill="midnightblue" stroke="midnightblue" points="260.9,-177.83 252.98,-184.87 263.56,-184.3 260.9,-177.83"/>
</g>
<!-- Node8&#45;&gt;Node7 -->
<g id="edge9" class="edge">
<title>Node8&#45;&gt;Node7</title>
<path fill="none" stroke="midnightblue" d="M390,-174.54C390,-162.17 390,-146.62 390,-137.13"/>
<polygon fill="midnightblue" stroke="midnightblue" points="386.5,-174.73 390,-184.73 393.5,-174.73 386.5,-174.73"/>
</g>
<!-- Node9&#45;&gt;Node7 -->
<g id="edge11" class="edge">
<title>Node9&#45;&gt;Node7</title>
<path fill="none" stroke="midnightblue" d="M476.5,-179.62C454.71,-166.74 422.96,-147.98 404.6,-137.13"/>
<polygon fill="midnightblue" stroke="midnightblue" points="474.78,-182.66 485.16,-184.73 478.34,-176.63 474.78,-182.66"/>
</g>
<!-- Node10&#45;&gt;Node7 -->
<g id="edge13" class="edge">
<title>Node10&#45;&gt;Node7</title>
<path fill="none" stroke="midnightblue" d="M580.45,-182.09C534.76,-169.23 461.5,-148.62 420.43,-137.06"/>
<polygon fill="midnightblue" stroke="midnightblue" points="579.75,-185.53 590.32,-184.87 581.65,-178.79 579.75,-185.53"/>
</g>
<!-- Node12&#45;&gt;Node4 -->
<g id="edge17" class="edge">
<title>Node12&#45;&gt;Node4</title>
<path fill="none" stroke="midnightblue" d="M853.52,-182.45C817.24,-173.08 772.05,-158.69 761,-143 753.07,-131.73 754.01,-123.87 761,-112 771.77,-93.7 792.97,-82.31 810.98,-75.56"/>
<polygon fill="midnightblue" stroke="midnightblue" points="852.93,-185.91 863.49,-184.95 854.64,-179.12 852.93,-185.91"/>
</g>
<!-- Node13 -->
<g id="node13" class="node">
<title>Node13</title>
<g id="a_node13"><a xlink:href="gov__effects_8h.html" target="_top" xlink:title=" ">
<polygon fill="white" stroke="black" points="770,-118 770,-137 914,-137 914,-118 770,-118"/>
<text text-anchor="middle" x="842" y="-125" font-family="Helvetica,sans-Serif" font-size="10.00">src/node/rpc/gov_effects.h</text>
</a>
</g>
</g>
<!-- Node12&#45;&gt;Node13 -->
<g id="edge18" class="edge">
<title>Node12&#45;&gt;Node13</title>
<path fill="none" stroke="midnightblue" d="M886.89,-177.13C875.16,-164.42 859.35,-147.3 849.96,-137.13"/>
<polygon fill="midnightblue" stroke="midnightblue" points="884.55,-179.76 893.91,-184.73 889.7,-175.01 884.55,-179.76"/>
</g>
<!-- Node13&#45;&gt;Node4 -->
<g id="edge19" class="edge">
<title>Node13&#45;&gt;Node4</title>
<path fill="none" stroke="midnightblue" d="M842,-107.82C842,-97 842,-83.9 842,-75.51"/>
<polygon fill="midnightblue" stroke="midnightblue" points="838.5,-107.98 842,-117.98 845.5,-107.98 838.5,-107.98"/>
</g>
<!-- Node14&#45;&gt;Node4 -->
<g id="edge21" class="edge">
<title>Node14&#45;&gt;Node4</title>
<path fill="none" stroke="midnightblue" d="M947.02,-108.66C919.51,-97.75 885.54,-84.27 863.83,-75.66"/>
<polygon fill="midnightblue" stroke="midnightblue" points="945.87,-111.97 956.45,-112.4 948.45,-105.46 945.87,-111.97"/>
</g>
<!-- Node15&#45;&gt;Node4 -->
<g id="edge23" class="edge">
<title>Node15&#45;&gt;Node4</title>
<path fill="none" stroke="midnightblue" d="M903.69,-243.71C977.61,-222.94 1112.35,-174.97 1061,-112 1041.38,-87.93 960.74,-76.37 903.01,-71.09"/>
<polygon fill="midnightblue" stroke="midnightblue" points="902.4,-240.43 893.69,-246.46 904.26,-247.18 902.4,-240.43"/>
</g>
</g>
</svg>
