<?xml version="1.0" encoding="UTF-8" standalone="no"?>
<!DOCTYPE svg PUBLIC "-//W3C//DTD SVG 1.1//EN"
 "http://www.w3.org/Graphics/SVG/1.1/DTD/svg11.dtd">
<!-- Generated by graphviz version 2.43.0 (0)
 -->
<!-- Title: src/http/http_builder.h Pages: 1 -->
<svg width="1057pt" height="140pt"
 viewBox="0.00 0.00 1057.00 140.00" xmlns="http://www.w3.org/2000/svg" xmlns:xlink="http://www.w3.org/1999/xlink">
<g id="graph0" class="graph" transform="scale(1 1) rotate(0) translate(4 136)">
<title>src/http/http_builder.h</title>
<polygon fill="white" stroke="transparent" points="-4,4 -4,-136 1053,-136 1053,4 -4,4"/>
<!-- Node1 -->
<g id="node1" class="node">
<title>Node1</title>
<g id="a_node1"><a xlink:title=" ">
<polygon fill="#bfbfbf" stroke="black" points="609.5,-112.5 609.5,-131.5 732.5,-131.5 732.5,-112.5 609.5,-112.5"/>
<text text-anchor="middle" x="671" y="-119.5" font-family="Helvetica,sans-Serif" font-size="10.00">src/http/http_builder.h</text>
</a>
</g>
</g>
<!-- Node2 -->
<g id="node2" class="node">
<title>Node2</title>
<g id="a_node2"><a xlink:href="nonstd_8h.html" target="_top" xlink:title=" ">
<polygon fill="white" stroke="black" points="237,-56.5 237,-75.5 327,-75.5 327,-56.5 237,-56.5"/>
<text text-anchor="middle" x="282" y="-63.5" font-family="Helvetica,sans-Serif" font-size="10.00">ccf/ds/nonstd.h</text>
</a>
</g>
</g>
<!-- Node1&#45;&gt;Node2 -->
<g id="edge1" class="edge">
<title>Node1&#45;&gt;Node2</title>
<path fill="none" stroke="midnightblue" d="M609.36,-112.44C534.53,-102.05 409.42,-84.69 337.48,-74.7"/>
<polygon fill="midnightblue" stroke="midnightblue" points="337.65,-71.19 327.26,-73.28 336.69,-78.13 337.65,-71.19"/>
</g>
<!-- Node6 -->
<g id="node6" class="node">
<title>Node6</title>
<g id="a_node6"><a xlink:title=" ">
<polygon fill="white" stroke="#bfbfbf" points="454,-0.5 454,-19.5 498,-19.5 498,-0.5 454,-0.5"/>
<text text-anchor="middle" x="476" y="-7.5" font-family="Helvetica,sans-Serif" font-size="10.00">string</text>
</a>
</g>
</g>
<!-- Node1&#45;&gt;Node6 -->
<g id="edge16" class="edge">
<title>Node1&#45;&gt;Node6</title>
<path fill="none" stroke="midnightblue" d="M671.04,-112.49C670.63,-98.62 667.72,-71.2 652,-56 613.15,-18.46 547.49,-11.01 508.3,-10.19"/>
<polygon fill="midnightblue" stroke="midnightblue" points="508.25,-6.69 498.22,-10.11 508.2,-13.69 508.25,-6.69"/>
</g>
<!-- Node9 -->
<g id="node9" class="node">
<title>Node9</title>
<g id="a_node9"><a xlink:title=" ">
<polygon fill="white" stroke="#bfbfbf" points="388.5,-0.5 388.5,-19.5 435.5,-19.5 435.5,-0.5 388.5,-0.5"/>
<text text-anchor="middle" x="412" y="-7.5" font-family="Helvetica,sans-Serif" font-size="10.00">vector</text>
</a>
</g>
</g>
<!-- Node1&#45;&gt;Node9 -->
<g id="edge17" class="edge">
<title>Node1&#45;&gt;Node9</title>
<path fill="none" stroke="midnightblue" d="M609.21,-120.18C534.67,-117.72 415.86,-108.64 388,-76 376.1,-62.06 386.87,-41.68 397.54,-27.48"/>
<polygon fill="midnightblue" stroke="midnightblue" points="400.39,-29.51 403.96,-19.54 394.95,-25.11 400.39,-29.51"/>
</g>
<!-- Node10 -->
<g id="node10" class="node">
<title>Node10</title>
<g id="a_node10"><a xlink:href="http__consts_8h.html" target="_top" xlink:title=" ">
<polygon fill="white" stroke="black" points="543.5,-56.5 543.5,-75.5 642.5,-75.5 642.5,-56.5 543.5,-56.5"/>
<text text-anchor="middle" x="593" y="-63.5" font-family="Helvetica,sans-Serif" font-size="10.00">ccf/http_consts.h</text>
</a>
</g>
</g>
<!-- Node1&#45;&gt;Node10 -->
<g id="edge9" class="edge">
<title>Node1&#45;&gt;Node10</title>
<path fill="none" stroke="midnightblue" d="M658.47,-112.32C646.41,-103.98 627.97,-91.21 613.73,-81.35"/>
<polygon fill="midnightblue" stroke="midnightblue" points="615.72,-78.47 605.5,-75.65 611.73,-84.22 615.72,-78.47"/>
</g>
<!-- Node11 -->
<g id="node11" class="node">
<title>Node11</title>
<g id="a_node11"><a xlink:href="http__header__map_8h.html" target="_top" xlink:title=" ">
<polygon fill="white" stroke="black" points="397,-56.5 397,-75.5 525,-75.5 525,-56.5 397,-56.5"/>
<text text-anchor="middle" x="461" y="-63.5" font-family="Helvetica,sans-Serif" font-size="10.00">ccf/http_header_map.h</text>
</a>
</g>
</g>
<!-- Node1&#45;&gt;Node11 -->
<g id="edge10" class="edge">
<title>Node1&#45;&gt;Node11</title>
<path fill="none" stroke="midnightblue" d="M637.72,-112.44C601.55,-103.14 543.62,-88.25 504.02,-78.06"/>
<polygon fill="midnightblue" stroke="midnightblue" points="504.68,-74.62 494.12,-75.52 502.93,-81.4 504.68,-74.62"/>
</g>
<!-- Node12 -->
<g id="node12" class="node">
<title>Node12</title>
<g id="a_node12"><a xlink:href="http__status_8h.html" target="_top" xlink:title=" ">
<polygon fill="white" stroke="black" points="699,-56.5 699,-75.5 797,-75.5 797,-56.5 699,-56.5"/>
<text text-anchor="middle" x="748" y="-63.5" font-family="Helvetica,sans-Serif" font-size="10.00">ccf/http_status.h</text>
</a>
</g>
</g>
<!-- Node1&#45;&gt;Node12 -->
<g id="edge12" class="edge">
<title>Node1&#45;&gt;Node12</title>
<path fill="none" stroke="midnightblue" d="M683.37,-112.32C695.16,-104.06 713.13,-91.45 727.14,-81.63"/>
<polygon fill="midnightblue" stroke="midnightblue" points="729.48,-84.26 735.66,-75.65 725.46,-78.53 729.48,-84.26"/>
</g>
<!-- Node13 -->
<g id="node13" class="node">
<title>Node13</title>
<g id="a_node13"><a xlink:title=" ">
<polygon fill="white" stroke="#bfbfbf" points="815.5,-56.5 815.5,-75.5 894.5,-75.5 894.5,-56.5 815.5,-56.5"/>
<text text-anchor="middle" x="855" y="-63.5" font-family="Helvetica,sans-Serif" font-size="10.00">fmt/format.h</text>
</a>
</g>
</g>
<!-- Node1&#45;&gt;Node13 -->
<g id="edge13" class="edge">
<title>Node1&#45;&gt;Node13</title>
<path fill="none" stroke="midnightblue" d="M700.16,-112.44C731.51,-103.24 781.53,-88.56 816.2,-78.39"/>
<polygon fill="midnightblue" stroke="midnightblue" points="817.37,-81.69 825.98,-75.52 815.4,-74.97 817.37,-81.69"/>
</g>
<!-- Node14 -->
<g id="node14" class="node">
<title>Node14</title>
<g id="a_node14"><a xlink:title=" ">
<polygon fill="white" stroke="#bfbfbf" points="913,-56.5 913,-75.5 993,-75.5 993,-56.5 913,-56.5"/>
<text text-anchor="middle" x="953" y="-63.5" font-family="Helvetica,sans-Serif" font-size="10.00">llhttp/llhttp.h</text>
</a>
</g>
</g>
<!-- Node1&#45;&gt;Node14 -->
<g id="edge14" class="edge">
<title>Node1&#45;&gt;Node14</title>
<path fill="none" stroke="midnightblue" d="M715.68,-112.44C766.6,-102.69 849.63,-86.8 902.75,-76.62"/>
<polygon fill="midnightblue" stroke="midnightblue" points="903.47,-80.05 912.64,-74.73 902.16,-73.17 903.47,-80.05"/>
</g>
<!-- Node15 -->
<g id="node15" class="node">
<title>Node15</title>
<g id="a_node15"><a xlink:title=" ">
<polygon fill="white" stroke="#bfbfbf" points="1011,-56.5 1011,-75.5 1049,-75.5 1049,-56.5 1011,-56.5"/>
<text text-anchor="middle" x="1030" y="-63.5" font-family="Helvetica,sans-Serif" font-size="10.00">map</text>
</a>
</g>
</g>
<!-- Node1&#45;&gt;Node15 -->
<g id="edge15" class="edge">
<title>Node1&#45;&gt;Node15</title>
<path fill="none" stroke="midnightblue" d="M732.58,-115.89C797.33,-109.79 902.22,-97.84 1001,-75.88"/>
<polygon fill="midnightblue" stroke="midnightblue" points="1001.86,-79.27 1010.84,-73.65 1000.32,-72.44 1001.86,-79.27"/>
</g>
<!-- Node3 -->
<g id="node3" class="node">
<title>Node3</title>
<g id="a_node3"><a xlink:title=" ">
<polygon fill="white" stroke="#bfbfbf" points="306,-0.5 306,-19.5 370,-19.5 370,-0.5 306,-0.5"/>
<text text-anchor="middle" x="338" y="-7.5" font-family="Helvetica,sans-Serif" font-size="10.00">algorithm</text>
</a>
</g>
</g>
<!-- Node2&#45;&gt;Node3 -->
<g id="edge2" class="edge">
<title>Node2&#45;&gt;Node3</title>
<path fill="none" stroke="midnightblue" d="M291,-56.32C299.19,-48.42 311.51,-36.55 321.47,-26.94"/>
<polygon fill="midnightblue" stroke="midnightblue" points="324.07,-29.29 328.84,-19.83 319.21,-24.26 324.07,-29.29"/>
</g>
<!-- Node4 -->
<g id="node4" class="node">
<title>Node4</title>
<g id="a_node4"><a xlink:title=" ">
<polygon fill="white" stroke="#bfbfbf" points="0,-0.5 0,-19.5 42,-19.5 42,-0.5 0,-0.5"/>
<text text-anchor="middle" x="21" y="-7.5" font-family="Helvetica,sans-Serif" font-size="10.00">array</text>
</a>
</g>
</g>
<!-- Node2&#45;&gt;Node4 -->
<g id="edge3" class="edge">
<title>Node2&#45;&gt;Node4</title>
<path fill="none" stroke="midnightblue" d="M237,-57.59C192.33,-49.94 121.76,-37.03 52.06,-20.07"/>
<polygon fill="midnightblue" stroke="midnightblue" points="52.78,-16.65 42.23,-17.65 51.11,-23.44 52.78,-16.65"/>
</g>
<!-- Node5 -->
<g id="node5" class="node">
<title>Node5</title>
<g id="a_node5"><a xlink:title=" ">
<polygon fill="white" stroke="#bfbfbf" points="60.5,-0.5 60.5,-19.5 109.5,-19.5 109.5,-0.5 60.5,-0.5"/>
<text text-anchor="middle" x="85" y="-7.5" font-family="Helvetica,sans-Serif" font-size="10.00">cctype</text>
</a>
</g>
</g>
<!-- Node2&#45;&gt;Node5 -->
<g id="edge4" class="edge">
<title>Node2&#45;&gt;Node5</title>
<path fill="none" stroke="midnightblue" d="M250.78,-56.44C214.98,-46.63 156.47,-30.59 119.39,-20.43"/>
<polygon fill="midnightblue" stroke="midnightblue" points="120.1,-16.99 109.53,-17.73 118.25,-23.74 120.1,-16.99"/>
</g>
<!-- Node2&#45;&gt;Node6 -->
<g id="edge5" class="edge">
<title>Node2&#45;&gt;Node6</title>
<path fill="none" stroke="midnightblue" d="M312.76,-56.49C345.36,-47.46 398.32,-32.77 444,-20 444.1,-19.97 444.2,-19.94 444.3,-19.92"/>
<polygon fill="midnightblue" stroke="midnightblue" points="445.28,-23.28 453.97,-17.21 443.4,-16.53 445.28,-23.28"/>
</g>
<!-- Node7 -->
<g id="node7" class="node">
<title>Node7</title>
<g id="a_node7"><a xlink:title=" ">
<polygon fill="white" stroke="#bfbfbf" points="127.5,-0.5 127.5,-19.5 200.5,-19.5 200.5,-0.5 127.5,-0.5"/>
<text text-anchor="middle" x="164" y="-7.5" font-family="Helvetica,sans-Serif" font-size="10.00">string_view</text>
</a>
</g>
</g>
<!-- Node2&#45;&gt;Node7 -->
<g id="edge6" class="edge">
<title>Node2&#45;&gt;Node7</title>
<path fill="none" stroke="midnightblue" d="M263.3,-56.44C244.06,-47.64 213.85,-33.81 191.8,-23.72"/>
<polygon fill="midnightblue" stroke="midnightblue" points="193.16,-20.5 182.61,-19.52 190.25,-26.86 193.16,-20.5"/>
</g>
<!-- Node8 -->
<g id="node8" class="node">
<title>Node8</title>
<g id="a_node8"><a xlink:title=" ">
<polygon fill="white" stroke="#bfbfbf" points="218.5,-0.5 218.5,-19.5 287.5,-19.5 287.5,-0.5 218.5,-0.5"/>
<text text-anchor="middle" x="253" y="-7.5" font-family="Helvetica,sans-Serif" font-size="10.00">type_traits</text>
</a>
</g>
</g>
<!-- Node2&#45;&gt;Node8 -->
<g id="edge7" class="edge">
<title>Node2&#45;&gt;Node8</title>
<path fill="none" stroke="midnightblue" d="M277.21,-56.08C273.24,-48.69 267.47,-37.95 262.57,-28.81"/>
<polygon fill="midnightblue" stroke="midnightblue" points="265.51,-26.91 257.7,-19.75 259.35,-30.22 265.51,-26.91"/>
</g>
<!-- Node2&#45;&gt;Node9 -->
<g id="edge8" class="edge">
<title>Node2&#45;&gt;Node9</title>
<path fill="none" stroke="midnightblue" d="M302.6,-56.44C323.99,-47.56 357.68,-33.56 382.02,-23.45"/>
<polygon fill="midnightblue" stroke="midnightblue" points="383.61,-26.58 391.5,-19.52 380.92,-20.12 383.61,-26.58"/>
</g>
<!-- Node11&#45;&gt;Node6 -->
<g id="edge11" class="edge">
<title>Node11&#45;&gt;Node6</title>
<path fill="none" stroke="midnightblue" d="M463.48,-56.08C465.49,-48.85 468.39,-38.41 470.89,-29.4"/>
<polygon fill="midnightblue" stroke="midnightblue" points="474.26,-30.32 473.57,-19.75 467.52,-28.45 474.26,-30.32"/>
</g>
</g>
</svg>
