<?xml version="1.0" encoding="UTF-8" standalone="no"?>
<!DOCTYPE svg PUBLIC "-//W3C//DTD SVG 1.1//EN"
 "http://www.w3.org/Graphics/SVG/1.1/DTD/svg11.dtd">
<!-- Generated by graphviz version 2.43.0 (0)
 -->
<!-- Title: include/ccf/ds/json_schema.h Pages: 1 -->
<svg width="511pt" height="151pt"
 viewBox="0.00 0.00 511.00 151.00" xmlns="http://www.w3.org/2000/svg" xmlns:xlink="http://www.w3.org/1999/xlink">
<g id="graph0" class="graph" transform="scale(1 1) rotate(0) translate(4 147)">
<title>include/ccf/ds/json_schema.h</title>
<polygon fill="white" stroke="transparent" points="-4,4 -4,-147 507,-147 507,4 -4,4"/>
<!-- Node1 -->
<g id="node1" class="node">
<title>Node1</title>
<g id="a_node1"><a xlink:title=" ">
<polygon fill="#bfbfbf" stroke="black" points="281.5,-112.5 281.5,-142.5 388.5,-142.5 388.5,-112.5 281.5,-112.5"/>
<text text-anchor="start" x="289.5" y="-130.5" font-family="Helvetica,sans-Serif" font-size="10.00">include/ccf/ds/json</text>
<text text-anchor="middle" x="335" y="-119.5" font-family="Helvetica,sans-Serif" font-size="10.00">_schema.h</text>
</a>
</g>
</g>
<!-- Node2 -->
<g id="node2" class="node">
<title>Node2</title>
<g id="a_node2"><a xlink:href="nonstd_8h.html" target="_top" xlink:title=" ">
<polygon fill="white" stroke="black" points="187,-56.5 187,-75.5 277,-75.5 277,-56.5 187,-56.5"/>
<text text-anchor="middle" x="232" y="-63.5" font-family="Helvetica,sans-Serif" font-size="10.00">ccf/ds/nonstd.h</text>
</a>
</g>
</g>
<!-- Node1&#45;&gt;Node2 -->
<g id="edge1" class="edge">
<title>Node1&#45;&gt;Node2</title>
<path fill="none" stroke="midnightblue" d="M310.59,-112.4C294.08,-102.86 272.38,-90.32 255.96,-80.84"/>
<polygon fill="midnightblue" stroke="midnightblue" points="257.4,-77.63 246.99,-75.66 253.9,-83.69 257.4,-77.63"/>
</g>
<!-- Node10 -->
<g id="node10" class="node">
<title>Node10</title>
<g id="a_node10"><a xlink:title=" ">
<polygon fill="white" stroke="#bfbfbf" points="295.5,-56.5 295.5,-75.5 374.5,-75.5 374.5,-56.5 295.5,-56.5"/>
<text text-anchor="middle" x="335" y="-63.5" font-family="Helvetica,sans-Serif" font-size="10.00">fmt/format.h</text>
</a>
</g>
</g>
<!-- Node1&#45;&gt;Node10 -->
<g id="edge9" class="edge">
<title>Node1&#45;&gt;Node10</title>
<path fill="none" stroke="midnightblue" d="M335,-112.4C335,-104.47 335,-94.46 335,-85.86"/>
<polygon fill="midnightblue" stroke="midnightblue" points="338.5,-85.66 335,-75.66 331.5,-85.66 338.5,-85.66"/>
</g>
<!-- Node11 -->
<g id="node11" class="node">
<title>Node11</title>
<g id="a_node11"><a xlink:title=" ">
<polygon fill="white" stroke="#bfbfbf" points="393,-56.5 393,-75.5 503,-75.5 503,-56.5 393,-56.5"/>
<text text-anchor="middle" x="448" y="-63.5" font-family="Helvetica,sans-Serif" font-size="10.00">nlohmann/json.hpp</text>
</a>
</g>
</g>
<!-- Node1&#45;&gt;Node11 -->
<g id="edge10" class="edge">
<title>Node1&#45;&gt;Node11</title>
<path fill="none" stroke="midnightblue" d="M361.78,-112.4C380.06,-102.77 404.15,-90.09 422.21,-80.58"/>
<polygon fill="midnightblue" stroke="midnightblue" points="424.34,-83.41 431.56,-75.66 421.08,-77.22 424.34,-83.41"/>
</g>
<!-- Node3 -->
<g id="node3" class="node">
<title>Node3</title>
<g id="a_node3"><a xlink:title=" ">
<polygon fill="white" stroke="#bfbfbf" points="0,-0.5 0,-19.5 64,-19.5 64,-0.5 0,-0.5"/>
<text text-anchor="middle" x="32" y="-7.5" font-family="Helvetica,sans-Serif" font-size="10.00">algorithm</text>
</a>
</g>
</g>
<!-- Node2&#45;&gt;Node3 -->
<g id="edge2" class="edge">
<title>Node2&#45;&gt;Node3</title>
<path fill="none" stroke="midnightblue" d="M200.31,-56.44C165.93,-47.16 110.92,-32.31 73.21,-22.13"/>
<polygon fill="midnightblue" stroke="midnightblue" points="74.11,-18.74 63.54,-19.52 72.28,-25.5 74.11,-18.74"/>
</g>
<!-- Node4 -->
<g id="node4" class="node">
<title>Node4</title>
<g id="a_node4"><a xlink:title=" ">
<polygon fill="white" stroke="#bfbfbf" points="82,-0.5 82,-19.5 124,-19.5 124,-0.5 82,-0.5"/>
<text text-anchor="middle" x="103" y="-7.5" font-family="Helvetica,sans-Serif" font-size="10.00">array</text>
</a>
</g>
</g>
<!-- Node2&#45;&gt;Node4 -->
<g id="edge3" class="edge">
<title>Node2&#45;&gt;Node4</title>
<path fill="none" stroke="midnightblue" d="M211.56,-56.44C190.33,-47.56 156.9,-33.56 132.75,-23.45"/>
<polygon fill="midnightblue" stroke="midnightblue" points="133.92,-20.15 123.34,-19.52 131.22,-26.61 133.92,-20.15"/>
</g>
<!-- Node5 -->
<g id="node5" class="node">
<title>Node5</title>
<g id="a_node5"><a xlink:title=" ">
<polygon fill="white" stroke="#bfbfbf" points="142.5,-0.5 142.5,-19.5 191.5,-19.5 191.5,-0.5 142.5,-0.5"/>
<text text-anchor="middle" x="167" y="-7.5" font-family="Helvetica,sans-Serif" font-size="10.00">cctype</text>
</a>
</g>
</g>
<!-- Node2&#45;&gt;Node5 -->
<g id="edge4" class="edge">
<title>Node2&#45;&gt;Node5</title>
<path fill="none" stroke="midnightblue" d="M221.56,-56.32C211.85,-48.26 197.18,-36.08 185.5,-26.37"/>
<polygon fill="midnightblue" stroke="midnightblue" points="187.56,-23.53 177.63,-19.83 183.09,-28.92 187.56,-23.53"/>
</g>
<!-- Node6 -->
<g id="node6" class="node">
<title>Node6</title>
<g id="a_node6"><a xlink:title=" ">
<polygon fill="white" stroke="#bfbfbf" points="210,-0.5 210,-19.5 254,-19.5 254,-0.5 210,-0.5"/>
<text text-anchor="middle" x="232" y="-7.5" font-family="Helvetica,sans-Serif" font-size="10.00">string</text>
</a>
</g>
</g>
<!-- Node2&#45;&gt;Node6 -->
<g id="edge5" class="edge">
<title>Node2&#45;&gt;Node6</title>
<path fill="none" stroke="midnightblue" d="M232,-56.08C232,-49.01 232,-38.86 232,-29.99"/>
<polygon fill="midnightblue" stroke="midnightblue" points="235.5,-29.75 232,-19.75 228.5,-29.75 235.5,-29.75"/>
</g>
<!-- Node7 -->
<g id="node7" class="node">
<title>Node7</title>
<g id="a_node7"><a xlink:title=" ">
<polygon fill="white" stroke="#bfbfbf" points="272.5,-0.5 272.5,-19.5 345.5,-19.5 345.5,-0.5 272.5,-0.5"/>
<text text-anchor="middle" x="309" y="-7.5" font-family="Helvetica,sans-Serif" font-size="10.00">string_view</text>
</a>
</g>
</g>
<!-- Node2&#45;&gt;Node7 -->
<g id="edge6" class="edge">
<title>Node2&#45;&gt;Node7</title>
<path fill="none" stroke="midnightblue" d="M244.37,-56.32C256.16,-48.06 274.13,-35.45 288.14,-25.63"/>
<polygon fill="midnightblue" stroke="midnightblue" points="290.48,-28.26 296.66,-19.65 286.46,-22.53 290.48,-28.26"/>
</g>
<!-- Node8 -->
<g id="node8" class="node">
<title>Node8</title>
<g id="a_node8"><a xlink:title=" ">
<polygon fill="white" stroke="#bfbfbf" points="363.5,-0.5 363.5,-19.5 432.5,-19.5 432.5,-0.5 363.5,-0.5"/>
<text text-anchor="middle" x="398" y="-7.5" font-family="Helvetica,sans-Serif" font-size="10.00">type_traits</text>
</a>
</g>
</g>
<!-- Node2&#45;&gt;Node8 -->
<g id="edge7" class="edge">
<title>Node2&#45;&gt;Node8</title>
<path fill="none" stroke="midnightblue" d="M258.3,-56.44C286.35,-47.32 330.94,-32.81 362.18,-22.65"/>
<polygon fill="midnightblue" stroke="midnightblue" points="363.39,-25.94 371.82,-19.52 361.23,-19.28 363.39,-25.94"/>
</g>
<!-- Node9 -->
<g id="node9" class="node">
<title>Node9</title>
<g id="a_node9"><a xlink:title=" ">
<polygon fill="white" stroke="#bfbfbf" points="450.5,-0.5 450.5,-19.5 497.5,-19.5 497.5,-0.5 450.5,-0.5"/>
<text text-anchor="middle" x="474" y="-7.5" font-family="Helvetica,sans-Serif" font-size="10.00">vector</text>
</a>
</g>
</g>
<!-- Node2&#45;&gt;Node9 -->
<g id="edge8" class="edge">
<title>Node2&#45;&gt;Node9</title>
<path fill="none" stroke="midnightblue" d="M275.62,-56.49C316.06,-48.41 378.11,-35.54 440.3,-20.32"/>
<polygon fill="midnightblue" stroke="midnightblue" points="441.41,-23.65 450.28,-17.85 439.73,-16.85 441.41,-23.65"/>
</g>
</g>
</svg>
