<?xml version="1.0" encoding="UTF-8" standalone="no"?>
<!DOCTYPE svg PUBLIC "-//W3C//DTD SVG 1.1//EN"
 "http://www.w3.org/Graphics/SVG/1.1/DTD/svg11.dtd">
<!-- Generated by graphviz version 2.43.0 (0)
 -->
<!-- Title: include/ccf/crypto/verifier.h Pages: 1 -->
<!--zoomable 487 -->
<svg id="main" version="1.1" xmlns="http://www.w3.org/2000/svg" xmlns:xlink="http://www.w3.org/1999/xlink" xml:space="preserve" onload="init(evt)">
<style type="text/css"><![CDATA[
.edge:hover path { stroke: red; }
.edge:hover polygon { stroke: red; fill: red; }
]]></style>
<script type="text/javascript"><![CDATA[
var edges = document.getElementsByTagName('g');
if (edges && edges.length) {
  for (var i=0;i<edges.length;i++) {
    if (edges[i].id.substr(0,4)=='edge') {
      edges[i].setAttribute('class','edge');
    }
  }
}
]]></script>
        <defs>
                <circle id="rim" cx="0" cy="0" r="7"/>
                <circle id="rim2" cx="0" cy="0" r="3.5"/>
                <g id="zoomPlus">
                        <use xlink:href="#rim" fill="#404040">
                                <set attributeName="fill" to="#808080" begin="zoomplus.mouseover" end="zoomplus.mouseout"/>
                        </use>
                        <path d="M-4,0h8M0,-4v8" fill="none" stroke="white" stroke-width="1.5" pointer-events="none"/>
                </g>
                <g id="zoomMin">
                        <use xlink:href="#rim" fill="#404040">
                                <set attributeName="fill" to="#808080" begin="zoomminus.mouseover" end="zoomminus.mouseout"/>
                        </use>
                        <path d="M-4,0h8" fill="none" stroke="white" stroke-width="1.5" pointer-events="none"/>
                </g>
                <g id="dirArrow">
                        <path fill="none" stroke="white" stroke-width="1.5" d="M0,-3.0v7 M-2.5,-0.5L0,-3.0L2.5,-0.5"/>
                </g>
               <g id="resetDef">
                       <use xlink:href="#rim2" fill="#404040">
                               <set attributeName="fill" to="#808080" begin="reset.mouseover" end="reset.mouseout"/>
                       </use>
               </g>
        </defs>

<script type="text/javascript">
var viewWidth = 1072;
var viewHeight = 487;
var sectionId = 'dynsection-0';
</script>
<script xlink:href="svgpan.js"/>
<svg id="graph" class="graph">
<g id="viewport">
<title>include/ccf/crypto/verifier.h</title>
<polygon fill="white" stroke="transparent" points="-4,4 -4,-483 1068,-483 1068,4 -4,4"/>
<!-- Node1 -->
<g id="node1" class="node">
<title>Node1</title>
<g id="a_node1"><a xlink:title=" ">
<polygon fill="#bfbfbf" stroke="black" points="785.5,-448.5 785.5,-478.5 888.5,-478.5 888.5,-448.5 785.5,-448.5"/>
<text text-anchor="start" x="793.5" y="-466.5" font-family="Helvetica,sans-Serif" font-size="10.00">include/ccf/crypto</text>
<text text-anchor="middle" x="837" y="-455.5" font-family="Helvetica,sans-Serif" font-size="10.00">/verifier.h</text>
</a>
</g>
</g>
<!-- Node2 -->
<g id="node2" class="node">
<title>Node2</title>
<g id="a_node2"><a xlink:href="include_2ccf_2crypto_2key__pair_8h.html" target="_top" xlink:title=" ">
<polygon fill="white" stroke="black" points="569.5,-392.5 569.5,-411.5 686.5,-411.5 686.5,-392.5 569.5,-392.5"/>
<text text-anchor="middle" x="628" y="-399.5" font-family="Helvetica,sans-Serif" font-size="10.00">ccf/crypto/key_pair.h</text>
</a>
</g>
</g>
<!-- Node1&#45;&gt;Node2 -->
<g id="edge1" class="edge">
<title>Node1&#45;&gt;Node2</title>
<path fill="none" stroke="midnightblue" d="M787.73,-448.47C751.05,-438.03 701.62,-423.96 667.51,-414.25"/>
<polygon fill="midnightblue" stroke="midnightblue" points="668.46,-410.88 657.88,-411.51 666.54,-417.61 668.46,-410.88"/>
</g>
<!-- Node21 -->
<g id="node21" class="node">
<title>Node21</title>
<g id="a_node21"><a xlink:href="pem_8h.html" target="_top" xlink:title=" ">
<polygon fill="white" stroke="black" points="771,-280.5 771,-299.5 869,-299.5 869,-280.5 771,-280.5"/>
<text text-anchor="middle" x="820" y="-287.5" font-family="Helvetica,sans-Serif" font-size="10.00">ccf/crypto/pem.h</text>
</a>
</g>
</g>
<!-- Node1&#45;&gt;Node21 -->
<g id="edge54" class="edge">
<title>Node1&#45;&gt;Node21</title>
<path fill="none" stroke="midnightblue" d="M835.61,-448.47C832.56,-417.7 825.29,-344.33 821.85,-309.7"/>
<polygon fill="midnightblue" stroke="midnightblue" points="825.32,-309.17 820.85,-299.56 818.35,-309.86 825.32,-309.17"/>
</g>
<!-- Node26 -->
<g id="node26" class="node">
<title>Node26</title>
<g id="a_node26"><a xlink:href="include_2ccf_2crypto_2public__key_8h.html" target="_top" xlink:title=" ">
<polygon fill="white" stroke="black" points="564.5,-336.5 564.5,-355.5 691.5,-355.5 691.5,-336.5 564.5,-336.5"/>
<text text-anchor="middle" x="628" y="-343.5" font-family="Helvetica,sans-Serif" font-size="10.00">ccf/crypto/public_key.h</text>
</a>
</g>
</g>
<!-- Node1&#45;&gt;Node26 -->
<g id="edge55" class="edge">
<title>Node1&#45;&gt;Node26</title>
<path fill="none" stroke="midnightblue" d="M811.37,-448.34C770.7,-425.86 691.94,-382.33 652.19,-360.37"/>
<polygon fill="midnightblue" stroke="midnightblue" points="653.87,-357.3 643.42,-355.52 650.48,-363.42 653.87,-357.3"/>
</g>
<!-- Node31 -->
<g id="node31" class="node">
<title>Node31</title>
<g id="a_node31"><a xlink:title=" ">
<polygon fill="white" stroke="#bfbfbf" points="924,-392.5 924,-411.5 974,-411.5 974,-392.5 924,-392.5"/>
<text text-anchor="middle" x="949" y="-399.5" font-family="Helvetica,sans-Serif" font-size="10.00">chrono</text>
</a>
</g>
</g>
<!-- Node1&#45;&gt;Node31 -->
<g id="edge56" class="edge">
<title>Node1&#45;&gt;Node31</title>
<path fill="none" stroke="midnightblue" d="M863.54,-448.4C881.66,-438.77 905.54,-426.09 923.44,-416.58"/>
<polygon fill="midnightblue" stroke="midnightblue" points="925.51,-419.44 932.7,-411.66 922.23,-413.26 925.51,-419.44"/>
</g>
<!-- Node3 -->
<g id="node3" class="node">
<title>Node3</title>
<g id="a_node3"><a xlink:href="curve_8h.html" target="_top" xlink:title=" ">
<polygon fill="white" stroke="black" points="393,-280.5 393,-299.5 497,-299.5 497,-280.5 393,-280.5"/>
<text text-anchor="middle" x="445" y="-287.5" font-family="Helvetica,sans-Serif" font-size="10.00">ccf/crypto/curve.h</text>
</a>
</g>
</g>
<!-- Node2&#45;&gt;Node3 -->
<g id="edge2" class="edge">
<title>Node2&#45;&gt;Node3</title>
<path fill="none" stroke="midnightblue" d="M611.47,-392.37C594.78,-383.54 568.33,-369.29 546,-356 518.03,-339.35 486.62,-318.84 466.36,-305.37"/>
<polygon fill="midnightblue" stroke="midnightblue" points="468.15,-302.35 457.89,-299.71 464.26,-308.17 468.15,-302.35"/>
</g>
<!-- Node7 -->
<g id="node7" class="node">
<title>Node7</title>
<g id="a_node7"><a xlink:title=" ">
<polygon fill="white" stroke="#bfbfbf" points="47,-0.5 47,-19.5 91,-19.5 91,-0.5 47,-0.5"/>
<text text-anchor="middle" x="69" y="-7.5" font-family="Helvetica,sans-Serif" font-size="10.00">string</text>
</a>
</g>
</g>
<!-- Node2&#45;&gt;Node7 -->
<g id="edge52" class="edge">
<title>Node2&#45;&gt;Node7</title>
<path fill="none" stroke="midnightblue" d="M569.48,-396.88C413.58,-385.11 0,-348.49 0,-291 0,-291 0,-291 0,-121 0,-82.39 30.88,-46.21 51.33,-26.49"/>
<polygon fill="midnightblue" stroke="midnightblue" points="53.87,-28.9 58.82,-19.54 49.11,-23.77 53.87,-28.9"/>
</g>
<!-- Node8 -->
<g id="node8" class="node">
<title>Node8</title>
<g id="a_node8"><a xlink:title=" ">
<polygon fill="white" stroke="#bfbfbf" points="689.5,-0.5 689.5,-19.5 736.5,-19.5 736.5,-0.5 689.5,-0.5"/>
<text text-anchor="middle" x="713" y="-7.5" font-family="Helvetica,sans-Serif" font-size="10.00">vector</text>
</a>
</g>
</g>
<!-- Node2&#45;&gt;Node8 -->
<g id="edge53" class="edge">
<title>Node2&#45;&gt;Node8</title>
<path fill="none" stroke="midnightblue" d="M686.8,-397.72C805.81,-387.59 1064,-346.34 1064,-179 1064,-179 1064,-179 1064,-121 1064,-72.02 1020.11,-75.09 975,-56 897.83,-23.33 798.31,-14.37 746.98,-11.92"/>
<polygon fill="midnightblue" stroke="midnightblue" points="746.92,-8.41 736.78,-11.48 746.63,-15.4 746.92,-8.41"/>
</g>
<!-- Node2&#45;&gt;Node21 -->
<g id="edge27" class="edge">
<title>Node2&#45;&gt;Node21</title>
<path fill="none" stroke="midnightblue" d="M647.38,-392.36C666.24,-383.75 695.56,-369.85 720,-356 748.27,-339.97 779.47,-319.16 799.38,-305.46"/>
<polygon fill="midnightblue" stroke="midnightblue" points="801.45,-308.28 807.68,-299.71 797.46,-302.53 801.45,-308.28"/>
</g>
<!-- Node2&#45;&gt;Node26 -->
<g id="edge35" class="edge">
<title>Node2&#45;&gt;Node26</title>
<path fill="none" stroke="midnightblue" d="M628,-392.08C628,-385.01 628,-374.86 628,-365.99"/>
<polygon fill="midnightblue" stroke="midnightblue" points="631.5,-365.75 628,-355.75 624.5,-365.75 631.5,-365.75"/>
</g>
<!-- Node28 -->
<g id="node28" class="node">
<title>Node28</title>
<g id="a_node28"><a xlink:href="san_8h.html" target="_top" xlink:title=" ">
<polygon fill="white" stroke="black" points="66,-224.5 66,-243.5 160,-243.5 160,-224.5 66,-224.5"/>
<text text-anchor="middle" x="113" y="-231.5" font-family="Helvetica,sans-Serif" font-size="10.00">ccf/crypto/san.h</text>
</a>
</g>
</g>
<!-- Node2&#45;&gt;Node28 -->
<g id="edge49" class="edge">
<title>Node2&#45;&gt;Node28</title>
<path fill="none" stroke="midnightblue" d="M598.19,-392.38C540.03,-375.45 407.43,-336.34 297,-300 243.76,-282.48 182.48,-260.46 145.79,-247.07"/>
<polygon fill="midnightblue" stroke="midnightblue" points="146.72,-243.68 136.13,-243.53 144.32,-250.26 146.72,-243.68"/>
</g>
<!-- Node29 -->
<g id="node29" class="node">
<title>Node29</title>
<g id="a_node29"><a xlink:title=" ">
<polygon fill="white" stroke="#bfbfbf" points="535,-280.5 535,-299.5 585,-299.5 585,-280.5 535,-280.5"/>
<text text-anchor="middle" x="560" y="-287.5" font-family="Helvetica,sans-Serif" font-size="10.00">cstdint</text>
</a>
</g>
</g>
<!-- Node2&#45;&gt;Node29 -->
<g id="edge50" class="edge">
<title>Node2&#45;&gt;Node29</title>
<path fill="none" stroke="midnightblue" d="M602.5,-392.47C586.01,-385.48 565.86,-373.79 556,-356 548.13,-341.8 550.35,-323.08 553.81,-309.37"/>
<polygon fill="midnightblue" stroke="midnightblue" points="557.21,-310.22 556.69,-299.64 550.5,-308.24 557.21,-310.22"/>
</g>
<!-- Node30 -->
<g id="node30" class="node">
<title>Node30</title>
<g id="a_node30"><a xlink:title=" ">
<polygon fill="white" stroke="#bfbfbf" points="692,-280.5 692,-299.5 748,-299.5 748,-280.5 692,-280.5"/>
<text text-anchor="middle" x="720" y="-287.5" font-family="Helvetica,sans-Serif" font-size="10.00">optional</text>
</a>
</g>
</g>
<!-- Node2&#45;&gt;Node30 -->
<g id="edge51" class="edge">
<title>Node2&#45;&gt;Node30</title>
<path fill="none" stroke="midnightblue" d="M650.23,-392.49C666.53,-385.16 688,-373.05 701,-356 711.24,-342.57 715.97,-323.76 718.15,-309.82"/>
<polygon fill="midnightblue" stroke="midnightblue" points="721.62,-310.25 719.41,-299.89 714.68,-309.37 721.62,-310.25"/>
</g>
<!-- Node4 -->
<g id="node4" class="node">
<title>Node4</title>
<g id="a_node4"><a xlink:href="md__type_8h.html" target="_top" xlink:title=" ">
<polygon fill="white" stroke="black" points="216.5,-224.5 216.5,-243.5 335.5,-243.5 335.5,-224.5 216.5,-224.5"/>
<text text-anchor="middle" x="276" y="-231.5" font-family="Helvetica,sans-Serif" font-size="10.00">ccf/crypto/md_type.h</text>
</a>
</g>
</g>
<!-- Node3&#45;&gt;Node4 -->
<g id="edge3" class="edge">
<title>Node3&#45;&gt;Node4</title>
<path fill="none" stroke="midnightblue" d="M418.22,-280.44C389.67,-271.32 344.27,-256.81 312.46,-246.65"/>
<polygon fill="midnightblue" stroke="midnightblue" points="313.24,-243.23 302.65,-243.52 311.11,-249.89 313.24,-243.23"/>
</g>
<!-- Node5 -->
<g id="node5" class="node">
<title>Node5</title>
<g id="a_node5"><a xlink:href="json_8h.html" target="_top" xlink:title=" ">
<polygon fill="white" stroke="black" points="354.5,-168.5 354.5,-187.5 431.5,-187.5 431.5,-168.5 354.5,-168.5"/>
<text text-anchor="middle" x="393" y="-175.5" font-family="Helvetica,sans-Serif" font-size="10.00">ccf/ds/json.h</text>
</a>
</g>
</g>
<!-- Node3&#45;&gt;Node5 -->
<g id="edge23" class="edge">
<title>Node3&#45;&gt;Node5</title>
<path fill="none" stroke="midnightblue" d="M425.09,-280.41C410.78,-273.04 392.54,-260.92 384,-244 376.63,-229.4 380.36,-210.72 385.05,-197.14"/>
<polygon fill="midnightblue" stroke="midnightblue" points="388.44,-198.1 388.84,-187.51 381.92,-195.54 388.44,-198.1"/>
</g>
<!-- Node3&#45;&gt;Node7 -->
<g id="edge26" class="edge">
<title>Node3&#45;&gt;Node7</title>
<path fill="none" stroke="midnightblue" d="M392.87,-284.11C332.39,-277.59 237.22,-264.43 208,-244 187.64,-229.76 106.46,-80.8 78.51,-28.79"/>
<polygon fill="midnightblue" stroke="midnightblue" points="81.48,-26.91 73.67,-19.75 75.31,-30.22 81.48,-26.91"/>
</g>
<!-- Node16 -->
<g id="node16" class="node">
<title>Node16</title>
<g id="a_node16"><a xlink:title=" ">
<polygon fill="white" stroke="#bfbfbf" points="508.5,-56.5 508.5,-75.5 587.5,-75.5 587.5,-56.5 508.5,-56.5"/>
<text text-anchor="middle" x="548" y="-63.5" font-family="Helvetica,sans-Serif" font-size="10.00">fmt/format.h</text>
</a>
</g>
</g>
<!-- Node3&#45;&gt;Node16 -->
<g id="edge24" class="edge">
<title>Node3&#45;&gt;Node16</title>
<path fill="none" stroke="midnightblue" d="M450.19,-280.36C455.27,-271.53 462.81,-257.27 467,-244 477.29,-211.39 466.38,-199.78 479,-168 492.05,-135.14 517.31,-102.3 533.38,-83.35"/>
<polygon fill="midnightblue" stroke="midnightblue" points="536.13,-85.52 540.04,-75.68 530.84,-80.94 536.13,-85.52"/>
</g>
<!-- Node19 -->
<g id="node19" class="node">
<title>Node19</title>
<g id="a_node19"><a xlink:href="enum__formatter_8h.html" target="_top" xlink:title=" ">
<polygon fill="white" stroke="black" points="488,-168.5 488,-187.5 624,-187.5 624,-168.5 488,-168.5"/>
<text text-anchor="middle" x="556" y="-175.5" font-family="Helvetica,sans-Serif" font-size="10.00">ccf/ds/enum_formatter.h</text>
</a>
</g>
</g>
<!-- Node3&#45;&gt;Node19 -->
<g id="edge21" class="edge">
<title>Node3&#45;&gt;Node19</title>
<path fill="none" stroke="midnightblue" d="M478.65,-280.35C498.58,-273.58 522.84,-262.18 538,-244 548.89,-230.94 553.22,-211.79 554.92,-197.65"/>
<polygon fill="midnightblue" stroke="midnightblue" points="558.42,-197.87 555.8,-187.61 551.44,-197.26 558.42,-197.87"/>
</g>
<!-- Node20 -->
<g id="node20" class="node">
<title>Node20</title>
<g id="a_node20"><a xlink:title=" ">
<polygon fill="white" stroke="#bfbfbf" points="392.5,-224.5 392.5,-243.5 457.5,-243.5 457.5,-224.5 392.5,-224.5"/>
<text text-anchor="middle" x="425" y="-231.5" font-family="Helvetica,sans-Serif" font-size="10.00">stdexcept</text>
</a>
</g>
</g>
<!-- Node3&#45;&gt;Node20 -->
<g id="edge25" class="edge">
<title>Node3&#45;&gt;Node20</title>
<path fill="none" stroke="midnightblue" d="M441.7,-280.08C439.02,-272.85 435.15,-262.41 431.81,-253.4"/>
<polygon fill="midnightblue" stroke="midnightblue" points="435,-251.91 428.24,-243.75 428.43,-254.34 435,-251.91"/>
</g>
<!-- Node4&#45;&gt;Node5 -->
<g id="edge4" class="edge">
<title>Node4&#45;&gt;Node5</title>
<path fill="none" stroke="midnightblue" d="M294.54,-224.44C313.62,-215.64 343.57,-201.81 365.44,-191.72"/>
<polygon fill="midnightblue" stroke="midnightblue" points="366.93,-194.88 374.55,-187.52 364,-188.53 366.93,-194.88"/>
</g>
<!-- Node6 -->
<g id="node6" class="node">
<title>Node6</title>
<g id="a_node6"><a xlink:href="include_2ccf_2crypto_2base64_8h.html" target="_top" xlink:title=" ">
<polygon fill="white" stroke="black" points="250,-56.5 250,-75.5 362,-75.5 362,-56.5 250,-56.5"/>
<text text-anchor="middle" x="306" y="-63.5" font-family="Helvetica,sans-Serif" font-size="10.00">ccf/crypto/base64.h</text>
</a>
</g>
</g>
<!-- Node5&#45;&gt;Node6 -->
<g id="edge5" class="edge">
<title>Node5&#45;&gt;Node6</title>
<path fill="none" stroke="midnightblue" d="M354.11,-173C305.79,-167.14 227.56,-154.4 210,-132 191.13,-107.92 228.51,-89.52 261.99,-78.55"/>
<polygon fill="midnightblue" stroke="midnightblue" points="263.23,-81.83 271.74,-75.51 261.15,-75.14 263.23,-81.83"/>
</g>
<!-- Node9 -->
<g id="node9" class="node">
<title>Node9</title>
<g id="a_node9"><a xlink:href="include_2ccf_2ds_2json__schema_8h.html" target="_top" xlink:title=" ">
<polygon fill="white" stroke="black" points="218.5,-112.5 218.5,-131.5 339.5,-131.5 339.5,-112.5 218.5,-112.5"/>
<text text-anchor="middle" x="279" y="-119.5" font-family="Helvetica,sans-Serif" font-size="10.00">ccf/ds/json_schema.h</text>
</a>
</g>
</g>
<!-- Node5&#45;&gt;Node9 -->
<g id="edge8" class="edge">
<title>Node5&#45;&gt;Node9</title>
<path fill="none" stroke="midnightblue" d="M374.94,-168.44C356.43,-159.68 327.42,-145.94 306.14,-135.86"/>
<polygon fill="midnightblue" stroke="midnightblue" points="307.51,-132.63 296.98,-131.52 304.52,-138.96 307.51,-132.63"/>
</g>
<!-- Node5&#45;&gt;Node16 -->
<g id="edge19" class="edge">
<title>Node5&#45;&gt;Node16</title>
<path fill="none" stroke="midnightblue" d="M406.44,-168.43C420.27,-159.53 442.36,-145.12 461,-132 484.64,-115.37 511.16,-95.35 528.64,-81.96"/>
<polygon fill="midnightblue" stroke="midnightblue" points="531.09,-84.49 536.89,-75.62 526.83,-78.94 531.09,-84.49"/>
</g>
<!-- Node18 -->
<g id="node18" class="node">
<title>Node18</title>
<g id="a_node18"><a xlink:title=" ">
<polygon fill="white" stroke="#bfbfbf" points="396,-112.5 396,-131.5 452,-131.5 452,-112.5 396,-112.5"/>
<text text-anchor="middle" x="424" y="-119.5" font-family="Helvetica,sans-Serif" font-size="10.00">sstream</text>
</a>
</g>
</g>
<!-- Node5&#45;&gt;Node18 -->
<g id="edge20" class="edge">
<title>Node5&#45;&gt;Node18</title>
<path fill="none" stroke="midnightblue" d="M398.12,-168.08C402.41,-160.61 408.66,-149.72 413.94,-140.52"/>
<polygon fill="midnightblue" stroke="midnightblue" points="417.03,-142.17 418.98,-131.75 410.96,-138.68 417.03,-142.17"/>
</g>
<!-- Node6&#45;&gt;Node7 -->
<g id="edge6" class="edge">
<title>Node6&#45;&gt;Node7</title>
<path fill="none" stroke="midnightblue" d="M262.8,-56.45C223.1,-48.39 162.43,-35.58 101.14,-20.17"/>
<polygon fill="midnightblue" stroke="midnightblue" points="101.86,-16.74 91.3,-17.67 100.13,-23.52 101.86,-16.74"/>
</g>
<!-- Node6&#45;&gt;Node8 -->
<g id="edge7" class="edge">
<title>Node6&#45;&gt;Node8</title>
<path fill="none" stroke="midnightblue" d="M362.02,-57.22C365.06,-56.8 368.06,-56.4 371,-56 483.81,-40.77 617.65,-23.35 679.09,-15.38"/>
<polygon fill="midnightblue" stroke="midnightblue" points="679.89,-18.81 689.36,-14.05 678.99,-11.87 679.89,-18.81"/>
</g>
<!-- Node10 -->
<g id="node10" class="node">
<title>Node10</title>
<g id="a_node10"><a xlink:href="nonstd_8h.html" target="_top" xlink:title=" ">
<polygon fill="white" stroke="black" points="142,-56.5 142,-75.5 232,-75.5 232,-56.5 142,-56.5"/>
<text text-anchor="middle" x="187" y="-63.5" font-family="Helvetica,sans-Serif" font-size="10.00">ccf/ds/nonstd.h</text>
</a>
</g>
</g>
<!-- Node9&#45;&gt;Node10 -->
<g id="edge9" class="edge">
<title>Node9&#45;&gt;Node10</title>
<path fill="none" stroke="midnightblue" d="M264.22,-112.32C249.73,-103.82 227.43,-90.73 210.51,-80.8"/>
<polygon fill="midnightblue" stroke="midnightblue" points="212.14,-77.7 201.74,-75.65 208.6,-83.74 212.14,-77.7"/>
</g>
<!-- Node9&#45;&gt;Node16 -->
<g id="edge17" class="edge">
<title>Node9&#45;&gt;Node16</title>
<path fill="none" stroke="midnightblue" d="M321.62,-112.44C369.58,-102.82 447.38,-87.2 498.12,-77.01"/>
<polygon fill="midnightblue" stroke="midnightblue" points="499.09,-80.39 508.21,-74.99 497.71,-73.53 499.09,-80.39"/>
</g>
<!-- Node17 -->
<g id="node17" class="node">
<title>Node17</title>
<g id="a_node17"><a xlink:title=" ">
<polygon fill="white" stroke="#bfbfbf" points="380,-56.5 380,-75.5 490,-75.5 490,-56.5 380,-56.5"/>
<text text-anchor="middle" x="435" y="-63.5" font-family="Helvetica,sans-Serif" font-size="10.00">nlohmann/json.hpp</text>
</a>
</g>
</g>
<!-- Node9&#45;&gt;Node17 -->
<g id="edge18" class="edge">
<title>Node9&#45;&gt;Node17</title>
<path fill="none" stroke="midnightblue" d="M303.72,-112.44C329.85,-103.4 371.26,-89.06 400.58,-78.92"/>
<polygon fill="midnightblue" stroke="midnightblue" points="402.09,-82.1 410.4,-75.52 399.8,-75.48 402.09,-82.1"/>
</g>
<!-- Node10&#45;&gt;Node7 -->
<g id="edge13" class="edge">
<title>Node10&#45;&gt;Node7</title>
<path fill="none" stroke="midnightblue" d="M168.3,-56.44C149.06,-47.64 118.85,-33.81 96.8,-23.72"/>
<polygon fill="midnightblue" stroke="midnightblue" points="98.16,-20.5 87.61,-19.52 95.25,-26.86 98.16,-20.5"/>
</g>
<!-- Node10&#45;&gt;Node8 -->
<g id="edge16" class="edge">
<title>Node10&#45;&gt;Node8</title>
<path fill="none" stroke="midnightblue" d="M232.05,-57.25C235.07,-56.8 238.08,-56.38 241,-56 326.17,-44.86 586.18,-21.97 679.35,-13.9"/>
<polygon fill="midnightblue" stroke="midnightblue" points="679.69,-17.38 689.35,-13.03 679.09,-10.41 679.69,-17.38"/>
</g>
<!-- Node11 -->
<g id="node11" class="node">
<title>Node11</title>
<g id="a_node11"><a xlink:title=" ">
<polygon fill="white" stroke="#bfbfbf" points="324,-0.5 324,-19.5 388,-19.5 388,-0.5 324,-0.5"/>
<text text-anchor="middle" x="356" y="-7.5" font-family="Helvetica,sans-Serif" font-size="10.00">algorithm</text>
</a>
</g>
</g>
<!-- Node10&#45;&gt;Node11 -->
<g id="edge10" class="edge">
<title>Node10&#45;&gt;Node11</title>
<path fill="none" stroke="midnightblue" d="M213.78,-56.44C242.33,-47.32 287.73,-32.81 319.54,-22.65"/>
<polygon fill="midnightblue" stroke="midnightblue" points="320.89,-25.89 329.35,-19.52 318.76,-19.23 320.89,-25.89"/>
</g>
<!-- Node12 -->
<g id="node12" class="node">
<title>Node12</title>
<g id="a_node12"><a xlink:title=" ">
<polygon fill="white" stroke="#bfbfbf" points="109,-0.5 109,-19.5 151,-19.5 151,-0.5 109,-0.5"/>
<text text-anchor="middle" x="130" y="-7.5" font-family="Helvetica,sans-Serif" font-size="10.00">array</text>
</a>
</g>
</g>
<!-- Node10&#45;&gt;Node12 -->
<g id="edge11" class="edge">
<title>Node10&#45;&gt;Node12</title>
<path fill="none" stroke="midnightblue" d="M177.84,-56.32C169.5,-48.42 156.97,-36.55 146.82,-26.94"/>
<polygon fill="midnightblue" stroke="midnightblue" points="148.99,-24.17 139.32,-19.83 144.18,-29.25 148.99,-24.17"/>
</g>
<!-- Node13 -->
<g id="node13" class="node">
<title>Node13</title>
<g id="a_node13"><a xlink:title=" ">
<polygon fill="white" stroke="#bfbfbf" points="169.5,-0.5 169.5,-19.5 218.5,-19.5 218.5,-0.5 169.5,-0.5"/>
<text text-anchor="middle" x="194" y="-7.5" font-family="Helvetica,sans-Serif" font-size="10.00">cctype</text>
</a>
</g>
</g>
<!-- Node10&#45;&gt;Node13 -->
<g id="edge12" class="edge">
<title>Node10&#45;&gt;Node13</title>
<path fill="none" stroke="midnightblue" d="M188.16,-56.08C189.08,-48.93 190.42,-38.64 191.58,-29.69"/>
<polygon fill="midnightblue" stroke="midnightblue" points="195.05,-30.12 192.87,-19.75 188.11,-29.22 195.05,-30.12"/>
</g>
<!-- Node14 -->
<g id="node14" class="node">
<title>Node14</title>
<g id="a_node14"><a xlink:title=" ">
<polygon fill="white" stroke="#bfbfbf" points="515.5,-0.5 515.5,-19.5 588.5,-19.5 588.5,-0.5 515.5,-0.5"/>
<text text-anchor="middle" x="552" y="-7.5" font-family="Helvetica,sans-Serif" font-size="10.00">string_view</text>
</a>
</g>
</g>
<!-- Node10&#45;&gt;Node14 -->
<g id="edge14" class="edge">
<title>Node10&#45;&gt;Node14</title>
<path fill="none" stroke="midnightblue" d="M232.07,-57.41C235.09,-56.93 238.09,-56.45 241,-56 334.51,-41.44 444.09,-25.95 505.02,-17.48"/>
<polygon fill="midnightblue" stroke="midnightblue" points="505.68,-20.92 515.1,-16.08 504.71,-13.99 505.68,-20.92"/>
</g>
<!-- Node15 -->
<g id="node15" class="node">
<title>Node15</title>
<g id="a_node15"><a xlink:title=" ">
<polygon fill="white" stroke="#bfbfbf" points="236.5,-0.5 236.5,-19.5 305.5,-19.5 305.5,-0.5 236.5,-0.5"/>
<text text-anchor="middle" x="271" y="-7.5" font-family="Helvetica,sans-Serif" font-size="10.00">type_traits</text>
</a>
</g>
</g>
<!-- Node10&#45;&gt;Node15 -->
<g id="edge15" class="edge">
<title>Node10&#45;&gt;Node15</title>
<path fill="none" stroke="midnightblue" d="M200.5,-56.32C213.6,-47.9 233.71,-34.97 249.11,-25.07"/>
<polygon fill="midnightblue" stroke="midnightblue" points="251.02,-28.01 257.54,-19.65 247.23,-22.12 251.02,-28.01"/>
</g>
<!-- Node19&#45;&gt;Node16 -->
<g id="edge22" class="edge">
<title>Node19&#45;&gt;Node16</title>
<path fill="none" stroke="midnightblue" d="M555.37,-168.37C554.08,-150.62 551.1,-109.67 549.35,-85.6"/>
<polygon fill="midnightblue" stroke="midnightblue" points="552.84,-85.31 548.62,-75.59 545.86,-85.82 552.84,-85.31"/>
</g>
<!-- Node21&#45;&gt;Node5 -->
<g id="edge28" class="edge">
<title>Node21&#45;&gt;Node5</title>
<path fill="none" stroke="midnightblue" d="M786.85,-280.46C710.31,-260.74 521.31,-212.05 436,-190.08"/>
<polygon fill="midnightblue" stroke="midnightblue" points="436.69,-186.64 426.13,-187.53 434.94,-193.42 436.69,-186.64"/>
</g>
<!-- Node21&#45;&gt;Node8 -->
<g id="edge34" class="edge">
<title>Node21&#45;&gt;Node8</title>
<path fill="none" stroke="midnightblue" d="M869.2,-282.8C917.74,-275.72 987.42,-262.66 1007,-244 1028.79,-223.24 1026,-209.1 1026,-179 1026,-179 1026,-179 1026,-121 1026,-62.29 827.54,-27.33 746.68,-15.53"/>
<polygon fill="midnightblue" stroke="midnightblue" points="746.92,-12.03 736.53,-14.08 745.93,-18.96 746.92,-12.03"/>
</g>
<!-- Node21&#45;&gt;Node14 -->
<g id="edge33" class="edge">
<title>Node21&#45;&gt;Node14</title>
<path fill="none" stroke="midnightblue" d="M782.99,-280.45C747.41,-270.39 701.67,-251.5 721,-224 750.29,-182.32 846.37,-212.17 821,-168 772.82,-84.1 660.58,-40.78 597.36,-22.31"/>
<polygon fill="midnightblue" stroke="midnightblue" points="598.23,-18.92 587.66,-19.55 596.32,-25.65 598.23,-18.92"/>
</g>
<!-- Node22 -->
<g id="node22" class="node">
<title>Node22</title>
<g id="a_node22"><a xlink:title=" ">
<polygon fill="white" stroke="#bfbfbf" points="864,-224.5 864,-243.5 914,-243.5 914,-224.5 864,-224.5"/>
<text text-anchor="middle" x="889" y="-231.5" font-family="Helvetica,sans-Serif" font-size="10.00">cstring</text>
</a>
</g>
</g>
<!-- Node21&#45;&gt;Node22 -->
<g id="edge29" class="edge">
<title>Node21&#45;&gt;Node22</title>
<path fill="none" stroke="midnightblue" d="M831.09,-280.32C841.49,-272.18 857.26,-259.84 869.72,-250.09"/>
<polygon fill="midnightblue" stroke="midnightblue" points="871.99,-252.75 877.71,-243.83 867.68,-247.24 871.99,-252.75"/>
</g>
<!-- Node23 -->
<g id="node23" class="node">
<title>Node23</title>
<g id="a_node23"><a xlink:title=" ">
<polygon fill="white" stroke="#bfbfbf" points="932.5,-224.5 932.5,-243.5 997.5,-243.5 997.5,-224.5 932.5,-224.5"/>
<text text-anchor="middle" x="965" y="-231.5" font-family="Helvetica,sans-Serif" font-size="10.00">exception</text>
</a>
</g>
</g>
<!-- Node21&#45;&gt;Node23 -->
<g id="edge30" class="edge">
<title>Node21&#45;&gt;Node23</title>
<path fill="none" stroke="midnightblue" d="M842.98,-280.44C867.16,-271.44 905.42,-257.19 932.65,-247.05"/>
<polygon fill="midnightblue" stroke="midnightblue" points="933.98,-250.29 942.13,-243.52 931.54,-243.73 933.98,-250.29"/>
</g>
<!-- Node24 -->
<g id="node24" class="node">
<title>Node24</title>
<g id="a_node24"><a xlink:title=" ">
<polygon fill="white" stroke="#bfbfbf" points="730,-224.5 730,-243.5 788,-243.5 788,-224.5 730,-224.5"/>
<text text-anchor="middle" x="759" y="-231.5" font-family="Helvetica,sans-Serif" font-size="10.00">memory</text>
</a>
</g>
</g>
<!-- Node21&#45;&gt;Node24 -->
<g id="edge31" class="edge">
<title>Node21&#45;&gt;Node24</title>
<path fill="none" stroke="midnightblue" d="M810.2,-280.32C801.18,-272.34 787.59,-260.31 776.68,-250.65"/>
<polygon fill="midnightblue" stroke="midnightblue" points="778.79,-247.84 768.98,-243.83 774.15,-253.08 778.79,-247.84"/>
</g>
<!-- Node25 -->
<g id="node25" class="node">
<title>Node25</title>
<g id="a_node25"><a xlink:title=" ">
<polygon fill="white" stroke="#bfbfbf" points="806,-224.5 806,-243.5 846,-243.5 846,-224.5 806,-224.5"/>
<text text-anchor="middle" x="826" y="-231.5" font-family="Helvetica,sans-Serif" font-size="10.00">span</text>
</a>
</g>
</g>
<!-- Node21&#45;&gt;Node25 -->
<g id="edge32" class="edge">
<title>Node21&#45;&gt;Node25</title>
<path fill="none" stroke="midnightblue" d="M820.99,-280.08C821.79,-272.93 822.93,-262.64 823.92,-253.69"/>
<polygon fill="midnightblue" stroke="midnightblue" points="827.4,-254.08 825.03,-243.75 820.44,-253.3 827.4,-254.08"/>
</g>
<!-- Node26&#45;&gt;Node3 -->
<g id="edge36" class="edge">
<title>Node26&#45;&gt;Node3</title>
<path fill="none" stroke="midnightblue" d="M599,-336.44C567.82,-327.24 518.07,-312.56 483.59,-302.39"/>
<polygon fill="midnightblue" stroke="midnightblue" points="484.44,-298.99 473.86,-299.52 482.46,-305.7 484.44,-298.99"/>
</g>
<!-- Node26&#45;&gt;Node7 -->
<g id="edge47" class="edge">
<title>Node26&#45;&gt;Node7</title>
<path fill="none" stroke="midnightblue" d="M564.3,-339.76C411.74,-326.35 38,-288.07 38,-235 38,-235 38,-235 38,-121 38,-87.41 51.56,-50.14 60.74,-28.75"/>
<polygon fill="midnightblue" stroke="midnightblue" points="63.94,-30.17 64.82,-19.61 57.55,-27.31 63.94,-30.17"/>
</g>
<!-- Node26&#45;&gt;Node8 -->
<g id="edge48" class="edge">
<title>Node26&#45;&gt;Node8</title>
<path fill="none" stroke="midnightblue" d="M629.4,-336.12C631.44,-323.56 635.47,-299.92 640,-280 661.63,-184.94 694.43,-72.9 707.42,-29.48"/>
<polygon fill="midnightblue" stroke="midnightblue" points="710.81,-30.34 710.34,-19.76 704.11,-28.33 710.81,-30.34"/>
</g>
<!-- Node26&#45;&gt;Node21 -->
<g id="edge39" class="edge">
<title>Node26&#45;&gt;Node21</title>
<path fill="none" stroke="midnightblue" d="M658.42,-336.44C691.28,-327.2 743.78,-312.44 779.97,-302.26"/>
<polygon fill="midnightblue" stroke="midnightblue" points="781.04,-305.59 789.72,-299.52 779.15,-298.85 781.04,-305.59"/>
</g>
<!-- Node27 -->
<g id="node27" class="node">
<title>Node27</title>
<g id="a_node27"><a xlink:href="hash__bytes_8h.html" target="_top" xlink:title=" ">
<polygon fill="white" stroke="black" points="680,-168.5 680,-187.5 812,-187.5 812,-168.5 680,-168.5"/>
<text text-anchor="middle" x="746" y="-175.5" font-family="Helvetica,sans-Serif" font-size="10.00">ccf/crypto/hash_bytes.h</text>
</a>
</g>
</g>
<!-- Node26&#45;&gt;Node27 -->
<g id="edge37" class="edge">
<title>Node26&#45;&gt;Node27</title>
<path fill="none" stroke="midnightblue" d="M630.77,-336.33C637.79,-315.34 657.86,-260.84 688,-224 697.9,-211.89 711.64,-201.05 723.26,-193.05"/>
<polygon fill="midnightblue" stroke="midnightblue" points="725.23,-195.94 731.63,-187.5 721.36,-190.11 725.23,-195.94"/>
</g>
<!-- Node26&#45;&gt;Node28 -->
<g id="edge40" class="edge">
<title>Node26&#45;&gt;Node28</title>
<path fill="none" stroke="midnightblue" d="M577.38,-336.47C527.92,-327.95 450.58,-314.11 384,-300 303.07,-282.84 209.36,-259.61 156.04,-246.07"/>
<polygon fill="midnightblue" stroke="midnightblue" points="156.8,-242.65 146.25,-243.58 155.07,-249.44 156.8,-242.65"/>
</g>
<!-- Node26&#45;&gt;Node29 -->
<g id="edge45" class="edge">
<title>Node26&#45;&gt;Node29</title>
<path fill="none" stroke="midnightblue" d="M617.07,-336.32C606.83,-328.18 591.28,-315.84 579,-306.09"/>
<polygon fill="midnightblue" stroke="midnightblue" points="581.13,-303.31 571.12,-299.83 576.78,-308.79 581.13,-303.31"/>
</g>
<!-- Node26&#45;&gt;Node30 -->
<g id="edge46" class="edge">
<title>Node26&#45;&gt;Node30</title>
<path fill="none" stroke="midnightblue" d="M642.78,-336.32C657.27,-327.82 679.57,-314.73 696.49,-304.8"/>
<polygon fill="midnightblue" stroke="midnightblue" points="698.4,-307.74 705.26,-299.65 694.86,-301.7 698.4,-307.74"/>
</g>
<!-- Node27&#45;&gt;Node8 -->
<g id="edge38" class="edge">
<title>Node27&#45;&gt;Node8</title>
<path fill="none" stroke="midnightblue" d="M744.23,-168.08C739.03,-141.95 723.78,-65.21 716.69,-29.58"/>
<polygon fill="midnightblue" stroke="midnightblue" points="720.09,-28.69 714.7,-19.57 713.22,-30.06 720.09,-28.69"/>
</g>
<!-- Node28&#45;&gt;Node5 -->
<g id="edge41" class="edge">
<title>Node28&#45;&gt;Node5</title>
<path fill="none" stroke="midnightblue" d="M157.37,-224.44C208.25,-214.63 291.43,-198.59 344.14,-188.42"/>
<polygon fill="midnightblue" stroke="midnightblue" points="345.09,-191.8 354.25,-186.47 343.77,-184.93 345.09,-191.8"/>
</g>
<!-- Node28&#45;&gt;Node7 -->
<g id="edge44" class="edge">
<title>Node28&#45;&gt;Node7</title>
<path fill="none" stroke="midnightblue" d="M110.23,-224.45C107.39,-215.45 102.97,-200.83 100,-188 86.79,-130.88 76.27,-62.24 71.61,-29.78"/>
<polygon fill="midnightblue" stroke="midnightblue" points="75.03,-28.95 70.16,-19.54 68.1,-29.93 75.03,-28.95"/>
</g>
<!-- Node28&#45;&gt;Node10 -->
<g id="edge42" class="edge">
<title>Node28&#45;&gt;Node10</title>
<path fill="none" stroke="midnightblue" d="M116.98,-224.08C128.68,-197.83 163.13,-120.55 178.92,-85.12"/>
<polygon fill="midnightblue" stroke="midnightblue" points="182.31,-86.13 183.18,-75.57 175.91,-83.28 182.31,-86.13"/>
</g>
<!-- Node28&#45;&gt;Node16 -->
<g id="edge43" class="edge">
<title>Node28&#45;&gt;Node16</title>
<path fill="none" stroke="midnightblue" d="M134.73,-224.38C176.64,-207.61 271.34,-168.98 349,-132 366.23,-123.79 369.27,-119.05 387,-112 423.38,-97.53 466.13,-85.82 498.43,-77.97"/>
<polygon fill="midnightblue" stroke="midnightblue" points="499.61,-81.29 508.52,-75.56 497.99,-74.48 499.61,-81.29"/>
</g>
</g>
</svg>
        <g id="navigator" transform="translate(0 0)" fill="#404254">
                <rect fill="#f2f5e9" fill-opacity="0.5" stroke="#606060" stroke-width=".5" x="0" y="0" width="60" height="60"/>
                <use id="zoomplus" xlink:href="#zoomPlus" x="17" y="9" onmousedown="handleZoom(evt,'in')"/>
                <use id="zoomminus" xlink:href="#zoomMin" x="42" y="9" onmousedown="handleZoom(evt,'out')"/>
                <use id="reset" xlink:href="#resetDef" x="30" y="36" onmousedown="handleReset()"/>
                <g id="arrowUp" xlink:href="#dirArrow" transform="translate(30 24)" onmousedown="handlePan(0,-1)">
                  <use xlink:href="#rim" fill="#404040">
                        <set attributeName="fill" to="#808080" begin="arrowUp.mouseover" end="arrowUp.mouseout"/>
                  </use>
                  <path fill="none" stroke="white" stroke-width="1.5" d="M0,-3.0v7 M-2.5,-0.5L0,-3.0L2.5,-0.5"/>
                </g>
                <g id="arrowRight" xlink:href="#dirArrow" transform="rotate(90) translate(36 -43)" onmousedown="handlePan(1,0)">
                  <use xlink:href="#rim" fill="#404040">
                        <set attributeName="fill" to="#808080" begin="arrowRight.mouseover" end="arrowRight.mouseout"/>
                  </use>
                  <path fill="none" stroke="white" stroke-width="1.5" d="M0,-3.0v7 M-2.5,-0.5L0,-3.0L2.5,-0.5"/>
                </g>
                <g id="arrowDown" xlink:href="#dirArrow" transform="rotate(180) translate(-30 -48)" onmousedown="handlePan(0,1)">
                  <use xlink:href="#rim" fill="#404040">
                        <set attributeName="fill" to="#808080" begin="arrowDown.mouseover" end="arrowDown.mouseout"/>
                  </use>
                  <path fill="none" stroke="white" stroke-width="1.5" d="M0,-3.0v7 M-2.5,-0.5L0,-3.0L2.5,-0.5"/>
                </g>
                <g id="arrowLeft" xlink:href="#dirArrow" transform="rotate(270) translate(-36 17)" onmousedown="handlePan(-1,0)">
                  <use xlink:href="#rim" fill="#404040">
                        <set attributeName="fill" to="#808080" begin="arrowLeft.mouseover" end="arrowLeft.mouseout"/>
                  </use>
                  <path fill="none" stroke="white" stroke-width="1.5" d="M0,-3.0v7 M-2.5,-0.5L0,-3.0L2.5,-0.5"/>
                </g>
        </g>
        <svg viewBox="0 0 15 15" width="100%" height="30px" preserveAspectRatio="xMaxYMin meet">
         <g id="arrow_out" transform="scale(0.3 0.3)">
          <a xlink:href="include_2ccf_2crypto_2verifier_8h__incl_org.svg" target="_base">
           <rect id="button" ry="5" rx="5" y="6" x="6" height="38" width="38"
                fill="#f2f5e9" fill-opacity="0.5" stroke="#606060" stroke-width="1.0"/>
           <path id="arrow"
             d="M 11.500037,31.436501 C 11.940474,20.09759 22.043105,11.32322 32.158766,21.979434 L 37.068811,17.246167 C 37.068811,17.246167 37.088388,32 37.088388,32 L 22.160133,31.978069 C 22.160133,31.978069 26.997745,27.140456 26.997745,27.140456 C 18.528582,18.264221 13.291696,25.230495 11.500037,31.436501 z"
             style="fill:#404040;"/>
          </a>
         </g>
        </svg>
</svg>
