<?xml version="1.0" encoding="UTF-8" standalone="no"?>
<!DOCTYPE svg PUBLIC "-//W3C//DTD SVG 1.1//EN"
 "http://www.w3.org/Graphics/SVG/1.1/DTD/svg11.dtd">
<!-- Generated by graphviz version 2.43.0 (0)
 -->
<!-- Title: Graphical Class Hierarchy Pages: 1 -->
<svg width="274pt" height="66pt"
 viewBox="0.00 0.00 274.00 66.00" xmlns="http://www.w3.org/2000/svg" xmlns:xlink="http://www.w3.org/1999/xlink">
<g id="graph0" class="graph" transform="scale(1 1) rotate(0) translate(4 62)">
<title>Graphical Class Hierarchy</title>
<polygon fill="white" stroke="transparent" points="-4,4 -4,-62 270,-62 270,4 -4,4"/>
<!-- Node0 -->
<g id="node1" class="node">
<title>Node0</title>
<g id="a_node1"><a xlink:href="classkv_1_1TxHistory.html" target="_top" xlink:title=" ">
<polygon fill="white" stroke="black" points="0,-19.5 0,-38.5 81,-38.5 81,-19.5 0,-19.5"/>
<text text-anchor="middle" x="40.5" y="-26.5" font-family="Helvetica,sans-Serif" font-size="10.00">kv::TxHistory</text>
</a>
</g>
</g>
<!-- Node1 -->
<g id="node2" class="node">
<title>Node1</title>
<g id="a_node2"><a xlink:href="classccf_1_1HashedTxHistory.html" target="_top" xlink:title=" ">
<polygon fill="white" stroke="black" points="117,-38.5 117,-57.5 266,-57.5 266,-38.5 117,-38.5"/>
<text text-anchor="middle" x="191.5" y="-45.5" font-family="Helvetica,sans-Serif" font-size="10.00">ccf::HashedTxHistory&lt; T &gt;</text>
</a>
</g>
</g>
<!-- Node0&#45;&gt;Node1 -->
<g id="edge1" class="edge">
<title>Node0&#45;&gt;Node1</title>
<path fill="none" stroke="midnightblue" d="M91.18,-35.34C99.41,-36.38 108.09,-37.49 116.76,-38.6"/>
<polygon fill="midnightblue" stroke="midnightblue" points="91.4,-31.83 81.04,-34.04 90.52,-38.78 91.4,-31.83"/>
</g>
<!-- Node2 -->
<g id="node3" class="node">
<title>Node2</title>
<g id="a_node3"><a xlink:href="classccf_1_1NullTxHistory.html" target="_top" xlink:title=" ">
<polygon fill="white" stroke="black" points="140,-0.5 140,-19.5 243,-19.5 243,-0.5 140,-0.5"/>
<text text-anchor="middle" x="191.5" y="-7.5" font-family="Helvetica,sans-Serif" font-size="10.00">ccf::NullTxHistory</text>
</a>
</g>
</g>
<!-- Node0&#45;&gt;Node2 -->
<g id="edge2" class="edge">
<title>Node0&#45;&gt;Node2</title>
<path fill="none" stroke="midnightblue" d="M91.06,-22.68C106.72,-20.68 124.05,-18.47 139.8,-16.47"/>
<polygon fill="midnightblue" stroke="midnightblue" points="90.52,-19.22 81.04,-23.96 91.4,-26.17 90.52,-19.22"/>
</g>
</g>
</svg>
