<?xml version="1.0" encoding="UTF-8" standalone="no"?>
<!DOCTYPE svg PUBLIC "-//W3C//DTD SVG 1.1//EN"
 "http://www.w3.org/Graphics/SVG/1.1/DTD/svg11.dtd">
<!-- Generated by graphviz version 2.43.0 (0)
 -->
<!-- Title: Graphical Class Hierarchy Pages: 1 -->
<svg width="317pt" height="306pt"
 viewBox="0.00 0.00 317.00 306.00" xmlns="http://www.w3.org/2000/svg" xmlns:xlink="http://www.w3.org/1999/xlink">
<g id="graph0" class="graph" transform="scale(1 1) rotate(0) translate(4 302)">
<title>Graphical Class Hierarchy</title>
<polygon fill="white" stroke="transparent" points="-4,4 -4,-302 313,-302 313,4 -4,4"/>
<!-- Node0 -->
<g id="node1" class="node">
<title>Node0</title>
<g id="a_node1"><a xlink:href="structccf_1_1AuthnIdentity.html" target="_top" xlink:title=" ">
<polygon fill="white" stroke="black" points="0,-136.5 0,-155.5 102,-155.5 102,-136.5 0,-136.5"/>
<text text-anchor="middle" x="51" y="-143.5" font-family="Helvetica,sans-Serif" font-size="10.00">ccf::AuthnIdentity</text>
</a>
</g>
</g>
<!-- Node1 -->
<g id="node2" class="node">
<title>Node1</title>
<g id="a_node2"><a xlink:href="structccf_1_1EmptyAuthnIdentity.html" target="_top" xlink:title=" ">
<polygon fill="white" stroke="black" points="156.5,-278.5 156.5,-297.5 290.5,-297.5 290.5,-278.5 156.5,-278.5"/>
<text text-anchor="middle" x="223.5" y="-285.5" font-family="Helvetica,sans-Serif" font-size="10.00">ccf::EmptyAuthnIdentity</text>
</a>
</g>
</g>
<!-- Node0&#45;&gt;Node1 -->
<g id="edge1" class="edge">
<title>Node0&#45;&gt;Node1</title>
<path fill="none" stroke="midnightblue" d="M59.94,-165.17C72.36,-192.67 99.05,-242.87 138,-269 143.74,-272.85 150.15,-275.94 156.8,-278.4"/>
<polygon fill="midnightblue" stroke="midnightblue" points="63.08,-163.62 55.88,-155.84 56.66,-166.41 63.08,-163.62"/>
</g>
<!-- Node2 -->
<g id="node3" class="node">
<title>Node2</title>
<g id="a_node3"><a xlink:href="structccf_1_1JwtAuthnIdentity.html" target="_top" xlink:title=" ">
<polygon fill="white" stroke="black" points="165,-240.5 165,-259.5 282,-259.5 282,-240.5 165,-240.5"/>
<text text-anchor="middle" x="223.5" y="-247.5" font-family="Helvetica,sans-Serif" font-size="10.00">ccf::JwtAuthnIdentity</text>
</a>
</g>
</g>
<!-- Node0&#45;&gt;Node2 -->
<g id="edge2" class="edge">
<title>Node0&#45;&gt;Node2</title>
<path fill="none" stroke="midnightblue" d="M64.94,-163.75C80.18,-183.32 107.33,-214.23 138,-231 146.18,-235.47 155.35,-238.89 164.56,-241.51"/>
<polygon fill="midnightblue" stroke="midnightblue" points="67.63,-161.52 58.81,-155.66 62.05,-165.74 67.63,-161.52"/>
</g>
<!-- Node3 -->
<g id="node4" class="node">
<title>Node3</title>
<g id="a_node4"><a xlink:href="structccf_1_1MemberCertAuthnIdentity.html" target="_top" xlink:title=" ">
<polygon fill="white" stroke="black" points="142,-202.5 142,-221.5 305,-221.5 305,-202.5 142,-202.5"/>
<text text-anchor="middle" x="223.5" y="-209.5" font-family="Helvetica,sans-Serif" font-size="10.00">ccf::MemberCertAuthnIdentity</text>
</a>
</g>
</g>
<!-- Node0&#45;&gt;Node3 -->
<g id="edge3" class="edge">
<title>Node0&#45;&gt;Node3</title>
<path fill="none" stroke="midnightblue" d="M75.22,-161.01C92.06,-171.31 115.7,-184.59 138,-193 147.99,-196.77 158.94,-199.91 169.54,-202.48"/>
<polygon fill="midnightblue" stroke="midnightblue" points="76.95,-157.97 66.62,-155.65 73.25,-163.91 76.95,-157.97"/>
</g>
<!-- Node4 -->
<g id="node5" class="node">
<title>Node4</title>
<g id="a_node5"><a xlink:href="structccf_1_1MemberSignatureAuthnIdentity.html" target="_top" xlink:title=" ">
<polygon fill="white" stroke="black" points="147.5,-153 147.5,-183 299.5,-183 299.5,-153 147.5,-153"/>
<text text-anchor="start" x="155.5" y="-171" font-family="Helvetica,sans-Serif" font-size="10.00">ccf::MemberSignatureAuthn</text>
<text text-anchor="middle" x="223.5" y="-160" font-family="Helvetica,sans-Serif" font-size="10.00">Identity</text>
</a>
</g>
</g>
<!-- Node0&#45;&gt;Node4 -->
<g id="edge4" class="edge">
<title>Node0&#45;&gt;Node4</title>
<path fill="none" stroke="midnightblue" d="M112.41,-153.79C123.71,-155.25 135.66,-156.79 147.34,-158.3"/>
<polygon fill="midnightblue" stroke="midnightblue" points="112.6,-150.29 102.23,-152.48 111.7,-157.23 112.6,-150.29"/>
</g>
<!-- Node5 -->
<g id="node6" class="node">
<title>Node5</title>
<g id="a_node6"><a xlink:href="structccf_1_1NodeCertAuthnIdentity.html" target="_top" xlink:title=" ">
<polygon fill="white" stroke="black" points="149.5,-114.5 149.5,-133.5 297.5,-133.5 297.5,-114.5 149.5,-114.5"/>
<text text-anchor="middle" x="223.5" y="-121.5" font-family="Helvetica,sans-Serif" font-size="10.00">ccf::NodeCertAuthnIdentity</text>
</a>
</g>
</g>
<!-- Node0&#45;&gt;Node5 -->
<g id="edge5" class="edge">
<title>Node0&#45;&gt;Node5</title>
<path fill="none" stroke="midnightblue" d="M112.48,-138.2C124.38,-136.66 136.98,-135.03 149.25,-133.45"/>
<polygon fill="midnightblue" stroke="midnightblue" points="111.7,-134.77 102.23,-139.52 112.6,-141.71 111.7,-134.77"/>
</g>
<!-- Node6 -->
<g id="node7" class="node">
<title>Node6</title>
<g id="a_node7"><a xlink:href="structccf_1_1UserCertAuthnIdentity.html" target="_top" xlink:title=" ">
<polygon fill="white" stroke="black" points="151,-76.5 151,-95.5 296,-95.5 296,-76.5 151,-76.5"/>
<text text-anchor="middle" x="223.5" y="-83.5" font-family="Helvetica,sans-Serif" font-size="10.00">ccf::UserCertAuthnIdentity</text>
</a>
</g>
</g>
<!-- Node0&#45;&gt;Node6 -->
<g id="edge6" class="edge">
<title>Node0&#45;&gt;Node6</title>
<path fill="none" stroke="midnightblue" d="M78.43,-131.5C95.12,-122.83 117.35,-112.14 138,-105 148.66,-101.31 160.32,-98.16 171.49,-95.53"/>
<polygon fill="midnightblue" stroke="midnightblue" points="76.5,-128.56 69.3,-136.33 79.78,-134.75 76.5,-128.56"/>
</g>
<!-- Node7 -->
<g id="node8" class="node">
<title>Node7</title>
<g id="a_node8"><a xlink:href="structccf_1_1UserSignatureAuthnIdentity.html" target="_top" xlink:title=" ">
<polygon fill="white" stroke="black" points="138,-38.5 138,-57.5 309,-57.5 309,-38.5 138,-38.5"/>
<text text-anchor="middle" x="223.5" y="-45.5" font-family="Helvetica,sans-Serif" font-size="10.00">ccf::UserSignatureAuthnIdentity</text>
</a>
</g>
</g>
<!-- Node0&#45;&gt;Node7 -->
<g id="edge7" class="edge">
<title>Node0&#45;&gt;Node7</title>
<path fill="none" stroke="midnightblue" d="M66.38,-128.17C82.05,-109.96 108.82,-82.27 138,-67 145.46,-63.1 153.7,-59.99 162.02,-57.52"/>
<polygon fill="midnightblue" stroke="midnightblue" points="63.35,-126.34 59.61,-136.25 68.72,-130.83 63.35,-126.34"/>
</g>
<!-- Node8 -->
<g id="node9" class="node">
<title>Node8</title>
<g id="a_node9"><a xlink:href="structloggingapp_1_1CustomIdentity.html" target="_top" xlink:title=" ">
<polygon fill="white" stroke="black" points="147.5,-0.5 147.5,-19.5 299.5,-19.5 299.5,-0.5 147.5,-0.5"/>
<text text-anchor="middle" x="223.5" y="-7.5" font-family="Helvetica,sans-Serif" font-size="10.00">loggingapp::CustomIdentity</text>
</a>
</g>
</g>
<!-- Node0&#45;&gt;Node8 -->
<g id="edge8" class="edge">
<title>Node0&#45;&gt;Node8</title>
<path fill="none" stroke="midnightblue" d="M60.55,-127.02C73.44,-100.7 100.37,-53.6 138,-29 143.92,-25.13 150.51,-22.04 157.33,-19.58"/>
<polygon fill="midnightblue" stroke="midnightblue" points="57.28,-125.76 56.18,-136.3 63.61,-128.75 57.28,-125.76"/>
</g>
</g>
</svg>
