<?xml version="1.0" encoding="UTF-8" standalone="no"?>
<!DOCTYPE svg PUBLIC "-//W3C//DTD SVG 1.1//EN"
 "http://www.w3.org/Graphics/SVG/1.1/DTD/svg11.dtd">
<!-- Generated by graphviz version 2.43.0 (0)
 -->
<!-- Title: Graphical Class Hierarchy Pages: 1 -->
<svg width="304pt" height="306pt"
 viewBox="0.00 0.00 304.00 306.00" xmlns="http://www.w3.org/2000/svg" xmlns:xlink="http://www.w3.org/1999/xlink">
<g id="graph0" class="graph" transform="scale(1 1) rotate(0) translate(4 302)">
<title>Graphical Class Hierarchy</title>
<polygon fill="white" stroke="transparent" points="-4,4 -4,-302 300,-302 300,4 -4,4"/>
<!-- Node0 -->
<g id="node1" class="node">
<title>Node0</title>
<g id="a_node1"><a xlink:href="classccf_1_1AuthnPolicy.html" target="_top" xlink:title=" ">
<polygon fill="white" stroke="black" points="0,-136.5 0,-155.5 94,-155.5 94,-136.5 0,-136.5"/>
<text text-anchor="middle" x="47" y="-143.5" font-family="Helvetica,sans-Serif" font-size="10.00">ccf::AuthnPolicy</text>
</a>
</g>
</g>
<!-- Node1 -->
<g id="node2" class="node">
<title>Node1</title>
<g id="a_node2"><a xlink:href="classccf_1_1EmptyAuthnPolicy.html" target="_top" xlink:title=" ">
<polygon fill="white" stroke="black" points="150.5,-278.5 150.5,-297.5 275.5,-297.5 275.5,-278.5 150.5,-278.5"/>
<text text-anchor="middle" x="213" y="-285.5" font-family="Helvetica,sans-Serif" font-size="10.00">ccf::EmptyAuthnPolicy</text>
</a>
</g>
</g>
<!-- Node0&#45;&gt;Node1 -->
<g id="edge1" class="edge">
<title>Node0&#45;&gt;Node1</title>
<path fill="none" stroke="midnightblue" d="M55.34,-165.13C66.9,-192.58 92.01,-242.72 130,-269 136.13,-273.24 143.07,-276.55 150.26,-279.12"/>
<polygon fill="midnightblue" stroke="midnightblue" points="58.57,-163.78 51.58,-155.82 52.08,-166.4 58.57,-163.78"/>
</g>
<!-- Node2 -->
<g id="node3" class="node">
<title>Node2</title>
<g id="a_node3"><a xlink:href="classccf_1_1JwtAuthnPolicy.html" target="_top" xlink:title=" ">
<polygon fill="white" stroke="black" points="158.5,-240.5 158.5,-259.5 267.5,-259.5 267.5,-240.5 158.5,-240.5"/>
<text text-anchor="middle" x="213" y="-247.5" font-family="Helvetica,sans-Serif" font-size="10.00">ccf::JwtAuthnPolicy</text>
</a>
</g>
</g>
<!-- Node0&#45;&gt;Node2 -->
<g id="edge2" class="edge">
<title>Node0&#45;&gt;Node2</title>
<path fill="none" stroke="midnightblue" d="M60.36,-164C74.78,-183.55 100.43,-214.25 130,-231 138.65,-235.9 148.48,-239.54 158.27,-242.24"/>
<polygon fill="midnightblue" stroke="midnightblue" points="63.05,-161.74 54.39,-155.64 57.36,-165.81 63.05,-161.74"/>
</g>
<!-- Node3 -->
<g id="node4" class="node">
<title>Node3</title>
<g id="a_node4"><a xlink:href="classccf_1_1MemberCertAuthnPolicy.html" target="_top" xlink:title=" ">
<polygon fill="white" stroke="black" points="135.5,-202.5 135.5,-221.5 290.5,-221.5 290.5,-202.5 135.5,-202.5"/>
<text text-anchor="middle" x="213" y="-209.5" font-family="Helvetica,sans-Serif" font-size="10.00">ccf::MemberCertAuthnPolicy</text>
</a>
</g>
</g>
<!-- Node0&#45;&gt;Node3 -->
<g id="edge3" class="edge">
<title>Node0&#45;&gt;Node3</title>
<path fill="none" stroke="midnightblue" d="M70.5,-161.31C86.49,-171.57 108.8,-184.68 130,-193 139.52,-196.74 149.97,-199.85 160.12,-202.4"/>
<polygon fill="midnightblue" stroke="midnightblue" points="72.16,-158.21 61.88,-155.65 68.32,-164.06 72.16,-158.21"/>
</g>
<!-- Node4 -->
<g id="node5" class="node">
<title>Node4</title>
<g id="a_node5"><a xlink:href="classccf_1_1MemberSignatureAuthnPolicy.html" target="_top" xlink:title=" ">
<polygon fill="white" stroke="black" points="137,-153 137,-183 289,-183 289,-153 137,-153"/>
<text text-anchor="start" x="145" y="-171" font-family="Helvetica,sans-Serif" font-size="10.00">ccf::MemberSignatureAuthn</text>
<text text-anchor="middle" x="213" y="-160" font-family="Helvetica,sans-Serif" font-size="10.00">Policy</text>
</a>
</g>
</g>
<!-- Node0&#45;&gt;Node4 -->
<g id="edge4" class="edge">
<title>Node0&#45;&gt;Node4</title>
<path fill="none" stroke="midnightblue" d="M104.33,-153.56C114.78,-154.96 125.84,-156.44 136.75,-157.9"/>
<polygon fill="midnightblue" stroke="midnightblue" points="104.5,-150.05 94.12,-152.19 103.57,-156.99 104.5,-150.05"/>
</g>
<!-- Node5 -->
<g id="node6" class="node">
<title>Node5</title>
<g id="a_node6"><a xlink:href="classccf_1_1NodeCertAuthnPolicy.html" target="_top" xlink:title=" ">
<polygon fill="white" stroke="black" points="143,-114.5 143,-133.5 283,-133.5 283,-114.5 143,-114.5"/>
<text text-anchor="middle" x="213" y="-121.5" font-family="Helvetica,sans-Serif" font-size="10.00">ccf::NodeCertAuthnPolicy</text>
</a>
</g>
</g>
<!-- Node0&#45;&gt;Node5 -->
<g id="edge5" class="edge">
<title>Node0&#45;&gt;Node5</title>
<path fill="none" stroke="midnightblue" d="M104.33,-138.44C116.77,-136.78 130.08,-134.99 142.95,-133.26"/>
<polygon fill="midnightblue" stroke="midnightblue" points="103.57,-135.01 94.12,-139.81 104.5,-141.95 103.57,-135.01"/>
</g>
<!-- Node6 -->
<g id="node7" class="node">
<title>Node6</title>
<g id="a_node7"><a xlink:href="classccf_1_1UserCertAuthnPolicy.html" target="_top" xlink:title=" ">
<polygon fill="white" stroke="black" points="144.5,-76.5 144.5,-95.5 281.5,-95.5 281.5,-76.5 144.5,-76.5"/>
<text text-anchor="middle" x="213" y="-83.5" font-family="Helvetica,sans-Serif" font-size="10.00">ccf::UserCertAuthnPolicy</text>
</a>
</g>
</g>
<!-- Node0&#45;&gt;Node6 -->
<g id="edge6" class="edge">
<title>Node0&#45;&gt;Node6</title>
<path fill="none" stroke="midnightblue" d="M73.28,-131.41C89.15,-122.74 110.28,-112.1 130,-105 140.17,-101.34 151.32,-98.2 162.02,-95.6"/>
<polygon fill="midnightblue" stroke="midnightblue" points="71.18,-128.57 64.14,-136.49 74.58,-134.69 71.18,-128.57"/>
</g>
<!-- Node7 -->
<g id="node8" class="node">
<title>Node7</title>
<g id="a_node8"><a xlink:href="classccf_1_1UserSignatureAuthnPolicy.html" target="_top" xlink:title=" ">
<polygon fill="white" stroke="black" points="131.5,-38.5 131.5,-57.5 294.5,-57.5 294.5,-38.5 131.5,-38.5"/>
<text text-anchor="middle" x="213" y="-45.5" font-family="Helvetica,sans-Serif" font-size="10.00">ccf::UserSignatureAuthnPolicy</text>
</a>
</g>
</g>
<!-- Node0&#45;&gt;Node7 -->
<g id="edge7" class="edge">
<title>Node0&#45;&gt;Node7</title>
<path fill="none" stroke="midnightblue" d="M61.55,-128.19C76.36,-110 101.78,-82.32 130,-67 137.19,-63.1 145.16,-59.99 153.22,-57.52"/>
<polygon fill="midnightblue" stroke="midnightblue" points="58.62,-126.25 55.16,-136.26 64.11,-130.59 58.62,-126.25"/>
</g>
<!-- Node8 -->
<g id="node9" class="node">
<title>Node8</title>
<g id="a_node9"><a xlink:href="classloggingapp_1_1CustomAuthPolicy.html" target="_top" xlink:title=" ">
<polygon fill="white" stroke="black" points="130,-0.5 130,-19.5 296,-19.5 296,-0.5 130,-0.5"/>
<text text-anchor="middle" x="213" y="-7.5" font-family="Helvetica,sans-Serif" font-size="10.00">loggingapp::CustomAuthPolicy</text>
</a>
</g>
</g>
<!-- Node0&#45;&gt;Node8 -->
<g id="edge8" class="edge">
<title>Node0&#45;&gt;Node8</title>
<path fill="none" stroke="midnightblue" d="M55.94,-127.06C67.96,-100.79 93.33,-53.74 130,-29 135.69,-25.16 142.06,-22.09 148.66,-19.63"/>
<polygon fill="midnightblue" stroke="midnightblue" points="52.69,-125.76 51.86,-136.32 59.09,-128.58 52.69,-125.76"/>
</g>
</g>
</svg>
