<?xml version="1.0" encoding="UTF-8" standalone="no"?>
<!DOCTYPE svg PUBLIC "-//W3C//DTD SVG 1.1//EN"
 "http://www.w3.org/Graphics/SVG/1.1/DTD/svg11.dtd">
<!-- Generated by graphviz version 2.43.0 (0)
 -->
<!-- Title: Graphical Class Hierarchy Pages: 1 -->
<svg width="457pt" height="142pt"
 viewBox="0.00 0.00 457.00 142.00" xmlns="http://www.w3.org/2000/svg" xmlns:xlink="http://www.w3.org/1999/xlink">
<g id="graph0" class="graph" transform="scale(1 1) rotate(0) translate(4 138)">
<title>Graphical Class Hierarchy</title>
<polygon fill="white" stroke="transparent" points="-4,4 -4,-138 453,-138 453,4 -4,4"/>
<!-- Node0 -->
<g id="node1" class="node">
<title>Node0</title>
<g id="a_node1"><a xlink:href="classccf_1_1ForwardedRpcHandler.html" target="_top" xlink:title=" ">
<polygon fill="white" stroke="black" points="0,-76.5 0,-95.5 143,-95.5 143,-76.5 0,-76.5"/>
<text text-anchor="middle" x="71.5" y="-83.5" font-family="Helvetica,sans-Serif" font-size="10.00">ccf::ForwardedRpcHandler</text>
</a>
</g>
</g>
<!-- Node1 -->
<g id="node2" class="node">
<title>Node1</title>
<g id="a_node2"><a xlink:href="classccf_1_1RpcFrontend.html" target="_top" xlink:title=" ">
<polygon fill="white" stroke="black" points="179,-57.5 179,-76.5 276,-76.5 276,-57.5 179,-57.5"/>
<text text-anchor="middle" x="227.5" y="-64.5" font-family="Helvetica,sans-Serif" font-size="10.00">ccf::RpcFrontend</text>
</a>
</g>
</g>
<!-- Node0&#45;&gt;Node1 -->
<g id="edge1" class="edge">
<title>Node0&#45;&gt;Node1</title>
<path fill="none" stroke="midnightblue" d="M153.35,-76.02C162.01,-74.96 170.6,-73.9 178.68,-72.9"/>
<polygon fill="midnightblue" stroke="midnightblue" points="152.69,-72.58 143.19,-77.28 153.54,-79.53 152.69,-72.58"/>
</g>
<!-- Node2 -->
<g id="node3" class="node">
<title>Node2</title>
<g id="a_node3"><a xlink:href="classccf_1_1ACMERpcFrontend.html" target="_top" xlink:title=" ">
<polygon fill="white" stroke="black" points="318,-114.5 318,-133.5 443,-133.5 443,-114.5 318,-114.5"/>
<text text-anchor="middle" x="380.5" y="-121.5" font-family="Helvetica,sans-Serif" font-size="10.00">ccf::ACMERpcFrontend</text>
</a>
</g>
</g>
<!-- Node1&#45;&gt;Node2 -->
<g id="edge2" class="edge">
<title>Node1&#45;&gt;Node2</title>
<path fill="none" stroke="midnightblue" d="M256.7,-81.13C272.67,-88.81 293.17,-98.11 312,-105 321.49,-108.47 331.92,-111.69 341.69,-114.45"/>
<polygon fill="midnightblue" stroke="midnightblue" points="257.91,-77.83 247.39,-76.6 254.85,-84.13 257.91,-77.83"/>
</g>
<!-- Node3 -->
<g id="node4" class="node">
<title>Node3</title>
<g id="a_node4"><a xlink:href="classccf_1_1MemberRpcFrontend.html" target="_top" xlink:title=" ">
<polygon fill="white" stroke="black" points="312,-76.5 312,-95.5 449,-95.5 449,-76.5 312,-76.5"/>
<text text-anchor="middle" x="380.5" y="-83.5" font-family="Helvetica,sans-Serif" font-size="10.00">ccf::MemberRpcFrontend</text>
</a>
</g>
</g>
<!-- Node1&#45;&gt;Node3 -->
<g id="edge3" class="edge">
<title>Node1&#45;&gt;Node3</title>
<path fill="none" stroke="midnightblue" d="M286.31,-74.27C294.68,-75.33 303.35,-76.42 311.89,-77.49"/>
<polygon fill="midnightblue" stroke="midnightblue" points="286.64,-70.79 276.28,-73.01 285.76,-77.73 286.64,-70.79"/>
</g>
<!-- Node4 -->
<g id="node5" class="node">
<title>Node4</title>
<g id="a_node5"><a xlink:href="classccf_1_1NodeRpcFrontend.html" target="_top" xlink:title=" ">
<polygon fill="white" stroke="black" points="319.5,-38.5 319.5,-57.5 441.5,-57.5 441.5,-38.5 319.5,-38.5"/>
<text text-anchor="middle" x="380.5" y="-45.5" font-family="Helvetica,sans-Serif" font-size="10.00">ccf::NodeRpcFrontend</text>
</a>
</g>
</g>
<!-- Node1&#45;&gt;Node4 -->
<g id="edge4" class="edge">
<title>Node1&#45;&gt;Node4</title>
<path fill="none" stroke="midnightblue" d="M286.41,-59.71C297.18,-58.36 308.45,-56.94 319.28,-55.58"/>
<polygon fill="midnightblue" stroke="midnightblue" points="285.76,-56.27 276.28,-60.99 286.64,-63.21 285.76,-56.27"/>
</g>
<!-- Node5 -->
<g id="node6" class="node">
<title>Node5</title>
<g id="a_node6"><a xlink:href="classccf_1_1UserRpcFrontend.html" target="_top" xlink:title=" ">
<polygon fill="white" stroke="black" points="321,-0.5 321,-19.5 440,-19.5 440,-0.5 321,-0.5"/>
<text text-anchor="middle" x="380.5" y="-7.5" font-family="Helvetica,sans-Serif" font-size="10.00">ccf::UserRpcFrontend</text>
</a>
</g>
</g>
<!-- Node1&#45;&gt;Node5 -->
<g id="edge5" class="edge">
<title>Node1&#45;&gt;Node5</title>
<path fill="none" stroke="midnightblue" d="M256.7,-52.87C272.67,-45.19 293.17,-35.89 312,-29 321.49,-25.53 331.92,-22.31 341.69,-19.55"/>
<polygon fill="midnightblue" stroke="midnightblue" points="254.85,-49.87 247.39,-57.4 257.91,-56.17 254.85,-49.87"/>
</g>
<!-- Node6 -->
<g id="node7" class="node">
<title>Node6</title>
<g id="a_node7"><a xlink:href="classccf_1_1RpcHandler.html" target="_top" xlink:title=" ">
<polygon fill="white" stroke="black" points="25.5,-38.5 25.5,-57.5 117.5,-57.5 117.5,-38.5 25.5,-38.5"/>
<text text-anchor="middle" x="71.5" y="-45.5" font-family="Helvetica,sans-Serif" font-size="10.00">ccf::RpcHandler</text>
</a>
</g>
</g>
<!-- Node6&#45;&gt;Node1 -->
<g id="edge6" class="edge">
<title>Node6&#45;&gt;Node1</title>
<path fill="none" stroke="midnightblue" d="M128,-54.85C144.63,-56.9 162.7,-59.13 178.78,-61.11"/>
<polygon fill="midnightblue" stroke="midnightblue" points="128.23,-51.35 117.87,-53.6 127.37,-58.3 128.23,-51.35"/>
</g>
</g>
</svg>
