<?xml version="1.0" encoding="UTF-8" standalone="no"?>
<!DOCTYPE svg PUBLIC "-//W3C//DTD SVG 1.1//EN"
 "http://www.w3.org/Graphics/SVG/1.1/DTD/svg11.dtd">
<!-- Generated by graphviz version 2.43.0 (0)
 -->
<!-- Title: src/node/ledger_secrets.h Pages: 1 -->
<!--zoomable 598 -->
<svg id="main" version="1.1" xmlns="http://www.w3.org/2000/svg" xmlns:xlink="http://www.w3.org/1999/xlink" xml:space="preserve" onload="init(evt)">
<style type="text/css"><![CDATA[
.edge:hover path { stroke: red; }
.edge:hover polygon { stroke: red; fill: red; }
]]></style>
<script type="text/javascript"><![CDATA[
var edges = document.getElementsByTagName('g');
if (edges && edges.length) {
  for (var i=0;i<edges.length;i++) {
    if (edges[i].id.substr(0,4)=='edge') {
      edges[i].setAttribute('class','edge');
    }
  }
}
]]></script>
        <defs>
                <circle id="rim" cx="0" cy="0" r="7"/>
                <circle id="rim2" cx="0" cy="0" r="3.5"/>
                <g id="zoomPlus">
                        <use xlink:href="#rim" fill="#404040">
                                <set attributeName="fill" to="#808080" begin="zoomplus.mouseover" end="zoomplus.mouseout"/>
                        </use>
                        <path d="M-4,0h8M0,-4v8" fill="none" stroke="white" stroke-width="1.5" pointer-events="none"/>
                </g>
                <g id="zoomMin">
                        <use xlink:href="#rim" fill="#404040">
                                <set attributeName="fill" to="#808080" begin="zoomminus.mouseover" end="zoomminus.mouseout"/>
                        </use>
                        <path d="M-4,0h8" fill="none" stroke="white" stroke-width="1.5" pointer-events="none"/>
                </g>
                <g id="dirArrow">
                        <path fill="none" stroke="white" stroke-width="1.5" d="M0,-3.0v7 M-2.5,-0.5L0,-3.0L2.5,-0.5"/>
                </g>
               <g id="resetDef">
                       <use xlink:href="#rim2" fill="#404040">
                               <set attributeName="fill" to="#808080" begin="reset.mouseover" end="reset.mouseout"/>
                       </use>
               </g>
        </defs>

<script type="text/javascript">
var viewWidth = 2255;
var viewHeight = 598;
var sectionId = 'dynsection-1';
</script>
<script xlink:href="svgpan.js"/>
<svg id="graph" class="graph">
<g id="viewport">
<title>src/node/ledger_secrets.h</title>
<polygon fill="white" stroke="transparent" points="-4,4 -4,-594 2250.5,-594 2250.5,4 -4,4"/>
<!-- Node1 -->
<g id="node1" class="node">
<title>Node1</title>
<g id="a_node1"><a xlink:title=" ">
<polygon fill="#bfbfbf" stroke="black" points="454.5,-570.5 454.5,-589.5 595.5,-589.5 595.5,-570.5 454.5,-570.5"/>
<text text-anchor="middle" x="525" y="-577.5" font-family="Helvetica,sans-Serif" font-size="10.00">src/node/ledger_secrets.h</text>
</a>
</g>
</g>
<!-- Node2 -->
<g id="node2" class="node">
<title>Node2</title>
<g id="a_node2"><a xlink:href="node_2encryptor_8h.html" target="_top" xlink:title=" ">
<polygon fill="white" stroke="black" points="212,-252 212,-271 328,-271 328,-252 212,-252"/>
<text text-anchor="middle" x="270" y="-259" font-family="Helvetica,sans-Serif" font-size="10.00">src/node/encryptor.h</text>
</a>
</g>
</g>
<!-- Node1&#45;&gt;Node2 -->
<g id="edge1" class="edge">
<title>Node1&#45;&gt;Node2</title>
<path fill="none" stroke="midnightblue" d="M444.31,-575.51C305.9,-567.29 38,-540.71 38,-458 38,-458 38,-458 38,-394.5 38,-354.53 45.29,-338.58 76,-313 114.1,-281.26 169.9,-269.21 211.88,-264.76"/>
<polygon fill="midnightblue" stroke="midnightblue" points="444.26,-579.01 454.45,-576.09 444.66,-572.02 444.26,-579.01"/>
</g>
<!-- Node3 -->
<g id="node3" class="node">
<title>Node3</title>
<g id="a_node3"><a xlink:href="historical__queries_8h.html" target="_top" xlink:title=" ">
<polygon fill="white" stroke="black" points="222,-179.5 222,-209.5 328,-209.5 328,-179.5 222,-179.5"/>
<text text-anchor="start" x="230" y="-197.5" font-family="Helvetica,sans-Serif" font-size="10.00">src/node/historical</text>
<text text-anchor="middle" x="275" y="-186.5" font-family="Helvetica,sans-Serif" font-size="10.00">_queries.h</text>
</a>
</g>
</g>
<!-- Node1&#45;&gt;Node3 -->
<g id="edge11" class="edge">
<title>Node1&#45;&gt;Node3</title>
<path fill="none" stroke="midnightblue" d="M444.21,-578.02C330.99,-575.48 131.84,-566.39 68,-534 27.58,-513.49 0,-503.32 0,-458 0,-458 0,-458 0,-327.5 0,-230.06 142.07,-204.5 221.98,-197.83"/>
<polygon fill="midnightblue" stroke="midnightblue" points="444.15,-581.52 454.22,-578.24 444.29,-574.52 444.15,-581.52"/>
</g>
<!-- Node9 -->
<g id="node9" class="node">
<title>Node9</title>
<g id="a_node9"><a xlink:href="network__state_8h.html" target="_top" xlink:title=" ">
<polygon fill="white" stroke="black" points="1125,-386 1125,-405 1265,-405 1265,-386 1125,-386"/>
<text text-anchor="middle" x="1195" y="-393" font-family="Helvetica,sans-Serif" font-size="10.00">src/node/network_state.h</text>
</a>
</g>
</g>
<!-- Node1&#45;&gt;Node9 -->
<g id="edge12" class="edge">
<title>Node1&#45;&gt;Node9</title>
<path fill="none" stroke="midnightblue" d="M605.99,-575.21C715.94,-569.31 906.27,-556.25 972,-534 1062.47,-503.37 1154.57,-430.47 1184.75,-405.26"/>
<polygon fill="midnightblue" stroke="midnightblue" points="605.74,-571.72 595.94,-575.74 606.11,-578.71 605.74,-571.72"/>
</g>
<!-- Node24 -->
<g id="node24" class="node">
<title>Node24</title>
<g id="a_node24"><a xlink:href="secret__broadcast_8h.html" target="_top" xlink:title=" ">
<polygon fill="white" stroke="black" points="914.5,-319 914.5,-338 1067.5,-338 1067.5,-319 914.5,-319"/>
<text text-anchor="middle" x="991" y="-326" font-family="Helvetica,sans-Serif" font-size="10.00">src/node/secret_broadcast.h</text>
</a>
</g>
</g>
<!-- Node1&#45;&gt;Node24 -->
<g id="edge62" class="edge">
<title>Node1&#45;&gt;Node24</title>
<path fill="none" stroke="midnightblue" d="M560.96,-567.11C630.01,-543.39 784.51,-485.97 900,-411 934.15,-388.83 968.26,-354.07 983.19,-338.08"/>
<polygon fill="midnightblue" stroke="midnightblue" points="559.75,-563.82 551.41,-570.36 562.01,-570.45 559.75,-563.82"/>
</g>
<!-- Node25 -->
<g id="node25" class="node">
<title>Node25</title>
<g id="a_node25"><a xlink:href="share__manager_8h.html" target="_top" xlink:title=" ">
<polygon fill="white" stroke="black" points="498.5,-319 498.5,-338 643.5,-338 643.5,-319 498.5,-319"/>
<text text-anchor="middle" x="571" y="-326" font-family="Helvetica,sans-Serif" font-size="10.00">src/node/share_manager.h</text>
</a>
</g>
</g>
<!-- Node1&#45;&gt;Node25 -->
<g id="edge63" class="edge">
<title>Node1&#45;&gt;Node25</title>
<path fill="none" stroke="midnightblue" d="M537.78,-561.84C543.1,-553.8 548.78,-543.83 552,-534 575.75,-461.49 573.07,-367.3 571.55,-338.35"/>
<polygon fill="midnightblue" stroke="midnightblue" points="534.74,-560.08 531.87,-570.28 540.48,-564.1 534.74,-560.08"/>
</g>
<!-- Node27 -->
<g id="node27" class="node">
<title>Node27</title>
<g id="a_node27"><a xlink:href="call__types_8h.html" target="_top" xlink:title=" ">
<polygon fill="white" stroke="black" points="320.5,-447.5 320.5,-466.5 457.5,-466.5 457.5,-447.5 320.5,-447.5"/>
<text text-anchor="middle" x="389" y="-454.5" font-family="Helvetica,sans-Serif" font-size="10.00">src/node/rpc/call_types.h</text>
</a>
</g>
</g>
<!-- Node1&#45;&gt;Node27 -->
<g id="edge48" class="edge">
<title>Node1&#45;&gt;Node27</title>
<path fill="none" stroke="midnightblue" d="M465.43,-567.55C445.02,-560.89 423.66,-550.41 409,-534 391.73,-514.67 389.08,-482.17 388.86,-466.69"/>
<polygon fill="midnightblue" stroke="midnightblue" points="464.43,-570.91 475.02,-570.44 466.45,-564.21 464.43,-570.91"/>
</g>
<!-- Node31 -->
<g id="node31" class="node">
<title>Node31</title>
<g id="a_node31"><a xlink:href="node__call__types_8h.html" target="_top" xlink:title=" ">
<polygon fill="white" stroke="black" points="417.5,-503.5 417.5,-533.5 542.5,-533.5 542.5,-503.5 417.5,-503.5"/>
<text text-anchor="start" x="425.5" y="-521.5" font-family="Helvetica,sans-Serif" font-size="10.00">src/node/rpc/node_call</text>
<text text-anchor="middle" x="480" y="-510.5" font-family="Helvetica,sans-Serif" font-size="10.00">_types.h</text>
</a>
</g>
</g>
<!-- Node1&#45;&gt;Node31 -->
<g id="edge60" class="edge">
<title>Node1&#45;&gt;Node31</title>
<path fill="none" stroke="midnightblue" d="M512.33,-562.25C505.48,-553.19 497.11,-542.12 490.61,-533.52"/>
<polygon fill="midnightblue" stroke="midnightblue" points="509.73,-564.61 518.55,-570.48 515.31,-560.39 509.73,-564.61"/>
</g>
<!-- Node32 -->
<g id="node32" class="node">
<title>Node32</title>
<g id="a_node32"><a xlink:href="genesis__gen_8h.html" target="_top" xlink:title=" ">
<polygon fill="white" stroke="black" points="653,-380.5 653,-410.5 763,-410.5 763,-380.5 653,-380.5"/>
<text text-anchor="start" x="661" y="-398.5" font-family="Helvetica,sans-Serif" font-size="10.00">src/service/genesis</text>
<text text-anchor="middle" x="708" y="-387.5" font-family="Helvetica,sans-Serif" font-size="10.00">_gen.h</text>
</a>
</g>
</g>
<!-- Node1&#45;&gt;Node32 -->
<g id="edge64" class="edge">
<title>Node1&#45;&gt;Node32</title>
<path fill="none" stroke="midnightblue" d="M546.38,-564.53C558.21,-556.15 572.92,-545.08 585,-534 630.08,-492.65 676.36,-436.46 696.96,-410.59"/>
<polygon fill="midnightblue" stroke="midnightblue" points="544.19,-561.79 537.98,-570.38 548.19,-567.54 544.19,-561.79"/>
</g>
<!-- Node2&#45;&gt;Node3 -->
<g id="edge2" class="edge">
<title>Node2&#45;&gt;Node3</title>
<path fill="none" stroke="midnightblue" d="M271.44,-241.74C272.23,-231.49 273.19,-219 273.92,-209.59"/>
<polygon fill="midnightblue" stroke="midnightblue" points="267.95,-241.49 270.67,-251.73 274.93,-242.03 267.95,-241.49"/>
</g>
<!-- Node7 -->
<g id="node7" class="node">
<title>Node7</title>
<g id="a_node7"><a xlink:href="node__state_8h.html" target="_top" xlink:title=" ">
<polygon fill="white" stroke="black" points="728,-185 728,-204 852,-204 852,-185 728,-185"/>
<text text-anchor="middle" x="790" y="-192" font-family="Helvetica,sans-Serif" font-size="10.00">src/node/node_state.h</text>
</a>
</g>
</g>
<!-- Node2&#45;&gt;Node7 -->
<g id="edge7" class="edge">
<title>Node2&#45;&gt;Node7</title>
<path fill="none" stroke="midnightblue" d="M319.05,-250.03C326.71,-248.57 334.55,-247.17 342,-246 479.06,-224.52 641.09,-208.57 727.81,-200.8"/>
<polygon fill="midnightblue" stroke="midnightblue" points="318.26,-246.62 309.13,-251.98 319.61,-253.49 318.26,-246.62"/>
</g>
<!-- Node4 -->
<g id="node4" class="node">
<title>Node4</title>
<g id="a_node4"><a xlink:href="enclave_2enclave_8h.html" target="_top" xlink:title=" ">
<polygon fill="white" stroke="black" points="729,-56.5 729,-75.5 851,-75.5 851,-56.5 729,-56.5"/>
<text text-anchor="middle" x="790" y="-63.5" font-family="Helvetica,sans-Serif" font-size="10.00">src/enclave/enclave.h</text>
</a>
</g>
</g>
<!-- Node3&#45;&gt;Node4 -->
<g id="edge3" class="edge">
<title>Node3&#45;&gt;Node4</title>
<path fill="none" stroke="midnightblue" d="M290.02,-171.12C304.28,-151.88 327.58,-125.21 355,-112 419.47,-80.95 624.85,-71.23 728.67,-68.26"/>
<polygon fill="midnightblue" stroke="midnightblue" points="287.1,-169.19 284.12,-179.36 292.79,-173.26 287.1,-169.19"/>
</g>
<!-- Node6 -->
<g id="node6" class="node">
<title>Node6</title>
<g id="a_node6"><a xlink:href="historical__transaction__fetcher_8h.html" target="_top" xlink:title=" ">
<polygon fill="white" stroke="black" points="363.5,-112.5 363.5,-142.5 488.5,-142.5 488.5,-112.5 363.5,-112.5"/>
<text text-anchor="start" x="371.5" y="-130.5" font-family="Helvetica,sans-Serif" font-size="10.00">src/indexing/historical</text>
<text text-anchor="middle" x="426" y="-119.5" font-family="Helvetica,sans-Serif" font-size="10.00">_transaction_fetcher.h</text>
</a>
</g>
</g>
<!-- Node3&#45;&gt;Node6 -->
<g id="edge5" class="edge">
<title>Node3&#45;&gt;Node6</title>
<path fill="none" stroke="midnightblue" d="M317.03,-175.41C341.14,-165.03 370.95,-152.2 393.3,-142.58"/>
<polygon fill="midnightblue" stroke="midnightblue" points="315.57,-172.23 307.76,-179.4 318.33,-178.66 315.57,-172.23"/>
</g>
<!-- Node5 -->
<g id="node5" class="node">
<title>Node5</title>
<g id="a_node5"><a xlink:href="enclave_2main_8cpp.html" target="_top" xlink:title=" ">
<polygon fill="white" stroke="black" points="730,-0.5 730,-19.5 850,-19.5 850,-0.5 730,-0.5"/>
<text text-anchor="middle" x="790" y="-7.5" font-family="Helvetica,sans-Serif" font-size="10.00">src/enclave/main.cpp</text>
</a>
</g>
</g>
<!-- Node4&#45;&gt;Node5 -->
<g id="edge4" class="edge">
<title>Node4&#45;&gt;Node5</title>
<path fill="none" stroke="midnightblue" d="M790,-45.8C790,-36.91 790,-26.78 790,-19.75"/>
<polygon fill="midnightblue" stroke="midnightblue" points="786.5,-46.08 790,-56.08 793.5,-46.08 786.5,-46.08"/>
</g>
<!-- Node6&#45;&gt;Node4 -->
<g id="edge6" class="edge">
<title>Node6&#45;&gt;Node4</title>
<path fill="none" stroke="midnightblue" d="M498.69,-114.36C503.53,-113.56 508.34,-112.77 513,-112 591,-99.16 681.4,-84.52 737.14,-75.52"/>
<polygon fill="midnightblue" stroke="midnightblue" points="498.01,-110.93 488.72,-116.01 499.16,-117.83 498.01,-110.93"/>
</g>
<!-- Node7&#45;&gt;Node4 -->
<g id="edge8" class="edge">
<title>Node7&#45;&gt;Node4</title>
<path fill="none" stroke="midnightblue" d="M803.42,-176.92C810.12,-167.56 817.52,-155.3 821,-143 824.74,-129.74 825.09,-125.16 821,-112 816.6,-97.87 806.05,-84.25 798.48,-75.77"/>
<polygon fill="midnightblue" stroke="midnightblue" points="800.61,-174.83 797.36,-184.91 806.19,-179.06 800.61,-174.83"/>
</g>
<!-- Node8 -->
<g id="node8" class="node">
<title>Node8</title>
<g id="a_node8"><a xlink:href="gov__effects_8h.html" target="_top" xlink:title=" ">
<polygon fill="white" stroke="black" points="668,-118 668,-137 812,-137 812,-118 668,-118"/>
<text text-anchor="middle" x="740" y="-125" font-family="Helvetica,sans-Serif" font-size="10.00">src/node/rpc/gov_effects.h</text>
</a>
</g>
</g>
<!-- Node7&#45;&gt;Node8 -->
<g id="edge9" class="edge">
<title>Node7&#45;&gt;Node8</title>
<path fill="none" stroke="midnightblue" d="M777.13,-176.77C767.38,-164.1 754.39,-147.2 746.64,-137.13"/>
<polygon fill="midnightblue" stroke="midnightblue" points="774.39,-178.94 783.26,-184.73 779.93,-174.67 774.39,-178.94"/>
</g>
<!-- Node8&#45;&gt;Node4 -->
<g id="edge10" class="edge">
<title>Node8&#45;&gt;Node4</title>
<path fill="none" stroke="midnightblue" d="M753.72,-110.17C763.15,-98.95 775.28,-84.52 782.85,-75.51"/>
<polygon fill="midnightblue" stroke="midnightblue" points="750.92,-108.07 747.16,-117.98 756.28,-112.57 750.92,-108.07"/>
</g>
<!-- Node9&#45;&gt;Node4 -->
<g id="edge13" class="edge">
<title>Node9&#45;&gt;Node4</title>
<path fill="none" stroke="midnightblue" d="M1275.58,-390.65C1490.83,-379.31 2063,-341.7 2063,-262.5 2063,-262.5 2063,-262.5 2063,-193.5 2063,-70.24 1105.69,-65.63 851.4,-66.58"/>
<polygon fill="midnightblue" stroke="midnightblue" points="1275.1,-387.17 1265.3,-391.19 1275.47,-394.16 1275.1,-387.17"/>
</g>
<!-- Node9&#45;&gt;Node7 -->
<g id="edge34" class="edge">
<title>Node9&#45;&gt;Node7</title>
<path fill="none" stroke="midnightblue" d="M1208.94,-377.95C1222.29,-360.02 1238.18,-331.52 1222,-313 1182.75,-268.08 1011.52,-298.8 956,-277 933.73,-268.26 932.96,-257.53 912,-246 879.87,-228.32 840.24,-213.01 815.05,-204.02"/>
<polygon fill="midnightblue" stroke="midnightblue" points="1206.19,-375.79 1202.75,-385.81 1211.69,-380.12 1206.19,-375.79"/>
</g>
<!-- Node10 -->
<g id="node10" class="node">
<title>Node10</title>
<g id="a_node10"><a xlink:href="wrap_8h.html" target="_top" xlink:title=" ">
<polygon fill="white" stroke="black" points="1269,-319 1269,-338 1347,-338 1347,-319 1269,-319"/>
<text text-anchor="middle" x="1308" y="-326" font-family="Helvetica,sans-Serif" font-size="10.00">src/js/wrap.h</text>
</a>
</g>
</g>
<!-- Node9&#45;&gt;Node10 -->
<g id="edge14" class="edge">
<title>Node9&#45;&gt;Node10</title>
<path fill="none" stroke="midnightblue" d="M1219.14,-380.62C1241.53,-367.74 1274.14,-348.98 1293,-338.13"/>
<polygon fill="midnightblue" stroke="midnightblue" points="1217.16,-377.71 1210.24,-385.73 1220.65,-383.78 1217.16,-377.71"/>
</g>
<!-- Node19 -->
<g id="node19" class="node">
<title>Node19</title>
<g id="a_node19"><a xlink:href="acme__challenge__frontend_8h.html" target="_top" xlink:title=" ">
<polygon fill="white" stroke="black" points="1365,-313.5 1365,-343.5 1505,-343.5 1505,-313.5 1365,-313.5"/>
<text text-anchor="start" x="1373" y="-331.5" font-family="Helvetica,sans-Serif" font-size="10.00">src/node/acme_challenge</text>
<text text-anchor="middle" x="1435" y="-320.5" font-family="Helvetica,sans-Serif" font-size="10.00">_frontend.h</text>
</a>
</g>
</g>
<!-- Node9&#45;&gt;Node19 -->
<g id="edge30" class="edge">
<title>Node9&#45;&gt;Node19</title>
<path fill="none" stroke="midnightblue" d="M1236.73,-383.2C1277.42,-372.18 1339.39,-355.39 1383.2,-343.53"/>
<polygon fill="midnightblue" stroke="midnightblue" points="1235.61,-379.88 1226.87,-385.87 1237.44,-386.63 1235.61,-379.88"/>
</g>
<!-- Node21 -->
<g id="node21" class="node">
<title>Node21</title>
<g id="a_node21"><a xlink:href="node__frontend_8h.html" target="_top" xlink:title=" ">
<polygon fill="white" stroke="black" points="662,-319 662,-338 820,-338 820,-319 662,-319"/>
<text text-anchor="middle" x="741" y="-326" font-family="Helvetica,sans-Serif" font-size="10.00">src/node/rpc/node_frontend.h</text>
</a>
</g>
</g>
<!-- Node9&#45;&gt;Node21 -->
<g id="edge35" class="edge">
<title>Node9&#45;&gt;Node21</title>
<path fill="none" stroke="midnightblue" d="M1125.19,-384.51C1036.32,-371.78 884.28,-350.01 800.59,-338.03"/>
<polygon fill="midnightblue" stroke="midnightblue" points="1124.79,-387.98 1135.18,-385.94 1125.78,-381.05 1124.79,-387.98"/>
</g>
<!-- Node23 -->
<g id="node23" class="node">
<title>Node23</title>
<g id="a_node23"><a xlink:href="user__frontend_8h.html" target="_top" xlink:title=" ">
<polygon fill="white" stroke="black" points="2091.5,-118 2091.5,-137 2246.5,-137 2246.5,-118 2091.5,-118"/>
<text text-anchor="middle" x="2169" y="-125" font-family="Helvetica,sans-Serif" font-size="10.00">src/node/rpc/user_frontend.h</text>
</a>
</g>
</g>
<!-- Node9&#45;&gt;Node23 -->
<g id="edge39" class="edge">
<title>Node9&#45;&gt;Node23</title>
<path fill="none" stroke="midnightblue" d="M1275.33,-394.67C1480.52,-394.43 2012.35,-389.4 2077,-344 2150.24,-292.57 2165.54,-170.38 2168.4,-137.03"/>
<polygon fill="midnightblue" stroke="midnightblue" points="1275.22,-391.17 1265.22,-394.68 1275.22,-398.17 1275.22,-391.17"/>
</g>
<!-- Node9&#45;&gt;Node24 -->
<g id="edge41" class="edge">
<title>Node9&#45;&gt;Node24</title>
<path fill="none" stroke="midnightblue" d="M1158.17,-382.77C1117.75,-369.89 1053.84,-349.52 1017.88,-338.06"/>
<polygon fill="midnightblue" stroke="midnightblue" points="1157.32,-386.17 1167.91,-385.87 1159.44,-379.5 1157.32,-386.17"/>
</g>
<!-- Node9&#45;&gt;Node25 -->
<g id="edge43" class="edge">
<title>Node9&#45;&gt;Node25</title>
<path fill="none" stroke="midnightblue" d="M1114.64,-389.08C1008.62,-381.47 816.32,-366.01 653,-344 640.82,-342.36 627.69,-340.21 615.58,-338.07"/>
<polygon fill="midnightblue" stroke="midnightblue" points="1114.41,-392.58 1124.63,-389.8 1114.9,-385.59 1114.41,-392.58"/>
</g>
<!-- Node26 -->
<g id="node26" class="node">
<title>Node26</title>
<g id="a_node26"><a xlink:href="snapshotter_8h.html" target="_top" xlink:title=" ">
<polygon fill="white" stroke="black" points="1085.5,-319 1085.5,-338 1212.5,-338 1212.5,-319 1085.5,-319"/>
<text text-anchor="middle" x="1149" y="-326" font-family="Helvetica,sans-Serif" font-size="10.00">src/node/snapshotter.h</text>
</a>
</g>
</g>
<!-- Node9&#45;&gt;Node26 -->
<g id="edge46" class="edge">
<title>Node9&#45;&gt;Node26</title>
<path fill="none" stroke="midnightblue" d="M1182.9,-377.4C1173.96,-364.77 1162.17,-348.1 1155.11,-338.13"/>
<polygon fill="midnightblue" stroke="midnightblue" points="1180.16,-379.59 1188.8,-385.73 1185.88,-375.55 1180.16,-379.59"/>
</g>
<!-- Node10&#45;&gt;Node4 -->
<g id="edge16" class="edge">
<title>Node10&#45;&gt;Node4</title>
<path fill="none" stroke="midnightblue" d="M1259.19,-317.05C1252.42,-315.65 1245.54,-314.27 1239,-313 1149.48,-295.62 1119.49,-315.88 1037,-277 1008.55,-263.59 841.51,-113.53 799.56,-75.65"/>
<polygon fill="midnightblue" stroke="midnightblue" points="1258.49,-320.48 1269,-319.09 1259.92,-313.62 1258.49,-320.48"/>
</g>
<!-- Node10&#45;&gt;Node7 -->
<g id="edge27" class="edge">
<title>Node10&#45;&gt;Node7</title>
<path fill="none" stroke="midnightblue" d="M1269.48,-316.36C1264.63,-315.14 1259.71,-313.98 1255,-313 1144.66,-290.09 1109.55,-316.48 1004,-277 980.21,-268.1 979.04,-256.69 956,-246 914.19,-226.6 863.06,-212.35 828.69,-204.03"/>
<polygon fill="midnightblue" stroke="midnightblue" points="1268.71,-319.78 1279.28,-318.94 1270.5,-313.01 1268.71,-319.78"/>
</g>
<!-- Node11 -->
<g id="node11" class="node">
<title>Node11</title>
<g id="a_node11"><a xlink:href="js__generic__base_8cpp.html" target="_top" xlink:title=" ">
<polygon fill="white" stroke="black" points="1192,-246.5 1192,-276.5 1310,-276.5 1310,-246.5 1192,-246.5"/>
<text text-anchor="start" x="1200" y="-264.5" font-family="Helvetica,sans-Serif" font-size="10.00">src/apps/js_generic</text>
<text text-anchor="middle" x="1251" y="-253.5" font-family="Helvetica,sans-Serif" font-size="10.00">/js_generic_base.cpp</text>
</a>
</g>
</g>
<!-- Node10&#45;&gt;Node11 -->
<g id="edge15" class="edge">
<title>Node10&#45;&gt;Node11</title>
<path fill="none" stroke="midnightblue" d="M1293.52,-310.99C1284.2,-300.36 1272.22,-286.7 1263.35,-276.59"/>
<polygon fill="midnightblue" stroke="midnightblue" points="1291.09,-313.52 1300.31,-318.73 1296.35,-308.91 1291.09,-313.52"/>
</g>
<!-- Node12 -->
<g id="node12" class="node">
<title>Node12</title>
<g id="a_node12"><a xlink:href="js_2consensus_8cpp.html" target="_top" xlink:title=" ">
<polygon fill="white" stroke="black" points="1775,-252 1775,-271 1891,-271 1891,-252 1775,-252"/>
<text text-anchor="middle" x="1833" y="-259" font-family="Helvetica,sans-Serif" font-size="10.00">src/js/consensus.cpp</text>
</a>
</g>
</g>
<!-- Node10&#45;&gt;Node12 -->
<g id="edge17" class="edge">
<title>Node10&#45;&gt;Node12</title>
<path fill="none" stroke="midnightblue" d="M1342.39,-316.19C1346.93,-314.97 1351.55,-313.86 1356,-313 1535.62,-278.37 1585.14,-304.4 1766,-277 1776.35,-275.43 1787.51,-273.23 1797.69,-271.01"/>
<polygon fill="midnightblue" stroke="midnightblue" points="1341.31,-312.85 1332.67,-318.99 1343.25,-319.58 1341.31,-312.85"/>
</g>
<!-- Node13 -->
<g id="node13" class="node">
<title>Node13</title>
<g id="a_node13"><a xlink:href="wrap_8cpp.html" target="_top" xlink:title=" ">
<polygon fill="white" stroke="black" points="1597.5,-185 1597.5,-204 1686.5,-204 1686.5,-185 1597.5,-185"/>
<text text-anchor="middle" x="1642" y="-192" font-family="Helvetica,sans-Serif" font-size="10.00">src/js/wrap.cpp</text>
</a>
</g>
</g>
<!-- Node10&#45;&gt;Node13 -->
<g id="edge26" class="edge">
<title>Node10&#45;&gt;Node13</title>
<path fill="none" stroke="midnightblue" d="M1345.65,-316.03C1349.14,-314.99 1352.64,-313.97 1356,-313 1414.02,-296.27 1433.52,-305.03 1487,-277 1506,-267.04 1505.72,-257.23 1524,-246 1553.81,-227.69 1591.44,-212.84 1616.08,-204.1"/>
<polygon fill="midnightblue" stroke="midnightblue" points="1344.46,-312.73 1335.88,-318.95 1346.47,-319.44 1344.46,-312.73"/>
</g>
<!-- Node14 -->
<g id="node14" class="node">
<title>Node14</title>
<g id="a_node14"><a xlink:href="conv_8cpp.html" target="_top" xlink:title=" ">
<polygon fill="white" stroke="black" points="1909,-252 1909,-271 1997,-271 1997,-252 1909,-252"/>
<text text-anchor="middle" x="1953" y="-259" font-family="Helvetica,sans-Serif" font-size="10.00">src/js/conv.cpp</text>
</a>
</g>
</g>
<!-- Node10&#45;&gt;Node14 -->
<g id="edge19" class="edge">
<title>Node10&#45;&gt;Node14</title>
<path fill="none" stroke="midnightblue" d="M1342.37,-316.1C1346.92,-314.89 1351.54,-313.81 1356,-313 1594.4,-269.69 1661.05,-317.17 1900,-277 1908.56,-275.56 1917.73,-273.31 1926,-271.01"/>
<polygon fill="midnightblue" stroke="midnightblue" points="1341.3,-312.76 1332.65,-318.88 1343.23,-319.49 1341.3,-312.76"/>
</g>
<!-- Node15 -->
<g id="node15" class="node">
<title>Node15</title>
<g id="a_node15"><a xlink:href="js_2crypto_8cpp.html" target="_top" xlink:title=" ">
<polygon fill="white" stroke="black" points="1533,-252 1533,-271 1629,-271 1629,-252 1533,-252"/>
<text text-anchor="middle" x="1581" y="-259" font-family="Helvetica,sans-Serif" font-size="10.00">src/js/crypto.cpp</text>
</a>
</g>
</g>
<!-- Node10&#45;&gt;Node15 -->
<g id="edge21" class="edge">
<title>Node10&#45;&gt;Node15</title>
<path fill="none" stroke="midnightblue" d="M1344.86,-316.06C1348.61,-314.98 1352.38,-313.95 1356,-313 1427.78,-294.26 1446.66,-293.45 1519,-277 1527.41,-275.09 1536.45,-273 1544.95,-271.01"/>
<polygon fill="midnightblue" stroke="midnightblue" points="1343.67,-312.76 1335.06,-318.93 1345.64,-319.47 1343.67,-312.76"/>
</g>
<!-- Node16 -->
<g id="node16" class="node">
<title>Node16</title>
<g id="a_node16"><a xlink:href="js_2historical_8cpp.html" target="_top" xlink:title=" ">
<polygon fill="white" stroke="black" points="1647,-252 1647,-271 1757,-271 1757,-252 1647,-252"/>
<text text-anchor="middle" x="1702" y="-259" font-family="Helvetica,sans-Serif" font-size="10.00">src/js/historical.cpp</text>
</a>
</g>
</g>
<!-- Node10&#45;&gt;Node16 -->
<g id="edge23" class="edge">
<title>Node10&#45;&gt;Node16</title>
<path fill="none" stroke="midnightblue" d="M1343.23,-316.13C1347.51,-314.97 1351.83,-313.89 1356,-313 1479.57,-286.64 1513.58,-298.98 1638,-277 1647.54,-275.32 1657.8,-273.15 1667.25,-271.01"/>
<polygon fill="midnightblue" stroke="midnightblue" points="1342.09,-312.82 1333.45,-318.95 1344.03,-319.54 1342.09,-312.82"/>
</g>
<!-- Node17 -->
<g id="node17" class="node">
<title>Node17</title>
<g id="a_node17"><a xlink:href="openenclave_8cpp.html" target="_top" xlink:title=" ">
<polygon fill="white" stroke="black" points="1046,-252 1046,-271 1174,-271 1174,-252 1046,-252"/>
<text text-anchor="middle" x="1110" y="-259" font-family="Helvetica,sans-Serif" font-size="10.00">src/js/openenclave.cpp</text>
</a>
</g>
</g>
<!-- Node10&#45;&gt;Node17 -->
<g id="edge25" class="edge">
<title>Node10&#45;&gt;Node17</title>
<path fill="none" stroke="midnightblue" d="M1272,-315.68C1232.76,-302.8 1170.91,-282.5 1136.09,-271.06"/>
<polygon fill="midnightblue" stroke="midnightblue" points="1271.11,-319.07 1281.71,-318.87 1273.3,-312.42 1271.11,-319.07"/>
</g>
<!-- Node18 -->
<g id="node18" class="node">
<title>Node18</title>
<g id="a_node18"><a xlink:href="member__frontend_8h.html" target="_top" xlink:title=" ">
<polygon fill="white" stroke="black" points="422,-246.5 422,-276.5 542,-276.5 542,-246.5 422,-246.5"/>
<text text-anchor="start" x="430" y="-264.5" font-family="Helvetica,sans-Serif" font-size="10.00">src/node/rpc/member</text>
<text text-anchor="middle" x="482" y="-253.5" font-family="Helvetica,sans-Serif" font-size="10.00">_frontend.h</text>
</a>
</g>
</g>
<!-- Node10&#45;&gt;Node18 -->
<g id="edge28" class="edge">
<title>Node10&#45;&gt;Node18</title>
<path fill="none" stroke="midnightblue" d="M1258.87,-318.29C1246.85,-316.29 1233.99,-314.37 1222,-313 959.23,-282.97 891.64,-298.07 628,-277 599.82,-274.75 568.62,-271.72 542.33,-269.02"/>
<polygon fill="midnightblue" stroke="midnightblue" points="1258.29,-321.74 1268.74,-319.98 1259.47,-314.84 1258.29,-321.74"/>
</g>
<!-- Node12&#45;&gt;Node13 -->
<g id="edge18" class="edge">
<title>Node12&#45;&gt;Node13</title>
<path fill="none" stroke="midnightblue" d="M1798.04,-248.6C1760.17,-235.71 1700.69,-215.47 1667.16,-204.06"/>
<polygon fill="midnightblue" stroke="midnightblue" points="1797.04,-251.96 1807.64,-251.87 1799.3,-245.33 1797.04,-251.96"/>
</g>
<!-- Node14&#45;&gt;Node13 -->
<g id="edge20" class="edge">
<title>Node14&#45;&gt;Node13</title>
<path fill="none" stroke="midnightblue" d="M1913.55,-249.36C1908.99,-248.18 1904.4,-247.03 1900,-246 1825.79,-228.61 1738.61,-212.42 1686.96,-203.26"/>
<polygon fill="midnightblue" stroke="midnightblue" points="1912.82,-252.79 1923.39,-251.98 1914.62,-246.03 1912.82,-252.79"/>
</g>
<!-- Node15&#45;&gt;Node13 -->
<g id="edge22" class="edge">
<title>Node15&#45;&gt;Node13</title>
<path fill="none" stroke="midnightblue" d="M1596.36,-244.13C1608.29,-231.42 1624.36,-214.3 1633.9,-204.13"/>
<polygon fill="midnightblue" stroke="midnightblue" points="1593.52,-242.05 1589.23,-251.73 1598.62,-246.84 1593.52,-242.05"/>
</g>
<!-- Node16&#45;&gt;Node13 -->
<g id="edge24" class="edge">
<title>Node16&#45;&gt;Node13</title>
<path fill="none" stroke="midnightblue" d="M1686.89,-244.13C1675.16,-231.42 1659.35,-214.3 1649.96,-204.13"/>
<polygon fill="midnightblue" stroke="midnightblue" points="1684.55,-246.76 1693.91,-251.73 1689.7,-242.01 1684.55,-246.76"/>
</g>
<!-- Node18&#45;&gt;Node4 -->
<g id="edge29" class="edge">
<title>Node18&#45;&gt;Node4</title>
<path fill="none" stroke="midnightblue" d="M486.96,-236.55C495.19,-203.13 515.01,-143.11 556,-112 582.61,-91.8 668.77,-79.18 728.76,-72.61"/>
<polygon fill="midnightblue" stroke="midnightblue" points="483.52,-235.86 484.68,-246.4 490.34,-237.44 483.52,-235.86"/>
</g>
<!-- Node19&#45;&gt;Node4 -->
<g id="edge31" class="edge">
<title>Node19&#45;&gt;Node4</title>
<path fill="none" stroke="midnightblue" d="M1515.12,-326.28C1664.51,-323.17 1973.52,-312.47 2006,-277 2015.3,-266.84 2014.65,-256.72 2006,-246 1932.3,-154.67 1087.22,-88.12 851,-71.21"/>
<polygon fill="midnightblue" stroke="midnightblue" points="1515,-322.78 1505.08,-326.48 1515.14,-329.78 1515,-322.78"/>
</g>
<!-- Node20 -->
<g id="node20" class="node">
<title>Node20</title>
<g id="a_node20"><a xlink:href="ccf__acme__client_8h.html" target="_top" xlink:title=" ">
<polygon fill="white" stroke="black" points="1328.5,-252 1328.5,-271 1477.5,-271 1477.5,-252 1328.5,-252"/>
<text text-anchor="middle" x="1403" y="-259" font-family="Helvetica,sans-Serif" font-size="10.00">src/node/ccf_acme_client.h</text>
</a>
</g>
</g>
<!-- Node19&#45;&gt;Node20 -->
<g id="edge32" class="edge">
<title>Node19&#45;&gt;Node20</title>
<path fill="none" stroke="midnightblue" d="M1423.57,-304.29C1417.92,-292.8 1411.43,-279.63 1407.28,-271.19"/>
<polygon fill="midnightblue" stroke="midnightblue" points="1420.5,-305.97 1428.06,-313.4 1426.78,-302.88 1420.5,-305.97"/>
</g>
<!-- Node20&#45;&gt;Node7 -->
<g id="edge33" class="edge">
<title>Node20&#45;&gt;Node7</title>
<path fill="none" stroke="midnightblue" d="M1347.25,-250.27C1337.84,-248.72 1328.16,-247.23 1319,-246 1150.75,-223.48 951.07,-207.24 852.07,-199.89"/>
<polygon fill="midnightblue" stroke="midnightblue" points="1346.88,-253.75 1357.32,-251.97 1348.04,-246.85 1346.88,-253.75"/>
</g>
<!-- Node21&#45;&gt;Node4 -->
<g id="edge36" class="edge">
<title>Node21&#45;&gt;Node4</title>
<path fill="none" stroke="midnightblue" d="M684,-315.9C662.7,-308.49 640.62,-296.47 628,-277 620.5,-265.44 626.44,-259.69 628,-246 634.93,-185.27 618.07,-157.4 659,-112 676.87,-92.17 703.87,-81.08 728.73,-74.87"/>
<polygon fill="midnightblue" stroke="midnightblue" points="683.11,-319.29 693.7,-318.98 685.24,-312.62 683.11,-319.29"/>
</g>
<!-- Node22 -->
<g id="node22" class="node">
<title>Node22</title>
<g id="a_node22"><a xlink:href="jwt__key__auto__refresh_8h.html" target="_top" xlink:title=" ">
<polygon fill="white" stroke="black" points="636.5,-246.5 636.5,-276.5 761.5,-276.5 761.5,-246.5 636.5,-246.5"/>
<text text-anchor="start" x="644.5" y="-264.5" font-family="Helvetica,sans-Serif" font-size="10.00">src/node/jwt_key_auto</text>
<text text-anchor="middle" x="699" y="-253.5" font-family="Helvetica,sans-Serif" font-size="10.00">_refresh.h</text>
</a>
</g>
</g>
<!-- Node21&#45;&gt;Node22 -->
<g id="edge37" class="edge">
<title>Node21&#45;&gt;Node22</title>
<path fill="none" stroke="midnightblue" d="M729.71,-310.03C722.94,-299.56 714.44,-286.4 708.1,-276.59"/>
<polygon fill="midnightblue" stroke="midnightblue" points="726.97,-312.23 735.34,-318.73 732.85,-308.44 726.97,-312.23"/>
</g>
<!-- Node22&#45;&gt;Node7 -->
<g id="edge38" class="edge">
<title>Node22&#45;&gt;Node7</title>
<path fill="none" stroke="midnightblue" d="M727.27,-240.31C744.36,-228.1 765.25,-213.18 778.09,-204.01"/>
<polygon fill="midnightblue" stroke="midnightblue" points="724.85,-237.74 718.75,-246.4 728.92,-243.43 724.85,-237.74"/>
</g>
<!-- Node23&#45;&gt;Node4 -->
<g id="edge40" class="edge">
<title>Node23&#45;&gt;Node4</title>
<path fill="none" stroke="midnightblue" d="M2111.91,-116.4C2100.38,-114.67 2088.33,-113.09 2077,-112 1606.86,-66.9 1036.25,-65.59 851.13,-66.51"/>
<polygon fill="midnightblue" stroke="midnightblue" points="2111.45,-119.87 2121.86,-117.95 2112.52,-112.95 2111.45,-119.87"/>
</g>
<!-- Node24&#45;&gt;Node7 -->
<g id="edge42" class="edge">
<title>Node24&#45;&gt;Node7</title>
<path fill="none" stroke="midnightblue" d="M939.45,-316.33C911.67,-308.54 877.88,-296.04 852,-277 824.51,-256.77 803.38,-221.04 794.53,-204.44"/>
<polygon fill="midnightblue" stroke="midnightblue" points="938.83,-319.79 949.39,-318.99 940.64,-313.03 938.83,-319.79"/>
</g>
<!-- Node25&#45;&gt;Node7 -->
<g id="edge44" class="edge">
<title>Node25&#45;&gt;Node7</title>
<path fill="none" stroke="midnightblue" d="M578.99,-309.86C588.24,-291.35 605.18,-262.68 628,-246 658.44,-223.74 698.94,-211.12 731.83,-204.06"/>
<polygon fill="midnightblue" stroke="midnightblue" points="575.8,-308.42 574.65,-318.95 582.12,-311.43 575.8,-308.42"/>
</g>
<!-- Node25&#45;&gt;Node18 -->
<g id="edge45" class="edge">
<title>Node25&#45;&gt;Node18</title>
<path fill="none" stroke="midnightblue" d="M550.52,-312.54C535.71,-301.73 515.82,-287.2 501.29,-276.59"/>
<polygon fill="midnightblue" stroke="midnightblue" points="548.86,-315.66 559,-318.73 552.99,-310.01 548.86,-315.66"/>
</g>
<!-- Node26&#45;&gt;Node7 -->
<g id="edge47" class="edge">
<title>Node26&#45;&gt;Node7</title>
<path fill="none" stroke="midnightblue" d="M1098.36,-316.79C1038.13,-303.92 943.73,-283.26 928,-277 877.85,-257.03 824.46,-220.52 801.54,-204.01"/>
<polygon fill="midnightblue" stroke="midnightblue" points="1097.94,-320.28 1108.45,-318.94 1099.4,-313.43 1097.94,-320.28"/>
</g>
<!-- Node27&#45;&gt;Node13 -->
<g id="edge50" class="edge">
<title>Node27&#45;&gt;Node13</title>
<path fill="none" stroke="midnightblue" d="M467.96,-451.47C563.53,-445.16 718.34,-432.07 772,-411 840.68,-384.03 843.18,-351.7 906,-313 961.68,-278.7 974.12,-263.95 1037,-246 1142.41,-215.92 1475.92,-201.38 1597.28,-196.99"/>
<polygon fill="midnightblue" stroke="midnightblue" points="467.51,-447.99 457.76,-452.13 467.96,-454.97 467.51,-447.99"/>
</g>
<!-- Node27&#45;&gt;Node18 -->
<g id="edge53" class="edge">
<title>Node27&#45;&gt;Node18</title>
<path fill="none" stroke="midnightblue" d="M310.37,-446.21C201.97,-429.66 27.27,-390.14 95,-313 100.35,-306.91 314.25,-281.67 421.7,-269.34"/>
<polygon fill="midnightblue" stroke="midnightblue" points="309.91,-449.68 320.32,-447.69 310.94,-442.76 309.91,-449.68"/>
</g>
<!-- Node28 -->
<g id="node28" class="node">
<title>Node28</title>
<g id="a_node28"><a xlink:href="common__endpoint__registry_8cpp.html" target="_top" xlink:title=" ">
<polygon fill="white" stroke="black" points="104,-313.5 104,-343.5 232,-343.5 232,-313.5 104,-313.5"/>
<text text-anchor="start" x="112" y="-331.5" font-family="Helvetica,sans-Serif" font-size="10.00">src/endpoints/common</text>
<text text-anchor="middle" x="168" y="-320.5" font-family="Helvetica,sans-Serif" font-size="10.00">_endpoint_registry.cpp</text>
</a>
</g>
</g>
<!-- Node27&#45;&gt;Node28 -->
<g id="edge49" class="edge">
<title>Node27&#45;&gt;Node28</title>
<path fill="none" stroke="midnightblue" d="M363.32,-442.63C346.61,-433.83 324.39,-421.95 305,-411 264.52,-388.13 218.17,-360.18 191.09,-343.66"/>
<polygon fill="midnightblue" stroke="midnightblue" points="361.98,-445.88 372.46,-447.42 365.23,-439.68 361.98,-445.88"/>
</g>
<!-- Node29 -->
<g id="node29" class="node">
<title>Node29</title>
<g id="a_node29"><a xlink:href="resharing_8h.html" target="_top" xlink:title=" ">
<polygon fill="white" stroke="black" points="250,-319 250,-338 366,-338 366,-319 250,-319"/>
<text text-anchor="middle" x="308" y="-326" font-family="Helvetica,sans-Serif" font-size="10.00">src/node/resharing.h</text>
</a>
</g>
</g>
<!-- Node27&#45;&gt;Node29 -->
<g id="edge51" class="edge">
<title>Node27&#45;&gt;Node29</title>
<path fill="none" stroke="midnightblue" d="M356.94,-442.91C343.05,-435.59 327.95,-425.06 319,-411 304.36,-387.99 305.44,-353.95 306.94,-338.14"/>
<polygon fill="midnightblue" stroke="midnightblue" points="355.75,-446.23 366.27,-447.47 358.83,-439.94 355.75,-446.23"/>
</g>
<!-- Node30 -->
<g id="node30" class="node">
<title>Node30</title>
<g id="a_node30"><a xlink:href="serialization_8h.html" target="_top" xlink:title=" ">
<polygon fill="white" stroke="black" points="328,-386 328,-405 476,-405 476,-386 328,-386"/>
<text text-anchor="middle" x="402" y="-393" font-family="Helvetica,sans-Serif" font-size="10.00">src/node/rpc/serialization.h</text>
</a>
</g>
</g>
<!-- Node27&#45;&gt;Node30 -->
<g id="edge54" class="edge">
<title>Node27&#45;&gt;Node30</title>
<path fill="none" stroke="midnightblue" d="M393.01,-437.66C395.39,-426.77 398.29,-413.49 400.14,-405.01"/>
<polygon fill="midnightblue" stroke="midnightblue" points="389.58,-436.96 390.86,-447.48 396.42,-438.45 389.58,-436.96"/>
</g>
<!-- Node29&#45;&gt;Node7 -->
<g id="edge52" class="edge">
<title>Node29&#45;&gt;Node7</title>
<path fill="none" stroke="midnightblue" d="M317.98,-310.06C330.01,-290.83 352.14,-260.68 380,-246 438.93,-214.95 628.2,-202.37 727.63,-197.81"/>
<polygon fill="midnightblue" stroke="midnightblue" points="314.91,-308.37 312.77,-318.75 320.92,-311.97 314.91,-308.37"/>
</g>
<!-- Node30&#45;&gt;Node7 -->
<g id="edge56" class="edge">
<title>Node30&#45;&gt;Node7</title>
<path fill="none" stroke="midnightblue" d="M396.74,-375.63C389.26,-344.22 379.84,-281.19 413,-246 454.78,-201.67 632.16,-195.01 727.98,-194.74"/>
<polygon fill="midnightblue" stroke="midnightblue" points="393.44,-376.86 399.33,-385.67 400.22,-375.11 393.44,-376.86"/>
</g>
<!-- Node30&#45;&gt;Node18 -->
<g id="edge58" class="edge">
<title>Node30&#45;&gt;Node18</title>
<path fill="none" stroke="midnightblue" d="M412.64,-376.95C428.64,-350.55 458.59,-301.12 473.34,-276.78"/>
<polygon fill="midnightblue" stroke="midnightblue" points="409.44,-375.47 407.25,-385.84 415.43,-379.1 409.44,-375.47"/>
</g>
<!-- Node30&#45;&gt;Node21 -->
<g id="edge59" class="edge">
<title>Node30&#45;&gt;Node21</title>
<path fill="none" stroke="midnightblue" d="M456.57,-384.04C523.24,-371.25 634.77,-349.87 696.5,-338.03"/>
<polygon fill="midnightblue" stroke="midnightblue" points="455.83,-380.61 446.67,-385.94 457.15,-387.49 455.83,-380.61"/>
</g>
<!-- Node30&#45;&gt;Node28 -->
<g id="edge55" class="edge">
<title>Node30&#45;&gt;Node28</title>
<path fill="none" stroke="midnightblue" d="M361.06,-383.13C321.39,-372.11 261.13,-355.37 218.5,-343.53"/>
<polygon fill="midnightblue" stroke="midnightblue" points="360.35,-386.56 370.93,-385.87 362.23,-379.82 360.35,-386.56"/>
</g>
<!-- Node30&#45;&gt;Node29 -->
<g id="edge57" class="edge">
<title>Node30&#45;&gt;Node29</title>
<path fill="none" stroke="midnightblue" d="M380.91,-379.92C362.33,-367.07 335.88,-348.78 320.48,-338.13"/>
<polygon fill="midnightblue" stroke="midnightblue" points="379.11,-382.93 389.32,-385.73 383.09,-377.17 379.11,-382.93"/>
</g>
<!-- Node31&#45;&gt;Node27 -->
<g id="edge61" class="edge">
<title>Node31&#45;&gt;Node27</title>
<path fill="none" stroke="midnightblue" d="M449.83,-497.78C433.71,-487.23 414.67,-474.78 402.24,-466.66"/>
<polygon fill="midnightblue" stroke="midnightblue" points="448.15,-500.86 458.43,-503.4 451.98,-495 448.15,-500.86"/>
</g>
<!-- Node32&#45;&gt;Node7 -->
<g id="edge65" class="edge">
<title>Node32&#45;&gt;Node7</title>
<path fill="none" stroke="midnightblue" d="M773.05,-382.52C794.53,-375.14 816.19,-363.22 829,-344 836.64,-332.53 831.2,-326.6 829,-313 828.09,-307.38 801.94,-230.49 792.98,-204.22"/>
<polygon fill="midnightblue" stroke="midnightblue" points="771.71,-379.27 763.22,-385.61 773.81,-385.95 771.71,-379.27"/>
</g>
<!-- Node32&#45;&gt;Node18 -->
<g id="edge66" class="edge">
<title>Node32&#45;&gt;Node18</title>
<path fill="none" stroke="midnightblue" d="M642.97,-387.78C586.23,-380.48 509.95,-366.72 490,-344 473.68,-325.41 475.85,-294.44 478.91,-276.51"/>
<polygon fill="midnightblue" stroke="midnightblue" points="642.61,-391.26 652.96,-389.02 643.47,-384.31 642.61,-391.26"/>
</g>
<!-- Node32&#45;&gt;Node21 -->
<g id="edge67" class="edge">
<title>Node32&#45;&gt;Node21</title>
<path fill="none" stroke="midnightblue" d="M719.78,-371.29C725.62,-359.8 732.3,-346.63 736.59,-338.19"/>
<polygon fill="midnightblue" stroke="midnightblue" points="716.57,-369.89 715.16,-380.4 722.81,-373.06 716.57,-369.89"/>
</g>
<!-- Node32&#45;&gt;Node24 -->
<g id="edge68" class="edge">
<title>Node32&#45;&gt;Node24</title>
<path fill="none" stroke="midnightblue" d="M773.08,-379.55C829.13,-366.68 908.05,-348.55 953.93,-338.01"/>
<polygon fill="midnightblue" stroke="midnightblue" points="772.2,-376.16 763.24,-381.81 773.77,-382.99 772.2,-376.16"/>
</g>
<!-- Node32&#45;&gt;Node25 -->
<g id="edge69" class="edge">
<title>Node32&#45;&gt;Node25</title>
<path fill="none" stroke="midnightblue" d="M668.94,-375.97C642.62,-363.48 609.14,-347.6 588.93,-338.01"/>
<polygon fill="midnightblue" stroke="midnightblue" points="667.74,-379.27 678.27,-380.4 670.74,-372.95 667.74,-379.27"/>
</g>
</g>
</svg>
        <g id="navigator" transform="translate(0 0)" fill="#404254">
                <rect fill="#f2f5e9" fill-opacity="0.5" stroke="#606060" stroke-width=".5" x="0" y="0" width="60" height="60"/>
                <use id="zoomplus" xlink:href="#zoomPlus" x="17" y="9" onmousedown="handleZoom(evt,'in')"/>
                <use id="zoomminus" xlink:href="#zoomMin" x="42" y="9" onmousedown="handleZoom(evt,'out')"/>
                <use id="reset" xlink:href="#resetDef" x="30" y="36" onmousedown="handleReset()"/>
                <g id="arrowUp" xlink:href="#dirArrow" transform="translate(30 24)" onmousedown="handlePan(0,-1)">
                  <use xlink:href="#rim" fill="#404040">
                        <set attributeName="fill" to="#808080" begin="arrowUp.mouseover" end="arrowUp.mouseout"/>
                  </use>
                  <path fill="none" stroke="white" stroke-width="1.5" d="M0,-3.0v7 M-2.5,-0.5L0,-3.0L2.5,-0.5"/>
                </g>
                <g id="arrowRight" xlink:href="#dirArrow" transform="rotate(90) translate(36 -43)" onmousedown="handlePan(1,0)">
                  <use xlink:href="#rim" fill="#404040">
                        <set attributeName="fill" to="#808080" begin="arrowRight.mouseover" end="arrowRight.mouseout"/>
                  </use>
                  <path fill="none" stroke="white" stroke-width="1.5" d="M0,-3.0v7 M-2.5,-0.5L0,-3.0L2.5,-0.5"/>
                </g>
                <g id="arrowDown" xlink:href="#dirArrow" transform="rotate(180) translate(-30 -48)" onmousedown="handlePan(0,1)">
                  <use xlink:href="#rim" fill="#404040">
                        <set attributeName="fill" to="#808080" begin="arrowDown.mouseover" end="arrowDown.mouseout"/>
                  </use>
                  <path fill="none" stroke="white" stroke-width="1.5" d="M0,-3.0v7 M-2.5,-0.5L0,-3.0L2.5,-0.5"/>
                </g>
                <g id="arrowLeft" xlink:href="#dirArrow" transform="rotate(270) translate(-36 17)" onmousedown="handlePan(-1,0)">
                  <use xlink:href="#rim" fill="#404040">
                        <set attributeName="fill" to="#808080" begin="arrowLeft.mouseover" end="arrowLeft.mouseout"/>
                  </use>
                  <path fill="none" stroke="white" stroke-width="1.5" d="M0,-3.0v7 M-2.5,-0.5L0,-3.0L2.5,-0.5"/>
                </g>
        </g>
        <svg viewBox="0 0 15 15" width="100%" height="30px" preserveAspectRatio="xMaxYMin meet">
         <g id="arrow_out" transform="scale(0.3 0.3)">
          <a xlink:href="ledger__secrets_8h__dep__incl_org.svg" target="_base">
           <rect id="button" ry="5" rx="5" y="6" x="6" height="38" width="38"
                fill="#f2f5e9" fill-opacity="0.5" stroke="#606060" stroke-width="1.0"/>
           <path id="arrow"
             d="M 11.500037,31.436501 C 11.940474,20.09759 22.043105,11.32322 32.158766,21.979434 L 37.068811,17.246167 C 37.068811,17.246167 37.088388,32 37.088388,32 L 22.160133,31.978069 C 22.160133,31.978069 26.997745,27.140456 26.997745,27.140456 C 18.528582,18.264221 13.291696,25.230495 11.500037,31.436501 z"
             style="fill:#404040;"/>
          </a>
         </g>
        </svg>
</svg>
