<?xml version="1.0" encoding="UTF-8" standalone="no"?>
<!DOCTYPE svg PUBLIC "-//W3C//DTD SVG 1.1//EN"
 "http://www.w3.org/Graphics/SVG/1.1/DTD/svg11.dtd">
<!-- Generated by graphviz version 2.43.0 (0)
 -->
<!-- Title: src/host/lfs_file_handler.h Pages: 1 -->
<svg width="1938pt" height="386pt"
 viewBox="0.00 0.00 1938.49 386.00" xmlns="http://www.w3.org/2000/svg" xmlns:xlink="http://www.w3.org/1999/xlink">
<g id="graph0" class="graph" transform="scale(1 1) rotate(0) translate(4 382)">
<title>src/host/lfs_file_handler.h</title>
<polygon fill="white" stroke="transparent" points="-4,4 -4,-382 1934.49,-382 1934.49,4 -4,4"/>
<!-- Node1 -->
<g id="node1" class="node">
<title>Node1</title>
<g id="a_node1"><a xlink:title=" ">
<polygon fill="#bfbfbf" stroke="black" points="1028.64,-358.5 1028.64,-377.5 1168.64,-377.5 1168.64,-358.5 1028.64,-358.5"/>
<text text-anchor="middle" x="1098.64" y="-365.5" font-family="Helvetica,sans-Serif" font-size="10.00">src/host/lfs_file_handler.h</text>
</a>
</g>
</g>
<!-- Node2 -->
<g id="node2" class="node">
<title>Node2</title>
<g id="a_node2"><a xlink:href="messaging_8h.html" target="_top" xlink:title=" ">
<polygon fill="white" stroke="black" points="1003.14,-302.5 1003.14,-321.5 1096.14,-321.5 1096.14,-302.5 1003.14,-302.5"/>
<text text-anchor="middle" x="1049.64" y="-309.5" font-family="Helvetica,sans-Serif" font-size="10.00">ds/messaging.h</text>
</a>
</g>
</g>
<!-- Node1&#45;&gt;Node2 -->
<g id="edge1" class="edge">
<title>Node1&#45;&gt;Node2</title>
<path fill="none" stroke="midnightblue" d="M1090.55,-358.08C1083.48,-350.3 1073.05,-338.8 1064.49,-329.37"/>
<polygon fill="midnightblue" stroke="midnightblue" points="1066.89,-326.8 1057.58,-321.75 1061.71,-331.51 1066.89,-326.8"/>
</g>
<!-- Node41 -->
<g id="node41" class="node">
<title>Node41</title>
<g id="a_node41"><a xlink:href="lfs__ringbuffer__types_8h.html" target="_top" xlink:title=" ">
<polygon fill="white" stroke="black" points="643.64,-235.5 643.64,-265.5 769.64,-265.5 769.64,-235.5 643.64,-235.5"/>
<text text-anchor="start" x="651.64" y="-253.5" font-family="Helvetica,sans-Serif" font-size="10.00">indexing/lfs_ringbuffer</text>
<text text-anchor="middle" x="706.64" y="-242.5" font-family="Helvetica,sans-Serif" font-size="10.00">_types.h</text>
</a>
</g>
</g>
<!-- Node1&#45;&gt;Node41 -->
<g id="edge62" class="edge">
<title>Node1&#45;&gt;Node41</title>
<path fill="none" stroke="midnightblue" d="M1069.5,-358.41C1004.98,-339.4 849.1,-293.47 764.16,-268.45"/>
<polygon fill="midnightblue" stroke="midnightblue" points="764.99,-265.04 754.41,-265.58 763.01,-271.76 764.99,-265.04"/>
</g>
<!-- Node44 -->
<g id="node44" class="node">
<title>Node44</title>
<g id="a_node44"><a xlink:title=" ">
<polygon fill="white" stroke="#bfbfbf" points="1114.64,-302.5 1114.64,-321.5 1182.64,-321.5 1182.64,-302.5 1114.64,-302.5"/>
<text text-anchor="middle" x="1148.64" y="-309.5" font-family="Helvetica,sans-Serif" font-size="10.00">filesystem</text>
</a>
</g>
</g>
<!-- Node1&#45;&gt;Node44 -->
<g id="edge69" class="edge">
<title>Node1&#45;&gt;Node44</title>
<path fill="none" stroke="midnightblue" d="M1106.9,-358.08C1114.1,-350.3 1124.75,-338.8 1133.49,-329.37"/>
<polygon fill="midnightblue" stroke="midnightblue" points="1136.31,-331.47 1140.54,-321.75 1131.17,-326.71 1136.31,-331.47"/>
</g>
<!-- Node45 -->
<g id="node45" class="node">
<title>Node45</title>
<g id="a_node45"><a xlink:title=" ">
<polygon fill="white" stroke="#bfbfbf" points="1201.14,-302.5 1201.14,-321.5 1256.14,-321.5 1256.14,-302.5 1201.14,-302.5"/>
<text text-anchor="middle" x="1228.64" y="-309.5" font-family="Helvetica,sans-Serif" font-size="10.00">fstream</text>
</a>
</g>
</g>
<!-- Node1&#45;&gt;Node45 -->
<g id="edge70" class="edge">
<title>Node1&#45;&gt;Node45</title>
<path fill="none" stroke="midnightblue" d="M1119.24,-358.44C1140.63,-349.56 1174.32,-335.56 1198.66,-325.45"/>
<polygon fill="midnightblue" stroke="midnightblue" points="1200.24,-328.58 1208.14,-321.52 1197.56,-322.12 1200.24,-328.58"/>
</g>
<!-- Node3 -->
<g id="node3" class="node">
<title>Node3</title>
<g id="a_node3"><a xlink:href="logger_8h.html" target="_top" xlink:title=" ">
<polygon fill="white" stroke="black" points="1400.14,-241 1400.14,-260 1487.14,-260 1487.14,-241 1400.14,-241"/>
<text text-anchor="middle" x="1443.64" y="-248" font-family="Helvetica,sans-Serif" font-size="10.00">ccf/ds/logger.h</text>
</a>
</g>
</g>
<!-- Node2&#45;&gt;Node3 -->
<g id="edge2" class="edge">
<title>Node2&#45;&gt;Node3</title>
<path fill="none" stroke="midnightblue" d="M1096.38,-303.45C1099.52,-302.95 1102.62,-302.47 1105.64,-302 1205.96,-286.45 1323.16,-269.12 1389.87,-259.35"/>
<polygon fill="midnightblue" stroke="midnightblue" points="1390.74,-262.76 1400.13,-257.84 1389.73,-255.83 1390.74,-262.76"/>
</g>
<!-- Node9 -->
<g id="node9" class="node">
<title>Node9</title>
<g id="a_node9"><a xlink:title=" ">
<polygon fill="white" stroke="#bfbfbf" points="1852.64,-123.5 1852.64,-142.5 1890.64,-142.5 1890.64,-123.5 1852.64,-123.5"/>
<text text-anchor="middle" x="1871.64" y="-130.5" font-family="Helvetica,sans-Serif" font-size="10.00">map</text>
</a>
</g>
</g>
<!-- Node2&#45;&gt;Node9 -->
<g id="edge60" class="edge">
<title>Node2&#45;&gt;Node9</title>
<path fill="none" stroke="midnightblue" d="M1096.36,-303.25C1099.5,-302.8 1102.61,-302.38 1105.64,-302 1287.85,-279 1806.22,-338.52 1925.64,-199 1940.52,-181.62 1917.24,-161.3 1896.76,-148.07"/>
<polygon fill="midnightblue" stroke="midnightblue" points="1898.35,-144.93 1887.99,-142.69 1894.69,-150.9 1898.35,-144.93"/>
</g>
<!-- Node17 -->
<g id="node17" class="node">
<title>Node17</title>
<g id="a_node17"><a xlink:href="ring__buffer_8h.html" target="_top" xlink:title=" ">
<polygon fill="white" stroke="black" points="1011.14,-241 1011.14,-260 1088.14,-260 1088.14,-241 1011.14,-241"/>
<text text-anchor="middle" x="1049.64" y="-248" font-family="Helvetica,sans-Serif" font-size="10.00">ring_buffer.h</text>
</a>
</g>
</g>
<!-- Node2&#45;&gt;Node17 -->
<g id="edge18" class="edge">
<title>Node2&#45;&gt;Node17</title>
<path fill="none" stroke="midnightblue" d="M1049.64,-302.48C1049.64,-294.08 1049.64,-280.98 1049.64,-270.16"/>
<polygon fill="midnightblue" stroke="midnightblue" points="1053.14,-270.01 1049.64,-260.01 1046.14,-270.01 1053.14,-270.01"/>
</g>
<!-- Node35 -->
<g id="node35" class="node">
<title>Node35</title>
<g id="a_node35"><a xlink:title=" ">
<polygon fill="white" stroke="#bfbfbf" points="1192.14,-0.5 1192.14,-19.5 1257.14,-19.5 1257.14,-0.5 1192.14,-0.5"/>
<text text-anchor="middle" x="1224.64" y="-7.5" font-family="Helvetica,sans-Serif" font-size="10.00">stdexcept</text>
</a>
</g>
</g>
<!-- Node2&#45;&gt;Node35 -->
<g id="edge61" class="edge">
<title>Node2&#45;&gt;Node35</title>
<path fill="none" stroke="midnightblue" d="M1061.34,-302.46C1096.88,-275.65 1203.32,-188.92 1238.64,-87 1245.28,-67.84 1239.2,-44.82 1233.11,-29.17"/>
<polygon fill="midnightblue" stroke="midnightblue" points="1236.19,-27.47 1229.04,-19.65 1229.75,-30.22 1236.19,-27.47"/>
</g>
<!-- Node38 -->
<g id="node38" class="node">
<title>Node38</title>
<g id="a_node38"><a xlink:title=" ">
<polygon fill="white" stroke="#bfbfbf" points="838.64,-123.5 838.64,-142.5 888.64,-142.5 888.64,-123.5 838.64,-123.5"/>
<text text-anchor="middle" x="863.64" y="-130.5" font-family="Helvetica,sans-Serif" font-size="10.00">atomic</text>
</a>
</g>
</g>
<!-- Node2&#45;&gt;Node38 -->
<g id="edge58" class="edge">
<title>Node2&#45;&gt;Node38</title>
<path fill="none" stroke="midnightblue" d="M1040.67,-302.46C1011.4,-274.61 918.4,-186.11 880.23,-149.79"/>
<polygon fill="midnightblue" stroke="midnightblue" points="882.62,-147.23 872.96,-142.87 877.79,-152.3 882.62,-147.23"/>
</g>
<!-- Node40 -->
<g id="node40" class="node">
<title>Node40</title>
<g id="a_node40"><a xlink:title=" ">
<polygon fill="white" stroke="#bfbfbf" points="801.14,-241 801.14,-260 908.14,-260 908.14,-241 801.14,-241"/>
<text text-anchor="middle" x="854.64" y="-248" font-family="Helvetica,sans-Serif" font-size="10.00">condition_variable</text>
</a>
</g>
</g>
<!-- Node2&#45;&gt;Node40 -->
<g id="edge59" class="edge">
<title>Node2&#45;&gt;Node40</title>
<path fill="none" stroke="midnightblue" d="M1021.7,-302.48C987.67,-292.09 930.06,-274.51 892.18,-262.95"/>
<polygon fill="midnightblue" stroke="midnightblue" points="893.11,-259.58 882.53,-260.01 891.07,-266.28 893.11,-259.58"/>
</g>
<!-- Node4 -->
<g id="node4" class="node">
<title>Node4</title>
<g id="a_node4"><a xlink:href="enum__formatter_8h.html" target="_top" xlink:title=" ">
<polygon fill="white" stroke="black" points="1312.64,-179.5 1312.64,-198.5 1448.64,-198.5 1448.64,-179.5 1312.64,-179.5"/>
<text text-anchor="middle" x="1380.64" y="-186.5" font-family="Helvetica,sans-Serif" font-size="10.00">ccf/ds/enum_formatter.h</text>
</a>
</g>
</g>
<!-- Node3&#45;&gt;Node4 -->
<g id="edge3" class="edge">
<title>Node3&#45;&gt;Node4</title>
<path fill="none" stroke="midnightblue" d="M1434.61,-240.98C1424.88,-231.78 1409.18,-216.96 1397.22,-205.66"/>
<polygon fill="midnightblue" stroke="midnightblue" points="1399.32,-202.83 1389.65,-198.51 1394.52,-207.92 1399.32,-202.83"/>
</g>
<!-- Node5 -->
<g id="node5" class="node">
<title>Node5</title>
<g id="a_node5"><a xlink:title=" ">
<polygon fill="white" stroke="#bfbfbf" points="1396.14,-123.5 1396.14,-142.5 1475.14,-142.5 1475.14,-123.5 1396.14,-123.5"/>
<text text-anchor="middle" x="1435.64" y="-130.5" font-family="Helvetica,sans-Serif" font-size="10.00">fmt/format.h</text>
</a>
</g>
</g>
<!-- Node3&#45;&gt;Node5 -->
<g id="edge12" class="edge">
<title>Node3&#45;&gt;Node5</title>
<path fill="none" stroke="midnightblue" d="M1484.22,-240.92C1524.46,-230.44 1577.23,-210.16 1555.64,-179 1539.81,-156.16 1510.85,-144.89 1485.35,-139.34"/>
<polygon fill="midnightblue" stroke="midnightblue" points="1485.9,-135.89 1475.42,-137.42 1484.57,-142.76 1485.9,-135.89"/>
</g>
<!-- Node6 -->
<g id="node6" class="node">
<title>Node6</title>
<g id="a_node6"><a xlink:href="thread__ids_8h.html" target="_top" xlink:title=" ">
<polygon fill="white" stroke="black" points="1602.64,-179.5 1602.64,-198.5 1710.64,-198.5 1710.64,-179.5 1602.64,-179.5"/>
<text text-anchor="middle" x="1656.64" y="-186.5" font-family="Helvetica,sans-Serif" font-size="10.00">ccf/ds/thread_ids.h</text>
</a>
</g>
</g>
<!-- Node3&#45;&gt;Node6 -->
<g id="edge5" class="edge">
<title>Node3&#45;&gt;Node6</title>
<path fill="none" stroke="midnightblue" d="M1474.16,-240.98C1511.56,-230.53 1575.07,-212.79 1616.43,-201.23"/>
<polygon fill="midnightblue" stroke="midnightblue" points="1617.49,-204.57 1626.18,-198.51 1615.61,-197.83 1617.49,-204.57"/>
</g>
<!-- Node11 -->
<g id="node11" class="node">
<title>Node11</title>
<g id="a_node11"><a xlink:title=" ">
<polygon fill="white" stroke="#bfbfbf" points="1467.14,-179.5 1467.14,-198.5 1546.14,-198.5 1546.14,-179.5 1467.14,-179.5"/>
<text text-anchor="middle" x="1506.64" y="-186.5" font-family="Helvetica,sans-Serif" font-size="10.00">fmt/chrono.h</text>
</a>
</g>
</g>
<!-- Node3&#45;&gt;Node11 -->
<g id="edge11" class="edge">
<title>Node3&#45;&gt;Node11</title>
<path fill="none" stroke="midnightblue" d="M1452.67,-240.98C1462.4,-231.78 1478.1,-216.96 1490.06,-205.66"/>
<polygon fill="midnightblue" stroke="midnightblue" points="1492.76,-207.92 1497.63,-198.51 1487.96,-202.83 1492.76,-207.92"/>
</g>
<!-- Node12 -->
<g id="node12" class="node">
<title>Node12</title>
<g id="a_node12"><a xlink:title=" ">
<polygon fill="white" stroke="#bfbfbf" points="1728.64,-179.5 1728.64,-198.5 1788.64,-198.5 1788.64,-179.5 1728.64,-179.5"/>
<text text-anchor="middle" x="1758.64" y="-186.5" font-family="Helvetica,sans-Serif" font-size="10.00">iostream</text>
</a>
</g>
</g>
<!-- Node3&#45;&gt;Node12 -->
<g id="edge13" class="edge">
<title>Node3&#45;&gt;Node12</title>
<path fill="none" stroke="midnightblue" d="M1487.26,-242.15C1539.79,-233.17 1630.94,-217.13 1718.6,-199.14"/>
<polygon fill="midnightblue" stroke="midnightblue" points="1719.35,-202.56 1728.44,-197.11 1717.94,-195.71 1719.35,-202.56"/>
</g>
<!-- Node13 -->
<g id="node13" class="node">
<title>Node13</title>
<g id="a_node13"><a xlink:title=" ">
<polygon fill="white" stroke="#bfbfbf" points="1806.64,-179.5 1806.64,-198.5 1916.64,-198.5 1916.64,-179.5 1806.64,-179.5"/>
<text text-anchor="middle" x="1861.64" y="-186.5" font-family="Helvetica,sans-Serif" font-size="10.00">nlohmann/json.hpp</text>
</a>
</g>
</g>
<!-- Node3&#45;&gt;Node13 -->
<g id="edge14" class="edge">
<title>Node3&#45;&gt;Node13</title>
<path fill="none" stroke="midnightblue" d="M1487.19,-243.3C1560.81,-232.82 1710.23,-211.55 1796.4,-199.29"/>
<polygon fill="midnightblue" stroke="midnightblue" points="1796.92,-202.75 1806.33,-197.87 1795.94,-195.82 1796.92,-202.75"/>
</g>
<!-- Node14 -->
<g id="node14" class="node">
<title>Node14</title>
<g id="a_node14"><a xlink:title=" ">
<polygon fill="white" stroke="#bfbfbf" points="996.64,-123.5 996.64,-142.5 1052.64,-142.5 1052.64,-123.5 996.64,-123.5"/>
<text text-anchor="middle" x="1024.64" y="-130.5" font-family="Helvetica,sans-Serif" font-size="10.00">optional</text>
</a>
</g>
</g>
<!-- Node3&#45;&gt;Node14 -->
<g id="edge15" class="edge">
<title>Node3&#45;&gt;Node14</title>
<path fill="none" stroke="midnightblue" d="M1399.76,-245.52C1343,-239.53 1241.57,-225.89 1158.64,-199 1117.89,-185.79 1073.77,-162.46 1047.7,-147.64"/>
<polygon fill="midnightblue" stroke="midnightblue" points="1049.37,-144.56 1038.96,-142.6 1045.87,-150.62 1049.37,-144.56"/>
</g>
<!-- Node15 -->
<g id="node15" class="node">
<title>Node15</title>
<g id="a_node15"><a xlink:title=" ">
<polygon fill="white" stroke="#bfbfbf" points="1238.64,-179.5 1238.64,-198.5 1294.64,-198.5 1294.64,-179.5 1238.64,-179.5"/>
<text text-anchor="middle" x="1266.64" y="-186.5" font-family="Helvetica,sans-Serif" font-size="10.00">sstream</text>
</a>
</g>
</g>
<!-- Node3&#45;&gt;Node15 -->
<g id="edge16" class="edge">
<title>Node3&#45;&gt;Node15</title>
<path fill="none" stroke="midnightblue" d="M1418.28,-240.98C1387.66,-230.68 1335.98,-213.31 1301.59,-201.75"/>
<polygon fill="midnightblue" stroke="midnightblue" points="1302.55,-198.38 1291.95,-198.51 1300.32,-205.01 1302.55,-198.38"/>
</g>
<!-- Node16 -->
<g id="node16" class="node">
<title>Node16</title>
<g id="a_node16"><a xlink:title=" ">
<polygon fill="white" stroke="#bfbfbf" points="595.14,-0.5 595.14,-19.5 664.14,-19.5 664.14,-0.5 595.14,-0.5"/>
<text text-anchor="middle" x="629.64" y="-7.5" font-family="Helvetica,sans-Serif" font-size="10.00">type_traits</text>
</a>
</g>
</g>
<!-- Node3&#45;&gt;Node16 -->
<g id="edge17" class="edge">
<title>Node3&#45;&gt;Node16</title>
<path fill="none" stroke="midnightblue" d="M1399.91,-243.99C1355.57,-237.32 1285.69,-223.75 1229.64,-199 1126.68,-153.53 1126.31,-94.76 1020.64,-56 877.79,-3.6 828.4,-42.22 674.6,-20.12"/>
<polygon fill="midnightblue" stroke="midnightblue" points="674.73,-16.6 664.32,-18.58 673.69,-23.53 674.73,-16.6"/>
</g>
<!-- Node4&#45;&gt;Node5 -->
<g id="edge4" class="edge">
<title>Node4&#45;&gt;Node5</title>
<path fill="none" stroke="midnightblue" d="M1389.72,-179.08C1397.81,-171.14 1409.84,-159.34 1419.55,-149.8"/>
<polygon fill="midnightblue" stroke="midnightblue" points="1422.04,-152.25 1426.73,-142.75 1417.14,-147.26 1422.04,-152.25"/>
</g>
<!-- Node6&#45;&gt;Node5 -->
<g id="edge6" class="edge">
<title>Node6&#45;&gt;Node5</title>
<path fill="none" stroke="midnightblue" d="M1621.62,-179.44C1583.39,-170.1 1522.07,-155.12 1480.38,-144.93"/>
<polygon fill="midnightblue" stroke="midnightblue" points="1481.04,-141.49 1470.49,-142.52 1479.38,-148.29 1481.04,-141.49"/>
</g>
<!-- Node7 -->
<g id="node7" class="node">
<title>Node7</title>
<g id="a_node7"><a xlink:title=" ">
<polygon fill="white" stroke="#bfbfbf" points="1613.64,-123.5 1613.64,-142.5 1699.64,-142.5 1699.64,-123.5 1613.64,-123.5"/>
<text text-anchor="middle" x="1656.64" y="-130.5" font-family="Helvetica,sans-Serif" font-size="10.00">fmt/ostream.h</text>
</a>
</g>
</g>
<!-- Node6&#45;&gt;Node7 -->
<g id="edge7" class="edge">
<title>Node6&#45;&gt;Node7</title>
<path fill="none" stroke="midnightblue" d="M1656.64,-179.08C1656.64,-172.01 1656.64,-161.86 1656.64,-152.99"/>
<polygon fill="midnightblue" stroke="midnightblue" points="1660.14,-152.75 1656.64,-142.75 1653.14,-152.75 1660.14,-152.75"/>
</g>
<!-- Node8 -->
<g id="node8" class="node">
<title>Node8</title>
<g id="a_node8"><a xlink:title=" ">
<polygon fill="white" stroke="#bfbfbf" points="1717.64,-123.5 1717.64,-142.5 1761.64,-142.5 1761.64,-123.5 1717.64,-123.5"/>
<text text-anchor="middle" x="1739.64" y="-130.5" font-family="Helvetica,sans-Serif" font-size="10.00">limits</text>
</a>
</g>
</g>
<!-- Node6&#45;&gt;Node8 -->
<g id="edge8" class="edge">
<title>Node6&#45;&gt;Node8</title>
<path fill="none" stroke="midnightblue" d="M1669.98,-179.32C1682.8,-170.98 1702.42,-158.21 1717.58,-148.35"/>
<polygon fill="midnightblue" stroke="midnightblue" points="1719.86,-151.04 1726.34,-142.65 1716.05,-145.17 1719.86,-151.04"/>
</g>
<!-- Node6&#45;&gt;Node9 -->
<g id="edge9" class="edge">
<title>Node6&#45;&gt;Node9</title>
<path fill="none" stroke="midnightblue" d="M1690.71,-179.44C1732.66,-168.91 1803.2,-151.19 1842.67,-141.28"/>
<polygon fill="midnightblue" stroke="midnightblue" points="1843.62,-144.65 1852.46,-138.82 1841.91,-137.86 1843.62,-144.65"/>
</g>
<!-- Node10 -->
<g id="node10" class="node">
<title>Node10</title>
<g id="a_node10"><a xlink:title=" ">
<polygon fill="white" stroke="#bfbfbf" points="1547.64,-123.5 1547.64,-142.5 1595.64,-142.5 1595.64,-123.5 1547.64,-123.5"/>
<text text-anchor="middle" x="1571.64" y="-130.5" font-family="Helvetica,sans-Serif" font-size="10.00">thread</text>
</a>
</g>
</g>
<!-- Node6&#45;&gt;Node10 -->
<g id="edge10" class="edge">
<title>Node6&#45;&gt;Node10</title>
<path fill="none" stroke="midnightblue" d="M1642.98,-179.32C1629.72,-170.9 1609.37,-157.97 1593.79,-148.07"/>
<polygon fill="midnightblue" stroke="midnightblue" points="1595.58,-145.06 1585.26,-142.65 1591.83,-150.97 1595.58,-145.06"/>
</g>
<!-- Node18 -->
<g id="node18" class="node">
<title>Node18</title>
<g id="a_node18"><a xlink:href="ccf__memcpy_8h.html" target="_top" xlink:title=" ">
<polygon fill="white" stroke="black" points="1143.64,-62 1143.64,-81 1229.64,-81 1229.64,-62 1143.64,-62"/>
<text text-anchor="middle" x="1186.64" y="-69" font-family="Helvetica,sans-Serif" font-size="10.00">ccf_memcpy.h</text>
</a>
</g>
</g>
<!-- Node17&#45;&gt;Node18 -->
<g id="edge19" class="edge">
<title>Node17&#45;&gt;Node18</title>
<path fill="none" stroke="midnightblue" d="M1062.4,-240.91C1075.55,-231.63 1096.12,-215.89 1110.64,-199 1140.59,-164.17 1165.87,-116.07 1178.33,-90.38"/>
<polygon fill="midnightblue" stroke="midnightblue" points="1181.59,-91.67 1182.72,-81.13 1175.27,-88.66 1181.59,-91.67"/>
</g>
<!-- Node19 -->
<g id="node19" class="node">
<title>Node19</title>
<g id="a_node19"><a xlink:title=" ">
<polygon fill="white" stroke="#bfbfbf" points="1090.64,-0.5 1090.64,-19.5 1140.64,-19.5 1140.64,-0.5 1090.64,-0.5"/>
<text text-anchor="middle" x="1115.64" y="-7.5" font-family="Helvetica,sans-Serif" font-size="10.00">cstring</text>
</a>
</g>
</g>
<!-- Node17&#45;&gt;Node19 -->
<g id="edge56" class="edge">
<title>Node17&#45;&gt;Node19</title>
<path fill="none" stroke="midnightblue" d="M1052.07,-240.73C1061.69,-205.96 1097.28,-77.35 1110.58,-29.28"/>
<polygon fill="midnightblue" stroke="midnightblue" points="1113.97,-30.17 1113.26,-19.6 1107.22,-28.3 1113.97,-30.17"/>
</g>
<!-- Node20 -->
<g id="node20" class="node">
<title>Node20</title>
<g id="a_node20"><a xlink:href="ring__buffer__types_8h.html" target="_top" xlink:title=" ">
<polygon fill="white" stroke="black" points="651.64,-179.5 651.64,-198.5 761.64,-198.5 761.64,-179.5 651.64,-179.5"/>
<text text-anchor="middle" x="706.64" y="-186.5" font-family="Helvetica,sans-Serif" font-size="10.00">ring_buffer_types.h</text>
</a>
</g>
</g>
<!-- Node17&#45;&gt;Node20 -->
<g id="edge21" class="edge">
<title>Node17&#45;&gt;Node20</title>
<path fill="none" stroke="midnightblue" d="M1010.96,-242.79C951.18,-232.42 835.92,-212.43 765.67,-200.24"/>
<polygon fill="midnightblue" stroke="midnightblue" points="766.1,-196.76 755.65,-198.5 764.9,-203.66 766.1,-196.76"/>
</g>
<!-- Node39 -->
<g id="node39" class="node">
<title>Node39</title>
<g id="a_node39"><a xlink:title=" ">
<polygon fill="white" stroke="#bfbfbf" points="965.14,-179.5 965.14,-198.5 1030.14,-198.5 1030.14,-179.5 965.14,-179.5"/>
<text text-anchor="middle" x="997.64" y="-186.5" font-family="Helvetica,sans-Serif" font-size="10.00">functional</text>
</a>
</g>
</g>
<!-- Node17&#45;&gt;Node39 -->
<g id="edge57" class="edge">
<title>Node17&#45;&gt;Node39</title>
<path fill="none" stroke="midnightblue" d="M1042.19,-240.98C1034.31,-231.96 1021.69,-217.52 1011.9,-206.31"/>
<polygon fill="midnightblue" stroke="midnightblue" points="1014.29,-203.74 1005.08,-198.51 1009.02,-208.34 1014.29,-203.74"/>
</g>
<!-- Node18&#45;&gt;Node19 -->
<g id="edge20" class="edge">
<title>Node18&#45;&gt;Node19</title>
<path fill="none" stroke="midnightblue" d="M1176.47,-61.98C1165.29,-52.61 1147.12,-37.38 1133.55,-26.01"/>
<polygon fill="midnightblue" stroke="midnightblue" points="1135.71,-23.25 1125.79,-19.51 1131.21,-28.61 1135.71,-23.25"/>
</g>
<!-- Node20&#45;&gt;Node5 -->
<g id="edge52" class="edge">
<title>Node20&#45;&gt;Node5</title>
<path fill="none" stroke="midnightblue" d="M761.73,-183.92C898.99,-173.75 1254.56,-147.41 1385.92,-137.68"/>
<polygon fill="midnightblue" stroke="midnightblue" points="1386.38,-141.16 1396.09,-136.93 1385.86,-134.18 1386.38,-141.16"/>
</g>
<!-- Node20&#45;&gt;Node14 -->
<g id="edge53" class="edge">
<title>Node20&#45;&gt;Node14</title>
<path fill="none" stroke="midnightblue" d="M757.03,-179.44C820.67,-168.64 928.77,-150.28 986.17,-140.53"/>
<polygon fill="midnightblue" stroke="midnightblue" points="987,-143.94 996.28,-138.82 985.83,-137.04 987,-143.94"/>
</g>
<!-- Node21 -->
<g id="node21" class="node">
<title>Node21</title>
<g id="a_node21"><a xlink:href="include_2ccf_2ds_2hash_8h.html" target="_top" xlink:title=" ">
<polygon fill="white" stroke="black" points="666.64,-123.5 666.64,-142.5 746.64,-142.5 746.64,-123.5 666.64,-123.5"/>
<text text-anchor="middle" x="706.64" y="-130.5" font-family="Helvetica,sans-Serif" font-size="10.00">ccf/ds/hash.h</text>
</a>
</g>
</g>
<!-- Node20&#45;&gt;Node21 -->
<g id="edge22" class="edge">
<title>Node20&#45;&gt;Node21</title>
<path fill="none" stroke="midnightblue" d="M706.64,-179.08C706.64,-172.01 706.64,-161.86 706.64,-152.99"/>
<polygon fill="midnightblue" stroke="midnightblue" points="710.14,-152.75 706.64,-142.75 703.14,-152.75 710.14,-152.75"/>
</g>
<!-- Node25 -->
<g id="node25" class="node">
<title>Node25</title>
<g id="a_node25"><a xlink:title=" ">
<polygon fill="white" stroke="#bfbfbf" points="530.14,-0.5 530.14,-19.5 577.14,-19.5 577.14,-0.5 530.14,-0.5"/>
<text text-anchor="middle" x="553.64" y="-7.5" font-family="Helvetica,sans-Serif" font-size="10.00">vector</text>
</a>
</g>
</g>
<!-- Node20&#45;&gt;Node25 -->
<g id="edge55" class="edge">
<title>Node20&#45;&gt;Node25</title>
<path fill="none" stroke="midnightblue" d="M651.6,-187.41C584.61,-183.2 475.7,-164.17 437.64,-87 431.55,-74.64 429.86,-67.37 437.64,-56 442.59,-48.77 487.84,-32.64 520.34,-21.78"/>
<polygon fill="midnightblue" stroke="midnightblue" points="521.56,-25.06 529.95,-18.6 519.36,-18.42 521.56,-25.06"/>
</g>
<!-- Node28 -->
<g id="node28" class="node">
<title>Node28</title>
<g id="a_node28"><a xlink:href="nonstd_8h.html" target="_top" xlink:title=" ">
<polygon fill="white" stroke="black" points="300.64,-62 300.64,-81 390.64,-81 390.64,-62 300.64,-62"/>
<text text-anchor="middle" x="345.64" y="-69" font-family="Helvetica,sans-Serif" font-size="10.00">ccf/ds/nonstd.h</text>
</a>
</g>
</g>
<!-- Node20&#45;&gt;Node28 -->
<g id="edge31" class="edge">
<title>Node20&#45;&gt;Node28</title>
<path fill="none" stroke="midnightblue" d="M651.39,-184.46C576.09,-178.85 445.85,-166.1 404.64,-143 382.53,-130.6 365.14,-106.45 355.13,-89.9"/>
<polygon fill="midnightblue" stroke="midnightblue" points="358.13,-88.1 350.11,-81.18 352.07,-91.6 358.13,-88.1"/>
</g>
<!-- Node31 -->
<g id="node31" class="node">
<title>Node31</title>
<g id="a_node31"><a xlink:title=" ">
<polygon fill="white" stroke="#bfbfbf" points="151.64,-0.5 151.64,-19.5 195.64,-19.5 195.64,-0.5 151.64,-0.5"/>
<text text-anchor="middle" x="173.64" y="-7.5" font-family="Helvetica,sans-Serif" font-size="10.00">string</text>
</a>
</g>
</g>
<!-- Node20&#45;&gt;Node31 -->
<g id="edge54" class="edge">
<title>Node20&#45;&gt;Node31</title>
<path fill="none" stroke="midnightblue" d="M651.31,-183.21C537.28,-172.32 281.32,-142.25 215.64,-87 197.56,-71.79 185.88,-46.73 179.54,-29.58"/>
<polygon fill="midnightblue" stroke="midnightblue" points="182.68,-27.95 176.13,-19.63 176.06,-30.22 182.68,-27.95"/>
</g>
<!-- Node33 -->
<g id="node33" class="node">
<title>Node33</title>
<g id="a_node33"><a xlink:href="serializer_8h.html" target="_top" xlink:title=" ">
<polygon fill="white" stroke="black" points="519.64,-123.5 519.64,-142.5 589.64,-142.5 589.64,-123.5 519.64,-123.5"/>
<text text-anchor="middle" x="554.64" y="-130.5" font-family="Helvetica,sans-Serif" font-size="10.00">serializer.h</text>
</a>
</g>
</g>
<!-- Node20&#45;&gt;Node33 -->
<g id="edge39" class="edge">
<title>Node20&#45;&gt;Node33</title>
<path fill="none" stroke="midnightblue" d="M682.55,-179.44C657.1,-170.4 616.75,-156.06 588.18,-145.92"/>
<polygon fill="midnightblue" stroke="midnightblue" points="589.21,-142.57 578.61,-142.52 586.86,-149.16 589.21,-142.57"/>
</g>
<!-- Node20&#45;&gt;Node38 -->
<g id="edge51" class="edge">
<title>Node20&#45;&gt;Node38</title>
<path fill="none" stroke="midnightblue" d="M731.52,-179.44C757.93,-170.36 799.85,-155.94 829.38,-145.78"/>
<polygon fill="midnightblue" stroke="midnightblue" points="830.56,-149.08 838.88,-142.52 828.28,-142.46 830.56,-149.08"/>
</g>
<!-- Node22 -->
<g id="node22" class="node">
<title>Node22</title>
<g id="a_node22"><a xlink:href="siphash_8h.html" target="_top" xlink:title=" ">
<polygon fill="white" stroke="black" points="659.14,-62 659.14,-81 754.14,-81 754.14,-62 659.14,-62"/>
<text text-anchor="middle" x="706.64" y="-69" font-family="Helvetica,sans-Serif" font-size="10.00">ccf/ds/siphash.h</text>
</a>
</g>
</g>
<!-- Node21&#45;&gt;Node22 -->
<g id="edge23" class="edge">
<title>Node21&#45;&gt;Node22</title>
<path fill="none" stroke="midnightblue" d="M706.64,-123.48C706.64,-115.08 706.64,-101.98 706.64,-91.16"/>
<polygon fill="midnightblue" stroke="midnightblue" points="710.14,-91.01 706.64,-81.01 703.14,-91.01 710.14,-91.01"/>
</g>
<!-- Node24 -->
<g id="node24" class="node">
<title>Node24</title>
<g id="a_node24"><a xlink:title=" ">
<polygon fill="white" stroke="#bfbfbf" points="783.64,-0.5 783.64,-19.5 833.64,-19.5 833.64,-0.5 783.64,-0.5"/>
<text text-anchor="middle" x="808.64" y="-7.5" font-family="Helvetica,sans-Serif" font-size="10.00">cstdint</text>
</a>
</g>
</g>
<!-- Node21&#45;&gt;Node24 -->
<g id="edge28" class="edge">
<title>Node21&#45;&gt;Node24</title>
<path fill="none" stroke="midnightblue" d="M746.77,-129.15C827.4,-123.02 1002.92,-107.44 1020.64,-87 1071.41,-28.43 916.41,-15 843.89,-11.92"/>
<polygon fill="midnightblue" stroke="midnightblue" points="843.95,-8.42 833.82,-11.53 843.68,-15.41 843.95,-8.42"/>
</g>
<!-- Node21&#45;&gt;Node25 -->
<g id="edge30" class="edge">
<title>Node21&#45;&gt;Node25</title>
<path fill="none" stroke="midnightblue" d="M695.71,-123.38C684.23,-114.32 665.66,-99.67 649.64,-87 622.89,-65.85 591.96,-41.36 572.6,-26.02"/>
<polygon fill="midnightblue" stroke="midnightblue" points="574.59,-23.13 564.58,-19.67 570.24,-28.62 574.59,-23.13"/>
</g>
<!-- Node26 -->
<g id="node26" class="node">
<title>Node26</title>
<g id="a_node26"><a xlink:title=" ">
<polygon fill="white" stroke="#bfbfbf" points="469.64,-0.5 469.64,-19.5 511.64,-19.5 511.64,-0.5 469.64,-0.5"/>
<text text-anchor="middle" x="490.64" y="-7.5" font-family="Helvetica,sans-Serif" font-size="10.00">array</text>
</a>
</g>
</g>
<!-- Node21&#45;&gt;Node26 -->
<g id="edge27" class="edge">
<title>Node21&#45;&gt;Node26</title>
<path fill="none" stroke="midnightblue" d="M686.19,-123.46C666.28,-114.93 635.36,-101.1 609.64,-87 573.96,-67.45 534.53,-41.3 511.2,-25.33"/>
<polygon fill="midnightblue" stroke="midnightblue" points="513.03,-22.34 502.81,-19.55 509.06,-28.11 513.03,-22.34"/>
</g>
<!-- Node27 -->
<g id="node27" class="node">
<title>Node27</title>
<g id="a_node27"><a xlink:title=" ">
<polygon fill="white" stroke="#bfbfbf" points="863.14,-62 863.14,-81 1012.14,-81 1012.14,-62 863.14,-62"/>
<text text-anchor="middle" x="937.64" y="-69" font-family="Helvetica,sans-Serif" font-size="10.00">small_vector/SmallVector.h</text>
</a>
</g>
</g>
<!-- Node21&#45;&gt;Node27 -->
<g id="edge29" class="edge">
<title>Node21&#45;&gt;Node27</title>
<path fill="none" stroke="midnightblue" d="M739.74,-123.48C780.56,-112.96 850.05,-95.06 894.88,-83.51"/>
<polygon fill="midnightblue" stroke="midnightblue" points="895.79,-86.89 904.6,-81.01 894.05,-80.11 895.79,-86.89"/>
</g>
<!-- Node23 -->
<g id="node23" class="node">
<title>Node23</title>
<g id="a_node23"><a xlink:title=" ">
<polygon fill="white" stroke="#bfbfbf" points="682.14,-0.5 682.14,-19.5 735.14,-19.5 735.14,-0.5 682.14,-0.5"/>
<text text-anchor="middle" x="708.64" y="-7.5" font-family="Helvetica,sans-Serif" font-size="10.00">cstddef</text>
</a>
</g>
</g>
<!-- Node22&#45;&gt;Node23 -->
<g id="edge24" class="edge">
<title>Node22&#45;&gt;Node23</title>
<path fill="none" stroke="midnightblue" d="M706.93,-61.98C707.21,-53.58 707.65,-40.48 708.01,-29.66"/>
<polygon fill="midnightblue" stroke="midnightblue" points="711.52,-29.62 708.35,-19.51 704.52,-29.39 711.52,-29.62"/>
</g>
<!-- Node22&#45;&gt;Node24 -->
<g id="edge25" class="edge">
<title>Node22&#45;&gt;Node24</title>
<path fill="none" stroke="midnightblue" d="M721.25,-61.98C737.99,-52.21 765.64,-36.08 785.36,-24.58"/>
<polygon fill="midnightblue" stroke="midnightblue" points="787.18,-27.57 794.05,-19.51 783.65,-21.52 787.18,-27.57"/>
</g>
<!-- Node22&#45;&gt;Node25 -->
<g id="edge26" class="edge">
<title>Node22&#45;&gt;Node25</title>
<path fill="none" stroke="midnightblue" d="M684.72,-61.98C658.59,-51.81 614.73,-34.76 585.01,-23.2"/>
<polygon fill="midnightblue" stroke="midnightblue" points="586.11,-19.87 575.52,-19.51 583.57,-26.4 586.11,-19.87"/>
</g>
<!-- Node28&#45;&gt;Node16 -->
<g id="edge37" class="edge">
<title>Node28&#45;&gt;Node16</title>
<path fill="none" stroke="midnightblue" d="M386.33,-61.98C438.92,-50.96 530.2,-31.83 584.76,-20.4"/>
<polygon fill="midnightblue" stroke="midnightblue" points="585.76,-23.77 594.83,-18.29 584.33,-16.92 585.76,-23.77"/>
</g>
<!-- Node28&#45;&gt;Node25 -->
<g id="edge38" class="edge">
<title>Node28&#45;&gt;Node25</title>
<path fill="none" stroke="midnightblue" d="M375.44,-61.98C413.78,-51.01 480.19,-32.01 520.21,-20.56"/>
<polygon fill="midnightblue" stroke="midnightblue" points="521.37,-23.87 530.02,-17.76 519.44,-17.14 521.37,-23.87"/>
</g>
<!-- Node28&#45;&gt;Node26 -->
<g id="edge33" class="edge">
<title>Node28&#45;&gt;Node26</title>
<path fill="none" stroke="midnightblue" d="M366.41,-61.98C391.07,-51.86 432.38,-34.9 460.54,-23.35"/>
<polygon fill="midnightblue" stroke="midnightblue" points="461.98,-26.54 469.9,-19.51 459.32,-20.07 461.98,-26.54"/>
</g>
<!-- Node29 -->
<g id="node29" class="node">
<title>Node29</title>
<g id="a_node29"><a xlink:title=" ">
<polygon fill="white" stroke="#bfbfbf" points="387.64,-0.5 387.64,-19.5 451.64,-19.5 451.64,-0.5 387.64,-0.5"/>
<text text-anchor="middle" x="419.64" y="-7.5" font-family="Helvetica,sans-Serif" font-size="10.00">algorithm</text>
</a>
</g>
</g>
<!-- Node28&#45;&gt;Node29 -->
<g id="edge32" class="edge">
<title>Node28&#45;&gt;Node29</title>
<path fill="none" stroke="midnightblue" d="M356.24,-61.98C367.89,-52.61 386.83,-37.38 400.97,-26.01"/>
<polygon fill="midnightblue" stroke="midnightblue" points="403.46,-28.5 409.06,-19.51 399.07,-23.05 403.46,-28.5"/>
</g>
<!-- Node30 -->
<g id="node30" class="node">
<title>Node30</title>
<g id="a_node30"><a xlink:title=" ">
<polygon fill="white" stroke="#bfbfbf" points="229.14,-0.5 229.14,-19.5 278.14,-19.5 278.14,-0.5 229.14,-0.5"/>
<text text-anchor="middle" x="253.64" y="-7.5" font-family="Helvetica,sans-Serif" font-size="10.00">cctype</text>
</a>
</g>
</g>
<!-- Node28&#45;&gt;Node30 -->
<g id="edge34" class="edge">
<title>Node28&#45;&gt;Node30</title>
<path fill="none" stroke="midnightblue" d="M332.46,-61.98C317.57,-52.34 293.1,-36.52 275.37,-25.05"/>
<polygon fill="midnightblue" stroke="midnightblue" points="277.09,-22 266.8,-19.51 273.29,-27.88 277.09,-22"/>
</g>
<!-- Node28&#45;&gt;Node31 -->
<g id="edge35" class="edge">
<title>Node28&#45;&gt;Node31</title>
<path fill="none" stroke="midnightblue" d="M321,-61.98C290.61,-51.46 238.89,-33.57 205.51,-22.02"/>
<polygon fill="midnightblue" stroke="midnightblue" points="206.38,-18.62 195.78,-18.66 204.09,-25.24 206.38,-18.62"/>
</g>
<!-- Node32 -->
<g id="node32" class="node">
<title>Node32</title>
<g id="a_node32"><a xlink:title=" ">
<polygon fill="white" stroke="#bfbfbf" points="296.14,-0.5 296.14,-19.5 369.14,-19.5 369.14,-0.5 296.14,-0.5"/>
<text text-anchor="middle" x="332.64" y="-7.5" font-family="Helvetica,sans-Serif" font-size="10.00">string_view</text>
</a>
</g>
</g>
<!-- Node28&#45;&gt;Node32 -->
<g id="edge36" class="edge">
<title>Node28&#45;&gt;Node32</title>
<path fill="none" stroke="midnightblue" d="M343.78,-61.98C341.92,-53.49 339.02,-40.2 336.64,-29.32"/>
<polygon fill="midnightblue" stroke="midnightblue" points="340.05,-28.53 334.5,-19.51 333.21,-30.03 340.05,-28.53"/>
</g>
<!-- Node33&#45;&gt;Node16 -->
<g id="edge49" class="edge">
<title>Node33&#45;&gt;Node16</title>
<path fill="none" stroke="midnightblue" d="M560.03,-123.3C572.36,-103.41 602.77,-54.35 619.01,-28.15"/>
<polygon fill="midnightblue" stroke="midnightblue" points="622,-29.97 624.29,-19.62 616.05,-26.28 622,-29.97"/>
</g>
<!-- Node33&#45;&gt;Node25 -->
<g id="edge50" class="edge">
<title>Node33&#45;&gt;Node25</title>
<path fill="none" stroke="midnightblue" d="M554.57,-123.3C554.41,-103.85 554.02,-56.49 553.8,-29.9"/>
<polygon fill="midnightblue" stroke="midnightblue" points="557.29,-29.59 553.71,-19.62 550.29,-29.65 557.29,-29.59"/>
</g>
<!-- Node33&#45;&gt;Node28 -->
<g id="edge40" class="edge">
<title>Node33&#45;&gt;Node28</title>
<path fill="none" stroke="midnightblue" d="M524.7,-123.48C488.07,-113.05 425.94,-95.36 385.36,-83.81"/>
<polygon fill="midnightblue" stroke="midnightblue" points="386.11,-80.38 375.53,-81.01 384.19,-87.11 386.11,-80.38"/>
</g>
<!-- Node34 -->
<g id="node34" class="node">
<title>Node34</title>
<g id="a_node34"><a xlink:href="serialized_8h.html" target="_top" xlink:title=" ">
<polygon fill="white" stroke="black" points="772.14,-62 772.14,-81 845.14,-81 845.14,-62 772.14,-62"/>
<text text-anchor="middle" x="808.64" y="-69" font-family="Helvetica,sans-Serif" font-size="10.00">serialized.h</text>
</a>
</g>
</g>
<!-- Node33&#45;&gt;Node34 -->
<g id="edge41" class="edge">
<title>Node33&#45;&gt;Node34</title>
<path fill="none" stroke="midnightblue" d="M589.84,-125.41C631.39,-117.4 702.46,-102.96 762.64,-87 766.06,-86.09 769.61,-85.09 773.14,-84.05"/>
<polygon fill="midnightblue" stroke="midnightblue" points="774.43,-87.31 782.97,-81.05 772.39,-80.62 774.43,-87.31"/>
</g>
<!-- Node36 -->
<g id="node36" class="node">
<title>Node36</title>
<g id="a_node36"><a xlink:title=" ">
<polygon fill="white" stroke="#bfbfbf" points="224.64,-62 224.64,-81 282.64,-81 282.64,-62 224.64,-62"/>
<text text-anchor="middle" x="253.64" y="-69" font-family="Helvetica,sans-Serif" font-size="10.00">memory</text>
</a>
</g>
</g>
<!-- Node33&#45;&gt;Node36 -->
<g id="edge47" class="edge">
<title>Node33&#45;&gt;Node36</title>
<path fill="none" stroke="midnightblue" d="M519.28,-128.17C468.34,-122.16 371.62,-108.88 291.64,-87 288.99,-86.27 286.26,-85.43 283.54,-84.53"/>
<polygon fill="midnightblue" stroke="midnightblue" points="284.5,-81.15 273.91,-81.07 282.14,-87.74 284.5,-81.15"/>
</g>
<!-- Node37 -->
<g id="node37" class="node">
<title>Node37</title>
<g id="a_node37"><a xlink:title=" ">
<polygon fill="white" stroke="#bfbfbf" points="447.14,-62 447.14,-81 488.14,-81 488.14,-62 447.14,-62"/>
<text text-anchor="middle" x="467.64" y="-69" font-family="Helvetica,sans-Serif" font-size="10.00">tuple</text>
</a>
</g>
</g>
<!-- Node33&#45;&gt;Node37 -->
<g id="edge48" class="edge">
<title>Node33&#45;&gt;Node37</title>
<path fill="none" stroke="midnightblue" d="M542.17,-123.48C528.22,-113.93 505.37,-98.31 488.65,-86.87"/>
<polygon fill="midnightblue" stroke="midnightblue" points="490.31,-83.77 480.08,-81.01 486.36,-89.54 490.31,-83.77"/>
</g>
<!-- Node34&#45;&gt;Node19 -->
<g id="edge43" class="edge">
<title>Node34&#45;&gt;Node19</title>
<path fill="none" stroke="midnightblue" d="M833.78,-61.91C840.5,-59.79 847.8,-57.66 854.64,-56 934.53,-36.62 1030.13,-22.36 1080.53,-15.52"/>
<polygon fill="midnightblue" stroke="midnightblue" points="1081.13,-18.97 1090.58,-14.18 1080.2,-12.03 1081.13,-18.97"/>
</g>
<!-- Node34&#45;&gt;Node24 -->
<g id="edge42" class="edge">
<title>Node34&#45;&gt;Node24</title>
<path fill="none" stroke="midnightblue" d="M808.64,-61.98C808.64,-53.58 808.64,-40.48 808.64,-29.66"/>
<polygon fill="midnightblue" stroke="midnightblue" points="812.14,-29.51 808.64,-19.51 805.14,-29.51 812.14,-29.51"/>
</g>
<!-- Node34&#45;&gt;Node25 -->
<g id="edge46" class="edge">
<title>Node34&#45;&gt;Node25</title>
<path fill="none" stroke="midnightblue" d="M782.99,-61.89C776.4,-59.82 769.29,-57.72 762.64,-56 687.95,-36.69 665.41,-38.68 587.18,-20.23"/>
<polygon fill="midnightblue" stroke="midnightblue" points="587.89,-16.81 577.35,-17.88 586.26,-23.61 587.89,-16.81"/>
</g>
<!-- Node34&#45;&gt;Node31 -->
<g id="edge45" class="edge">
<title>Node34&#45;&gt;Node31</title>
<path fill="none" stroke="midnightblue" d="M785.04,-61.87C777.93,-59.6 770.05,-57.39 762.64,-56 524.94,-11.32 459.47,-51.28 219.64,-20 215.16,-19.42 210.46,-18.66 205.85,-17.84"/>
<polygon fill="midnightblue" stroke="midnightblue" points="206.49,-14.4 196.01,-15.97 205.18,-21.27 206.49,-14.4"/>
</g>
<!-- Node34&#45;&gt;Node35 -->
<g id="edge44" class="edge">
<title>Node34&#45;&gt;Node35</title>
<path fill="none" stroke="midnightblue" d="M832.77,-61.98C839.75,-59.76 847.44,-57.56 854.64,-56 858.62,-55.14 1085.37,-27.78 1181.89,-16.15"/>
<polygon fill="midnightblue" stroke="midnightblue" points="1182.39,-19.61 1191.9,-14.94 1181.55,-12.66 1182.39,-19.61"/>
</g>
<!-- Node41&#45;&gt;Node20 -->
<g id="edge63" class="edge">
<title>Node41&#45;&gt;Node20</title>
<path fill="none" stroke="midnightblue" d="M706.64,-235.4C706.64,-227.47 706.64,-217.46 706.64,-208.86"/>
<polygon fill="midnightblue" stroke="midnightblue" points="710.14,-208.66 706.64,-198.66 703.14,-208.66 710.14,-208.66"/>
</g>
<!-- Node42 -->
<g id="node42" class="node">
<title>Node42</title>
<g id="a_node42"><a xlink:href="lfs__interface_8h.html" target="_top" xlink:title=" ">
<polygon fill="white" stroke="black" points="3.14,-123.5 3.14,-142.5 134.14,-142.5 134.14,-123.5 3.14,-123.5"/>
<text text-anchor="middle" x="68.64" y="-130.5" font-family="Helvetica,sans-Serif" font-size="10.00">indexing/lfs_interface.h</text>
</a>
</g>
</g>
<!-- Node41&#45;&gt;Node42 -->
<g id="edge64" class="edge">
<title>Node41&#45;&gt;Node42</title>
<path fill="none" stroke="midnightblue" d="M643.43,-238.06C519.25,-215.58 245.19,-165.96 125.94,-144.37"/>
<polygon fill="midnightblue" stroke="midnightblue" points="126.38,-140.9 115.91,-142.56 125.13,-147.78 126.38,-140.9"/>
</g>
<!-- Node42&#45;&gt;Node25 -->
<g id="edge68" class="edge">
<title>Node42&#45;&gt;Node25</title>
<path fill="none" stroke="midnightblue" d="M81.33,-123.41C106,-107.19 162.62,-72.24 215.64,-56 343.09,-16.95 384.7,-44.66 520.04,-19.8"/>
<polygon fill="midnightblue" stroke="midnightblue" points="520.78,-23.22 529.95,-17.92 519.47,-16.34 520.78,-23.22"/>
</g>
<!-- Node42&#45;&gt;Node31 -->
<g id="edge67" class="edge">
<title>Node42&#45;&gt;Node31</title>
<path fill="none" stroke="midnightblue" d="M47.79,-123.43C33.06,-116.13 14.43,-104.09 5.64,-87 -0.66,-74.75 -2.75,-66.93 5.64,-56 22.06,-34.6 97.4,-21.15 141.41,-14.98"/>
<polygon fill="midnightblue" stroke="midnightblue" points="141.91,-18.44 151.35,-13.63 140.97,-11.51 141.91,-18.44"/>
</g>
<!-- Node42&#45;&gt;Node36 -->
<g id="edge66" class="edge">
<title>Node42&#45;&gt;Node36</title>
<path fill="none" stroke="midnightblue" d="M96.18,-123.44C124.82,-114.49 170.94,-99.98 210.64,-87 213.38,-86.1 216.21,-85.17 219.06,-84.22"/>
<polygon fill="midnightblue" stroke="midnightblue" points="220.28,-87.5 228.65,-81.01 218.06,-80.87 220.28,-87.5"/>
</g>
<!-- Node43 -->
<g id="node43" class="node">
<title>Node43</title>
<g id="a_node43"><a xlink:href="node__subsystem__interface_8h.html" target="_top" xlink:title=" ">
<polygon fill="white" stroke="black" points="14.64,-56.5 14.64,-86.5 130.64,-86.5 130.64,-56.5 14.64,-56.5"/>
<text text-anchor="start" x="22.64" y="-74.5" font-family="Helvetica,sans-Serif" font-size="10.00">ccf/node_subsystem</text>
<text text-anchor="middle" x="72.64" y="-63.5" font-family="Helvetica,sans-Serif" font-size="10.00">_interface.h</text>
</a>
</g>
</g>
<!-- Node42&#45;&gt;Node43 -->
<g id="edge65" class="edge">
<title>Node42&#45;&gt;Node43</title>
<path fill="none" stroke="midnightblue" d="M69.21,-123.48C69.68,-116.47 70.37,-106.19 71.01,-96.7"/>
<polygon fill="midnightblue" stroke="midnightblue" points="74.52,-96.74 71.7,-86.52 67.53,-96.27 74.52,-96.74"/>
</g>
</g>
</svg>
