<?xml version="1.0" encoding="UTF-8" standalone="no"?>
<!DOCTYPE svg PUBLIC "-//W3C//DTD SVG 1.1//EN"
 "http://www.w3.org/Graphics/SVG/1.1/DTD/svg11.dtd">
<!-- Generated by graphviz version 2.43.0 (0)
 -->
<!-- Title: src/node/rpc/network_identity_interface.h Pages: 1 -->
<svg width="326pt" height="106pt"
 viewBox="0.00 0.00 325.50 106.00" xmlns="http://www.w3.org/2000/svg" xmlns:xlink="http://www.w3.org/1999/xlink">
<g id="graph0" class="graph" transform="scale(1 1) rotate(0) translate(4 102)">
<title>src/node/rpc/network_identity_interface.h</title>
<polygon fill="white" stroke="transparent" points="-4,4 -4,-102 321.5,-102 321.5,4 -4,4"/>
<!-- Node1 -->
<g id="node1" class="node">
<title>Node1</title>
<g id="a_node1"><a xlink:title=" ">
<polygon fill="#bfbfbf" stroke="black" points="136.5,-67.5 136.5,-97.5 255.5,-97.5 255.5,-67.5 136.5,-67.5"/>
<text text-anchor="start" x="144.5" y="-85.5" font-family="Helvetica,sans-Serif" font-size="10.00">src/node/rpc/network</text>
<text text-anchor="middle" x="196" y="-74.5" font-family="Helvetica,sans-Serif" font-size="10.00">_identity_interface.h</text>
</a>
</g>
</g>
<!-- Node2 -->
<g id="node2" class="node">
<title>Node2</title>
<g id="a_node2"><a xlink:href="node__subsystem__interface_8h.html" target="_top" xlink:title=" ">
<polygon fill="white" stroke="black" points="0,-0.5 0,-30.5 116,-30.5 116,-0.5 0,-0.5"/>
<text text-anchor="start" x="8" y="-18.5" font-family="Helvetica,sans-Serif" font-size="10.00">ccf/node_subsystem</text>
<text text-anchor="middle" x="58" y="-7.5" font-family="Helvetica,sans-Serif" font-size="10.00">_interface.h</text>
</a>
</g>
</g>
<!-- Node1&#45;&gt;Node2 -->
<g id="edge1" class="edge">
<title>Node1&#45;&gt;Node2</title>
<path fill="none" stroke="midnightblue" d="M166.06,-67.4C145.8,-57.86 118.85,-45.16 96.94,-34.84"/>
<polygon fill="midnightblue" stroke="midnightblue" points="98.42,-31.67 87.89,-30.58 95.44,-38 98.42,-31.67"/>
</g>
<!-- Node3 -->
<g id="node3" class="node">
<title>Node3</title>
<g id="a_node3"><a xlink:title=" ">
<polygon fill="white" stroke="#bfbfbf" points="134,-6 134,-25 190,-25 190,-6 134,-6"/>
<text text-anchor="middle" x="162" y="-13" font-family="Helvetica,sans-Serif" font-size="10.00">optional</text>
</a>
</g>
</g>
<!-- Node1&#45;&gt;Node3 -->
<g id="edge2" class="edge">
<title>Node1&#45;&gt;Node3</title>
<path fill="none" stroke="midnightblue" d="M188.62,-67.4C183.53,-57.66 176.72,-44.65 171.27,-34.21"/>
<polygon fill="midnightblue" stroke="midnightblue" points="174.28,-32.43 166.55,-25.19 168.08,-35.68 174.28,-32.43"/>
</g>
<!-- Node4 -->
<g id="node4" class="node">
<title>Node4</title>
<g id="a_node4"><a xlink:title=" ">
<polygon fill="white" stroke="#bfbfbf" points="208,-6 208,-25 252,-25 252,-6 208,-6"/>
<text text-anchor="middle" x="230" y="-13" font-family="Helvetica,sans-Serif" font-size="10.00">string</text>
</a>
</g>
</g>
<!-- Node1&#45;&gt;Node4 -->
<g id="edge3" class="edge">
<title>Node1&#45;&gt;Node4</title>
<path fill="none" stroke="midnightblue" d="M203.38,-67.4C208.47,-57.66 215.28,-44.65 220.73,-34.21"/>
<polygon fill="midnightblue" stroke="midnightblue" points="223.92,-35.68 225.45,-25.19 217.72,-32.43 223.92,-35.68"/>
</g>
<!-- Node5 -->
<g id="node5" class="node">
<title>Node5</title>
<g id="a_node5"><a xlink:title=" ">
<polygon fill="white" stroke="#bfbfbf" points="270.5,-6 270.5,-25 317.5,-25 317.5,-6 270.5,-6"/>
<text text-anchor="middle" x="294" y="-13" font-family="Helvetica,sans-Serif" font-size="10.00">vector</text>
</a>
</g>
</g>
<!-- Node1&#45;&gt;Node5 -->
<g id="edge4" class="edge">
<title>Node1&#45;&gt;Node5</title>
<path fill="none" stroke="midnightblue" d="M217.26,-67.4C233.7,-56.5 256.34,-41.48 272.77,-30.58"/>
<polygon fill="midnightblue" stroke="midnightblue" points="274.78,-33.45 281.17,-25.01 270.91,-27.62 274.78,-33.45"/>
</g>
</g>
</svg>
