<?xml version="1.0" encoding="UTF-8" standalone="no"?>
<!DOCTYPE svg PUBLIC "-//W3C//DTD SVG 1.1//EN"
 "http://www.w3.org/Graphics/SVG/1.1/DTD/svg11.dtd">
<!-- Generated by graphviz version 2.43.0 (0)
 -->
<!-- Title: src/service/tables/node_signature.h Pages: 1 -->
<svg width="798pt" height="263pt"
 viewBox="0.00 0.00 798.00 263.00" xmlns="http://www.w3.org/2000/svg" xmlns:xlink="http://www.w3.org/1999/xlink">
<g id="graph0" class="graph" transform="scale(1 1) rotate(0) translate(4 259)">
<title>src/service/tables/node_signature.h</title>
<polygon fill="white" stroke="transparent" points="-4,4 -4,-259 794,-259 794,4 -4,4"/>
<!-- Node1 -->
<g id="node1" class="node">
<title>Node1</title>
<g id="a_node1"><a xlink:title=" ">
<polygon fill="#bfbfbf" stroke="black" points="149.5,-224.5 149.5,-254.5 253.5,-254.5 253.5,-224.5 149.5,-224.5"/>
<text text-anchor="start" x="157.5" y="-242.5" font-family="Helvetica,sans-Serif" font-size="10.00">src/service/tables</text>
<text text-anchor="middle" x="201.5" y="-231.5" font-family="Helvetica,sans-Serif" font-size="10.00">/node_signature.h</text>
</a>
</g>
</g>
<!-- Node2 -->
<g id="node2" class="node">
<title>Node2</title>
<g id="a_node2"><a xlink:href="json_8h.html" target="_top" xlink:title=" ">
<polygon fill="white" stroke="black" points="304,-168.5 304,-187.5 381,-187.5 381,-168.5 304,-168.5"/>
<text text-anchor="middle" x="342.5" y="-175.5" font-family="Helvetica,sans-Serif" font-size="10.00">ccf/ds/json.h</text>
</a>
</g>
</g>
<!-- Node1&#45;&gt;Node2 -->
<g id="edge1" class="edge">
<title>Node1&#45;&gt;Node2</title>
<path fill="none" stroke="midnightblue" d="M234.92,-224.4C258.47,-214.46 289.74,-201.26 312.49,-191.66"/>
<polygon fill="midnightblue" stroke="midnightblue" points="314.13,-194.77 321.98,-187.66 311.41,-188.32 314.13,-194.77"/>
</g>
<!-- Node5 -->
<g id="node5" class="node">
<title>Node5</title>
<g id="a_node5"><a xlink:title=" ">
<polygon fill="white" stroke="#bfbfbf" points="220,-0.5 220,-19.5 267,-19.5 267,-0.5 220,-0.5"/>
<text text-anchor="middle" x="243.5" y="-7.5" font-family="Helvetica,sans-Serif" font-size="10.00">vector</text>
</a>
</g>
</g>
<!-- Node1&#45;&gt;Node5 -->
<g id="edge24" class="edge">
<title>Node1&#45;&gt;Node5</title>
<path fill="none" stroke="midnightblue" d="M201.23,-224.43C201,-193.34 202.49,-116.78 220.5,-56 223.34,-46.43 228.19,-36.48 232.71,-28.38"/>
<polygon fill="midnightblue" stroke="midnightblue" points="235.85,-29.95 237.91,-19.56 229.82,-26.4 235.85,-29.95"/>
</g>
<!-- Node16 -->
<g id="node16" class="node">
<title>Node16</title>
<g id="a_node16"><a xlink:href="serialized_8h.html" target="_top" xlink:title=" ">
<polygon fill="white" stroke="black" points="86,-56.5 86,-75.5 173,-75.5 173,-56.5 86,-56.5"/>
<text text-anchor="middle" x="129.5" y="-63.5" font-family="Helvetica,sans-Serif" font-size="10.00">ds/serialized.h</text>
</a>
</g>
</g>
<!-- Node1&#45;&gt;Node16 -->
<g id="edge18" class="edge">
<title>Node1&#45;&gt;Node16</title>
<path fill="none" stroke="midnightblue" d="M195.61,-224.47C182.58,-193.44 151.35,-119.05 136.98,-84.81"/>
<polygon fill="midnightblue" stroke="midnightblue" points="140.19,-83.43 133.09,-75.56 133.74,-86.13 140.19,-83.43"/>
</g>
<!-- Node3 -->
<g id="node3" class="node">
<title>Node3</title>
<g id="a_node3"><a xlink:href="include_2ccf_2crypto_2base64_8h.html" target="_top" xlink:title=" ">
<polygon fill="white" stroke="black" points="229.5,-56.5 229.5,-75.5 341.5,-75.5 341.5,-56.5 229.5,-56.5"/>
<text text-anchor="middle" x="285.5" y="-63.5" font-family="Helvetica,sans-Serif" font-size="10.00">ccf/crypto/base64.h</text>
</a>
</g>
</g>
<!-- Node2&#45;&gt;Node3 -->
<g id="edge2" class="edge">
<title>Node2&#45;&gt;Node3</title>
<path fill="none" stroke="midnightblue" d="M333.71,-168.45C325.39,-159.92 313.07,-146.08 305.5,-132 297.64,-117.38 292.38,-99.21 289.23,-85.8"/>
<polygon fill="midnightblue" stroke="midnightblue" points="292.61,-84.87 287.08,-75.84 285.77,-86.35 292.61,-84.87"/>
</g>
<!-- Node6 -->
<g id="node6" class="node">
<title>Node6</title>
<g id="a_node6"><a xlink:href="include_2ccf_2ds_2json__schema_8h.html" target="_top" xlink:title=" ">
<polygon fill="white" stroke="black" points="439,-112.5 439,-131.5 560,-131.5 560,-112.5 439,-112.5"/>
<text text-anchor="middle" x="499.5" y="-119.5" font-family="Helvetica,sans-Serif" font-size="10.00">ccf/ds/json_schema.h</text>
</a>
</g>
</g>
<!-- Node2&#45;&gt;Node6 -->
<g id="edge5" class="edge">
<title>Node2&#45;&gt;Node6</title>
<path fill="none" stroke="midnightblue" d="M367.38,-168.44C393.79,-159.36 435.72,-144.94 465.24,-134.78"/>
<polygon fill="midnightblue" stroke="midnightblue" points="466.42,-138.08 474.74,-131.52 464.14,-131.46 466.42,-138.08"/>
</g>
<!-- Node13 -->
<g id="node13" class="node">
<title>Node13</title>
<g id="a_node13"><a xlink:title=" ">
<polygon fill="white" stroke="#bfbfbf" points="360,-56.5 360,-75.5 439,-75.5 439,-56.5 360,-56.5"/>
<text text-anchor="middle" x="399.5" y="-63.5" font-family="Helvetica,sans-Serif" font-size="10.00">fmt/format.h</text>
</a>
</g>
</g>
<!-- Node2&#45;&gt;Node13 -->
<g id="edge16" class="edge">
<title>Node2&#45;&gt;Node13</title>
<path fill="none" stroke="midnightblue" d="M351.29,-168.45C359.61,-159.92 371.93,-146.08 379.5,-132 387.36,-117.38 392.62,-99.21 395.77,-85.8"/>
<polygon fill="midnightblue" stroke="midnightblue" points="399.23,-86.35 397.92,-75.84 392.39,-84.87 399.23,-86.35"/>
</g>
<!-- Node15 -->
<g id="node15" class="node">
<title>Node15</title>
<g id="a_node15"><a xlink:title=" ">
<polygon fill="white" stroke="#bfbfbf" points="314.5,-112.5 314.5,-131.5 370.5,-131.5 370.5,-112.5 314.5,-112.5"/>
<text text-anchor="middle" x="342.5" y="-119.5" font-family="Helvetica,sans-Serif" font-size="10.00">sstream</text>
</a>
</g>
</g>
<!-- Node2&#45;&gt;Node15 -->
<g id="edge17" class="edge">
<title>Node2&#45;&gt;Node15</title>
<path fill="none" stroke="midnightblue" d="M342.5,-168.08C342.5,-161.01 342.5,-150.86 342.5,-141.99"/>
<polygon fill="midnightblue" stroke="midnightblue" points="346,-141.75 342.5,-131.75 339,-141.75 346,-141.75"/>
</g>
<!-- Node4 -->
<g id="node4" class="node">
<title>Node4</title>
<g id="a_node4"><a xlink:title=" ">
<polygon fill="white" stroke="#bfbfbf" points="285.5,-0.5 285.5,-19.5 329.5,-19.5 329.5,-0.5 285.5,-0.5"/>
<text text-anchor="middle" x="307.5" y="-7.5" font-family="Helvetica,sans-Serif" font-size="10.00">string</text>
</a>
</g>
</g>
<!-- Node3&#45;&gt;Node4 -->
<g id="edge3" class="edge">
<title>Node3&#45;&gt;Node4</title>
<path fill="none" stroke="midnightblue" d="M289.13,-56.08C292.11,-48.77 296.43,-38.18 300.12,-29.1"/>
<polygon fill="midnightblue" stroke="midnightblue" points="303.4,-30.33 303.93,-19.75 296.92,-27.69 303.4,-30.33"/>
</g>
<!-- Node3&#45;&gt;Node5 -->
<g id="edge4" class="edge">
<title>Node3&#45;&gt;Node5</title>
<path fill="none" stroke="midnightblue" d="M278.56,-56.08C272.57,-48.38 263.75,-37.03 256.45,-27.65"/>
<polygon fill="midnightblue" stroke="midnightblue" points="259.21,-25.5 250.31,-19.75 253.68,-29.79 259.21,-25.5"/>
</g>
<!-- Node7 -->
<g id="node7" class="node">
<title>Node7</title>
<g id="a_node7"><a xlink:href="nonstd_8h.html" target="_top" xlink:title=" ">
<polygon fill="white" stroke="black" points="585.5,-56.5 585.5,-75.5 675.5,-75.5 675.5,-56.5 585.5,-56.5"/>
<text text-anchor="middle" x="630.5" y="-63.5" font-family="Helvetica,sans-Serif" font-size="10.00">ccf/ds/nonstd.h</text>
</a>
</g>
</g>
<!-- Node6&#45;&gt;Node7 -->
<g id="edge6" class="edge">
<title>Node6&#45;&gt;Node7</title>
<path fill="none" stroke="midnightblue" d="M520.26,-112.44C541.82,-103.56 575.76,-89.56 600.29,-79.45"/>
<polygon fill="midnightblue" stroke="midnightblue" points="601.93,-82.56 609.84,-75.52 599.26,-76.09 601.93,-82.56"/>
</g>
<!-- Node6&#45;&gt;Node13 -->
<g id="edge14" class="edge">
<title>Node6&#45;&gt;Node13</title>
<path fill="none" stroke="midnightblue" d="M483.43,-112.32C467.54,-103.74 442.99,-90.49 424.54,-80.52"/>
<polygon fill="midnightblue" stroke="midnightblue" points="425.99,-77.33 415.53,-75.65 422.66,-83.49 425.99,-77.33"/>
</g>
<!-- Node14 -->
<g id="node14" class="node">
<title>Node14</title>
<g id="a_node14"><a xlink:title=" ">
<polygon fill="white" stroke="#bfbfbf" points="457.5,-56.5 457.5,-75.5 567.5,-75.5 567.5,-56.5 457.5,-56.5"/>
<text text-anchor="middle" x="512.5" y="-63.5" font-family="Helvetica,sans-Serif" font-size="10.00">nlohmann/json.hpp</text>
</a>
</g>
</g>
<!-- Node6&#45;&gt;Node14 -->
<g id="edge15" class="edge">
<title>Node6&#45;&gt;Node14</title>
<path fill="none" stroke="midnightblue" d="M501.65,-112.08C503.37,-104.93 505.85,-94.64 508,-85.69"/>
<polygon fill="midnightblue" stroke="midnightblue" points="511.46,-86.29 510.39,-75.75 504.65,-84.65 511.46,-86.29"/>
</g>
<!-- Node7&#45;&gt;Node4 -->
<g id="edge10" class="edge">
<title>Node7&#45;&gt;Node4</title>
<path fill="none" stroke="midnightblue" d="M585.25,-57.43C519.05,-46.37 397.42,-26.03 339.63,-16.37"/>
<polygon fill="midnightblue" stroke="midnightblue" points="340.05,-12.89 329.61,-14.7 338.89,-19.8 340.05,-12.89"/>
</g>
<!-- Node7&#45;&gt;Node5 -->
<g id="edge13" class="edge">
<title>Node7&#45;&gt;Node5</title>
<path fill="none" stroke="midnightblue" d="M585.44,-57.33C582.42,-56.87 579.42,-56.42 576.5,-56 446.81,-37.42 410.08,-45.32 277.34,-19.88"/>
<polygon fill="midnightblue" stroke="midnightblue" points="277.68,-16.38 267.19,-17.91 276.34,-23.25 277.68,-16.38"/>
</g>
<!-- Node8 -->
<g id="node8" class="node">
<title>Node8</title>
<g id="a_node8"><a xlink:title=" ">
<polygon fill="white" stroke="#bfbfbf" points="598.5,-0.5 598.5,-19.5 662.5,-19.5 662.5,-0.5 598.5,-0.5"/>
<text text-anchor="middle" x="630.5" y="-7.5" font-family="Helvetica,sans-Serif" font-size="10.00">algorithm</text>
</a>
</g>
</g>
<!-- Node7&#45;&gt;Node8 -->
<g id="edge7" class="edge">
<title>Node7&#45;&gt;Node8</title>
<path fill="none" stroke="midnightblue" d="M630.5,-56.08C630.5,-49.01 630.5,-38.86 630.5,-29.99"/>
<polygon fill="midnightblue" stroke="midnightblue" points="634,-29.75 630.5,-19.75 627,-29.75 634,-29.75"/>
</g>
<!-- Node9 -->
<g id="node9" class="node">
<title>Node9</title>
<g id="a_node9"><a xlink:title=" ">
<polygon fill="white" stroke="#bfbfbf" points="680.5,-0.5 680.5,-19.5 722.5,-19.5 722.5,-0.5 680.5,-0.5"/>
<text text-anchor="middle" x="701.5" y="-7.5" font-family="Helvetica,sans-Serif" font-size="10.00">array</text>
</a>
</g>
</g>
<!-- Node7&#45;&gt;Node9 -->
<g id="edge8" class="edge">
<title>Node7&#45;&gt;Node9</title>
<path fill="none" stroke="midnightblue" d="M641.91,-56.32C652.61,-48.18 668.84,-35.84 681.66,-26.09"/>
<polygon fill="midnightblue" stroke="midnightblue" points="684.04,-28.67 689.89,-19.83 679.81,-23.1 684.04,-28.67"/>
</g>
<!-- Node10 -->
<g id="node10" class="node">
<title>Node10</title>
<g id="a_node10"><a xlink:title=" ">
<polygon fill="white" stroke="#bfbfbf" points="741,-0.5 741,-19.5 790,-19.5 790,-0.5 741,-0.5"/>
<text text-anchor="middle" x="765.5" y="-7.5" font-family="Helvetica,sans-Serif" font-size="10.00">cctype</text>
</a>
</g>
</g>
<!-- Node7&#45;&gt;Node10 -->
<g id="edge9" class="edge">
<title>Node7&#45;&gt;Node10</title>
<path fill="none" stroke="midnightblue" d="M651.89,-56.44C674.21,-47.52 709.4,-33.44 734.71,-23.32"/>
<polygon fill="midnightblue" stroke="midnightblue" points="736.22,-26.48 744.21,-19.52 733.62,-19.98 736.22,-26.48"/>
</g>
<!-- Node11 -->
<g id="node11" class="node">
<title>Node11</title>
<g id="a_node11"><a xlink:title=" ">
<polygon fill="white" stroke="#bfbfbf" points="420,-0.5 420,-19.5 493,-19.5 493,-0.5 420,-0.5"/>
<text text-anchor="middle" x="456.5" y="-7.5" font-family="Helvetica,sans-Serif" font-size="10.00">string_view</text>
</a>
</g>
</g>
<!-- Node7&#45;&gt;Node11 -->
<g id="edge11" class="edge">
<title>Node7&#45;&gt;Node11</title>
<path fill="none" stroke="midnightblue" d="M602.93,-56.44C573.4,-47.28 526.38,-32.69 493.62,-22.52"/>
<polygon fill="midnightblue" stroke="midnightblue" points="494.53,-19.14 483.94,-19.52 492.46,-25.82 494.53,-19.14"/>
</g>
<!-- Node12 -->
<g id="node12" class="node">
<title>Node12</title>
<g id="a_node12"><a xlink:title=" ">
<polygon fill="white" stroke="#bfbfbf" points="511,-0.5 511,-19.5 580,-19.5 580,-0.5 511,-0.5"/>
<text text-anchor="middle" x="545.5" y="-7.5" font-family="Helvetica,sans-Serif" font-size="10.00">type_traits</text>
</a>
</g>
</g>
<!-- Node7&#45;&gt;Node12 -->
<g id="edge12" class="edge">
<title>Node7&#45;&gt;Node12</title>
<path fill="none" stroke="midnightblue" d="M616.84,-56.32C603.58,-47.9 583.23,-34.97 567.65,-25.07"/>
<polygon fill="midnightblue" stroke="midnightblue" points="569.44,-22.06 559.12,-19.65 565.69,-27.97 569.44,-22.06"/>
</g>
<!-- Node16&#45;&gt;Node4 -->
<g id="edge22" class="edge">
<title>Node16&#45;&gt;Node4</title>
<path fill="none" stroke="midnightblue" d="M157.7,-56.44C189.78,-46.71 242.02,-30.86 275.57,-20.69"/>
<polygon fill="midnightblue" stroke="midnightblue" points="276.78,-23.98 285.33,-17.73 274.75,-17.28 276.78,-23.98"/>
</g>
<!-- Node16&#45;&gt;Node5 -->
<g id="edge23" class="edge">
<title>Node16&#45;&gt;Node5</title>
<path fill="none" stroke="midnightblue" d="M147.56,-56.44C166.07,-47.68 195.08,-33.94 216.36,-23.86"/>
<polygon fill="midnightblue" stroke="midnightblue" points="217.98,-26.96 225.52,-19.52 214.99,-20.63 217.98,-26.96"/>
</g>
<!-- Node17 -->
<g id="node17" class="node">
<title>Node17</title>
<g id="a_node17"><a xlink:title=" ">
<polygon fill="white" stroke="#bfbfbf" points="83.5,-0.5 83.5,-19.5 133.5,-19.5 133.5,-0.5 83.5,-0.5"/>
<text text-anchor="middle" x="108.5" y="-7.5" font-family="Helvetica,sans-Serif" font-size="10.00">cstdint</text>
</a>
</g>
</g>
<!-- Node16&#45;&gt;Node17 -->
<g id="edge19" class="edge">
<title>Node16&#45;&gt;Node17</title>
<path fill="none" stroke="midnightblue" d="M126.03,-56.08C123.19,-48.77 119.07,-38.18 115.54,-29.1"/>
<polygon fill="midnightblue" stroke="midnightblue" points="118.79,-27.8 111.9,-19.75 112.27,-30.34 118.79,-27.8"/>
</g>
<!-- Node18 -->
<g id="node18" class="node">
<title>Node18</title>
<g id="a_node18"><a xlink:title=" ">
<polygon fill="white" stroke="#bfbfbf" points="151.5,-0.5 151.5,-19.5 201.5,-19.5 201.5,-0.5 151.5,-0.5"/>
<text text-anchor="middle" x="176.5" y="-7.5" font-family="Helvetica,sans-Serif" font-size="10.00">cstring</text>
</a>
</g>
</g>
<!-- Node16&#45;&gt;Node18 -->
<g id="edge20" class="edge">
<title>Node16&#45;&gt;Node18</title>
<path fill="none" stroke="midnightblue" d="M137.26,-56.08C144.04,-48.3 154.04,-36.8 162.26,-27.37"/>
<polygon fill="midnightblue" stroke="midnightblue" points="164.96,-29.59 168.88,-19.75 159.68,-25 164.96,-29.59"/>
</g>
<!-- Node19 -->
<g id="node19" class="node">
<title>Node19</title>
<g id="a_node19"><a xlink:title=" ">
<polygon fill="white" stroke="#bfbfbf" points="0,-0.5 0,-19.5 65,-19.5 65,-0.5 0,-0.5"/>
<text text-anchor="middle" x="32.5" y="-7.5" font-family="Helvetica,sans-Serif" font-size="10.00">stdexcept</text>
</a>
</g>
</g>
<!-- Node16&#45;&gt;Node19 -->
<g id="edge21" class="edge">
<title>Node16&#45;&gt;Node19</title>
<path fill="none" stroke="midnightblue" d="M113.92,-56.32C98.5,-47.74 74.69,-34.49 56.79,-24.52"/>
<polygon fill="midnightblue" stroke="midnightblue" points="58.49,-21.46 48.05,-19.65 55.08,-27.58 58.49,-21.46"/>
</g>
</g>
</svg>
