<?xml version="1.0" encoding="UTF-8" standalone="no"?>
<!DOCTYPE svg PUBLIC "-//W3C//DTD SVG 1.1//EN"
 "http://www.w3.org/Graphics/SVG/1.1/DTD/svg11.dtd">
<!-- Generated by graphviz version 2.43.0 (0)
 -->
<!-- Title: src/node/rpc/rpc_context_impl.h Pages: 1 -->
<!--zoomable 587 -->
<svg id="main" version="1.1" xmlns="http://www.w3.org/2000/svg" xmlns:xlink="http://www.w3.org/1999/xlink" xml:space="preserve" onload="init(evt)">
<style type="text/css"><![CDATA[
.edge:hover path { stroke: red; }
.edge:hover polygon { stroke: red; fill: red; }
]]></style>
<script type="text/javascript"><![CDATA[
var edges = document.getElementsByTagName('g');
if (edges && edges.length) {
  for (var i=0;i<edges.length;i++) {
    if (edges[i].id.substr(0,4)=='edge') {
      edges[i].setAttribute('class','edge');
    }
  }
}
]]></script>
        <defs>
                <circle id="rim" cx="0" cy="0" r="7"/>
                <circle id="rim2" cx="0" cy="0" r="3.5"/>
                <g id="zoomPlus">
                        <use xlink:href="#rim" fill="#404040">
                                <set attributeName="fill" to="#808080" begin="zoomplus.mouseover" end="zoomplus.mouseout"/>
                        </use>
                        <path d="M-4,0h8M0,-4v8" fill="none" stroke="white" stroke-width="1.5" pointer-events="none"/>
                </g>
                <g id="zoomMin">
                        <use xlink:href="#rim" fill="#404040">
                                <set attributeName="fill" to="#808080" begin="zoomminus.mouseover" end="zoomminus.mouseout"/>
                        </use>
                        <path d="M-4,0h8" fill="none" stroke="white" stroke-width="1.5" pointer-events="none"/>
                </g>
                <g id="dirArrow">
                        <path fill="none" stroke="white" stroke-width="1.5" d="M0,-3.0v7 M-2.5,-0.5L0,-3.0L2.5,-0.5"/>
                </g>
               <g id="resetDef">
                       <use xlink:href="#rim2" fill="#404040">
                               <set attributeName="fill" to="#808080" begin="reset.mouseover" end="reset.mouseout"/>
                       </use>
               </g>
        </defs>

<script type="text/javascript">
var viewWidth = 1101;
var viewHeight = 587;
var sectionId = 'dynsection-1';
</script>
<script xlink:href="svgpan.js"/>
<svg id="graph" class="graph">
<g id="viewport">
<title>src/node/rpc/rpc_context_impl.h</title>
<polygon fill="white" stroke="transparent" points="-4,4 -4,-583 1097,-583 1097,4 -4,4"/>
<!-- Node1 -->
<g id="node1" class="node">
<title>Node1</title>
<g id="a_node1"><a xlink:title=" ">
<polygon fill="#bfbfbf" stroke="black" points="194,-548.5 194,-578.5 330,-578.5 330,-548.5 194,-548.5"/>
<text text-anchor="start" x="202" y="-566.5" font-family="Helvetica,sans-Serif" font-size="10.00">src/node/rpc/rpc_context</text>
<text text-anchor="middle" x="262" y="-555.5" font-family="Helvetica,sans-Serif" font-size="10.00">_impl.h</text>
</a>
</g>
</g>
<!-- Node2 -->
<g id="node2" class="node">
<title>Node2</title>
<g id="a_node2"><a xlink:href="js__generic__base_8cpp.html" target="_top" xlink:title=" ">
<polygon fill="white" stroke="black" points="0,-481.5 0,-511.5 118,-511.5 118,-481.5 0,-481.5"/>
<text text-anchor="start" x="8" y="-499.5" font-family="Helvetica,sans-Serif" font-size="10.00">src/apps/js_generic</text>
<text text-anchor="middle" x="59" y="-488.5" font-family="Helvetica,sans-Serif" font-size="10.00">/js_generic_base.cpp</text>
</a>
</g>
</g>
<!-- Node1&#45;&gt;Node2 -->
<g id="edge1" class="edge">
<title>Node1&#45;&gt;Node2</title>
<path fill="none" stroke="midnightblue" d="M208.06,-545.23C175.22,-534.71 133.8,-521.45 102.96,-511.58"/>
<polygon fill="midnightblue" stroke="midnightblue" points="207.36,-548.68 217.95,-548.4 209.5,-542.01 207.36,-548.68"/>
</g>
<!-- Node3 -->
<g id="node3" class="node">
<title>Node3</title>
<g id="a_node3"><a xlink:href="js__v8__base_8cpp.html" target="_top" xlink:title=" ">
<polygon fill="white" stroke="black" points="136,-481.5 136,-511.5 250,-511.5 250,-481.5 136,-481.5"/>
<text text-anchor="start" x="144" y="-499.5" font-family="Helvetica,sans-Serif" font-size="10.00">src/apps/js_v8/js_v8</text>
<text text-anchor="middle" x="193" y="-488.5" font-family="Helvetica,sans-Serif" font-size="10.00">_base.cpp</text>
</a>
</g>
</g>
<!-- Node1&#45;&gt;Node3 -->
<g id="edge2" class="edge">
<title>Node1&#45;&gt;Node3</title>
<path fill="none" stroke="midnightblue" d="M239.51,-541.31C229.16,-531.56 217.16,-520.26 207.94,-511.58"/>
<polygon fill="midnightblue" stroke="midnightblue" points="237.35,-544.09 247.03,-548.4 242.15,-538.99 237.35,-544.09"/>
</g>
<!-- Node4 -->
<g id="node4" class="node">
<title>Node4</title>
<g id="a_node4"><a xlink:href="endpoint__registry_8cpp.html" target="_top" xlink:title=" ">
<polygon fill="white" stroke="black" points="268,-481.5 268,-511.5 396,-511.5 396,-481.5 268,-481.5"/>
<text text-anchor="start" x="276" y="-499.5" font-family="Helvetica,sans-Serif" font-size="10.00">src/endpoints/endpoint</text>
<text text-anchor="middle" x="332" y="-488.5" font-family="Helvetica,sans-Serif" font-size="10.00">_registry.cpp</text>
</a>
</g>
</g>
<!-- Node1&#45;&gt;Node4 -->
<g id="edge3" class="edge">
<title>Node1&#45;&gt;Node4</title>
<path fill="none" stroke="midnightblue" d="M284.82,-541.31C295.32,-531.56 307.49,-520.26 316.84,-511.58"/>
<polygon fill="midnightblue" stroke="midnightblue" points="282.14,-539.03 277.19,-548.4 286.9,-544.16 282.14,-539.03"/>
</g>
<!-- Node5 -->
<g id="node5" class="node">
<title>Node5</title>
<g id="a_node5"><a xlink:href="http__rpc__context_8h.html" target="_top" xlink:title=" ">
<polygon fill="white" stroke="black" points="414.5,-487 414.5,-506 561.5,-506 561.5,-487 414.5,-487"/>
<text text-anchor="middle" x="488" y="-494" font-family="Helvetica,sans-Serif" font-size="10.00">src/http/http_rpc_context.h</text>
</a>
</g>
</g>
<!-- Node1&#45;&gt;Node5 -->
<g id="edge4" class="edge">
<title>Node1&#45;&gt;Node5</title>
<path fill="none" stroke="midnightblue" d="M320.51,-545.67C364.68,-532.97 423.45,-516.06 458.35,-506.03"/>
<polygon fill="midnightblue" stroke="midnightblue" points="319.4,-542.35 310.76,-548.48 321.34,-549.08 319.4,-542.35"/>
</g>
<!-- Node6 -->
<g id="node6" class="node">
<title>Node6</title>
<g id="a_node6"><a xlink:href="http2_8h.html" target="_top" xlink:title=" ">
<polygon fill="white" stroke="black" points="368.5,-425.5 368.5,-444.5 459.5,-444.5 459.5,-425.5 368.5,-425.5"/>
<text text-anchor="middle" x="414" y="-432.5" font-family="Helvetica,sans-Serif" font-size="10.00">src/http/http2.h</text>
</a>
</g>
</g>
<!-- Node5&#45;&gt;Node6 -->
<g id="edge5" class="edge">
<title>Node5&#45;&gt;Node6</title>
<path fill="none" stroke="midnightblue" d="M469.31,-480.47C455.16,-469.09 436.22,-453.87 424.58,-444.51"/>
<polygon fill="midnightblue" stroke="midnightblue" points="467.41,-483.44 477.4,-486.98 471.8,-477.98 467.41,-483.44"/>
</g>
<!-- Node7 -->
<g id="node7" class="node">
<title>Node7</title>
<g id="a_node7"><a xlink:href="http2__endpoint_8h.html" target="_top" xlink:title=" ">
<polygon fill="white" stroke="black" points="358.5,-369.5 358.5,-388.5 497.5,-388.5 497.5,-369.5 358.5,-369.5"/>
<text text-anchor="middle" x="428" y="-376.5" font-family="Helvetica,sans-Serif" font-size="10.00">src/http/http2_endpoint.h</text>
</a>
</g>
</g>
<!-- Node5&#45;&gt;Node7 -->
<g id="edge18" class="edge">
<title>Node5&#45;&gt;Node7</title>
<path fill="none" stroke="midnightblue" d="M485.45,-476.82C482.86,-462.06 477.93,-441.3 469,-425 461.08,-410.54 447.59,-396.99 438.26,-388.62"/>
<polygon fill="midnightblue" stroke="midnightblue" points="482,-477.42 487,-486.76 488.92,-476.34 482,-477.42"/>
</g>
<!-- Node15 -->
<g id="node15" class="node">
<title>Node15</title>
<g id="a_node15"><a xlink:href="http__endpoint_8h.html" target="_top" xlink:title=" ">
<polygon fill="white" stroke="black" points="207.5,-369.5 207.5,-388.5 340.5,-388.5 340.5,-369.5 207.5,-369.5"/>
<text text-anchor="middle" x="274" y="-376.5" font-family="Helvetica,sans-Serif" font-size="10.00">src/http/http_endpoint.h</text>
</a>
</g>
</g>
<!-- Node5&#45;&gt;Node15 -->
<g id="edge19" class="edge">
<title>Node5&#45;&gt;Node15</title>
<path fill="none" stroke="midnightblue" d="M450.5,-483.72C424.31,-474.79 389,-461.28 360,-445 329.97,-428.14 298.68,-401.94 283.46,-388.53"/>
<polygon fill="midnightblue" stroke="midnightblue" points="449.46,-487.07 460.05,-486.92 451.68,-480.43 449.46,-487.07"/>
</g>
<!-- Node16 -->
<g id="node16" class="node">
<title>Node16</title>
<g id="a_node16"><a xlink:href="jwt__key__auto__refresh_8h.html" target="_top" xlink:title=" ">
<polygon fill="white" stroke="black" points="592.5,-235.5 592.5,-265.5 717.5,-265.5 717.5,-235.5 592.5,-235.5"/>
<text text-anchor="start" x="600.5" y="-253.5" font-family="Helvetica,sans-Serif" font-size="10.00">src/node/jwt_key_auto</text>
<text text-anchor="middle" x="655" y="-242.5" font-family="Helvetica,sans-Serif" font-size="10.00">_refresh.h</text>
</a>
</g>
</g>
<!-- Node5&#45;&gt;Node16 -->
<g id="edge21" class="edge">
<title>Node5&#45;&gt;Node16</title>
<path fill="none" stroke="midnightblue" d="M493.56,-477.13C505.32,-440.56 535.59,-357.4 583,-302 595.71,-287.15 613.71,-274.53 628.53,-265.61"/>
<polygon fill="midnightblue" stroke="midnightblue" points="490.15,-476.32 490.5,-486.9 496.83,-478.4 490.15,-476.32"/>
</g>
<!-- Node17 -->
<g id="node17" class="node">
<title>Node17</title>
<g id="a_node17"><a xlink:href="forwarder_8h.html" target="_top" xlink:title=" ">
<polygon fill="white" stroke="black" points="771,-425.5 771,-444.5 905,-444.5 905,-425.5 771,-425.5"/>
<text text-anchor="middle" x="838" y="-432.5" font-family="Helvetica,sans-Serif" font-size="10.00">src/node/rpc/forwarder.h</text>
</a>
</g>
</g>
<!-- Node5&#45;&gt;Node17 -->
<g id="edge23" class="edge">
<title>Node5&#45;&gt;Node17</title>
<path fill="none" stroke="midnightblue" d="M548.24,-485.26C615.97,-473.75 724.7,-455.26 787.95,-444.51"/>
<polygon fill="midnightblue" stroke="midnightblue" points="547.42,-481.85 538.15,-486.98 548.59,-488.75 547.42,-481.85"/>
</g>
<!-- Node6&#45;&gt;Node7 -->
<g id="edge6" class="edge">
<title>Node6&#45;&gt;Node7</title>
<path fill="none" stroke="midnightblue" d="M418.82,-415.4C421.17,-406.36 423.87,-395.94 425.73,-388.75"/>
<polygon fill="midnightblue" stroke="midnightblue" points="415.43,-414.52 416.31,-425.08 422.21,-416.28 415.43,-414.52"/>
</g>
<!-- Node8 -->
<g id="node8" class="node">
<title>Node8</title>
<g id="a_node8"><a xlink:href="rpc__sessions_8h.html" target="_top" xlink:title=" ">
<polygon fill="white" stroke="black" points="220,-308 220,-327 366,-327 366,-308 220,-308"/>
<text text-anchor="middle" x="293" y="-315" font-family="Helvetica,sans-Serif" font-size="10.00">src/enclave/rpc_sessions.h</text>
</a>
</g>
</g>
<!-- Node7&#45;&gt;Node8 -->
<g id="edge7" class="edge">
<title>Node7&#45;&gt;Node8</title>
<path fill="none" stroke="midnightblue" d="M399.25,-365.33C373.04,-353.78 335.05,-337.03 312.31,-327.01"/>
<polygon fill="midnightblue" stroke="midnightblue" points="398.1,-368.64 408.66,-369.48 400.92,-362.24 398.1,-368.64"/>
</g>
<!-- Node9 -->
<g id="node9" class="node">
<title>Node9</title>
<g id="a_node9"><a xlink:href="enclave_2enclave_8h.html" target="_top" xlink:title=" ">
<polygon fill="white" stroke="black" points="713,-56.5 713,-75.5 835,-75.5 835,-56.5 713,-56.5"/>
<text text-anchor="middle" x="774" y="-63.5" font-family="Helvetica,sans-Serif" font-size="10.00">src/enclave/enclave.h</text>
</a>
</g>
</g>
<!-- Node8&#45;&gt;Node9 -->
<g id="edge8" class="edge">
<title>Node8&#45;&gt;Node9</title>
<path fill="none" stroke="midnightblue" d="M270.46,-302.16C247.88,-285.95 218.66,-258.74 235,-235 291,-153.66 592.78,-96.28 718.73,-75.54"/>
<polygon fill="midnightblue" stroke="midnightblue" points="268.75,-305.23 278.98,-308 272.71,-299.46 268.75,-305.23"/>
</g>
<!-- Node11 -->
<g id="node11" class="node">
<title>Node11</title>
<g id="a_node11"><a xlink:href="ccf__acme__client_8h.html" target="_top" xlink:title=" ">
<polygon fill="white" stroke="black" points="387.5,-241 387.5,-260 536.5,-260 536.5,-241 387.5,-241"/>
<text text-anchor="middle" x="462" y="-248" font-family="Helvetica,sans-Serif" font-size="10.00">src/node/ccf_acme_client.h</text>
</a>
</g>
</g>
<!-- Node8&#45;&gt;Node11 -->
<g id="edge10" class="edge">
<title>Node8&#45;&gt;Node11</title>
<path fill="none" stroke="midnightblue" d="M324.8,-304.27C358.34,-291.37 410.32,-271.38 439.73,-260.06"/>
<polygon fill="midnightblue" stroke="midnightblue" points="323.52,-301.01 315.44,-307.87 326.03,-307.55 323.52,-301.01"/>
</g>
<!-- Node12 -->
<g id="node12" class="node">
<title>Node12</title>
<g id="a_node12"><a xlink:href="node__state_8h.html" target="_top" xlink:title=" ">
<polygon fill="white" stroke="black" points="493,-174 493,-193 617,-193 617,-174 493,-174"/>
<text text-anchor="middle" x="555" y="-181" font-family="Helvetica,sans-Serif" font-size="10.00">src/node/node_state.h</text>
</a>
</g>
</g>
<!-- Node8&#45;&gt;Node12 -->
<g id="edge15" class="edge">
<title>Node8&#45;&gt;Node12</title>
<path fill="none" stroke="midnightblue" d="M272.87,-301.41C252.43,-284.28 226.14,-256 244,-235 275.28,-198.23 411.26,-188.16 492.7,-185.45"/>
<polygon fill="midnightblue" stroke="midnightblue" points="270.86,-304.29 280.86,-307.81 275.24,-298.82 270.86,-304.29"/>
</g>
<!-- Node14 -->
<g id="node14" class="node">
<title>Node14</title>
<g id="a_node14"><a xlink:href="resharing_8h.html" target="_top" xlink:title=" ">
<polygon fill="white" stroke="black" points="253,-241 253,-260 369,-260 369,-241 253,-241"/>
<text text-anchor="middle" x="311" y="-248" font-family="Helvetica,sans-Serif" font-size="10.00">src/node/resharing.h</text>
</a>
</g>
</g>
<!-- Node8&#45;&gt;Node14 -->
<g id="edge16" class="edge">
<title>Node8&#45;&gt;Node14</title>
<path fill="none" stroke="midnightblue" d="M298.15,-297.91C301.59,-285.49 305.96,-269.72 308.61,-260.13"/>
<polygon fill="midnightblue" stroke="midnightblue" points="294.72,-297.16 295.43,-307.73 301.47,-299.03 294.72,-297.16"/>
</g>
<!-- Node10 -->
<g id="node10" class="node">
<title>Node10</title>
<g id="a_node10"><a xlink:href="enclave_2main_8cpp.html" target="_top" xlink:title=" ">
<polygon fill="white" stroke="black" points="714,-0.5 714,-19.5 834,-19.5 834,-0.5 714,-0.5"/>
<text text-anchor="middle" x="774" y="-7.5" font-family="Helvetica,sans-Serif" font-size="10.00">src/enclave/main.cpp</text>
</a>
</g>
</g>
<!-- Node9&#45;&gt;Node10 -->
<g id="edge9" class="edge">
<title>Node9&#45;&gt;Node10</title>
<path fill="none" stroke="midnightblue" d="M774,-45.8C774,-36.91 774,-26.78 774,-19.75"/>
<polygon fill="midnightblue" stroke="midnightblue" points="770.5,-46.08 774,-56.08 777.5,-46.08 770.5,-46.08"/>
</g>
<!-- Node11&#45;&gt;Node12 -->
<g id="edge11" class="edge">
<title>Node11&#45;&gt;Node12</title>
<path fill="none" stroke="midnightblue" d="M482.86,-234.92C501.25,-222.07 527.41,-203.78 542.66,-193.13"/>
<polygon fill="midnightblue" stroke="midnightblue" points="480.73,-232.14 474.54,-240.73 484.74,-237.87 480.73,-232.14"/>
</g>
<!-- Node12&#45;&gt;Node9 -->
<g id="edge12" class="edge">
<title>Node12&#45;&gt;Node9</title>
<path fill="none" stroke="midnightblue" d="M554.99,-163.42C556.04,-147.48 560.16,-125.27 574,-112 593.72,-93.09 661.69,-80.68 712.97,-73.77"/>
<polygon fill="midnightblue" stroke="midnightblue" points="551.48,-163.61 554.67,-173.71 558.48,-163.82 551.48,-163.61"/>
</g>
<!-- Node13 -->
<g id="node13" class="node">
<title>Node13</title>
<g id="a_node13"><a xlink:href="gov__effects_8h.html" target="_top" xlink:title=" ">
<polygon fill="white" stroke="black" points="583,-112.5 583,-131.5 727,-131.5 727,-112.5 583,-112.5"/>
<text text-anchor="middle" x="655" y="-119.5" font-family="Helvetica,sans-Serif" font-size="10.00">src/node/rpc/gov_effects.h</text>
</a>
</g>
</g>
<!-- Node12&#45;&gt;Node13 -->
<g id="edge13" class="edge">
<title>Node12&#45;&gt;Node13</title>
<path fill="none" stroke="midnightblue" d="M578.12,-168.74C597.44,-157.25 624.37,-141.22 640.7,-131.51"/>
<polygon fill="midnightblue" stroke="midnightblue" points="576.13,-165.85 569.33,-173.98 579.71,-171.87 576.13,-165.85"/>
</g>
<!-- Node13&#45;&gt;Node9 -->
<g id="edge14" class="edge">
<title>Node13&#45;&gt;Node9</title>
<path fill="none" stroke="midnightblue" d="M683.14,-108.23C705.4,-98.13 735.86,-84.31 755.23,-75.52"/>
<polygon fill="midnightblue" stroke="midnightblue" points="681.52,-105.12 673.86,-112.44 684.41,-111.5 681.52,-105.12"/>
</g>
<!-- Node14&#45;&gt;Node12 -->
<g id="edge17" class="edge">
<title>Node14&#45;&gt;Node12</title>
<path fill="none" stroke="midnightblue" d="M352.96,-238.32C401.13,-225.49 479.13,-204.71 522.78,-193.08"/>
<polygon fill="midnightblue" stroke="midnightblue" points="351.91,-234.98 343.15,-240.94 353.71,-241.74 351.91,-234.98"/>
</g>
<!-- Node15&#45;&gt;Node8 -->
<g id="edge20" class="edge">
<title>Node15&#45;&gt;Node8</title>
<path fill="none" stroke="midnightblue" d="M279.86,-359.66C283.33,-348.77 287.58,-335.49 290.28,-327.01"/>
<polygon fill="midnightblue" stroke="midnightblue" points="276.43,-358.88 276.72,-369.48 283.1,-361.01 276.43,-358.88"/>
</g>
<!-- Node16&#45;&gt;Node12 -->
<g id="edge22" class="edge">
<title>Node16&#45;&gt;Node12</title>
<path fill="none" stroke="midnightblue" d="M624.7,-229.81C605.79,-217.51 582.39,-202.3 568.09,-193.01"/>
<polygon fill="midnightblue" stroke="midnightblue" points="623.01,-232.88 633.3,-235.4 626.82,-227.01 623.01,-232.88"/>
</g>
<!-- Node17&#45;&gt;Node9 -->
<g id="edge24" class="edge">
<title>Node17&#45;&gt;Node9</title>
<path fill="none" stroke="midnightblue" d="M915.72,-430.58C990.73,-422.61 1093,-397.29 1093,-318.5 1093,-318.5 1093,-318.5 1093,-182.5 1093,-132.73 1051.11,-133.03 1006,-112 951.52,-86.6 883.42,-75.53 835.13,-70.71"/>
<polygon fill="midnightblue" stroke="midnightblue" points="914.94,-427.14 905.33,-431.6 915.62,-434.11 914.94,-427.14"/>
</g>
<!-- Node18 -->
<g id="node18" class="node">
<title>Node18</title>
<g id="a_node18"><a xlink:href="frontend_8h.html" target="_top" xlink:title=" ">
<polygon fill="white" stroke="black" points="773.5,-369.5 773.5,-388.5 902.5,-388.5 902.5,-369.5 773.5,-369.5"/>
<text text-anchor="middle" x="838" y="-376.5" font-family="Helvetica,sans-Serif" font-size="10.00">src/node/rpc/frontend.h</text>
</a>
</g>
</g>
<!-- Node17&#45;&gt;Node18 -->
<g id="edge25" class="edge">
<title>Node17&#45;&gt;Node18</title>
<path fill="none" stroke="midnightblue" d="M838,-414.8C838,-405.91 838,-395.78 838,-388.75"/>
<polygon fill="midnightblue" stroke="midnightblue" points="834.5,-415.08 838,-425.08 841.5,-415.08 834.5,-415.08"/>
</g>
<!-- Node18&#45;&gt;Node12 -->
<g id="edge29" class="edge">
<title>Node18&#45;&gt;Node12</title>
<path fill="none" stroke="midnightblue" d="M762.97,-374.04C697.07,-368.95 607.92,-357.63 583,-333 543.63,-294.09 550.14,-218.44 553.64,-193.05"/>
<polygon fill="midnightblue" stroke="midnightblue" points="763.1,-377.56 773.33,-374.8 763.62,-370.58 763.1,-377.56"/>
</g>
<!-- Node19 -->
<g id="node19" class="node">
<title>Node19</title>
<g id="a_node19"><a xlink:href="acme__challenge__frontend_8h.html" target="_top" xlink:title=" ">
<polygon fill="white" stroke="black" points="768,-302.5 768,-332.5 908,-332.5 908,-302.5 768,-302.5"/>
<text text-anchor="start" x="776" y="-320.5" font-family="Helvetica,sans-Serif" font-size="10.00">src/node/acme_challenge</text>
<text text-anchor="middle" x="838" y="-309.5" font-family="Helvetica,sans-Serif" font-size="10.00">_frontend.h</text>
</a>
</g>
</g>
<!-- Node18&#45;&gt;Node19 -->
<g id="edge26" class="edge">
<title>Node18&#45;&gt;Node19</title>
<path fill="none" stroke="midnightblue" d="M838,-359.23C838,-350.59 838,-340.5 838,-332.52"/>
<polygon fill="midnightblue" stroke="midnightblue" points="834.5,-359.48 838,-369.48 841.5,-359.48 834.5,-359.48"/>
</g>
<!-- Node20 -->
<g id="node20" class="node">
<title>Node20</title>
<g id="a_node20"><a xlink:href="member__frontend_8h.html" target="_top" xlink:title=" ">
<polygon fill="white" stroke="black" points="945,-168.5 945,-198.5 1065,-198.5 1065,-168.5 945,-168.5"/>
<text text-anchor="start" x="953" y="-186.5" font-family="Helvetica,sans-Serif" font-size="10.00">src/node/rpc/member</text>
<text text-anchor="middle" x="1005" y="-175.5" font-family="Helvetica,sans-Serif" font-size="10.00">_frontend.h</text>
</a>
</g>
</g>
<!-- Node18&#45;&gt;Node20 -->
<g id="edge30" class="edge">
<title>Node18&#45;&gt;Node20</title>
<path fill="none" stroke="midnightblue" d="M891.24,-366.52C911.85,-359.75 934.23,-349.21 950,-333 987.58,-294.38 999.85,-227.85 1003.55,-198.78"/>
<polygon fill="midnightblue" stroke="midnightblue" points="890.16,-363.19 881.62,-369.46 892.2,-369.88 890.16,-363.19"/>
</g>
<!-- Node21 -->
<g id="node21" class="node">
<title>Node21</title>
<g id="a_node21"><a xlink:href="node__frontend_8h.html" target="_top" xlink:title=" ">
<polygon fill="white" stroke="black" points="592,-308 592,-327 750,-327 750,-308 592,-308"/>
<text text-anchor="middle" x="671" y="-315" font-family="Helvetica,sans-Serif" font-size="10.00">src/node/rpc/node_frontend.h</text>
</a>
</g>
</g>
<!-- Node18&#45;&gt;Node21 -->
<g id="edge32" class="edge">
<title>Node18&#45;&gt;Node21</title>
<path fill="none" stroke="midnightblue" d="M804.55,-366.08C772.09,-354.52 723.63,-337.25 694.88,-327.01"/>
<polygon fill="midnightblue" stroke="midnightblue" points="803.48,-369.42 814.07,-369.48 805.83,-362.82 803.48,-369.42"/>
</g>
<!-- Node22 -->
<g id="node22" class="node">
<title>Node22</title>
<g id="a_node22"><a xlink:href="user__frontend_8h.html" target="_top" xlink:title=" ">
<polygon fill="white" stroke="black" points="821.5,-112.5 821.5,-131.5 976.5,-131.5 976.5,-112.5 821.5,-112.5"/>
<text text-anchor="middle" x="899" y="-119.5" font-family="Helvetica,sans-Serif" font-size="10.00">src/node/rpc/user_frontend.h</text>
</a>
</g>
</g>
<!-- Node18&#45;&gt;Node22 -->
<g id="edge35" class="edge">
<title>Node18&#45;&gt;Node22</title>
<path fill="none" stroke="midnightblue" d="M877.21,-365.46C892.42,-358.46 908.26,-348.03 917,-333 956.72,-264.67 916.6,-162.14 903.09,-131.77"/>
<polygon fill="midnightblue" stroke="midnightblue" points="875.74,-362.28 867.88,-369.39 878.46,-368.73 875.74,-362.28"/>
</g>
<!-- Node19&#45;&gt;Node9 -->
<g id="edge27" class="edge">
<title>Node19&#45;&gt;Node9</title>
<path fill="none" stroke="midnightblue" d="M831.81,-292.36C818.01,-238.56 785.24,-110.81 776.29,-75.93"/>
<polygon fill="midnightblue" stroke="midnightblue" points="828.5,-293.55 834.38,-302.37 835.28,-291.81 828.5,-293.55"/>
</g>
<!-- Node19&#45;&gt;Node11 -->
<g id="edge28" class="edge">
<title>Node19&#45;&gt;Node11</title>
<path fill="none" stroke="midnightblue" d="M757.77,-301.79C665.85,-285.59 570.42,-269.54 513.28,-260.01"/>
<polygon fill="midnightblue" stroke="midnightblue" points="757.34,-305.27 767.8,-303.57 758.56,-298.38 757.34,-305.27"/>
</g>
<!-- Node20&#45;&gt;Node9 -->
<g id="edge31" class="edge">
<title>Node20&#45;&gt;Node9</title>
<path fill="none" stroke="midnightblue" d="M1004.61,-158.09C1003.04,-142.78 998.44,-123.79 986,-112 964.59,-91.72 889.92,-79.4 835.23,-72.9"/>
<polygon fill="midnightblue" stroke="midnightblue" points="1001.14,-158.68 1005.29,-168.43 1008.13,-158.22 1001.14,-158.68"/>
</g>
<!-- Node21&#45;&gt;Node9 -->
<g id="edge33" class="edge">
<title>Node21&#45;&gt;Node9</title>
<path fill="none" stroke="midnightblue" d="M692.84,-301.88C704.65,-292.88 718.52,-280.32 727,-266 765.88,-200.32 772.6,-104.6 773.76,-75.62"/>
<polygon fill="midnightblue" stroke="midnightblue" points="690.74,-299.08 684.7,-307.79 694.85,-304.75 690.74,-299.08"/>
</g>
<!-- Node21&#45;&gt;Node16 -->
<g id="edge34" class="edge">
<title>Node21&#45;&gt;Node16</title>
<path fill="none" stroke="midnightblue" d="M666.38,-297.74C663.86,-287.49 660.78,-275 658.47,-265.59"/>
<polygon fill="midnightblue" stroke="midnightblue" points="663.05,-298.86 668.84,-307.73 669.85,-297.19 663.05,-298.86"/>
</g>
<!-- Node22&#45;&gt;Node9 -->
<g id="edge36" class="edge">
<title>Node22&#45;&gt;Node9</title>
<path fill="none" stroke="midnightblue" d="M869.76,-108.37C846.35,-98.26 814.16,-84.35 793.71,-75.52"/>
<polygon fill="midnightblue" stroke="midnightblue" points="868.63,-111.69 879.19,-112.44 871.4,-105.26 868.63,-111.69"/>
</g>
</g>
</svg>
        <g id="navigator" transform="translate(0 0)" fill="#404254">
                <rect fill="#f2f5e9" fill-opacity="0.5" stroke="#606060" stroke-width=".5" x="0" y="0" width="60" height="60"/>
                <use id="zoomplus" xlink:href="#zoomPlus" x="17" y="9" onmousedown="handleZoom(evt,'in')"/>
                <use id="zoomminus" xlink:href="#zoomMin" x="42" y="9" onmousedown="handleZoom(evt,'out')"/>
                <use id="reset" xlink:href="#resetDef" x="30" y="36" onmousedown="handleReset()"/>
                <g id="arrowUp" xlink:href="#dirArrow" transform="translate(30 24)" onmousedown="handlePan(0,-1)">
                  <use xlink:href="#rim" fill="#404040">
                        <set attributeName="fill" to="#808080" begin="arrowUp.mouseover" end="arrowUp.mouseout"/>
                  </use>
                  <path fill="none" stroke="white" stroke-width="1.5" d="M0,-3.0v7 M-2.5,-0.5L0,-3.0L2.5,-0.5"/>
                </g>
                <g id="arrowRight" xlink:href="#dirArrow" transform="rotate(90) translate(36 -43)" onmousedown="handlePan(1,0)">
                  <use xlink:href="#rim" fill="#404040">
                        <set attributeName="fill" to="#808080" begin="arrowRight.mouseover" end="arrowRight.mouseout"/>
                  </use>
                  <path fill="none" stroke="white" stroke-width="1.5" d="M0,-3.0v7 M-2.5,-0.5L0,-3.0L2.5,-0.5"/>
                </g>
                <g id="arrowDown" xlink:href="#dirArrow" transform="rotate(180) translate(-30 -48)" onmousedown="handlePan(0,1)">
                  <use xlink:href="#rim" fill="#404040">
                        <set attributeName="fill" to="#808080" begin="arrowDown.mouseover" end="arrowDown.mouseout"/>
                  </use>
                  <path fill="none" stroke="white" stroke-width="1.5" d="M0,-3.0v7 M-2.5,-0.5L0,-3.0L2.5,-0.5"/>
                </g>
                <g id="arrowLeft" xlink:href="#dirArrow" transform="rotate(270) translate(-36 17)" onmousedown="handlePan(-1,0)">
                  <use xlink:href="#rim" fill="#404040">
                        <set attributeName="fill" to="#808080" begin="arrowLeft.mouseover" end="arrowLeft.mouseout"/>
                  </use>
                  <path fill="none" stroke="white" stroke-width="1.5" d="M0,-3.0v7 M-2.5,-0.5L0,-3.0L2.5,-0.5"/>
                </g>
        </g>
        <svg viewBox="0 0 15 15" width="100%" height="30px" preserveAspectRatio="xMaxYMin meet">
         <g id="arrow_out" transform="scale(0.3 0.3)">
          <a xlink:href="rpc__context__impl_8h__dep__incl_org.svg" target="_base">
           <rect id="button" ry="5" rx="5" y="6" x="6" height="38" width="38"
                fill="#f2f5e9" fill-opacity="0.5" stroke="#606060" stroke-width="1.0"/>
           <path id="arrow"
             d="M 11.500037,31.436501 C 11.940474,20.09759 22.043105,11.32322 32.158766,21.979434 L 37.068811,17.246167 C 37.068811,17.246167 37.088388,32 37.088388,32 L 22.160133,31.978069 C 22.160133,31.978069 26.997745,27.140456 26.997745,27.140456 C 18.528582,18.264221 13.291696,25.230495 11.500037,31.436501 z"
             style="fill:#404040;"/>
          </a>
         </g>
        </svg>
</svg>
