<?xml version="1.0" encoding="UTF-8" standalone="no"?>
<!DOCTYPE svg PUBLIC "-//W3C//DTD SVG 1.1//EN"
 "http://www.w3.org/Graphics/SVG/1.1/DTD/svg11.dtd">
<!-- Generated by graphviz version 2.43.0 (0)
 -->
<!-- Title: src/service/tables/secrets.h Pages: 1 -->
<!--zoomable 732 -->
<svg id="main" version="1.1" xmlns="http://www.w3.org/2000/svg" xmlns:xlink="http://www.w3.org/1999/xlink" xml:space="preserve" onload="init(evt)">
<style type="text/css"><![CDATA[
.edge:hover path { stroke: red; }
.edge:hover polygon { stroke: red; fill: red; }
]]></style>
<script type="text/javascript"><![CDATA[
var edges = document.getElementsByTagName('g');
if (edges && edges.length) {
  for (var i=0;i<edges.length;i++) {
    if (edges[i].id.substr(0,4)=='edge') {
      edges[i].setAttribute('class','edge');
    }
  }
}
]]></script>
        <defs>
                <circle id="rim" cx="0" cy="0" r="7"/>
                <circle id="rim2" cx="0" cy="0" r="3.5"/>
                <g id="zoomPlus">
                        <use xlink:href="#rim" fill="#404040">
                                <set attributeName="fill" to="#808080" begin="zoomplus.mouseover" end="zoomplus.mouseout"/>
                        </use>
                        <path d="M-4,0h8M0,-4v8" fill="none" stroke="white" stroke-width="1.5" pointer-events="none"/>
                </g>
                <g id="zoomMin">
                        <use xlink:href="#rim" fill="#404040">
                                <set attributeName="fill" to="#808080" begin="zoomminus.mouseover" end="zoomminus.mouseout"/>
                        </use>
                        <path d="M-4,0h8" fill="none" stroke="white" stroke-width="1.5" pointer-events="none"/>
                </g>
                <g id="dirArrow">
                        <path fill="none" stroke="white" stroke-width="1.5" d="M0,-3.0v7 M-2.5,-0.5L0,-3.0L2.5,-0.5"/>
                </g>
               <g id="resetDef">
                       <use xlink:href="#rim2" fill="#404040">
                               <set attributeName="fill" to="#808080" begin="reset.mouseover" end="reset.mouseout"/>
                       </use>
               </g>
        </defs>

<script type="text/javascript">
var viewWidth = 2535;
var viewHeight = 732;
var sectionId = 'dynsection-1';
</script>
<script xlink:href="svgpan.js"/>
<svg id="graph" class="graph">
<g id="viewport">
<title>src/service/tables/secrets.h</title>
<polygon fill="white" stroke="transparent" points="-4,4 -4,-728 2531.23,-728 2531.23,4 -4,4"/>
<!-- Node1 -->
<g id="node1" class="node">
<title>Node1</title>
<g id="a_node1"><a xlink:title=" ">
<polygon fill="#bfbfbf" stroke="black" points="919.49,-693.5 919.49,-723.5 1021.49,-723.5 1021.49,-693.5 919.49,-693.5"/>
<text text-anchor="start" x="927.49" y="-711.5" font-family="Helvetica,sans-Serif" font-size="10.00">src/service/tables</text>
<text text-anchor="middle" x="970.49" y="-700.5" font-family="Helvetica,sans-Serif" font-size="10.00">/secrets.h</text>
</a>
</g>
</g>
<!-- Node2 -->
<g id="node2" class="node">
<title>Node2</title>
<g id="a_node2"><a xlink:href="ledger__secret_8h.html" target="_top" xlink:title=" ">
<polygon fill="white" stroke="black" points="902.49,-637.5 902.49,-656.5 1038.49,-656.5 1038.49,-637.5 902.49,-637.5"/>
<text text-anchor="middle" x="970.49" y="-644.5" font-family="Helvetica,sans-Serif" font-size="10.00">src/node/ledger_secret.h</text>
</a>
</g>
</g>
<!-- Node1&#45;&gt;Node2 -->
<g id="edge1" class="edge">
<title>Node1&#45;&gt;Node2</title>
<path fill="none" stroke="midnightblue" d="M970.49,-683.29C970.49,-673.86 970.49,-663.65 970.49,-656.66"/>
<polygon fill="midnightblue" stroke="midnightblue" points="966.99,-683.4 970.49,-693.4 973.99,-683.4 966.99,-683.4"/>
</g>
<!-- Node3 -->
<g id="node3" class="node">
<title>Node3</title>
<g id="a_node3"><a xlink:href="ledger__secrets_8h.html" target="_top" xlink:title=" ">
<polygon fill="white" stroke="black" points="803.99,-581.5 803.99,-600.5 944.99,-600.5 944.99,-581.5 803.99,-581.5"/>
<text text-anchor="middle" x="874.49" y="-588.5" font-family="Helvetica,sans-Serif" font-size="10.00">src/node/ledger_secrets.h</text>
</a>
</g>
</g>
<!-- Node1&#45;&gt;Node3 -->
<g id="edge72" class="edge">
<title>Node1&#45;&gt;Node3</title>
<path fill="none" stroke="midnightblue" d="M929.81,-688.2C916.6,-680.18 902.92,-669.74 893.49,-657 880.76,-639.8 876.53,-614.21 875.15,-600.84"/>
<polygon fill="midnightblue" stroke="midnightblue" points="928.41,-691.43 938.83,-693.36 931.89,-685.35 928.41,-691.43"/>
</g>
<!-- Node35 -->
<g id="node35" class="node">
<title>Node35</title>
<g id="a_node35"><a xlink:href="network__tables_8h.html" target="_top" xlink:title=" ">
<polygon fill="white" stroke="black" points="1340.49,-447.5 1340.49,-477.5 1452.49,-477.5 1452.49,-447.5 1340.49,-447.5"/>
<text text-anchor="start" x="1348.49" y="-465.5" font-family="Helvetica,sans-Serif" font-size="10.00">src/service/network</text>
<text text-anchor="middle" x="1396.49" y="-454.5" font-family="Helvetica,sans-Serif" font-size="10.00">_tables.h</text>
</a>
</g>
</g>
<!-- Node1&#45;&gt;Node35 -->
<g id="edge73" class="edge">
<title>Node1&#45;&gt;Node35</title>
<path fill="none" stroke="midnightblue" d="M1003.99,-688.32C1086.77,-640.9 1299.54,-519.03 1371.95,-477.56"/>
<polygon fill="midnightblue" stroke="midnightblue" points="1002.18,-685.32 995.24,-693.33 1005.66,-691.39 1002.18,-685.32"/>
</g>
<!-- Node2&#45;&gt;Node3 -->
<g id="edge2" class="edge">
<title>Node2&#45;&gt;Node3</title>
<path fill="none" stroke="midnightblue" d="M945.92,-632.18C928.25,-622.24 904.98,-609.15 889.88,-600.65"/>
<polygon fill="midnightblue" stroke="midnightblue" points="944.64,-635.47 955.07,-637.32 948.07,-629.37 944.64,-635.47"/>
</g>
<!-- Node4 -->
<g id="node4" class="node">
<title>Node4</title>
<g id="a_node4"><a xlink:href="node_2encryptor_8h.html" target="_top" xlink:title=" ">
<polygon fill="white" stroke="black" points="1426.49,-252 1426.49,-271 1542.49,-271 1542.49,-252 1426.49,-252"/>
<text text-anchor="middle" x="1484.49" y="-259" font-family="Helvetica,sans-Serif" font-size="10.00">src/node/encryptor.h</text>
</a>
</g>
</g>
<!-- Node3&#45;&gt;Node4 -->
<g id="edge3" class="edge">
<title>Node3&#45;&gt;Node4</title>
<path fill="none" stroke="midnightblue" d="M955.54,-584.93C1151.42,-571.58 1634.49,-531.75 1634.49,-463.5 1634.49,-463.5 1634.49,-463.5 1634.49,-394.5 1634.49,-328.42 1551.43,-287.59 1508.93,-271.02"/>
<polygon fill="midnightblue" stroke="midnightblue" points="955.05,-581.45 945.31,-585.62 955.52,-588.43 955.05,-581.45"/>
</g>
<!-- Node5 -->
<g id="node5" class="node">
<title>Node5</title>
<g id="a_node5"><a xlink:href="historical__queries_8h.html" target="_top" xlink:title=" ">
<polygon fill="white" stroke="black" points="2395.49,-179.5 2395.49,-209.5 2501.49,-209.5 2501.49,-179.5 2395.49,-179.5"/>
<text text-anchor="start" x="2403.49" y="-197.5" font-family="Helvetica,sans-Serif" font-size="10.00">src/node/historical</text>
<text text-anchor="middle" x="2448.49" y="-186.5" font-family="Helvetica,sans-Serif" font-size="10.00">_queries.h</text>
</a>
</g>
</g>
<!-- Node3&#45;&gt;Node5 -->
<g id="edge13" class="edge">
<title>Node3&#45;&gt;Node5</title>
<path fill="none" stroke="midnightblue" d="M955.36,-587.78C1277.04,-578.43 2448.49,-539.18 2448.49,-463.5 2448.49,-463.5 2448.49,-463.5 2448.49,-327.5 2448.49,-284.65 2448.49,-233.97 2448.49,-209.76"/>
<polygon fill="midnightblue" stroke="midnightblue" points="955.08,-584.29 945.18,-588.07 955.28,-591.28 955.08,-584.29"/>
</g>
<!-- Node11 -->
<g id="node11" class="node">
<title>Node11</title>
<g id="a_node11"><a xlink:href="network__state_8h.html" target="_top" xlink:title=" ">
<polygon fill="white" stroke="black" points="1054.49,-386 1054.49,-405 1194.49,-405 1194.49,-386 1054.49,-386"/>
<text text-anchor="middle" x="1124.49" y="-393" font-family="Helvetica,sans-Serif" font-size="10.00">src/node/network_state.h</text>
</a>
</g>
</g>
<!-- Node3&#45;&gt;Node11 -->
<g id="edge14" class="edge">
<title>Node3&#45;&gt;Node11</title>
<path fill="none" stroke="midnightblue" d="M893.53,-575.26C942.93,-537.03 1074.07,-435.53 1113.27,-405.18"/>
<polygon fill="midnightblue" stroke="midnightblue" points="891.32,-572.55 885.56,-581.44 895.61,-578.08 891.32,-572.55"/>
</g>
<!-- Node26 -->
<g id="node26" class="node">
<title>Node26</title>
<g id="a_node26"><a xlink:href="secret__broadcast_8h.html" target="_top" xlink:title=" ">
<polygon fill="white" stroke="black" points="797.99,-319 797.99,-338 950.99,-338 950.99,-319 797.99,-319"/>
<text text-anchor="middle" x="874.49" y="-326" font-family="Helvetica,sans-Serif" font-size="10.00">src/node/secret_broadcast.h</text>
</a>
</g>
</g>
<!-- Node3&#45;&gt;Node26 -->
<g id="edge64" class="edge">
<title>Node3&#45;&gt;Node26</title>
<path fill="none" stroke="midnightblue" d="M874.49,-571.22C874.49,-519.27 874.49,-375.11 874.49,-338.2"/>
<polygon fill="midnightblue" stroke="midnightblue" points="870.99,-571.33 874.49,-581.33 877.99,-571.33 870.99,-571.33"/>
</g>
<!-- Node27 -->
<g id="node27" class="node">
<title>Node27</title>
<g id="a_node27"><a xlink:href="share__manager_8h.html" target="_top" xlink:title=" ">
<polygon fill="white" stroke="black" points="419.99,-319 419.99,-338 564.99,-338 564.99,-319 419.99,-319"/>
<text text-anchor="middle" x="492.49" y="-326" font-family="Helvetica,sans-Serif" font-size="10.00">src/node/share_manager.h</text>
</a>
</g>
</g>
<!-- Node3&#45;&gt;Node27 -->
<g id="edge65" class="edge">
<title>Node3&#45;&gt;Node27</title>
<path fill="none" stroke="midnightblue" d="M853.31,-575.56C783.35,-527.85 560.98,-376.2 505.25,-338.2"/>
<polygon fill="midnightblue" stroke="midnightblue" points="851.55,-578.59 861.78,-581.33 855.49,-572.81 851.55,-578.59"/>
</g>
<!-- Node29 -->
<g id="node29" class="node">
<title>Node29</title>
<g id="a_node29"><a xlink:href="call__types_8h.html" target="_top" xlink:title=" ">
<polygon fill="white" stroke="black" points="262.99,-453 262.99,-472 399.99,-472 399.99,-453 262.99,-453"/>
<text text-anchor="middle" x="331.49" y="-460" font-family="Helvetica,sans-Serif" font-size="10.00">src/node/rpc/call_types.h</text>
</a>
</g>
</g>
<!-- Node3&#45;&gt;Node29 -->
<g id="edge50" class="edge">
<title>Node3&#45;&gt;Node29</title>
<path fill="none" stroke="midnightblue" d="M816.37,-579.65C769.75,-571.1 702.71,-558.26 644.49,-545 540.2,-521.24 417.8,-487.71 362,-472.11"/>
<polygon fill="midnightblue" stroke="midnightblue" points="815.83,-583.11 826.3,-581.46 817.09,-576.22 815.83,-583.11"/>
</g>
<!-- Node33 -->
<g id="node33" class="node">
<title>Node33</title>
<g id="a_node33"><a xlink:href="node__call__types_8h.html" target="_top" xlink:title=" ">
<polygon fill="white" stroke="black" points="297.99,-514.5 297.99,-544.5 422.99,-544.5 422.99,-514.5 297.99,-514.5"/>
<text text-anchor="start" x="305.99" y="-532.5" font-family="Helvetica,sans-Serif" font-size="10.00">src/node/rpc/node_call</text>
<text text-anchor="middle" x="360.49" y="-521.5" font-family="Helvetica,sans-Serif" font-size="10.00">_types.h</text>
</a>
</g>
</g>
<!-- Node3&#45;&gt;Node33 -->
<g id="edge62" class="edge">
<title>Node3&#45;&gt;Node33</title>
<path fill="none" stroke="midnightblue" d="M793.83,-580.66C691.24,-568.79 516.25,-548.53 423.12,-537.75"/>
<polygon fill="midnightblue" stroke="midnightblue" points="793.5,-584.15 803.83,-581.82 794.3,-577.19 793.5,-584.15"/>
</g>
<!-- Node34 -->
<g id="node34" class="node">
<title>Node34</title>
<g id="a_node34"><a xlink:href="genesis__gen_8h.html" target="_top" xlink:title=" ">
<polygon fill="white" stroke="black" points="714.49,-380.5 714.49,-410.5 824.49,-410.5 824.49,-380.5 714.49,-380.5"/>
<text text-anchor="start" x="722.49" y="-398.5" font-family="Helvetica,sans-Serif" font-size="10.00">src/service/genesis</text>
<text text-anchor="middle" x="769.49" y="-387.5" font-family="Helvetica,sans-Serif" font-size="10.00">_gen.h</text>
</a>
</g>
</g>
<!-- Node3&#45;&gt;Node34 -->
<g id="edge66" class="edge">
<title>Node3&#45;&gt;Node34</title>
<path fill="none" stroke="midnightblue" d="M865.04,-572.58C844.47,-534.68 795.99,-445.33 777.16,-410.63"/>
<polygon fill="midnightblue" stroke="midnightblue" points="862,-574.32 869.85,-581.44 868.15,-570.98 862,-574.32"/>
</g>
<!-- Node4&#45;&gt;Node5 -->
<g id="edge4" class="edge">
<title>Node4&#45;&gt;Node5</title>
<path fill="none" stroke="midnightblue" d="M1550.47,-250.58C1563.39,-248.87 1576.85,-247.24 1589.49,-246 1893.53,-216.12 2259.97,-201.75 2395.1,-197.18"/>
<polygon fill="midnightblue" stroke="midnightblue" points="1549.69,-247.16 1540.25,-251.97 1550.63,-254.09 1549.69,-247.16"/>
</g>
<!-- Node9 -->
<g id="node9" class="node">
<title>Node9</title>
<g id="a_node9"><a xlink:href="node__state_8h.html" target="_top" xlink:title=" ">
<polygon fill="white" stroke="black" points="918.49,-185 918.49,-204 1042.49,-204 1042.49,-185 918.49,-185"/>
<text text-anchor="middle" x="980.49" y="-192" font-family="Helvetica,sans-Serif" font-size="10.00">src/node/node_state.h</text>
</a>
</g>
</g>
<!-- Node4&#45;&gt;Node9 -->
<g id="edge9" class="edge">
<title>Node4&#45;&gt;Node9</title>
<path fill="none" stroke="midnightblue" d="M1416.05,-251.67C1317.58,-238.97 1137.41,-215.74 1042.6,-203.51"/>
<polygon fill="midnightblue" stroke="midnightblue" points="1415.82,-255.17 1426.19,-252.98 1416.72,-248.23 1415.82,-255.17"/>
</g>
<!-- Node6 -->
<g id="node6" class="node">
<title>Node6</title>
<g id="a_node6"><a xlink:href="enclave_2enclave_8h.html" target="_top" xlink:title=" ">
<polygon fill="white" stroke="black" points="1076.49,-56.5 1076.49,-75.5 1198.49,-75.5 1198.49,-56.5 1076.49,-56.5"/>
<text text-anchor="middle" x="1137.49" y="-63.5" font-family="Helvetica,sans-Serif" font-size="10.00">src/enclave/enclave.h</text>
</a>
</g>
</g>
<!-- Node5&#45;&gt;Node6 -->
<g id="edge5" class="edge">
<title>Node5&#45;&gt;Node6</title>
<path fill="none" stroke="midnightblue" d="M2484.35,-174.3C2511.31,-157.5 2540.46,-132.63 2520.49,-112 2473.95,-63.91 1460.2,-65.45 1198.63,-66.65"/>
<polygon fill="midnightblue" stroke="midnightblue" points="2482.52,-171.32 2475.73,-179.46 2486.11,-177.32 2482.52,-171.32"/>
</g>
<!-- Node8 -->
<g id="node8" class="node">
<title>Node8</title>
<g id="a_node8"><a xlink:href="historical__transaction__fetcher_8h.html" target="_top" xlink:title=" ">
<polygon fill="white" stroke="black" points="2385.99,-112.5 2385.99,-142.5 2510.99,-142.5 2510.99,-112.5 2385.99,-112.5"/>
<text text-anchor="start" x="2393.99" y="-130.5" font-family="Helvetica,sans-Serif" font-size="10.00">src/indexing/historical</text>
<text text-anchor="middle" x="2448.49" y="-119.5" font-family="Helvetica,sans-Serif" font-size="10.00">_transaction_fetcher.h</text>
</a>
</g>
</g>
<!-- Node5&#45;&gt;Node8 -->
<g id="edge7" class="edge">
<title>Node5&#45;&gt;Node8</title>
<path fill="none" stroke="midnightblue" d="M2448.49,-169.11C2448.49,-160.15 2448.49,-150.32 2448.49,-142.58"/>
<polygon fill="midnightblue" stroke="midnightblue" points="2444.99,-169.4 2448.49,-179.4 2451.99,-169.4 2444.99,-169.4"/>
</g>
<!-- Node7 -->
<g id="node7" class="node">
<title>Node7</title>
<g id="a_node7"><a xlink:href="enclave_2main_8cpp.html" target="_top" xlink:title=" ">
<polygon fill="white" stroke="black" points="1077.49,-0.5 1077.49,-19.5 1197.49,-19.5 1197.49,-0.5 1077.49,-0.5"/>
<text text-anchor="middle" x="1137.49" y="-7.5" font-family="Helvetica,sans-Serif" font-size="10.00">src/enclave/main.cpp</text>
</a>
</g>
</g>
<!-- Node6&#45;&gt;Node7 -->
<g id="edge6" class="edge">
<title>Node6&#45;&gt;Node7</title>
<path fill="none" stroke="midnightblue" d="M1137.49,-45.8C1137.49,-36.91 1137.49,-26.78 1137.49,-19.75"/>
<polygon fill="midnightblue" stroke="midnightblue" points="1133.99,-46.08 1137.49,-56.08 1140.99,-46.08 1133.99,-46.08"/>
</g>
<!-- Node8&#45;&gt;Node6 -->
<g id="edge8" class="edge">
<title>Node8&#45;&gt;Node6</title>
<path fill="none" stroke="midnightblue" d="M2375.4,-112.46C2374.09,-112.3 2372.79,-112.14 2371.49,-112 2140.33,-86.17 1414.41,-71.8 1198.59,-68.02"/>
<polygon fill="midnightblue" stroke="midnightblue" points="2375.19,-115.97 2385.58,-113.86 2376.15,-109.03 2375.19,-115.97"/>
</g>
<!-- Node9&#45;&gt;Node6 -->
<g id="edge10" class="edge">
<title>Node9&#45;&gt;Node6</title>
<path fill="none" stroke="midnightblue" d="M1005.78,-179.74C1022.28,-170.28 1043.92,-156.96 1061.49,-143 1088.96,-121.18 1117.07,-90.42 1130.07,-75.62"/>
<polygon fill="midnightblue" stroke="midnightblue" points="1003.73,-176.87 996.74,-184.83 1007.17,-182.97 1003.73,-176.87"/>
</g>
<!-- Node10 -->
<g id="node10" class="node">
<title>Node10</title>
<g id="a_node10"><a xlink:href="gov__effects_8h.html" target="_top" xlink:title=" ">
<polygon fill="white" stroke="black" points="908.49,-118 908.49,-137 1052.49,-137 1052.49,-118 908.49,-118"/>
<text text-anchor="middle" x="980.49" y="-125" font-family="Helvetica,sans-Serif" font-size="10.00">src/node/rpc/gov_effects.h</text>
</a>
</g>
</g>
<!-- Node9&#45;&gt;Node10 -->
<g id="edge11" class="edge">
<title>Node9&#45;&gt;Node10</title>
<path fill="none" stroke="midnightblue" d="M980.49,-174.54C980.49,-162.17 980.49,-146.62 980.49,-137.13"/>
<polygon fill="midnightblue" stroke="midnightblue" points="976.99,-174.73 980.49,-184.73 983.99,-174.73 976.99,-174.73"/>
</g>
<!-- Node10&#45;&gt;Node6 -->
<g id="edge12" class="edge">
<title>Node10&#45;&gt;Node6</title>
<path fill="none" stroke="midnightblue" d="M1012.73,-114.28C1043.24,-102.72 1088.25,-85.66 1115.04,-75.51"/>
<polygon fill="midnightblue" stroke="midnightblue" points="1011.1,-111.16 1002.99,-117.98 1013.58,-117.7 1011.1,-111.16"/>
</g>
<!-- Node11&#45;&gt;Node6 -->
<g id="edge15" class="edge">
<title>Node11&#45;&gt;Node6</title>
<path fill="none" stroke="midnightblue" d="M1124.94,-375.71C1126.33,-316.79 1130.68,-138.1 1132.49,-112 1133.38,-99.3 1135.15,-84.65 1136.32,-75.61"/>
<polygon fill="midnightblue" stroke="midnightblue" points="1121.43,-375.73 1124.7,-385.81 1128.43,-375.9 1121.43,-375.73"/>
</g>
<!-- Node11&#45;&gt;Node9 -->
<g id="edge36" class="edge">
<title>Node11&#45;&gt;Node9</title>
<path fill="none" stroke="midnightblue" d="M1122.94,-375.86C1120.83,-358.57 1115.9,-332.63 1104.49,-313 1075.58,-263.26 1019.28,-221.43 993.7,-204.08"/>
<polygon fill="midnightblue" stroke="midnightblue" points="1119.46,-376.22 1123.96,-385.81 1126.43,-375.51 1119.46,-376.22"/>
</g>
<!-- Node12 -->
<g id="node12" class="node">
<title>Node12</title>
<g id="a_node12"><a xlink:href="wrap_8h.html" target="_top" xlink:title=" ">
<polygon fill="white" stroke="black" points="1829.49,-319 1829.49,-338 1907.49,-338 1907.49,-319 1829.49,-319"/>
<text text-anchor="middle" x="1868.49" y="-326" font-family="Helvetica,sans-Serif" font-size="10.00">src/js/wrap.h</text>
</a>
</g>
</g>
<!-- Node11&#45;&gt;Node12 -->
<g id="edge16" class="edge">
<title>Node11&#45;&gt;Node12</title>
<path fill="none" stroke="midnightblue" d="M1205,-387.47C1363.82,-373.59 1712.19,-343.16 1829.24,-332.93"/>
<polygon fill="midnightblue" stroke="midnightblue" points="1204.48,-384 1194.82,-388.36 1205.09,-390.97 1204.48,-384"/>
</g>
<!-- Node21 -->
<g id="node21" class="node">
<title>Node21</title>
<g id="a_node21"><a xlink:href="acme__challenge__frontend_8h.html" target="_top" xlink:title=" ">
<polygon fill="white" stroke="black" points="1190.49,-313.5 1190.49,-343.5 1330.49,-343.5 1330.49,-313.5 1190.49,-313.5"/>
<text text-anchor="start" x="1198.49" y="-331.5" font-family="Helvetica,sans-Serif" font-size="10.00">src/node/acme_challenge</text>
<text text-anchor="middle" x="1260.49" y="-320.5" font-family="Helvetica,sans-Serif" font-size="10.00">_frontend.h</text>
</a>
</g>
</g>
<!-- Node11&#45;&gt;Node21 -->
<g id="edge32" class="edge">
<title>Node11&#45;&gt;Node21</title>
<path fill="none" stroke="midnightblue" d="M1151.75,-381.47C1174.74,-370.49 1207.58,-354.79 1231.14,-343.53"/>
<polygon fill="midnightblue" stroke="midnightblue" points="1150.07,-378.4 1142.55,-385.87 1153.09,-384.71 1150.07,-378.4"/>
</g>
<!-- Node23 -->
<g id="node23" class="node">
<title>Node23</title>
<g id="a_node23"><a xlink:href="node__frontend_8h.html" target="_top" xlink:title=" ">
<polygon fill="white" stroke="black" points="583.49,-319 583.49,-338 741.49,-338 741.49,-319 583.49,-319"/>
<text text-anchor="middle" x="662.49" y="-326" font-family="Helvetica,sans-Serif" font-size="10.00">src/node/rpc/node_frontend.h</text>
</a>
</g>
</g>
<!-- Node11&#45;&gt;Node23 -->
<g id="edge37" class="edge">
<title>Node11&#45;&gt;Node23</title>
<path fill="none" stroke="midnightblue" d="M1053.46,-384.51C963.01,-371.78 808.3,-350.01 723.13,-338.03"/>
<polygon fill="midnightblue" stroke="midnightblue" points="1053.23,-388.01 1063.62,-385.94 1054.21,-381.08 1053.23,-388.01"/>
</g>
<!-- Node25 -->
<g id="node25" class="node">
<title>Node25</title>
<g id="a_node25"><a xlink:href="user__frontend_8h.html" target="_top" xlink:title=" ">
<polygon fill="white" stroke="black" points="1233.99,-118 1233.99,-137 1388.99,-137 1388.99,-118 1233.99,-118"/>
<text text-anchor="middle" x="1311.49" y="-125" font-family="Helvetica,sans-Serif" font-size="10.00">src/node/rpc/user_frontend.h</text>
</a>
</g>
</g>
<!-- Node11&#45;&gt;Node25 -->
<g id="edge41" class="edge">
<title>Node11&#45;&gt;Node25</title>
<path fill="none" stroke="midnightblue" d="M1204.78,-385.74C1258.42,-378.09 1322.19,-364.86 1339.49,-344 1392,-280.69 1334.78,-168.93 1316.63,-137.15"/>
<polygon fill="midnightblue" stroke="midnightblue" points="1203.98,-382.32 1194.56,-387.15 1204.94,-389.25 1203.98,-382.32"/>
</g>
<!-- Node11&#45;&gt;Node26 -->
<g id="edge43" class="edge">
<title>Node11&#45;&gt;Node26</title>
<path fill="none" stroke="midnightblue" d="M1081.82,-383.4C1032.48,-370.58 952.33,-349.74 907.51,-338.08"/>
<polygon fill="midnightblue" stroke="midnightblue" points="1080.99,-386.81 1091.55,-385.94 1082.76,-380.03 1080.99,-386.81"/>
</g>
<!-- Node11&#45;&gt;Node27 -->
<g id="edge45" class="edge">
<title>Node11&#45;&gt;Node27</title>
<path fill="none" stroke="midnightblue" d="M1044.29,-389.24C936.98,-381.73 740.91,-366.31 574.49,-344 562.17,-342.35 548.87,-340.17 536.65,-338"/>
<polygon fill="midnightblue" stroke="midnightblue" points="1044.17,-392.74 1054.39,-389.95 1044.66,-385.76 1044.17,-392.74"/>
</g>
<!-- Node28 -->
<g id="node28" class="node">
<title>Node28</title>
<g id="a_node28"><a xlink:href="snapshotter_8h.html" target="_top" xlink:title=" ">
<polygon fill="white" stroke="black" points="968.99,-319 968.99,-338 1095.99,-338 1095.99,-319 968.99,-319"/>
<text text-anchor="middle" x="1032.49" y="-326" font-family="Helvetica,sans-Serif" font-size="10.00">src/node/snapshotter.h</text>
</a>
</g>
</g>
<!-- Node11&#45;&gt;Node28 -->
<g id="edge48" class="edge">
<title>Node11&#45;&gt;Node28</title>
<path fill="none" stroke="midnightblue" d="M1103.86,-379.92C1085.67,-367.07 1059.79,-348.78 1044.7,-338.13"/>
<polygon fill="midnightblue" stroke="midnightblue" points="1101.9,-382.82 1112.09,-385.73 1105.94,-377.1 1101.9,-382.82"/>
</g>
<!-- Node12&#45;&gt;Node6 -->
<g id="edge18" class="edge">
<title>Node12&#45;&gt;Node6</title>
<path fill="none" stroke="midnightblue" d="M1917.89,-326.43C2042.13,-323.23 2359.99,-311.69 2391.49,-277 2400.76,-266.8 2400.45,-256.47 2391.49,-246 2312.71,-153.86 1439.32,-87.65 1198.6,-71.06"/>
<polygon fill="midnightblue" stroke="midnightblue" points="1917.79,-322.93 1907.88,-326.68 1917.97,-329.93 1917.79,-322.93"/>
</g>
<!-- Node12&#45;&gt;Node9 -->
<g id="edge29" class="edge">
<title>Node12&#45;&gt;Node9</title>
<path fill="none" stroke="midnightblue" d="M1818.92,-325.97C1761.34,-322.54 1664.62,-311.61 1589.49,-277 1569.7,-267.88 1571.68,-254.21 1551.49,-246 1460.57,-209.02 1170.77,-199.05 1042.54,-196.42"/>
<polygon fill="midnightblue" stroke="midnightblue" points="1819.03,-329.48 1829.21,-326.53 1819.41,-322.49 1819.03,-329.48"/>
</g>
<!-- Node13 -->
<g id="node13" class="node">
<title>Node13</title>
<g id="a_node13"><a xlink:href="js__generic__base_8cpp.html" target="_top" xlink:title=" ">
<polygon fill="white" stroke="black" points="2030.49,-246.5 2030.49,-276.5 2148.49,-276.5 2148.49,-246.5 2030.49,-246.5"/>
<text text-anchor="start" x="2038.49" y="-264.5" font-family="Helvetica,sans-Serif" font-size="10.00">src/apps/js_generic</text>
<text text-anchor="middle" x="2089.49" y="-253.5" font-family="Helvetica,sans-Serif" font-size="10.00">/js_generic_base.cpp</text>
</a>
</g>
</g>
<!-- Node12&#45;&gt;Node13 -->
<g id="edge17" class="edge">
<title>Node12&#45;&gt;Node13</title>
<path fill="none" stroke="midnightblue" d="M1907.88,-315.92C1945.35,-304.9 2001.79,-288.29 2041.8,-276.53"/>
<polygon fill="midnightblue" stroke="midnightblue" points="1906.45,-312.69 1897.84,-318.87 1908.42,-319.4 1906.45,-312.69"/>
</g>
<!-- Node14 -->
<g id="node14" class="node">
<title>Node14</title>
<g id="a_node14"><a xlink:href="js_2consensus_8cpp.html" target="_top" xlink:title=" ">
<polygon fill="white" stroke="black" points="1896.49,-252 1896.49,-271 2012.49,-271 2012.49,-252 1896.49,-252"/>
<text text-anchor="middle" x="1954.49" y="-259" font-family="Helvetica,sans-Serif" font-size="10.00">src/js/consensus.cpp</text>
</a>
</g>
</g>
<!-- Node12&#45;&gt;Node14 -->
<g id="edge19" class="edge">
<title>Node12&#45;&gt;Node14</title>
<path fill="none" stroke="midnightblue" d="M1888.25,-312.57C1905.23,-299.74 1929.11,-281.69 1943.08,-271.13"/>
<polygon fill="midnightblue" stroke="midnightblue" points="1885.96,-309.91 1880.09,-318.73 1890.18,-315.5 1885.96,-309.91"/>
</g>
<!-- Node15 -->
<g id="node15" class="node">
<title>Node15</title>
<g id="a_node15"><a xlink:href="wrap_8cpp.html" target="_top" xlink:title=" ">
<polygon fill="white" stroke="black" points="1866.99,-185 1866.99,-204 1955.99,-204 1955.99,-185 1866.99,-185"/>
<text text-anchor="middle" x="1911.49" y="-192" font-family="Helvetica,sans-Serif" font-size="10.00">src/js/wrap.cpp</text>
</a>
</g>
</g>
<!-- Node12&#45;&gt;Node15 -->
<g id="edge28" class="edge">
<title>Node12&#45;&gt;Node15</title>
<path fill="none" stroke="midnightblue" d="M1871.7,-308.64C1874.82,-291.91 1880.17,-266.95 1887.49,-246 1892.81,-230.79 1901.32,-214.07 1906.65,-204.2"/>
<polygon fill="midnightblue" stroke="midnightblue" points="1868.2,-308.3 1869.9,-318.76 1875.1,-309.53 1868.2,-308.3"/>
</g>
<!-- Node16 -->
<g id="node16" class="node">
<title>Node16</title>
<g id="a_node16"><a xlink:href="conv_8cpp.html" target="_top" xlink:title=" ">
<polygon fill="white" stroke="black" points="2294.49,-252 2294.49,-271 2382.49,-271 2382.49,-252 2294.49,-252"/>
<text text-anchor="middle" x="2338.49" y="-259" font-family="Helvetica,sans-Serif" font-size="10.00">src/js/conv.cpp</text>
</a>
</g>
</g>
<!-- Node12&#45;&gt;Node16 -->
<g id="edge21" class="edge">
<title>Node12&#45;&gt;Node16</title>
<path fill="none" stroke="midnightblue" d="M1917.66,-323.89C1996.02,-317.62 2153.83,-302.84 2285.49,-277 2293.64,-275.4 2302.37,-273.22 2310.34,-271.02"/>
<polygon fill="midnightblue" stroke="midnightblue" points="1917.29,-320.41 1907.6,-324.69 1917.84,-327.39 1917.29,-320.41"/>
</g>
<!-- Node17 -->
<g id="node17" class="node">
<title>Node17</title>
<g id="a_node17"><a xlink:href="js_2crypto_8cpp.html" target="_top" xlink:title=" ">
<polygon fill="white" stroke="black" points="1744.49,-252 1744.49,-271 1840.49,-271 1840.49,-252 1744.49,-252"/>
<text text-anchor="middle" x="1792.49" y="-259" font-family="Helvetica,sans-Serif" font-size="10.00">src/js/crypto.cpp</text>
</a>
</g>
</g>
<!-- Node12&#45;&gt;Node17 -->
<g id="edge23" class="edge">
<title>Node12&#45;&gt;Node17</title>
<path fill="none" stroke="midnightblue" d="M1850.62,-312.21C1835.65,-299.41 1814.81,-281.59 1802.58,-271.13"/>
<polygon fill="midnightblue" stroke="midnightblue" points="1848.37,-314.89 1858.24,-318.73 1852.92,-309.57 1848.37,-314.89"/>
</g>
<!-- Node18 -->
<g id="node18" class="node">
<title>Node18</title>
<g id="a_node18"><a xlink:href="js_2historical_8cpp.html" target="_top" xlink:title=" ">
<polygon fill="white" stroke="black" points="2166.49,-252 2166.49,-271 2276.49,-271 2276.49,-252 2166.49,-252"/>
<text text-anchor="middle" x="2221.49" y="-259" font-family="Helvetica,sans-Serif" font-size="10.00">src/js/historical.cpp</text>
</a>
</g>
</g>
<!-- Node12&#45;&gt;Node18 -->
<g id="edge25" class="edge">
<title>Node12&#45;&gt;Node18</title>
<path fill="none" stroke="midnightblue" d="M1917.81,-319.65C1975.45,-310.3 2073.64,-293.82 2157.49,-277 2166.54,-275.19 2176.27,-273.07 2185.35,-271.02"/>
<polygon fill="midnightblue" stroke="midnightblue" points="1917.19,-316.21 1907.88,-321.26 1918.31,-323.12 1917.19,-316.21"/>
</g>
<!-- Node19 -->
<g id="node19" class="node">
<title>Node19</title>
<g id="a_node19"><a xlink:href="openenclave_8cpp.html" target="_top" xlink:title=" ">
<polygon fill="white" stroke="black" points="1598.49,-252 1598.49,-271 1726.49,-271 1726.49,-252 1598.49,-252"/>
<text text-anchor="middle" x="1662.49" y="-259" font-family="Helvetica,sans-Serif" font-size="10.00">src/js/openenclave.cpp</text>
</a>
</g>
</g>
<!-- Node12&#45;&gt;Node19 -->
<g id="edge27" class="edge">
<title>Node12&#45;&gt;Node19</title>
<path fill="none" stroke="midnightblue" d="M1831.56,-315.85C1790.76,-302.97 1726.02,-282.55 1689.63,-271.06"/>
<polygon fill="midnightblue" stroke="midnightblue" points="1830.55,-319.2 1841.14,-318.87 1832.66,-312.52 1830.55,-319.2"/>
</g>
<!-- Node20 -->
<g id="node20" class="node">
<title>Node20</title>
<g id="a_node20"><a xlink:href="member__frontend_8h.html" target="_top" xlink:title=" ">
<polygon fill="white" stroke="black" points="372.49,-246.5 372.49,-276.5 492.49,-276.5 492.49,-246.5 372.49,-246.5"/>
<text text-anchor="start" x="380.49" y="-264.5" font-family="Helvetica,sans-Serif" font-size="10.00">src/node/rpc/member</text>
<text text-anchor="middle" x="432.49" y="-253.5" font-family="Helvetica,sans-Serif" font-size="10.00">_frontend.h</text>
</a>
</g>
</g>
<!-- Node12&#45;&gt;Node20 -->
<g id="edge30" class="edge">
<title>Node12&#45;&gt;Node20</title>
<path fill="none" stroke="midnightblue" d="M1819.4,-326.3C1650.59,-322 1078.37,-306.09 606.49,-277 568.67,-274.67 526.3,-271.16 492.84,-268.17"/>
<polygon fill="midnightblue" stroke="midnightblue" points="1819.39,-329.8 1829.47,-326.55 1819.56,-322.8 1819.39,-329.8"/>
</g>
<!-- Node14&#45;&gt;Node15 -->
<g id="edge20" class="edge">
<title>Node14&#45;&gt;Node15</title>
<path fill="none" stroke="midnightblue" d="M1942.94,-243.03C1934.61,-230.45 1923.74,-214.01 1917.2,-204.13"/>
<polygon fill="midnightblue" stroke="midnightblue" points="1940.26,-245.32 1948.69,-251.73 1946.1,-241.46 1940.26,-245.32"/>
</g>
<!-- Node16&#45;&gt;Node15 -->
<g id="edge22" class="edge">
<title>Node16&#45;&gt;Node15</title>
<path fill="none" stroke="midnightblue" d="M2300.16,-249.37C2295.25,-248.13 2290.27,-246.97 2285.49,-246 2167.68,-222.04 2026.6,-206.48 1956.14,-199.59"/>
<polygon fill="midnightblue" stroke="midnightblue" points="2299.49,-252.81 2310.05,-251.97 2301.28,-246.04 2299.49,-252.81"/>
</g>
<!-- Node17&#45;&gt;Node15 -->
<g id="edge24" class="edge">
<title>Node17&#45;&gt;Node15</title>
<path fill="none" stroke="midnightblue" d="M1817.6,-246.79C1841.18,-233.9 1875.75,-215.02 1895.7,-204.13"/>
<polygon fill="midnightblue" stroke="midnightblue" points="1815.64,-243.87 1808.54,-251.73 1819,-250.01 1815.64,-243.87"/>
</g>
<!-- Node18&#45;&gt;Node15 -->
<g id="edge26" class="edge">
<title>Node18&#45;&gt;Node15</title>
<path fill="none" stroke="midnightblue" d="M2174.25,-249.68C2168.6,-248.42 2162.92,-247.17 2157.49,-246 2086.54,-230.68 2003.82,-213.93 1954.65,-204.08"/>
<polygon fill="midnightblue" stroke="midnightblue" points="2173.77,-253.16 2184.3,-251.94 2175.31,-246.33 2173.77,-253.16"/>
</g>
<!-- Node20&#45;&gt;Node6 -->
<g id="edge31" class="edge">
<title>Node20&#45;&gt;Node6</title>
<path fill="none" stroke="midnightblue" d="M441.29,-236.62C455.34,-202.3 486.37,-140.09 535.49,-112 581.64,-85.61 932.72,-72.79 1076.44,-68.6"/>
<polygon fill="midnightblue" stroke="midnightblue" points="437.89,-235.72 437.48,-246.3 444.4,-238.28 437.89,-235.72"/>
</g>
<!-- Node21&#45;&gt;Node6 -->
<g id="edge33" class="edge">
<title>Node21&#45;&gt;Node6</title>
<path fill="none" stroke="midnightblue" d="M1213.03,-308.63C1198.94,-300.84 1184.81,-290.42 1175.49,-277 1129.64,-210.96 1134.22,-105.99 1136.68,-75.54"/>
<polygon fill="midnightblue" stroke="midnightblue" points="1211.73,-311.9 1222.22,-313.38 1214.94,-305.69 1211.73,-311.9"/>
</g>
<!-- Node22 -->
<g id="node22" class="node">
<title>Node22</title>
<g id="a_node22"><a xlink:href="ccf__acme__client_8h.html" target="_top" xlink:title=" ">
<polygon fill="white" stroke="black" points="1183.99,-252 1183.99,-271 1332.99,-271 1332.99,-252 1183.99,-252"/>
<text text-anchor="middle" x="1258.49" y="-259" font-family="Helvetica,sans-Serif" font-size="10.00">src/node/ccf_acme_client.h</text>
</a>
</g>
</g>
<!-- Node21&#45;&gt;Node22 -->
<g id="edge34" class="edge">
<title>Node21&#45;&gt;Node22</title>
<path fill="none" stroke="midnightblue" d="M1259.75,-303.25C1259.4,-292.02 1259.01,-279.38 1258.76,-271.19"/>
<polygon fill="midnightblue" stroke="midnightblue" points="1256.25,-303.51 1260.06,-313.4 1263.25,-303.29 1256.25,-303.51"/>
</g>
<!-- Node22&#45;&gt;Node9 -->
<g id="edge35" class="edge">
<title>Node22&#45;&gt;Node9</title>
<path fill="none" stroke="midnightblue" d="M1212.06,-249.64C1157.29,-236.84 1067.35,-215.81 1017.2,-204.08"/>
<polygon fill="midnightblue" stroke="midnightblue" points="1211.33,-253.07 1221.86,-251.94 1212.92,-246.25 1211.33,-253.07"/>
</g>
<!-- Node23&#45;&gt;Node6 -->
<g id="edge38" class="edge">
<title>Node23&#45;&gt;Node6</title>
<path fill="none" stroke="midnightblue" d="M640.53,-312.99C618.9,-296.83 591.18,-269.85 606.49,-246 683.88,-125.52 763.03,-155.4 899.49,-112 958.2,-93.33 1027.66,-81.29 1076.34,-74.41"/>
<polygon fill="midnightblue" stroke="midnightblue" points="638.53,-315.86 648.7,-318.82 642.59,-310.16 638.53,-315.86"/>
</g>
<!-- Node24 -->
<g id="node24" class="node">
<title>Node24</title>
<g id="a_node24"><a xlink:href="jwt__key__auto__refresh_8h.html" target="_top" xlink:title=" ">
<polygon fill="white" stroke="black" points="615.99,-246.5 615.99,-276.5 740.99,-276.5 740.99,-246.5 615.99,-246.5"/>
<text text-anchor="start" x="623.99" y="-264.5" font-family="Helvetica,sans-Serif" font-size="10.00">src/node/jwt_key_auto</text>
<text text-anchor="middle" x="678.49" y="-253.5" font-family="Helvetica,sans-Serif" font-size="10.00">_refresh.h</text>
</a>
</g>
</g>
<!-- Node23&#45;&gt;Node24 -->
<g id="edge39" class="edge">
<title>Node23&#45;&gt;Node24</title>
<path fill="none" stroke="midnightblue" d="M667.11,-308.74C669.64,-298.49 672.71,-286 675.03,-276.59"/>
<polygon fill="midnightblue" stroke="midnightblue" points="663.64,-308.19 664.65,-318.73 670.44,-309.86 663.64,-308.19"/>
</g>
<!-- Node24&#45;&gt;Node9 -->
<g id="edge40" class="edge">
<title>Node24&#45;&gt;Node9</title>
<path fill="none" stroke="midnightblue" d="M751.15,-244.86C810.6,-232.07 892.47,-214.45 940.6,-204.09"/>
<polygon fill="midnightblue" stroke="midnightblue" points="750.11,-241.51 741.07,-247.03 751.58,-248.35 750.11,-241.51"/>
</g>
<!-- Node25&#45;&gt;Node6 -->
<g id="edge42" class="edge">
<title>Node25&#45;&gt;Node6</title>
<path fill="none" stroke="midnightblue" d="M1277.08,-114.73C1243.26,-103.17 1192.46,-85.8 1162.38,-75.51"/>
<polygon fill="midnightblue" stroke="midnightblue" points="1275.97,-118.05 1286.56,-117.98 1278.23,-111.43 1275.97,-118.05"/>
</g>
<!-- Node26&#45;&gt;Node9 -->
<g id="edge44" class="edge">
<title>Node26&#45;&gt;Node9</title>
<path fill="none" stroke="midnightblue" d="M887.72,-311.03C910.49,-282.67 956.33,-225.6 973.65,-204.02"/>
<polygon fill="midnightblue" stroke="midnightblue" points="884.98,-308.85 881.45,-318.84 890.44,-313.23 884.98,-308.85"/>
</g>
<!-- Node27&#45;&gt;Node9 -->
<g id="edge46" class="edge">
<title>Node27&#45;&gt;Node9</title>
<path fill="none" stroke="midnightblue" d="M508.64,-311.96C529.44,-292.97 567.56,-261.44 606.49,-246 710.49,-204.77 842.14,-196.07 918.29,-194.85"/>
<polygon fill="midnightblue" stroke="midnightblue" points="506.24,-309.42 501.32,-318.8 511.01,-314.54 506.24,-309.42"/>
</g>
<!-- Node27&#45;&gt;Node20 -->
<g id="edge47" class="edge">
<title>Node27&#45;&gt;Node20</title>
<path fill="none" stroke="midnightblue" d="M477.54,-311.3C467.7,-300.63 454.93,-286.8 445.5,-276.59"/>
<polygon fill="midnightblue" stroke="midnightblue" points="475.05,-313.76 484.4,-318.73 480.19,-309.01 475.05,-313.76"/>
</g>
<!-- Node28&#45;&gt;Node9 -->
<g id="edge49" class="edge">
<title>Node28&#45;&gt;Node9</title>
<path fill="none" stroke="midnightblue" d="M1025.27,-309.16C1013.87,-280.23 992.17,-225.13 983.85,-204.02"/>
<polygon fill="midnightblue" stroke="midnightblue" points="1022.16,-310.82 1029.08,-318.84 1028.67,-308.25 1022.16,-310.82"/>
</g>
<!-- Node29&#45;&gt;Node15 -->
<g id="edge52" class="edge">
<title>Node29&#45;&gt;Node15</title>
<path fill="none" stroke="midnightblue" d="M410.45,-460.38C595.73,-457.19 1054.04,-445.91 1203.49,-411 1277.77,-393.65 1304.47,-394.66 1361.49,-344 1399,-310.68 1375.44,-273.36 1417.49,-246 1491.02,-198.17 1759.81,-194.47 1866.96,-194.97"/>
<polygon fill="midnightblue" stroke="midnightblue" points="410.18,-456.88 400.24,-460.55 410.3,-463.88 410.18,-456.88"/>
</g>
<!-- Node29&#45;&gt;Node20 -->
<g id="edge55" class="edge">
<title>Node29&#45;&gt;Node20</title>
<path fill="none" stroke="midnightblue" d="M252.7,-452.55C137.1,-436.42 -57.16,-396.13 16.49,-313 39.68,-286.83 262.65,-271.48 372.26,-265.47"/>
<polygon fill="midnightblue" stroke="midnightblue" points="252.56,-456.06 262.94,-453.94 253.5,-449.13 252.56,-456.06"/>
</g>
<!-- Node30 -->
<g id="node30" class="node">
<title>Node30</title>
<g id="a_node30"><a xlink:href="common__endpoint__registry_8cpp.html" target="_top" xlink:title=" ">
<polygon fill="white" stroke="black" points="25.49,-313.5 25.49,-343.5 153.49,-343.5 153.49,-313.5 25.49,-313.5"/>
<text text-anchor="start" x="33.49" y="-331.5" font-family="Helvetica,sans-Serif" font-size="10.00">src/endpoints/common</text>
<text text-anchor="middle" x="89.49" y="-320.5" font-family="Helvetica,sans-Serif" font-size="10.00">_endpoint_registry.cpp</text>
</a>
</g>
</g>
<!-- Node29&#45;&gt;Node30 -->
<g id="edge51" class="edge">
<title>Node29&#45;&gt;Node30</title>
<path fill="none" stroke="midnightblue" d="M304.41,-448.31C284.17,-438.34 255.92,-424.16 231.49,-411 189.46,-388.34 141.44,-360.32 113.39,-343.74"/>
<polygon fill="midnightblue" stroke="midnightblue" points="303.12,-451.58 313.64,-452.84 306.21,-445.29 303.12,-451.58"/>
</g>
<!-- Node31 -->
<g id="node31" class="node">
<title>Node31</title>
<g id="a_node31"><a xlink:href="resharing_8h.html" target="_top" xlink:title=" ">
<polygon fill="white" stroke="black" points="171.49,-319 171.49,-338 287.49,-338 287.49,-319 171.49,-319"/>
<text text-anchor="middle" x="229.49" y="-326" font-family="Helvetica,sans-Serif" font-size="10.00">src/node/resharing.h</text>
</a>
</g>
</g>
<!-- Node29&#45;&gt;Node31 -->
<g id="edge53" class="edge">
<title>Node29&#45;&gt;Node31</title>
<path fill="none" stroke="midnightblue" d="M298.2,-448.75C280.9,-440.49 260.85,-428.06 248.49,-411 232.22,-388.52 229.65,-354.22 229.4,-338.25"/>
<polygon fill="midnightblue" stroke="midnightblue" points="296.9,-452.01 307.46,-452.92 299.77,-445.62 296.9,-452.01"/>
</g>
<!-- Node32 -->
<g id="node32" class="node">
<title>Node32</title>
<g id="a_node32"><a xlink:href="serialization_8h.html" target="_top" xlink:title=" ">
<polygon fill="white" stroke="black" points="257.49,-386 257.49,-405 405.49,-405 405.49,-386 257.49,-386"/>
<text text-anchor="middle" x="331.49" y="-393" font-family="Helvetica,sans-Serif" font-size="10.00">src/node/rpc/serialization.h</text>
</a>
</g>
</g>
<!-- Node29&#45;&gt;Node32 -->
<g id="edge56" class="edge">
<title>Node29&#45;&gt;Node32</title>
<path fill="none" stroke="midnightblue" d="M331.49,-442.54C331.49,-430.17 331.49,-414.62 331.49,-405.13"/>
<polygon fill="midnightblue" stroke="midnightblue" points="327.99,-442.73 331.49,-452.73 334.99,-442.73 327.99,-442.73"/>
</g>
<!-- Node31&#45;&gt;Node9 -->
<g id="edge54" class="edge">
<title>Node31&#45;&gt;Node9</title>
<path fill="none" stroke="midnightblue" d="M239.17,-310.11C251.04,-290.67 273.14,-260.07 301.49,-246 355.92,-218.98 760.98,-202.79 918.29,-197.46"/>
<polygon fill="midnightblue" stroke="midnightblue" points="236.07,-308.48 234.04,-318.88 242.11,-312.01 236.07,-308.48"/>
</g>
<!-- Node32&#45;&gt;Node9 -->
<g id="edge58" class="edge">
<title>Node32&#45;&gt;Node9</title>
<path fill="none" stroke="midnightblue" d="M329.18,-375.51C326.44,-343.4 326.24,-278.68 363.49,-246 404.6,-209.94 770.24,-199.3 918.48,-196.45"/>
<polygon fill="midnightblue" stroke="midnightblue" points="325.72,-376.16 330.23,-385.75 332.69,-375.44 325.72,-376.16"/>
</g>
<!-- Node32&#45;&gt;Node20 -->
<g id="edge60" class="edge">
<title>Node32&#45;&gt;Node20</title>
<path fill="none" stroke="midnightblue" d="M339.64,-376.44C347.87,-359.22 361.6,-333.02 377.49,-313 388.29,-299.39 402.86,-286.2 414.28,-276.71"/>
<polygon fill="midnightblue" stroke="midnightblue" points="336.3,-375.32 335.26,-385.86 342.65,-378.27 336.3,-375.32"/>
</g>
<!-- Node32&#45;&gt;Node23 -->
<g id="edge61" class="edge">
<title>Node32&#45;&gt;Node23</title>
<path fill="none" stroke="midnightblue" d="M385.18,-383.96C450.32,-371.16 558.9,-349.84 619.05,-338.03"/>
<polygon fill="midnightblue" stroke="midnightblue" points="384.24,-380.57 375.11,-385.94 385.59,-387.44 384.24,-380.57"/>
</g>
<!-- Node32&#45;&gt;Node30 -->
<g id="edge57" class="edge">
<title>Node32&#45;&gt;Node30</title>
<path fill="none" stroke="midnightblue" d="M289.94,-383.34C248.96,-372.33 186.2,-355.47 141.84,-343.56"/>
<polygon fill="midnightblue" stroke="midnightblue" points="289.04,-386.72 299.61,-385.94 290.86,-379.96 289.04,-386.72"/>
</g>
<!-- Node32&#45;&gt;Node31 -->
<g id="edge59" class="edge">
<title>Node32&#45;&gt;Node31</title>
<path fill="none" stroke="midnightblue" d="M309.16,-380.27C288.97,-367.4 259.9,-348.88 243.03,-338.13"/>
<polygon fill="midnightblue" stroke="midnightblue" points="307.42,-383.31 317.74,-385.73 311.19,-377.41 307.42,-383.31"/>
</g>
<!-- Node33&#45;&gt;Node29 -->
<g id="edge63" class="edge">
<title>Node33&#45;&gt;Node29</title>
<path fill="none" stroke="midnightblue" d="M349.98,-504.94C344.9,-493.54 339.1,-480.55 335.37,-472.19"/>
<polygon fill="midnightblue" stroke="midnightblue" points="346.93,-506.69 354.2,-514.4 353.32,-503.84 346.93,-506.69"/>
</g>
<!-- Node34&#45;&gt;Node9 -->
<g id="edge67" class="edge">
<title>Node34&#45;&gt;Node9</title>
<path fill="none" stroke="midnightblue" d="M770.29,-370.03C771.95,-352.68 776.49,-329.62 788.49,-313 830.81,-254.38 912.24,-219.12 954.15,-204.07"/>
<polygon fill="midnightblue" stroke="midnightblue" points="766.76,-370.26 769.56,-380.48 773.75,-370.74 766.76,-370.26"/>
</g>
<!-- Node34&#45;&gt;Node20 -->
<g id="edge68" class="edge">
<title>Node34&#45;&gt;Node20</title>
<path fill="none" stroke="midnightblue" d="M704.31,-395.1C611.35,-394.41 447.8,-386.93 410.49,-344 393.86,-324.86 409.76,-294.37 421.81,-276.61"/>
<polygon fill="midnightblue" stroke="midnightblue" points="704.44,-398.6 714.45,-395.15 704.47,-391.6 704.44,-398.6"/>
</g>
<!-- Node34&#45;&gt;Node23 -->
<g id="edge69" class="edge">
<title>Node34&#45;&gt;Node23</title>
<path fill="none" stroke="midnightblue" d="M737.63,-375.14C717.29,-362.79 691.94,-347.39 676.5,-338.01"/>
<polygon fill="midnightblue" stroke="midnightblue" points="735.91,-378.2 746.28,-380.4 739.55,-372.21 735.91,-378.2"/>
</g>
<!-- Node34&#45;&gt;Node26 -->
<g id="edge70" class="edge">
<title>Node34&#45;&gt;Node26</title>
<path fill="none" stroke="midnightblue" d="M801.03,-374.97C820.94,-362.65 845.67,-347.35 860.75,-338.01"/>
<polygon fill="midnightblue" stroke="midnightblue" points="798.94,-372.16 792.28,-380.4 802.62,-378.11 798.94,-372.16"/>
</g>
<!-- Node34&#45;&gt;Node27 -->
<g id="edge71" class="edge">
<title>Node34&#45;&gt;Node27</title>
<path fill="none" stroke="midnightblue" d="M704.48,-379.24C649.75,-366.4 573.48,-348.5 528.91,-338.05"/>
<polygon fill="midnightblue" stroke="midnightblue" points="703.9,-382.7 714.44,-381.58 705.5,-375.89 703.9,-382.7"/>
</g>
<!-- Node35&#45;&gt;Node11 -->
<g id="edge76" class="edge">
<title>Node35&#45;&gt;Node11</title>
<path fill="none" stroke="midnightblue" d="M1330.69,-445.78C1277.05,-432.96 1203.33,-415.34 1160.12,-405.01"/>
<polygon fill="midnightblue" stroke="midnightblue" points="1329.93,-449.19 1340.47,-448.11 1331.55,-442.38 1329.93,-449.19"/>
</g>
<!-- Node35&#45;&gt;Node22 -->
<g id="edge75" class="edge">
<title>Node35&#45;&gt;Node22</title>
<path fill="none" stroke="midnightblue" d="M1392.16,-437.2C1385.49,-405.62 1370.15,-350.15 1339.49,-313 1323.46,-293.57 1297.91,-279.41 1279.8,-271.11"/>
<polygon fill="midnightblue" stroke="midnightblue" points="1388.78,-438.17 1394.16,-447.3 1395.65,-436.81 1388.78,-438.17"/>
</g>
<!-- Node35&#45;&gt;Node34 -->
<g id="edge77" class="edge">
<title>Node35&#45;&gt;Node34</title>
<path fill="none" stroke="midnightblue" d="M1330.16,-454.62C1205.91,-441.74 940.26,-414.2 824.89,-402.24"/>
<polygon fill="midnightblue" stroke="midnightblue" points="1329.99,-458.12 1340.3,-455.67 1330.71,-451.16 1329.99,-458.12"/>
</g>
<!-- Node36 -->
<g id="node36" class="node">
<title>Node36</title>
<g id="a_node36"><a xlink:href="kv__module__loader_8cpp.html" target="_top" xlink:title=" ">
<polygon fill="white" stroke="black" points="1462.99,-380.5 1462.99,-410.5 1605.99,-410.5 1605.99,-380.5 1462.99,-380.5"/>
<text text-anchor="start" x="1470.99" y="-398.5" font-family="Helvetica,sans-Serif" font-size="10.00">src/apps/js_v8/kv_module</text>
<text text-anchor="middle" x="1534.49" y="-387.5" font-family="Helvetica,sans-Serif" font-size="10.00">_loader.cpp</text>
</a>
</g>
</g>
<!-- Node35&#45;&gt;Node36 -->
<g id="edge74" class="edge">
<title>Node35&#45;&gt;Node36</title>
<path fill="none" stroke="midnightblue" d="M1435.49,-443.13C1457.42,-432.8 1484.37,-420.11 1504.61,-410.58"/>
<polygon fill="midnightblue" stroke="midnightblue" points="1433.99,-439.97 1426.44,-447.4 1436.98,-446.3 1433.99,-439.97"/>
</g>
</g>
</svg>
        <g id="navigator" transform="translate(0 0)" fill="#404254">
                <rect fill="#f2f5e9" fill-opacity="0.5" stroke="#606060" stroke-width=".5" x="0" y="0" width="60" height="60"/>
                <use id="zoomplus" xlink:href="#zoomPlus" x="17" y="9" onmousedown="handleZoom(evt,'in')"/>
                <use id="zoomminus" xlink:href="#zoomMin" x="42" y="9" onmousedown="handleZoom(evt,'out')"/>
                <use id="reset" xlink:href="#resetDef" x="30" y="36" onmousedown="handleReset()"/>
                <g id="arrowUp" xlink:href="#dirArrow" transform="translate(30 24)" onmousedown="handlePan(0,-1)">
                  <use xlink:href="#rim" fill="#404040">
                        <set attributeName="fill" to="#808080" begin="arrowUp.mouseover" end="arrowUp.mouseout"/>
                  </use>
                  <path fill="none" stroke="white" stroke-width="1.5" d="M0,-3.0v7 M-2.5,-0.5L0,-3.0L2.5,-0.5"/>
                </g>
                <g id="arrowRight" xlink:href="#dirArrow" transform="rotate(90) translate(36 -43)" onmousedown="handlePan(1,0)">
                  <use xlink:href="#rim" fill="#404040">
                        <set attributeName="fill" to="#808080" begin="arrowRight.mouseover" end="arrowRight.mouseout"/>
                  </use>
                  <path fill="none" stroke="white" stroke-width="1.5" d="M0,-3.0v7 M-2.5,-0.5L0,-3.0L2.5,-0.5"/>
                </g>
                <g id="arrowDown" xlink:href="#dirArrow" transform="rotate(180) translate(-30 -48)" onmousedown="handlePan(0,1)">
                  <use xlink:href="#rim" fill="#404040">
                        <set attributeName="fill" to="#808080" begin="arrowDown.mouseover" end="arrowDown.mouseout"/>
                  </use>
                  <path fill="none" stroke="white" stroke-width="1.5" d="M0,-3.0v7 M-2.5,-0.5L0,-3.0L2.5,-0.5"/>
                </g>
                <g id="arrowLeft" xlink:href="#dirArrow" transform="rotate(270) translate(-36 17)" onmousedown="handlePan(-1,0)">
                  <use xlink:href="#rim" fill="#404040">
                        <set attributeName="fill" to="#808080" begin="arrowLeft.mouseover" end="arrowLeft.mouseout"/>
                  </use>
                  <path fill="none" stroke="white" stroke-width="1.5" d="M0,-3.0v7 M-2.5,-0.5L0,-3.0L2.5,-0.5"/>
                </g>
        </g>
        <svg viewBox="0 0 15 15" width="100%" height="30px" preserveAspectRatio="xMaxYMin meet">
         <g id="arrow_out" transform="scale(0.3 0.3)">
          <a xlink:href="secrets_8h__dep__incl_org.svg" target="_base">
           <rect id="button" ry="5" rx="5" y="6" x="6" height="38" width="38"
                fill="#f2f5e9" fill-opacity="0.5" stroke="#606060" stroke-width="1.0"/>
           <path id="arrow"
             d="M 11.500037,31.436501 C 11.940474,20.09759 22.043105,11.32322 32.158766,21.979434 L 37.068811,17.246167 C 37.068811,17.246167 37.088388,32 37.088388,32 L 22.160133,31.978069 C 22.160133,31.978069 26.997745,27.140456 26.997745,27.140456 C 18.528582,18.264221 13.291696,25.230495 11.500037,31.436501 z"
             style="fill:#404040;"/>
          </a>
         </g>
        </svg>
</svg>
