<?xml version="1.0" encoding="UTF-8" standalone="no"?>
<!DOCTYPE svg PUBLIC "-//W3C//DTD SVG 1.1//EN"
 "http://www.w3.org/Graphics/SVG/1.1/DTD/svg11.dtd">
<!-- Generated by graphviz version 2.43.0 (0)
 -->
<!-- Title: src/ds/serialized.h Pages: 1 -->
<svg width="338pt" height="84pt"
 viewBox="0.00 0.00 337.50 84.00" xmlns="http://www.w3.org/2000/svg" xmlns:xlink="http://www.w3.org/1999/xlink">
<g id="graph0" class="graph" transform="scale(1 1) rotate(0) translate(4 80)">
<title>src/ds/serialized.h</title>
<polygon fill="white" stroke="transparent" points="-4,4 -4,-80 333.5,-80 333.5,4 -4,4"/>
<!-- Node1 -->
<g id="node1" class="node">
<title>Node1</title>
<g id="a_node1"><a xlink:title=" ">
<polygon fill="#bfbfbf" stroke="black" points="117,-56.5 117,-75.5 221,-75.5 221,-56.5 117,-56.5"/>
<text text-anchor="middle" x="169" y="-63.5" font-family="Helvetica,sans-Serif" font-size="10.00">src/ds/serialized.h</text>
</a>
</g>
</g>
<!-- Node2 -->
<g id="node2" class="node">
<title>Node2</title>
<g id="a_node2"><a xlink:title=" ">
<polygon fill="white" stroke="#bfbfbf" points="0,-0.5 0,-19.5 50,-19.5 50,-0.5 0,-0.5"/>
<text text-anchor="middle" x="25" y="-7.5" font-family="Helvetica,sans-Serif" font-size="10.00">cstdint</text>
</a>
</g>
</g>
<!-- Node1&#45;&gt;Node2 -->
<g id="edge1" class="edge">
<title>Node1&#45;&gt;Node2</title>
<path fill="none" stroke="midnightblue" d="M146.18,-56.44C122.17,-47.44 84.17,-33.19 57.13,-23.05"/>
<polygon fill="midnightblue" stroke="midnightblue" points="58.3,-19.75 47.71,-19.52 55.84,-26.3 58.3,-19.75"/>
</g>
<!-- Node3 -->
<g id="node3" class="node">
<title>Node3</title>
<g id="a_node3"><a xlink:title=" ">
<polygon fill="white" stroke="#bfbfbf" points="68,-0.5 68,-19.5 118,-19.5 118,-0.5 68,-0.5"/>
<text text-anchor="middle" x="93" y="-7.5" font-family="Helvetica,sans-Serif" font-size="10.00">cstring</text>
</a>
</g>
</g>
<!-- Node1&#45;&gt;Node3 -->
<g id="edge2" class="edge">
<title>Node1&#45;&gt;Node3</title>
<path fill="none" stroke="midnightblue" d="M156.79,-56.32C145.22,-48.11 127.62,-35.6 113.84,-25.81"/>
<polygon fill="midnightblue" stroke="midnightblue" points="115.61,-22.77 105.43,-19.83 111.56,-28.48 115.61,-22.77"/>
</g>
<!-- Node4 -->
<g id="node4" class="node">
<title>Node4</title>
<g id="a_node4"><a xlink:title=" ">
<polygon fill="white" stroke="#bfbfbf" points="136.5,-0.5 136.5,-19.5 201.5,-19.5 201.5,-0.5 136.5,-0.5"/>
<text text-anchor="middle" x="169" y="-7.5" font-family="Helvetica,sans-Serif" font-size="10.00">stdexcept</text>
</a>
</g>
</g>
<!-- Node1&#45;&gt;Node4 -->
<g id="edge3" class="edge">
<title>Node1&#45;&gt;Node4</title>
<path fill="none" stroke="midnightblue" d="M169,-56.08C169,-49.01 169,-38.86 169,-29.99"/>
<polygon fill="midnightblue" stroke="midnightblue" points="172.5,-29.75 169,-19.75 165.5,-29.75 172.5,-29.75"/>
</g>
<!-- Node5 -->
<g id="node5" class="node">
<title>Node5</title>
<g id="a_node5"><a xlink:title=" ">
<polygon fill="white" stroke="#bfbfbf" points="220,-0.5 220,-19.5 264,-19.5 264,-0.5 220,-0.5"/>
<text text-anchor="middle" x="242" y="-7.5" font-family="Helvetica,sans-Serif" font-size="10.00">string</text>
</a>
</g>
</g>
<!-- Node1&#45;&gt;Node5 -->
<g id="edge4" class="edge">
<title>Node1&#45;&gt;Node5</title>
<path fill="none" stroke="midnightblue" d="M180.73,-56.32C191.84,-48.11 208.74,-35.6 221.98,-25.81"/>
<polygon fill="midnightblue" stroke="midnightblue" points="224.1,-28.59 230.06,-19.83 219.94,-22.97 224.1,-28.59"/>
</g>
<!-- Node6 -->
<g id="node6" class="node">
<title>Node6</title>
<g id="a_node6"><a xlink:title=" ">
<polygon fill="white" stroke="#bfbfbf" points="282.5,-0.5 282.5,-19.5 329.5,-19.5 329.5,-0.5 282.5,-0.5"/>
<text text-anchor="middle" x="306" y="-7.5" font-family="Helvetica,sans-Serif" font-size="10.00">vector</text>
</a>
</g>
</g>
<!-- Node1&#45;&gt;Node6 -->
<g id="edge5" class="edge">
<title>Node1&#45;&gt;Node6</title>
<path fill="none" stroke="midnightblue" d="M190.71,-56.44C213.35,-47.52 249.07,-33.44 274.75,-23.32"/>
<polygon fill="midnightblue" stroke="midnightblue" points="276.37,-26.44 284.39,-19.52 273.81,-19.93 276.37,-26.44"/>
</g>
</g>
</svg>
