<?xml version="1.0" encoding="UTF-8" standalone="no"?>
<!DOCTYPE svg PUBLIC "-//W3C//DTD SVG 1.1//EN"
 "http://www.w3.org/Graphics/SVG/1.1/DTD/svg11.dtd">
<!-- Generated by graphviz version 2.43.0 (0)
 -->
<!-- Title: http2::StreamData Pages: 1 -->
<svg width="659pt" height="151pt"
 viewBox="0.00 0.00 659.00 151.00" xmlns="http://www.w3.org/2000/svg" xmlns:xlink="http://www.w3.org/1999/xlink">
<g id="graph0" class="graph" transform="scale(1 1) rotate(0) translate(4 147)">
<title>http2::StreamData</title>
<polygon fill="white" stroke="transparent" points="-4,4 -4,-147 655,-147 655,4 -4,4"/>
<!-- Node1 -->
<g id="node1" class="node">
<title>Node1</title>
<g id="a_node1"><a xlink:title=" ">
<polygon fill="#bfbfbf" stroke="black" points="544,-65.5 544,-84.5 651,-84.5 651,-65.5 544,-65.5"/>
<text text-anchor="middle" x="597.5" y="-72.5" font-family="Helvetica,sans-Serif" font-size="10.00">http2::StreamData</text>
</a>
</g>
</g>
<!-- Node2 -->
<g id="node2" class="node">
<title>Node2</title>
<g id="a_node2"><a xlink:title=" ">
<polygon fill="white" stroke="black" points="291,-80 291,-110 434,-110 434,-80 291,-80"/>
<text text-anchor="start" x="299" y="-98" font-family="Helvetica,sans-Serif" font-size="10.00">std::map&lt; std::string,</text>
<text text-anchor="middle" x="362.5" y="-87" font-family="Helvetica,sans-Serif" font-size="10.00"> std::string, std::less&lt;&gt; &gt;</text>
</a>
</g>
</g>
<!-- Node2&#45;&gt;Node1 -->
<g id="edge1" class="edge">
<title>Node2&#45;&gt;Node1</title>
<path fill="none" stroke="#9a32cd" stroke-dasharray="5,2" d="M444.15,-88.08C477.21,-85.24 514.53,-82.04 543.97,-79.51"/>
<polygon fill="#9a32cd" stroke="#9a32cd" points="443.7,-84.6 434.04,-88.95 444.3,-91.58 443.7,-84.6"/>
<text text-anchor="middle" x="489" y="-90" font-family="Helvetica,sans-Serif" font-size="10.00"> headers</text>
</g>
<!-- Node3 -->
<g id="node3" class="node">
<title>Node3</title>
<g id="a_node3"><a xlink:title=" ">
<polygon fill="white" stroke="black" points="141,-111.5 141,-130.5 206,-130.5 206,-111.5 141,-111.5"/>
<text text-anchor="middle" x="173.5" y="-118.5" font-family="Helvetica,sans-Serif" font-size="10.00">std::string</text>
</a>
</g>
</g>
<!-- Node3&#45;&gt;Node1 -->
<g id="edge4" class="edge">
<title>Node3&#45;&gt;Node1</title>
<path fill="none" stroke="#9a32cd" stroke-dasharray="5,2" d="M216.27,-131.86C218.87,-132.31 221.46,-132.7 224,-133 245.62,-135.58 251.24,-133.88 273,-133 386.19,-128.44 417.11,-133.25 526,-102 542.63,-97.23 560.85,-90.2 574.61,-84.51"/>
<polygon fill="#9a32cd" stroke="#9a32cd" points="216.74,-128.39 206.25,-129.87 215.38,-135.25 216.74,-128.39"/>
<text text-anchor="middle" x="362.5" y="-135" font-family="Helvetica,sans-Serif" font-size="10.00"> url</text>
</g>
<!-- Node3&#45;&gt;Node2 -->
<g id="edge2" class="edge">
<title>Node3&#45;&gt;Node2</title>
<path fill="none" stroke="#9a32cd" stroke-dasharray="5,2" d="M215.95,-112.36C218.67,-111.88 221.37,-111.42 224,-111 245.6,-107.57 269.22,-104.55 290.69,-102.09"/>
<polygon fill="#9a32cd" stroke="#9a32cd" points="215.3,-108.92 206.12,-114.2 216.59,-115.8 215.3,-108.92"/>
<text text-anchor="middle" x="248.5" y="-125" font-family="Helvetica,sans-Serif" font-size="10.00"> elements</text>
<text text-anchor="middle" x="248.5" y="-114" font-family="Helvetica,sans-Serif" font-size="10.00">keys</text>
</g>
<!-- Node4 -->
<g id="node4" class="node">
<title>Node4</title>
<g id="a_node4"><a xlink:title=" ">
<polygon fill="white" stroke="black" points="0,-106 0,-136 104,-136 104,-106 0,-106"/>
<text text-anchor="start" x="8" y="-124" font-family="Helvetica,sans-Serif" font-size="10.00">std::basic_string&lt;</text>
<text text-anchor="middle" x="52" y="-113" font-family="Helvetica,sans-Serif" font-size="10.00"> Char &gt;</text>
</a>
</g>
</g>
<!-- Node4&#45;&gt;Node3 -->
<g id="edge3" class="edge">
<title>Node4&#45;&gt;Node3</title>
<path fill="none" stroke="midnightblue" d="M114.1,-121C123.41,-121 132.68,-121 141,-121"/>
<polygon fill="midnightblue" stroke="midnightblue" points="114.03,-117.5 104.03,-121 114.03,-124.5 114.03,-117.5"/>
</g>
<!-- Node5 -->
<g id="node5" class="node">
<title>Node5</title>
<g id="a_node5"><a xlink:href="classccf_1_1RESTVerb.html" target="_top" xlink:title=" ">
<polygon fill="white" stroke="black" points="321,-41.5 321,-60.5 404,-60.5 404,-41.5 321,-41.5"/>
<text text-anchor="middle" x="362.5" y="-48.5" font-family="Helvetica,sans-Serif" font-size="10.00">ccf::RESTVerb</text>
</a>
</g>
</g>
<!-- Node5&#45;&gt;Node1 -->
<g id="edge5" class="edge">
<title>Node5&#45;&gt;Node1</title>
<path fill="none" stroke="#9a32cd" stroke-dasharray="5,2" d="M414.31,-55.23C446.37,-58.01 488.64,-61.89 526,-66 531.76,-66.63 537.79,-67.34 543.78,-68.07"/>
<polygon fill="#9a32cd" stroke="#9a32cd" points="414.54,-51.74 404.28,-54.37 413.94,-58.71 414.54,-51.74"/>
<text text-anchor="middle" x="489" y="-69" font-family="Helvetica,sans-Serif" font-size="10.00"> verb</text>
</g>
<!-- Node6 -->
<g id="node6" class="node">
<title>Node6</title>
<g id="a_node6"><a xlink:title=" ">
<polygon fill="white" stroke="black" points="300,-0.5 300,-19.5 425,-19.5 425,-0.5 300,-0.5"/>
<text text-anchor="middle" x="362.5" y="-7.5" font-family="Helvetica,sans-Serif" font-size="10.00">std::vector&lt; uint8_t &gt;</text>
</a>
</g>
</g>
<!-- Node6&#45;&gt;Node1 -->
<g id="edge6" class="edge">
<title>Node6&#45;&gt;Node1</title>
<path fill="none" stroke="#9a32cd" stroke-dasharray="5,2" d="M435.11,-13.3C463.98,-16.26 497.2,-21.78 526,-32 548.16,-39.87 570.86,-55.3 584.31,-65.38"/>
<polygon fill="#9a32cd" stroke="#9a32cd" points="435.38,-9.81 425.1,-12.35 434.73,-16.78 435.38,-9.81"/>
<text text-anchor="middle" x="489" y="-46" font-family="Helvetica,sans-Serif" font-size="10.00"> request_body</text>
<text text-anchor="middle" x="489" y="-35" font-family="Helvetica,sans-Serif" font-size="10.00">response_body</text>
</g>
</g>
</svg>
