<?xml version="1.0" encoding="UTF-8" standalone="no"?>
<!DOCTYPE svg PUBLIC "-//W3C//DTD SVG 1.1//EN"
 "http://www.w3.org/Graphics/SVG/1.1/DTD/svg11.dtd">
<!-- Generated by graphviz version 2.43.0 (0)
 -->
<!-- Title: host::CCHostConfig::Ledger Pages: 1 -->
<svg width="274pt" height="317pt"
 viewBox="0.00 0.00 274.05 317.00" xmlns="http://www.w3.org/2000/svg" xmlns:xlink="http://www.w3.org/1999/xlink">
<g id="graph0" class="graph" transform="scale(1 1) rotate(0) translate(4 313)">
<title>host::CCHostConfig::Ledger</title>
<polygon fill="white" stroke="transparent" points="-4,4 -4,-313 270.05,-313 270.05,4 -4,4"/>
<!-- Node1 -->
<g id="node1" class="node">
<title>Node1</title>
<g id="a_node1"><a xlink:title=" ">
<polygon fill="#bfbfbf" stroke="black" points="0.55,-0.5 0.55,-30.5 110.55,-30.5 110.55,-0.5 0.55,-0.5"/>
<text text-anchor="start" x="8.55" y="-18.5" font-family="Helvetica,sans-Serif" font-size="10.00">host::CCHostConfig</text>
<text text-anchor="middle" x="55.55" y="-7.5" font-family="Helvetica,sans-Serif" font-size="10.00">::Ledger</text>
</a>
</g>
</g>
<!-- Node2 -->
<g id="node2" class="node">
<title>Node2</title>
<g id="a_node2"><a xlink:title=" ">
<polygon fill="white" stroke="black" points="99.05,-221.5 99.05,-240.5 164.05,-240.5 164.05,-221.5 99.05,-221.5"/>
<text text-anchor="middle" x="131.55" y="-228.5" font-family="Helvetica,sans-Serif" font-size="10.00">std::string</text>
</a>
</g>
</g>
<!-- Node2&#45;&gt;Node1 -->
<g id="edge1" class="edge">
<title>Node2&#45;&gt;Node1</title>
<path fill="none" stroke="#9a32cd" stroke-dasharray="5,2" d="M100.81,-217.14C70.29,-202.5 25.31,-175.4 5.55,-136 -13.01,-99.01 20.94,-53.46 41.5,-30.76"/>
<polygon fill="#9a32cd" stroke="#9a32cd" points="99.61,-220.44 110.15,-221.45 102.54,-214.09 99.61,-220.44"/>
<text text-anchor="middle" x="29.05" y="-123.5" font-family="Helvetica,sans-Serif" font-size="10.00"> directory</text>
</g>
<!-- Node4 -->
<g id="node4" class="node">
<title>Node4</title>
<g id="a_node4"><a xlink:title=" ">
<polygon fill="white" stroke="black" points="61.55,-116.5 61.55,-135.5 201.55,-135.5 201.55,-116.5 61.55,-116.5"/>
<text text-anchor="middle" x="131.55" y="-123.5" font-family="Helvetica,sans-Serif" font-size="10.00">std::vector&lt; std::string &gt;</text>
</a>
</g>
</g>
<!-- Node2&#45;&gt;Node4 -->
<g id="edge4" class="edge">
<title>Node2&#45;&gt;Node4</title>
<path fill="none" stroke="#9a32cd" stroke-dasharray="5,2" d="M131.55,-210.94C131.55,-188.53 131.55,-152.31 131.55,-135.76"/>
<polygon fill="#9a32cd" stroke="#9a32cd" points="128.05,-211.22 131.55,-221.22 135.05,-211.22 128.05,-211.22"/>
<text text-anchor="middle" x="156.05" y="-195" font-family="Helvetica,sans-Serif" font-size="10.00"> elements</text>
</g>
<!-- Node6 -->
<g id="node6" class="node">
<title>Node6</title>
<g id="a_node6"><a xlink:href="structds_1_1UnitString.html" target="_top" xlink:title=" ">
<polygon fill="white" stroke="black" points="174.05,-154.5 174.05,-173.5 257.05,-173.5 257.05,-154.5 174.05,-154.5"/>
<text text-anchor="middle" x="215.55" y="-161.5" font-family="Helvetica,sans-Serif" font-size="10.00">ds::UnitString</text>
</a>
</g>
</g>
<!-- Node2&#45;&gt;Node6 -->
<g id="edge7" class="edge">
<title>Node2&#45;&gt;Node6</title>
<path fill="none" stroke="#9a32cd" stroke-dasharray="5,2" d="M162.26,-217.07C169.93,-213.13 177.86,-208.39 184.55,-203 195.02,-194.55 204.37,-182.06 210,-173.73"/>
<polygon fill="#9a32cd" stroke="#9a32cd" points="160.62,-213.98 153.14,-221.47 163.67,-220.28 160.62,-213.98"/>
<text text-anchor="middle" x="202.55" y="-195" font-family="Helvetica,sans-Serif" font-size="10.00"> str</text>
</g>
<!-- Node3 -->
<g id="node3" class="node">
<title>Node3</title>
<g id="a_node3"><a xlink:title=" ">
<polygon fill="white" stroke="black" points="79.55,-278.5 79.55,-308.5 183.55,-308.5 183.55,-278.5 79.55,-278.5"/>
<text text-anchor="start" x="87.55" y="-296.5" font-family="Helvetica,sans-Serif" font-size="10.00">std::basic_string&lt;</text>
<text text-anchor="middle" x="131.55" y="-285.5" font-family="Helvetica,sans-Serif" font-size="10.00"> Char &gt;</text>
</a>
</g>
</g>
<!-- Node3&#45;&gt;Node2 -->
<g id="edge2" class="edge">
<title>Node3&#45;&gt;Node2</title>
<path fill="none" stroke="midnightblue" d="M131.55,-268.35C131.55,-258.51 131.55,-247.78 131.55,-240.54"/>
<polygon fill="midnightblue" stroke="midnightblue" points="128.05,-268.47 131.55,-278.47 135.05,-268.47 128.05,-268.47"/>
</g>
<!-- Node4&#45;&gt;Node1 -->
<g id="edge3" class="edge">
<title>Node4&#45;&gt;Node1</title>
<path fill="none" stroke="#9a32cd" stroke-dasharray="5,2" d="M81.57,-112.14C75.01,-108.53 69.03,-103.91 64.55,-98 49.75,-78.49 50.78,-48.41 53.04,-30.76"/>
<polygon fill="#9a32cd" stroke="#9a32cd" points="80.23,-115.38 90.77,-116.46 83.21,-109.04 80.23,-115.38"/>
<text text-anchor="middle" x="119.05" y="-85.5" font-family="Helvetica,sans-Serif" font-size="10.00"> read_only_directories</text>
</g>
<!-- Node5 -->
<g id="node5" class="node">
<title>Node5</title>
<g id="a_node5"><a xlink:href="structds_1_1SizeString.html" target="_top" xlink:title=" ">
<polygon fill="white" stroke="black" points="183.05,-78.5 183.05,-97.5 266.05,-97.5 266.05,-78.5 183.05,-78.5"/>
<text text-anchor="middle" x="224.55" y="-85.5" font-family="Helvetica,sans-Serif" font-size="10.00">ds::SizeString</text>
</a>
</g>
</g>
<!-- Node5&#45;&gt;Node1 -->
<g id="edge5" class="edge">
<title>Node5&#45;&gt;Node1</title>
<path fill="none" stroke="#9a32cd" stroke-dasharray="5,2" d="M194.78,-74.58C165.21,-62.25 119.95,-43.37 89.12,-30.51"/>
<polygon fill="#9a32cd" stroke="#9a32cd" points="193.59,-77.88 204.16,-78.5 196.28,-71.42 193.59,-77.88"/>
<text text-anchor="middle" x="184.55" y="-52" font-family="Helvetica,sans-Serif" font-size="10.00"> chunk_size</text>
</g>
<!-- Node6&#45;&gt;Node5 -->
<g id="edge6" class="edge">
<title>Node6&#45;&gt;Node5</title>
<path fill="none" stroke="midnightblue" d="M217.85,-144.07C219.66,-129.18 222.1,-109.11 223.48,-97.77"/>
<polygon fill="midnightblue" stroke="midnightblue" points="214.35,-143.87 216.62,-154.22 221.3,-144.72 214.35,-143.87"/>
</g>
</g>
</svg>
