<?xml version="1.0" encoding="UTF-8" standalone="no"?>
<!DOCTYPE svg PUBLIC "-//W3C//DTD SVG 1.1//EN"
 "http://www.w3.org/Graphics/SVG/1.1/DTD/svg11.dtd">
<!-- Generated by graphviz version 2.43.0 (0)
 -->
<!-- Title: client::PerfBase&lt; TOptions &gt;::PreparedTx Pages: 1 -->
<svg width="256pt" height="195pt"
 viewBox="0.00 0.00 255.50 195.00" xmlns="http://www.w3.org/2000/svg" xmlns:xlink="http://www.w3.org/1999/xlink">
<g id="graph0" class="graph" transform="scale(1 1) rotate(0) translate(4 191)">
<title>client::PerfBase&lt; TOptions &gt;::PreparedTx</title>
<polygon fill="white" stroke="transparent" points="-4,4 -4,-191 251.5,-191 251.5,4 -4,4"/>
<!-- Node1 -->
<g id="node1" class="node">
<title>Node1</title>
<g id="a_node1"><a xlink:title=" ">
<polygon fill="#bfbfbf" stroke="black" points="51.5,-0.5 51.5,-30.5 199.5,-30.5 199.5,-0.5 51.5,-0.5"/>
<text text-anchor="start" x="59.5" y="-18.5" font-family="Helvetica,sans-Serif" font-size="10.00">client::PerfBase&lt; TOptions</text>
<text text-anchor="middle" x="125.5" y="-7.5" font-family="Helvetica,sans-Serif" font-size="10.00"> &gt;::PreparedTx</text>
</a>
</g>
</g>
<!-- Node2 -->
<g id="node2" class="node">
<title>Node2</title>
<g id="a_node2"><a xlink:href="structclient_1_1HttpRpcTlsClient_1_1PreparedRpc.html" target="_top" xlink:title=" ">
<polygon fill="white" stroke="black" points="2,-78.5 2,-108.5 133,-108.5 133,-78.5 2,-78.5"/>
<text text-anchor="start" x="10" y="-96.5" font-family="Helvetica,sans-Serif" font-size="10.00">client::HttpRpcTlsClient</text>
<text text-anchor="middle" x="67.5" y="-85.5" font-family="Helvetica,sans-Serif" font-size="10.00">::PreparedRpc</text>
</a>
</g>
</g>
<!-- Node2&#45;&gt;Node1 -->
<g id="edge1" class="edge">
<title>Node2&#45;&gt;Node1</title>
<path fill="none" stroke="#9a32cd" stroke-dasharray="5,2" d="M84.72,-69.94C94.41,-57.23 106.23,-41.75 114.64,-30.73"/>
<polygon fill="#9a32cd" stroke="#9a32cd" points="81.69,-68.13 78.41,-78.2 87.26,-72.38 81.69,-68.13"/>
<text text-anchor="middle" x="110" y="-52" font-family="Helvetica,sans-Serif" font-size="10.00"> rpc</text>
</g>
<!-- Node3 -->
<g id="node3" class="node">
<title>Node3</title>
<g id="a_node3"><a xlink:title=" ">
<polygon fill="white" stroke="black" points="0,-162 0,-181 125,-181 125,-162 0,-162"/>
<text text-anchor="middle" x="62.5" y="-169" font-family="Helvetica,sans-Serif" font-size="10.00">std::vector&lt; uint8_t &gt;</text>
</a>
</g>
</g>
<!-- Node3&#45;&gt;Node2 -->
<g id="edge2" class="edge">
<title>Node3&#45;&gt;Node2</title>
<path fill="none" stroke="#9a32cd" stroke-dasharray="5,2" d="M63.73,-151.78C64.61,-138.4 65.78,-120.69 66.58,-108.52"/>
<polygon fill="#9a32cd" stroke="#9a32cd" points="60.24,-151.57 63.07,-161.78 67.22,-152.03 60.24,-151.57"/>
<text text-anchor="middle" x="88" y="-130" font-family="Helvetica,sans-Serif" font-size="10.00"> encoded</text>
</g>
<!-- Node4 -->
<g id="node4" class="node">
<title>Node4</title>
<g id="a_node4"><a xlink:title=" ">
<polygon fill="white" stroke="black" points="159,-84 159,-103 224,-103 224,-84 159,-84"/>
<text text-anchor="middle" x="191.5" y="-91" font-family="Helvetica,sans-Serif" font-size="10.00">std::string</text>
</a>
</g>
</g>
<!-- Node4&#45;&gt;Node1 -->
<g id="edge3" class="edge">
<title>Node4&#45;&gt;Node1</title>
<path fill="none" stroke="#9a32cd" stroke-dasharray="5,2" d="M177.29,-76.14C165.49,-62.55 148.88,-43.42 137.68,-30.52"/>
<polygon fill="#9a32cd" stroke="#9a32cd" points="174.73,-78.53 183.93,-83.78 180.01,-73.94 174.73,-78.53"/>
<text text-anchor="middle" x="183" y="-52" font-family="Helvetica,sans-Serif" font-size="10.00"> method</text>
</g>
<!-- Node5 -->
<g id="node5" class="node">
<title>Node5</title>
<g id="a_node5"><a xlink:title=" ">
<polygon fill="white" stroke="black" points="143.5,-156.5 143.5,-186.5 247.5,-186.5 247.5,-156.5 143.5,-156.5"/>
<text text-anchor="start" x="151.5" y="-174.5" font-family="Helvetica,sans-Serif" font-size="10.00">std::basic_string&lt;</text>
<text text-anchor="middle" x="195.5" y="-163.5" font-family="Helvetica,sans-Serif" font-size="10.00"> Char &gt;</text>
</a>
</g>
</g>
<!-- Node5&#45;&gt;Node4 -->
<g id="edge4" class="edge">
<title>Node5&#45;&gt;Node4</title>
<path fill="none" stroke="midnightblue" d="M194.22,-146.17C193.44,-131.4 192.5,-113.45 191.95,-103.06"/>
<polygon fill="midnightblue" stroke="midnightblue" points="190.73,-146.4 194.75,-156.2 197.72,-146.03 190.73,-146.4"/>
</g>
</g>
</svg>
