<?xml version="1.0" encoding="UTF-8" standalone="no"?>
<!DOCTYPE svg PUBLIC "-//W3C//DTD SVG 1.1//EN"
 "http://www.w3.org/Graphics/SVG/1.1/DTD/svg11.dtd">
<!-- Generated by graphviz version 2.43.0 (0)
 -->
<!-- Title: logger::LogLine Pages: 1 -->
<svg width="268pt" height="367pt"
 viewBox="0.00 0.00 267.50 367.00" xmlns="http://www.w3.org/2000/svg" xmlns:xlink="http://www.w3.org/1999/xlink">
<g id="graph0" class="graph" transform="scale(1 1) rotate(0) translate(4 363)">
<title>logger::LogLine</title>
<polygon fill="white" stroke="transparent" points="-4,4 -4,-363 263.5,-363 263.5,4 -4,4"/>
<!-- Node1 -->
<g id="node1" class="node">
<title>Node1</title>
<g id="a_node1"><a xlink:title=" ">
<polygon fill="#bfbfbf" stroke="black" points="74.5,-0.5 74.5,-19.5 165.5,-19.5 165.5,-0.5 74.5,-0.5"/>
<text text-anchor="middle" x="120" y="-7.5" font-family="Helvetica,sans-Serif" font-size="10.00">logger::LogLine</text>
</a>
</g>
</g>
<!-- Node2 -->
<g id="node2" class="node">
<title>Node2</title>
<g id="a_node2"><a xlink:title=" ">
<polygon fill="white" stroke="black" points="36.5,-89.5 36.5,-108.5 101.5,-108.5 101.5,-89.5 36.5,-89.5"/>
<text text-anchor="middle" x="69" y="-96.5" font-family="Helvetica,sans-Serif" font-size="10.00">std::string</text>
</a>
</g>
</g>
<!-- Node2&#45;&gt;Node1 -->
<g id="edge1" class="edge">
<title>Node2&#45;&gt;Node1</title>
<path fill="none" stroke="#9a32cd" stroke-dasharray="5,2" d="M75.49,-79.85C80.29,-67.55 87.45,-51.2 96,-38 100.23,-31.47 105.99,-24.93 110.81,-19.93"/>
<polygon fill="#9a32cd" stroke="#9a32cd" points="72.13,-78.84 71.91,-89.44 78.69,-81.29 72.13,-78.84"/>
<text text-anchor="middle" x="122" y="-63" font-family="Helvetica,sans-Serif" font-size="10.00"> file_name</text>
<text text-anchor="middle" x="122" y="-52" font-family="Helvetica,sans-Serif" font-size="10.00">msg</text>
<text text-anchor="middle" x="122" y="-41" font-family="Helvetica,sans-Serif" font-size="10.00">tag</text>
</g>
<!-- Node3 -->
<g id="node3" class="node">
<title>Node3</title>
<g id="a_node3"><a xlink:title=" ">
<polygon fill="white" stroke="black" points="0,-146.5 0,-176.5 104,-176.5 104,-146.5 0,-146.5"/>
<text text-anchor="start" x="8" y="-164.5" font-family="Helvetica,sans-Serif" font-size="10.00">std::basic_string&lt;</text>
<text text-anchor="middle" x="52" y="-153.5" font-family="Helvetica,sans-Serif" font-size="10.00"> Char &gt;</text>
</a>
</g>
</g>
<!-- Node3&#45;&gt;Node2 -->
<g id="edge2" class="edge">
<title>Node3&#45;&gt;Node2</title>
<path fill="none" stroke="midnightblue" d="M58.7,-136.67C61.49,-126.74 64.55,-115.85 66.6,-108.54"/>
<polygon fill="midnightblue" stroke="midnightblue" points="55.28,-135.89 55.94,-146.47 62.02,-137.79 55.28,-135.89"/>
</g>
<!-- Node4 -->
<g id="node4" class="node">
<title>Node4</title>
<g id="a_node4"><a xlink:title=" ">
<polygon fill="white" stroke="black" points="129,-89.5 129,-108.5 235,-108.5 235,-89.5 129,-89.5"/>
<text text-anchor="middle" x="182" y="-96.5" font-family="Helvetica,sans-Serif" font-size="10.00">std::ostringstream</text>
</a>
</g>
</g>
<!-- Node4&#45;&gt;Node1 -->
<g id="edge3" class="edge">
<title>Node4&#45;&gt;Node1</title>
<path fill="none" stroke="#9a32cd" stroke-dasharray="5,2" d="M173.58,-80.12C167.35,-67.73 158.2,-51.16 148,-38 142.79,-31.28 135.92,-24.63 130.29,-19.61"/>
<polygon fill="#9a32cd" stroke="#9a32cd" points="170.57,-81.91 178.09,-89.37 176.86,-78.85 170.57,-81.91"/>
<text text-anchor="middle" x="175" y="-52" font-family="Helvetica,sans-Serif" font-size="10.00"> ss</text>
</g>
<!-- Node5 -->
<g id="node5" class="node">
<title>Node5</title>
<g id="a_node5"><a xlink:title=" ">
<polygon fill="white" stroke="black" points="122.5,-146.5 122.5,-176.5 259.5,-176.5 259.5,-146.5 122.5,-146.5"/>
<text text-anchor="start" x="130.5" y="-164.5" font-family="Helvetica,sans-Serif" font-size="10.00">std::basic_ostringstream</text>
<text text-anchor="middle" x="191" y="-153.5" font-family="Helvetica,sans-Serif" font-size="10.00">&lt; Char &gt;</text>
</a>
</g>
</g>
<!-- Node5&#45;&gt;Node4 -->
<g id="edge4" class="edge">
<title>Node5&#45;&gt;Node4</title>
<path fill="none" stroke="midnightblue" d="M187.41,-136.35C185.94,-126.51 184.35,-115.78 183.27,-108.54"/>
<polygon fill="midnightblue" stroke="midnightblue" points="183.98,-137.09 188.91,-146.47 190.9,-136.06 183.98,-137.09"/>
</g>
<!-- Node6 -->
<g id="node6" class="node">
<title>Node6</title>
<g id="a_node6"><a xlink:title=" ">
<polygon fill="white" stroke="black" points="136.5,-214.5 136.5,-244.5 245.5,-244.5 245.5,-214.5 136.5,-214.5"/>
<text text-anchor="start" x="144.5" y="-232.5" font-family="Helvetica,sans-Serif" font-size="10.00">std::basic_ostream</text>
<text text-anchor="middle" x="191" y="-221.5" font-family="Helvetica,sans-Serif" font-size="10.00">&lt; Char &gt;</text>
</a>
</g>
</g>
<!-- Node6&#45;&gt;Node5 -->
<g id="edge5" class="edge">
<title>Node6&#45;&gt;Node5</title>
<path fill="none" stroke="midnightblue" d="M191,-204.03C191,-194.86 191,-184.74 191,-176.79"/>
<polygon fill="midnightblue" stroke="midnightblue" points="187.5,-204.18 191,-214.18 194.5,-204.18 187.5,-204.18"/>
</g>
<!-- Node7 -->
<g id="node7" class="node">
<title>Node7</title>
<g id="a_node7"><a xlink:title=" ">
<polygon fill="white" stroke="black" points="127,-282.5 127,-301.5 255,-301.5 255,-282.5 127,-282.5"/>
<text text-anchor="middle" x="191" y="-289.5" font-family="Helvetica,sans-Serif" font-size="10.00">std::basic_ios&lt; Char &gt;</text>
</a>
</g>
</g>
<!-- Node7&#45;&gt;Node6 -->
<g id="edge6" class="edge">
<title>Node7&#45;&gt;Node6</title>
<path fill="none" stroke="midnightblue" d="M191,-272.22C191,-263.36 191,-252.96 191,-244.76"/>
<polygon fill="midnightblue" stroke="midnightblue" points="187.5,-272.33 191,-282.33 194.5,-272.33 187.5,-272.33"/>
</g>
<!-- Node8 -->
<g id="node8" class="node">
<title>Node8</title>
<g id="a_node8"><a xlink:title=" ">
<polygon fill="white" stroke="black" points="151,-339.5 151,-358.5 231,-358.5 231,-339.5 151,-339.5"/>
<text text-anchor="middle" x="191" y="-346.5" font-family="Helvetica,sans-Serif" font-size="10.00">std::ios_base</text>
</a>
</g>
</g>
<!-- Node8&#45;&gt;Node7 -->
<g id="edge7" class="edge">
<title>Node8&#45;&gt;Node7</title>
<path fill="none" stroke="midnightblue" d="M191,-329.12C191,-319.82 191,-309.06 191,-301.71"/>
<polygon fill="midnightblue" stroke="midnightblue" points="187.5,-329.41 191,-339.41 194.5,-329.41 187.5,-329.41"/>
</g>
</g>
</svg>
