<?xml version="1.0" encoding="UTF-8" standalone="no"?>
<!DOCTYPE svg PUBLIC "-//W3C//DTD SVG 1.1//EN"
 "http://www.w3.org/Graphics/SVG/1.1/DTD/svg11.dtd">
<!-- Generated by graphviz version 2.43.0 (0)
 -->
<!-- Title: tpcc::District Pages: 1 -->
<svg width="305pt" height="235pt"
 viewBox="0.00 0.00 305.00 235.00" xmlns="http://www.w3.org/2000/svg" xmlns:xlink="http://www.w3.org/1999/xlink">
<g id="graph0" class="graph" transform="scale(1 1) rotate(0) translate(4 231)">
<title>tpcc::District</title>
<polygon fill="white" stroke="transparent" points="-4,4 -4,-231 301,-231 301,4 -4,4"/>
<!-- Node1 -->
<g id="node1" class="node">
<title>Node1</title>
<g id="a_node1"><a xlink:title=" ">
<polygon fill="#bfbfbf" stroke="black" points="219,-104 219,-123 297,-123 297,-104 219,-104"/>
<text text-anchor="middle" x="258" y="-111" font-family="Helvetica,sans-Serif" font-size="10.00">tpcc::District</text>
</a>
</g>
</g>
<!-- Node2 -->
<g id="node2" class="node">
<title>Node2</title>
<g id="a_node2"><a xlink:title=" ">
<polygon fill="white" stroke="black" points="8,-196.5 8,-226.5 132,-226.5 132,-196.5 8,-196.5"/>
<text text-anchor="start" x="16" y="-214.5" font-family="Helvetica,sans-Serif" font-size="10.00">std::array&lt; char, MAX</text>
<text text-anchor="middle" x="70" y="-203.5" font-family="Helvetica,sans-Serif" font-size="10.00">_NAME+1 &gt;</text>
</a>
</g>
</g>
<!-- Node2&#45;&gt;Node1 -->
<g id="edge1" class="edge">
<title>Node2&#45;&gt;Node1</title>
<path fill="none" stroke="#9a32cd" stroke-dasharray="5,2" d="M139.29,-193.25C159.93,-186.2 182.12,-177.01 201,-165.5 220.26,-153.76 238.64,-134.68 248.81,-123.19"/>
<polygon fill="#9a32cd" stroke="#9a32cd" points="138.02,-189.98 129.62,-196.44 140.21,-196.63 138.02,-189.98"/>
<text text-anchor="middle" x="179.5" y="-187.5" font-family="Helvetica,sans-Serif" font-size="10.00"> name</text>
</g>
<!-- Node3 -->
<g id="node3" class="node">
<title>Node3</title>
<g id="a_node3"><a xlink:title=" ">
<polygon fill="white" stroke="black" points="0,-147.5 0,-177.5 140,-177.5 140,-147.5 0,-147.5"/>
<text text-anchor="start" x="8" y="-165.5" font-family="Helvetica,sans-Serif" font-size="10.00">std::array&lt; char, Address</text>
<text text-anchor="middle" x="70" y="-154.5" font-family="Helvetica,sans-Serif" font-size="10.00">::MAX_STREET+1 &gt;</text>
</a>
</g>
</g>
<!-- Node3&#45;&gt;Node1 -->
<g id="edge2" class="edge">
<title>Node3&#45;&gt;Node1</title>
<path fill="none" stroke="#9a32cd" stroke-dasharray="5,2" d="M138.62,-144.89C158.71,-139.64 180.75,-133.86 201,-128.5 207.62,-126.75 214.67,-124.87 221.46,-123.05"/>
<polygon fill="#9a32cd" stroke="#9a32cd" points="137.73,-141.51 128.94,-147.43 139.5,-148.28 137.73,-141.51"/>
<text text-anchor="middle" x="179.5" y="-153.5" font-family="Helvetica,sans-Serif" font-size="10.00"> street_1</text>
<text text-anchor="middle" x="179.5" y="-142.5" font-family="Helvetica,sans-Serif" font-size="10.00">street_2</text>
</g>
<!-- Node4 -->
<g id="node4" class="node">
<title>Node4</title>
<g id="a_node4"><a xlink:title=" ">
<polygon fill="white" stroke="black" points="0,-98.5 0,-128.5 140,-128.5 140,-98.5 0,-98.5"/>
<text text-anchor="start" x="8" y="-116.5" font-family="Helvetica,sans-Serif" font-size="10.00">std::array&lt; char, Address</text>
<text text-anchor="middle" x="70" y="-105.5" font-family="Helvetica,sans-Serif" font-size="10.00">::MAX_CITY+1 &gt;</text>
</a>
</g>
</g>
<!-- Node4&#45;&gt;Node1 -->
<g id="edge3" class="edge">
<title>Node4&#45;&gt;Node1</title>
<path fill="none" stroke="#9a32cd" stroke-dasharray="5,2" d="M150.36,-113.5C174.16,-113.5 199.17,-113.5 218.99,-113.5"/>
<polygon fill="#9a32cd" stroke="#9a32cd" points="150.26,-110 140.26,-113.5 150.26,-117 150.26,-110"/>
<text text-anchor="middle" x="179.5" y="-116.5" font-family="Helvetica,sans-Serif" font-size="10.00"> city</text>
</g>
<!-- Node5 -->
<g id="node5" class="node">
<title>Node5</title>
<g id="a_node5"><a xlink:title=" ">
<polygon fill="white" stroke="black" points="0,-49.5 0,-79.5 140,-79.5 140,-49.5 0,-49.5"/>
<text text-anchor="start" x="8" y="-67.5" font-family="Helvetica,sans-Serif" font-size="10.00">std::array&lt; char, Address</text>
<text text-anchor="middle" x="70" y="-56.5" font-family="Helvetica,sans-Serif" font-size="10.00">::STATE+1 &gt;</text>
</a>
</g>
</g>
<!-- Node5&#45;&gt;Node1 -->
<g id="edge4" class="edge">
<title>Node5&#45;&gt;Node1</title>
<path fill="none" stroke="#9a32cd" stroke-dasharray="5,2" d="M138.62,-82.11C158.71,-87.36 180.75,-93.14 201,-98.5 207.62,-100.25 214.67,-102.13 221.46,-103.95"/>
<polygon fill="#9a32cd" stroke="#9a32cd" points="139.5,-78.72 128.94,-79.57 137.73,-85.49 139.5,-78.72"/>
<text text-anchor="middle" x="179.5" y="-101.5" font-family="Helvetica,sans-Serif" font-size="10.00"> state</text>
</g>
<!-- Node6 -->
<g id="node6" class="node">
<title>Node6</title>
<g id="a_node6"><a xlink:title=" ">
<polygon fill="white" stroke="black" points="0,-0.5 0,-30.5 140,-30.5 140,-0.5 0,-0.5"/>
<text text-anchor="start" x="8" y="-18.5" font-family="Helvetica,sans-Serif" font-size="10.00">std::array&lt; char, Address</text>
<text text-anchor="middle" x="70" y="-7.5" font-family="Helvetica,sans-Serif" font-size="10.00">::ZIP+1 &gt;</text>
</a>
</g>
</g>
<!-- Node6&#45;&gt;Node1 -->
<g id="edge5" class="edge">
<title>Node6&#45;&gt;Node1</title>
<path fill="none" stroke="#9a32cd" stroke-dasharray="5,2" d="M124.56,-34.17C129.81,-36.22 135.03,-38.35 140,-40.5 167.9,-52.59 175.18,-55.43 201,-71.5 217.09,-81.52 234.37,-94.92 245.41,-103.87"/>
<polygon fill="#9a32cd" stroke="#9a32cd" points="125.71,-30.86 115.12,-30.57 123.22,-37.4 125.71,-30.86"/>
<text text-anchor="middle" x="179.5" y="-74.5" font-family="Helvetica,sans-Serif" font-size="10.00"> zip</text>
</g>
</g>
</svg>
