<?xml version="1.0" encoding="UTF-8" standalone="no"?>
<!DOCTYPE svg PUBLIC "-//W3C//DTD SVG 1.1//EN"
 "http://www.w3.org/Graphics/SVG/1.1/DTD/svg11.dtd">
<!-- Generated by graphviz version 2.43.0 (0)
 -->
<!-- Title: tpcc::Warehouse Pages: 1 -->
<svg width="321pt" height="189pt"
 viewBox="0.00 0.00 321.00 189.00" xmlns="http://www.w3.org/2000/svg" xmlns:xlink="http://www.w3.org/1999/xlink">
<g id="graph0" class="graph" transform="scale(1 1) rotate(0) translate(4 185)">
<title>tpcc::Warehouse</title>
<polygon fill="white" stroke="transparent" points="-4,4 -4,-185 317,-185 317,4 -4,4"/>
<!-- Node1 -->
<g id="node1" class="node">
<title>Node1</title>
<g id="a_node1"><a xlink:title=" ">
<polygon fill="#bfbfbf" stroke="black" points="216,-77 216,-96 313,-96 313,-77 216,-77"/>
<text text-anchor="middle" x="264.5" y="-84" font-family="Helvetica,sans-Serif" font-size="10.00">tpcc::Warehouse</text>
</a>
</g>
</g>
<!-- Node2 -->
<g id="node2" class="node">
<title>Node2</title>
<g id="a_node2"><a xlink:title=" ">
<polygon fill="white" stroke="black" points="8,-150.5 8,-180.5 132,-180.5 132,-150.5 8,-150.5"/>
<text text-anchor="start" x="16" y="-168.5" font-family="Helvetica,sans-Serif" font-size="10.00">std::array&lt; char, MAX</text>
<text text-anchor="middle" x="70" y="-157.5" font-family="Helvetica,sans-Serif" font-size="10.00">_NAME+1 &gt;</text>
</a>
</g>
</g>
<!-- Node2&#45;&gt;Node1 -->
<g id="edge1" class="edge">
<title>Node2&#45;&gt;Node1</title>
<path fill="none" stroke="#9a32cd" stroke-dasharray="5,2" d="M142.2,-155.6C160.9,-151.46 180.68,-145.64 198,-137.5 220.17,-127.08 241.78,-108.01 253.8,-96.37"/>
<polygon fill="#9a32cd" stroke="#9a32cd" points="141.32,-152.21 132.24,-157.68 142.74,-159.06 141.32,-152.21"/>
<text text-anchor="middle" x="178" y="-153.5" font-family="Helvetica,sans-Serif" font-size="10.00"> name</text>
</g>
<!-- Node3 -->
<g id="node3" class="node">
<title>Node3</title>
<g id="a_node3"><a xlink:title=" ">
<polygon fill="white" stroke="black" points="0,-98.5 0,-128.5 140,-128.5 140,-98.5 0,-98.5"/>
<text text-anchor="start" x="8" y="-116.5" font-family="Helvetica,sans-Serif" font-size="10.00">std::array&lt; char, Address</text>
<text text-anchor="middle" x="70" y="-105.5" font-family="Helvetica,sans-Serif" font-size="10.00">::MAX_STREET+1 &gt;</text>
</a>
</g>
</g>
<!-- Node3&#45;&gt;Node1 -->
<g id="edge2" class="edge">
<title>Node3&#45;&gt;Node1</title>
<path fill="none" stroke="#9a32cd" stroke-dasharray="5,2" d="M150.36,-102.37C172.63,-99.24 196.16,-95.95 215.95,-93.17"/>
<polygon fill="#9a32cd" stroke="#9a32cd" points="149.64,-98.94 140.22,-103.79 150.61,-105.87 149.64,-98.94"/>
<text text-anchor="middle" x="178" y="-125.5" font-family="Helvetica,sans-Serif" font-size="10.00"> city</text>
<text text-anchor="middle" x="178" y="-114.5" font-family="Helvetica,sans-Serif" font-size="10.00">street_1</text>
<text text-anchor="middle" x="178" y="-103.5" font-family="Helvetica,sans-Serif" font-size="10.00">street_2</text>
</g>
<!-- Node4 -->
<g id="node4" class="node">
<title>Node4</title>
<g id="a_node4"><a xlink:title=" ">
<polygon fill="white" stroke="black" points="0,-49.5 0,-79.5 140,-79.5 140,-49.5 0,-49.5"/>
<text text-anchor="start" x="8" y="-67.5" font-family="Helvetica,sans-Serif" font-size="10.00">std::array&lt; char, Address</text>
<text text-anchor="middle" x="70" y="-56.5" font-family="Helvetica,sans-Serif" font-size="10.00">::STATE+1 &gt;</text>
</a>
</g>
</g>
<!-- Node4&#45;&gt;Node1 -->
<g id="edge3" class="edge">
<title>Node4&#45;&gt;Node1</title>
<path fill="none" stroke="#9a32cd" stroke-dasharray="5,2" d="M150.53,-71.31C166.28,-72.86 182.67,-74.61 198,-76.5 203.82,-77.22 209.92,-78.05 215.96,-78.92"/>
<polygon fill="#9a32cd" stroke="#9a32cd" points="150.58,-67.8 140.29,-70.32 149.9,-74.77 150.58,-67.8"/>
<text text-anchor="middle" x="178" y="-79.5" font-family="Helvetica,sans-Serif" font-size="10.00"> state</text>
</g>
<!-- Node5 -->
<g id="node5" class="node">
<title>Node5</title>
<g id="a_node5"><a xlink:title=" ">
<polygon fill="white" stroke="black" points="0,-0.5 0,-30.5 140,-30.5 140,-0.5 0,-0.5"/>
<text text-anchor="start" x="8" y="-18.5" font-family="Helvetica,sans-Serif" font-size="10.00">std::array&lt; char, Address</text>
<text text-anchor="middle" x="70" y="-7.5" font-family="Helvetica,sans-Serif" font-size="10.00">::ZIP+1 &gt;</text>
</a>
</g>
</g>
<!-- Node5&#45;&gt;Node1 -->
<g id="edge4" class="edge">
<title>Node5&#45;&gt;Node1</title>
<path fill="none" stroke="#9a32cd" stroke-dasharray="5,2" d="M131.97,-33.59C153.07,-40.27 176.75,-48.24 198,-56.5 213.85,-62.67 231.35,-70.75 244.27,-76.97"/>
<polygon fill="#9a32cd" stroke="#9a32cd" points="132.74,-30.16 122.15,-30.51 130.65,-36.84 132.74,-30.16"/>
<text text-anchor="middle" x="178" y="-59.5" font-family="Helvetica,sans-Serif" font-size="10.00"> zip</text>
</g>
</g>
</svg>
