<?xml version="1.0" encoding="UTF-8" standalone="no"?>
<!DOCTYPE svg PUBLIC "-//W3C//DTD SVG 1.1//EN"
 "http://www.w3.org/Graphics/SVG/1.1/DTD/svg11.dtd">
<!-- Generated by graphviz version 2.43.0 (0)
 -->
<!-- Title: tpcc::Customer Pages: 1 -->
<svg width="342pt" height="499pt"
 viewBox="0.00 0.00 342.00 499.00" xmlns="http://www.w3.org/2000/svg" xmlns:xlink="http://www.w3.org/1999/xlink">
<g id="graph0" class="graph" transform="scale(1 1) rotate(0) translate(4 495)">
<title>tpcc::Customer</title>
<polygon fill="white" stroke="transparent" points="-4,4 -4,-495 338,-495 338,4 -4,4"/>
<!-- Node1 -->
<g id="node1" class="node">
<title>Node1</title>
<g id="a_node1"><a xlink:title=" ">
<polygon fill="#bfbfbf" stroke="black" points="244,-231 244,-250 334,-250 334,-231 244,-231"/>
<text text-anchor="middle" x="289" y="-238" font-family="Helvetica,sans-Serif" font-size="10.00">tpcc::Customer</text>
</a>
</g>
</g>
<!-- Node2 -->
<g id="node2" class="node">
<title>Node2</title>
<g id="a_node2"><a xlink:title=" ">
<polygon fill="white" stroke="black" points="20.5,-460.5 20.5,-490.5 144.5,-490.5 144.5,-460.5 20.5,-460.5"/>
<text text-anchor="start" x="28.5" y="-478.5" font-family="Helvetica,sans-Serif" font-size="10.00">std::array&lt; char, MAX</text>
<text text-anchor="middle" x="82.5" y="-467.5" font-family="Helvetica,sans-Serif" font-size="10.00">_FIRST+1 &gt;</text>
</a>
</g>
</g>
<!-- Node2&#45;&gt;Node1 -->
<g id="edge1" class="edge">
<title>Node2&#45;&gt;Node1</title>
<path fill="none" stroke="#9a32cd" stroke-dasharray="5,2" d="M154.55,-462.01C180.35,-453.76 207.65,-440.55 226,-419.5 271.6,-367.19 284.15,-279.51 287.15,-250.3"/>
<polygon fill="#9a32cd" stroke="#9a32cd" points="153.33,-458.72 144.75,-464.94 155.34,-465.43 153.33,-458.72"/>
<text text-anchor="middle" x="204.5" y="-453.5" font-family="Helvetica,sans-Serif" font-size="10.00"> first</text>
</g>
<!-- Node3 -->
<g id="node3" class="node">
<title>Node3</title>
<g id="a_node3"><a xlink:title=" ">
<polygon fill="white" stroke="black" points="0,-422 0,-441 165,-441 165,-422 0,-422"/>
<text text-anchor="middle" x="82.5" y="-429" font-family="Helvetica,sans-Serif" font-size="10.00">std::array&lt; char, MIDDLE+1 &gt;</text>
</a>
</g>
</g>
<!-- Node3&#45;&gt;Node1 -->
<g id="edge2" class="edge">
<title>Node3&#45;&gt;Node1</title>
<path fill="none" stroke="#9a32cd" stroke-dasharray="5,2" d="M146.53,-419.17C152.87,-417.23 159.13,-415.02 165,-412.5 194.8,-399.73 204.75,-396.99 226,-372.5 259.69,-333.68 278.93,-273.43 285.46,-250.14"/>
<polygon fill="#9a32cd" stroke="#9a32cd" points="145.21,-415.9 136.54,-421.99 147.12,-422.64 145.21,-415.9"/>
<text text-anchor="middle" x="204.5" y="-407.5" font-family="Helvetica,sans-Serif" font-size="10.00"> middle</text>
</g>
<!-- Node4 -->
<g id="node4" class="node">
<title>Node4</title>
<g id="a_node4"><a xlink:title=" ">
<polygon fill="white" stroke="black" points="20.5,-372.5 20.5,-402.5 144.5,-402.5 144.5,-372.5 20.5,-372.5"/>
<text text-anchor="start" x="28.5" y="-390.5" font-family="Helvetica,sans-Serif" font-size="10.00">std::array&lt; char, MAX</text>
<text text-anchor="middle" x="82.5" y="-379.5" font-family="Helvetica,sans-Serif" font-size="10.00">_LAST+1 &gt;</text>
</a>
</g>
</g>
<!-- Node4&#45;&gt;Node1 -->
<g id="edge3" class="edge">
<title>Node4&#45;&gt;Node1</title>
<path fill="none" stroke="#9a32cd" stroke-dasharray="5,2" d="M154.53,-370.55C179.27,-361.98 205.85,-349.45 226,-331.5 253.4,-307.08 274.58,-268.1 283.45,-250.14"/>
<polygon fill="#9a32cd" stroke="#9a32cd" points="153.2,-367.3 144.8,-373.76 155.39,-373.95 153.2,-367.3"/>
<text text-anchor="middle" x="204.5" y="-360.5" font-family="Helvetica,sans-Serif" font-size="10.00"> last</text>
</g>
<!-- Node5 -->
<g id="node5" class="node">
<title>Node5</title>
<g id="a_node5"><a xlink:title=" ">
<polygon fill="white" stroke="black" points="12.5,-323.5 12.5,-353.5 152.5,-353.5 152.5,-323.5 12.5,-323.5"/>
<text text-anchor="start" x="20.5" y="-341.5" font-family="Helvetica,sans-Serif" font-size="10.00">std::array&lt; char, Address</text>
<text text-anchor="middle" x="82.5" y="-330.5" font-family="Helvetica,sans-Serif" font-size="10.00">::MAX_STREET+1 &gt;</text>
</a>
</g>
</g>
<!-- Node5&#45;&gt;Node1 -->
<g id="edge4" class="edge">
<title>Node5&#45;&gt;Node1</title>
<path fill="none" stroke="#9a32cd" stroke-dasharray="5,2" d="M150.61,-320.12C155.53,-318.35 160.37,-316.48 165,-314.5 193.74,-302.22 199.21,-295.6 226,-279.5 242.24,-269.74 260.58,-258.13 273.07,-250.13"/>
<polygon fill="#9a32cd" stroke="#9a32cd" points="149.42,-316.83 141.1,-323.38 151.69,-323.45 149.42,-316.83"/>
<text text-anchor="middle" x="204.5" y="-319.5" font-family="Helvetica,sans-Serif" font-size="10.00"> street_1</text>
<text text-anchor="middle" x="204.5" y="-308.5" font-family="Helvetica,sans-Serif" font-size="10.00">street_2</text>
</g>
<!-- Node6 -->
<g id="node6" class="node">
<title>Node6</title>
<g id="a_node6"><a xlink:title=" ">
<polygon fill="white" stroke="black" points="12.5,-274.5 12.5,-304.5 152.5,-304.5 152.5,-274.5 12.5,-274.5"/>
<text text-anchor="start" x="20.5" y="-292.5" font-family="Helvetica,sans-Serif" font-size="10.00">std::array&lt; char, Address</text>
<text text-anchor="middle" x="82.5" y="-281.5" font-family="Helvetica,sans-Serif" font-size="10.00">::MAX_CITY+1 &gt;</text>
</a>
</g>
</g>
<!-- Node6&#45;&gt;Node1 -->
<g id="edge5" class="edge">
<title>Node6&#45;&gt;Node1</title>
<path fill="none" stroke="#9a32cd" stroke-dasharray="5,2" d="M156.4,-272.15C178.73,-266.83 203.38,-260.93 226,-255.5 233.32,-253.74 241.13,-251.86 248.65,-250.04"/>
<polygon fill="#9a32cd" stroke="#9a32cd" points="155.56,-268.76 146.64,-274.48 157.18,-275.56 155.56,-268.76"/>
<text text-anchor="middle" x="204.5" y="-267.5" font-family="Helvetica,sans-Serif" font-size="10.00"> city</text>
</g>
<!-- Node7 -->
<g id="node7" class="node">
<title>Node7</title>
<g id="a_node7"><a xlink:title=" ">
<polygon fill="white" stroke="black" points="12.5,-225.5 12.5,-255.5 152.5,-255.5 152.5,-225.5 12.5,-225.5"/>
<text text-anchor="start" x="20.5" y="-243.5" font-family="Helvetica,sans-Serif" font-size="10.00">std::array&lt; char, Address</text>
<text text-anchor="middle" x="82.5" y="-232.5" font-family="Helvetica,sans-Serif" font-size="10.00">::STATE+1 &gt;</text>
</a>
</g>
</g>
<!-- Node7&#45;&gt;Node1 -->
<g id="edge6" class="edge">
<title>Node7&#45;&gt;Node1</title>
<path fill="none" stroke="#9a32cd" stroke-dasharray="5,2" d="M162.76,-240.5C190.29,-240.5 220.18,-240.5 243.85,-240.5"/>
<polygon fill="#9a32cd" stroke="#9a32cd" points="162.73,-237 152.73,-240.5 162.73,-244 162.73,-237"/>
<text text-anchor="middle" x="204.5" y="-243.5" font-family="Helvetica,sans-Serif" font-size="10.00"> state</text>
</g>
<!-- Node8 -->
<g id="node8" class="node">
<title>Node8</title>
<g id="a_node8"><a xlink:title=" ">
<polygon fill="white" stroke="black" points="12.5,-176.5 12.5,-206.5 152.5,-206.5 152.5,-176.5 12.5,-176.5"/>
<text text-anchor="start" x="20.5" y="-194.5" font-family="Helvetica,sans-Serif" font-size="10.00">std::array&lt; char, Address</text>
<text text-anchor="middle" x="82.5" y="-183.5" font-family="Helvetica,sans-Serif" font-size="10.00">::ZIP+1 &gt;</text>
</a>
</g>
</g>
<!-- Node8&#45;&gt;Node1 -->
<g id="edge7" class="edge">
<title>Node8&#45;&gt;Node1</title>
<path fill="none" stroke="#9a32cd" stroke-dasharray="5,2" d="M156.4,-208.85C178.73,-214.17 203.38,-220.07 226,-225.5 233.32,-227.26 241.13,-229.14 248.65,-230.96"/>
<polygon fill="#9a32cd" stroke="#9a32cd" points="157.18,-205.44 146.64,-206.52 155.56,-212.24 157.18,-205.44"/>
<text text-anchor="middle" x="204.5" y="-228.5" font-family="Helvetica,sans-Serif" font-size="10.00"> zip</text>
</g>
<!-- Node9 -->
<g id="node9" class="node">
<title>Node9</title>
<g id="a_node9"><a xlink:title=" ">
<polygon fill="white" stroke="black" points="2,-138 2,-157 163,-157 163,-138 2,-138"/>
<text text-anchor="middle" x="82.5" y="-145" font-family="Helvetica,sans-Serif" font-size="10.00">std::array&lt; char, PHONE+1 &gt;</text>
</a>
</g>
</g>
<!-- Node9&#45;&gt;Node1 -->
<g id="edge8" class="edge">
<title>Node9&#45;&gt;Node1</title>
<path fill="none" stroke="#9a32cd" stroke-dasharray="5,2" d="M141,-159.65C149.16,-161.94 157.37,-164.55 165,-167.5 193.76,-178.6 199.47,-184.8 226,-200.5 242.76,-210.42 261.47,-222.66 273.91,-230.97"/>
<polygon fill="#9a32cd" stroke="#9a32cd" points="141.67,-156.21 131.11,-157.02 139.87,-162.97 141.67,-156.21"/>
<text text-anchor="middle" x="204.5" y="-203.5" font-family="Helvetica,sans-Serif" font-size="10.00"> phone</text>
</g>
<!-- Node10 -->
<g id="node10" class="node">
<title>Node10</title>
<g id="a_node10"><a xlink:title=" ">
<polygon fill="white" stroke="black" points="7,-88.5 7,-118.5 158,-118.5 158,-88.5 7,-88.5"/>
<text text-anchor="start" x="15" y="-106.5" font-family="Helvetica,sans-Serif" font-size="10.00">std::array&lt; char, DATETIME</text>
<text text-anchor="middle" x="82.5" y="-95.5" font-family="Helvetica,sans-Serif" font-size="10.00">_SIZE+1 &gt;</text>
</a>
</g>
</g>
<!-- Node10&#45;&gt;Node1 -->
<g id="edge9" class="edge">
<title>Node10&#45;&gt;Node1</title>
<path fill="none" stroke="#9a32cd" stroke-dasharray="5,2" d="M155.49,-121.78C179.71,-130.41 205.7,-142.62 226,-159.5 251.6,-180.79 273.03,-214.49 282.62,-230.9"/>
<polygon fill="#9a32cd" stroke="#9a32cd" points="156.55,-118.45 145.96,-118.53 154.29,-125.07 156.55,-118.45"/>
<text text-anchor="middle" x="204.5" y="-162.5" font-family="Helvetica,sans-Serif" font-size="10.00"> since</text>
</g>
<!-- Node11 -->
<g id="node11" class="node">
<title>Node11</title>
<g id="a_node11"><a xlink:title=" ">
<polygon fill="white" stroke="black" points="1,-50 1,-69 164,-69 164,-50 1,-50"/>
<text text-anchor="middle" x="82.5" y="-57" font-family="Helvetica,sans-Serif" font-size="10.00">std::array&lt; char, CREDIT+1 &gt;</text>
</a>
</g>
</g>
<!-- Node11&#45;&gt;Node1 -->
<g id="edge10" class="edge">
<title>Node11&#45;&gt;Node1</title>
<path fill="none" stroke="#9a32cd" stroke-dasharray="5,2" d="M145.14,-71.78C173.25,-80.29 204.89,-94.39 226,-117.5 258.42,-152.99 278.15,-208.57 285.13,-230.82"/>
<polygon fill="#9a32cd" stroke="#9a32cd" points="145.94,-68.37 135.36,-69 144.03,-75.11 145.94,-68.37"/>
<text text-anchor="middle" x="204.5" y="-120.5" font-family="Helvetica,sans-Serif" font-size="10.00"> credit</text>
</g>
<!-- Node12 -->
<g id="node12" class="node">
<title>Node12</title>
<g id="a_node12"><a xlink:title=" ">
<polygon fill="white" stroke="black" points="20.5,-0.5 20.5,-30.5 144.5,-30.5 144.5,-0.5 20.5,-0.5"/>
<text text-anchor="start" x="28.5" y="-18.5" font-family="Helvetica,sans-Serif" font-size="10.00">std::array&lt; char, MAX</text>
<text text-anchor="middle" x="82.5" y="-7.5" font-family="Helvetica,sans-Serif" font-size="10.00">_DATA+1 &gt;</text>
</a>
</g>
</g>
<!-- Node12&#45;&gt;Node1 -->
<g id="edge11" class="edge">
<title>Node12&#45;&gt;Node1</title>
<path fill="none" stroke="#9a32cd" stroke-dasharray="5,2" d="M154.42,-29.64C180.21,-38.09 207.53,-51.46 226,-72.5 269.08,-121.56 283.2,-203.18 286.89,-230.93"/>
<polygon fill="#9a32cd" stroke="#9a32cd" points="155.22,-26.22 144.64,-26.63 153.17,-32.91 155.22,-26.22"/>
<text text-anchor="middle" x="204.5" y="-75.5" font-family="Helvetica,sans-Serif" font-size="10.00"> data</text>
</g>
</g>
</svg>
