<?xml version="1.0" encoding="UTF-8" standalone="no"?>
<!DOCTYPE svg PUBLIC "-//W3C//DTD SVG 1.1//EN"
 "http://www.w3.org/Graphics/SVG/1.1/DTD/svg11.dtd">
<!-- Generated by graphviz version 2.43.0 (0)
 -->
<!-- Title: ccf::LedgerSecret Pages: 1 -->
<svg width="282pt" height="173pt"
 viewBox="0.00 0.00 282.00 173.00" xmlns="http://www.w3.org/2000/svg" xmlns:xlink="http://www.w3.org/1999/xlink">
<g id="graph0" class="graph" transform="scale(1 1) rotate(0) translate(4 169)">
<title>ccf::LedgerSecret</title>
<polygon fill="white" stroke="transparent" points="-4,4 -4,-169 278,-169 278,4 -4,4"/>
<!-- Node1 -->
<g id="node1" class="node">
<title>Node1</title>
<g id="a_node1"><a xlink:title=" ">
<polygon fill="#bfbfbf" stroke="black" points="65.5,-0.5 65.5,-19.5 165.5,-19.5 165.5,-0.5 65.5,-0.5"/>
<text text-anchor="middle" x="115.5" y="-7.5" font-family="Helvetica,sans-Serif" font-size="10.00">ccf::LedgerSecret</text>
</a>
</g>
</g>
<!-- Node2 -->
<g id="node2" class="node">
<title>Node2</title>
<g id="a_node2"><a xlink:title=" ">
<polygon fill="white" stroke="black" points="0,-73 0,-92 125,-92 125,-73 0,-73"/>
<text text-anchor="middle" x="62.5" y="-80" font-family="Helvetica,sans-Serif" font-size="10.00">std::vector&lt; uint8_t &gt;</text>
</a>
</g>
</g>
<!-- Node2&#45;&gt;Node1 -->
<g id="edge1" class="edge">
<title>Node2&#45;&gt;Node1</title>
<path fill="none" stroke="#9a32cd" stroke-dasharray="5,2" d="M75.28,-64.5C85.9,-50.37 100.58,-30.85 108.95,-19.72"/>
<polygon fill="#9a32cd" stroke="#9a32cd" points="72.21,-62.76 69,-72.86 77.81,-66.97 72.21,-62.76"/>
<text text-anchor="middle" x="115.5" y="-41" font-family="Helvetica,sans-Serif" font-size="10.00"> raw_key</text>
</g>
<!-- Node3 -->
<g id="node3" class="node">
<title>Node3</title>
<g id="a_node3"><a xlink:title=" ">
<polygon fill="white" stroke="black" points="143,-67.5 143,-97.5 274,-97.5 274,-67.5 143,-67.5"/>
<text text-anchor="start" x="151" y="-85.5" font-family="Helvetica,sans-Serif" font-size="10.00">std::shared_ptr&lt; crypto</text>
<text text-anchor="middle" x="208.5" y="-74.5" font-family="Helvetica,sans-Serif" font-size="10.00">::KeyAesGcm &gt;</text>
</a>
</g>
</g>
<!-- Node3&#45;&gt;Node1 -->
<g id="edge2" class="edge">
<title>Node3&#45;&gt;Node1</title>
<path fill="none" stroke="#9a32cd" stroke-dasharray="5,2" d="M181.25,-60.84C163.19,-47.15 140.42,-29.89 126.96,-19.69"/>
<polygon fill="#9a32cd" stroke="#9a32cd" points="179.6,-63.98 189.68,-67.23 183.83,-58.4 179.6,-63.98"/>
<text text-anchor="middle" x="175" y="-41" font-family="Helvetica,sans-Serif" font-size="10.00"> key</text>
</g>
<!-- Node4 -->
<g id="node4" class="node">
<title>Node4</title>
<g id="a_node4"><a xlink:href="classcrypto_1_1KeyAesGcm.html" target="_top" xlink:title=" ">
<polygon fill="white" stroke="black" points="152.5,-145.5 152.5,-164.5 264.5,-164.5 264.5,-145.5 152.5,-145.5"/>
<text text-anchor="middle" x="208.5" y="-152.5" font-family="Helvetica,sans-Serif" font-size="10.00">crypto::KeyAesGcm</text>
</a>
</g>
</g>
<!-- Node4&#45;&gt;Node3 -->
<g id="edge3" class="edge">
<title>Node4&#45;&gt;Node3</title>
<path fill="none" stroke="#9a32cd" stroke-dasharray="5,2" d="M208.5,-135.24C208.5,-123.41 208.5,-108.38 208.5,-97.58"/>
<polygon fill="#9a32cd" stroke="#9a32cd" points="205,-135.36 208.5,-145.36 212,-135.36 205,-135.36"/>
<text text-anchor="middle" x="217" y="-119" font-family="Helvetica,sans-Serif" font-size="10.00"> ptr</text>
</g>
</g>
</svg>
