<?xml version="1.0" encoding="UTF-8" standalone="no"?>
<!DOCTYPE svg PUBLIC "-//W3C//DTD SVG 1.1//EN"
 "http://www.w3.org/Graphics/SVG/1.1/DTD/svg11.dtd">
<!-- Generated by graphviz version 2.43.0 (0)
 -->
<!-- Title: ccf::js::HistoricalStateContext Pages: 1 -->
<svg width="2238pt" height="422pt"
 viewBox="0.00 0.00 2238.00 422.00" xmlns="http://www.w3.org/2000/svg" xmlns:xlink="http://www.w3.org/1999/xlink">
<g id="graph0" class="graph" transform="scale(1 1) rotate(0) translate(4 418)">
<title>ccf::js::HistoricalStateContext</title>
<polygon fill="white" stroke="transparent" points="-4,4 -4,-418 2234,-418 2234,4 -4,4"/>
<!-- Node1 -->
<g id="node1" class="node">
<title>Node1</title>
<g id="a_node1"><a xlink:title=" ">
<polygon fill="#bfbfbf" stroke="black" points="2108,-153 2108,-183 2230,-183 2230,-153 2108,-153"/>
<text text-anchor="start" x="2116" y="-171" font-family="Helvetica,sans-Serif" font-size="10.00">ccf::js::HistoricalState</text>
<text text-anchor="middle" x="2169" y="-160" font-family="Helvetica,sans-Serif" font-size="10.00">Context</text>
</a>
</g>
</g>
<!-- Node2 -->
<g id="node2" class="node">
<title>Node2</title>
<g id="a_node2"><a xlink:title=" ">
<polygon fill="white" stroke="black" points="1895.5,-197.5 1895.5,-216.5 2032.5,-216.5 2032.5,-197.5 1895.5,-197.5"/>
<text text-anchor="middle" x="1964" y="-204.5" font-family="Helvetica,sans-Serif" font-size="10.00">std::shared_ptr&lt; State &gt;</text>
</a>
</g>
</g>
<!-- Node2&#45;&gt;Node1 -->
<g id="edge1" class="edge">
<title>Node2&#45;&gt;Node1</title>
<path fill="none" stroke="#9a32cd" stroke-dasharray="5,2" d="M2024.8,-195.51C2050.9,-190.5 2081.46,-184.63 2107.63,-179.6"/>
<polygon fill="#9a32cd" stroke="#9a32cd" points="2023.82,-192.14 2014.66,-197.46 2025.14,-199.01 2023.82,-192.14"/>
<text text-anchor="middle" x="2073" y="-191" font-family="Helvetica,sans-Serif" font-size="10.00"> state</text>
</g>
<!-- Node3 -->
<g id="node3" class="node">
<title>Node3</title>
<g id="a_node3"><a xlink:href="classkv_1_1ReadOnlyTx.html" target="_top" xlink:title=" ">
<polygon fill="white" stroke="black" points="1748,-135.5 1748,-154.5 1841,-154.5 1841,-135.5 1748,-135.5"/>
<text text-anchor="middle" x="1794.5" y="-142.5" font-family="Helvetica,sans-Serif" font-size="10.00">kv::ReadOnlyTx</text>
</a>
</g>
</g>
<!-- Node3&#45;&gt;Node1 -->
<g id="edge2" class="edge">
<title>Node3&#45;&gt;Node1</title>
<path fill="none" stroke="#9a32cd" stroke-dasharray="5,2" d="M1851.33,-150.4C1853.92,-150.61 1856.49,-150.81 1859,-151 1945.39,-157.46 2045.55,-162.52 2107.85,-165.39"/>
<polygon fill="#9a32cd" stroke="#9a32cd" points="1851.53,-146.9 1841.27,-149.54 1850.93,-153.88 1851.53,-146.9"/>
<text text-anchor="middle" x="1964" y="-164" font-family="Helvetica,sans-Serif" font-size="10.00"> tx</text>
</g>
<!-- Node27 -->
<g id="node27" class="node">
<title>Node27</title>
<g id="a_node27"><a xlink:href="structccf_1_1js_1_1ReadOnlyTxContext.html" target="_top" xlink:title=" ">
<polygon fill="white" stroke="black" points="1890,-112.5 1890,-131.5 2038,-131.5 2038,-112.5 1890,-112.5"/>
<text text-anchor="middle" x="1964" y="-119.5" font-family="Helvetica,sans-Serif" font-size="10.00">ccf::js::ReadOnlyTxContext</text>
</a>
</g>
</g>
<!-- Node3&#45;&gt;Node27 -->
<g id="edge31" class="edge">
<title>Node3&#45;&gt;Node27</title>
<path fill="none" stroke="#9a32cd" stroke-dasharray="5,2" d="M1851.4,-137.32C1864.96,-135.46 1879.61,-133.45 1893.71,-131.51"/>
<polygon fill="#9a32cd" stroke="#9a32cd" points="1850.7,-133.89 1841.27,-138.72 1851.65,-140.82 1850.7,-133.89"/>
<text text-anchor="middle" x="1865.5" y="-139" font-family="Helvetica,sans-Serif" font-size="10.00"> tx</text>
</g>
<!-- Node4 -->
<g id="node4" class="node">
<title>Node4</title>
<g id="a_node4"><a xlink:href="classkv_1_1BaseTx.html" target="_top" xlink:title=" ">
<polygon fill="white" stroke="black" points="1641,-135.5 1641,-154.5 1711,-154.5 1711,-135.5 1641,-135.5"/>
<text text-anchor="middle" x="1676" y="-142.5" font-family="Helvetica,sans-Serif" font-size="10.00">kv::BaseTx</text>
</a>
</g>
</g>
<!-- Node4&#45;&gt;Node3 -->
<g id="edge3" class="edge">
<title>Node4&#45;&gt;Node3</title>
<path fill="none" stroke="midnightblue" d="M1721.07,-145C1729.87,-145 1739.12,-145 1747.97,-145"/>
<polygon fill="midnightblue" stroke="midnightblue" points="1721.01,-141.5 1711.01,-145 1721.01,-148.5 1721.01,-141.5"/>
</g>
<!-- Node5 -->
<g id="node5" class="node">
<title>Node5</title>
<g id="a_node5"><a xlink:title=" ">
<polygon fill="white" stroke="black" points="1442,-93 1442,-123 1574,-123 1574,-93 1442,-93"/>
<text text-anchor="start" x="1450" y="-111" font-family="Helvetica,sans-Serif" font-size="10.00">std::unique_ptr&lt; kv</text>
<text text-anchor="middle" x="1508" y="-100" font-family="Helvetica,sans-Serif" font-size="10.00">::BaseTx::PrivateImpl &gt;</text>
</a>
</g>
</g>
<!-- Node5&#45;&gt;Node4 -->
<g id="edge4" class="edge">
<title>Node5&#45;&gt;Node4</title>
<path fill="none" stroke="#9a32cd" stroke-dasharray="5,2" d="M1584.07,-124.73C1603.83,-129.14 1624.2,-133.68 1640.63,-137.34"/>
<polygon fill="#9a32cd" stroke="#9a32cd" points="1584.65,-121.28 1574.13,-122.52 1583.13,-128.11 1584.65,-121.28"/>
<text text-anchor="middle" x="1607.5" y="-136" font-family="Helvetica,sans-Serif" font-size="10.00"> pimpl</text>
</g>
<!-- Node6 -->
<g id="node6" class="node">
<title>Node6</title>
<g id="a_node6"><a xlink:href="structkv_1_1BaseTx_1_1PrivateImpl.html" target="_top" xlink:title=" ">
<polygon fill="white" stroke="black" points="1257,-63.5 1257,-82.5 1389,-82.5 1389,-63.5 1257,-63.5"/>
<text text-anchor="middle" x="1323" y="-70.5" font-family="Helvetica,sans-Serif" font-size="10.00">kv::BaseTx::PrivateImpl</text>
</a>
</g>
</g>
<!-- Node6&#45;&gt;Node5 -->
<g id="edge5" class="edge">
<title>Node6&#45;&gt;Node5</title>
<path fill="none" stroke="#9a32cd" stroke-dasharray="5,2" d="M1384.07,-84.49C1402.6,-88.03 1423.09,-91.95 1441.93,-95.56"/>
<polygon fill="#9a32cd" stroke="#9a32cd" points="1384.49,-81 1374.01,-82.56 1383.17,-87.88 1384.49,-81"/>
<text text-anchor="middle" x="1415.5" y="-94" font-family="Helvetica,sans-Serif" font-size="10.00"> ptr</text>
</g>
<!-- Node7 -->
<g id="node7" class="node">
<title>Node7</title>
<g id="a_node7"><a xlink:href="classkv_1_1AbstractStore.html" target="_top" xlink:title=" ">
<polygon fill="white" stroke="black" points="1037,-60.5 1037,-79.5 1137,-79.5 1137,-60.5 1037,-60.5"/>
<text text-anchor="middle" x="1087" y="-67.5" font-family="Helvetica,sans-Serif" font-size="10.00">kv::AbstractStore</text>
</a>
</g>
</g>
<!-- Node7&#45;&gt;Node6 -->
<g id="edge6" class="edge">
<title>Node7&#45;&gt;Node6</title>
<path fill="none" stroke="#9a32cd" stroke-dasharray="5,2" d="M1147.12,-70.76C1180.48,-71.19 1222.24,-71.72 1256.58,-72.16"/>
<polygon fill="#9a32cd" stroke="#9a32cd" points="1147.1,-67.26 1137.05,-70.63 1147.01,-74.26 1147.1,-67.26"/>
<text text-anchor="middle" x="1202.5" y="-74" font-family="Helvetica,sans-Serif" font-size="10.00"> store</text>
</g>
<!-- Node8 -->
<g id="node8" class="node">
<title>Node8</title>
<g id="a_node8"><a xlink:title=" ">
<polygon fill="white" stroke="black" points="375,-9 375,-39 497,-39 497,-9 375,-9"/>
<text text-anchor="start" x="383" y="-27" font-family="Helvetica,sans-Serif" font-size="10.00">std::map&lt; std::string,</text>
<text text-anchor="middle" x="436" y="-16" font-family="Helvetica,sans-Serif" font-size="10.00"> PossibleHandles &gt;</text>
</a>
</g>
</g>
<!-- Node8&#45;&gt;Node6 -->
<g id="edge7" class="edge">
<title>Node8&#45;&gt;Node6</title>
<path fill="none" stroke="#9a32cd" stroke-dasharray="5,2" d="M507.31,-24C554.69,-24 618.61,-24 675,-24 675,-24 675,-24 1088,-24 1164.16,-24 1251.37,-49.18 1294.65,-63.44"/>
<polygon fill="#9a32cd" stroke="#9a32cd" points="507.16,-20.5 497.16,-24 507.16,-27.5 507.16,-20.5"/>
<text text-anchor="middle" x="870" y="-27" font-family="Helvetica,sans-Serif" font-size="10.00"> all_handles</text>
</g>
<!-- Node9 -->
<g id="node9" class="node">
<title>Node9</title>
<g id="a_node9"><a xlink:title=" ">
<polygon fill="white" stroke="black" points="197,-77.5 197,-96.5 262,-96.5 262,-77.5 197,-77.5"/>
<text text-anchor="middle" x="229.5" y="-84.5" font-family="Helvetica,sans-Serif" font-size="10.00">std::string</text>
</a>
</g>
</g>
<!-- Node9&#45;&gt;Node8 -->
<g id="edge8" class="edge">
<title>Node9&#45;&gt;Node8</title>
<path fill="none" stroke="#9a32cd" stroke-dasharray="5,2" d="M248.3,-70.44C259.01,-61.43 273.36,-50.95 288,-45 315.34,-33.88 347.63,-28.5 374.98,-25.96"/>
<polygon fill="#9a32cd" stroke="#9a32cd" points="245.77,-68 240.56,-77.22 250.39,-73.26 245.77,-68"/>
<text text-anchor="middle" x="312.5" y="-48" font-family="Helvetica,sans-Serif" font-size="10.00"> keys</text>
</g>
<!-- Node13 -->
<g id="node13" class="node">
<title>Node13</title>
<g id="a_node13"><a xlink:title=" ">
<polygon fill="white" stroke="black" points="1026,-98.5 1026,-139.5 1148,-139.5 1148,-98.5 1026,-98.5"/>
<text text-anchor="start" x="1034" y="-127.5" font-family="Helvetica,sans-Serif" font-size="10.00">std::map&lt; std::string,</text>
<text text-anchor="start" x="1034" y="-116.5" font-family="Helvetica,sans-Serif" font-size="10.00"> std::shared_ptr&lt; kv</text>
<text text-anchor="middle" x="1087" y="-105.5" font-family="Helvetica,sans-Serif" font-size="10.00">::AbstractMap &gt; &gt;</text>
</a>
</g>
</g>
<!-- Node9&#45;&gt;Node13 -->
<g id="edge13" class="edge">
<title>Node9&#45;&gt;Node13</title>
<path fill="none" stroke="#9a32cd" stroke-dasharray="5,2" d="M272.27,-81.49C313.54,-76.52 378.51,-70 435,-70 435,-70 435,-70 871,-70 925.17,-70 985.14,-84.97 1027.95,-98.36"/>
<polygon fill="#9a32cd" stroke="#9a32cd" points="271.81,-78.02 262.31,-82.71 272.66,-84.96 271.81,-78.02"/>
<text text-anchor="middle" x="676" y="-73" font-family="Helvetica,sans-Serif" font-size="10.00"> keys</text>
</g>
<!-- Node17 -->
<g id="node17" class="node">
<title>Node17</title>
<g id="a_node17"><a xlink:href="structkv_1_1GetName.html" target="_top" xlink:title=" ">
<polygon fill="white" stroke="black" points="396,-98.5 396,-117.5 476,-117.5 476,-98.5 396,-98.5"/>
<text text-anchor="middle" x="436" y="-105.5" font-family="Helvetica,sans-Serif" font-size="10.00">kv::GetName</text>
</a>
</g>
</g>
<!-- Node9&#45;&gt;Node17 -->
<g id="edge18" class="edge">
<title>Node9&#45;&gt;Node17</title>
<path fill="none" stroke="#9a32cd" stroke-dasharray="5,2" d="M272.22,-91.28C308.39,-95 360.33,-100.33 395.75,-103.97"/>
<polygon fill="#9a32cd" stroke="#9a32cd" points="272.31,-87.78 262,-90.24 271.6,-94.74 272.31,-87.78"/>
<text text-anchor="middle" x="312.5" y="-100" font-family="Helvetica,sans-Serif" font-size="10.00"> name</text>
</g>
<!-- Node18 -->
<g id="node18" class="node">
<title>Node18</title>
<g id="a_node18"><a xlink:title=" ">
<polygon fill="white" stroke="black" points="1262,-162 1262,-192 1384,-192 1384,-162 1262,-162"/>
<text text-anchor="start" x="1270" y="-180" font-family="Helvetica,sans-Serif" font-size="10.00">std::map&lt; std::string,</text>
<text text-anchor="middle" x="1323" y="-169" font-family="Helvetica,sans-Serif" font-size="10.00"> MapChanges &gt;</text>
</a>
</g>
</g>
<!-- Node9&#45;&gt;Node18 -->
<g id="edge20" class="edge">
<title>Node9&#45;&gt;Node18</title>
<path fill="none" stroke="#9a32cd" stroke-dasharray="5,2" d="M234.8,-106.37C246.01,-152.06 280.53,-267.08 355,-325 383.85,-347.44 398.46,-344 435,-344 435,-344 435,-344 1088,-344 1192.06,-344 1281.84,-233.22 1311.57,-192.11"/>
<polygon fill="#9a32cd" stroke="#9a32cd" points="238.19,-105.48 232.5,-96.55 231.38,-107.08 238.19,-105.48"/>
<text text-anchor="middle" x="773" y="-347" font-family="Helvetica,sans-Serif" font-size="10.00"> keys</text>
</g>
<!-- Node10 -->
<g id="node10" class="node">
<title>Node10</title>
<g id="a_node10"><a xlink:title=" ">
<polygon fill="white" stroke="black" points="0,-72 0,-102 104,-102 104,-72 0,-72"/>
<text text-anchor="start" x="8" y="-90" font-family="Helvetica,sans-Serif" font-size="10.00">std::basic_string&lt;</text>
<text text-anchor="middle" x="52" y="-79" font-family="Helvetica,sans-Serif" font-size="10.00"> Char &gt;</text>
</a>
</g>
</g>
<!-- Node10&#45;&gt;Node9 -->
<g id="edge9" class="edge">
<title>Node10&#45;&gt;Node9</title>
<path fill="none" stroke="midnightblue" d="M114.28,-87C142.11,-87 173.85,-87 196.8,-87"/>
<polygon fill="midnightblue" stroke="midnightblue" points="114.23,-83.5 104.23,-87 114.23,-90.5 114.23,-83.5"/>
</g>
<!-- Node11 -->
<g id="node11" class="node">
<title>Node11</title>
<g id="a_node11"><a xlink:title=" ">
<polygon fill="white" stroke="black" points="189,-0.5 189,-19.5 270,-19.5 270,-0.5 189,-0.5"/>
<text text-anchor="middle" x="229.5" y="-7.5" font-family="Helvetica,sans-Serif" font-size="10.00">std::list&lt; T &gt;</text>
</a>
</g>
</g>
<!-- Node11&#45;&gt;Node8 -->
<g id="edge10" class="edge">
<title>Node11&#45;&gt;Node8</title>
<path fill="none" stroke="#9a32cd" stroke-dasharray="5,2" d="M280.45,-9.21C298.31,-9.26 318.58,-9.7 337,-11 349.33,-11.87 362.47,-13.28 375,-14.86"/>
<polygon fill="#9a32cd" stroke="#9a32cd" points="280.24,-5.71 270.25,-9.22 280.25,-12.71 280.24,-5.71"/>
<text text-anchor="middle" x="312.5" y="-14" font-family="Helvetica,sans-Serif" font-size="10.00"> elements</text>
</g>
<!-- Node12 -->
<g id="node12" class="node">
<title>Node12</title>
<g id="a_node12"><a xlink:title=" ">
<polygon fill="white" stroke="black" points="37.5,-0.5 37.5,-19.5 66.5,-19.5 66.5,-0.5 37.5,-0.5"/>
<text text-anchor="middle" x="52" y="-7.5" font-family="Helvetica,sans-Serif" font-size="10.00">T</text>
</a>
</g>
</g>
<!-- Node12&#45;&gt;Node11 -->
<g id="edge11" class="edge">
<title>Node12&#45;&gt;Node11</title>
<path fill="none" stroke="#9a32cd" stroke-dasharray="5,2" d="M77.13,-10C105.96,-10 154.61,-10 188.96,-10"/>
<polygon fill="#9a32cd" stroke="#9a32cd" points="76.77,-6.5 66.77,-10 76.77,-13.5 76.77,-6.5"/>
<text text-anchor="middle" x="146.5" y="-13" font-family="Helvetica,sans-Serif" font-size="10.00"> elements</text>
</g>
<!-- Node13&#45;&gt;Node6 -->
<g id="edge12" class="edge">
<title>Node13&#45;&gt;Node6</title>
<path fill="none" stroke="#9a32cd" stroke-dasharray="5,2" d="M1158.51,-105.14C1195.6,-97.85 1240.13,-89.09 1273.35,-82.56"/>
<polygon fill="#9a32cd" stroke="#9a32cd" points="1157.4,-101.79 1148.26,-107.15 1158.75,-108.66 1157.4,-101.79"/>
<text text-anchor="middle" x="1202.5" y="-105" font-family="Helvetica,sans-Serif" font-size="10.00"> created_maps</text>
</g>
<!-- Node14 -->
<g id="node14" class="node">
<title>Node14</title>
<g id="a_node14"><a xlink:title=" ">
<polygon fill="white" stroke="black" points="813.5,-129 813.5,-159 926.5,-159 926.5,-129 813.5,-129"/>
<text text-anchor="start" x="821.5" y="-147" font-family="Helvetica,sans-Serif" font-size="10.00">std::shared_ptr&lt; kv</text>
<text text-anchor="middle" x="870" y="-136" font-family="Helvetica,sans-Serif" font-size="10.00">::AbstractMap &gt;</text>
</a>
</g>
</g>
<!-- Node14&#45;&gt;Node13 -->
<g id="edge14" class="edge">
<title>Node14&#45;&gt;Node13</title>
<path fill="none" stroke="#9a32cd" stroke-dasharray="5,2" d="M937.07,-135.09C942.79,-134.36 948.5,-133.66 954,-133 977.46,-130.2 1003.29,-127.4 1025.84,-125.05"/>
<polygon fill="#9a32cd" stroke="#9a32cd" points="936.26,-131.66 926.78,-136.4 937.15,-138.6 936.26,-131.66"/>
<text text-anchor="middle" x="981" y="-136" font-family="Helvetica,sans-Serif" font-size="10.00"> elements</text>
</g>
<!-- Node19 -->
<g id="node19" class="node">
<title>Node19</title>
<g id="a_node19"><a xlink:href="structkv_1_1MapChanges.html" target="_top" xlink:title=" ">
<polygon fill="white" stroke="black" points="1038.5,-167.5 1038.5,-186.5 1135.5,-186.5 1135.5,-167.5 1038.5,-167.5"/>
<text text-anchor="middle" x="1087" y="-174.5" font-family="Helvetica,sans-Serif" font-size="10.00">kv::MapChanges</text>
</a>
</g>
</g>
<!-- Node14&#45;&gt;Node19 -->
<g id="edge22" class="edge">
<title>Node14&#45;&gt;Node19</title>
<path fill="none" stroke="#9a32cd" stroke-dasharray="5,2" d="M936.61,-154.07C969.39,-159.1 1008.34,-165.08 1038.24,-169.67"/>
<polygon fill="#9a32cd" stroke="#9a32cd" points="937.06,-150.6 926.65,-152.54 936,-157.52 937.06,-150.6"/>
<text text-anchor="middle" x="981" y="-167" font-family="Helvetica,sans-Serif" font-size="10.00"> map</text>
</g>
<!-- Node15 -->
<g id="node15" class="node">
<title>Node15</title>
<g id="a_node15"><a xlink:href="classkv_1_1AbstractMap.html" target="_top" xlink:title=" ">
<polygon fill="white" stroke="black" points="628.5,-134.5 628.5,-153.5 723.5,-153.5 723.5,-134.5 628.5,-134.5"/>
<text text-anchor="middle" x="676" y="-141.5" font-family="Helvetica,sans-Serif" font-size="10.00">kv::AbstractMap</text>
</a>
</g>
</g>
<!-- Node15&#45;&gt;Node14 -->
<g id="edge15" class="edge">
<title>Node15&#45;&gt;Node14</title>
<path fill="none" stroke="#9a32cd" stroke-dasharray="5,2" d="M734.06,-144C759.11,-144 788.41,-144 813.31,-144"/>
<polygon fill="#9a32cd" stroke="#9a32cd" points="733.97,-140.5 723.97,-144 733.97,-147.5 733.97,-140.5"/>
<text text-anchor="middle" x="773" y="-147" font-family="Helvetica,sans-Serif" font-size="10.00"> ptr</text>
</g>
<!-- Node16 -->
<g id="node16" class="node">
<title>Node16</title>
<g id="a_node16"><a xlink:title=" ">
<polygon fill="white" stroke="black" points="360,-137 360,-167 512,-167 512,-137 360,-137"/>
<text text-anchor="start" x="368" y="-155" font-family="Helvetica,sans-Serif" font-size="10.00">std::enable_shared</text>
<text text-anchor="middle" x="436" y="-144" font-family="Helvetica,sans-Serif" font-size="10.00">_from_this&lt; AbstractMap &gt;</text>
</a>
</g>
</g>
<!-- Node16&#45;&gt;Node15 -->
<g id="edge16" class="edge">
<title>Node16&#45;&gt;Node15</title>
<path fill="none" stroke="midnightblue" d="M522.7,-149.12C558.27,-147.92 598.16,-146.58 628.19,-145.57"/>
<polygon fill="midnightblue" stroke="midnightblue" points="522.18,-145.63 512.3,-149.47 522.42,-152.63 522.18,-145.63"/>
</g>
<!-- Node17&#45;&gt;Node15 -->
<g id="edge17" class="edge">
<title>Node17&#45;&gt;Node15</title>
<path fill="none" stroke="midnightblue" d="M485.96,-115.41C527.64,-121.71 587.12,-130.71 628.17,-136.92"/>
<polygon fill="midnightblue" stroke="midnightblue" points="486.45,-111.94 476.03,-113.9 485.4,-118.86 486.45,-111.94"/>
</g>
<!-- Node18&#45;&gt;Node4 -->
<g id="edge19" class="edge">
<title>Node18&#45;&gt;Node4</title>
<path fill="none" stroke="#9a32cd" stroke-dasharray="5,2" d="M1394.61,-170.56C1469.36,-163.75 1584.22,-153.28 1640.92,-148.11"/>
<polygon fill="#9a32cd" stroke="#9a32cd" points="1393.98,-167.11 1384.34,-171.5 1394.62,-174.08 1393.98,-167.11"/>
<text text-anchor="middle" x="1508" y="-168" font-family="Helvetica,sans-Serif" font-size="10.00"> all_changes</text>
</g>
<!-- Node19&#45;&gt;Node18 -->
<g id="edge21" class="edge">
<title>Node19&#45;&gt;Node18</title>
<path fill="none" stroke="#9a32cd" stroke-dasharray="5,2" d="M1145.79,-177C1181.11,-177 1226.2,-177 1261.93,-177"/>
<polygon fill="#9a32cd" stroke="#9a32cd" points="1145.64,-173.5 1135.64,-177 1145.64,-180.5 1145.64,-173.5"/>
<text text-anchor="middle" x="1202.5" y="-180" font-family="Helvetica,sans-Serif" font-size="10.00"> elements</text>
</g>
<!-- Node20 -->
<g id="node20" class="node">
<title>Node20</title>
<g id="a_node20"><a xlink:title=" ">
<polygon fill="white" stroke="black" points="804,-194 804,-224 936,-224 936,-194 804,-194"/>
<text text-anchor="start" x="812" y="-212" font-family="Helvetica,sans-Serif" font-size="10.00">std::unique_ptr&lt; kv</text>
<text text-anchor="middle" x="870" y="-201" font-family="Helvetica,sans-Serif" font-size="10.00">::untyped::ChangeSet &gt;</text>
</a>
</g>
</g>
<!-- Node20&#45;&gt;Node19 -->
<g id="edge23" class="edge">
<title>Node20&#45;&gt;Node19</title>
<path fill="none" stroke="#9a32cd" stroke-dasharray="5,2" d="M946.29,-197.79C976.83,-193.25 1011.2,-188.13 1038.2,-184.11"/>
<polygon fill="#9a32cd" stroke="#9a32cd" points="945.47,-194.38 936.09,-199.31 946.5,-201.3 945.47,-194.38"/>
<text text-anchor="middle" x="981" y="-198" font-family="Helvetica,sans-Serif" font-size="10.00"> changeset</text>
</g>
<!-- Node21 -->
<g id="node21" class="node">
<title>Node21</title>
<g id="a_node21"><a xlink:href="structkv_1_1untyped_1_1ChangeSet.html" target="_top" xlink:title=" ">
<polygon fill="white" stroke="black" points="610,-224.5 610,-243.5 742,-243.5 742,-224.5 610,-224.5"/>
<text text-anchor="middle" x="676" y="-231.5" font-family="Helvetica,sans-Serif" font-size="10.00">kv::untyped::ChangeSet</text>
</a>
</g>
</g>
<!-- Node21&#45;&gt;Node20 -->
<g id="edge24" class="edge">
<title>Node21&#45;&gt;Node20</title>
<path fill="none" stroke="#9a32cd" stroke-dasharray="5,2" d="M751.94,-224.24C769.04,-222.02 787.08,-219.67 803.74,-217.5"/>
<polygon fill="#9a32cd" stroke="#9a32cd" points="751.47,-220.77 742,-225.54 752.37,-227.72 751.47,-220.77"/>
<text text-anchor="middle" x="773" y="-225" font-family="Helvetica,sans-Serif" font-size="10.00"> ptr</text>
</g>
<!-- Node22 -->
<g id="node22" class="node">
<title>Node22</title>
<g id="a_node22"><a xlink:href="classkv_1_1AbstractChangeSet.html" target="_top" xlink:title=" ">
<polygon fill="white" stroke="black" points="372.5,-224.5 372.5,-243.5 499.5,-243.5 499.5,-224.5 372.5,-224.5"/>
<text text-anchor="middle" x="436" y="-231.5" font-family="Helvetica,sans-Serif" font-size="10.00">kv::AbstractChangeSet</text>
</a>
</g>
</g>
<!-- Node22&#45;&gt;Node21 -->
<g id="edge25" class="edge">
<title>Node22&#45;&gt;Node21</title>
<path fill="none" stroke="midnightblue" d="M509.71,-234C541.69,-234 578.94,-234 609.98,-234"/>
<polygon fill="midnightblue" stroke="midnightblue" points="509.53,-230.5 499.53,-234 509.53,-237.5 509.53,-230.5"/>
</g>
<!-- Node23 -->
<g id="node23" class="node">
<title>Node23</title>
<g id="a_node23"><a xlink:href="classchamp_1_1Map.html" target="_top" xlink:title=" ">
<polygon fill="white" stroke="black" points="370,-186.5 370,-205.5 502,-205.5 502,-186.5 370,-186.5"/>
<text text-anchor="middle" x="436" y="-193.5" font-family="Helvetica,sans-Serif" font-size="10.00">champ::Map&lt; K, V, H &gt;</text>
</a>
</g>
</g>
<!-- Node23&#45;&gt;Node21 -->
<g id="edge26" class="edge">
<title>Node23&#45;&gt;Node21</title>
<path fill="none" stroke="#9a32cd" stroke-dasharray="5,2" d="M512.61,-198.42C538,-200.14 566.38,-203.06 592,-208 611.72,-211.8 633.35,-218.67 649.59,-224.39"/>
<polygon fill="#9a32cd" stroke="#9a32cd" points="512.49,-194.91 502.29,-197.77 512.06,-201.89 512.49,-194.91"/>
<text text-anchor="middle" x="563.5" y="-222" font-family="Helvetica,sans-Serif" font-size="10.00"> committed</text>
<text text-anchor="middle" x="563.5" y="-211" font-family="Helvetica,sans-Serif" font-size="10.00">state</text>
</g>
<!-- Node24 -->
<g id="node24" class="node">
<title>Node24</title>
<g id="a_node24"><a xlink:title=" ">
<polygon fill="white" stroke="black" points="355,-372.5 355,-413.5 517,-413.5 517,-372.5 355,-372.5"/>
<text text-anchor="start" x="363" y="-401.5" font-family="Helvetica,sans-Serif" font-size="10.00">std::map&lt; K, std::tuple</text>
<text text-anchor="start" x="363" y="-390.5" font-family="Helvetica,sans-Serif" font-size="10.00">&lt; DeletableVersion, LastRead</text>
<text text-anchor="middle" x="436" y="-379.5" font-family="Helvetica,sans-Serif" font-size="10.00">Version &gt; &gt;</text>
</a>
</g>
</g>
<!-- Node24&#45;&gt;Node21 -->
<g id="edge27" class="edge">
<title>Node24&#45;&gt;Node21</title>
<path fill="none" stroke="#9a32cd" stroke-dasharray="5,2" d="M476.75,-366.44C530.8,-330.33 624.84,-267.51 660.62,-243.6"/>
<polygon fill="#9a32cd" stroke="#9a32cd" points="474.49,-363.75 468.11,-372.21 478.37,-369.57 474.49,-363.75"/>
<text text-anchor="middle" x="563.5" y="-326" font-family="Helvetica,sans-Serif" font-size="10.00"> reads</text>
</g>
<!-- Node25 -->
<g id="node25" class="node">
<title>Node25</title>
<g id="a_node25"><a xlink:title=" ">
<polygon fill="white" stroke="black" points="215,-383.5 215,-402.5 244,-402.5 244,-383.5 215,-383.5"/>
<text text-anchor="middle" x="229.5" y="-390.5" font-family="Helvetica,sans-Serif" font-size="10.00">K</text>
</a>
</g>
</g>
<!-- Node25&#45;&gt;Node24 -->
<g id="edge28" class="edge">
<title>Node25&#45;&gt;Node24</title>
<path fill="none" stroke="#9a32cd" stroke-dasharray="5,2" d="M254.43,-393C279.08,-393 318.88,-393 354.84,-393"/>
<polygon fill="#9a32cd" stroke="#9a32cd" points="254.24,-389.5 244.24,-393 254.24,-396.5 254.24,-389.5"/>
<text text-anchor="middle" x="312.5" y="-396" font-family="Helvetica,sans-Serif" font-size="10.00"> keys</text>
</g>
<!-- Node26 -->
<g id="node26" class="node">
<title>Node26</title>
<g id="a_node26"><a xlink:title=" ">
<polygon fill="white" stroke="black" points="365.5,-263 365.5,-315 506.5,-315 506.5,-263 365.5,-263"/>
<text text-anchor="start" x="373.5" y="-303" font-family="Helvetica,sans-Serif" font-size="10.00">std::map&lt; kv::serialisers</text>
<text text-anchor="start" x="373.5" y="-292" font-family="Helvetica,sans-Serif" font-size="10.00">::SerialisedEntry, std</text>
<text text-anchor="start" x="373.5" y="-281" font-family="Helvetica,sans-Serif" font-size="10.00">::optional&lt; kv::serialisers</text>
<text text-anchor="middle" x="436" y="-270" font-family="Helvetica,sans-Serif" font-size="10.00">::SerialisedEntry &gt; &gt;</text>
</a>
</g>
</g>
<!-- Node26&#45;&gt;Node21 -->
<g id="edge29" class="edge">
<title>Node26&#45;&gt;Node21</title>
<path fill="none" stroke="#9a32cd" stroke-dasharray="5,2" d="M516.64,-270.6C555.94,-261.51 601.69,-250.94 633.88,-243.5"/>
<polygon fill="#9a32cd" stroke="#9a32cd" points="515.75,-267.21 506.8,-272.87 517.33,-274.03 515.75,-267.21"/>
<text text-anchor="middle" x="563.5" y="-267" font-family="Helvetica,sans-Serif" font-size="10.00"> writes</text>
</g>
<!-- Node27&#45;&gt;Node1 -->
<g id="edge30" class="edge">
<title>Node27&#45;&gt;Node1</title>
<path fill="none" stroke="#9a32cd" stroke-dasharray="5,2" d="M2042.73,-133.28C2058.46,-136.06 2074.83,-139.31 2090,-143 2101.47,-145.79 2113.7,-149.39 2124.99,-153"/>
<polygon fill="#9a32cd" stroke="#9a32cd" points="2042.95,-129.76 2032.5,-131.52 2041.77,-136.66 2042.95,-129.76"/>
<text text-anchor="middle" x="2073" y="-146" font-family="Helvetica,sans-Serif" font-size="10.00"> tx_ctx</text>
</g>
</g>
</svg>
