<?xml version="1.0" encoding="UTF-8" standalone="no"?>
<!DOCTYPE svg PUBLIC "-//W3C//DTD SVG 1.1//EN"
 "http://www.w3.org/Graphics/SVG/1.1/DTD/svg11.dtd">
<!-- Generated by graphviz version 2.43.0 (0)
 -->
<!-- Title: crypto::GcmCipher Pages: 1 -->
<svg width="240pt" height="240pt"
 viewBox="0.00 0.00 240.00 240.00" xmlns="http://www.w3.org/2000/svg" xmlns:xlink="http://www.w3.org/1999/xlink">
<g id="graph0" class="graph" transform="scale(1 1) rotate(0) translate(4 236)">
<title>crypto::GcmCipher</title>
<polygon fill="white" stroke="transparent" points="-4,4 -4,-236 236,-236 236,4 -4,4"/>
<!-- Node1 -->
<g id="node1" class="node">
<title>Node1</title>
<g id="a_node1"><a xlink:title=" ">
<polygon fill="#bfbfbf" stroke="black" points="28,-0.5 28,-19.5 135,-19.5 135,-0.5 28,-0.5"/>
<text text-anchor="middle" x="81.5" y="-7.5" font-family="Helvetica,sans-Serif" font-size="10.00">crypto::GcmCipher</text>
</a>
</g>
</g>
<!-- Node2 -->
<g id="node2" class="node">
<title>Node2</title>
<g id="a_node2"><a xlink:href="structcrypto_1_1FixedSizeGcmHeader.html" target="_top" xlink:title=" ">
<polygon fill="white" stroke="black" points="75,-67.5 75,-97.5 232,-97.5 232,-67.5 75,-67.5"/>
<text text-anchor="start" x="83" y="-85.5" font-family="Helvetica,sans-Serif" font-size="10.00">crypto::FixedSizeGcmHeader</text>
<text text-anchor="middle" x="153.5" y="-74.5" font-family="Helvetica,sans-Serif" font-size="10.00">&lt; 12 &gt;</text>
</a>
</g>
</g>
<!-- Node2&#45;&gt;Node1 -->
<g id="edge1" class="edge">
<title>Node2&#45;&gt;Node1</title>
<path fill="none" stroke="#9a32cd" stroke-dasharray="5,2" d="M131.68,-60.14C117.91,-46.65 100.84,-29.94 90.58,-19.89"/>
<polygon fill="#9a32cd" stroke="#9a32cd" points="129.34,-62.74 138.93,-67.23 134.23,-57.74 129.34,-62.74"/>
<text text-anchor="middle" x="129" y="-41" font-family="Helvetica,sans-Serif" font-size="10.00"> hdr</text>
</g>
<!-- Node3 -->
<g id="node3" class="node">
<title>Node3</title>
<g id="a_node3"><a xlink:href="structcrypto_1_1GcmHeader.html" target="_top" xlink:title=" ">
<polygon fill="white" stroke="black" points="86,-145.5 86,-164.5 197,-164.5 197,-145.5 86,-145.5"/>
<text text-anchor="middle" x="141.5" y="-152.5" font-family="Helvetica,sans-Serif" font-size="10.00">crypto::GcmHeader</text>
</a>
</g>
</g>
<!-- Node3&#45;&gt;Node2 -->
<g id="edge2" class="edge">
<title>Node3&#45;&gt;Node2</title>
<path fill="none" stroke="midnightblue" d="M144.69,-135.24C146.71,-123.41 149.26,-108.38 151.1,-97.58"/>
<polygon fill="midnightblue" stroke="midnightblue" points="141.2,-134.91 142.97,-145.36 148.1,-136.08 141.2,-134.91"/>
</g>
<!-- Node4 -->
<g id="node4" class="node">
<title>Node4</title>
<g id="a_node4"><a xlink:title=" ">
<polygon fill="white" stroke="black" points="0,-212.5 0,-231.5 125,-231.5 125,-212.5 0,-212.5"/>
<text text-anchor="middle" x="62.5" y="-219.5" font-family="Helvetica,sans-Serif" font-size="10.00">std::vector&lt; uint8_t &gt;</text>
</a>
</g>
</g>
<!-- Node4&#45;&gt;Node1 -->
<g id="edge4" class="edge">
<title>Node4&#45;&gt;Node1</title>
<path fill="none" stroke="#9a32cd" stroke-dasharray="5,2" d="M61.32,-202.26C59.82,-173.13 58.25,-115.33 65.5,-67 68.08,-49.8 74.42,-30.43 78.3,-19.58"/>
<polygon fill="#9a32cd" stroke="#9a32cd" points="57.82,-202.47 61.89,-212.25 64.81,-202.07 57.82,-202.47"/>
<text text-anchor="middle" x="78.5" y="-119" font-family="Helvetica,sans-Serif" font-size="10.00"> cipher</text>
</g>
<!-- Node4&#45;&gt;Node3 -->
<g id="edge3" class="edge">
<title>Node4&#45;&gt;Node3</title>
<path fill="none" stroke="#9a32cd" stroke-dasharray="5,2" d="M81.08,-205.71C96.64,-192.91 118.3,-175.09 131.01,-164.63"/>
<polygon fill="#9a32cd" stroke="#9a32cd" points="78.65,-203.18 73.15,-212.23 83.1,-208.58 78.65,-203.18"/>
<text text-anchor="middle" x="113" y="-186" font-family="Helvetica,sans-Serif" font-size="10.00"> iv</text>
</g>
</g>
</svg>
