<?xml version="1.0" encoding="UTF-8" standalone="no"?>
<!DOCTYPE svg PUBLIC "-//W3C//DTD SVG 1.1//EN"
 "http://www.w3.org/Graphics/SVG/1.1/DTD/svg11.dtd">
<!-- Generated by graphviz version 2.43.0 (0)
 -->
<!-- Title: kv::untyped::LocalCommit Pages: 1 -->
<svg width="390pt" height="112pt"
 viewBox="0.00 0.00 390.00 111.50" xmlns="http://www.w3.org/2000/svg" xmlns:xlink="http://www.w3.org/1999/xlink">
<g id="graph0" class="graph" transform="scale(1 1) rotate(0) translate(4 107.5)">
<title>kv::untyped::LocalCommit</title>
<polygon fill="white" stroke="transparent" points="-4,4 -4,-107.5 386,-107.5 386,4 -4,4"/>
<!-- Node1 -->
<g id="node1" class="node">
<title>Node1</title>
<g id="a_node1"><a xlink:title=" ">
<polygon fill="#bfbfbf" stroke="black" points="238,-44 238,-63 382,-63 382,-44 238,-44"/>
<text text-anchor="middle" x="310" y="-51" font-family="Helvetica,sans-Serif" font-size="10.00">kv::untyped::LocalCommit</text>
</a>
</g>
</g>
<!-- Node1&#45;&gt;Node1 -->
<g id="edge3" class="edge">
<title>Node1&#45;&gt;Node1</title>
<path fill="none" stroke="#9a32cd" stroke-dasharray="5,2" d="M290.37,-72.9C291.68,-77.81 298.23,-81.5 310,-81.5 328.84,-81.5 334.29,-72.07 326.34,-63.26"/>
<polygon fill="#9a32cd" stroke="#9a32cd" points="293.74,-73.85 293.66,-63.26 287.12,-71.59 293.74,-73.85"/>
<text text-anchor="middle" x="310" y="-95.5" font-family="Helvetica,sans-Serif" font-size="10.00"> next</text>
<text text-anchor="middle" x="310" y="-84.5" font-family="Helvetica,sans-Serif" font-size="10.00">prev</text>
</g>
<!-- Node2 -->
<g id="node2" class="node">
<title>Node2</title>
<g id="a_node2"><a xlink:href="classchamp_1_1Map.html" target="_top" xlink:title=" ">
<polygon fill="white" stroke="black" points="0,-72 0,-91 168,-91 168,-72 0,-72"/>
<text text-anchor="middle" x="84" y="-79" font-family="Helvetica,sans-Serif" font-size="10.00">champ::Map&lt; K, VersionV, H &gt;</text>
</a>
</g>
</g>
<!-- Node2&#45;&gt;Node1 -->
<g id="edge1" class="edge">
<title>Node2&#45;&gt;Node1</title>
<path fill="none" stroke="#9a32cd" stroke-dasharray="5,2" d="M171.18,-70.73C193.26,-67.97 216.75,-65.03 237.97,-62.38"/>
<polygon fill="#9a32cd" stroke="#9a32cd" points="170.64,-67.27 161.15,-71.98 171.51,-74.21 170.64,-67.27"/>
<text text-anchor="middle" x="203" y="-70.5" font-family="Helvetica,sans-Serif" font-size="10.00"> state</text>
</g>
<!-- Node3 -->
<g id="node3" class="node">
<title>Node3</title>
<g id="a_node3"><a xlink:title=" ">
<polygon fill="white" stroke="black" points="13.5,-0.5 13.5,-52.5 154.5,-52.5 154.5,-0.5 13.5,-0.5"/>
<text text-anchor="start" x="21.5" y="-40.5" font-family="Helvetica,sans-Serif" font-size="10.00">std::map&lt; kv::serialisers</text>
<text text-anchor="start" x="21.5" y="-29.5" font-family="Helvetica,sans-Serif" font-size="10.00">::SerialisedEntry, std</text>
<text text-anchor="start" x="21.5" y="-18.5" font-family="Helvetica,sans-Serif" font-size="10.00">::optional&lt; kv::serialisers</text>
<text text-anchor="middle" x="84" y="-7.5" font-family="Helvetica,sans-Serif" font-size="10.00">::SerialisedEntry &gt; &gt;</text>
</a>
</g>
</g>
<!-- Node3&#45;&gt;Node1 -->
<g id="edge2" class="edge">
<title>Node3&#45;&gt;Node1</title>
<path fill="none" stroke="#9a32cd" stroke-dasharray="5,2" d="M164.73,-36.11C188.59,-38.99 214.58,-42.12 237.85,-44.92"/>
<polygon fill="#9a32cd" stroke="#9a32cd" points="164.99,-32.62 154.65,-34.89 164.16,-39.57 164.99,-32.62"/>
<text text-anchor="middle" x="203" y="-45.5" font-family="Helvetica,sans-Serif" font-size="10.00"> writes</text>
</g>
</g>
</svg>
