<?xml version="1.0" encoding="UTF-8" standalone="no"?>
<!DOCTYPE svg PUBLIC "-//W3C//DTD SVG 1.1//EN"
 "http://www.w3.org/Graphics/SVG/1.1/DTD/svg11.dtd">
<!-- Generated by graphviz version 2.43.0 (0)
 -->
<!-- Title: ccf::endpoints::PathTemplateSpec Pages: 1 -->
<svg width="206pt" height="241pt"
 viewBox="0.00 0.00 205.50 241.00" xmlns="http://www.w3.org/2000/svg" xmlns:xlink="http://www.w3.org/1999/xlink">
<g id="graph0" class="graph" transform="scale(1 1) rotate(0) translate(4 237)">
<title>ccf::endpoints::PathTemplateSpec</title>
<polygon fill="white" stroke="transparent" points="-4,4 -4,-237 201.5,-237 201.5,4 -4,4"/>
<!-- Node1 -->
<g id="node1" class="node">
<title>Node1</title>
<g id="a_node1"><a xlink:title=" ">
<polygon fill="#bfbfbf" stroke="black" points="0,-0.5 0,-19.5 179,-19.5 179,-0.5 0,-0.5"/>
<text text-anchor="middle" x="89.5" y="-7.5" font-family="Helvetica,sans-Serif" font-size="10.00">ccf::endpoints::PathTemplateSpec</text>
</a>
</g>
</g>
<!-- Node2 -->
<g id="node2" class="node">
<title>Node2</title>
<g id="a_node2"><a xlink:title=" ">
<polygon fill="white" stroke="black" points="19.5,-78.5 19.5,-97.5 159.5,-97.5 159.5,-78.5 19.5,-78.5"/>
<text text-anchor="middle" x="89.5" y="-85.5" font-family="Helvetica,sans-Serif" font-size="10.00">std::vector&lt; std::string &gt;</text>
</a>
</g>
</g>
<!-- Node2&#45;&gt;Node1 -->
<g id="edge1" class="edge">
<title>Node2&#45;&gt;Node1</title>
<path fill="none" stroke="#9a32cd" stroke-dasharray="5,2" d="M89.5,-68.22C89.5,-52.7 89.5,-31.36 89.5,-19.62"/>
<polygon fill="#9a32cd" stroke="#9a32cd" points="86,-68.28 89.5,-78.28 93,-68.28 86,-68.28"/>
<text text-anchor="start" x="89.5" y="-52" font-family="Helvetica,sans-Serif" font-size="10.00"> template_component</text>
<text text-anchor="middle" x="143.5" y="-41" font-family="Helvetica,sans-Serif" font-size="10.00">_names</text>
</g>
<!-- Node3 -->
<g id="node3" class="node">
<title>Node3</title>
<g id="a_node3"><a xlink:title=" ">
<polygon fill="white" stroke="black" points="57,-145.5 57,-164.5 122,-164.5 122,-145.5 57,-145.5"/>
<text text-anchor="middle" x="89.5" y="-152.5" font-family="Helvetica,sans-Serif" font-size="10.00">std::string</text>
</a>
</g>
</g>
<!-- Node3&#45;&gt;Node2 -->
<g id="edge2" class="edge">
<title>Node3&#45;&gt;Node2</title>
<path fill="none" stroke="#9a32cd" stroke-dasharray="5,2" d="M89.5,-135.04C89.5,-122.67 89.5,-107.12 89.5,-97.63"/>
<polygon fill="#9a32cd" stroke="#9a32cd" points="86,-135.23 89.5,-145.23 93,-135.23 86,-135.23"/>
<text text-anchor="middle" x="114" y="-119" font-family="Helvetica,sans-Serif" font-size="10.00"> elements</text>
</g>
<!-- Node4 -->
<g id="node4" class="node">
<title>Node4</title>
<g id="a_node4"><a xlink:title=" ">
<polygon fill="white" stroke="black" points="37.5,-202.5 37.5,-232.5 141.5,-232.5 141.5,-202.5 37.5,-202.5"/>
<text text-anchor="start" x="45.5" y="-220.5" font-family="Helvetica,sans-Serif" font-size="10.00">std::basic_string&lt;</text>
<text text-anchor="middle" x="89.5" y="-209.5" font-family="Helvetica,sans-Serif" font-size="10.00"> Char &gt;</text>
</a>
</g>
</g>
<!-- Node4&#45;&gt;Node3 -->
<g id="edge3" class="edge">
<title>Node4&#45;&gt;Node3</title>
<path fill="none" stroke="midnightblue" d="M89.5,-192.35C89.5,-182.51 89.5,-171.78 89.5,-164.54"/>
<polygon fill="midnightblue" stroke="midnightblue" points="86,-192.47 89.5,-202.47 93,-192.47 86,-192.47"/>
</g>
</g>
</svg>
