<?xml version="1.0" encoding="UTF-8" standalone="no"?>
<!DOCTYPE svg PUBLIC "-//W3C//DTD SVG 1.1//EN"
 "http://www.w3.org/Graphics/SVG/1.1/DTD/svg11.dtd">
<!-- Generated by graphviz version 2.43.0 (0)
 -->
<!-- Title: ccf::jsgov::Proposal Pages: 1 -->
<svg width="133pt" height="308pt"
 viewBox="0.00 0.00 133.00 308.00" xmlns="http://www.w3.org/2000/svg" xmlns:xlink="http://www.w3.org/1999/xlink">
<g id="graph0" class="graph" transform="scale(1 1) rotate(0) translate(4 304)">
<title>ccf::jsgov::Proposal</title>
<polygon fill="white" stroke="transparent" points="-4,4 -4,-304 129,-304 129,4 -4,4"/>
<!-- Node1 -->
<g id="node1" class="node">
<title>Node1</title>
<g id="a_node1"><a xlink:title=" ">
<polygon fill="#bfbfbf" stroke="black" points="7.5,-0.5 7.5,-19.5 117.5,-19.5 117.5,-0.5 7.5,-0.5"/>
<text text-anchor="middle" x="62.5" y="-7.5" font-family="Helvetica,sans-Serif" font-size="10.00">ccf::jsgov::Proposal</text>
</a>
</g>
</g>
<!-- Node2 -->
<g id="node2" class="node">
<title>Node2</title>
<g id="a_node2"><a xlink:title=" ">
<polygon fill="white" stroke="black" points="0,-67.5 0,-97.5 125,-97.5 125,-67.5 0,-67.5"/>
<text text-anchor="start" x="8" y="-85.5" font-family="Helvetica,sans-Serif" font-size="10.00">std::vector&lt; ccf::jsgov</text>
<text text-anchor="middle" x="62.5" y="-74.5" font-family="Helvetica,sans-Serif" font-size="10.00">::Action &gt;</text>
</a>
</g>
</g>
<!-- Node2&#45;&gt;Node1 -->
<g id="edge1" class="edge">
<title>Node2&#45;&gt;Node1</title>
<path fill="none" stroke="#9a32cd" stroke-dasharray="5,2" d="M62.5,-57.09C62.5,-44.21 62.5,-29.2 62.5,-19.89"/>
<polygon fill="#9a32cd" stroke="#9a32cd" points="59,-57.23 62.5,-67.23 66,-57.23 59,-57.23"/>
<text text-anchor="middle" x="82" y="-41" font-family="Helvetica,sans-Serif" font-size="10.00"> actions</text>
</g>
<!-- Node3 -->
<g id="node3" class="node">
<title>Node3</title>
<g id="a_node3"><a xlink:href="structccf_1_1jsgov_1_1Action.html" target="_top" xlink:title=" ">
<polygon fill="white" stroke="black" points="13.5,-145.5 13.5,-164.5 111.5,-164.5 111.5,-145.5 13.5,-145.5"/>
<text text-anchor="middle" x="62.5" y="-152.5" font-family="Helvetica,sans-Serif" font-size="10.00">ccf::jsgov::Action</text>
</a>
</g>
</g>
<!-- Node3&#45;&gt;Node2 -->
<g id="edge2" class="edge">
<title>Node3&#45;&gt;Node2</title>
<path fill="none" stroke="#9a32cd" stroke-dasharray="5,2" d="M62.5,-135.24C62.5,-123.41 62.5,-108.38 62.5,-97.58"/>
<polygon fill="#9a32cd" stroke="#9a32cd" points="59,-135.36 62.5,-145.36 66,-135.36 59,-135.36"/>
<text text-anchor="middle" x="87" y="-119" font-family="Helvetica,sans-Serif" font-size="10.00"> elements</text>
</g>
<!-- Node4 -->
<g id="node4" class="node">
<title>Node4</title>
<g id="a_node4"><a xlink:title=" ">
<polygon fill="white" stroke="black" points="30,-212.5 30,-231.5 95,-231.5 95,-212.5 30,-212.5"/>
<text text-anchor="middle" x="62.5" y="-219.5" font-family="Helvetica,sans-Serif" font-size="10.00">std::string</text>
</a>
</g>
</g>
<!-- Node4&#45;&gt;Node3 -->
<g id="edge3" class="edge">
<title>Node4&#45;&gt;Node3</title>
<path fill="none" stroke="#9a32cd" stroke-dasharray="5,2" d="M62.5,-202.04C62.5,-189.67 62.5,-174.12 62.5,-164.63"/>
<polygon fill="#9a32cd" stroke="#9a32cd" points="59,-202.23 62.5,-212.23 66,-202.23 59,-202.23"/>
<text text-anchor="middle" x="78" y="-186" font-family="Helvetica,sans-Serif" font-size="10.00"> name</text>
</g>
<!-- Node5 -->
<g id="node5" class="node">
<title>Node5</title>
<g id="a_node5"><a xlink:title=" ">
<polygon fill="white" stroke="black" points="10.5,-269.5 10.5,-299.5 114.5,-299.5 114.5,-269.5 10.5,-269.5"/>
<text text-anchor="start" x="18.5" y="-287.5" font-family="Helvetica,sans-Serif" font-size="10.00">std::basic_string&lt;</text>
<text text-anchor="middle" x="62.5" y="-276.5" font-family="Helvetica,sans-Serif" font-size="10.00"> Char &gt;</text>
</a>
</g>
</g>
<!-- Node5&#45;&gt;Node4 -->
<g id="edge4" class="edge">
<title>Node5&#45;&gt;Node4</title>
<path fill="none" stroke="midnightblue" d="M62.5,-259.35C62.5,-249.51 62.5,-238.78 62.5,-231.54"/>
<polygon fill="midnightblue" stroke="midnightblue" points="59,-259.47 62.5,-269.47 66,-259.47 59,-259.47"/>
</g>
</g>
</svg>
