<?xml version="1.0" encoding="UTF-8" standalone="no"?>
<!DOCTYPE svg PUBLIC "-//W3C//DTD SVG 1.1//EN"
 "http://www.w3.org/Graphics/SVG/1.1/DTD/svg11.dtd">
<!-- Generated by graphviz version 2.43.0 (0)
 -->
<!-- Title: ccf::endpoints::EndpointDefinition Pages: 1 -->
<svg width="985pt" height="202pt"
 viewBox="0.00 0.00 985.00 202.00" xmlns="http://www.w3.org/2000/svg" xmlns:xlink="http://www.w3.org/1999/xlink">
<g id="graph0" class="graph" transform="scale(1 1) rotate(0) translate(4 198)">
<title>ccf::endpoints::EndpointDefinition</title>
<polygon fill="white" stroke="transparent" points="-4,4 -4,-198 981,-198 981,4 -4,4"/>
<!-- Node1 -->
<g id="node1" class="node">
<title>Node1</title>
<g id="a_node1"><a xlink:title=" ">
<polygon fill="#bfbfbf" stroke="black" points="844,-73 844,-103 977,-103 977,-73 844,-73"/>
<text text-anchor="start" x="852" y="-91" font-family="Helvetica,sans-Serif" font-size="10.00">ccf::endpoints::Endpoint</text>
<text text-anchor="middle" x="910.5" y="-80" font-family="Helvetica,sans-Serif" font-size="10.00">Definition</text>
</a>
</g>
</g>
<!-- Node2 -->
<g id="node2" class="node">
<title>Node2</title>
<g id="a_node2"><a xlink:href="structccf_1_1endpoints_1_1EndpointKey.html" target="_top" xlink:title=" ">
<polygon fill="white" stroke="black" points="329.5,-59.5 329.5,-78.5 480.5,-78.5 480.5,-59.5 329.5,-59.5"/>
<text text-anchor="middle" x="405" y="-66.5" font-family="Helvetica,sans-Serif" font-size="10.00">ccf::endpoints::EndpointKey</text>
</a>
</g>
</g>
<!-- Node2&#45;&gt;Node1 -->
<g id="edge1" class="edge">
<title>Node2&#45;&gt;Node1</title>
<path fill="none" stroke="#9a32cd" stroke-dasharray="5,2" d="M490.59,-72.19C590.13,-75.95 753.29,-82.11 843.81,-85.52"/>
<polygon fill="#9a32cd" stroke="#9a32cd" points="490.69,-68.69 480.56,-71.81 490.42,-75.69 490.69,-68.69"/>
<text text-anchor="middle" x="667" y="-84" font-family="Helvetica,sans-Serif" font-size="10.00"> dispatch</text>
</g>
<!-- Node3 -->
<g id="node3" class="node">
<title>Node3</title>
<g id="a_node3"><a xlink:title=" ">
<polygon fill="white" stroke="black" points="155.5,-117.5 155.5,-136.5 220.5,-136.5 220.5,-117.5 155.5,-117.5"/>
<text text-anchor="middle" x="188" y="-124.5" font-family="Helvetica,sans-Serif" font-size="10.00">std::string</text>
</a>
</g>
</g>
<!-- Node3&#45;&gt;Node1 -->
<g id="edge5" class="edge">
<title>Node3&#45;&gt;Node1</title>
<path fill="none" stroke="#9a32cd" stroke-dasharray="5,2" d="M231.02,-125.11C333.02,-120.47 601.83,-107.86 826,-94 831.8,-93.64 837.83,-93.25 843.87,-92.84"/>
<polygon fill="#9a32cd" stroke="#9a32cd" points="230.66,-121.63 220.83,-125.58 230.98,-128.62 230.66,-121.63"/>
<text text-anchor="middle" x="545" y="-114" font-family="Helvetica,sans-Serif" font-size="10.00"> full_uri_path</text>
</g>
<!-- Node3&#45;&gt;Node2 -->
<g id="edge2" class="edge">
<title>Node3&#45;&gt;Node2</title>
<path fill="none" stroke="#9a32cd" stroke-dasharray="5,2" d="M207.29,-110.64C219.38,-100.84 236.06,-89.13 253,-83 277.01,-74.31 304.51,-70.19 329.4,-68.43"/>
<polygon fill="#9a32cd" stroke="#9a32cd" points="204.75,-108.21 199.37,-117.33 209.26,-113.56 204.75,-108.21"/>
<text text-anchor="middle" x="277.5" y="-86" font-family="Helvetica,sans-Serif" font-size="10.00"> uri_path</text>
</g>
<!-- Node6 -->
<g id="node6" class="node">
<title>Node6</title>
<g id="a_node6"><a xlink:href="structccf_1_1endpoints_1_1EndpointProperties.html" target="_top" xlink:title=" ">
<polygon fill="white" stroke="black" points="600.5,-137 600.5,-167 733.5,-167 733.5,-137 600.5,-137"/>
<text text-anchor="start" x="608.5" y="-155" font-family="Helvetica,sans-Serif" font-size="10.00">ccf::endpoints::Endpoint</text>
<text text-anchor="middle" x="667" y="-144" font-family="Helvetica,sans-Serif" font-size="10.00">Properties</text>
</a>
</g>
</g>
<!-- Node3&#45;&gt;Node6 -->
<g id="edge9" class="edge">
<title>Node3&#45;&gt;Node6</title>
<path fill="none" stroke="#9a32cd" stroke-dasharray="5,2" d="M221.4,-140.25C231.42,-144.05 242.57,-147.97 253,-151 282.22,-159.48 289.74,-161.87 320,-165 435.83,-176.97 465.9,-173.93 582,-165 587.89,-164.55 593.98,-163.92 600.08,-163.18"/>
<polygon fill="#9a32cd" stroke="#9a32cd" points="222.41,-136.88 211.82,-136.53 219.88,-143.41 222.41,-136.88"/>
<text text-anchor="middle" x="405" y="-186" font-family="Helvetica,sans-Serif" font-size="10.00"> js_function</text>
<text text-anchor="middle" x="405" y="-175" font-family="Helvetica,sans-Serif" font-size="10.00">js_module</text>
</g>
<!-- Node7 -->
<g id="node7" class="node">
<title>Node7</title>
<g id="a_node7"><a xlink:title=" ">
<polygon fill="white" stroke="black" points="335,-136.5 335,-155.5 475,-155.5 475,-136.5 335,-136.5"/>
<text text-anchor="middle" x="405" y="-143.5" font-family="Helvetica,sans-Serif" font-size="10.00">std::vector&lt; std::string &gt;</text>
</a>
</g>
</g>
<!-- Node3&#45;&gt;Node7 -->
<g id="edge8" class="edge">
<title>Node3&#45;&gt;Node7</title>
<path fill="none" stroke="#9a32cd" stroke-dasharray="5,2" d="M230.69,-130.68C260.21,-133.29 300.49,-136.85 334.79,-139.88"/>
<polygon fill="#9a32cd" stroke="#9a32cd" points="230.99,-127.2 220.72,-129.8 230.38,-134.17 230.99,-127.2"/>
<text text-anchor="middle" x="277.5" y="-139" font-family="Helvetica,sans-Serif" font-size="10.00"> elements</text>
</g>
<!-- Node4 -->
<g id="node4" class="node">
<title>Node4</title>
<g id="a_node4"><a xlink:title=" ">
<polygon fill="white" stroke="black" points="0,-112 0,-142 104,-142 104,-112 0,-112"/>
<text text-anchor="start" x="8" y="-130" font-family="Helvetica,sans-Serif" font-size="10.00">std::basic_string&lt;</text>
<text text-anchor="middle" x="52" y="-119" font-family="Helvetica,sans-Serif" font-size="10.00"> Char &gt;</text>
</a>
</g>
</g>
<!-- Node4&#45;&gt;Node3 -->
<g id="edge3" class="edge">
<title>Node4&#45;&gt;Node3</title>
<path fill="none" stroke="midnightblue" d="M114.32,-127C128.57,-127 143.16,-127 155.49,-127"/>
<polygon fill="midnightblue" stroke="midnightblue" points="114.04,-123.5 104.04,-127 114.04,-130.5 114.04,-123.5"/>
</g>
<!-- Node5 -->
<g id="node5" class="node">
<title>Node5</title>
<g id="a_node5"><a xlink:href="classccf_1_1RESTVerb.html" target="_top" xlink:title=" ">
<polygon fill="white" stroke="black" points="146.5,-38.5 146.5,-57.5 229.5,-57.5 229.5,-38.5 146.5,-38.5"/>
<text text-anchor="middle" x="188" y="-45.5" font-family="Helvetica,sans-Serif" font-size="10.00">ccf::RESTVerb</text>
</a>
</g>
</g>
<!-- Node5&#45;&gt;Node2 -->
<g id="edge4" class="edge">
<title>Node5&#45;&gt;Node2</title>
<path fill="none" stroke="#9a32cd" stroke-dasharray="5,2" d="M239.83,-46.46C259.32,-46.39 281.73,-46.94 302,-49 322.83,-51.12 345.72,-55.42 364.53,-59.5"/>
<polygon fill="#9a32cd" stroke="#9a32cd" points="239.6,-42.96 229.63,-46.55 239.66,-49.96 239.6,-42.96"/>
<text text-anchor="middle" x="277.5" y="-52" font-family="Helvetica,sans-Serif" font-size="10.00"> verb</text>
</g>
<!-- Node6&#45;&gt;Node1 -->
<g id="edge6" class="edge">
<title>Node6&#45;&gt;Node1</title>
<path fill="none" stroke="#9a32cd" stroke-dasharray="5,2" d="M743.58,-140.8C769.93,-136.07 799.53,-129.82 826,-122 843.11,-116.95 861.54,-109.65 876.72,-103.11"/>
<polygon fill="#9a32cd" stroke="#9a32cd" points="742.9,-137.37 733.65,-142.54 744.11,-144.27 742.9,-137.37"/>
<text text-anchor="middle" x="789" y="-142" font-family="Helvetica,sans-Serif" font-size="10.00"> properties</text>
</g>
<!-- Node7&#45;&gt;Node6 -->
<g id="edge7" class="edge">
<title>Node7&#45;&gt;Node6</title>
<path fill="none" stroke="#9a32cd" stroke-dasharray="5,2" d="M485.53,-147.84C522.34,-148.68 565.54,-149.68 600.44,-150.49"/>
<polygon fill="#9a32cd" stroke="#9a32cd" points="485.41,-144.33 475.33,-147.6 485.25,-151.33 485.41,-144.33"/>
<text text-anchor="middle" x="545" y="-153" font-family="Helvetica,sans-Serif" font-size="10.00"> authn_policies</text>
</g>
<!-- Node8 -->
<g id="node8" class="node">
<title>Node8</title>
<g id="a_node8"><a xlink:title=" ">
<polygon fill="white" stroke="black" points="600,-1 600,-31 734,-31 734,-1 600,-1"/>
<text text-anchor="start" x="608" y="-19" font-family="Helvetica,sans-Serif" font-size="10.00">std::vector&lt; std::shared</text>
<text text-anchor="middle" x="667" y="-8" font-family="Helvetica,sans-Serif" font-size="10.00">_ptr&lt; AuthnPolicy &gt; &gt;</text>
</a>
</g>
</g>
<!-- Node8&#45;&gt;Node1 -->
<g id="edge10" class="edge">
<title>Node8&#45;&gt;Node1</title>
<path fill="none" stroke="#9a32cd" stroke-dasharray="5,2" d="M744.06,-24.6C770.45,-28.86 799.94,-35.07 826,-44 847.08,-51.23 869.33,-63.19 885.56,-72.82"/>
<polygon fill="#9a32cd" stroke="#9a32cd" points="744.52,-21.13 734.11,-23.07 743.45,-28.05 744.52,-21.13"/>
<text text-anchor="middle" x="789" y="-47" font-family="Helvetica,sans-Serif" font-size="10.00"> authn_policies</text>
</g>
<!-- Node9 -->
<g id="node9" class="node">
<title>Node9</title>
<g id="a_node9"><a xlink:title=" ">
<polygon fill="white" stroke="black" points="320,-1.5 320,-20.5 490,-20.5 490,-1.5 320,-1.5"/>
<text text-anchor="middle" x="405" y="-8.5" font-family="Helvetica,sans-Serif" font-size="10.00">std::shared_ptr&lt; AuthnPolicy &gt;</text>
</a>
</g>
</g>
<!-- Node9&#45;&gt;Node8 -->
<g id="edge11" class="edge">
<title>Node9&#45;&gt;Node8</title>
<path fill="none" stroke="#9a32cd" stroke-dasharray="5,2" d="M500.2,-12.81C533.26,-13.45 569.68,-14.15 599.94,-14.73"/>
<polygon fill="#9a32cd" stroke="#9a32cd" points="500.12,-9.31 490.06,-12.62 499.99,-16.31 500.12,-9.31"/>
<text text-anchor="middle" x="545" y="-18" font-family="Helvetica,sans-Serif" font-size="10.00"> elements</text>
</g>
<!-- Node10 -->
<g id="node10" class="node">
<title>Node10</title>
<g id="a_node10"><a xlink:href="classccf_1_1AuthnPolicy.html" target="_top" xlink:title=" ">
<polygon fill="white" stroke="black" points="141,-0.5 141,-19.5 235,-19.5 235,-0.5 141,-0.5"/>
<text text-anchor="middle" x="188" y="-7.5" font-family="Helvetica,sans-Serif" font-size="10.00">ccf::AuthnPolicy</text>
</a>
</g>
</g>
<!-- Node10&#45;&gt;Node9 -->
<g id="edge12" class="edge">
<title>Node10&#45;&gt;Node9</title>
<path fill="none" stroke="#9a32cd" stroke-dasharray="5,2" d="M245.28,-10.26C268.04,-10.37 294.79,-10.49 319.79,-10.61"/>
<polygon fill="#9a32cd" stroke="#9a32cd" points="245.14,-6.76 235.12,-10.21 245.11,-13.76 245.14,-6.76"/>
<text text-anchor="middle" x="277.5" y="-14" font-family="Helvetica,sans-Serif" font-size="10.00"> ptr</text>
</g>
</g>
</svg>
