<?xml version="1.0" encoding="UTF-8" standalone="no"?>
<!DOCTYPE svg PUBLIC "-//W3C//DTD SVG 1.1//EN"
 "http://www.w3.org/Graphics/SVG/1.1/DTD/svg11.dtd">
<!-- Generated by graphviz version 2.43.0 (0)
 -->
<!-- Title: ccf::historical::State Pages: 1 -->
<svg width="825pt" height="154pt"
 viewBox="0.00 0.00 825.00 154.00" xmlns="http://www.w3.org/2000/svg" xmlns:xlink="http://www.w3.org/1999/xlink">
<g id="graph0" class="graph" transform="scale(1 1) rotate(0) translate(4 150)">
<title>ccf::historical::State</title>
<polygon fill="white" stroke="transparent" points="-4,4 -4,-150 821,-150 821,4 -4,4"/>
<!-- Node1 -->
<g id="node1" class="node">
<title>Node1</title>
<g id="a_node1"><a xlink:title=" ">
<polygon fill="#bfbfbf" stroke="black" points="704,-60.5 704,-79.5 817,-79.5 817,-60.5 704,-60.5"/>
<text text-anchor="middle" x="760.5" y="-67.5" font-family="Helvetica,sans-Serif" font-size="10.00">ccf::historical::State</text>
</a>
</g>
</g>
<!-- Node2 -->
<g id="node2" class="node">
<title>Node2</title>
<g id="a_node2"><a xlink:title=" ">
<polygon fill="white" stroke="black" points="446.5,-104 446.5,-134 594.5,-134 594.5,-104 446.5,-104"/>
<text text-anchor="start" x="454.5" y="-122" font-family="Helvetica,sans-Serif" font-size="10.00">std::shared_ptr&lt; ReadOnly</text>
<text text-anchor="middle" x="520.5" y="-111" font-family="Helvetica,sans-Serif" font-size="10.00">Store &gt;</text>
</a>
</g>
</g>
<!-- Node2&#45;&gt;Node1 -->
<g id="edge1" class="edge">
<title>Node2&#45;&gt;Node1</title>
<path fill="none" stroke="#9a32cd" stroke-dasharray="5,2" d="M604.65,-101.88C641.06,-94.38 682.42,-85.87 713.22,-79.53"/>
<polygon fill="#9a32cd" stroke="#9a32cd" points="603.61,-98.52 594.53,-103.97 605.03,-105.38 603.61,-98.52"/>
<text text-anchor="middle" x="649.5" y="-101" font-family="Helvetica,sans-Serif" font-size="10.00"> store</text>
</g>
<!-- Node3 -->
<g id="node3" class="node">
<title>Node3</title>
<g id="a_node3"><a xlink:title=" ">
<polygon fill="white" stroke="black" points="446,-55 446,-85 595,-85 595,-55 446,-55"/>
<text text-anchor="start" x="454" y="-73" font-family="Helvetica,sans-Serif" font-size="10.00">std::shared_ptr&lt; TxReceipt</text>
<text text-anchor="middle" x="520.5" y="-62" font-family="Helvetica,sans-Serif" font-size="10.00">Impl &gt;</text>
</a>
</g>
</g>
<!-- Node3&#45;&gt;Node1 -->
<g id="edge2" class="edge">
<title>Node3&#45;&gt;Node1</title>
<path fill="none" stroke="#9a32cd" stroke-dasharray="5,2" d="M605.19,-70C637.92,-70 674.56,-70 703.93,-70"/>
<polygon fill="#9a32cd" stroke="#9a32cd" points="605.17,-66.5 595.17,-70 605.17,-73.5 605.17,-66.5"/>
<text text-anchor="middle" x="649.5" y="-73" font-family="Helvetica,sans-Serif" font-size="10.00"> receipt</text>
</g>
<!-- Node4 -->
<g id="node4" class="node">
<title>Node4</title>
<g id="a_node4"><a xlink:href="structccf_1_1TxReceiptImpl.html" target="_top" xlink:title=" ">
<polygon fill="white" stroke="black" points="286,-60.5 286,-79.5 393,-79.5 393,-60.5 286,-60.5"/>
<text text-anchor="middle" x="339.5" y="-67.5" font-family="Helvetica,sans-Serif" font-size="10.00">ccf::TxReceiptImpl</text>
</a>
</g>
</g>
<!-- Node4&#45;&gt;Node3 -->
<g id="edge3" class="edge">
<title>Node4&#45;&gt;Node3</title>
<path fill="none" stroke="#9a32cd" stroke-dasharray="5,2" d="M403.52,-70C417.23,-70 431.84,-70 445.92,-70"/>
<polygon fill="#9a32cd" stroke="#9a32cd" points="403.24,-66.5 393.24,-70 403.24,-73.5 403.24,-66.5"/>
<text text-anchor="middle" x="419.5" y="-73" font-family="Helvetica,sans-Serif" font-size="10.00"> ptr</text>
</g>
<!-- Node5 -->
<g id="node5" class="node">
<title>Node5</title>
<g id="a_node5"><a xlink:title=" ">
<polygon fill="white" stroke="black" points="27,-126.5 27,-145.5 152,-145.5 152,-126.5 27,-126.5"/>
<text text-anchor="middle" x="89.5" y="-133.5" font-family="Helvetica,sans-Serif" font-size="10.00">std::vector&lt; uint8_t &gt;</text>
</a>
</g>
</g>
<!-- Node5&#45;&gt;Node4 -->
<g id="edge4" class="edge">
<title>Node5&#45;&gt;Node4</title>
<path fill="none" stroke="#9a32cd" stroke-dasharray="5,2" d="M154.1,-124.5C188.2,-117.72 230.75,-108.25 268,-97 284.31,-92.07 302.24,-85.19 315.93,-79.6"/>
<polygon fill="#9a32cd" stroke="#9a32cd" points="153.4,-121.07 144.26,-126.43 154.74,-127.94 153.4,-121.07"/>
<text text-anchor="middle" x="232.5" y="-117" font-family="Helvetica,sans-Serif" font-size="10.00"> signature</text>
</g>
<!-- Node6 -->
<g id="node6" class="node">
<title>Node6</title>
<g id="a_node6"><a xlink:title=" ">
<polygon fill="white" stroke="black" points="31.5,-77 31.5,-107 147.5,-107 147.5,-77 31.5,-77"/>
<text text-anchor="start" x="39.5" y="-95" font-family="Helvetica,sans-Serif" font-size="10.00">std::shared_ptr&lt; ccf</text>
<text text-anchor="middle" x="89.5" y="-84" font-family="Helvetica,sans-Serif" font-size="10.00">::HistoryTree::Path &gt;</text>
</a>
</g>
</g>
<!-- Node6&#45;&gt;Node4 -->
<g id="edge5" class="edge">
<title>Node6&#45;&gt;Node4</title>
<path fill="none" stroke="#9a32cd" stroke-dasharray="5,2" d="M157.71,-86.04C197.98,-82.47 248.44,-77.99 285.81,-74.67"/>
<polygon fill="#9a32cd" stroke="#9a32cd" points="157.36,-82.56 147.71,-86.93 157.98,-89.53 157.36,-82.56"/>
<text text-anchor="middle" x="232.5" y="-85" font-family="Helvetica,sans-Serif" font-size="10.00"> path</text>
</g>
<!-- Node7 -->
<g id="node7" class="node">
<title>Node7</title>
<g id="a_node7"><a xlink:href="structccf_1_1EntityId.html" target="_top" xlink:title=" ">
<polygon fill="white" stroke="black" points="0,-38.5 0,-57.5 179,-57.5 179,-38.5 0,-38.5"/>
<text text-anchor="middle" x="89.5" y="-45.5" font-family="Helvetica,sans-Serif" font-size="10.00">ccf::EntityId&lt; NodeIdFormatter &gt;</text>
</a>
</g>
</g>
<!-- Node7&#45;&gt;Node4 -->
<g id="edge6" class="edge">
<title>Node7&#45;&gt;Node4</title>
<path fill="none" stroke="#9a32cd" stroke-dasharray="5,2" d="M189.18,-54.28C214.86,-56.17 242.49,-58.44 268,-61 273.77,-61.58 279.8,-62.25 285.79,-62.96"/>
<polygon fill="#9a32cd" stroke="#9a32cd" points="189.29,-50.78 179.06,-53.54 188.78,-57.76 189.29,-50.78"/>
<text text-anchor="middle" x="232.5" y="-64" font-family="Helvetica,sans-Serif" font-size="10.00"> node_id</text>
</g>
<!-- Node8 -->
<g id="node8" class="node">
<title>Node8</title>
<g id="a_node8"><a xlink:href="classccf_1_1ClaimsDigest.html" target="_top" xlink:title=" ">
<polygon fill="white" stroke="black" points="39,-0.5 39,-19.5 140,-19.5 140,-0.5 39,-0.5"/>
<text text-anchor="middle" x="89.5" y="-7.5" font-family="Helvetica,sans-Serif" font-size="10.00">ccf::ClaimsDigest</text>
</a>
</g>
</g>
<!-- Node8&#45;&gt;Node4 -->
<g id="edge7" class="edge">
<title>Node8&#45;&gt;Node4</title>
<path fill="none" stroke="#9a32cd" stroke-dasharray="5,2" d="M150.13,-17.12C184.93,-22.08 229.44,-29.84 268,-41 285.54,-46.07 304.66,-54.11 318.56,-60.43"/>
<polygon fill="#9a32cd" stroke="#9a32cd" points="150.51,-13.64 140.12,-15.73 149.55,-20.57 150.51,-13.64"/>
<text text-anchor="middle" x="232.5" y="-44" font-family="Helvetica,sans-Serif" font-size="10.00"> claims_digest</text>
</g>
<!-- Node9 -->
<g id="node9" class="node">
<title>Node9</title>
<g id="a_node9"><a xlink:href="structccf_1_1TxID.html" target="_top" xlink:title=" ">
<polygon fill="white" stroke="black" points="491,-16.5 491,-35.5 550,-35.5 550,-16.5 491,-16.5"/>
<text text-anchor="middle" x="520.5" y="-23.5" font-family="Helvetica,sans-Serif" font-size="10.00">ccf::TxID</text>
</a>
</g>
</g>
<!-- Node9&#45;&gt;Node1 -->
<g id="edge8" class="edge">
<title>Node9&#45;&gt;Node1</title>
<path fill="none" stroke="#9a32cd" stroke-dasharray="5,2" d="M560.31,-32.54C593.68,-38.24 643.07,-46.84 686,-55 694.96,-56.7 704.51,-58.6 713.66,-60.45"/>
<polygon fill="#9a32cd" stroke="#9a32cd" points="560.52,-29.02 550.07,-30.8 559.34,-35.93 560.52,-29.02"/>
<text text-anchor="middle" x="649.5" y="-58" font-family="Helvetica,sans-Serif" font-size="10.00"> transaction_id</text>
</g>
</g>
</svg>
