<?xml version="1.0" encoding="UTF-8" standalone="no"?>
<!DOCTYPE svg PUBLIC "-//W3C//DTD SVG 1.1//EN"
 "http://www.w3.org/Graphics/SVG/1.1/DTD/svg11.dtd">
<!-- Generated by graphviz version 2.43.0 (0)
 -->
<!-- Title: src/host/timer.h Pages: 1 -->
<svg width="705pt" height="151pt"
 viewBox="0.00 0.00 705.00 151.00" xmlns="http://www.w3.org/2000/svg" xmlns:xlink="http://www.w3.org/1999/xlink">
<g id="graph0" class="graph" transform="scale(1 1) rotate(0) translate(4 147)">
<title>src/host/timer.h</title>
<polygon fill="white" stroke="transparent" points="-4,4 -4,-147 701,-147 701,4 -4,4"/>
<!-- Node1 -->
<g id="node1" class="node">
<title>Node1</title>
<g id="a_node1"><a xlink:title=" ">
<polygon fill="#bfbfbf" stroke="black" points="313.5,-123.5 313.5,-142.5 405.5,-142.5 405.5,-123.5 313.5,-123.5"/>
<text text-anchor="middle" x="359.5" y="-130.5" font-family="Helvetica,sans-Serif" font-size="10.00">src/host/timer.h</text>
</a>
</g>
</g>
<!-- Node2 -->
<g id="node2" class="node">
<title>Node2</title>
<g id="a_node2"><a xlink:href="handle__ring__buffer_8h.html" target="_top" xlink:title=" ">
<polygon fill="white" stroke="black" points="0,-56.5 0,-86.5 115,-86.5 115,-56.5 0,-56.5"/>
<text text-anchor="start" x="8" y="-74.5" font-family="Helvetica,sans-Serif" font-size="10.00">src/host/handle_ring</text>
<text text-anchor="middle" x="57.5" y="-63.5" font-family="Helvetica,sans-Serif" font-size="10.00">_buffer.h</text>
</a>
</g>
</g>
<!-- Node1&#45;&gt;Node2 -->
<g id="edge1" class="edge">
<title>Node1&#45;&gt;Node2</title>
<path fill="none" stroke="midnightblue" d="M303.44,-121.77C255.57,-112.92 184.92,-99.6 123.5,-87 120.74,-86.43 117.92,-85.85 115.07,-85.25"/>
<polygon fill="midnightblue" stroke="midnightblue" points="302.83,-125.21 313.3,-123.58 304.1,-118.33 302.83,-125.21"/>
</g>
<!-- Node4 -->
<g id="node4" class="node">
<title>Node4</title>
<g id="a_node4"><a xlink:href="load__monitor_8h.html" target="_top" xlink:title=" ">
<polygon fill="white" stroke="black" points="133,-62 133,-81 264,-81 264,-62 133,-62"/>
<text text-anchor="middle" x="198.5" y="-69" font-family="Helvetica,sans-Serif" font-size="10.00">src/host/load_monitor.h</text>
</a>
</g>
</g>
<!-- Node1&#45;&gt;Node4 -->
<g id="edge3" class="edge">
<title>Node1&#45;&gt;Node4</title>
<path fill="none" stroke="midnightblue" d="M326.85,-119.93C295.56,-108.37 249.12,-91.21 221.52,-81.01"/>
<polygon fill="midnightblue" stroke="midnightblue" points="325.84,-123.29 336.43,-123.48 328.27,-116.73 325.84,-123.29"/>
</g>
<!-- Node5 -->
<g id="node5" class="node">
<title>Node5</title>
<g id="a_node5"><a xlink:href="node__connections_8h.html" target="_top" xlink:title=" ">
<polygon fill="white" stroke="black" points="282,-62 282,-81 437,-81 437,-62 282,-62"/>
<text text-anchor="middle" x="359.5" y="-69" font-family="Helvetica,sans-Serif" font-size="10.00">src/host/node_connections.h</text>
</a>
</g>
</g>
<!-- Node1&#45;&gt;Node5 -->
<g id="edge5" class="edge">
<title>Node1&#45;&gt;Node5</title>
<path fill="none" stroke="midnightblue" d="M359.5,-113.32C359.5,-102.5 359.5,-89.4 359.5,-81.01"/>
<polygon fill="midnightblue" stroke="midnightblue" points="356,-113.48 359.5,-123.48 363,-113.48 356,-113.48"/>
</g>
<!-- Node6 -->
<g id="node6" class="node">
<title>Node6</title>
<g id="a_node6"><a xlink:href="ticker_8h.html" target="_top" xlink:title=" ">
<polygon fill="white" stroke="black" points="455,-62 455,-81 548,-81 548,-62 455,-62"/>
<text text-anchor="middle" x="501.5" y="-69" font-family="Helvetica,sans-Serif" font-size="10.00">src/host/ticker.h</text>
</a>
</g>
</g>
<!-- Node1&#45;&gt;Node6 -->
<g id="edge7" class="edge">
<title>Node1&#45;&gt;Node6</title>
<path fill="none" stroke="midnightblue" d="M389.38,-119.48C416.96,-107.92 457.17,-91.08 481.19,-81.01"/>
<polygon fill="midnightblue" stroke="midnightblue" points="387.72,-116.38 379.85,-123.48 390.42,-122.84 387.72,-116.38"/>
</g>
<!-- Node7 -->
<g id="node7" class="node">
<title>Node7</title>
<g id="a_node7"><a xlink:href="time__updater_8h.html" target="_top" xlink:title=" ">
<polygon fill="white" stroke="black" points="566,-62 566,-81 697,-81 697,-62 566,-62"/>
<text text-anchor="middle" x="631.5" y="-69" font-family="Helvetica,sans-Serif" font-size="10.00">src/host/time_updater.h</text>
</a>
</g>
</g>
<!-- Node1&#45;&gt;Node7 -->
<g id="edge9" class="edge">
<title>Node1&#45;&gt;Node7</title>
<path fill="none" stroke="midnightblue" d="M408.28,-121.33C461.02,-109.79 544.06,-91.63 592.6,-81.01"/>
<polygon fill="midnightblue" stroke="midnightblue" points="407.49,-117.92 398.47,-123.48 408.99,-124.76 407.49,-117.92"/>
</g>
<!-- Node3 -->
<g id="node3" class="node">
<title>Node3</title>
<g id="a_node3"><a xlink:href="host_2main_8cpp.html" target="_top" xlink:title=" ">
<polygon fill="white" stroke="black" points="308,-0.5 308,-19.5 411,-19.5 411,-0.5 308,-0.5"/>
<text text-anchor="middle" x="359.5" y="-7.5" font-family="Helvetica,sans-Serif" font-size="10.00">src/host/main.cpp</text>
</a>
</g>
</g>
<!-- Node2&#45;&gt;Node3 -->
<g id="edge2" class="edge">
<title>Node2&#45;&gt;Node3</title>
<path fill="none" stroke="midnightblue" d="M125.03,-55.72C195.63,-41.32 266.86,-27.97 312.41,-19.58"/>
<polygon fill="midnightblue" stroke="midnightblue" points="124.17,-52.32 115.07,-57.75 125.57,-59.18 124.17,-52.32"/>
</g>
<!-- Node4&#45;&gt;Node3 -->
<g id="edge4" class="edge">
<title>Node4&#45;&gt;Node3</title>
<path fill="none" stroke="midnightblue" d="M231.15,-58.43C262.44,-46.87 308.88,-29.71 336.48,-19.51"/>
<polygon fill="midnightblue" stroke="midnightblue" points="229.73,-55.23 221.57,-61.98 232.16,-61.79 229.73,-55.23"/>
</g>
<!-- Node5&#45;&gt;Node3 -->
<g id="edge6" class="edge">
<title>Node5&#45;&gt;Node3</title>
<path fill="none" stroke="midnightblue" d="M359.5,-51.82C359.5,-41 359.5,-27.9 359.5,-19.51"/>
<polygon fill="midnightblue" stroke="midnightblue" points="356,-51.98 359.5,-61.98 363,-51.98 356,-51.98"/>
</g>
<!-- Node6&#45;&gt;Node3 -->
<g id="edge8" class="edge">
<title>Node6&#45;&gt;Node3</title>
<path fill="none" stroke="midnightblue" d="M471.62,-57.98C444.04,-46.42 403.83,-29.58 379.81,-19.51"/>
<polygon fill="midnightblue" stroke="midnightblue" points="470.58,-61.34 481.15,-61.98 473.28,-54.88 470.58,-61.34"/>
</g>
<!-- Node7&#45;&gt;Node3 -->
<g id="edge10" class="edge">
<title>Node7&#45;&gt;Node3</title>
<path fill="none" stroke="midnightblue" d="M582.72,-59.83C529.98,-48.29 446.94,-30.13 398.4,-19.51"/>
<polygon fill="midnightblue" stroke="midnightblue" points="582.01,-63.26 592.53,-61.98 583.51,-56.42 582.01,-63.26"/>
</g>
</g>
</svg>
