<?xml version="1.0" encoding="UTF-8" standalone="no"?>
<!DOCTYPE svg PUBLIC "-//W3C//DTD SVG 1.1//EN"
 "http://www.w3.org/Graphics/SVG/1.1/DTD/svg11.dtd">
<!-- Generated by graphviz version 2.43.0 (0)
 -->
<!-- Title: src/tls/tls.h Pages: 1 -->
<!--zoomable 375 -->
<svg id="main" version="1.1" xmlns="http://www.w3.org/2000/svg" xmlns:xlink="http://www.w3.org/1999/xlink" xml:space="preserve" onload="init(evt)">
<style type="text/css"><![CDATA[
.edge:hover path { stroke: red; }
.edge:hover polygon { stroke: red; fill: red; }
]]></style>
<script type="text/javascript"><![CDATA[
var edges = document.getElementsByTagName('g');
if (edges && edges.length) {
  for (var i=0;i<edges.length;i++) {
    if (edges[i].id.substr(0,4)=='edge') {
      edges[i].setAttribute('class','edge');
    }
  }
}
]]></script>
        <defs>
                <circle id="rim" cx="0" cy="0" r="7"/>
                <circle id="rim2" cx="0" cy="0" r="3.5"/>
                <g id="zoomPlus">
                        <use xlink:href="#rim" fill="#404040">
                                <set attributeName="fill" to="#808080" begin="zoomplus.mouseover" end="zoomplus.mouseout"/>
                        </use>
                        <path d="M-4,0h8M0,-4v8" fill="none" stroke="white" stroke-width="1.5" pointer-events="none"/>
                </g>
                <g id="zoomMin">
                        <use xlink:href="#rim" fill="#404040">
                                <set attributeName="fill" to="#808080" begin="zoomminus.mouseover" end="zoomminus.mouseout"/>
                        </use>
                        <path d="M-4,0h8" fill="none" stroke="white" stroke-width="1.5" pointer-events="none"/>
                </g>
                <g id="dirArrow">
                        <path fill="none" stroke="white" stroke-width="1.5" d="M0,-3.0v7 M-2.5,-0.5L0,-3.0L2.5,-0.5"/>
                </g>
               <g id="resetDef">
                       <use xlink:href="#rim2" fill="#404040">
                               <set attributeName="fill" to="#808080" begin="reset.mouseover" end="reset.mouseout"/>
                       </use>
               </g>
        </defs>

<script type="text/javascript">
var viewWidth = 1624;
var viewHeight = 375;
var sectionId = 'dynsection-0';
</script>
<script xlink:href="svgpan.js"/>
<svg id="graph" class="graph">
<g id="viewport">
<title>src/tls/tls.h</title>
<polygon fill="white" stroke="transparent" points="-4,4 -4,-371 1620.48,-371 1620.48,4 -4,4"/>
<!-- Node1 -->
<g id="node1" class="node">
<title>Node1</title>
<g id="a_node1"><a xlink:title=" ">
<polygon fill="#bfbfbf" stroke="black" points="399,-347.5 399,-366.5 469,-366.5 469,-347.5 399,-347.5"/>
<text text-anchor="middle" x="434" y="-354.5" font-family="Helvetica,sans-Serif" font-size="10.00">src/tls/tls.h</text>
</a>
</g>
</g>
<!-- Node2 -->
<g id="node2" class="node">
<title>Node2</title>
<g id="a_node2"><a xlink:href="openssl__wrappers_8h.html" target="_top" xlink:title=" ">
<polygon fill="white" stroke="black" points="859,-280.5 859,-310.5 987,-310.5 987,-280.5 859,-280.5"/>
<text text-anchor="start" x="867" y="-298.5" font-family="Helvetica,sans-Serif" font-size="10.00">crypto/openssl/openssl</text>
<text text-anchor="middle" x="923" y="-287.5" font-family="Helvetica,sans-Serif" font-size="10.00">_wrappers.h</text>
</a>
</g>
</g>
<!-- Node1&#45;&gt;Node2 -->
<g id="edge1" class="edge">
<title>Node1&#45;&gt;Node2</title>
<path fill="none" stroke="midnightblue" d="M469.17,-351.72C548.3,-342.09 741.78,-318.55 848.8,-305.53"/>
<polygon fill="midnightblue" stroke="midnightblue" points="849.37,-308.98 858.88,-304.3 848.53,-302.04 849.37,-308.98"/>
</g>
<!-- Node6 -->
<g id="node6" class="node">
<title>Node6</title>
<g id="a_node6"><a xlink:title=" ">
<polygon fill="white" stroke="#bfbfbf" points="529,-0.5 529,-19.5 573,-19.5 573,-0.5 529,-0.5"/>
<text text-anchor="middle" x="551" y="-7.5" font-family="Helvetica,sans-Serif" font-size="10.00">string</text>
</a>
</g>
</g>
<!-- Node1&#45;&gt;Node6 -->
<g id="edge46" class="edge">
<title>Node1&#45;&gt;Node6</title>
<path fill="none" stroke="midnightblue" d="M398.85,-353.77C295.53,-346.28 0,-317.62 0,-235 0,-235 0,-235 0,-121 0,-14.58 400.25,-9.66 518.49,-10.53"/>
<polygon fill="midnightblue" stroke="midnightblue" points="518.69,-14.03 528.72,-10.62 518.75,-7.03 518.69,-14.03"/>
</g>
<!-- Node3 -->
<g id="node3" class="node">
<title>Node3</title>
<g id="a_node3"><a xlink:href="pem_8h.html" target="_top" xlink:title=" ">
<polygon fill="white" stroke="black" points="555,-224.5 555,-243.5 653,-243.5 653,-224.5 555,-224.5"/>
<text text-anchor="middle" x="604" y="-231.5" font-family="Helvetica,sans-Serif" font-size="10.00">ccf/crypto/pem.h</text>
</a>
</g>
</g>
<!-- Node2&#45;&gt;Node3 -->
<g id="edge2" class="edge">
<title>Node2&#45;&gt;Node3</title>
<path fill="none" stroke="midnightblue" d="M858.83,-282.53C800.59,-271.67 715.58,-255.81 660.03,-245.45"/>
<polygon fill="midnightblue" stroke="midnightblue" points="660.48,-241.97 650.01,-243.58 659.2,-248.86 660.48,-241.97"/>
</g>
<!-- Node15 -->
<g id="node15" class="node">
<title>Node15</title>
<g id="a_node15"><a xlink:title=" ">
<polygon fill="white" stroke="#bfbfbf" points="398.5,-56.5 398.5,-75.5 477.5,-75.5 477.5,-56.5 398.5,-56.5"/>
<text text-anchor="middle" x="438" y="-63.5" font-family="Helvetica,sans-Serif" font-size="10.00">fmt/format.h</text>
</a>
</g>
</g>
<!-- Node2&#45;&gt;Node15 -->
<g id="edge35" class="edge">
<title>Node2&#45;&gt;Node15</title>
<path fill="none" stroke="midnightblue" d="M858.8,-292.09C765.28,-287.55 597.16,-275.21 546,-244 489.13,-209.31 509.44,-169.02 475,-112 468.87,-101.85 460.59,-91.55 453.42,-83.38"/>
<polygon fill="midnightblue" stroke="midnightblue" points="455.79,-80.78 446.48,-75.72 450.6,-85.48 455.79,-80.78"/>
</g>
<!-- Node20 -->
<g id="node20" class="node">
<title>Node20</title>
<g id="a_node20"><a xlink:title=" ">
<polygon fill="white" stroke="#bfbfbf" points="1274,-168.5 1274,-187.5 1332,-187.5 1332,-168.5 1274,-168.5"/>
<text text-anchor="middle" x="1303" y="-175.5" font-family="Helvetica,sans-Serif" font-size="10.00">memory</text>
</a>
</g>
</g>
<!-- Node2&#45;&gt;Node20 -->
<g id="edge36" class="edge">
<title>Node2&#45;&gt;Node20</title>
<path fill="none" stroke="midnightblue" d="M987.07,-294.65C1149.94,-294.37 1569.98,-289.22 1612,-244 1618.05,-237.49 1617.81,-230.72 1612,-224 1577.54,-184.15 1417.29,-178.87 1342.12,-178.64"/>
<polygon fill="midnightblue" stroke="midnightblue" points="1342.1,-175.14 1332.1,-178.64 1342.1,-182.14 1342.1,-175.14"/>
</g>
<!-- Node22 -->
<g id="node22" class="node">
<title>Node22</title>
<g id="a_node22"><a xlink:title=" ">
<polygon fill="white" stroke="#bfbfbf" points="28,-112.5 28,-131.5 78,-131.5 78,-112.5 28,-112.5"/>
<text text-anchor="middle" x="53" y="-119.5" font-family="Helvetica,sans-Serif" font-size="10.00">chrono</text>
</a>
</g>
</g>
<!-- Node2&#45;&gt;Node22 -->
<g id="edge26" class="edge">
<title>Node2&#45;&gt;Node22</title>
<path fill="none" stroke="midnightblue" d="M858.83,-292.8C761.15,-289.17 569.74,-277.99 411,-244 334.45,-227.61 318.17,-213.05 244,-188 189.32,-169.53 125.9,-147.91 87.65,-134.84"/>
<polygon fill="midnightblue" stroke="midnightblue" points="88.61,-131.47 78.02,-131.55 86.35,-138.1 88.61,-131.47"/>
</g>
<!-- Node23 -->
<g id="node23" class="node">
<title>Node23</title>
<g id="a_node23"><a xlink:href="x509__time__fmt_8h.html" target="_top" xlink:title=" ">
<polygon fill="white" stroke="black" points="253,-168.5 253,-187.5 367,-187.5 367,-168.5 253,-168.5"/>
<text text-anchor="middle" x="310" y="-175.5" font-family="Helvetica,sans-Serif" font-size="10.00">ds/x509_time_fmt.h</text>
</a>
</g>
</g>
<!-- Node2&#45;&gt;Node23 -->
<g id="edge27" class="edge">
<title>Node2&#45;&gt;Node23</title>
<path fill="none" stroke="midnightblue" d="M858.85,-292.62C770.86,-288.84 608.33,-277.54 474,-244 423.64,-231.43 368.09,-207.02 336.28,-191.95"/>
<polygon fill="midnightblue" stroke="midnightblue" points="337.74,-188.77 327.21,-187.6 334.71,-195.08 337.74,-188.77"/>
</g>
<!-- Node27 -->
<g id="node27" class="node">
<title>Node27</title>
<g id="a_node27"><a xlink:title=" ">
<polygon fill="white" stroke="#bfbfbf" points="671.5,-224.5 671.5,-243.5 760.5,-243.5 760.5,-224.5 671.5,-224.5"/>
<text text-anchor="middle" x="716" y="-231.5" font-family="Helvetica,sans-Serif" font-size="10.00">openssl/asn1.h</text>
</a>
</g>
</g>
<!-- Node2&#45;&gt;Node27 -->
<g id="edge37" class="edge">
<title>Node2&#45;&gt;Node27</title>
<path fill="none" stroke="midnightblue" d="M874.21,-280.47C838.03,-270.08 789.33,-256.08 755.56,-246.37"/>
<polygon fill="midnightblue" stroke="midnightblue" points="756.17,-242.91 745.59,-243.51 754.24,-249.63 756.17,-242.91"/>
</g>
<!-- Node28 -->
<g id="node28" class="node">
<title>Node28</title>
<g id="a_node28"><a xlink:title=" ">
<polygon fill="white" stroke="#bfbfbf" points="778.5,-224.5 778.5,-243.5 855.5,-243.5 855.5,-224.5 778.5,-224.5"/>
<text text-anchor="middle" x="817" y="-231.5" font-family="Helvetica,sans-Serif" font-size="10.00">openssl/ec.h</text>
</a>
</g>
</g>
<!-- Node2&#45;&gt;Node28 -->
<g id="edge38" class="edge">
<title>Node2&#45;&gt;Node28</title>
<path fill="none" stroke="midnightblue" d="M897.88,-280.4C880.73,-270.77 858.14,-258.09 841.19,-248.58"/>
<polygon fill="midnightblue" stroke="midnightblue" points="842.86,-245.5 832.42,-243.66 839.43,-251.6 842.86,-245.5"/>
</g>
<!-- Node29 -->
<g id="node29" class="node">
<title>Node29</title>
<g id="a_node29"><a xlink:title=" ">
<polygon fill="white" stroke="#bfbfbf" points="873.5,-224.5 873.5,-243.5 972.5,-243.5 972.5,-224.5 873.5,-224.5"/>
<text text-anchor="middle" x="923" y="-231.5" font-family="Helvetica,sans-Serif" font-size="10.00">openssl/engine.h</text>
</a>
</g>
</g>
<!-- Node2&#45;&gt;Node29 -->
<g id="edge39" class="edge">
<title>Node2&#45;&gt;Node29</title>
<path fill="none" stroke="midnightblue" d="M923,-280.4C923,-272.47 923,-262.46 923,-253.86"/>
<polygon fill="midnightblue" stroke="midnightblue" points="926.5,-253.66 923,-243.66 919.5,-253.66 926.5,-253.66"/>
</g>
<!-- Node30 -->
<g id="node30" class="node">
<title>Node30</title>
<g id="a_node30"><a xlink:title=" ">
<polygon fill="white" stroke="#bfbfbf" points="990.5,-224.5 990.5,-243.5 1069.5,-243.5 1069.5,-224.5 990.5,-224.5"/>
<text text-anchor="middle" x="1030" y="-231.5" font-family="Helvetica,sans-Serif" font-size="10.00">openssl/err.h</text>
</a>
</g>
</g>
<!-- Node2&#45;&gt;Node30 -->
<g id="edge40" class="edge">
<title>Node2&#45;&gt;Node30</title>
<path fill="none" stroke="midnightblue" d="M948.36,-280.4C965.67,-270.77 988.48,-258.09 1005.58,-248.58"/>
<polygon fill="midnightblue" stroke="midnightblue" points="1007.39,-251.58 1014.43,-243.66 1003.99,-245.46 1007.39,-251.58"/>
</g>
<!-- Node31 -->
<g id="node31" class="node">
<title>Node31</title>
<g id="a_node31"><a xlink:title=" ">
<polygon fill="white" stroke="#bfbfbf" points="1087,-224.5 1087,-243.5 1171,-243.5 1171,-224.5 1087,-224.5"/>
<text text-anchor="middle" x="1129" y="-231.5" font-family="Helvetica,sans-Serif" font-size="10.00">openssl/evp.h</text>
</a>
</g>
</g>
<!-- Node2&#45;&gt;Node31 -->
<g id="edge41" class="edge">
<title>Node2&#45;&gt;Node31</title>
<path fill="none" stroke="midnightblue" d="M971.56,-280.47C1007.56,-270.08 1056.02,-256.08 1089.63,-246.37"/>
<polygon fill="midnightblue" stroke="midnightblue" points="1090.91,-249.64 1099.55,-243.51 1088.97,-242.92 1090.91,-249.64"/>
</g>
<!-- Node32 -->
<g id="node32" class="node">
<title>Node32</title>
<g id="a_node32"><a xlink:title=" ">
<polygon fill="white" stroke="#bfbfbf" points="1189,-224.5 1189,-243.5 1277,-243.5 1277,-224.5 1189,-224.5"/>
<text text-anchor="middle" x="1233" y="-231.5" font-family="Helvetica,sans-Serif" font-size="10.00">openssl/pem.h</text>
</a>
</g>
</g>
<!-- Node2&#45;&gt;Node32 -->
<g id="edge42" class="edge">
<title>Node2&#45;&gt;Node32</title>
<path fill="none" stroke="midnightblue" d="M987.23,-282.17C1043.88,-271.3 1125.5,-255.63 1178.89,-245.39"/>
<polygon fill="midnightblue" stroke="midnightblue" points="1179.68,-248.8 1188.84,-243.48 1178.36,-241.92 1179.68,-248.8"/>
</g>
<!-- Node33 -->
<g id="node33" class="node">
<title>Node33</title>
<g id="a_node33"><a xlink:title=" ">
<polygon fill="white" stroke="#bfbfbf" points="1295,-224.5 1295,-243.5 1375,-243.5 1375,-224.5 1295,-224.5"/>
<text text-anchor="middle" x="1335" y="-231.5" font-family="Helvetica,sans-Serif" font-size="10.00">openssl/ssl.h</text>
</a>
</g>
</g>
<!-- Node2&#45;&gt;Node33 -->
<g id="edge43" class="edge">
<title>Node2&#45;&gt;Node33</title>
<path fill="none" stroke="midnightblue" d="M987.06,-286.44C1057.56,-277.38 1174.47,-261.79 1284.93,-244.12"/>
<polygon fill="midnightblue" stroke="midnightblue" points="1285.6,-247.55 1294.91,-242.51 1284.48,-240.64 1285.6,-247.55"/>
</g>
<!-- Node34 -->
<g id="node34" class="node">
<title>Node34</title>
<g id="a_node34"><a xlink:title=" ">
<polygon fill="white" stroke="#bfbfbf" points="1393,-224.5 1393,-243.5 1483,-243.5 1483,-224.5 1393,-224.5"/>
<text text-anchor="middle" x="1438" y="-231.5" font-family="Helvetica,sans-Serif" font-size="10.00">openssl/x509.h</text>
</a>
</g>
</g>
<!-- Node2&#45;&gt;Node34 -->
<g id="edge44" class="edge">
<title>Node2&#45;&gt;Node34</title>
<path fill="none" stroke="midnightblue" d="M987.28,-288.61C1074.49,-280.35 1235.4,-264.23 1382.81,-244.1"/>
<polygon fill="midnightblue" stroke="midnightblue" points="1383.52,-247.53 1392.95,-242.7 1382.56,-240.6 1383.52,-247.53"/>
</g>
<!-- Node35 -->
<g id="node35" class="node">
<title>Node35</title>
<g id="a_node35"><a xlink:title=" ">
<polygon fill="white" stroke="#bfbfbf" points="1501,-224.5 1501,-243.5 1603,-243.5 1603,-224.5 1501,-224.5"/>
<text text-anchor="middle" x="1552" y="-231.5" font-family="Helvetica,sans-Serif" font-size="10.00">openssl/x509v3.h</text>
</a>
</g>
</g>
<!-- Node2&#45;&gt;Node35 -->
<g id="edge45" class="edge">
<title>Node2&#45;&gt;Node35</title>
<path fill="none" stroke="midnightblue" d="M987.13,-290.08C1090.78,-282.65 1301.74,-266.37 1490.84,-244.07"/>
<polygon fill="midnightblue" stroke="midnightblue" points="1491.45,-247.52 1500.97,-242.87 1490.62,-240.57 1491.45,-247.52"/>
</g>
<!-- Node4 -->
<g id="node4" class="node">
<title>Node4</title>
<g id="a_node4"><a xlink:href="json_8h.html" target="_top" xlink:title=" ">
<polygon fill="white" stroke="black" points="516.5,-168.5 516.5,-187.5 593.5,-187.5 593.5,-168.5 516.5,-168.5"/>
<text text-anchor="middle" x="555" y="-175.5" font-family="Helvetica,sans-Serif" font-size="10.00">ccf/ds/json.h</text>
</a>
</g>
</g>
<!-- Node3&#45;&gt;Node4 -->
<g id="edge3" class="edge">
<title>Node3&#45;&gt;Node4</title>
<path fill="none" stroke="midnightblue" d="M595.91,-224.08C588.84,-216.3 578.41,-204.8 569.85,-195.37"/>
<polygon fill="midnightblue" stroke="midnightblue" points="572.25,-192.8 562.94,-187.75 567.07,-197.51 572.25,-192.8"/>
</g>
<!-- Node7 -->
<g id="node7" class="node">
<title>Node7</title>
<g id="a_node7"><a xlink:title=" ">
<polygon fill="white" stroke="#bfbfbf" points="597.5,-0.5 597.5,-19.5 644.5,-19.5 644.5,-0.5 597.5,-0.5"/>
<text text-anchor="middle" x="621" y="-7.5" font-family="Helvetica,sans-Serif" font-size="10.00">vector</text>
</a>
</g>
</g>
<!-- Node3&#45;&gt;Node7 -->
<g id="edge25" class="edge">
<title>Node3&#45;&gt;Node7</title>
<path fill="none" stroke="midnightblue" d="M649.24,-224.44C685.67,-216.52 732.61,-203.63 744,-188 778.56,-140.59 777.61,-104.08 744,-56 738.62,-48.3 688.97,-31.8 654.42,-21.06"/>
<polygon fill="midnightblue" stroke="midnightblue" points="655.27,-17.66 644.69,-18.07 653.21,-24.35 655.27,-17.66"/>
</g>
<!-- Node13 -->
<g id="node13" class="node">
<title>Node13</title>
<g id="a_node13"><a xlink:title=" ">
<polygon fill="white" stroke="#bfbfbf" points="962.5,-0.5 962.5,-19.5 1035.5,-19.5 1035.5,-0.5 962.5,-0.5"/>
<text text-anchor="middle" x="999" y="-7.5" font-family="Helvetica,sans-Serif" font-size="10.00">string_view</text>
</a>
</g>
</g>
<!-- Node3&#45;&gt;Node13 -->
<g id="edge24" class="edge">
<title>Node3&#45;&gt;Node13</title>
<path fill="none" stroke="midnightblue" d="M653.07,-224.9C722.38,-213.33 841.52,-192.93 850,-188 918.27,-148.37 969.53,-65.27 989.66,-28.8"/>
<polygon fill="midnightblue" stroke="midnightblue" points="992.84,-30.29 994.51,-19.83 986.68,-26.97 992.84,-30.29"/>
</g>
<!-- Node18 -->
<g id="node18" class="node">
<title>Node18</title>
<g id="a_node18"><a xlink:title=" ">
<polygon fill="white" stroke="#bfbfbf" points="791,-168.5 791,-187.5 841,-187.5 841,-168.5 791,-168.5"/>
<text text-anchor="middle" x="816" y="-175.5" font-family="Helvetica,sans-Serif" font-size="10.00">cstring</text>
</a>
</g>
</g>
<!-- Node3&#45;&gt;Node18 -->
<g id="edge20" class="edge">
<title>Node3&#45;&gt;Node18</title>
<path fill="none" stroke="midnightblue" d="M637.59,-224.44C676.79,-214.46 741.31,-198.03 781.07,-187.9"/>
<polygon fill="midnightblue" stroke="midnightblue" points="782.04,-191.26 790.86,-185.4 780.31,-184.48 782.04,-191.26"/>
</g>
<!-- Node19 -->
<g id="node19" class="node">
<title>Node19</title>
<g id="a_node19"><a xlink:title=" ">
<polygon fill="white" stroke="#bfbfbf" points="611.5,-168.5 611.5,-187.5 676.5,-187.5 676.5,-168.5 611.5,-168.5"/>
<text text-anchor="middle" x="644" y="-175.5" font-family="Helvetica,sans-Serif" font-size="10.00">exception</text>
</a>
</g>
</g>
<!-- Node3&#45;&gt;Node19 -->
<g id="edge21" class="edge">
<title>Node3&#45;&gt;Node19</title>
<path fill="none" stroke="midnightblue" d="M610.61,-224.08C616.26,-216.46 624.54,-205.26 631.45,-195.94"/>
<polygon fill="midnightblue" stroke="midnightblue" points="634.38,-197.87 637.52,-187.75 628.75,-193.7 634.38,-197.87"/>
</g>
<!-- Node3&#45;&gt;Node20 -->
<g id="edge22" class="edge">
<title>Node3&#45;&gt;Node20</title>
<path fill="none" stroke="midnightblue" d="M653.01,-225.1C656.05,-224.7 659.06,-224.33 662,-224 889.03,-198.46 1163.02,-184.99 1263.56,-180.62"/>
<polygon fill="midnightblue" stroke="midnightblue" points="1264.01,-184.1 1273.85,-180.17 1263.71,-177.11 1264.01,-184.1"/>
</g>
<!-- Node21 -->
<g id="node21" class="node">
<title>Node21</title>
<g id="a_node21"><a xlink:title=" ">
<polygon fill="white" stroke="#bfbfbf" points="695,-168.5 695,-187.5 735,-187.5 735,-168.5 695,-168.5"/>
<text text-anchor="middle" x="715" y="-175.5" font-family="Helvetica,sans-Serif" font-size="10.00">span</text>
</a>
</g>
</g>
<!-- Node3&#45;&gt;Node21 -->
<g id="edge23" class="edge">
<title>Node3&#45;&gt;Node21</title>
<path fill="none" stroke="midnightblue" d="M621.83,-224.32C639.72,-215.62 667.48,-202.12 688.05,-192.11"/>
<polygon fill="midnightblue" stroke="midnightblue" points="689.75,-195.18 697.21,-187.65 686.69,-188.88 689.75,-195.18"/>
</g>
<!-- Node5 -->
<g id="node5" class="node">
<title>Node5</title>
<g id="a_node5"><a xlink:href="include_2ccf_2crypto_2base64_8h.html" target="_top" xlink:title=" ">
<polygon fill="white" stroke="black" points="495,-56.5 495,-75.5 607,-75.5 607,-56.5 495,-56.5"/>
<text text-anchor="middle" x="551" y="-63.5" font-family="Helvetica,sans-Serif" font-size="10.00">ccf/crypto/base64.h</text>
</a>
</g>
</g>
<!-- Node4&#45;&gt;Node5 -->
<g id="edge4" class="edge">
<title>Node4&#45;&gt;Node5</title>
<path fill="none" stroke="midnightblue" d="M554.69,-168.37C554.04,-150.62 552.55,-109.67 551.68,-85.6"/>
<polygon fill="midnightblue" stroke="midnightblue" points="555.17,-85.46 551.31,-75.59 548.18,-85.71 555.17,-85.46"/>
</g>
<!-- Node8 -->
<g id="node8" class="node">
<title>Node8</title>
<g id="a_node8"><a xlink:href="include_2ccf_2ds_2json__schema_8h.html" target="_top" xlink:title=" ">
<polygon fill="white" stroke="black" points="608.5,-112.5 608.5,-131.5 729.5,-131.5 729.5,-112.5 608.5,-112.5"/>
<text text-anchor="middle" x="669" y="-119.5" font-family="Helvetica,sans-Serif" font-size="10.00">ccf/ds/json_schema.h</text>
</a>
</g>
</g>
<!-- Node4&#45;&gt;Node8 -->
<g id="edge7" class="edge">
<title>Node4&#45;&gt;Node8</title>
<path fill="none" stroke="midnightblue" d="M573.06,-168.44C591.57,-159.68 620.58,-145.94 641.86,-135.86"/>
<polygon fill="midnightblue" stroke="midnightblue" points="643.48,-138.96 651.02,-131.52 640.49,-132.63 643.48,-138.96"/>
</g>
<!-- Node4&#45;&gt;Node15 -->
<g id="edge18" class="edge">
<title>Node4&#45;&gt;Node15</title>
<path fill="none" stroke="midnightblue" d="M550.1,-168.21C542.4,-154.93 526.4,-129.42 508,-112 494.96,-99.65 478.08,-88.69 464.16,-80.67"/>
<polygon fill="midnightblue" stroke="midnightblue" points="465.52,-77.42 455.08,-75.61 462.11,-83.54 465.52,-77.42"/>
</g>
<!-- Node17 -->
<g id="node17" class="node">
<title>Node17</title>
<g id="a_node17"><a xlink:title=" ">
<polygon fill="white" stroke="#bfbfbf" points="410,-112.5 410,-131.5 466,-131.5 466,-112.5 410,-112.5"/>
<text text-anchor="middle" x="438" y="-119.5" font-family="Helvetica,sans-Serif" font-size="10.00">sstream</text>
</a>
</g>
</g>
<!-- Node4&#45;&gt;Node17 -->
<g id="edge19" class="edge">
<title>Node4&#45;&gt;Node17</title>
<path fill="none" stroke="midnightblue" d="M536.46,-168.44C517.38,-159.64 487.43,-145.81 465.56,-135.72"/>
<polygon fill="midnightblue" stroke="midnightblue" points="467,-132.53 456.45,-131.52 464.07,-138.88 467,-132.53"/>
</g>
<!-- Node5&#45;&gt;Node6 -->
<g id="edge5" class="edge">
<title>Node5&#45;&gt;Node6</title>
<path fill="none" stroke="midnightblue" d="M551,-56.08C551,-49.01 551,-38.86 551,-29.99"/>
<polygon fill="midnightblue" stroke="midnightblue" points="554.5,-29.75 551,-19.75 547.5,-29.75 554.5,-29.75"/>
</g>
<!-- Node5&#45;&gt;Node7 -->
<g id="edge6" class="edge">
<title>Node5&#45;&gt;Node7</title>
<path fill="none" stroke="midnightblue" d="M562.25,-56.32C572.8,-48.18 588.8,-35.84 601.44,-26.09"/>
<polygon fill="midnightblue" stroke="midnightblue" points="603.77,-28.71 609.55,-19.83 599.49,-23.17 603.77,-28.71"/>
</g>
<!-- Node9 -->
<g id="node9" class="node">
<title>Node9</title>
<g id="a_node9"><a xlink:href="nonstd_8h.html" target="_top" xlink:title=" ">
<polygon fill="white" stroke="black" points="791,-56.5 791,-75.5 881,-75.5 881,-56.5 791,-56.5"/>
<text text-anchor="middle" x="836" y="-63.5" font-family="Helvetica,sans-Serif" font-size="10.00">ccf/ds/nonstd.h</text>
</a>
</g>
</g>
<!-- Node8&#45;&gt;Node9 -->
<g id="edge8" class="edge">
<title>Node8&#45;&gt;Node9</title>
<path fill="none" stroke="midnightblue" d="M695.46,-112.44C723.68,-103.32 768.54,-88.81 799.97,-78.65"/>
<polygon fill="midnightblue" stroke="midnightblue" points="801.22,-81.92 809.66,-75.52 799.07,-75.26 801.22,-81.92"/>
</g>
<!-- Node8&#45;&gt;Node15 -->
<g id="edge16" class="edge">
<title>Node8&#45;&gt;Node15</title>
<path fill="none" stroke="midnightblue" d="M632.4,-112.44C592.27,-103.06 527.8,-87.99 484.22,-77.8"/>
<polygon fill="midnightblue" stroke="midnightblue" points="484.97,-74.38 474.43,-75.52 483.37,-81.2 484.97,-74.38"/>
</g>
<!-- Node16 -->
<g id="node16" class="node">
<title>Node16</title>
<g id="a_node16"><a xlink:title=" ">
<polygon fill="white" stroke="#bfbfbf" points="625,-56.5 625,-75.5 735,-75.5 735,-56.5 625,-56.5"/>
<text text-anchor="middle" x="680" y="-63.5" font-family="Helvetica,sans-Serif" font-size="10.00">nlohmann/json.hpp</text>
</a>
</g>
</g>
<!-- Node8&#45;&gt;Node16 -->
<g id="edge17" class="edge">
<title>Node8&#45;&gt;Node16</title>
<path fill="none" stroke="midnightblue" d="M670.82,-112.08C672.27,-104.93 674.37,-94.64 676.19,-85.69"/>
<polygon fill="midnightblue" stroke="midnightblue" points="679.65,-86.25 678.22,-75.75 672.79,-84.85 679.65,-86.25"/>
</g>
<!-- Node9&#45;&gt;Node6 -->
<g id="edge12" class="edge">
<title>Node9&#45;&gt;Node6</title>
<path fill="none" stroke="midnightblue" d="M790.59,-57.59C740.74,-49.26 658.42,-34.94 588,-20 586.5,-19.68 584.98,-19.35 583.44,-19.01"/>
<polygon fill="midnightblue" stroke="midnightblue" points="583.79,-15.49 573.26,-16.64 582.2,-22.31 583.79,-15.49"/>
</g>
<!-- Node9&#45;&gt;Node7 -->
<g id="edge15" class="edge">
<title>Node9&#45;&gt;Node7</title>
<path fill="none" stroke="midnightblue" d="M801.93,-56.44C761.52,-46.29 694.59,-29.48 654.45,-19.4"/>
<polygon fill="midnightblue" stroke="midnightblue" points="655.16,-15.97 644.61,-16.93 653.46,-22.76 655.16,-15.97"/>
</g>
<!-- Node10 -->
<g id="node10" class="node">
<title>Node10</title>
<g id="a_node10"><a xlink:title=" ">
<polygon fill="white" stroke="#bfbfbf" points="666,-0.5 666,-19.5 730,-19.5 730,-0.5 666,-0.5"/>
<text text-anchor="middle" x="698" y="-7.5" font-family="Helvetica,sans-Serif" font-size="10.00">algorithm</text>
</a>
</g>
</g>
<!-- Node9&#45;&gt;Node10 -->
<g id="edge9" class="edge">
<title>Node9&#45;&gt;Node10</title>
<path fill="none" stroke="midnightblue" d="M814.13,-56.44C791.22,-47.48 755.02,-33.31 729.13,-23.18"/>
<polygon fill="midnightblue" stroke="midnightblue" points="730.35,-19.9 719.76,-19.52 727.8,-26.42 730.35,-19.9"/>
</g>
<!-- Node11 -->
<g id="node11" class="node">
<title>Node11</title>
<g id="a_node11"><a xlink:title=" ">
<polygon fill="white" stroke="#bfbfbf" points="748,-0.5 748,-19.5 790,-19.5 790,-0.5 748,-0.5"/>
<text text-anchor="middle" x="769" y="-7.5" font-family="Helvetica,sans-Serif" font-size="10.00">array</text>
</a>
</g>
</g>
<!-- Node9&#45;&gt;Node11 -->
<g id="edge10" class="edge">
<title>Node9&#45;&gt;Node11</title>
<path fill="none" stroke="midnightblue" d="M825.24,-56.32C815.23,-48.26 800.11,-36.08 788.07,-26.37"/>
<polygon fill="midnightblue" stroke="midnightblue" points="789.94,-23.38 779.96,-19.83 785.55,-28.83 789.94,-23.38"/>
</g>
<!-- Node12 -->
<g id="node12" class="node">
<title>Node12</title>
<g id="a_node12"><a xlink:title=" ">
<polygon fill="white" stroke="#bfbfbf" points="808.5,-0.5 808.5,-19.5 857.5,-19.5 857.5,-0.5 808.5,-0.5"/>
<text text-anchor="middle" x="833" y="-7.5" font-family="Helvetica,sans-Serif" font-size="10.00">cctype</text>
</a>
</g>
</g>
<!-- Node9&#45;&gt;Node12 -->
<g id="edge11" class="edge">
<title>Node9&#45;&gt;Node12</title>
<path fill="none" stroke="midnightblue" d="M835.5,-56.08C835.11,-49.01 834.55,-38.86 834.05,-29.99"/>
<polygon fill="midnightblue" stroke="midnightblue" points="837.54,-29.54 833.49,-19.75 830.55,-29.93 837.54,-29.54"/>
</g>
<!-- Node9&#45;&gt;Node13 -->
<g id="edge13" class="edge">
<title>Node9&#45;&gt;Node13</title>
<path fill="none" stroke="midnightblue" d="M861.83,-56.44C889.25,-47.36 932.78,-32.94 963.43,-22.78"/>
<polygon fill="midnightblue" stroke="midnightblue" points="964.9,-25.98 973.29,-19.52 962.7,-19.34 964.9,-25.98"/>
</g>
<!-- Node14 -->
<g id="node14" class="node">
<title>Node14</title>
<g id="a_node14"><a xlink:title=" ">
<polygon fill="white" stroke="#bfbfbf" points="875.5,-0.5 875.5,-19.5 944.5,-19.5 944.5,-0.5 875.5,-0.5"/>
<text text-anchor="middle" x="910" y="-7.5" font-family="Helvetica,sans-Serif" font-size="10.00">type_traits</text>
</a>
</g>
</g>
<!-- Node9&#45;&gt;Node14 -->
<g id="edge14" class="edge">
<title>Node9&#45;&gt;Node14</title>
<path fill="none" stroke="midnightblue" d="M847.89,-56.32C859.15,-48.11 876.29,-35.6 889.71,-25.81"/>
<polygon fill="midnightblue" stroke="midnightblue" points="891.88,-28.56 897.89,-19.83 887.75,-22.9 891.88,-28.56"/>
</g>
<!-- Node23&#45;&gt;Node7 -->
<g id="edge34" class="edge">
<title>Node23&#45;&gt;Node7</title>
<path fill="none" stroke="midnightblue" d="M312.94,-168.24C321.05,-145.56 346.01,-84.68 389,-56 461.58,-7.57 496.58,-37.81 582,-20 583.68,-19.65 585.41,-19.28 587.14,-18.9"/>
<polygon fill="midnightblue" stroke="midnightblue" points="588.11,-22.27 597.11,-16.68 586.59,-15.44 588.11,-22.27"/>
</g>
<!-- Node23&#45;&gt;Node15 -->
<g id="edge30" class="edge">
<title>Node23&#45;&gt;Node15</title>
<path fill="none" stroke="midnightblue" d="M320.04,-168.37C341.73,-149.73 393.16,-105.53 420.39,-82.13"/>
<polygon fill="midnightblue" stroke="midnightblue" points="422.7,-84.76 428,-75.59 418.14,-79.45 422.7,-84.76"/>
</g>
<!-- Node23&#45;&gt;Node17 -->
<g id="edge32" class="edge">
<title>Node23&#45;&gt;Node17</title>
<path fill="none" stroke="midnightblue" d="M330.28,-168.44C351.35,-159.56 384.52,-145.56 408.49,-135.45"/>
<polygon fill="midnightblue" stroke="midnightblue" points="409.96,-138.63 417.81,-131.52 407.24,-132.18 409.96,-138.63"/>
</g>
<!-- Node23&#45;&gt;Node22 -->
<g id="edge28" class="edge">
<title>Node23&#45;&gt;Node22</title>
<path fill="none" stroke="midnightblue" d="M263.7,-168.49C220.6,-160.38 154.35,-147.45 88,-132.13"/>
<polygon fill="midnightblue" stroke="midnightblue" points="88.74,-128.71 78.21,-129.85 87.16,-135.53 88.74,-128.71"/>
</g>
<!-- Node24 -->
<g id="node24" class="node">
<title>Node24</title>
<g id="a_node24"><a xlink:title=" ">
<polygon fill="white" stroke="#bfbfbf" points="236.5,-112.5 236.5,-131.5 315.5,-131.5 315.5,-112.5 236.5,-112.5"/>
<text text-anchor="middle" x="276" y="-119.5" font-family="Helvetica,sans-Serif" font-size="10.00">fmt/chrono.h</text>
</a>
</g>
</g>
<!-- Node23&#45;&gt;Node24 -->
<g id="edge29" class="edge">
<title>Node23&#45;&gt;Node24</title>
<path fill="none" stroke="midnightblue" d="M304.39,-168.08C299.63,-160.53 292.68,-149.49 286.85,-140.23"/>
<polygon fill="midnightblue" stroke="midnightblue" points="289.8,-138.35 281.51,-131.75 283.88,-142.08 289.8,-138.35"/>
</g>
<!-- Node25 -->
<g id="node25" class="node">
<title>Node25</title>
<g id="a_node25"><a xlink:title=" ">
<polygon fill="white" stroke="#bfbfbf" points="96,-112.5 96,-131.5 152,-131.5 152,-112.5 96,-112.5"/>
<text text-anchor="middle" x="124" y="-119.5" font-family="Helvetica,sans-Serif" font-size="10.00">iomanip</text>
</a>
</g>
</g>
<!-- Node23&#45;&gt;Node25 -->
<g id="edge31" class="edge">
<title>Node23&#45;&gt;Node25</title>
<path fill="none" stroke="midnightblue" d="M280.53,-168.44C248.46,-159.13 197.08,-144.22 161.99,-134.03"/>
<polygon fill="midnightblue" stroke="midnightblue" points="162.7,-130.59 152.12,-131.16 160.74,-137.31 162.7,-130.59"/>
</g>
<!-- Node26 -->
<g id="node26" class="node">
<title>Node26</title>
<g id="a_node26"><a xlink:title=" ">
<polygon fill="white" stroke="#bfbfbf" points="170,-112.5 170,-131.5 218,-131.5 218,-112.5 170,-112.5"/>
<text text-anchor="middle" x="194" y="-119.5" font-family="Helvetica,sans-Serif" font-size="10.00">time.h</text>
</a>
</g>
</g>
<!-- Node23&#45;&gt;Node26 -->
<g id="edge33" class="edge">
<title>Node23&#45;&gt;Node26</title>
<path fill="none" stroke="midnightblue" d="M291.62,-168.44C272.78,-159.68 243.27,-145.94 221.62,-135.86"/>
<polygon fill="midnightblue" stroke="midnightblue" points="222.84,-132.56 212.29,-131.52 219.88,-138.91 222.84,-132.56"/>
</g>
</g>
</svg>
        <g id="navigator" transform="translate(0 0)" fill="#404254">
                <rect fill="#f2f5e9" fill-opacity="0.5" stroke="#606060" stroke-width=".5" x="0" y="0" width="60" height="60"/>
                <use id="zoomplus" xlink:href="#zoomPlus" x="17" y="9" onmousedown="handleZoom(evt,'in')"/>
                <use id="zoomminus" xlink:href="#zoomMin" x="42" y="9" onmousedown="handleZoom(evt,'out')"/>
                <use id="reset" xlink:href="#resetDef" x="30" y="36" onmousedown="handleReset()"/>
                <g id="arrowUp" xlink:href="#dirArrow" transform="translate(30 24)" onmousedown="handlePan(0,-1)">
                  <use xlink:href="#rim" fill="#404040">
                        <set attributeName="fill" to="#808080" begin="arrowUp.mouseover" end="arrowUp.mouseout"/>
                  </use>
                  <path fill="none" stroke="white" stroke-width="1.5" d="M0,-3.0v7 M-2.5,-0.5L0,-3.0L2.5,-0.5"/>
                </g>
                <g id="arrowRight" xlink:href="#dirArrow" transform="rotate(90) translate(36 -43)" onmousedown="handlePan(1,0)">
                  <use xlink:href="#rim" fill="#404040">
                        <set attributeName="fill" to="#808080" begin="arrowRight.mouseover" end="arrowRight.mouseout"/>
                  </use>
                  <path fill="none" stroke="white" stroke-width="1.5" d="M0,-3.0v7 M-2.5,-0.5L0,-3.0L2.5,-0.5"/>
                </g>
                <g id="arrowDown" xlink:href="#dirArrow" transform="rotate(180) translate(-30 -48)" onmousedown="handlePan(0,1)">
                  <use xlink:href="#rim" fill="#404040">
                        <set attributeName="fill" to="#808080" begin="arrowDown.mouseover" end="arrowDown.mouseout"/>
                  </use>
                  <path fill="none" stroke="white" stroke-width="1.5" d="M0,-3.0v7 M-2.5,-0.5L0,-3.0L2.5,-0.5"/>
                </g>
                <g id="arrowLeft" xlink:href="#dirArrow" transform="rotate(270) translate(-36 17)" onmousedown="handlePan(-1,0)">
                  <use xlink:href="#rim" fill="#404040">
                        <set attributeName="fill" to="#808080" begin="arrowLeft.mouseover" end="arrowLeft.mouseout"/>
                  </use>
                  <path fill="none" stroke="white" stroke-width="1.5" d="M0,-3.0v7 M-2.5,-0.5L0,-3.0L2.5,-0.5"/>
                </g>
        </g>
        <svg viewBox="0 0 15 15" width="100%" height="30px" preserveAspectRatio="xMaxYMin meet">
         <g id="arrow_out" transform="scale(0.3 0.3)">
          <a xlink:href="tls_8h__incl_org.svg" target="_base">
           <rect id="button" ry="5" rx="5" y="6" x="6" height="38" width="38"
                fill="#f2f5e9" fill-opacity="0.5" stroke="#606060" stroke-width="1.0"/>
           <path id="arrow"
             d="M 11.500037,31.436501 C 11.940474,20.09759 22.043105,11.32322 32.158766,21.979434 L 37.068811,17.246167 C 37.068811,17.246167 37.088388,32 37.088388,32 L 22.160133,31.978069 C 22.160133,31.978069 26.997745,27.140456 26.997745,27.140456 C 18.528582,18.264221 13.291696,25.230495 11.500037,31.436501 z"
             style="fill:#404040;"/>
          </a>
         </g>
        </svg>
</svg>
