<?xml version="1.0" encoding="UTF-8" standalone="no"?>
<!DOCTYPE svg PUBLIC "-//W3C//DTD SVG 1.1//EN"
 "http://www.w3.org/Graphics/SVG/1.1/DTD/svg11.dtd">
<!-- Generated by graphviz version 2.43.0 (0)
 -->
<!-- Title: src/enclave/tls_endpoint.h Pages: 1 -->
<!--zoomable 755 -->
<svg id="main" version="1.1" xmlns="http://www.w3.org/2000/svg" xmlns:xlink="http://www.w3.org/1999/xlink" xml:space="preserve" onload="init(evt)">
<style type="text/css"><![CDATA[
.edge:hover path { stroke: red; }
.edge:hover polygon { stroke: red; fill: red; }
]]></style>
<script type="text/javascript"><![CDATA[
var edges = document.getElementsByTagName('g');
if (edges && edges.length) {
  for (var i=0;i<edges.length;i++) {
    if (edges[i].id.substr(0,4)=='edge') {
      edges[i].setAttribute('class','edge');
    }
  }
}
]]></script>
        <defs>
                <circle id="rim" cx="0" cy="0" r="7"/>
                <circle id="rim2" cx="0" cy="0" r="3.5"/>
                <g id="zoomPlus">
                        <use xlink:href="#rim" fill="#404040">
                                <set attributeName="fill" to="#808080" begin="zoomplus.mouseover" end="zoomplus.mouseout"/>
                        </use>
                        <path d="M-4,0h8M0,-4v8" fill="none" stroke="white" stroke-width="1.5" pointer-events="none"/>
                </g>
                <g id="zoomMin">
                        <use xlink:href="#rim" fill="#404040">
                                <set attributeName="fill" to="#808080" begin="zoomminus.mouseover" end="zoomminus.mouseout"/>
                        </use>
                        <path d="M-4,0h8" fill="none" stroke="white" stroke-width="1.5" pointer-events="none"/>
                </g>
                <g id="dirArrow">
                        <path fill="none" stroke="white" stroke-width="1.5" d="M0,-3.0v7 M-2.5,-0.5L0,-3.0L2.5,-0.5"/>
                </g>
               <g id="resetDef">
                       <use xlink:href="#rim2" fill="#404040">
                               <set attributeName="fill" to="#808080" begin="reset.mouseover" end="reset.mouseout"/>
                       </use>
               </g>
        </defs>

<script type="text/javascript">
var viewWidth = 1331;
var viewHeight = 755;
var sectionId = 'dynsection-1';
</script>
<script xlink:href="svgpan.js"/>
<svg id="graph" class="graph">
<g id="viewport">
<title>src/enclave/tls_endpoint.h</title>
<polygon fill="white" stroke="transparent" points="-4,4 -4,-751 1326.5,-751 1326.5,4 -4,4"/>
<!-- Node1 -->
<g id="node1" class="node">
<title>Node1</title>
<g id="a_node1"><a xlink:title=" ">
<polygon fill="#bfbfbf" stroke="black" points="761.5,-727.5 761.5,-746.5 905.5,-746.5 905.5,-727.5 761.5,-727.5"/>
<text text-anchor="middle" x="833.5" y="-734.5" font-family="Helvetica,sans-Serif" font-size="10.00">src/enclave/tls_endpoint.h</text>
</a>
</g>
</g>
<!-- Node2 -->
<g id="node2" class="node">
<title>Node2</title>
<g id="a_node2"><a xlink:href="http__parser_8h.html" target="_top" xlink:title=" ">
<polygon fill="white" stroke="black" points="731.5,-615.5 731.5,-634.5 851.5,-634.5 851.5,-615.5 731.5,-615.5"/>
<text text-anchor="middle" x="791.5" y="-622.5" font-family="Helvetica,sans-Serif" font-size="10.00">src/http/http_parser.h</text>
</a>
</g>
</g>
<!-- Node1&#45;&gt;Node2 -->
<g id="edge1" class="edge">
<title>Node1&#45;&gt;Node2</title>
<path fill="none" stroke="midnightblue" d="M824.04,-718.28C819.89,-710.11 815.14,-700.2 811.5,-691 803.68,-671.24 796.97,-647.13 793.67,-634.56"/>
<polygon fill="midnightblue" stroke="midnightblue" points="820.97,-719.97 828.7,-727.22 827.18,-716.73 820.97,-719.97"/>
</g>
<!-- Node31 -->
<g id="node31" class="node">
<title>Node31</title>
<g id="a_node31"><a xlink:href="http__proc_8h.html" target="_top" xlink:title=" ">
<polygon fill="white" stroke="black" points="820,-671.5 820,-690.5 931,-690.5 931,-671.5 820,-671.5"/>
<text text-anchor="middle" x="875.5" y="-678.5" font-family="Helvetica,sans-Serif" font-size="10.00">src/http/http_proc.h</text>
</a>
</g>
</g>
<!-- Node1&#45;&gt;Node31 -->
<g id="edge51" class="edge">
<title>Node1&#45;&gt;Node31</title>
<path fill="none" stroke="midnightblue" d="M846.61,-719.14C853.93,-709.74 862.74,-698.4 868.69,-690.75"/>
<polygon fill="midnightblue" stroke="midnightblue" points="843.81,-717.04 840.44,-727.08 849.34,-721.34 843.81,-717.04"/>
</g>
<!-- Node3 -->
<g id="node3" class="node">
<title>Node3</title>
<g id="a_node3"><a xlink:href="rpc__tls__client_8h.html" target="_top" xlink:title=" ">
<polygon fill="white" stroke="black" points="1095,-492.5 1095,-522.5 1196,-522.5 1196,-492.5 1095,-492.5"/>
<text text-anchor="start" x="1103" y="-510.5" font-family="Helvetica,sans-Serif" font-size="10.00">src/clients/rpc_tls</text>
<text text-anchor="middle" x="1145.5" y="-499.5" font-family="Helvetica,sans-Serif" font-size="10.00">_client.h</text>
</a>
</g>
</g>
<!-- Node2&#45;&gt;Node3 -->
<g id="edge2" class="edge">
<title>Node2&#45;&gt;Node3</title>
<path fill="none" stroke="midnightblue" d="M845.47,-613.33C882.94,-605.35 933.79,-593.36 977.5,-579 1027.23,-562.66 1082.88,-537.99 1116,-522.58"/>
<polygon fill="midnightblue" stroke="midnightblue" points="844.34,-610 835.27,-615.48 845.78,-616.85 844.34,-610"/>
</g>
<!-- Node8 -->
<g id="node8" class="node">
<title>Node8</title>
<g id="a_node8"><a xlink:href="http__endpoint_8h.html" target="_top" xlink:title=" ">
<polygon fill="white" stroke="black" points="628,-436.5 628,-455.5 761,-455.5 761,-436.5 628,-436.5"/>
<text text-anchor="middle" x="694.5" y="-443.5" font-family="Helvetica,sans-Serif" font-size="10.00">src/http/http_endpoint.h</text>
</a>
</g>
</g>
<!-- Node2&#45;&gt;Node8 -->
<g id="edge8" class="edge">
<title>Node2&#45;&gt;Node8</title>
<path fill="none" stroke="midnightblue" d="M774.21,-608.37C754.97,-589.93 724.49,-557.4 708.5,-523 697.98,-500.37 695.36,-470.5 694.71,-455.86"/>
<polygon fill="midnightblue" stroke="midnightblue" points="772.01,-611.1 781.7,-615.38 776.79,-605.99 772.01,-611.1"/>
</g>
<!-- Node16 -->
<g id="node16" class="node">
<title>Node16</title>
<g id="a_node16"><a xlink:href="http__jwt_8h.html" target="_top" xlink:title=" ">
<polygon fill="white" stroke="black" points="403,-559.5 403,-578.5 508,-578.5 508,-559.5 403,-559.5"/>
<text text-anchor="middle" x="455.5" y="-566.5" font-family="Helvetica,sans-Serif" font-size="10.00">src/http/http_jwt.h</text>
</a>
</g>
</g>
<!-- Node2&#45;&gt;Node16 -->
<g id="edge20" class="edge">
<title>Node2&#45;&gt;Node16</title>
<path fill="none" stroke="midnightblue" d="M728.35,-613.85C664.77,-603.63 567.8,-588.05 508.21,-578.47"/>
<polygon fill="midnightblue" stroke="midnightblue" points="727.83,-617.31 738.26,-615.44 728.94,-610.4 727.83,-617.31"/>
</g>
<!-- Node24 -->
<g id="node24" class="node">
<title>Node24</title>
<g id="a_node24"><a xlink:href="http__rpc__context_8h.html" target="_top" xlink:title=" ">
<polygon fill="white" stroke="black" points="718,-498 718,-517 865,-517 865,-498 718,-498"/>
<text text-anchor="middle" x="791.5" y="-505" font-family="Helvetica,sans-Serif" font-size="10.00">src/http/http_rpc_context.h</text>
</a>
</g>
</g>
<!-- Node2&#45;&gt;Node24 -->
<g id="edge35" class="edge">
<title>Node2&#45;&gt;Node24</title>
<path fill="none" stroke="midnightblue" d="M791.5,-605.16C791.5,-579.87 791.5,-535.94 791.5,-517.28"/>
<polygon fill="midnightblue" stroke="midnightblue" points="788,-605.32 791.5,-615.32 795,-605.32 788,-605.32"/>
</g>
<!-- Node28 -->
<g id="node28" class="node">
<title>Node28</title>
<g id="a_node28"><a xlink:href="http__sig_8h.html" target="_top" xlink:title=" ">
<polygon fill="white" stroke="black" points="864.5,-559.5 864.5,-578.5 968.5,-578.5 968.5,-559.5 864.5,-559.5"/>
<text text-anchor="middle" x="916.5" y="-566.5" font-family="Helvetica,sans-Serif" font-size="10.00">src/http/http_sig.h</text>
</a>
</g>
</g>
<!-- Node2&#45;&gt;Node28 -->
<g id="edge45" class="edge">
<title>Node2&#45;&gt;Node28</title>
<path fill="none" stroke="midnightblue" d="M820.74,-611.37C844.15,-601.26 876.34,-587.35 896.79,-578.52"/>
<polygon fill="midnightblue" stroke="midnightblue" points="819.1,-608.26 811.31,-615.44 821.87,-614.69 819.1,-608.26"/>
</g>
<!-- Node30 -->
<g id="node30" class="node">
<title>Node30</title>
<g id="a_node30"><a xlink:href="acme__client_8h.html" target="_top" xlink:title=" ">
<polygon fill="white" stroke="black" points="529,-559.5 529,-578.5 658,-578.5 658,-559.5 529,-559.5"/>
<text text-anchor="middle" x="593.5" y="-566.5" font-family="Helvetica,sans-Serif" font-size="10.00">src/node/acme_client.h</text>
</a>
</g>
</g>
<!-- Node2&#45;&gt;Node30 -->
<g id="edge49" class="edge">
<title>Node2&#45;&gt;Node30</title>
<path fill="none" stroke="midnightblue" d="M750.06,-612.7C712.69,-602.51 658.56,-587.74 624.73,-578.52"/>
<polygon fill="midnightblue" stroke="midnightblue" points="749.56,-616.19 760.13,-615.44 751.4,-609.44 749.56,-616.19"/>
</g>
<!-- Node4 -->
<g id="node4" class="node">
<title>Node4</title>
<g id="a_node4"><a xlink:href="perf__client_8h.html" target="_top" xlink:title=" ">
<polygon fill="white" stroke="black" points="1137,-369.5 1137,-399.5 1248,-399.5 1248,-369.5 1137,-369.5"/>
<text text-anchor="start" x="1145" y="-387.5" font-family="Helvetica,sans-Serif" font-size="10.00">src/clients/perf/perf</text>
<text text-anchor="middle" x="1192.5" y="-376.5" font-family="Helvetica,sans-Serif" font-size="10.00">_client.h</text>
</a>
</g>
</g>
<!-- Node3&#45;&gt;Node4 -->
<g id="edge3" class="edge">
<title>Node3&#45;&gt;Node4</title>
<path fill="none" stroke="midnightblue" d="M1189.2,-487.11C1201.58,-479.33 1213.56,-469.05 1220.5,-456 1230.46,-437.28 1216.82,-414.22 1205.32,-399.69"/>
<polygon fill="midnightblue" stroke="midnightblue" points="1187.08,-484.3 1180.19,-492.34 1190.6,-490.35 1187.08,-484.3"/>
</g>
<!-- Node7 -->
<g id="node7" class="node">
<title>Node7</title>
<g id="a_node7"><a xlink:href="timing_8h.html" target="_top" xlink:title=" ">
<polygon fill="white" stroke="black" points="1079.5,-436.5 1079.5,-455.5 1211.5,-455.5 1211.5,-436.5 1079.5,-436.5"/>
<text text-anchor="middle" x="1145.5" y="-443.5" font-family="Helvetica,sans-Serif" font-size="10.00">src/clients/perf/timing.h</text>
</a>
</g>
</g>
<!-- Node3&#45;&gt;Node7 -->
<g id="edge6" class="edge">
<title>Node3&#45;&gt;Node7</title>
<path fill="none" stroke="midnightblue" d="M1145.5,-482.29C1145.5,-472.86 1145.5,-462.65 1145.5,-455.66"/>
<polygon fill="midnightblue" stroke="midnightblue" points="1142,-482.4 1145.5,-492.4 1149,-482.4 1142,-482.4"/>
</g>
<!-- Node5 -->
<g id="node5" class="node">
<title>Node5</title>
<g id="a_node5"><a xlink:href="tpcc__client_8cpp.html" target="_top" xlink:title=" ">
<polygon fill="white" stroke="black" points="1206.5,-302.5 1206.5,-332.5 1322.5,-332.5 1322.5,-302.5 1206.5,-302.5"/>
<text text-anchor="start" x="1214.5" y="-320.5" font-family="Helvetica,sans-Serif" font-size="10.00">src/apps/tpcc/clients</text>
<text text-anchor="middle" x="1264.5" y="-309.5" font-family="Helvetica,sans-Serif" font-size="10.00">/tpcc_client.cpp</text>
</a>
</g>
</g>
<!-- Node4&#45;&gt;Node5 -->
<g id="edge4" class="edge">
<title>Node4&#45;&gt;Node5</title>
<path fill="none" stroke="midnightblue" d="M1215.65,-362.6C1226.52,-352.78 1239.2,-341.34 1248.91,-332.58"/>
<polygon fill="midnightblue" stroke="midnightblue" points="1213.2,-360.1 1208.12,-369.4 1217.89,-365.29 1213.2,-360.1"/>
</g>
<!-- Node6 -->
<g id="node6" class="node">
<title>Node6</title>
<g id="a_node6"><a xlink:href="scenario__perf__client_8cpp.html" target="_top" xlink:title=" ">
<polygon fill="white" stroke="black" points="1055,-302.5 1055,-332.5 1188,-332.5 1188,-302.5 1055,-302.5"/>
<text text-anchor="start" x="1063" y="-320.5" font-family="Helvetica,sans-Serif" font-size="10.00">src/clients/perf/scenario</text>
<text text-anchor="middle" x="1121.5" y="-309.5" font-family="Helvetica,sans-Serif" font-size="10.00">_perf_client.cpp</text>
</a>
</g>
</g>
<!-- Node4&#45;&gt;Node6 -->
<g id="edge5" class="edge">
<title>Node4&#45;&gt;Node6</title>
<path fill="none" stroke="midnightblue" d="M1169.67,-362.6C1158.95,-352.78 1146.45,-341.34 1136.88,-332.58"/>
<polygon fill="midnightblue" stroke="midnightblue" points="1167.35,-365.22 1177.09,-369.4 1172.08,-360.06 1167.35,-365.22"/>
</g>
<!-- Node7&#45;&gt;Node4 -->
<g id="edge7" class="edge">
<title>Node7&#45;&gt;Node4</title>
<path fill="none" stroke="midnightblue" d="M1158.51,-428.53C1165.71,-419.42 1174.56,-408.21 1181.42,-399.52"/>
<polygon fill="midnightblue" stroke="midnightblue" points="1155.69,-426.46 1152.23,-436.48 1161.18,-430.8 1155.69,-426.46"/>
</g>
<!-- Node9 -->
<g id="node9" class="node">
<title>Node9</title>
<g id="a_node9"><a xlink:href="rpc__sessions_8h.html" target="_top" xlink:title=" ">
<polygon fill="white" stroke="black" points="667.5,-308 667.5,-327 813.5,-327 813.5,-308 667.5,-308"/>
<text text-anchor="middle" x="740.5" y="-315" font-family="Helvetica,sans-Serif" font-size="10.00">src/enclave/rpc_sessions.h</text>
</a>
</g>
</g>
<!-- Node8&#45;&gt;Node9 -->
<g id="edge9" class="edge">
<title>Node8&#45;&gt;Node9</title>
<path fill="none" stroke="midnightblue" d="M701.16,-426.67C711.22,-399.03 729.88,-347.72 737.32,-327.26"/>
<polygon fill="midnightblue" stroke="midnightblue" points="697.79,-425.71 697.66,-436.31 704.37,-428.1 697.79,-425.71"/>
</g>
<!-- Node10 -->
<g id="node10" class="node">
<title>Node10</title>
<g id="a_node10"><a xlink:href="enclave_2enclave_8h.html" target="_top" xlink:title=" ">
<polygon fill="white" stroke="black" points="272.5,-56.5 272.5,-75.5 394.5,-75.5 394.5,-56.5 272.5,-56.5"/>
<text text-anchor="middle" x="333.5" y="-63.5" font-family="Helvetica,sans-Serif" font-size="10.00">src/enclave/enclave.h</text>
</a>
</g>
</g>
<!-- Node9&#45;&gt;Node10 -->
<g id="edge10" class="edge">
<title>Node9&#45;&gt;Node10</title>
<path fill="none" stroke="midnightblue" d="M776.78,-303.85C793.88,-295.84 812.66,-283.61 822.5,-266 829.22,-253.97 830.4,-246.29 822.5,-235 724.67,-95.29 502.69,-70.42 394.74,-66.88"/>
<polygon fill="midnightblue" stroke="midnightblue" points="775.29,-300.68 767.51,-307.87 778.08,-307.1 775.29,-300.68"/>
</g>
<!-- Node12 -->
<g id="node12" class="node">
<title>Node12</title>
<g id="a_node12"><a xlink:href="ccf__acme__client_8h.html" target="_top" xlink:title=" ">
<polygon fill="white" stroke="black" points="493,-241 493,-260 642,-260 642,-241 493,-241"/>
<text text-anchor="middle" x="567.5" y="-248" font-family="Helvetica,sans-Serif" font-size="10.00">src/node/ccf_acme_client.h</text>
</a>
</g>
</g>
<!-- Node9&#45;&gt;Node12 -->
<g id="edge12" class="edge">
<title>Node9&#45;&gt;Node12</title>
<path fill="none" stroke="midnightblue" d="M707.95,-304.27C673.62,-291.37 620.4,-271.38 590.29,-260.06"/>
<polygon fill="midnightblue" stroke="midnightblue" points="706.93,-307.63 717.53,-307.87 709.4,-301.07 706.93,-307.63"/>
</g>
<!-- Node13 -->
<g id="node13" class="node">
<title>Node13</title>
<g id="a_node13"><a xlink:href="node__state_8h.html" target="_top" xlink:title=" ">
<polygon fill="white" stroke="black" points="421.5,-174 421.5,-193 545.5,-193 545.5,-174 421.5,-174"/>
<text text-anchor="middle" x="483.5" y="-181" font-family="Helvetica,sans-Serif" font-size="10.00">src/node/node_state.h</text>
</a>
</g>
</g>
<!-- Node9&#45;&gt;Node13 -->
<g id="edge17" class="edge">
<title>Node9&#45;&gt;Node13</title>
<path fill="none" stroke="midnightblue" d="M723.87,-300.71C700.22,-278.36 658.79,-239.69 650.5,-235 613.06,-213.82 565.78,-200.6 531.08,-193.03"/>
<polygon fill="midnightblue" stroke="midnightblue" points="721.74,-303.52 731.41,-307.85 726.56,-298.43 721.74,-303.52"/>
</g>
<!-- Node15 -->
<g id="node15" class="node">
<title>Node15</title>
<g id="a_node15"><a xlink:href="resharing_8h.html" target="_top" xlink:title=" ">
<polygon fill="white" stroke="black" points="697.5,-241 697.5,-260 813.5,-260 813.5,-241 697.5,-241"/>
<text text-anchor="middle" x="755.5" y="-248" font-family="Helvetica,sans-Serif" font-size="10.00">src/node/resharing.h</text>
</a>
</g>
</g>
<!-- Node9&#45;&gt;Node15 -->
<g id="edge18" class="edge">
<title>Node9&#45;&gt;Node15</title>
<path fill="none" stroke="midnightblue" d="M744.79,-297.91C747.66,-285.49 751.3,-269.72 753.51,-260.13"/>
<polygon fill="midnightblue" stroke="midnightblue" points="741.36,-297.2 742.52,-307.73 748.18,-298.78 741.36,-297.2"/>
</g>
<!-- Node11 -->
<g id="node11" class="node">
<title>Node11</title>
<g id="a_node11"><a xlink:href="enclave_2main_8cpp.html" target="_top" xlink:title=" ">
<polygon fill="white" stroke="black" points="273.5,-0.5 273.5,-19.5 393.5,-19.5 393.5,-0.5 273.5,-0.5"/>
<text text-anchor="middle" x="333.5" y="-7.5" font-family="Helvetica,sans-Serif" font-size="10.00">src/enclave/main.cpp</text>
</a>
</g>
</g>
<!-- Node10&#45;&gt;Node11 -->
<g id="edge11" class="edge">
<title>Node10&#45;&gt;Node11</title>
<path fill="none" stroke="midnightblue" d="M333.5,-45.8C333.5,-36.91 333.5,-26.78 333.5,-19.75"/>
<polygon fill="midnightblue" stroke="midnightblue" points="330,-46.08 333.5,-56.08 337,-46.08 330,-46.08"/>
</g>
<!-- Node12&#45;&gt;Node13 -->
<g id="edge13" class="edge">
<title>Node12&#45;&gt;Node13</title>
<path fill="none" stroke="midnightblue" d="M548.2,-234.57C531.62,-221.74 508.29,-203.69 494.65,-193.13"/>
<polygon fill="midnightblue" stroke="midnightblue" points="546.12,-237.38 556.17,-240.73 550.4,-231.85 546.12,-237.38"/>
</g>
<!-- Node13&#45;&gt;Node10 -->
<g id="edge14" class="edge">
<title>Node13&#45;&gt;Node10</title>
<path fill="none" stroke="midnightblue" d="M483.14,-163.79C481.85,-148.08 477.59,-126.01 464.5,-112 446.36,-92.59 419.47,-81.55 394.77,-75.27"/>
<polygon fill="midnightblue" stroke="midnightblue" points="479.65,-164.09 483.63,-173.91 486.64,-163.75 479.65,-164.09"/>
</g>
<!-- Node14 -->
<g id="node14" class="node">
<title>Node14</title>
<g id="a_node14"><a xlink:href="gov__effects_8h.html" target="_top" xlink:title=" ">
<polygon fill="white" stroke="black" points="311.5,-112.5 311.5,-131.5 455.5,-131.5 455.5,-112.5 311.5,-112.5"/>
<text text-anchor="middle" x="383.5" y="-119.5" font-family="Helvetica,sans-Serif" font-size="10.00">src/node/rpc/gov_effects.h</text>
</a>
</g>
</g>
<!-- Node13&#45;&gt;Node14 -->
<g id="edge15" class="edge">
<title>Node13&#45;&gt;Node14</title>
<path fill="none" stroke="midnightblue" d="M460.38,-168.74C441.06,-157.25 414.13,-141.22 397.8,-131.51"/>
<polygon fill="midnightblue" stroke="midnightblue" points="458.79,-171.87 469.17,-173.98 462.37,-165.85 458.79,-171.87"/>
</g>
<!-- Node14&#45;&gt;Node10 -->
<g id="edge16" class="edge">
<title>Node14&#45;&gt;Node10</title>
<path fill="none" stroke="midnightblue" d="M368.42,-104.72C359.61,-95.2 348.83,-83.56 341.6,-75.75"/>
<polygon fill="midnightblue" stroke="midnightblue" points="365.88,-107.12 375.24,-112.08 371.02,-102.37 365.88,-107.12"/>
</g>
<!-- Node15&#45;&gt;Node13 -->
<g id="edge19" class="edge">
<title>Node15&#45;&gt;Node13</title>
<path fill="none" stroke="midnightblue" d="M709.74,-238.56C656.11,-225.75 568.38,-204.78 519.42,-193.08"/>
<polygon fill="midnightblue" stroke="midnightblue" points="709.12,-242.02 719.66,-240.94 710.75,-235.21 709.12,-242.02"/>
</g>
<!-- Node17 -->
<g id="node17" class="node">
<title>Node17</title>
<g id="a_node17"><a xlink:href="jwt__auth_8cpp.html" target="_top" xlink:title=" ">
<polygon fill="white" stroke="black" points="378,-492.5 378,-522.5 533,-522.5 533,-492.5 378,-492.5"/>
<text text-anchor="start" x="386" y="-510.5" font-family="Helvetica,sans-Serif" font-size="10.00">src/endpoints/authentication</text>
<text text-anchor="middle" x="455.5" y="-499.5" font-family="Helvetica,sans-Serif" font-size="10.00">/jwt_auth.cpp</text>
</a>
</g>
</g>
<!-- Node16&#45;&gt;Node17 -->
<g id="edge21" class="edge">
<title>Node16&#45;&gt;Node17</title>
<path fill="none" stroke="midnightblue" d="M455.5,-549.23C455.5,-540.59 455.5,-530.5 455.5,-522.52"/>
<polygon fill="midnightblue" stroke="midnightblue" points="452,-549.48 455.5,-559.48 459,-549.48 452,-549.48"/>
</g>
<!-- Node18 -->
<g id="node18" class="node">
<title>Node18</title>
<g id="a_node18"><a xlink:href="frontend_8h.html" target="_top" xlink:title=" ">
<polygon fill="white" stroke="black" points="285,-375 285,-394 414,-394 414,-375 285,-375"/>
<text text-anchor="middle" x="349.5" y="-382" font-family="Helvetica,sans-Serif" font-size="10.00">src/node/rpc/frontend.h</text>
</a>
</g>
</g>
<!-- Node16&#45;&gt;Node18 -->
<g id="edge22" class="edge">
<title>Node16&#45;&gt;Node18</title>
<path fill="none" stroke="midnightblue" d="M413.58,-555.75C396.99,-548.8 379.33,-538.32 368.5,-523 339.7,-482.27 345.05,-417.51 348.16,-394.21"/>
<polygon fill="midnightblue" stroke="midnightblue" points="412.57,-559.12 423.16,-559.46 415.09,-552.59 412.57,-559.12"/>
</g>
<!-- Node18&#45;&gt;Node13 -->
<g id="edge26" class="edge">
<title>Node18&#45;&gt;Node13</title>
<path fill="none" stroke="midnightblue" d="M406.25,-371.98C428.45,-364.56 452.02,-352.5 466.5,-333 483.05,-310.71 483.81,-221.91 483.61,-193.38"/>
<polygon fill="midnightblue" stroke="midnightblue" points="405.04,-368.69 396.52,-374.97 407.1,-375.38 405.04,-368.69"/>
</g>
<!-- Node19 -->
<g id="node19" class="node">
<title>Node19</title>
<g id="a_node19"><a xlink:href="acme__challenge__frontend_8h.html" target="_top" xlink:title=" ">
<polygon fill="white" stroke="black" points="317.5,-302.5 317.5,-332.5 457.5,-332.5 457.5,-302.5 317.5,-302.5"/>
<text text-anchor="start" x="325.5" y="-320.5" font-family="Helvetica,sans-Serif" font-size="10.00">src/node/acme_challenge</text>
<text text-anchor="middle" x="387.5" y="-309.5" font-family="Helvetica,sans-Serif" font-size="10.00">_frontend.h</text>
</a>
</g>
</g>
<!-- Node18&#45;&gt;Node19 -->
<g id="edge23" class="edge">
<title>Node18&#45;&gt;Node19</title>
<path fill="none" stroke="midnightblue" d="M359.71,-366.03C365.84,-355.56 373.53,-342.4 379.26,-332.59"/>
<polygon fill="midnightblue" stroke="midnightblue" points="356.65,-364.33 354.62,-374.73 362.69,-367.87 356.65,-364.33"/>
</g>
<!-- Node20 -->
<g id="node20" class="node">
<title>Node20</title>
<g id="a_node20"><a xlink:href="member__frontend_8h.html" target="_top" xlink:title=" ">
<polygon fill="white" stroke="black" points="97.5,-168.5 97.5,-198.5 217.5,-198.5 217.5,-168.5 97.5,-168.5"/>
<text text-anchor="start" x="105.5" y="-186.5" font-family="Helvetica,sans-Serif" font-size="10.00">src/node/rpc/member</text>
<text text-anchor="middle" x="157.5" y="-175.5" font-family="Helvetica,sans-Serif" font-size="10.00">_frontend.h</text>
</a>
</g>
</g>
<!-- Node18&#45;&gt;Node20 -->
<g id="edge27" class="edge">
<title>Node18&#45;&gt;Node20</title>
<path fill="none" stroke="midnightblue" d="M274.7,-375.95C219.19,-368.63 150.19,-355.28 132.5,-333 100.64,-292.87 132.22,-227.14 148.77,-198.53"/>
<polygon fill="midnightblue" stroke="midnightblue" points="274.53,-379.46 284.9,-377.25 275.42,-372.52 274.53,-379.46"/>
</g>
<!-- Node21 -->
<g id="node21" class="node">
<title>Node21</title>
<g id="a_node21"><a xlink:href="node__frontend_8h.html" target="_top" xlink:title=" ">
<polygon fill="white" stroke="black" points="141.5,-308 141.5,-327 299.5,-327 299.5,-308 141.5,-308"/>
<text text-anchor="middle" x="220.5" y="-315" font-family="Helvetica,sans-Serif" font-size="10.00">src/node/rpc/node_frontend.h</text>
</a>
</g>
</g>
<!-- Node18&#45;&gt;Node21 -->
<g id="edge29" class="edge">
<title>Node18&#45;&gt;Node21</title>
<path fill="none" stroke="midnightblue" d="M323.25,-370.27C297.7,-357.4 259.61,-338.21 237.7,-327.17"/>
<polygon fill="midnightblue" stroke="midnightblue" points="321.86,-373.49 332.37,-374.87 325.01,-367.24 321.86,-373.49"/>
</g>
<!-- Node23 -->
<g id="node23" class="node">
<title>Node23</title>
<g id="a_node23"><a xlink:href="user__frontend_8h.html" target="_top" xlink:title=" ">
<polygon fill="white" stroke="black" points="0,-112.5 0,-131.5 155,-131.5 155,-112.5 0,-112.5"/>
<text text-anchor="middle" x="77.5" y="-119.5" font-family="Helvetica,sans-Serif" font-size="10.00">src/node/rpc/user_frontend.h</text>
</a>
</g>
</g>
<!-- Node18&#45;&gt;Node23 -->
<g id="edge33" class="edge">
<title>Node18&#45;&gt;Node23</title>
<path fill="none" stroke="midnightblue" d="M274.63,-376.11C215.15,-368.68 138.45,-355.11 116.5,-333 59.55,-275.63 71.31,-163.68 76.06,-131.72"/>
<polygon fill="midnightblue" stroke="midnightblue" points="274.42,-379.61 284.76,-377.34 275.26,-372.66 274.42,-379.61"/>
</g>
<!-- Node19&#45;&gt;Node10 -->
<g id="edge24" class="edge">
<title>Node19&#45;&gt;Node10</title>
<path fill="none" stroke="midnightblue" d="M337.1,-297.75C323.45,-290.08 310.3,-279.71 302.5,-266 268.65,-206.51 282.17,-177.35 302.5,-112 306.9,-97.87 317.45,-84.25 325.02,-75.77"/>
<polygon fill="midnightblue" stroke="midnightblue" points="335.61,-300.91 346.1,-302.4 338.83,-294.7 335.61,-300.91"/>
</g>
<!-- Node19&#45;&gt;Node12 -->
<g id="edge25" class="edge">
<title>Node19&#45;&gt;Node12</title>
<path fill="none" stroke="midnightblue" d="M436.11,-298.95C471.07,-286.32 516.68,-269.85 543.94,-260.01"/>
<polygon fill="midnightblue" stroke="midnightblue" points="434.77,-295.71 426.56,-302.4 437.15,-302.29 434.77,-295.71"/>
</g>
<!-- Node20&#45;&gt;Node10 -->
<g id="edge28" class="edge">
<title>Node20&#45;&gt;Node10</title>
<path fill="none" stroke="midnightblue" d="M176.43,-160.85C190.49,-145.72 210.76,-125.84 231.5,-112 255.49,-95.99 286.11,-83.38 307.51,-75.62"/>
<polygon fill="midnightblue" stroke="midnightblue" points="173.82,-158.52 169.67,-168.27 178.99,-163.23 173.82,-158.52"/>
</g>
<!-- Node21&#45;&gt;Node10 -->
<g id="edge30" class="edge">
<title>Node21&#45;&gt;Node10</title>
<path fill="none" stroke="midnightblue" d="M224.6,-297.88C233.33,-260.66 256.07,-175.2 293.5,-112 301.81,-97.97 314.85,-84.33 323.76,-75.81"/>
<polygon fill="midnightblue" stroke="midnightblue" points="221.15,-297.28 222.34,-307.81 227.97,-298.84 221.15,-297.28"/>
</g>
<!-- Node22 -->
<g id="node22" class="node">
<title>Node22</title>
<g id="a_node22"><a xlink:href="jwt__key__auto__refresh_8h.html" target="_top" xlink:title=" ">
<polygon fill="white" stroke="black" points="312,-235.5 312,-265.5 437,-265.5 437,-235.5 312,-235.5"/>
<text text-anchor="start" x="320" y="-253.5" font-family="Helvetica,sans-Serif" font-size="10.00">src/node/jwt_key_auto</text>
<text text-anchor="middle" x="374.5" y="-242.5" font-family="Helvetica,sans-Serif" font-size="10.00">_refresh.h</text>
</a>
</g>
</g>
<!-- Node21&#45;&gt;Node22 -->
<g id="edge31" class="edge">
<title>Node21&#45;&gt;Node22</title>
<path fill="none" stroke="midnightblue" d="M250.32,-303.91C276.4,-292.91 314.22,-276.94 341.26,-265.53"/>
<polygon fill="midnightblue" stroke="midnightblue" points="248.8,-300.76 240.95,-307.87 251.52,-307.2 248.8,-300.76"/>
</g>
<!-- Node22&#45;&gt;Node13 -->
<g id="edge32" class="edge">
<title>Node22&#45;&gt;Node13</title>
<path fill="none" stroke="midnightblue" d="M406.96,-230.14C427.68,-217.79 453.5,-202.39 469.23,-193.01"/>
<polygon fill="midnightblue" stroke="midnightblue" points="404.95,-227.27 398.15,-235.4 408.53,-233.28 404.95,-227.27"/>
</g>
<!-- Node23&#45;&gt;Node10 -->
<g id="edge34" class="edge">
<title>Node23&#45;&gt;Node10</title>
<path fill="none" stroke="midnightblue" d="M128.01,-110.35C176.39,-100.14 248.45,-84.94 293.13,-75.52"/>
<polygon fill="midnightblue" stroke="midnightblue" points="127.13,-106.95 118.06,-112.44 128.57,-113.8 127.13,-106.95"/>
</g>
<!-- Node24&#45;&gt;Node8 -->
<g id="edge40" class="edge">
<title>Node24&#45;&gt;Node8</title>
<path fill="none" stroke="midnightblue" d="M769.07,-492.74C750.34,-481.25 724.21,-465.22 708.37,-455.51"/>
<polygon fill="midnightblue" stroke="midnightblue" points="767.25,-495.73 777.6,-497.98 770.91,-489.76 767.25,-495.73"/>
</g>
<!-- Node24&#45;&gt;Node22 -->
<g id="edge41" class="edge">
<title>Node24&#45;&gt;Node22</title>
<path fill="none" stroke="midnightblue" d="M727.34,-495.88C693.3,-488.31 651.76,-475.84 618.5,-456 535.92,-406.72 543.23,-359.97 466.5,-302 447.45,-287.61 423.81,-274.73 405.26,-265.57"/>
<polygon fill="midnightblue" stroke="midnightblue" points="726.68,-499.32 737.19,-497.99 728.14,-492.47 726.68,-499.32"/>
</g>
<!-- Node25 -->
<g id="node25" class="node">
<title>Node25</title>
<g id="a_node25"><a xlink:href="http2_8h.html" target="_top" xlink:title=" ">
<polygon fill="white" stroke="black" points="970,-436.5 970,-455.5 1061,-455.5 1061,-436.5 970,-436.5"/>
<text text-anchor="middle" x="1015.5" y="-443.5" font-family="Helvetica,sans-Serif" font-size="10.00">src/http/http2.h</text>
</a>
</g>
</g>
<!-- Node24&#45;&gt;Node25 -->
<g id="edge36" class="edge">
<title>Node24&#45;&gt;Node25</title>
<path fill="none" stroke="midnightblue" d="M833.3,-495.4C876.81,-483.84 943.99,-466 983.47,-455.51"/>
<polygon fill="midnightblue" stroke="midnightblue" points="832.36,-492.03 823.59,-497.98 834.16,-498.79 832.36,-492.03"/>
</g>
<!-- Node26 -->
<g id="node26" class="node">
<title>Node26</title>
<g id="a_node26"><a xlink:href="http2__endpoint_8h.html" target="_top" xlink:title=" ">
<polygon fill="white" stroke="black" points="908,-375 908,-394 1047,-394 1047,-375 908,-375"/>
<text text-anchor="middle" x="977.5" y="-382" font-family="Helvetica,sans-Serif" font-size="10.00">src/http/http2_endpoint.h</text>
</a>
</g>
</g>
<!-- Node24&#45;&gt;Node26 -->
<g id="edge39" class="edge">
<title>Node24&#45;&gt;Node26</title>
<path fill="none" stroke="midnightblue" d="M838.4,-495.13C864.85,-487.15 897.5,-474.54 922.5,-456 945.94,-438.62 964.62,-408.74 972.88,-394.1"/>
<polygon fill="midnightblue" stroke="midnightblue" points="837.23,-491.83 828.59,-497.97 839.17,-498.55 837.23,-491.83"/>
</g>
<!-- Node27 -->
<g id="node27" class="node">
<title>Node27</title>
<g id="a_node27"><a xlink:href="forwarder_8h.html" target="_top" xlink:title=" ">
<polygon fill="white" stroke="black" points="779.5,-436.5 779.5,-455.5 913.5,-455.5 913.5,-436.5 779.5,-436.5"/>
<text text-anchor="middle" x="846.5" y="-443.5" font-family="Helvetica,sans-Serif" font-size="10.00">src/node/rpc/forwarder.h</text>
</a>
</g>
</g>
<!-- Node24&#45;&gt;Node27 -->
<g id="edge42" class="edge">
<title>Node24&#45;&gt;Node27</title>
<path fill="none" stroke="midnightblue" d="M806.29,-490.5C816.7,-479.24 830.23,-464.6 838.63,-455.51"/>
<polygon fill="midnightblue" stroke="midnightblue" points="803.6,-488.26 799.38,-497.98 808.74,-493.01 803.6,-488.26"/>
</g>
<!-- Node25&#45;&gt;Node26 -->
<g id="edge37" class="edge">
<title>Node25&#45;&gt;Node26</title>
<path fill="none" stroke="midnightblue" d="M1004.65,-428.01C997.55,-416.89 988.57,-402.84 982.93,-394.01"/>
<polygon fill="midnightblue" stroke="midnightblue" points="1001.72,-429.93 1010.06,-436.48 1007.62,-426.16 1001.72,-429.93"/>
</g>
<!-- Node26&#45;&gt;Node9 -->
<g id="edge38" class="edge">
<title>Node26&#45;&gt;Node9</title>
<path fill="none" stroke="midnightblue" d="M936.2,-372.17C889.33,-359.32 813.94,-338.64 771.72,-327.06"/>
<polygon fill="midnightblue" stroke="midnightblue" points="935.46,-375.6 946.03,-374.87 937.31,-368.85 935.46,-375.6"/>
</g>
<!-- Node27&#45;&gt;Node10 -->
<g id="edge43" class="edge">
<title>Node27&#45;&gt;Node10</title>
<path fill="none" stroke="midnightblue" d="M854.31,-426.99C864.06,-402.79 879.5,-358.24 879.5,-318.5 879.5,-318.5 879.5,-318.5 879.5,-182.5 879.5,-84.28 537.02,-69.19 394.54,-67.16"/>
<polygon fill="midnightblue" stroke="midnightblue" points="851.04,-425.73 850.42,-436.31 857.5,-428.43 851.04,-425.73"/>
</g>
<!-- Node27&#45;&gt;Node18 -->
<g id="edge44" class="edge">
<title>Node27&#45;&gt;Node18</title>
<path fill="none" stroke="midnightblue" d="M769.38,-435.77C671.83,-424.09 505.58,-404.19 414.28,-393.26"/>
<polygon fill="midnightblue" stroke="midnightblue" points="769.13,-439.26 779.47,-436.98 769.96,-432.31 769.13,-439.26"/>
</g>
<!-- Node28&#45;&gt;Node3 -->
<g id="edge46" class="edge">
<title>Node28&#45;&gt;Node3</title>
<path fill="none" stroke="midnightblue" d="M959.13,-556.92C997.48,-546.96 1053.89,-532.3 1094.59,-521.73"/>
<polygon fill="midnightblue" stroke="midnightblue" points="958.11,-553.57 949.31,-559.48 959.87,-560.35 958.11,-553.57"/>
</g>
<!-- Node28&#45;&gt;Node24 -->
<g id="edge48" class="edge">
<title>Node28&#45;&gt;Node24</title>
<path fill="none" stroke="midnightblue" d="M889.56,-555.17C865.3,-543.63 830.34,-526.99 809.38,-517.01"/>
<polygon fill="midnightblue" stroke="midnightblue" points="888.06,-558.34 898.59,-559.48 891.07,-552.02 888.06,-558.34"/>
</g>
<!-- Node29 -->
<g id="node29" class="node">
<title>Node29</title>
<g id="a_node29"><a xlink:href="sig__auth_8cpp.html" target="_top" xlink:title=" ">
<polygon fill="white" stroke="black" points="883,-492.5 883,-522.5 1038,-522.5 1038,-492.5 883,-492.5"/>
<text text-anchor="start" x="891" y="-510.5" font-family="Helvetica,sans-Serif" font-size="10.00">src/endpoints/authentication</text>
<text text-anchor="middle" x="960.5" y="-499.5" font-family="Helvetica,sans-Serif" font-size="10.00">/sig_auth.cpp</text>
</a>
</g>
</g>
<!-- Node28&#45;&gt;Node29 -->
<g id="edge47" class="edge">
<title>Node28&#45;&gt;Node29</title>
<path fill="none" stroke="midnightblue" d="M928.89,-551.25C935.59,-542.19 943.77,-531.12 950.13,-522.52"/>
<polygon fill="midnightblue" stroke="midnightblue" points="925.94,-549.35 922.8,-559.48 931.56,-553.52 925.94,-549.35"/>
</g>
<!-- Node30&#45;&gt;Node12 -->
<g id="edge50" class="edge">
<title>Node30&#45;&gt;Node12</title>
<path fill="none" stroke="midnightblue" d="M585.66,-550.12C576.19,-526.85 561.5,-484.69 561.5,-447 561.5,-447 561.5,-447 561.5,-383.5 561.5,-336.93 565.27,-281.22 566.83,-260.14"/>
<polygon fill="midnightblue" stroke="midnightblue" points="582.46,-551.55 589.58,-559.4 588.91,-548.83 582.46,-551.55"/>
</g>
<!-- Node31&#45;&gt;Node2 -->
<g id="edge53" class="edge">
<title>Node31&#45;&gt;Node2</title>
<path fill="none" stroke="midnightblue" d="M853.57,-665.9C838.16,-656 818.05,-643.07 804.96,-634.65"/>
<polygon fill="midnightblue" stroke="midnightblue" points="851.7,-668.86 862,-671.32 855.48,-662.97 851.7,-668.86"/>
</g>
<!-- Node31&#45;&gt;Node25 -->
<g id="edge52" class="edge">
<title>Node31&#45;&gt;Node25</title>
<path fill="none" stroke="midnightblue" d="M900.78,-666.32C940.8,-643.04 1017.28,-591.49 1047.5,-523 1053.06,-510.39 1051.69,-505.12 1047.5,-492 1042.95,-477.75 1032.06,-464.16 1024.25,-455.71"/>
<polygon fill="midnightblue" stroke="midnightblue" points="898.87,-663.38 891.91,-671.37 902.33,-669.47 898.87,-663.38"/>
</g>
</g>
</svg>
        <g id="navigator" transform="translate(0 0)" fill="#404254">
                <rect fill="#f2f5e9" fill-opacity="0.5" stroke="#606060" stroke-width=".5" x="0" y="0" width="60" height="60"/>
                <use id="zoomplus" xlink:href="#zoomPlus" x="17" y="9" onmousedown="handleZoom(evt,'in')"/>
                <use id="zoomminus" xlink:href="#zoomMin" x="42" y="9" onmousedown="handleZoom(evt,'out')"/>
                <use id="reset" xlink:href="#resetDef" x="30" y="36" onmousedown="handleReset()"/>
                <g id="arrowUp" xlink:href="#dirArrow" transform="translate(30 24)" onmousedown="handlePan(0,-1)">
                  <use xlink:href="#rim" fill="#404040">
                        <set attributeName="fill" to="#808080" begin="arrowUp.mouseover" end="arrowUp.mouseout"/>
                  </use>
                  <path fill="none" stroke="white" stroke-width="1.5" d="M0,-3.0v7 M-2.5,-0.5L0,-3.0L2.5,-0.5"/>
                </g>
                <g id="arrowRight" xlink:href="#dirArrow" transform="rotate(90) translate(36 -43)" onmousedown="handlePan(1,0)">
                  <use xlink:href="#rim" fill="#404040">
                        <set attributeName="fill" to="#808080" begin="arrowRight.mouseover" end="arrowRight.mouseout"/>
                  </use>
                  <path fill="none" stroke="white" stroke-width="1.5" d="M0,-3.0v7 M-2.5,-0.5L0,-3.0L2.5,-0.5"/>
                </g>
                <g id="arrowDown" xlink:href="#dirArrow" transform="rotate(180) translate(-30 -48)" onmousedown="handlePan(0,1)">
                  <use xlink:href="#rim" fill="#404040">
                        <set attributeName="fill" to="#808080" begin="arrowDown.mouseover" end="arrowDown.mouseout"/>
                  </use>
                  <path fill="none" stroke="white" stroke-width="1.5" d="M0,-3.0v7 M-2.5,-0.5L0,-3.0L2.5,-0.5"/>
                </g>
                <g id="arrowLeft" xlink:href="#dirArrow" transform="rotate(270) translate(-36 17)" onmousedown="handlePan(-1,0)">
                  <use xlink:href="#rim" fill="#404040">
                        <set attributeName="fill" to="#808080" begin="arrowLeft.mouseover" end="arrowLeft.mouseout"/>
                  </use>
                  <path fill="none" stroke="white" stroke-width="1.5" d="M0,-3.0v7 M-2.5,-0.5L0,-3.0L2.5,-0.5"/>
                </g>
        </g>
        <svg viewBox="0 0 15 15" width="100%" height="30px" preserveAspectRatio="xMaxYMin meet">
         <g id="arrow_out" transform="scale(0.3 0.3)">
          <a xlink:href="tls__endpoint_8h__dep__incl_org.svg" target="_base">
           <rect id="button" ry="5" rx="5" y="6" x="6" height="38" width="38"
                fill="#f2f5e9" fill-opacity="0.5" stroke="#606060" stroke-width="1.0"/>
           <path id="arrow"
             d="M 11.500037,31.436501 C 11.940474,20.09759 22.043105,11.32322 32.158766,21.979434 L 37.068811,17.246167 C 37.068811,17.246167 37.088388,32 37.088388,32 L 22.160133,31.978069 C 22.160133,31.978069 26.997745,27.140456 26.997745,27.140456 C 18.528582,18.264221 13.291696,25.230495 11.500037,31.436501 z"
             style="fill:#404040;"/>
          </a>
         </g>
        </svg>
</svg>
