<?xml version="1.0" encoding="UTF-8" standalone="no"?>
<!DOCTYPE svg PUBLIC "-//W3C//DTD SVG 1.1//EN"
 "http://www.w3.org/Graphics/SVG/1.1/DTD/svg11.dtd">
<!-- Generated by graphviz version 2.43.0 (0)
 -->
<!-- Title: src/kv/tx_pimpl.h Pages: 1 -->
<!--zoomable 364 -->
<svg id="main" version="1.1" xmlns="http://www.w3.org/2000/svg" xmlns:xlink="http://www.w3.org/1999/xlink" xml:space="preserve" onload="init(evt)">
<style type="text/css"><![CDATA[
.edge:hover path { stroke: red; }
.edge:hover polygon { stroke: red; fill: red; }
]]></style>
<script type="text/javascript"><![CDATA[
var edges = document.getElementsByTagName('g');
if (edges && edges.length) {
  for (var i=0;i<edges.length;i++) {
    if (edges[i].id.substr(0,4)=='edge') {
      edges[i].setAttribute('class','edge');
    }
  }
}
]]></script>
        <defs>
                <circle id="rim" cx="0" cy="0" r="7"/>
                <circle id="rim2" cx="0" cy="0" r="3.5"/>
                <g id="zoomPlus">
                        <use xlink:href="#rim" fill="#404040">
                                <set attributeName="fill" to="#808080" begin="zoomplus.mouseover" end="zoomplus.mouseout"/>
                        </use>
                        <path d="M-4,0h8M0,-4v8" fill="none" stroke="white" stroke-width="1.5" pointer-events="none"/>
                </g>
                <g id="zoomMin">
                        <use xlink:href="#rim" fill="#404040">
                                <set attributeName="fill" to="#808080" begin="zoomminus.mouseover" end="zoomminus.mouseout"/>
                        </use>
                        <path d="M-4,0h8" fill="none" stroke="white" stroke-width="1.5" pointer-events="none"/>
                </g>
                <g id="dirArrow">
                        <path fill="none" stroke="white" stroke-width="1.5" d="M0,-3.0v7 M-2.5,-0.5L0,-3.0L2.5,-0.5"/>
                </g>
               <g id="resetDef">
                       <use xlink:href="#rim2" fill="#404040">
                               <set attributeName="fill" to="#808080" begin="reset.mouseover" end="reset.mouseout"/>
                       </use>
               </g>
        </defs>

<script type="text/javascript">
var viewWidth = 1440;
var viewHeight = 364;
var sectionId = 'dynsection-0';
</script>
<script xlink:href="svgpan.js"/>
<svg id="graph" class="graph">
<g id="viewport">
<title>src/kv/tx_pimpl.h</title>
<polygon fill="white" stroke="transparent" points="-4,4 -4,-360 1435.78,-360 1435.78,4 -4,4"/>
<!-- Node1 -->
<g id="node1" class="node">
<title>Node1</title>
<g id="a_node1"><a xlink:title=" ">
<polygon fill="#bfbfbf" stroke="black" points="875.28,-336.5 875.28,-355.5 976.28,-355.5 976.28,-336.5 875.28,-336.5"/>
<text text-anchor="middle" x="925.78" y="-343.5" font-family="Helvetica,sans-Serif" font-size="10.00">src/kv/tx_pimpl.h</text>
</a>
</g>
</g>
<!-- Node2 -->
<g id="node2" class="node">
<title>Node2</title>
<g id="a_node2"><a xlink:href="tx_8h.html" target="_top" xlink:title=" ">
<polygon fill="white" stroke="black" points="899.28,-280.5 899.28,-299.5 952.28,-299.5 952.28,-280.5 899.28,-280.5"/>
<text text-anchor="middle" x="925.78" y="-287.5" font-family="Helvetica,sans-Serif" font-size="10.00">ccf/tx.h</text>
</a>
</g>
</g>
<!-- Node1&#45;&gt;Node2 -->
<g id="edge1" class="edge">
<title>Node1&#45;&gt;Node2</title>
<path fill="none" stroke="midnightblue" d="M925.78,-336.08C925.78,-329.01 925.78,-318.86 925.78,-309.99"/>
<polygon fill="midnightblue" stroke="midnightblue" points="929.28,-309.75 925.78,-299.75 922.28,-309.75 929.28,-309.75"/>
</g>
<!-- Node3 -->
<g id="node3" class="node">
<title>Node3</title>
<g id="a_node3"><a xlink:href="ccf__assert_8h.html" target="_top" xlink:title=" ">
<polygon fill="white" stroke="black" points="429.78,-224.5 429.78,-243.5 521.78,-243.5 521.78,-224.5 429.78,-224.5"/>
<text text-anchor="middle" x="475.78" y="-231.5" font-family="Helvetica,sans-Serif" font-size="10.00">ccf/ccf_assert.h</text>
</a>
</g>
</g>
<!-- Node2&#45;&gt;Node3 -->
<g id="edge2" class="edge">
<title>Node2&#45;&gt;Node3</title>
<path fill="none" stroke="midnightblue" d="M898.98,-285.78C827.25,-277.18 629.74,-253.48 532.03,-241.75"/>
<polygon fill="midnightblue" stroke="midnightblue" points="532.39,-238.27 522.04,-240.55 531.55,-245.22 532.39,-238.27"/>
</g>
<!-- Node10 -->
<g id="node10" class="node">
<title>Node10</title>
<g id="a_node10"><a xlink:title=" ">
<polygon fill="white" stroke="#bfbfbf" points="25.78,-56.5 25.78,-75.5 63.78,-75.5 63.78,-56.5 25.78,-56.5"/>
<text text-anchor="middle" x="44.78" y="-63.5" font-family="Helvetica,sans-Serif" font-size="10.00">map</text>
</a>
</g>
</g>
<!-- Node2&#45;&gt;Node10 -->
<g id="edge50" class="edge">
<title>Node2&#45;&gt;Node10</title>
<path fill="none" stroke="midnightblue" d="M899.27,-288.33C823.83,-286.06 601.78,-276.87 420.78,-244 237.45,-210.71 129.57,-280.31 16.78,-132 5.57,-117.26 17.27,-97.35 28.78,-83.46"/>
<polygon fill="midnightblue" stroke="midnightblue" points="31.67,-85.48 35.72,-75.69 26.45,-80.82 31.67,-85.48"/>
</g>
<!-- Node15 -->
<g id="node15" class="node">
<title>Node15</title>
<g id="a_node15"><a xlink:title=" ">
<polygon fill="white" stroke="#bfbfbf" points="556.78,-112.5 556.78,-131.5 612.78,-131.5 612.78,-112.5 556.78,-112.5"/>
<text text-anchor="middle" x="584.78" y="-119.5" font-family="Helvetica,sans-Serif" font-size="10.00">optional</text>
</a>
</g>
</g>
<!-- Node2&#45;&gt;Node15 -->
<g id="edge52" class="edge">
<title>Node2&#45;&gt;Node15</title>
<path fill="none" stroke="midnightblue" d="M899.07,-286.7C860.42,-282.53 787.44,-271.46 731.78,-244 676.68,-216.82 624.09,-165.31 599.42,-139.14"/>
<polygon fill="midnightblue" stroke="midnightblue" points="601.79,-136.55 592.42,-131.6 596.66,-141.31 601.79,-136.55"/>
</g>
<!-- Node18 -->
<g id="node18" class="node">
<title>Node18</title>
<g id="a_node18"><a xlink:href="sha256__hash_8h.html" target="_top" xlink:title=" ">
<polygon fill="white" stroke="black" points="740.78,-224.5 740.78,-243.5 880.78,-243.5 880.78,-224.5 740.78,-224.5"/>
<text text-anchor="middle" x="810.78" y="-231.5" font-family="Helvetica,sans-Serif" font-size="10.00">ccf/crypto/sha256_hash.h</text>
</a>
</g>
</g>
<!-- Node2&#45;&gt;Node18 -->
<g id="edge19" class="edge">
<title>Node2&#45;&gt;Node18</title>
<path fill="none" stroke="midnightblue" d="M907.56,-280.44C888.88,-271.68 859.62,-257.94 838.16,-247.86"/>
<polygon fill="midnightblue" stroke="midnightblue" points="839.46,-244.6 828.92,-243.52 836.48,-250.93 839.46,-244.6"/>
</g>
<!-- Node21 -->
<g id="node21" class="node">
<title>Node21</title>
<g id="a_node21"><a xlink:title=" ">
<polygon fill="white" stroke="#bfbfbf" points="1225.78,-0.5 1225.78,-19.5 1269.78,-19.5 1269.78,-0.5 1225.78,-0.5"/>
<text text-anchor="middle" x="1247.78" y="-7.5" font-family="Helvetica,sans-Serif" font-size="10.00">string</text>
</a>
</g>
</g>
<!-- Node2&#45;&gt;Node21 -->
<g id="edge53" class="edge">
<title>Node2&#45;&gt;Node21</title>
<path fill="none" stroke="midnightblue" d="M952.39,-286.88C1037.23,-279.4 1295.78,-250.71 1295.78,-179 1295.78,-179 1295.78,-179 1295.78,-121 1295.78,-85.58 1274.62,-48.71 1260.4,-27.92"/>
<polygon fill="midnightblue" stroke="midnightblue" points="1263.1,-25.68 1254.45,-19.56 1257.4,-29.74 1263.1,-25.68"/>
</g>
<!-- Node30 -->
<g id="node30" class="node">
<title>Node30</title>
<g id="a_node30"><a xlink:href="tx__id_8h.html" target="_top" xlink:title=" ">
<polygon fill="white" stroke="black" points="1008.28,-224.5 1008.28,-243.5 1075.28,-243.5 1075.28,-224.5 1008.28,-224.5"/>
<text text-anchor="middle" x="1041.78" y="-231.5" font-family="Helvetica,sans-Serif" font-size="10.00">ccf/tx_id.h</text>
</a>
</g>
</g>
<!-- Node2&#45;&gt;Node30 -->
<g id="edge40" class="edge">
<title>Node2&#45;&gt;Node30</title>
<path fill="none" stroke="midnightblue" d="M944.16,-280.44C963,-271.68 992.51,-257.94 1014.16,-247.86"/>
<polygon fill="midnightblue" stroke="midnightblue" points="1015.9,-250.91 1023.49,-243.52 1012.94,-244.56 1015.9,-250.91"/>
</g>
<!-- Node33 -->
<g id="node33" class="node">
<title>Node33</title>
<g id="a_node33"><a xlink:title=" ">
<polygon fill="white" stroke="#bfbfbf" points="1323.78,-224.5 1323.78,-243.5 1355.78,-243.5 1355.78,-224.5 1323.78,-224.5"/>
<text text-anchor="middle" x="1339.78" y="-231.5" font-family="Helvetica,sans-Serif" font-size="10.00">list</text>
</a>
</g>
</g>
<!-- Node2&#45;&gt;Node33 -->
<g id="edge49" class="edge">
<title>Node2&#45;&gt;Node33</title>
<path fill="none" stroke="midnightblue" d="M952.57,-287.48C1015.48,-283.55 1177.33,-271.41 1309.78,-244 1311.07,-243.73 1312.38,-243.44 1313.7,-243.12"/>
<polygon fill="midnightblue" stroke="midnightblue" points="1315,-246.39 1323.72,-240.38 1313.15,-239.64 1315,-246.39"/>
</g>
<!-- Node34 -->
<g id="node34" class="node">
<title>Node34</title>
<g id="a_node34"><a xlink:title=" ">
<polygon fill="white" stroke="#bfbfbf" points="1373.78,-224.5 1373.78,-243.5 1431.78,-243.5 1431.78,-224.5 1373.78,-224.5"/>
<text text-anchor="middle" x="1402.78" y="-231.5" font-family="Helvetica,sans-Serif" font-size="10.00">memory</text>
</a>
</g>
</g>
<!-- Node2&#45;&gt;Node34 -->
<g id="edge51" class="edge">
<title>Node2&#45;&gt;Node34</title>
<path fill="none" stroke="midnightblue" d="M952.42,-287.48C1019.7,-283.4 1202.04,-270.73 1363.3,-244.05"/>
<polygon fill="midnightblue" stroke="midnightblue" points="1364.12,-247.46 1373.4,-242.36 1362.96,-240.56 1364.12,-247.46"/>
</g>
<!-- Node4 -->
<g id="node4" class="node">
<title>Node4</title>
<g id="a_node4"><a xlink:href="logger_8h.html" target="_top" xlink:title=" ">
<polygon fill="white" stroke="black" points="341.28,-168.5 341.28,-187.5 428.28,-187.5 428.28,-168.5 341.28,-168.5"/>
<text text-anchor="middle" x="384.78" y="-175.5" font-family="Helvetica,sans-Serif" font-size="10.00">ccf/ds/logger.h</text>
</a>
</g>
</g>
<!-- Node3&#45;&gt;Node4 -->
<g id="edge3" class="edge">
<title>Node3&#45;&gt;Node4</title>
<path fill="none" stroke="midnightblue" d="M461.16,-224.32C446.83,-215.82 424.77,-202.73 408.03,-192.8"/>
<polygon fill="midnightblue" stroke="midnightblue" points="409.75,-189.75 399.36,-187.65 406.18,-195.77 409.75,-189.75"/>
</g>
<!-- Node5 -->
<g id="node5" class="node">
<title>Node5</title>
<g id="a_node5"><a xlink:href="enum__formatter_8h.html" target="_top" xlink:title=" ">
<polygon fill="white" stroke="black" points="364.78,-112.5 364.78,-131.5 500.78,-131.5 500.78,-112.5 364.78,-112.5"/>
<text text-anchor="middle" x="432.78" y="-119.5" font-family="Helvetica,sans-Serif" font-size="10.00">ccf/ds/enum_formatter.h</text>
</a>
</g>
</g>
<!-- Node4&#45;&gt;Node5 -->
<g id="edge4" class="edge">
<title>Node4&#45;&gt;Node5</title>
<path fill="none" stroke="midnightblue" d="M392.71,-168.08C399.63,-160.3 409.85,-148.8 418.23,-139.37"/>
<polygon fill="midnightblue" stroke="midnightblue" points="420.97,-141.55 425,-131.75 415.74,-136.9 420.97,-141.55"/>
</g>
<!-- Node6 -->
<g id="node6" class="node">
<title>Node6</title>
<g id="a_node6"><a xlink:title=" ">
<polygon fill="white" stroke="#bfbfbf" points="675.28,-56.5 675.28,-75.5 754.28,-75.5 754.28,-56.5 675.28,-56.5"/>
<text text-anchor="middle" x="714.78" y="-63.5" font-family="Helvetica,sans-Serif" font-size="10.00">fmt/format.h</text>
</a>
</g>
</g>
<!-- Node4&#45;&gt;Node6 -->
<g id="edge13" class="edge">
<title>Node4&#45;&gt;Node6</title>
<path fill="none" stroke="midnightblue" d="M375.18,-168.07C361.84,-154.6 340.9,-128.86 355.78,-112 375.91,-89.19 571.18,-75.13 664.97,-69.64"/>
<polygon fill="midnightblue" stroke="midnightblue" points="665.3,-73.13 675.08,-69.06 664.9,-66.14 665.3,-73.13"/>
</g>
<!-- Node7 -->
<g id="node7" class="node">
<title>Node7</title>
<g id="a_node7"><a xlink:href="thread__ids_8h.html" target="_top" xlink:title=" ">
<polygon fill="white" stroke="black" points="25.78,-112.5 25.78,-131.5 133.78,-131.5 133.78,-112.5 25.78,-112.5"/>
<text text-anchor="middle" x="79.78" y="-119.5" font-family="Helvetica,sans-Serif" font-size="10.00">ccf/ds/thread_ids.h</text>
</a>
</g>
</g>
<!-- Node4&#45;&gt;Node7 -->
<g id="edge6" class="edge">
<title>Node4&#45;&gt;Node7</title>
<path fill="none" stroke="midnightblue" d="M341.08,-169.26C287.67,-159.81 197.12,-143.77 137.88,-133.29"/>
<polygon fill="midnightblue" stroke="midnightblue" points="138.38,-129.82 127.93,-131.52 137.16,-136.71 138.38,-129.82"/>
</g>
<!-- Node12 -->
<g id="node12" class="node">
<title>Node12</title>
<g id="a_node12"><a xlink:title=" ">
<polygon fill="white" stroke="#bfbfbf" points="152.28,-112.5 152.28,-131.5 231.28,-131.5 231.28,-112.5 152.28,-112.5"/>
<text text-anchor="middle" x="191.78" y="-119.5" font-family="Helvetica,sans-Serif" font-size="10.00">fmt/chrono.h</text>
</a>
</g>
</g>
<!-- Node4&#45;&gt;Node12 -->
<g id="edge12" class="edge">
<title>Node4&#45;&gt;Node12</title>
<path fill="none" stroke="midnightblue" d="M354.2,-168.44C321.17,-159.2 268.39,-144.44 232.01,-134.26"/>
<polygon fill="midnightblue" stroke="midnightblue" points="232.79,-130.84 222.22,-131.52 230.91,-137.58 232.79,-130.84"/>
</g>
<!-- Node13 -->
<g id="node13" class="node">
<title>Node13</title>
<g id="a_node13"><a xlink:title=" ">
<polygon fill="white" stroke="#bfbfbf" points="248.78,-112.5 248.78,-131.5 308.78,-131.5 308.78,-112.5 248.78,-112.5"/>
<text text-anchor="middle" x="278.78" y="-119.5" font-family="Helvetica,sans-Serif" font-size="10.00">iostream</text>
</a>
</g>
</g>
<!-- Node4&#45;&gt;Node13 -->
<g id="edge14" class="edge">
<title>Node4&#45;&gt;Node13</title>
<path fill="none" stroke="midnightblue" d="M367.75,-168.32C350.75,-159.66 324.4,-146.24 304.79,-136.25"/>
<polygon fill="midnightblue" stroke="midnightblue" points="306.27,-133.08 295.77,-131.65 303.09,-139.31 306.27,-133.08"/>
</g>
<!-- Node14 -->
<g id="node14" class="node">
<title>Node14</title>
<g id="a_node14"><a xlink:title=" ">
<polygon fill="white" stroke="#bfbfbf" points="951.78,-56.5 951.78,-75.5 1061.78,-75.5 1061.78,-56.5 951.78,-56.5"/>
<text text-anchor="middle" x="1006.78" y="-63.5" font-family="Helvetica,sans-Serif" font-size="10.00">nlohmann/json.hpp</text>
</a>
</g>
</g>
<!-- Node4&#45;&gt;Node14 -->
<g id="edge15" class="edge">
<title>Node4&#45;&gt;Node14</title>
<path fill="none" stroke="midnightblue" d="M412.03,-168.41C437.64,-160.04 476.85,-146.51 509.78,-132 527.25,-124.3 529.48,-117.42 547.78,-112 713.68,-62.91 765.74,-95.04 941.54,-76.06"/>
<polygon fill="midnightblue" stroke="midnightblue" points="942.1,-79.52 951.64,-74.93 941.32,-72.56 942.1,-79.52"/>
</g>
<!-- Node4&#45;&gt;Node15 -->
<g id="edge16" class="edge">
<title>Node4&#45;&gt;Node15</title>
<path fill="none" stroke="midnightblue" d="M416.47,-168.44C451.71,-158.93 508.62,-143.56 546.37,-133.37"/>
<polygon fill="midnightblue" stroke="midnightblue" points="547.73,-136.63 556.47,-130.64 545.91,-129.87 547.73,-136.63"/>
</g>
<!-- Node16 -->
<g id="node16" class="node">
<title>Node16</title>
<g id="a_node16"><a xlink:title=" ">
<polygon fill="white" stroke="#bfbfbf" points="630.78,-112.5 630.78,-131.5 686.78,-131.5 686.78,-112.5 630.78,-112.5"/>
<text text-anchor="middle" x="658.78" y="-119.5" font-family="Helvetica,sans-Serif" font-size="10.00">sstream</text>
</a>
</g>
</g>
<!-- Node4&#45;&gt;Node16 -->
<g id="edge17" class="edge">
<title>Node4&#45;&gt;Node16</title>
<path fill="none" stroke="midnightblue" d="M428.6,-169.37C474.22,-161.27 547.97,-147.75 620.74,-132.14"/>
<polygon fill="midnightblue" stroke="midnightblue" points="621.5,-135.56 630.53,-130.03 620.02,-128.72 621.5,-135.56"/>
</g>
<!-- Node17 -->
<g id="node17" class="node">
<title>Node17</title>
<g id="a_node17"><a xlink:title=" ">
<polygon fill="white" stroke="#bfbfbf" points="342.28,-0.5 342.28,-19.5 411.28,-19.5 411.28,-0.5 342.28,-0.5"/>
<text text-anchor="middle" x="376.78" y="-7.5" font-family="Helvetica,sans-Serif" font-size="10.00">type_traits</text>
</a>
</g>
</g>
<!-- Node4&#45;&gt;Node17 -->
<g id="edge18" class="edge">
<title>Node4&#45;&gt;Node17</title>
<path fill="none" stroke="midnightblue" d="M340.98,-174.85C248.07,-169.83 37.98,-155.95 16.78,-132 -5.61,-106.71 -5.57,-81.32 16.78,-56 37.35,-32.7 240.23,-18.58 332.05,-13.33"/>
<polygon fill="midnightblue" stroke="midnightblue" points="332.37,-16.82 342.15,-12.76 331.97,-9.83 332.37,-16.82"/>
</g>
<!-- Node5&#45;&gt;Node6 -->
<g id="edge5" class="edge">
<title>Node5&#45;&gt;Node6</title>
<path fill="none" stroke="midnightblue" d="M477.46,-112.44C528.53,-102.66 611.88,-86.7 664.99,-76.53"/>
<polygon fill="midnightblue" stroke="midnightblue" points="665.7,-79.96 674.87,-74.64 664.39,-73.09 665.7,-79.96"/>
</g>
<!-- Node7&#45;&gt;Node6 -->
<g id="edge7" class="edge">
<title>Node7&#45;&gt;Node6</title>
<path fill="none" stroke="midnightblue" d="M134.05,-113.02C137,-112.66 139.93,-112.32 142.78,-112 335.46,-90.68 565.76,-75.77 665.12,-69.84"/>
<polygon fill="midnightblue" stroke="midnightblue" points="665.4,-73.33 675.17,-69.25 664.98,-66.35 665.4,-73.33"/>
</g>
<!-- Node8 -->
<g id="node8" class="node">
<title>Node8</title>
<g id="a_node8"><a xlink:title=" ">
<polygon fill="white" stroke="#bfbfbf" points="81.78,-56.5 81.78,-75.5 167.78,-75.5 167.78,-56.5 81.78,-56.5"/>
<text text-anchor="middle" x="124.78" y="-63.5" font-family="Helvetica,sans-Serif" font-size="10.00">fmt/ostream.h</text>
</a>
</g>
</g>
<!-- Node7&#45;&gt;Node8 -->
<g id="edge8" class="edge">
<title>Node7&#45;&gt;Node8</title>
<path fill="none" stroke="midnightblue" d="M87.21,-112.08C93.63,-104.38 103.09,-93.03 110.9,-83.65"/>
<polygon fill="midnightblue" stroke="midnightblue" points="113.77,-85.67 117.49,-75.75 108.4,-81.19 113.77,-85.67"/>
</g>
<!-- Node9 -->
<g id="node9" class="node">
<title>Node9</title>
<g id="a_node9"><a xlink:title=" ">
<polygon fill="white" stroke="#bfbfbf" points="185.78,-56.5 185.78,-75.5 229.78,-75.5 229.78,-56.5 185.78,-56.5"/>
<text text-anchor="middle" x="207.78" y="-63.5" font-family="Helvetica,sans-Serif" font-size="10.00">limits</text>
</a>
</g>
</g>
<!-- Node7&#45;&gt;Node9 -->
<g id="edge9" class="edge">
<title>Node7&#45;&gt;Node9</title>
<path fill="none" stroke="midnightblue" d="M100.06,-112.44C121.13,-103.56 154.3,-89.56 178.27,-79.45"/>
<polygon fill="midnightblue" stroke="midnightblue" points="179.74,-82.63 187.59,-75.52 177.02,-76.18 179.74,-82.63"/>
</g>
<!-- Node7&#45;&gt;Node10 -->
<g id="edge10" class="edge">
<title>Node7&#45;&gt;Node10</title>
<path fill="none" stroke="midnightblue" d="M74,-112.08C69.11,-104.53 61.95,-93.49 55.95,-84.23"/>
<polygon fill="midnightblue" stroke="midnightblue" points="58.83,-82.24 50.45,-75.75 52.95,-86.05 58.83,-82.24"/>
</g>
<!-- Node11 -->
<g id="node11" class="node">
<title>Node11</title>
<g id="a_node11"><a xlink:title=" ">
<polygon fill="white" stroke="#bfbfbf" points="247.78,-56.5 247.78,-75.5 295.78,-75.5 295.78,-56.5 247.78,-56.5"/>
<text text-anchor="middle" x="271.78" y="-63.5" font-family="Helvetica,sans-Serif" font-size="10.00">thread</text>
</a>
</g>
</g>
<!-- Node7&#45;&gt;Node11 -->
<g id="edge11" class="edge">
<title>Node7&#45;&gt;Node11</title>
<path fill="none" stroke="midnightblue" d="M110.2,-112.44C144.85,-102.7 201.32,-86.82 237.5,-76.64"/>
<polygon fill="midnightblue" stroke="midnightblue" points="238.9,-79.88 247.58,-73.81 237,-73.14 238.9,-79.88"/>
</g>
<!-- Node18&#45;&gt;Node6 -->
<g id="edge39" class="edge">
<title>Node18&#45;&gt;Node6</title>
<path fill="none" stroke="midnightblue" d="M784.46,-224.38C767.26,-217.35 745.82,-205.65 733.78,-188 712.58,-156.93 711.6,-111.02 713.03,-85.62"/>
<polygon fill="midnightblue" stroke="midnightblue" points="716.53,-85.75 713.79,-75.51 709.55,-85.22 716.53,-85.75"/>
</g>
<!-- Node19 -->
<g id="node19" class="node">
<title>Node19</title>
<g id="a_node19"><a xlink:href="json_8h.html" target="_top" xlink:title=" ">
<polygon fill="white" stroke="black" points="877.28,-168.5 877.28,-187.5 954.28,-187.5 954.28,-168.5 877.28,-168.5"/>
<text text-anchor="middle" x="915.78" y="-175.5" font-family="Helvetica,sans-Serif" font-size="10.00">ccf/ds/json.h</text>
</a>
</g>
</g>
<!-- Node18&#45;&gt;Node19 -->
<g id="edge20" class="edge">
<title>Node18&#45;&gt;Node19</title>
<path fill="none" stroke="midnightblue" d="M827.65,-224.32C844.49,-215.66 870.59,-202.24 890.02,-192.25"/>
<polygon fill="midnightblue" stroke="midnightblue" points="891.66,-195.34 898.95,-187.65 888.46,-189.12 891.66,-195.34"/>
</g>
<!-- Node26 -->
<g id="node26" class="node">
<title>Node26</title>
<g id="a_node26"><a xlink:title=" ">
<polygon fill="white" stroke="#bfbfbf" points="794.78,-0.5 794.78,-19.5 836.78,-19.5 836.78,-0.5 794.78,-0.5"/>
<text text-anchor="middle" x="815.78" y="-7.5" font-family="Helvetica,sans-Serif" font-size="10.00">array</text>
</a>
</g>
</g>
<!-- Node18&#45;&gt;Node26 -->
<g id="edge37" class="edge">
<title>Node18&#45;&gt;Node26</title>
<path fill="none" stroke="midnightblue" d="M810.98,-224.3C811.71,-191.63 814.32,-75.87 815.35,-29.96"/>
<polygon fill="midnightblue" stroke="midnightblue" points="818.85,-29.96 815.58,-19.88 811.86,-29.8 818.85,-29.96"/>
</g>
<!-- Node29 -->
<g id="node29" class="node">
<title>Node29</title>
<g id="a_node29"><a xlink:title=" ">
<polygon fill="white" stroke="#bfbfbf" points="742.78,-168.5 742.78,-187.5 782.78,-187.5 782.78,-168.5 742.78,-168.5"/>
<text text-anchor="middle" x="762.78" y="-175.5" font-family="Helvetica,sans-Serif" font-size="10.00">span</text>
</a>
</g>
</g>
<!-- Node18&#45;&gt;Node29 -->
<g id="edge38" class="edge">
<title>Node18&#45;&gt;Node29</title>
<path fill="none" stroke="midnightblue" d="M802.85,-224.08C795.93,-216.3 785.72,-204.8 777.33,-195.37"/>
<polygon fill="midnightblue" stroke="midnightblue" points="779.82,-192.9 770.56,-187.75 774.59,-197.55 779.82,-192.9"/>
</g>
<!-- Node19&#45;&gt;Node6 -->
<g id="edge35" class="edge">
<title>Node19&#45;&gt;Node6</title>
<path fill="none" stroke="midnightblue" d="M877,-169.86C847.82,-163.24 807.71,-151.43 776.78,-132 756.66,-119.36 738.53,-98.74 727.14,-84.11"/>
<polygon fill="midnightblue" stroke="midnightblue" points="729.78,-81.8 720.97,-75.91 724.19,-86 729.78,-81.8"/>
</g>
<!-- Node19&#45;&gt;Node16 -->
<g id="edge36" class="edge">
<title>Node19&#45;&gt;Node16</title>
<path fill="none" stroke="midnightblue" d="M877.03,-168.86C828.43,-158.65 745.62,-141.25 697.19,-131.07"/>
<polygon fill="midnightblue" stroke="midnightblue" points="697.62,-127.58 687.11,-128.95 696.18,-134.43 697.62,-127.58"/>
</g>
<!-- Node20 -->
<g id="node20" class="node">
<title>Node20</title>
<g id="a_node20"><a xlink:href="include_2ccf_2crypto_2base64_8h.html" target="_top" xlink:title=" ">
<polygon fill="white" stroke="black" points="1079.78,-56.5 1079.78,-75.5 1191.78,-75.5 1191.78,-56.5 1079.78,-56.5"/>
<text text-anchor="middle" x="1135.78" y="-63.5" font-family="Helvetica,sans-Serif" font-size="10.00">ccf/crypto/base64.h</text>
</a>
</g>
</g>
<!-- Node19&#45;&gt;Node20 -->
<g id="edge21" class="edge">
<title>Node19&#45;&gt;Node20</title>
<path fill="none" stroke="midnightblue" d="M933.04,-168.37C971.44,-149.17 1064.1,-102.84 1109.63,-80.07"/>
<polygon fill="midnightblue" stroke="midnightblue" points="1111.22,-83.19 1118.6,-75.59 1108.09,-76.93 1111.22,-83.19"/>
</g>
<!-- Node23 -->
<g id="node23" class="node">
<title>Node23</title>
<g id="a_node23"><a xlink:href="include_2ccf_2ds_2json__schema_8h.html" target="_top" xlink:title=" ">
<polygon fill="white" stroke="black" points="857.28,-112.5 857.28,-131.5 978.28,-131.5 978.28,-112.5 857.28,-112.5"/>
<text text-anchor="middle" x="917.78" y="-119.5" font-family="Helvetica,sans-Serif" font-size="10.00">ccf/ds/json_schema.h</text>
</a>
</g>
</g>
<!-- Node19&#45;&gt;Node23 -->
<g id="edge24" class="edge">
<title>Node19&#45;&gt;Node23</title>
<path fill="none" stroke="midnightblue" d="M916.11,-168.08C916.37,-161.01 916.75,-150.86 917.08,-141.99"/>
<polygon fill="midnightblue" stroke="midnightblue" points="920.58,-141.87 917.46,-131.75 913.59,-141.61 920.58,-141.87"/>
</g>
<!-- Node20&#45;&gt;Node21 -->
<g id="edge22" class="edge">
<title>Node20&#45;&gt;Node21</title>
<path fill="none" stroke="midnightblue" d="M1153.78,-56.32C1171.82,-47.62 1199.83,-34.12 1220.58,-24.11"/>
<polygon fill="midnightblue" stroke="midnightblue" points="1222.34,-27.15 1229.83,-19.65 1219.3,-20.84 1222.34,-27.15"/>
</g>
<!-- Node22 -->
<g id="node22" class="node">
<title>Node22</title>
<g id="a_node22"><a xlink:title=" ">
<polygon fill="white" stroke="#bfbfbf" points="1042.28,-0.5 1042.28,-19.5 1089.28,-19.5 1089.28,-0.5 1042.28,-0.5"/>
<text text-anchor="middle" x="1065.78" y="-7.5" font-family="Helvetica,sans-Serif" font-size="10.00">vector</text>
</a>
</g>
</g>
<!-- Node20&#45;&gt;Node22 -->
<g id="edge23" class="edge">
<title>Node20&#45;&gt;Node22</title>
<path fill="none" stroke="midnightblue" d="M1124.53,-56.32C1113.98,-48.18 1097.98,-35.84 1085.34,-26.09"/>
<polygon fill="midnightblue" stroke="midnightblue" points="1087.29,-23.17 1077.23,-19.83 1083.01,-28.71 1087.29,-23.17"/>
</g>
<!-- Node23&#45;&gt;Node6 -->
<g id="edge33" class="edge">
<title>Node23&#45;&gt;Node6</title>
<path fill="none" stroke="midnightblue" d="M885.61,-112.44C850.72,-103.16 794.89,-88.31 756.61,-78.13"/>
<polygon fill="midnightblue" stroke="midnightblue" points="757.36,-74.7 746.8,-75.52 755.56,-81.47 757.36,-74.7"/>
</g>
<!-- Node23&#45;&gt;Node14 -->
<g id="edge34" class="edge">
<title>Node23&#45;&gt;Node14</title>
<path fill="none" stroke="midnightblue" d="M932.08,-112.32C945.96,-103.9 967.27,-90.97 983.58,-81.07"/>
<polygon fill="midnightblue" stroke="midnightblue" points="985.78,-83.83 992.52,-75.65 982.15,-77.85 985.78,-83.83"/>
</g>
<!-- Node24 -->
<g id="node24" class="node">
<title>Node24</title>
<g id="a_node24"><a xlink:href="nonstd_8h.html" target="_top" xlink:title=" ">
<polygon fill="white" stroke="black" points="843.78,-56.5 843.78,-75.5 933.78,-75.5 933.78,-56.5 843.78,-56.5"/>
<text text-anchor="middle" x="888.78" y="-63.5" font-family="Helvetica,sans-Serif" font-size="10.00">ccf/ds/nonstd.h</text>
</a>
</g>
</g>
<!-- Node23&#45;&gt;Node24 -->
<g id="edge25" class="edge">
<title>Node23&#45;&gt;Node24</title>
<path fill="none" stroke="midnightblue" d="M912.99,-112.08C909.02,-104.69 903.26,-93.95 898.35,-84.81"/>
<polygon fill="midnightblue" stroke="midnightblue" points="901.29,-82.91 893.48,-75.75 895.13,-86.22 901.29,-82.91"/>
</g>
<!-- Node24&#45;&gt;Node17 -->
<g id="edge31" class="edge">
<title>Node24&#45;&gt;Node17</title>
<path fill="none" stroke="midnightblue" d="M843.34,-60.21C745.94,-49.93 518.04,-25.9 421.39,-15.7"/>
<polygon fill="midnightblue" stroke="midnightblue" points="421.67,-12.21 411.36,-14.65 420.93,-19.18 421.67,-12.21"/>
</g>
<!-- Node24&#45;&gt;Node21 -->
<g id="edge29" class="edge">
<title>Node24&#45;&gt;Node21</title>
<path fill="none" stroke="midnightblue" d="M933.85,-57.39C936.87,-56.91 939.87,-56.44 942.78,-56 1059.86,-38.26 1090.19,-40.71 1206.78,-20 1209.67,-19.49 1212.67,-18.91 1215.67,-18.31"/>
<polygon fill="midnightblue" stroke="midnightblue" points="1216.66,-21.68 1225.72,-16.19 1215.21,-14.83 1216.66,-21.68"/>
</g>
<!-- Node24&#45;&gt;Node22 -->
<g id="edge32" class="edge">
<title>Node24&#45;&gt;Node22</title>
<path fill="none" stroke="midnightblue" d="M916.83,-56.44C948.19,-46.88 998.95,-31.39 1032.35,-21.2"/>
<polygon fill="midnightblue" stroke="midnightblue" points="1033.57,-24.49 1042.11,-18.22 1031.53,-17.79 1033.57,-24.49"/>
</g>
<!-- Node25 -->
<g id="node25" class="node">
<title>Node25</title>
<g id="a_node25"><a xlink:title=" ">
<polygon fill="white" stroke="#bfbfbf" points="855.78,-0.5 855.78,-19.5 919.78,-19.5 919.78,-0.5 855.78,-0.5"/>
<text text-anchor="middle" x="887.78" y="-7.5" font-family="Helvetica,sans-Serif" font-size="10.00">algorithm</text>
</a>
</g>
</g>
<!-- Node24&#45;&gt;Node25 -->
<g id="edge26" class="edge">
<title>Node24&#45;&gt;Node25</title>
<path fill="none" stroke="midnightblue" d="M888.62,-56.08C888.48,-49.01 888.3,-38.86 888.13,-29.99"/>
<polygon fill="midnightblue" stroke="midnightblue" points="891.63,-29.68 887.94,-19.75 884.63,-29.81 891.63,-29.68"/>
</g>
<!-- Node24&#45;&gt;Node26 -->
<g id="edge27" class="edge">
<title>Node24&#45;&gt;Node26</title>
<path fill="none" stroke="midnightblue" d="M877.05,-56.32C865.94,-48.11 849.04,-35.6 835.8,-25.81"/>
<polygon fill="midnightblue" stroke="midnightblue" points="837.84,-22.97 827.72,-19.83 833.68,-28.59 837.84,-22.97"/>
</g>
<!-- Node27 -->
<g id="node27" class="node">
<title>Node27</title>
<g id="a_node27"><a xlink:title=" ">
<polygon fill="white" stroke="#bfbfbf" points="938.28,-0.5 938.28,-19.5 987.28,-19.5 987.28,-0.5 938.28,-0.5"/>
<text text-anchor="middle" x="962.78" y="-7.5" font-family="Helvetica,sans-Serif" font-size="10.00">cctype</text>
</a>
</g>
</g>
<!-- Node24&#45;&gt;Node27 -->
<g id="edge28" class="edge">
<title>Node24&#45;&gt;Node27</title>
<path fill="none" stroke="midnightblue" d="M900.67,-56.32C911.93,-48.11 929.07,-35.6 942.49,-25.81"/>
<polygon fill="midnightblue" stroke="midnightblue" points="944.66,-28.56 950.67,-19.83 940.53,-22.9 944.66,-28.56"/>
</g>
<!-- Node28 -->
<g id="node28" class="node">
<title>Node28</title>
<g id="a_node28"><a xlink:title=" ">
<polygon fill="white" stroke="#bfbfbf" points="1125.28,-0.5 1125.28,-19.5 1198.28,-19.5 1198.28,-0.5 1125.28,-0.5"/>
<text text-anchor="middle" x="1161.78" y="-7.5" font-family="Helvetica,sans-Serif" font-size="10.00">string_view</text>
</a>
</g>
</g>
<!-- Node24&#45;&gt;Node28 -->
<g id="edge30" class="edge">
<title>Node24&#45;&gt;Node28</title>
<path fill="none" stroke="midnightblue" d="M932.04,-56.44C982.08,-46.55 1064.14,-30.31 1115.44,-20.17"/>
<polygon fill="midnightblue" stroke="midnightblue" points="1116.15,-23.59 1125.28,-18.22 1114.79,-16.73 1116.15,-23.59"/>
</g>
<!-- Node30&#45;&gt;Node6 -->
<g id="edge44" class="edge">
<title>Node30&#45;&gt;Node6</title>
<path fill="none" stroke="midnightblue" d="M1033.37,-224.16C1019.76,-210.33 991.52,-183.55 962.78,-168 915.68,-142.51 897.54,-151.81 847.78,-132 808.87,-116.5 765.59,-94.39 739.28,-80.37"/>
<polygon fill="midnightblue" stroke="midnightblue" points="740.86,-77.25 730.4,-75.6 737.55,-83.41 740.86,-77.25"/>
</g>
<!-- Node30&#45;&gt;Node14 -->
<g id="edge45" class="edge">
<title>Node30&#45;&gt;Node14</title>
<path fill="none" stroke="midnightblue" d="M1075.29,-227.25C1113.02,-219.07 1166.99,-201.23 1149.78,-168 1126.78,-123.6 1074.28,-94.55 1039.69,-79.46"/>
<polygon fill="midnightblue" stroke="midnightblue" points="1041.03,-76.23 1030.45,-75.57 1038.31,-82.68 1041.03,-76.23"/>
</g>
<!-- Node30&#45;&gt;Node15 -->
<g id="edge46" class="edge">
<title>Node30&#45;&gt;Node15</title>
<path fill="none" stroke="midnightblue" d="M1008.74,-224.5C973.73,-215.48 916.84,-200.8 867.78,-188 833.98,-179.18 825.76,-176.06 791.78,-168 719.72,-150.9 698.79,-149.24 623.07,-132.24"/>
<polygon fill="midnightblue" stroke="midnightblue" points="623.57,-128.76 613.04,-129.97 622.02,-135.59 623.57,-128.76"/>
</g>
<!-- Node30&#45;&gt;Node19 -->
<g id="edge41" class="edge">
<title>Node30&#45;&gt;Node19</title>
<path fill="none" stroke="midnightblue" d="M1021.82,-224.44C1001.17,-215.6 968.72,-201.69 945.15,-191.59"/>
<polygon fill="midnightblue" stroke="midnightblue" points="946.22,-188.24 935.65,-187.52 943.46,-194.67 946.22,-188.24"/>
</g>
<!-- Node30&#45;&gt;Node21 -->
<g id="edge47" class="edge">
<title>Node30&#45;&gt;Node21</title>
<path fill="none" stroke="midnightblue" d="M1075.36,-229.74C1107.43,-225.13 1155.67,-214.11 1188.78,-188 1238.13,-149.09 1246.56,-67.5 1247.76,-30.27"/>
<polygon fill="midnightblue" stroke="midnightblue" points="1251.26,-29.91 1247.93,-19.85 1244.27,-29.79 1251.26,-29.91"/>
</g>
<!-- Node30&#45;&gt;Node28 -->
<g id="edge48" class="edge">
<title>Node30&#45;&gt;Node28</title>
<path fill="none" stroke="midnightblue" d="M1075.47,-229.07C1103.3,-224.09 1141.97,-212.92 1165.78,-188 1207.72,-144.12 1221.99,-112.87 1200.78,-56 1196.61,-44.81 1188.26,-34.56 1180.36,-26.68"/>
<polygon fill="midnightblue" stroke="midnightblue" points="1182.48,-23.87 1172.77,-19.63 1177.72,-29 1182.48,-23.87"/>
</g>
<!-- Node31 -->
<g id="node31" class="node">
<title>Node31</title>
<g id="a_node31"><a xlink:title=" ">
<polygon fill="white" stroke="#bfbfbf" points="1011.28,-168.5 1011.28,-187.5 1072.28,-187.5 1072.28,-168.5 1011.28,-168.5"/>
<text text-anchor="middle" x="1041.78" y="-175.5" font-family="Helvetica,sans-Serif" font-size="10.00">charconv</text>
</a>
</g>
</g>
<!-- Node30&#45;&gt;Node31 -->
<g id="edge42" class="edge">
<title>Node30&#45;&gt;Node31</title>
<path fill="none" stroke="midnightblue" d="M1041.78,-224.08C1041.78,-217.01 1041.78,-206.86 1041.78,-197.99"/>
<polygon fill="midnightblue" stroke="midnightblue" points="1045.28,-197.75 1041.78,-187.75 1038.28,-197.75 1045.28,-197.75"/>
</g>
<!-- Node32 -->
<g id="node32" class="node">
<title>Node32</title>
<g id="a_node32"><a xlink:title=" ">
<polygon fill="white" stroke="#bfbfbf" points="1090.78,-168.5 1090.78,-187.5 1140.78,-187.5 1140.78,-168.5 1090.78,-168.5"/>
<text text-anchor="middle" x="1115.78" y="-175.5" font-family="Helvetica,sans-Serif" font-size="10.00">cstdint</text>
</a>
</g>
</g>
<!-- Node30&#45;&gt;Node32 -->
<g id="edge43" class="edge">
<title>Node30&#45;&gt;Node32</title>
<path fill="none" stroke="midnightblue" d="M1053.67,-224.32C1064.93,-216.11 1082.07,-203.6 1095.49,-193.81"/>
<polygon fill="midnightblue" stroke="midnightblue" points="1097.66,-196.56 1103.67,-187.83 1093.53,-190.9 1097.66,-196.56"/>
</g>
</g>
</svg>
        <g id="navigator" transform="translate(0 0)" fill="#404254">
                <rect fill="#f2f5e9" fill-opacity="0.5" stroke="#606060" stroke-width=".5" x="0" y="0" width="60" height="60"/>
                <use id="zoomplus" xlink:href="#zoomPlus" x="17" y="9" onmousedown="handleZoom(evt,'in')"/>
                <use id="zoomminus" xlink:href="#zoomMin" x="42" y="9" onmousedown="handleZoom(evt,'out')"/>
                <use id="reset" xlink:href="#resetDef" x="30" y="36" onmousedown="handleReset()"/>
                <g id="arrowUp" xlink:href="#dirArrow" transform="translate(30 24)" onmousedown="handlePan(0,-1)">
                  <use xlink:href="#rim" fill="#404040">
                        <set attributeName="fill" to="#808080" begin="arrowUp.mouseover" end="arrowUp.mouseout"/>
                  </use>
                  <path fill="none" stroke="white" stroke-width="1.5" d="M0,-3.0v7 M-2.5,-0.5L0,-3.0L2.5,-0.5"/>
                </g>
                <g id="arrowRight" xlink:href="#dirArrow" transform="rotate(90) translate(36 -43)" onmousedown="handlePan(1,0)">
                  <use xlink:href="#rim" fill="#404040">
                        <set attributeName="fill" to="#808080" begin="arrowRight.mouseover" end="arrowRight.mouseout"/>
                  </use>
                  <path fill="none" stroke="white" stroke-width="1.5" d="M0,-3.0v7 M-2.5,-0.5L0,-3.0L2.5,-0.5"/>
                </g>
                <g id="arrowDown" xlink:href="#dirArrow" transform="rotate(180) translate(-30 -48)" onmousedown="handlePan(0,1)">
                  <use xlink:href="#rim" fill="#404040">
                        <set attributeName="fill" to="#808080" begin="arrowDown.mouseover" end="arrowDown.mouseout"/>
                  </use>
                  <path fill="none" stroke="white" stroke-width="1.5" d="M0,-3.0v7 M-2.5,-0.5L0,-3.0L2.5,-0.5"/>
                </g>
                <g id="arrowLeft" xlink:href="#dirArrow" transform="rotate(270) translate(-36 17)" onmousedown="handlePan(-1,0)">
                  <use xlink:href="#rim" fill="#404040">
                        <set attributeName="fill" to="#808080" begin="arrowLeft.mouseover" end="arrowLeft.mouseout"/>
                  </use>
                  <path fill="none" stroke="white" stroke-width="1.5" d="M0,-3.0v7 M-2.5,-0.5L0,-3.0L2.5,-0.5"/>
                </g>
        </g>
        <svg viewBox="0 0 15 15" width="100%" height="30px" preserveAspectRatio="xMaxYMin meet">
         <g id="arrow_out" transform="scale(0.3 0.3)">
          <a xlink:href="tx__pimpl_8h__incl_org.svg" target="_base">
           <rect id="button" ry="5" rx="5" y="6" x="6" height="38" width="38"
                fill="#f2f5e9" fill-opacity="0.5" stroke="#606060" stroke-width="1.0"/>
           <path id="arrow"
             d="M 11.500037,31.436501 C 11.940474,20.09759 22.043105,11.32322 32.158766,21.979434 L 37.068811,17.246167 C 37.068811,17.246167 37.088388,32 37.088388,32 L 22.160133,31.978069 C 22.160133,31.978069 26.997745,27.140456 26.997745,27.140456 C 18.528582,18.264221 13.291696,25.230495 11.500037,31.436501 z"
             style="fill:#404040;"/>
          </a>
         </g>
        </svg>
</svg>
