<?xml version="1.0" encoding="UTF-8" standalone="no"?>
<!DOCTYPE svg PUBLIC "-//W3C//DTD SVG 1.1//EN"
 "http://www.w3.org/Graphics/SVG/1.1/DTD/svg11.dtd">
<!-- Generated by graphviz version 2.43.0 (0)
 -->
<!-- Title: src/apps/js_v8/v8_runner.h Pages: 1 -->
<svg width="603pt" height="84pt"
 viewBox="0.00 0.00 603.00 84.00" xmlns="http://www.w3.org/2000/svg" xmlns:xlink="http://www.w3.org/1999/xlink">
<g id="graph0" class="graph" transform="scale(1 1) rotate(0) translate(4 80)">
<title>src/apps/js_v8/v8_runner.h</title>
<polygon fill="white" stroke="transparent" points="-4,4 -4,-80 599,-80 599,4 -4,4"/>
<!-- Node1 -->
<g id="node1" class="node">
<title>Node1</title>
<g id="a_node1"><a xlink:title=" ">
<polygon fill="#bfbfbf" stroke="black" points="229.5,-56.5 229.5,-75.5 375.5,-75.5 375.5,-56.5 229.5,-56.5"/>
<text text-anchor="middle" x="302.5" y="-63.5" font-family="Helvetica,sans-Serif" font-size="10.00">src/apps/js_v8/v8_runner.h</text>
</a>
</g>
</g>
<!-- Node2 -->
<g id="node2" class="node">
<title>Node2</title>
<g id="a_node2"><a xlink:title=" ">
<polygon fill="white" stroke="#bfbfbf" points="0,-0.5 0,-19.5 65,-19.5 65,-0.5 0,-0.5"/>
<text text-anchor="middle" x="32.5" y="-7.5" font-family="Helvetica,sans-Serif" font-size="10.00">functional</text>
</a>
</g>
</g>
<!-- Node1&#45;&gt;Node2 -->
<g id="edge1" class="edge">
<title>Node1&#45;&gt;Node2</title>
<path fill="none" stroke="midnightblue" d="M257.89,-56.42C213.97,-47.92 144.7,-34.38 74.9,-20.06"/>
<polygon fill="midnightblue" stroke="midnightblue" points="75.55,-16.62 65.05,-18.03 74.14,-23.47 75.55,-16.62"/>
</g>
<!-- Node3 -->
<g id="node3" class="node">
<title>Node3</title>
<g id="a_node3"><a xlink:title=" ">
<polygon fill="white" stroke="#bfbfbf" points="83.5,-0.5 83.5,-19.5 141.5,-19.5 141.5,-0.5 83.5,-0.5"/>
<text text-anchor="middle" x="112.5" y="-7.5" font-family="Helvetica,sans-Serif" font-size="10.00">memory</text>
</a>
</g>
</g>
<!-- Node1&#45;&gt;Node3 -->
<g id="edge2" class="edge">
<title>Node1&#45;&gt;Node3</title>
<path fill="none" stroke="midnightblue" d="M272.39,-56.44C239.59,-47.12 187,-32.17 151.16,-21.99"/>
<polygon fill="midnightblue" stroke="midnightblue" points="152.11,-18.62 141.53,-19.25 150.19,-25.35 152.11,-18.62"/>
</g>
<!-- Node4 -->
<g id="node4" class="node">
<title>Node4</title>
<g id="a_node4"><a xlink:title=" ">
<polygon fill="white" stroke="#bfbfbf" points="159.5,-0.5 159.5,-19.5 215.5,-19.5 215.5,-0.5 159.5,-0.5"/>
<text text-anchor="middle" x="187.5" y="-7.5" font-family="Helvetica,sans-Serif" font-size="10.00">optional</text>
</a>
</g>
</g>
<!-- Node1&#45;&gt;Node4 -->
<g id="edge3" class="edge">
<title>Node1&#45;&gt;Node4</title>
<path fill="none" stroke="midnightblue" d="M284.28,-56.44C265.6,-47.68 236.34,-33.94 214.88,-23.86"/>
<polygon fill="midnightblue" stroke="midnightblue" points="216.18,-20.6 205.64,-19.52 213.2,-26.93 216.18,-20.6"/>
</g>
<!-- Node5 -->
<g id="node5" class="node">
<title>Node5</title>
<g id="a_node5"><a xlink:title=" ">
<polygon fill="white" stroke="#bfbfbf" points="234,-0.5 234,-19.5 299,-19.5 299,-0.5 234,-0.5"/>
<text text-anchor="middle" x="266.5" y="-7.5" font-family="Helvetica,sans-Serif" font-size="10.00">stdexcept</text>
</a>
</g>
</g>
<!-- Node1&#45;&gt;Node5 -->
<g id="edge4" class="edge">
<title>Node1&#45;&gt;Node5</title>
<path fill="none" stroke="midnightblue" d="M296.56,-56.08C291.52,-48.53 284.16,-37.49 277.99,-28.23"/>
<polygon fill="midnightblue" stroke="midnightblue" points="280.79,-26.13 272.33,-19.75 274.97,-30.01 280.79,-26.13"/>
</g>
<!-- Node6 -->
<g id="node6" class="node">
<title>Node6</title>
<g id="a_node6"><a xlink:title=" ">
<polygon fill="white" stroke="#bfbfbf" points="317.5,-0.5 317.5,-19.5 361.5,-19.5 361.5,-0.5 317.5,-0.5"/>
<text text-anchor="middle" x="339.5" y="-7.5" font-family="Helvetica,sans-Serif" font-size="10.00">string</text>
</a>
</g>
</g>
<!-- Node1&#45;&gt;Node6 -->
<g id="edge5" class="edge">
<title>Node1&#45;&gt;Node6</title>
<path fill="none" stroke="midnightblue" d="M308.61,-56.08C313.78,-48.53 321.35,-37.49 327.69,-28.23"/>
<polygon fill="midnightblue" stroke="midnightblue" points="330.74,-29.98 333.5,-19.75 324.96,-26.02 330.74,-29.98"/>
</g>
<!-- Node7 -->
<g id="node7" class="node">
<title>Node7</title>
<g id="a_node7"><a xlink:title=" ">
<polygon fill="white" stroke="#bfbfbf" points="380,-0.5 380,-19.5 473,-19.5 473,-0.5 380,-0.5"/>
<text text-anchor="middle" x="426.5" y="-7.5" font-family="Helvetica,sans-Serif" font-size="10.00">unordered_map</text>
</a>
</g>
</g>
<!-- Node1&#45;&gt;Node7 -->
<g id="edge6" class="edge">
<title>Node1&#45;&gt;Node7</title>
<path fill="none" stroke="midnightblue" d="M322.15,-56.44C342.46,-47.6 374.4,-33.69 397.6,-23.59"/>
<polygon fill="midnightblue" stroke="midnightblue" points="399.17,-26.72 406.94,-19.52 396.38,-20.3 399.17,-26.72"/>
</g>
<!-- Node8 -->
<g id="node8" class="node">
<title>Node8</title>
<g id="a_node8"><a xlink:title=" ">
<polygon fill="white" stroke="#bfbfbf" points="491.5,-0.5 491.5,-19.5 529.5,-19.5 529.5,-0.5 491.5,-0.5"/>
<text text-anchor="middle" x="510.5" y="-7.5" font-family="Helvetica,sans-Serif" font-size="10.00">v8.h</text>
</a>
</g>
</g>
<!-- Node1&#45;&gt;Node8 -->
<g id="edge7" class="edge">
<title>Node1&#45;&gt;Node8</title>
<path fill="none" stroke="midnightblue" d="M339.58,-56.49C374.03,-48.41 426.98,-35.57 481.45,-20.17"/>
<polygon fill="midnightblue" stroke="midnightblue" points="482.61,-23.47 491.27,-17.36 480.69,-16.74 482.61,-23.47"/>
</g>
<!-- Node9 -->
<g id="node9" class="node">
<title>Node9</title>
<g id="a_node9"><a xlink:title=" ">
<polygon fill="white" stroke="#bfbfbf" points="548,-0.5 548,-19.5 595,-19.5 595,-0.5 548,-0.5"/>
<text text-anchor="middle" x="571.5" y="-7.5" font-family="Helvetica,sans-Serif" font-size="10.00">vector</text>
</a>
</g>
</g>
<!-- Node1&#45;&gt;Node9 -->
<g id="edge8" class="edge">
<title>Node1&#45;&gt;Node9</title>
<path fill="none" stroke="midnightblue" d="M353.38,-56.48C399.18,-48.54 468.53,-35.87 537.97,-19.97"/>
<polygon fill="midnightblue" stroke="midnightblue" points="538.81,-23.37 547.76,-17.71 537.23,-16.55 538.81,-23.37"/>
</g>
</g>
</svg>
