<?xml version="1.0" encoding="UTF-8" standalone="no"?>
<!DOCTYPE svg PUBLIC "-//W3C//DTD SVG 1.1//EN"
 "http://www.w3.org/Graphics/SVG/1.1/DTD/svg11.dtd">
<!-- Generated by graphviz version 2.43.0 (0)
 -->
<!-- Title: include/ccf/version.h Pages: 1 -->
<!--zoomable 386 -->
<svg id="main" version="1.1" xmlns="http://www.w3.org/2000/svg" xmlns:xlink="http://www.w3.org/1999/xlink" xml:space="preserve" onload="init(evt)">
<style type="text/css"><![CDATA[
.edge:hover path { stroke: red; }
.edge:hover polygon { stroke: red; fill: red; }
]]></style>
<script type="text/javascript"><![CDATA[
var edges = document.getElementsByTagName('g');
if (edges && edges.length) {
  for (var i=0;i<edges.length;i++) {
    if (edges[i].id.substr(0,4)=='edge') {
      edges[i].setAttribute('class','edge');
    }
  }
}
]]></script>
        <defs>
                <circle id="rim" cx="0" cy="0" r="7"/>
                <circle id="rim2" cx="0" cy="0" r="3.5"/>
                <g id="zoomPlus">
                        <use xlink:href="#rim" fill="#404040">
                                <set attributeName="fill" to="#808080" begin="zoomplus.mouseover" end="zoomplus.mouseout"/>
                        </use>
                        <path d="M-4,0h8M0,-4v8" fill="none" stroke="white" stroke-width="1.5" pointer-events="none"/>
                </g>
                <g id="zoomMin">
                        <use xlink:href="#rim" fill="#404040">
                                <set attributeName="fill" to="#808080" begin="zoomminus.mouseover" end="zoomminus.mouseout"/>
                        </use>
                        <path d="M-4,0h8" fill="none" stroke="white" stroke-width="1.5" pointer-events="none"/>
                </g>
                <g id="dirArrow">
                        <path fill="none" stroke="white" stroke-width="1.5" d="M0,-3.0v7 M-2.5,-0.5L0,-3.0L2.5,-0.5"/>
                </g>
               <g id="resetDef">
                       <use xlink:href="#rim2" fill="#404040">
                               <set attributeName="fill" to="#808080" begin="reset.mouseover" end="reset.mouseout"/>
                       </use>
               </g>
        </defs>

<script type="text/javascript">
var viewWidth = 1065;
var viewHeight = 386;
var sectionId = 'dynsection-1';
</script>
<script xlink:href="svgpan.js"/>
<svg id="graph" class="graph">
<g id="viewport">
<title>include/ccf/version.h</title>
<polygon fill="white" stroke="transparent" points="-4,4 -4,-382 1060.5,-382 1060.5,4 -4,4"/>
<!-- Node1 -->
<g id="node1" class="node">
<title>Node1</title>
<g id="a_node1"><a xlink:title=" ">
<polygon fill="#bfbfbf" stroke="black" points="462,-358.5 462,-377.5 579,-377.5 579,-358.5 462,-358.5"/>
<text text-anchor="middle" x="520.5" y="-365.5" font-family="Helvetica,sans-Serif" font-size="10.00">include/ccf/version.h</text>
</a>
</g>
</g>
<!-- Node2 -->
<g id="node2" class="node">
<title>Node2</title>
<g id="a_node2"><a xlink:href="logging_8cpp.html" target="_top" xlink:title=" ">
<polygon fill="white" stroke="black" points="0,-291.5 0,-321.5 123,-321.5 123,-291.5 0,-291.5"/>
<text text-anchor="start" x="8" y="-309.5" font-family="Helvetica,sans-Serif" font-size="10.00">samples/apps/logging</text>
<text text-anchor="middle" x="61.5" y="-298.5" font-family="Helvetica,sans-Serif" font-size="10.00">/logging.cpp</text>
</a>
</g>
</g>
<!-- Node1&#45;&gt;Node2 -->
<g id="edge1" class="edge">
<title>Node1&#45;&gt;Node2</title>
<path fill="none" stroke="midnightblue" d="M451.63,-360.82C373.87,-353.42 243.69,-339.77 132.5,-322 129.39,-321.5 126.22,-320.97 123.01,-320.4"/>
<polygon fill="midnightblue" stroke="midnightblue" points="451.5,-364.32 461.78,-361.78 452.16,-357.35 451.5,-364.32"/>
</g>
<!-- Node3 -->
<g id="node3" class="node">
<title>Node3</title>
<g id="a_node3"><a xlink:href="js__generic__base_8cpp.html" target="_top" xlink:title=" ">
<polygon fill="white" stroke="black" points="141.5,-291.5 141.5,-321.5 259.5,-321.5 259.5,-291.5 141.5,-291.5"/>
<text text-anchor="start" x="149.5" y="-309.5" font-family="Helvetica,sans-Serif" font-size="10.00">src/apps/js_generic</text>
<text text-anchor="middle" x="200.5" y="-298.5" font-family="Helvetica,sans-Serif" font-size="10.00">/js_generic_base.cpp</text>
</a>
</g>
</g>
<!-- Node1&#45;&gt;Node3 -->
<g id="edge2" class="edge">
<title>Node1&#45;&gt;Node3</title>
<path fill="none" stroke="midnightblue" d="M459.83,-356.75C408.72,-347.98 333.72,-334.77 268.5,-322 265.66,-321.44 262.75,-320.86 259.81,-320.27"/>
<polygon fill="midnightblue" stroke="midnightblue" points="459.28,-360.21 469.73,-358.45 460.46,-353.31 459.28,-360.21"/>
</g>
<!-- Node4 -->
<g id="node4" class="node">
<title>Node4</title>
<g id="a_node4"><a xlink:href="js__v8__base_8cpp.html" target="_top" xlink:title=" ">
<polygon fill="white" stroke="black" points="277.5,-291.5 277.5,-321.5 391.5,-321.5 391.5,-291.5 277.5,-291.5"/>
<text text-anchor="start" x="285.5" y="-309.5" font-family="Helvetica,sans-Serif" font-size="10.00">src/apps/js_v8/js_v8</text>
<text text-anchor="middle" x="334.5" y="-298.5" font-family="Helvetica,sans-Serif" font-size="10.00">_base.cpp</text>
</a>
</g>
</g>
<!-- Node1&#45;&gt;Node4 -->
<g id="edge3" class="edge">
<title>Node1&#45;&gt;Node4</title>
<path fill="none" stroke="midnightblue" d="M484.1,-355.36C453.8,-345.66 410.55,-331.83 378.34,-321.52"/>
<polygon fill="midnightblue" stroke="midnightblue" points="483.26,-358.76 493.85,-358.48 485.39,-352.09 483.26,-358.76"/>
</g>
<!-- Node5 -->
<g id="node5" class="node">
<title>Node5</title>
<g id="a_node5"><a xlink:href="enclave_2main_8cpp.html" target="_top" xlink:title=" ">
<polygon fill="white" stroke="black" points="560.5,-0.5 560.5,-19.5 680.5,-19.5 680.5,-0.5 560.5,-0.5"/>
<text text-anchor="middle" x="620.5" y="-7.5" font-family="Helvetica,sans-Serif" font-size="10.00">src/enclave/main.cpp</text>
</a>
</g>
</g>
<!-- Node1&#45;&gt;Node5 -->
<g id="edge4" class="edge">
<title>Node1&#45;&gt;Node5</title>
<path fill="none" stroke="midnightblue" d="M494.85,-353.4C482.37,-345.65 468.04,-334.91 458.5,-322 418.57,-267.97 409.5,-246.18 409.5,-179 409.5,-179 409.5,-179 409.5,-121 409.5,-52.53 497.95,-26.61 560.32,-16.84"/>
<polygon fill="midnightblue" stroke="midnightblue" points="493.12,-356.44 503.51,-358.5 496.67,-350.41 493.12,-356.44"/>
</g>
<!-- Node6 -->
<g id="node6" class="node">
<title>Node6</title>
<g id="a_node6"><a xlink:href="host_2enclave_8h.html" target="_top" xlink:title=" ">
<polygon fill="white" stroke="black" points="468,-297 468,-316 573,-316 573,-297 468,-297"/>
<text text-anchor="middle" x="520.5" y="-304" font-family="Helvetica,sans-Serif" font-size="10.00">src/host/enclave.h</text>
</a>
</g>
</g>
<!-- Node1&#45;&gt;Node6 -->
<g id="edge5" class="edge">
<title>Node1&#45;&gt;Node6</title>
<path fill="none" stroke="midnightblue" d="M520.5,-348.32C520.5,-337.5 520.5,-324.4 520.5,-316.01"/>
<polygon fill="midnightblue" stroke="midnightblue" points="517,-348.48 520.5,-358.48 524,-348.48 517,-348.48"/>
</g>
<!-- Node7 -->
<g id="node7" class="node">
<title>Node7</title>
<g id="a_node7"><a xlink:href="host_2main_8cpp.html" target="_top" xlink:title=" ">
<polygon fill="white" stroke="black" points="539,-168.5 539,-187.5 642,-187.5 642,-168.5 539,-168.5"/>
<text text-anchor="middle" x="590.5" y="-175.5" font-family="Helvetica,sans-Serif" font-size="10.00">src/host/main.cpp</text>
</a>
</g>
</g>
<!-- Node1&#45;&gt;Node7 -->
<g id="edge11" class="edge">
<title>Node1&#45;&gt;Node7</title>
<path fill="none" stroke="midnightblue" d="M540.67,-352.4C552.62,-343.68 568.01,-332.33 581.5,-322 599.08,-308.54 601.44,-302.27 620.5,-291 656.17,-269.91 683.54,-289.5 706.5,-255 714.13,-243.53 714.28,-235.37 706.5,-224 691.98,-202.79 665.89,-191.57 642.13,-185.65"/>
<polygon fill="midnightblue" stroke="midnightblue" points="538.32,-349.78 532.29,-358.5 542.43,-355.45 538.32,-349.78"/>
</g>
<!-- Node10 -->
<g id="node10" class="node">
<title>Node10</title>
<g id="a_node10"><a xlink:href="openenclave_8cpp.html" target="_top" xlink:title=" ">
<polygon fill="white" stroke="black" points="629.5,-297 629.5,-316 757.5,-316 757.5,-297 629.5,-297"/>
<text text-anchor="middle" x="693.5" y="-304" font-family="Helvetica,sans-Serif" font-size="10.00">src/js/openenclave.cpp</text>
</a>
</g>
</g>
<!-- Node1&#45;&gt;Node10 -->
<g id="edge12" class="edge">
<title>Node1&#45;&gt;Node10</title>
<path fill="none" stroke="midnightblue" d="M555.15,-355.08C588.78,-343.52 638.98,-326.25 668.76,-316.01"/>
<polygon fill="midnightblue" stroke="midnightblue" points="553.6,-351.91 545.29,-358.48 555.88,-358.53 553.6,-351.91"/>
</g>
<!-- Node11 -->
<g id="node11" class="node">
<title>Node11</title>
<g id="a_node11"><a xlink:href="wrap_8cpp.html" target="_top" xlink:title=" ">
<polygon fill="white" stroke="black" points="776,-297 776,-316 865,-316 865,-297 776,-297"/>
<text text-anchor="middle" x="820.5" y="-304" font-family="Helvetica,sans-Serif" font-size="10.00">src/js/wrap.cpp</text>
</a>
</g>
</g>
<!-- Node1&#45;&gt;Node11 -->
<g id="edge13" class="edge">
<title>Node1&#45;&gt;Node11</title>
<path fill="none" stroke="midnightblue" d="M584.49,-356.76C634.31,-348.44 705.08,-335.84 766.5,-322 774.27,-320.25 782.6,-318.13 790.33,-316.06"/>
<polygon fill="midnightblue" stroke="midnightblue" points="583.79,-353.33 574.5,-358.42 584.94,-360.24 583.79,-353.33"/>
</g>
<!-- Node12 -->
<g id="node12" class="node">
<title>Node12</title>
<g id="a_node12"><a xlink:href="node__frontend_8h.html" target="_top" xlink:title=" ">
<polygon fill="white" stroke="black" points="882.5,-297 882.5,-316 1040.5,-316 1040.5,-297 882.5,-297"/>
<text text-anchor="middle" x="961.5" y="-304" font-family="Helvetica,sans-Serif" font-size="10.00">src/node/rpc/node_frontend.h</text>
</a>
</g>
</g>
<!-- Node1&#45;&gt;Node12 -->
<g id="edge14" class="edge">
<title>Node1&#45;&gt;Node12</title>
<path fill="none" stroke="midnightblue" d="M589.38,-359.04C660.79,-350.61 775.62,-336.52 874.5,-322 886.77,-320.2 899.99,-318.08 912.32,-316.04"/>
<polygon fill="midnightblue" stroke="midnightblue" points="588.68,-355.6 579.16,-360.25 589.5,-362.55 588.68,-355.6"/>
</g>
<!-- Node6&#45;&gt;Node7 -->
<g id="edge6" class="edge">
<title>Node6&#45;&gt;Node7</title>
<path fill="none" stroke="midnightblue" d="M499.16,-290.91C477.82,-274.48 450.33,-247.07 466.5,-224 482.87,-200.65 512.64,-189.37 538.91,-183.94"/>
<polygon fill="midnightblue" stroke="midnightblue" points="497.09,-293.73 507.22,-296.83 501.24,-288.09 497.09,-293.73"/>
</g>
<!-- Node8 -->
<g id="node8" class="node">
<title>Node8</title>
<g id="a_node8"><a xlink:href="sig__term_8h.html" target="_top" xlink:title=" ">
<polygon fill="white" stroke="black" points="475.5,-230 475.5,-249 585.5,-249 585.5,-230 475.5,-230"/>
<text text-anchor="middle" x="530.5" y="-237" font-family="Helvetica,sans-Serif" font-size="10.00">src/host/sig_term.h</text>
</a>
</g>
</g>
<!-- Node6&#45;&gt;Node8 -->
<g id="edge7" class="edge">
<title>Node6&#45;&gt;Node8</title>
<path fill="none" stroke="midnightblue" d="M523.42,-286.54C525.32,-274.17 527.71,-258.62 529.17,-249.13"/>
<polygon fill="midnightblue" stroke="midnightblue" points="519.91,-286.32 521.85,-296.73 526.83,-287.38 519.91,-286.32"/>
</g>
<!-- Node9 -->
<g id="node9" class="node">
<title>Node9</title>
<g id="a_node9"><a xlink:href="ticker_8h.html" target="_top" xlink:title=" ">
<polygon fill="white" stroke="black" points="604,-230 604,-249 697,-249 697,-230 604,-230"/>
<text text-anchor="middle" x="650.5" y="-237" font-family="Helvetica,sans-Serif" font-size="10.00">src/host/ticker.h</text>
</a>
</g>
</g>
<!-- Node6&#45;&gt;Node9 -->
<g id="edge9" class="edge">
<title>Node6&#45;&gt;Node9</title>
<path fill="none" stroke="midnightblue" d="M546.95,-292.27C572.7,-279.4 611.08,-260.21 633.17,-249.17"/>
<polygon fill="midnightblue" stroke="midnightblue" points="545.14,-289.27 537.76,-296.87 548.27,-295.53 545.14,-289.27"/>
</g>
<!-- Node8&#45;&gt;Node7 -->
<g id="edge8" class="edge">
<title>Node8&#45;&gt;Node7</title>
<path fill="none" stroke="midnightblue" d="M546.31,-222.82C557.71,-211.52 572.66,-196.69 581.92,-187.51"/>
<polygon fill="midnightblue" stroke="midnightblue" points="543.73,-220.45 539.1,-229.98 548.66,-225.42 543.73,-220.45"/>
</g>
<!-- Node9&#45;&gt;Node7 -->
<g id="edge10" class="edge">
<title>Node9&#45;&gt;Node7</title>
<path fill="none" stroke="midnightblue" d="M634.69,-222.82C623.29,-211.52 608.34,-196.69 599.08,-187.51"/>
<polygon fill="midnightblue" stroke="midnightblue" points="632.34,-225.42 641.9,-229.98 637.27,-220.45 632.34,-225.42"/>
</g>
<!-- Node13 -->
<g id="node13" class="node">
<title>Node13</title>
<g id="a_node13"><a xlink:href="enclave_2enclave_8h.html" target="_top" xlink:title=" ">
<polygon fill="white" stroke="black" points="804.5,-56.5 804.5,-75.5 926.5,-75.5 926.5,-56.5 804.5,-56.5"/>
<text text-anchor="middle" x="865.5" y="-63.5" font-family="Helvetica,sans-Serif" font-size="10.00">src/enclave/enclave.h</text>
</a>
</g>
</g>
<!-- Node12&#45;&gt;Node13 -->
<g id="edge15" class="edge">
<title>Node12&#45;&gt;Node13</title>
<path fill="none" stroke="midnightblue" d="M932.44,-292.09C917.43,-283.62 900.26,-271.2 890.5,-255 854.13,-194.65 861.1,-103.82 864.36,-75.65"/>
<polygon fill="midnightblue" stroke="midnightblue" points="930.94,-295.26 941.42,-296.86 934.22,-289.08 930.94,-295.26"/>
</g>
<!-- Node14 -->
<g id="node14" class="node">
<title>Node14</title>
<g id="a_node14"><a xlink:href="jwt__key__auto__refresh_8h.html" target="_top" xlink:title=" ">
<polygon fill="white" stroke="black" points="899,-224.5 899,-254.5 1024,-254.5 1024,-224.5 899,-224.5"/>
<text text-anchor="start" x="907" y="-242.5" font-family="Helvetica,sans-Serif" font-size="10.00">src/node/jwt_key_auto</text>
<text text-anchor="middle" x="961.5" y="-231.5" font-family="Helvetica,sans-Serif" font-size="10.00">_refresh.h</text>
</a>
</g>
</g>
<!-- Node12&#45;&gt;Node14 -->
<g id="edge17" class="edge">
<title>Node12&#45;&gt;Node14</title>
<path fill="none" stroke="midnightblue" d="M961.5,-286.41C961.5,-276.22 961.5,-263.9 961.5,-254.59"/>
<polygon fill="midnightblue" stroke="midnightblue" points="958,-286.73 961.5,-296.73 965,-286.73 958,-286.73"/>
</g>
<!-- Node13&#45;&gt;Node5 -->
<g id="edge16" class="edge">
<title>Node13&#45;&gt;Node5</title>
<path fill="none" stroke="midnightblue" d="M816.87,-54.28C770.57,-44.08 701.81,-28.92 659.14,-19.52"/>
<polygon fill="midnightblue" stroke="midnightblue" points="816.16,-57.71 826.68,-56.44 817.67,-50.87 816.16,-57.71"/>
</g>
<!-- Node15 -->
<g id="node15" class="node">
<title>Node15</title>
<g id="a_node15"><a xlink:href="node__state_8h.html" target="_top" xlink:title=" ">
<polygon fill="white" stroke="black" points="899.5,-168.5 899.5,-187.5 1023.5,-187.5 1023.5,-168.5 899.5,-168.5"/>
<text text-anchor="middle" x="961.5" y="-175.5" font-family="Helvetica,sans-Serif" font-size="10.00">src/node/node_state.h</text>
</a>
</g>
</g>
<!-- Node14&#45;&gt;Node15 -->
<g id="edge18" class="edge">
<title>Node14&#45;&gt;Node15</title>
<path fill="none" stroke="midnightblue" d="M961.5,-214.29C961.5,-204.86 961.5,-194.65 961.5,-187.66"/>
<polygon fill="midnightblue" stroke="midnightblue" points="958,-214.4 961.5,-224.4 965,-214.4 958,-214.4"/>
</g>
<!-- Node15&#45;&gt;Node13 -->
<g id="edge19" class="edge">
<title>Node15&#45;&gt;Node13</title>
<path fill="none" stroke="midnightblue" d="M939.09,-162.67C927.57,-154.58 913.81,-143.76 903.5,-132 887.81,-114.11 875.22,-88.81 869.26,-75.67"/>
<polygon fill="midnightblue" stroke="midnightblue" points="937.14,-165.57 947.38,-168.29 941.07,-159.78 937.14,-165.57"/>
</g>
<!-- Node16 -->
<g id="node16" class="node">
<title>Node16</title>
<g id="a_node16"><a xlink:href="gov__effects_8h.html" target="_top" xlink:title=" ">
<polygon fill="white" stroke="black" points="912.5,-112.5 912.5,-131.5 1056.5,-131.5 1056.5,-112.5 912.5,-112.5"/>
<text text-anchor="middle" x="984.5" y="-119.5" font-family="Helvetica,sans-Serif" font-size="10.00">src/node/rpc/gov_effects.h</text>
</a>
</g>
</g>
<!-- Node15&#45;&gt;Node16 -->
<g id="edge20" class="edge">
<title>Node15&#45;&gt;Node16</title>
<path fill="none" stroke="midnightblue" d="M969.3,-158.69C973.18,-149.59 977.68,-139.01 980.77,-131.75"/>
<polygon fill="midnightblue" stroke="midnightblue" points="966,-157.51 965.3,-168.08 972.44,-160.25 966,-157.51"/>
</g>
<!-- Node16&#45;&gt;Node13 -->
<g id="edge21" class="edge">
<title>Node16&#45;&gt;Node13</title>
<path fill="none" stroke="midnightblue" d="M956.36,-108.23C934.1,-98.13 903.64,-84.31 884.27,-75.52"/>
<polygon fill="midnightblue" stroke="midnightblue" points="955.09,-111.5 965.64,-112.44 957.98,-105.12 955.09,-111.5"/>
</g>
</g>
</svg>
        <g id="navigator" transform="translate(0 0)" fill="#404254">
                <rect fill="#f2f5e9" fill-opacity="0.5" stroke="#606060" stroke-width=".5" x="0" y="0" width="60" height="60"/>
                <use id="zoomplus" xlink:href="#zoomPlus" x="17" y="9" onmousedown="handleZoom(evt,'in')"/>
                <use id="zoomminus" xlink:href="#zoomMin" x="42" y="9" onmousedown="handleZoom(evt,'out')"/>
                <use id="reset" xlink:href="#resetDef" x="30" y="36" onmousedown="handleReset()"/>
                <g id="arrowUp" xlink:href="#dirArrow" transform="translate(30 24)" onmousedown="handlePan(0,-1)">
                  <use xlink:href="#rim" fill="#404040">
                        <set attributeName="fill" to="#808080" begin="arrowUp.mouseover" end="arrowUp.mouseout"/>
                  </use>
                  <path fill="none" stroke="white" stroke-width="1.5" d="M0,-3.0v7 M-2.5,-0.5L0,-3.0L2.5,-0.5"/>
                </g>
                <g id="arrowRight" xlink:href="#dirArrow" transform="rotate(90) translate(36 -43)" onmousedown="handlePan(1,0)">
                  <use xlink:href="#rim" fill="#404040">
                        <set attributeName="fill" to="#808080" begin="arrowRight.mouseover" end="arrowRight.mouseout"/>
                  </use>
                  <path fill="none" stroke="white" stroke-width="1.5" d="M0,-3.0v7 M-2.5,-0.5L0,-3.0L2.5,-0.5"/>
                </g>
                <g id="arrowDown" xlink:href="#dirArrow" transform="rotate(180) translate(-30 -48)" onmousedown="handlePan(0,1)">
                  <use xlink:href="#rim" fill="#404040">
                        <set attributeName="fill" to="#808080" begin="arrowDown.mouseover" end="arrowDown.mouseout"/>
                  </use>
                  <path fill="none" stroke="white" stroke-width="1.5" d="M0,-3.0v7 M-2.5,-0.5L0,-3.0L2.5,-0.5"/>
                </g>
                <g id="arrowLeft" xlink:href="#dirArrow" transform="rotate(270) translate(-36 17)" onmousedown="handlePan(-1,0)">
                  <use xlink:href="#rim" fill="#404040">
                        <set attributeName="fill" to="#808080" begin="arrowLeft.mouseover" end="arrowLeft.mouseout"/>
                  </use>
                  <path fill="none" stroke="white" stroke-width="1.5" d="M0,-3.0v7 M-2.5,-0.5L0,-3.0L2.5,-0.5"/>
                </g>
        </g>
        <svg viewBox="0 0 15 15" width="100%" height="30px" preserveAspectRatio="xMaxYMin meet">
         <g id="arrow_out" transform="scale(0.3 0.3)">
          <a xlink:href="version_8h__dep__incl_org.svg" target="_base">
           <rect id="button" ry="5" rx="5" y="6" x="6" height="38" width="38"
                fill="#f2f5e9" fill-opacity="0.5" stroke="#606060" stroke-width="1.0"/>
           <path id="arrow"
             d="M 11.500037,31.436501 C 11.940474,20.09759 22.043105,11.32322 32.158766,21.979434 L 37.068811,17.246167 C 37.068811,17.246167 37.088388,32 37.088388,32 L 22.160133,31.978069 C 22.160133,31.978069 26.997745,27.140456 26.997745,27.140456 C 18.528582,18.264221 13.291696,25.230495 11.500037,31.436501 z"
             style="fill:#404040;"/>
          </a>
         </g>
        </svg>
</svg>
